G04 #@! TF.GenerationSoftware,KiCad,Pcbnew,9.0.6*
G04 #@! TF.CreationDate,2026-01-15T23:38:00-05:00*
G04 #@! TF.ProjectId,telemetry_transmitter,74656c65-6d65-4747-9279-5f7472616e73,rev?*
G04 #@! TF.SameCoordinates,Original*
G04 #@! TF.FileFunction,Paste,Top*
G04 #@! TF.FilePolarity,Positive*
%FSLAX46Y46*%
G04 Gerber Fmt 4.6, Leading zero omitted, Abs format (unit mm)*
G04 Created by KiCad (PCBNEW 9.0.6) date 2026-01-15 23:38:00*
%MOMM*%
%LPD*%
G01*
G04 APERTURE LIST*
G04 Aperture macros list*
%AMRoundRect*
0 Rectangle with rounded corners*
0 $1 Rounding radius*
0 $2 $3 $4 $5 $6 $7 $8 $9 X,Y pos of 4 corners*
0 Add a 4 corners polygon primitive as box body*
4,1,4,$2,$3,$4,$5,$6,$7,$8,$9,$2,$3,0*
0 Add four circle primitives for the rounded corners*
1,1,$1+$1,$2,$3*
1,1,$1+$1,$4,$5*
1,1,$1+$1,$6,$7*
1,1,$1+$1,$8,$9*
0 Add four rect primitives between the rounded corners*
20,1,$1+$1,$2,$3,$4,$5,0*
20,1,$1+$1,$4,$5,$6,$7,0*
20,1,$1+$1,$6,$7,$8,$9,0*
20,1,$1+$1,$8,$9,$2,$3,0*%
G04 Aperture macros list end*
%ADD10RoundRect,0.237500X-0.237500X0.300000X-0.237500X-0.300000X0.237500X-0.300000X0.237500X0.300000X0*%
%ADD11RoundRect,0.237500X0.250000X0.237500X-0.250000X0.237500X-0.250000X-0.237500X0.250000X-0.237500X0*%
%ADD12RoundRect,0.237500X-0.300000X-0.237500X0.300000X-0.237500X0.300000X0.237500X-0.300000X0.237500X0*%
%ADD13RoundRect,0.237500X0.237500X-0.300000X0.237500X0.300000X-0.237500X0.300000X-0.237500X-0.300000X0*%
%ADD14RoundRect,0.162500X-0.162500X0.617500X-0.162500X-0.617500X0.162500X-0.617500X0.162500X0.617500X0*%
%ADD15RoundRect,0.250001X-0.462499X-0.624999X0.462499X-0.624999X0.462499X0.624999X-0.462499X0.624999X0*%
%ADD16R,3.800000X1.200000*%
%ADD17RoundRect,0.237500X0.300000X0.237500X-0.300000X0.237500X-0.300000X-0.237500X0.300000X-0.237500X0*%
%ADD18RoundRect,0.237500X-0.237500X0.250000X-0.237500X-0.250000X0.237500X-0.250000X0.237500X0.250000X0*%
%ADD19RoundRect,0.150000X0.150000X-0.512500X0.150000X0.512500X-0.150000X0.512500X-0.150000X-0.512500X0*%
%ADD20RoundRect,0.150000X-0.512500X-0.150000X0.512500X-0.150000X0.512500X0.150000X-0.512500X0.150000X0*%
%ADD21RoundRect,0.237500X0.237500X-0.250000X0.237500X0.250000X-0.237500X0.250000X-0.237500X-0.250000X0*%
%ADD22RoundRect,0.150000X0.750000X0.150000X-0.750000X0.150000X-0.750000X-0.150000X0.750000X-0.150000X0*%
%ADD23RoundRect,0.250000X0.350000X-0.450000X0.350000X0.450000X-0.350000X0.450000X-0.350000X-0.450000X0*%
G04 APERTURE END LIST*
D10*
G04 #@! TO.C,C9*
X148513800Y-82500300D03*
X148513800Y-84225300D03*
G04 #@! TD*
D11*
G04 #@! TO.C,R10*
X156690700Y-74980800D03*
X154865700Y-74980800D03*
G04 #@! TD*
D12*
G04 #@! TO.C,C1*
X162256300Y-123367800D03*
X163981300Y-123367800D03*
G04 #@! TD*
D13*
G04 #@! TO.C,C6*
X158038800Y-80542300D03*
X158038800Y-78817300D03*
G04 #@! TD*
D14*
G04 #@! TO.C,U4*
X154162800Y-97125800D03*
X153212800Y-97125800D03*
X152262800Y-97125800D03*
X152262800Y-99825800D03*
X154162800Y-99825800D03*
G04 #@! TD*
D15*
G04 #@! TO.C,D1*
X110704300Y-121081800D03*
X113679300Y-121081800D03*
G04 #@! TD*
D16*
G04 #@! TO.C,L1*
X152450800Y-84296800D03*
X152450800Y-86746800D03*
G04 #@! TD*
D10*
G04 #@! TO.C,C14*
X154990800Y-105360300D03*
X154990800Y-107085300D03*
G04 #@! TD*
D12*
G04 #@! TO.C,C2*
X162256300Y-117017800D03*
X163981300Y-117017800D03*
G04 #@! TD*
D13*
G04 #@! TO.C,C8*
X154228800Y-80542300D03*
X154228800Y-78817300D03*
G04 #@! TD*
D17*
G04 #@! TO.C,C12*
X152551300Y-108762800D03*
X150826300Y-108762800D03*
G04 #@! TD*
D18*
G04 #@! TO.C,R9*
X148513800Y-78640300D03*
X148513800Y-80465300D03*
G04 #@! TD*
D12*
G04 #@! TO.C,C15*
X151091300Y-103050800D03*
X152816300Y-103050800D03*
G04 #@! TD*
D13*
G04 #@! TO.C,C3*
X145973800Y-122833300D03*
X145973800Y-121108300D03*
G04 #@! TD*
D15*
G04 #@! TO.C,D2*
X116419300Y-121081800D03*
X119394300Y-121081800D03*
G04 #@! TD*
D19*
G04 #@! TO.C,U3*
X150611800Y-81198300D03*
X151561800Y-81198300D03*
X152511800Y-81198300D03*
X152511800Y-78923300D03*
X151561800Y-78923300D03*
X150611800Y-78923300D03*
G04 #@! TD*
D20*
G04 #@! TO.C,U5*
X150678300Y-105272800D03*
X150678300Y-106222800D03*
X150678300Y-107172800D03*
X152953300Y-107172800D03*
X152953300Y-105272800D03*
G04 #@! TD*
D11*
G04 #@! TO.C,R11*
X150442300Y-74980800D03*
X148617300Y-74980800D03*
G04 #@! TD*
D15*
G04 #@! TO.C,D3*
X116419300Y-124129800D03*
X119394300Y-124129800D03*
G04 #@! TD*
D17*
G04 #@! TO.C,C10*
X152297300Y-92252800D03*
X150572300Y-92252800D03*
G04 #@! TD*
D21*
G04 #@! TO.C,R12*
X150164800Y-99388300D03*
X150164800Y-97563300D03*
G04 #@! TD*
D10*
G04 #@! TO.C,C13*
X156260800Y-97613300D03*
X156260800Y-99338300D03*
G04 #@! TD*
D22*
G04 #@! TO.C,U1*
X158266800Y-132511800D03*
X158266800Y-131241800D03*
X158266800Y-129971800D03*
X158266800Y-128701800D03*
X158266800Y-127431800D03*
X158266800Y-126161800D03*
X158266800Y-124891800D03*
X158266800Y-123621800D03*
X158266800Y-122351800D03*
X158266800Y-121081800D03*
X158266800Y-119811800D03*
X158266800Y-118541800D03*
X158266800Y-117271800D03*
X158266800Y-116001800D03*
X148666800Y-116001800D03*
X148666800Y-117271800D03*
X148666800Y-118541800D03*
X148666800Y-119811800D03*
X148666800Y-121081800D03*
X148666800Y-122351800D03*
X148666800Y-123621800D03*
X148666800Y-124891800D03*
X148666800Y-126161800D03*
X148666800Y-127431800D03*
X148666800Y-128701800D03*
X148666800Y-129971800D03*
X148666800Y-131241800D03*
X148666800Y-132511800D03*
G04 #@! TD*
D17*
G04 #@! TO.C,C11*
X152297300Y-89712800D03*
X150572300Y-89712800D03*
G04 #@! TD*
D13*
G04 #@! TO.C,C7*
X156133800Y-80542300D03*
X156133800Y-78817300D03*
G04 #@! TD*
D23*
G04 #@! TO.C,Y1*
X163968800Y-121292800D03*
X163968800Y-119092800D03*
X162268800Y-119092800D03*
X162268800Y-121292800D03*
G04 #@! TD*
M02*
