G04 #@! TF.GenerationSoftware,KiCad,Pcbnew,9.0.7*
G04 #@! TF.CreationDate,2026-03-19T00:15:24-04:00*
G04 #@! TF.ProjectId,power-splitter,706f7765-722d-4737-906c-69747465722e,rev?*
G04 #@! TF.SameCoordinates,Original*
G04 #@! TF.FileFunction,Copper,L1,Top*
G04 #@! TF.FilePolarity,Positive*
%FSLAX46Y46*%
G04 Gerber Fmt 4.6, Leading zero omitted, Abs format (unit mm)*
G04 Created by KiCad (PCBNEW 9.0.7) date 2026-03-19 00:15:24*
%MOMM*%
%LPD*%
G01*
G04 APERTURE LIST*
G04 Aperture macros list*
%AMRoundRect*
0 Rectangle with rounded corners*
0 $1 Rounding radius*
0 $2 $3 $4 $5 $6 $7 $8 $9 X,Y pos of 4 corners*
0 Add a 4 corners polygon primitive as box body*
4,1,4,$2,$3,$4,$5,$6,$7,$8,$9,$2,$3,0*
0 Add four circle primitives for the rounded corners*
1,1,$1+$1,$2,$3*
1,1,$1+$1,$4,$5*
1,1,$1+$1,$6,$7*
1,1,$1+$1,$8,$9*
0 Add four rect primitives between the rounded corners*
20,1,$1+$1,$2,$3,$4,$5,0*
20,1,$1+$1,$4,$5,$6,$7,0*
20,1,$1+$1,$6,$7,$8,$9,0*
20,1,$1+$1,$8,$9,$2,$3,0*%
G04 Aperture macros list end*
G04 #@! TA.AperFunction,Conductor*
%ADD10C,0.841000*%
G04 #@! TD*
G04 #@! TA.AperFunction,Conductor*
%ADD11C,0.000000*%
G04 #@! TD*
G04 #@! TA.AperFunction,SMDPad,CuDef*
%ADD12R,0.850000X4.560000*%
G04 #@! TD*
G04 #@! TA.AperFunction,SMDPad,CuDef*
%ADD13R,1.000000X4.560000*%
G04 #@! TD*
G04 #@! TA.AperFunction,ComponentPad*
%ADD14C,0.800000*%
G04 #@! TD*
G04 #@! TA.AperFunction,ComponentPad*
%ADD15C,6.400000*%
G04 #@! TD*
G04 #@! TA.AperFunction,SMDPad,CuDef*
%ADD16RoundRect,0.237500X0.250000X0.237500X-0.250000X0.237500X-0.250000X-0.237500X0.250000X-0.237500X0*%
G04 #@! TD*
G04 #@! TA.AperFunction,SMDPad,CuDef*
%ADD17R,0.410000X0.870000*%
G04 #@! TD*
G04 #@! TA.AperFunction,ViaPad*
%ADD18C,0.300000*%
G04 #@! TD*
G04 #@! TA.AperFunction,Conductor*
%ADD19C,0.400000*%
G04 #@! TD*
G04 APERTURE END LIST*
D10*
G04 #@! TO.N,Net-(J3-In)*
X140487437Y-97000000D02*
G75*
G02*
X139250000Y-95762564I-37J1237400D01*
G01*
G04 #@! TO.N,Net-(J2-In)*
X154737436Y-95762564D02*
G75*
G02*
X153500000Y-97000036I-1237436J-36D01*
G01*
D11*
G04 #@! TA.AperFunction,Conductor*
G04 #@! TO.N,Net-(J1-In)*
G36*
X147400000Y-101100000D02*
G01*
X146600000Y-101100000D01*
X146800000Y-100700000D01*
X147200000Y-100700000D01*
X147400000Y-101100000D01*
G37*
G04 #@! TD.AperFunction*
G04 #@! TD*
D12*
G04 #@! TO.P,J3,1,In*
G04 #@! TO.N,Net-(J3-In)*
X139259250Y-93458500D03*
D13*
G04 #@! TO.P,J3,2,Ext*
G04 #@! TO.N,GND*
X142029250Y-93458500D03*
X136489250Y-93458500D03*
G04 #@! TD*
D14*
G04 #@! TO.P,H2,1,1*
G04 #@! TO.N,GND*
X154600000Y-103000000D03*
X155302944Y-101302944D03*
X155302944Y-104697056D03*
X157000000Y-100600000D03*
D15*
X157000000Y-103000000D03*
D14*
X157000000Y-105400000D03*
X158697056Y-101302944D03*
X158697056Y-104697056D03*
X159400000Y-103000000D03*
G04 #@! TD*
D16*
G04 #@! TO.P,R1,1*
G04 #@! TO.N,Net-(J2-In)*
X147912500Y-97000000D03*
G04 #@! TO.P,R1,2*
G04 #@! TO.N,Net-(J3-In)*
X146087500Y-97000000D03*
G04 #@! TD*
D12*
G04 #@! TO.P,J2,1,In*
G04 #@! TO.N,Net-(J2-In)*
X154759250Y-93458500D03*
D13*
G04 #@! TO.P,J2,2,Ext*
G04 #@! TO.N,GND*
X157529250Y-93458500D03*
X151989250Y-93458500D03*
G04 #@! TD*
D17*
G04 #@! TO.P,U1,1*
G04 #@! TO.N,GND*
X146340000Y-100265000D03*
G04 #@! TO.P,U1,2,IN*
G04 #@! TO.N,Net-(J1-In)*
X147000000Y-100265000D03*
G04 #@! TO.P,U1,3*
G04 #@! TO.N,GND*
X147660000Y-100265000D03*
G04 #@! TO.P,U1,4,OUT1*
G04 #@! TO.N,Net-(J2-In)*
X147660000Y-98735000D03*
G04 #@! TO.P,U1,5*
G04 #@! TO.N,GND*
X147000000Y-98735000D03*
G04 #@! TO.P,U1,6,OUT2*
G04 #@! TO.N,Net-(J3-In)*
X146340000Y-98735000D03*
G04 #@! TD*
D12*
G04 #@! TO.P,J1,1,In*
G04 #@! TO.N,Net-(J1-In)*
X147000000Y-105500000D03*
D13*
G04 #@! TO.P,J1,2,Ext*
G04 #@! TO.N,GND*
X144230000Y-105500000D03*
X149770000Y-105500000D03*
G04 #@! TD*
D14*
G04 #@! TO.P,H1,1,1*
G04 #@! TO.N,GND*
X134600000Y-103000000D03*
X135302944Y-101302944D03*
X135302944Y-104697056D03*
X137000000Y-100600000D03*
D15*
X137000000Y-103000000D03*
D14*
X137000000Y-105400000D03*
X138697056Y-101302944D03*
X138697056Y-104697056D03*
X139400000Y-103000000D03*
G04 #@! TD*
D18*
G04 #@! TO.N,GND*
X160799138Y-105449390D03*
X134950610Y-91800862D03*
X156600000Y-91500000D03*
X132900000Y-98700000D03*
X159624299Y-106863106D03*
X137100000Y-107500000D03*
X161100000Y-94700000D03*
X132900000Y-95700000D03*
X138300000Y-92500000D03*
X135195926Y-107295057D03*
X161100000Y-96700000D03*
X140200000Y-91500000D03*
X145900000Y-91500000D03*
X145100000Y-107500000D03*
X155700000Y-93500000D03*
X148400000Y-98500000D03*
X140200000Y-95400000D03*
X149200000Y-91500000D03*
X140200000Y-94500000D03*
X153800000Y-91500000D03*
X150200000Y-91500000D03*
X161100000Y-100700000D03*
X142800000Y-98000000D03*
X161100000Y-102700000D03*
X146000000Y-102400000D03*
X145600000Y-100500000D03*
X161100000Y-104700000D03*
X154900000Y-107500000D03*
X152900000Y-107500000D03*
X148100000Y-96000000D03*
X132900000Y-100700000D03*
X159049390Y-91800862D03*
X132900000Y-103700000D03*
X148000000Y-103400000D03*
X148000000Y-101400000D03*
X148400000Y-100500000D03*
X145600000Y-98500000D03*
X146000000Y-105400000D03*
X136100000Y-107500000D03*
X132900000Y-101700000D03*
X139800000Y-97900000D03*
X155000000Y-97400000D03*
X148900000Y-107500000D03*
X153200000Y-98000000D03*
X148000000Y-106400000D03*
X147000000Y-96000000D03*
X144800000Y-96000000D03*
X160895057Y-93795926D03*
X140200000Y-92500000D03*
X161100000Y-98700000D03*
X161100000Y-101700000D03*
X161100000Y-97700000D03*
X146000000Y-103400000D03*
X142800000Y-96000000D03*
X132900000Y-96700000D03*
X148100000Y-91500000D03*
X133104943Y-93795926D03*
X137400000Y-91500000D03*
X138400000Y-96600000D03*
X161100000Y-99700000D03*
X148400000Y-99500000D03*
X156900000Y-107500000D03*
X144800000Y-91500000D03*
X161100000Y-95700000D03*
X153800000Y-95400000D03*
X140800000Y-96000000D03*
X151200000Y-98000000D03*
X143100000Y-107500000D03*
X132900000Y-102700000D03*
X149200000Y-98000000D03*
X150200000Y-96000000D03*
X149200000Y-96000000D03*
X134166417Y-92295222D03*
X153200000Y-96000000D03*
X138300000Y-94500000D03*
X160304778Y-106233583D03*
X151100000Y-91500000D03*
X158804074Y-107295057D03*
X143800000Y-96000000D03*
X138300000Y-93500000D03*
X150200000Y-98000000D03*
X153800000Y-92500000D03*
X148000000Y-104400000D03*
X148000000Y-102400000D03*
X147000000Y-99400000D03*
X158300000Y-91500000D03*
X134375701Y-106863106D03*
X148000000Y-107400000D03*
X151200000Y-96000000D03*
X161100000Y-103700000D03*
X141800000Y-98000000D03*
X133695222Y-106233583D03*
X138300000Y-91500000D03*
X146000000Y-104400000D03*
X138100000Y-107500000D03*
X143800000Y-91500000D03*
X151900000Y-107500000D03*
X146000000Y-107400000D03*
X148000000Y-105400000D03*
X138300000Y-95500000D03*
X132900000Y-104700000D03*
X152200000Y-98000000D03*
X160463106Y-92975701D03*
X153900000Y-107500000D03*
X141100000Y-107500000D03*
X155900000Y-107500000D03*
X155700000Y-94500000D03*
X140200000Y-93500000D03*
X146000000Y-106400000D03*
X157900000Y-107500000D03*
X142100000Y-107500000D03*
X133200862Y-105449390D03*
X133536894Y-92975701D03*
X144800000Y-98000000D03*
X155700000Y-95500000D03*
X146000000Y-101400000D03*
X140100000Y-107500000D03*
X132900000Y-94700000D03*
X141100000Y-91500000D03*
X147000000Y-91500000D03*
X139000000Y-97400000D03*
X132900000Y-97700000D03*
X132900000Y-99700000D03*
X145900000Y-96000000D03*
X154200000Y-97900000D03*
X159833583Y-92295222D03*
X153800000Y-93500000D03*
X143800000Y-98000000D03*
X153800000Y-94500000D03*
X152200000Y-96000000D03*
X155700000Y-92500000D03*
X135700000Y-91500000D03*
X150900000Y-107500000D03*
X139100000Y-107500000D03*
X140800000Y-98000000D03*
X141800000Y-96000000D03*
X142900000Y-91500000D03*
X155700000Y-91500000D03*
X155600000Y-96600000D03*
X145600000Y-99500000D03*
G04 #@! TD*
D19*
G04 #@! TO.N,Net-(J2-In)*
X147650000Y-97262500D02*
X147912500Y-97000000D01*
X147650000Y-98735000D02*
X147650000Y-97262500D01*
D10*
X153500000Y-97000000D02*
X147899937Y-97000000D01*
X154759250Y-93458500D02*
X154759250Y-95313500D01*
D19*
G04 #@! TO.N,Net-(J3-In)*
X146350001Y-97262501D02*
X146087500Y-97000000D01*
D10*
X140487437Y-97000000D02*
X146087500Y-97000000D01*
D19*
X146350001Y-98735000D02*
X146350001Y-97262501D01*
D10*
X139259250Y-93458500D02*
X139259250Y-95313500D01*
G04 #@! TO.N,Net-(J1-In)*
X147000000Y-105500000D02*
X147000000Y-101200000D01*
G04 #@! TD*
G04 #@! TA.AperFunction,Conductor*
G04 #@! TO.N,Net-(J3-In)*
G36*
X146095663Y-97002993D02*
G01*
X146520011Y-97210598D01*
X146568181Y-97234164D01*
X146574106Y-97240878D01*
X146574732Y-97245086D01*
X146550398Y-97936225D01*
X146546682Y-97944372D01*
X146538705Y-97947513D01*
X146155414Y-97947513D01*
X146147141Y-97944086D01*
X146146497Y-97943388D01*
X145999363Y-97770195D01*
X145722086Y-97443809D01*
X145719343Y-97435287D01*
X145722089Y-97428658D01*
X146081612Y-97005922D01*
X146089581Y-97001842D01*
X146095663Y-97002993D01*
G37*
G04 #@! TD.AperFunction*
G04 #@! TD*
G04 #@! TA.AperFunction,Conductor*
G04 #@! TO.N,Net-(J2-In)*
G36*
X147918389Y-97005924D02*
G01*
X148277907Y-97428655D01*
X148280656Y-97437177D01*
X148277911Y-97443810D01*
X147853504Y-97943389D01*
X147845536Y-97947475D01*
X147844587Y-97947514D01*
X147461296Y-97947514D01*
X147453023Y-97944087D01*
X147449603Y-97936226D01*
X147425267Y-97245086D01*
X147428401Y-97236697D01*
X147431816Y-97234165D01*
X147904336Y-97002993D01*
X147913272Y-97002437D01*
X147918389Y-97005924D01*
G37*
G04 #@! TD.AperFunction*
G04 #@! TD*
G04 #@! TA.AperFunction,Conductor*
G04 #@! TO.N,Net-(J3-In)*
G36*
X145838358Y-96528371D02*
G01*
X145841085Y-96531785D01*
X146085611Y-96994534D01*
X146086446Y-97003449D01*
X146085611Y-97005466D01*
X145841085Y-97468214D01*
X145834189Y-97473928D01*
X145829848Y-97474414D01*
X145135808Y-97421326D01*
X145127820Y-97417278D01*
X145125000Y-97409660D01*
X145125000Y-96590339D01*
X145128427Y-96582066D01*
X145135807Y-96578673D01*
X145829848Y-96525585D01*
X145838358Y-96528371D01*
G37*
G04 #@! TD.AperFunction*
G04 #@! TD*
G04 #@! TA.AperFunction,Conductor*
G04 #@! TO.N,Net-(J2-In)*
G36*
X148864192Y-96578673D02*
G01*
X148872180Y-96582721D01*
X148875000Y-96590339D01*
X148875000Y-97409660D01*
X148871573Y-97417933D01*
X148864192Y-97421326D01*
X148170151Y-97474414D01*
X148161641Y-97471628D01*
X148158914Y-97468214D01*
X147914387Y-97005465D01*
X147913553Y-96996551D01*
X147914388Y-96994534D01*
X148127973Y-96590339D01*
X148158915Y-96531784D01*
X148165810Y-96526071D01*
X148170149Y-96525585D01*
X148864192Y-96578673D01*
G37*
G04 #@! TD.AperFunction*
G04 #@! TD*
G04 #@! TA.AperFunction,Conductor*
G04 #@! TO.N,GND*
G36*
X138476789Y-91220185D02*
G01*
X138522544Y-91272989D01*
X138533750Y-91324500D01*
X138533750Y-95646538D01*
X138533153Y-95651833D01*
X138533417Y-95655622D01*
X138532729Y-95664982D01*
X138529004Y-95681306D01*
X138529002Y-95715703D01*
X138529000Y-95715741D01*
X138528997Y-95890899D01*
X138528997Y-95890907D01*
X138562500Y-96145440D01*
X138570097Y-96173796D01*
X138628942Y-96393427D01*
X138727185Y-96630616D01*
X138855548Y-96852952D01*
X138855549Y-96852953D01*
X139011833Y-97056628D01*
X139011839Y-97056635D01*
X139193365Y-97238161D01*
X139193372Y-97238167D01*
X139193379Y-97238172D01*
X139397049Y-97394452D01*
X139619386Y-97522815D01*
X139856575Y-97621058D01*
X139856585Y-97621060D01*
X139856589Y-97621062D01*
X140104554Y-97687499D01*
X140104556Y-97687499D01*
X140104559Y-97687500D01*
X140359093Y-97721003D01*
X140487459Y-97721000D01*
X145077755Y-97721000D01*
X145109767Y-97725203D01*
X145112508Y-97725936D01*
X145540505Y-97758674D01*
X145605846Y-97783413D01*
X145625544Y-97802025D01*
X145820003Y-98030924D01*
X145830506Y-98054531D01*
X145844478Y-98076271D01*
X145846530Y-98090545D01*
X145848405Y-98094759D01*
X145849501Y-98111206D01*
X145849501Y-98176479D01*
X145838937Y-98226562D01*
X145837415Y-98230007D01*
X145837415Y-98230009D01*
X145834500Y-98255131D01*
X145834500Y-99214856D01*
X145834502Y-99214882D01*
X145837413Y-99239987D01*
X145837415Y-99239991D01*
X145882793Y-99342764D01*
X145882794Y-99342765D01*
X145962235Y-99422206D01*
X146065009Y-99467585D01*
X146090135Y-99470500D01*
X146435467Y-99470499D01*
X146502505Y-99490183D01*
X146548260Y-99542987D01*
X146558204Y-99612146D01*
X146545123Y-99645704D01*
X146547435Y-99646725D01*
X146497415Y-99760006D01*
X146497415Y-99760008D01*
X146494500Y-99785131D01*
X146494500Y-100598606D01*
X146491527Y-100611195D01*
X146492540Y-100620569D01*
X146481408Y-100654061D01*
X146436623Y-100743629D01*
X146428819Y-100757063D01*
X146361056Y-100858480D01*
X146306707Y-100989691D01*
X146306705Y-100989699D01*
X146279000Y-101128983D01*
X146279000Y-103129178D01*
X146278174Y-103143469D01*
X146274502Y-103175119D01*
X146274500Y-103175135D01*
X146274500Y-105486897D01*
X146274501Y-107675500D01*
X146254816Y-107742539D01*
X146202012Y-107788294D01*
X146150501Y-107799500D01*
X136303052Y-107799500D01*
X136296967Y-107799351D01*
X135967351Y-107783157D01*
X135960475Y-107782627D01*
X135883166Y-107774502D01*
X135877935Y-107773839D01*
X135810922Y-107763899D01*
X135590880Y-107731259D01*
X135583293Y-107729891D01*
X135513004Y-107714950D01*
X135508657Y-107713944D01*
X135220569Y-107641782D01*
X135212379Y-107639429D01*
X135154929Y-107620762D01*
X135151474Y-107619583D01*
X134860404Y-107515436D01*
X134851787Y-107511981D01*
X134815674Y-107495903D01*
X134813101Y-107494722D01*
X134514426Y-107353460D01*
X134503694Y-107347723D01*
X134194340Y-107162303D01*
X134184222Y-107155543D01*
X133894511Y-106940678D01*
X133885105Y-106932958D01*
X133759792Y-106819381D01*
X133617853Y-106690735D01*
X133609264Y-106682146D01*
X133367041Y-106414894D01*
X133359321Y-106405488D01*
X133144456Y-106115777D01*
X133137696Y-106105659D01*
X133048116Y-105956204D01*
X132952267Y-105796289D01*
X132946544Y-105785583D01*
X132805267Y-105486878D01*
X132804131Y-105484403D01*
X132788006Y-105448185D01*
X132784573Y-105439623D01*
X132680386Y-105148441D01*
X132679250Y-105145112D01*
X132660560Y-105087590D01*
X132658220Y-105079443D01*
X132586052Y-104791332D01*
X132585048Y-104786994D01*
X132570100Y-104716670D01*
X132568746Y-104709159D01*
X132526148Y-104421983D01*
X132525505Y-104416908D01*
X132517367Y-104339481D01*
X132516844Y-104332688D01*
X132500649Y-104003032D01*
X132500500Y-103996948D01*
X132500500Y-95003051D01*
X132500649Y-94996967D01*
X132516844Y-94667306D01*
X132517367Y-94660524D01*
X132525506Y-94583079D01*
X132526146Y-94578028D01*
X132568748Y-94290829D01*
X132570098Y-94283340D01*
X132585058Y-94212957D01*
X132586045Y-94208692D01*
X132658224Y-93920540D01*
X132660555Y-93912424D01*
X132679264Y-93854845D01*
X132680371Y-93851600D01*
X132784580Y-93560358D01*
X132787998Y-93551832D01*
X132804160Y-93515530D01*
X132805235Y-93513189D01*
X132946552Y-93214399D01*
X132952257Y-93203727D01*
X133137704Y-92894327D01*
X133144447Y-92884234D01*
X133359329Y-92594500D01*
X133367032Y-92585115D01*
X133609273Y-92317843D01*
X133617843Y-92309273D01*
X133885115Y-92067032D01*
X133894500Y-92059329D01*
X134184234Y-91844447D01*
X134194327Y-91837704D01*
X134503727Y-91652257D01*
X134514399Y-91646552D01*
X134813189Y-91505235D01*
X134815530Y-91504160D01*
X134851832Y-91487998D01*
X134860358Y-91484580D01*
X135151600Y-91380371D01*
X135154845Y-91379264D01*
X135212424Y-91360555D01*
X135220540Y-91358224D01*
X135508692Y-91286045D01*
X135512957Y-91285058D01*
X135583340Y-91270098D01*
X135590829Y-91268748D01*
X135878028Y-91226146D01*
X135883079Y-91225506D01*
X135960524Y-91217367D01*
X135967306Y-91216844D01*
X136296967Y-91200648D01*
X136303051Y-91200500D01*
X138409750Y-91200500D01*
X138476789Y-91220185D01*
G37*
G04 #@! TD.AperFunction*
G04 #@! TA.AperFunction,Conductor*
G36*
X157703032Y-91200648D02*
G01*
X158032688Y-91216844D01*
X158039481Y-91217367D01*
X158116908Y-91225505D01*
X158121983Y-91226148D01*
X158409159Y-91268746D01*
X158416670Y-91270100D01*
X158487017Y-91285053D01*
X158491332Y-91286052D01*
X158779443Y-91358220D01*
X158787590Y-91360560D01*
X158845112Y-91379250D01*
X158848441Y-91380386D01*
X159139623Y-91484573D01*
X159148185Y-91488006D01*
X159184403Y-91504131D01*
X159186878Y-91505267D01*
X159485583Y-91646544D01*
X159496289Y-91652267D01*
X159805659Y-91837696D01*
X159815777Y-91844456D01*
X160105488Y-92059321D01*
X160114894Y-92067041D01*
X160382146Y-92309264D01*
X160390735Y-92317853D01*
X160505668Y-92444662D01*
X160632958Y-92585105D01*
X160640678Y-92594511D01*
X160855543Y-92884222D01*
X160862303Y-92894340D01*
X161047723Y-93203694D01*
X161053460Y-93214426D01*
X161194722Y-93513101D01*
X161195903Y-93515674D01*
X161211981Y-93551787D01*
X161215436Y-93560404D01*
X161271863Y-93718106D01*
X161319583Y-93851474D01*
X161320762Y-93854929D01*
X161339429Y-93912379D01*
X161341782Y-93920569D01*
X161413944Y-94208657D01*
X161414950Y-94213004D01*
X161429891Y-94283293D01*
X161431259Y-94290880D01*
X161473839Y-94577932D01*
X161474502Y-94583166D01*
X161482627Y-94660475D01*
X161483157Y-94667351D01*
X161499351Y-94996967D01*
X161499500Y-95003052D01*
X161499500Y-103996947D01*
X161499351Y-104003032D01*
X161483157Y-104332647D01*
X161482627Y-104339523D01*
X161474502Y-104416832D01*
X161473839Y-104422066D01*
X161431259Y-104709118D01*
X161429891Y-104716705D01*
X161414950Y-104786994D01*
X161413944Y-104791341D01*
X161341782Y-105079429D01*
X161339429Y-105087619D01*
X161320762Y-105145069D01*
X161319583Y-105148524D01*
X161215446Y-105439569D01*
X161211973Y-105448233D01*
X161195906Y-105484318D01*
X161194722Y-105486897D01*
X161053460Y-105785572D01*
X161047723Y-105796304D01*
X160862303Y-106105659D01*
X160855543Y-106115777D01*
X160640678Y-106405488D01*
X160632958Y-106414894D01*
X160390743Y-106682138D01*
X160382138Y-106690743D01*
X160114894Y-106932958D01*
X160105488Y-106940678D01*
X159815777Y-107155543D01*
X159805659Y-107162303D01*
X159496304Y-107347723D01*
X159485572Y-107353460D01*
X159186897Y-107494722D01*
X159184318Y-107495906D01*
X159148233Y-107511973D01*
X159139576Y-107515442D01*
X159039497Y-107551251D01*
X158848524Y-107619583D01*
X158845069Y-107620762D01*
X158787619Y-107639429D01*
X158779429Y-107641782D01*
X158491341Y-107713944D01*
X158486994Y-107714950D01*
X158416705Y-107729891D01*
X158409118Y-107731259D01*
X158122066Y-107773839D01*
X158116832Y-107774502D01*
X158039523Y-107782627D01*
X158032647Y-107783157D01*
X157703033Y-107799351D01*
X157696948Y-107799500D01*
X147849500Y-107799500D01*
X147782461Y-107779815D01*
X147736706Y-107727011D01*
X147725500Y-107675500D01*
X147725499Y-103175143D01*
X147725499Y-103175137D01*
X147725499Y-103175136D01*
X147722585Y-103150009D01*
X147721826Y-103143460D01*
X147721000Y-103129175D01*
X147721000Y-101128987D01*
X147720999Y-101128983D01*
X147693294Y-100989699D01*
X147693293Y-100989692D01*
X147638942Y-100858478D01*
X147571178Y-100757061D01*
X147563377Y-100743636D01*
X147518590Y-100654061D01*
X147505499Y-100598607D01*
X147505499Y-99785143D01*
X147505499Y-99785136D01*
X147505497Y-99785117D01*
X147502586Y-99760012D01*
X147502585Y-99760010D01*
X147502585Y-99760009D01*
X147457206Y-99657235D01*
X147457205Y-99657234D01*
X147452565Y-99646724D01*
X147455931Y-99645237D01*
X147440587Y-99598134D01*
X147458298Y-99530547D01*
X147509738Y-99483263D01*
X147564531Y-99470499D01*
X147909864Y-99470499D01*
X147909879Y-99470497D01*
X147909882Y-99470497D01*
X147934987Y-99467586D01*
X147934988Y-99467585D01*
X147934991Y-99467585D01*
X148037765Y-99422206D01*
X148117206Y-99342765D01*
X148162585Y-99239991D01*
X148165500Y-99214865D01*
X148165499Y-98255136D01*
X148162585Y-98230009D01*
X148162585Y-98230008D01*
X148161064Y-98226563D01*
X148159014Y-98216848D01*
X148155523Y-98211415D01*
X148150500Y-98176480D01*
X148150500Y-98111207D01*
X148170185Y-98044168D01*
X148179997Y-98030925D01*
X148179999Y-98030923D01*
X148374452Y-97802027D01*
X148432855Y-97763682D01*
X148459486Y-97758674D01*
X148887492Y-97725936D01*
X148891240Y-97724964D01*
X148922344Y-97721000D01*
X153418763Y-97721000D01*
X153448602Y-97721000D01*
X153448725Y-97721036D01*
X153500000Y-97721036D01*
X153628358Y-97721036D01*
X153628365Y-97721036D01*
X153882899Y-97687525D01*
X154130881Y-97621077D01*
X154368068Y-97522829D01*
X154590401Y-97394462D01*
X154794077Y-97238172D01*
X154975610Y-97056634D01*
X155131894Y-96852954D01*
X155260254Y-96630616D01*
X155358496Y-96393427D01*
X155424936Y-96145443D01*
X155458439Y-95890908D01*
X155458438Y-95887647D01*
X155469005Y-95837546D01*
X155481835Y-95808491D01*
X155484750Y-95783365D01*
X155484749Y-91324499D01*
X155504434Y-91257461D01*
X155557238Y-91211706D01*
X155608749Y-91200500D01*
X157696949Y-91200500D01*
X157703032Y-91200648D01*
G37*
G04 #@! TD.AperFunction*
G04 #@! TA.AperFunction,Conductor*
G36*
X153976789Y-91220185D02*
G01*
X154022544Y-91272989D01*
X154033750Y-91324500D01*
X154033750Y-95591498D01*
X154030642Y-95619085D01*
X154016435Y-95681342D01*
X154016434Y-95681353D01*
X154016435Y-95755620D01*
X154015656Y-95769502D01*
X154005054Y-95863623D01*
X153998875Y-95890696D01*
X153969911Y-95973475D01*
X153957865Y-95998491D01*
X153911206Y-96072753D01*
X153893892Y-96094465D01*
X153831874Y-96156484D01*
X153810165Y-96173796D01*
X153735906Y-96220457D01*
X153710888Y-96232505D01*
X153628107Y-96261472D01*
X153601037Y-96267651D01*
X153524461Y-96276279D01*
X153507240Y-96278220D01*
X153493357Y-96279000D01*
X148922249Y-96279000D01*
X148890235Y-96274796D01*
X148887489Y-96274062D01*
X148887492Y-96274062D01*
X148193450Y-96220975D01*
X148193449Y-96220975D01*
X148192537Y-96220991D01*
X148136138Y-96221983D01*
X148131822Y-96222467D01*
X148129628Y-96222831D01*
X148109349Y-96224500D01*
X147620381Y-96224500D01*
X147533925Y-96234882D01*
X147533924Y-96234882D01*
X147396339Y-96289139D01*
X147278499Y-96378499D01*
X147189139Y-96496339D01*
X147134882Y-96633924D01*
X147134882Y-96633925D01*
X147124500Y-96720381D01*
X147124500Y-96720382D01*
X147124500Y-97225690D01*
X147119956Y-97255836D01*
X147144292Y-97946976D01*
X147144311Y-97947481D01*
X147144313Y-97947545D01*
X147144356Y-97948670D01*
X147144357Y-97948674D01*
X147146359Y-97957398D01*
X147145780Y-97967030D01*
X147149500Y-97985133D01*
X147149500Y-98800894D01*
X147150276Y-98803789D01*
X147150215Y-98806326D01*
X147150561Y-98808951D01*
X147150151Y-98809004D01*
X147150003Y-98815213D01*
X147154500Y-98835879D01*
X147154500Y-99214856D01*
X147154502Y-99214882D01*
X147157413Y-99239987D01*
X147157415Y-99239991D01*
X147207220Y-99352790D01*
X147208259Y-99353989D01*
X147211770Y-99378412D01*
X147219412Y-99401877D01*
X147216656Y-99412389D01*
X147218203Y-99423147D01*
X147207952Y-99445592D01*
X147201695Y-99469463D01*
X147193692Y-99476817D01*
X147189178Y-99486703D01*
X147168418Y-99500044D01*
X147150250Y-99516741D01*
X147137997Y-99519594D01*
X147130400Y-99524477D01*
X147095465Y-99529500D01*
X146904533Y-99529500D01*
X146837494Y-99509815D01*
X146791739Y-99457011D01*
X146781795Y-99387853D01*
X146794883Y-99354298D01*
X146792565Y-99353275D01*
X146842584Y-99239993D01*
X146842585Y-99239991D01*
X146845500Y-99214865D01*
X146845499Y-98835883D01*
X146847314Y-98822099D01*
X146846760Y-98818247D01*
X146848251Y-98814979D01*
X146849726Y-98803784D01*
X146850501Y-98800892D01*
X146850501Y-97983958D01*
X146852493Y-97965915D01*
X146852202Y-97963489D01*
X146852927Y-97961993D01*
X146853490Y-97956898D01*
X146855709Y-97946975D01*
X146880043Y-97255836D01*
X146876907Y-97200133D01*
X146876478Y-97197251D01*
X146876485Y-97194828D01*
X146875500Y-97181504D01*
X146875500Y-96720381D01*
X146865117Y-96633925D01*
X146865117Y-96633924D01*
X146865117Y-96633923D01*
X146810862Y-96496342D01*
X146732822Y-96393430D01*
X146721500Y-96378499D01*
X146603660Y-96289139D01*
X146603658Y-96289138D01*
X146466077Y-96234883D01*
X146466076Y-96234882D01*
X146466074Y-96234882D01*
X146379619Y-96224500D01*
X146379618Y-96224500D01*
X145845650Y-96224500D01*
X145832226Y-96223771D01*
X145806549Y-96220975D01*
X145806548Y-96220975D01*
X145690874Y-96229823D01*
X145112502Y-96274063D01*
X145108764Y-96275033D01*
X145077650Y-96279000D01*
X140575452Y-96279000D01*
X140568661Y-96278999D01*
X140568653Y-96278998D01*
X140516799Y-96278999D01*
X140494377Y-96278999D01*
X140494376Y-96278998D01*
X140480498Y-96278220D01*
X140386382Y-96267618D01*
X140359310Y-96261439D01*
X140276535Y-96232476D01*
X140251519Y-96220430D01*
X140177260Y-96173771D01*
X140155554Y-96156461D01*
X140093538Y-96094446D01*
X140076230Y-96072743D01*
X140029565Y-95998474D01*
X140017522Y-95973463D01*
X139988633Y-95890899D01*
X139988559Y-95890688D01*
X139982382Y-95863620D01*
X139980484Y-95846774D01*
X139982707Y-95817983D01*
X139980760Y-95817758D01*
X139984749Y-95783370D01*
X139984750Y-95783365D01*
X139984749Y-91324499D01*
X140004434Y-91257461D01*
X140057238Y-91211706D01*
X140108749Y-91200500D01*
X153909750Y-91200500D01*
X153976789Y-91220185D01*
G37*
G04 #@! TD.AperFunction*
G04 #@! TD*
M02*
