G04 #@! TF.GenerationSoftware,KiCad,Pcbnew,(5.0.1)-3*
G04 #@! TF.CreationDate,2020-01-17T15:01:03-05:00*
G04 #@! TF.ProjectId,recovery_CAN,7265636F766572795F43414E2E6B6963,rev?*
G04 #@! TF.SameCoordinates,Original*
G04 #@! TF.FileFunction,Soldermask,Bot*
G04 #@! TF.FilePolarity,Negative*
%FSLAX46Y46*%
G04 Gerber Fmt 4.6, Leading zero omitted, Abs format (unit mm)*
G04 Created by KiCad (PCBNEW (5.0.1)-3) date 2020-01-17 3:01:03 PM*
%MOMM*%
%LPD*%
G01*
G04 APERTURE LIST*
%ADD10C,0.100000*%
G04 APERTURE END LIST*
D10*
G36*
X247014239Y-120255467D02*
X247328282Y-120317934D01*
X247919926Y-120563001D01*
X248424274Y-120899996D01*
X248452395Y-120918786D01*
X248905214Y-121371605D01*
X248905216Y-121371608D01*
X249260999Y-121904074D01*
X249506066Y-122495718D01*
X249537495Y-122653723D01*
X249628233Y-123109890D01*
X249631000Y-123123804D01*
X249631000Y-123764196D01*
X249506066Y-124392282D01*
X249260999Y-124983926D01*
X249050150Y-125299483D01*
X248905214Y-125516395D01*
X248452395Y-125969214D01*
X248452392Y-125969216D01*
X247919926Y-126324999D01*
X247328282Y-126570066D01*
X247014239Y-126632533D01*
X246700197Y-126695000D01*
X246059803Y-126695000D01*
X245745761Y-126632533D01*
X245431718Y-126570066D01*
X244840074Y-126324999D01*
X244307608Y-125969216D01*
X244307605Y-125969214D01*
X243854786Y-125516395D01*
X243709850Y-125299483D01*
X243499001Y-124983926D01*
X243253934Y-124392282D01*
X243129000Y-123764196D01*
X243129000Y-123123804D01*
X243131768Y-123109890D01*
X243222505Y-122653723D01*
X243253934Y-122495718D01*
X243499001Y-121904074D01*
X243854784Y-121371608D01*
X243854786Y-121371605D01*
X244307605Y-120918786D01*
X244335726Y-120899996D01*
X244840074Y-120563001D01*
X245431718Y-120317934D01*
X245745761Y-120255467D01*
X246059803Y-120193000D01*
X246700197Y-120193000D01*
X247014239Y-120255467D01*
X247014239Y-120255467D01*
G37*
G36*
X183514239Y-120255467D02*
X183828282Y-120317934D01*
X184419926Y-120563001D01*
X184924274Y-120899996D01*
X184952395Y-120918786D01*
X185405214Y-121371605D01*
X185405216Y-121371608D01*
X185760999Y-121904074D01*
X186006066Y-122495718D01*
X186037495Y-122653723D01*
X186128233Y-123109890D01*
X186131000Y-123123804D01*
X186131000Y-123764196D01*
X186006066Y-124392282D01*
X185760999Y-124983926D01*
X185550150Y-125299483D01*
X185405214Y-125516395D01*
X184952395Y-125969214D01*
X184952392Y-125969216D01*
X184419926Y-126324999D01*
X183828282Y-126570066D01*
X183514239Y-126632533D01*
X183200197Y-126695000D01*
X182559803Y-126695000D01*
X182245761Y-126632533D01*
X181931718Y-126570066D01*
X181340074Y-126324999D01*
X180807608Y-125969216D01*
X180807605Y-125969214D01*
X180354786Y-125516395D01*
X180209850Y-125299483D01*
X179999001Y-124983926D01*
X179753934Y-124392282D01*
X179629000Y-123764196D01*
X179629000Y-123123804D01*
X179631768Y-123109890D01*
X179722505Y-122653723D01*
X179753934Y-122495718D01*
X179999001Y-121904074D01*
X180354784Y-121371608D01*
X180354786Y-121371605D01*
X180807605Y-120918786D01*
X180835726Y-120899996D01*
X181340074Y-120563001D01*
X181931718Y-120317934D01*
X182245761Y-120255467D01*
X182559803Y-120193000D01*
X183200197Y-120193000D01*
X183514239Y-120255467D01*
X183514239Y-120255467D01*
G37*
G36*
X204159758Y-120222497D02*
X204362603Y-120262845D01*
X204935830Y-120500283D01*
X205451721Y-120844990D01*
X205890450Y-121283719D01*
X206235157Y-121799610D01*
X206472595Y-122372837D01*
X206497038Y-122495719D01*
X206585412Y-122940004D01*
X206593640Y-122981372D01*
X206593640Y-123601828D01*
X206472595Y-124210363D01*
X206235157Y-124783590D01*
X205890450Y-125299481D01*
X205451721Y-125738210D01*
X204935830Y-126082917D01*
X204362603Y-126320355D01*
X204159758Y-126360703D01*
X203754070Y-126441400D01*
X203133610Y-126441400D01*
X202727922Y-126360703D01*
X202525077Y-126320355D01*
X201951850Y-126082917D01*
X201435959Y-125738210D01*
X200997230Y-125299481D01*
X200652523Y-124783590D01*
X200415085Y-124210363D01*
X200294040Y-123601828D01*
X200294040Y-122981372D01*
X200302269Y-122940004D01*
X200390642Y-122495719D01*
X200415085Y-122372837D01*
X200652523Y-121799610D01*
X200997230Y-121283719D01*
X201435959Y-120844990D01*
X201951850Y-120500283D01*
X202525077Y-120262845D01*
X202727922Y-120222497D01*
X203133610Y-120141800D01*
X203754070Y-120141800D01*
X204159758Y-120222497D01*
X204159758Y-120222497D01*
G37*
G36*
X196560078Y-120222497D02*
X196762923Y-120262845D01*
X197336150Y-120500283D01*
X197852041Y-120844990D01*
X198290770Y-121283719D01*
X198635477Y-121799610D01*
X198872915Y-122372837D01*
X198897358Y-122495719D01*
X198985732Y-122940004D01*
X198993960Y-122981372D01*
X198993960Y-123601828D01*
X198872915Y-124210363D01*
X198635477Y-124783590D01*
X198290770Y-125299481D01*
X197852041Y-125738210D01*
X197336150Y-126082917D01*
X196762923Y-126320355D01*
X196560078Y-126360703D01*
X196154390Y-126441400D01*
X195533930Y-126441400D01*
X195128242Y-126360703D01*
X194925397Y-126320355D01*
X194352170Y-126082917D01*
X193836279Y-125738210D01*
X193397550Y-125299481D01*
X193052843Y-124783590D01*
X192815405Y-124210363D01*
X192694360Y-123601828D01*
X192694360Y-122981372D01*
X192702589Y-122940004D01*
X192790962Y-122495719D01*
X192815405Y-122372837D01*
X193052843Y-121799610D01*
X193397550Y-121283719D01*
X193836279Y-120844990D01*
X194352170Y-120500283D01*
X194925397Y-120262845D01*
X195128242Y-120222497D01*
X195533930Y-120141800D01*
X196154390Y-120141800D01*
X196560078Y-120222497D01*
X196560078Y-120222497D01*
G37*
G36*
X232179890Y-122294017D02*
X232298361Y-122343089D01*
X232404992Y-122414338D01*
X232495662Y-122505008D01*
X232566911Y-122611639D01*
X232615983Y-122730110D01*
X232641000Y-122855881D01*
X232641000Y-122984119D01*
X232615983Y-123109890D01*
X232566911Y-123228361D01*
X232495662Y-123334992D01*
X232404992Y-123425662D01*
X232298361Y-123496911D01*
X232179890Y-123545983D01*
X232054119Y-123571000D01*
X231925881Y-123571000D01*
X231800110Y-123545983D01*
X231681639Y-123496911D01*
X231575008Y-123425662D01*
X231484338Y-123334992D01*
X231413089Y-123228361D01*
X231364017Y-123109890D01*
X231339000Y-122984119D01*
X231339000Y-122855881D01*
X231364017Y-122730110D01*
X231413089Y-122611639D01*
X231484338Y-122505008D01*
X231575008Y-122414338D01*
X231681639Y-122343089D01*
X231800110Y-122294017D01*
X231925881Y-122269000D01*
X232054119Y-122269000D01*
X232179890Y-122294017D01*
X232179890Y-122294017D01*
G37*
G36*
X217493890Y-122294017D02*
X217612361Y-122343089D01*
X217718992Y-122414338D01*
X217809662Y-122505008D01*
X217880911Y-122611639D01*
X217929983Y-122730110D01*
X217955000Y-122855881D01*
X217955000Y-122984119D01*
X217929983Y-123109890D01*
X217880911Y-123228361D01*
X217809662Y-123334992D01*
X217718992Y-123425662D01*
X217612361Y-123496911D01*
X217493890Y-123545983D01*
X217368119Y-123571000D01*
X217239881Y-123571000D01*
X217114110Y-123545983D01*
X216995639Y-123496911D01*
X216889008Y-123425662D01*
X216798338Y-123334992D01*
X216727089Y-123228361D01*
X216678017Y-123109890D01*
X216653000Y-122984119D01*
X216653000Y-122855881D01*
X216678017Y-122730110D01*
X216727089Y-122611639D01*
X216798338Y-122505008D01*
X216889008Y-122414338D01*
X216995639Y-122343089D01*
X217114110Y-122294017D01*
X217239881Y-122269000D01*
X217368119Y-122269000D01*
X217493890Y-122294017D01*
X217493890Y-122294017D01*
G37*
G36*
X213955000Y-123571000D02*
X212653000Y-123571000D01*
X212653000Y-122269000D01*
X213955000Y-122269000D01*
X213955000Y-123571000D01*
X213955000Y-123571000D01*
G37*
G36*
X215493890Y-122294017D02*
X215612361Y-122343089D01*
X215718992Y-122414338D01*
X215809662Y-122505008D01*
X215880911Y-122611639D01*
X215929983Y-122730110D01*
X215955000Y-122855881D01*
X215955000Y-122984119D01*
X215929983Y-123109890D01*
X215880911Y-123228361D01*
X215809662Y-123334992D01*
X215718992Y-123425662D01*
X215612361Y-123496911D01*
X215493890Y-123545983D01*
X215368119Y-123571000D01*
X215239881Y-123571000D01*
X215114110Y-123545983D01*
X214995639Y-123496911D01*
X214889008Y-123425662D01*
X214798338Y-123334992D01*
X214727089Y-123228361D01*
X214678017Y-123109890D01*
X214653000Y-122984119D01*
X214653000Y-122855881D01*
X214678017Y-122730110D01*
X214727089Y-122611639D01*
X214798338Y-122505008D01*
X214889008Y-122414338D01*
X214995639Y-122343089D01*
X215114110Y-122294017D01*
X215239881Y-122269000D01*
X215368119Y-122269000D01*
X215493890Y-122294017D01*
X215493890Y-122294017D01*
G37*
G36*
X234179890Y-122294017D02*
X234298361Y-122343089D01*
X234404992Y-122414338D01*
X234495662Y-122505008D01*
X234566911Y-122611639D01*
X234615983Y-122730110D01*
X234641000Y-122855881D01*
X234641000Y-122984119D01*
X234615983Y-123109890D01*
X234566911Y-123228361D01*
X234495662Y-123334992D01*
X234404992Y-123425662D01*
X234298361Y-123496911D01*
X234179890Y-123545983D01*
X234054119Y-123571000D01*
X233925881Y-123571000D01*
X233800110Y-123545983D01*
X233681639Y-123496911D01*
X233575008Y-123425662D01*
X233484338Y-123334992D01*
X233413089Y-123228361D01*
X233364017Y-123109890D01*
X233339000Y-122984119D01*
X233339000Y-122855881D01*
X233364017Y-122730110D01*
X233413089Y-122611639D01*
X233484338Y-122505008D01*
X233575008Y-122414338D01*
X233681639Y-122343089D01*
X233800110Y-122294017D01*
X233925881Y-122269000D01*
X234054119Y-122269000D01*
X234179890Y-122294017D01*
X234179890Y-122294017D01*
G37*
G36*
X230641000Y-123571000D02*
X229339000Y-123571000D01*
X229339000Y-122269000D01*
X230641000Y-122269000D01*
X230641000Y-123571000D01*
X230641000Y-123571000D01*
G37*
G36*
X221139734Y-120813232D02*
X221349202Y-120899996D01*
X221537723Y-121025962D01*
X221698038Y-121186277D01*
X221824004Y-121374798D01*
X221910768Y-121584266D01*
X221955000Y-121806635D01*
X221955000Y-122033365D01*
X221910768Y-122255734D01*
X221824004Y-122465202D01*
X221698038Y-122653723D01*
X221537723Y-122814038D01*
X221349202Y-122940004D01*
X221139734Y-123026768D01*
X220917365Y-123071000D01*
X220690635Y-123071000D01*
X220468266Y-123026768D01*
X220258798Y-122940004D01*
X220070277Y-122814038D01*
X219909962Y-122653723D01*
X219783996Y-122465202D01*
X219697232Y-122255734D01*
X219653000Y-122033365D01*
X219653000Y-121806635D01*
X219697232Y-121584266D01*
X219783996Y-121374798D01*
X219909962Y-121186277D01*
X220070277Y-121025962D01*
X220258798Y-120899996D01*
X220468266Y-120813232D01*
X220690635Y-120769000D01*
X220917365Y-120769000D01*
X221139734Y-120813232D01*
X221139734Y-120813232D01*
G37*
G36*
X210139734Y-120813232D02*
X210349202Y-120899996D01*
X210537723Y-121025962D01*
X210698038Y-121186277D01*
X210824004Y-121374798D01*
X210910768Y-121584266D01*
X210955000Y-121806635D01*
X210955000Y-122033365D01*
X210910768Y-122255734D01*
X210824004Y-122465202D01*
X210698038Y-122653723D01*
X210537723Y-122814038D01*
X210349202Y-122940004D01*
X210139734Y-123026768D01*
X209917365Y-123071000D01*
X209690635Y-123071000D01*
X209468266Y-123026768D01*
X209258798Y-122940004D01*
X209070277Y-122814038D01*
X208909962Y-122653723D01*
X208783996Y-122465202D01*
X208697232Y-122255734D01*
X208653000Y-122033365D01*
X208653000Y-121806635D01*
X208697232Y-121584266D01*
X208783996Y-121374798D01*
X208909962Y-121186277D01*
X209070277Y-121025962D01*
X209258798Y-120899996D01*
X209468266Y-120813232D01*
X209690635Y-120769000D01*
X209917365Y-120769000D01*
X210139734Y-120813232D01*
X210139734Y-120813232D01*
G37*
G36*
X226825734Y-120813232D02*
X227035202Y-120899996D01*
X227223723Y-121025962D01*
X227384038Y-121186277D01*
X227510004Y-121374798D01*
X227596768Y-121584266D01*
X227641000Y-121806635D01*
X227641000Y-122033365D01*
X227596768Y-122255734D01*
X227510004Y-122465202D01*
X227384038Y-122653723D01*
X227223723Y-122814038D01*
X227035202Y-122940004D01*
X226825734Y-123026768D01*
X226603365Y-123071000D01*
X226376635Y-123071000D01*
X226154266Y-123026768D01*
X225944798Y-122940004D01*
X225756277Y-122814038D01*
X225595962Y-122653723D01*
X225469996Y-122465202D01*
X225383232Y-122255734D01*
X225339000Y-122033365D01*
X225339000Y-121806635D01*
X225383232Y-121584266D01*
X225469996Y-121374798D01*
X225595962Y-121186277D01*
X225756277Y-121025962D01*
X225944798Y-120899996D01*
X226154266Y-120813232D01*
X226376635Y-120769000D01*
X226603365Y-120769000D01*
X226825734Y-120813232D01*
X226825734Y-120813232D01*
G37*
G36*
X237825734Y-120813232D02*
X238035202Y-120899996D01*
X238223723Y-121025962D01*
X238384038Y-121186277D01*
X238510004Y-121374798D01*
X238596768Y-121584266D01*
X238641000Y-121806635D01*
X238641000Y-122033365D01*
X238596768Y-122255734D01*
X238510004Y-122465202D01*
X238384038Y-122653723D01*
X238223723Y-122814038D01*
X238035202Y-122940004D01*
X237825734Y-123026768D01*
X237603365Y-123071000D01*
X237376635Y-123071000D01*
X237154266Y-123026768D01*
X236944798Y-122940004D01*
X236756277Y-122814038D01*
X236595962Y-122653723D01*
X236469996Y-122465202D01*
X236383232Y-122255734D01*
X236339000Y-122033365D01*
X236339000Y-121806635D01*
X236383232Y-121584266D01*
X236469996Y-121374798D01*
X236595962Y-121186277D01*
X236756277Y-121025962D01*
X236944798Y-120899996D01*
X237154266Y-120813232D01*
X237376635Y-120769000D01*
X237603365Y-120769000D01*
X237825734Y-120813232D01*
X237825734Y-120813232D01*
G37*
G36*
X215493890Y-120294017D02*
X215612361Y-120343089D01*
X215718992Y-120414338D01*
X215809662Y-120505008D01*
X215880911Y-120611639D01*
X215929983Y-120730110D01*
X215955000Y-120855881D01*
X215955000Y-120984119D01*
X215929983Y-121109890D01*
X215880911Y-121228361D01*
X215809662Y-121334992D01*
X215718992Y-121425662D01*
X215612361Y-121496911D01*
X215493890Y-121545983D01*
X215368119Y-121571000D01*
X215239881Y-121571000D01*
X215114110Y-121545983D01*
X214995639Y-121496911D01*
X214889008Y-121425662D01*
X214798338Y-121334992D01*
X214727089Y-121228361D01*
X214678017Y-121109890D01*
X214653000Y-120984119D01*
X214653000Y-120855881D01*
X214678017Y-120730110D01*
X214727089Y-120611639D01*
X214798338Y-120505008D01*
X214889008Y-120414338D01*
X214995639Y-120343089D01*
X215114110Y-120294017D01*
X215239881Y-120269000D01*
X215368119Y-120269000D01*
X215493890Y-120294017D01*
X215493890Y-120294017D01*
G37*
G36*
X230179890Y-120294017D02*
X230298361Y-120343089D01*
X230404992Y-120414338D01*
X230495662Y-120505008D01*
X230566911Y-120611639D01*
X230615983Y-120730110D01*
X230641000Y-120855881D01*
X230641000Y-120984119D01*
X230615983Y-121109890D01*
X230566911Y-121228361D01*
X230495662Y-121334992D01*
X230404992Y-121425662D01*
X230298361Y-121496911D01*
X230179890Y-121545983D01*
X230054119Y-121571000D01*
X229925881Y-121571000D01*
X229800110Y-121545983D01*
X229681639Y-121496911D01*
X229575008Y-121425662D01*
X229484338Y-121334992D01*
X229413089Y-121228361D01*
X229364017Y-121109890D01*
X229339000Y-120984119D01*
X229339000Y-120855881D01*
X229364017Y-120730110D01*
X229413089Y-120611639D01*
X229484338Y-120505008D01*
X229575008Y-120414338D01*
X229681639Y-120343089D01*
X229800110Y-120294017D01*
X229925881Y-120269000D01*
X230054119Y-120269000D01*
X230179890Y-120294017D01*
X230179890Y-120294017D01*
G37*
G36*
X232179890Y-120294017D02*
X232298361Y-120343089D01*
X232404992Y-120414338D01*
X232495662Y-120505008D01*
X232566911Y-120611639D01*
X232615983Y-120730110D01*
X232641000Y-120855881D01*
X232641000Y-120984119D01*
X232615983Y-121109890D01*
X232566911Y-121228361D01*
X232495662Y-121334992D01*
X232404992Y-121425662D01*
X232298361Y-121496911D01*
X232179890Y-121545983D01*
X232054119Y-121571000D01*
X231925881Y-121571000D01*
X231800110Y-121545983D01*
X231681639Y-121496911D01*
X231575008Y-121425662D01*
X231484338Y-121334992D01*
X231413089Y-121228361D01*
X231364017Y-121109890D01*
X231339000Y-120984119D01*
X231339000Y-120855881D01*
X231364017Y-120730110D01*
X231413089Y-120611639D01*
X231484338Y-120505008D01*
X231575008Y-120414338D01*
X231681639Y-120343089D01*
X231800110Y-120294017D01*
X231925881Y-120269000D01*
X232054119Y-120269000D01*
X232179890Y-120294017D01*
X232179890Y-120294017D01*
G37*
G36*
X234179890Y-120294017D02*
X234298361Y-120343089D01*
X234404992Y-120414338D01*
X234495662Y-120505008D01*
X234566911Y-120611639D01*
X234615983Y-120730110D01*
X234641000Y-120855881D01*
X234641000Y-120984119D01*
X234615983Y-121109890D01*
X234566911Y-121228361D01*
X234495662Y-121334992D01*
X234404992Y-121425662D01*
X234298361Y-121496911D01*
X234179890Y-121545983D01*
X234054119Y-121571000D01*
X233925881Y-121571000D01*
X233800110Y-121545983D01*
X233681639Y-121496911D01*
X233575008Y-121425662D01*
X233484338Y-121334992D01*
X233413089Y-121228361D01*
X233364017Y-121109890D01*
X233339000Y-120984119D01*
X233339000Y-120855881D01*
X233364017Y-120730110D01*
X233413089Y-120611639D01*
X233484338Y-120505008D01*
X233575008Y-120414338D01*
X233681639Y-120343089D01*
X233800110Y-120294017D01*
X233925881Y-120269000D01*
X234054119Y-120269000D01*
X234179890Y-120294017D01*
X234179890Y-120294017D01*
G37*
G36*
X213493890Y-120294017D02*
X213612361Y-120343089D01*
X213718992Y-120414338D01*
X213809662Y-120505008D01*
X213880911Y-120611639D01*
X213929983Y-120730110D01*
X213955000Y-120855881D01*
X213955000Y-120984119D01*
X213929983Y-121109890D01*
X213880911Y-121228361D01*
X213809662Y-121334992D01*
X213718992Y-121425662D01*
X213612361Y-121496911D01*
X213493890Y-121545983D01*
X213368119Y-121571000D01*
X213239881Y-121571000D01*
X213114110Y-121545983D01*
X212995639Y-121496911D01*
X212889008Y-121425662D01*
X212798338Y-121334992D01*
X212727089Y-121228361D01*
X212678017Y-121109890D01*
X212653000Y-120984119D01*
X212653000Y-120855881D01*
X212678017Y-120730110D01*
X212727089Y-120611639D01*
X212798338Y-120505008D01*
X212889008Y-120414338D01*
X212995639Y-120343089D01*
X213114110Y-120294017D01*
X213239881Y-120269000D01*
X213368119Y-120269000D01*
X213493890Y-120294017D01*
X213493890Y-120294017D01*
G37*
G36*
X217493890Y-120294017D02*
X217612361Y-120343089D01*
X217718992Y-120414338D01*
X217809662Y-120505008D01*
X217880911Y-120611639D01*
X217929983Y-120730110D01*
X217955000Y-120855881D01*
X217955000Y-120984119D01*
X217929983Y-121109890D01*
X217880911Y-121228361D01*
X217809662Y-121334992D01*
X217718992Y-121425662D01*
X217612361Y-121496911D01*
X217493890Y-121545983D01*
X217368119Y-121571000D01*
X217239881Y-121571000D01*
X217114110Y-121545983D01*
X216995639Y-121496911D01*
X216889008Y-121425662D01*
X216798338Y-121334992D01*
X216727089Y-121228361D01*
X216678017Y-121109890D01*
X216653000Y-120984119D01*
X216653000Y-120855881D01*
X216678017Y-120730110D01*
X216727089Y-120611639D01*
X216798338Y-120505008D01*
X216889008Y-120414338D01*
X216995639Y-120343089D01*
X217114110Y-120294017D01*
X217239881Y-120269000D01*
X217368119Y-120269000D01*
X217493890Y-120294017D01*
X217493890Y-120294017D01*
G37*
G36*
X211695999Y-116547737D02*
X211705611Y-116550653D01*
X211714469Y-116555388D01*
X211722237Y-116561763D01*
X211732446Y-116574202D01*
X211739372Y-116584568D01*
X211756698Y-116601895D01*
X211777073Y-116615510D01*
X211799711Y-116624888D01*
X211823745Y-116629669D01*
X211848249Y-116629669D01*
X211872283Y-116624889D01*
X211894922Y-116615513D01*
X211915297Y-116601899D01*
X211932624Y-116584573D01*
X211939552Y-116574204D01*
X211949763Y-116561763D01*
X211957531Y-116555388D01*
X211966389Y-116550653D01*
X211976001Y-116547737D01*
X211992140Y-116546148D01*
X212479860Y-116546148D01*
X212498198Y-116547954D01*
X212510450Y-116548556D01*
X212528869Y-116548556D01*
X212551149Y-116550750D01*
X212635236Y-116567476D01*
X212656655Y-116573974D01*
X212735871Y-116606785D01*
X212755607Y-116617335D01*
X212826897Y-116664969D01*
X212844208Y-116679176D01*
X212904824Y-116739792D01*
X212919031Y-116757103D01*
X212966665Y-116828393D01*
X212977215Y-116848129D01*
X213010026Y-116927345D01*
X213016524Y-116948764D01*
X213033250Y-117032851D01*
X213035444Y-117055131D01*
X213035444Y-117073550D01*
X213036046Y-117085802D01*
X213037852Y-117104140D01*
X213037852Y-117591861D01*
X213036046Y-117610198D01*
X213035444Y-117622450D01*
X213035444Y-117640869D01*
X213033250Y-117663149D01*
X213016524Y-117747236D01*
X213010026Y-117768655D01*
X212977215Y-117847871D01*
X212966665Y-117867607D01*
X212919031Y-117938897D01*
X212904824Y-117956208D01*
X212844208Y-118016824D01*
X212826897Y-118031031D01*
X212755607Y-118078665D01*
X212735871Y-118089215D01*
X212656655Y-118122026D01*
X212635236Y-118128524D01*
X212551149Y-118145250D01*
X212528869Y-118147444D01*
X212510450Y-118147444D01*
X212498198Y-118148046D01*
X212479861Y-118149852D01*
X211992140Y-118149852D01*
X211976001Y-118148263D01*
X211966389Y-118145347D01*
X211957531Y-118140612D01*
X211949763Y-118134237D01*
X211939554Y-118121798D01*
X211932628Y-118111432D01*
X211915302Y-118094105D01*
X211894927Y-118080490D01*
X211872289Y-118071112D01*
X211848255Y-118066331D01*
X211823751Y-118066331D01*
X211799717Y-118071111D01*
X211777078Y-118080487D01*
X211756703Y-118094101D01*
X211739376Y-118111427D01*
X211732448Y-118121796D01*
X211722237Y-118134237D01*
X211714469Y-118140612D01*
X211705611Y-118145347D01*
X211695999Y-118148263D01*
X211679860Y-118149852D01*
X211192139Y-118149852D01*
X211173802Y-118148046D01*
X211161550Y-118147444D01*
X211143131Y-118147444D01*
X211120851Y-118145250D01*
X211036764Y-118128524D01*
X211015345Y-118122026D01*
X210936129Y-118089215D01*
X210916393Y-118078665D01*
X210845103Y-118031031D01*
X210827792Y-118016824D01*
X210767176Y-117956208D01*
X210752969Y-117938897D01*
X210705335Y-117867607D01*
X210694785Y-117847871D01*
X210661974Y-117768655D01*
X210655476Y-117747236D01*
X210638750Y-117663149D01*
X210636556Y-117640869D01*
X210636556Y-117622450D01*
X210635954Y-117610198D01*
X210634148Y-117591861D01*
X210634148Y-117104139D01*
X210635954Y-117085802D01*
X210636556Y-117073550D01*
X210636556Y-117055131D01*
X210638750Y-117032851D01*
X210655476Y-116948764D01*
X210661974Y-116927345D01*
X210694785Y-116848129D01*
X210705335Y-116828393D01*
X210752969Y-116757103D01*
X210767176Y-116739792D01*
X210827792Y-116679176D01*
X210845103Y-116664969D01*
X210916393Y-116617335D01*
X210936129Y-116606785D01*
X211015345Y-116573974D01*
X211036764Y-116567476D01*
X211120851Y-116550750D01*
X211143131Y-116548556D01*
X211161550Y-116548556D01*
X211173802Y-116547954D01*
X211192140Y-116546148D01*
X211679860Y-116546148D01*
X211695999Y-116547737D01*
X211695999Y-116547737D01*
G37*
G36*
X235063999Y-116547737D02*
X235073611Y-116550653D01*
X235082469Y-116555388D01*
X235090237Y-116561763D01*
X235100446Y-116574202D01*
X235107372Y-116584568D01*
X235124698Y-116601895D01*
X235145073Y-116615510D01*
X235167711Y-116624888D01*
X235191745Y-116629669D01*
X235216249Y-116629669D01*
X235240283Y-116624889D01*
X235262922Y-116615513D01*
X235283297Y-116601899D01*
X235300624Y-116584573D01*
X235307552Y-116574204D01*
X235317763Y-116561763D01*
X235325531Y-116555388D01*
X235334389Y-116550653D01*
X235344001Y-116547737D01*
X235360140Y-116546148D01*
X235847860Y-116546148D01*
X235866198Y-116547954D01*
X235878450Y-116548556D01*
X235896869Y-116548556D01*
X235919149Y-116550750D01*
X236003236Y-116567476D01*
X236024655Y-116573974D01*
X236103871Y-116606785D01*
X236123607Y-116617335D01*
X236194897Y-116664969D01*
X236212208Y-116679176D01*
X236272824Y-116739792D01*
X236287031Y-116757103D01*
X236334665Y-116828393D01*
X236345215Y-116848129D01*
X236378026Y-116927345D01*
X236384524Y-116948764D01*
X236401250Y-117032851D01*
X236403444Y-117055131D01*
X236403444Y-117073550D01*
X236404046Y-117085802D01*
X236405852Y-117104140D01*
X236405852Y-117591861D01*
X236404046Y-117610198D01*
X236403444Y-117622450D01*
X236403444Y-117640869D01*
X236401250Y-117663149D01*
X236384524Y-117747236D01*
X236378026Y-117768655D01*
X236345215Y-117847871D01*
X236334665Y-117867607D01*
X236287031Y-117938897D01*
X236272824Y-117956208D01*
X236212208Y-118016824D01*
X236194897Y-118031031D01*
X236123607Y-118078665D01*
X236103871Y-118089215D01*
X236024655Y-118122026D01*
X236003236Y-118128524D01*
X235919149Y-118145250D01*
X235896869Y-118147444D01*
X235878450Y-118147444D01*
X235866198Y-118148046D01*
X235847861Y-118149852D01*
X235360140Y-118149852D01*
X235344001Y-118148263D01*
X235334389Y-118145347D01*
X235325531Y-118140612D01*
X235317763Y-118134237D01*
X235307554Y-118121798D01*
X235300628Y-118111432D01*
X235283302Y-118094105D01*
X235262927Y-118080490D01*
X235240289Y-118071112D01*
X235216255Y-118066331D01*
X235191751Y-118066331D01*
X235167717Y-118071111D01*
X235145078Y-118080487D01*
X235124703Y-118094101D01*
X235107376Y-118111427D01*
X235100448Y-118121796D01*
X235090237Y-118134237D01*
X235082469Y-118140612D01*
X235073611Y-118145347D01*
X235063999Y-118148263D01*
X235047860Y-118149852D01*
X234560139Y-118149852D01*
X234541802Y-118148046D01*
X234529550Y-118147444D01*
X234511131Y-118147444D01*
X234488851Y-118145250D01*
X234404764Y-118128524D01*
X234383345Y-118122026D01*
X234304129Y-118089215D01*
X234284393Y-118078665D01*
X234213103Y-118031031D01*
X234195792Y-118016824D01*
X234135176Y-117956208D01*
X234120969Y-117938897D01*
X234073335Y-117867607D01*
X234062785Y-117847871D01*
X234029974Y-117768655D01*
X234023476Y-117747236D01*
X234006750Y-117663149D01*
X234004556Y-117640869D01*
X234004556Y-117622450D01*
X234003954Y-117610198D01*
X234002148Y-117591861D01*
X234002148Y-117104140D01*
X234003954Y-117085802D01*
X234004556Y-117073550D01*
X234004556Y-117055131D01*
X234006750Y-117032851D01*
X234023476Y-116948764D01*
X234029974Y-116927345D01*
X234062785Y-116848129D01*
X234073335Y-116828393D01*
X234120969Y-116757103D01*
X234135176Y-116739792D01*
X234195792Y-116679176D01*
X234213103Y-116664969D01*
X234284393Y-116617335D01*
X234304129Y-116606785D01*
X234383345Y-116573974D01*
X234404764Y-116567476D01*
X234488851Y-116550750D01*
X234511131Y-116548556D01*
X234529550Y-116548556D01*
X234541802Y-116547954D01*
X234560140Y-116546148D01*
X235047860Y-116546148D01*
X235063999Y-116547737D01*
X235063999Y-116547737D01*
G37*
G36*
X218807999Y-116547737D02*
X218817611Y-116550653D01*
X218826469Y-116555388D01*
X218834237Y-116561763D01*
X218844446Y-116574202D01*
X218851372Y-116584568D01*
X218868698Y-116601895D01*
X218889073Y-116615510D01*
X218911711Y-116624888D01*
X218935745Y-116629669D01*
X218960249Y-116629669D01*
X218984283Y-116624889D01*
X219006922Y-116615513D01*
X219027297Y-116601899D01*
X219044624Y-116584573D01*
X219051552Y-116574204D01*
X219061763Y-116561763D01*
X219069531Y-116555388D01*
X219078389Y-116550653D01*
X219088001Y-116547737D01*
X219104140Y-116546148D01*
X219591860Y-116546148D01*
X219610198Y-116547954D01*
X219622450Y-116548556D01*
X219640869Y-116548556D01*
X219663149Y-116550750D01*
X219747236Y-116567476D01*
X219768655Y-116573974D01*
X219847871Y-116606785D01*
X219867607Y-116617335D01*
X219938897Y-116664969D01*
X219956208Y-116679176D01*
X220016824Y-116739792D01*
X220031031Y-116757103D01*
X220078665Y-116828393D01*
X220089215Y-116848129D01*
X220122026Y-116927345D01*
X220128524Y-116948764D01*
X220145250Y-117032851D01*
X220147444Y-117055131D01*
X220147444Y-117073550D01*
X220148046Y-117085802D01*
X220149852Y-117104140D01*
X220149852Y-117591861D01*
X220148046Y-117610198D01*
X220147444Y-117622450D01*
X220147444Y-117640869D01*
X220145250Y-117663149D01*
X220128524Y-117747236D01*
X220122026Y-117768655D01*
X220089215Y-117847871D01*
X220078665Y-117867607D01*
X220031031Y-117938897D01*
X220016824Y-117956208D01*
X219956208Y-118016824D01*
X219938897Y-118031031D01*
X219867607Y-118078665D01*
X219847871Y-118089215D01*
X219768655Y-118122026D01*
X219747236Y-118128524D01*
X219663149Y-118145250D01*
X219640869Y-118147444D01*
X219622450Y-118147444D01*
X219610198Y-118148046D01*
X219591861Y-118149852D01*
X219104140Y-118149852D01*
X219088001Y-118148263D01*
X219078389Y-118145347D01*
X219069531Y-118140612D01*
X219061763Y-118134237D01*
X219051554Y-118121798D01*
X219044628Y-118111432D01*
X219027302Y-118094105D01*
X219006927Y-118080490D01*
X218984289Y-118071112D01*
X218960255Y-118066331D01*
X218935751Y-118066331D01*
X218911717Y-118071111D01*
X218889078Y-118080487D01*
X218868703Y-118094101D01*
X218851376Y-118111427D01*
X218844448Y-118121796D01*
X218834237Y-118134237D01*
X218826469Y-118140612D01*
X218817611Y-118145347D01*
X218807999Y-118148263D01*
X218791860Y-118149852D01*
X218304139Y-118149852D01*
X218285802Y-118148046D01*
X218273550Y-118147444D01*
X218255131Y-118147444D01*
X218232851Y-118145250D01*
X218148764Y-118128524D01*
X218127345Y-118122026D01*
X218048129Y-118089215D01*
X218028393Y-118078665D01*
X217957103Y-118031031D01*
X217939792Y-118016824D01*
X217879176Y-117956208D01*
X217864969Y-117938897D01*
X217817335Y-117867607D01*
X217806785Y-117847871D01*
X217773974Y-117768655D01*
X217767476Y-117747236D01*
X217750750Y-117663149D01*
X217748556Y-117640869D01*
X217748556Y-117622450D01*
X217747954Y-117610198D01*
X217746148Y-117591861D01*
X217746148Y-117104140D01*
X217747954Y-117085802D01*
X217748556Y-117073550D01*
X217748556Y-117055131D01*
X217750750Y-117032851D01*
X217767476Y-116948764D01*
X217773974Y-116927345D01*
X217806785Y-116848129D01*
X217817335Y-116828393D01*
X217864969Y-116757103D01*
X217879176Y-116739792D01*
X217939792Y-116679176D01*
X217957103Y-116664969D01*
X218028393Y-116617335D01*
X218048129Y-116606785D01*
X218127345Y-116573974D01*
X218148764Y-116567476D01*
X218232851Y-116550750D01*
X218255131Y-116548556D01*
X218273550Y-116548556D01*
X218285802Y-116547954D01*
X218304140Y-116546148D01*
X218791860Y-116546148D01*
X218807999Y-116547737D01*
X218807999Y-116547737D01*
G37*
G36*
X228459999Y-116547737D02*
X228469611Y-116550653D01*
X228478469Y-116555388D01*
X228486237Y-116561763D01*
X228496446Y-116574202D01*
X228503372Y-116584568D01*
X228520698Y-116601895D01*
X228541073Y-116615510D01*
X228563711Y-116624888D01*
X228587745Y-116629669D01*
X228612249Y-116629669D01*
X228636283Y-116624889D01*
X228658922Y-116615513D01*
X228679297Y-116601899D01*
X228696624Y-116584573D01*
X228703552Y-116574204D01*
X228713763Y-116561763D01*
X228721531Y-116555388D01*
X228730389Y-116550653D01*
X228740001Y-116547737D01*
X228756140Y-116546148D01*
X229243860Y-116546148D01*
X229262198Y-116547954D01*
X229274450Y-116548556D01*
X229292869Y-116548556D01*
X229315149Y-116550750D01*
X229399236Y-116567476D01*
X229420655Y-116573974D01*
X229499871Y-116606785D01*
X229519607Y-116617335D01*
X229590897Y-116664969D01*
X229608208Y-116679176D01*
X229668824Y-116739792D01*
X229683031Y-116757103D01*
X229730665Y-116828393D01*
X229741215Y-116848129D01*
X229774026Y-116927345D01*
X229780524Y-116948764D01*
X229797250Y-117032851D01*
X229799444Y-117055131D01*
X229799444Y-117073550D01*
X229800046Y-117085802D01*
X229801852Y-117104140D01*
X229801852Y-117591861D01*
X229800046Y-117610198D01*
X229799444Y-117622450D01*
X229799444Y-117640869D01*
X229797250Y-117663149D01*
X229780524Y-117747236D01*
X229774026Y-117768655D01*
X229741215Y-117847871D01*
X229730665Y-117867607D01*
X229683031Y-117938897D01*
X229668824Y-117956208D01*
X229608208Y-118016824D01*
X229590897Y-118031031D01*
X229519607Y-118078665D01*
X229499871Y-118089215D01*
X229420655Y-118122026D01*
X229399236Y-118128524D01*
X229315149Y-118145250D01*
X229292869Y-118147444D01*
X229274450Y-118147444D01*
X229262198Y-118148046D01*
X229243861Y-118149852D01*
X228756140Y-118149852D01*
X228740001Y-118148263D01*
X228730389Y-118145347D01*
X228721531Y-118140612D01*
X228713763Y-118134237D01*
X228703554Y-118121798D01*
X228696628Y-118111432D01*
X228679302Y-118094105D01*
X228658927Y-118080490D01*
X228636289Y-118071112D01*
X228612255Y-118066331D01*
X228587751Y-118066331D01*
X228563717Y-118071111D01*
X228541078Y-118080487D01*
X228520703Y-118094101D01*
X228503376Y-118111427D01*
X228496448Y-118121796D01*
X228486237Y-118134237D01*
X228478469Y-118140612D01*
X228469611Y-118145347D01*
X228459999Y-118148263D01*
X228443860Y-118149852D01*
X227956139Y-118149852D01*
X227937802Y-118148046D01*
X227925550Y-118147444D01*
X227907131Y-118147444D01*
X227884851Y-118145250D01*
X227800764Y-118128524D01*
X227779345Y-118122026D01*
X227700129Y-118089215D01*
X227680393Y-118078665D01*
X227609103Y-118031031D01*
X227591792Y-118016824D01*
X227531176Y-117956208D01*
X227516969Y-117938897D01*
X227469335Y-117867607D01*
X227458785Y-117847871D01*
X227425974Y-117768655D01*
X227419476Y-117747236D01*
X227402750Y-117663149D01*
X227400556Y-117640869D01*
X227400556Y-117622450D01*
X227399954Y-117610198D01*
X227398148Y-117591861D01*
X227398148Y-117104140D01*
X227399954Y-117085802D01*
X227400556Y-117073550D01*
X227400556Y-117055131D01*
X227402750Y-117032851D01*
X227419476Y-116948764D01*
X227425974Y-116927345D01*
X227458785Y-116848129D01*
X227469335Y-116828393D01*
X227516969Y-116757103D01*
X227531176Y-116739792D01*
X227591792Y-116679176D01*
X227609103Y-116664969D01*
X227680393Y-116617335D01*
X227700129Y-116606785D01*
X227779345Y-116573974D01*
X227800764Y-116567476D01*
X227884851Y-116550750D01*
X227907131Y-116548556D01*
X227925550Y-116548556D01*
X227937802Y-116547954D01*
X227956140Y-116546148D01*
X228443860Y-116546148D01*
X228459999Y-116547737D01*
X228459999Y-116547737D01*
G37*
G36*
X245699734Y-114209232D02*
X245909202Y-114295996D01*
X246097723Y-114421962D01*
X246258038Y-114582277D01*
X246384004Y-114770798D01*
X246470768Y-114980266D01*
X246515000Y-115202635D01*
X246515000Y-115429365D01*
X246470768Y-115651734D01*
X246384004Y-115861202D01*
X246258038Y-116049723D01*
X246097723Y-116210038D01*
X245909202Y-116336004D01*
X245699734Y-116422768D01*
X245477365Y-116467000D01*
X245250635Y-116467000D01*
X245028266Y-116422768D01*
X244818798Y-116336004D01*
X244630277Y-116210038D01*
X244469962Y-116049723D01*
X244343996Y-115861202D01*
X244257232Y-115651734D01*
X244213000Y-115429365D01*
X244213000Y-115202635D01*
X244257232Y-114980266D01*
X244343996Y-114770798D01*
X244469962Y-114582277D01*
X244630277Y-114421962D01*
X244818798Y-114295996D01*
X245028266Y-114209232D01*
X245250635Y-114165000D01*
X245477365Y-114165000D01*
X245699734Y-114209232D01*
X245699734Y-114209232D01*
G37*
G36*
X215698565Y-113777389D02*
X215889834Y-113856615D01*
X216061976Y-113971637D01*
X216208363Y-114118024D01*
X216323385Y-114290166D01*
X216402611Y-114481435D01*
X216443000Y-114684484D01*
X216443000Y-114891516D01*
X216402611Y-115094565D01*
X216323385Y-115285834D01*
X216208363Y-115457976D01*
X216061976Y-115604363D01*
X215889834Y-115719385D01*
X215698565Y-115798611D01*
X215495516Y-115839000D01*
X215288484Y-115839000D01*
X215085435Y-115798611D01*
X214894166Y-115719385D01*
X214722024Y-115604363D01*
X214575637Y-115457976D01*
X214460615Y-115285834D01*
X214381389Y-115094565D01*
X214341000Y-114891516D01*
X214341000Y-114684484D01*
X214381389Y-114481435D01*
X214460615Y-114290166D01*
X214575637Y-114118024D01*
X214722024Y-113971637D01*
X214894166Y-113856615D01*
X215085435Y-113777389D01*
X215288484Y-113737000D01*
X215495516Y-113737000D01*
X215698565Y-113777389D01*
X215698565Y-113777389D01*
G37*
G36*
X232462565Y-113777389D02*
X232653834Y-113856615D01*
X232825976Y-113971637D01*
X232972363Y-114118024D01*
X233087385Y-114290166D01*
X233166611Y-114481435D01*
X233207000Y-114684484D01*
X233207000Y-114891516D01*
X233166611Y-115094565D01*
X233087385Y-115285834D01*
X232972363Y-115457976D01*
X232825976Y-115604363D01*
X232653834Y-115719385D01*
X232462565Y-115798611D01*
X232259516Y-115839000D01*
X232052484Y-115839000D01*
X231849435Y-115798611D01*
X231658166Y-115719385D01*
X231486024Y-115604363D01*
X231339637Y-115457976D01*
X231224615Y-115285834D01*
X231145389Y-115094565D01*
X231105000Y-114891516D01*
X231105000Y-114684484D01*
X231145389Y-114481435D01*
X231224615Y-114290166D01*
X231339637Y-114118024D01*
X231486024Y-113971637D01*
X231658166Y-113856615D01*
X231849435Y-113777389D01*
X232052484Y-113737000D01*
X232259516Y-113737000D01*
X232462565Y-113777389D01*
X232462565Y-113777389D01*
G37*
G36*
X196865134Y-108392909D02*
X197212503Y-108462005D01*
X197785730Y-108699443D01*
X198301621Y-109044150D01*
X198740350Y-109482879D01*
X199085057Y-109998770D01*
X199322495Y-110571997D01*
X199339270Y-110656332D01*
X199443540Y-111180530D01*
X199443540Y-111800990D01*
X199379217Y-112124361D01*
X199322495Y-112409523D01*
X199085057Y-112982750D01*
X198740350Y-113498641D01*
X198301621Y-113937370D01*
X197785730Y-114282077D01*
X197212503Y-114519515D01*
X197009658Y-114559863D01*
X196603970Y-114640560D01*
X195983510Y-114640560D01*
X195577822Y-114559863D01*
X195374977Y-114519515D01*
X194801750Y-114282077D01*
X194285859Y-113937370D01*
X193847130Y-113498641D01*
X193502423Y-112982750D01*
X193264985Y-112409523D01*
X193208263Y-112124361D01*
X193143940Y-111800990D01*
X193143940Y-111180530D01*
X193248210Y-110656332D01*
X193264985Y-110571997D01*
X193502423Y-109998770D01*
X193847130Y-109482879D01*
X194285859Y-109044150D01*
X194801750Y-108699443D01*
X195374977Y-108462005D01*
X195722346Y-108392909D01*
X195983510Y-108340960D01*
X196603970Y-108340960D01*
X196865134Y-108392909D01*
X196865134Y-108392909D01*
G37*
G36*
X190040027Y-110746691D02*
X190190410Y-110776604D01*
X190472674Y-110893521D01*
X190726705Y-111063259D01*
X190942741Y-111279295D01*
X191112479Y-111533326D01*
X191229396Y-111815590D01*
X191229396Y-111815591D01*
X191289000Y-112115238D01*
X191289000Y-112420762D01*
X191249264Y-112620527D01*
X191229396Y-112720410D01*
X191112479Y-113002674D01*
X190942741Y-113256705D01*
X190726705Y-113472741D01*
X190472674Y-113642479D01*
X190190410Y-113759396D01*
X190099953Y-113777389D01*
X189890762Y-113819000D01*
X189585238Y-113819000D01*
X189376047Y-113777389D01*
X189285590Y-113759396D01*
X189003326Y-113642479D01*
X188749295Y-113472741D01*
X188533259Y-113256705D01*
X188363521Y-113002674D01*
X188246604Y-112720410D01*
X188226736Y-112620527D01*
X188187000Y-112420762D01*
X188187000Y-112115238D01*
X188246604Y-111815591D01*
X188246604Y-111815590D01*
X188363521Y-111533326D01*
X188533259Y-111279295D01*
X188749295Y-111063259D01*
X189003326Y-110893521D01*
X189285590Y-110776604D01*
X189435973Y-110746691D01*
X189585238Y-110717000D01*
X189890762Y-110717000D01*
X190040027Y-110746691D01*
X190040027Y-110746691D01*
G37*
G36*
X244553890Y-111190017D02*
X244672361Y-111239089D01*
X244778992Y-111310338D01*
X244869662Y-111401008D01*
X244869664Y-111401011D01*
X244869665Y-111401012D01*
X244933041Y-111495861D01*
X244940911Y-111507639D01*
X244989983Y-111626110D01*
X245015000Y-111751881D01*
X245015000Y-111880119D01*
X244989983Y-112005890D01*
X244940911Y-112124361D01*
X244869662Y-112230992D01*
X244778992Y-112321662D01*
X244672361Y-112392911D01*
X244553890Y-112441983D01*
X244428119Y-112467000D01*
X244299881Y-112467000D01*
X244174110Y-112441983D01*
X244055639Y-112392911D01*
X243949008Y-112321662D01*
X243858338Y-112230992D01*
X243787089Y-112124361D01*
X243738017Y-112005890D01*
X243713000Y-111880119D01*
X243713000Y-111751881D01*
X243738017Y-111626110D01*
X243787089Y-111507639D01*
X243794959Y-111495861D01*
X243858335Y-111401012D01*
X243858336Y-111401011D01*
X243858338Y-111401008D01*
X243949008Y-111310338D01*
X244055639Y-111239089D01*
X244174110Y-111190017D01*
X244299881Y-111165000D01*
X244428119Y-111165000D01*
X244553890Y-111190017D01*
X244553890Y-111190017D01*
G37*
G36*
X247015000Y-112467000D02*
X245713000Y-112467000D01*
X245713000Y-111165000D01*
X247015000Y-111165000D01*
X247015000Y-112467000D01*
X247015000Y-112467000D01*
G37*
G36*
X185119677Y-111156465D02*
X185157364Y-111167898D01*
X185192103Y-111186466D01*
X185222548Y-111211452D01*
X185247534Y-111241897D01*
X185266102Y-111276636D01*
X185277535Y-111314323D01*
X185282000Y-111359661D01*
X185282000Y-112196339D01*
X185277535Y-112241677D01*
X185266102Y-112279364D01*
X185247534Y-112314103D01*
X185222548Y-112344548D01*
X185192103Y-112369534D01*
X185157364Y-112388102D01*
X185119677Y-112399535D01*
X185074339Y-112404000D01*
X183987661Y-112404000D01*
X183942323Y-112399535D01*
X183904636Y-112388102D01*
X183869897Y-112369534D01*
X183839452Y-112344548D01*
X183814466Y-112314103D01*
X183795898Y-112279364D01*
X183784465Y-112241677D01*
X183780000Y-112196339D01*
X183780000Y-111359661D01*
X183784465Y-111314323D01*
X183795898Y-111276636D01*
X183814466Y-111241897D01*
X183839452Y-111211452D01*
X183869897Y-111186466D01*
X183904636Y-111167898D01*
X183942323Y-111156465D01*
X183987661Y-111152000D01*
X185074339Y-111152000D01*
X185119677Y-111156465D01*
X185119677Y-111156465D01*
G37*
G36*
X235063999Y-110451737D02*
X235073611Y-110454653D01*
X235082469Y-110459388D01*
X235090237Y-110465763D01*
X235100446Y-110478202D01*
X235107372Y-110488568D01*
X235124698Y-110505895D01*
X235145073Y-110519510D01*
X235167711Y-110528888D01*
X235191745Y-110533669D01*
X235216249Y-110533669D01*
X235240283Y-110528889D01*
X235262922Y-110519513D01*
X235283297Y-110505899D01*
X235300624Y-110488573D01*
X235307552Y-110478204D01*
X235317763Y-110465763D01*
X235325531Y-110459388D01*
X235334389Y-110454653D01*
X235344001Y-110451737D01*
X235360140Y-110450148D01*
X235847860Y-110450148D01*
X235866198Y-110451954D01*
X235878450Y-110452556D01*
X235896869Y-110452556D01*
X235919149Y-110454750D01*
X236003236Y-110471476D01*
X236024655Y-110477974D01*
X236103871Y-110510785D01*
X236123607Y-110521335D01*
X236194897Y-110568969D01*
X236212208Y-110583176D01*
X236272824Y-110643792D01*
X236287031Y-110661103D01*
X236334665Y-110732393D01*
X236345215Y-110752129D01*
X236378026Y-110831345D01*
X236384524Y-110852764D01*
X236401250Y-110936851D01*
X236403444Y-110959131D01*
X236403444Y-110977550D01*
X236404046Y-110989802D01*
X236405852Y-111008140D01*
X236405852Y-111495861D01*
X236404046Y-111514198D01*
X236403444Y-111526450D01*
X236403444Y-111544869D01*
X236401250Y-111567149D01*
X236384524Y-111651236D01*
X236378026Y-111672655D01*
X236345215Y-111751871D01*
X236334665Y-111771607D01*
X236287031Y-111842897D01*
X236272824Y-111860208D01*
X236212208Y-111920824D01*
X236194897Y-111935031D01*
X236123607Y-111982665D01*
X236103871Y-111993215D01*
X236024655Y-112026026D01*
X236003236Y-112032524D01*
X235919149Y-112049250D01*
X235896869Y-112051444D01*
X235878450Y-112051444D01*
X235866198Y-112052046D01*
X235847861Y-112053852D01*
X235360140Y-112053852D01*
X235344001Y-112052263D01*
X235334389Y-112049347D01*
X235325531Y-112044612D01*
X235317763Y-112038237D01*
X235307554Y-112025798D01*
X235300628Y-112015432D01*
X235283302Y-111998105D01*
X235262927Y-111984490D01*
X235240289Y-111975112D01*
X235216255Y-111970331D01*
X235191751Y-111970331D01*
X235167717Y-111975111D01*
X235145078Y-111984487D01*
X235124703Y-111998101D01*
X235107376Y-112015427D01*
X235100448Y-112025796D01*
X235090237Y-112038237D01*
X235082469Y-112044612D01*
X235073611Y-112049347D01*
X235063999Y-112052263D01*
X235047860Y-112053852D01*
X234560139Y-112053852D01*
X234541802Y-112052046D01*
X234529550Y-112051444D01*
X234511131Y-112051444D01*
X234488851Y-112049250D01*
X234404764Y-112032524D01*
X234383345Y-112026026D01*
X234304129Y-111993215D01*
X234284393Y-111982665D01*
X234213103Y-111935031D01*
X234195792Y-111920824D01*
X234135176Y-111860208D01*
X234120969Y-111842897D01*
X234073335Y-111771607D01*
X234062785Y-111751871D01*
X234029974Y-111672655D01*
X234023476Y-111651236D01*
X234006750Y-111567149D01*
X234004556Y-111544869D01*
X234004556Y-111526450D01*
X234003954Y-111514198D01*
X234002148Y-111495861D01*
X234002148Y-111008140D01*
X234003954Y-110989802D01*
X234004556Y-110977550D01*
X234004556Y-110959131D01*
X234006750Y-110936851D01*
X234023476Y-110852764D01*
X234029974Y-110831345D01*
X234062785Y-110752129D01*
X234073335Y-110732393D01*
X234120969Y-110661103D01*
X234135176Y-110643792D01*
X234195792Y-110583176D01*
X234213103Y-110568969D01*
X234284393Y-110521335D01*
X234304129Y-110510785D01*
X234383345Y-110477974D01*
X234404764Y-110471476D01*
X234488851Y-110454750D01*
X234511131Y-110452556D01*
X234529550Y-110452556D01*
X234541802Y-110451954D01*
X234560140Y-110450148D01*
X235047860Y-110450148D01*
X235063999Y-110451737D01*
X235063999Y-110451737D01*
G37*
G36*
X228459999Y-110451737D02*
X228469611Y-110454653D01*
X228478469Y-110459388D01*
X228486237Y-110465763D01*
X228496446Y-110478202D01*
X228503372Y-110488568D01*
X228520698Y-110505895D01*
X228541073Y-110519510D01*
X228563711Y-110528888D01*
X228587745Y-110533669D01*
X228612249Y-110533669D01*
X228636283Y-110528889D01*
X228658922Y-110519513D01*
X228679297Y-110505899D01*
X228696624Y-110488573D01*
X228703552Y-110478204D01*
X228713763Y-110465763D01*
X228721531Y-110459388D01*
X228730389Y-110454653D01*
X228740001Y-110451737D01*
X228756140Y-110450148D01*
X229243860Y-110450148D01*
X229262198Y-110451954D01*
X229274450Y-110452556D01*
X229292869Y-110452556D01*
X229315149Y-110454750D01*
X229399236Y-110471476D01*
X229420655Y-110477974D01*
X229499871Y-110510785D01*
X229519607Y-110521335D01*
X229590897Y-110568969D01*
X229608208Y-110583176D01*
X229668824Y-110643792D01*
X229683031Y-110661103D01*
X229730665Y-110732393D01*
X229741215Y-110752129D01*
X229774026Y-110831345D01*
X229780524Y-110852764D01*
X229797250Y-110936851D01*
X229799444Y-110959131D01*
X229799444Y-110977550D01*
X229800046Y-110989802D01*
X229801852Y-111008140D01*
X229801852Y-111495861D01*
X229800046Y-111514198D01*
X229799444Y-111526450D01*
X229799444Y-111544869D01*
X229797250Y-111567149D01*
X229780524Y-111651236D01*
X229774026Y-111672655D01*
X229741215Y-111751871D01*
X229730665Y-111771607D01*
X229683031Y-111842897D01*
X229668824Y-111860208D01*
X229608208Y-111920824D01*
X229590897Y-111935031D01*
X229519607Y-111982665D01*
X229499871Y-111993215D01*
X229420655Y-112026026D01*
X229399236Y-112032524D01*
X229315149Y-112049250D01*
X229292869Y-112051444D01*
X229274450Y-112051444D01*
X229262198Y-112052046D01*
X229243861Y-112053852D01*
X228756140Y-112053852D01*
X228740001Y-112052263D01*
X228730389Y-112049347D01*
X228721531Y-112044612D01*
X228713763Y-112038237D01*
X228703554Y-112025798D01*
X228696628Y-112015432D01*
X228679302Y-111998105D01*
X228658927Y-111984490D01*
X228636289Y-111975112D01*
X228612255Y-111970331D01*
X228587751Y-111970331D01*
X228563717Y-111975111D01*
X228541078Y-111984487D01*
X228520703Y-111998101D01*
X228503376Y-112015427D01*
X228496448Y-112025796D01*
X228486237Y-112038237D01*
X228478469Y-112044612D01*
X228469611Y-112049347D01*
X228459999Y-112052263D01*
X228443860Y-112053852D01*
X227956139Y-112053852D01*
X227937802Y-112052046D01*
X227925550Y-112051444D01*
X227907131Y-112051444D01*
X227884851Y-112049250D01*
X227800764Y-112032524D01*
X227779345Y-112026026D01*
X227700129Y-111993215D01*
X227680393Y-111982665D01*
X227609103Y-111935031D01*
X227591792Y-111920824D01*
X227531176Y-111860208D01*
X227516969Y-111842897D01*
X227469335Y-111771607D01*
X227458785Y-111751871D01*
X227425974Y-111672655D01*
X227419476Y-111651236D01*
X227402750Y-111567149D01*
X227400556Y-111544869D01*
X227400556Y-111526450D01*
X227399954Y-111514198D01*
X227398148Y-111495861D01*
X227398148Y-111008140D01*
X227399954Y-110989802D01*
X227400556Y-110977550D01*
X227400556Y-110959131D01*
X227402750Y-110936851D01*
X227419476Y-110852764D01*
X227425974Y-110831345D01*
X227458785Y-110752129D01*
X227469335Y-110732393D01*
X227516969Y-110661103D01*
X227531176Y-110643792D01*
X227591792Y-110583176D01*
X227609103Y-110568969D01*
X227680393Y-110521335D01*
X227700129Y-110510785D01*
X227779345Y-110477974D01*
X227800764Y-110471476D01*
X227884851Y-110454750D01*
X227907131Y-110452556D01*
X227925550Y-110452556D01*
X227937802Y-110451954D01*
X227956140Y-110450148D01*
X228443860Y-110450148D01*
X228459999Y-110451737D01*
X228459999Y-110451737D01*
G37*
G36*
X218807999Y-110451737D02*
X218817611Y-110454653D01*
X218826469Y-110459388D01*
X218834237Y-110465763D01*
X218844446Y-110478202D01*
X218851372Y-110488568D01*
X218868698Y-110505895D01*
X218889073Y-110519510D01*
X218911711Y-110528888D01*
X218935745Y-110533669D01*
X218960249Y-110533669D01*
X218984283Y-110528889D01*
X219006922Y-110519513D01*
X219027297Y-110505899D01*
X219044624Y-110488573D01*
X219051552Y-110478204D01*
X219061763Y-110465763D01*
X219069531Y-110459388D01*
X219078389Y-110454653D01*
X219088001Y-110451737D01*
X219104140Y-110450148D01*
X219591860Y-110450148D01*
X219610198Y-110451954D01*
X219622450Y-110452556D01*
X219640869Y-110452556D01*
X219663149Y-110454750D01*
X219747236Y-110471476D01*
X219768655Y-110477974D01*
X219847871Y-110510785D01*
X219867607Y-110521335D01*
X219938897Y-110568969D01*
X219956208Y-110583176D01*
X220016824Y-110643792D01*
X220031031Y-110661103D01*
X220078665Y-110732393D01*
X220089215Y-110752129D01*
X220122026Y-110831345D01*
X220128524Y-110852764D01*
X220145250Y-110936851D01*
X220147444Y-110959131D01*
X220147444Y-110977550D01*
X220148046Y-110989802D01*
X220149852Y-111008140D01*
X220149852Y-111495861D01*
X220148046Y-111514198D01*
X220147444Y-111526450D01*
X220147444Y-111544869D01*
X220145250Y-111567149D01*
X220128524Y-111651236D01*
X220122026Y-111672655D01*
X220089215Y-111751871D01*
X220078665Y-111771607D01*
X220031031Y-111842897D01*
X220016824Y-111860208D01*
X219956208Y-111920824D01*
X219938897Y-111935031D01*
X219867607Y-111982665D01*
X219847871Y-111993215D01*
X219768655Y-112026026D01*
X219747236Y-112032524D01*
X219663149Y-112049250D01*
X219640869Y-112051444D01*
X219622450Y-112051444D01*
X219610198Y-112052046D01*
X219591861Y-112053852D01*
X219104140Y-112053852D01*
X219088001Y-112052263D01*
X219078389Y-112049347D01*
X219069531Y-112044612D01*
X219061763Y-112038237D01*
X219051554Y-112025798D01*
X219044628Y-112015432D01*
X219027302Y-111998105D01*
X219006927Y-111984490D01*
X218984289Y-111975112D01*
X218960255Y-111970331D01*
X218935751Y-111970331D01*
X218911717Y-111975111D01*
X218889078Y-111984487D01*
X218868703Y-111998101D01*
X218851376Y-112015427D01*
X218844448Y-112025796D01*
X218834237Y-112038237D01*
X218826469Y-112044612D01*
X218817611Y-112049347D01*
X218807999Y-112052263D01*
X218791860Y-112053852D01*
X218304139Y-112053852D01*
X218285802Y-112052046D01*
X218273550Y-112051444D01*
X218255131Y-112051444D01*
X218232851Y-112049250D01*
X218148764Y-112032524D01*
X218127345Y-112026026D01*
X218048129Y-111993215D01*
X218028393Y-111982665D01*
X217957103Y-111935031D01*
X217939792Y-111920824D01*
X217879176Y-111860208D01*
X217864969Y-111842897D01*
X217817335Y-111771607D01*
X217806785Y-111751871D01*
X217773974Y-111672655D01*
X217767476Y-111651236D01*
X217750750Y-111567149D01*
X217748556Y-111544869D01*
X217748556Y-111526450D01*
X217747954Y-111514198D01*
X217746148Y-111495861D01*
X217746148Y-111008140D01*
X217747954Y-110989802D01*
X217748556Y-110977550D01*
X217748556Y-110959131D01*
X217750750Y-110936851D01*
X217767476Y-110852764D01*
X217773974Y-110831345D01*
X217806785Y-110752129D01*
X217817335Y-110732393D01*
X217864969Y-110661103D01*
X217879176Y-110643792D01*
X217939792Y-110583176D01*
X217957103Y-110568969D01*
X218028393Y-110521335D01*
X218048129Y-110510785D01*
X218127345Y-110477974D01*
X218148764Y-110471476D01*
X218232851Y-110454750D01*
X218255131Y-110452556D01*
X218273550Y-110452556D01*
X218285802Y-110451954D01*
X218304140Y-110450148D01*
X218791860Y-110450148D01*
X218807999Y-110451737D01*
X218807999Y-110451737D01*
G37*
G36*
X211695999Y-110451737D02*
X211705611Y-110454653D01*
X211714469Y-110459388D01*
X211722237Y-110465763D01*
X211732446Y-110478202D01*
X211739372Y-110488568D01*
X211756698Y-110505895D01*
X211777073Y-110519510D01*
X211799711Y-110528888D01*
X211823745Y-110533669D01*
X211848249Y-110533669D01*
X211872283Y-110528889D01*
X211894922Y-110519513D01*
X211915297Y-110505899D01*
X211932624Y-110488573D01*
X211939552Y-110478204D01*
X211949763Y-110465763D01*
X211957531Y-110459388D01*
X211966389Y-110454653D01*
X211976001Y-110451737D01*
X211992140Y-110450148D01*
X212479860Y-110450148D01*
X212498198Y-110451954D01*
X212510450Y-110452556D01*
X212528869Y-110452556D01*
X212551149Y-110454750D01*
X212635236Y-110471476D01*
X212656655Y-110477974D01*
X212735871Y-110510785D01*
X212755607Y-110521335D01*
X212826897Y-110568969D01*
X212844208Y-110583176D01*
X212904824Y-110643792D01*
X212919031Y-110661103D01*
X212966665Y-110732393D01*
X212977215Y-110752129D01*
X213010026Y-110831345D01*
X213016524Y-110852764D01*
X213033250Y-110936851D01*
X213035444Y-110959131D01*
X213035444Y-110977550D01*
X213036046Y-110989802D01*
X213037852Y-111008140D01*
X213037852Y-111495861D01*
X213036046Y-111514198D01*
X213035444Y-111526450D01*
X213035444Y-111544869D01*
X213033250Y-111567149D01*
X213016524Y-111651236D01*
X213010026Y-111672655D01*
X212977215Y-111751871D01*
X212966665Y-111771607D01*
X212919031Y-111842897D01*
X212904824Y-111860208D01*
X212844208Y-111920824D01*
X212826897Y-111935031D01*
X212755607Y-111982665D01*
X212735871Y-111993215D01*
X212656655Y-112026026D01*
X212635236Y-112032524D01*
X212551149Y-112049250D01*
X212528869Y-112051444D01*
X212510450Y-112051444D01*
X212498198Y-112052046D01*
X212479861Y-112053852D01*
X211992140Y-112053852D01*
X211976001Y-112052263D01*
X211966389Y-112049347D01*
X211957531Y-112044612D01*
X211949763Y-112038237D01*
X211939554Y-112025798D01*
X211932628Y-112015432D01*
X211915302Y-111998105D01*
X211894927Y-111984490D01*
X211872289Y-111975112D01*
X211848255Y-111970331D01*
X211823751Y-111970331D01*
X211799717Y-111975111D01*
X211777078Y-111984487D01*
X211756703Y-111998101D01*
X211739376Y-112015427D01*
X211732448Y-112025796D01*
X211722237Y-112038237D01*
X211714469Y-112044612D01*
X211705611Y-112049347D01*
X211695999Y-112052263D01*
X211679860Y-112053852D01*
X211192139Y-112053852D01*
X211173802Y-112052046D01*
X211161550Y-112051444D01*
X211143131Y-112051444D01*
X211120851Y-112049250D01*
X211036764Y-112032524D01*
X211015345Y-112026026D01*
X210936129Y-111993215D01*
X210916393Y-111982665D01*
X210845103Y-111935031D01*
X210827792Y-111920824D01*
X210767176Y-111860208D01*
X210752969Y-111842897D01*
X210705335Y-111771607D01*
X210694785Y-111751871D01*
X210661974Y-111672655D01*
X210655476Y-111651236D01*
X210638750Y-111567149D01*
X210636556Y-111544869D01*
X210636556Y-111526450D01*
X210635954Y-111514198D01*
X210634148Y-111495861D01*
X210634148Y-111008139D01*
X210635954Y-110989802D01*
X210636556Y-110977550D01*
X210636556Y-110959131D01*
X210638750Y-110936851D01*
X210655476Y-110852764D01*
X210661974Y-110831345D01*
X210694785Y-110752129D01*
X210705335Y-110732393D01*
X210752969Y-110661103D01*
X210767176Y-110643792D01*
X210827792Y-110583176D01*
X210845103Y-110568969D01*
X210916393Y-110521335D01*
X210936129Y-110510785D01*
X211015345Y-110477974D01*
X211036764Y-110471476D01*
X211120851Y-110454750D01*
X211143131Y-110452556D01*
X211161550Y-110452556D01*
X211173802Y-110451954D01*
X211192140Y-110450148D01*
X211679860Y-110450148D01*
X211695999Y-110451737D01*
X211695999Y-110451737D01*
G37*
G36*
X240292198Y-108527954D02*
X240304450Y-108528556D01*
X240322869Y-108528556D01*
X240345149Y-108530750D01*
X240429236Y-108547476D01*
X240450655Y-108553974D01*
X240529871Y-108586785D01*
X240549607Y-108597335D01*
X240620897Y-108644969D01*
X240638208Y-108659176D01*
X240698824Y-108719792D01*
X240713031Y-108737103D01*
X240760665Y-108808393D01*
X240771215Y-108828129D01*
X240804026Y-108907345D01*
X240810524Y-108928764D01*
X240827250Y-109012851D01*
X240829444Y-109035131D01*
X240829444Y-109053550D01*
X240830046Y-109065802D01*
X240831852Y-109084140D01*
X240831852Y-109571860D01*
X240830263Y-109587999D01*
X240827347Y-109597611D01*
X240822612Y-109606469D01*
X240816237Y-109614237D01*
X240803798Y-109624446D01*
X240793432Y-109631372D01*
X240776105Y-109648698D01*
X240762490Y-109669073D01*
X240753112Y-109691711D01*
X240748331Y-109715745D01*
X240748331Y-109740249D01*
X240753111Y-109764283D01*
X240762487Y-109786922D01*
X240776101Y-109807297D01*
X240793427Y-109824624D01*
X240803796Y-109831552D01*
X240816237Y-109841763D01*
X240822612Y-109849531D01*
X240827347Y-109858389D01*
X240830263Y-109868001D01*
X240831852Y-109884140D01*
X240831852Y-110371861D01*
X240830046Y-110390198D01*
X240829444Y-110402450D01*
X240829444Y-110420869D01*
X240827250Y-110443149D01*
X240810524Y-110527236D01*
X240804026Y-110548655D01*
X240771215Y-110627871D01*
X240760665Y-110647607D01*
X240713031Y-110718897D01*
X240698824Y-110736208D01*
X240638208Y-110796824D01*
X240620897Y-110811031D01*
X240549607Y-110858665D01*
X240529871Y-110869215D01*
X240450655Y-110902026D01*
X240429236Y-110908524D01*
X240345149Y-110925250D01*
X240322869Y-110927444D01*
X240304450Y-110927444D01*
X240292198Y-110928046D01*
X240273861Y-110929852D01*
X239786139Y-110929852D01*
X239767802Y-110928046D01*
X239755550Y-110927444D01*
X239737131Y-110927444D01*
X239714851Y-110925250D01*
X239630764Y-110908524D01*
X239609345Y-110902026D01*
X239530129Y-110869215D01*
X239510393Y-110858665D01*
X239439103Y-110811031D01*
X239421792Y-110796824D01*
X239361176Y-110736208D01*
X239346969Y-110718897D01*
X239299335Y-110647607D01*
X239288785Y-110627871D01*
X239255974Y-110548655D01*
X239249476Y-110527236D01*
X239232750Y-110443149D01*
X239230556Y-110420869D01*
X239230556Y-110402450D01*
X239229954Y-110390198D01*
X239228148Y-110371861D01*
X239228148Y-109884140D01*
X239229737Y-109868001D01*
X239232653Y-109858389D01*
X239237388Y-109849531D01*
X239243763Y-109841763D01*
X239256202Y-109831554D01*
X239266568Y-109824628D01*
X239283895Y-109807302D01*
X239297510Y-109786927D01*
X239306888Y-109764289D01*
X239311669Y-109740255D01*
X239311669Y-109715751D01*
X239306889Y-109691717D01*
X239297513Y-109669078D01*
X239283899Y-109648703D01*
X239266573Y-109631376D01*
X239256204Y-109624448D01*
X239243763Y-109614237D01*
X239237388Y-109606469D01*
X239232653Y-109597611D01*
X239229737Y-109587999D01*
X239228148Y-109571860D01*
X239228148Y-109084140D01*
X239229954Y-109065802D01*
X239230556Y-109053550D01*
X239230556Y-109035131D01*
X239232750Y-109012851D01*
X239249476Y-108928764D01*
X239255974Y-108907345D01*
X239288785Y-108828129D01*
X239299335Y-108808393D01*
X239346969Y-108737103D01*
X239361176Y-108719792D01*
X239421792Y-108659176D01*
X239439103Y-108644969D01*
X239510393Y-108597335D01*
X239530129Y-108586785D01*
X239609345Y-108553974D01*
X239630764Y-108547476D01*
X239714851Y-108530750D01*
X239737131Y-108528556D01*
X239755550Y-108528556D01*
X239767802Y-108527954D01*
X239786140Y-108526148D01*
X240273860Y-108526148D01*
X240292198Y-108527954D01*
X240292198Y-108527954D01*
G37*
G36*
X244553890Y-109190017D02*
X244672361Y-109239089D01*
X244778992Y-109310338D01*
X244869662Y-109401008D01*
X244869664Y-109401011D01*
X244869665Y-109401012D01*
X244924367Y-109482879D01*
X244940911Y-109507639D01*
X244989983Y-109626110D01*
X245015000Y-109751881D01*
X245015000Y-109880119D01*
X244989983Y-110005890D01*
X244940911Y-110124361D01*
X244869662Y-110230992D01*
X244778992Y-110321662D01*
X244778989Y-110321664D01*
X244778988Y-110321665D01*
X244694677Y-110378000D01*
X244672361Y-110392911D01*
X244553890Y-110441983D01*
X244428119Y-110467000D01*
X244299881Y-110467000D01*
X244174110Y-110441983D01*
X244055639Y-110392911D01*
X244033323Y-110378000D01*
X243949012Y-110321665D01*
X243949011Y-110321664D01*
X243949008Y-110321662D01*
X243858338Y-110230992D01*
X243787089Y-110124361D01*
X243738017Y-110005890D01*
X243713000Y-109880119D01*
X243713000Y-109751881D01*
X243738017Y-109626110D01*
X243787089Y-109507639D01*
X243803633Y-109482879D01*
X243858335Y-109401012D01*
X243858336Y-109401011D01*
X243858338Y-109401008D01*
X243949008Y-109310338D01*
X244055639Y-109239089D01*
X244174110Y-109190017D01*
X244299881Y-109165000D01*
X244428119Y-109165000D01*
X244553890Y-109190017D01*
X244553890Y-109190017D01*
G37*
G36*
X246553890Y-109190017D02*
X246672361Y-109239089D01*
X246778992Y-109310338D01*
X246869662Y-109401008D01*
X246869664Y-109401011D01*
X246869665Y-109401012D01*
X246924367Y-109482879D01*
X246940911Y-109507639D01*
X246989983Y-109626110D01*
X247015000Y-109751881D01*
X247015000Y-109880119D01*
X246989983Y-110005890D01*
X246940911Y-110124361D01*
X246869662Y-110230992D01*
X246778992Y-110321662D01*
X246778989Y-110321664D01*
X246778988Y-110321665D01*
X246694677Y-110378000D01*
X246672361Y-110392911D01*
X246553890Y-110441983D01*
X246428119Y-110467000D01*
X246299881Y-110467000D01*
X246174110Y-110441983D01*
X246055639Y-110392911D01*
X246033323Y-110378000D01*
X245949012Y-110321665D01*
X245949011Y-110321664D01*
X245949008Y-110321662D01*
X245858338Y-110230992D01*
X245787089Y-110124361D01*
X245738017Y-110005890D01*
X245713000Y-109880119D01*
X245713000Y-109751881D01*
X245738017Y-109626110D01*
X245787089Y-109507639D01*
X245803633Y-109482879D01*
X245858335Y-109401012D01*
X245858336Y-109401011D01*
X245858338Y-109401008D01*
X245949008Y-109310338D01*
X246055639Y-109239089D01*
X246174110Y-109190017D01*
X246299881Y-109165000D01*
X246428119Y-109165000D01*
X246553890Y-109190017D01*
X246553890Y-109190017D01*
G37*
G36*
X185119677Y-109106465D02*
X185157364Y-109117898D01*
X185192103Y-109136466D01*
X185222548Y-109161452D01*
X185247534Y-109191897D01*
X185266102Y-109226636D01*
X185277535Y-109264323D01*
X185282000Y-109309661D01*
X185282000Y-110146339D01*
X185277535Y-110191677D01*
X185266102Y-110229364D01*
X185247534Y-110264103D01*
X185222548Y-110294548D01*
X185192103Y-110319534D01*
X185157364Y-110338102D01*
X185119677Y-110349535D01*
X185074339Y-110354000D01*
X183987661Y-110354000D01*
X183942323Y-110349535D01*
X183904636Y-110338102D01*
X183869897Y-110319534D01*
X183839452Y-110294548D01*
X183814466Y-110264103D01*
X183795898Y-110229364D01*
X183784465Y-110191677D01*
X183780000Y-110146339D01*
X183780000Y-109309661D01*
X183784465Y-109264323D01*
X183795898Y-109226636D01*
X183814466Y-109191897D01*
X183839452Y-109161452D01*
X183869897Y-109136466D01*
X183904636Y-109117898D01*
X183942323Y-109106465D01*
X183987661Y-109102000D01*
X185074339Y-109102000D01*
X185119677Y-109106465D01*
X185119677Y-109106465D01*
G37*
G36*
X246553890Y-107190017D02*
X246672361Y-107239089D01*
X246778992Y-107310338D01*
X246869662Y-107401008D01*
X246869664Y-107401011D01*
X246869665Y-107401012D01*
X246893558Y-107436770D01*
X246940911Y-107507639D01*
X246989983Y-107626110D01*
X247015000Y-107751881D01*
X247015000Y-107880119D01*
X246989983Y-108005890D01*
X246940911Y-108124361D01*
X246869662Y-108230992D01*
X246778992Y-108321662D01*
X246672361Y-108392911D01*
X246553890Y-108441983D01*
X246428119Y-108467000D01*
X246299881Y-108467000D01*
X246174110Y-108441983D01*
X246055639Y-108392911D01*
X245949008Y-108321662D01*
X245858338Y-108230992D01*
X245787089Y-108124361D01*
X245738017Y-108005890D01*
X245713000Y-107880119D01*
X245713000Y-107751881D01*
X245738017Y-107626110D01*
X245787089Y-107507639D01*
X245834442Y-107436770D01*
X245858335Y-107401012D01*
X245858336Y-107401011D01*
X245858338Y-107401008D01*
X245949008Y-107310338D01*
X246055639Y-107239089D01*
X246174110Y-107190017D01*
X246299881Y-107165000D01*
X246428119Y-107165000D01*
X246553890Y-107190017D01*
X246553890Y-107190017D01*
G37*
G36*
X244553890Y-107190017D02*
X244672361Y-107239089D01*
X244778992Y-107310338D01*
X244869662Y-107401008D01*
X244869664Y-107401011D01*
X244869665Y-107401012D01*
X244893558Y-107436770D01*
X244940911Y-107507639D01*
X244989983Y-107626110D01*
X245015000Y-107751881D01*
X245015000Y-107880119D01*
X244989983Y-108005890D01*
X244940911Y-108124361D01*
X244869662Y-108230992D01*
X244778992Y-108321662D01*
X244672361Y-108392911D01*
X244553890Y-108441983D01*
X244428119Y-108467000D01*
X244299881Y-108467000D01*
X244174110Y-108441983D01*
X244055639Y-108392911D01*
X243949008Y-108321662D01*
X243858338Y-108230992D01*
X243787089Y-108124361D01*
X243738017Y-108005890D01*
X243713000Y-107880119D01*
X243713000Y-107751881D01*
X243738017Y-107626110D01*
X243787089Y-107507639D01*
X243834442Y-107436770D01*
X243858335Y-107401012D01*
X243858336Y-107401011D01*
X243858338Y-107401008D01*
X243949008Y-107310338D01*
X244055639Y-107239089D01*
X244174110Y-107190017D01*
X244299881Y-107165000D01*
X244428119Y-107165000D01*
X244553890Y-107190017D01*
X244553890Y-107190017D01*
G37*
G36*
X233207000Y-108239000D02*
X231105000Y-108239000D01*
X231105000Y-106137000D01*
X233207000Y-106137000D01*
X233207000Y-108239000D01*
X233207000Y-108239000D01*
G37*
G36*
X216443000Y-108239000D02*
X214341000Y-108239000D01*
X214341000Y-106137000D01*
X216443000Y-106137000D01*
X216443000Y-108239000D01*
X216443000Y-108239000D01*
G37*
G36*
X210310000Y-107559000D02*
X200808000Y-107559000D01*
X200808000Y-96657000D01*
X210310000Y-96657000D01*
X210310000Y-107559000D01*
X210310000Y-107559000D01*
G37*
G36*
X185119677Y-106194465D02*
X185157364Y-106205898D01*
X185192103Y-106224466D01*
X185222548Y-106249452D01*
X185247534Y-106279897D01*
X185266102Y-106314636D01*
X185277535Y-106352323D01*
X185282000Y-106397661D01*
X185282000Y-107234339D01*
X185277535Y-107279677D01*
X185266102Y-107317364D01*
X185247534Y-107352103D01*
X185222548Y-107382548D01*
X185192103Y-107407534D01*
X185157364Y-107426102D01*
X185119677Y-107437535D01*
X185074339Y-107442000D01*
X183987661Y-107442000D01*
X183942323Y-107437535D01*
X183904636Y-107426102D01*
X183869897Y-107407534D01*
X183839452Y-107382548D01*
X183814466Y-107352103D01*
X183795898Y-107317364D01*
X183784465Y-107279677D01*
X183780000Y-107234339D01*
X183780000Y-106397661D01*
X183784465Y-106352323D01*
X183795898Y-106314636D01*
X183814466Y-106279897D01*
X183839452Y-106249452D01*
X183869897Y-106224466D01*
X183904636Y-106205898D01*
X183942323Y-106194465D01*
X183987661Y-106190000D01*
X185074339Y-106190000D01*
X185119677Y-106194465D01*
X185119677Y-106194465D01*
G37*
G36*
X190090527Y-102506736D02*
X190190410Y-102526604D01*
X190472674Y-102643521D01*
X190726705Y-102813259D01*
X190942741Y-103029295D01*
X191112479Y-103283326D01*
X191193560Y-103479075D01*
X191229396Y-103565591D01*
X191289000Y-103865238D01*
X191289000Y-104170762D01*
X191279262Y-104219718D01*
X191229396Y-104470410D01*
X191112479Y-104752674D01*
X190942741Y-105006705D01*
X190726705Y-105222741D01*
X190472674Y-105392479D01*
X190190410Y-105509396D01*
X190090527Y-105529264D01*
X189890762Y-105569000D01*
X189585238Y-105569000D01*
X189385473Y-105529264D01*
X189285590Y-105509396D01*
X189003326Y-105392479D01*
X188749295Y-105222741D01*
X188533259Y-105006705D01*
X188363521Y-104752674D01*
X188246604Y-104470410D01*
X188196738Y-104219718D01*
X188187000Y-104170762D01*
X188187000Y-103865238D01*
X188246604Y-103565591D01*
X188282440Y-103479075D01*
X188363521Y-103283326D01*
X188533259Y-103029295D01*
X188749295Y-102813259D01*
X189003326Y-102643521D01*
X189285590Y-102526604D01*
X189385473Y-102506736D01*
X189585238Y-102467000D01*
X189890762Y-102467000D01*
X190090527Y-102506736D01*
X190090527Y-102506736D01*
G37*
G36*
X245699734Y-103209232D02*
X245909202Y-103295996D01*
X246097723Y-103421962D01*
X246258038Y-103582277D01*
X246384004Y-103770798D01*
X246470768Y-103980266D01*
X246515000Y-104202635D01*
X246515000Y-104429365D01*
X246470768Y-104651734D01*
X246384004Y-104861202D01*
X246258038Y-105049723D01*
X246097723Y-105210038D01*
X245909202Y-105336004D01*
X245699734Y-105422768D01*
X245477365Y-105467000D01*
X245250635Y-105467000D01*
X245028266Y-105422768D01*
X244818798Y-105336004D01*
X244630277Y-105210038D01*
X244469962Y-105049723D01*
X244343996Y-104861202D01*
X244257232Y-104651734D01*
X244213000Y-104429365D01*
X244213000Y-104202635D01*
X244257232Y-103980266D01*
X244343996Y-103770798D01*
X244469962Y-103582277D01*
X244630277Y-103421962D01*
X244818798Y-103295996D01*
X245028266Y-103209232D01*
X245250635Y-103165000D01*
X245477365Y-103165000D01*
X245699734Y-103209232D01*
X245699734Y-103209232D01*
G37*
G36*
X185119677Y-104144465D02*
X185157364Y-104155898D01*
X185192103Y-104174466D01*
X185222548Y-104199452D01*
X185247534Y-104229897D01*
X185266102Y-104264636D01*
X185277535Y-104302323D01*
X185282000Y-104347661D01*
X185282000Y-105184339D01*
X185277535Y-105229677D01*
X185266102Y-105267364D01*
X185247534Y-105302103D01*
X185222548Y-105332548D01*
X185192103Y-105357534D01*
X185157364Y-105376102D01*
X185119677Y-105387535D01*
X185074339Y-105392000D01*
X183987661Y-105392000D01*
X183942323Y-105387535D01*
X183904636Y-105376102D01*
X183869897Y-105357534D01*
X183839452Y-105332548D01*
X183814466Y-105302103D01*
X183795898Y-105267364D01*
X183784465Y-105229677D01*
X183780000Y-105184339D01*
X183780000Y-104347661D01*
X183784465Y-104302323D01*
X183795898Y-104264636D01*
X183814466Y-104229897D01*
X183839452Y-104199452D01*
X183869897Y-104174466D01*
X183904636Y-104155898D01*
X183942323Y-104144465D01*
X183987661Y-104140000D01*
X185074339Y-104140000D01*
X185119677Y-104144465D01*
X185119677Y-104144465D01*
G37*
G36*
X198760000Y-105249000D02*
X194058000Y-105249000D01*
X194058000Y-104047000D01*
X198760000Y-104047000D01*
X198760000Y-105249000D01*
X198760000Y-105249000D01*
G37*
G36*
X225886677Y-103264465D02*
X225924364Y-103275898D01*
X225959103Y-103294466D01*
X225989548Y-103319452D01*
X226014534Y-103349897D01*
X226033102Y-103384636D01*
X226044535Y-103422323D01*
X226049000Y-103467661D01*
X226049000Y-104304339D01*
X226044535Y-104349677D01*
X226033102Y-104387364D01*
X226014534Y-104422103D01*
X225989548Y-104452548D01*
X225959103Y-104477534D01*
X225924364Y-104496102D01*
X225886677Y-104507535D01*
X225841339Y-104512000D01*
X224754661Y-104512000D01*
X224709323Y-104507535D01*
X224671636Y-104496102D01*
X224636897Y-104477534D01*
X224606452Y-104452548D01*
X224581466Y-104422103D01*
X224562898Y-104387364D01*
X224551465Y-104349677D01*
X224547000Y-104304339D01*
X224547000Y-103467661D01*
X224551465Y-103422323D01*
X224562898Y-103384636D01*
X224581466Y-103349897D01*
X224606452Y-103319452D01*
X224636897Y-103294466D01*
X224671636Y-103275898D01*
X224709323Y-103264465D01*
X224754661Y-103260000D01*
X225841339Y-103260000D01*
X225886677Y-103264465D01*
X225886677Y-103264465D01*
G37*
G36*
X233506677Y-103264465D02*
X233544364Y-103275898D01*
X233579103Y-103294466D01*
X233609548Y-103319452D01*
X233634534Y-103349897D01*
X233653102Y-103384636D01*
X233664535Y-103422323D01*
X233669000Y-103467661D01*
X233669000Y-104304339D01*
X233664535Y-104349677D01*
X233653102Y-104387364D01*
X233634534Y-104422103D01*
X233609548Y-104452548D01*
X233579103Y-104477534D01*
X233544364Y-104496102D01*
X233506677Y-104507535D01*
X233461339Y-104512000D01*
X232374661Y-104512000D01*
X232329323Y-104507535D01*
X232291636Y-104496102D01*
X232256897Y-104477534D01*
X232226452Y-104452548D01*
X232201466Y-104422103D01*
X232182898Y-104387364D01*
X232171465Y-104349677D01*
X232167000Y-104304339D01*
X232167000Y-103467661D01*
X232171465Y-103422323D01*
X232182898Y-103384636D01*
X232201466Y-103349897D01*
X232226452Y-103319452D01*
X232256897Y-103294466D01*
X232291636Y-103275898D01*
X232329323Y-103264465D01*
X232374661Y-103260000D01*
X233461339Y-103260000D01*
X233506677Y-103264465D01*
X233506677Y-103264465D01*
G37*
G36*
X237316677Y-103264465D02*
X237354364Y-103275898D01*
X237389103Y-103294466D01*
X237419548Y-103319452D01*
X237444534Y-103349897D01*
X237463102Y-103384636D01*
X237474535Y-103422323D01*
X237479000Y-103467661D01*
X237479000Y-104304339D01*
X237474535Y-104349677D01*
X237463102Y-104387364D01*
X237444534Y-104422103D01*
X237419548Y-104452548D01*
X237389103Y-104477534D01*
X237354364Y-104496102D01*
X237316677Y-104507535D01*
X237271339Y-104512000D01*
X236184661Y-104512000D01*
X236139323Y-104507535D01*
X236101636Y-104496102D01*
X236066897Y-104477534D01*
X236036452Y-104452548D01*
X236011466Y-104422103D01*
X235992898Y-104387364D01*
X235981465Y-104349677D01*
X235977000Y-104304339D01*
X235977000Y-103467661D01*
X235981465Y-103422323D01*
X235992898Y-103384636D01*
X236011466Y-103349897D01*
X236036452Y-103319452D01*
X236066897Y-103294466D01*
X236101636Y-103275898D01*
X236139323Y-103264465D01*
X236184661Y-103260000D01*
X237271339Y-103260000D01*
X237316677Y-103264465D01*
X237316677Y-103264465D01*
G37*
G36*
X229696677Y-103264465D02*
X229734364Y-103275898D01*
X229769103Y-103294466D01*
X229799548Y-103319452D01*
X229824534Y-103349897D01*
X229843102Y-103384636D01*
X229854535Y-103422323D01*
X229859000Y-103467661D01*
X229859000Y-104304339D01*
X229854535Y-104349677D01*
X229843102Y-104387364D01*
X229824534Y-104422103D01*
X229799548Y-104452548D01*
X229769103Y-104477534D01*
X229734364Y-104496102D01*
X229696677Y-104507535D01*
X229651339Y-104512000D01*
X228564661Y-104512000D01*
X228519323Y-104507535D01*
X228481636Y-104496102D01*
X228446897Y-104477534D01*
X228416452Y-104452548D01*
X228391466Y-104422103D01*
X228372898Y-104387364D01*
X228361465Y-104349677D01*
X228357000Y-104304339D01*
X228357000Y-103467661D01*
X228361465Y-103422323D01*
X228372898Y-103384636D01*
X228391466Y-103349897D01*
X228416452Y-103319452D01*
X228446897Y-103294466D01*
X228481636Y-103275898D01*
X228519323Y-103264465D01*
X228564661Y-103260000D01*
X229651339Y-103260000D01*
X229696677Y-103264465D01*
X229696677Y-103264465D01*
G37*
G36*
X198760000Y-102709000D02*
X194058000Y-102709000D01*
X194058000Y-101507000D01*
X198760000Y-101507000D01*
X198760000Y-102709000D01*
X198760000Y-102709000D01*
G37*
G36*
X233506677Y-101214465D02*
X233544364Y-101225898D01*
X233579103Y-101244466D01*
X233609548Y-101269452D01*
X233634534Y-101299897D01*
X233653102Y-101334636D01*
X233664535Y-101372323D01*
X233669000Y-101417661D01*
X233669000Y-102254339D01*
X233664535Y-102299677D01*
X233653102Y-102337364D01*
X233634534Y-102372103D01*
X233609548Y-102402548D01*
X233579103Y-102427534D01*
X233544364Y-102446102D01*
X233506677Y-102457535D01*
X233461339Y-102462000D01*
X232374661Y-102462000D01*
X232329323Y-102457535D01*
X232291636Y-102446102D01*
X232256897Y-102427534D01*
X232226452Y-102402548D01*
X232201466Y-102372103D01*
X232182898Y-102337364D01*
X232171465Y-102299677D01*
X232167000Y-102254339D01*
X232167000Y-101417661D01*
X232171465Y-101372323D01*
X232182898Y-101334636D01*
X232201466Y-101299897D01*
X232226452Y-101269452D01*
X232256897Y-101244466D01*
X232291636Y-101225898D01*
X232329323Y-101214465D01*
X232374661Y-101210000D01*
X233461339Y-101210000D01*
X233506677Y-101214465D01*
X233506677Y-101214465D01*
G37*
G36*
X229696677Y-101214465D02*
X229734364Y-101225898D01*
X229769103Y-101244466D01*
X229799548Y-101269452D01*
X229824534Y-101299897D01*
X229843102Y-101334636D01*
X229854535Y-101372323D01*
X229859000Y-101417661D01*
X229859000Y-102254339D01*
X229854535Y-102299677D01*
X229843102Y-102337364D01*
X229824534Y-102372103D01*
X229799548Y-102402548D01*
X229769103Y-102427534D01*
X229734364Y-102446102D01*
X229696677Y-102457535D01*
X229651339Y-102462000D01*
X228564661Y-102462000D01*
X228519323Y-102457535D01*
X228481636Y-102446102D01*
X228446897Y-102427534D01*
X228416452Y-102402548D01*
X228391466Y-102372103D01*
X228372898Y-102337364D01*
X228361465Y-102299677D01*
X228357000Y-102254339D01*
X228357000Y-101417661D01*
X228361465Y-101372323D01*
X228372898Y-101334636D01*
X228391466Y-101299897D01*
X228416452Y-101269452D01*
X228446897Y-101244466D01*
X228481636Y-101225898D01*
X228519323Y-101214465D01*
X228564661Y-101210000D01*
X229651339Y-101210000D01*
X229696677Y-101214465D01*
X229696677Y-101214465D01*
G37*
G36*
X225886677Y-101214465D02*
X225924364Y-101225898D01*
X225959103Y-101244466D01*
X225989548Y-101269452D01*
X226014534Y-101299897D01*
X226033102Y-101334636D01*
X226044535Y-101372323D01*
X226049000Y-101417661D01*
X226049000Y-102254339D01*
X226044535Y-102299677D01*
X226033102Y-102337364D01*
X226014534Y-102372103D01*
X225989548Y-102402548D01*
X225959103Y-102427534D01*
X225924364Y-102446102D01*
X225886677Y-102457535D01*
X225841339Y-102462000D01*
X224754661Y-102462000D01*
X224709323Y-102457535D01*
X224671636Y-102446102D01*
X224636897Y-102427534D01*
X224606452Y-102402548D01*
X224581466Y-102372103D01*
X224562898Y-102337364D01*
X224551465Y-102299677D01*
X224547000Y-102254339D01*
X224547000Y-101417661D01*
X224551465Y-101372323D01*
X224562898Y-101334636D01*
X224581466Y-101299897D01*
X224606452Y-101269452D01*
X224636897Y-101244466D01*
X224671636Y-101225898D01*
X224709323Y-101214465D01*
X224754661Y-101210000D01*
X225841339Y-101210000D01*
X225886677Y-101214465D01*
X225886677Y-101214465D01*
G37*
G36*
X237316677Y-101214465D02*
X237354364Y-101225898D01*
X237389103Y-101244466D01*
X237419548Y-101269452D01*
X237444534Y-101299897D01*
X237463102Y-101334636D01*
X237474535Y-101372323D01*
X237479000Y-101417661D01*
X237479000Y-102254339D01*
X237474535Y-102299677D01*
X237463102Y-102337364D01*
X237444534Y-102372103D01*
X237419548Y-102402548D01*
X237389103Y-102427534D01*
X237354364Y-102446102D01*
X237316677Y-102457535D01*
X237271339Y-102462000D01*
X236184661Y-102462000D01*
X236139323Y-102457535D01*
X236101636Y-102446102D01*
X236066897Y-102427534D01*
X236036452Y-102402548D01*
X236011466Y-102372103D01*
X235992898Y-102337364D01*
X235981465Y-102299677D01*
X235977000Y-102254339D01*
X235977000Y-101417661D01*
X235981465Y-101372323D01*
X235992898Y-101334636D01*
X236011466Y-101299897D01*
X236036452Y-101269452D01*
X236066897Y-101244466D01*
X236101636Y-101225898D01*
X236139323Y-101214465D01*
X236184661Y-101210000D01*
X237271339Y-101210000D01*
X237316677Y-101214465D01*
X237316677Y-101214465D01*
G37*
G36*
X218903677Y-100853465D02*
X218941364Y-100864898D01*
X218976103Y-100883466D01*
X219006548Y-100908452D01*
X219031534Y-100938897D01*
X219050102Y-100973636D01*
X219061535Y-101011323D01*
X219066000Y-101056661D01*
X219066000Y-102143339D01*
X219061535Y-102188677D01*
X219050102Y-102226364D01*
X219031534Y-102261103D01*
X219006548Y-102291548D01*
X218976103Y-102316534D01*
X218941364Y-102335102D01*
X218903677Y-102346535D01*
X218858339Y-102351000D01*
X218021661Y-102351000D01*
X217976323Y-102346535D01*
X217938636Y-102335102D01*
X217903897Y-102316534D01*
X217873452Y-102291548D01*
X217848466Y-102261103D01*
X217829898Y-102226364D01*
X217818465Y-102188677D01*
X217814000Y-102143339D01*
X217814000Y-101056661D01*
X217818465Y-101011323D01*
X217829898Y-100973636D01*
X217848466Y-100938897D01*
X217873452Y-100908452D01*
X217903897Y-100883466D01*
X217938636Y-100864898D01*
X217976323Y-100853465D01*
X218021661Y-100849000D01*
X218858339Y-100849000D01*
X218903677Y-100853465D01*
X218903677Y-100853465D01*
G37*
G36*
X216853677Y-100853465D02*
X216891364Y-100864898D01*
X216926103Y-100883466D01*
X216956548Y-100908452D01*
X216981534Y-100938897D01*
X217000102Y-100973636D01*
X217011535Y-101011323D01*
X217016000Y-101056661D01*
X217016000Y-102143339D01*
X217011535Y-102188677D01*
X217000102Y-102226364D01*
X216981534Y-102261103D01*
X216956548Y-102291548D01*
X216926103Y-102316534D01*
X216891364Y-102335102D01*
X216853677Y-102346535D01*
X216808339Y-102351000D01*
X215971661Y-102351000D01*
X215926323Y-102346535D01*
X215888636Y-102335102D01*
X215853897Y-102316534D01*
X215823452Y-102291548D01*
X215798466Y-102261103D01*
X215779898Y-102226364D01*
X215768465Y-102188677D01*
X215764000Y-102143339D01*
X215764000Y-101056661D01*
X215768465Y-101011323D01*
X215779898Y-100973636D01*
X215798466Y-100938897D01*
X215823452Y-100908452D01*
X215853897Y-100883466D01*
X215888636Y-100864898D01*
X215926323Y-100853465D01*
X215971661Y-100849000D01*
X216808339Y-100849000D01*
X216853677Y-100853465D01*
X216853677Y-100853465D01*
G37*
G36*
X198760000Y-100169000D02*
X194058000Y-100169000D01*
X194058000Y-98967000D01*
X198760000Y-98967000D01*
X198760000Y-100169000D01*
X198760000Y-100169000D01*
G37*
G36*
X245699734Y-97269232D02*
X245909202Y-97355996D01*
X246097723Y-97481962D01*
X246258038Y-97642277D01*
X246384004Y-97830798D01*
X246470768Y-98040266D01*
X246515000Y-98262635D01*
X246515000Y-98489365D01*
X246470768Y-98711734D01*
X246384004Y-98921202D01*
X246258038Y-99109723D01*
X246097723Y-99270038D01*
X245909202Y-99396004D01*
X245699734Y-99482768D01*
X245477365Y-99527000D01*
X245250635Y-99527000D01*
X245028266Y-99482768D01*
X244818798Y-99396004D01*
X244630277Y-99270038D01*
X244469962Y-99109723D01*
X244343996Y-98921202D01*
X244257232Y-98711734D01*
X244213000Y-98489365D01*
X244213000Y-98262635D01*
X244257232Y-98040266D01*
X244343996Y-97830798D01*
X244469962Y-97642277D01*
X244630277Y-97481962D01*
X244818798Y-97355996D01*
X245028266Y-97269232D01*
X245250635Y-97225000D01*
X245477365Y-97225000D01*
X245699734Y-97269232D01*
X245699734Y-97269232D01*
G37*
G36*
X217394000Y-98522000D02*
X216692000Y-98522000D01*
X216692000Y-96870000D01*
X217394000Y-96870000D01*
X217394000Y-98522000D01*
X217394000Y-98522000D01*
G37*
G36*
X216124000Y-98522000D02*
X215422000Y-98522000D01*
X215422000Y-96870000D01*
X216124000Y-96870000D01*
X216124000Y-98522000D01*
X216124000Y-98522000D01*
G37*
G36*
X218664000Y-98522000D02*
X217962000Y-98522000D01*
X217962000Y-96870000D01*
X218664000Y-96870000D01*
X218664000Y-98522000D01*
X218664000Y-98522000D01*
G37*
G36*
X214854000Y-98522000D02*
X214152000Y-98522000D01*
X214152000Y-96870000D01*
X214854000Y-96870000D01*
X214854000Y-98522000D01*
X214854000Y-98522000D01*
G37*
G36*
X222039000Y-96797000D02*
X220937000Y-96797000D01*
X220937000Y-95695000D01*
X222039000Y-95695000D01*
X222039000Y-96797000D01*
X222039000Y-96797000D01*
G37*
G36*
X233506677Y-95426465D02*
X233544364Y-95437898D01*
X233579103Y-95456466D01*
X233609548Y-95481452D01*
X233634534Y-95511897D01*
X233653102Y-95546636D01*
X233664535Y-95584323D01*
X233669000Y-95629661D01*
X233669000Y-96466339D01*
X233664535Y-96511677D01*
X233653102Y-96549364D01*
X233634534Y-96584103D01*
X233609548Y-96614548D01*
X233579103Y-96639534D01*
X233544364Y-96658102D01*
X233506677Y-96669535D01*
X233461339Y-96674000D01*
X232374661Y-96674000D01*
X232329323Y-96669535D01*
X232291636Y-96658102D01*
X232256897Y-96639534D01*
X232226452Y-96614548D01*
X232201466Y-96584103D01*
X232182898Y-96549364D01*
X232171465Y-96511677D01*
X232167000Y-96466339D01*
X232167000Y-95629661D01*
X232171465Y-95584323D01*
X232182898Y-95546636D01*
X232201466Y-95511897D01*
X232226452Y-95481452D01*
X232256897Y-95456466D01*
X232291636Y-95437898D01*
X232329323Y-95426465D01*
X232374661Y-95422000D01*
X233461339Y-95422000D01*
X233506677Y-95426465D01*
X233506677Y-95426465D01*
G37*
G36*
X229696677Y-95426465D02*
X229734364Y-95437898D01*
X229769103Y-95456466D01*
X229799548Y-95481452D01*
X229824534Y-95511897D01*
X229843102Y-95546636D01*
X229854535Y-95584323D01*
X229859000Y-95629661D01*
X229859000Y-96466339D01*
X229854535Y-96511677D01*
X229843102Y-96549364D01*
X229824534Y-96584103D01*
X229799548Y-96614548D01*
X229769103Y-96639534D01*
X229734364Y-96658102D01*
X229696677Y-96669535D01*
X229651339Y-96674000D01*
X228564661Y-96674000D01*
X228519323Y-96669535D01*
X228481636Y-96658102D01*
X228446897Y-96639534D01*
X228416452Y-96614548D01*
X228391466Y-96584103D01*
X228372898Y-96549364D01*
X228361465Y-96511677D01*
X228357000Y-96466339D01*
X228357000Y-95629661D01*
X228361465Y-95584323D01*
X228372898Y-95546636D01*
X228391466Y-95511897D01*
X228416452Y-95481452D01*
X228446897Y-95456466D01*
X228481636Y-95437898D01*
X228519323Y-95426465D01*
X228564661Y-95422000D01*
X229651339Y-95422000D01*
X229696677Y-95426465D01*
X229696677Y-95426465D01*
G37*
G36*
X225886677Y-95426465D02*
X225924364Y-95437898D01*
X225959103Y-95456466D01*
X225989548Y-95481452D01*
X226014534Y-95511897D01*
X226033102Y-95546636D01*
X226044535Y-95584323D01*
X226049000Y-95629661D01*
X226049000Y-96466339D01*
X226044535Y-96511677D01*
X226033102Y-96549364D01*
X226014534Y-96584103D01*
X225989548Y-96614548D01*
X225959103Y-96639534D01*
X225924364Y-96658102D01*
X225886677Y-96669535D01*
X225841339Y-96674000D01*
X224754661Y-96674000D01*
X224709323Y-96669535D01*
X224671636Y-96658102D01*
X224636897Y-96639534D01*
X224606452Y-96614548D01*
X224581466Y-96584103D01*
X224562898Y-96549364D01*
X224551465Y-96511677D01*
X224547000Y-96466339D01*
X224547000Y-95629661D01*
X224551465Y-95584323D01*
X224562898Y-95546636D01*
X224581466Y-95511897D01*
X224606452Y-95481452D01*
X224636897Y-95456466D01*
X224671636Y-95437898D01*
X224709323Y-95426465D01*
X224754661Y-95422000D01*
X225841339Y-95422000D01*
X225886677Y-95426465D01*
X225886677Y-95426465D01*
G37*
G36*
X237316677Y-95426465D02*
X237354364Y-95437898D01*
X237389103Y-95456466D01*
X237419548Y-95481452D01*
X237444534Y-95511897D01*
X237463102Y-95546636D01*
X237474535Y-95584323D01*
X237479000Y-95629661D01*
X237479000Y-96466339D01*
X237474535Y-96511677D01*
X237463102Y-96549364D01*
X237444534Y-96584103D01*
X237419548Y-96614548D01*
X237389103Y-96639534D01*
X237354364Y-96658102D01*
X237316677Y-96669535D01*
X237271339Y-96674000D01*
X236184661Y-96674000D01*
X236139323Y-96669535D01*
X236101636Y-96658102D01*
X236066897Y-96639534D01*
X236036452Y-96614548D01*
X236011466Y-96584103D01*
X235992898Y-96549364D01*
X235981465Y-96511677D01*
X235977000Y-96466339D01*
X235977000Y-95629661D01*
X235981465Y-95584323D01*
X235992898Y-95546636D01*
X236011466Y-95511897D01*
X236036452Y-95481452D01*
X236066897Y-95456466D01*
X236101636Y-95437898D01*
X236139323Y-95426465D01*
X236184661Y-95422000D01*
X237271339Y-95422000D01*
X237316677Y-95426465D01*
X237316677Y-95426465D01*
G37*
G36*
X191043000Y-96563000D02*
X188941000Y-96563000D01*
X188941000Y-95461000D01*
X191043000Y-95461000D01*
X191043000Y-96563000D01*
X191043000Y-96563000D01*
G37*
G36*
X197845643Y-94533781D02*
X197991415Y-94594162D01*
X198122611Y-94681824D01*
X198234176Y-94793389D01*
X198321838Y-94924585D01*
X198382219Y-95070357D01*
X198413000Y-95225107D01*
X198413000Y-95382893D01*
X198382219Y-95537643D01*
X198321838Y-95683415D01*
X198234176Y-95814611D01*
X198122611Y-95926176D01*
X197991415Y-96013838D01*
X197845643Y-96074219D01*
X197690893Y-96105000D01*
X197533107Y-96105000D01*
X197378357Y-96074219D01*
X197232585Y-96013838D01*
X197101389Y-95926176D01*
X196989824Y-95814611D01*
X196902162Y-95683415D01*
X196841781Y-95537643D01*
X196811000Y-95382893D01*
X196811000Y-95225107D01*
X196841781Y-95070357D01*
X196902162Y-94924585D01*
X196989824Y-94793389D01*
X197101389Y-94681824D01*
X197232585Y-94594162D01*
X197378357Y-94533781D01*
X197533107Y-94503000D01*
X197690893Y-94503000D01*
X197845643Y-94533781D01*
X197845643Y-94533781D01*
G37*
G36*
X244553890Y-94250017D02*
X244672361Y-94299089D01*
X244778992Y-94370338D01*
X244869662Y-94461008D01*
X244869664Y-94461011D01*
X244869665Y-94461012D01*
X244897746Y-94503038D01*
X244940911Y-94567639D01*
X244989983Y-94686110D01*
X245015000Y-94811881D01*
X245015000Y-94940119D01*
X244989983Y-95065890D01*
X244940911Y-95184361D01*
X244869662Y-95290992D01*
X244778992Y-95381662D01*
X244778989Y-95381664D01*
X244778988Y-95381665D01*
X244687616Y-95442718D01*
X244672361Y-95452911D01*
X244553890Y-95501983D01*
X244428119Y-95527000D01*
X244299881Y-95527000D01*
X244174110Y-95501983D01*
X244055639Y-95452911D01*
X244040384Y-95442718D01*
X243949012Y-95381665D01*
X243949011Y-95381664D01*
X243949008Y-95381662D01*
X243858338Y-95290992D01*
X243787089Y-95184361D01*
X243738017Y-95065890D01*
X243713000Y-94940119D01*
X243713000Y-94811881D01*
X243738017Y-94686110D01*
X243787089Y-94567639D01*
X243830254Y-94503038D01*
X243858335Y-94461012D01*
X243858336Y-94461011D01*
X243858338Y-94461008D01*
X243949008Y-94370338D01*
X244055639Y-94299089D01*
X244174110Y-94250017D01*
X244299881Y-94225000D01*
X244428119Y-94225000D01*
X244553890Y-94250017D01*
X244553890Y-94250017D01*
G37*
G36*
X247015000Y-95527000D02*
X245713000Y-95527000D01*
X245713000Y-94225000D01*
X247015000Y-94225000D01*
X247015000Y-95527000D01*
X247015000Y-95527000D01*
G37*
G36*
X225886677Y-93376465D02*
X225924364Y-93387898D01*
X225959103Y-93406466D01*
X225989548Y-93431452D01*
X226014534Y-93461897D01*
X226033102Y-93496636D01*
X226044535Y-93534323D01*
X226049000Y-93579661D01*
X226049000Y-94416339D01*
X226044535Y-94461677D01*
X226033102Y-94499364D01*
X226014534Y-94534103D01*
X225989548Y-94564548D01*
X225959103Y-94589534D01*
X225924364Y-94608102D01*
X225886677Y-94619535D01*
X225841339Y-94624000D01*
X224754661Y-94624000D01*
X224709323Y-94619535D01*
X224671636Y-94608102D01*
X224636897Y-94589534D01*
X224606452Y-94564548D01*
X224581466Y-94534103D01*
X224562898Y-94499364D01*
X224551465Y-94461677D01*
X224547000Y-94416339D01*
X224547000Y-93579661D01*
X224551465Y-93534323D01*
X224562898Y-93496636D01*
X224581466Y-93461897D01*
X224606452Y-93431452D01*
X224636897Y-93406466D01*
X224671636Y-93387898D01*
X224709323Y-93376465D01*
X224754661Y-93372000D01*
X225841339Y-93372000D01*
X225886677Y-93376465D01*
X225886677Y-93376465D01*
G37*
G36*
X229696677Y-93376465D02*
X229734364Y-93387898D01*
X229769103Y-93406466D01*
X229799548Y-93431452D01*
X229824534Y-93461897D01*
X229843102Y-93496636D01*
X229854535Y-93534323D01*
X229859000Y-93579661D01*
X229859000Y-94416339D01*
X229854535Y-94461677D01*
X229843102Y-94499364D01*
X229824534Y-94534103D01*
X229799548Y-94564548D01*
X229769103Y-94589534D01*
X229734364Y-94608102D01*
X229696677Y-94619535D01*
X229651339Y-94624000D01*
X228564661Y-94624000D01*
X228519323Y-94619535D01*
X228481636Y-94608102D01*
X228446897Y-94589534D01*
X228416452Y-94564548D01*
X228391466Y-94534103D01*
X228372898Y-94499364D01*
X228361465Y-94461677D01*
X228357000Y-94416339D01*
X228357000Y-93579661D01*
X228361465Y-93534323D01*
X228372898Y-93496636D01*
X228391466Y-93461897D01*
X228416452Y-93431452D01*
X228446897Y-93406466D01*
X228481636Y-93387898D01*
X228519323Y-93376465D01*
X228564661Y-93372000D01*
X229651339Y-93372000D01*
X229696677Y-93376465D01*
X229696677Y-93376465D01*
G37*
G36*
X237316677Y-93376465D02*
X237354364Y-93387898D01*
X237389103Y-93406466D01*
X237419548Y-93431452D01*
X237444534Y-93461897D01*
X237463102Y-93496636D01*
X237474535Y-93534323D01*
X237479000Y-93579661D01*
X237479000Y-94416339D01*
X237474535Y-94461677D01*
X237463102Y-94499364D01*
X237444534Y-94534103D01*
X237419548Y-94564548D01*
X237389103Y-94589534D01*
X237354364Y-94608102D01*
X237316677Y-94619535D01*
X237271339Y-94624000D01*
X236184661Y-94624000D01*
X236139323Y-94619535D01*
X236101636Y-94608102D01*
X236066897Y-94589534D01*
X236036452Y-94564548D01*
X236011466Y-94534103D01*
X235992898Y-94499364D01*
X235981465Y-94461677D01*
X235977000Y-94416339D01*
X235977000Y-93579661D01*
X235981465Y-93534323D01*
X235992898Y-93496636D01*
X236011466Y-93461897D01*
X236036452Y-93431452D01*
X236066897Y-93406466D01*
X236101636Y-93387898D01*
X236139323Y-93376465D01*
X236184661Y-93372000D01*
X237271339Y-93372000D01*
X237316677Y-93376465D01*
X237316677Y-93376465D01*
G37*
G36*
X233506677Y-93376465D02*
X233544364Y-93387898D01*
X233579103Y-93406466D01*
X233609548Y-93431452D01*
X233634534Y-93461897D01*
X233653102Y-93496636D01*
X233664535Y-93534323D01*
X233669000Y-93579661D01*
X233669000Y-94416339D01*
X233664535Y-94461677D01*
X233653102Y-94499364D01*
X233634534Y-94534103D01*
X233609548Y-94564548D01*
X233579103Y-94589534D01*
X233544364Y-94608102D01*
X233506677Y-94619535D01*
X233461339Y-94624000D01*
X232374661Y-94624000D01*
X232329323Y-94619535D01*
X232291636Y-94608102D01*
X232256897Y-94589534D01*
X232226452Y-94564548D01*
X232201466Y-94534103D01*
X232182898Y-94499364D01*
X232171465Y-94461677D01*
X232167000Y-94416339D01*
X232167000Y-93579661D01*
X232171465Y-93534323D01*
X232182898Y-93496636D01*
X232201466Y-93461897D01*
X232226452Y-93431452D01*
X232256897Y-93406466D01*
X232291636Y-93387898D01*
X232329323Y-93376465D01*
X232374661Y-93372000D01*
X233461339Y-93372000D01*
X233506677Y-93376465D01*
X233506677Y-93376465D01*
G37*
G36*
X222039000Y-94297000D02*
X220937000Y-94297000D01*
X220937000Y-93195000D01*
X222039000Y-93195000D01*
X222039000Y-94297000D01*
X222039000Y-94297000D01*
G37*
G36*
X240292198Y-91763954D02*
X240304450Y-91764556D01*
X240322869Y-91764556D01*
X240345149Y-91766750D01*
X240429236Y-91783476D01*
X240450655Y-91789974D01*
X240529871Y-91822785D01*
X240549607Y-91833335D01*
X240620897Y-91880969D01*
X240638208Y-91895176D01*
X240698824Y-91955792D01*
X240713031Y-91973103D01*
X240760665Y-92044393D01*
X240771215Y-92064129D01*
X240804026Y-92143345D01*
X240810524Y-92164764D01*
X240827250Y-92248851D01*
X240829444Y-92271131D01*
X240829444Y-92289550D01*
X240830046Y-92301802D01*
X240831852Y-92320140D01*
X240831852Y-92807860D01*
X240830263Y-92823999D01*
X240827347Y-92833611D01*
X240822612Y-92842469D01*
X240816237Y-92850237D01*
X240803798Y-92860446D01*
X240793432Y-92867372D01*
X240776105Y-92884698D01*
X240762490Y-92905073D01*
X240753112Y-92927711D01*
X240748331Y-92951745D01*
X240748331Y-92976249D01*
X240753111Y-93000283D01*
X240762487Y-93022922D01*
X240776101Y-93043297D01*
X240793427Y-93060624D01*
X240803796Y-93067552D01*
X240816237Y-93077763D01*
X240822612Y-93085531D01*
X240827347Y-93094389D01*
X240830263Y-93104001D01*
X240831852Y-93120140D01*
X240831852Y-93607861D01*
X240830046Y-93626198D01*
X240829444Y-93638450D01*
X240829444Y-93656869D01*
X240827250Y-93679149D01*
X240810524Y-93763236D01*
X240804026Y-93784655D01*
X240771215Y-93863871D01*
X240760665Y-93883607D01*
X240713031Y-93954897D01*
X240698824Y-93972208D01*
X240638208Y-94032824D01*
X240620897Y-94047031D01*
X240549607Y-94094665D01*
X240529871Y-94105215D01*
X240450655Y-94138026D01*
X240429236Y-94144524D01*
X240345149Y-94161250D01*
X240322869Y-94163444D01*
X240304450Y-94163444D01*
X240292198Y-94164046D01*
X240273861Y-94165852D01*
X239786139Y-94165852D01*
X239767802Y-94164046D01*
X239755550Y-94163444D01*
X239737131Y-94163444D01*
X239714851Y-94161250D01*
X239630764Y-94144524D01*
X239609345Y-94138026D01*
X239530129Y-94105215D01*
X239510393Y-94094665D01*
X239439103Y-94047031D01*
X239421792Y-94032824D01*
X239361176Y-93972208D01*
X239346969Y-93954897D01*
X239299335Y-93883607D01*
X239288785Y-93863871D01*
X239255974Y-93784655D01*
X239249476Y-93763236D01*
X239232750Y-93679149D01*
X239230556Y-93656869D01*
X239230556Y-93638450D01*
X239229954Y-93626198D01*
X239228148Y-93607861D01*
X239228148Y-93120140D01*
X239229737Y-93104001D01*
X239232653Y-93094389D01*
X239237388Y-93085531D01*
X239243763Y-93077763D01*
X239256202Y-93067554D01*
X239266568Y-93060628D01*
X239283895Y-93043302D01*
X239297510Y-93022927D01*
X239306888Y-93000289D01*
X239311669Y-92976255D01*
X239311669Y-92951751D01*
X239306889Y-92927717D01*
X239297513Y-92905078D01*
X239283899Y-92884703D01*
X239266573Y-92867376D01*
X239256204Y-92860448D01*
X239243763Y-92850237D01*
X239237388Y-92842469D01*
X239232653Y-92833611D01*
X239229737Y-92823999D01*
X239228148Y-92807860D01*
X239228148Y-92320140D01*
X239229954Y-92301802D01*
X239230556Y-92289550D01*
X239230556Y-92271131D01*
X239232750Y-92248851D01*
X239249476Y-92164764D01*
X239255974Y-92143345D01*
X239288785Y-92064129D01*
X239299335Y-92044393D01*
X239346969Y-91973103D01*
X239361176Y-91955792D01*
X239421792Y-91895176D01*
X239439103Y-91880969D01*
X239510393Y-91833335D01*
X239530129Y-91822785D01*
X239609345Y-91789974D01*
X239630764Y-91783476D01*
X239714851Y-91766750D01*
X239737131Y-91764556D01*
X239755550Y-91764556D01*
X239767802Y-91763954D01*
X239786140Y-91762148D01*
X240273860Y-91762148D01*
X240292198Y-91763954D01*
X240292198Y-91763954D01*
G37*
G36*
X191043000Y-94023000D02*
X188941000Y-94023000D01*
X188941000Y-92921000D01*
X191043000Y-92921000D01*
X191043000Y-94023000D01*
X191043000Y-94023000D01*
G37*
G36*
X246553890Y-92250017D02*
X246672361Y-92299089D01*
X246778992Y-92370338D01*
X246869662Y-92461008D01*
X246940911Y-92567639D01*
X246989983Y-92686110D01*
X247015000Y-92811881D01*
X247015000Y-92940119D01*
X246989983Y-93065890D01*
X246940911Y-93184361D01*
X246869662Y-93290992D01*
X246778992Y-93381662D01*
X246778989Y-93381664D01*
X246778988Y-93381665D01*
X246674146Y-93451718D01*
X246672361Y-93452911D01*
X246553890Y-93501983D01*
X246428119Y-93527000D01*
X246299881Y-93527000D01*
X246174110Y-93501983D01*
X246055639Y-93452911D01*
X246053854Y-93451718D01*
X245949012Y-93381665D01*
X245949011Y-93381664D01*
X245949008Y-93381662D01*
X245858338Y-93290992D01*
X245787089Y-93184361D01*
X245738017Y-93065890D01*
X245713000Y-92940119D01*
X245713000Y-92811881D01*
X245738017Y-92686110D01*
X245787089Y-92567639D01*
X245858338Y-92461008D01*
X245949008Y-92370338D01*
X246055639Y-92299089D01*
X246174110Y-92250017D01*
X246299881Y-92225000D01*
X246428119Y-92225000D01*
X246553890Y-92250017D01*
X246553890Y-92250017D01*
G37*
G36*
X244553890Y-92250017D02*
X244672361Y-92299089D01*
X244778992Y-92370338D01*
X244869662Y-92461008D01*
X244940911Y-92567639D01*
X244989983Y-92686110D01*
X245015000Y-92811881D01*
X245015000Y-92940119D01*
X244989983Y-93065890D01*
X244940911Y-93184361D01*
X244869662Y-93290992D01*
X244778992Y-93381662D01*
X244778989Y-93381664D01*
X244778988Y-93381665D01*
X244674146Y-93451718D01*
X244672361Y-93452911D01*
X244553890Y-93501983D01*
X244428119Y-93527000D01*
X244299881Y-93527000D01*
X244174110Y-93501983D01*
X244055639Y-93452911D01*
X244053854Y-93451718D01*
X243949012Y-93381665D01*
X243949011Y-93381664D01*
X243949008Y-93381662D01*
X243858338Y-93290992D01*
X243787089Y-93184361D01*
X243738017Y-93065890D01*
X243713000Y-92940119D01*
X243713000Y-92811881D01*
X243738017Y-92686110D01*
X243787089Y-92567639D01*
X243858338Y-92461008D01*
X243949008Y-92370338D01*
X244055639Y-92299089D01*
X244174110Y-92250017D01*
X244299881Y-92225000D01*
X244428119Y-92225000D01*
X244553890Y-92250017D01*
X244553890Y-92250017D01*
G37*
G36*
X214854000Y-93122000D02*
X214152000Y-93122000D01*
X214152000Y-91470000D01*
X214854000Y-91470000D01*
X214854000Y-93122000D01*
X214854000Y-93122000D01*
G37*
G36*
X216124000Y-93122000D02*
X215422000Y-93122000D01*
X215422000Y-91470000D01*
X216124000Y-91470000D01*
X216124000Y-93122000D01*
X216124000Y-93122000D01*
G37*
G36*
X217394000Y-93122000D02*
X216692000Y-93122000D01*
X216692000Y-91470000D01*
X217394000Y-91470000D01*
X217394000Y-93122000D01*
X217394000Y-93122000D01*
G37*
G36*
X218664000Y-93122000D02*
X217962000Y-93122000D01*
X217962000Y-91470000D01*
X218664000Y-91470000D01*
X218664000Y-93122000D01*
X218664000Y-93122000D01*
G37*
G36*
X244553890Y-90250017D02*
X244672361Y-90299089D01*
X244672364Y-90299091D01*
X244741232Y-90345107D01*
X244778992Y-90370338D01*
X244869662Y-90461008D01*
X244940911Y-90567639D01*
X244989983Y-90686110D01*
X245015000Y-90811881D01*
X245015000Y-90940119D01*
X244989983Y-91065890D01*
X244940911Y-91184361D01*
X244869662Y-91290992D01*
X244778992Y-91381662D01*
X244672361Y-91452911D01*
X244553890Y-91501983D01*
X244428119Y-91527000D01*
X244299881Y-91527000D01*
X244174110Y-91501983D01*
X244055639Y-91452911D01*
X243949008Y-91381662D01*
X243858338Y-91290992D01*
X243787089Y-91184361D01*
X243738017Y-91065890D01*
X243713000Y-90940119D01*
X243713000Y-90811881D01*
X243738017Y-90686110D01*
X243787089Y-90567639D01*
X243858338Y-90461008D01*
X243949008Y-90370338D01*
X243986769Y-90345107D01*
X244055636Y-90299091D01*
X244055639Y-90299089D01*
X244174110Y-90250017D01*
X244299881Y-90225000D01*
X244428119Y-90225000D01*
X244553890Y-90250017D01*
X244553890Y-90250017D01*
G37*
G36*
X246553890Y-90250017D02*
X246672361Y-90299089D01*
X246672364Y-90299091D01*
X246741232Y-90345107D01*
X246778992Y-90370338D01*
X246869662Y-90461008D01*
X246940911Y-90567639D01*
X246989983Y-90686110D01*
X247015000Y-90811881D01*
X247015000Y-90940119D01*
X246989983Y-91065890D01*
X246940911Y-91184361D01*
X246869662Y-91290992D01*
X246778992Y-91381662D01*
X246672361Y-91452911D01*
X246553890Y-91501983D01*
X246428119Y-91527000D01*
X246299881Y-91527000D01*
X246174110Y-91501983D01*
X246055639Y-91452911D01*
X245949008Y-91381662D01*
X245858338Y-91290992D01*
X245787089Y-91184361D01*
X245738017Y-91065890D01*
X245713000Y-90940119D01*
X245713000Y-90811881D01*
X245738017Y-90686110D01*
X245787089Y-90567639D01*
X245858338Y-90461008D01*
X245949008Y-90370338D01*
X245986769Y-90345107D01*
X246055636Y-90299091D01*
X246055639Y-90299089D01*
X246174110Y-90250017D01*
X246299881Y-90225000D01*
X246428119Y-90225000D01*
X246553890Y-90250017D01*
X246553890Y-90250017D01*
G37*
G36*
X191043000Y-91483000D02*
X188941000Y-91483000D01*
X188941000Y-90381000D01*
X191043000Y-90381000D01*
X191043000Y-91483000D01*
X191043000Y-91483000D01*
G37*
G36*
X197845643Y-89653781D02*
X197991415Y-89714162D01*
X198122611Y-89801824D01*
X198234176Y-89913389D01*
X198321838Y-90044585D01*
X198382219Y-90190357D01*
X198413000Y-90345107D01*
X198413000Y-90502893D01*
X198382219Y-90657643D01*
X198321838Y-90803415D01*
X198234176Y-90934611D01*
X198122611Y-91046176D01*
X197991415Y-91133838D01*
X197845643Y-91194219D01*
X197690893Y-91225000D01*
X197533107Y-91225000D01*
X197378357Y-91194219D01*
X197232585Y-91133838D01*
X197101389Y-91046176D01*
X196989824Y-90934611D01*
X196902162Y-90803415D01*
X196841781Y-90657643D01*
X196811000Y-90502893D01*
X196811000Y-90345107D01*
X196841781Y-90190357D01*
X196902162Y-90044585D01*
X196989824Y-89913389D01*
X197101389Y-89801824D01*
X197232585Y-89714162D01*
X197378357Y-89653781D01*
X197533107Y-89623000D01*
X197690893Y-89623000D01*
X197845643Y-89653781D01*
X197845643Y-89653781D01*
G37*
G36*
X216853677Y-88153465D02*
X216891364Y-88164898D01*
X216926103Y-88183466D01*
X216956548Y-88208452D01*
X216981534Y-88238897D01*
X217000102Y-88273636D01*
X217011535Y-88311323D01*
X217016000Y-88356661D01*
X217016000Y-89443339D01*
X217011535Y-89488677D01*
X217000102Y-89526364D01*
X216981534Y-89561103D01*
X216956548Y-89591548D01*
X216926103Y-89616534D01*
X216891364Y-89635102D01*
X216853677Y-89646535D01*
X216808339Y-89651000D01*
X215971661Y-89651000D01*
X215926323Y-89646535D01*
X215888636Y-89635102D01*
X215853897Y-89616534D01*
X215823452Y-89591548D01*
X215798466Y-89561103D01*
X215779898Y-89526364D01*
X215768465Y-89488677D01*
X215764000Y-89443339D01*
X215764000Y-88356661D01*
X215768465Y-88311323D01*
X215779898Y-88273636D01*
X215798466Y-88238897D01*
X215823452Y-88208452D01*
X215853897Y-88183466D01*
X215888636Y-88164898D01*
X215926323Y-88153465D01*
X215971661Y-88149000D01*
X216808339Y-88149000D01*
X216853677Y-88153465D01*
X216853677Y-88153465D01*
G37*
G36*
X218903677Y-88153465D02*
X218941364Y-88164898D01*
X218976103Y-88183466D01*
X219006548Y-88208452D01*
X219031534Y-88238897D01*
X219050102Y-88273636D01*
X219061535Y-88311323D01*
X219066000Y-88356661D01*
X219066000Y-89443339D01*
X219061535Y-89488677D01*
X219050102Y-89526364D01*
X219031534Y-89561103D01*
X219006548Y-89591548D01*
X218976103Y-89616534D01*
X218941364Y-89635102D01*
X218903677Y-89646535D01*
X218858339Y-89651000D01*
X218021661Y-89651000D01*
X217976323Y-89646535D01*
X217938636Y-89635102D01*
X217903897Y-89616534D01*
X217873452Y-89591548D01*
X217848466Y-89561103D01*
X217829898Y-89526364D01*
X217818465Y-89488677D01*
X217814000Y-89443339D01*
X217814000Y-88356661D01*
X217818465Y-88311323D01*
X217829898Y-88273636D01*
X217848466Y-88238897D01*
X217873452Y-88208452D01*
X217903897Y-88183466D01*
X217938636Y-88164898D01*
X217976323Y-88153465D01*
X218021661Y-88149000D01*
X218858339Y-88149000D01*
X218903677Y-88153465D01*
X218903677Y-88153465D01*
G37*
G36*
X233506677Y-87806465D02*
X233544364Y-87817898D01*
X233579103Y-87836466D01*
X233609548Y-87861452D01*
X233634534Y-87891897D01*
X233653102Y-87926636D01*
X233664535Y-87964323D01*
X233669000Y-88009661D01*
X233669000Y-88846339D01*
X233664535Y-88891677D01*
X233653102Y-88929364D01*
X233634534Y-88964103D01*
X233609548Y-88994548D01*
X233579103Y-89019534D01*
X233544364Y-89038102D01*
X233506677Y-89049535D01*
X233461339Y-89054000D01*
X232374661Y-89054000D01*
X232329323Y-89049535D01*
X232291636Y-89038102D01*
X232256897Y-89019534D01*
X232226452Y-88994548D01*
X232201466Y-88964103D01*
X232182898Y-88929364D01*
X232171465Y-88891677D01*
X232167000Y-88846339D01*
X232167000Y-88009661D01*
X232171465Y-87964323D01*
X232182898Y-87926636D01*
X232201466Y-87891897D01*
X232226452Y-87861452D01*
X232256897Y-87836466D01*
X232291636Y-87817898D01*
X232329323Y-87806465D01*
X232374661Y-87802000D01*
X233461339Y-87802000D01*
X233506677Y-87806465D01*
X233506677Y-87806465D01*
G37*
G36*
X237316677Y-87806465D02*
X237354364Y-87817898D01*
X237389103Y-87836466D01*
X237419548Y-87861452D01*
X237444534Y-87891897D01*
X237463102Y-87926636D01*
X237474535Y-87964323D01*
X237479000Y-88009661D01*
X237479000Y-88846339D01*
X237474535Y-88891677D01*
X237463102Y-88929364D01*
X237444534Y-88964103D01*
X237419548Y-88994548D01*
X237389103Y-89019534D01*
X237354364Y-89038102D01*
X237316677Y-89049535D01*
X237271339Y-89054000D01*
X236184661Y-89054000D01*
X236139323Y-89049535D01*
X236101636Y-89038102D01*
X236066897Y-89019534D01*
X236036452Y-88994548D01*
X236011466Y-88964103D01*
X235992898Y-88929364D01*
X235981465Y-88891677D01*
X235977000Y-88846339D01*
X235977000Y-88009661D01*
X235981465Y-87964323D01*
X235992898Y-87926636D01*
X236011466Y-87891897D01*
X236036452Y-87861452D01*
X236066897Y-87836466D01*
X236101636Y-87817898D01*
X236139323Y-87806465D01*
X236184661Y-87802000D01*
X237271339Y-87802000D01*
X237316677Y-87806465D01*
X237316677Y-87806465D01*
G37*
G36*
X229696677Y-87779465D02*
X229734364Y-87790898D01*
X229769103Y-87809466D01*
X229799548Y-87834452D01*
X229824534Y-87864897D01*
X229843102Y-87899636D01*
X229854535Y-87937323D01*
X229859000Y-87982661D01*
X229859000Y-88819339D01*
X229854535Y-88864677D01*
X229843102Y-88902364D01*
X229824534Y-88937103D01*
X229799548Y-88967548D01*
X229769103Y-88992534D01*
X229734364Y-89011102D01*
X229696677Y-89022535D01*
X229651339Y-89027000D01*
X228564661Y-89027000D01*
X228519323Y-89022535D01*
X228481636Y-89011102D01*
X228446897Y-88992534D01*
X228416452Y-88967548D01*
X228391466Y-88937103D01*
X228372898Y-88902364D01*
X228361465Y-88864677D01*
X228357000Y-88819339D01*
X228357000Y-87982661D01*
X228361465Y-87937323D01*
X228372898Y-87899636D01*
X228391466Y-87864897D01*
X228416452Y-87834452D01*
X228446897Y-87809466D01*
X228481636Y-87790898D01*
X228519323Y-87779465D01*
X228564661Y-87775000D01*
X229651339Y-87775000D01*
X229696677Y-87779465D01*
X229696677Y-87779465D01*
G37*
G36*
X225886677Y-87779465D02*
X225924364Y-87790898D01*
X225959103Y-87809466D01*
X225989548Y-87834452D01*
X226014534Y-87864897D01*
X226033102Y-87899636D01*
X226044535Y-87937323D01*
X226049000Y-87982661D01*
X226049000Y-88819339D01*
X226044535Y-88864677D01*
X226033102Y-88902364D01*
X226014534Y-88937103D01*
X225989548Y-88967548D01*
X225959103Y-88992534D01*
X225924364Y-89011102D01*
X225886677Y-89022535D01*
X225841339Y-89027000D01*
X224754661Y-89027000D01*
X224709323Y-89022535D01*
X224671636Y-89011102D01*
X224636897Y-88992534D01*
X224606452Y-88967548D01*
X224581466Y-88937103D01*
X224562898Y-88902364D01*
X224551465Y-88864677D01*
X224547000Y-88819339D01*
X224547000Y-87982661D01*
X224551465Y-87937323D01*
X224562898Y-87899636D01*
X224581466Y-87864897D01*
X224606452Y-87834452D01*
X224636897Y-87809466D01*
X224671636Y-87790898D01*
X224709323Y-87779465D01*
X224754661Y-87775000D01*
X225841339Y-87775000D01*
X225886677Y-87779465D01*
X225886677Y-87779465D01*
G37*
G36*
X191043000Y-88943000D02*
X188941000Y-88943000D01*
X188941000Y-87841000D01*
X191043000Y-87841000D01*
X191043000Y-88943000D01*
X191043000Y-88943000D01*
G37*
G36*
X245699734Y-86269232D02*
X245909202Y-86355996D01*
X246097723Y-86481962D01*
X246258038Y-86642277D01*
X246384004Y-86830798D01*
X246470768Y-87040266D01*
X246515000Y-87262635D01*
X246515000Y-87489365D01*
X246470768Y-87711734D01*
X246384004Y-87921202D01*
X246258038Y-88109723D01*
X246097723Y-88270038D01*
X245909202Y-88396004D01*
X245699734Y-88482768D01*
X245477365Y-88527000D01*
X245250635Y-88527000D01*
X245028266Y-88482768D01*
X244818798Y-88396004D01*
X244630277Y-88270038D01*
X244469962Y-88109723D01*
X244343996Y-87921202D01*
X244257232Y-87711734D01*
X244213000Y-87489365D01*
X244213000Y-87262635D01*
X244257232Y-87040266D01*
X244343996Y-86830798D01*
X244469962Y-86642277D01*
X244630277Y-86481962D01*
X244818798Y-86355996D01*
X245028266Y-86269232D01*
X245250635Y-86225000D01*
X245477365Y-86225000D01*
X245699734Y-86269232D01*
X245699734Y-86269232D01*
G37*
G36*
X237316677Y-85756465D02*
X237354364Y-85767898D01*
X237389103Y-85786466D01*
X237419548Y-85811452D01*
X237444534Y-85841897D01*
X237463102Y-85876636D01*
X237474535Y-85914323D01*
X237479000Y-85959661D01*
X237479000Y-86796339D01*
X237474535Y-86841677D01*
X237463102Y-86879364D01*
X237444534Y-86914103D01*
X237419548Y-86944548D01*
X237389103Y-86969534D01*
X237354364Y-86988102D01*
X237316677Y-86999535D01*
X237271339Y-87004000D01*
X236184661Y-87004000D01*
X236139323Y-86999535D01*
X236101636Y-86988102D01*
X236066897Y-86969534D01*
X236036452Y-86944548D01*
X236011466Y-86914103D01*
X235992898Y-86879364D01*
X235981465Y-86841677D01*
X235977000Y-86796339D01*
X235977000Y-85959661D01*
X235981465Y-85914323D01*
X235992898Y-85876636D01*
X236011466Y-85841897D01*
X236036452Y-85811452D01*
X236066897Y-85786466D01*
X236101636Y-85767898D01*
X236139323Y-85756465D01*
X236184661Y-85752000D01*
X237271339Y-85752000D01*
X237316677Y-85756465D01*
X237316677Y-85756465D01*
G37*
G36*
X233506677Y-85756465D02*
X233544364Y-85767898D01*
X233579103Y-85786466D01*
X233609548Y-85811452D01*
X233634534Y-85841897D01*
X233653102Y-85876636D01*
X233664535Y-85914323D01*
X233669000Y-85959661D01*
X233669000Y-86796339D01*
X233664535Y-86841677D01*
X233653102Y-86879364D01*
X233634534Y-86914103D01*
X233609548Y-86944548D01*
X233579103Y-86969534D01*
X233544364Y-86988102D01*
X233506677Y-86999535D01*
X233461339Y-87004000D01*
X232374661Y-87004000D01*
X232329323Y-86999535D01*
X232291636Y-86988102D01*
X232256897Y-86969534D01*
X232226452Y-86944548D01*
X232201466Y-86914103D01*
X232182898Y-86879364D01*
X232171465Y-86841677D01*
X232167000Y-86796339D01*
X232167000Y-85959661D01*
X232171465Y-85914323D01*
X232182898Y-85876636D01*
X232201466Y-85841897D01*
X232226452Y-85811452D01*
X232256897Y-85786466D01*
X232291636Y-85767898D01*
X232329323Y-85756465D01*
X232374661Y-85752000D01*
X233461339Y-85752000D01*
X233506677Y-85756465D01*
X233506677Y-85756465D01*
G37*
G36*
X229696677Y-85729465D02*
X229734364Y-85740898D01*
X229769103Y-85759466D01*
X229799548Y-85784452D01*
X229824534Y-85814897D01*
X229843102Y-85849636D01*
X229854535Y-85887323D01*
X229859000Y-85932661D01*
X229859000Y-86769339D01*
X229854535Y-86814677D01*
X229843102Y-86852364D01*
X229824534Y-86887103D01*
X229799548Y-86917548D01*
X229769103Y-86942534D01*
X229734364Y-86961102D01*
X229696677Y-86972535D01*
X229651339Y-86977000D01*
X228564661Y-86977000D01*
X228519323Y-86972535D01*
X228481636Y-86961102D01*
X228446897Y-86942534D01*
X228416452Y-86917548D01*
X228391466Y-86887103D01*
X228372898Y-86852364D01*
X228361465Y-86814677D01*
X228357000Y-86769339D01*
X228357000Y-85932661D01*
X228361465Y-85887323D01*
X228372898Y-85849636D01*
X228391466Y-85814897D01*
X228416452Y-85784452D01*
X228446897Y-85759466D01*
X228481636Y-85740898D01*
X228519323Y-85729465D01*
X228564661Y-85725000D01*
X229651339Y-85725000D01*
X229696677Y-85729465D01*
X229696677Y-85729465D01*
G37*
G36*
X225886677Y-85729465D02*
X225924364Y-85740898D01*
X225959103Y-85759466D01*
X225989548Y-85784452D01*
X226014534Y-85814897D01*
X226033102Y-85849636D01*
X226044535Y-85887323D01*
X226049000Y-85932661D01*
X226049000Y-86769339D01*
X226044535Y-86814677D01*
X226033102Y-86852364D01*
X226014534Y-86887103D01*
X225989548Y-86917548D01*
X225959103Y-86942534D01*
X225924364Y-86961102D01*
X225886677Y-86972535D01*
X225841339Y-86977000D01*
X224754661Y-86977000D01*
X224709323Y-86972535D01*
X224671636Y-86961102D01*
X224636897Y-86942534D01*
X224606452Y-86917548D01*
X224581466Y-86887103D01*
X224562898Y-86852364D01*
X224551465Y-86814677D01*
X224547000Y-86769339D01*
X224547000Y-85932661D01*
X224551465Y-85887323D01*
X224562898Y-85849636D01*
X224581466Y-85814897D01*
X224606452Y-85784452D01*
X224636897Y-85759466D01*
X224671636Y-85740898D01*
X224709323Y-85729465D01*
X224754661Y-85725000D01*
X225841339Y-85725000D01*
X225886677Y-85729465D01*
X225886677Y-85729465D01*
G37*
G36*
X210310000Y-86477000D02*
X200808000Y-86477000D01*
X200808000Y-75575000D01*
X210310000Y-75575000D01*
X210310000Y-86477000D01*
X210310000Y-86477000D01*
G37*
G36*
X191043000Y-86403000D02*
X188941000Y-86403000D01*
X188941000Y-85301000D01*
X191043000Y-85301000D01*
X191043000Y-86403000D01*
X191043000Y-86403000D01*
G37*
G36*
X198760000Y-84167000D02*
X194058000Y-84167000D01*
X194058000Y-82965000D01*
X198760000Y-82965000D01*
X198760000Y-84167000D01*
X198760000Y-84167000D01*
G37*
G36*
X245699734Y-80173232D02*
X245909202Y-80259996D01*
X246097723Y-80385962D01*
X246258038Y-80546277D01*
X246384004Y-80734798D01*
X246470768Y-80944266D01*
X246515000Y-81166635D01*
X246515000Y-81393365D01*
X246470768Y-81615734D01*
X246384004Y-81825202D01*
X246258038Y-82013723D01*
X246097723Y-82174038D01*
X245909202Y-82300004D01*
X245699734Y-82386768D01*
X245477365Y-82431000D01*
X245250635Y-82431000D01*
X245028266Y-82386768D01*
X244818798Y-82300004D01*
X244630277Y-82174038D01*
X244469962Y-82013723D01*
X244343996Y-81825202D01*
X244257232Y-81615734D01*
X244213000Y-81393365D01*
X244213000Y-81166635D01*
X244257232Y-80944266D01*
X244343996Y-80734798D01*
X244469962Y-80546277D01*
X244630277Y-80385962D01*
X244818798Y-80259996D01*
X245028266Y-80173232D01*
X245250635Y-80129000D01*
X245477365Y-80129000D01*
X245699734Y-80173232D01*
X245699734Y-80173232D01*
G37*
G36*
X216925000Y-81725000D02*
X216023000Y-81725000D01*
X216023000Y-79723000D01*
X216925000Y-79723000D01*
X216925000Y-81725000D01*
X216925000Y-81725000D01*
G37*
G36*
X198760000Y-81627000D02*
X194058000Y-81627000D01*
X194058000Y-80425000D01*
X198760000Y-80425000D01*
X198760000Y-81627000D01*
X198760000Y-81627000D01*
G37*
G36*
X222076677Y-79660465D02*
X222114364Y-79671898D01*
X222149103Y-79690466D01*
X222179548Y-79715452D01*
X222204534Y-79745897D01*
X222223102Y-79780636D01*
X222234535Y-79818323D01*
X222239000Y-79863661D01*
X222239000Y-80700339D01*
X222234535Y-80745677D01*
X222223102Y-80783364D01*
X222204534Y-80818103D01*
X222179548Y-80848548D01*
X222149103Y-80873534D01*
X222114364Y-80892102D01*
X222076677Y-80903535D01*
X222031339Y-80908000D01*
X220944661Y-80908000D01*
X220899323Y-80903535D01*
X220861636Y-80892102D01*
X220826897Y-80873534D01*
X220796452Y-80848548D01*
X220771466Y-80818103D01*
X220752898Y-80783364D01*
X220741465Y-80745677D01*
X220737000Y-80700339D01*
X220737000Y-79863661D01*
X220741465Y-79818323D01*
X220752898Y-79780636D01*
X220771466Y-79745897D01*
X220796452Y-79715452D01*
X220826897Y-79690466D01*
X220861636Y-79671898D01*
X220899323Y-79660465D01*
X220944661Y-79656000D01*
X222031339Y-79656000D01*
X222076677Y-79660465D01*
X222076677Y-79660465D01*
G37*
G36*
X229950677Y-79642465D02*
X229988364Y-79653898D01*
X230023103Y-79672466D01*
X230053548Y-79697452D01*
X230078534Y-79727897D01*
X230097102Y-79762636D01*
X230108535Y-79800323D01*
X230113000Y-79845661D01*
X230113000Y-80682339D01*
X230108535Y-80727677D01*
X230097102Y-80765364D01*
X230078534Y-80800103D01*
X230053548Y-80830548D01*
X230023103Y-80855534D01*
X229988364Y-80874102D01*
X229950677Y-80885535D01*
X229905339Y-80890000D01*
X228818661Y-80890000D01*
X228773323Y-80885535D01*
X228735636Y-80874102D01*
X228700897Y-80855534D01*
X228670452Y-80830548D01*
X228645466Y-80800103D01*
X228626898Y-80765364D01*
X228615465Y-80727677D01*
X228611000Y-80682339D01*
X228611000Y-79845661D01*
X228615465Y-79800323D01*
X228626898Y-79762636D01*
X228645466Y-79727897D01*
X228670452Y-79697452D01*
X228700897Y-79672466D01*
X228735636Y-79653898D01*
X228773323Y-79642465D01*
X228818661Y-79638000D01*
X229905339Y-79638000D01*
X229950677Y-79642465D01*
X229950677Y-79642465D01*
G37*
G36*
X237570677Y-79642465D02*
X237608364Y-79653898D01*
X237643103Y-79672466D01*
X237673548Y-79697452D01*
X237698534Y-79727897D01*
X237717102Y-79762636D01*
X237728535Y-79800323D01*
X237733000Y-79845661D01*
X237733000Y-80682339D01*
X237728535Y-80727677D01*
X237717102Y-80765364D01*
X237698534Y-80800103D01*
X237673548Y-80830548D01*
X237643103Y-80855534D01*
X237608364Y-80874102D01*
X237570677Y-80885535D01*
X237525339Y-80890000D01*
X236438661Y-80890000D01*
X236393323Y-80885535D01*
X236355636Y-80874102D01*
X236320897Y-80855534D01*
X236290452Y-80830548D01*
X236265466Y-80800103D01*
X236246898Y-80765364D01*
X236235465Y-80727677D01*
X236231000Y-80682339D01*
X236231000Y-79845661D01*
X236235465Y-79800323D01*
X236246898Y-79762636D01*
X236265466Y-79727897D01*
X236290452Y-79697452D01*
X236320897Y-79672466D01*
X236355636Y-79653898D01*
X236393323Y-79642465D01*
X236438661Y-79638000D01*
X237525339Y-79638000D01*
X237570677Y-79642465D01*
X237570677Y-79642465D01*
G37*
G36*
X233760677Y-79642465D02*
X233798364Y-79653898D01*
X233833103Y-79672466D01*
X233863548Y-79697452D01*
X233888534Y-79727897D01*
X233907102Y-79762636D01*
X233918535Y-79800323D01*
X233923000Y-79845661D01*
X233923000Y-80682339D01*
X233918535Y-80727677D01*
X233907102Y-80765364D01*
X233888534Y-80800103D01*
X233863548Y-80830548D01*
X233833103Y-80855534D01*
X233798364Y-80874102D01*
X233760677Y-80885535D01*
X233715339Y-80890000D01*
X232628661Y-80890000D01*
X232583323Y-80885535D01*
X232545636Y-80874102D01*
X232510897Y-80855534D01*
X232480452Y-80830548D01*
X232455466Y-80800103D01*
X232436898Y-80765364D01*
X232425465Y-80727677D01*
X232421000Y-80682339D01*
X232421000Y-79845661D01*
X232425465Y-79800323D01*
X232436898Y-79762636D01*
X232455466Y-79727897D01*
X232480452Y-79697452D01*
X232510897Y-79672466D01*
X232545636Y-79653898D01*
X232583323Y-79642465D01*
X232628661Y-79638000D01*
X233715339Y-79638000D01*
X233760677Y-79642465D01*
X233760677Y-79642465D01*
G37*
G36*
X226140677Y-79642465D02*
X226178364Y-79653898D01*
X226213103Y-79672466D01*
X226243548Y-79697452D01*
X226268534Y-79727897D01*
X226287102Y-79762636D01*
X226298535Y-79800323D01*
X226303000Y-79845661D01*
X226303000Y-80682339D01*
X226298535Y-80727677D01*
X226287102Y-80765364D01*
X226268534Y-80800103D01*
X226243548Y-80830548D01*
X226213103Y-80855534D01*
X226178364Y-80874102D01*
X226140677Y-80885535D01*
X226095339Y-80890000D01*
X225008661Y-80890000D01*
X224963323Y-80885535D01*
X224925636Y-80874102D01*
X224890897Y-80855534D01*
X224860452Y-80830548D01*
X224835466Y-80800103D01*
X224816898Y-80765364D01*
X224805465Y-80727677D01*
X224801000Y-80682339D01*
X224801000Y-79845661D01*
X224805465Y-79800323D01*
X224816898Y-79762636D01*
X224835466Y-79727897D01*
X224860452Y-79697452D01*
X224890897Y-79672466D01*
X224925636Y-79653898D01*
X224963323Y-79642465D01*
X225008661Y-79638000D01*
X226095339Y-79638000D01*
X226140677Y-79642465D01*
X226140677Y-79642465D01*
G37*
G36*
X190090527Y-76212736D02*
X190190410Y-76232604D01*
X190472674Y-76349521D01*
X190726705Y-76519259D01*
X190942741Y-76735295D01*
X191112479Y-76989326D01*
X191229396Y-77271590D01*
X191247978Y-77365008D01*
X191289000Y-77571238D01*
X191289000Y-77876762D01*
X191249264Y-78076527D01*
X191229396Y-78176410D01*
X191112479Y-78458674D01*
X190942741Y-78712705D01*
X190726705Y-78928741D01*
X190472674Y-79098479D01*
X190190410Y-79215396D01*
X190090527Y-79235264D01*
X189890762Y-79275000D01*
X189585238Y-79275000D01*
X189385473Y-79235264D01*
X189285590Y-79215396D01*
X189003326Y-79098479D01*
X188749295Y-78928741D01*
X188533259Y-78712705D01*
X188363521Y-78458674D01*
X188246604Y-78176410D01*
X188226736Y-78076527D01*
X188187000Y-77876762D01*
X188187000Y-77571238D01*
X188228022Y-77365008D01*
X188246604Y-77271590D01*
X188363521Y-76989326D01*
X188533259Y-76735295D01*
X188749295Y-76519259D01*
X189003326Y-76349521D01*
X189285590Y-76232604D01*
X189385473Y-76212736D01*
X189585238Y-76173000D01*
X189890762Y-76173000D01*
X190090527Y-76212736D01*
X190090527Y-76212736D01*
G37*
G36*
X198760000Y-79087000D02*
X194058000Y-79087000D01*
X194058000Y-77885000D01*
X198760000Y-77885000D01*
X198760000Y-79087000D01*
X198760000Y-79087000D01*
G37*
G36*
X222076677Y-77610465D02*
X222114364Y-77621898D01*
X222149103Y-77640466D01*
X222179548Y-77665452D01*
X222204534Y-77695897D01*
X222223102Y-77730636D01*
X222234535Y-77768323D01*
X222239000Y-77813661D01*
X222239000Y-78650339D01*
X222234535Y-78695677D01*
X222223102Y-78733364D01*
X222204534Y-78768103D01*
X222179548Y-78798548D01*
X222149103Y-78823534D01*
X222114364Y-78842102D01*
X222076677Y-78853535D01*
X222031339Y-78858000D01*
X220944661Y-78858000D01*
X220899323Y-78853535D01*
X220861636Y-78842102D01*
X220826897Y-78823534D01*
X220796452Y-78798548D01*
X220771466Y-78768103D01*
X220752898Y-78733364D01*
X220741465Y-78695677D01*
X220737000Y-78650339D01*
X220737000Y-77813661D01*
X220741465Y-77768323D01*
X220752898Y-77730636D01*
X220771466Y-77695897D01*
X220796452Y-77665452D01*
X220826897Y-77640466D01*
X220861636Y-77621898D01*
X220899323Y-77610465D01*
X220944661Y-77606000D01*
X222031339Y-77606000D01*
X222076677Y-77610465D01*
X222076677Y-77610465D01*
G37*
G36*
X226140677Y-77592465D02*
X226178364Y-77603898D01*
X226213103Y-77622466D01*
X226243548Y-77647452D01*
X226268534Y-77677897D01*
X226287102Y-77712636D01*
X226298535Y-77750323D01*
X226303000Y-77795661D01*
X226303000Y-78632339D01*
X226298535Y-78677677D01*
X226287102Y-78715364D01*
X226268534Y-78750103D01*
X226243548Y-78780548D01*
X226213103Y-78805534D01*
X226178364Y-78824102D01*
X226140677Y-78835535D01*
X226095339Y-78840000D01*
X225008661Y-78840000D01*
X224963323Y-78835535D01*
X224925636Y-78824102D01*
X224890897Y-78805534D01*
X224860452Y-78780548D01*
X224835466Y-78750103D01*
X224816898Y-78715364D01*
X224805465Y-78677677D01*
X224801000Y-78632339D01*
X224801000Y-77795661D01*
X224805465Y-77750323D01*
X224816898Y-77712636D01*
X224835466Y-77677897D01*
X224860452Y-77647452D01*
X224890897Y-77622466D01*
X224925636Y-77603898D01*
X224963323Y-77592465D01*
X225008661Y-77588000D01*
X226095339Y-77588000D01*
X226140677Y-77592465D01*
X226140677Y-77592465D01*
G37*
G36*
X233760677Y-77592465D02*
X233798364Y-77603898D01*
X233833103Y-77622466D01*
X233863548Y-77647452D01*
X233888534Y-77677897D01*
X233907102Y-77712636D01*
X233918535Y-77750323D01*
X233923000Y-77795661D01*
X233923000Y-78632339D01*
X233918535Y-78677677D01*
X233907102Y-78715364D01*
X233888534Y-78750103D01*
X233863548Y-78780548D01*
X233833103Y-78805534D01*
X233798364Y-78824102D01*
X233760677Y-78835535D01*
X233715339Y-78840000D01*
X232628661Y-78840000D01*
X232583323Y-78835535D01*
X232545636Y-78824102D01*
X232510897Y-78805534D01*
X232480452Y-78780548D01*
X232455466Y-78750103D01*
X232436898Y-78715364D01*
X232425465Y-78677677D01*
X232421000Y-78632339D01*
X232421000Y-77795661D01*
X232425465Y-77750323D01*
X232436898Y-77712636D01*
X232455466Y-77677897D01*
X232480452Y-77647452D01*
X232510897Y-77622466D01*
X232545636Y-77603898D01*
X232583323Y-77592465D01*
X232628661Y-77588000D01*
X233715339Y-77588000D01*
X233760677Y-77592465D01*
X233760677Y-77592465D01*
G37*
G36*
X237570677Y-77592465D02*
X237608364Y-77603898D01*
X237643103Y-77622466D01*
X237673548Y-77647452D01*
X237698534Y-77677897D01*
X237717102Y-77712636D01*
X237728535Y-77750323D01*
X237733000Y-77795661D01*
X237733000Y-78632339D01*
X237728535Y-78677677D01*
X237717102Y-78715364D01*
X237698534Y-78750103D01*
X237673548Y-78780548D01*
X237643103Y-78805534D01*
X237608364Y-78824102D01*
X237570677Y-78835535D01*
X237525339Y-78840000D01*
X236438661Y-78840000D01*
X236393323Y-78835535D01*
X236355636Y-78824102D01*
X236320897Y-78805534D01*
X236290452Y-78780548D01*
X236265466Y-78750103D01*
X236246898Y-78715364D01*
X236235465Y-78677677D01*
X236231000Y-78632339D01*
X236231000Y-77795661D01*
X236235465Y-77750323D01*
X236246898Y-77712636D01*
X236265466Y-77677897D01*
X236290452Y-77647452D01*
X236320897Y-77622466D01*
X236355636Y-77603898D01*
X236393323Y-77592465D01*
X236438661Y-77588000D01*
X237525339Y-77588000D01*
X237570677Y-77592465D01*
X237570677Y-77592465D01*
G37*
G36*
X229950677Y-77592465D02*
X229988364Y-77603898D01*
X230023103Y-77622466D01*
X230053548Y-77647452D01*
X230078534Y-77677897D01*
X230097102Y-77712636D01*
X230108535Y-77750323D01*
X230113000Y-77795661D01*
X230113000Y-78632339D01*
X230108535Y-78677677D01*
X230097102Y-78715364D01*
X230078534Y-78750103D01*
X230053548Y-78780548D01*
X230023103Y-78805534D01*
X229988364Y-78824102D01*
X229950677Y-78835535D01*
X229905339Y-78840000D01*
X228818661Y-78840000D01*
X228773323Y-78835535D01*
X228735636Y-78824102D01*
X228700897Y-78805534D01*
X228670452Y-78780548D01*
X228645466Y-78750103D01*
X228626898Y-78715364D01*
X228615465Y-78677677D01*
X228611000Y-78632339D01*
X228611000Y-77795661D01*
X228615465Y-77750323D01*
X228626898Y-77712636D01*
X228645466Y-77677897D01*
X228670452Y-77647452D01*
X228700897Y-77622466D01*
X228735636Y-77603898D01*
X228773323Y-77592465D01*
X228818661Y-77588000D01*
X229905339Y-77588000D01*
X229950677Y-77592465D01*
X229950677Y-77592465D01*
G37*
G36*
X215975000Y-78725000D02*
X215073000Y-78725000D01*
X215073000Y-76723000D01*
X215975000Y-76723000D01*
X215975000Y-78725000D01*
X215975000Y-78725000D01*
G37*
G36*
X217875000Y-78725000D02*
X216973000Y-78725000D01*
X216973000Y-76723000D01*
X217875000Y-76723000D01*
X217875000Y-78725000D01*
X217875000Y-78725000D01*
G37*
G36*
X244553890Y-77154017D02*
X244672361Y-77203089D01*
X244672364Y-77203091D01*
X244774880Y-77271590D01*
X244778992Y-77274338D01*
X244869662Y-77365008D01*
X244940911Y-77471639D01*
X244989983Y-77590110D01*
X245015000Y-77715881D01*
X245015000Y-77844119D01*
X244989983Y-77969890D01*
X244940911Y-78088361D01*
X244869662Y-78194992D01*
X244778992Y-78285662D01*
X244672361Y-78356911D01*
X244553890Y-78405983D01*
X244428119Y-78431000D01*
X244299881Y-78431000D01*
X244174110Y-78405983D01*
X244055639Y-78356911D01*
X243949008Y-78285662D01*
X243858338Y-78194992D01*
X243787089Y-78088361D01*
X243738017Y-77969890D01*
X243713000Y-77844119D01*
X243713000Y-77715881D01*
X243738017Y-77590110D01*
X243787089Y-77471639D01*
X243858338Y-77365008D01*
X243949008Y-77274338D01*
X243953121Y-77271590D01*
X244055636Y-77203091D01*
X244055639Y-77203089D01*
X244174110Y-77154017D01*
X244299881Y-77129000D01*
X244428119Y-77129000D01*
X244553890Y-77154017D01*
X244553890Y-77154017D01*
G37*
G36*
X247015000Y-78431000D02*
X245713000Y-78431000D01*
X245713000Y-77129000D01*
X247015000Y-77129000D01*
X247015000Y-78431000D01*
X247015000Y-78431000D01*
G37*
G36*
X184992677Y-76612465D02*
X185030364Y-76623898D01*
X185065103Y-76642466D01*
X185095548Y-76667452D01*
X185120534Y-76697897D01*
X185139102Y-76732636D01*
X185150535Y-76770323D01*
X185155000Y-76815661D01*
X185155000Y-77652339D01*
X185150535Y-77697677D01*
X185139102Y-77735364D01*
X185120534Y-77770103D01*
X185095548Y-77800548D01*
X185065103Y-77825534D01*
X185030364Y-77844102D01*
X184992677Y-77855535D01*
X184947339Y-77860000D01*
X183860661Y-77860000D01*
X183815323Y-77855535D01*
X183777636Y-77844102D01*
X183742897Y-77825534D01*
X183712452Y-77800548D01*
X183687466Y-77770103D01*
X183668898Y-77735364D01*
X183657465Y-77697677D01*
X183653000Y-77652339D01*
X183653000Y-76815661D01*
X183657465Y-76770323D01*
X183668898Y-76732636D01*
X183687466Y-76697897D01*
X183712452Y-76667452D01*
X183742897Y-76642466D01*
X183777636Y-76623898D01*
X183815323Y-76612465D01*
X183860661Y-76608000D01*
X184947339Y-76608000D01*
X184992677Y-76612465D01*
X184992677Y-76612465D01*
G37*
G36*
X241054198Y-74491954D02*
X241066450Y-74492556D01*
X241084869Y-74492556D01*
X241107149Y-74494750D01*
X241191236Y-74511476D01*
X241212655Y-74517974D01*
X241291871Y-74550785D01*
X241311607Y-74561335D01*
X241382897Y-74608969D01*
X241400208Y-74623176D01*
X241460824Y-74683792D01*
X241475031Y-74701103D01*
X241522665Y-74772393D01*
X241533215Y-74792129D01*
X241566026Y-74871345D01*
X241572524Y-74892764D01*
X241589250Y-74976851D01*
X241591444Y-74999131D01*
X241591444Y-75017550D01*
X241592046Y-75029802D01*
X241593852Y-75048140D01*
X241593852Y-75535860D01*
X241592263Y-75551999D01*
X241589347Y-75561611D01*
X241584612Y-75570469D01*
X241578237Y-75578237D01*
X241565798Y-75588446D01*
X241555432Y-75595372D01*
X241538105Y-75612698D01*
X241524490Y-75633073D01*
X241515112Y-75655711D01*
X241510331Y-75679745D01*
X241510331Y-75704249D01*
X241515111Y-75728283D01*
X241524487Y-75750922D01*
X241538101Y-75771297D01*
X241555427Y-75788624D01*
X241565796Y-75795552D01*
X241578237Y-75805763D01*
X241584612Y-75813531D01*
X241589347Y-75822389D01*
X241592263Y-75832001D01*
X241593852Y-75848140D01*
X241593852Y-76335861D01*
X241592046Y-76354198D01*
X241591444Y-76366450D01*
X241591444Y-76384869D01*
X241589250Y-76407149D01*
X241572524Y-76491236D01*
X241566026Y-76512655D01*
X241533215Y-76591871D01*
X241522665Y-76611607D01*
X241475031Y-76682897D01*
X241460824Y-76700208D01*
X241400208Y-76760824D01*
X241382897Y-76775031D01*
X241311607Y-76822665D01*
X241291871Y-76833215D01*
X241212655Y-76866026D01*
X241191236Y-76872524D01*
X241107149Y-76889250D01*
X241084869Y-76891444D01*
X241066450Y-76891444D01*
X241054198Y-76892046D01*
X241035861Y-76893852D01*
X240548139Y-76893852D01*
X240529802Y-76892046D01*
X240517550Y-76891444D01*
X240499131Y-76891444D01*
X240476851Y-76889250D01*
X240392764Y-76872524D01*
X240371345Y-76866026D01*
X240292129Y-76833215D01*
X240272393Y-76822665D01*
X240201103Y-76775031D01*
X240183792Y-76760824D01*
X240123176Y-76700208D01*
X240108969Y-76682897D01*
X240061335Y-76611607D01*
X240050785Y-76591871D01*
X240017974Y-76512655D01*
X240011476Y-76491236D01*
X239994750Y-76407149D01*
X239992556Y-76384869D01*
X239992556Y-76366450D01*
X239991954Y-76354198D01*
X239990148Y-76335861D01*
X239990148Y-75848140D01*
X239991737Y-75832001D01*
X239994653Y-75822389D01*
X239999388Y-75813531D01*
X240005763Y-75805763D01*
X240018202Y-75795554D01*
X240028568Y-75788628D01*
X240045895Y-75771302D01*
X240059510Y-75750927D01*
X240068888Y-75728289D01*
X240073669Y-75704255D01*
X240073669Y-75679751D01*
X240068889Y-75655717D01*
X240059513Y-75633078D01*
X240045899Y-75612703D01*
X240028573Y-75595376D01*
X240018204Y-75588448D01*
X240005763Y-75578237D01*
X239999388Y-75570469D01*
X239994653Y-75561611D01*
X239991737Y-75551999D01*
X239990148Y-75535860D01*
X239990148Y-75048140D01*
X239991954Y-75029802D01*
X239992556Y-75017550D01*
X239992556Y-74999131D01*
X239994750Y-74976851D01*
X240011476Y-74892764D01*
X240017974Y-74871345D01*
X240050785Y-74792129D01*
X240061335Y-74772393D01*
X240108969Y-74701103D01*
X240123176Y-74683792D01*
X240183792Y-74623176D01*
X240201103Y-74608969D01*
X240272393Y-74561335D01*
X240292129Y-74550785D01*
X240371345Y-74517974D01*
X240392764Y-74511476D01*
X240476851Y-74494750D01*
X240499131Y-74492556D01*
X240517550Y-74492556D01*
X240529802Y-74491954D01*
X240548140Y-74490148D01*
X241035860Y-74490148D01*
X241054198Y-74491954D01*
X241054198Y-74491954D01*
G37*
G36*
X244553890Y-75154017D02*
X244672361Y-75203089D01*
X244778992Y-75274338D01*
X244869662Y-75365008D01*
X244940911Y-75471639D01*
X244989983Y-75590110D01*
X245015000Y-75715881D01*
X245015000Y-75844119D01*
X244989983Y-75969890D01*
X244940911Y-76088361D01*
X244869662Y-76194992D01*
X244778992Y-76285662D01*
X244778989Y-76285664D01*
X244778988Y-76285665D01*
X244694677Y-76342000D01*
X244672361Y-76356911D01*
X244553890Y-76405983D01*
X244428119Y-76431000D01*
X244299881Y-76431000D01*
X244174110Y-76405983D01*
X244055639Y-76356911D01*
X244033323Y-76342000D01*
X243949012Y-76285665D01*
X243949011Y-76285664D01*
X243949008Y-76285662D01*
X243858338Y-76194992D01*
X243787089Y-76088361D01*
X243738017Y-75969890D01*
X243713000Y-75844119D01*
X243713000Y-75715881D01*
X243738017Y-75590110D01*
X243787089Y-75471639D01*
X243858338Y-75365008D01*
X243949008Y-75274338D01*
X244055639Y-75203089D01*
X244174110Y-75154017D01*
X244299881Y-75129000D01*
X244428119Y-75129000D01*
X244553890Y-75154017D01*
X244553890Y-75154017D01*
G37*
G36*
X246553890Y-75154017D02*
X246672361Y-75203089D01*
X246778992Y-75274338D01*
X246869662Y-75365008D01*
X246940911Y-75471639D01*
X246989983Y-75590110D01*
X247015000Y-75715881D01*
X247015000Y-75844119D01*
X246989983Y-75969890D01*
X246940911Y-76088361D01*
X246869662Y-76194992D01*
X246778992Y-76285662D01*
X246778989Y-76285664D01*
X246778988Y-76285665D01*
X246694677Y-76342000D01*
X246672361Y-76356911D01*
X246553890Y-76405983D01*
X246428119Y-76431000D01*
X246299881Y-76431000D01*
X246174110Y-76405983D01*
X246055639Y-76356911D01*
X246033323Y-76342000D01*
X245949012Y-76285665D01*
X245949011Y-76285664D01*
X245949008Y-76285662D01*
X245858338Y-76194992D01*
X245787089Y-76088361D01*
X245738017Y-75969890D01*
X245713000Y-75844119D01*
X245713000Y-75715881D01*
X245738017Y-75590110D01*
X245787089Y-75471639D01*
X245858338Y-75365008D01*
X245949008Y-75274338D01*
X246055639Y-75203089D01*
X246174110Y-75154017D01*
X246299881Y-75129000D01*
X246428119Y-75129000D01*
X246553890Y-75154017D01*
X246553890Y-75154017D01*
G37*
G36*
X184992677Y-74562465D02*
X185030364Y-74573898D01*
X185065103Y-74592466D01*
X185095548Y-74617452D01*
X185120534Y-74647897D01*
X185139102Y-74682636D01*
X185150535Y-74720323D01*
X185155000Y-74765661D01*
X185155000Y-75602339D01*
X185150535Y-75647677D01*
X185139102Y-75685364D01*
X185120534Y-75720103D01*
X185095548Y-75750548D01*
X185065103Y-75775534D01*
X185030364Y-75794102D01*
X184992677Y-75805535D01*
X184947339Y-75810000D01*
X183860661Y-75810000D01*
X183815323Y-75805535D01*
X183777636Y-75794102D01*
X183742897Y-75775534D01*
X183712452Y-75750548D01*
X183687466Y-75720103D01*
X183668898Y-75685364D01*
X183657465Y-75647677D01*
X183653000Y-75602339D01*
X183653000Y-74765661D01*
X183657465Y-74720323D01*
X183668898Y-74682636D01*
X183687466Y-74647897D01*
X183712452Y-74617452D01*
X183742897Y-74592466D01*
X183777636Y-74573898D01*
X183815323Y-74562465D01*
X183860661Y-74558000D01*
X184947339Y-74558000D01*
X184992677Y-74562465D01*
X184992677Y-74562465D01*
G37*
G36*
X196560078Y-68406497D02*
X196762923Y-68446845D01*
X197336150Y-68684283D01*
X197852041Y-69028990D01*
X198290770Y-69467719D01*
X198635477Y-69983610D01*
X198833924Y-70462705D01*
X198872915Y-70556838D01*
X198989836Y-71144636D01*
X198993960Y-71165372D01*
X198993960Y-71785828D01*
X198872915Y-72394363D01*
X198635477Y-72967590D01*
X198290770Y-73483481D01*
X197852041Y-73922210D01*
X197336150Y-74266917D01*
X196762923Y-74504355D01*
X196560078Y-74544703D01*
X196154390Y-74625400D01*
X195533930Y-74625400D01*
X195128242Y-74544703D01*
X194925397Y-74504355D01*
X194352170Y-74266917D01*
X193836279Y-73922210D01*
X193397550Y-73483481D01*
X193052843Y-72967590D01*
X192815405Y-72394363D01*
X192694360Y-71785828D01*
X192694360Y-71165372D01*
X192698485Y-71144636D01*
X192815405Y-70556838D01*
X192854396Y-70462705D01*
X193052843Y-69983610D01*
X193397550Y-69467719D01*
X193836279Y-69028990D01*
X194352170Y-68684283D01*
X194925397Y-68446845D01*
X195128242Y-68406497D01*
X195533930Y-68325800D01*
X196154390Y-68325800D01*
X196560078Y-68406497D01*
X196560078Y-68406497D01*
G37*
G36*
X204159758Y-68406497D02*
X204362603Y-68446845D01*
X204935830Y-68684283D01*
X205451721Y-69028990D01*
X205890450Y-69467719D01*
X206235157Y-69983610D01*
X206433604Y-70462705D01*
X206472595Y-70556838D01*
X206589516Y-71144636D01*
X206593640Y-71165372D01*
X206593640Y-71785828D01*
X206472595Y-72394363D01*
X206235157Y-72967590D01*
X205890450Y-73483481D01*
X205451721Y-73922210D01*
X204935830Y-74266917D01*
X204362603Y-74504355D01*
X204159758Y-74544703D01*
X203754070Y-74625400D01*
X203133610Y-74625400D01*
X202727922Y-74544703D01*
X202525077Y-74504355D01*
X201951850Y-74266917D01*
X201435959Y-73922210D01*
X200997230Y-73483481D01*
X200652523Y-72967590D01*
X200415085Y-72394363D01*
X200294040Y-71785828D01*
X200294040Y-71165372D01*
X200298165Y-71144636D01*
X200415085Y-70556838D01*
X200454076Y-70462705D01*
X200652523Y-69983610D01*
X200997230Y-69467719D01*
X201435959Y-69028990D01*
X201951850Y-68684283D01*
X202525077Y-68446845D01*
X202727922Y-68406497D01*
X203133610Y-68325800D01*
X203754070Y-68325800D01*
X204159758Y-68406497D01*
X204159758Y-68406497D01*
G37*
G36*
X246553890Y-73154017D02*
X246672361Y-73203089D01*
X246778992Y-73274338D01*
X246869662Y-73365008D01*
X246940911Y-73471639D01*
X246989983Y-73590110D01*
X247015000Y-73715881D01*
X247015000Y-73844119D01*
X246989983Y-73969890D01*
X246940911Y-74088361D01*
X246869662Y-74194992D01*
X246778992Y-74285662D01*
X246672361Y-74356911D01*
X246553890Y-74405983D01*
X246428119Y-74431000D01*
X246299881Y-74431000D01*
X246174110Y-74405983D01*
X246055639Y-74356911D01*
X245949008Y-74285662D01*
X245858338Y-74194992D01*
X245787089Y-74088361D01*
X245738017Y-73969890D01*
X245713000Y-73844119D01*
X245713000Y-73715881D01*
X245738017Y-73590110D01*
X245787089Y-73471639D01*
X245858338Y-73365008D01*
X245949008Y-73274338D01*
X246055639Y-73203089D01*
X246174110Y-73154017D01*
X246299881Y-73129000D01*
X246428119Y-73129000D01*
X246553890Y-73154017D01*
X246553890Y-73154017D01*
G37*
G36*
X244553890Y-73154017D02*
X244672361Y-73203089D01*
X244778992Y-73274338D01*
X244869662Y-73365008D01*
X244940911Y-73471639D01*
X244989983Y-73590110D01*
X245015000Y-73715881D01*
X245015000Y-73844119D01*
X244989983Y-73969890D01*
X244940911Y-74088361D01*
X244869662Y-74194992D01*
X244778992Y-74285662D01*
X244672361Y-74356911D01*
X244553890Y-74405983D01*
X244428119Y-74431000D01*
X244299881Y-74431000D01*
X244174110Y-74405983D01*
X244055639Y-74356911D01*
X243949008Y-74285662D01*
X243858338Y-74194992D01*
X243787089Y-74088361D01*
X243738017Y-73969890D01*
X243713000Y-73844119D01*
X243713000Y-73715881D01*
X243738017Y-73590110D01*
X243787089Y-73471639D01*
X243858338Y-73365008D01*
X243949008Y-73274338D01*
X244055639Y-73203089D01*
X244174110Y-73154017D01*
X244299881Y-73129000D01*
X244428119Y-73129000D01*
X244553890Y-73154017D01*
X244553890Y-73154017D01*
G37*
G36*
X210638565Y-71125389D02*
X210829834Y-71204615D01*
X211001976Y-71319637D01*
X211148363Y-71466024D01*
X211263385Y-71638166D01*
X211342611Y-71829435D01*
X211383000Y-72032484D01*
X211383000Y-72239516D01*
X211342611Y-72442565D01*
X211263385Y-72633834D01*
X211148363Y-72805976D01*
X211001976Y-72952363D01*
X210829834Y-73067385D01*
X210638565Y-73146611D01*
X210435516Y-73187000D01*
X210228484Y-73187000D01*
X210025435Y-73146611D01*
X209834166Y-73067385D01*
X209662024Y-72952363D01*
X209515637Y-72805976D01*
X209400615Y-72633834D01*
X209321389Y-72442565D01*
X209281000Y-72239516D01*
X209281000Y-72032484D01*
X209321389Y-71829435D01*
X209400615Y-71638166D01*
X209515637Y-71466024D01*
X209662024Y-71319637D01*
X209834166Y-71204615D01*
X210025435Y-71125389D01*
X210228484Y-71085000D01*
X210435516Y-71085000D01*
X210638565Y-71125389D01*
X210638565Y-71125389D01*
G37*
G36*
X218983000Y-73187000D02*
X216881000Y-73187000D01*
X216881000Y-71085000D01*
X218983000Y-71085000D01*
X218983000Y-73187000D01*
X218983000Y-73187000D01*
G37*
G36*
X184992677Y-71024465D02*
X185030364Y-71035898D01*
X185065103Y-71054466D01*
X185095548Y-71079452D01*
X185120534Y-71109897D01*
X185139102Y-71144636D01*
X185150535Y-71182323D01*
X185155000Y-71227661D01*
X185155000Y-72064339D01*
X185150535Y-72109677D01*
X185139102Y-72147364D01*
X185120534Y-72182103D01*
X185095548Y-72212548D01*
X185065103Y-72237534D01*
X185030364Y-72256102D01*
X184992677Y-72267535D01*
X184947339Y-72272000D01*
X183860661Y-72272000D01*
X183815323Y-72267535D01*
X183777636Y-72256102D01*
X183742897Y-72237534D01*
X183712452Y-72212548D01*
X183687466Y-72182103D01*
X183668898Y-72147364D01*
X183657465Y-72109677D01*
X183653000Y-72064339D01*
X183653000Y-71227661D01*
X183657465Y-71182323D01*
X183668898Y-71144636D01*
X183687466Y-71109897D01*
X183712452Y-71079452D01*
X183742897Y-71054466D01*
X183777636Y-71035898D01*
X183815323Y-71024465D01*
X183860661Y-71020000D01*
X184947339Y-71020000D01*
X184992677Y-71024465D01*
X184992677Y-71024465D01*
G37*
G36*
X245699734Y-69173232D02*
X245909202Y-69259996D01*
X246097723Y-69385962D01*
X246258038Y-69546277D01*
X246384004Y-69734798D01*
X246470768Y-69944266D01*
X246515000Y-70166635D01*
X246515000Y-70393365D01*
X246470768Y-70615734D01*
X246384004Y-70825202D01*
X246258038Y-71013723D01*
X246097723Y-71174038D01*
X245909202Y-71300004D01*
X245699734Y-71386768D01*
X245477365Y-71431000D01*
X245250635Y-71431000D01*
X245028266Y-71386768D01*
X244818798Y-71300004D01*
X244630277Y-71174038D01*
X244469962Y-71013723D01*
X244343996Y-70825202D01*
X244257232Y-70615734D01*
X244213000Y-70393365D01*
X244213000Y-70166635D01*
X244257232Y-69944266D01*
X244343996Y-69734798D01*
X244469962Y-69546277D01*
X244630277Y-69385962D01*
X244818798Y-69259996D01*
X245028266Y-69173232D01*
X245250635Y-69129000D01*
X245477365Y-69129000D01*
X245699734Y-69173232D01*
X245699734Y-69173232D01*
G37*
G36*
X190090527Y-67962736D02*
X190190410Y-67982604D01*
X190472674Y-68099521D01*
X190726705Y-68269259D01*
X190942741Y-68485295D01*
X191112479Y-68739326D01*
X191229396Y-69021590D01*
X191230960Y-69029452D01*
X191260441Y-69177661D01*
X191289000Y-69321240D01*
X191289000Y-69626760D01*
X191229396Y-69926410D01*
X191112479Y-70208674D01*
X190942741Y-70462705D01*
X190726705Y-70678741D01*
X190472674Y-70848479D01*
X190190410Y-70965396D01*
X190090527Y-70985264D01*
X189890762Y-71025000D01*
X189585238Y-71025000D01*
X189385473Y-70985264D01*
X189285590Y-70965396D01*
X189003326Y-70848479D01*
X188749295Y-70678741D01*
X188533259Y-70462705D01*
X188363521Y-70208674D01*
X188246604Y-69926410D01*
X188187000Y-69626760D01*
X188187000Y-69321240D01*
X188215560Y-69177661D01*
X188245040Y-69029452D01*
X188246604Y-69021590D01*
X188363521Y-68739326D01*
X188533259Y-68485295D01*
X188749295Y-68269259D01*
X189003326Y-68099521D01*
X189285590Y-67982604D01*
X189385473Y-67962736D01*
X189585238Y-67923000D01*
X189890762Y-67923000D01*
X190090527Y-67962736D01*
X190090527Y-67962736D01*
G37*
G36*
X184992677Y-68974465D02*
X185030364Y-68985898D01*
X185065103Y-69004466D01*
X185095548Y-69029452D01*
X185120534Y-69059897D01*
X185139102Y-69094636D01*
X185150535Y-69132323D01*
X185155000Y-69177661D01*
X185155000Y-70014339D01*
X185150535Y-70059677D01*
X185139102Y-70097364D01*
X185120534Y-70132103D01*
X185095548Y-70162548D01*
X185065103Y-70187534D01*
X185030364Y-70206102D01*
X184992677Y-70217535D01*
X184947339Y-70222000D01*
X183860661Y-70222000D01*
X183815323Y-70217535D01*
X183777636Y-70206102D01*
X183742897Y-70187534D01*
X183712452Y-70162548D01*
X183687466Y-70132103D01*
X183668898Y-70097364D01*
X183657465Y-70059677D01*
X183653000Y-70014339D01*
X183653000Y-69177661D01*
X183657465Y-69132323D01*
X183668898Y-69094636D01*
X183687466Y-69059897D01*
X183712452Y-69029452D01*
X183742897Y-69004466D01*
X183777636Y-68985898D01*
X183815323Y-68974465D01*
X183860661Y-68970000D01*
X184947339Y-68970000D01*
X184992677Y-68974465D01*
X184992677Y-68974465D01*
G37*
G36*
X217183562Y-66223681D02*
X217218477Y-66234273D01*
X217250665Y-66251478D01*
X217278873Y-66274627D01*
X217302022Y-66302835D01*
X217319227Y-66335023D01*
X217329819Y-66369938D01*
X217334000Y-66412395D01*
X217334000Y-67553605D01*
X217329819Y-67596062D01*
X217319227Y-67630977D01*
X217302022Y-67663165D01*
X217278873Y-67691373D01*
X217250665Y-67714522D01*
X217218477Y-67731727D01*
X217183562Y-67742319D01*
X217141105Y-67746500D01*
X215674895Y-67746500D01*
X215632438Y-67742319D01*
X215597523Y-67731727D01*
X215565335Y-67714522D01*
X215537127Y-67691373D01*
X215513978Y-67663165D01*
X215496773Y-67630977D01*
X215486181Y-67596062D01*
X215482000Y-67553605D01*
X215482000Y-66412395D01*
X215486181Y-66369938D01*
X215496773Y-66335023D01*
X215513978Y-66302835D01*
X215537127Y-66274627D01*
X215565335Y-66251478D01*
X215597523Y-66234273D01*
X215632438Y-66223681D01*
X215674895Y-66219500D01*
X217141105Y-66219500D01*
X217183562Y-66223681D01*
X217183562Y-66223681D01*
G37*
G36*
X213119562Y-66223681D02*
X213154477Y-66234273D01*
X213186665Y-66251478D01*
X213214873Y-66274627D01*
X213238022Y-66302835D01*
X213255227Y-66335023D01*
X213265819Y-66369938D01*
X213270000Y-66412395D01*
X213270000Y-67553605D01*
X213265819Y-67596062D01*
X213255227Y-67630977D01*
X213238022Y-67663165D01*
X213214873Y-67691373D01*
X213186665Y-67714522D01*
X213154477Y-67731727D01*
X213119562Y-67742319D01*
X213077105Y-67746500D01*
X211610895Y-67746500D01*
X211568438Y-67742319D01*
X211533523Y-67731727D01*
X211501335Y-67714522D01*
X211473127Y-67691373D01*
X211449978Y-67663165D01*
X211432773Y-67630977D01*
X211422181Y-67596062D01*
X211418000Y-67553605D01*
X211418000Y-66412395D01*
X211422181Y-66369938D01*
X211432773Y-66335023D01*
X211449978Y-66302835D01*
X211473127Y-66274627D01*
X211501335Y-66251478D01*
X211533523Y-66234273D01*
X211568438Y-66223681D01*
X211610895Y-66219500D01*
X213077105Y-66219500D01*
X213119562Y-66223681D01*
X213119562Y-66223681D01*
G37*
G36*
X206624000Y-67539000D02*
X205872000Y-67539000D01*
X205872000Y-65877000D01*
X206624000Y-65877000D01*
X206624000Y-67539000D01*
X206624000Y-67539000D01*
G37*
G36*
X208524000Y-67539000D02*
X207772000Y-67539000D01*
X207772000Y-65877000D01*
X208524000Y-65877000D01*
X208524000Y-67539000D01*
X208524000Y-67539000D01*
G37*
G36*
X221023000Y-67333000D02*
X219921000Y-67333000D01*
X219921000Y-66231000D01*
X221023000Y-66231000D01*
X221023000Y-67333000D01*
X221023000Y-67333000D01*
G37*
G36*
X203280677Y-65944465D02*
X203318364Y-65955898D01*
X203353103Y-65974466D01*
X203383548Y-65999452D01*
X203408534Y-66029897D01*
X203427102Y-66064636D01*
X203438535Y-66102323D01*
X203443000Y-66147661D01*
X203443000Y-66984339D01*
X203438535Y-67029677D01*
X203427102Y-67067364D01*
X203408534Y-67102103D01*
X203383548Y-67132548D01*
X203353103Y-67157534D01*
X203318364Y-67176102D01*
X203280677Y-67187535D01*
X203235339Y-67192000D01*
X202148661Y-67192000D01*
X202103323Y-67187535D01*
X202065636Y-67176102D01*
X202030897Y-67157534D01*
X202000452Y-67132548D01*
X201975466Y-67102103D01*
X201956898Y-67067364D01*
X201945465Y-67029677D01*
X201941000Y-66984339D01*
X201941000Y-66147661D01*
X201945465Y-66102323D01*
X201956898Y-66064636D01*
X201975466Y-66029897D01*
X202000452Y-65999452D01*
X202030897Y-65974466D01*
X202065636Y-65955898D01*
X202103323Y-65944465D01*
X202148661Y-65940000D01*
X203235339Y-65940000D01*
X203280677Y-65944465D01*
X203280677Y-65944465D01*
G37*
G36*
X203280677Y-63894465D02*
X203318364Y-63905898D01*
X203353103Y-63924466D01*
X203383548Y-63949452D01*
X203408534Y-63979897D01*
X203427102Y-64014636D01*
X203438535Y-64052323D01*
X203443000Y-64097661D01*
X203443000Y-64934339D01*
X203438535Y-64979677D01*
X203427102Y-65017364D01*
X203408534Y-65052103D01*
X203383548Y-65082548D01*
X203353103Y-65107534D01*
X203318364Y-65126102D01*
X203280677Y-65137535D01*
X203235339Y-65142000D01*
X202148661Y-65142000D01*
X202103323Y-65137535D01*
X202065636Y-65126102D01*
X202030897Y-65107534D01*
X202000452Y-65082548D01*
X201975466Y-65052103D01*
X201956898Y-65017364D01*
X201945465Y-64979677D01*
X201941000Y-64934339D01*
X201941000Y-64097661D01*
X201945465Y-64052323D01*
X201956898Y-64014636D01*
X201975466Y-63979897D01*
X202000452Y-63949452D01*
X202030897Y-63924466D01*
X202065636Y-63905898D01*
X202103323Y-63894465D01*
X202148661Y-63890000D01*
X203235339Y-63890000D01*
X203280677Y-63894465D01*
X203280677Y-63894465D01*
G37*
G36*
X208524000Y-64839000D02*
X205872000Y-64839000D01*
X205872000Y-63177000D01*
X208524000Y-63177000D01*
X208524000Y-64839000D01*
X208524000Y-64839000D01*
G37*
G36*
X221023000Y-64833000D02*
X219921000Y-64833000D01*
X219921000Y-63731000D01*
X221023000Y-63731000D01*
X221023000Y-64833000D01*
X221023000Y-64833000D01*
G37*
G36*
X217183562Y-63248681D02*
X217218477Y-63259273D01*
X217250665Y-63276478D01*
X217278873Y-63299627D01*
X217302022Y-63327835D01*
X217319227Y-63360023D01*
X217329819Y-63394938D01*
X217334000Y-63437395D01*
X217334000Y-64578605D01*
X217329819Y-64621062D01*
X217319227Y-64655977D01*
X217302022Y-64688165D01*
X217278873Y-64716373D01*
X217250665Y-64739522D01*
X217218477Y-64756727D01*
X217183562Y-64767319D01*
X217141105Y-64771500D01*
X215674895Y-64771500D01*
X215632438Y-64767319D01*
X215597523Y-64756727D01*
X215565335Y-64739522D01*
X215537127Y-64716373D01*
X215513978Y-64688165D01*
X215496773Y-64655977D01*
X215486181Y-64621062D01*
X215482000Y-64578605D01*
X215482000Y-63437395D01*
X215486181Y-63394938D01*
X215496773Y-63360023D01*
X215513978Y-63327835D01*
X215537127Y-63299627D01*
X215565335Y-63276478D01*
X215597523Y-63259273D01*
X215632438Y-63248681D01*
X215674895Y-63244500D01*
X217141105Y-63244500D01*
X217183562Y-63248681D01*
X217183562Y-63248681D01*
G37*
G36*
X213119562Y-63248681D02*
X213154477Y-63259273D01*
X213186665Y-63276478D01*
X213214873Y-63299627D01*
X213238022Y-63327835D01*
X213255227Y-63360023D01*
X213265819Y-63394938D01*
X213270000Y-63437395D01*
X213270000Y-64578605D01*
X213265819Y-64621062D01*
X213255227Y-64655977D01*
X213238022Y-64688165D01*
X213214873Y-64716373D01*
X213186665Y-64739522D01*
X213154477Y-64756727D01*
X213119562Y-64767319D01*
X213077105Y-64771500D01*
X211610895Y-64771500D01*
X211568438Y-64767319D01*
X211533523Y-64756727D01*
X211501335Y-64739522D01*
X211473127Y-64716373D01*
X211449978Y-64688165D01*
X211432773Y-64655977D01*
X211422181Y-64621062D01*
X211418000Y-64578605D01*
X211418000Y-63437395D01*
X211422181Y-63394938D01*
X211432773Y-63360023D01*
X211449978Y-63327835D01*
X211473127Y-63299627D01*
X211501335Y-63276478D01*
X211533523Y-63259273D01*
X211568438Y-63248681D01*
X211610895Y-63244500D01*
X213077105Y-63244500D01*
X213119562Y-63248681D01*
X213119562Y-63248681D01*
G37*
G36*
X183514239Y-56755467D02*
X183828282Y-56817934D01*
X184419926Y-57063001D01*
X184948802Y-57416385D01*
X184952395Y-57418786D01*
X185405214Y-57871605D01*
X185405216Y-57871608D01*
X185760999Y-58404074D01*
X186006066Y-58995718D01*
X186033647Y-59134376D01*
X186131000Y-59623803D01*
X186131000Y-60264197D01*
X186080890Y-60516118D01*
X186006066Y-60892282D01*
X185760999Y-61483926D01*
X185628220Y-61682643D01*
X185405214Y-62016395D01*
X184952395Y-62469214D01*
X184952392Y-62469216D01*
X184419926Y-62824999D01*
X183828282Y-63070066D01*
X183514239Y-63132533D01*
X183200197Y-63195000D01*
X182559803Y-63195000D01*
X182245761Y-63132533D01*
X181931718Y-63070066D01*
X181340074Y-62824999D01*
X180807608Y-62469216D01*
X180807605Y-62469214D01*
X180354786Y-62016395D01*
X180131780Y-61682643D01*
X179999001Y-61483926D01*
X179753934Y-60892282D01*
X179679110Y-60516118D01*
X179629000Y-60264197D01*
X179629000Y-59623803D01*
X179726353Y-59134376D01*
X179753934Y-58995718D01*
X179999001Y-58404074D01*
X180354784Y-57871608D01*
X180354786Y-57871605D01*
X180807605Y-57418786D01*
X180811198Y-57416385D01*
X181340074Y-57063001D01*
X181931718Y-56817934D01*
X182245761Y-56755467D01*
X182559803Y-56693000D01*
X183200197Y-56693000D01*
X183514239Y-56755467D01*
X183514239Y-56755467D01*
G37*
G36*
X247014239Y-56755467D02*
X247328282Y-56817934D01*
X247919926Y-57063001D01*
X248448802Y-57416385D01*
X248452395Y-57418786D01*
X248905214Y-57871605D01*
X248905216Y-57871608D01*
X249260999Y-58404074D01*
X249506066Y-58995718D01*
X249533647Y-59134376D01*
X249631000Y-59623803D01*
X249631000Y-60264197D01*
X249580890Y-60516118D01*
X249506066Y-60892282D01*
X249260999Y-61483926D01*
X249128220Y-61682643D01*
X248905214Y-62016395D01*
X248452395Y-62469214D01*
X248452392Y-62469216D01*
X247919926Y-62824999D01*
X247328282Y-63070066D01*
X247014239Y-63132533D01*
X246700197Y-63195000D01*
X246059803Y-63195000D01*
X245745761Y-63132533D01*
X245431718Y-63070066D01*
X244840074Y-62824999D01*
X244307608Y-62469216D01*
X244307605Y-62469214D01*
X243854786Y-62016395D01*
X243631780Y-61682643D01*
X243499001Y-61483926D01*
X243253934Y-60892282D01*
X243179110Y-60516118D01*
X243129000Y-60264197D01*
X243129000Y-59623803D01*
X243226353Y-59134376D01*
X243253934Y-58995718D01*
X243499001Y-58404074D01*
X243854784Y-57871608D01*
X243854786Y-57871605D01*
X244307605Y-57418786D01*
X244311198Y-57416385D01*
X244840074Y-57063001D01*
X245431718Y-56817934D01*
X245745761Y-56755467D01*
X246059803Y-56693000D01*
X246700197Y-56693000D01*
X247014239Y-56755467D01*
X247014239Y-56755467D01*
G37*
G36*
X197009658Y-56605657D02*
X197212503Y-56646005D01*
X197785730Y-56883443D01*
X198301621Y-57228150D01*
X198740350Y-57666879D01*
X199085057Y-58182770D01*
X199322495Y-58755997D01*
X199332841Y-58808009D01*
X199443540Y-59364530D01*
X199443540Y-59984990D01*
X199364095Y-60384383D01*
X199322495Y-60593523D01*
X199085057Y-61166750D01*
X198740350Y-61682641D01*
X198301621Y-62121370D01*
X197785730Y-62466077D01*
X197212503Y-62703515D01*
X197009658Y-62743863D01*
X196603970Y-62824560D01*
X195983510Y-62824560D01*
X195577822Y-62743863D01*
X195374977Y-62703515D01*
X194801750Y-62466077D01*
X194285859Y-62121370D01*
X193847130Y-61682641D01*
X193502423Y-61166750D01*
X193264985Y-60593523D01*
X193223385Y-60384383D01*
X193143940Y-59984990D01*
X193143940Y-59364530D01*
X193254639Y-58808009D01*
X193264985Y-58755997D01*
X193502423Y-58182770D01*
X193847130Y-57666879D01*
X194285859Y-57228150D01*
X194801750Y-56883443D01*
X195374977Y-56646005D01*
X195577822Y-56605657D01*
X195983510Y-56524960D01*
X196603970Y-56524960D01*
X197009658Y-56605657D01*
X197009658Y-56605657D01*
G37*
G36*
X218597890Y-59826017D02*
X218716361Y-59875089D01*
X218716364Y-59875091D01*
X218764817Y-59907466D01*
X218822992Y-59946338D01*
X218913662Y-60037008D01*
X218984911Y-60143639D01*
X219033983Y-60262110D01*
X219059000Y-60387881D01*
X219059000Y-60516119D01*
X219033983Y-60641890D01*
X218984911Y-60760361D01*
X218913662Y-60866992D01*
X218822992Y-60957662D01*
X218716361Y-61028911D01*
X218597890Y-61077983D01*
X218472119Y-61103000D01*
X218343881Y-61103000D01*
X218218110Y-61077983D01*
X218099639Y-61028911D01*
X217993008Y-60957662D01*
X217902338Y-60866992D01*
X217831089Y-60760361D01*
X217782017Y-60641890D01*
X217757000Y-60516119D01*
X217757000Y-60387881D01*
X217782017Y-60262110D01*
X217831089Y-60143639D01*
X217902338Y-60037008D01*
X217993008Y-59946338D01*
X218051184Y-59907466D01*
X218099636Y-59875091D01*
X218099639Y-59875089D01*
X218218110Y-59826017D01*
X218343881Y-59801000D01*
X218472119Y-59801000D01*
X218597890Y-59826017D01*
X218597890Y-59826017D01*
G37*
G36*
X214597890Y-59826017D02*
X214716361Y-59875089D01*
X214716364Y-59875091D01*
X214764817Y-59907466D01*
X214822992Y-59946338D01*
X214913662Y-60037008D01*
X214984911Y-60143639D01*
X215033983Y-60262110D01*
X215059000Y-60387881D01*
X215059000Y-60516119D01*
X215033983Y-60641890D01*
X214984911Y-60760361D01*
X214913662Y-60866992D01*
X214822992Y-60957662D01*
X214716361Y-61028911D01*
X214597890Y-61077983D01*
X214472119Y-61103000D01*
X214343881Y-61103000D01*
X214218110Y-61077983D01*
X214099639Y-61028911D01*
X213993008Y-60957662D01*
X213902338Y-60866992D01*
X213831089Y-60760361D01*
X213782017Y-60641890D01*
X213757000Y-60516119D01*
X213757000Y-60387881D01*
X213782017Y-60262110D01*
X213831089Y-60143639D01*
X213902338Y-60037008D01*
X213993008Y-59946338D01*
X214051184Y-59907466D01*
X214099636Y-59875091D01*
X214099639Y-59875089D01*
X214218110Y-59826017D01*
X214343881Y-59801000D01*
X214472119Y-59801000D01*
X214597890Y-59826017D01*
X214597890Y-59826017D01*
G37*
G36*
X216597890Y-59826017D02*
X216716361Y-59875089D01*
X216716364Y-59875091D01*
X216764817Y-59907466D01*
X216822992Y-59946338D01*
X216913662Y-60037008D01*
X216984911Y-60143639D01*
X217033983Y-60262110D01*
X217059000Y-60387881D01*
X217059000Y-60516119D01*
X217033983Y-60641890D01*
X216984911Y-60760361D01*
X216913662Y-60866992D01*
X216822992Y-60957662D01*
X216716361Y-61028911D01*
X216597890Y-61077983D01*
X216472119Y-61103000D01*
X216343881Y-61103000D01*
X216218110Y-61077983D01*
X216099639Y-61028911D01*
X215993008Y-60957662D01*
X215902338Y-60866992D01*
X215831089Y-60760361D01*
X215782017Y-60641890D01*
X215757000Y-60516119D01*
X215757000Y-60387881D01*
X215782017Y-60262110D01*
X215831089Y-60143639D01*
X215902338Y-60037008D01*
X215993008Y-59946338D01*
X216051184Y-59907466D01*
X216099636Y-59875091D01*
X216099639Y-59875089D01*
X216218110Y-59826017D01*
X216343881Y-59801000D01*
X216472119Y-59801000D01*
X216597890Y-59826017D01*
X216597890Y-59826017D01*
G37*
G36*
X211243734Y-58345232D02*
X211453202Y-58431996D01*
X211641723Y-58557962D01*
X211802038Y-58718277D01*
X211928004Y-58906798D01*
X212014768Y-59116266D01*
X212059000Y-59338635D01*
X212059000Y-59565365D01*
X212014768Y-59787734D01*
X211928004Y-59997202D01*
X211802038Y-60185723D01*
X211641723Y-60346038D01*
X211453202Y-60472004D01*
X211243734Y-60558768D01*
X211021365Y-60603000D01*
X210794635Y-60603000D01*
X210572266Y-60558768D01*
X210362798Y-60472004D01*
X210174277Y-60346038D01*
X210013962Y-60185723D01*
X209887996Y-59997202D01*
X209801232Y-59787734D01*
X209757000Y-59565365D01*
X209757000Y-59338635D01*
X209801232Y-59116266D01*
X209887996Y-58906798D01*
X210013962Y-58718277D01*
X210174277Y-58557962D01*
X210362798Y-58431996D01*
X210572266Y-58345232D01*
X210794635Y-58301000D01*
X211021365Y-58301000D01*
X211243734Y-58345232D01*
X211243734Y-58345232D01*
G37*
G36*
X222243734Y-58345232D02*
X222453202Y-58431996D01*
X222641723Y-58557962D01*
X222802038Y-58718277D01*
X222928004Y-58906798D01*
X223014768Y-59116266D01*
X223059000Y-59338635D01*
X223059000Y-59565365D01*
X223014768Y-59787734D01*
X222928004Y-59997202D01*
X222802038Y-60185723D01*
X222641723Y-60346038D01*
X222453202Y-60472004D01*
X222243734Y-60558768D01*
X222021365Y-60603000D01*
X221794635Y-60603000D01*
X221572266Y-60558768D01*
X221362798Y-60472004D01*
X221174277Y-60346038D01*
X221013962Y-60185723D01*
X220887996Y-59997202D01*
X220801232Y-59787734D01*
X220757000Y-59565365D01*
X220757000Y-59338635D01*
X220801232Y-59116266D01*
X220887996Y-58906798D01*
X221013962Y-58718277D01*
X221174277Y-58557962D01*
X221362798Y-58431996D01*
X221572266Y-58345232D01*
X221794635Y-58301000D01*
X222021365Y-58301000D01*
X222243734Y-58345232D01*
X222243734Y-58345232D01*
G37*
G36*
X230340627Y-58423037D02*
X230453853Y-58457384D01*
X230510467Y-58474557D01*
X230649087Y-58548652D01*
X230666991Y-58558222D01*
X230702729Y-58587552D01*
X230804186Y-58670814D01*
X230887448Y-58772271D01*
X230916778Y-58808009D01*
X231000443Y-58964534D01*
X231051963Y-59134374D01*
X231051963Y-59134376D01*
X231065000Y-59266741D01*
X231065000Y-59605260D01*
X231058482Y-59671442D01*
X231051963Y-59737627D01*
X231036763Y-59787734D01*
X231000443Y-59907467D01*
X230959005Y-59984990D01*
X230916778Y-60063991D01*
X230887448Y-60099729D01*
X230804186Y-60201186D01*
X230666989Y-60313779D01*
X230510466Y-60397443D01*
X230469733Y-60409799D01*
X230340626Y-60448963D01*
X230164000Y-60466359D01*
X229987373Y-60448963D01*
X229858266Y-60409799D01*
X229817533Y-60397443D01*
X229661011Y-60313779D01*
X229661009Y-60313778D01*
X229618749Y-60279096D01*
X229523814Y-60201186D01*
X229411221Y-60063989D01*
X229327557Y-59907466D01*
X229302850Y-59826017D01*
X229276037Y-59737626D01*
X229264827Y-59623804D01*
X229263000Y-59605259D01*
X229263000Y-59266740D01*
X229276037Y-59134375D01*
X229276037Y-59134373D01*
X229327557Y-58964534D01*
X229327557Y-58964533D01*
X229411222Y-58808008D01*
X229523812Y-58670817D01*
X229618750Y-58592904D01*
X229661010Y-58558222D01*
X229678914Y-58548652D01*
X229817534Y-58474557D01*
X229874148Y-58457384D01*
X229987374Y-58423037D01*
X230164000Y-58405641D01*
X230340627Y-58423037D01*
X230340627Y-58423037D01*
G37*
G36*
X232840627Y-58423037D02*
X232953853Y-58457384D01*
X233010467Y-58474557D01*
X233149087Y-58548652D01*
X233166991Y-58558222D01*
X233202729Y-58587552D01*
X233304186Y-58670814D01*
X233387448Y-58772271D01*
X233416778Y-58808009D01*
X233500443Y-58964534D01*
X233551963Y-59134374D01*
X233551963Y-59134376D01*
X233565000Y-59266741D01*
X233565000Y-59605260D01*
X233558482Y-59671442D01*
X233551963Y-59737627D01*
X233536763Y-59787734D01*
X233500443Y-59907467D01*
X233459005Y-59984990D01*
X233416778Y-60063991D01*
X233387448Y-60099729D01*
X233304186Y-60201186D01*
X233166989Y-60313779D01*
X233010466Y-60397443D01*
X232969733Y-60409799D01*
X232840626Y-60448963D01*
X232664000Y-60466359D01*
X232487373Y-60448963D01*
X232358266Y-60409799D01*
X232317533Y-60397443D01*
X232161011Y-60313779D01*
X232161009Y-60313778D01*
X232118749Y-60279096D01*
X232023814Y-60201186D01*
X231911221Y-60063989D01*
X231827557Y-59907466D01*
X231802850Y-59826017D01*
X231776037Y-59737626D01*
X231764827Y-59623804D01*
X231763000Y-59605259D01*
X231763000Y-59266740D01*
X231776037Y-59134375D01*
X231776037Y-59134373D01*
X231827557Y-58964534D01*
X231827557Y-58964533D01*
X231911222Y-58808008D01*
X232023812Y-58670817D01*
X232118750Y-58592904D01*
X232161010Y-58558222D01*
X232178914Y-58548652D01*
X232317534Y-58474557D01*
X232374148Y-58457384D01*
X232487374Y-58423037D01*
X232664000Y-58405641D01*
X232840627Y-58423037D01*
X232840627Y-58423037D01*
G37*
G36*
X235922600Y-58413989D02*
X235955649Y-58424014D01*
X235986106Y-58440294D01*
X236012799Y-58462201D01*
X236034706Y-58488894D01*
X236050986Y-58519351D01*
X236061011Y-58552400D01*
X236065000Y-58592904D01*
X236065000Y-60279096D01*
X236061011Y-60319600D01*
X236050986Y-60352649D01*
X236034706Y-60383106D01*
X236012799Y-60409799D01*
X235986106Y-60431706D01*
X235955649Y-60447986D01*
X235922600Y-60458011D01*
X235882096Y-60462000D01*
X234445904Y-60462000D01*
X234405400Y-60458011D01*
X234372351Y-60447986D01*
X234341894Y-60431706D01*
X234315201Y-60409799D01*
X234293294Y-60383106D01*
X234277014Y-60352649D01*
X234266989Y-60319600D01*
X234263000Y-60279096D01*
X234263000Y-58592904D01*
X234266989Y-58552400D01*
X234277014Y-58519351D01*
X234293294Y-58488894D01*
X234315201Y-58462201D01*
X234341894Y-58440294D01*
X234372351Y-58424014D01*
X234405400Y-58413989D01*
X234445904Y-58410000D01*
X235882096Y-58410000D01*
X235922600Y-58413989D01*
X235922600Y-58413989D01*
G37*
G36*
X219059000Y-59103000D02*
X217757000Y-59103000D01*
X217757000Y-57801000D01*
X219059000Y-57801000D01*
X219059000Y-59103000D01*
X219059000Y-59103000D01*
G37*
G36*
X214597890Y-57826017D02*
X214716361Y-57875089D01*
X214822992Y-57946338D01*
X214913662Y-58037008D01*
X214984911Y-58143639D01*
X215033983Y-58262110D01*
X215059000Y-58387881D01*
X215059000Y-58516119D01*
X215033983Y-58641890D01*
X214984911Y-58760361D01*
X214984909Y-58760364D01*
X214953074Y-58808009D01*
X214913662Y-58866992D01*
X214822992Y-58957662D01*
X214822989Y-58957664D01*
X214822988Y-58957665D01*
X214766038Y-58995718D01*
X214716361Y-59028911D01*
X214597890Y-59077983D01*
X214472119Y-59103000D01*
X214343881Y-59103000D01*
X214218110Y-59077983D01*
X214099639Y-59028911D01*
X214049962Y-58995718D01*
X213993012Y-58957665D01*
X213993011Y-58957664D01*
X213993008Y-58957662D01*
X213902338Y-58866992D01*
X213862927Y-58808009D01*
X213831091Y-58760364D01*
X213831089Y-58760361D01*
X213782017Y-58641890D01*
X213757000Y-58516119D01*
X213757000Y-58387881D01*
X213782017Y-58262110D01*
X213831089Y-58143639D01*
X213902338Y-58037008D01*
X213993008Y-57946338D01*
X214099639Y-57875089D01*
X214218110Y-57826017D01*
X214343881Y-57801000D01*
X214472119Y-57801000D01*
X214597890Y-57826017D01*
X214597890Y-57826017D01*
G37*
G36*
X216597890Y-57826017D02*
X216716361Y-57875089D01*
X216822992Y-57946338D01*
X216913662Y-58037008D01*
X216984911Y-58143639D01*
X217033983Y-58262110D01*
X217059000Y-58387881D01*
X217059000Y-58516119D01*
X217033983Y-58641890D01*
X216984911Y-58760361D01*
X216984909Y-58760364D01*
X216953074Y-58808009D01*
X216913662Y-58866992D01*
X216822992Y-58957662D01*
X216822989Y-58957664D01*
X216822988Y-58957665D01*
X216766038Y-58995718D01*
X216716361Y-59028911D01*
X216597890Y-59077983D01*
X216472119Y-59103000D01*
X216343881Y-59103000D01*
X216218110Y-59077983D01*
X216099639Y-59028911D01*
X216049962Y-58995718D01*
X215993012Y-58957665D01*
X215993011Y-58957664D01*
X215993008Y-58957662D01*
X215902338Y-58866992D01*
X215862927Y-58808009D01*
X215831091Y-58760364D01*
X215831089Y-58760361D01*
X215782017Y-58641890D01*
X215757000Y-58516119D01*
X215757000Y-58387881D01*
X215782017Y-58262110D01*
X215831089Y-58143639D01*
X215902338Y-58037008D01*
X215993008Y-57946338D01*
X216099639Y-57875089D01*
X216218110Y-57826017D01*
X216343881Y-57801000D01*
X216472119Y-57801000D01*
X216597890Y-57826017D01*
X216597890Y-57826017D01*
G37*
M02*
