%TF.GenerationSoftware,KiCad,Pcbnew,9.0.7*%
%TF.CreationDate,2026-03-19T00:12:37-04:00*%
%TF.ProjectId,remote_arming,72656d6f-7465-45f6-9172-6d696e672e6b,rev?*%
%TF.SameCoordinates,Original*%
%TF.FileFunction,Drillmap*%
%TF.FilePolarity,Positive*%
%FSLAX45Y45*%
G04 Gerber Fmt 4.5, Leading zero omitted, Abs format (unit mm)*
G04 Created by KiCad (PCBNEW 9.0.7) date 2026-03-19 00:12:37*
%MOMM*%
%LPD*%
G01*
G04 APERTURE LIST*
%ADD10C,0.150000*%
%ADD11C,0.200000*%
%ADD12C,0.255000*%
G04 APERTURE END LIST*
D10*
X16325100Y-7333500D02*
G75*
G02*
X16700500Y-7708900I0J-375400D01*
G01*
X10191000Y-11480800D02*
G75*
G02*
X9810000Y-11099800I0J381000D01*
G01*
X16700500Y-11099800D02*
G75*
G02*
X16319500Y-11480800I-381000J0D01*
G01*
X16700500Y-11099800D02*
X16700500Y-7708900D01*
X9810000Y-7708900D02*
G75*
G02*
X10185400Y-7333500I375400J0D01*
G01*
X9810000Y-11099800D02*
X9810000Y-7708900D01*
X10185400Y-7333500D02*
X16325100Y-7333500D01*
X10191000Y-11480800D02*
X16319500Y-11480800D01*
D11*
D12*
X12742500Y-10677500D02*
X12997500Y-10932500D01*
X12997500Y-10677500D02*
X12742500Y-10932500D01*
X15107500Y-10677500D02*
X15362500Y-10932500D01*
X15362500Y-10677500D02*
X15107500Y-10932500D01*
D11*
X10063277Y-11799784D02*
X10063277Y-11599784D01*
X10063277Y-11599784D02*
X10110896Y-11599784D01*
X10110896Y-11599784D02*
X10139467Y-11609308D01*
X10139467Y-11609308D02*
X10158515Y-11628355D01*
X10158515Y-11628355D02*
X10168039Y-11647403D01*
X10168039Y-11647403D02*
X10177563Y-11685498D01*
X10177563Y-11685498D02*
X10177563Y-11714069D01*
X10177563Y-11714069D02*
X10168039Y-11752165D01*
X10168039Y-11752165D02*
X10158515Y-11771212D01*
X10158515Y-11771212D02*
X10139467Y-11790260D01*
X10139467Y-11790260D02*
X10110896Y-11799784D01*
X10110896Y-11799784D02*
X10063277Y-11799784D01*
X10263277Y-11799784D02*
X10263277Y-11666450D01*
X10263277Y-11704546D02*
X10272801Y-11685498D01*
X10272801Y-11685498D02*
X10282324Y-11675974D01*
X10282324Y-11675974D02*
X10301372Y-11666450D01*
X10301372Y-11666450D02*
X10320420Y-11666450D01*
X10387086Y-11799784D02*
X10387086Y-11666450D01*
X10387086Y-11599784D02*
X10377563Y-11609308D01*
X10377563Y-11609308D02*
X10387086Y-11618831D01*
X10387086Y-11618831D02*
X10396610Y-11609308D01*
X10396610Y-11609308D02*
X10387086Y-11599784D01*
X10387086Y-11599784D02*
X10387086Y-11618831D01*
X10510896Y-11799784D02*
X10491848Y-11790260D01*
X10491848Y-11790260D02*
X10482324Y-11771212D01*
X10482324Y-11771212D02*
X10482324Y-11599784D01*
X10615658Y-11799784D02*
X10596610Y-11790260D01*
X10596610Y-11790260D02*
X10587086Y-11771212D01*
X10587086Y-11771212D02*
X10587086Y-11599784D01*
X10844229Y-11799784D02*
X10844229Y-11599784D01*
X10844229Y-11599784D02*
X10910896Y-11742641D01*
X10910896Y-11742641D02*
X10977563Y-11599784D01*
X10977563Y-11599784D02*
X10977563Y-11799784D01*
X11158515Y-11799784D02*
X11158515Y-11695022D01*
X11158515Y-11695022D02*
X11148991Y-11675974D01*
X11148991Y-11675974D02*
X11129944Y-11666450D01*
X11129944Y-11666450D02*
X11091848Y-11666450D01*
X11091848Y-11666450D02*
X11072801Y-11675974D01*
X11158515Y-11790260D02*
X11139467Y-11799784D01*
X11139467Y-11799784D02*
X11091848Y-11799784D01*
X11091848Y-11799784D02*
X11072801Y-11790260D01*
X11072801Y-11790260D02*
X11063277Y-11771212D01*
X11063277Y-11771212D02*
X11063277Y-11752165D01*
X11063277Y-11752165D02*
X11072801Y-11733117D01*
X11072801Y-11733117D02*
X11091848Y-11723593D01*
X11091848Y-11723593D02*
X11139467Y-11723593D01*
X11139467Y-11723593D02*
X11158515Y-11714069D01*
X11253753Y-11666450D02*
X11253753Y-11866450D01*
X11253753Y-11675974D02*
X11272801Y-11666450D01*
X11272801Y-11666450D02*
X11310896Y-11666450D01*
X11310896Y-11666450D02*
X11329943Y-11675974D01*
X11329943Y-11675974D02*
X11339467Y-11685498D01*
X11339467Y-11685498D02*
X11348991Y-11704546D01*
X11348991Y-11704546D02*
X11348991Y-11761688D01*
X11348991Y-11761688D02*
X11339467Y-11780736D01*
X11339467Y-11780736D02*
X11329943Y-11790260D01*
X11329943Y-11790260D02*
X11310896Y-11799784D01*
X11310896Y-11799784D02*
X11272801Y-11799784D01*
X11272801Y-11799784D02*
X11253753Y-11790260D01*
X11434705Y-11780736D02*
X11444229Y-11790260D01*
X11444229Y-11790260D02*
X11434705Y-11799784D01*
X11434705Y-11799784D02*
X11425182Y-11790260D01*
X11425182Y-11790260D02*
X11434705Y-11780736D01*
X11434705Y-11780736D02*
X11434705Y-11799784D01*
X11434705Y-11675974D02*
X11444229Y-11685498D01*
X11444229Y-11685498D02*
X11434705Y-11695022D01*
X11434705Y-11695022D02*
X11425182Y-11685498D01*
X11425182Y-11685498D02*
X11434705Y-11675974D01*
X11434705Y-11675974D02*
X11434705Y-11695022D01*
X9602500Y-12028300D02*
X9802500Y-12228300D01*
X9802500Y-12028300D02*
X9602500Y-12228300D01*
X10053753Y-12038831D02*
X10063277Y-12029308D01*
X10063277Y-12029308D02*
X10082324Y-12019784D01*
X10082324Y-12019784D02*
X10129944Y-12019784D01*
X10129944Y-12019784D02*
X10148991Y-12029308D01*
X10148991Y-12029308D02*
X10158515Y-12038831D01*
X10158515Y-12038831D02*
X10168039Y-12057879D01*
X10168039Y-12057879D02*
X10168039Y-12076927D01*
X10168039Y-12076927D02*
X10158515Y-12105498D01*
X10158515Y-12105498D02*
X10044229Y-12219784D01*
X10044229Y-12219784D02*
X10168039Y-12219784D01*
X10253753Y-12200736D02*
X10263277Y-12210260D01*
X10263277Y-12210260D02*
X10253753Y-12219784D01*
X10253753Y-12219784D02*
X10244229Y-12210260D01*
X10244229Y-12210260D02*
X10253753Y-12200736D01*
X10253753Y-12200736D02*
X10253753Y-12219784D01*
X10444229Y-12019784D02*
X10348991Y-12019784D01*
X10348991Y-12019784D02*
X10339467Y-12115022D01*
X10339467Y-12115022D02*
X10348991Y-12105498D01*
X10348991Y-12105498D02*
X10368039Y-12095974D01*
X10368039Y-12095974D02*
X10415658Y-12095974D01*
X10415658Y-12095974D02*
X10434705Y-12105498D01*
X10434705Y-12105498D02*
X10444229Y-12115022D01*
X10444229Y-12115022D02*
X10453753Y-12134069D01*
X10453753Y-12134069D02*
X10453753Y-12181688D01*
X10453753Y-12181688D02*
X10444229Y-12200736D01*
X10444229Y-12200736D02*
X10434705Y-12210260D01*
X10434705Y-12210260D02*
X10415658Y-12219784D01*
X10415658Y-12219784D02*
X10368039Y-12219784D01*
X10368039Y-12219784D02*
X10348991Y-12210260D01*
X10348991Y-12210260D02*
X10339467Y-12200736D01*
X10634705Y-12019784D02*
X10539467Y-12019784D01*
X10539467Y-12019784D02*
X10529944Y-12115022D01*
X10529944Y-12115022D02*
X10539467Y-12105498D01*
X10539467Y-12105498D02*
X10558515Y-12095974D01*
X10558515Y-12095974D02*
X10606134Y-12095974D01*
X10606134Y-12095974D02*
X10625182Y-12105498D01*
X10625182Y-12105498D02*
X10634705Y-12115022D01*
X10634705Y-12115022D02*
X10644229Y-12134069D01*
X10644229Y-12134069D02*
X10644229Y-12181688D01*
X10644229Y-12181688D02*
X10634705Y-12200736D01*
X10634705Y-12200736D02*
X10625182Y-12210260D01*
X10625182Y-12210260D02*
X10606134Y-12219784D01*
X10606134Y-12219784D02*
X10558515Y-12219784D01*
X10558515Y-12219784D02*
X10539467Y-12210260D01*
X10539467Y-12210260D02*
X10529944Y-12200736D01*
X10768039Y-12019784D02*
X10787086Y-12019784D01*
X10787086Y-12019784D02*
X10806134Y-12029308D01*
X10806134Y-12029308D02*
X10815658Y-12038831D01*
X10815658Y-12038831D02*
X10825182Y-12057879D01*
X10825182Y-12057879D02*
X10834705Y-12095974D01*
X10834705Y-12095974D02*
X10834705Y-12143593D01*
X10834705Y-12143593D02*
X10825182Y-12181688D01*
X10825182Y-12181688D02*
X10815658Y-12200736D01*
X10815658Y-12200736D02*
X10806134Y-12210260D01*
X10806134Y-12210260D02*
X10787086Y-12219784D01*
X10787086Y-12219784D02*
X10768039Y-12219784D01*
X10768039Y-12219784D02*
X10748991Y-12210260D01*
X10748991Y-12210260D02*
X10739467Y-12200736D01*
X10739467Y-12200736D02*
X10729944Y-12181688D01*
X10729944Y-12181688D02*
X10720420Y-12143593D01*
X10720420Y-12143593D02*
X10720420Y-12095974D01*
X10720420Y-12095974D02*
X10729944Y-12057879D01*
X10729944Y-12057879D02*
X10739467Y-12038831D01*
X10739467Y-12038831D02*
X10748991Y-12029308D01*
X10748991Y-12029308D02*
X10768039Y-12019784D01*
X10920420Y-12219784D02*
X10920420Y-12086450D01*
X10920420Y-12105498D02*
X10929944Y-12095974D01*
X10929944Y-12095974D02*
X10948991Y-12086450D01*
X10948991Y-12086450D02*
X10977563Y-12086450D01*
X10977563Y-12086450D02*
X10996610Y-12095974D01*
X10996610Y-12095974D02*
X11006134Y-12115022D01*
X11006134Y-12115022D02*
X11006134Y-12219784D01*
X11006134Y-12115022D02*
X11015658Y-12095974D01*
X11015658Y-12095974D02*
X11034705Y-12086450D01*
X11034705Y-12086450D02*
X11063277Y-12086450D01*
X11063277Y-12086450D02*
X11082325Y-12095974D01*
X11082325Y-12095974D02*
X11091848Y-12115022D01*
X11091848Y-12115022D02*
X11091848Y-12219784D01*
X11187086Y-12219784D02*
X11187086Y-12086450D01*
X11187086Y-12105498D02*
X11196610Y-12095974D01*
X11196610Y-12095974D02*
X11215658Y-12086450D01*
X11215658Y-12086450D02*
X11244229Y-12086450D01*
X11244229Y-12086450D02*
X11263277Y-12095974D01*
X11263277Y-12095974D02*
X11272801Y-12115022D01*
X11272801Y-12115022D02*
X11272801Y-12219784D01*
X11272801Y-12115022D02*
X11282324Y-12095974D01*
X11282324Y-12095974D02*
X11301372Y-12086450D01*
X11301372Y-12086450D02*
X11329943Y-12086450D01*
X11329943Y-12086450D02*
X11348991Y-12095974D01*
X11348991Y-12095974D02*
X11358515Y-12115022D01*
X11358515Y-12115022D02*
X11358515Y-12219784D01*
X11748991Y-12010260D02*
X11577563Y-12267403D01*
X12006134Y-12019784D02*
X12025182Y-12019784D01*
X12025182Y-12019784D02*
X12044229Y-12029308D01*
X12044229Y-12029308D02*
X12053753Y-12038831D01*
X12053753Y-12038831D02*
X12063277Y-12057879D01*
X12063277Y-12057879D02*
X12072801Y-12095974D01*
X12072801Y-12095974D02*
X12072801Y-12143593D01*
X12072801Y-12143593D02*
X12063277Y-12181688D01*
X12063277Y-12181688D02*
X12053753Y-12200736D01*
X12053753Y-12200736D02*
X12044229Y-12210260D01*
X12044229Y-12210260D02*
X12025182Y-12219784D01*
X12025182Y-12219784D02*
X12006134Y-12219784D01*
X12006134Y-12219784D02*
X11987086Y-12210260D01*
X11987086Y-12210260D02*
X11977563Y-12200736D01*
X11977563Y-12200736D02*
X11968039Y-12181688D01*
X11968039Y-12181688D02*
X11958515Y-12143593D01*
X11958515Y-12143593D02*
X11958515Y-12095974D01*
X11958515Y-12095974D02*
X11968039Y-12057879D01*
X11968039Y-12057879D02*
X11977563Y-12038831D01*
X11977563Y-12038831D02*
X11987086Y-12029308D01*
X11987086Y-12029308D02*
X12006134Y-12019784D01*
X12158515Y-12200736D02*
X12168039Y-12210260D01*
X12168039Y-12210260D02*
X12158515Y-12219784D01*
X12158515Y-12219784D02*
X12148991Y-12210260D01*
X12148991Y-12210260D02*
X12158515Y-12200736D01*
X12158515Y-12200736D02*
X12158515Y-12219784D01*
X12358515Y-12219784D02*
X12244229Y-12219784D01*
X12301372Y-12219784D02*
X12301372Y-12019784D01*
X12301372Y-12019784D02*
X12282325Y-12048355D01*
X12282325Y-12048355D02*
X12263277Y-12067403D01*
X12263277Y-12067403D02*
X12244229Y-12076927D01*
X12482325Y-12019784D02*
X12501372Y-12019784D01*
X12501372Y-12019784D02*
X12520420Y-12029308D01*
X12520420Y-12029308D02*
X12529944Y-12038831D01*
X12529944Y-12038831D02*
X12539467Y-12057879D01*
X12539467Y-12057879D02*
X12548991Y-12095974D01*
X12548991Y-12095974D02*
X12548991Y-12143593D01*
X12548991Y-12143593D02*
X12539467Y-12181688D01*
X12539467Y-12181688D02*
X12529944Y-12200736D01*
X12529944Y-12200736D02*
X12520420Y-12210260D01*
X12520420Y-12210260D02*
X12501372Y-12219784D01*
X12501372Y-12219784D02*
X12482325Y-12219784D01*
X12482325Y-12219784D02*
X12463277Y-12210260D01*
X12463277Y-12210260D02*
X12453753Y-12200736D01*
X12453753Y-12200736D02*
X12444229Y-12181688D01*
X12444229Y-12181688D02*
X12434706Y-12143593D01*
X12434706Y-12143593D02*
X12434706Y-12095974D01*
X12434706Y-12095974D02*
X12444229Y-12057879D01*
X12444229Y-12057879D02*
X12453753Y-12038831D01*
X12453753Y-12038831D02*
X12463277Y-12029308D01*
X12463277Y-12029308D02*
X12482325Y-12019784D01*
X12672801Y-12019784D02*
X12691848Y-12019784D01*
X12691848Y-12019784D02*
X12710896Y-12029308D01*
X12710896Y-12029308D02*
X12720420Y-12038831D01*
X12720420Y-12038831D02*
X12729944Y-12057879D01*
X12729944Y-12057879D02*
X12739467Y-12095974D01*
X12739467Y-12095974D02*
X12739467Y-12143593D01*
X12739467Y-12143593D02*
X12729944Y-12181688D01*
X12729944Y-12181688D02*
X12720420Y-12200736D01*
X12720420Y-12200736D02*
X12710896Y-12210260D01*
X12710896Y-12210260D02*
X12691848Y-12219784D01*
X12691848Y-12219784D02*
X12672801Y-12219784D01*
X12672801Y-12219784D02*
X12653753Y-12210260D01*
X12653753Y-12210260D02*
X12644229Y-12200736D01*
X12644229Y-12200736D02*
X12634706Y-12181688D01*
X12634706Y-12181688D02*
X12625182Y-12143593D01*
X12625182Y-12143593D02*
X12625182Y-12095974D01*
X12625182Y-12095974D02*
X12634706Y-12057879D01*
X12634706Y-12057879D02*
X12644229Y-12038831D01*
X12644229Y-12038831D02*
X12653753Y-12029308D01*
X12653753Y-12029308D02*
X12672801Y-12019784D01*
X12910896Y-12086450D02*
X12910896Y-12219784D01*
X12863277Y-12010260D02*
X12815658Y-12153117D01*
X12815658Y-12153117D02*
X12939467Y-12153117D01*
X13006134Y-12019784D02*
X13006134Y-12057879D01*
X13082325Y-12019784D02*
X13082325Y-12057879D01*
X13377563Y-12295974D02*
X13368039Y-12286450D01*
X13368039Y-12286450D02*
X13348991Y-12257879D01*
X13348991Y-12257879D02*
X13339468Y-12238831D01*
X13339468Y-12238831D02*
X13329944Y-12210260D01*
X13329944Y-12210260D02*
X13320420Y-12162641D01*
X13320420Y-12162641D02*
X13320420Y-12124546D01*
X13320420Y-12124546D02*
X13329944Y-12076927D01*
X13329944Y-12076927D02*
X13339468Y-12048355D01*
X13339468Y-12048355D02*
X13348991Y-12029308D01*
X13348991Y-12029308D02*
X13368039Y-12000736D01*
X13368039Y-12000736D02*
X13377563Y-11991212D01*
X13444229Y-12038831D02*
X13453753Y-12029308D01*
X13453753Y-12029308D02*
X13472801Y-12019784D01*
X13472801Y-12019784D02*
X13520420Y-12019784D01*
X13520420Y-12019784D02*
X13539468Y-12029308D01*
X13539468Y-12029308D02*
X13548991Y-12038831D01*
X13548991Y-12038831D02*
X13558515Y-12057879D01*
X13558515Y-12057879D02*
X13558515Y-12076927D01*
X13558515Y-12076927D02*
X13548991Y-12105498D01*
X13548991Y-12105498D02*
X13434706Y-12219784D01*
X13434706Y-12219784D02*
X13558515Y-12219784D01*
X13796610Y-12219784D02*
X13796610Y-12019784D01*
X13882325Y-12219784D02*
X13882325Y-12115022D01*
X13882325Y-12115022D02*
X13872801Y-12095974D01*
X13872801Y-12095974D02*
X13853753Y-12086450D01*
X13853753Y-12086450D02*
X13825182Y-12086450D01*
X13825182Y-12086450D02*
X13806134Y-12095974D01*
X13806134Y-12095974D02*
X13796610Y-12105498D01*
X14006134Y-12219784D02*
X13987087Y-12210260D01*
X13987087Y-12210260D02*
X13977563Y-12200736D01*
X13977563Y-12200736D02*
X13968039Y-12181688D01*
X13968039Y-12181688D02*
X13968039Y-12124546D01*
X13968039Y-12124546D02*
X13977563Y-12105498D01*
X13977563Y-12105498D02*
X13987087Y-12095974D01*
X13987087Y-12095974D02*
X14006134Y-12086450D01*
X14006134Y-12086450D02*
X14034706Y-12086450D01*
X14034706Y-12086450D02*
X14053753Y-12095974D01*
X14053753Y-12095974D02*
X14063277Y-12105498D01*
X14063277Y-12105498D02*
X14072801Y-12124546D01*
X14072801Y-12124546D02*
X14072801Y-12181688D01*
X14072801Y-12181688D02*
X14063277Y-12200736D01*
X14063277Y-12200736D02*
X14053753Y-12210260D01*
X14053753Y-12210260D02*
X14034706Y-12219784D01*
X14034706Y-12219784D02*
X14006134Y-12219784D01*
X14187087Y-12219784D02*
X14168039Y-12210260D01*
X14168039Y-12210260D02*
X14158515Y-12191212D01*
X14158515Y-12191212D02*
X14158515Y-12019784D01*
X14339468Y-12210260D02*
X14320420Y-12219784D01*
X14320420Y-12219784D02*
X14282325Y-12219784D01*
X14282325Y-12219784D02*
X14263277Y-12210260D01*
X14263277Y-12210260D02*
X14253753Y-12191212D01*
X14253753Y-12191212D02*
X14253753Y-12115022D01*
X14253753Y-12115022D02*
X14263277Y-12095974D01*
X14263277Y-12095974D02*
X14282325Y-12086450D01*
X14282325Y-12086450D02*
X14320420Y-12086450D01*
X14320420Y-12086450D02*
X14339468Y-12095974D01*
X14339468Y-12095974D02*
X14348991Y-12115022D01*
X14348991Y-12115022D02*
X14348991Y-12134069D01*
X14348991Y-12134069D02*
X14253753Y-12153117D01*
X14425182Y-12210260D02*
X14444230Y-12219784D01*
X14444230Y-12219784D02*
X14482325Y-12219784D01*
X14482325Y-12219784D02*
X14501372Y-12210260D01*
X14501372Y-12210260D02*
X14510896Y-12191212D01*
X14510896Y-12191212D02*
X14510896Y-12181688D01*
X14510896Y-12181688D02*
X14501372Y-12162641D01*
X14501372Y-12162641D02*
X14482325Y-12153117D01*
X14482325Y-12153117D02*
X14453753Y-12153117D01*
X14453753Y-12153117D02*
X14434706Y-12143593D01*
X14434706Y-12143593D02*
X14425182Y-12124546D01*
X14425182Y-12124546D02*
X14425182Y-12115022D01*
X14425182Y-12115022D02*
X14434706Y-12095974D01*
X14434706Y-12095974D02*
X14453753Y-12086450D01*
X14453753Y-12086450D02*
X14482325Y-12086450D01*
X14482325Y-12086450D02*
X14501372Y-12095974D01*
X14577563Y-12295974D02*
X14587087Y-12286450D01*
X14587087Y-12286450D02*
X14606134Y-12257879D01*
X14606134Y-12257879D02*
X14615658Y-12238831D01*
X14615658Y-12238831D02*
X14625182Y-12210260D01*
X14625182Y-12210260D02*
X14634706Y-12162641D01*
X14634706Y-12162641D02*
X14634706Y-12124546D01*
X14634706Y-12124546D02*
X14625182Y-12076927D01*
X14625182Y-12076927D02*
X14615658Y-12048355D01*
X14615658Y-12048355D02*
X14606134Y-12029308D01*
X14606134Y-12029308D02*
X14587087Y-12000736D01*
X14587087Y-12000736D02*
X14577563Y-11991212D01*
X14939468Y-12295974D02*
X14929944Y-12286450D01*
X14929944Y-12286450D02*
X14910896Y-12257879D01*
X14910896Y-12257879D02*
X14901372Y-12238831D01*
X14901372Y-12238831D02*
X14891849Y-12210260D01*
X14891849Y-12210260D02*
X14882325Y-12162641D01*
X14882325Y-12162641D02*
X14882325Y-12124546D01*
X14882325Y-12124546D02*
X14891849Y-12076927D01*
X14891849Y-12076927D02*
X14901372Y-12048355D01*
X14901372Y-12048355D02*
X14910896Y-12029308D01*
X14910896Y-12029308D02*
X14929944Y-12000736D01*
X14929944Y-12000736D02*
X14939468Y-11991212D01*
X15015658Y-12086450D02*
X15015658Y-12219784D01*
X15015658Y-12105498D02*
X15025182Y-12095974D01*
X15025182Y-12095974D02*
X15044230Y-12086450D01*
X15044230Y-12086450D02*
X15072801Y-12086450D01*
X15072801Y-12086450D02*
X15091849Y-12095974D01*
X15091849Y-12095974D02*
X15101372Y-12115022D01*
X15101372Y-12115022D02*
X15101372Y-12219784D01*
X15225182Y-12219784D02*
X15206134Y-12210260D01*
X15206134Y-12210260D02*
X15196611Y-12200736D01*
X15196611Y-12200736D02*
X15187087Y-12181688D01*
X15187087Y-12181688D02*
X15187087Y-12124546D01*
X15187087Y-12124546D02*
X15196611Y-12105498D01*
X15196611Y-12105498D02*
X15206134Y-12095974D01*
X15206134Y-12095974D02*
X15225182Y-12086450D01*
X15225182Y-12086450D02*
X15253753Y-12086450D01*
X15253753Y-12086450D02*
X15272801Y-12095974D01*
X15272801Y-12095974D02*
X15282325Y-12105498D01*
X15282325Y-12105498D02*
X15291849Y-12124546D01*
X15291849Y-12124546D02*
X15291849Y-12181688D01*
X15291849Y-12181688D02*
X15282325Y-12200736D01*
X15282325Y-12200736D02*
X15272801Y-12210260D01*
X15272801Y-12210260D02*
X15253753Y-12219784D01*
X15253753Y-12219784D02*
X15225182Y-12219784D01*
X15348992Y-12086450D02*
X15425182Y-12086450D01*
X15377563Y-12019784D02*
X15377563Y-12191212D01*
X15377563Y-12191212D02*
X15387087Y-12210260D01*
X15387087Y-12210260D02*
X15406134Y-12219784D01*
X15406134Y-12219784D02*
X15425182Y-12219784D01*
X15644230Y-12086450D02*
X15644230Y-12286450D01*
X15644230Y-12095974D02*
X15663277Y-12086450D01*
X15663277Y-12086450D02*
X15701373Y-12086450D01*
X15701373Y-12086450D02*
X15720420Y-12095974D01*
X15720420Y-12095974D02*
X15729944Y-12105498D01*
X15729944Y-12105498D02*
X15739468Y-12124546D01*
X15739468Y-12124546D02*
X15739468Y-12181688D01*
X15739468Y-12181688D02*
X15729944Y-12200736D01*
X15729944Y-12200736D02*
X15720420Y-12210260D01*
X15720420Y-12210260D02*
X15701373Y-12219784D01*
X15701373Y-12219784D02*
X15663277Y-12219784D01*
X15663277Y-12219784D02*
X15644230Y-12210260D01*
X15853753Y-12219784D02*
X15834706Y-12210260D01*
X15834706Y-12210260D02*
X15825182Y-12191212D01*
X15825182Y-12191212D02*
X15825182Y-12019784D01*
X16015658Y-12219784D02*
X16015658Y-12115022D01*
X16015658Y-12115022D02*
X16006134Y-12095974D01*
X16006134Y-12095974D02*
X15987087Y-12086450D01*
X15987087Y-12086450D02*
X15948992Y-12086450D01*
X15948992Y-12086450D02*
X15929944Y-12095974D01*
X16015658Y-12210260D02*
X15996611Y-12219784D01*
X15996611Y-12219784D02*
X15948992Y-12219784D01*
X15948992Y-12219784D02*
X15929944Y-12210260D01*
X15929944Y-12210260D02*
X15920420Y-12191212D01*
X15920420Y-12191212D02*
X15920420Y-12172165D01*
X15920420Y-12172165D02*
X15929944Y-12153117D01*
X15929944Y-12153117D02*
X15948992Y-12143593D01*
X15948992Y-12143593D02*
X15996611Y-12143593D01*
X15996611Y-12143593D02*
X16015658Y-12134069D01*
X16082325Y-12086450D02*
X16158515Y-12086450D01*
X16110896Y-12019784D02*
X16110896Y-12191212D01*
X16110896Y-12191212D02*
X16120420Y-12210260D01*
X16120420Y-12210260D02*
X16139468Y-12219784D01*
X16139468Y-12219784D02*
X16158515Y-12219784D01*
X16301373Y-12210260D02*
X16282325Y-12219784D01*
X16282325Y-12219784D02*
X16244230Y-12219784D01*
X16244230Y-12219784D02*
X16225182Y-12210260D01*
X16225182Y-12210260D02*
X16215658Y-12191212D01*
X16215658Y-12191212D02*
X16215658Y-12115022D01*
X16215658Y-12115022D02*
X16225182Y-12095974D01*
X16225182Y-12095974D02*
X16244230Y-12086450D01*
X16244230Y-12086450D02*
X16282325Y-12086450D01*
X16282325Y-12086450D02*
X16301373Y-12095974D01*
X16301373Y-12095974D02*
X16310896Y-12115022D01*
X16310896Y-12115022D02*
X16310896Y-12134069D01*
X16310896Y-12134069D02*
X16215658Y-12153117D01*
X16482325Y-12219784D02*
X16482325Y-12019784D01*
X16482325Y-12210260D02*
X16463277Y-12219784D01*
X16463277Y-12219784D02*
X16425182Y-12219784D01*
X16425182Y-12219784D02*
X16406134Y-12210260D01*
X16406134Y-12210260D02*
X16396611Y-12200736D01*
X16396611Y-12200736D02*
X16387087Y-12181688D01*
X16387087Y-12181688D02*
X16387087Y-12124546D01*
X16387087Y-12124546D02*
X16396611Y-12105498D01*
X16396611Y-12105498D02*
X16406134Y-12095974D01*
X16406134Y-12095974D02*
X16425182Y-12086450D01*
X16425182Y-12086450D02*
X16463277Y-12086450D01*
X16463277Y-12086450D02*
X16482325Y-12095974D01*
X16558515Y-12295974D02*
X16568039Y-12286450D01*
X16568039Y-12286450D02*
X16587087Y-12257879D01*
X16587087Y-12257879D02*
X16596611Y-12238831D01*
X16596611Y-12238831D02*
X16606134Y-12210260D01*
X16606134Y-12210260D02*
X16615658Y-12162641D01*
X16615658Y-12162641D02*
X16615658Y-12124546D01*
X16615658Y-12124546D02*
X16606134Y-12076927D01*
X16606134Y-12076927D02*
X16596611Y-12048355D01*
X16596611Y-12048355D02*
X16587087Y-12029308D01*
X16587087Y-12029308D02*
X16568039Y-12000736D01*
X16568039Y-12000736D02*
X16558515Y-11991212D01*
M02*
