G04 #@! TF.GenerationSoftware,KiCad,Pcbnew,(5.0.0-3-g5ebb6b6)*
G04 #@! TF.CreationDate,2018-11-03T13:26:03-04:00*
G04 #@! TF.ProjectId,vent,76656E742E6B696361645F7063620000,rev?*
G04 #@! TF.SameCoordinates,Original*
G04 #@! TF.FileFunction,Paste,Bot*
G04 #@! TF.FilePolarity,Positive*
%FSLAX46Y46*%
G04 Gerber Fmt 4.6, Leading zero omitted, Abs format (unit mm)*
G04 Created by KiCad (PCBNEW (5.0.0-3-g5ebb6b6)) date Saturday, November 03, 2018 at 01:26:03 PM*
%MOMM*%
%LPD*%
G01*
G04 APERTURE LIST*
%ADD10R,1.300000X1.500000*%
%ADD11R,2.000000X1.000000*%
%ADD12C,0.100000*%
%ADD13C,1.150000*%
%ADD14C,1.425000*%
%ADD15R,1.560000X0.650000*%
%ADD16R,1.900000X0.800000*%
%ADD17R,1.500000X1.300000*%
%ADD18R,2.000000X1.700000*%
G04 APERTURE END LIST*
D10*
G04 #@! TO.C,R8*
X152781000Y-78994000D03*
X152781000Y-76294000D03*
G04 #@! TD*
D11*
G04 #@! TO.C,J3*
X139446000Y-88011000D03*
X139446000Y-90551000D03*
X139446000Y-93091000D03*
X139446000Y-95631000D03*
X139446000Y-98171000D03*
G04 #@! TD*
D12*
G04 #@! TO.C,C1*
G36*
X145254505Y-71308204D02*
X145278773Y-71311804D01*
X145302572Y-71317765D01*
X145325671Y-71326030D01*
X145347850Y-71336520D01*
X145368893Y-71349132D01*
X145388599Y-71363747D01*
X145406777Y-71380223D01*
X145423253Y-71398401D01*
X145437868Y-71418107D01*
X145450480Y-71439150D01*
X145460970Y-71461329D01*
X145469235Y-71484428D01*
X145475196Y-71508227D01*
X145478796Y-71532495D01*
X145480000Y-71556999D01*
X145480000Y-72207001D01*
X145478796Y-72231505D01*
X145475196Y-72255773D01*
X145469235Y-72279572D01*
X145460970Y-72302671D01*
X145450480Y-72324850D01*
X145437868Y-72345893D01*
X145423253Y-72365599D01*
X145406777Y-72383777D01*
X145388599Y-72400253D01*
X145368893Y-72414868D01*
X145347850Y-72427480D01*
X145325671Y-72437970D01*
X145302572Y-72446235D01*
X145278773Y-72452196D01*
X145254505Y-72455796D01*
X145230001Y-72457000D01*
X144329999Y-72457000D01*
X144305495Y-72455796D01*
X144281227Y-72452196D01*
X144257428Y-72446235D01*
X144234329Y-72437970D01*
X144212150Y-72427480D01*
X144191107Y-72414868D01*
X144171401Y-72400253D01*
X144153223Y-72383777D01*
X144136747Y-72365599D01*
X144122132Y-72345893D01*
X144109520Y-72324850D01*
X144099030Y-72302671D01*
X144090765Y-72279572D01*
X144084804Y-72255773D01*
X144081204Y-72231505D01*
X144080000Y-72207001D01*
X144080000Y-71556999D01*
X144081204Y-71532495D01*
X144084804Y-71508227D01*
X144090765Y-71484428D01*
X144099030Y-71461329D01*
X144109520Y-71439150D01*
X144122132Y-71418107D01*
X144136747Y-71398401D01*
X144153223Y-71380223D01*
X144171401Y-71363747D01*
X144191107Y-71349132D01*
X144212150Y-71336520D01*
X144234329Y-71326030D01*
X144257428Y-71317765D01*
X144281227Y-71311804D01*
X144305495Y-71308204D01*
X144329999Y-71307000D01*
X145230001Y-71307000D01*
X145254505Y-71308204D01*
X145254505Y-71308204D01*
G37*
D13*
X144780000Y-71882000D03*
D12*
G36*
X145254505Y-73358204D02*
X145278773Y-73361804D01*
X145302572Y-73367765D01*
X145325671Y-73376030D01*
X145347850Y-73386520D01*
X145368893Y-73399132D01*
X145388599Y-73413747D01*
X145406777Y-73430223D01*
X145423253Y-73448401D01*
X145437868Y-73468107D01*
X145450480Y-73489150D01*
X145460970Y-73511329D01*
X145469235Y-73534428D01*
X145475196Y-73558227D01*
X145478796Y-73582495D01*
X145480000Y-73606999D01*
X145480000Y-74257001D01*
X145478796Y-74281505D01*
X145475196Y-74305773D01*
X145469235Y-74329572D01*
X145460970Y-74352671D01*
X145450480Y-74374850D01*
X145437868Y-74395893D01*
X145423253Y-74415599D01*
X145406777Y-74433777D01*
X145388599Y-74450253D01*
X145368893Y-74464868D01*
X145347850Y-74477480D01*
X145325671Y-74487970D01*
X145302572Y-74496235D01*
X145278773Y-74502196D01*
X145254505Y-74505796D01*
X145230001Y-74507000D01*
X144329999Y-74507000D01*
X144305495Y-74505796D01*
X144281227Y-74502196D01*
X144257428Y-74496235D01*
X144234329Y-74487970D01*
X144212150Y-74477480D01*
X144191107Y-74464868D01*
X144171401Y-74450253D01*
X144153223Y-74433777D01*
X144136747Y-74415599D01*
X144122132Y-74395893D01*
X144109520Y-74374850D01*
X144099030Y-74352671D01*
X144090765Y-74329572D01*
X144084804Y-74305773D01*
X144081204Y-74281505D01*
X144080000Y-74257001D01*
X144080000Y-73606999D01*
X144081204Y-73582495D01*
X144084804Y-73558227D01*
X144090765Y-73534428D01*
X144099030Y-73511329D01*
X144109520Y-73489150D01*
X144122132Y-73468107D01*
X144136747Y-73448401D01*
X144153223Y-73430223D01*
X144171401Y-73413747D01*
X144191107Y-73399132D01*
X144212150Y-73386520D01*
X144234329Y-73376030D01*
X144257428Y-73367765D01*
X144281227Y-73361804D01*
X144305495Y-73358204D01*
X144329999Y-73357000D01*
X145230001Y-73357000D01*
X145254505Y-73358204D01*
X145254505Y-73358204D01*
G37*
D13*
X144780000Y-73932000D03*
G04 #@! TD*
D12*
G04 #@! TO.C,F2*
G36*
X135796004Y-67452204D02*
X135820273Y-67455804D01*
X135844071Y-67461765D01*
X135867171Y-67470030D01*
X135889349Y-67480520D01*
X135910393Y-67493133D01*
X135930098Y-67507747D01*
X135948277Y-67524223D01*
X135964753Y-67542402D01*
X135979367Y-67562107D01*
X135991980Y-67583151D01*
X136002470Y-67605329D01*
X136010735Y-67628429D01*
X136016696Y-67652227D01*
X136020296Y-67676496D01*
X136021500Y-67701000D01*
X136021500Y-68951000D01*
X136020296Y-68975504D01*
X136016696Y-68999773D01*
X136010735Y-69023571D01*
X136002470Y-69046671D01*
X135991980Y-69068849D01*
X135979367Y-69089893D01*
X135964753Y-69109598D01*
X135948277Y-69127777D01*
X135930098Y-69144253D01*
X135910393Y-69158867D01*
X135889349Y-69171480D01*
X135867171Y-69181970D01*
X135844071Y-69190235D01*
X135820273Y-69196196D01*
X135796004Y-69199796D01*
X135771500Y-69201000D01*
X134846500Y-69201000D01*
X134821996Y-69199796D01*
X134797727Y-69196196D01*
X134773929Y-69190235D01*
X134750829Y-69181970D01*
X134728651Y-69171480D01*
X134707607Y-69158867D01*
X134687902Y-69144253D01*
X134669723Y-69127777D01*
X134653247Y-69109598D01*
X134638633Y-69089893D01*
X134626020Y-69068849D01*
X134615530Y-69046671D01*
X134607265Y-69023571D01*
X134601304Y-68999773D01*
X134597704Y-68975504D01*
X134596500Y-68951000D01*
X134596500Y-67701000D01*
X134597704Y-67676496D01*
X134601304Y-67652227D01*
X134607265Y-67628429D01*
X134615530Y-67605329D01*
X134626020Y-67583151D01*
X134638633Y-67562107D01*
X134653247Y-67542402D01*
X134669723Y-67524223D01*
X134687902Y-67507747D01*
X134707607Y-67493133D01*
X134728651Y-67480520D01*
X134750829Y-67470030D01*
X134773929Y-67461765D01*
X134797727Y-67455804D01*
X134821996Y-67452204D01*
X134846500Y-67451000D01*
X135771500Y-67451000D01*
X135796004Y-67452204D01*
X135796004Y-67452204D01*
G37*
D14*
X135309000Y-68326000D03*
D12*
G36*
X132821004Y-67452204D02*
X132845273Y-67455804D01*
X132869071Y-67461765D01*
X132892171Y-67470030D01*
X132914349Y-67480520D01*
X132935393Y-67493133D01*
X132955098Y-67507747D01*
X132973277Y-67524223D01*
X132989753Y-67542402D01*
X133004367Y-67562107D01*
X133016980Y-67583151D01*
X133027470Y-67605329D01*
X133035735Y-67628429D01*
X133041696Y-67652227D01*
X133045296Y-67676496D01*
X133046500Y-67701000D01*
X133046500Y-68951000D01*
X133045296Y-68975504D01*
X133041696Y-68999773D01*
X133035735Y-69023571D01*
X133027470Y-69046671D01*
X133016980Y-69068849D01*
X133004367Y-69089893D01*
X132989753Y-69109598D01*
X132973277Y-69127777D01*
X132955098Y-69144253D01*
X132935393Y-69158867D01*
X132914349Y-69171480D01*
X132892171Y-69181970D01*
X132869071Y-69190235D01*
X132845273Y-69196196D01*
X132821004Y-69199796D01*
X132796500Y-69201000D01*
X131871500Y-69201000D01*
X131846996Y-69199796D01*
X131822727Y-69196196D01*
X131798929Y-69190235D01*
X131775829Y-69181970D01*
X131753651Y-69171480D01*
X131732607Y-69158867D01*
X131712902Y-69144253D01*
X131694723Y-69127777D01*
X131678247Y-69109598D01*
X131663633Y-69089893D01*
X131651020Y-69068849D01*
X131640530Y-69046671D01*
X131632265Y-69023571D01*
X131626304Y-68999773D01*
X131622704Y-68975504D01*
X131621500Y-68951000D01*
X131621500Y-67701000D01*
X131622704Y-67676496D01*
X131626304Y-67652227D01*
X131632265Y-67628429D01*
X131640530Y-67605329D01*
X131651020Y-67583151D01*
X131663633Y-67562107D01*
X131678247Y-67542402D01*
X131694723Y-67524223D01*
X131712902Y-67507747D01*
X131732607Y-67493133D01*
X131753651Y-67480520D01*
X131775829Y-67470030D01*
X131798929Y-67461765D01*
X131822727Y-67455804D01*
X131846996Y-67452204D01*
X131871500Y-67451000D01*
X132796500Y-67451000D01*
X132821004Y-67452204D01*
X132821004Y-67452204D01*
G37*
D14*
X132334000Y-68326000D03*
G04 #@! TD*
D15*
G04 #@! TO.C,U1*
X138985000Y-74102000D03*
X138985000Y-73152000D03*
X138985000Y-72202000D03*
X141685000Y-72202000D03*
X141685000Y-74102000D03*
G04 #@! TD*
D16*
G04 #@! TO.C,Q1*
X153718000Y-102550000D03*
X156718000Y-103500000D03*
X156718000Y-101600000D03*
G04 #@! TD*
G04 #@! TO.C,Q2*
X156797000Y-114239000D03*
X156797000Y-116139000D03*
X153797000Y-115189000D03*
G04 #@! TD*
G04 #@! TO.C,Q7*
X165354000Y-101473000D03*
X165354000Y-103373000D03*
X162354000Y-102423000D03*
G04 #@! TD*
G04 #@! TO.C,Q8*
X162330000Y-115189000D03*
X165330000Y-116139000D03*
X165330000Y-114239000D03*
G04 #@! TD*
D17*
G04 #@! TO.C,R21*
X162687000Y-88900000D03*
X165387000Y-88900000D03*
G04 #@! TD*
D10*
G04 #@! TO.C,R3*
X158750000Y-78867000D03*
X158750000Y-76167000D03*
G04 #@! TD*
G04 #@! TO.C,R4*
X165354000Y-78867000D03*
X165354000Y-76167000D03*
G04 #@! TD*
G04 #@! TO.C,R9*
X149352000Y-78994000D03*
X149352000Y-76294000D03*
G04 #@! TD*
D17*
G04 #@! TO.C,R10*
X154018000Y-92329000D03*
X156718000Y-92329000D03*
G04 #@! TD*
G04 #@! TO.C,R11*
X154051000Y-98425000D03*
X156751000Y-98425000D03*
G04 #@! TD*
G04 #@! TO.C,R12*
X153924000Y-88900000D03*
X156624000Y-88900000D03*
G04 #@! TD*
G04 #@! TO.C,R13*
X154051000Y-107696000D03*
X156751000Y-107696000D03*
G04 #@! TD*
G04 #@! TO.C,R14*
X156751000Y-110998000D03*
X154051000Y-110998000D03*
G04 #@! TD*
G04 #@! TO.C,R15*
X165514000Y-95377000D03*
X162814000Y-95377000D03*
G04 #@! TD*
G04 #@! TO.C,R16*
X165481000Y-98425000D03*
X162781000Y-98425000D03*
G04 #@! TD*
G04 #@! TO.C,R17*
X162781000Y-92329000D03*
X165481000Y-92329000D03*
G04 #@! TD*
G04 #@! TO.C,R18*
X165354000Y-107696000D03*
X162654000Y-107696000D03*
G04 #@! TD*
G04 #@! TO.C,R19*
X162654000Y-110998000D03*
X165354000Y-110998000D03*
G04 #@! TD*
D10*
G04 #@! TO.C,R2*
X162179000Y-78900000D03*
X162179000Y-76200000D03*
G04 #@! TD*
D17*
G04 #@! TO.C,R20*
X156718000Y-95377000D03*
X154018000Y-95377000D03*
G04 #@! TD*
D18*
G04 #@! TO.C,R1*
X139002000Y-68326000D03*
X143002000Y-68326000D03*
G04 #@! TD*
M02*
