G04 #@! TF.GenerationSoftware,KiCad,Pcbnew,(6.0.10)*
G04 #@! TF.CreationDate,2023-01-26T22:30:24-05:00*
G04 #@! TF.ProjectId,telemetry_transmitter,74656c65-6d65-4747-9279-5f7472616e73,rev?*
G04 #@! TF.SameCoordinates,Original*
G04 #@! TF.FileFunction,Copper,L1,Top*
G04 #@! TF.FilePolarity,Positive*
%FSLAX46Y46*%
G04 Gerber Fmt 4.6, Leading zero omitted, Abs format (unit mm)*
G04 Created by KiCad (PCBNEW (6.0.10)) date 2023-01-26 22:30:24*
%MOMM*%
%LPD*%
G01*
G04 APERTURE LIST*
G04 Aperture macros list*
%AMRoundRect*
0 Rectangle with rounded corners*
0 $1 Rounding radius*
0 $2 $3 $4 $5 $6 $7 $8 $9 X,Y pos of 4 corners*
0 Add a 4 corners polygon primitive as box body*
4,1,4,$2,$3,$4,$5,$6,$7,$8,$9,$2,$3,0*
0 Add four circle primitives for the rounded corners*
1,1,$1+$1,$2,$3*
1,1,$1+$1,$4,$5*
1,1,$1+$1,$6,$7*
1,1,$1+$1,$8,$9*
0 Add four rect primitives between the rounded corners*
20,1,$1+$1,$2,$3,$4,$5,0*
20,1,$1+$1,$4,$5,$6,$7,0*
20,1,$1+$1,$6,$7,$8,$9,0*
20,1,$1+$1,$8,$9,$2,$3,0*%
G04 Aperture macros list end*
G04 #@! TA.AperFunction,ComponentPad*
%ADD10C,2.600000*%
G04 #@! TD*
G04 #@! TA.AperFunction,ComponentPad*
%ADD11R,1.700000X1.700000*%
G04 #@! TD*
G04 #@! TA.AperFunction,ComponentPad*
%ADD12O,1.700000X1.700000*%
G04 #@! TD*
G04 #@! TA.AperFunction,SMDPad,CuDef*
%ADD13RoundRect,0.250000X0.325000X0.450000X-0.325000X0.450000X-0.325000X-0.450000X0.325000X-0.450000X0*%
G04 #@! TD*
G04 #@! TA.AperFunction,ComponentPad*
%ADD14R,1.600000X1.600000*%
G04 #@! TD*
G04 #@! TA.AperFunction,ComponentPad*
%ADD15C,1.600000*%
G04 #@! TD*
G04 #@! TA.AperFunction,SMDPad,CuDef*
%ADD16RoundRect,0.250000X-0.450000X0.325000X-0.450000X-0.325000X0.450000X-0.325000X0.450000X0.325000X0*%
G04 #@! TD*
G04 #@! TA.AperFunction,SMDPad,CuDef*
%ADD17RoundRect,0.150000X-0.750000X-0.150000X0.750000X-0.150000X0.750000X0.150000X-0.750000X0.150000X0*%
G04 #@! TD*
G04 #@! TA.AperFunction,ComponentPad*
%ADD18C,1.500000*%
G04 #@! TD*
G04 #@! TA.AperFunction,ConnectorPad*
%ADD19C,5.600000*%
G04 #@! TD*
G04 #@! TA.AperFunction,ComponentPad*
%ADD20C,3.600000*%
G04 #@! TD*
G04 #@! TA.AperFunction,SMDPad,CuDef*
%ADD21RoundRect,0.250001X-0.462499X-0.624999X0.462499X-0.624999X0.462499X0.624999X-0.462499X0.624999X0*%
G04 #@! TD*
G04 #@! TA.AperFunction,ComponentPad*
%ADD22R,1.200000X1.200000*%
G04 #@! TD*
G04 #@! TA.AperFunction,ComponentPad*
%ADD23C,1.200000*%
G04 #@! TD*
G04 #@! TA.AperFunction,ViaPad*
%ADD24C,0.800000*%
G04 #@! TD*
G04 #@! TA.AperFunction,Conductor*
%ADD25C,0.355600*%
G04 #@! TD*
G04 #@! TA.AperFunction,Conductor*
%ADD26C,0.508000*%
G04 #@! TD*
G04 APERTURE END LIST*
D10*
X199000000Y-88750000D03*
X194000000Y-88750000D03*
D11*
X199125000Y-108375000D03*
D12*
X199125000Y-110915000D03*
X201665000Y-108375000D03*
X201665000Y-110915000D03*
X204205000Y-108375000D03*
X204205000Y-110915000D03*
X206745000Y-108375000D03*
X206745000Y-110915000D03*
X209285000Y-108375000D03*
X209285000Y-110915000D03*
X211825000Y-108375000D03*
X211825000Y-110915000D03*
X214365000Y-108375000D03*
X214365000Y-110915000D03*
X216905000Y-108375000D03*
X216905000Y-110915000D03*
D13*
X193500000Y-97250000D03*
X191450000Y-97250000D03*
D14*
X221338606Y-95500000D03*
D15*
X223838606Y-95500000D03*
D16*
X217000000Y-97975000D03*
X217000000Y-100025000D03*
D14*
X192500000Y-108000000D03*
D15*
X192500000Y-110500000D03*
D13*
X193500000Y-102250000D03*
X191450000Y-102250000D03*
D17*
X203700000Y-87745000D03*
X203700000Y-89015000D03*
X203700000Y-90285000D03*
X203700000Y-91555000D03*
X203700000Y-92825000D03*
X203700000Y-94095000D03*
X203700000Y-95365000D03*
X203700000Y-96635000D03*
X203700000Y-97905000D03*
X203700000Y-99175000D03*
X203700000Y-100445000D03*
X203700000Y-101715000D03*
X203700000Y-102985000D03*
X203700000Y-104255000D03*
X213300000Y-104255000D03*
X213300000Y-102985000D03*
X213300000Y-101715000D03*
X213300000Y-100445000D03*
X213300000Y-99175000D03*
X213300000Y-97905000D03*
X213300000Y-96635000D03*
X213300000Y-95365000D03*
X213300000Y-94095000D03*
X213300000Y-92825000D03*
X213300000Y-91555000D03*
X213300000Y-90285000D03*
X213300000Y-89015000D03*
X213300000Y-87745000D03*
D18*
X198000000Y-97300000D03*
X198000000Y-102180000D03*
D19*
X226060000Y-88900000D03*
D20*
X226060000Y-88900000D03*
D19*
X187960000Y-116840000D03*
D20*
X187960000Y-116840000D03*
D19*
X187960000Y-88900000D03*
D20*
X187960000Y-88900000D03*
D21*
X226055000Y-106250000D03*
X229030000Y-106250000D03*
X226012500Y-101365000D03*
X228987500Y-101365000D03*
X226012500Y-111000000D03*
X228987500Y-111000000D03*
D22*
X184500000Y-99000000D03*
D23*
X184500000Y-101000000D03*
X184500000Y-103000000D03*
X186500000Y-99000000D03*
X186500000Y-101000000D03*
X186500000Y-103000000D03*
D13*
X222317500Y-106250000D03*
X220267500Y-106250000D03*
X222287500Y-101314360D03*
X220237500Y-101314360D03*
X222275000Y-111000000D03*
X220225000Y-111000000D03*
D20*
X226060000Y-116840000D03*
D19*
X226060000Y-116840000D03*
D24*
X201000000Y-100500000D03*
X213200000Y-105900000D03*
X196000000Y-103300000D03*
X197000000Y-104000000D03*
X196000000Y-101500000D03*
X205500000Y-98600000D03*
X198500000Y-95500000D03*
X198500000Y-104000000D03*
X200500000Y-96500000D03*
X200000000Y-101500000D03*
X217864223Y-105439516D03*
X196000000Y-100000000D03*
X197000000Y-95500000D03*
X202125000Y-113865000D03*
X199500000Y-96000000D03*
X196000000Y-96300000D03*
X199500000Y-103000000D03*
X201500000Y-97000000D03*
X196000000Y-98500000D03*
X200500000Y-112200000D03*
X218500000Y-99000000D03*
X225500000Y-108750000D03*
X190300000Y-110200000D03*
X209700000Y-90300000D03*
X205600000Y-92000000D03*
X201600000Y-104900000D03*
X219750000Y-99250000D03*
X216750000Y-96500000D03*
X215250000Y-96500000D03*
X202161000Y-116905000D03*
X202161000Y-118175000D03*
X196200000Y-111200000D03*
X201500000Y-103750000D03*
X221000000Y-118800000D03*
X192000000Y-94100000D03*
D25*
X193550000Y-97300000D02*
X193500000Y-97250000D01*
X199800000Y-97300000D02*
X198000000Y-97300000D01*
X200405000Y-97905000D02*
X199800000Y-97300000D01*
X203700000Y-97905000D02*
X200405000Y-97905000D01*
X198000000Y-97300000D02*
X193550000Y-97300000D01*
X198000000Y-102180000D02*
X197902200Y-102277800D01*
X197902200Y-102277800D02*
X193527800Y-102277800D01*
X203700000Y-99175000D02*
X201005000Y-99175000D01*
X193527800Y-102277800D02*
X193500000Y-102250000D01*
X201005000Y-99175000D02*
X198000000Y-102180000D01*
X192300000Y-112200000D02*
X190300000Y-110200000D01*
X200500000Y-112200000D02*
X192300000Y-112200000D01*
X227500000Y-109512500D02*
X228987500Y-111000000D01*
X214655000Y-97905000D02*
X216930000Y-97905000D01*
X214655000Y-97905000D02*
X215750000Y-99000000D01*
X229030000Y-106250000D02*
X228750000Y-106250000D01*
X226750000Y-108750000D02*
X225500000Y-108750000D01*
X227500000Y-109512500D02*
X227500000Y-109500000D01*
X227500000Y-102852500D02*
X227500000Y-105000000D01*
X228987500Y-101365000D02*
X227500000Y-102852500D01*
X228750000Y-106250000D02*
X227500000Y-105000000D01*
X227500000Y-109500000D02*
X226750000Y-108750000D01*
X215750000Y-99000000D02*
X218500000Y-99000000D01*
X216930000Y-97905000D02*
X217000000Y-97975000D01*
X213300000Y-97905000D02*
X214655000Y-97905000D01*
X227500000Y-105000000D02*
X227500000Y-109512500D01*
X208000000Y-92000000D02*
X209700000Y-90300000D01*
X205600000Y-92000000D02*
X208000000Y-92000000D01*
X186782819Y-97900000D02*
X189600000Y-100717181D01*
X189600000Y-100717181D02*
X189600000Y-107322400D01*
X193677800Y-109177800D02*
X197955600Y-104900000D01*
X185600000Y-97900000D02*
X186782819Y-97900000D01*
X191455400Y-109177800D02*
X193677800Y-109177800D01*
X184500000Y-99000000D02*
X185600000Y-97900000D01*
X189600000Y-107322400D02*
X191455400Y-109177800D01*
X197955600Y-104900000D02*
X201600000Y-104900000D01*
X226012500Y-101365000D02*
X222338140Y-101365000D01*
X222338140Y-101365000D02*
X222287500Y-101314360D01*
X222317500Y-106250000D02*
X226055000Y-106250000D01*
X226012500Y-111000000D02*
X222275000Y-111000000D01*
X219750000Y-99250000D02*
X219750000Y-87500000D01*
X205695000Y-85750000D02*
X203700000Y-87745000D01*
X219750000Y-87500000D02*
X217750000Y-85750000D01*
X217750000Y-85750000D02*
X205695000Y-85750000D01*
X214995000Y-87745000D02*
X213300000Y-87745000D01*
X216750000Y-89500000D02*
X214995000Y-87745000D01*
X216750000Y-96500000D02*
X216750000Y-89500000D01*
X215250000Y-96500000D02*
X215250000Y-89750000D01*
X215250000Y-89750000D02*
X214515000Y-89015000D01*
X214515000Y-89015000D02*
X213300000Y-89015000D01*
D26*
X190421000Y-105921000D02*
X192500000Y-108000000D01*
X190421000Y-92329000D02*
X190421000Y-105921000D01*
X194000000Y-88750000D02*
X190421000Y-92329000D01*
D25*
X189000000Y-103500000D02*
X186500000Y-101000000D01*
X194905000Y-116905000D02*
X189000000Y-111000000D01*
X202161000Y-116905000D02*
X194905000Y-116905000D01*
X189000000Y-111000000D02*
X189000000Y-103500000D01*
X195389262Y-118175000D02*
X188367181Y-111152919D01*
X185477800Y-103360619D02*
X185477800Y-100022200D01*
X188367181Y-106250000D02*
X185477800Y-103360619D01*
X202161000Y-118175000D02*
X195389262Y-118175000D01*
X185477800Y-100022200D02*
X186500000Y-99000000D01*
X188367181Y-111152919D02*
X188367181Y-106250000D01*
X213300000Y-100445000D02*
X215757157Y-100445000D01*
X216626517Y-101314360D02*
X220237500Y-101314360D01*
X215757157Y-100445000D02*
X216626517Y-101314360D01*
X213300000Y-101715000D02*
X215732500Y-101715000D01*
X215732500Y-101715000D02*
X220267500Y-106250000D01*
X213300000Y-102985000D02*
X213985000Y-102985000D01*
X220225000Y-109225000D02*
X220225000Y-111000000D01*
X213985000Y-102985000D02*
X220225000Y-109225000D01*
X211152800Y-105966428D02*
X213137200Y-107950828D01*
X211152800Y-97135778D02*
X211152800Y-105966428D01*
X213137200Y-109687200D02*
X214365000Y-110915000D01*
X212923578Y-95365000D02*
X211152800Y-97135778D01*
X213300000Y-95365000D02*
X212923578Y-95365000D01*
X213137200Y-107950828D02*
X213137200Y-109687200D01*
X208057200Y-112142800D02*
X206236428Y-112142800D01*
X209285000Y-110915000D02*
X208057200Y-112142800D01*
X205517200Y-107282800D02*
X209486000Y-103314000D01*
X206236428Y-112142800D02*
X205517200Y-111423572D01*
X209486000Y-94992578D02*
X212923578Y-91555000D01*
X212923578Y-91555000D02*
X213300000Y-91555000D01*
X209486000Y-103314000D02*
X209486000Y-94992578D01*
X205517200Y-111423572D02*
X205517200Y-107282800D01*
X202422200Y-102327800D02*
X202422200Y-105677800D01*
X202422200Y-105677800D02*
X201072200Y-107027800D01*
X203035000Y-101715000D02*
X202422200Y-102327800D01*
X198016600Y-107027800D02*
X196200000Y-108844400D01*
X203700000Y-101715000D02*
X203035000Y-101715000D01*
X201072200Y-107027800D02*
X198372200Y-107027800D01*
X196200000Y-108844400D02*
X196200000Y-111200000D01*
X198372200Y-107027800D02*
X198016600Y-107027800D01*
X203323578Y-100445000D02*
X201500000Y-102268578D01*
X203700000Y-100445000D02*
X203323578Y-100445000D01*
X201500000Y-102268578D02*
X201500000Y-103750000D01*
X210041600Y-95706978D02*
X212923578Y-92825000D01*
X210041600Y-105158400D02*
X210041600Y-95706978D01*
X213300000Y-92825000D02*
X213275000Y-92800000D01*
X212923578Y-92825000D02*
X213300000Y-92825000D01*
X207972800Y-109687200D02*
X207972800Y-107227200D01*
X207972800Y-107227200D02*
X210041600Y-105158400D01*
X206745000Y-110915000D02*
X207972800Y-109687200D01*
X209701600Y-112698400D02*
X210597200Y-111802800D01*
X204205000Y-110915000D02*
X205988400Y-112698400D01*
X205988400Y-112698400D02*
X209701600Y-112698400D01*
X210597200Y-96421378D02*
X212923578Y-94095000D01*
X212923578Y-94095000D02*
X213300000Y-94095000D01*
X210597200Y-111802800D02*
X210597200Y-96421378D01*
X213300000Y-104255000D02*
X215677200Y-106632200D01*
X215677200Y-113477200D02*
X221000000Y-118800000D01*
X215677200Y-106632200D02*
X215677200Y-111322800D01*
X215677200Y-111322800D02*
X215677200Y-113477200D01*
X203700000Y-94095000D02*
X194992157Y-94095000D01*
X194992157Y-94095000D02*
X194987157Y-94100000D01*
X194987157Y-94100000D02*
X192000000Y-94100000D01*
G04 #@! TA.AperFunction,Conductor*
G36*
X226031644Y-83974001D02*
G01*
X226043978Y-83974001D01*
X226060000Y-83978294D01*
X226076022Y-83974001D01*
X226082464Y-83974001D01*
X226087961Y-83974121D01*
X226483930Y-83991409D01*
X226494878Y-83992367D01*
X226910139Y-84047037D01*
X226920947Y-84048943D01*
X227329855Y-84139596D01*
X227340472Y-84142441D01*
X227739924Y-84268387D01*
X227750237Y-84272140D01*
X228137215Y-84432432D01*
X228147159Y-84437070D01*
X228297719Y-84515446D01*
X228518667Y-84630464D01*
X228528187Y-84635960D01*
X228881423Y-84860997D01*
X228890427Y-84867301D01*
X229222720Y-85122277D01*
X229231137Y-85129341D01*
X229512484Y-85387147D01*
X229539930Y-85412297D01*
X229547699Y-85420066D01*
X229613504Y-85491879D01*
X229830657Y-85728860D01*
X229837723Y-85737280D01*
X230092699Y-86069573D01*
X230099003Y-86078577D01*
X230324040Y-86431813D01*
X230329535Y-86441332D01*
X230514253Y-86796171D01*
X230522926Y-86812832D01*
X230527568Y-86822785D01*
X230683579Y-87199427D01*
X230687857Y-87209755D01*
X230691613Y-87220076D01*
X230788621Y-87527746D01*
X230817559Y-87619527D01*
X230820404Y-87630144D01*
X230904837Y-88010995D01*
X230911055Y-88039044D01*
X230912963Y-88049861D01*
X230967082Y-88460935D01*
X230967633Y-88465121D01*
X230968591Y-88476071D01*
X230985879Y-88872040D01*
X230985999Y-88877536D01*
X230985999Y-88883978D01*
X230981706Y-88900000D01*
X230985999Y-88916022D01*
X230985999Y-88928356D01*
X230987100Y-88936720D01*
X230987100Y-116803280D01*
X230985999Y-116811644D01*
X230985999Y-116823978D01*
X230981706Y-116840000D01*
X230985999Y-116856022D01*
X230985999Y-116862464D01*
X230985879Y-116867960D01*
X230968591Y-117263929D01*
X230967633Y-117274878D01*
X230917525Y-117655489D01*
X230912964Y-117690131D01*
X230911057Y-117700947D01*
X230820404Y-118109855D01*
X230817559Y-118120472D01*
X230693052Y-118515362D01*
X230691616Y-118519916D01*
X230687860Y-118530237D01*
X230534712Y-118899969D01*
X230527572Y-118917206D01*
X230522930Y-118927159D01*
X230393508Y-119175778D01*
X230329536Y-119298667D01*
X230324041Y-119308185D01*
X230274390Y-119386122D01*
X230099003Y-119661423D01*
X230092699Y-119670427D01*
X229837723Y-120002720D01*
X229830657Y-120011140D01*
X229547703Y-120319930D01*
X229539934Y-120327699D01*
X229231140Y-120610657D01*
X229222720Y-120617723D01*
X228890427Y-120872699D01*
X228881423Y-120879003D01*
X228528187Y-121104040D01*
X228518668Y-121109535D01*
X228147159Y-121302930D01*
X228137215Y-121307568D01*
X227750237Y-121467860D01*
X227739924Y-121471613D01*
X227340473Y-121597559D01*
X227329856Y-121600404D01*
X226920947Y-121691057D01*
X226910139Y-121692963D01*
X226494879Y-121747633D01*
X226483930Y-121748591D01*
X226209723Y-121760563D01*
X226087960Y-121765879D01*
X226082464Y-121765999D01*
X226076022Y-121765999D01*
X226060000Y-121761706D01*
X226043978Y-121765999D01*
X226031644Y-121765999D01*
X226023280Y-121767100D01*
X187996720Y-121767100D01*
X187988356Y-121765999D01*
X187976022Y-121765999D01*
X187960000Y-121761706D01*
X187943978Y-121765999D01*
X187937536Y-121765999D01*
X187932040Y-121765879D01*
X187810277Y-121760563D01*
X187536070Y-121748591D01*
X187525121Y-121747633D01*
X187109861Y-121692963D01*
X187099053Y-121691057D01*
X186690144Y-121600404D01*
X186679527Y-121597559D01*
X186280076Y-121471613D01*
X186269763Y-121467860D01*
X185882785Y-121307568D01*
X185872841Y-121302930D01*
X185501332Y-121109535D01*
X185491813Y-121104040D01*
X185138577Y-120879003D01*
X185129573Y-120872699D01*
X184797280Y-120617723D01*
X184788860Y-120610657D01*
X184480066Y-120327699D01*
X184472297Y-120319930D01*
X184189343Y-120011140D01*
X184182277Y-120002720D01*
X183927301Y-119670427D01*
X183920997Y-119661423D01*
X183745610Y-119386122D01*
X183695959Y-119308185D01*
X183690464Y-119298667D01*
X183626492Y-119175778D01*
X183497070Y-118927159D01*
X183492428Y-118917206D01*
X183485289Y-118899969D01*
X183332140Y-118530237D01*
X183328384Y-118519916D01*
X183326949Y-118515362D01*
X183202441Y-118120472D01*
X183199596Y-118109855D01*
X183108943Y-117700947D01*
X183107036Y-117690131D01*
X183102476Y-117655489D01*
X183052367Y-117274878D01*
X183051409Y-117263929D01*
X183034121Y-116867960D01*
X183034001Y-116862464D01*
X183034001Y-116856022D01*
X183038294Y-116840000D01*
X183034001Y-116823978D01*
X183034001Y-116811644D01*
X183032900Y-116803280D01*
X183032900Y-116745592D01*
X184955898Y-116745592D01*
X184964956Y-117091501D01*
X185013712Y-117434076D01*
X185101519Y-117768777D01*
X185227214Y-118091167D01*
X185228911Y-118094372D01*
X185379224Y-118378264D01*
X185389130Y-118396974D01*
X185391180Y-118399957D01*
X185391182Y-118399960D01*
X185583065Y-118679152D01*
X185583071Y-118679159D01*
X185585122Y-118682144D01*
X185687934Y-118800000D01*
X185794608Y-118922282D01*
X185812592Y-118942898D01*
X186068524Y-119175778D01*
X186349527Y-119377699D01*
X186651876Y-119545985D01*
X186971563Y-119678403D01*
X186975057Y-119679398D01*
X186975059Y-119679399D01*
X187300851Y-119772204D01*
X187300856Y-119772205D01*
X187304352Y-119773201D01*
X187540034Y-119811795D01*
X187642251Y-119828534D01*
X187642255Y-119828534D01*
X187645831Y-119829120D01*
X187649457Y-119829291D01*
X187987847Y-119845249D01*
X187987848Y-119845249D01*
X187991474Y-119845420D01*
X188002346Y-119844679D01*
X188333069Y-119822133D01*
X188333077Y-119822132D01*
X188336700Y-119821885D01*
X188340276Y-119821222D01*
X188340278Y-119821222D01*
X188673368Y-119759488D01*
X188673372Y-119759487D01*
X188676933Y-119758827D01*
X189007663Y-119657081D01*
X189324507Y-119517996D01*
X189473886Y-119430706D01*
X189620125Y-119345251D01*
X189620127Y-119345250D01*
X189623265Y-119343416D01*
X189626174Y-119341232D01*
X189897071Y-119137837D01*
X189897075Y-119137834D01*
X189899978Y-119135654D01*
X190150977Y-118897465D01*
X190372936Y-118632005D01*
X190374924Y-118628979D01*
X190560926Y-118345818D01*
X190560931Y-118345809D01*
X190562913Y-118342792D01*
X190651422Y-118166812D01*
X190716763Y-118036898D01*
X190716766Y-118036890D01*
X190718390Y-118033662D01*
X190726826Y-118010609D01*
X190836057Y-117712122D01*
X190836060Y-117712112D01*
X190837305Y-117708710D01*
X190838150Y-117705188D01*
X190838153Y-117705180D01*
X190917237Y-117375772D01*
X190917238Y-117375768D01*
X190918084Y-117372243D01*
X190918928Y-117365268D01*
X190959318Y-117031501D01*
X190959318Y-117031495D01*
X190959654Y-117028722D01*
X190965585Y-116840000D01*
X190960294Y-116748238D01*
X190945875Y-116498167D01*
X190945874Y-116498162D01*
X190945666Y-116494547D01*
X190941677Y-116471691D01*
X190886798Y-116157245D01*
X190886796Y-116157238D01*
X190886174Y-116153672D01*
X190787897Y-115821894D01*
X190652138Y-115503611D01*
X190480696Y-115203041D01*
X190421030Y-115121815D01*
X190277986Y-114927086D01*
X190275843Y-114924168D01*
X190040295Y-114670688D01*
X189777174Y-114445962D01*
X189489967Y-114252967D01*
X189182482Y-114094261D01*
X188858793Y-113971950D01*
X188523190Y-113887652D01*
X188378981Y-113868667D01*
X188183728Y-113842961D01*
X188183720Y-113842960D01*
X188180124Y-113842487D01*
X188028991Y-113840112D01*
X187837780Y-113837108D01*
X187837776Y-113837108D01*
X187834139Y-113837051D01*
X187830524Y-113837412D01*
X187830520Y-113837412D01*
X187662646Y-113854169D01*
X187489823Y-113871419D01*
X187486286Y-113872190D01*
X187486281Y-113872191D01*
X187155283Y-113944360D01*
X187155278Y-113944361D01*
X187151739Y-113945133D01*
X186824367Y-114057217D01*
X186512048Y-114206186D01*
X186218921Y-114390064D01*
X186216087Y-114392334D01*
X186216082Y-114392338D01*
X186047066Y-114527746D01*
X185948871Y-114606415D01*
X185705477Y-114852371D01*
X185491966Y-115124672D01*
X185311168Y-115419709D01*
X185309641Y-115422999D01*
X185309636Y-115423008D01*
X185270672Y-115506949D01*
X185165478Y-115733570D01*
X185056828Y-116062097D01*
X185056092Y-116065652D01*
X185056091Y-116065655D01*
X184991552Y-116377304D01*
X184986658Y-116400935D01*
X184955898Y-116745592D01*
X183032900Y-116745592D01*
X183032900Y-106500000D01*
X184144341Y-106500000D01*
X184164937Y-106735408D01*
X184166361Y-106740722D01*
X184166361Y-106740723D01*
X184218868Y-106936682D01*
X184226097Y-106963663D01*
X184228419Y-106968643D01*
X184228420Y-106968645D01*
X184323361Y-107172244D01*
X184325965Y-107177829D01*
X184461505Y-107371401D01*
X184628599Y-107538495D01*
X184822171Y-107674035D01*
X184827149Y-107676356D01*
X184827152Y-107676358D01*
X185031355Y-107771580D01*
X185036337Y-107773903D01*
X185041645Y-107775325D01*
X185041647Y-107775326D01*
X185259277Y-107833639D01*
X185264592Y-107835063D01*
X185367682Y-107844082D01*
X185438310Y-107850262D01*
X185438317Y-107850262D01*
X185441034Y-107850500D01*
X185558966Y-107850500D01*
X185561683Y-107850262D01*
X185561690Y-107850262D01*
X185632318Y-107844082D01*
X185735408Y-107835063D01*
X185740723Y-107833639D01*
X185958353Y-107775326D01*
X185958355Y-107775325D01*
X185963663Y-107773903D01*
X185968645Y-107771580D01*
X186172848Y-107676358D01*
X186172851Y-107676356D01*
X186177829Y-107674035D01*
X186371401Y-107538495D01*
X186538495Y-107371401D01*
X186541655Y-107366889D01*
X186670878Y-107182339D01*
X186670881Y-107182334D01*
X186674035Y-107177830D01*
X186676358Y-107172848D01*
X186676361Y-107172843D01*
X186771580Y-106968645D01*
X186771581Y-106968644D01*
X186773903Y-106963663D01*
X186781133Y-106936682D01*
X186833639Y-106740723D01*
X186833639Y-106740722D01*
X186835063Y-106735408D01*
X186855659Y-106500000D01*
X186835063Y-106264592D01*
X186780972Y-106062718D01*
X186775326Y-106041647D01*
X186775325Y-106041645D01*
X186773903Y-106036337D01*
X186749189Y-105983338D01*
X186676358Y-105827152D01*
X186676356Y-105827149D01*
X186674035Y-105822171D01*
X186538495Y-105628599D01*
X186371401Y-105461505D01*
X186177829Y-105325965D01*
X186172851Y-105323644D01*
X186172848Y-105323642D01*
X185968645Y-105228420D01*
X185968643Y-105228419D01*
X185963663Y-105226097D01*
X185958355Y-105224675D01*
X185958353Y-105224674D01*
X185740723Y-105166361D01*
X185740722Y-105166361D01*
X185735408Y-105164937D01*
X185632318Y-105155918D01*
X185561690Y-105149738D01*
X185561683Y-105149738D01*
X185558966Y-105149500D01*
X185441034Y-105149500D01*
X185438317Y-105149738D01*
X185438310Y-105149738D01*
X185367682Y-105155918D01*
X185264592Y-105164937D01*
X185259278Y-105166361D01*
X185259277Y-105166361D01*
X185041647Y-105224674D01*
X185041645Y-105224675D01*
X185036337Y-105226097D01*
X185031357Y-105228419D01*
X185031355Y-105228420D01*
X184827152Y-105323642D01*
X184827149Y-105323644D01*
X184822171Y-105325965D01*
X184628599Y-105461505D01*
X184461505Y-105628599D01*
X184458348Y-105633107D01*
X184458346Y-105633110D01*
X184331811Y-105813821D01*
X184325965Y-105822170D01*
X184323642Y-105827152D01*
X184323639Y-105827157D01*
X184257815Y-105968318D01*
X184226097Y-106036337D01*
X184224675Y-106041645D01*
X184224674Y-106041647D01*
X184219028Y-106062718D01*
X184164937Y-106264592D01*
X184144341Y-106500000D01*
X183032900Y-106500000D01*
X183032900Y-103941294D01*
X183923066Y-103941294D01*
X183932948Y-103953783D01*
X183964239Y-103974691D01*
X183974349Y-103980181D01*
X184150835Y-104056005D01*
X184161778Y-104059560D01*
X184349120Y-104101952D01*
X184360530Y-104103454D01*
X184552469Y-104110995D01*
X184563951Y-104110393D01*
X184754045Y-104082832D01*
X184765240Y-104080144D01*
X184947131Y-104018400D01*
X184957628Y-104013726D01*
X185068032Y-103951898D01*
X185077895Y-103941821D01*
X185074940Y-103934151D01*
X184512811Y-103372021D01*
X184498868Y-103364408D01*
X184497034Y-103364539D01*
X184490420Y-103368790D01*
X183929259Y-103929952D01*
X183923066Y-103941294D01*
X183032900Y-103941294D01*
X183032900Y-102976638D01*
X183388012Y-102976638D01*
X183400575Y-103168304D01*
X183402376Y-103179674D01*
X183449657Y-103365843D01*
X183453498Y-103376690D01*
X183533916Y-103551130D01*
X183539664Y-103561086D01*
X183545788Y-103569751D01*
X183556377Y-103578140D01*
X183569676Y-103571113D01*
X184127979Y-103012811D01*
X184135592Y-102998868D01*
X184135461Y-102997034D01*
X184131210Y-102990420D01*
X183568538Y-102427749D01*
X183556163Y-102420992D01*
X183550197Y-102425458D01*
X183474645Y-102569058D01*
X183470242Y-102579691D01*
X183413281Y-102763132D01*
X183410891Y-102774376D01*
X183388313Y-102965137D01*
X183388012Y-102976638D01*
X183032900Y-102976638D01*
X183032900Y-100988753D01*
X183694514Y-100988753D01*
X183695201Y-100995760D01*
X183695201Y-100995763D01*
X183696005Y-101003963D01*
X183712039Y-101167486D01*
X183714262Y-101174168D01*
X183714262Y-101174169D01*
X183756078Y-101299873D01*
X183768726Y-101337896D01*
X183772373Y-101343918D01*
X183856735Y-101483216D01*
X183861759Y-101491512D01*
X183866648Y-101496575D01*
X183866649Y-101496576D01*
X183905095Y-101536388D01*
X183986514Y-101620699D01*
X184136789Y-101719036D01*
X184143392Y-101721491D01*
X184147031Y-101723330D01*
X184198815Y-101771898D01*
X184216121Y-101840753D01*
X184193454Y-101908034D01*
X184133830Y-101954007D01*
X184026365Y-101993653D01*
X184015991Y-101998601D01*
X183932385Y-102048342D01*
X183922788Y-102058675D01*
X183926275Y-102067064D01*
X184500000Y-102640790D01*
X185062596Y-103203385D01*
X185096621Y-103265697D01*
X185099500Y-103292480D01*
X185099500Y-103306821D01*
X185096970Y-103330593D01*
X185096886Y-103332375D01*
X185094695Y-103342552D01*
X185098183Y-103372021D01*
X185098627Y-103375773D01*
X185098975Y-103381675D01*
X185099072Y-103381667D01*
X185099500Y-103386845D01*
X185099500Y-103392046D01*
X185100354Y-103397177D01*
X185102656Y-103411007D01*
X185103493Y-103416884D01*
X185109498Y-103467621D01*
X185113448Y-103475848D01*
X185114947Y-103484851D01*
X185128001Y-103509045D01*
X185139204Y-103529808D01*
X185141899Y-103535097D01*
X185164014Y-103581151D01*
X185167594Y-103585410D01*
X185169526Y-103587342D01*
X185171279Y-103589252D01*
X185171330Y-103589348D01*
X185171211Y-103589458D01*
X185171671Y-103589980D01*
X185174751Y-103595688D01*
X185182397Y-103602756D01*
X185182398Y-103602757D01*
X185214227Y-103632179D01*
X185217793Y-103635609D01*
X187951976Y-106369792D01*
X187986002Y-106432104D01*
X187988881Y-106458887D01*
X187988881Y-111099121D01*
X187986351Y-111122893D01*
X187986267Y-111124675D01*
X187984076Y-111134852D01*
X187986048Y-111151511D01*
X187988008Y-111168073D01*
X187988356Y-111173975D01*
X187988453Y-111173967D01*
X187988881Y-111179145D01*
X187988881Y-111184346D01*
X187989735Y-111189477D01*
X187992037Y-111203307D01*
X187992874Y-111209184D01*
X187998879Y-111259921D01*
X188002829Y-111268148D01*
X188004328Y-111277151D01*
X188009274Y-111286317D01*
X188028585Y-111322108D01*
X188031280Y-111327397D01*
X188053395Y-111373451D01*
X188056975Y-111377710D01*
X188058907Y-111379642D01*
X188060660Y-111381552D01*
X188060711Y-111381648D01*
X188060592Y-111381758D01*
X188061052Y-111382280D01*
X188064132Y-111387988D01*
X188071778Y-111395056D01*
X188071779Y-111395057D01*
X188103608Y-111424479D01*
X188107174Y-111427909D01*
X195083724Y-118404459D01*
X195098744Y-118423055D01*
X195099941Y-118424370D01*
X195105591Y-118433121D01*
X195113769Y-118439568D01*
X195131864Y-118453833D01*
X195136283Y-118457760D01*
X195136346Y-118457685D01*
X195140304Y-118461039D01*
X195143986Y-118464721D01*
X195148217Y-118467744D01*
X195148220Y-118467747D01*
X195151669Y-118470211D01*
X195159640Y-118475907D01*
X195164369Y-118479458D01*
X195204495Y-118511091D01*
X195213106Y-118514115D01*
X195220531Y-118519421D01*
X195230507Y-118522404D01*
X195230510Y-118522406D01*
X195269457Y-118534053D01*
X195275105Y-118535888D01*
X195315839Y-118550193D01*
X195315845Y-118550194D01*
X195323322Y-118552820D01*
X195328864Y-118553300D01*
X195331582Y-118553300D01*
X195334191Y-118553413D01*
X195334305Y-118553447D01*
X195334298Y-118553606D01*
X195334979Y-118553649D01*
X195341193Y-118555507D01*
X195394890Y-118553397D01*
X195399836Y-118553300D01*
X201632229Y-118553300D01*
X201700350Y-118573302D01*
X201720713Y-118592029D01*
X201721852Y-118590891D01*
X201727690Y-118596729D01*
X201732718Y-118603282D01*
X201739268Y-118608308D01*
X201739269Y-118608309D01*
X201773770Y-118634782D01*
X201858159Y-118699536D01*
X202004238Y-118760044D01*
X202161000Y-118780682D01*
X202169188Y-118779604D01*
X202309574Y-118761122D01*
X202317762Y-118760044D01*
X202463841Y-118699536D01*
X202589282Y-118603282D01*
X202685536Y-118477841D01*
X202746044Y-118331762D01*
X202766682Y-118175000D01*
X202746044Y-118018238D01*
X202685536Y-117872159D01*
X202589282Y-117746718D01*
X202463841Y-117650464D01*
X202458550Y-117648272D01*
X202410364Y-117597738D01*
X202396926Y-117528025D01*
X202423312Y-117462114D01*
X202458224Y-117431863D01*
X202463841Y-117429536D01*
X202589282Y-117333282D01*
X202685536Y-117207841D01*
X202746044Y-117061762D01*
X202766682Y-116905000D01*
X202746044Y-116748238D01*
X202685536Y-116602159D01*
X202589282Y-116476718D01*
X202463841Y-116380464D01*
X202317762Y-116319956D01*
X202161000Y-116299318D01*
X202004238Y-116319956D01*
X201858159Y-116380464D01*
X201732718Y-116476718D01*
X201727690Y-116483271D01*
X201721852Y-116489109D01*
X201719455Y-116486712D01*
X201674812Y-116519286D01*
X201632229Y-116526700D01*
X195113887Y-116526700D01*
X195045766Y-116506698D01*
X195024792Y-116489795D01*
X189415205Y-110880208D01*
X189381179Y-110817896D01*
X189378300Y-110791113D01*
X189378300Y-107939887D01*
X189398302Y-107871766D01*
X189451958Y-107825273D01*
X189522232Y-107815169D01*
X189586812Y-107844663D01*
X189593395Y-107850792D01*
X191149862Y-109407259D01*
X191164882Y-109425855D01*
X191166079Y-109427170D01*
X191171729Y-109435921D01*
X191179907Y-109442368D01*
X191198002Y-109456633D01*
X191202423Y-109460562D01*
X191202486Y-109460487D01*
X191206442Y-109463839D01*
X191210124Y-109467521D01*
X191214360Y-109470548D01*
X191214361Y-109470549D01*
X191225765Y-109478699D01*
X191230512Y-109482262D01*
X191270633Y-109513891D01*
X191279246Y-109516916D01*
X191286670Y-109522221D01*
X191296643Y-109525204D01*
X191296646Y-109525205D01*
X191326063Y-109534002D01*
X191335605Y-109536856D01*
X191341246Y-109538689D01*
X191373181Y-109549904D01*
X191430826Y-109591347D01*
X191456914Y-109657377D01*
X191443163Y-109727029D01*
X191434645Y-109741057D01*
X191366069Y-109838994D01*
X191360586Y-109848489D01*
X191268510Y-110045947D01*
X191264764Y-110056239D01*
X191208375Y-110266688D01*
X191206472Y-110277481D01*
X191206370Y-110278642D01*
X191206182Y-110279122D01*
X191205516Y-110282900D01*
X191204757Y-110282766D01*
X191180508Y-110344760D01*
X191123005Y-110386401D01*
X191052118Y-110390342D01*
X190991754Y-110356757D01*
X190941396Y-110306399D01*
X190907370Y-110244087D01*
X190906219Y-110216446D01*
X190904604Y-110216446D01*
X190904604Y-110208188D01*
X190905682Y-110200000D01*
X190887307Y-110060425D01*
X190886122Y-110051426D01*
X190885044Y-110043238D01*
X190824536Y-109897159D01*
X190728282Y-109771718D01*
X190602841Y-109675464D01*
X190456762Y-109614956D01*
X190300000Y-109594318D01*
X190143238Y-109614956D01*
X189997159Y-109675464D01*
X189871718Y-109771718D01*
X189775464Y-109897159D01*
X189714956Y-110043238D01*
X189713878Y-110051426D01*
X189712693Y-110060425D01*
X189694318Y-110200000D01*
X189695396Y-110208188D01*
X189711545Y-110330849D01*
X189714956Y-110356762D01*
X189775464Y-110502841D01*
X189871718Y-110628282D01*
X189997159Y-110724536D01*
X190143238Y-110785044D01*
X190300000Y-110805682D01*
X190308189Y-110804604D01*
X190316446Y-110804604D01*
X190316446Y-110808001D01*
X190371001Y-110816506D01*
X190406399Y-110841396D01*
X191994462Y-112429459D01*
X192009482Y-112448055D01*
X192010679Y-112449370D01*
X192016329Y-112458121D01*
X192024507Y-112464568D01*
X192042602Y-112478833D01*
X192047021Y-112482760D01*
X192047084Y-112482685D01*
X192051042Y-112486039D01*
X192054724Y-112489721D01*
X192058955Y-112492744D01*
X192058958Y-112492747D01*
X192062407Y-112495211D01*
X192070378Y-112500907D01*
X192075107Y-112504458D01*
X192115233Y-112536091D01*
X192123844Y-112539115D01*
X192131269Y-112544421D01*
X192141245Y-112547404D01*
X192141248Y-112547406D01*
X192180195Y-112559053D01*
X192185843Y-112560888D01*
X192226577Y-112575193D01*
X192226583Y-112575194D01*
X192234060Y-112577820D01*
X192239602Y-112578300D01*
X192242320Y-112578300D01*
X192244929Y-112578413D01*
X192245043Y-112578447D01*
X192245036Y-112578606D01*
X192245717Y-112578649D01*
X192251931Y-112580507D01*
X192305628Y-112578397D01*
X192310574Y-112578300D01*
X199971229Y-112578300D01*
X200039350Y-112598302D01*
X200059713Y-112617029D01*
X200060852Y-112615891D01*
X200066690Y-112621729D01*
X200071718Y-112628282D01*
X200197159Y-112724536D01*
X200343238Y-112785044D01*
X200500000Y-112805682D01*
X200508188Y-112804604D01*
X200648574Y-112786122D01*
X200656762Y-112785044D01*
X200802841Y-112724536D01*
X200928282Y-112628282D01*
X201024536Y-112502841D01*
X201085044Y-112356762D01*
X201105682Y-112200000D01*
X201095530Y-112122885D01*
X201086122Y-112051424D01*
X201086121Y-112051422D01*
X201085044Y-112043238D01*
X201081884Y-112035609D01*
X201081638Y-112034691D01*
X201083327Y-111963714D01*
X201123120Y-111904918D01*
X201188385Y-111876970D01*
X201241613Y-111884714D01*
X201242398Y-111882297D01*
X201432471Y-111944056D01*
X201432475Y-111944057D01*
X201438329Y-111945959D01*
X201642894Y-111970351D01*
X201649029Y-111969879D01*
X201649031Y-111969879D01*
X201705039Y-111965569D01*
X201848300Y-111954546D01*
X201854230Y-111952890D01*
X201854232Y-111952890D01*
X202028516Y-111904229D01*
X202046725Y-111899145D01*
X202052214Y-111896372D01*
X202052220Y-111896370D01*
X202225116Y-111809033D01*
X202230610Y-111806258D01*
X202246345Y-111793965D01*
X202363132Y-111702721D01*
X202392951Y-111679424D01*
X202410147Y-111659503D01*
X202523540Y-111528134D01*
X202523540Y-111528133D01*
X202527564Y-111523472D01*
X202548387Y-111486818D01*
X202568190Y-111451958D01*
X202629323Y-111344344D01*
X202694351Y-111148863D01*
X202720171Y-110944474D01*
X202720583Y-110915000D01*
X202719138Y-110900262D01*
X203149520Y-110900262D01*
X203150036Y-110906406D01*
X203160886Y-111035609D01*
X203166759Y-111105553D01*
X203168458Y-111111478D01*
X203215862Y-111276794D01*
X203223544Y-111303586D01*
X203226359Y-111309063D01*
X203226360Y-111309066D01*
X203285674Y-111424479D01*
X203317712Y-111486818D01*
X203445677Y-111648270D01*
X203450370Y-111652264D01*
X203450371Y-111652265D01*
X203596290Y-111776451D01*
X203602564Y-111781791D01*
X203607942Y-111784797D01*
X203607944Y-111784798D01*
X203625667Y-111794703D01*
X203782398Y-111882297D01*
X203848513Y-111903779D01*
X203972471Y-111944056D01*
X203972475Y-111944057D01*
X203978329Y-111945959D01*
X204182894Y-111970351D01*
X204189029Y-111969879D01*
X204189031Y-111969879D01*
X204245039Y-111965569D01*
X204388300Y-111954546D01*
X204394230Y-111952890D01*
X204394232Y-111952890D01*
X204568517Y-111904229D01*
X204639508Y-111905176D01*
X204691496Y-111936493D01*
X205682862Y-112927859D01*
X205697882Y-112946455D01*
X205699079Y-112947770D01*
X205704729Y-112956521D01*
X205712907Y-112962968D01*
X205731002Y-112977233D01*
X205735422Y-112981161D01*
X205735485Y-112981086D01*
X205739441Y-112984438D01*
X205743123Y-112988120D01*
X205747359Y-112991147D01*
X205747360Y-112991148D01*
X205758764Y-112999298D01*
X205763511Y-113002861D01*
X205803633Y-113034491D01*
X205812244Y-113037515D01*
X205819669Y-113042821D01*
X205829645Y-113045804D01*
X205829648Y-113045806D01*
X205868595Y-113057453D01*
X205874243Y-113059288D01*
X205914977Y-113073593D01*
X205914983Y-113073594D01*
X205922460Y-113076220D01*
X205928002Y-113076700D01*
X205930720Y-113076700D01*
X205933329Y-113076813D01*
X205933443Y-113076847D01*
X205933436Y-113077006D01*
X205934117Y-113077049D01*
X205940331Y-113078907D01*
X205994028Y-113076797D01*
X205998974Y-113076700D01*
X209647802Y-113076700D01*
X209671574Y-113079230D01*
X209673356Y-113079314D01*
X209683533Y-113081505D01*
X209716754Y-113077573D01*
X209722656Y-113077225D01*
X209722648Y-113077128D01*
X209727826Y-113076700D01*
X209733027Y-113076700D01*
X209751989Y-113073544D01*
X209757866Y-113072707D01*
X209808602Y-113066702D01*
X209816829Y-113062752D01*
X209825832Y-113061253D01*
X209870789Y-113036996D01*
X209876078Y-113034301D01*
X209889112Y-113028042D01*
X209922132Y-113012186D01*
X209926391Y-113008606D01*
X209928323Y-113006674D01*
X209930233Y-113004921D01*
X209930329Y-113004870D01*
X209930439Y-113004989D01*
X209930961Y-113004529D01*
X209936669Y-113001449D01*
X209954806Y-112981829D01*
X209973160Y-112961973D01*
X209976590Y-112958407D01*
X210826659Y-112108338D01*
X210845255Y-112093318D01*
X210846570Y-112092121D01*
X210855321Y-112086471D01*
X210876033Y-112060198D01*
X210879962Y-112055777D01*
X210879887Y-112055714D01*
X210883239Y-112051758D01*
X210886921Y-112048076D01*
X210889949Y-112043839D01*
X210898099Y-112032435D01*
X210901663Y-112027687D01*
X210909676Y-112017522D01*
X210933291Y-111987567D01*
X210936316Y-111978954D01*
X210941621Y-111971530D01*
X210946560Y-111955018D01*
X210956254Y-111922601D01*
X210958089Y-111916953D01*
X210972394Y-111876220D01*
X210972395Y-111876214D01*
X210975020Y-111868740D01*
X210975500Y-111863198D01*
X210975500Y-111860480D01*
X210975613Y-111857871D01*
X210975647Y-111857757D01*
X210975806Y-111857764D01*
X210975849Y-111857082D01*
X210977707Y-111850869D01*
X210977298Y-111840463D01*
X210978593Y-111830211D01*
X211006974Y-111765133D01*
X211066033Y-111725731D01*
X211137019Y-111724513D01*
X211185262Y-111750045D01*
X211217806Y-111777742D01*
X211222564Y-111781791D01*
X211227942Y-111784797D01*
X211227944Y-111784798D01*
X211245667Y-111794703D01*
X211402398Y-111882297D01*
X211468513Y-111903779D01*
X211592471Y-111944056D01*
X211592475Y-111944057D01*
X211598329Y-111945959D01*
X211802894Y-111970351D01*
X211809029Y-111969879D01*
X211809031Y-111969879D01*
X211865039Y-111965569D01*
X212008300Y-111954546D01*
X212014230Y-111952890D01*
X212014232Y-111952890D01*
X212188516Y-111904229D01*
X212206725Y-111899145D01*
X212212214Y-111896372D01*
X212212220Y-111896370D01*
X212385116Y-111809033D01*
X212390610Y-111806258D01*
X212406345Y-111793965D01*
X212523132Y-111702721D01*
X212552951Y-111679424D01*
X212570147Y-111659503D01*
X212683540Y-111528134D01*
X212683540Y-111528133D01*
X212687564Y-111523472D01*
X212708387Y-111486818D01*
X212728190Y-111451958D01*
X212789323Y-111344344D01*
X212854351Y-111148863D01*
X212880171Y-110944474D01*
X212880583Y-110915000D01*
X212860480Y-110709970D01*
X212800935Y-110512749D01*
X212704218Y-110330849D01*
X212626389Y-110235421D01*
X212577906Y-110175975D01*
X212577903Y-110175972D01*
X212574011Y-110171200D01*
X212556786Y-110156950D01*
X212420025Y-110043811D01*
X212420021Y-110043808D01*
X212415275Y-110039882D01*
X212234055Y-109941897D01*
X212037254Y-109880977D01*
X212031129Y-109880333D01*
X212031128Y-109880333D01*
X211838498Y-109860087D01*
X211838496Y-109860087D01*
X211832369Y-109859443D01*
X211761164Y-109865923D01*
X211633342Y-109877555D01*
X211633339Y-109877556D01*
X211627203Y-109878114D01*
X211429572Y-109936280D01*
X211247002Y-110031726D01*
X211205951Y-110064732D01*
X211180452Y-110085233D01*
X211114829Y-110112329D01*
X211044975Y-110099645D01*
X210993067Y-110051209D01*
X210975500Y-109987036D01*
X210975500Y-109304212D01*
X210995502Y-109236091D01*
X211049158Y-109189598D01*
X211119432Y-109179494D01*
X211183163Y-109208258D01*
X211216290Y-109236451D01*
X211222564Y-109241791D01*
X211227942Y-109244797D01*
X211227944Y-109244798D01*
X211246245Y-109255026D01*
X211402398Y-109342297D01*
X211497238Y-109373113D01*
X211592471Y-109404056D01*
X211592475Y-109404057D01*
X211598329Y-109405959D01*
X211802894Y-109430351D01*
X211809029Y-109429879D01*
X211809031Y-109429879D01*
X211865039Y-109425569D01*
X212008300Y-109414546D01*
X212014230Y-109412890D01*
X212014232Y-109412890D01*
X212200797Y-109360800D01*
X212200796Y-109360800D01*
X212206725Y-109359145D01*
X212212214Y-109356372D01*
X212212220Y-109356370D01*
X212365785Y-109278798D01*
X212390610Y-109266258D01*
X212404987Y-109255026D01*
X212552951Y-109139424D01*
X212554182Y-109141000D01*
X212609123Y-109112715D01*
X212679794Y-109119503D01*
X212735577Y-109163421D01*
X212758900Y-109236451D01*
X212758900Y-109633402D01*
X212756370Y-109657174D01*
X212756286Y-109658956D01*
X212754095Y-109669133D01*
X212756608Y-109690362D01*
X212758027Y-109702354D01*
X212758375Y-109708256D01*
X212758472Y-109708248D01*
X212758900Y-109713426D01*
X212758900Y-109718627D01*
X212759754Y-109723758D01*
X212762056Y-109737588D01*
X212762893Y-109743465D01*
X212768898Y-109794202D01*
X212772848Y-109802429D01*
X212774347Y-109811432D01*
X212792973Y-109845952D01*
X212798604Y-109856389D01*
X212801299Y-109861678D01*
X212823414Y-109907732D01*
X212826994Y-109911991D01*
X212828926Y-109913923D01*
X212830679Y-109915833D01*
X212830730Y-109915929D01*
X212830611Y-109916039D01*
X212831071Y-109916561D01*
X212834151Y-109922269D01*
X212841797Y-109929337D01*
X212841798Y-109929338D01*
X212873627Y-109958760D01*
X212877193Y-109962190D01*
X213345274Y-110430271D01*
X213379300Y-110492583D01*
X213376281Y-110557464D01*
X213347751Y-110647404D01*
X213332484Y-110695532D01*
X213331798Y-110701649D01*
X213331797Y-110701653D01*
X213318759Y-110817896D01*
X213309520Y-110900262D01*
X213310036Y-110906406D01*
X213320886Y-111035609D01*
X213326759Y-111105553D01*
X213328458Y-111111478D01*
X213375862Y-111276794D01*
X213383544Y-111303586D01*
X213386359Y-111309063D01*
X213386360Y-111309066D01*
X213445674Y-111424479D01*
X213477712Y-111486818D01*
X213605677Y-111648270D01*
X213610370Y-111652264D01*
X213610371Y-111652265D01*
X213756290Y-111776451D01*
X213762564Y-111781791D01*
X213767942Y-111784797D01*
X213767944Y-111784798D01*
X213785667Y-111794703D01*
X213942398Y-111882297D01*
X214008513Y-111903779D01*
X214132471Y-111944056D01*
X214132475Y-111944057D01*
X214138329Y-111945959D01*
X214342894Y-111970351D01*
X214349029Y-111969879D01*
X214349031Y-111969879D01*
X214405039Y-111965569D01*
X214548300Y-111954546D01*
X214554230Y-111952890D01*
X214554232Y-111952890D01*
X214728516Y-111904229D01*
X214746725Y-111899145D01*
X214752214Y-111896372D01*
X214752220Y-111896370D01*
X214925116Y-111809033D01*
X214930610Y-111806258D01*
X214946345Y-111793965D01*
X215092951Y-111679424D01*
X215094182Y-111681000D01*
X215149123Y-111652715D01*
X215219794Y-111659503D01*
X215275577Y-111703421D01*
X215298900Y-111776451D01*
X215298900Y-113423402D01*
X215296370Y-113447174D01*
X215296286Y-113448956D01*
X215294095Y-113459133D01*
X215295319Y-113469472D01*
X215298027Y-113492354D01*
X215298375Y-113498256D01*
X215298472Y-113498248D01*
X215298900Y-113503426D01*
X215298900Y-113508627D01*
X215299754Y-113513758D01*
X215302056Y-113527588D01*
X215302893Y-113533465D01*
X215308898Y-113584202D01*
X215312848Y-113592429D01*
X215314347Y-113601432D01*
X215319293Y-113610598D01*
X215338604Y-113646389D01*
X215341299Y-113651678D01*
X215363414Y-113697732D01*
X215366994Y-113701991D01*
X215368926Y-113703923D01*
X215370679Y-113705833D01*
X215370730Y-113705929D01*
X215370611Y-113706039D01*
X215371071Y-113706561D01*
X215374151Y-113712269D01*
X215381797Y-113719337D01*
X215381798Y-113719338D01*
X215413627Y-113748760D01*
X215417193Y-113752190D01*
X220358604Y-118693601D01*
X220392630Y-118755913D01*
X220393781Y-118783554D01*
X220395396Y-118783554D01*
X220395396Y-118791811D01*
X220394318Y-118800000D01*
X220414956Y-118956762D01*
X220475464Y-119102841D01*
X220571718Y-119228282D01*
X220697159Y-119324536D01*
X220843238Y-119385044D01*
X221000000Y-119405682D01*
X221008188Y-119404604D01*
X221148574Y-119386122D01*
X221156762Y-119385044D01*
X221302841Y-119324536D01*
X221428282Y-119228282D01*
X221524536Y-119102841D01*
X221585044Y-118956762D01*
X221605682Y-118800000D01*
X221585044Y-118643238D01*
X221524536Y-118497159D01*
X221428282Y-118371718D01*
X221302841Y-118275464D01*
X221156762Y-118214956D01*
X221000000Y-118194318D01*
X220991811Y-118195396D01*
X220983554Y-118195396D01*
X220983554Y-118191999D01*
X220928999Y-118183494D01*
X220893601Y-118158604D01*
X219480589Y-116745592D01*
X223055898Y-116745592D01*
X223064956Y-117091501D01*
X223113712Y-117434076D01*
X223201519Y-117768777D01*
X223327214Y-118091167D01*
X223328911Y-118094372D01*
X223479224Y-118378264D01*
X223489130Y-118396974D01*
X223491180Y-118399957D01*
X223491182Y-118399960D01*
X223683065Y-118679152D01*
X223683071Y-118679159D01*
X223685122Y-118682144D01*
X223787934Y-118800000D01*
X223894608Y-118922282D01*
X223912592Y-118942898D01*
X224168524Y-119175778D01*
X224449527Y-119377699D01*
X224751876Y-119545985D01*
X225071563Y-119678403D01*
X225075057Y-119679398D01*
X225075059Y-119679399D01*
X225400851Y-119772204D01*
X225400856Y-119772205D01*
X225404352Y-119773201D01*
X225640034Y-119811795D01*
X225742251Y-119828534D01*
X225742255Y-119828534D01*
X225745831Y-119829120D01*
X225749457Y-119829291D01*
X226087847Y-119845249D01*
X226087848Y-119845249D01*
X226091474Y-119845420D01*
X226102346Y-119844679D01*
X226433069Y-119822133D01*
X226433077Y-119822132D01*
X226436700Y-119821885D01*
X226440276Y-119821222D01*
X226440278Y-119821222D01*
X226773368Y-119759488D01*
X226773372Y-119759487D01*
X226776933Y-119758827D01*
X227107663Y-119657081D01*
X227424507Y-119517996D01*
X227573886Y-119430706D01*
X227720125Y-119345251D01*
X227720127Y-119345250D01*
X227723265Y-119343416D01*
X227726174Y-119341232D01*
X227997071Y-119137837D01*
X227997075Y-119137834D01*
X227999978Y-119135654D01*
X228250977Y-118897465D01*
X228472936Y-118632005D01*
X228474924Y-118628979D01*
X228660926Y-118345818D01*
X228660931Y-118345809D01*
X228662913Y-118342792D01*
X228751422Y-118166812D01*
X228816763Y-118036898D01*
X228816766Y-118036890D01*
X228818390Y-118033662D01*
X228826826Y-118010609D01*
X228936057Y-117712122D01*
X228936060Y-117712112D01*
X228937305Y-117708710D01*
X228938150Y-117705188D01*
X228938153Y-117705180D01*
X229017237Y-117375772D01*
X229017238Y-117375768D01*
X229018084Y-117372243D01*
X229018928Y-117365268D01*
X229059318Y-117031501D01*
X229059318Y-117031495D01*
X229059654Y-117028722D01*
X229065585Y-116840000D01*
X229060294Y-116748238D01*
X229045875Y-116498167D01*
X229045874Y-116498162D01*
X229045666Y-116494547D01*
X229041677Y-116471691D01*
X228986798Y-116157245D01*
X228986796Y-116157238D01*
X228986174Y-116153672D01*
X228887897Y-115821894D01*
X228752138Y-115503611D01*
X228580696Y-115203041D01*
X228521030Y-115121815D01*
X228377986Y-114927086D01*
X228375843Y-114924168D01*
X228140295Y-114670688D01*
X227877174Y-114445962D01*
X227589967Y-114252967D01*
X227282482Y-114094261D01*
X226958793Y-113971950D01*
X226623190Y-113887652D01*
X226478981Y-113868667D01*
X226283728Y-113842961D01*
X226283720Y-113842960D01*
X226280124Y-113842487D01*
X226128991Y-113840112D01*
X225937780Y-113837108D01*
X225937776Y-113837108D01*
X225934139Y-113837051D01*
X225930524Y-113837412D01*
X225930520Y-113837412D01*
X225762646Y-113854169D01*
X225589823Y-113871419D01*
X225586286Y-113872190D01*
X225586281Y-113872191D01*
X225255283Y-113944360D01*
X225255278Y-113944361D01*
X225251739Y-113945133D01*
X224924367Y-114057217D01*
X224612048Y-114206186D01*
X224318921Y-114390064D01*
X224316087Y-114392334D01*
X224316082Y-114392338D01*
X224147066Y-114527746D01*
X224048871Y-114606415D01*
X223805477Y-114852371D01*
X223591966Y-115124672D01*
X223411168Y-115419709D01*
X223409641Y-115422999D01*
X223409636Y-115423008D01*
X223370672Y-115506949D01*
X223265478Y-115733570D01*
X223156828Y-116062097D01*
X223156092Y-116065652D01*
X223156091Y-116065655D01*
X223091552Y-116377304D01*
X223086658Y-116400935D01*
X223055898Y-116745592D01*
X219480589Y-116745592D01*
X216092405Y-113357408D01*
X216058379Y-113295096D01*
X216055500Y-113268313D01*
X216055500Y-112211099D01*
X216075502Y-112142978D01*
X216129158Y-112096485D01*
X216199432Y-112086381D01*
X216245071Y-112102311D01*
X216311761Y-112141282D01*
X216321042Y-112145729D01*
X216520001Y-112221703D01*
X216529899Y-112224579D01*
X216633250Y-112245606D01*
X216647299Y-112244410D01*
X216651000Y-112234065D01*
X216651000Y-112233517D01*
X217159000Y-112233517D01*
X217163064Y-112247359D01*
X217176478Y-112249393D01*
X217183184Y-112248534D01*
X217193262Y-112246392D01*
X217397255Y-112185191D01*
X217406842Y-112181433D01*
X217598095Y-112087739D01*
X217606945Y-112082464D01*
X217780328Y-111958792D01*
X217788200Y-111952139D01*
X217939052Y-111801812D01*
X217945730Y-111793965D01*
X218070003Y-111621020D01*
X218075313Y-111612183D01*
X218169670Y-111421267D01*
X218173469Y-111411672D01*
X218235377Y-111207910D01*
X218237555Y-111197837D01*
X218238986Y-111186962D01*
X218236775Y-111172778D01*
X218223617Y-111169000D01*
X217177115Y-111169000D01*
X217161876Y-111173475D01*
X217160671Y-111174865D01*
X217159000Y-111182548D01*
X217159000Y-112233517D01*
X216651000Y-112233517D01*
X216651000Y-110642885D01*
X217159000Y-110642885D01*
X217163475Y-110658124D01*
X217164865Y-110659329D01*
X217172548Y-110661000D01*
X218223344Y-110661000D01*
X218236875Y-110657027D01*
X218238180Y-110647947D01*
X218196214Y-110480875D01*
X218192894Y-110471124D01*
X218107972Y-110275814D01*
X218103105Y-110266739D01*
X217987426Y-110087926D01*
X217981136Y-110079757D01*
X217837806Y-109922240D01*
X217830273Y-109915215D01*
X217663139Y-109783222D01*
X217654552Y-109777517D01*
X217617116Y-109756851D01*
X217567146Y-109706419D01*
X217552374Y-109636976D01*
X217577490Y-109570571D01*
X217604842Y-109543964D01*
X217780327Y-109418792D01*
X217788200Y-109412139D01*
X217939052Y-109261812D01*
X217945730Y-109253965D01*
X218070003Y-109081020D01*
X218075313Y-109072183D01*
X218169670Y-108881267D01*
X218173469Y-108871672D01*
X218235377Y-108667910D01*
X218237555Y-108657837D01*
X218238986Y-108646962D01*
X218236775Y-108632778D01*
X218223617Y-108629000D01*
X217177115Y-108629000D01*
X217161876Y-108633475D01*
X217160671Y-108634865D01*
X217159000Y-108642548D01*
X217159000Y-110642885D01*
X216651000Y-110642885D01*
X216651000Y-107058102D01*
X216647082Y-107044758D01*
X216632806Y-107042771D01*
X216594324Y-107048660D01*
X216584288Y-107051051D01*
X216381868Y-107117212D01*
X216372358Y-107121209D01*
X216239680Y-107190277D01*
X216170020Y-107203990D01*
X216104005Y-107177865D01*
X216062594Y-107120196D01*
X216055500Y-107078514D01*
X216055500Y-106685991D01*
X216058028Y-106662235D01*
X216058112Y-106660446D01*
X216060304Y-106650266D01*
X216056373Y-106617051D01*
X216056025Y-106611144D01*
X216055928Y-106611152D01*
X216055500Y-106605972D01*
X216055500Y-106600773D01*
X216054647Y-106595647D01*
X216054646Y-106595637D01*
X216052343Y-106581802D01*
X216051506Y-106575926D01*
X216049644Y-106560194D01*
X216045502Y-106525197D01*
X216041551Y-106516970D01*
X216040053Y-106507968D01*
X216015794Y-106463008D01*
X216013104Y-106457729D01*
X216000799Y-106432104D01*
X215990985Y-106411667D01*
X215987406Y-106407409D01*
X215985467Y-106405470D01*
X215983721Y-106403567D01*
X215983662Y-106403458D01*
X215983780Y-106403350D01*
X215983328Y-106402837D01*
X215980249Y-106397131D01*
X215940772Y-106360639D01*
X215937207Y-106357210D01*
X214351898Y-104771901D01*
X214317872Y-104709589D01*
X214322937Y-104638774D01*
X214335470Y-104615180D01*
X214339293Y-104611350D01*
X214390536Y-104506518D01*
X214396837Y-104463326D01*
X214399840Y-104442744D01*
X214399840Y-104442740D01*
X214400500Y-104438218D01*
X214400500Y-104239687D01*
X214420502Y-104171566D01*
X214474158Y-104125073D01*
X214544432Y-104114969D01*
X214609012Y-104144463D01*
X214615595Y-104150592D01*
X217297525Y-106832522D01*
X217331551Y-106894834D01*
X217326486Y-106965649D01*
X217283939Y-107022485D01*
X217217419Y-107047296D01*
X217186333Y-107045664D01*
X217176837Y-107043972D01*
X217163540Y-107045432D01*
X217159000Y-107059989D01*
X217159000Y-108102885D01*
X217163475Y-108118124D01*
X217164865Y-108119329D01*
X217172548Y-108121000D01*
X218223344Y-108121000D01*
X218236875Y-108117027D01*
X218238180Y-108107947D01*
X218236946Y-108103033D01*
X218239750Y-108032091D01*
X218280463Y-107973928D01*
X218346158Y-107947009D01*
X218415978Y-107959880D01*
X218448245Y-107983242D01*
X219809795Y-109344792D01*
X219843821Y-109407104D01*
X219846700Y-109433887D01*
X219846700Y-110001923D01*
X219826698Y-110070044D01*
X219773042Y-110116537D01*
X219762448Y-110120806D01*
X219751898Y-110124511D01*
X219686816Y-110147366D01*
X219679246Y-110152958D01*
X219679243Y-110152959D01*
X219614305Y-110200924D01*
X219577850Y-110227850D01*
X219572258Y-110235421D01*
X219502959Y-110329243D01*
X219502958Y-110329246D01*
X219497366Y-110336816D01*
X219452481Y-110464631D01*
X219449500Y-110496166D01*
X219449500Y-111503834D01*
X219452481Y-111535369D01*
X219497366Y-111663184D01*
X219502958Y-111670754D01*
X219502959Y-111670757D01*
X219557426Y-111744498D01*
X219577850Y-111772150D01*
X219585421Y-111777742D01*
X219679243Y-111847041D01*
X219679246Y-111847042D01*
X219686816Y-111852634D01*
X219814631Y-111897519D01*
X219822277Y-111898242D01*
X219822278Y-111898242D01*
X219828248Y-111898806D01*
X219846166Y-111900500D01*
X220603834Y-111900500D01*
X220621752Y-111898806D01*
X220627722Y-111898242D01*
X220627723Y-111898242D01*
X220635369Y-111897519D01*
X220763184Y-111852634D01*
X220770754Y-111847042D01*
X220770757Y-111847041D01*
X220864579Y-111777742D01*
X220872150Y-111772150D01*
X220892574Y-111744498D01*
X220947041Y-111670757D01*
X220947042Y-111670754D01*
X220952634Y-111663184D01*
X220997519Y-111535369D01*
X221000500Y-111503834D01*
X221499500Y-111503834D01*
X221502481Y-111535369D01*
X221547366Y-111663184D01*
X221552958Y-111670754D01*
X221552959Y-111670757D01*
X221607426Y-111744498D01*
X221627850Y-111772150D01*
X221635421Y-111777742D01*
X221729243Y-111847041D01*
X221729246Y-111847042D01*
X221736816Y-111852634D01*
X221864631Y-111897519D01*
X221872277Y-111898242D01*
X221872278Y-111898242D01*
X221878248Y-111898806D01*
X221896166Y-111900500D01*
X222653834Y-111900500D01*
X222671752Y-111898806D01*
X222677722Y-111898242D01*
X222677723Y-111898242D01*
X222685369Y-111897519D01*
X222813184Y-111852634D01*
X222820754Y-111847042D01*
X222820757Y-111847041D01*
X222914579Y-111777742D01*
X222922150Y-111772150D01*
X222942574Y-111744498D01*
X222997041Y-111670757D01*
X222997042Y-111670754D01*
X223002634Y-111663184D01*
X223047519Y-111535369D01*
X223050500Y-111503834D01*
X223050500Y-111500868D01*
X223050618Y-111498367D01*
X223073805Y-111431264D01*
X223129590Y-111387349D01*
X223176478Y-111378300D01*
X224973501Y-111378300D01*
X225041622Y-111398302D01*
X225088115Y-111451958D01*
X225099501Y-111504300D01*
X225099501Y-111678832D01*
X225102481Y-111710368D01*
X225105024Y-111717609D01*
X225105024Y-111717610D01*
X225141578Y-111821700D01*
X225147366Y-111838183D01*
X225227850Y-111947150D01*
X225336817Y-112027634D01*
X225345704Y-112030755D01*
X225345706Y-112030756D01*
X225444000Y-112065274D01*
X225464632Y-112072519D01*
X225472278Y-112073242D01*
X225472279Y-112073242D01*
X225478249Y-112073806D01*
X225496167Y-112075500D01*
X226012238Y-112075500D01*
X226528832Y-112075499D01*
X226531782Y-112075220D01*
X226531787Y-112075220D01*
X226542406Y-112074216D01*
X226560368Y-112072519D01*
X226567609Y-112069976D01*
X226567610Y-112069976D01*
X226679294Y-112030756D01*
X226679296Y-112030755D01*
X226688183Y-112027634D01*
X226797150Y-111947150D01*
X226877634Y-111838183D01*
X226883423Y-111821700D01*
X226919974Y-111717615D01*
X226922519Y-111710368D01*
X226923268Y-111702451D01*
X226924365Y-111690842D01*
X226925500Y-111678833D01*
X226925499Y-110321168D01*
X226924813Y-110313903D01*
X226924103Y-110306399D01*
X226922519Y-110289632D01*
X226896818Y-110216446D01*
X226880756Y-110170706D01*
X226880755Y-110170704D01*
X226877634Y-110161817D01*
X226797150Y-110052850D01*
X226688183Y-109972366D01*
X226679296Y-109969245D01*
X226679294Y-109969244D01*
X226567615Y-109930026D01*
X226560368Y-109927481D01*
X226552722Y-109926758D01*
X226552721Y-109926758D01*
X226546171Y-109926139D01*
X226528833Y-109924500D01*
X226012762Y-109924500D01*
X225496168Y-109924501D01*
X225493218Y-109924780D01*
X225493213Y-109924780D01*
X225482594Y-109925784D01*
X225464632Y-109927481D01*
X225457391Y-109930024D01*
X225457390Y-109930024D01*
X225345706Y-109969244D01*
X225345704Y-109969245D01*
X225336817Y-109972366D01*
X225227850Y-110052850D01*
X225147366Y-110161817D01*
X225144245Y-110170704D01*
X225144244Y-110170706D01*
X225131082Y-110208188D01*
X225102481Y-110289632D01*
X225099500Y-110321167D01*
X225099500Y-110495700D01*
X225079498Y-110563821D01*
X225025842Y-110610314D01*
X224973500Y-110621700D01*
X223176478Y-110621700D01*
X223108357Y-110601698D01*
X223061864Y-110548042D01*
X223050618Y-110501633D01*
X223050500Y-110499129D01*
X223050500Y-110496166D01*
X223047519Y-110464631D01*
X223002634Y-110336816D01*
X222997042Y-110329246D01*
X222997041Y-110329243D01*
X222927742Y-110235421D01*
X222922150Y-110227850D01*
X222885695Y-110200924D01*
X222820757Y-110152959D01*
X222820754Y-110152958D01*
X222813184Y-110147366D01*
X222685369Y-110102481D01*
X222677723Y-110101758D01*
X222677722Y-110101758D01*
X222671752Y-110101194D01*
X222653834Y-110099500D01*
X221896166Y-110099500D01*
X221878248Y-110101194D01*
X221872278Y-110101758D01*
X221872277Y-110101758D01*
X221864631Y-110102481D01*
X221736816Y-110147366D01*
X221729246Y-110152958D01*
X221729243Y-110152959D01*
X221664305Y-110200924D01*
X221627850Y-110227850D01*
X221622258Y-110235421D01*
X221552959Y-110329243D01*
X221552958Y-110329246D01*
X221547366Y-110336816D01*
X221502481Y-110464631D01*
X221499500Y-110496166D01*
X221499500Y-111503834D01*
X221000500Y-111503834D01*
X221000500Y-110496166D01*
X220997519Y-110464631D01*
X220952634Y-110336816D01*
X220947042Y-110329246D01*
X220947041Y-110329243D01*
X220877742Y-110235421D01*
X220872150Y-110227850D01*
X220835695Y-110200924D01*
X220770757Y-110152959D01*
X220770754Y-110152958D01*
X220763184Y-110147366D01*
X220698102Y-110124511D01*
X220687552Y-110120806D01*
X220629906Y-110079362D01*
X220603818Y-110013333D01*
X220603300Y-110001923D01*
X220603300Y-109278798D01*
X220605830Y-109255026D01*
X220605914Y-109253244D01*
X220608105Y-109243067D01*
X220604173Y-109209846D01*
X220603825Y-109203944D01*
X220603728Y-109203952D01*
X220603300Y-109198774D01*
X220603300Y-109193573D01*
X220600144Y-109174611D01*
X220599307Y-109168734D01*
X220599254Y-109168288D01*
X220593302Y-109117998D01*
X220589352Y-109109771D01*
X220587853Y-109100768D01*
X220563596Y-109055811D01*
X220560901Y-109050522D01*
X220542218Y-109011615D01*
X220538786Y-109004468D01*
X220535207Y-109000210D01*
X220533268Y-108998271D01*
X220531521Y-108996366D01*
X220531463Y-108996259D01*
X220531580Y-108996151D01*
X220531129Y-108995639D01*
X220528049Y-108989931D01*
X220515266Y-108978114D01*
X220488573Y-108953440D01*
X220485007Y-108950010D01*
X214437405Y-102902408D01*
X214403379Y-102840096D01*
X214400500Y-102813313D01*
X214400500Y-102801782D01*
X214393442Y-102753834D01*
X214391784Y-102742574D01*
X214391784Y-102742573D01*
X214390358Y-102732888D01*
X214352657Y-102656100D01*
X214343522Y-102637493D01*
X214343521Y-102637491D01*
X214338932Y-102628145D01*
X214273294Y-102562621D01*
X214263721Y-102553065D01*
X214263720Y-102553065D01*
X214256350Y-102545707D01*
X214151518Y-102494464D01*
X214121027Y-102490016D01*
X214087744Y-102485160D01*
X214087740Y-102485160D01*
X214083218Y-102484500D01*
X212516782Y-102484500D01*
X212512232Y-102485170D01*
X212512229Y-102485170D01*
X212457574Y-102493216D01*
X212457573Y-102493216D01*
X212447888Y-102494642D01*
X212397992Y-102519140D01*
X212352493Y-102541478D01*
X212352491Y-102541479D01*
X212343145Y-102546068D01*
X212335787Y-102553438D01*
X212335788Y-102553438D01*
X212294197Y-102595102D01*
X212260707Y-102628650D01*
X212209464Y-102733482D01*
X212208052Y-102743162D01*
X212201721Y-102786560D01*
X212199500Y-102801782D01*
X212199500Y-103168218D01*
X212200170Y-103172768D01*
X212200170Y-103172771D01*
X212208216Y-103227426D01*
X212209642Y-103237112D01*
X212234140Y-103287008D01*
X212255539Y-103330593D01*
X212261068Y-103341855D01*
X212343650Y-103424293D01*
X212448482Y-103475536D01*
X212478973Y-103479984D01*
X212512256Y-103484840D01*
X212512260Y-103484840D01*
X212516782Y-103485500D01*
X213898313Y-103485500D01*
X213966434Y-103505502D01*
X213987408Y-103522405D01*
X214004408Y-103539405D01*
X214038434Y-103601717D01*
X214033369Y-103672532D01*
X213990822Y-103729368D01*
X213924302Y-103754179D01*
X213915313Y-103754500D01*
X212516782Y-103754500D01*
X212512232Y-103755170D01*
X212512229Y-103755170D01*
X212457574Y-103763216D01*
X212457573Y-103763216D01*
X212447888Y-103764642D01*
X212398048Y-103789112D01*
X212352493Y-103811478D01*
X212352491Y-103811479D01*
X212343145Y-103816068D01*
X212260707Y-103898650D01*
X212256134Y-103908006D01*
X212256133Y-103908007D01*
X212245406Y-103929952D01*
X212209464Y-104003482D01*
X212208052Y-104013162D01*
X212201308Y-104059392D01*
X212199500Y-104071782D01*
X212199500Y-104438218D01*
X212200170Y-104442768D01*
X212200170Y-104442771D01*
X212208216Y-104497426D01*
X212209642Y-104507112D01*
X212224453Y-104537278D01*
X212256226Y-104601992D01*
X212261068Y-104611855D01*
X212343650Y-104694293D01*
X212448482Y-104745536D01*
X212478973Y-104749984D01*
X212512256Y-104754840D01*
X212512260Y-104754840D01*
X212516782Y-104755500D01*
X213213313Y-104755500D01*
X213281434Y-104775502D01*
X213302408Y-104792405D01*
X215261995Y-106751992D01*
X215296021Y-106814304D01*
X215298900Y-106841087D01*
X215298900Y-107516390D01*
X215278898Y-107584511D01*
X215225242Y-107631004D01*
X215154968Y-107641108D01*
X215092587Y-107613476D01*
X214955275Y-107499882D01*
X214774055Y-107401897D01*
X214577254Y-107340977D01*
X214571129Y-107340333D01*
X214571128Y-107340333D01*
X214378498Y-107320087D01*
X214378496Y-107320087D01*
X214372369Y-107319443D01*
X214308889Y-107325220D01*
X214173342Y-107337555D01*
X214173339Y-107337556D01*
X214167203Y-107338114D01*
X213969572Y-107396280D01*
X213787002Y-107491726D01*
X213782201Y-107495586D01*
X213782198Y-107495588D01*
X213635576Y-107613475D01*
X213626447Y-107620815D01*
X213585217Y-107669951D01*
X213526110Y-107709276D01*
X213455123Y-107710402D01*
X213403166Y-107681480D01*
X213400770Y-107679265D01*
X213397207Y-107675838D01*
X211568005Y-105846636D01*
X211533979Y-105784324D01*
X211531100Y-105757541D01*
X211531100Y-99440871D01*
X211898456Y-99440871D01*
X211939107Y-99580790D01*
X211945352Y-99595221D01*
X212021911Y-99724678D01*
X212031551Y-99737104D01*
X212137896Y-99843449D01*
X212150326Y-99853091D01*
X212229458Y-99899889D01*
X212277911Y-99951782D01*
X212290617Y-100021632D01*
X212267940Y-100081405D01*
X212260707Y-100088650D01*
X212256136Y-100098001D01*
X212256134Y-100098004D01*
X212251089Y-100108326D01*
X212209464Y-100193482D01*
X212199500Y-100261782D01*
X212199500Y-100628218D01*
X212200170Y-100632768D01*
X212200170Y-100632771D01*
X212208216Y-100687426D01*
X212209642Y-100697112D01*
X212261068Y-100801855D01*
X212343650Y-100884293D01*
X212448482Y-100935536D01*
X212478973Y-100939984D01*
X212512256Y-100944840D01*
X212512260Y-100944840D01*
X212516782Y-100945500D01*
X214083218Y-100945500D01*
X214087768Y-100944830D01*
X214087771Y-100944830D01*
X214142426Y-100936784D01*
X214142427Y-100936784D01*
X214152112Y-100935358D01*
X214256855Y-100883932D01*
X214280464Y-100860281D01*
X214342746Y-100826203D01*
X214369636Y-100823300D01*
X215548270Y-100823300D01*
X215616391Y-100843302D01*
X215637365Y-100860205D01*
X215900074Y-101122914D01*
X215934100Y-101185226D01*
X215929035Y-101256041D01*
X215886488Y-101312877D01*
X215819968Y-101337688D01*
X215798527Y-101336177D01*
X215798440Y-101337180D01*
X215795601Y-101336934D01*
X215795598Y-101336934D01*
X215792898Y-101336700D01*
X215790186Y-101336700D01*
X215787571Y-101336587D01*
X215787457Y-101336553D01*
X215787464Y-101336394D01*
X215786783Y-101336351D01*
X215780569Y-101334493D01*
X215727407Y-101336582D01*
X215726873Y-101336603D01*
X215721926Y-101336700D01*
X214369576Y-101336700D01*
X214301455Y-101316698D01*
X214280558Y-101299873D01*
X214274379Y-101293704D01*
X214256350Y-101275707D01*
X214151518Y-101224464D01*
X214121027Y-101220016D01*
X214087744Y-101215160D01*
X214087740Y-101215160D01*
X214083218Y-101214500D01*
X212516782Y-101214500D01*
X212512232Y-101215170D01*
X212512229Y-101215170D01*
X212457574Y-101223216D01*
X212457573Y-101223216D01*
X212447888Y-101224642D01*
X212408939Y-101243765D01*
X212352493Y-101271478D01*
X212352491Y-101271479D01*
X212343145Y-101276068D01*
X212335787Y-101283438D01*
X212335788Y-101283438D01*
X212269563Y-101349779D01*
X212260707Y-101358650D01*
X212209464Y-101463482D01*
X212205375Y-101491512D01*
X212204486Y-101497608D01*
X212199500Y-101531782D01*
X212199500Y-101898218D01*
X212200170Y-101902768D01*
X212200170Y-101902771D01*
X212208216Y-101957426D01*
X212209642Y-101967112D01*
X212225102Y-101998601D01*
X212249524Y-102048342D01*
X212261068Y-102071855D01*
X212284385Y-102095131D01*
X212331898Y-102142561D01*
X212343650Y-102154293D01*
X212448482Y-102205536D01*
X212466606Y-102208180D01*
X212512256Y-102214840D01*
X212512260Y-102214840D01*
X212516782Y-102215500D01*
X214083218Y-102215500D01*
X214087768Y-102214830D01*
X214087771Y-102214830D01*
X214142426Y-102206784D01*
X214142427Y-102206784D01*
X214152112Y-102205358D01*
X214256855Y-102153932D01*
X214280464Y-102130281D01*
X214342746Y-102096203D01*
X214369636Y-102093300D01*
X215523613Y-102093300D01*
X215591734Y-102113302D01*
X215612708Y-102130205D01*
X219455095Y-105972592D01*
X219489121Y-106034904D01*
X219492000Y-106061687D01*
X219492000Y-106753834D01*
X219494981Y-106785369D01*
X219539866Y-106913184D01*
X219545458Y-106920754D01*
X219545459Y-106920757D01*
X219590638Y-106981924D01*
X219620350Y-107022150D01*
X219627921Y-107027742D01*
X219721743Y-107097041D01*
X219721746Y-107097042D01*
X219729316Y-107102634D01*
X219857131Y-107147519D01*
X219864777Y-107148242D01*
X219864778Y-107148242D01*
X219870748Y-107148806D01*
X219888666Y-107150500D01*
X220646334Y-107150500D01*
X220664252Y-107148806D01*
X220670222Y-107148242D01*
X220670223Y-107148242D01*
X220677869Y-107147519D01*
X220805684Y-107102634D01*
X220813254Y-107097042D01*
X220813257Y-107097041D01*
X220907079Y-107027742D01*
X220914650Y-107022150D01*
X220944362Y-106981924D01*
X220989541Y-106920757D01*
X220989542Y-106920754D01*
X220995134Y-106913184D01*
X221040019Y-106785369D01*
X221043000Y-106753834D01*
X221542000Y-106753834D01*
X221544981Y-106785369D01*
X221589866Y-106913184D01*
X221595458Y-106920754D01*
X221595459Y-106920757D01*
X221640638Y-106981924D01*
X221670350Y-107022150D01*
X221677921Y-107027742D01*
X221771743Y-107097041D01*
X221771746Y-107097042D01*
X221779316Y-107102634D01*
X221907131Y-107147519D01*
X221914777Y-107148242D01*
X221914778Y-107148242D01*
X221920748Y-107148806D01*
X221938666Y-107150500D01*
X222696334Y-107150500D01*
X222714252Y-107148806D01*
X222720222Y-107148242D01*
X222720223Y-107148242D01*
X222727869Y-107147519D01*
X222855684Y-107102634D01*
X222863254Y-107097042D01*
X222863257Y-107097041D01*
X222957079Y-107027742D01*
X222964650Y-107022150D01*
X222994362Y-106981924D01*
X223039541Y-106920757D01*
X223039542Y-106920754D01*
X223045134Y-106913184D01*
X223090019Y-106785369D01*
X223093000Y-106753834D01*
X223093000Y-106750868D01*
X223093118Y-106748367D01*
X223116305Y-106681264D01*
X223172090Y-106637349D01*
X223218978Y-106628300D01*
X225016001Y-106628300D01*
X225084122Y-106648302D01*
X225130615Y-106701958D01*
X225142001Y-106754300D01*
X225142001Y-106928832D01*
X225144981Y-106960368D01*
X225147524Y-106967609D01*
X225147524Y-106967610D01*
X225186471Y-107078514D01*
X225189866Y-107088183D01*
X225270350Y-107197150D01*
X225379317Y-107277634D01*
X225388204Y-107280755D01*
X225388206Y-107280756D01*
X225471124Y-107309874D01*
X225507132Y-107322519D01*
X225514778Y-107323242D01*
X225514779Y-107323242D01*
X225520749Y-107323806D01*
X225538667Y-107325500D01*
X226054738Y-107325500D01*
X226571332Y-107325499D01*
X226574282Y-107325220D01*
X226574287Y-107325220D01*
X226584906Y-107324216D01*
X226602868Y-107322519D01*
X226610109Y-107319976D01*
X226610110Y-107319976D01*
X226721794Y-107280756D01*
X226721796Y-107280755D01*
X226730683Y-107277634D01*
X226839650Y-107197150D01*
X226894351Y-107123091D01*
X226950909Y-107080182D01*
X227021691Y-107074662D01*
X227084221Y-107108286D01*
X227118646Y-107170378D01*
X227121700Y-107197952D01*
X227121700Y-108305573D01*
X227101698Y-108373694D01*
X227048042Y-108420187D01*
X226977768Y-108430291D01*
X226939217Y-108417417D01*
X226934767Y-108413909D01*
X226926156Y-108410885D01*
X226918731Y-108405579D01*
X226908755Y-108402596D01*
X226908752Y-108402594D01*
X226869805Y-108390947D01*
X226864157Y-108389112D01*
X226823423Y-108374807D01*
X226823417Y-108374806D01*
X226815940Y-108372180D01*
X226810398Y-108371700D01*
X226807680Y-108371700D01*
X226805071Y-108371587D01*
X226804957Y-108371553D01*
X226804964Y-108371394D01*
X226804283Y-108371351D01*
X226798069Y-108369493D01*
X226744907Y-108371582D01*
X226744373Y-108371603D01*
X226739426Y-108371700D01*
X226028771Y-108371700D01*
X225960650Y-108351698D01*
X225940287Y-108332971D01*
X225939148Y-108334109D01*
X225933310Y-108328271D01*
X225928282Y-108321718D01*
X225907242Y-108305573D01*
X225809392Y-108230491D01*
X225802841Y-108225464D01*
X225656762Y-108164956D01*
X225500000Y-108144318D01*
X225343238Y-108164956D01*
X225197159Y-108225464D01*
X225071718Y-108321718D01*
X224975464Y-108447159D01*
X224914956Y-108593238D01*
X224913878Y-108601426D01*
X224912122Y-108614763D01*
X224894318Y-108750000D01*
X224914956Y-108906762D01*
X224975464Y-109052841D01*
X225005206Y-109091602D01*
X225066648Y-109171674D01*
X225071718Y-109178282D01*
X225078264Y-109183305D01*
X225104593Y-109203508D01*
X225197159Y-109274536D01*
X225343238Y-109335044D01*
X225500000Y-109355682D01*
X225508188Y-109354604D01*
X225648574Y-109336122D01*
X225656762Y-109335044D01*
X225802841Y-109274536D01*
X225887147Y-109209846D01*
X225921731Y-109183309D01*
X225921732Y-109183308D01*
X225928282Y-109178282D01*
X225933310Y-109171729D01*
X225939148Y-109165891D01*
X225941545Y-109168288D01*
X225986188Y-109135714D01*
X226028771Y-109128300D01*
X226541113Y-109128300D01*
X226609234Y-109148302D01*
X226630208Y-109165205D01*
X227160104Y-109695101D01*
X227177606Y-109719797D01*
X227178485Y-109719230D01*
X227182783Y-109725888D01*
X227186214Y-109733032D01*
X227189794Y-109737291D01*
X227191726Y-109739223D01*
X227193479Y-109741133D01*
X227193530Y-109741229D01*
X227193411Y-109741339D01*
X227193871Y-109741861D01*
X227196951Y-109747569D01*
X227204597Y-109754637D01*
X227204598Y-109754638D01*
X227236427Y-109784060D01*
X227239993Y-109787490D01*
X228037595Y-110585092D01*
X228071621Y-110647404D01*
X228074500Y-110674187D01*
X228074501Y-111175449D01*
X228074501Y-111678832D01*
X228077481Y-111710368D01*
X228080024Y-111717609D01*
X228080024Y-111717610D01*
X228116578Y-111821700D01*
X228122366Y-111838183D01*
X228202850Y-111947150D01*
X228311817Y-112027634D01*
X228320704Y-112030755D01*
X228320706Y-112030756D01*
X228419000Y-112065274D01*
X228439632Y-112072519D01*
X228447278Y-112073242D01*
X228447279Y-112073242D01*
X228453249Y-112073806D01*
X228471167Y-112075500D01*
X228987238Y-112075500D01*
X229503832Y-112075499D01*
X229506782Y-112075220D01*
X229506787Y-112075220D01*
X229517406Y-112074216D01*
X229535368Y-112072519D01*
X229542609Y-112069976D01*
X229542610Y-112069976D01*
X229654294Y-112030756D01*
X229654296Y-112030755D01*
X229663183Y-112027634D01*
X229772150Y-111947150D01*
X229852634Y-111838183D01*
X229858423Y-111821700D01*
X229894974Y-111717615D01*
X229897519Y-111710368D01*
X229898268Y-111702451D01*
X229899365Y-111690842D01*
X229900500Y-111678833D01*
X229900499Y-110321168D01*
X229899813Y-110313903D01*
X229899103Y-110306399D01*
X229897519Y-110289632D01*
X229871818Y-110216446D01*
X229855756Y-110170706D01*
X229855755Y-110170704D01*
X229852634Y-110161817D01*
X229772150Y-110052850D01*
X229663183Y-109972366D01*
X229654296Y-109969245D01*
X229654294Y-109969244D01*
X229542615Y-109930026D01*
X229535368Y-109927481D01*
X229527722Y-109926758D01*
X229527721Y-109926758D01*
X229521171Y-109926139D01*
X229503833Y-109924500D01*
X229405076Y-109924500D01*
X228499188Y-109924501D01*
X228431067Y-109904499D01*
X228410093Y-109887596D01*
X227915205Y-109392708D01*
X227881179Y-109330396D01*
X227878300Y-109303613D01*
X227878300Y-107011234D01*
X227898302Y-106943113D01*
X227951958Y-106896620D01*
X228022232Y-106886516D01*
X228086812Y-106916010D01*
X228123183Y-106969486D01*
X228161471Y-107078514D01*
X228164866Y-107088183D01*
X228245350Y-107197150D01*
X228354317Y-107277634D01*
X228363204Y-107280755D01*
X228363206Y-107280756D01*
X228446124Y-107309874D01*
X228482132Y-107322519D01*
X228489778Y-107323242D01*
X228489779Y-107323242D01*
X228495749Y-107323806D01*
X228513667Y-107325500D01*
X229029738Y-107325500D01*
X229546332Y-107325499D01*
X229549282Y-107325220D01*
X229549287Y-107325220D01*
X229559906Y-107324216D01*
X229577868Y-107322519D01*
X229585109Y-107319976D01*
X229585110Y-107319976D01*
X229696794Y-107280756D01*
X229696796Y-107280755D01*
X229705683Y-107277634D01*
X229814650Y-107197150D01*
X229895134Y-107088183D01*
X229898530Y-107078514D01*
X229937474Y-106967615D01*
X229940019Y-106960368D01*
X229943000Y-106928833D01*
X229942999Y-105571168D01*
X229940019Y-105539632D01*
X229922104Y-105488617D01*
X229898256Y-105420706D01*
X229898255Y-105420704D01*
X229895134Y-105411817D01*
X229814650Y-105302850D01*
X229705683Y-105222366D01*
X229696796Y-105219245D01*
X229696794Y-105219244D01*
X229585115Y-105180026D01*
X229577868Y-105177481D01*
X229570222Y-105176758D01*
X229570221Y-105176758D01*
X229564251Y-105176194D01*
X229546333Y-105174500D01*
X229030262Y-105174500D01*
X228513668Y-105174501D01*
X228510718Y-105174780D01*
X228510713Y-105174780D01*
X228500094Y-105175784D01*
X228482132Y-105177481D01*
X228474891Y-105180024D01*
X228474890Y-105180024D01*
X228357352Y-105221300D01*
X228286452Y-105224998D01*
X228226509Y-105191512D01*
X227915205Y-104880208D01*
X227881179Y-104817896D01*
X227878300Y-104791113D01*
X227878300Y-103061387D01*
X227898302Y-102993266D01*
X227915205Y-102972292D01*
X228410092Y-102477405D01*
X228472404Y-102443379D01*
X228499187Y-102440500D01*
X229404985Y-102440499D01*
X229503832Y-102440499D01*
X229506782Y-102440220D01*
X229506787Y-102440220D01*
X229517406Y-102439216D01*
X229535368Y-102437519D01*
X229542609Y-102434976D01*
X229542610Y-102434976D01*
X229654294Y-102395756D01*
X229654296Y-102395755D01*
X229663183Y-102392634D01*
X229772150Y-102312150D01*
X229852634Y-102203183D01*
X229859545Y-102183505D01*
X229894974Y-102082615D01*
X229897519Y-102075368D01*
X229900500Y-102043833D01*
X229900499Y-100686168D01*
X229897519Y-100654632D01*
X229894974Y-100647385D01*
X229855756Y-100535706D01*
X229855755Y-100535704D01*
X229852634Y-100526817D01*
X229772150Y-100417850D01*
X229663183Y-100337366D01*
X229654296Y-100334245D01*
X229654294Y-100334244D01*
X229542615Y-100295026D01*
X229535368Y-100292481D01*
X229527722Y-100291758D01*
X229527721Y-100291758D01*
X229521751Y-100291194D01*
X229503833Y-100289500D01*
X228987762Y-100289500D01*
X228471168Y-100289501D01*
X228468218Y-100289780D01*
X228468213Y-100289780D01*
X228457594Y-100290784D01*
X228439632Y-100292481D01*
X228432391Y-100295024D01*
X228432390Y-100295024D01*
X228320706Y-100334244D01*
X228320704Y-100334245D01*
X228311817Y-100337366D01*
X228202850Y-100417850D01*
X228122366Y-100526817D01*
X228119245Y-100535704D01*
X228119244Y-100535706D01*
X228099142Y-100592949D01*
X228077481Y-100654632D01*
X228074500Y-100686167D01*
X228074501Y-101214500D01*
X228074501Y-101690812D01*
X228054499Y-101758933D01*
X228037596Y-101779907D01*
X227270541Y-102546962D01*
X227251945Y-102561982D01*
X227250630Y-102563179D01*
X227241879Y-102568829D01*
X227235432Y-102577007D01*
X227221167Y-102595102D01*
X227217240Y-102599521D01*
X227217315Y-102599584D01*
X227213961Y-102603542D01*
X227210279Y-102607224D01*
X227199093Y-102622878D01*
X227195542Y-102627607D01*
X227163909Y-102667733D01*
X227160885Y-102676344D01*
X227155579Y-102683769D01*
X227152596Y-102693745D01*
X227152594Y-102693748D01*
X227140947Y-102732695D01*
X227139112Y-102738343D01*
X227124807Y-102779077D01*
X227124806Y-102779083D01*
X227122180Y-102786560D01*
X227121700Y-102792102D01*
X227121700Y-102794820D01*
X227121587Y-102797429D01*
X227121553Y-102797543D01*
X227121394Y-102797536D01*
X227121351Y-102798217D01*
X227119493Y-102804431D01*
X227121027Y-102843468D01*
X227121603Y-102858127D01*
X227121700Y-102863074D01*
X227121700Y-104946202D01*
X227119170Y-104969974D01*
X227119086Y-104971756D01*
X227116895Y-104981933D01*
X227118119Y-104992272D01*
X227120827Y-105015154D01*
X227121700Y-105029964D01*
X227121700Y-105302048D01*
X227101698Y-105370169D01*
X227048042Y-105416662D01*
X226977768Y-105426766D01*
X226913188Y-105397272D01*
X226894354Y-105376913D01*
X226839650Y-105302850D01*
X226730683Y-105222366D01*
X226721796Y-105219245D01*
X226721794Y-105219244D01*
X226610115Y-105180026D01*
X226602868Y-105177481D01*
X226595222Y-105176758D01*
X226595221Y-105176758D01*
X226589251Y-105176194D01*
X226571333Y-105174500D01*
X226055262Y-105174500D01*
X225538668Y-105174501D01*
X225535718Y-105174780D01*
X225535713Y-105174780D01*
X225525094Y-105175784D01*
X225507132Y-105177481D01*
X225499891Y-105180024D01*
X225499890Y-105180024D01*
X225388206Y-105219244D01*
X225388204Y-105219245D01*
X225379317Y-105222366D01*
X225270350Y-105302850D01*
X225189866Y-105411817D01*
X225186745Y-105420704D01*
X225186744Y-105420706D01*
X225162896Y-105488617D01*
X225144981Y-105539632D01*
X225142000Y-105571167D01*
X225142000Y-105745700D01*
X225121998Y-105813821D01*
X225068342Y-105860314D01*
X225016000Y-105871700D01*
X223218978Y-105871700D01*
X223150857Y-105851698D01*
X223104364Y-105798042D01*
X223093118Y-105751633D01*
X223093000Y-105749129D01*
X223093000Y-105746166D01*
X223090019Y-105714631D01*
X223045134Y-105586816D01*
X223039542Y-105579246D01*
X223039541Y-105579243D01*
X222970242Y-105485421D01*
X222964650Y-105477850D01*
X222938244Y-105458346D01*
X222863257Y-105402959D01*
X222863254Y-105402958D01*
X222855684Y-105397366D01*
X222727869Y-105352481D01*
X222720223Y-105351758D01*
X222720222Y-105351758D01*
X222714252Y-105351194D01*
X222696334Y-105349500D01*
X221938666Y-105349500D01*
X221920748Y-105351194D01*
X221914778Y-105351758D01*
X221914777Y-105351758D01*
X221907131Y-105352481D01*
X221779316Y-105397366D01*
X221771746Y-105402958D01*
X221771743Y-105402959D01*
X221696756Y-105458346D01*
X221670350Y-105477850D01*
X221664758Y-105485421D01*
X221595459Y-105579243D01*
X221595458Y-105579246D01*
X221589866Y-105586816D01*
X221544981Y-105714631D01*
X221542000Y-105746166D01*
X221542000Y-106753834D01*
X221043000Y-106753834D01*
X221043000Y-105746166D01*
X221040019Y-105714631D01*
X220995134Y-105586816D01*
X220989542Y-105579246D01*
X220989541Y-105579243D01*
X220920242Y-105485421D01*
X220914650Y-105477850D01*
X220888244Y-105458346D01*
X220813257Y-105402959D01*
X220813254Y-105402958D01*
X220805684Y-105397366D01*
X220677869Y-105352481D01*
X220670223Y-105351758D01*
X220670222Y-105351758D01*
X220664252Y-105351194D01*
X220646334Y-105349500D01*
X219954187Y-105349500D01*
X219886066Y-105329498D01*
X219865092Y-105312595D01*
X216458943Y-101906446D01*
X216424917Y-101844134D01*
X216429982Y-101773319D01*
X216472529Y-101716483D01*
X216539049Y-101691672D01*
X216560490Y-101693183D01*
X216560577Y-101692180D01*
X216563416Y-101692426D01*
X216563419Y-101692426D01*
X216566119Y-101692660D01*
X216568831Y-101692660D01*
X216571446Y-101692773D01*
X216571560Y-101692807D01*
X216571553Y-101692966D01*
X216572234Y-101693009D01*
X216578448Y-101694867D01*
X216632146Y-101692757D01*
X216637092Y-101692660D01*
X219336022Y-101692660D01*
X219404143Y-101712662D01*
X219450636Y-101766318D01*
X219461882Y-101812727D01*
X219462000Y-101815228D01*
X219462000Y-101818194D01*
X219464981Y-101849729D01*
X219509866Y-101977544D01*
X219515458Y-101985114D01*
X219515459Y-101985117D01*
X219569791Y-102058675D01*
X219590350Y-102086510D01*
X219597921Y-102092102D01*
X219691743Y-102161401D01*
X219691746Y-102161402D01*
X219699316Y-102166994D01*
X219827131Y-102211879D01*
X219834777Y-102212602D01*
X219834778Y-102212602D01*
X219840354Y-102213129D01*
X219858666Y-102214860D01*
X220616334Y-102214860D01*
X220634646Y-102213129D01*
X220640222Y-102212602D01*
X220640223Y-102212602D01*
X220647869Y-102211879D01*
X220775684Y-102166994D01*
X220783254Y-102161402D01*
X220783257Y-102161401D01*
X220877079Y-102092102D01*
X220884650Y-102086510D01*
X220905209Y-102058675D01*
X220959541Y-101985117D01*
X220959542Y-101985114D01*
X220965134Y-101977544D01*
X221010019Y-101849729D01*
X221013000Y-101818194D01*
X221512000Y-101818194D01*
X221514981Y-101849729D01*
X221559866Y-101977544D01*
X221565458Y-101985114D01*
X221565459Y-101985117D01*
X221619791Y-102058675D01*
X221640350Y-102086510D01*
X221647921Y-102092102D01*
X221741743Y-102161401D01*
X221741746Y-102161402D01*
X221749316Y-102166994D01*
X221877131Y-102211879D01*
X221884777Y-102212602D01*
X221884778Y-102212602D01*
X221890354Y-102213129D01*
X221908666Y-102214860D01*
X222666334Y-102214860D01*
X222684646Y-102213129D01*
X222690222Y-102212602D01*
X222690223Y-102212602D01*
X222697869Y-102211879D01*
X222825684Y-102166994D01*
X222833254Y-102161402D01*
X222833257Y-102161401D01*
X222927079Y-102092102D01*
X222934650Y-102086510D01*
X222955209Y-102058675D01*
X223009541Y-101985117D01*
X223009542Y-101985114D01*
X223015134Y-101977544D01*
X223060019Y-101849729D01*
X223060727Y-101842240D01*
X223094833Y-101780045D01*
X223157206Y-101746132D01*
X223183768Y-101743300D01*
X224973501Y-101743300D01*
X225041622Y-101763302D01*
X225088115Y-101816958D01*
X225099501Y-101869300D01*
X225099501Y-102043832D01*
X225102481Y-102075368D01*
X225105024Y-102082609D01*
X225105024Y-102082610D01*
X225140456Y-102183505D01*
X225147366Y-102203183D01*
X225227850Y-102312150D01*
X225336817Y-102392634D01*
X225345704Y-102395755D01*
X225345706Y-102395756D01*
X225429766Y-102425275D01*
X225464632Y-102437519D01*
X225472278Y-102438242D01*
X225472279Y-102438242D01*
X225478249Y-102438806D01*
X225496167Y-102440500D01*
X226012238Y-102440500D01*
X226528832Y-102440499D01*
X226531782Y-102440220D01*
X226531787Y-102440220D01*
X226542406Y-102439216D01*
X226560368Y-102437519D01*
X226567609Y-102434976D01*
X226567610Y-102434976D01*
X226679294Y-102395756D01*
X226679296Y-102395755D01*
X226688183Y-102392634D01*
X226797150Y-102312150D01*
X226877634Y-102203183D01*
X226884545Y-102183505D01*
X226919974Y-102082615D01*
X226922519Y-102075368D01*
X226925500Y-102043833D01*
X226925499Y-100686168D01*
X226922519Y-100654632D01*
X226919974Y-100647385D01*
X226880756Y-100535706D01*
X226880755Y-100535704D01*
X226877634Y-100526817D01*
X226797150Y-100417850D01*
X226688183Y-100337366D01*
X226679296Y-100334245D01*
X226679294Y-100334244D01*
X226567615Y-100295026D01*
X226560368Y-100292481D01*
X226552722Y-100291758D01*
X226552721Y-100291758D01*
X226546751Y-100291194D01*
X226528833Y-100289500D01*
X226012762Y-100289500D01*
X225496168Y-100289501D01*
X225493218Y-100289780D01*
X225493213Y-100289780D01*
X225482594Y-100290784D01*
X225464632Y-100292481D01*
X225457391Y-100295024D01*
X225457390Y-100295024D01*
X225345706Y-100334244D01*
X225345704Y-100334245D01*
X225336817Y-100337366D01*
X225227850Y-100417850D01*
X225147366Y-100526817D01*
X225144245Y-100535704D01*
X225144244Y-100535706D01*
X225124142Y-100592949D01*
X225102481Y-100654632D01*
X225099500Y-100686167D01*
X225099500Y-100860700D01*
X225079498Y-100928821D01*
X225025842Y-100975314D01*
X224973500Y-100986700D01*
X223189000Y-100986700D01*
X223120879Y-100966698D01*
X223074386Y-100913042D01*
X223063000Y-100860700D01*
X223063000Y-100810526D01*
X223060019Y-100778991D01*
X223015134Y-100651176D01*
X223009542Y-100643606D01*
X223009541Y-100643603D01*
X222940242Y-100549781D01*
X222934650Y-100542210D01*
X222876995Y-100499625D01*
X222833257Y-100467319D01*
X222833254Y-100467318D01*
X222825684Y-100461726D01*
X222697869Y-100416841D01*
X222690223Y-100416118D01*
X222690222Y-100416118D01*
X222684252Y-100415554D01*
X222666334Y-100413860D01*
X221908666Y-100413860D01*
X221890748Y-100415554D01*
X221884778Y-100416118D01*
X221884777Y-100416118D01*
X221877131Y-100416841D01*
X221749316Y-100461726D01*
X221741746Y-100467318D01*
X221741743Y-100467319D01*
X221698005Y-100499625D01*
X221640350Y-100542210D01*
X221634758Y-100549781D01*
X221565459Y-100643603D01*
X221565458Y-100643606D01*
X221559866Y-100651176D01*
X221514981Y-100778991D01*
X221512000Y-100810526D01*
X221512000Y-101818194D01*
X221013000Y-101818194D01*
X221013000Y-100810526D01*
X221010019Y-100778991D01*
X220965134Y-100651176D01*
X220959542Y-100643606D01*
X220959541Y-100643603D01*
X220890242Y-100549781D01*
X220884650Y-100542210D01*
X220826995Y-100499625D01*
X220783257Y-100467319D01*
X220783254Y-100467318D01*
X220775684Y-100461726D01*
X220647869Y-100416841D01*
X220640223Y-100416118D01*
X220640222Y-100416118D01*
X220634252Y-100415554D01*
X220616334Y-100413860D01*
X219858666Y-100413860D01*
X219840748Y-100415554D01*
X219834778Y-100416118D01*
X219834777Y-100416118D01*
X219827131Y-100416841D01*
X219699316Y-100461726D01*
X219691746Y-100467318D01*
X219691743Y-100467319D01*
X219648005Y-100499625D01*
X219590350Y-100542210D01*
X219584758Y-100549781D01*
X219515459Y-100643603D01*
X219515458Y-100643606D01*
X219509866Y-100651176D01*
X219464981Y-100778991D01*
X219462000Y-100810526D01*
X219462000Y-100813489D01*
X219461882Y-100815993D01*
X219438695Y-100883096D01*
X219382910Y-100927011D01*
X219336022Y-100936060D01*
X218204895Y-100936060D01*
X218136774Y-100916058D01*
X218090281Y-100862402D01*
X218080177Y-100792128D01*
X218097635Y-100743944D01*
X218137816Y-100678757D01*
X218143963Y-100665576D01*
X218195138Y-100511290D01*
X218198005Y-100497914D01*
X218207672Y-100403562D01*
X218208000Y-100397146D01*
X218208000Y-100297115D01*
X218203525Y-100281876D01*
X218202135Y-100280671D01*
X218194452Y-100279000D01*
X216178344Y-100279000D01*
X216110223Y-100258998D01*
X216089249Y-100242095D01*
X216062695Y-100215541D01*
X216047675Y-100196945D01*
X216046478Y-100195630D01*
X216040828Y-100186879D01*
X216014555Y-100166167D01*
X216010136Y-100162240D01*
X216010073Y-100162315D01*
X216006115Y-100158961D01*
X216002433Y-100155279D01*
X215998202Y-100152256D01*
X215998199Y-100152253D01*
X215993280Y-100148738D01*
X215986779Y-100144093D01*
X215982043Y-100140537D01*
X215941924Y-100108909D01*
X215933313Y-100105885D01*
X215925888Y-100100579D01*
X215915912Y-100097596D01*
X215915909Y-100097594D01*
X215876962Y-100085947D01*
X215871314Y-100084112D01*
X215830580Y-100069807D01*
X215830574Y-100069806D01*
X215823097Y-100067180D01*
X215817555Y-100066700D01*
X215814837Y-100066700D01*
X215812228Y-100066587D01*
X215812114Y-100066553D01*
X215812121Y-100066394D01*
X215811440Y-100066351D01*
X215805226Y-100064493D01*
X215752064Y-100066582D01*
X215751530Y-100066603D01*
X215746583Y-100066700D01*
X214542306Y-100066700D01*
X214474185Y-100046698D01*
X214427692Y-99993042D01*
X214417588Y-99922768D01*
X214447082Y-99858188D01*
X214456607Y-99849164D01*
X214456498Y-99849055D01*
X214568449Y-99737104D01*
X214578089Y-99724678D01*
X214654648Y-99595221D01*
X214660893Y-99580790D01*
X214699939Y-99446395D01*
X214699899Y-99432294D01*
X214692630Y-99429000D01*
X211913122Y-99429000D01*
X211899591Y-99432973D01*
X211898456Y-99440871D01*
X211531100Y-99440871D01*
X211531100Y-97344665D01*
X211551102Y-97276544D01*
X211568005Y-97255570D01*
X211998573Y-96825002D01*
X212060885Y-96790976D01*
X212131700Y-96796041D01*
X212188536Y-96838588D01*
X212207992Y-96876705D01*
X212208216Y-96877426D01*
X212209642Y-96887112D01*
X212228149Y-96924807D01*
X212245863Y-96960885D01*
X212261068Y-96991855D01*
X212343650Y-97074293D01*
X212353006Y-97078866D01*
X212353007Y-97078867D01*
X212385460Y-97094730D01*
X212448482Y-97125536D01*
X212478973Y-97129984D01*
X212512256Y-97134840D01*
X212512260Y-97134840D01*
X212516782Y-97135500D01*
X214083218Y-97135500D01*
X214087768Y-97134830D01*
X214087771Y-97134830D01*
X214142426Y-97126784D01*
X214142427Y-97126784D01*
X214152112Y-97125358D01*
X214232027Y-97086122D01*
X214247507Y-97078522D01*
X214247509Y-97078521D01*
X214256855Y-97073932D01*
X214339293Y-96991350D01*
X214351922Y-96965515D01*
X214359730Y-96949540D01*
X214390536Y-96886518D01*
X214398250Y-96833639D01*
X214399840Y-96822744D01*
X214399840Y-96822740D01*
X214400500Y-96818218D01*
X214400500Y-96570407D01*
X214420502Y-96502286D01*
X214421798Y-96501163D01*
X214400961Y-96456935D01*
X214400500Y-96452907D01*
X214400500Y-96451782D01*
X214390358Y-96382888D01*
X214338932Y-96278145D01*
X214272883Y-96212211D01*
X214263721Y-96203065D01*
X214263720Y-96203065D01*
X214256350Y-96195707D01*
X214151518Y-96144464D01*
X214121027Y-96140016D01*
X214087744Y-96135160D01*
X214087740Y-96135160D01*
X214083218Y-96134500D01*
X212993265Y-96134500D01*
X212925144Y-96114498D01*
X212878651Y-96060842D01*
X212868547Y-95990568D01*
X212898041Y-95925988D01*
X212904170Y-95919405D01*
X212921170Y-95902405D01*
X212983482Y-95868379D01*
X213010265Y-95865500D01*
X214083218Y-95865500D01*
X214087768Y-95864830D01*
X214087771Y-95864830D01*
X214142426Y-95856784D01*
X214142427Y-95856784D01*
X214152112Y-95855358D01*
X214225440Y-95819356D01*
X214247507Y-95808522D01*
X214247509Y-95808521D01*
X214256855Y-95803932D01*
X214339293Y-95721350D01*
X214390536Y-95616518D01*
X214394984Y-95586027D01*
X214399840Y-95552744D01*
X214399840Y-95552740D01*
X214400500Y-95548218D01*
X214400500Y-95181782D01*
X214392580Y-95127978D01*
X214391784Y-95122574D01*
X214391784Y-95122573D01*
X214390358Y-95112888D01*
X214352774Y-95036337D01*
X214343522Y-95017493D01*
X214343521Y-95017491D01*
X214338932Y-95008145D01*
X214256350Y-94925707D01*
X214151518Y-94874464D01*
X214121027Y-94870016D01*
X214087744Y-94865160D01*
X214087740Y-94865160D01*
X214083218Y-94864500D01*
X212993265Y-94864500D01*
X212925144Y-94844498D01*
X212878651Y-94790842D01*
X212868547Y-94720568D01*
X212898041Y-94655988D01*
X212904170Y-94649405D01*
X212921170Y-94632405D01*
X212983482Y-94598379D01*
X213010265Y-94595500D01*
X214083218Y-94595500D01*
X214087768Y-94594830D01*
X214087771Y-94594830D01*
X214142426Y-94586784D01*
X214142427Y-94586784D01*
X214152112Y-94585358D01*
X214213032Y-94555448D01*
X214247507Y-94538522D01*
X214247509Y-94538521D01*
X214256855Y-94533932D01*
X214313243Y-94477446D01*
X214331935Y-94458721D01*
X214331935Y-94458720D01*
X214339293Y-94451350D01*
X214390536Y-94346518D01*
X214394984Y-94316027D01*
X214399840Y-94282744D01*
X214399840Y-94282740D01*
X214400500Y-94278218D01*
X214400500Y-93911782D01*
X214390358Y-93842888D01*
X214338932Y-93738145D01*
X214256350Y-93655707D01*
X214151518Y-93604464D01*
X214121027Y-93600016D01*
X214087744Y-93595160D01*
X214087740Y-93595160D01*
X214083218Y-93594500D01*
X212993265Y-93594500D01*
X212925144Y-93574498D01*
X212878651Y-93520842D01*
X212868547Y-93450568D01*
X212898041Y-93385988D01*
X212904170Y-93379405D01*
X212921170Y-93362405D01*
X212983482Y-93328379D01*
X213010265Y-93325500D01*
X214083218Y-93325500D01*
X214087768Y-93324830D01*
X214087771Y-93324830D01*
X214142426Y-93316784D01*
X214142427Y-93316784D01*
X214152112Y-93315358D01*
X214246804Y-93268867D01*
X214247507Y-93268522D01*
X214247509Y-93268521D01*
X214256855Y-93263932D01*
X214339293Y-93181350D01*
X214390536Y-93076518D01*
X214394984Y-93046027D01*
X214399840Y-93012744D01*
X214399840Y-93012740D01*
X214400500Y-93008218D01*
X214400500Y-92641782D01*
X214391871Y-92583162D01*
X214391784Y-92582574D01*
X214391784Y-92582573D01*
X214390358Y-92572888D01*
X214363046Y-92517260D01*
X214343522Y-92477493D01*
X214343521Y-92477491D01*
X214338932Y-92468145D01*
X214256350Y-92385707D01*
X214242073Y-92378728D01*
X214209328Y-92362722D01*
X214151518Y-92334464D01*
X214121027Y-92330016D01*
X214087744Y-92325160D01*
X214087740Y-92325160D01*
X214083218Y-92324500D01*
X212993265Y-92324500D01*
X212925144Y-92304498D01*
X212878651Y-92250842D01*
X212868547Y-92180568D01*
X212898041Y-92115988D01*
X212904170Y-92109405D01*
X212921170Y-92092405D01*
X212983482Y-92058379D01*
X213010265Y-92055500D01*
X214083218Y-92055500D01*
X214087768Y-92054830D01*
X214087771Y-92054830D01*
X214142426Y-92046784D01*
X214142427Y-92046784D01*
X214152112Y-92045358D01*
X214215250Y-92014359D01*
X214247507Y-91998522D01*
X214247509Y-91998521D01*
X214256855Y-91993932D01*
X214339293Y-91911350D01*
X214390536Y-91806518D01*
X214397321Y-91760012D01*
X214399840Y-91742744D01*
X214399840Y-91742740D01*
X214400500Y-91738218D01*
X214400500Y-91371782D01*
X214391871Y-91313162D01*
X214391784Y-91312574D01*
X214391784Y-91312573D01*
X214390358Y-91302888D01*
X214357409Y-91235778D01*
X214343522Y-91207493D01*
X214343521Y-91207491D01*
X214338932Y-91198145D01*
X214256350Y-91115707D01*
X214151518Y-91064464D01*
X214121027Y-91060016D01*
X214087744Y-91055160D01*
X214087740Y-91055160D01*
X214083218Y-91054500D01*
X212516782Y-91054500D01*
X212512232Y-91055170D01*
X212512229Y-91055170D01*
X212457574Y-91063216D01*
X212457573Y-91063216D01*
X212447888Y-91064642D01*
X212397992Y-91089140D01*
X212352493Y-91111478D01*
X212352491Y-91111479D01*
X212343145Y-91116068D01*
X212260707Y-91198650D01*
X212209464Y-91303482D01*
X212199500Y-91371782D01*
X212199500Y-91691891D01*
X212179498Y-91760012D01*
X212162595Y-91780986D01*
X209256541Y-94687040D01*
X209237945Y-94702060D01*
X209236630Y-94703257D01*
X209227879Y-94708907D01*
X209221432Y-94717085D01*
X209207167Y-94735180D01*
X209203240Y-94739599D01*
X209203315Y-94739662D01*
X209199961Y-94743620D01*
X209196279Y-94747302D01*
X209185093Y-94762956D01*
X209181542Y-94767685D01*
X209149909Y-94807811D01*
X209146885Y-94816422D01*
X209141579Y-94823847D01*
X209138596Y-94833823D01*
X209138594Y-94833826D01*
X209126947Y-94872773D01*
X209125112Y-94878421D01*
X209110807Y-94919155D01*
X209110806Y-94919161D01*
X209108180Y-94926638D01*
X209107700Y-94932180D01*
X209107700Y-94934898D01*
X209107587Y-94937507D01*
X209107553Y-94937621D01*
X209107394Y-94937614D01*
X209107351Y-94938295D01*
X209105493Y-94944509D01*
X209105902Y-94954915D01*
X209107603Y-94998205D01*
X209107700Y-95003152D01*
X209107700Y-103105113D01*
X209087698Y-103173234D01*
X209070795Y-103194208D01*
X205287741Y-106977262D01*
X205269145Y-106992282D01*
X205267830Y-106993479D01*
X205259079Y-106999129D01*
X205252632Y-107007307D01*
X205238367Y-107025402D01*
X205234440Y-107029821D01*
X205234515Y-107029884D01*
X205231161Y-107033842D01*
X205227479Y-107037524D01*
X205224456Y-107041755D01*
X205224453Y-107041758D01*
X205221828Y-107045432D01*
X205216293Y-107053178D01*
X205212742Y-107057907D01*
X205181109Y-107098033D01*
X205178085Y-107106644D01*
X205172779Y-107114069D01*
X205169796Y-107124045D01*
X205169794Y-107124048D01*
X205158147Y-107162995D01*
X205156312Y-107168643D01*
X205142007Y-107209377D01*
X205142006Y-107209383D01*
X205139380Y-107216860D01*
X205138900Y-107222402D01*
X205138900Y-107225120D01*
X205138787Y-107227729D01*
X205138753Y-107227843D01*
X205138594Y-107227836D01*
X205138551Y-107228517D01*
X205136693Y-107234731D01*
X205137102Y-107245137D01*
X205138803Y-107288427D01*
X205138900Y-107293374D01*
X205138900Y-107516390D01*
X205118898Y-107584511D01*
X205065242Y-107631004D01*
X204994968Y-107641108D01*
X204932587Y-107613476D01*
X204795275Y-107499882D01*
X204614055Y-107401897D01*
X204417254Y-107340977D01*
X204411129Y-107340333D01*
X204411128Y-107340333D01*
X204218498Y-107320087D01*
X204218496Y-107320087D01*
X204212369Y-107319443D01*
X204148889Y-107325220D01*
X204013342Y-107337555D01*
X204013339Y-107337556D01*
X204007203Y-107338114D01*
X203809572Y-107396280D01*
X203627002Y-107491726D01*
X203622201Y-107495586D01*
X203622198Y-107495588D01*
X203475576Y-107613475D01*
X203466447Y-107620815D01*
X203334024Y-107778630D01*
X203331056Y-107784028D01*
X203331053Y-107784033D01*
X203282822Y-107871766D01*
X203234776Y-107959162D01*
X203172484Y-108155532D01*
X203171798Y-108161649D01*
X203171797Y-108161653D01*
X203150481Y-108351698D01*
X203149520Y-108360262D01*
X203150521Y-108372180D01*
X203164518Y-108538862D01*
X203166759Y-108565553D01*
X203168458Y-108571478D01*
X203212364Y-108724595D01*
X203223544Y-108763586D01*
X203226359Y-108769063D01*
X203226360Y-108769066D01*
X203290666Y-108894192D01*
X203317712Y-108946818D01*
X203445677Y-109108270D01*
X203450370Y-109112264D01*
X203450371Y-109112265D01*
X203596290Y-109236451D01*
X203602564Y-109241791D01*
X203607942Y-109244797D01*
X203607944Y-109244798D01*
X203626245Y-109255026D01*
X203782398Y-109342297D01*
X203877238Y-109373113D01*
X203972471Y-109404056D01*
X203972475Y-109404057D01*
X203978329Y-109405959D01*
X204182894Y-109430351D01*
X204189029Y-109429879D01*
X204189031Y-109429879D01*
X204245039Y-109425569D01*
X204388300Y-109414546D01*
X204394230Y-109412890D01*
X204394232Y-109412890D01*
X204580797Y-109360800D01*
X204580796Y-109360800D01*
X204586725Y-109359145D01*
X204592214Y-109356372D01*
X204592220Y-109356370D01*
X204745785Y-109278798D01*
X204770610Y-109266258D01*
X204784987Y-109255026D01*
X204932951Y-109139424D01*
X204934182Y-109141000D01*
X204989123Y-109112715D01*
X205059794Y-109119503D01*
X205115577Y-109163421D01*
X205138900Y-109236451D01*
X205138900Y-110056390D01*
X205118898Y-110124511D01*
X205065242Y-110171004D01*
X204994968Y-110181108D01*
X204932587Y-110153476D01*
X204795275Y-110039882D01*
X204614055Y-109941897D01*
X204417254Y-109880977D01*
X204411129Y-109880333D01*
X204411128Y-109880333D01*
X204218498Y-109860087D01*
X204218496Y-109860087D01*
X204212369Y-109859443D01*
X204141164Y-109865923D01*
X204013342Y-109877555D01*
X204013339Y-109877556D01*
X204007203Y-109878114D01*
X203809572Y-109936280D01*
X203627002Y-110031726D01*
X203622201Y-110035586D01*
X203622198Y-110035588D01*
X203483174Y-110147366D01*
X203466447Y-110160815D01*
X203334024Y-110318630D01*
X203331056Y-110324028D01*
X203331053Y-110324033D01*
X203244829Y-110480875D01*
X203234776Y-110499162D01*
X203172484Y-110695532D01*
X203171798Y-110701649D01*
X203171797Y-110701653D01*
X203158759Y-110817896D01*
X203149520Y-110900262D01*
X202719138Y-110900262D01*
X202700480Y-110709970D01*
X202640935Y-110512749D01*
X202544218Y-110330849D01*
X202466389Y-110235421D01*
X202417906Y-110175975D01*
X202417903Y-110175972D01*
X202414011Y-110171200D01*
X202396786Y-110156950D01*
X202260025Y-110043811D01*
X202260021Y-110043808D01*
X202255275Y-110039882D01*
X202074055Y-109941897D01*
X201877254Y-109880977D01*
X201871129Y-109880333D01*
X201871128Y-109880333D01*
X201678498Y-109860087D01*
X201678496Y-109860087D01*
X201672369Y-109859443D01*
X201601164Y-109865923D01*
X201473342Y-109877555D01*
X201473339Y-109877556D01*
X201467203Y-109878114D01*
X201269572Y-109936280D01*
X201087002Y-110031726D01*
X201082201Y-110035586D01*
X201082198Y-110035588D01*
X200943174Y-110147366D01*
X200926447Y-110160815D01*
X200794024Y-110318630D01*
X200791056Y-110324028D01*
X200791053Y-110324033D01*
X200704829Y-110480875D01*
X200694776Y-110499162D01*
X200632484Y-110695532D01*
X200631798Y-110701649D01*
X200631797Y-110701653D01*
X200618759Y-110817896D01*
X200609520Y-110900262D01*
X200610036Y-110906406D01*
X200620886Y-111035609D01*
X200626759Y-111105553D01*
X200628458Y-111111478D01*
X200675862Y-111276794D01*
X200683544Y-111303586D01*
X200739093Y-111411672D01*
X200747189Y-111427426D01*
X200760536Y-111497156D01*
X200734066Y-111563034D01*
X200676181Y-111604142D01*
X200618676Y-111609942D01*
X200500000Y-111594318D01*
X200343238Y-111614956D01*
X200197159Y-111675464D01*
X200190610Y-111680489D01*
X200190607Y-111680491D01*
X200161989Y-111702451D01*
X200095768Y-111728052D01*
X200026220Y-111713788D01*
X199975423Y-111664187D01*
X199959507Y-111594997D01*
X199982321Y-111529863D01*
X199983544Y-111528129D01*
X199987564Y-111523472D01*
X199990603Y-111518122D01*
X199990606Y-111518118D01*
X200057113Y-111401044D01*
X200089323Y-111344344D01*
X200154351Y-111148863D01*
X200180171Y-110944474D01*
X200180583Y-110915000D01*
X200160480Y-110709970D01*
X200100935Y-110512749D01*
X200004218Y-110330849D01*
X199926389Y-110235421D01*
X199877906Y-110175975D01*
X199877903Y-110175972D01*
X199874011Y-110171200D01*
X199856786Y-110156950D01*
X199720025Y-110043811D01*
X199720021Y-110043808D01*
X199715275Y-110039882D01*
X199617538Y-109987036D01*
X199585726Y-109969835D01*
X199535317Y-109919840D01*
X199519940Y-109850529D01*
X199544476Y-109783907D01*
X199601136Y-109741126D01*
X199645655Y-109732999D01*
X200019669Y-109732999D01*
X200026490Y-109732629D01*
X200077352Y-109727105D01*
X200092604Y-109723479D01*
X200213054Y-109678324D01*
X200228649Y-109669786D01*
X200330724Y-109593285D01*
X200343285Y-109580724D01*
X200419786Y-109478649D01*
X200428324Y-109463054D01*
X200473478Y-109342606D01*
X200477105Y-109327351D01*
X200482631Y-109276486D01*
X200483000Y-109269672D01*
X200483000Y-108894192D01*
X200503002Y-108826071D01*
X200556658Y-108779578D01*
X200626932Y-108769474D01*
X200691512Y-108798968D01*
X200721067Y-108836598D01*
X200744024Y-108881267D01*
X200777712Y-108946818D01*
X200905677Y-109108270D01*
X200910370Y-109112264D01*
X200910371Y-109112265D01*
X201056290Y-109236451D01*
X201062564Y-109241791D01*
X201067942Y-109244797D01*
X201067944Y-109244798D01*
X201086245Y-109255026D01*
X201242398Y-109342297D01*
X201337238Y-109373113D01*
X201432471Y-109404056D01*
X201432475Y-109404057D01*
X201438329Y-109405959D01*
X201642894Y-109430351D01*
X201649029Y-109429879D01*
X201649031Y-109429879D01*
X201705039Y-109425569D01*
X201848300Y-109414546D01*
X201854230Y-109412890D01*
X201854232Y-109412890D01*
X202040797Y-109360800D01*
X202040796Y-109360800D01*
X202046725Y-109359145D01*
X202052214Y-109356372D01*
X202052220Y-109356370D01*
X202205785Y-109278798D01*
X202230610Y-109266258D01*
X202244987Y-109255026D01*
X202336780Y-109183309D01*
X202392951Y-109139424D01*
X202410147Y-109119503D01*
X202523540Y-108988134D01*
X202523540Y-108988133D01*
X202527564Y-108983472D01*
X202548387Y-108946818D01*
X202578282Y-108894192D01*
X202629323Y-108804344D01*
X202694351Y-108608863D01*
X202720171Y-108404474D01*
X202720583Y-108375000D01*
X202700480Y-108169970D01*
X202640935Y-107972749D01*
X202544218Y-107790849D01*
X202450417Y-107675838D01*
X202417906Y-107635975D01*
X202417903Y-107635972D01*
X202414011Y-107631200D01*
X202407166Y-107625537D01*
X202260025Y-107503811D01*
X202260021Y-107503808D01*
X202255275Y-107499882D01*
X202074055Y-107401897D01*
X201877254Y-107340977D01*
X201871129Y-107340333D01*
X201871128Y-107340333D01*
X201678498Y-107320087D01*
X201678496Y-107320087D01*
X201672369Y-107319443D01*
X201626465Y-107323621D01*
X201556813Y-107309874D01*
X201505649Y-107260653D01*
X201489219Y-107191583D01*
X201512738Y-107124596D01*
X201525953Y-107109044D01*
X202651659Y-105983338D01*
X202670255Y-105968318D01*
X202671570Y-105967121D01*
X202680321Y-105961471D01*
X202701033Y-105935198D01*
X202704960Y-105930779D01*
X202704885Y-105930716D01*
X202708239Y-105926758D01*
X202711921Y-105923076D01*
X202723107Y-105907422D01*
X202726663Y-105902686D01*
X202751091Y-105871700D01*
X202758291Y-105862567D01*
X202761315Y-105853956D01*
X202766621Y-105846531D01*
X202769604Y-105836555D01*
X202769606Y-105836552D01*
X202781253Y-105797605D01*
X202783088Y-105791957D01*
X202797393Y-105751223D01*
X202797394Y-105751217D01*
X202800020Y-105743740D01*
X202800500Y-105738198D01*
X202800500Y-105735480D01*
X202800613Y-105732871D01*
X202800647Y-105732757D01*
X202800806Y-105732764D01*
X202800849Y-105732083D01*
X202802707Y-105725869D01*
X202800597Y-105672172D01*
X202800500Y-105667226D01*
X202800500Y-104881500D01*
X202820502Y-104813379D01*
X202874158Y-104766886D01*
X202926500Y-104755500D01*
X204483218Y-104755500D01*
X204487768Y-104754830D01*
X204487771Y-104754830D01*
X204542426Y-104746784D01*
X204542427Y-104746784D01*
X204552112Y-104745358D01*
X204602008Y-104720860D01*
X204647507Y-104698522D01*
X204647509Y-104698521D01*
X204656855Y-104693932D01*
X204739293Y-104611350D01*
X204746332Y-104596951D01*
X204763707Y-104561404D01*
X204790536Y-104506518D01*
X204796837Y-104463326D01*
X204799840Y-104442744D01*
X204799840Y-104442740D01*
X204800500Y-104438218D01*
X204800500Y-104071782D01*
X204798178Y-104056005D01*
X204791784Y-104012574D01*
X204791784Y-104012573D01*
X204790358Y-104002888D01*
X204756610Y-103934151D01*
X204743522Y-103907493D01*
X204743521Y-103907491D01*
X204738932Y-103898145D01*
X204656350Y-103815707D01*
X204627188Y-103801452D01*
X204582679Y-103779696D01*
X204551518Y-103764464D01*
X204521027Y-103760016D01*
X204487744Y-103755160D01*
X204487740Y-103755160D01*
X204483218Y-103754500D01*
X202926500Y-103754500D01*
X202858379Y-103734498D01*
X202811886Y-103680842D01*
X202800500Y-103628500D01*
X202800500Y-103611500D01*
X202820502Y-103543379D01*
X202874158Y-103496886D01*
X202926500Y-103485500D01*
X204483218Y-103485500D01*
X204487768Y-103484830D01*
X204487771Y-103484830D01*
X204542426Y-103476784D01*
X204542427Y-103476784D01*
X204552112Y-103475358D01*
X204602008Y-103450860D01*
X204647507Y-103428522D01*
X204647509Y-103428521D01*
X204656855Y-103423932D01*
X204706607Y-103374093D01*
X204731935Y-103348721D01*
X204731935Y-103348720D01*
X204739293Y-103341350D01*
X204758559Y-103301937D01*
X204786240Y-103245306D01*
X204790536Y-103236518D01*
X204795814Y-103200336D01*
X204799840Y-103172744D01*
X204799840Y-103172740D01*
X204800500Y-103168218D01*
X204800500Y-102801782D01*
X204793442Y-102753834D01*
X204791784Y-102742574D01*
X204791784Y-102742573D01*
X204790358Y-102732888D01*
X204752657Y-102656100D01*
X204743522Y-102637493D01*
X204743521Y-102637491D01*
X204738932Y-102628145D01*
X204673294Y-102562621D01*
X204663721Y-102553065D01*
X204663720Y-102553065D01*
X204656350Y-102545707D01*
X204551518Y-102494464D01*
X204521027Y-102490016D01*
X204487744Y-102485160D01*
X204487740Y-102485160D01*
X204483218Y-102484500D01*
X203104687Y-102484500D01*
X203036566Y-102464498D01*
X202990073Y-102410842D01*
X202979969Y-102340568D01*
X203009463Y-102275988D01*
X203015592Y-102269405D01*
X203032592Y-102252405D01*
X203094904Y-102218379D01*
X203121687Y-102215500D01*
X204483218Y-102215500D01*
X204487768Y-102214830D01*
X204487771Y-102214830D01*
X204542426Y-102206784D01*
X204542427Y-102206784D01*
X204552112Y-102205358D01*
X204630251Y-102166994D01*
X204647507Y-102158522D01*
X204647509Y-102158521D01*
X204656855Y-102153932D01*
X204714483Y-102096203D01*
X204731935Y-102078721D01*
X204731935Y-102078720D01*
X204739293Y-102071350D01*
X204753951Y-102041364D01*
X204779750Y-101988584D01*
X204790536Y-101966518D01*
X204800500Y-101898218D01*
X204800500Y-101531782D01*
X204791871Y-101473162D01*
X204791784Y-101472574D01*
X204791784Y-101472573D01*
X204790358Y-101462888D01*
X204765556Y-101412372D01*
X204743522Y-101367493D01*
X204743521Y-101367491D01*
X204738932Y-101358145D01*
X204675124Y-101294448D01*
X204663721Y-101283065D01*
X204663720Y-101283065D01*
X204656350Y-101275707D01*
X204551518Y-101224464D01*
X204521027Y-101220016D01*
X204487744Y-101215160D01*
X204487740Y-101215160D01*
X204483218Y-101214500D01*
X203393265Y-101214500D01*
X203325144Y-101194498D01*
X203278651Y-101140842D01*
X203268547Y-101070568D01*
X203298041Y-101005988D01*
X203304170Y-100999405D01*
X203321170Y-100982405D01*
X203383482Y-100948379D01*
X203410265Y-100945500D01*
X204483218Y-100945500D01*
X204487768Y-100944830D01*
X204487771Y-100944830D01*
X204542426Y-100936784D01*
X204542427Y-100936784D01*
X204552112Y-100935358D01*
X204602008Y-100910860D01*
X204647507Y-100888522D01*
X204647509Y-100888521D01*
X204656855Y-100883932D01*
X204739293Y-100801350D01*
X204746485Y-100786638D01*
X204786240Y-100705306D01*
X204790536Y-100696518D01*
X204799381Y-100635891D01*
X204799840Y-100632744D01*
X204799840Y-100632740D01*
X204800500Y-100628218D01*
X204800500Y-100261782D01*
X204793687Y-100215498D01*
X204791784Y-100202574D01*
X204791784Y-100202573D01*
X204790358Y-100192888D01*
X204764655Y-100140537D01*
X204743522Y-100097493D01*
X204743521Y-100097491D01*
X204738932Y-100088145D01*
X204656350Y-100005707D01*
X204551518Y-99954464D01*
X204521027Y-99950016D01*
X204487744Y-99945160D01*
X204487740Y-99945160D01*
X204483218Y-99944500D01*
X202916782Y-99944500D01*
X202912232Y-99945170D01*
X202912229Y-99945170D01*
X202857574Y-99953216D01*
X202857573Y-99953216D01*
X202847888Y-99954642D01*
X202799979Y-99978164D01*
X202752493Y-100001478D01*
X202752491Y-100001479D01*
X202743145Y-100006068D01*
X202735787Y-100013438D01*
X202735788Y-100013438D01*
X202682140Y-100067180D01*
X202660707Y-100088650D01*
X202656135Y-100098004D01*
X202656133Y-100098007D01*
X202653398Y-100103602D01*
X202609464Y-100193482D01*
X202599500Y-100261782D01*
X202599500Y-100581891D01*
X202579498Y-100650012D01*
X202562595Y-100670986D01*
X201270541Y-101963040D01*
X201251945Y-101978060D01*
X201250630Y-101979257D01*
X201241879Y-101984907D01*
X201235432Y-101993085D01*
X201221167Y-102011180D01*
X201217240Y-102015599D01*
X201217315Y-102015662D01*
X201213961Y-102019620D01*
X201210279Y-102023302D01*
X201199093Y-102038956D01*
X201195542Y-102043685D01*
X201163909Y-102083811D01*
X201160885Y-102092422D01*
X201155579Y-102099847D01*
X201152596Y-102109823D01*
X201152594Y-102109826D01*
X201140947Y-102148773D01*
X201139112Y-102154421D01*
X201124807Y-102195155D01*
X201124806Y-102195161D01*
X201122180Y-102202638D01*
X201121700Y-102208180D01*
X201121700Y-102210898D01*
X201121587Y-102213507D01*
X201121553Y-102213621D01*
X201121394Y-102213614D01*
X201121351Y-102214295D01*
X201119493Y-102220509D01*
X201119902Y-102230915D01*
X201121603Y-102274205D01*
X201121700Y-102279152D01*
X201121700Y-103221229D01*
X201101698Y-103289350D01*
X201082971Y-103309713D01*
X201084109Y-103310852D01*
X201078271Y-103316690D01*
X201071718Y-103321718D01*
X201066692Y-103328268D01*
X201066691Y-103328269D01*
X201024580Y-103383149D01*
X200975464Y-103447159D01*
X200914956Y-103593238D01*
X200894318Y-103750000D01*
X200914956Y-103906762D01*
X200975464Y-104052841D01*
X201071718Y-104178282D01*
X201078264Y-104183305D01*
X201182650Y-104263403D01*
X201224517Y-104320741D01*
X201228739Y-104391612D01*
X201193975Y-104453515D01*
X201182653Y-104463326D01*
X201178274Y-104466687D01*
X201178272Y-104466689D01*
X201171718Y-104471718D01*
X201166689Y-104478272D01*
X201160852Y-104484109D01*
X201158455Y-104481712D01*
X201113812Y-104514286D01*
X201071229Y-104521700D01*
X198009398Y-104521700D01*
X197985626Y-104519170D01*
X197983844Y-104519086D01*
X197973667Y-104516895D01*
X197940446Y-104520827D01*
X197934544Y-104521175D01*
X197934552Y-104521272D01*
X197929374Y-104521700D01*
X197924173Y-104521700D01*
X197919042Y-104522554D01*
X197905212Y-104524856D01*
X197899335Y-104525693D01*
X197848598Y-104531698D01*
X197840371Y-104535648D01*
X197831368Y-104537147D01*
X197790378Y-104559263D01*
X197786411Y-104561404D01*
X197781122Y-104564099D01*
X197735068Y-104586214D01*
X197730809Y-104589794D01*
X197728877Y-104591726D01*
X197726967Y-104593479D01*
X197726871Y-104593530D01*
X197726761Y-104593411D01*
X197726239Y-104593871D01*
X197720531Y-104596951D01*
X197713463Y-104604597D01*
X197713462Y-104604598D01*
X197684040Y-104636427D01*
X197680610Y-104639993D01*
X193715595Y-108605008D01*
X193653283Y-108639034D01*
X193582468Y-108633969D01*
X193525632Y-108591422D01*
X193500821Y-108524902D01*
X193500500Y-108515913D01*
X193500500Y-107180252D01*
X193494582Y-107150500D01*
X193491288Y-107133939D01*
X193491288Y-107133938D01*
X193488867Y-107121769D01*
X193444552Y-107055448D01*
X193378231Y-107011133D01*
X193366062Y-107008712D01*
X193366061Y-107008712D01*
X193325816Y-107000707D01*
X193319748Y-106999500D01*
X192194450Y-106999500D01*
X192126329Y-106979498D01*
X192105355Y-106962595D01*
X190912405Y-105769645D01*
X190878379Y-105707333D01*
X190875500Y-105680550D01*
X190875500Y-103577166D01*
X190895502Y-103509045D01*
X190949158Y-103462552D01*
X191014343Y-103451822D01*
X191071440Y-103457672D01*
X191077854Y-103458000D01*
X191177885Y-103458000D01*
X191193124Y-103453525D01*
X191194329Y-103452135D01*
X191196000Y-103444452D01*
X191196000Y-103439884D01*
X191704000Y-103439884D01*
X191708475Y-103455123D01*
X191709865Y-103456328D01*
X191717548Y-103457999D01*
X191822095Y-103457999D01*
X191828614Y-103457662D01*
X191924206Y-103447743D01*
X191937600Y-103444851D01*
X192091784Y-103393412D01*
X192104962Y-103387239D01*
X192242807Y-103301937D01*
X192254208Y-103292901D01*
X192368739Y-103178171D01*
X192377751Y-103166760D01*
X192462816Y-103028757D01*
X192468963Y-103015576D01*
X192517611Y-102868908D01*
X192558042Y-102810549D01*
X192623606Y-102783312D01*
X192693488Y-102795846D01*
X192745500Y-102844170D01*
X192756087Y-102866828D01*
X192757783Y-102871656D01*
X192772366Y-102913184D01*
X192777958Y-102920754D01*
X192777959Y-102920757D01*
X192815519Y-102971608D01*
X192852850Y-103022150D01*
X192860421Y-103027742D01*
X192954243Y-103097041D01*
X192954246Y-103097042D01*
X192961816Y-103102634D01*
X193089631Y-103147519D01*
X193097277Y-103148242D01*
X193097278Y-103148242D01*
X193103248Y-103148806D01*
X193121166Y-103150500D01*
X193878834Y-103150500D01*
X193896752Y-103148806D01*
X193902722Y-103148242D01*
X193902723Y-103148242D01*
X193910369Y-103147519D01*
X194038184Y-103102634D01*
X194045754Y-103097042D01*
X194045757Y-103097041D01*
X194139579Y-103027742D01*
X194147150Y-103022150D01*
X194184481Y-102971608D01*
X194222041Y-102920757D01*
X194222042Y-102920754D01*
X194227634Y-102913184D01*
X194272519Y-102785369D01*
X194273949Y-102770242D01*
X194300274Y-102704306D01*
X194358067Y-102663069D01*
X194399390Y-102656100D01*
X197103543Y-102656100D01*
X197171664Y-102676102D01*
X197202289Y-102703836D01*
X197312959Y-102843468D01*
X197454912Y-102964279D01*
X197460290Y-102967285D01*
X197460292Y-102967286D01*
X197477026Y-102976638D01*
X197617627Y-103055217D01*
X197794907Y-103112819D01*
X197979998Y-103134890D01*
X197986133Y-103134418D01*
X197986135Y-103134418D01*
X198159710Y-103121062D01*
X198159715Y-103121061D01*
X198165851Y-103120589D01*
X198171781Y-103118933D01*
X198171783Y-103118933D01*
X198339459Y-103072117D01*
X198339458Y-103072117D01*
X198345387Y-103070462D01*
X198511768Y-102986417D01*
X198536255Y-102967286D01*
X198653794Y-102875454D01*
X198653795Y-102875453D01*
X198658655Y-102871656D01*
X198780454Y-102730550D01*
X198801361Y-102693748D01*
X198841629Y-102622863D01*
X198872526Y-102568474D01*
X198931364Y-102391601D01*
X198942358Y-102304575D01*
X198954285Y-102210170D01*
X198954286Y-102210163D01*
X198954727Y-102206668D01*
X198955099Y-102180000D01*
X198936909Y-101994487D01*
X198931950Y-101978060D01*
X198925542Y-101956838D01*
X198908521Y-101900460D01*
X198907980Y-101829468D01*
X198940048Y-101774949D01*
X201124792Y-99590205D01*
X201187104Y-99556179D01*
X201213887Y-99553300D01*
X202630424Y-99553300D01*
X202698545Y-99573302D01*
X202719440Y-99590125D01*
X202743650Y-99614293D01*
X202848482Y-99665536D01*
X202878973Y-99669984D01*
X202912256Y-99674840D01*
X202912260Y-99674840D01*
X202916782Y-99675500D01*
X204483218Y-99675500D01*
X204487768Y-99674830D01*
X204487771Y-99674830D01*
X204542426Y-99666784D01*
X204542427Y-99666784D01*
X204552112Y-99665358D01*
X204610280Y-99636799D01*
X204647507Y-99618522D01*
X204647509Y-99618521D01*
X204656855Y-99613932D01*
X204717381Y-99553300D01*
X204731935Y-99538721D01*
X204731935Y-99538720D01*
X204739293Y-99531350D01*
X204790536Y-99426518D01*
X204797640Y-99377820D01*
X204799840Y-99362744D01*
X204799840Y-99362740D01*
X204800500Y-99358218D01*
X204800500Y-98991782D01*
X204790358Y-98922888D01*
X204758393Y-98857782D01*
X204743522Y-98827493D01*
X204743521Y-98827491D01*
X204738932Y-98818145D01*
X204656350Y-98735707D01*
X204551518Y-98684464D01*
X204521027Y-98680016D01*
X204487744Y-98675160D01*
X204487740Y-98675160D01*
X204483218Y-98674500D01*
X202916782Y-98674500D01*
X202912232Y-98675170D01*
X202912229Y-98675170D01*
X202857574Y-98683216D01*
X202857573Y-98683216D01*
X202847888Y-98684642D01*
X202743145Y-98736068D01*
X202719536Y-98759719D01*
X202657254Y-98793797D01*
X202630364Y-98796700D01*
X201058798Y-98796700D01*
X201035026Y-98794170D01*
X201033244Y-98794086D01*
X201023067Y-98791895D01*
X200989846Y-98795827D01*
X200983944Y-98796175D01*
X200983952Y-98796272D01*
X200978774Y-98796700D01*
X200973573Y-98796700D01*
X200968442Y-98797554D01*
X200954612Y-98799856D01*
X200948735Y-98800693D01*
X200897998Y-98806698D01*
X200889771Y-98810648D01*
X200880768Y-98812147D01*
X200851487Y-98827946D01*
X200835811Y-98836404D01*
X200830522Y-98839099D01*
X200791615Y-98857782D01*
X200784468Y-98861214D01*
X200780210Y-98864793D01*
X200778271Y-98866732D01*
X200776366Y-98868479D01*
X200776259Y-98868537D01*
X200776151Y-98868420D01*
X200775639Y-98868871D01*
X200769931Y-98871951D01*
X200762863Y-98879597D01*
X200762862Y-98879598D01*
X200733440Y-98911427D01*
X200730010Y-98914993D01*
X198405044Y-101239959D01*
X198342732Y-101273985D01*
X198278693Y-101271229D01*
X198192049Y-101244409D01*
X198043164Y-101228760D01*
X198012796Y-101225568D01*
X198012795Y-101225568D01*
X198006668Y-101224924D01*
X197928549Y-101232033D01*
X197827171Y-101241259D01*
X197827168Y-101241260D01*
X197821032Y-101241818D01*
X197815122Y-101243557D01*
X197815119Y-101243558D01*
X197648129Y-101292707D01*
X197642214Y-101294448D01*
X197477023Y-101380807D01*
X197331752Y-101497608D01*
X197211935Y-101640401D01*
X197208971Y-101645793D01*
X197208968Y-101645797D01*
X197153809Y-101746132D01*
X197122135Y-101803746D01*
X197120275Y-101809611D01*
X197119645Y-101811597D01*
X197119037Y-101812500D01*
X197117844Y-101815283D01*
X197117315Y-101815056D01*
X197079982Y-101870482D01*
X197014780Y-101898575D01*
X196999542Y-101899500D01*
X194401500Y-101899500D01*
X194333379Y-101879498D01*
X194286886Y-101825842D01*
X194275500Y-101773500D01*
X194275500Y-101746166D01*
X194272519Y-101714631D01*
X194227634Y-101586816D01*
X194222042Y-101579246D01*
X194222041Y-101579243D01*
X194152742Y-101485421D01*
X194147150Y-101477850D01*
X194118758Y-101456879D01*
X194045757Y-101402959D01*
X194045754Y-101402958D01*
X194038184Y-101397366D01*
X193910369Y-101352481D01*
X193902723Y-101351758D01*
X193902722Y-101351758D01*
X193896752Y-101351194D01*
X193878834Y-101349500D01*
X193121166Y-101349500D01*
X193103248Y-101351194D01*
X193097278Y-101351758D01*
X193097277Y-101351758D01*
X193089631Y-101352481D01*
X192961816Y-101397366D01*
X192954246Y-101402958D01*
X192954243Y-101402959D01*
X192881242Y-101456879D01*
X192852850Y-101477850D01*
X192847258Y-101485421D01*
X192777959Y-101579243D01*
X192777958Y-101579246D01*
X192772366Y-101586816D01*
X192756814Y-101631101D01*
X192756157Y-101632973D01*
X192714714Y-101690619D01*
X192648684Y-101716707D01*
X192579032Y-101702956D01*
X192527871Y-101653731D01*
X192517750Y-101631101D01*
X192468412Y-101483216D01*
X192462239Y-101470038D01*
X192376937Y-101332193D01*
X192367901Y-101320792D01*
X192253171Y-101206261D01*
X192241760Y-101197249D01*
X192103757Y-101112184D01*
X192090576Y-101106037D01*
X191936290Y-101054862D01*
X191922914Y-101051995D01*
X191828562Y-101042328D01*
X191822145Y-101042000D01*
X191722115Y-101042000D01*
X191706876Y-101046475D01*
X191705671Y-101047865D01*
X191704000Y-101055548D01*
X191704000Y-103439884D01*
X191196000Y-103439884D01*
X191196000Y-101060116D01*
X191191525Y-101044877D01*
X191190135Y-101043672D01*
X191182452Y-101042001D01*
X191077905Y-101042001D01*
X191071386Y-101042338D01*
X191014503Y-101048240D01*
X190944682Y-101035375D01*
X190892900Y-100986804D01*
X190875500Y-100922913D01*
X190875500Y-98577166D01*
X190895502Y-98509045D01*
X190949158Y-98462552D01*
X191014343Y-98451822D01*
X191071440Y-98457672D01*
X191077854Y-98458000D01*
X191177885Y-98458000D01*
X191193124Y-98453525D01*
X191194329Y-98452135D01*
X191196000Y-98444452D01*
X191196000Y-98439884D01*
X191704000Y-98439884D01*
X191708475Y-98455123D01*
X191709865Y-98456328D01*
X191717548Y-98457999D01*
X191822095Y-98457999D01*
X191828614Y-98457662D01*
X191924206Y-98447743D01*
X191937600Y-98444851D01*
X192091784Y-98393412D01*
X192104962Y-98387239D01*
X192242807Y-98301937D01*
X192254208Y-98292901D01*
X192368739Y-98178171D01*
X192377751Y-98166760D01*
X192462816Y-98028757D01*
X192468963Y-98015576D01*
X192517611Y-97868908D01*
X192558042Y-97810549D01*
X192623606Y-97783312D01*
X192693488Y-97795846D01*
X192745500Y-97844170D01*
X192756087Y-97866828D01*
X192758222Y-97872908D01*
X192772366Y-97913184D01*
X192777958Y-97920754D01*
X192777959Y-97920757D01*
X192812457Y-97967463D01*
X192852850Y-98022150D01*
X192860421Y-98027742D01*
X192954243Y-98097041D01*
X192954246Y-98097042D01*
X192961816Y-98102634D01*
X193089631Y-98147519D01*
X193097277Y-98148242D01*
X193097278Y-98148242D01*
X193103248Y-98148806D01*
X193121166Y-98150500D01*
X193878834Y-98150500D01*
X193896752Y-98148806D01*
X193902722Y-98148242D01*
X193902723Y-98148242D01*
X193910369Y-98147519D01*
X194038184Y-98102634D01*
X194045754Y-98097042D01*
X194045757Y-98097041D01*
X194139579Y-98027742D01*
X194147150Y-98022150D01*
X194187543Y-97967463D01*
X194222041Y-97920757D01*
X194222042Y-97920754D01*
X194227634Y-97913184D01*
X194263201Y-97811904D01*
X194269975Y-97792614D01*
X194269975Y-97792612D01*
X194272519Y-97785369D01*
X194273242Y-97777723D01*
X194273335Y-97777298D01*
X194307471Y-97715046D01*
X194369844Y-97681132D01*
X194396408Y-97678300D01*
X197048786Y-97678300D01*
X197116907Y-97698302D01*
X197160851Y-97746703D01*
X197197176Y-97817385D01*
X197312959Y-97963468D01*
X197454912Y-98084279D01*
X197460290Y-98087285D01*
X197460292Y-98087286D01*
X197493335Y-98105753D01*
X197617627Y-98175217D01*
X197794907Y-98232819D01*
X197979998Y-98254890D01*
X197986133Y-98254418D01*
X197986135Y-98254418D01*
X198159710Y-98241062D01*
X198159715Y-98241061D01*
X198165851Y-98240589D01*
X198171781Y-98238933D01*
X198171783Y-98238933D01*
X198319295Y-98197747D01*
X198345387Y-98190462D01*
X198358511Y-98183833D01*
X198506268Y-98109195D01*
X198511768Y-98106417D01*
X198536255Y-98087286D01*
X198653794Y-97995454D01*
X198653795Y-97995453D01*
X198658655Y-97991656D01*
X198780454Y-97850550D01*
X198784079Y-97844170D01*
X198817482Y-97785369D01*
X198842083Y-97742063D01*
X198893122Y-97692713D01*
X198951639Y-97678300D01*
X199591113Y-97678300D01*
X199659234Y-97698302D01*
X199680208Y-97715205D01*
X200099462Y-98134459D01*
X200114482Y-98153055D01*
X200115679Y-98154370D01*
X200121329Y-98163121D01*
X200129507Y-98169568D01*
X200147602Y-98183833D01*
X200152021Y-98187760D01*
X200152084Y-98187685D01*
X200156042Y-98191039D01*
X200159724Y-98194721D01*
X200163955Y-98197744D01*
X200163958Y-98197747D01*
X200168101Y-98200707D01*
X200175378Y-98205907D01*
X200180107Y-98209458D01*
X200220233Y-98241091D01*
X200228844Y-98244115D01*
X200236269Y-98249421D01*
X200246245Y-98252404D01*
X200246248Y-98252406D01*
X200285195Y-98264053D01*
X200290843Y-98265888D01*
X200331577Y-98280193D01*
X200331583Y-98280194D01*
X200339060Y-98282820D01*
X200344602Y-98283300D01*
X200347320Y-98283300D01*
X200349929Y-98283413D01*
X200350043Y-98283447D01*
X200350036Y-98283606D01*
X200350717Y-98283649D01*
X200356931Y-98285507D01*
X200410628Y-98283397D01*
X200415574Y-98283300D01*
X202630424Y-98283300D01*
X202698545Y-98303302D01*
X202719440Y-98320125D01*
X202743650Y-98344293D01*
X202848482Y-98395536D01*
X202878973Y-98399984D01*
X202912256Y-98404840D01*
X202912260Y-98404840D01*
X202916782Y-98405500D01*
X204483218Y-98405500D01*
X204487768Y-98404830D01*
X204487771Y-98404830D01*
X204542426Y-98396784D01*
X204542427Y-98396784D01*
X204552112Y-98395358D01*
X204602008Y-98370860D01*
X204647507Y-98348522D01*
X204647509Y-98348521D01*
X204656855Y-98343932D01*
X204717076Y-98283606D01*
X204731935Y-98268721D01*
X204731935Y-98268720D01*
X204739293Y-98261350D01*
X204745547Y-98248557D01*
X204765553Y-98207628D01*
X204790536Y-98156518D01*
X204800500Y-98088218D01*
X204800500Y-97721782D01*
X204799509Y-97715046D01*
X204791784Y-97662574D01*
X204791784Y-97662573D01*
X204790358Y-97652888D01*
X204738932Y-97548145D01*
X204732076Y-97541301D01*
X204708823Y-97474667D01*
X204725386Y-97405630D01*
X204770526Y-97359898D01*
X204849678Y-97313089D01*
X204862104Y-97303449D01*
X204968449Y-97197104D01*
X204978089Y-97184678D01*
X205054648Y-97055221D01*
X205060893Y-97040790D01*
X205099939Y-96906395D01*
X205099899Y-96892294D01*
X205092630Y-96889000D01*
X202313122Y-96889000D01*
X202299591Y-96892973D01*
X202298456Y-96900871D01*
X202339107Y-97040790D01*
X202345352Y-97055221D01*
X202421911Y-97184678D01*
X202431551Y-97197104D01*
X202543502Y-97309055D01*
X202541839Y-97310718D01*
X202576490Y-97358705D01*
X202580336Y-97429597D01*
X202545244Y-97491315D01*
X202482356Y-97524263D01*
X202457694Y-97526700D01*
X200613887Y-97526700D01*
X200545766Y-97506698D01*
X200524792Y-97489795D01*
X200105538Y-97070541D01*
X200090518Y-97051945D01*
X200089321Y-97050630D01*
X200083671Y-97041879D01*
X200057398Y-97021167D01*
X200052979Y-97017240D01*
X200052916Y-97017315D01*
X200048958Y-97013961D01*
X200045276Y-97010279D01*
X200041045Y-97007256D01*
X200041042Y-97007253D01*
X200036123Y-97003738D01*
X200029622Y-96999093D01*
X200024886Y-96995537D01*
X199984767Y-96963909D01*
X199976156Y-96960885D01*
X199968731Y-96955579D01*
X199958755Y-96952596D01*
X199958752Y-96952594D01*
X199919805Y-96940947D01*
X199914157Y-96939112D01*
X199873423Y-96924807D01*
X199873417Y-96924806D01*
X199865940Y-96922180D01*
X199860398Y-96921700D01*
X199857680Y-96921700D01*
X199855071Y-96921587D01*
X199854957Y-96921553D01*
X199854964Y-96921394D01*
X199854283Y-96921351D01*
X199848069Y-96919493D01*
X199794907Y-96921582D01*
X199794373Y-96921603D01*
X199789426Y-96921700D01*
X198951116Y-96921700D01*
X198882995Y-96901698D01*
X198839865Y-96854853D01*
X198798416Y-96776898D01*
X198798414Y-96776895D01*
X198795522Y-96771456D01*
X198791632Y-96766686D01*
X198791629Y-96766682D01*
X198681605Y-96631780D01*
X198681602Y-96631777D01*
X198677710Y-96627005D01*
X198672056Y-96622327D01*
X198566386Y-96534909D01*
X198534085Y-96508187D01*
X198370116Y-96419529D01*
X198245647Y-96381000D01*
X198197936Y-96366231D01*
X198197933Y-96366230D01*
X198192049Y-96364409D01*
X198185924Y-96363765D01*
X198185923Y-96363765D01*
X198184401Y-96363605D01*
X202300061Y-96363605D01*
X202300101Y-96377706D01*
X202307370Y-96381000D01*
X205086878Y-96381000D01*
X205100409Y-96377027D01*
X205101544Y-96369129D01*
X205060893Y-96229210D01*
X205054648Y-96214779D01*
X204978089Y-96085322D01*
X204968449Y-96072896D01*
X204862104Y-95966551D01*
X204849674Y-95956909D01*
X204770542Y-95910111D01*
X204722089Y-95858218D01*
X204709383Y-95788368D01*
X204732060Y-95728595D01*
X204739293Y-95721350D01*
X204743864Y-95711999D01*
X204743866Y-95711996D01*
X204786240Y-95625306D01*
X204790536Y-95616518D01*
X204794984Y-95586027D01*
X204799840Y-95552744D01*
X204799840Y-95552740D01*
X204800500Y-95548218D01*
X204800500Y-95181782D01*
X204792580Y-95127978D01*
X204791784Y-95122574D01*
X204791784Y-95122573D01*
X204790358Y-95112888D01*
X204752774Y-95036337D01*
X204743522Y-95017493D01*
X204743521Y-95017491D01*
X204738932Y-95008145D01*
X204656350Y-94925707D01*
X204551518Y-94874464D01*
X204521027Y-94870016D01*
X204487744Y-94865160D01*
X204487740Y-94865160D01*
X204483218Y-94864500D01*
X202916782Y-94864500D01*
X202912232Y-94865170D01*
X202912229Y-94865170D01*
X202857574Y-94873216D01*
X202857573Y-94873216D01*
X202847888Y-94874642D01*
X202797992Y-94899140D01*
X202752493Y-94921478D01*
X202752491Y-94921479D01*
X202743145Y-94926068D01*
X202660707Y-95008650D01*
X202656134Y-95018006D01*
X202656133Y-95018007D01*
X202647173Y-95036337D01*
X202609464Y-95113482D01*
X202599500Y-95181782D01*
X202599500Y-95548218D01*
X202600170Y-95552768D01*
X202600170Y-95552771D01*
X202608216Y-95607426D01*
X202609642Y-95617112D01*
X202661068Y-95721855D01*
X202667924Y-95728699D01*
X202691177Y-95795333D01*
X202674614Y-95864370D01*
X202629474Y-95910102D01*
X202550322Y-95956911D01*
X202537896Y-95966551D01*
X202431551Y-96072896D01*
X202421911Y-96085322D01*
X202345352Y-96214779D01*
X202339107Y-96229210D01*
X202300061Y-96363605D01*
X198184401Y-96363605D01*
X198012796Y-96345568D01*
X198012795Y-96345568D01*
X198006668Y-96344924D01*
X197935222Y-96351426D01*
X197827171Y-96361259D01*
X197827168Y-96361260D01*
X197821032Y-96361818D01*
X197815122Y-96363557D01*
X197815119Y-96363558D01*
X197648129Y-96412707D01*
X197642214Y-96414448D01*
X197477023Y-96500807D01*
X197331752Y-96617608D01*
X197211935Y-96760401D01*
X197208969Y-96765797D01*
X197208963Y-96765805D01*
X197159157Y-96856401D01*
X197108812Y-96906460D01*
X197048743Y-96921700D01*
X194401500Y-96921700D01*
X194333379Y-96901698D01*
X194286886Y-96848042D01*
X194275500Y-96795700D01*
X194275500Y-96746166D01*
X194272519Y-96714631D01*
X194227634Y-96586816D01*
X194222042Y-96579246D01*
X194222041Y-96579243D01*
X194157463Y-96491812D01*
X194147150Y-96477850D01*
X194106554Y-96447865D01*
X194045757Y-96402959D01*
X194045754Y-96402958D01*
X194038184Y-96397366D01*
X193910369Y-96352481D01*
X193902723Y-96351758D01*
X193902722Y-96351758D01*
X193896752Y-96351194D01*
X193878834Y-96349500D01*
X193121166Y-96349500D01*
X193103248Y-96351194D01*
X193097278Y-96351758D01*
X193097277Y-96351758D01*
X193089631Y-96352481D01*
X192961816Y-96397366D01*
X192954246Y-96402958D01*
X192954243Y-96402959D01*
X192893446Y-96447865D01*
X192852850Y-96477850D01*
X192842537Y-96491812D01*
X192777959Y-96579243D01*
X192777958Y-96579246D01*
X192772366Y-96586816D01*
X192762908Y-96613749D01*
X192756157Y-96632973D01*
X192714714Y-96690619D01*
X192648684Y-96716707D01*
X192579032Y-96702956D01*
X192527871Y-96653731D01*
X192517750Y-96631101D01*
X192468412Y-96483216D01*
X192462239Y-96470038D01*
X192376937Y-96332193D01*
X192367901Y-96320792D01*
X192253171Y-96206261D01*
X192241760Y-96197249D01*
X192103757Y-96112184D01*
X192090576Y-96106037D01*
X191936290Y-96054862D01*
X191922914Y-96051995D01*
X191828562Y-96042328D01*
X191822145Y-96042000D01*
X191722115Y-96042000D01*
X191706876Y-96046475D01*
X191705671Y-96047865D01*
X191704000Y-96055548D01*
X191704000Y-98439884D01*
X191196000Y-98439884D01*
X191196000Y-96060116D01*
X191191525Y-96044877D01*
X191190135Y-96043672D01*
X191182452Y-96042001D01*
X191077905Y-96042001D01*
X191071386Y-96042338D01*
X191014503Y-96048240D01*
X190944682Y-96035375D01*
X190892900Y-95986804D01*
X190875500Y-95922913D01*
X190875500Y-94100000D01*
X191394318Y-94100000D01*
X191414956Y-94256762D01*
X191475464Y-94402841D01*
X191571718Y-94528282D01*
X191697159Y-94624536D01*
X191843238Y-94685044D01*
X192000000Y-94705682D01*
X192008188Y-94704604D01*
X192148574Y-94686122D01*
X192156762Y-94685044D01*
X192302841Y-94624536D01*
X192379438Y-94565761D01*
X192421731Y-94533309D01*
X192421732Y-94533308D01*
X192428282Y-94528282D01*
X192433310Y-94521729D01*
X192439148Y-94515891D01*
X192441545Y-94518288D01*
X192486188Y-94485714D01*
X192528771Y-94478300D01*
X194933359Y-94478300D01*
X194957131Y-94480830D01*
X194958913Y-94480914D01*
X194969090Y-94483105D01*
X195002311Y-94479173D01*
X195008213Y-94478825D01*
X195008205Y-94478728D01*
X195013383Y-94478300D01*
X195018584Y-94478300D01*
X195037546Y-94475144D01*
X195043421Y-94474308D01*
X195044553Y-94474174D01*
X195059365Y-94473300D01*
X202630424Y-94473300D01*
X202698545Y-94493302D01*
X202719440Y-94510125D01*
X202743650Y-94534293D01*
X202848482Y-94585536D01*
X202878973Y-94589984D01*
X202912256Y-94594840D01*
X202912260Y-94594840D01*
X202916782Y-94595500D01*
X204483218Y-94595500D01*
X204487768Y-94594830D01*
X204487771Y-94594830D01*
X204542426Y-94586784D01*
X204542427Y-94586784D01*
X204552112Y-94585358D01*
X204613032Y-94555448D01*
X204647507Y-94538522D01*
X204647509Y-94538521D01*
X204656855Y-94533932D01*
X204713243Y-94477446D01*
X204731935Y-94458721D01*
X204731935Y-94458720D01*
X204739293Y-94451350D01*
X204790536Y-94346518D01*
X204794984Y-94316027D01*
X204799840Y-94282744D01*
X204799840Y-94282740D01*
X204800500Y-94278218D01*
X204800500Y-93911782D01*
X204790358Y-93842888D01*
X204738932Y-93738145D01*
X204656350Y-93655707D01*
X204551518Y-93604464D01*
X204521027Y-93600016D01*
X204487744Y-93595160D01*
X204487740Y-93595160D01*
X204483218Y-93594500D01*
X202916782Y-93594500D01*
X202912232Y-93595170D01*
X202912229Y-93595170D01*
X202857574Y-93603216D01*
X202857573Y-93603216D01*
X202847888Y-93604642D01*
X202743145Y-93656068D01*
X202719536Y-93679719D01*
X202657254Y-93713797D01*
X202630364Y-93716700D01*
X195045955Y-93716700D01*
X195022183Y-93714170D01*
X195020401Y-93714086D01*
X195010224Y-93711895D01*
X194977003Y-93715827D01*
X194971101Y-93716175D01*
X194971109Y-93716272D01*
X194965931Y-93716700D01*
X194960730Y-93716700D01*
X194955599Y-93717554D01*
X194941769Y-93719856D01*
X194935893Y-93720692D01*
X194934761Y-93720826D01*
X194919949Y-93721700D01*
X192528771Y-93721700D01*
X192460650Y-93701698D01*
X192440287Y-93682971D01*
X192439148Y-93684109D01*
X192433310Y-93678271D01*
X192428282Y-93671718D01*
X192407887Y-93656068D01*
X192346233Y-93608760D01*
X192302841Y-93575464D01*
X192156762Y-93514956D01*
X192000000Y-93494318D01*
X191843238Y-93514956D01*
X191697159Y-93575464D01*
X191653767Y-93608760D01*
X191592114Y-93656068D01*
X191571718Y-93671718D01*
X191475464Y-93797159D01*
X191414956Y-93943238D01*
X191394318Y-94100000D01*
X190875500Y-94100000D01*
X190875500Y-93008218D01*
X202599500Y-93008218D01*
X202600170Y-93012768D01*
X202600170Y-93012771D01*
X202608216Y-93067426D01*
X202609642Y-93077112D01*
X202661068Y-93181855D01*
X202743650Y-93264293D01*
X202848482Y-93315536D01*
X202878973Y-93319984D01*
X202912256Y-93324840D01*
X202912260Y-93324840D01*
X202916782Y-93325500D01*
X204483218Y-93325500D01*
X204487768Y-93324830D01*
X204487771Y-93324830D01*
X204542426Y-93316784D01*
X204542427Y-93316784D01*
X204552112Y-93315358D01*
X204646804Y-93268867D01*
X204647507Y-93268522D01*
X204647509Y-93268521D01*
X204656855Y-93263932D01*
X204739293Y-93181350D01*
X204790536Y-93076518D01*
X204794984Y-93046027D01*
X204799840Y-93012744D01*
X204799840Y-93012740D01*
X204800500Y-93008218D01*
X204800500Y-92641782D01*
X204791871Y-92583162D01*
X204791784Y-92582574D01*
X204791784Y-92582573D01*
X204790358Y-92572888D01*
X204763046Y-92517260D01*
X204743522Y-92477493D01*
X204743521Y-92477491D01*
X204738932Y-92468145D01*
X204656350Y-92385707D01*
X204642073Y-92378728D01*
X204609328Y-92362722D01*
X204551518Y-92334464D01*
X204521027Y-92330016D01*
X204487744Y-92325160D01*
X204487740Y-92325160D01*
X204483218Y-92324500D01*
X202916782Y-92324500D01*
X202912232Y-92325170D01*
X202912229Y-92325170D01*
X202857574Y-92333216D01*
X202857573Y-92333216D01*
X202847888Y-92334642D01*
X202800503Y-92357907D01*
X202752493Y-92381478D01*
X202752491Y-92381479D01*
X202743145Y-92386068D01*
X202660707Y-92468650D01*
X202609464Y-92573482D01*
X202599500Y-92641782D01*
X202599500Y-93008218D01*
X190875500Y-93008218D01*
X190875500Y-92569450D01*
X190895502Y-92501329D01*
X190912405Y-92480355D01*
X191654542Y-91738218D01*
X202599500Y-91738218D01*
X202600170Y-91742768D01*
X202600170Y-91742771D01*
X202608216Y-91797426D01*
X202609642Y-91807112D01*
X202622451Y-91833201D01*
X202649990Y-91889291D01*
X202661068Y-91911855D01*
X202743650Y-91994293D01*
X202848482Y-92045536D01*
X202878973Y-92049984D01*
X202912256Y-92054840D01*
X202912260Y-92054840D01*
X202916782Y-92055500D01*
X204483218Y-92055500D01*
X204487768Y-92054830D01*
X204487771Y-92054830D01*
X204542426Y-92046784D01*
X204542427Y-92046784D01*
X204552112Y-92045358D01*
X204615250Y-92014359D01*
X204647507Y-91998522D01*
X204647509Y-91998521D01*
X204656855Y-91993932D01*
X204739293Y-91911350D01*
X204765467Y-91857804D01*
X204782595Y-91839055D01*
X204974266Y-91839055D01*
X204994614Y-91863822D01*
X205003588Y-91929584D01*
X204994318Y-92000000D01*
X204995396Y-92008188D01*
X205010469Y-92122676D01*
X205014956Y-92156762D01*
X205075464Y-92302841D01*
X205171718Y-92428282D01*
X205297159Y-92524536D01*
X205443238Y-92585044D01*
X205600000Y-92605682D01*
X205608188Y-92604604D01*
X205748574Y-92586122D01*
X205756762Y-92585044D01*
X205902841Y-92524536D01*
X206028282Y-92428282D01*
X206033310Y-92421729D01*
X206039148Y-92415891D01*
X206041545Y-92418288D01*
X206086188Y-92385714D01*
X206128771Y-92378300D01*
X207946202Y-92378300D01*
X207969974Y-92380830D01*
X207971756Y-92380914D01*
X207981933Y-92383105D01*
X208015154Y-92379173D01*
X208021056Y-92378825D01*
X208021048Y-92378728D01*
X208026226Y-92378300D01*
X208031427Y-92378300D01*
X208050389Y-92375144D01*
X208056266Y-92374307D01*
X208107002Y-92368302D01*
X208115229Y-92364352D01*
X208124232Y-92362853D01*
X208169189Y-92338596D01*
X208174478Y-92335901D01*
X208180411Y-92333052D01*
X208220532Y-92313786D01*
X208224791Y-92310206D01*
X208226723Y-92308274D01*
X208228633Y-92306521D01*
X208228729Y-92306470D01*
X208228839Y-92306589D01*
X208229361Y-92306129D01*
X208235069Y-92303049D01*
X208242315Y-92295211D01*
X208271560Y-92263573D01*
X208274990Y-92260007D01*
X209593601Y-90941396D01*
X209655913Y-90907370D01*
X209683554Y-90906219D01*
X209683554Y-90904604D01*
X209691811Y-90904604D01*
X209700000Y-90905682D01*
X209708188Y-90904604D01*
X209848574Y-90886122D01*
X209856762Y-90885044D01*
X210002841Y-90824536D01*
X210128282Y-90728282D01*
X210224536Y-90602841D01*
X210280299Y-90468218D01*
X212199500Y-90468218D01*
X212200170Y-90472768D01*
X212200170Y-90472771D01*
X212208216Y-90527426D01*
X212209642Y-90537112D01*
X212213958Y-90545902D01*
X212245130Y-90609392D01*
X212261068Y-90641855D01*
X212343650Y-90724293D01*
X212353006Y-90728866D01*
X212353007Y-90728867D01*
X212374044Y-90739150D01*
X212448482Y-90775536D01*
X212478973Y-90779984D01*
X212512256Y-90784840D01*
X212512260Y-90784840D01*
X212516782Y-90785500D01*
X214083218Y-90785500D01*
X214087768Y-90784830D01*
X214087771Y-90784830D01*
X214142426Y-90776784D01*
X214142427Y-90776784D01*
X214152112Y-90775358D01*
X214214187Y-90744881D01*
X214247507Y-90728522D01*
X214247509Y-90728521D01*
X214256855Y-90723932D01*
X214339293Y-90641350D01*
X214390536Y-90536518D01*
X214400500Y-90468218D01*
X214400500Y-90101782D01*
X214391871Y-90043162D01*
X214391784Y-90042574D01*
X214391784Y-90042573D01*
X214390358Y-90032888D01*
X214364414Y-89980046D01*
X214343522Y-89937493D01*
X214343521Y-89937491D01*
X214338932Y-89928145D01*
X214288964Y-89878264D01*
X214263721Y-89853065D01*
X214263720Y-89853065D01*
X214256350Y-89845707D01*
X214151518Y-89794464D01*
X214121027Y-89790016D01*
X214087744Y-89785160D01*
X214087740Y-89785160D01*
X214083218Y-89784500D01*
X212516782Y-89784500D01*
X212512232Y-89785170D01*
X212512229Y-89785170D01*
X212457574Y-89793216D01*
X212457573Y-89793216D01*
X212447888Y-89794642D01*
X212397992Y-89819140D01*
X212352493Y-89841478D01*
X212352491Y-89841479D01*
X212343145Y-89846068D01*
X212260707Y-89928650D01*
X212209464Y-90033482D01*
X212208052Y-90043162D01*
X212200213Y-90096898D01*
X212199500Y-90101782D01*
X212199500Y-90468218D01*
X210280299Y-90468218D01*
X210285044Y-90456762D01*
X210305682Y-90300000D01*
X210285044Y-90143238D01*
X210224536Y-89997159D01*
X210128282Y-89871718D01*
X210002841Y-89775464D01*
X209856762Y-89714956D01*
X209700000Y-89694318D01*
X209543238Y-89714956D01*
X209397159Y-89775464D01*
X209271718Y-89871718D01*
X209175464Y-89997159D01*
X209114956Y-90143238D01*
X209094318Y-90300000D01*
X209095396Y-90308188D01*
X209095396Y-90316446D01*
X209091999Y-90316446D01*
X209083494Y-90371001D01*
X209058604Y-90406399D01*
X207880208Y-91584795D01*
X207817896Y-91618821D01*
X207791113Y-91621700D01*
X206128771Y-91621700D01*
X206060650Y-91601698D01*
X206040287Y-91582971D01*
X206039148Y-91584109D01*
X206033310Y-91578271D01*
X206028282Y-91571718D01*
X205902841Y-91475464D01*
X205756762Y-91414956D01*
X205600000Y-91394318D01*
X205443238Y-91414956D01*
X205297159Y-91475464D01*
X205171718Y-91571718D01*
X205075464Y-91697159D01*
X205042909Y-91775754D01*
X204998361Y-91831035D01*
X204974266Y-91839055D01*
X204782595Y-91839055D01*
X204813351Y-91805389D01*
X204829750Y-91801038D01*
X204813828Y-91783936D01*
X204800500Y-91727536D01*
X204800500Y-91371782D01*
X204791871Y-91313162D01*
X204791784Y-91312574D01*
X204791784Y-91312573D01*
X204790358Y-91302888D01*
X204757409Y-91235778D01*
X204743522Y-91207493D01*
X204743521Y-91207491D01*
X204738932Y-91198145D01*
X204656350Y-91115707D01*
X204551518Y-91064464D01*
X204521027Y-91060016D01*
X204487744Y-91055160D01*
X204487740Y-91055160D01*
X204483218Y-91054500D01*
X202916782Y-91054500D01*
X202912232Y-91055170D01*
X202912229Y-91055170D01*
X202857574Y-91063216D01*
X202857573Y-91063216D01*
X202847888Y-91064642D01*
X202797992Y-91089140D01*
X202752493Y-91111478D01*
X202752491Y-91111479D01*
X202743145Y-91116068D01*
X202660707Y-91198650D01*
X202609464Y-91303482D01*
X202599500Y-91371782D01*
X202599500Y-91738218D01*
X191654542Y-91738218D01*
X192924542Y-90468218D01*
X202599500Y-90468218D01*
X202600170Y-90472768D01*
X202600170Y-90472771D01*
X202608216Y-90527426D01*
X202609642Y-90537112D01*
X202613958Y-90545902D01*
X202645130Y-90609392D01*
X202661068Y-90641855D01*
X202743650Y-90724293D01*
X202753006Y-90728866D01*
X202753007Y-90728867D01*
X202774044Y-90739150D01*
X202848482Y-90775536D01*
X202878973Y-90779984D01*
X202912256Y-90784840D01*
X202912260Y-90784840D01*
X202916782Y-90785500D01*
X204483218Y-90785500D01*
X204487768Y-90784830D01*
X204487771Y-90784830D01*
X204542426Y-90776784D01*
X204542427Y-90776784D01*
X204552112Y-90775358D01*
X204614187Y-90744881D01*
X204647507Y-90728522D01*
X204647509Y-90728521D01*
X204656855Y-90723932D01*
X204739293Y-90641350D01*
X204790536Y-90536518D01*
X204800500Y-90468218D01*
X204800500Y-90101782D01*
X204791871Y-90043162D01*
X204791784Y-90042574D01*
X204791784Y-90042573D01*
X204790358Y-90032888D01*
X204764414Y-89980046D01*
X204743522Y-89937493D01*
X204743521Y-89937491D01*
X204738932Y-89928145D01*
X204688964Y-89878264D01*
X204663721Y-89853065D01*
X204663720Y-89853065D01*
X204656350Y-89845707D01*
X204551518Y-89794464D01*
X204521027Y-89790016D01*
X204487744Y-89785160D01*
X204487740Y-89785160D01*
X204483218Y-89784500D01*
X202916782Y-89784500D01*
X202912232Y-89785170D01*
X202912229Y-89785170D01*
X202857574Y-89793216D01*
X202857573Y-89793216D01*
X202847888Y-89794642D01*
X202797992Y-89819140D01*
X202752493Y-89841478D01*
X202752491Y-89841479D01*
X202743145Y-89846068D01*
X202660707Y-89928650D01*
X202609464Y-90033482D01*
X202608052Y-90043162D01*
X202600213Y-90096898D01*
X202599500Y-90101782D01*
X202599500Y-90468218D01*
X192924542Y-90468218D01*
X193245000Y-90147760D01*
X193307312Y-90113734D01*
X193379043Y-90119145D01*
X193579939Y-90195859D01*
X193585007Y-90196890D01*
X193585010Y-90196891D01*
X193704587Y-90221219D01*
X193821726Y-90245052D01*
X193826899Y-90245242D01*
X193826902Y-90245242D01*
X194063136Y-90253904D01*
X194063140Y-90253904D01*
X194068300Y-90254093D01*
X194073420Y-90253437D01*
X194073422Y-90253437D01*
X194149703Y-90243665D01*
X194313041Y-90222741D01*
X194317990Y-90221256D01*
X194317996Y-90221255D01*
X194544424Y-90153323D01*
X194544423Y-90153323D01*
X194549374Y-90151838D01*
X194687757Y-90084045D01*
X194766303Y-90045566D01*
X194766308Y-90045563D01*
X194770954Y-90043287D01*
X194775164Y-90040284D01*
X194775169Y-90040281D01*
X194967617Y-89903009D01*
X194967622Y-89903005D01*
X194971829Y-89900004D01*
X195146605Y-89725837D01*
X195155199Y-89713878D01*
X195287570Y-89529663D01*
X195290588Y-89525463D01*
X195294244Y-89518067D01*
X195362520Y-89379919D01*
X195399911Y-89304264D01*
X195446324Y-89151501D01*
X195470135Y-89073132D01*
X195470136Y-89073126D01*
X195471639Y-89068180D01*
X195502155Y-88836388D01*
X195503408Y-88826872D01*
X195503409Y-88826866D01*
X195503845Y-88823550D01*
X195505229Y-88766945D01*
X195505561Y-88753364D01*
X195505561Y-88753360D01*
X195505643Y-88750000D01*
X195502619Y-88713214D01*
X197494806Y-88713214D01*
X197495103Y-88718366D01*
X197495103Y-88718370D01*
X197505738Y-88902797D01*
X197509010Y-88959545D01*
X197510147Y-88964591D01*
X197510148Y-88964597D01*
X197544565Y-89117314D01*
X197563255Y-89200249D01*
X197656084Y-89428861D01*
X197785006Y-89639241D01*
X197946557Y-89825741D01*
X197950532Y-89829041D01*
X197950535Y-89829044D01*
X198009821Y-89878264D01*
X198136399Y-89983351D01*
X198349433Y-90107838D01*
X198354253Y-90109678D01*
X198354258Y-90109681D01*
X198468547Y-90153323D01*
X198579939Y-90195859D01*
X198585007Y-90196890D01*
X198585010Y-90196891D01*
X198704587Y-90221219D01*
X198821726Y-90245052D01*
X198826899Y-90245242D01*
X198826902Y-90245242D01*
X199063136Y-90253904D01*
X199063140Y-90253904D01*
X199068300Y-90254093D01*
X199073420Y-90253437D01*
X199073422Y-90253437D01*
X199149703Y-90243665D01*
X199313041Y-90222741D01*
X199317990Y-90221256D01*
X199317996Y-90221255D01*
X199544424Y-90153323D01*
X199544423Y-90153323D01*
X199549374Y-90151838D01*
X199687757Y-90084045D01*
X199766303Y-90045566D01*
X199766308Y-90045563D01*
X199770954Y-90043287D01*
X199775164Y-90040284D01*
X199775169Y-90040281D01*
X199967617Y-89903009D01*
X199967622Y-89903005D01*
X199971829Y-89900004D01*
X200146605Y-89725837D01*
X200155199Y-89713878D01*
X200287570Y-89529663D01*
X200290588Y-89525463D01*
X200294244Y-89518067D01*
X200362520Y-89379919D01*
X200399911Y-89304264D01*
X200432130Y-89198218D01*
X202599500Y-89198218D01*
X202600170Y-89202768D01*
X202600170Y-89202771D01*
X202608216Y-89257426D01*
X202609642Y-89267112D01*
X202661068Y-89371855D01*
X202682925Y-89393674D01*
X202733073Y-89443734D01*
X202743650Y-89454293D01*
X202753006Y-89458866D01*
X202753007Y-89458867D01*
X202762367Y-89463442D01*
X202848482Y-89505536D01*
X202878973Y-89509984D01*
X202912256Y-89514840D01*
X202912260Y-89514840D01*
X202916782Y-89515500D01*
X204483218Y-89515500D01*
X204487768Y-89514830D01*
X204487771Y-89514830D01*
X204542426Y-89506784D01*
X204542427Y-89506784D01*
X204552112Y-89505358D01*
X204606938Y-89478440D01*
X204647507Y-89458522D01*
X204647509Y-89458521D01*
X204656855Y-89453932D01*
X204721000Y-89389675D01*
X204731935Y-89378721D01*
X204731935Y-89378720D01*
X204739293Y-89371350D01*
X204790536Y-89266518D01*
X204796334Y-89226777D01*
X204799840Y-89202744D01*
X204799840Y-89202740D01*
X204800500Y-89198218D01*
X212199500Y-89198218D01*
X212200170Y-89202768D01*
X212200170Y-89202771D01*
X212208216Y-89257426D01*
X212209642Y-89267112D01*
X212261068Y-89371855D01*
X212282925Y-89393674D01*
X212333073Y-89443734D01*
X212343650Y-89454293D01*
X212353006Y-89458866D01*
X212353007Y-89458867D01*
X212362367Y-89463442D01*
X212448482Y-89505536D01*
X212478973Y-89509984D01*
X212512256Y-89514840D01*
X212512260Y-89514840D01*
X212516782Y-89515500D01*
X214083218Y-89515500D01*
X214087768Y-89514830D01*
X214087771Y-89514830D01*
X214142426Y-89506784D01*
X214142427Y-89506784D01*
X214152112Y-89505358D01*
X214206938Y-89478440D01*
X214247507Y-89458522D01*
X214247509Y-89458521D01*
X214256855Y-89453932D01*
X214263645Y-89447131D01*
X214330234Y-89423894D01*
X214399272Y-89440457D01*
X214425644Y-89460641D01*
X214834795Y-89869792D01*
X214868821Y-89932104D01*
X214871700Y-89958887D01*
X214871700Y-95971229D01*
X214851698Y-96039350D01*
X214832971Y-96059713D01*
X214834109Y-96060852D01*
X214828271Y-96066690D01*
X214821718Y-96071718D01*
X214725464Y-96197159D01*
X214664956Y-96343238D01*
X214663878Y-96351426D01*
X214650378Y-96453968D01*
X214627954Y-96504657D01*
X214647396Y-96534909D01*
X214651422Y-96553961D01*
X214664956Y-96656762D01*
X214725464Y-96802841D01*
X214730491Y-96809392D01*
X214815906Y-96920707D01*
X214821718Y-96928282D01*
X214947159Y-97024536D01*
X215093238Y-97085044D01*
X215250000Y-97105682D01*
X215258188Y-97104604D01*
X215398574Y-97086122D01*
X215406762Y-97085044D01*
X215552841Y-97024536D01*
X215678282Y-96928282D01*
X215684095Y-96920707D01*
X215769509Y-96809392D01*
X215774536Y-96802841D01*
X215835044Y-96656762D01*
X215855682Y-96500000D01*
X215839265Y-96375298D01*
X215836122Y-96351426D01*
X215835044Y-96343238D01*
X215774536Y-96197159D01*
X215678282Y-96071718D01*
X215671729Y-96066690D01*
X215665891Y-96060852D01*
X215668288Y-96058455D01*
X215635714Y-96013812D01*
X215628300Y-95971229D01*
X215628300Y-89803798D01*
X215630830Y-89780026D01*
X215630914Y-89778244D01*
X215633105Y-89768067D01*
X215629173Y-89734846D01*
X215628825Y-89728944D01*
X215628728Y-89728952D01*
X215628300Y-89723774D01*
X215628300Y-89718573D01*
X215625144Y-89699611D01*
X215624307Y-89693734D01*
X215618302Y-89642998D01*
X215614352Y-89634771D01*
X215612853Y-89625768D01*
X215588596Y-89580811D01*
X215585901Y-89575522D01*
X215567217Y-89536614D01*
X215563786Y-89529468D01*
X215560206Y-89525209D01*
X215558274Y-89523277D01*
X215556521Y-89521367D01*
X215556470Y-89521271D01*
X215556589Y-89521161D01*
X215556129Y-89520639D01*
X215553049Y-89514931D01*
X215542886Y-89505536D01*
X215513573Y-89478440D01*
X215510007Y-89475010D01*
X214820538Y-88785541D01*
X214805518Y-88766945D01*
X214804321Y-88765630D01*
X214798671Y-88756879D01*
X214772398Y-88736167D01*
X214767979Y-88732240D01*
X214767916Y-88732315D01*
X214763958Y-88728961D01*
X214760276Y-88725279D01*
X214756045Y-88722256D01*
X214756042Y-88722253D01*
X214750608Y-88718370D01*
X214744622Y-88714093D01*
X214739886Y-88710537D01*
X214736772Y-88708082D01*
X214699767Y-88678909D01*
X214691156Y-88675885D01*
X214683731Y-88670579D01*
X214673755Y-88667596D01*
X214673752Y-88667594D01*
X214634805Y-88655947D01*
X214629157Y-88654112D01*
X214588423Y-88639807D01*
X214588417Y-88639806D01*
X214580940Y-88637180D01*
X214575398Y-88636700D01*
X214572680Y-88636700D01*
X214570071Y-88636587D01*
X214569957Y-88636553D01*
X214569964Y-88636394D01*
X214569283Y-88636351D01*
X214563069Y-88634493D01*
X214509907Y-88636582D01*
X214509373Y-88636603D01*
X214504426Y-88636700D01*
X214369576Y-88636700D01*
X214301455Y-88616698D01*
X214280558Y-88599873D01*
X214263717Y-88583061D01*
X214256350Y-88575707D01*
X214151518Y-88524464D01*
X214121027Y-88520016D01*
X214087744Y-88515160D01*
X214087740Y-88515160D01*
X214083218Y-88514500D01*
X212516782Y-88514500D01*
X212512232Y-88515170D01*
X212512229Y-88515170D01*
X212457574Y-88523216D01*
X212457573Y-88523216D01*
X212447888Y-88524642D01*
X212397992Y-88549140D01*
X212352493Y-88571478D01*
X212352491Y-88571479D01*
X212343145Y-88576068D01*
X212335787Y-88583438D01*
X212335788Y-88583438D01*
X212282140Y-88637180D01*
X212260707Y-88658650D01*
X212256134Y-88668006D01*
X212256133Y-88668007D01*
X212253398Y-88673602D01*
X212209464Y-88763482D01*
X212199500Y-88831782D01*
X212199500Y-89198218D01*
X204800500Y-89198218D01*
X204800500Y-88831782D01*
X204796112Y-88801971D01*
X204791784Y-88772574D01*
X204791784Y-88772573D01*
X204790358Y-88762888D01*
X204763450Y-88708082D01*
X204743522Y-88667493D01*
X204743521Y-88667491D01*
X204738932Y-88658145D01*
X204656350Y-88575707D01*
X204551518Y-88524464D01*
X204521027Y-88520016D01*
X204487744Y-88515160D01*
X204487740Y-88515160D01*
X204483218Y-88514500D01*
X202916782Y-88514500D01*
X202912232Y-88515170D01*
X202912229Y-88515170D01*
X202857574Y-88523216D01*
X202857573Y-88523216D01*
X202847888Y-88524642D01*
X202797992Y-88549140D01*
X202752493Y-88571478D01*
X202752491Y-88571479D01*
X202743145Y-88576068D01*
X202735787Y-88583438D01*
X202735788Y-88583438D01*
X202682140Y-88637180D01*
X202660707Y-88658650D01*
X202656134Y-88668006D01*
X202656133Y-88668007D01*
X202653398Y-88673602D01*
X202609464Y-88763482D01*
X202599500Y-88831782D01*
X202599500Y-89198218D01*
X200432130Y-89198218D01*
X200446324Y-89151501D01*
X200470135Y-89073132D01*
X200470136Y-89073126D01*
X200471639Y-89068180D01*
X200502155Y-88836388D01*
X200503408Y-88826872D01*
X200503409Y-88826866D01*
X200503845Y-88823550D01*
X200505229Y-88766945D01*
X200505561Y-88753364D01*
X200505561Y-88753360D01*
X200505643Y-88750000D01*
X200490966Y-88571478D01*
X200485849Y-88509240D01*
X200485848Y-88509234D01*
X200485425Y-88504089D01*
X200425316Y-88264783D01*
X200326928Y-88038507D01*
X200255579Y-87928218D01*
X202599500Y-87928218D01*
X202600170Y-87932768D01*
X202600170Y-87932771D01*
X202608216Y-87987426D01*
X202609642Y-87997112D01*
X202661068Y-88101855D01*
X202743650Y-88184293D01*
X202848482Y-88235536D01*
X202878973Y-88239984D01*
X202912256Y-88244840D01*
X202912260Y-88244840D01*
X202916782Y-88245500D01*
X204483218Y-88245500D01*
X204487768Y-88244830D01*
X204487771Y-88244830D01*
X204542426Y-88236784D01*
X204542427Y-88236784D01*
X204552112Y-88235358D01*
X204646804Y-88188867D01*
X204647507Y-88188522D01*
X204647509Y-88188521D01*
X204656855Y-88183932D01*
X204739293Y-88101350D01*
X204790536Y-87996518D01*
X204800500Y-87928218D01*
X204800500Y-87561782D01*
X204796842Y-87536929D01*
X204791784Y-87502574D01*
X204791784Y-87502573D01*
X204790358Y-87492888D01*
X204738932Y-87388145D01*
X204737054Y-87386270D01*
X204715153Y-87323511D01*
X204731713Y-87254473D01*
X204751899Y-87228098D01*
X205814792Y-86165205D01*
X205877104Y-86131179D01*
X205903887Y-86128300D01*
X217560517Y-86128300D01*
X217628638Y-86148302D01*
X217643486Y-86159473D01*
X218039474Y-86505962D01*
X219328672Y-87634011D01*
X219366766Y-87693922D01*
X219371700Y-87728836D01*
X219371700Y-98721229D01*
X219351698Y-98789350D01*
X219332971Y-98809713D01*
X219334109Y-98810852D01*
X219328271Y-98816690D01*
X219321718Y-98821718D01*
X219316692Y-98828268D01*
X219316691Y-98828269D01*
X219295082Y-98856431D01*
X219237744Y-98898298D01*
X219166873Y-98902520D01*
X219104970Y-98867756D01*
X219078710Y-98827946D01*
X219060244Y-98783366D01*
X219024536Y-98697159D01*
X218928282Y-98571718D01*
X218802841Y-98475464D01*
X218656762Y-98414956D01*
X218500000Y-98394318D01*
X218343238Y-98414956D01*
X218197159Y-98475464D01*
X218190608Y-98480491D01*
X218079537Y-98565718D01*
X218013316Y-98591318D01*
X217943768Y-98577053D01*
X217892972Y-98527452D01*
X217877056Y-98458262D01*
X217883951Y-98424006D01*
X217894973Y-98392620D01*
X217894974Y-98392615D01*
X217897519Y-98385369D01*
X217900500Y-98353834D01*
X217900500Y-97596166D01*
X217897519Y-97564631D01*
X217852634Y-97436816D01*
X217847042Y-97429246D01*
X217847041Y-97429243D01*
X217777742Y-97335421D01*
X217772150Y-97327850D01*
X217739114Y-97303449D01*
X217670757Y-97252959D01*
X217670754Y-97252958D01*
X217663184Y-97247366D01*
X217535369Y-97202481D01*
X217527723Y-97201758D01*
X217527722Y-97201758D01*
X217521752Y-97201194D01*
X217503834Y-97199500D01*
X217196008Y-97199500D01*
X217127887Y-97179498D01*
X217081394Y-97125842D01*
X217071290Y-97055568D01*
X217100784Y-96990988D01*
X217119304Y-96973537D01*
X217132612Y-96963326D01*
X217178282Y-96928282D01*
X217184095Y-96920707D01*
X217269509Y-96809392D01*
X217274536Y-96802841D01*
X217335044Y-96656762D01*
X217355682Y-96500000D01*
X217339265Y-96375298D01*
X217336122Y-96351426D01*
X217335044Y-96343238D01*
X217274536Y-96197159D01*
X217178282Y-96071718D01*
X217171729Y-96066690D01*
X217165891Y-96060852D01*
X217168288Y-96058455D01*
X217135714Y-96013812D01*
X217128300Y-95971229D01*
X217128300Y-89553798D01*
X217130830Y-89530026D01*
X217130914Y-89528244D01*
X217133105Y-89518067D01*
X217129173Y-89484846D01*
X217128825Y-89478944D01*
X217128728Y-89478952D01*
X217128300Y-89473774D01*
X217128300Y-89468573D01*
X217125144Y-89449611D01*
X217124307Y-89443734D01*
X217122947Y-89432243D01*
X217118302Y-89392998D01*
X217114352Y-89384771D01*
X217112853Y-89375768D01*
X217088596Y-89330811D01*
X217085901Y-89325522D01*
X217084318Y-89322226D01*
X217063786Y-89279468D01*
X217060206Y-89275209D01*
X217058274Y-89273277D01*
X217056521Y-89271367D01*
X217056470Y-89271271D01*
X217056589Y-89271161D01*
X217056129Y-89270639D01*
X217053049Y-89264931D01*
X217013572Y-89228439D01*
X217010007Y-89225010D01*
X215300538Y-87515541D01*
X215285518Y-87496945D01*
X215284321Y-87495630D01*
X215278671Y-87486879D01*
X215252398Y-87466167D01*
X215247979Y-87462240D01*
X215247916Y-87462315D01*
X215243958Y-87458961D01*
X215240276Y-87455279D01*
X215236045Y-87452256D01*
X215236042Y-87452253D01*
X215231123Y-87448738D01*
X215224622Y-87444093D01*
X215219886Y-87440537D01*
X215211952Y-87434282D01*
X215179767Y-87408909D01*
X215171156Y-87405885D01*
X215163731Y-87400579D01*
X215153755Y-87397596D01*
X215153752Y-87397594D01*
X215114805Y-87385947D01*
X215109157Y-87384112D01*
X215068423Y-87369807D01*
X215068417Y-87369806D01*
X215060940Y-87367180D01*
X215055398Y-87366700D01*
X215052680Y-87366700D01*
X215050071Y-87366587D01*
X215049957Y-87366553D01*
X215049964Y-87366394D01*
X215049283Y-87366351D01*
X215043069Y-87364493D01*
X214989907Y-87366582D01*
X214989373Y-87366603D01*
X214984426Y-87366700D01*
X214369576Y-87366700D01*
X214301455Y-87346698D01*
X214280558Y-87329873D01*
X214263717Y-87313061D01*
X214256350Y-87305707D01*
X214151518Y-87254464D01*
X214107813Y-87248088D01*
X214087744Y-87245160D01*
X214087740Y-87245160D01*
X214083218Y-87244500D01*
X212516782Y-87244500D01*
X212512232Y-87245170D01*
X212512229Y-87245170D01*
X212457574Y-87253216D01*
X212457573Y-87253216D01*
X212447888Y-87254642D01*
X212426932Y-87264931D01*
X212352493Y-87301478D01*
X212352491Y-87301479D01*
X212343145Y-87306068D01*
X212319382Y-87329873D01*
X212273567Y-87375768D01*
X212260707Y-87388650D01*
X212256134Y-87398006D01*
X212256133Y-87398007D01*
X212253398Y-87403602D01*
X212209464Y-87493482D01*
X212199500Y-87561782D01*
X212199500Y-87928218D01*
X212200170Y-87932768D01*
X212200170Y-87932771D01*
X212208216Y-87987426D01*
X212209642Y-87997112D01*
X212261068Y-88101855D01*
X212343650Y-88184293D01*
X212448482Y-88235536D01*
X212478973Y-88239984D01*
X212512256Y-88244840D01*
X212512260Y-88244840D01*
X212516782Y-88245500D01*
X214083218Y-88245500D01*
X214087768Y-88244830D01*
X214087771Y-88244830D01*
X214142426Y-88236784D01*
X214142427Y-88236784D01*
X214152112Y-88235358D01*
X214256855Y-88183932D01*
X214280464Y-88160281D01*
X214342746Y-88126203D01*
X214369636Y-88123300D01*
X214786113Y-88123300D01*
X214854234Y-88143302D01*
X214875208Y-88160205D01*
X216334795Y-89619792D01*
X216368821Y-89682104D01*
X216371700Y-89708887D01*
X216371700Y-95971229D01*
X216351698Y-96039350D01*
X216332971Y-96059713D01*
X216334109Y-96060852D01*
X216328271Y-96066690D01*
X216321718Y-96071718D01*
X216225464Y-96197159D01*
X216164956Y-96343238D01*
X216163878Y-96351426D01*
X216160735Y-96375298D01*
X216144318Y-96500000D01*
X216164956Y-96656762D01*
X216225464Y-96802841D01*
X216230491Y-96809392D01*
X216315906Y-96920707D01*
X216321718Y-96928282D01*
X216427053Y-97009108D01*
X216468919Y-97066445D01*
X216473141Y-97137316D01*
X216438377Y-97199219D01*
X216392097Y-97227953D01*
X216336816Y-97247366D01*
X216329246Y-97252958D01*
X216329243Y-97252959D01*
X216260886Y-97303449D01*
X216227850Y-97327850D01*
X216147366Y-97436816D01*
X216144247Y-97445699D01*
X216139837Y-97454028D01*
X216137827Y-97452964D01*
X216103947Y-97500092D01*
X216037918Y-97526182D01*
X216026505Y-97526700D01*
X214714826Y-97526700D01*
X214709283Y-97526351D01*
X214703069Y-97524493D01*
X214649373Y-97526603D01*
X214644426Y-97526700D01*
X214369576Y-97526700D01*
X214301455Y-97506698D01*
X214280558Y-97489873D01*
X214263717Y-97473061D01*
X214256350Y-97465707D01*
X214151518Y-97414464D01*
X214121027Y-97410016D01*
X214087744Y-97405160D01*
X214087740Y-97405160D01*
X214083218Y-97404500D01*
X212516782Y-97404500D01*
X212512232Y-97405170D01*
X212512229Y-97405170D01*
X212457574Y-97413216D01*
X212457573Y-97413216D01*
X212447888Y-97414642D01*
X212418149Y-97429243D01*
X212352493Y-97461478D01*
X212352491Y-97461479D01*
X212343145Y-97466068D01*
X212335787Y-97473438D01*
X212335788Y-97473438D01*
X212268397Y-97540947D01*
X212260707Y-97548650D01*
X212209464Y-97653482D01*
X212208052Y-97663162D01*
X212200483Y-97715046D01*
X212199500Y-97721782D01*
X212199500Y-98088218D01*
X212200170Y-98092768D01*
X212200170Y-98092771D01*
X212208216Y-98147426D01*
X212209642Y-98157112D01*
X212261068Y-98261855D01*
X212267924Y-98268699D01*
X212291177Y-98335333D01*
X212274614Y-98404370D01*
X212229474Y-98450102D01*
X212150322Y-98496911D01*
X212137896Y-98506551D01*
X212031551Y-98612896D01*
X212021911Y-98625322D01*
X211945352Y-98754779D01*
X211939107Y-98769210D01*
X211900061Y-98903605D01*
X211900101Y-98917706D01*
X211907370Y-98921000D01*
X214686878Y-98921000D01*
X214700409Y-98917027D01*
X214701544Y-98909129D01*
X214665406Y-98784744D01*
X214665609Y-98713747D01*
X214704162Y-98654131D01*
X214768827Y-98624822D01*
X214839072Y-98635126D01*
X214875498Y-98660495D01*
X215444462Y-99229459D01*
X215459482Y-99248055D01*
X215460679Y-99249370D01*
X215466329Y-99258121D01*
X215474507Y-99264568D01*
X215492602Y-99278833D01*
X215497023Y-99282762D01*
X215497086Y-99282687D01*
X215501042Y-99286039D01*
X215504724Y-99289721D01*
X215508960Y-99292748D01*
X215508961Y-99292749D01*
X215520365Y-99300899D01*
X215525112Y-99304462D01*
X215565233Y-99336091D01*
X215573846Y-99339116D01*
X215581270Y-99344421D01*
X215591243Y-99347404D01*
X215591246Y-99347405D01*
X215612112Y-99353645D01*
X215630205Y-99359056D01*
X215635847Y-99360889D01*
X215676580Y-99375194D01*
X215676586Y-99375195D01*
X215684060Y-99377820D01*
X215689602Y-99378300D01*
X215691009Y-99378300D01*
X215699705Y-99380172D01*
X215699380Y-99381682D01*
X215756246Y-99401084D01*
X215800378Y-99456698D01*
X215807438Y-99527342D01*
X215806240Y-99531974D01*
X215806303Y-99531987D01*
X215801995Y-99552080D01*
X215792328Y-99646438D01*
X215792000Y-99652854D01*
X215792000Y-99752885D01*
X215796475Y-99768124D01*
X215797865Y-99769329D01*
X215805548Y-99771000D01*
X218189884Y-99771000D01*
X218205123Y-99766525D01*
X218206328Y-99765135D01*
X218207999Y-99757452D01*
X218207999Y-99710915D01*
X218228001Y-99642794D01*
X218281657Y-99596301D01*
X218350445Y-99585993D01*
X218491812Y-99604604D01*
X218500000Y-99605682D01*
X218508188Y-99604604D01*
X218648574Y-99586122D01*
X218656762Y-99585044D01*
X218802841Y-99524536D01*
X218928282Y-99428282D01*
X218954918Y-99393569D01*
X219012256Y-99351702D01*
X219083127Y-99347480D01*
X219145030Y-99382244D01*
X219171290Y-99422054D01*
X219225464Y-99552841D01*
X219266975Y-99606939D01*
X219312341Y-99666061D01*
X219321718Y-99678282D01*
X219447159Y-99774536D01*
X219593238Y-99835044D01*
X219750000Y-99855682D01*
X219758188Y-99854604D01*
X219769681Y-99853091D01*
X219906762Y-99835044D01*
X220052841Y-99774536D01*
X220178282Y-99678282D01*
X220187660Y-99666061D01*
X220233025Y-99606939D01*
X220274536Y-99552841D01*
X220283180Y-99531974D01*
X220331884Y-99414391D01*
X220335044Y-99406762D01*
X220355682Y-99250000D01*
X220335044Y-99093238D01*
X220274536Y-98947159D01*
X220178282Y-98821718D01*
X220171729Y-98816690D01*
X220165891Y-98810852D01*
X220168288Y-98808455D01*
X220135714Y-98763812D01*
X220128300Y-98721229D01*
X220128300Y-96586062D01*
X223117099Y-96586062D01*
X223126395Y-96598077D01*
X223177600Y-96633931D01*
X223187095Y-96639414D01*
X223384553Y-96731490D01*
X223394845Y-96735236D01*
X223605294Y-96791625D01*
X223616087Y-96793528D01*
X223833131Y-96812517D01*
X223844081Y-96812517D01*
X224061125Y-96793528D01*
X224071918Y-96791625D01*
X224282367Y-96735236D01*
X224292659Y-96731490D01*
X224490117Y-96639414D01*
X224499612Y-96633931D01*
X224551654Y-96597491D01*
X224560030Y-96587012D01*
X224552962Y-96573566D01*
X223851418Y-95872022D01*
X223837474Y-95864408D01*
X223835641Y-95864539D01*
X223829026Y-95868790D01*
X223123529Y-96574287D01*
X223117099Y-96586062D01*
X220128300Y-96586062D01*
X220128300Y-96462191D01*
X220148302Y-96394070D01*
X220201958Y-96347577D01*
X220272232Y-96337473D01*
X220336812Y-96366967D01*
X220359065Y-96392188D01*
X220394054Y-96444552D01*
X220460375Y-96488867D01*
X220472544Y-96491288D01*
X220472545Y-96491288D01*
X220506053Y-96497953D01*
X220518858Y-96500500D01*
X222158354Y-96500500D01*
X222171159Y-96497953D01*
X222204667Y-96491288D01*
X222204668Y-96491288D01*
X222216837Y-96488867D01*
X222283158Y-96444552D01*
X222327473Y-96378231D01*
X222330223Y-96364409D01*
X222337899Y-96325816D01*
X222339106Y-96319748D01*
X222339106Y-95914580D01*
X222359108Y-95846459D01*
X222412764Y-95799966D01*
X222483038Y-95789862D01*
X222547618Y-95819356D01*
X222586813Y-95881969D01*
X222603370Y-95943761D01*
X222607116Y-95954053D01*
X222699192Y-96151511D01*
X222704675Y-96161006D01*
X222741115Y-96213048D01*
X222751594Y-96221424D01*
X222765040Y-96214356D01*
X223466584Y-95512812D01*
X223472962Y-95501132D01*
X224203014Y-95501132D01*
X224203145Y-95502965D01*
X224207396Y-95509580D01*
X224912893Y-96215077D01*
X224924668Y-96221507D01*
X224936683Y-96212211D01*
X224972537Y-96161006D01*
X224978020Y-96151511D01*
X225070096Y-95954053D01*
X225073842Y-95943761D01*
X225130231Y-95733312D01*
X225132134Y-95722519D01*
X225151123Y-95505475D01*
X225151123Y-95494525D01*
X225132134Y-95277481D01*
X225130231Y-95266688D01*
X225073842Y-95056239D01*
X225070096Y-95045947D01*
X224978020Y-94848489D01*
X224972537Y-94838994D01*
X224936097Y-94786952D01*
X224925618Y-94778576D01*
X224912172Y-94785644D01*
X224210628Y-95487188D01*
X224203014Y-95501132D01*
X223472962Y-95501132D01*
X223474198Y-95498868D01*
X223474067Y-95497035D01*
X223469816Y-95490420D01*
X222764319Y-94784923D01*
X222752544Y-94778493D01*
X222740529Y-94787789D01*
X222704675Y-94838994D01*
X222699192Y-94848489D01*
X222607116Y-95045947D01*
X222603370Y-95056239D01*
X222586813Y-95118031D01*
X222549861Y-95178654D01*
X222486000Y-95209675D01*
X222415506Y-95201247D01*
X222360759Y-95156044D01*
X222339106Y-95085420D01*
X222339106Y-94680252D01*
X222337899Y-94674184D01*
X222329894Y-94633939D01*
X222329894Y-94633938D01*
X222327473Y-94621769D01*
X222283158Y-94555448D01*
X222216837Y-94511133D01*
X222204668Y-94508712D01*
X222204667Y-94508712D01*
X222164422Y-94500707D01*
X222158354Y-94499500D01*
X220518858Y-94499500D01*
X220512790Y-94500707D01*
X220472545Y-94508712D01*
X220472544Y-94508712D01*
X220460375Y-94511133D01*
X220394054Y-94555448D01*
X220374069Y-94585358D01*
X220359065Y-94607812D01*
X220304587Y-94653339D01*
X220234144Y-94662186D01*
X220170100Y-94631545D01*
X220132789Y-94571143D01*
X220128300Y-94537809D01*
X220128300Y-94412988D01*
X223117182Y-94412988D01*
X223124250Y-94426434D01*
X223825794Y-95127978D01*
X223839738Y-95135592D01*
X223841571Y-95135461D01*
X223848186Y-95131210D01*
X224553683Y-94425713D01*
X224560113Y-94413938D01*
X224550817Y-94401923D01*
X224499612Y-94366069D01*
X224490117Y-94360586D01*
X224292659Y-94268510D01*
X224282367Y-94264764D01*
X224071918Y-94208375D01*
X224061125Y-94206472D01*
X223844081Y-94187483D01*
X223833131Y-94187483D01*
X223616087Y-94206472D01*
X223605294Y-94208375D01*
X223394845Y-94264764D01*
X223384553Y-94268510D01*
X223187095Y-94360586D01*
X223177600Y-94366069D01*
X223125558Y-94402509D01*
X223117182Y-94412988D01*
X220128300Y-94412988D01*
X220128300Y-88805592D01*
X223055898Y-88805592D01*
X223055993Y-88809222D01*
X223055993Y-88809223D01*
X223056704Y-88836388D01*
X223064956Y-89151501D01*
X223113712Y-89494076D01*
X223201519Y-89828777D01*
X223327214Y-90151167D01*
X223328911Y-90154372D01*
X223439089Y-90362462D01*
X223489130Y-90456974D01*
X223491180Y-90459957D01*
X223491182Y-90459960D01*
X223648583Y-90688979D01*
X223685122Y-90742144D01*
X223912592Y-91002898D01*
X224168524Y-91235778D01*
X224171472Y-91237896D01*
X224171474Y-91237898D01*
X224262744Y-91303482D01*
X224449527Y-91437699D01*
X224751876Y-91605985D01*
X225071563Y-91738403D01*
X225075057Y-91739398D01*
X225075059Y-91739399D01*
X225400851Y-91832204D01*
X225400856Y-91832205D01*
X225404352Y-91833201D01*
X225640034Y-91871795D01*
X225742251Y-91888534D01*
X225742255Y-91888534D01*
X225745831Y-91889120D01*
X225749457Y-91889291D01*
X226087847Y-91905249D01*
X226087848Y-91905249D01*
X226091474Y-91905420D01*
X226134204Y-91902507D01*
X226433069Y-91882133D01*
X226433077Y-91882132D01*
X226436700Y-91881885D01*
X226440276Y-91881222D01*
X226440278Y-91881222D01*
X226773368Y-91819488D01*
X226773372Y-91819487D01*
X226776933Y-91818827D01*
X227107663Y-91717081D01*
X227370512Y-91601698D01*
X227421172Y-91579460D01*
X227424507Y-91577996D01*
X227703517Y-91414956D01*
X227720125Y-91405251D01*
X227720127Y-91405250D01*
X227723265Y-91403416D01*
X227733947Y-91395396D01*
X227997071Y-91197837D01*
X227997075Y-91197834D01*
X227999978Y-91195654D01*
X228250977Y-90957465D01*
X228472936Y-90692005D01*
X228501046Y-90649212D01*
X228660926Y-90405818D01*
X228660931Y-90405809D01*
X228662913Y-90402792D01*
X228787856Y-90154372D01*
X228816763Y-90096898D01*
X228816766Y-90096890D01*
X228818390Y-90093662D01*
X228836870Y-90043162D01*
X228936057Y-89772122D01*
X228936060Y-89772112D01*
X228937305Y-89768710D01*
X228938150Y-89765188D01*
X228938153Y-89765180D01*
X229017237Y-89435772D01*
X229017238Y-89435768D01*
X229018084Y-89432243D01*
X229024416Y-89379919D01*
X229059318Y-89091501D01*
X229059318Y-89091495D01*
X229059654Y-89088722D01*
X229065585Y-88900000D01*
X229061389Y-88827229D01*
X229045875Y-88558167D01*
X229045874Y-88558162D01*
X229045666Y-88554547D01*
X229041200Y-88528958D01*
X228986798Y-88217245D01*
X228986796Y-88217238D01*
X228986174Y-88213672D01*
X228978827Y-88188867D01*
X228936039Y-88044418D01*
X228887897Y-87881894D01*
X228886473Y-87878555D01*
X228753562Y-87566949D01*
X228753560Y-87566946D01*
X228752138Y-87563611D01*
X228724720Y-87515541D01*
X228582487Y-87266181D01*
X228580696Y-87263041D01*
X228577552Y-87258760D01*
X228377986Y-86987086D01*
X228375843Y-86984168D01*
X228140295Y-86730688D01*
X227877174Y-86505962D01*
X227589967Y-86312967D01*
X227282482Y-86154261D01*
X226958793Y-86031950D01*
X226623190Y-85947652D01*
X226478981Y-85928667D01*
X226283728Y-85902961D01*
X226283720Y-85902960D01*
X226280124Y-85902487D01*
X226128991Y-85900112D01*
X225937780Y-85897108D01*
X225937776Y-85897108D01*
X225934139Y-85897051D01*
X225930524Y-85897412D01*
X225930520Y-85897412D01*
X225762646Y-85914169D01*
X225589823Y-85931419D01*
X225586286Y-85932190D01*
X225586281Y-85932191D01*
X225255283Y-86004360D01*
X225255278Y-86004361D01*
X225251739Y-86005133D01*
X224924367Y-86117217D01*
X224612048Y-86266186D01*
X224318921Y-86450064D01*
X224316087Y-86452334D01*
X224316082Y-86452338D01*
X224147066Y-86587746D01*
X224048871Y-86666415D01*
X223805477Y-86912371D01*
X223591966Y-87184672D01*
X223411168Y-87479709D01*
X223409641Y-87482999D01*
X223409636Y-87483008D01*
X223332659Y-87648842D01*
X223265478Y-87793570D01*
X223264338Y-87797017D01*
X223161252Y-88108721D01*
X223156828Y-88122097D01*
X223156092Y-88125652D01*
X223156091Y-88125655D01*
X223133427Y-88235096D01*
X223086658Y-88460935D01*
X223070694Y-88639807D01*
X223057688Y-88785541D01*
X223055898Y-88805592D01*
X220128300Y-88805592D01*
X220128300Y-87536929D01*
X220129631Y-87518662D01*
X220131948Y-87502846D01*
X220133458Y-87492543D01*
X220122812Y-87435461D01*
X220122391Y-87433074D01*
X220118114Y-87407377D01*
X220112853Y-87375768D01*
X220111060Y-87372445D01*
X220110368Y-87368735D01*
X220081788Y-87318146D01*
X220080604Y-87316000D01*
X220057042Y-87272331D01*
X220057041Y-87272330D01*
X220053049Y-87264931D01*
X220050277Y-87262369D01*
X220048421Y-87259083D01*
X220044566Y-87255072D01*
X220004954Y-87220412D01*
X220002496Y-87218200D01*
X219960567Y-87179442D01*
X219956366Y-87177585D01*
X219953646Y-87175517D01*
X219734962Y-86984168D01*
X218914411Y-86266186D01*
X218044061Y-85504630D01*
X218038179Y-85498861D01*
X218033671Y-85491879D01*
X217993959Y-85460572D01*
X217989036Y-85456483D01*
X217975461Y-85444605D01*
X217971046Y-85441874D01*
X217966861Y-85438782D01*
X217966875Y-85438762D01*
X217961681Y-85435125D01*
X217942950Y-85420359D01*
X217942946Y-85420357D01*
X217934767Y-85413909D01*
X217924939Y-85410458D01*
X217921333Y-85408475D01*
X217908095Y-85402149D01*
X217904299Y-85400593D01*
X217895446Y-85395118D01*
X217885299Y-85392806D01*
X217885297Y-85392805D01*
X217862032Y-85387504D01*
X217848278Y-85383536D01*
X217823419Y-85374806D01*
X217823416Y-85374805D01*
X217815940Y-85372180D01*
X217810398Y-85371700D01*
X217806846Y-85371700D01*
X217806322Y-85371641D01*
X217804956Y-85371582D01*
X217804960Y-85371488D01*
X217791360Y-85369958D01*
X217782806Y-85369452D01*
X217772652Y-85367138D01*
X217762297Y-85368238D01*
X217762296Y-85368238D01*
X217736347Y-85370995D01*
X217723036Y-85371700D01*
X205748798Y-85371700D01*
X205725026Y-85369170D01*
X205723244Y-85369086D01*
X205713067Y-85366895D01*
X205679846Y-85370827D01*
X205673944Y-85371175D01*
X205673952Y-85371272D01*
X205668774Y-85371700D01*
X205663573Y-85371700D01*
X205658442Y-85372554D01*
X205644612Y-85374856D01*
X205638735Y-85375693D01*
X205587998Y-85381698D01*
X205579771Y-85385648D01*
X205570768Y-85387147D01*
X205561606Y-85392091D01*
X205561602Y-85392092D01*
X205525818Y-85411401D01*
X205520560Y-85414081D01*
X205474467Y-85436214D01*
X205470209Y-85439794D01*
X205468283Y-85441720D01*
X205466364Y-85443480D01*
X205466272Y-85443530D01*
X205466162Y-85443410D01*
X205465638Y-85443872D01*
X205459931Y-85446951D01*
X205452863Y-85454597D01*
X205452862Y-85454598D01*
X205423440Y-85486427D01*
X205420010Y-85489993D01*
X203702408Y-87207595D01*
X203640096Y-87241621D01*
X203613313Y-87244500D01*
X202916782Y-87244500D01*
X202912232Y-87245170D01*
X202912229Y-87245170D01*
X202857574Y-87253216D01*
X202857573Y-87253216D01*
X202847888Y-87254642D01*
X202826932Y-87264931D01*
X202752493Y-87301478D01*
X202752491Y-87301479D01*
X202743145Y-87306068D01*
X202719382Y-87329873D01*
X202673567Y-87375768D01*
X202660707Y-87388650D01*
X202656134Y-87398006D01*
X202656133Y-87398007D01*
X202653398Y-87403602D01*
X202609464Y-87493482D01*
X202599500Y-87561782D01*
X202599500Y-87928218D01*
X200255579Y-87928218D01*
X200192905Y-87831339D01*
X200166635Y-87802468D01*
X200140243Y-87773464D01*
X200026846Y-87648842D01*
X200022795Y-87645643D01*
X200022791Y-87645639D01*
X199837264Y-87499119D01*
X199837259Y-87499116D01*
X199833210Y-87495918D01*
X199828694Y-87493425D01*
X199828691Y-87493423D01*
X199621722Y-87379170D01*
X199621718Y-87379168D01*
X199617198Y-87376673D01*
X199612329Y-87374949D01*
X199612325Y-87374947D01*
X199389485Y-87296035D01*
X199389481Y-87296034D01*
X199384610Y-87294309D01*
X199379517Y-87293402D01*
X199379514Y-87293401D01*
X199146783Y-87251945D01*
X199146777Y-87251944D01*
X199141694Y-87251039D01*
X199062324Y-87250069D01*
X198900142Y-87248088D01*
X198900140Y-87248088D01*
X198894972Y-87248025D01*
X198651070Y-87285347D01*
X198416540Y-87362003D01*
X198370544Y-87385947D01*
X198243172Y-87452253D01*
X198197679Y-87475935D01*
X198193546Y-87479038D01*
X198193543Y-87479040D01*
X198076459Y-87566949D01*
X198000364Y-87624083D01*
X197829896Y-87802468D01*
X197826982Y-87806740D01*
X197826981Y-87806741D01*
X197744115Y-87928218D01*
X197690851Y-88006300D01*
X197670627Y-88049869D01*
X197596209Y-88210190D01*
X197586965Y-88230104D01*
X197521026Y-88467871D01*
X197494806Y-88713214D01*
X195502619Y-88713214D01*
X195490966Y-88571478D01*
X195485849Y-88509240D01*
X195485848Y-88509234D01*
X195485425Y-88504089D01*
X195425316Y-88264783D01*
X195326928Y-88038507D01*
X195192905Y-87831339D01*
X195166635Y-87802468D01*
X195140243Y-87773464D01*
X195026846Y-87648842D01*
X195022795Y-87645643D01*
X195022791Y-87645639D01*
X194837264Y-87499119D01*
X194837259Y-87499116D01*
X194833210Y-87495918D01*
X194828694Y-87493425D01*
X194828691Y-87493423D01*
X194621722Y-87379170D01*
X194621718Y-87379168D01*
X194617198Y-87376673D01*
X194612329Y-87374949D01*
X194612325Y-87374947D01*
X194389485Y-87296035D01*
X194389481Y-87296034D01*
X194384610Y-87294309D01*
X194379517Y-87293402D01*
X194379514Y-87293401D01*
X194146783Y-87251945D01*
X194146777Y-87251944D01*
X194141694Y-87251039D01*
X194062324Y-87250069D01*
X193900142Y-87248088D01*
X193900140Y-87248088D01*
X193894972Y-87248025D01*
X193651070Y-87285347D01*
X193416540Y-87362003D01*
X193370544Y-87385947D01*
X193243172Y-87452253D01*
X193197679Y-87475935D01*
X193193546Y-87479038D01*
X193193543Y-87479040D01*
X193076459Y-87566949D01*
X193000364Y-87624083D01*
X192829896Y-87802468D01*
X192826982Y-87806740D01*
X192826981Y-87806741D01*
X192744115Y-87928218D01*
X192690851Y-88006300D01*
X192670627Y-88049869D01*
X192596209Y-88210190D01*
X192586965Y-88230104D01*
X192521026Y-88467871D01*
X192494806Y-88713214D01*
X192495103Y-88718366D01*
X192495103Y-88718370D01*
X192505738Y-88902797D01*
X192509010Y-88959545D01*
X192510147Y-88964591D01*
X192510148Y-88964597D01*
X192544565Y-89117314D01*
X192563255Y-89200249D01*
X192565199Y-89205036D01*
X192631087Y-89367302D01*
X192638183Y-89437944D01*
X192603439Y-89503801D01*
X190123989Y-91983251D01*
X190112900Y-91993106D01*
X190085941Y-92014359D01*
X190080587Y-92022106D01*
X190052258Y-92063094D01*
X190049976Y-92066287D01*
X190014791Y-92113924D01*
X190012377Y-92120797D01*
X190008236Y-92126789D01*
X189990374Y-92183270D01*
X189989129Y-92186999D01*
X189969507Y-92242874D01*
X189969224Y-92250078D01*
X189969191Y-92250249D01*
X189967025Y-92257097D01*
X189966500Y-92263768D01*
X189966500Y-92316938D01*
X189966403Y-92321884D01*
X189964142Y-92379437D01*
X189966039Y-92386592D01*
X189966500Y-92394967D01*
X189966500Y-100244494D01*
X189946498Y-100312615D01*
X189892842Y-100359108D01*
X189822568Y-100369212D01*
X189757988Y-100339718D01*
X189751405Y-100333589D01*
X187088357Y-97670541D01*
X187073337Y-97651945D01*
X187072140Y-97650630D01*
X187066490Y-97641879D01*
X187040217Y-97621167D01*
X187035798Y-97617240D01*
X187035735Y-97617315D01*
X187031777Y-97613961D01*
X187028095Y-97610279D01*
X187023864Y-97607256D01*
X187023861Y-97607253D01*
X187014641Y-97600665D01*
X187012441Y-97599093D01*
X187007705Y-97595537D01*
X187005185Y-97593550D01*
X186967586Y-97563909D01*
X186958975Y-97560885D01*
X186951550Y-97555579D01*
X186941574Y-97552596D01*
X186941571Y-97552594D01*
X186902624Y-97540947D01*
X186896976Y-97539112D01*
X186856242Y-97524807D01*
X186856236Y-97524806D01*
X186848759Y-97522180D01*
X186843217Y-97521700D01*
X186840499Y-97521700D01*
X186837890Y-97521587D01*
X186837776Y-97521553D01*
X186837783Y-97521394D01*
X186837102Y-97521351D01*
X186830888Y-97519493D01*
X186777726Y-97521582D01*
X186777192Y-97521603D01*
X186772245Y-97521700D01*
X185653798Y-97521700D01*
X185630026Y-97519170D01*
X185628244Y-97519086D01*
X185618067Y-97516895D01*
X185585860Y-97520707D01*
X185584846Y-97520827D01*
X185578944Y-97521175D01*
X185578952Y-97521272D01*
X185573774Y-97521700D01*
X185568573Y-97521700D01*
X185563442Y-97522554D01*
X185549612Y-97524856D01*
X185543735Y-97525693D01*
X185492998Y-97531698D01*
X185484771Y-97535648D01*
X185475768Y-97537147D01*
X185455385Y-97548145D01*
X185430811Y-97561404D01*
X185425522Y-97564099D01*
X185379468Y-97586214D01*
X185375209Y-97589794D01*
X185373277Y-97591726D01*
X185371367Y-97593479D01*
X185371271Y-97593530D01*
X185371161Y-97593411D01*
X185370639Y-97593871D01*
X185364931Y-97596951D01*
X185357863Y-97604597D01*
X185357862Y-97604598D01*
X185328440Y-97636427D01*
X185325010Y-97639993D01*
X184802408Y-98162595D01*
X184740096Y-98196621D01*
X184713313Y-98199500D01*
X183880252Y-98199500D01*
X183874184Y-98200707D01*
X183833939Y-98208712D01*
X183833938Y-98208712D01*
X183821769Y-98211133D01*
X183755448Y-98255448D01*
X183711133Y-98321769D01*
X183708712Y-98333938D01*
X183708712Y-98333939D01*
X183700707Y-98374184D01*
X183699500Y-98380252D01*
X183699500Y-99619748D01*
X183711133Y-99678231D01*
X183755448Y-99744552D01*
X183821769Y-99788867D01*
X183833938Y-99791288D01*
X183833939Y-99791288D01*
X183852531Y-99794986D01*
X183880252Y-99800500D01*
X184978516Y-99800500D01*
X185046637Y-99820502D01*
X185093130Y-99874158D01*
X185103234Y-99944432D01*
X185102294Y-99949670D01*
X185099980Y-99956260D01*
X185099500Y-99961802D01*
X185099500Y-99964519D01*
X185099387Y-99967129D01*
X185099353Y-99967243D01*
X185099194Y-99967236D01*
X185099151Y-99967917D01*
X185097293Y-99974131D01*
X185097702Y-99984537D01*
X185099403Y-100027827D01*
X185099500Y-100032774D01*
X185099500Y-100203118D01*
X185079498Y-100271239D01*
X185025842Y-100317732D01*
X184955568Y-100327836D01*
X184905989Y-100309504D01*
X184853136Y-100275963D01*
X184764761Y-100244494D01*
X184690586Y-100218081D01*
X184690581Y-100218080D01*
X184683951Y-100215719D01*
X184676965Y-100214886D01*
X184676961Y-100214885D01*
X184549177Y-100199648D01*
X184505624Y-100194455D01*
X184498621Y-100195191D01*
X184498620Y-100195191D01*
X184334025Y-100212490D01*
X184334021Y-100212491D01*
X184327017Y-100213227D01*
X184320346Y-100215498D01*
X184163677Y-100268832D01*
X184163674Y-100268833D01*
X184157007Y-100271103D01*
X184151009Y-100274793D01*
X184151007Y-100274794D01*
X184118124Y-100295024D01*
X184004045Y-100365206D01*
X183999014Y-100370132D01*
X183999011Y-100370135D01*
X183948718Y-100419386D01*
X183875732Y-100490859D01*
X183871913Y-100496784D01*
X183871912Y-100496786D01*
X183846830Y-100535706D01*
X183778446Y-100641817D01*
X183776037Y-100648437D01*
X183776035Y-100648440D01*
X183761225Y-100689130D01*
X183717022Y-100810578D01*
X183694514Y-100988753D01*
X183032900Y-100988753D01*
X183032900Y-95500000D01*
X184144341Y-95500000D01*
X184164937Y-95735408D01*
X184166361Y-95740722D01*
X184166361Y-95740723D01*
X184211746Y-95910102D01*
X184226097Y-95963663D01*
X184228419Y-95968643D01*
X184228420Y-95968645D01*
X184313693Y-96151511D01*
X184325965Y-96177829D01*
X184461505Y-96371401D01*
X184628599Y-96538495D01*
X184822171Y-96674035D01*
X184827149Y-96676356D01*
X184827152Y-96676358D01*
X185031089Y-96771456D01*
X185036337Y-96773903D01*
X185041645Y-96775325D01*
X185041647Y-96775326D01*
X185218616Y-96822744D01*
X185264592Y-96835063D01*
X185367682Y-96844082D01*
X185438310Y-96850262D01*
X185438317Y-96850262D01*
X185441034Y-96850500D01*
X185558966Y-96850500D01*
X185561683Y-96850262D01*
X185561690Y-96850262D01*
X185632318Y-96844082D01*
X185735408Y-96835063D01*
X185781384Y-96822744D01*
X185958353Y-96775326D01*
X185958355Y-96775325D01*
X185963663Y-96773903D01*
X185968911Y-96771456D01*
X186172848Y-96676358D01*
X186172851Y-96676356D01*
X186177829Y-96674035D01*
X186371401Y-96538495D01*
X186538495Y-96371401D01*
X186541655Y-96366889D01*
X186670878Y-96182339D01*
X186670881Y-96182334D01*
X186674035Y-96177830D01*
X186676358Y-96172848D01*
X186676361Y-96172843D01*
X186771580Y-95968645D01*
X186771581Y-95968644D01*
X186773903Y-95963663D01*
X186788255Y-95910102D01*
X186833639Y-95740723D01*
X186833639Y-95740722D01*
X186835063Y-95735408D01*
X186855659Y-95500000D01*
X186835063Y-95264592D01*
X186814100Y-95186355D01*
X186775326Y-95041647D01*
X186775325Y-95041645D01*
X186773903Y-95036337D01*
X186760757Y-95008145D01*
X186676358Y-94827152D01*
X186676356Y-94827149D01*
X186674035Y-94822171D01*
X186538495Y-94628599D01*
X186371401Y-94461505D01*
X186177829Y-94325965D01*
X186172851Y-94323644D01*
X186172848Y-94323642D01*
X185968645Y-94228420D01*
X185968643Y-94228419D01*
X185963663Y-94226097D01*
X185958355Y-94224675D01*
X185958353Y-94224674D01*
X185740723Y-94166361D01*
X185740722Y-94166361D01*
X185735408Y-94164937D01*
X185632318Y-94155918D01*
X185561690Y-94149738D01*
X185561683Y-94149738D01*
X185558966Y-94149500D01*
X185441034Y-94149500D01*
X185438317Y-94149738D01*
X185438310Y-94149738D01*
X185367682Y-94155918D01*
X185264592Y-94164937D01*
X185259278Y-94166361D01*
X185259277Y-94166361D01*
X185041647Y-94224674D01*
X185041645Y-94224675D01*
X185036337Y-94226097D01*
X185031357Y-94228419D01*
X185031355Y-94228420D01*
X184827152Y-94323642D01*
X184827149Y-94323644D01*
X184822171Y-94325965D01*
X184628599Y-94461505D01*
X184461505Y-94628599D01*
X184458348Y-94633107D01*
X184458346Y-94633110D01*
X184336019Y-94807811D01*
X184325965Y-94822170D01*
X184323642Y-94827152D01*
X184323639Y-94827157D01*
X184264065Y-94954915D01*
X184226097Y-95036337D01*
X184224675Y-95041645D01*
X184224674Y-95041647D01*
X184185900Y-95186355D01*
X184164937Y-95264592D01*
X184144341Y-95500000D01*
X183032900Y-95500000D01*
X183032900Y-88936720D01*
X183034001Y-88928356D01*
X183034001Y-88916022D01*
X183038294Y-88900000D01*
X183034001Y-88883978D01*
X183034001Y-88877536D01*
X183034121Y-88872040D01*
X183037022Y-88805592D01*
X184955898Y-88805592D01*
X184955993Y-88809222D01*
X184955993Y-88809223D01*
X184956704Y-88836388D01*
X184964956Y-89151501D01*
X185013712Y-89494076D01*
X185101519Y-89828777D01*
X185227214Y-90151167D01*
X185228911Y-90154372D01*
X185339089Y-90362462D01*
X185389130Y-90456974D01*
X185391180Y-90459957D01*
X185391182Y-90459960D01*
X185548583Y-90688979D01*
X185585122Y-90742144D01*
X185812592Y-91002898D01*
X186068524Y-91235778D01*
X186071472Y-91237896D01*
X186071474Y-91237898D01*
X186162744Y-91303482D01*
X186349527Y-91437699D01*
X186651876Y-91605985D01*
X186971563Y-91738403D01*
X186975057Y-91739398D01*
X186975059Y-91739399D01*
X187300851Y-91832204D01*
X187300856Y-91832205D01*
X187304352Y-91833201D01*
X187540034Y-91871795D01*
X187642251Y-91888534D01*
X187642255Y-91888534D01*
X187645831Y-91889120D01*
X187649457Y-91889291D01*
X187987847Y-91905249D01*
X187987848Y-91905249D01*
X187991474Y-91905420D01*
X188034204Y-91902507D01*
X188333069Y-91882133D01*
X188333077Y-91882132D01*
X188336700Y-91881885D01*
X188340276Y-91881222D01*
X188340278Y-91881222D01*
X188673368Y-91819488D01*
X188673372Y-91819487D01*
X188676933Y-91818827D01*
X189007663Y-91717081D01*
X189270512Y-91601698D01*
X189321172Y-91579460D01*
X189324507Y-91577996D01*
X189603517Y-91414956D01*
X189620125Y-91405251D01*
X189620127Y-91405250D01*
X189623265Y-91403416D01*
X189633947Y-91395396D01*
X189897071Y-91197837D01*
X189897075Y-91197834D01*
X189899978Y-91195654D01*
X190150977Y-90957465D01*
X190372936Y-90692005D01*
X190401046Y-90649212D01*
X190560926Y-90405818D01*
X190560931Y-90405809D01*
X190562913Y-90402792D01*
X190687856Y-90154372D01*
X190716763Y-90096898D01*
X190716766Y-90096890D01*
X190718390Y-90093662D01*
X190736870Y-90043162D01*
X190836057Y-89772122D01*
X190836060Y-89772112D01*
X190837305Y-89768710D01*
X190838150Y-89765188D01*
X190838153Y-89765180D01*
X190917237Y-89435772D01*
X190917238Y-89435768D01*
X190918084Y-89432243D01*
X190924416Y-89379919D01*
X190959318Y-89091501D01*
X190959318Y-89091495D01*
X190959654Y-89088722D01*
X190965585Y-88900000D01*
X190961389Y-88827229D01*
X190945875Y-88558167D01*
X190945874Y-88558162D01*
X190945666Y-88554547D01*
X190941200Y-88528958D01*
X190886798Y-88217245D01*
X190886796Y-88217238D01*
X190886174Y-88213672D01*
X190878827Y-88188867D01*
X190836039Y-88044418D01*
X190787897Y-87881894D01*
X190786473Y-87878555D01*
X190653562Y-87566949D01*
X190653560Y-87566946D01*
X190652138Y-87563611D01*
X190624720Y-87515541D01*
X190482487Y-87266181D01*
X190480696Y-87263041D01*
X190477552Y-87258760D01*
X190277986Y-86987086D01*
X190275843Y-86984168D01*
X190040295Y-86730688D01*
X189777174Y-86505962D01*
X189489967Y-86312967D01*
X189182482Y-86154261D01*
X188858793Y-86031950D01*
X188523190Y-85947652D01*
X188378981Y-85928667D01*
X188183728Y-85902961D01*
X188183720Y-85902960D01*
X188180124Y-85902487D01*
X188028991Y-85900112D01*
X187837780Y-85897108D01*
X187837776Y-85897108D01*
X187834139Y-85897051D01*
X187830524Y-85897412D01*
X187830520Y-85897412D01*
X187662646Y-85914169D01*
X187489823Y-85931419D01*
X187486286Y-85932190D01*
X187486281Y-85932191D01*
X187155283Y-86004360D01*
X187155278Y-86004361D01*
X187151739Y-86005133D01*
X186824367Y-86117217D01*
X186512048Y-86266186D01*
X186218921Y-86450064D01*
X186216087Y-86452334D01*
X186216082Y-86452338D01*
X186047066Y-86587746D01*
X185948871Y-86666415D01*
X185705477Y-86912371D01*
X185491966Y-87184672D01*
X185311168Y-87479709D01*
X185309641Y-87482999D01*
X185309636Y-87483008D01*
X185232659Y-87648842D01*
X185165478Y-87793570D01*
X185164338Y-87797017D01*
X185061252Y-88108721D01*
X185056828Y-88122097D01*
X185056092Y-88125652D01*
X185056091Y-88125655D01*
X185033427Y-88235096D01*
X184986658Y-88460935D01*
X184970694Y-88639807D01*
X184957688Y-88785541D01*
X184955898Y-88805592D01*
X183037022Y-88805592D01*
X183051409Y-88476071D01*
X183052367Y-88465121D01*
X183052918Y-88460935D01*
X183107037Y-88049861D01*
X183108945Y-88039044D01*
X183115164Y-88010995D01*
X183199596Y-87630144D01*
X183202441Y-87619527D01*
X183231379Y-87527746D01*
X183328387Y-87220076D01*
X183332143Y-87209755D01*
X183336421Y-87199427D01*
X183492432Y-86822785D01*
X183497074Y-86812832D01*
X183505748Y-86796171D01*
X183690465Y-86441332D01*
X183695960Y-86431813D01*
X183920997Y-86078577D01*
X183927301Y-86069573D01*
X184182277Y-85737280D01*
X184189343Y-85728860D01*
X184406496Y-85491879D01*
X184472301Y-85420066D01*
X184480070Y-85412297D01*
X184507517Y-85387147D01*
X184788863Y-85129341D01*
X184797280Y-85122277D01*
X185129573Y-84867301D01*
X185138577Y-84860997D01*
X185491813Y-84635960D01*
X185501333Y-84630464D01*
X185722281Y-84515446D01*
X185872841Y-84437070D01*
X185882785Y-84432432D01*
X186269763Y-84272140D01*
X186280076Y-84268387D01*
X186679528Y-84142441D01*
X186690145Y-84139596D01*
X187099053Y-84048943D01*
X187109861Y-84047037D01*
X187525122Y-83992367D01*
X187536070Y-83991409D01*
X187932039Y-83974121D01*
X187937536Y-83974001D01*
X187943978Y-83974001D01*
X187960000Y-83978294D01*
X187976022Y-83974001D01*
X187988356Y-83974001D01*
X187996720Y-83972900D01*
X226023280Y-83972900D01*
X226031644Y-83974001D01*
G37*
G04 #@! TD.AperFunction*
G04 #@! TA.AperFunction,Conductor*
G36*
X201139350Y-105298302D02*
G01*
X201159713Y-105317029D01*
X201160852Y-105315891D01*
X201166690Y-105321729D01*
X201171718Y-105328282D01*
X201178268Y-105333308D01*
X201178269Y-105333309D01*
X201226306Y-105370169D01*
X201297159Y-105424536D01*
X201443238Y-105485044D01*
X201451426Y-105486122D01*
X201470378Y-105488617D01*
X201600000Y-105505682D01*
X201608188Y-105504604D01*
X201756762Y-105485044D01*
X201757046Y-105487200D01*
X201816544Y-105488617D01*
X201875340Y-105528411D01*
X201903288Y-105593675D01*
X201891515Y-105663688D01*
X201867274Y-105697729D01*
X200952408Y-106612595D01*
X200890096Y-106646621D01*
X200863313Y-106649500D01*
X198070397Y-106649500D01*
X198046625Y-106646970D01*
X198044843Y-106646886D01*
X198034666Y-106644695D01*
X198004191Y-106648302D01*
X198001445Y-106648627D01*
X197995544Y-106648975D01*
X197995552Y-106649072D01*
X197990372Y-106649500D01*
X197985173Y-106649500D01*
X197980049Y-106650353D01*
X197980036Y-106650354D01*
X197966207Y-106652656D01*
X197960332Y-106653493D01*
X197943416Y-106655495D01*
X197909598Y-106659498D01*
X197901371Y-106663448D01*
X197892368Y-106664947D01*
X197883202Y-106669893D01*
X197883201Y-106669893D01*
X197847397Y-106689211D01*
X197842113Y-106691904D01*
X197796067Y-106714015D01*
X197791809Y-106717594D01*
X197789870Y-106719533D01*
X197787967Y-106721279D01*
X197787858Y-106721338D01*
X197787750Y-106721220D01*
X197787237Y-106721672D01*
X197781531Y-106724751D01*
X197774463Y-106732397D01*
X197774462Y-106732398D01*
X197745040Y-106764227D01*
X197741610Y-106767793D01*
X195970541Y-108538862D01*
X195951945Y-108553882D01*
X195950630Y-108555079D01*
X195941879Y-108560729D01*
X195935432Y-108568907D01*
X195921167Y-108587002D01*
X195917240Y-108591421D01*
X195917315Y-108591484D01*
X195913961Y-108595442D01*
X195910279Y-108599124D01*
X195899093Y-108614778D01*
X195895542Y-108619507D01*
X195863909Y-108659633D01*
X195860885Y-108668244D01*
X195855579Y-108675669D01*
X195852596Y-108685645D01*
X195852594Y-108685648D01*
X195840947Y-108724595D01*
X195839112Y-108730243D01*
X195824807Y-108770977D01*
X195824806Y-108770983D01*
X195822180Y-108778460D01*
X195821700Y-108784002D01*
X195821700Y-108786720D01*
X195821587Y-108789329D01*
X195821553Y-108789443D01*
X195821394Y-108789436D01*
X195821351Y-108790117D01*
X195819493Y-108796331D01*
X195819902Y-108806737D01*
X195821603Y-108850027D01*
X195821700Y-108854974D01*
X195821700Y-110671229D01*
X195801698Y-110739350D01*
X195782971Y-110759713D01*
X195784109Y-110760852D01*
X195778271Y-110766690D01*
X195771718Y-110771718D01*
X195766692Y-110778268D01*
X195766691Y-110778269D01*
X195743877Y-110808001D01*
X195675464Y-110897159D01*
X195614956Y-111043238D01*
X195594318Y-111200000D01*
X195614956Y-111356762D01*
X195675464Y-111502841D01*
X195680492Y-111509394D01*
X195680494Y-111509397D01*
X195764592Y-111618996D01*
X195790193Y-111685216D01*
X195775928Y-111754765D01*
X195726327Y-111805561D01*
X195664630Y-111821700D01*
X193292465Y-111821700D01*
X193224344Y-111801698D01*
X193177851Y-111748042D01*
X193167747Y-111677768D01*
X193197241Y-111613188D01*
X193208922Y-111602653D01*
X193221424Y-111587012D01*
X193214356Y-111573566D01*
X192229885Y-110589095D01*
X192195859Y-110526783D01*
X192200924Y-110455968D01*
X192229885Y-110410905D01*
X192410905Y-110229885D01*
X192473217Y-110195859D01*
X192544032Y-110200924D01*
X192589095Y-110229885D01*
X193574287Y-111215077D01*
X193586062Y-111221507D01*
X193598077Y-111212211D01*
X193633931Y-111161006D01*
X193639414Y-111151511D01*
X193731490Y-110954053D01*
X193735236Y-110943761D01*
X193791625Y-110733312D01*
X193793528Y-110722519D01*
X193812517Y-110505475D01*
X193812517Y-110494525D01*
X193793528Y-110277481D01*
X193791625Y-110266688D01*
X193735236Y-110056239D01*
X193731490Y-110045947D01*
X193639414Y-109848489D01*
X193633931Y-109838993D01*
X193576964Y-109757636D01*
X193554276Y-109690362D01*
X193571561Y-109621501D01*
X193623331Y-109572917D01*
X193665368Y-109560238D01*
X193692955Y-109556973D01*
X193698856Y-109556625D01*
X193698848Y-109556528D01*
X193704026Y-109556100D01*
X193709227Y-109556100D01*
X193728189Y-109552944D01*
X193734066Y-109552107D01*
X193784802Y-109546102D01*
X193793029Y-109542152D01*
X193802032Y-109540653D01*
X193846989Y-109516396D01*
X193852278Y-109513701D01*
X193865306Y-109507445D01*
X193898332Y-109491586D01*
X193902591Y-109488006D01*
X193904523Y-109486074D01*
X193906433Y-109484321D01*
X193906529Y-109484270D01*
X193906639Y-109484389D01*
X193907161Y-109483929D01*
X193912869Y-109480849D01*
X193929319Y-109463054D01*
X193949360Y-109441373D01*
X193952790Y-109437807D01*
X198075392Y-105315205D01*
X198137704Y-105281179D01*
X198164487Y-105278300D01*
X201071229Y-105278300D01*
X201139350Y-105298302D01*
G37*
G04 #@! TD.AperFunction*
G04 #@! TA.AperFunction,Conductor*
G36*
X197685032Y-107998531D02*
G01*
X197741868Y-108041078D01*
X197758779Y-108086417D01*
X197761896Y-108085502D01*
X197771475Y-108118124D01*
X197772865Y-108119329D01*
X197780548Y-108121000D01*
X199253000Y-108121000D01*
X199321121Y-108141002D01*
X199367614Y-108194658D01*
X199379000Y-108247000D01*
X199379000Y-108503000D01*
X199358998Y-108571121D01*
X199305342Y-108617614D01*
X199253000Y-108629000D01*
X197785116Y-108629000D01*
X197769877Y-108633475D01*
X197768672Y-108634865D01*
X197767001Y-108642548D01*
X197767001Y-109269669D01*
X197767371Y-109276490D01*
X197772895Y-109327352D01*
X197776521Y-109342604D01*
X197821676Y-109463054D01*
X197830214Y-109478649D01*
X197906715Y-109580724D01*
X197919276Y-109593285D01*
X198021351Y-109669786D01*
X198036946Y-109678324D01*
X198157394Y-109723478D01*
X198172649Y-109727105D01*
X198223514Y-109732631D01*
X198230328Y-109733000D01*
X198605432Y-109733000D01*
X198673553Y-109753002D01*
X198720046Y-109806658D01*
X198730150Y-109876932D01*
X198700656Y-109941512D01*
X198663812Y-109970659D01*
X198547002Y-110031726D01*
X198542201Y-110035586D01*
X198542198Y-110035588D01*
X198403174Y-110147366D01*
X198386447Y-110160815D01*
X198254024Y-110318630D01*
X198251056Y-110324028D01*
X198251053Y-110324033D01*
X198164829Y-110480875D01*
X198154776Y-110499162D01*
X198092484Y-110695532D01*
X198091798Y-110701649D01*
X198091797Y-110701653D01*
X198078759Y-110817896D01*
X198069520Y-110900262D01*
X198070036Y-110906406D01*
X198080886Y-111035609D01*
X198086759Y-111105553D01*
X198088458Y-111111478D01*
X198135862Y-111276794D01*
X198143544Y-111303586D01*
X198146359Y-111309063D01*
X198146360Y-111309066D01*
X198205674Y-111424479D01*
X198237712Y-111486818D01*
X198241535Y-111491642D01*
X198241538Y-111491646D01*
X198271829Y-111529863D01*
X198338419Y-111613878D01*
X198341238Y-111617435D01*
X198367876Y-111683245D01*
X198354705Y-111753010D01*
X198305908Y-111804578D01*
X198242493Y-111821700D01*
X196735370Y-111821700D01*
X196667249Y-111801698D01*
X196620756Y-111748042D01*
X196610652Y-111677768D01*
X196635408Y-111618996D01*
X196719506Y-111509397D01*
X196719508Y-111509394D01*
X196724536Y-111502841D01*
X196785044Y-111356762D01*
X196805682Y-111200000D01*
X196785044Y-111043238D01*
X196724536Y-110897159D01*
X196656123Y-110808001D01*
X196633309Y-110778269D01*
X196633308Y-110778268D01*
X196628282Y-110771718D01*
X196621729Y-110766690D01*
X196615891Y-110760852D01*
X196618288Y-110758455D01*
X196585714Y-110713812D01*
X196578300Y-110671229D01*
X196578300Y-109053287D01*
X196598302Y-108985166D01*
X196615205Y-108964192D01*
X197551905Y-108027492D01*
X197614217Y-107993466D01*
X197685032Y-107998531D01*
G37*
G04 #@! TD.AperFunction*
M02*
