%TF.GenerationSoftware,KiCad,Pcbnew,7.0.9*%
%TF.CreationDate,2024-03-26T01:12:18-04:00*%
%TF.ProjectId,charging_on_the_pad,63686172-6769-46e6-975f-6f6e5f746865,rev?*%
%TF.SameCoordinates,Original*%
%TF.FileFunction,Legend,Top*%
%TF.FilePolarity,Positive*%
%FSLAX46Y46*%
G04 Gerber Fmt 4.6, Leading zero omitted, Abs format (unit mm)*
G04 Created by KiCad (PCBNEW 7.0.9) date 2024-03-26 01:12:18*
%MOMM*%
%LPD*%
G01*
G04 APERTURE LIST*
%ADD10C,0.254000*%
%ADD11C,0.300000*%
%ADD12C,0.100000*%
%ADD13C,0.150000*%
%ADD14C,0.120000*%
%ADD15C,0.127000*%
%ADD16C,0.200000*%
%ADD17C,0.260000*%
%ADD18C,0.250000*%
G04 APERTURE END LIST*
D10*
X131041209Y-107501605D02*
X131815305Y-107501605D01*
X131428257Y-107888652D02*
X131428257Y-107114557D01*
D11*
X165451571Y-76525910D02*
X166951571Y-76525910D01*
X166951571Y-76525910D02*
X165880142Y-77025910D01*
X165880142Y-77025910D02*
X166951571Y-77525910D01*
X166951571Y-77525910D02*
X165451571Y-77525910D01*
X165594428Y-79097339D02*
X165523000Y-79025911D01*
X165523000Y-79025911D02*
X165451571Y-78811625D01*
X165451571Y-78811625D02*
X165451571Y-78668768D01*
X165451571Y-78668768D02*
X165523000Y-78454482D01*
X165523000Y-78454482D02*
X165665857Y-78311625D01*
X165665857Y-78311625D02*
X165808714Y-78240196D01*
X165808714Y-78240196D02*
X166094428Y-78168768D01*
X166094428Y-78168768D02*
X166308714Y-78168768D01*
X166308714Y-78168768D02*
X166594428Y-78240196D01*
X166594428Y-78240196D02*
X166737285Y-78311625D01*
X166737285Y-78311625D02*
X166880142Y-78454482D01*
X166880142Y-78454482D02*
X166951571Y-78668768D01*
X166951571Y-78668768D02*
X166951571Y-78811625D01*
X166951571Y-78811625D02*
X166880142Y-79025911D01*
X166880142Y-79025911D02*
X166808714Y-79097339D01*
X165451571Y-80454482D02*
X165451571Y-79740196D01*
X165451571Y-79740196D02*
X166951571Y-79740196D01*
X165451571Y-81811625D02*
X166165857Y-81311625D01*
X165451571Y-80954482D02*
X166951571Y-80954482D01*
X166951571Y-80954482D02*
X166951571Y-81525911D01*
X166951571Y-81525911D02*
X166880142Y-81668768D01*
X166880142Y-81668768D02*
X166808714Y-81740197D01*
X166808714Y-81740197D02*
X166665857Y-81811625D01*
X166665857Y-81811625D02*
X166451571Y-81811625D01*
X166451571Y-81811625D02*
X166308714Y-81740197D01*
X166308714Y-81740197D02*
X166237285Y-81668768D01*
X166237285Y-81668768D02*
X166165857Y-81525911D01*
X166165857Y-81525911D02*
X166165857Y-80954482D01*
X167368000Y-76318768D02*
X167368000Y-81947340D01*
D12*
X132102266Y-90482420D02*
X132102266Y-91208135D01*
X132102266Y-91208135D02*
X132054647Y-91353278D01*
X132054647Y-91353278D02*
X131959409Y-91450040D01*
X131959409Y-91450040D02*
X131816552Y-91498420D01*
X131816552Y-91498420D02*
X131721314Y-91498420D01*
X133102266Y-91498420D02*
X132530838Y-91498420D01*
X132816552Y-91498420D02*
X132816552Y-90482420D01*
X132816552Y-90482420D02*
X132721314Y-90627563D01*
X132721314Y-90627563D02*
X132626076Y-90724325D01*
X132626076Y-90724325D02*
X132530838Y-90772706D01*
D13*
X140231905Y-86974620D02*
X140231905Y-85958620D01*
X140231905Y-85958620D02*
X140470000Y-85958620D01*
X140470000Y-85958620D02*
X140612857Y-86007001D01*
X140612857Y-86007001D02*
X140708095Y-86103763D01*
X140708095Y-86103763D02*
X140755714Y-86200525D01*
X140755714Y-86200525D02*
X140803333Y-86394049D01*
X140803333Y-86394049D02*
X140803333Y-86539192D01*
X140803333Y-86539192D02*
X140755714Y-86732716D01*
X140755714Y-86732716D02*
X140708095Y-86829478D01*
X140708095Y-86829478D02*
X140612857Y-86926240D01*
X140612857Y-86926240D02*
X140470000Y-86974620D01*
X140470000Y-86974620D02*
X140231905Y-86974620D01*
X141755714Y-86974620D02*
X141184286Y-86974620D01*
X141470000Y-86974620D02*
X141470000Y-85958620D01*
X141470000Y-85958620D02*
X141374762Y-86103763D01*
X141374762Y-86103763D02*
X141279524Y-86200525D01*
X141279524Y-86200525D02*
X141184286Y-86248906D01*
X140257305Y-83393220D02*
X140257305Y-82377220D01*
X140257305Y-82377220D02*
X140495400Y-82377220D01*
X140495400Y-82377220D02*
X140638257Y-82425601D01*
X140638257Y-82425601D02*
X140733495Y-82522363D01*
X140733495Y-82522363D02*
X140781114Y-82619125D01*
X140781114Y-82619125D02*
X140828733Y-82812649D01*
X140828733Y-82812649D02*
X140828733Y-82957792D01*
X140828733Y-82957792D02*
X140781114Y-83151316D01*
X140781114Y-83151316D02*
X140733495Y-83248078D01*
X140733495Y-83248078D02*
X140638257Y-83344840D01*
X140638257Y-83344840D02*
X140495400Y-83393220D01*
X140495400Y-83393220D02*
X140257305Y-83393220D01*
X141209686Y-82473982D02*
X141257305Y-82425601D01*
X141257305Y-82425601D02*
X141352543Y-82377220D01*
X141352543Y-82377220D02*
X141590638Y-82377220D01*
X141590638Y-82377220D02*
X141685876Y-82425601D01*
X141685876Y-82425601D02*
X141733495Y-82473982D01*
X141733495Y-82473982D02*
X141781114Y-82570744D01*
X141781114Y-82570744D02*
X141781114Y-82667506D01*
X141781114Y-82667506D02*
X141733495Y-82812649D01*
X141733495Y-82812649D02*
X141162067Y-83393220D01*
X141162067Y-83393220D02*
X141781114Y-83393220D01*
X149826742Y-116316459D02*
X149779123Y-116364840D01*
X149779123Y-116364840D02*
X149636266Y-116413220D01*
X149636266Y-116413220D02*
X149541028Y-116413220D01*
X149541028Y-116413220D02*
X149398171Y-116364840D01*
X149398171Y-116364840D02*
X149302933Y-116268078D01*
X149302933Y-116268078D02*
X149255314Y-116171316D01*
X149255314Y-116171316D02*
X149207695Y-115977792D01*
X149207695Y-115977792D02*
X149207695Y-115832649D01*
X149207695Y-115832649D02*
X149255314Y-115639125D01*
X149255314Y-115639125D02*
X149302933Y-115542363D01*
X149302933Y-115542363D02*
X149398171Y-115445601D01*
X149398171Y-115445601D02*
X149541028Y-115397220D01*
X149541028Y-115397220D02*
X149636266Y-115397220D01*
X149636266Y-115397220D02*
X149779123Y-115445601D01*
X149779123Y-115445601D02*
X149826742Y-115493982D01*
X150779123Y-116413220D02*
X150207695Y-116413220D01*
X150493409Y-116413220D02*
X150493409Y-115397220D01*
X150493409Y-115397220D02*
X150398171Y-115542363D01*
X150398171Y-115542363D02*
X150302933Y-115639125D01*
X150302933Y-115639125D02*
X150207695Y-115687506D01*
X151112457Y-115397220D02*
X151779123Y-115397220D01*
X151779123Y-115397220D02*
X151350552Y-116413220D01*
X137563266Y-126785019D02*
X137563266Y-127499304D01*
X137563266Y-127499304D02*
X137515647Y-127642161D01*
X137515647Y-127642161D02*
X137420409Y-127737400D01*
X137420409Y-127737400D02*
X137277552Y-127785019D01*
X137277552Y-127785019D02*
X137182314Y-127785019D01*
X137944219Y-126785019D02*
X138563266Y-126785019D01*
X138563266Y-126785019D02*
X138229933Y-127165971D01*
X138229933Y-127165971D02*
X138372790Y-127165971D01*
X138372790Y-127165971D02*
X138468028Y-127213590D01*
X138468028Y-127213590D02*
X138515647Y-127261209D01*
X138515647Y-127261209D02*
X138563266Y-127356447D01*
X138563266Y-127356447D02*
X138563266Y-127594542D01*
X138563266Y-127594542D02*
X138515647Y-127689780D01*
X138515647Y-127689780D02*
X138468028Y-127737400D01*
X138468028Y-127737400D02*
X138372790Y-127785019D01*
X138372790Y-127785019D02*
X138087076Y-127785019D01*
X138087076Y-127785019D02*
X137991838Y-127737400D01*
X137991838Y-127737400D02*
X137944219Y-127689780D01*
X150734733Y-79456220D02*
X150401400Y-78972411D01*
X150163305Y-79456220D02*
X150163305Y-78440220D01*
X150163305Y-78440220D02*
X150544257Y-78440220D01*
X150544257Y-78440220D02*
X150639495Y-78488601D01*
X150639495Y-78488601D02*
X150687114Y-78536982D01*
X150687114Y-78536982D02*
X150734733Y-78633744D01*
X150734733Y-78633744D02*
X150734733Y-78778887D01*
X150734733Y-78778887D02*
X150687114Y-78875649D01*
X150687114Y-78875649D02*
X150639495Y-78924030D01*
X150639495Y-78924030D02*
X150544257Y-78972411D01*
X150544257Y-78972411D02*
X150163305Y-78972411D01*
X151306162Y-78875649D02*
X151210924Y-78827268D01*
X151210924Y-78827268D02*
X151163305Y-78778887D01*
X151163305Y-78778887D02*
X151115686Y-78682125D01*
X151115686Y-78682125D02*
X151115686Y-78633744D01*
X151115686Y-78633744D02*
X151163305Y-78536982D01*
X151163305Y-78536982D02*
X151210924Y-78488601D01*
X151210924Y-78488601D02*
X151306162Y-78440220D01*
X151306162Y-78440220D02*
X151496638Y-78440220D01*
X151496638Y-78440220D02*
X151591876Y-78488601D01*
X151591876Y-78488601D02*
X151639495Y-78536982D01*
X151639495Y-78536982D02*
X151687114Y-78633744D01*
X151687114Y-78633744D02*
X151687114Y-78682125D01*
X151687114Y-78682125D02*
X151639495Y-78778887D01*
X151639495Y-78778887D02*
X151591876Y-78827268D01*
X151591876Y-78827268D02*
X151496638Y-78875649D01*
X151496638Y-78875649D02*
X151306162Y-78875649D01*
X151306162Y-78875649D02*
X151210924Y-78924030D01*
X151210924Y-78924030D02*
X151163305Y-78972411D01*
X151163305Y-78972411D02*
X151115686Y-79069173D01*
X151115686Y-79069173D02*
X151115686Y-79262697D01*
X151115686Y-79262697D02*
X151163305Y-79359459D01*
X151163305Y-79359459D02*
X151210924Y-79407840D01*
X151210924Y-79407840D02*
X151306162Y-79456220D01*
X151306162Y-79456220D02*
X151496638Y-79456220D01*
X151496638Y-79456220D02*
X151591876Y-79407840D01*
X151591876Y-79407840D02*
X151639495Y-79359459D01*
X151639495Y-79359459D02*
X151687114Y-79262697D01*
X151687114Y-79262697D02*
X151687114Y-79069173D01*
X151687114Y-79069173D02*
X151639495Y-78972411D01*
X151639495Y-78972411D02*
X151591876Y-78924030D01*
X151591876Y-78924030D02*
X151496638Y-78875649D01*
X154170142Y-118437459D02*
X154122523Y-118485840D01*
X154122523Y-118485840D02*
X153979666Y-118534220D01*
X153979666Y-118534220D02*
X153884428Y-118534220D01*
X153884428Y-118534220D02*
X153741571Y-118485840D01*
X153741571Y-118485840D02*
X153646333Y-118389078D01*
X153646333Y-118389078D02*
X153598714Y-118292316D01*
X153598714Y-118292316D02*
X153551095Y-118098792D01*
X153551095Y-118098792D02*
X153551095Y-117953649D01*
X153551095Y-117953649D02*
X153598714Y-117760125D01*
X153598714Y-117760125D02*
X153646333Y-117663363D01*
X153646333Y-117663363D02*
X153741571Y-117566601D01*
X153741571Y-117566601D02*
X153884428Y-117518220D01*
X153884428Y-117518220D02*
X153979666Y-117518220D01*
X153979666Y-117518220D02*
X154122523Y-117566601D01*
X154122523Y-117566601D02*
X154170142Y-117614982D01*
X154551095Y-117614982D02*
X154598714Y-117566601D01*
X154598714Y-117566601D02*
X154693952Y-117518220D01*
X154693952Y-117518220D02*
X154932047Y-117518220D01*
X154932047Y-117518220D02*
X155027285Y-117566601D01*
X155027285Y-117566601D02*
X155074904Y-117614982D01*
X155074904Y-117614982D02*
X155122523Y-117711744D01*
X155122523Y-117711744D02*
X155122523Y-117808506D01*
X155122523Y-117808506D02*
X155074904Y-117953649D01*
X155074904Y-117953649D02*
X154503476Y-118534220D01*
X154503476Y-118534220D02*
X155122523Y-118534220D01*
X155693952Y-117953649D02*
X155598714Y-117905268D01*
X155598714Y-117905268D02*
X155551095Y-117856887D01*
X155551095Y-117856887D02*
X155503476Y-117760125D01*
X155503476Y-117760125D02*
X155503476Y-117711744D01*
X155503476Y-117711744D02*
X155551095Y-117614982D01*
X155551095Y-117614982D02*
X155598714Y-117566601D01*
X155598714Y-117566601D02*
X155693952Y-117518220D01*
X155693952Y-117518220D02*
X155884428Y-117518220D01*
X155884428Y-117518220D02*
X155979666Y-117566601D01*
X155979666Y-117566601D02*
X156027285Y-117614982D01*
X156027285Y-117614982D02*
X156074904Y-117711744D01*
X156074904Y-117711744D02*
X156074904Y-117760125D01*
X156074904Y-117760125D02*
X156027285Y-117856887D01*
X156027285Y-117856887D02*
X155979666Y-117905268D01*
X155979666Y-117905268D02*
X155884428Y-117953649D01*
X155884428Y-117953649D02*
X155693952Y-117953649D01*
X155693952Y-117953649D02*
X155598714Y-118002030D01*
X155598714Y-118002030D02*
X155551095Y-118050411D01*
X155551095Y-118050411D02*
X155503476Y-118147173D01*
X155503476Y-118147173D02*
X155503476Y-118340697D01*
X155503476Y-118340697D02*
X155551095Y-118437459D01*
X155551095Y-118437459D02*
X155598714Y-118485840D01*
X155598714Y-118485840D02*
X155693952Y-118534220D01*
X155693952Y-118534220D02*
X155884428Y-118534220D01*
X155884428Y-118534220D02*
X155979666Y-118485840D01*
X155979666Y-118485840D02*
X156027285Y-118437459D01*
X156027285Y-118437459D02*
X156074904Y-118340697D01*
X156074904Y-118340697D02*
X156074904Y-118147173D01*
X156074904Y-118147173D02*
X156027285Y-118050411D01*
X156027285Y-118050411D02*
X155979666Y-118002030D01*
X155979666Y-118002030D02*
X155884428Y-117953649D01*
X145756333Y-77535220D02*
X145423000Y-77051411D01*
X145184905Y-77535220D02*
X145184905Y-76519220D01*
X145184905Y-76519220D02*
X145565857Y-76519220D01*
X145565857Y-76519220D02*
X145661095Y-76567601D01*
X145661095Y-76567601D02*
X145708714Y-76615982D01*
X145708714Y-76615982D02*
X145756333Y-76712744D01*
X145756333Y-76712744D02*
X145756333Y-76857887D01*
X145756333Y-76857887D02*
X145708714Y-76954649D01*
X145708714Y-76954649D02*
X145661095Y-77003030D01*
X145661095Y-77003030D02*
X145565857Y-77051411D01*
X145565857Y-77051411D02*
X145184905Y-77051411D01*
X146089667Y-76519220D02*
X146756333Y-76519220D01*
X146756333Y-76519220D02*
X146327762Y-77535220D01*
X153122333Y-114635220D02*
X152789000Y-114151411D01*
X152550905Y-114635220D02*
X152550905Y-113619220D01*
X152550905Y-113619220D02*
X152931857Y-113619220D01*
X152931857Y-113619220D02*
X153027095Y-113667601D01*
X153027095Y-113667601D02*
X153074714Y-113715982D01*
X153074714Y-113715982D02*
X153122333Y-113812744D01*
X153122333Y-113812744D02*
X153122333Y-113957887D01*
X153122333Y-113957887D02*
X153074714Y-114054649D01*
X153074714Y-114054649D02*
X153027095Y-114103030D01*
X153027095Y-114103030D02*
X152931857Y-114151411D01*
X152931857Y-114151411D02*
X152550905Y-114151411D01*
X154074714Y-114635220D02*
X153503286Y-114635220D01*
X153789000Y-114635220D02*
X153789000Y-113619220D01*
X153789000Y-113619220D02*
X153693762Y-113764363D01*
X153693762Y-113764363D02*
X153598524Y-113861125D01*
X153598524Y-113861125D02*
X153503286Y-113909506D01*
X144449895Y-118292820D02*
X144449895Y-119115297D01*
X144449895Y-119115297D02*
X144497514Y-119212059D01*
X144497514Y-119212059D02*
X144545133Y-119260440D01*
X144545133Y-119260440D02*
X144640371Y-119308820D01*
X144640371Y-119308820D02*
X144830847Y-119308820D01*
X144830847Y-119308820D02*
X144926085Y-119260440D01*
X144926085Y-119260440D02*
X144973704Y-119212059D01*
X144973704Y-119212059D02*
X145021323Y-119115297D01*
X145021323Y-119115297D02*
X145021323Y-118292820D01*
X145926085Y-118631487D02*
X145926085Y-119308820D01*
X145687990Y-118244440D02*
X145449895Y-118970154D01*
X145449895Y-118970154D02*
X146068942Y-118970154D01*
X154728942Y-121828259D02*
X154681323Y-121876640D01*
X154681323Y-121876640D02*
X154538466Y-121925020D01*
X154538466Y-121925020D02*
X154443228Y-121925020D01*
X154443228Y-121925020D02*
X154300371Y-121876640D01*
X154300371Y-121876640D02*
X154205133Y-121779878D01*
X154205133Y-121779878D02*
X154157514Y-121683116D01*
X154157514Y-121683116D02*
X154109895Y-121489592D01*
X154109895Y-121489592D02*
X154109895Y-121344449D01*
X154109895Y-121344449D02*
X154157514Y-121150925D01*
X154157514Y-121150925D02*
X154205133Y-121054163D01*
X154205133Y-121054163D02*
X154300371Y-120957401D01*
X154300371Y-120957401D02*
X154443228Y-120909020D01*
X154443228Y-120909020D02*
X154538466Y-120909020D01*
X154538466Y-120909020D02*
X154681323Y-120957401D01*
X154681323Y-120957401D02*
X154728942Y-121005782D01*
X155109895Y-121005782D02*
X155157514Y-120957401D01*
X155157514Y-120957401D02*
X155252752Y-120909020D01*
X155252752Y-120909020D02*
X155490847Y-120909020D01*
X155490847Y-120909020D02*
X155586085Y-120957401D01*
X155586085Y-120957401D02*
X155633704Y-121005782D01*
X155633704Y-121005782D02*
X155681323Y-121102544D01*
X155681323Y-121102544D02*
X155681323Y-121199306D01*
X155681323Y-121199306D02*
X155633704Y-121344449D01*
X155633704Y-121344449D02*
X155062276Y-121925020D01*
X155062276Y-121925020D02*
X155681323Y-121925020D01*
X156538466Y-120909020D02*
X156347990Y-120909020D01*
X156347990Y-120909020D02*
X156252752Y-120957401D01*
X156252752Y-120957401D02*
X156205133Y-121005782D01*
X156205133Y-121005782D02*
X156109895Y-121150925D01*
X156109895Y-121150925D02*
X156062276Y-121344449D01*
X156062276Y-121344449D02*
X156062276Y-121731497D01*
X156062276Y-121731497D02*
X156109895Y-121828259D01*
X156109895Y-121828259D02*
X156157514Y-121876640D01*
X156157514Y-121876640D02*
X156252752Y-121925020D01*
X156252752Y-121925020D02*
X156443228Y-121925020D01*
X156443228Y-121925020D02*
X156538466Y-121876640D01*
X156538466Y-121876640D02*
X156586085Y-121828259D01*
X156586085Y-121828259D02*
X156633704Y-121731497D01*
X156633704Y-121731497D02*
X156633704Y-121489592D01*
X156633704Y-121489592D02*
X156586085Y-121392830D01*
X156586085Y-121392830D02*
X156538466Y-121344449D01*
X156538466Y-121344449D02*
X156443228Y-121296068D01*
X156443228Y-121296068D02*
X156252752Y-121296068D01*
X156252752Y-121296068D02*
X156157514Y-121344449D01*
X156157514Y-121344449D02*
X156109895Y-121392830D01*
X156109895Y-121392830D02*
X156062276Y-121489592D01*
X162240933Y-112222220D02*
X161907600Y-111738411D01*
X161669505Y-112222220D02*
X161669505Y-111206220D01*
X161669505Y-111206220D02*
X162050457Y-111206220D01*
X162050457Y-111206220D02*
X162145695Y-111254601D01*
X162145695Y-111254601D02*
X162193314Y-111302982D01*
X162193314Y-111302982D02*
X162240933Y-111399744D01*
X162240933Y-111399744D02*
X162240933Y-111544887D01*
X162240933Y-111544887D02*
X162193314Y-111641649D01*
X162193314Y-111641649D02*
X162145695Y-111690030D01*
X162145695Y-111690030D02*
X162050457Y-111738411D01*
X162050457Y-111738411D02*
X161669505Y-111738411D01*
X163098076Y-111544887D02*
X163098076Y-112222220D01*
X162859981Y-111157840D02*
X162621886Y-111883554D01*
X162621886Y-111883554D02*
X163240933Y-111883554D01*
X166071561Y-109016982D02*
X165976323Y-108968601D01*
X165976323Y-108968601D02*
X165881085Y-108871840D01*
X165881085Y-108871840D02*
X165738228Y-108726697D01*
X165738228Y-108726697D02*
X165642990Y-108678316D01*
X165642990Y-108678316D02*
X165547752Y-108678316D01*
X165595371Y-108920220D02*
X165500133Y-108871840D01*
X165500133Y-108871840D02*
X165404895Y-108775078D01*
X165404895Y-108775078D02*
X165357276Y-108581554D01*
X165357276Y-108581554D02*
X165357276Y-108242887D01*
X165357276Y-108242887D02*
X165404895Y-108049363D01*
X165404895Y-108049363D02*
X165500133Y-107952601D01*
X165500133Y-107952601D02*
X165595371Y-107904220D01*
X165595371Y-107904220D02*
X165785847Y-107904220D01*
X165785847Y-107904220D02*
X165881085Y-107952601D01*
X165881085Y-107952601D02*
X165976323Y-108049363D01*
X165976323Y-108049363D02*
X166023942Y-108242887D01*
X166023942Y-108242887D02*
X166023942Y-108581554D01*
X166023942Y-108581554D02*
X165976323Y-108775078D01*
X165976323Y-108775078D02*
X165881085Y-108871840D01*
X165881085Y-108871840D02*
X165785847Y-108920220D01*
X165785847Y-108920220D02*
X165595371Y-108920220D01*
X166881085Y-108242887D02*
X166881085Y-108920220D01*
X166642990Y-107855840D02*
X166404895Y-108581554D01*
X166404895Y-108581554D02*
X167023942Y-108581554D01*
X140220805Y-79761020D02*
X140220805Y-78745020D01*
X140220805Y-78745020D02*
X140458900Y-78745020D01*
X140458900Y-78745020D02*
X140601757Y-78793401D01*
X140601757Y-78793401D02*
X140696995Y-78890163D01*
X140696995Y-78890163D02*
X140744614Y-78986925D01*
X140744614Y-78986925D02*
X140792233Y-79180449D01*
X140792233Y-79180449D02*
X140792233Y-79325592D01*
X140792233Y-79325592D02*
X140744614Y-79519116D01*
X140744614Y-79519116D02*
X140696995Y-79615878D01*
X140696995Y-79615878D02*
X140601757Y-79712640D01*
X140601757Y-79712640D02*
X140458900Y-79761020D01*
X140458900Y-79761020D02*
X140220805Y-79761020D01*
X141125567Y-78745020D02*
X141744614Y-78745020D01*
X141744614Y-78745020D02*
X141411281Y-79132068D01*
X141411281Y-79132068D02*
X141554138Y-79132068D01*
X141554138Y-79132068D02*
X141649376Y-79180449D01*
X141649376Y-79180449D02*
X141696995Y-79228830D01*
X141696995Y-79228830D02*
X141744614Y-79325592D01*
X141744614Y-79325592D02*
X141744614Y-79567497D01*
X141744614Y-79567497D02*
X141696995Y-79664259D01*
X141696995Y-79664259D02*
X141649376Y-79712640D01*
X141649376Y-79712640D02*
X141554138Y-79761020D01*
X141554138Y-79761020D02*
X141268424Y-79761020D01*
X141268424Y-79761020D02*
X141173186Y-79712640D01*
X141173186Y-79712640D02*
X141125567Y-79664259D01*
X152690533Y-123372820D02*
X152214343Y-123372820D01*
X152214343Y-123372820D02*
X152214343Y-122356820D01*
X152976248Y-122453582D02*
X153023867Y-122405201D01*
X153023867Y-122405201D02*
X153119105Y-122356820D01*
X153119105Y-122356820D02*
X153357200Y-122356820D01*
X153357200Y-122356820D02*
X153452438Y-122405201D01*
X153452438Y-122405201D02*
X153500057Y-122453582D01*
X153500057Y-122453582D02*
X153547676Y-122550344D01*
X153547676Y-122550344D02*
X153547676Y-122647106D01*
X153547676Y-122647106D02*
X153500057Y-122792249D01*
X153500057Y-122792249D02*
X152928629Y-123372820D01*
X152928629Y-123372820D02*
X153547676Y-123372820D01*
X172142161Y-93243582D02*
X172046923Y-93195201D01*
X172046923Y-93195201D02*
X171951685Y-93098440D01*
X171951685Y-93098440D02*
X171808828Y-92953297D01*
X171808828Y-92953297D02*
X171713590Y-92904916D01*
X171713590Y-92904916D02*
X171618352Y-92904916D01*
X171665971Y-93146820D02*
X171570733Y-93098440D01*
X171570733Y-93098440D02*
X171475495Y-93001678D01*
X171475495Y-93001678D02*
X171427876Y-92808154D01*
X171427876Y-92808154D02*
X171427876Y-92469487D01*
X171427876Y-92469487D02*
X171475495Y-92275963D01*
X171475495Y-92275963D02*
X171570733Y-92179201D01*
X171570733Y-92179201D02*
X171665971Y-92130820D01*
X171665971Y-92130820D02*
X171856447Y-92130820D01*
X171856447Y-92130820D02*
X171951685Y-92179201D01*
X171951685Y-92179201D02*
X172046923Y-92275963D01*
X172046923Y-92275963D02*
X172094542Y-92469487D01*
X172094542Y-92469487D02*
X172094542Y-92808154D01*
X172094542Y-92808154D02*
X172046923Y-93001678D01*
X172046923Y-93001678D02*
X171951685Y-93098440D01*
X171951685Y-93098440D02*
X171856447Y-93146820D01*
X171856447Y-93146820D02*
X171665971Y-93146820D01*
X172951685Y-92130820D02*
X172761209Y-92130820D01*
X172761209Y-92130820D02*
X172665971Y-92179201D01*
X172665971Y-92179201D02*
X172618352Y-92227582D01*
X172618352Y-92227582D02*
X172523114Y-92372725D01*
X172523114Y-92372725D02*
X172475495Y-92566249D01*
X172475495Y-92566249D02*
X172475495Y-92953297D01*
X172475495Y-92953297D02*
X172523114Y-93050059D01*
X172523114Y-93050059D02*
X172570733Y-93098440D01*
X172570733Y-93098440D02*
X172665971Y-93146820D01*
X172665971Y-93146820D02*
X172856447Y-93146820D01*
X172856447Y-93146820D02*
X172951685Y-93098440D01*
X172951685Y-93098440D02*
X172999304Y-93050059D01*
X172999304Y-93050059D02*
X173046923Y-92953297D01*
X173046923Y-92953297D02*
X173046923Y-92711392D01*
X173046923Y-92711392D02*
X172999304Y-92614630D01*
X172999304Y-92614630D02*
X172951685Y-92566249D01*
X172951685Y-92566249D02*
X172856447Y-92517868D01*
X172856447Y-92517868D02*
X172665971Y-92517868D01*
X172665971Y-92517868D02*
X172570733Y-92566249D01*
X172570733Y-92566249D02*
X172523114Y-92614630D01*
X172523114Y-92614630D02*
X172475495Y-92711392D01*
X140594020Y-99091427D02*
X141610020Y-98758094D01*
X141610020Y-98758094D02*
X140594020Y-98424761D01*
X141513259Y-97519999D02*
X141561640Y-97567618D01*
X141561640Y-97567618D02*
X141610020Y-97710475D01*
X141610020Y-97710475D02*
X141610020Y-97805713D01*
X141610020Y-97805713D02*
X141561640Y-97948570D01*
X141561640Y-97948570D02*
X141464878Y-98043808D01*
X141464878Y-98043808D02*
X141368116Y-98091427D01*
X141368116Y-98091427D02*
X141174592Y-98139046D01*
X141174592Y-98139046D02*
X141029449Y-98139046D01*
X141029449Y-98139046D02*
X140835925Y-98091427D01*
X140835925Y-98091427D02*
X140739163Y-98043808D01*
X140739163Y-98043808D02*
X140642401Y-97948570D01*
X140642401Y-97948570D02*
X140594020Y-97805713D01*
X140594020Y-97805713D02*
X140594020Y-97710475D01*
X140594020Y-97710475D02*
X140642401Y-97567618D01*
X140642401Y-97567618D02*
X140690782Y-97519999D01*
X141513259Y-96519999D02*
X141561640Y-96567618D01*
X141561640Y-96567618D02*
X141610020Y-96710475D01*
X141610020Y-96710475D02*
X141610020Y-96805713D01*
X141610020Y-96805713D02*
X141561640Y-96948570D01*
X141561640Y-96948570D02*
X141464878Y-97043808D01*
X141464878Y-97043808D02*
X141368116Y-97091427D01*
X141368116Y-97091427D02*
X141174592Y-97139046D01*
X141174592Y-97139046D02*
X141029449Y-97139046D01*
X141029449Y-97139046D02*
X140835925Y-97091427D01*
X140835925Y-97091427D02*
X140739163Y-97043808D01*
X140739163Y-97043808D02*
X140642401Y-96948570D01*
X140642401Y-96948570D02*
X140594020Y-96805713D01*
X140594020Y-96805713D02*
X140594020Y-96710475D01*
X140594020Y-96710475D02*
X140642401Y-96567618D01*
X140642401Y-96567618D02*
X140690782Y-96519999D01*
X141610020Y-96091427D02*
X140594020Y-96091427D01*
X141610020Y-95615237D02*
X140594020Y-95615237D01*
X140594020Y-95615237D02*
X141610020Y-95043809D01*
X141610020Y-95043809D02*
X140594020Y-95043809D01*
X141610020Y-94043809D02*
X141610020Y-94615237D01*
X141610020Y-94329523D02*
X140594020Y-94329523D01*
X140594020Y-94329523D02*
X140739163Y-94424761D01*
X140739163Y-94424761D02*
X140835925Y-94519999D01*
X140835925Y-94519999D02*
X140884306Y-94615237D01*
X149826742Y-113116059D02*
X149779123Y-113164440D01*
X149779123Y-113164440D02*
X149636266Y-113212820D01*
X149636266Y-113212820D02*
X149541028Y-113212820D01*
X149541028Y-113212820D02*
X149398171Y-113164440D01*
X149398171Y-113164440D02*
X149302933Y-113067678D01*
X149302933Y-113067678D02*
X149255314Y-112970916D01*
X149255314Y-112970916D02*
X149207695Y-112777392D01*
X149207695Y-112777392D02*
X149207695Y-112632249D01*
X149207695Y-112632249D02*
X149255314Y-112438725D01*
X149255314Y-112438725D02*
X149302933Y-112341963D01*
X149302933Y-112341963D02*
X149398171Y-112245201D01*
X149398171Y-112245201D02*
X149541028Y-112196820D01*
X149541028Y-112196820D02*
X149636266Y-112196820D01*
X149636266Y-112196820D02*
X149779123Y-112245201D01*
X149779123Y-112245201D02*
X149826742Y-112293582D01*
X150207695Y-112293582D02*
X150255314Y-112245201D01*
X150255314Y-112245201D02*
X150350552Y-112196820D01*
X150350552Y-112196820D02*
X150588647Y-112196820D01*
X150588647Y-112196820D02*
X150683885Y-112245201D01*
X150683885Y-112245201D02*
X150731504Y-112293582D01*
X150731504Y-112293582D02*
X150779123Y-112390344D01*
X150779123Y-112390344D02*
X150779123Y-112487106D01*
X150779123Y-112487106D02*
X150731504Y-112632249D01*
X150731504Y-112632249D02*
X150160076Y-113212820D01*
X150160076Y-113212820D02*
X150779123Y-113212820D01*
X151731504Y-113212820D02*
X151160076Y-113212820D01*
X151445790Y-113212820D02*
X151445790Y-112196820D01*
X151445790Y-112196820D02*
X151350552Y-112341963D01*
X151350552Y-112341963D02*
X151255314Y-112438725D01*
X151255314Y-112438725D02*
X151160076Y-112487106D01*
X145705533Y-80684820D02*
X145372200Y-80201011D01*
X145134105Y-80684820D02*
X145134105Y-79668820D01*
X145134105Y-79668820D02*
X145515057Y-79668820D01*
X145515057Y-79668820D02*
X145610295Y-79717201D01*
X145610295Y-79717201D02*
X145657914Y-79765582D01*
X145657914Y-79765582D02*
X145705533Y-79862344D01*
X145705533Y-79862344D02*
X145705533Y-80007487D01*
X145705533Y-80007487D02*
X145657914Y-80104249D01*
X145657914Y-80104249D02*
X145610295Y-80152630D01*
X145610295Y-80152630D02*
X145515057Y-80201011D01*
X145515057Y-80201011D02*
X145134105Y-80201011D01*
X146562676Y-79668820D02*
X146372200Y-79668820D01*
X146372200Y-79668820D02*
X146276962Y-79717201D01*
X146276962Y-79717201D02*
X146229343Y-79765582D01*
X146229343Y-79765582D02*
X146134105Y-79910725D01*
X146134105Y-79910725D02*
X146086486Y-80104249D01*
X146086486Y-80104249D02*
X146086486Y-80491297D01*
X146086486Y-80491297D02*
X146134105Y-80588059D01*
X146134105Y-80588059D02*
X146181724Y-80636440D01*
X146181724Y-80636440D02*
X146276962Y-80684820D01*
X146276962Y-80684820D02*
X146467438Y-80684820D01*
X146467438Y-80684820D02*
X146562676Y-80636440D01*
X146562676Y-80636440D02*
X146610295Y-80588059D01*
X146610295Y-80588059D02*
X146657914Y-80491297D01*
X146657914Y-80491297D02*
X146657914Y-80249392D01*
X146657914Y-80249392D02*
X146610295Y-80152630D01*
X146610295Y-80152630D02*
X146562676Y-80104249D01*
X146562676Y-80104249D02*
X146467438Y-80055868D01*
X146467438Y-80055868D02*
X146276962Y-80055868D01*
X146276962Y-80055868D02*
X146181724Y-80104249D01*
X146181724Y-80104249D02*
X146134105Y-80152630D01*
X146134105Y-80152630D02*
X146086486Y-80249392D01*
X145254742Y-127213059D02*
X145207123Y-127261440D01*
X145207123Y-127261440D02*
X145064266Y-127309820D01*
X145064266Y-127309820D02*
X144969028Y-127309820D01*
X144969028Y-127309820D02*
X144826171Y-127261440D01*
X144826171Y-127261440D02*
X144730933Y-127164678D01*
X144730933Y-127164678D02*
X144683314Y-127067916D01*
X144683314Y-127067916D02*
X144635695Y-126874392D01*
X144635695Y-126874392D02*
X144635695Y-126729249D01*
X144635695Y-126729249D02*
X144683314Y-126535725D01*
X144683314Y-126535725D02*
X144730933Y-126438963D01*
X144730933Y-126438963D02*
X144826171Y-126342201D01*
X144826171Y-126342201D02*
X144969028Y-126293820D01*
X144969028Y-126293820D02*
X145064266Y-126293820D01*
X145064266Y-126293820D02*
X145207123Y-126342201D01*
X145207123Y-126342201D02*
X145254742Y-126390582D01*
X145635695Y-126390582D02*
X145683314Y-126342201D01*
X145683314Y-126342201D02*
X145778552Y-126293820D01*
X145778552Y-126293820D02*
X146016647Y-126293820D01*
X146016647Y-126293820D02*
X146111885Y-126342201D01*
X146111885Y-126342201D02*
X146159504Y-126390582D01*
X146159504Y-126390582D02*
X146207123Y-126487344D01*
X146207123Y-126487344D02*
X146207123Y-126584106D01*
X146207123Y-126584106D02*
X146159504Y-126729249D01*
X146159504Y-126729249D02*
X145588076Y-127309820D01*
X145588076Y-127309820D02*
X146207123Y-127309820D01*
X147064266Y-126632487D02*
X147064266Y-127309820D01*
X146826171Y-126245440D02*
X146588076Y-126971154D01*
X146588076Y-126971154D02*
X147207123Y-126971154D01*
X147834409Y-94161611D02*
X147834409Y-94645420D01*
X147501076Y-93629420D02*
X147834409Y-94161611D01*
X147834409Y-94161611D02*
X148167742Y-93629420D01*
X149024885Y-94645420D02*
X148453457Y-94645420D01*
X148739171Y-94645420D02*
X148739171Y-93629420D01*
X148739171Y-93629420D02*
X148643933Y-93774563D01*
X148643933Y-93774563D02*
X148548695Y-93871325D01*
X148548695Y-93871325D02*
X148453457Y-93919706D01*
X170100666Y-108056620D02*
X170100666Y-108782335D01*
X170100666Y-108782335D02*
X170053047Y-108927478D01*
X170053047Y-108927478D02*
X169957809Y-109024240D01*
X169957809Y-109024240D02*
X169814952Y-109072620D01*
X169814952Y-109072620D02*
X169719714Y-109072620D01*
X171005428Y-108395287D02*
X171005428Y-109072620D01*
X170767333Y-108008240D02*
X170529238Y-108733954D01*
X170529238Y-108733954D02*
X171148285Y-108733954D01*
X158458114Y-129468820D02*
X157981924Y-129468820D01*
X157981924Y-129468820D02*
X157934305Y-129952630D01*
X157934305Y-129952630D02*
X157981924Y-129904249D01*
X157981924Y-129904249D02*
X158077162Y-129855868D01*
X158077162Y-129855868D02*
X158315257Y-129855868D01*
X158315257Y-129855868D02*
X158410495Y-129904249D01*
X158410495Y-129904249D02*
X158458114Y-129952630D01*
X158458114Y-129952630D02*
X158505733Y-130049392D01*
X158505733Y-130049392D02*
X158505733Y-130291297D01*
X158505733Y-130291297D02*
X158458114Y-130388059D01*
X158458114Y-130388059D02*
X158410495Y-130436440D01*
X158410495Y-130436440D02*
X158315257Y-130484820D01*
X158315257Y-130484820D02*
X158077162Y-130484820D01*
X158077162Y-130484820D02*
X157981924Y-130436440D01*
X157981924Y-130436440D02*
X157934305Y-130388059D01*
X158791448Y-129468820D02*
X159124781Y-130484820D01*
X159124781Y-130484820D02*
X159458114Y-129468820D01*
X159743829Y-130436440D02*
X159886686Y-130484820D01*
X159886686Y-130484820D02*
X160124781Y-130484820D01*
X160124781Y-130484820D02*
X160220019Y-130436440D01*
X160220019Y-130436440D02*
X160267638Y-130388059D01*
X160267638Y-130388059D02*
X160315257Y-130291297D01*
X160315257Y-130291297D02*
X160315257Y-130194535D01*
X160315257Y-130194535D02*
X160267638Y-130097773D01*
X160267638Y-130097773D02*
X160220019Y-130049392D01*
X160220019Y-130049392D02*
X160124781Y-130001011D01*
X160124781Y-130001011D02*
X159934305Y-129952630D01*
X159934305Y-129952630D02*
X159839067Y-129904249D01*
X159839067Y-129904249D02*
X159791448Y-129855868D01*
X159791448Y-129855868D02*
X159743829Y-129759106D01*
X159743829Y-129759106D02*
X159743829Y-129662344D01*
X159743829Y-129662344D02*
X159791448Y-129565582D01*
X159791448Y-129565582D02*
X159839067Y-129517201D01*
X159839067Y-129517201D02*
X159934305Y-129468820D01*
X159934305Y-129468820D02*
X160172400Y-129468820D01*
X160172400Y-129468820D02*
X160315257Y-129517201D01*
X160648591Y-129468820D02*
X160886686Y-130484820D01*
X160886686Y-130484820D02*
X161077162Y-129759106D01*
X161077162Y-129759106D02*
X161267638Y-130484820D01*
X161267638Y-130484820D02*
X161505734Y-129468820D01*
X162410495Y-130484820D02*
X161839067Y-130484820D01*
X162124781Y-130484820D02*
X162124781Y-129468820D01*
X162124781Y-129468820D02*
X162029543Y-129613963D01*
X162029543Y-129613963D02*
X161934305Y-129710725D01*
X161934305Y-129710725D02*
X161839067Y-129759106D01*
X144626033Y-97211759D02*
X144578414Y-97260140D01*
X144578414Y-97260140D02*
X144435557Y-97308520D01*
X144435557Y-97308520D02*
X144340319Y-97308520D01*
X144340319Y-97308520D02*
X144197462Y-97260140D01*
X144197462Y-97260140D02*
X144102224Y-97163378D01*
X144102224Y-97163378D02*
X144054605Y-97066616D01*
X144054605Y-97066616D02*
X144006986Y-96873092D01*
X144006986Y-96873092D02*
X144006986Y-96727949D01*
X144006986Y-96727949D02*
X144054605Y-96534425D01*
X144054605Y-96534425D02*
X144102224Y-96437663D01*
X144102224Y-96437663D02*
X144197462Y-96340901D01*
X144197462Y-96340901D02*
X144340319Y-96292520D01*
X144340319Y-96292520D02*
X144435557Y-96292520D01*
X144435557Y-96292520D02*
X144578414Y-96340901D01*
X144578414Y-96340901D02*
X144626033Y-96389282D01*
X145578414Y-97308520D02*
X145006986Y-97308520D01*
X145292700Y-97308520D02*
X145292700Y-96292520D01*
X145292700Y-96292520D02*
X145197462Y-96437663D01*
X145197462Y-96437663D02*
X145102224Y-96534425D01*
X145102224Y-96534425D02*
X145006986Y-96582806D01*
X155382933Y-114448020D02*
X155049600Y-113964211D01*
X154811505Y-114448020D02*
X154811505Y-113432020D01*
X154811505Y-113432020D02*
X155192457Y-113432020D01*
X155192457Y-113432020D02*
X155287695Y-113480401D01*
X155287695Y-113480401D02*
X155335314Y-113528782D01*
X155335314Y-113528782D02*
X155382933Y-113625544D01*
X155382933Y-113625544D02*
X155382933Y-113770687D01*
X155382933Y-113770687D02*
X155335314Y-113867449D01*
X155335314Y-113867449D02*
X155287695Y-113915830D01*
X155287695Y-113915830D02*
X155192457Y-113964211D01*
X155192457Y-113964211D02*
X154811505Y-113964211D01*
X155763886Y-113528782D02*
X155811505Y-113480401D01*
X155811505Y-113480401D02*
X155906743Y-113432020D01*
X155906743Y-113432020D02*
X156144838Y-113432020D01*
X156144838Y-113432020D02*
X156240076Y-113480401D01*
X156240076Y-113480401D02*
X156287695Y-113528782D01*
X156287695Y-113528782D02*
X156335314Y-113625544D01*
X156335314Y-113625544D02*
X156335314Y-113722306D01*
X156335314Y-113722306D02*
X156287695Y-113867449D01*
X156287695Y-113867449D02*
X155716267Y-114448020D01*
X155716267Y-114448020D02*
X156335314Y-114448020D01*
X168462659Y-102554066D02*
X168511040Y-102601685D01*
X168511040Y-102601685D02*
X168559420Y-102744542D01*
X168559420Y-102744542D02*
X168559420Y-102839780D01*
X168559420Y-102839780D02*
X168511040Y-102982637D01*
X168511040Y-102982637D02*
X168414278Y-103077875D01*
X168414278Y-103077875D02*
X168317516Y-103125494D01*
X168317516Y-103125494D02*
X168123992Y-103173113D01*
X168123992Y-103173113D02*
X167978849Y-103173113D01*
X167978849Y-103173113D02*
X167785325Y-103125494D01*
X167785325Y-103125494D02*
X167688563Y-103077875D01*
X167688563Y-103077875D02*
X167591801Y-102982637D01*
X167591801Y-102982637D02*
X167543420Y-102839780D01*
X167543420Y-102839780D02*
X167543420Y-102744542D01*
X167543420Y-102744542D02*
X167591801Y-102601685D01*
X167591801Y-102601685D02*
X167640182Y-102554066D01*
X167543420Y-102220732D02*
X167543420Y-101601685D01*
X167543420Y-101601685D02*
X167930468Y-101935018D01*
X167930468Y-101935018D02*
X167930468Y-101792161D01*
X167930468Y-101792161D02*
X167978849Y-101696923D01*
X167978849Y-101696923D02*
X168027230Y-101649304D01*
X168027230Y-101649304D02*
X168123992Y-101601685D01*
X168123992Y-101601685D02*
X168365897Y-101601685D01*
X168365897Y-101601685D02*
X168462659Y-101649304D01*
X168462659Y-101649304D02*
X168511040Y-101696923D01*
X168511040Y-101696923D02*
X168559420Y-101792161D01*
X168559420Y-101792161D02*
X168559420Y-102077875D01*
X168559420Y-102077875D02*
X168511040Y-102173113D01*
X168511040Y-102173113D02*
X168462659Y-102220732D01*
X161713942Y-121117059D02*
X161666323Y-121165440D01*
X161666323Y-121165440D02*
X161523466Y-121213820D01*
X161523466Y-121213820D02*
X161428228Y-121213820D01*
X161428228Y-121213820D02*
X161285371Y-121165440D01*
X161285371Y-121165440D02*
X161190133Y-121068678D01*
X161190133Y-121068678D02*
X161142514Y-120971916D01*
X161142514Y-120971916D02*
X161094895Y-120778392D01*
X161094895Y-120778392D02*
X161094895Y-120633249D01*
X161094895Y-120633249D02*
X161142514Y-120439725D01*
X161142514Y-120439725D02*
X161190133Y-120342963D01*
X161190133Y-120342963D02*
X161285371Y-120246201D01*
X161285371Y-120246201D02*
X161428228Y-120197820D01*
X161428228Y-120197820D02*
X161523466Y-120197820D01*
X161523466Y-120197820D02*
X161666323Y-120246201D01*
X161666323Y-120246201D02*
X161713942Y-120294582D01*
X162094895Y-120294582D02*
X162142514Y-120246201D01*
X162142514Y-120246201D02*
X162237752Y-120197820D01*
X162237752Y-120197820D02*
X162475847Y-120197820D01*
X162475847Y-120197820D02*
X162571085Y-120246201D01*
X162571085Y-120246201D02*
X162618704Y-120294582D01*
X162618704Y-120294582D02*
X162666323Y-120391344D01*
X162666323Y-120391344D02*
X162666323Y-120488106D01*
X162666323Y-120488106D02*
X162618704Y-120633249D01*
X162618704Y-120633249D02*
X162047276Y-121213820D01*
X162047276Y-121213820D02*
X162666323Y-121213820D01*
X162999657Y-120197820D02*
X163618704Y-120197820D01*
X163618704Y-120197820D02*
X163285371Y-120584868D01*
X163285371Y-120584868D02*
X163428228Y-120584868D01*
X163428228Y-120584868D02*
X163523466Y-120633249D01*
X163523466Y-120633249D02*
X163571085Y-120681630D01*
X163571085Y-120681630D02*
X163618704Y-120778392D01*
X163618704Y-120778392D02*
X163618704Y-121020297D01*
X163618704Y-121020297D02*
X163571085Y-121117059D01*
X163571085Y-121117059D02*
X163523466Y-121165440D01*
X163523466Y-121165440D02*
X163428228Y-121213820D01*
X163428228Y-121213820D02*
X163142514Y-121213820D01*
X163142514Y-121213820D02*
X163047276Y-121165440D01*
X163047276Y-121165440D02*
X162999657Y-121117059D01*
X144575233Y-106719159D02*
X144527614Y-106767540D01*
X144527614Y-106767540D02*
X144384757Y-106815920D01*
X144384757Y-106815920D02*
X144289519Y-106815920D01*
X144289519Y-106815920D02*
X144146662Y-106767540D01*
X144146662Y-106767540D02*
X144051424Y-106670778D01*
X144051424Y-106670778D02*
X144003805Y-106574016D01*
X144003805Y-106574016D02*
X143956186Y-106380492D01*
X143956186Y-106380492D02*
X143956186Y-106235349D01*
X143956186Y-106235349D02*
X144003805Y-106041825D01*
X144003805Y-106041825D02*
X144051424Y-105945063D01*
X144051424Y-105945063D02*
X144146662Y-105848301D01*
X144146662Y-105848301D02*
X144289519Y-105799920D01*
X144289519Y-105799920D02*
X144384757Y-105799920D01*
X144384757Y-105799920D02*
X144527614Y-105848301D01*
X144527614Y-105848301D02*
X144575233Y-105896682D01*
X144956186Y-105896682D02*
X145003805Y-105848301D01*
X145003805Y-105848301D02*
X145099043Y-105799920D01*
X145099043Y-105799920D02*
X145337138Y-105799920D01*
X145337138Y-105799920D02*
X145432376Y-105848301D01*
X145432376Y-105848301D02*
X145479995Y-105896682D01*
X145479995Y-105896682D02*
X145527614Y-105993444D01*
X145527614Y-105993444D02*
X145527614Y-106090206D01*
X145527614Y-106090206D02*
X145479995Y-106235349D01*
X145479995Y-106235349D02*
X144908567Y-106815920D01*
X144908567Y-106815920D02*
X145527614Y-106815920D01*
X163826866Y-130232030D02*
X163493533Y-130232030D01*
X163493533Y-130764220D02*
X163493533Y-129748220D01*
X163493533Y-129748220D02*
X163969723Y-129748220D01*
X164303057Y-129844982D02*
X164350676Y-129796601D01*
X164350676Y-129796601D02*
X164445914Y-129748220D01*
X164445914Y-129748220D02*
X164684009Y-129748220D01*
X164684009Y-129748220D02*
X164779247Y-129796601D01*
X164779247Y-129796601D02*
X164826866Y-129844982D01*
X164826866Y-129844982D02*
X164874485Y-129941744D01*
X164874485Y-129941744D02*
X164874485Y-130038506D01*
X164874485Y-130038506D02*
X164826866Y-130183649D01*
X164826866Y-130183649D02*
X164255438Y-130764220D01*
X164255438Y-130764220D02*
X164874485Y-130764220D01*
X145680133Y-83834420D02*
X145346800Y-83350611D01*
X145108705Y-83834420D02*
X145108705Y-82818420D01*
X145108705Y-82818420D02*
X145489657Y-82818420D01*
X145489657Y-82818420D02*
X145584895Y-82866801D01*
X145584895Y-82866801D02*
X145632514Y-82915182D01*
X145632514Y-82915182D02*
X145680133Y-83011944D01*
X145680133Y-83011944D02*
X145680133Y-83157087D01*
X145680133Y-83157087D02*
X145632514Y-83253849D01*
X145632514Y-83253849D02*
X145584895Y-83302230D01*
X145584895Y-83302230D02*
X145489657Y-83350611D01*
X145489657Y-83350611D02*
X145108705Y-83350611D01*
X146584895Y-82818420D02*
X146108705Y-82818420D01*
X146108705Y-82818420D02*
X146061086Y-83302230D01*
X146061086Y-83302230D02*
X146108705Y-83253849D01*
X146108705Y-83253849D02*
X146203943Y-83205468D01*
X146203943Y-83205468D02*
X146442038Y-83205468D01*
X146442038Y-83205468D02*
X146537276Y-83253849D01*
X146537276Y-83253849D02*
X146584895Y-83302230D01*
X146584895Y-83302230D02*
X146632514Y-83398992D01*
X146632514Y-83398992D02*
X146632514Y-83640897D01*
X146632514Y-83640897D02*
X146584895Y-83737659D01*
X146584895Y-83737659D02*
X146537276Y-83786040D01*
X146537276Y-83786040D02*
X146442038Y-83834420D01*
X146442038Y-83834420D02*
X146203943Y-83834420D01*
X146203943Y-83834420D02*
X146108705Y-83786040D01*
X146108705Y-83786040D02*
X146061086Y-83737659D01*
X167352742Y-86414820D02*
X167019409Y-85931011D01*
X166781314Y-86414820D02*
X166781314Y-85398820D01*
X166781314Y-85398820D02*
X167162266Y-85398820D01*
X167162266Y-85398820D02*
X167257504Y-85447201D01*
X167257504Y-85447201D02*
X167305123Y-85495582D01*
X167305123Y-85495582D02*
X167352742Y-85592344D01*
X167352742Y-85592344D02*
X167352742Y-85737487D01*
X167352742Y-85737487D02*
X167305123Y-85834249D01*
X167305123Y-85834249D02*
X167257504Y-85882630D01*
X167257504Y-85882630D02*
X167162266Y-85931011D01*
X167162266Y-85931011D02*
X166781314Y-85931011D01*
X167733695Y-85495582D02*
X167781314Y-85447201D01*
X167781314Y-85447201D02*
X167876552Y-85398820D01*
X167876552Y-85398820D02*
X168114647Y-85398820D01*
X168114647Y-85398820D02*
X168209885Y-85447201D01*
X168209885Y-85447201D02*
X168257504Y-85495582D01*
X168257504Y-85495582D02*
X168305123Y-85592344D01*
X168305123Y-85592344D02*
X168305123Y-85689106D01*
X168305123Y-85689106D02*
X168257504Y-85834249D01*
X168257504Y-85834249D02*
X167686076Y-86414820D01*
X167686076Y-86414820D02*
X168305123Y-86414820D01*
X169162266Y-85398820D02*
X168971790Y-85398820D01*
X168971790Y-85398820D02*
X168876552Y-85447201D01*
X168876552Y-85447201D02*
X168828933Y-85495582D01*
X168828933Y-85495582D02*
X168733695Y-85640725D01*
X168733695Y-85640725D02*
X168686076Y-85834249D01*
X168686076Y-85834249D02*
X168686076Y-86221297D01*
X168686076Y-86221297D02*
X168733695Y-86318059D01*
X168733695Y-86318059D02*
X168781314Y-86366440D01*
X168781314Y-86366440D02*
X168876552Y-86414820D01*
X168876552Y-86414820D02*
X169067028Y-86414820D01*
X169067028Y-86414820D02*
X169162266Y-86366440D01*
X169162266Y-86366440D02*
X169209885Y-86318059D01*
X169209885Y-86318059D02*
X169257504Y-86221297D01*
X169257504Y-86221297D02*
X169257504Y-85979392D01*
X169257504Y-85979392D02*
X169209885Y-85882630D01*
X169209885Y-85882630D02*
X169162266Y-85834249D01*
X169162266Y-85834249D02*
X169067028Y-85785868D01*
X169067028Y-85785868D02*
X168876552Y-85785868D01*
X168876552Y-85785868D02*
X168781314Y-85834249D01*
X168781314Y-85834249D02*
X168733695Y-85882630D01*
X168733695Y-85882630D02*
X168686076Y-85979392D01*
X138777742Y-133228020D02*
X138444409Y-132744211D01*
X138206314Y-133228020D02*
X138206314Y-132212020D01*
X138206314Y-132212020D02*
X138587266Y-132212020D01*
X138587266Y-132212020D02*
X138682504Y-132260401D01*
X138682504Y-132260401D02*
X138730123Y-132308782D01*
X138730123Y-132308782D02*
X138777742Y-132405544D01*
X138777742Y-132405544D02*
X138777742Y-132550687D01*
X138777742Y-132550687D02*
X138730123Y-132647449D01*
X138730123Y-132647449D02*
X138682504Y-132695830D01*
X138682504Y-132695830D02*
X138587266Y-132744211D01*
X138587266Y-132744211D02*
X138206314Y-132744211D01*
X139158695Y-132308782D02*
X139206314Y-132260401D01*
X139206314Y-132260401D02*
X139301552Y-132212020D01*
X139301552Y-132212020D02*
X139539647Y-132212020D01*
X139539647Y-132212020D02*
X139634885Y-132260401D01*
X139634885Y-132260401D02*
X139682504Y-132308782D01*
X139682504Y-132308782D02*
X139730123Y-132405544D01*
X139730123Y-132405544D02*
X139730123Y-132502306D01*
X139730123Y-132502306D02*
X139682504Y-132647449D01*
X139682504Y-132647449D02*
X139111076Y-133228020D01*
X139111076Y-133228020D02*
X139730123Y-133228020D01*
X140349171Y-132212020D02*
X140444409Y-132212020D01*
X140444409Y-132212020D02*
X140539647Y-132260401D01*
X140539647Y-132260401D02*
X140587266Y-132308782D01*
X140587266Y-132308782D02*
X140634885Y-132405544D01*
X140634885Y-132405544D02*
X140682504Y-132599068D01*
X140682504Y-132599068D02*
X140682504Y-132840973D01*
X140682504Y-132840973D02*
X140634885Y-133034497D01*
X140634885Y-133034497D02*
X140587266Y-133131259D01*
X140587266Y-133131259D02*
X140539647Y-133179640D01*
X140539647Y-133179640D02*
X140444409Y-133228020D01*
X140444409Y-133228020D02*
X140349171Y-133228020D01*
X140349171Y-133228020D02*
X140253933Y-133179640D01*
X140253933Y-133179640D02*
X140206314Y-133131259D01*
X140206314Y-133131259D02*
X140158695Y-133034497D01*
X140158695Y-133034497D02*
X140111076Y-132840973D01*
X140111076Y-132840973D02*
X140111076Y-132599068D01*
X140111076Y-132599068D02*
X140158695Y-132405544D01*
X140158695Y-132405544D02*
X140206314Y-132308782D01*
X140206314Y-132308782D02*
X140253933Y-132260401D01*
X140253933Y-132260401D02*
X140349171Y-132212020D01*
X142105142Y-133177220D02*
X141771809Y-132693411D01*
X141533714Y-133177220D02*
X141533714Y-132161220D01*
X141533714Y-132161220D02*
X141914666Y-132161220D01*
X141914666Y-132161220D02*
X142009904Y-132209601D01*
X142009904Y-132209601D02*
X142057523Y-132257982D01*
X142057523Y-132257982D02*
X142105142Y-132354744D01*
X142105142Y-132354744D02*
X142105142Y-132499887D01*
X142105142Y-132499887D02*
X142057523Y-132596649D01*
X142057523Y-132596649D02*
X142009904Y-132645030D01*
X142009904Y-132645030D02*
X141914666Y-132693411D01*
X141914666Y-132693411D02*
X141533714Y-132693411D01*
X143057523Y-133177220D02*
X142486095Y-133177220D01*
X142771809Y-133177220D02*
X142771809Y-132161220D01*
X142771809Y-132161220D02*
X142676571Y-132306363D01*
X142676571Y-132306363D02*
X142581333Y-132403125D01*
X142581333Y-132403125D02*
X142486095Y-132451506D01*
X143533714Y-133177220D02*
X143724190Y-133177220D01*
X143724190Y-133177220D02*
X143819428Y-133128840D01*
X143819428Y-133128840D02*
X143867047Y-133080459D01*
X143867047Y-133080459D02*
X143962285Y-132935316D01*
X143962285Y-132935316D02*
X144009904Y-132741792D01*
X144009904Y-132741792D02*
X144009904Y-132354744D01*
X144009904Y-132354744D02*
X143962285Y-132257982D01*
X143962285Y-132257982D02*
X143914666Y-132209601D01*
X143914666Y-132209601D02*
X143819428Y-132161220D01*
X143819428Y-132161220D02*
X143628952Y-132161220D01*
X143628952Y-132161220D02*
X143533714Y-132209601D01*
X143533714Y-132209601D02*
X143486095Y-132257982D01*
X143486095Y-132257982D02*
X143438476Y-132354744D01*
X143438476Y-132354744D02*
X143438476Y-132596649D01*
X143438476Y-132596649D02*
X143486095Y-132693411D01*
X143486095Y-132693411D02*
X143533714Y-132741792D01*
X143533714Y-132741792D02*
X143628952Y-132790173D01*
X143628952Y-132790173D02*
X143819428Y-132790173D01*
X143819428Y-132790173D02*
X143914666Y-132741792D01*
X143914666Y-132741792D02*
X143962285Y-132693411D01*
X143962285Y-132693411D02*
X144009904Y-132596649D01*
X158856620Y-117051057D02*
X158372811Y-117384390D01*
X158856620Y-117622485D02*
X157840620Y-117622485D01*
X157840620Y-117622485D02*
X157840620Y-117241533D01*
X157840620Y-117241533D02*
X157889001Y-117146295D01*
X157889001Y-117146295D02*
X157937382Y-117098676D01*
X157937382Y-117098676D02*
X158034144Y-117051057D01*
X158034144Y-117051057D02*
X158179287Y-117051057D01*
X158179287Y-117051057D02*
X158276049Y-117098676D01*
X158276049Y-117098676D02*
X158324430Y-117146295D01*
X158324430Y-117146295D02*
X158372811Y-117241533D01*
X158372811Y-117241533D02*
X158372811Y-117622485D01*
X158856620Y-116098676D02*
X158856620Y-116670104D01*
X158856620Y-116384390D02*
X157840620Y-116384390D01*
X157840620Y-116384390D02*
X157985763Y-116479628D01*
X157985763Y-116479628D02*
X158082525Y-116574866D01*
X158082525Y-116574866D02*
X158130906Y-116670104D01*
X158276049Y-115527247D02*
X158227668Y-115622485D01*
X158227668Y-115622485D02*
X158179287Y-115670104D01*
X158179287Y-115670104D02*
X158082525Y-115717723D01*
X158082525Y-115717723D02*
X158034144Y-115717723D01*
X158034144Y-115717723D02*
X157937382Y-115670104D01*
X157937382Y-115670104D02*
X157889001Y-115622485D01*
X157889001Y-115622485D02*
X157840620Y-115527247D01*
X157840620Y-115527247D02*
X157840620Y-115336771D01*
X157840620Y-115336771D02*
X157889001Y-115241533D01*
X157889001Y-115241533D02*
X157937382Y-115193914D01*
X157937382Y-115193914D02*
X158034144Y-115146295D01*
X158034144Y-115146295D02*
X158082525Y-115146295D01*
X158082525Y-115146295D02*
X158179287Y-115193914D01*
X158179287Y-115193914D02*
X158227668Y-115241533D01*
X158227668Y-115241533D02*
X158276049Y-115336771D01*
X158276049Y-115336771D02*
X158276049Y-115527247D01*
X158276049Y-115527247D02*
X158324430Y-115622485D01*
X158324430Y-115622485D02*
X158372811Y-115670104D01*
X158372811Y-115670104D02*
X158469573Y-115717723D01*
X158469573Y-115717723D02*
X158663097Y-115717723D01*
X158663097Y-115717723D02*
X158759859Y-115670104D01*
X158759859Y-115670104D02*
X158808240Y-115622485D01*
X158808240Y-115622485D02*
X158856620Y-115527247D01*
X158856620Y-115527247D02*
X158856620Y-115336771D01*
X158856620Y-115336771D02*
X158808240Y-115241533D01*
X158808240Y-115241533D02*
X158759859Y-115193914D01*
X158759859Y-115193914D02*
X158663097Y-115146295D01*
X158663097Y-115146295D02*
X158469573Y-115146295D01*
X158469573Y-115146295D02*
X158372811Y-115193914D01*
X158372811Y-115193914D02*
X158324430Y-115241533D01*
X158324430Y-115241533D02*
X158276049Y-115336771D01*
X153285866Y-88932119D02*
X153285866Y-89646404D01*
X153285866Y-89646404D02*
X153238247Y-89789261D01*
X153238247Y-89789261D02*
X153143009Y-89884500D01*
X153143009Y-89884500D02*
X153000152Y-89932119D01*
X153000152Y-89932119D02*
X152904914Y-89932119D01*
X153714438Y-89027357D02*
X153762057Y-88979738D01*
X153762057Y-88979738D02*
X153857295Y-88932119D01*
X153857295Y-88932119D02*
X154095390Y-88932119D01*
X154095390Y-88932119D02*
X154190628Y-88979738D01*
X154190628Y-88979738D02*
X154238247Y-89027357D01*
X154238247Y-89027357D02*
X154285866Y-89122595D01*
X154285866Y-89122595D02*
X154285866Y-89217833D01*
X154285866Y-89217833D02*
X154238247Y-89360690D01*
X154238247Y-89360690D02*
X153666819Y-89932119D01*
X153666819Y-89932119D02*
X154285866Y-89932119D01*
X165983979Y-116687695D02*
X165161502Y-116687695D01*
X165161502Y-116687695D02*
X165064740Y-116735314D01*
X165064740Y-116735314D02*
X165016360Y-116782933D01*
X165016360Y-116782933D02*
X164967979Y-116878171D01*
X164967979Y-116878171D02*
X164967979Y-117068647D01*
X164967979Y-117068647D02*
X165016360Y-117163885D01*
X165016360Y-117163885D02*
X165064740Y-117211504D01*
X165064740Y-117211504D02*
X165161502Y-117259123D01*
X165161502Y-117259123D02*
X165983979Y-117259123D01*
X165983979Y-118163885D02*
X165983979Y-117973409D01*
X165983979Y-117973409D02*
X165935598Y-117878171D01*
X165935598Y-117878171D02*
X165887217Y-117830552D01*
X165887217Y-117830552D02*
X165742074Y-117735314D01*
X165742074Y-117735314D02*
X165548550Y-117687695D01*
X165548550Y-117687695D02*
X165161502Y-117687695D01*
X165161502Y-117687695D02*
X165064740Y-117735314D01*
X165064740Y-117735314D02*
X165016360Y-117782933D01*
X165016360Y-117782933D02*
X164967979Y-117878171D01*
X164967979Y-117878171D02*
X164967979Y-118068647D01*
X164967979Y-118068647D02*
X165016360Y-118163885D01*
X165016360Y-118163885D02*
X165064740Y-118211504D01*
X165064740Y-118211504D02*
X165161502Y-118259123D01*
X165161502Y-118259123D02*
X165403407Y-118259123D01*
X165403407Y-118259123D02*
X165500169Y-118211504D01*
X165500169Y-118211504D02*
X165548550Y-118163885D01*
X165548550Y-118163885D02*
X165596931Y-118068647D01*
X165596931Y-118068647D02*
X165596931Y-117878171D01*
X165596931Y-117878171D02*
X165548550Y-117782933D01*
X165548550Y-117782933D02*
X165500169Y-117735314D01*
X165500169Y-117735314D02*
X165403407Y-117687695D01*
X171848542Y-112557259D02*
X171800923Y-112605640D01*
X171800923Y-112605640D02*
X171658066Y-112654020D01*
X171658066Y-112654020D02*
X171562828Y-112654020D01*
X171562828Y-112654020D02*
X171419971Y-112605640D01*
X171419971Y-112605640D02*
X171324733Y-112508878D01*
X171324733Y-112508878D02*
X171277114Y-112412116D01*
X171277114Y-112412116D02*
X171229495Y-112218592D01*
X171229495Y-112218592D02*
X171229495Y-112073449D01*
X171229495Y-112073449D02*
X171277114Y-111879925D01*
X171277114Y-111879925D02*
X171324733Y-111783163D01*
X171324733Y-111783163D02*
X171419971Y-111686401D01*
X171419971Y-111686401D02*
X171562828Y-111638020D01*
X171562828Y-111638020D02*
X171658066Y-111638020D01*
X171658066Y-111638020D02*
X171800923Y-111686401D01*
X171800923Y-111686401D02*
X171848542Y-111734782D01*
X172229495Y-111734782D02*
X172277114Y-111686401D01*
X172277114Y-111686401D02*
X172372352Y-111638020D01*
X172372352Y-111638020D02*
X172610447Y-111638020D01*
X172610447Y-111638020D02*
X172705685Y-111686401D01*
X172705685Y-111686401D02*
X172753304Y-111734782D01*
X172753304Y-111734782D02*
X172800923Y-111831544D01*
X172800923Y-111831544D02*
X172800923Y-111928306D01*
X172800923Y-111928306D02*
X172753304Y-112073449D01*
X172753304Y-112073449D02*
X172181876Y-112654020D01*
X172181876Y-112654020D02*
X172800923Y-112654020D01*
X173277114Y-112654020D02*
X173467590Y-112654020D01*
X173467590Y-112654020D02*
X173562828Y-112605640D01*
X173562828Y-112605640D02*
X173610447Y-112557259D01*
X173610447Y-112557259D02*
X173705685Y-112412116D01*
X173705685Y-112412116D02*
X173753304Y-112218592D01*
X173753304Y-112218592D02*
X173753304Y-111831544D01*
X173753304Y-111831544D02*
X173705685Y-111734782D01*
X173705685Y-111734782D02*
X173658066Y-111686401D01*
X173658066Y-111686401D02*
X173562828Y-111638020D01*
X173562828Y-111638020D02*
X173372352Y-111638020D01*
X173372352Y-111638020D02*
X173277114Y-111686401D01*
X173277114Y-111686401D02*
X173229495Y-111734782D01*
X173229495Y-111734782D02*
X173181876Y-111831544D01*
X173181876Y-111831544D02*
X173181876Y-112073449D01*
X173181876Y-112073449D02*
X173229495Y-112170211D01*
X173229495Y-112170211D02*
X173277114Y-112218592D01*
X173277114Y-112218592D02*
X173372352Y-112266973D01*
X173372352Y-112266973D02*
X173562828Y-112266973D01*
X173562828Y-112266973D02*
X173658066Y-112218592D01*
X173658066Y-112218592D02*
X173705685Y-112170211D01*
X173705685Y-112170211D02*
X173753304Y-112073449D01*
X157922933Y-114940020D02*
X157589600Y-114456211D01*
X157351505Y-114940020D02*
X157351505Y-113924020D01*
X157351505Y-113924020D02*
X157732457Y-113924020D01*
X157732457Y-113924020D02*
X157827695Y-113972401D01*
X157827695Y-113972401D02*
X157875314Y-114020782D01*
X157875314Y-114020782D02*
X157922933Y-114117544D01*
X157922933Y-114117544D02*
X157922933Y-114262687D01*
X157922933Y-114262687D02*
X157875314Y-114359449D01*
X157875314Y-114359449D02*
X157827695Y-114407830D01*
X157827695Y-114407830D02*
X157732457Y-114456211D01*
X157732457Y-114456211D02*
X157351505Y-114456211D01*
X158256267Y-113924020D02*
X158875314Y-113924020D01*
X158875314Y-113924020D02*
X158541981Y-114311068D01*
X158541981Y-114311068D02*
X158684838Y-114311068D01*
X158684838Y-114311068D02*
X158780076Y-114359449D01*
X158780076Y-114359449D02*
X158827695Y-114407830D01*
X158827695Y-114407830D02*
X158875314Y-114504592D01*
X158875314Y-114504592D02*
X158875314Y-114746497D01*
X158875314Y-114746497D02*
X158827695Y-114843259D01*
X158827695Y-114843259D02*
X158780076Y-114891640D01*
X158780076Y-114891640D02*
X158684838Y-114940020D01*
X158684838Y-114940020D02*
X158399124Y-114940020D01*
X158399124Y-114940020D02*
X158303886Y-114891640D01*
X158303886Y-114891640D02*
X158256267Y-114843259D01*
X171543742Y-118704059D02*
X171496123Y-118752440D01*
X171496123Y-118752440D02*
X171353266Y-118800820D01*
X171353266Y-118800820D02*
X171258028Y-118800820D01*
X171258028Y-118800820D02*
X171115171Y-118752440D01*
X171115171Y-118752440D02*
X171019933Y-118655678D01*
X171019933Y-118655678D02*
X170972314Y-118558916D01*
X170972314Y-118558916D02*
X170924695Y-118365392D01*
X170924695Y-118365392D02*
X170924695Y-118220249D01*
X170924695Y-118220249D02*
X170972314Y-118026725D01*
X170972314Y-118026725D02*
X171019933Y-117929963D01*
X171019933Y-117929963D02*
X171115171Y-117833201D01*
X171115171Y-117833201D02*
X171258028Y-117784820D01*
X171258028Y-117784820D02*
X171353266Y-117784820D01*
X171353266Y-117784820D02*
X171496123Y-117833201D01*
X171496123Y-117833201D02*
X171543742Y-117881582D01*
X171877076Y-117784820D02*
X172496123Y-117784820D01*
X172496123Y-117784820D02*
X172162790Y-118171868D01*
X172162790Y-118171868D02*
X172305647Y-118171868D01*
X172305647Y-118171868D02*
X172400885Y-118220249D01*
X172400885Y-118220249D02*
X172448504Y-118268630D01*
X172448504Y-118268630D02*
X172496123Y-118365392D01*
X172496123Y-118365392D02*
X172496123Y-118607297D01*
X172496123Y-118607297D02*
X172448504Y-118704059D01*
X172448504Y-118704059D02*
X172400885Y-118752440D01*
X172400885Y-118752440D02*
X172305647Y-118800820D01*
X172305647Y-118800820D02*
X172019933Y-118800820D01*
X172019933Y-118800820D02*
X171924695Y-118752440D01*
X171924695Y-118752440D02*
X171877076Y-118704059D01*
X173115171Y-117784820D02*
X173210409Y-117784820D01*
X173210409Y-117784820D02*
X173305647Y-117833201D01*
X173305647Y-117833201D02*
X173353266Y-117881582D01*
X173353266Y-117881582D02*
X173400885Y-117978344D01*
X173400885Y-117978344D02*
X173448504Y-118171868D01*
X173448504Y-118171868D02*
X173448504Y-118413773D01*
X173448504Y-118413773D02*
X173400885Y-118607297D01*
X173400885Y-118607297D02*
X173353266Y-118704059D01*
X173353266Y-118704059D02*
X173305647Y-118752440D01*
X173305647Y-118752440D02*
X173210409Y-118800820D01*
X173210409Y-118800820D02*
X173115171Y-118800820D01*
X173115171Y-118800820D02*
X173019933Y-118752440D01*
X173019933Y-118752440D02*
X172972314Y-118704059D01*
X172972314Y-118704059D02*
X172924695Y-118607297D01*
X172924695Y-118607297D02*
X172877076Y-118413773D01*
X172877076Y-118413773D02*
X172877076Y-118171868D01*
X172877076Y-118171868D02*
X172924695Y-117978344D01*
X172924695Y-117978344D02*
X172972314Y-117881582D01*
X172972314Y-117881582D02*
X173019933Y-117833201D01*
X173019933Y-117833201D02*
X173115171Y-117784820D01*
X158565123Y-125636820D02*
X158088933Y-125636820D01*
X158088933Y-125636820D02*
X158041314Y-126120630D01*
X158041314Y-126120630D02*
X158088933Y-126072249D01*
X158088933Y-126072249D02*
X158184171Y-126023868D01*
X158184171Y-126023868D02*
X158422266Y-126023868D01*
X158422266Y-126023868D02*
X158517504Y-126072249D01*
X158517504Y-126072249D02*
X158565123Y-126120630D01*
X158565123Y-126120630D02*
X158612742Y-126217392D01*
X158612742Y-126217392D02*
X158612742Y-126459297D01*
X158612742Y-126459297D02*
X158565123Y-126556059D01*
X158565123Y-126556059D02*
X158517504Y-126604440D01*
X158517504Y-126604440D02*
X158422266Y-126652820D01*
X158422266Y-126652820D02*
X158184171Y-126652820D01*
X158184171Y-126652820D02*
X158088933Y-126604440D01*
X158088933Y-126604440D02*
X158041314Y-126556059D01*
X158898457Y-125636820D02*
X159231790Y-126652820D01*
X159231790Y-126652820D02*
X159565123Y-125636820D01*
X160088933Y-125636820D02*
X160279409Y-125636820D01*
X160279409Y-125636820D02*
X160374647Y-125685201D01*
X160374647Y-125685201D02*
X160469885Y-125781963D01*
X160469885Y-125781963D02*
X160517504Y-125975487D01*
X160517504Y-125975487D02*
X160517504Y-126314154D01*
X160517504Y-126314154D02*
X160469885Y-126507678D01*
X160469885Y-126507678D02*
X160374647Y-126604440D01*
X160374647Y-126604440D02*
X160279409Y-126652820D01*
X160279409Y-126652820D02*
X160088933Y-126652820D01*
X160088933Y-126652820D02*
X159993695Y-126604440D01*
X159993695Y-126604440D02*
X159898457Y-126507678D01*
X159898457Y-126507678D02*
X159850838Y-126314154D01*
X159850838Y-126314154D02*
X159850838Y-125975487D01*
X159850838Y-125975487D02*
X159898457Y-125781963D01*
X159898457Y-125781963D02*
X159993695Y-125685201D01*
X159993695Y-125685201D02*
X160088933Y-125636820D01*
X161469885Y-126652820D02*
X160898457Y-126652820D01*
X161184171Y-126652820D02*
X161184171Y-125636820D01*
X161184171Y-125636820D02*
X161088933Y-125781963D01*
X161088933Y-125781963D02*
X160993695Y-125878725D01*
X160993695Y-125878725D02*
X160898457Y-125927106D01*
X171481761Y-124434782D02*
X171386523Y-124386401D01*
X171386523Y-124386401D02*
X171291285Y-124289640D01*
X171291285Y-124289640D02*
X171148428Y-124144497D01*
X171148428Y-124144497D02*
X171053190Y-124096116D01*
X171053190Y-124096116D02*
X170957952Y-124096116D01*
X171005571Y-124338020D02*
X170910333Y-124289640D01*
X170910333Y-124289640D02*
X170815095Y-124192878D01*
X170815095Y-124192878D02*
X170767476Y-123999354D01*
X170767476Y-123999354D02*
X170767476Y-123660687D01*
X170767476Y-123660687D02*
X170815095Y-123467163D01*
X170815095Y-123467163D02*
X170910333Y-123370401D01*
X170910333Y-123370401D02*
X171005571Y-123322020D01*
X171005571Y-123322020D02*
X171196047Y-123322020D01*
X171196047Y-123322020D02*
X171291285Y-123370401D01*
X171291285Y-123370401D02*
X171386523Y-123467163D01*
X171386523Y-123467163D02*
X171434142Y-123660687D01*
X171434142Y-123660687D02*
X171434142Y-123999354D01*
X171434142Y-123999354D02*
X171386523Y-124192878D01*
X171386523Y-124192878D02*
X171291285Y-124289640D01*
X171291285Y-124289640D02*
X171196047Y-124338020D01*
X171196047Y-124338020D02*
X171005571Y-124338020D01*
X171767476Y-123322020D02*
X172386523Y-123322020D01*
X172386523Y-123322020D02*
X172053190Y-123709068D01*
X172053190Y-123709068D02*
X172196047Y-123709068D01*
X172196047Y-123709068D02*
X172291285Y-123757449D01*
X172291285Y-123757449D02*
X172338904Y-123805830D01*
X172338904Y-123805830D02*
X172386523Y-123902592D01*
X172386523Y-123902592D02*
X172386523Y-124144497D01*
X172386523Y-124144497D02*
X172338904Y-124241259D01*
X172338904Y-124241259D02*
X172291285Y-124289640D01*
X172291285Y-124289640D02*
X172196047Y-124338020D01*
X172196047Y-124338020D02*
X171910333Y-124338020D01*
X171910333Y-124338020D02*
X171815095Y-124289640D01*
X171815095Y-124289640D02*
X171767476Y-124241259D01*
X150672895Y-89540020D02*
X150672895Y-90362497D01*
X150672895Y-90362497D02*
X150720514Y-90459259D01*
X150720514Y-90459259D02*
X150768133Y-90507640D01*
X150768133Y-90507640D02*
X150863371Y-90556020D01*
X150863371Y-90556020D02*
X151053847Y-90556020D01*
X151053847Y-90556020D02*
X151149085Y-90507640D01*
X151149085Y-90507640D02*
X151196704Y-90459259D01*
X151196704Y-90459259D02*
X151244323Y-90362497D01*
X151244323Y-90362497D02*
X151244323Y-89540020D01*
X152244323Y-90556020D02*
X151672895Y-90556020D01*
X151958609Y-90556020D02*
X151958609Y-89540020D01*
X151958609Y-89540020D02*
X151863371Y-89685163D01*
X151863371Y-89685163D02*
X151768133Y-89781925D01*
X151768133Y-89781925D02*
X151672895Y-89830306D01*
X168560761Y-88163582D02*
X168465523Y-88115201D01*
X168465523Y-88115201D02*
X168370285Y-88018440D01*
X168370285Y-88018440D02*
X168227428Y-87873297D01*
X168227428Y-87873297D02*
X168132190Y-87824916D01*
X168132190Y-87824916D02*
X168036952Y-87824916D01*
X168084571Y-88066820D02*
X167989333Y-88018440D01*
X167989333Y-88018440D02*
X167894095Y-87921678D01*
X167894095Y-87921678D02*
X167846476Y-87728154D01*
X167846476Y-87728154D02*
X167846476Y-87389487D01*
X167846476Y-87389487D02*
X167894095Y-87195963D01*
X167894095Y-87195963D02*
X167989333Y-87099201D01*
X167989333Y-87099201D02*
X168084571Y-87050820D01*
X168084571Y-87050820D02*
X168275047Y-87050820D01*
X168275047Y-87050820D02*
X168370285Y-87099201D01*
X168370285Y-87099201D02*
X168465523Y-87195963D01*
X168465523Y-87195963D02*
X168513142Y-87389487D01*
X168513142Y-87389487D02*
X168513142Y-87728154D01*
X168513142Y-87728154D02*
X168465523Y-87921678D01*
X168465523Y-87921678D02*
X168370285Y-88018440D01*
X168370285Y-88018440D02*
X168275047Y-88066820D01*
X168275047Y-88066820D02*
X168084571Y-88066820D01*
X169417904Y-87050820D02*
X168941714Y-87050820D01*
X168941714Y-87050820D02*
X168894095Y-87534630D01*
X168894095Y-87534630D02*
X168941714Y-87486249D01*
X168941714Y-87486249D02*
X169036952Y-87437868D01*
X169036952Y-87437868D02*
X169275047Y-87437868D01*
X169275047Y-87437868D02*
X169370285Y-87486249D01*
X169370285Y-87486249D02*
X169417904Y-87534630D01*
X169417904Y-87534630D02*
X169465523Y-87631392D01*
X169465523Y-87631392D02*
X169465523Y-87873297D01*
X169465523Y-87873297D02*
X169417904Y-87970059D01*
X169417904Y-87970059D02*
X169370285Y-88018440D01*
X169370285Y-88018440D02*
X169275047Y-88066820D01*
X169275047Y-88066820D02*
X169036952Y-88066820D01*
X169036952Y-88066820D02*
X168941714Y-88018440D01*
X168941714Y-88018440D02*
X168894095Y-87970059D01*
X171264342Y-86414820D02*
X170931009Y-85931011D01*
X170692914Y-86414820D02*
X170692914Y-85398820D01*
X170692914Y-85398820D02*
X171073866Y-85398820D01*
X171073866Y-85398820D02*
X171169104Y-85447201D01*
X171169104Y-85447201D02*
X171216723Y-85495582D01*
X171216723Y-85495582D02*
X171264342Y-85592344D01*
X171264342Y-85592344D02*
X171264342Y-85737487D01*
X171264342Y-85737487D02*
X171216723Y-85834249D01*
X171216723Y-85834249D02*
X171169104Y-85882630D01*
X171169104Y-85882630D02*
X171073866Y-85931011D01*
X171073866Y-85931011D02*
X170692914Y-85931011D01*
X171645295Y-85495582D02*
X171692914Y-85447201D01*
X171692914Y-85447201D02*
X171788152Y-85398820D01*
X171788152Y-85398820D02*
X172026247Y-85398820D01*
X172026247Y-85398820D02*
X172121485Y-85447201D01*
X172121485Y-85447201D02*
X172169104Y-85495582D01*
X172169104Y-85495582D02*
X172216723Y-85592344D01*
X172216723Y-85592344D02*
X172216723Y-85689106D01*
X172216723Y-85689106D02*
X172169104Y-85834249D01*
X172169104Y-85834249D02*
X171597676Y-86414820D01*
X171597676Y-86414820D02*
X172216723Y-86414820D01*
X173121485Y-85398820D02*
X172645295Y-85398820D01*
X172645295Y-85398820D02*
X172597676Y-85882630D01*
X172597676Y-85882630D02*
X172645295Y-85834249D01*
X172645295Y-85834249D02*
X172740533Y-85785868D01*
X172740533Y-85785868D02*
X172978628Y-85785868D01*
X172978628Y-85785868D02*
X173073866Y-85834249D01*
X173073866Y-85834249D02*
X173121485Y-85882630D01*
X173121485Y-85882630D02*
X173169104Y-85979392D01*
X173169104Y-85979392D02*
X173169104Y-86221297D01*
X173169104Y-86221297D02*
X173121485Y-86318059D01*
X173121485Y-86318059D02*
X173073866Y-86366440D01*
X173073866Y-86366440D02*
X172978628Y-86414820D01*
X172978628Y-86414820D02*
X172740533Y-86414820D01*
X172740533Y-86414820D02*
X172645295Y-86366440D01*
X172645295Y-86366440D02*
X172597676Y-86318059D01*
X171797742Y-90606820D02*
X171464409Y-90123011D01*
X171226314Y-90606820D02*
X171226314Y-89590820D01*
X171226314Y-89590820D02*
X171607266Y-89590820D01*
X171607266Y-89590820D02*
X171702504Y-89639201D01*
X171702504Y-89639201D02*
X171750123Y-89687582D01*
X171750123Y-89687582D02*
X171797742Y-89784344D01*
X171797742Y-89784344D02*
X171797742Y-89929487D01*
X171797742Y-89929487D02*
X171750123Y-90026249D01*
X171750123Y-90026249D02*
X171702504Y-90074630D01*
X171702504Y-90074630D02*
X171607266Y-90123011D01*
X171607266Y-90123011D02*
X171226314Y-90123011D01*
X172178695Y-89687582D02*
X172226314Y-89639201D01*
X172226314Y-89639201D02*
X172321552Y-89590820D01*
X172321552Y-89590820D02*
X172559647Y-89590820D01*
X172559647Y-89590820D02*
X172654885Y-89639201D01*
X172654885Y-89639201D02*
X172702504Y-89687582D01*
X172702504Y-89687582D02*
X172750123Y-89784344D01*
X172750123Y-89784344D02*
X172750123Y-89881106D01*
X172750123Y-89881106D02*
X172702504Y-90026249D01*
X172702504Y-90026249D02*
X172131076Y-90606820D01*
X172131076Y-90606820D02*
X172750123Y-90606820D01*
X173083457Y-89590820D02*
X173750123Y-89590820D01*
X173750123Y-89590820D02*
X173321552Y-90606820D01*
X149826742Y-119516859D02*
X149779123Y-119565240D01*
X149779123Y-119565240D02*
X149636266Y-119613620D01*
X149636266Y-119613620D02*
X149541028Y-119613620D01*
X149541028Y-119613620D02*
X149398171Y-119565240D01*
X149398171Y-119565240D02*
X149302933Y-119468478D01*
X149302933Y-119468478D02*
X149255314Y-119371716D01*
X149255314Y-119371716D02*
X149207695Y-119178192D01*
X149207695Y-119178192D02*
X149207695Y-119033049D01*
X149207695Y-119033049D02*
X149255314Y-118839525D01*
X149255314Y-118839525D02*
X149302933Y-118742763D01*
X149302933Y-118742763D02*
X149398171Y-118646001D01*
X149398171Y-118646001D02*
X149541028Y-118597620D01*
X149541028Y-118597620D02*
X149636266Y-118597620D01*
X149636266Y-118597620D02*
X149779123Y-118646001D01*
X149779123Y-118646001D02*
X149826742Y-118694382D01*
X150779123Y-119613620D02*
X150207695Y-119613620D01*
X150493409Y-119613620D02*
X150493409Y-118597620D01*
X150493409Y-118597620D02*
X150398171Y-118742763D01*
X150398171Y-118742763D02*
X150302933Y-118839525D01*
X150302933Y-118839525D02*
X150207695Y-118887906D01*
X151255314Y-119613620D02*
X151445790Y-119613620D01*
X151445790Y-119613620D02*
X151541028Y-119565240D01*
X151541028Y-119565240D02*
X151588647Y-119516859D01*
X151588647Y-119516859D02*
X151683885Y-119371716D01*
X151683885Y-119371716D02*
X151731504Y-119178192D01*
X151731504Y-119178192D02*
X151731504Y-118791144D01*
X151731504Y-118791144D02*
X151683885Y-118694382D01*
X151683885Y-118694382D02*
X151636266Y-118646001D01*
X151636266Y-118646001D02*
X151541028Y-118597620D01*
X151541028Y-118597620D02*
X151350552Y-118597620D01*
X151350552Y-118597620D02*
X151255314Y-118646001D01*
X151255314Y-118646001D02*
X151207695Y-118694382D01*
X151207695Y-118694382D02*
X151160076Y-118791144D01*
X151160076Y-118791144D02*
X151160076Y-119033049D01*
X151160076Y-119033049D02*
X151207695Y-119129811D01*
X151207695Y-119129811D02*
X151255314Y-119178192D01*
X151255314Y-119178192D02*
X151350552Y-119226573D01*
X151350552Y-119226573D02*
X151541028Y-119226573D01*
X151541028Y-119226573D02*
X151636266Y-119178192D01*
X151636266Y-119178192D02*
X151683885Y-119129811D01*
X151683885Y-119129811D02*
X151731504Y-119033049D01*
X159199342Y-124236420D02*
X158866009Y-123752611D01*
X158627914Y-124236420D02*
X158627914Y-123220420D01*
X158627914Y-123220420D02*
X159008866Y-123220420D01*
X159008866Y-123220420D02*
X159104104Y-123268801D01*
X159104104Y-123268801D02*
X159151723Y-123317182D01*
X159151723Y-123317182D02*
X159199342Y-123413944D01*
X159199342Y-123413944D02*
X159199342Y-123559087D01*
X159199342Y-123559087D02*
X159151723Y-123655849D01*
X159151723Y-123655849D02*
X159104104Y-123704230D01*
X159104104Y-123704230D02*
X159008866Y-123752611D01*
X159008866Y-123752611D02*
X158627914Y-123752611D01*
X160151723Y-124236420D02*
X159580295Y-124236420D01*
X159866009Y-124236420D02*
X159866009Y-123220420D01*
X159866009Y-123220420D02*
X159770771Y-123365563D01*
X159770771Y-123365563D02*
X159675533Y-123462325D01*
X159675533Y-123462325D02*
X159580295Y-123510706D01*
X160485057Y-123220420D02*
X161151723Y-123220420D01*
X161151723Y-123220420D02*
X160723152Y-124236420D01*
D12*
%TO.C,J1*%
X139320400Y-91903400D02*
X139320400Y-92923400D01*
X131620400Y-91903400D02*
X139320400Y-91903400D01*
X139320400Y-103123400D02*
X139320400Y-95923400D01*
X139320400Y-107143400D02*
X139320400Y-106123400D01*
X139320400Y-107143400D02*
X131620400Y-107143400D01*
X131620400Y-107143400D02*
X131620400Y-91903400D01*
D14*
%TO.C,D1*%
X143430000Y-85802600D02*
X143430000Y-83532600D01*
X143430000Y-83532600D02*
X139370000Y-83532600D01*
X139370000Y-85802600D02*
X143430000Y-85802600D01*
%TO.C,D2*%
X143455400Y-82221200D02*
X143455400Y-79951200D01*
X143455400Y-79951200D02*
X139395400Y-79951200D01*
X139395400Y-82221200D02*
X143455400Y-82221200D01*
%TO.C,C17*%
X150208348Y-116765400D02*
X150730852Y-116765400D01*
X150208348Y-118235400D02*
X150730852Y-118235400D01*
D15*
%TO.C,J3*%
X131318000Y-126339600D02*
X131318000Y-108178600D01*
X144018000Y-126339600D02*
X131318000Y-126339600D01*
X131318000Y-108178600D02*
X144018000Y-108178600D01*
X144018000Y-108178600D02*
X144018000Y-126339600D01*
D16*
X130814000Y-121259600D02*
G75*
G03*
X130814000Y-121259600I-100000J0D01*
G01*
D14*
%TO.C,R8*%
X151611000Y-81484736D02*
X151611000Y-81938864D01*
X150141000Y-81484736D02*
X150141000Y-81938864D01*
%TO.C,C28*%
X155074252Y-117168600D02*
X154551748Y-117168600D01*
X155074252Y-115698600D02*
X154551748Y-115698600D01*
%TO.C,R7*%
X145695936Y-77862000D02*
X146150064Y-77862000D01*
X145695936Y-79332000D02*
X146150064Y-79332000D01*
%TO.C,R1*%
X152630200Y-111488464D02*
X152630200Y-111034336D01*
X154100200Y-111488464D02*
X154100200Y-111034336D01*
%TO.C,U4*%
X147964800Y-123201000D02*
X147964800Y-121401000D01*
X144744800Y-121401000D02*
X144744800Y-124351000D01*
%TO.C,C26*%
X155052752Y-120546800D02*
X154530248Y-120546800D01*
X155052752Y-119076800D02*
X154530248Y-119076800D01*
%TO.C,R4*%
X159793000Y-111513864D02*
X159793000Y-111059736D01*
X161263000Y-111513864D02*
X161263000Y-111059736D01*
%TO.C,Q4*%
X170454000Y-111109800D02*
X170454000Y-114759800D01*
X165334000Y-113059800D02*
X165334000Y-111109800D01*
X165334000Y-113059800D02*
X165334000Y-114759800D01*
D17*
X170959000Y-110220800D02*
G75*
G03*
X170959000Y-110220800I-130000J0D01*
G01*
D14*
%TO.C,D3*%
X143418900Y-78589000D02*
X143418900Y-76319000D01*
X143418900Y-76319000D02*
X139358900Y-76319000D01*
X139358900Y-78589000D02*
X143418900Y-78589000D01*
%TO.C,L2*%
X149382600Y-123836600D02*
X156382600Y-123836600D01*
X149382600Y-131636600D02*
X156382600Y-131636600D01*
%TO.C,Q6*%
X170346000Y-94062000D02*
X170346000Y-97712000D01*
X165226000Y-96012000D02*
X165226000Y-94062000D01*
X165226000Y-96012000D02*
X165226000Y-97712000D01*
D17*
X170851000Y-93173000D02*
G75*
G03*
X170851000Y-93173000I-130000J0D01*
G01*
D14*
%TO.C,VCCIN1*%
X140873200Y-99514200D02*
X141473200Y-99514200D01*
X142173200Y-100214200D02*
X142173200Y-101614200D01*
X140173200Y-101614200D02*
X140173200Y-100214200D01*
X141473200Y-102314200D02*
X140873200Y-102314200D01*
X142173200Y-100214200D02*
G75*
G03*
X141473200Y-99514200I-699999J1D01*
G01*
X140873200Y-99514200D02*
G75*
G03*
X140173200Y-100214200I-1J-699999D01*
G01*
X141473200Y-102314200D02*
G75*
G03*
X142173200Y-101614200I0J700000D01*
G01*
X140173200Y-101614200D02*
G75*
G03*
X140873200Y-102314200I700000J0D01*
G01*
%TO.C,C21*%
X150208348Y-113565000D02*
X150730852Y-113565000D01*
X150208348Y-115035000D02*
X150730852Y-115035000D01*
%TO.C,R6*%
X145645136Y-81011600D02*
X146099264Y-81011600D01*
X145645136Y-82481600D02*
X146099264Y-82481600D01*
%TO.C,C24*%
X146158852Y-129132000D02*
X145636348Y-129132000D01*
X146158852Y-127662000D02*
X145636348Y-127662000D01*
%TO.C,Y1*%
X145709400Y-104733800D02*
X145709400Y-98333800D01*
X150759400Y-104733800D02*
X150759400Y-98333800D01*
X145709400Y-104733800D02*
G75*
G03*
X150759400Y-104733800I2525000J0D01*
G01*
X150759400Y-98333800D02*
G75*
G03*
X145709400Y-98333800I-2525000J0D01*
G01*
D13*
%TO.C,J4*%
X171415200Y-109606600D02*
X175415200Y-109606600D01*
X175415200Y-109606600D02*
X175415200Y-102606600D01*
X175115200Y-102606600D02*
X175115200Y-100606600D01*
X175415200Y-102606600D02*
X175115200Y-102606600D01*
X175115200Y-100606600D02*
X175415200Y-100606600D01*
X175415200Y-100606600D02*
X175415200Y-93606600D01*
X171415200Y-93606600D02*
X171415200Y-109606600D01*
X175415200Y-93606600D02*
X171415200Y-93606600D01*
D14*
%TO.C,5VSW1*%
X161155600Y-131576800D02*
X161155600Y-132176800D01*
X160455600Y-132876800D02*
X159055600Y-132876800D01*
X159055600Y-130876800D02*
X160455600Y-130876800D01*
X158355600Y-132176800D02*
X158355600Y-131576800D01*
X160455600Y-132876800D02*
G75*
G03*
X161155600Y-132176800I1J699999D01*
G01*
X161155600Y-131576800D02*
G75*
G03*
X160455600Y-130876800I-699999J1D01*
G01*
X158355600Y-132176800D02*
G75*
G03*
X159055600Y-132876800I700000J0D01*
G01*
X159055600Y-130876800D02*
G75*
G03*
X158355600Y-131576800I0J-700000D01*
G01*
%TO.C,C1*%
X143651300Y-99905452D02*
X143651300Y-99382948D01*
X145121300Y-99905452D02*
X145121300Y-99382948D01*
%TO.C,R2*%
X154814600Y-111529864D02*
X154814600Y-111075736D01*
X156284600Y-111529864D02*
X156284600Y-111075736D01*
%TO.C,C3*%
X166724000Y-102126148D02*
X166724000Y-102648652D01*
X165254000Y-102126148D02*
X165254000Y-102648652D01*
%TO.C,C23*%
X159259600Y-120733452D02*
X159259600Y-120210948D01*
X160729600Y-120733452D02*
X160729600Y-120210948D01*
%TO.C,C2*%
X145121300Y-103218348D02*
X145121300Y-103740852D01*
X143651300Y-103218348D02*
X143651300Y-103740852D01*
%TO.C,F2*%
X164762264Y-132913800D02*
X163558136Y-132913800D01*
X164762264Y-131093800D02*
X163558136Y-131093800D01*
%TO.C,R5*%
X145619736Y-84161200D02*
X146073864Y-84161200D01*
X145619736Y-85631200D02*
X146073864Y-85631200D01*
%TO.C,R26*%
X168222664Y-85037600D02*
X167768536Y-85037600D01*
X168222664Y-83567600D02*
X167768536Y-83567600D01*
%TO.C,R20*%
X140155600Y-129947936D02*
X140155600Y-130402064D01*
X138685600Y-129947936D02*
X138685600Y-130402064D01*
%TO.C,R19*%
X142013000Y-130402064D02*
X142013000Y-129947936D01*
X143483000Y-130402064D02*
X143483000Y-129947936D01*
%TO.C,R18*%
X159285000Y-116355864D02*
X159285000Y-115901736D01*
X160755000Y-116355864D02*
X160755000Y-115901736D01*
D13*
%TO.C,J2*%
X152349200Y-76037300D02*
X165049200Y-76037300D01*
X152349200Y-84537300D02*
X152349200Y-76037300D01*
X152349200Y-84537300D02*
X165049200Y-84537300D01*
X154889200Y-84537300D02*
X154889200Y-76037300D01*
X157429200Y-84537300D02*
X157429200Y-76037300D01*
X159969200Y-84537300D02*
X159969200Y-76037300D01*
X162509200Y-84537300D02*
X162509200Y-76037300D01*
X165049200Y-84537300D02*
X165049200Y-76037300D01*
X154838400Y-84473500D02*
X152400000Y-84473500D01*
X152400000Y-76091500D01*
X154838400Y-76091500D01*
X154838400Y-84473500D01*
G36*
X154838400Y-84473500D02*
G01*
X152400000Y-84473500D01*
X152400000Y-76091500D01*
X154838400Y-76091500D01*
X154838400Y-84473500D01*
G37*
D14*
%TO.C,U6*%
X164730000Y-117104000D02*
X164730000Y-115604000D01*
X164730000Y-117104000D02*
X164730000Y-118604000D01*
X161520000Y-117104000D02*
X161520000Y-115604000D01*
X161520000Y-117104000D02*
X161520000Y-118604000D01*
D18*
X164980000Y-114104000D02*
G75*
G03*
X164980000Y-114104000I-100000J0D01*
G01*
D14*
%TO.C,C29*%
X171462800Y-115140152D02*
X171462800Y-114617648D01*
X172932800Y-115140152D02*
X172932800Y-114617648D01*
%TO.C,R3*%
X157634000Y-111513864D02*
X157634000Y-111059736D01*
X159104000Y-111513864D02*
X159104000Y-111059736D01*
%TO.C,C30*%
X172932800Y-120655048D02*
X172932800Y-121177552D01*
X171462800Y-120655048D02*
X171462800Y-121177552D01*
%TO.C,5VO1*%
X158355600Y-128290600D02*
X158355600Y-127690600D01*
X159055600Y-126990600D02*
X160455600Y-126990600D01*
X160455600Y-128990600D02*
X159055600Y-128990600D01*
X161155600Y-127690600D02*
X161155600Y-128290600D01*
X159055600Y-126990600D02*
G75*
G03*
X158355600Y-127690600I-1J-699999D01*
G01*
X158355600Y-128290600D02*
G75*
G03*
X159055600Y-128990600I699999J-1D01*
G01*
X161155600Y-127690600D02*
G75*
G03*
X160455600Y-126990600I-700000J0D01*
G01*
X160455600Y-128990600D02*
G75*
G03*
X161155600Y-128290600I0J700000D01*
G01*
%TO.C,Q3*%
X170301600Y-121544800D02*
X170301600Y-125194800D01*
X165181600Y-123494800D02*
X165181600Y-121544800D01*
X165181600Y-123494800D02*
X165181600Y-125194800D01*
D17*
X170806600Y-120655800D02*
G75*
G03*
X170806600Y-120655800I-130000J0D01*
G01*
D14*
%TO.C,U1*%
X154509000Y-89523800D02*
X154509000Y-90168800D01*
X154509000Y-90168800D02*
X152669000Y-90168800D01*
X154509000Y-108443800D02*
X154509000Y-107798800D01*
X158369000Y-89523800D02*
X154509000Y-89523800D01*
X158369000Y-89523800D02*
X162229000Y-89523800D01*
X158369000Y-108443800D02*
X154509000Y-108443800D01*
X158369000Y-108443800D02*
X162229000Y-108443800D01*
X162229000Y-89523800D02*
X162229000Y-90168800D01*
X162229000Y-108443800D02*
X162229000Y-107798800D01*
%TO.C,Q5*%
X165193800Y-88810000D02*
X165193800Y-90220000D01*
X167523800Y-90220000D02*
X166853800Y-90220000D01*
X167513800Y-90220000D02*
X167513800Y-87485000D01*
X165853800Y-90220000D02*
X165193800Y-90220000D01*
%TO.C,R25*%
X172134264Y-85037600D02*
X171680136Y-85037600D01*
X172134264Y-83567600D02*
X171680136Y-83567600D01*
%TO.C,R27*%
X170729200Y-89854136D02*
X170729200Y-90308264D01*
X169259200Y-89854136D02*
X169259200Y-90308264D01*
%TO.C,C19*%
X150208348Y-119965800D02*
X150730852Y-119965800D01*
X150208348Y-121435800D02*
X150730852Y-121435800D01*
%TO.C,R17*%
X163419200Y-123062948D02*
X163419200Y-124485452D01*
X161599200Y-123062948D02*
X161599200Y-124485452D01*
%TD*%
M02*
