%TF.GenerationSoftware,KiCad,Pcbnew,7.0.9*%
%TF.CreationDate,2024-03-19T13:29:09-04:00*%
%TF.ProjectId,charging_on_the_pad,63686172-6769-46e6-975f-6f6e5f746865,rev?*%
%TF.SameCoordinates,Original*%
%TF.FileFunction,Copper,L3,Inr*%
%TF.FilePolarity,Positive*%
%FSLAX46Y46*%
G04 Gerber Fmt 4.6, Leading zero omitted, Abs format (unit mm)*
G04 Created by KiCad (PCBNEW 7.0.9) date 2024-03-19 13:29:09*
%MOMM*%
%LPD*%
G01*
G04 APERTURE LIST*
%TA.AperFunction,ComponentPad*%
%ADD10C,3.800000*%
%TD*%
%TA.AperFunction,ComponentPad*%
%ADD11C,1.000000*%
%TD*%
%TA.AperFunction,ComponentPad*%
%ADD12C,3.000000*%
%TD*%
%TA.AperFunction,ComponentPad*%
%ADD13C,1.500000*%
%TD*%
%TA.AperFunction,ComponentPad*%
%ADD14C,6.400000*%
%TD*%
%TA.AperFunction,ComponentPad*%
%ADD15R,1.200000X1.200000*%
%TD*%
%TA.AperFunction,ComponentPad*%
%ADD16C,1.200000*%
%TD*%
%TA.AperFunction,ViaPad*%
%ADD17C,0.762000*%
%TD*%
%TA.AperFunction,ViaPad*%
%ADD18C,0.600000*%
%TD*%
%TA.AperFunction,Conductor*%
%ADD19C,0.762000*%
%TD*%
%TA.AperFunction,Conductor*%
%ADD20C,1.270000*%
%TD*%
%TA.AperFunction,Conductor*%
%ADD21C,2.286000*%
%TD*%
%TA.AperFunction,Conductor*%
%ADD22C,0.381000*%
%TD*%
G04 APERTURE END LIST*
D10*
%TO.N,*%
%TO.C,J1*%
X137820400Y-94373400D03*
X137820400Y-104673400D03*
D11*
%TO.N,Net-(J1-Pin_1)*%
X137820400Y-100773400D03*
%TO.N,+5V_PWR*%
X137820400Y-99523400D03*
%TO.N,GND*%
X137820400Y-98273400D03*
%TO.N,/CANH*%
X136570400Y-100773400D03*
%TO.N,/CANL*%
X136570400Y-99523400D03*
%TO.N,+24V*%
X136570400Y-98273400D03*
%TD*%
D12*
%TO.N,Net-(J3-Pin_1)*%
%TO.C,J3*%
X133615600Y-113390600D03*
%TO.N,GND*%
X133615600Y-121640600D03*
%TD*%
D13*
%TO.N,/OSC2*%
%TO.C,Y1*%
X148234400Y-103973800D03*
%TO.N,/OSC1*%
X148234400Y-99093800D03*
%TD*%
D14*
%TO.N,N/C*%
%TO.C,H3*%
X134352117Y-79506364D03*
%TD*%
%TO.N,N/C*%
%TO.C,H1*%
X172258924Y-130175000D03*
%TD*%
%TO.N,N/C*%
%TO.C,H4*%
X172262170Y-79437569D03*
%TD*%
%TO.N,N/C*%
%TO.C,H2*%
X134344427Y-130073035D03*
%TD*%
D15*
%TO.N,/Motor Control/MOTOR_V*%
%TO.C,J4*%
X174415200Y-99606600D03*
D16*
%TO.N,GND*%
X174415200Y-101606600D03*
%TO.N,/MOTOR_INPUT*%
X174415200Y-103606600D03*
%TO.N,/Motor Control/MOTOR_V*%
X172415200Y-99606600D03*
%TO.N,GND*%
X172415200Y-101606600D03*
%TO.N,/Motor Control/MOTOR_OUTPUT*%
X172415200Y-103606600D03*
%TD*%
D17*
%TO.N,GND*%
X167361100Y-86461600D03*
%TO.N,/R_MOTOR_N*%
X170281600Y-87096600D03*
X167182800Y-89585800D03*
%TO.N,GND*%
X161845305Y-101499036D03*
X153856456Y-108941584D03*
X167868600Y-102920800D03*
D18*
%TO.N,+5V_PWR*%
X139877800Y-107086400D03*
X141579600Y-120650000D03*
D17*
%TO.N,/Battery Charger/VIN*%
X151244800Y-112513640D03*
%TO.N,VCC*%
X147243800Y-116205000D03*
%TO.N,/CHG_CURR*%
X158064200Y-97764600D03*
%TO.N,/CURR_13V*%
X156819768Y-96672400D03*
X157149800Y-83280800D03*
%TO.N,GND*%
X136372600Y-91973400D03*
X136144000Y-91186000D03*
X135509000Y-91846400D03*
X134950200Y-95554800D03*
X134416800Y-96342200D03*
X133959600Y-95554800D03*
X133451600Y-96316800D03*
%TO.N,/n_CHG_EN*%
X164987311Y-92746489D03*
%TO.N,+5V*%
X169697400Y-94996000D03*
X168970527Y-96088396D03*
%TO.N,/Battery Charger/VIN*%
X162342331Y-110861251D03*
X156305700Y-114122200D03*
%TO.N,+BATT*%
X137287000Y-113588800D03*
%TO.N,/Power/R_13V_P*%
X149089100Y-84120570D03*
X154702902Y-87325200D03*
%TO.N,Net-(U5-SW)*%
X137363200Y-82448400D03*
X134797800Y-87045800D03*
%TO.N,GND*%
X142984076Y-101673566D03*
X145684079Y-107973573D03*
X162864800Y-129540000D03*
X133832600Y-104851200D03*
X142984076Y-102573567D03*
X159913800Y-86925000D03*
X148384082Y-95373559D03*
X142984076Y-98973563D03*
X150184084Y-106173571D03*
X150184084Y-98073562D03*
X161493200Y-82600800D03*
X153416000Y-121843800D03*
X143884077Y-107973573D03*
X138938900Y-117742200D03*
X146584080Y-107973573D03*
X143884077Y-95373559D03*
X145684079Y-95373559D03*
X147484081Y-95373559D03*
X139217400Y-119405400D03*
X142984076Y-95373559D03*
X133832600Y-99872800D03*
X142984076Y-107073572D03*
X144784078Y-107973573D03*
X146584080Y-95373559D03*
X150184084Y-95373559D03*
X151084085Y-99873564D03*
X162496500Y-116255800D03*
X142984076Y-98073562D03*
X150184084Y-96273560D03*
X142984076Y-107973573D03*
X142984076Y-103473568D03*
X149284083Y-107973573D03*
X150184084Y-105273570D03*
X150184084Y-107973573D03*
X142984076Y-104373569D03*
X142984076Y-99873564D03*
X150184084Y-98973563D03*
X147484081Y-107973573D03*
X159835683Y-124864165D03*
X151084085Y-98973563D03*
X148384082Y-107973573D03*
X161587459Y-110260568D03*
X160783800Y-118395000D03*
X151084085Y-103473568D03*
X150184084Y-104373569D03*
X142984076Y-96273560D03*
X142984076Y-97173561D03*
X150184084Y-107073572D03*
X157048200Y-95504000D03*
X149284083Y-95373559D03*
X142984076Y-100773565D03*
X150184084Y-103473568D03*
X131445000Y-86918800D03*
X142984076Y-105273570D03*
X150184084Y-97173561D03*
X142984076Y-106173571D03*
X144784078Y-95373559D03*
%TO.N,+5V*%
X154996862Y-108952908D03*
X162522900Y-86219564D03*
X159503800Y-97665000D03*
X140462000Y-79146400D03*
X171412400Y-88646000D03*
X151973600Y-81604800D03*
X140868400Y-84658200D03*
X157073600Y-101854000D03*
X164566600Y-101346000D03*
%TO.N,/Battery Charger/VREF*%
X162009824Y-117088745D03*
X165663800Y-118755000D03*
%TO.N,+BATT*%
X158224530Y-113443235D03*
X162712400Y-126543200D03*
X167855900Y-124028200D03*
X158817393Y-121611407D03*
X159380551Y-106735249D03*
X157971100Y-118154200D03*
X155829000Y-123774200D03*
X163979700Y-89611200D03*
X164400629Y-120636429D03*
%TO.N,+24V*%
X134391400Y-109347000D03*
X154469641Y-111390808D03*
%TO.N,VCC*%
X141173200Y-111455200D03*
X149453800Y-122615000D03*
X171393900Y-117063300D03*
X161368541Y-115999200D03*
%TO.N,Net-(U5-SW)*%
X132461000Y-95554800D03*
%TO.N,+5V_PWR*%
X169189400Y-99974400D03*
X168071800Y-132003800D03*
%TO.N,/Power/R_5V_P*%
X157480505Y-108562791D03*
%TO.N,/n_CHG_EN*%
X166979600Y-122910600D03*
X155016200Y-97757200D03*
X165234400Y-83921600D03*
%TO.N,/Power/R_+BATT_N*%
X163753800Y-123647200D03*
%TO.N,+13V*%
X168833800Y-112014000D03*
X148793200Y-86309200D03*
X154329167Y-113410842D03*
X154009399Y-88959999D03*
%TO.N,/EN_5V*%
X154939623Y-95887308D03*
X151793800Y-85095000D03*
X169443800Y-82115000D03*
%TO.N,/EN_MOTOR*%
X166065200Y-95427800D03*
%TO.N,/MOTOR_OUT_DIV*%
X161523800Y-94085000D03*
%TO.N,/CURR_5V*%
X164730357Y-99886843D03*
X153173800Y-84055000D03*
X162423800Y-83795000D03*
%TO.N,/CHG_CURR*%
X165766402Y-112401002D03*
X166674800Y-118028500D03*
X164705064Y-110339043D03*
X163245800Y-80365600D03*
%TO.N,/CURR_+BATT*%
X159803800Y-100715000D03*
%TO.N,/CAN_TX*%
X152037000Y-103753400D03*
%TO.N,/CAN_RX*%
X151263300Y-104706413D03*
%TO.N,/CURR_MOTOR*%
X158978600Y-95110800D03*
%TD*%
D19*
%TO.N,+5V*%
X168325800Y-82727800D02*
X167894000Y-82296000D01*
X167513000Y-87884000D02*
X168325800Y-87071200D01*
X168325800Y-87071200D02*
X168325800Y-82727800D01*
X163245800Y-87884000D02*
X167513000Y-87884000D01*
X161518600Y-89611200D02*
X163245800Y-87884000D01*
X159943800Y-93421200D02*
X161518600Y-91846400D01*
X161518600Y-91846400D02*
X161518600Y-89611200D01*
X159943800Y-94589600D02*
X159943800Y-93421200D01*
%TO.N,/R_MOTOR_N*%
X167792400Y-89585800D02*
X170281600Y-87096600D01*
X167182800Y-89585800D02*
X167792400Y-89585800D01*
%TO.N,+5V*%
X167894000Y-82296000D02*
X164998400Y-79400400D01*
X172212000Y-86614000D02*
X167894000Y-82296000D01*
X164998400Y-79400400D02*
X154178000Y-79400400D01*
X172212000Y-87846400D02*
X172212000Y-86614000D01*
X171412400Y-88646000D02*
X172212000Y-87846400D01*
D20*
%TO.N,+13V*%
X153847800Y-105666990D02*
X153847800Y-99822000D01*
X151447500Y-97421700D02*
X151447500Y-88963500D01*
X152637256Y-106877534D02*
X153847800Y-105666990D01*
X153847800Y-99822000D02*
X151447500Y-97421700D01*
X152637256Y-109965256D02*
X152637256Y-106877534D01*
X157595192Y-110171608D02*
X152843608Y-110171608D01*
X152843608Y-110171608D02*
X152637256Y-109965256D01*
X168833800Y-111404400D02*
X168833800Y-112014000D01*
X166145849Y-108716449D02*
X168833800Y-111404400D01*
X159246192Y-110171608D02*
X160701351Y-108716449D01*
X157595192Y-110171608D02*
X159246192Y-110171608D01*
X160701351Y-108716449D02*
X166145849Y-108716449D01*
D21*
%TO.N,+BATT*%
X170880936Y-110181390D02*
X170880936Y-113000504D01*
X159380551Y-106735249D02*
X159385000Y-106730800D01*
X159385000Y-106730800D02*
X167430346Y-106730800D01*
X167430346Y-106730800D02*
X170880936Y-110181390D01*
D20*
%TO.N,+5V_PWR*%
X174879000Y-111377614D02*
X174879000Y-114196728D01*
X169189400Y-99974400D02*
X169189400Y-105688014D01*
X169189400Y-105688014D02*
X174879000Y-111377614D01*
D19*
%TO.N,Net-(U5-SW)*%
X132461000Y-95554800D02*
X132461000Y-87909400D01*
X132461000Y-87909400D02*
X133324600Y-87045800D01*
D21*
%TO.N,+BATT*%
X164554858Y-120482200D02*
X170733030Y-120482200D01*
X163425651Y-121611407D02*
X158817393Y-121611407D01*
X164400629Y-120636429D02*
X164554858Y-120482200D01*
X164400629Y-120636429D02*
X163425651Y-121611407D01*
D19*
%TO.N,+5V*%
X155707819Y-79400400D02*
X154178000Y-79400400D01*
X162522900Y-86219564D02*
X162522900Y-86215481D01*
X162522900Y-86215481D02*
X155707819Y-79400400D01*
X158013400Y-100914200D02*
X158026100Y-100901500D01*
X158013400Y-103225600D02*
X158013400Y-100914200D01*
X154996862Y-106242138D02*
X158013400Y-103225600D01*
X154996862Y-108952908D02*
X154996862Y-106242138D01*
D22*
%TO.N,/CHG_CURR*%
X163983800Y-81103600D02*
X163245800Y-80365600D01*
X163983800Y-85857339D02*
X163983800Y-81103600D01*
X162847375Y-86993764D02*
X163983800Y-85857339D01*
X159283400Y-88773000D02*
X161062636Y-86993764D01*
X157864683Y-93941601D02*
X159283400Y-92522884D01*
X157864683Y-97565083D02*
X157864683Y-93941601D01*
X158064200Y-97764600D02*
X157864683Y-97565083D01*
X159283400Y-92522884D02*
X159283400Y-88773000D01*
X161062636Y-86993764D02*
X162847375Y-86993764D01*
D19*
%TO.N,+5V*%
X171283800Y-88774600D02*
X171283800Y-93409600D01*
X171412400Y-88646000D02*
X171283800Y-88774600D01*
D20*
%TO.N,+5V_PWR*%
X152933400Y-132003800D02*
X141579600Y-120650000D01*
X168071800Y-132003800D02*
X152933400Y-132003800D01*
D19*
%TO.N,+24V*%
X136287109Y-98273400D02*
X136570400Y-98273400D01*
X135336200Y-99224309D02*
X136287109Y-98273400D01*
X135336200Y-107523200D02*
X135336200Y-99224309D01*
X137160000Y-109347000D02*
X135336200Y-107523200D01*
X137160000Y-109347000D02*
X134391400Y-109347000D01*
X140429998Y-109347000D02*
X137160000Y-109347000D01*
X142473806Y-111390808D02*
X140429998Y-109347000D01*
X154469641Y-111390808D02*
X142473806Y-111390808D01*
D20*
%TO.N,+5V_PWR*%
X168071800Y-128651246D02*
X168071800Y-132003800D01*
X174879000Y-121844046D02*
X168071800Y-128651246D01*
X174879000Y-119634000D02*
X174879000Y-121844046D01*
D19*
X174879000Y-114196728D02*
X174879000Y-119634000D01*
D21*
%TO.N,+BATT*%
X173121100Y-118094130D02*
X170733030Y-120482200D01*
X173121100Y-115240668D02*
X173121100Y-118094130D01*
X170880936Y-113000504D02*
X173121100Y-115240668D01*
X169657640Y-114223800D02*
X164272129Y-114223800D01*
X164272129Y-114223800D02*
X163491564Y-113443235D01*
X163491564Y-113443235D02*
X158224530Y-113443235D01*
X170880936Y-113000504D02*
X169657640Y-114223800D01*
X165789630Y-126543200D02*
X170733030Y-121599800D01*
X170733030Y-121599800D02*
X170733030Y-120482200D01*
X162712400Y-126543200D02*
X165789630Y-126543200D01*
X137735230Y-113588800D02*
X137427000Y-113588800D01*
X148488630Y-124342200D02*
X137735230Y-113588800D01*
X155261000Y-124342200D02*
X148488630Y-124342200D01*
X155829000Y-123774200D02*
X155261000Y-124342200D01*
D19*
%TO.N,VCC*%
X150444200Y-114401600D02*
X152247600Y-116205000D01*
X144119600Y-114401600D02*
X150444200Y-114401600D01*
X141173200Y-111455200D02*
X144119600Y-114401600D01*
X152247600Y-116205000D02*
X150368000Y-116205000D01*
X157791635Y-116205000D02*
X152247600Y-116205000D01*
X147243800Y-116205000D02*
X150368000Y-116205000D01*
X149453800Y-122615000D02*
X149453800Y-117119200D01*
X149453800Y-117119200D02*
X150368000Y-116205000D01*
X158826200Y-115170435D02*
X157791635Y-116205000D01*
X161956976Y-115170435D02*
X158826200Y-115170435D01*
X162077141Y-115290600D02*
X161956976Y-115170435D01*
%TO.N,/Battery Charger/VIN*%
X153393806Y-114630042D02*
X151325800Y-112562036D01*
X156302710Y-113188300D02*
X154860967Y-114630042D01*
X156306243Y-113188300D02*
X156302710Y-113188300D01*
X156305700Y-114122200D02*
X156306243Y-114121657D01*
X156306243Y-114121657D02*
X156306243Y-113188300D01*
X154860967Y-114630042D02*
X153393806Y-114630042D01*
D22*
X157778508Y-111716035D02*
X157791635Y-111716035D01*
X156306243Y-113188300D02*
X157778508Y-111716035D01*
X156305700Y-113188300D02*
X156306243Y-113188300D01*
D19*
X162172165Y-111716035D02*
X162382200Y-111506000D01*
X157791635Y-111716035D02*
X162172165Y-111716035D01*
X162382200Y-111506000D02*
X162382200Y-110901120D01*
X162382200Y-110901120D02*
X162342331Y-110861251D01*
X157784800Y-111709200D02*
X157791635Y-111716035D01*
D22*
X156305700Y-113188300D02*
X156305700Y-114122200D01*
D20*
%TO.N,+13V*%
X154355958Y-113410842D02*
X157595192Y-110171608D01*
X154329167Y-113410842D02*
X154355958Y-113410842D01*
D19*
%TO.N,VCC*%
X162896299Y-115290600D02*
X162077141Y-115290600D01*
X163900900Y-117063300D02*
X163461700Y-116624100D01*
X163461700Y-116624100D02*
X163461700Y-115856001D01*
X171393900Y-117063300D02*
X163900900Y-117063300D01*
X163461700Y-115856001D02*
X162896299Y-115290600D01*
X162077141Y-115290600D02*
X161368541Y-115999200D01*
%TO.N,+5V*%
X140868400Y-81788000D02*
X143510000Y-79146400D01*
X158026100Y-100901500D02*
X160934400Y-97993200D01*
X157073600Y-101854000D02*
X158026100Y-100901500D01*
X160934400Y-96570800D02*
X160934400Y-95580200D01*
X162102800Y-98882200D02*
X162102800Y-97840800D01*
X160934400Y-97993200D02*
X160934400Y-96570800D01*
X162102800Y-97840800D02*
X160934400Y-96672400D01*
X160934400Y-96672400D02*
X160934400Y-96570800D01*
X164566600Y-101346000D02*
X162102800Y-98882200D01*
X160934400Y-95580200D02*
X159943800Y-94589600D01*
X159943800Y-97225000D02*
X159943800Y-94589600D01*
X159503800Y-97665000D02*
X159943800Y-97225000D01*
%TO.N,/CURR_13V*%
X156083000Y-95935632D02*
X156819768Y-96672400D01*
X157149800Y-83286600D02*
X156083000Y-84353400D01*
X156083000Y-84353400D02*
X156083000Y-95935632D01*
X157149800Y-83280800D02*
X157149800Y-83286600D01*
%TO.N,+5V*%
X140868400Y-84658200D02*
X140868400Y-81788000D01*
X150037800Y-79400400D02*
X154178000Y-79400400D01*
X149783800Y-79146400D02*
X150037800Y-79400400D01*
X140462000Y-79146400D02*
X149783800Y-79146400D01*
X154178000Y-79400400D02*
X151973600Y-81604800D01*
X171283800Y-95213000D02*
X171283800Y-93409600D01*
X170408404Y-96088396D02*
X171283800Y-95213000D01*
X168970527Y-96088396D02*
X170408404Y-96088396D01*
X171283800Y-93409600D02*
X169697400Y-94996000D01*
D21*
%TO.N,+BATT*%
X157971100Y-121047900D02*
X157971100Y-118154200D01*
X157962600Y-121056400D02*
X157971100Y-121047900D01*
X158517607Y-121611407D02*
X157962600Y-121056400D01*
X158817393Y-121611407D02*
X158517607Y-121611407D01*
X158646165Y-126591365D02*
X155829000Y-123774200D01*
X162664235Y-126591365D02*
X158646165Y-126591365D01*
X162712400Y-126543200D02*
X162664235Y-126591365D01*
X163251000Y-90339900D02*
X163979700Y-89611200D01*
X166457557Y-101897673D02*
X166457557Y-99171413D01*
X166457557Y-99171413D02*
X163251000Y-95964856D01*
X163251000Y-95964856D02*
X163251000Y-90339900D01*
X159380551Y-106735249D02*
X161619981Y-106735249D01*
X161619981Y-106735249D02*
X166457557Y-101897673D01*
D19*
%TO.N,/Power/R_13V_P*%
X151561800Y-86588600D02*
X149093770Y-84120570D01*
X149093770Y-84120570D02*
X149089100Y-84120570D01*
X154702902Y-87325200D02*
X153966302Y-86588600D01*
X153966302Y-86588600D02*
X151561800Y-86588600D01*
%TO.N,Net-(U5-SW)*%
X133324600Y-86487000D02*
X137363200Y-82448400D01*
X133324600Y-87045800D02*
X133324600Y-86487000D01*
X133324600Y-87045800D02*
X134797800Y-87045800D01*
D20*
%TO.N,+13V*%
X154009399Y-88959999D02*
X151451001Y-88959999D01*
X148793200Y-86309200D02*
X151447500Y-88963500D01*
X151451001Y-88959999D02*
X151447500Y-88963500D01*
%TD*%
M02*
