%TF.GenerationSoftware,KiCad,Pcbnew,(6.0.4)*%
%TF.CreationDate,2023-04-05T19:58:25-04:00*%
%TF.ProjectId,charging_on_the_pad,63686172-6769-46e6-975f-6f6e5f746865,rev?*%
%TF.SameCoordinates,Original*%
%TF.FileFunction,Legend,Top*%
%TF.FilePolarity,Positive*%
%FSLAX46Y46*%
G04 Gerber Fmt 4.6, Leading zero omitted, Abs format (unit mm)*
G04 Created by KiCad (PCBNEW (6.0.4)) date 2023-04-05 19:58:25*
%MOMM*%
%LPD*%
G01*
G04 APERTURE LIST*
%ADD10C,0.152400*%
%ADD11C,0.150000*%
%ADD12C,0.120000*%
%ADD13C,0.250000*%
%ADD14C,0.260000*%
G04 APERTURE END LIST*
D10*
X154672571Y-97987047D02*
X154672571Y-97212952D01*
X155059619Y-97600000D02*
X154285523Y-97600000D01*
X154672571Y-106187047D02*
X154672571Y-105412952D01*
D11*
%TO.C,J2*%
X135059066Y-128108780D02*
X135059066Y-128823066D01*
X135011447Y-128965923D01*
X134916209Y-129061161D01*
X134773352Y-129108780D01*
X134678114Y-129108780D01*
X135487638Y-128204019D02*
X135535257Y-128156400D01*
X135630495Y-128108780D01*
X135868590Y-128108780D01*
X135963828Y-128156400D01*
X136011447Y-128204019D01*
X136059066Y-128299257D01*
X136059066Y-128394495D01*
X136011447Y-128537352D01*
X135440019Y-129108780D01*
X136059066Y-129108780D01*
%TO.C,C28*%
X133857142Y-124242857D02*
X133904761Y-124290476D01*
X133952380Y-124433333D01*
X133952380Y-124528571D01*
X133904761Y-124671428D01*
X133809523Y-124766666D01*
X133714285Y-124814285D01*
X133523809Y-124861904D01*
X133380952Y-124861904D01*
X133190476Y-124814285D01*
X133095238Y-124766666D01*
X133000000Y-124671428D01*
X132952380Y-124528571D01*
X132952380Y-124433333D01*
X133000000Y-124290476D01*
X133047619Y-124242857D01*
X133047619Y-123861904D02*
X133000000Y-123814285D01*
X132952380Y-123719047D01*
X132952380Y-123480952D01*
X133000000Y-123385714D01*
X133047619Y-123338095D01*
X133142857Y-123290476D01*
X133238095Y-123290476D01*
X133380952Y-123338095D01*
X133952380Y-123909523D01*
X133952380Y-123290476D01*
X133380952Y-122719047D02*
X133333333Y-122814285D01*
X133285714Y-122861904D01*
X133190476Y-122909523D01*
X133142857Y-122909523D01*
X133047619Y-122861904D01*
X133000000Y-122814285D01*
X132952380Y-122719047D01*
X132952380Y-122528571D01*
X133000000Y-122433333D01*
X133047619Y-122385714D01*
X133142857Y-122338095D01*
X133190476Y-122338095D01*
X133285714Y-122385714D01*
X133333333Y-122433333D01*
X133380952Y-122528571D01*
X133380952Y-122719047D01*
X133428571Y-122814285D01*
X133476190Y-122861904D01*
X133571428Y-122909523D01*
X133761904Y-122909523D01*
X133857142Y-122861904D01*
X133904761Y-122814285D01*
X133952380Y-122719047D01*
X133952380Y-122528571D01*
X133904761Y-122433333D01*
X133857142Y-122385714D01*
X133761904Y-122338095D01*
X133571428Y-122338095D01*
X133476190Y-122385714D01*
X133428571Y-122433333D01*
X133380952Y-122528571D01*
%TO.C,C3*%
X152749933Y-111927942D02*
X152702314Y-111975561D01*
X152559457Y-112023180D01*
X152464219Y-112023180D01*
X152321361Y-111975561D01*
X152226123Y-111880323D01*
X152178504Y-111785085D01*
X152130885Y-111594609D01*
X152130885Y-111451752D01*
X152178504Y-111261276D01*
X152226123Y-111166038D01*
X152321361Y-111070800D01*
X152464219Y-111023180D01*
X152559457Y-111023180D01*
X152702314Y-111070800D01*
X152749933Y-111118419D01*
X153083266Y-111023180D02*
X153702314Y-111023180D01*
X153368980Y-111404133D01*
X153511838Y-111404133D01*
X153607076Y-111451752D01*
X153654695Y-111499371D01*
X153702314Y-111594609D01*
X153702314Y-111832704D01*
X153654695Y-111927942D01*
X153607076Y-111975561D01*
X153511838Y-112023180D01*
X153226123Y-112023180D01*
X153130885Y-111975561D01*
X153083266Y-111927942D01*
%TO.C,R23*%
X153221892Y-124326030D02*
X152888559Y-123849840D01*
X152650464Y-124326030D02*
X152650464Y-123326030D01*
X153031416Y-123326030D01*
X153126654Y-123373650D01*
X153174273Y-123421269D01*
X153221892Y-123516507D01*
X153221892Y-123659364D01*
X153174273Y-123754602D01*
X153126654Y-123802221D01*
X153031416Y-123849840D01*
X152650464Y-123849840D01*
X153602845Y-123421269D02*
X153650464Y-123373650D01*
X153745702Y-123326030D01*
X153983797Y-123326030D01*
X154079035Y-123373650D01*
X154126654Y-123421269D01*
X154174273Y-123516507D01*
X154174273Y-123611745D01*
X154126654Y-123754602D01*
X153555226Y-124326030D01*
X154174273Y-124326030D01*
X154507607Y-123326030D02*
X155126654Y-123326030D01*
X154793321Y-123706983D01*
X154936178Y-123706983D01*
X155031416Y-123754602D01*
X155079035Y-123802221D01*
X155126654Y-123897459D01*
X155126654Y-124135554D01*
X155079035Y-124230792D01*
X155031416Y-124278411D01*
X154936178Y-124326030D01*
X154650464Y-124326030D01*
X154555226Y-124278411D01*
X154507607Y-124230792D01*
%TO.C,L3*%
X125333333Y-115352380D02*
X124857142Y-115352380D01*
X124857142Y-114352380D01*
X125571428Y-114352380D02*
X126190476Y-114352380D01*
X125857142Y-114733333D01*
X126000000Y-114733333D01*
X126095238Y-114780952D01*
X126142857Y-114828571D01*
X126190476Y-114923809D01*
X126190476Y-115161904D01*
X126142857Y-115257142D01*
X126095238Y-115304761D01*
X126000000Y-115352380D01*
X125714285Y-115352380D01*
X125619047Y-115304761D01*
X125571428Y-115257142D01*
%TO.C,R9*%
X125152380Y-97116666D02*
X124676190Y-97450000D01*
X125152380Y-97688095D02*
X124152380Y-97688095D01*
X124152380Y-97307142D01*
X124200000Y-97211904D01*
X124247619Y-97164285D01*
X124342857Y-97116666D01*
X124485714Y-97116666D01*
X124580952Y-97164285D01*
X124628571Y-97211904D01*
X124676190Y-97307142D01*
X124676190Y-97688095D01*
X125152380Y-96640476D02*
X125152380Y-96450000D01*
X125104761Y-96354761D01*
X125057142Y-96307142D01*
X124914285Y-96211904D01*
X124723809Y-96164285D01*
X124342857Y-96164285D01*
X124247619Y-96211904D01*
X124200000Y-96259523D01*
X124152380Y-96354761D01*
X124152380Y-96545238D01*
X124200000Y-96640476D01*
X124247619Y-96688095D01*
X124342857Y-96735714D01*
X124580952Y-96735714D01*
X124676190Y-96688095D01*
X124723809Y-96640476D01*
X124771428Y-96545238D01*
X124771428Y-96354761D01*
X124723809Y-96259523D01*
X124676190Y-96211904D01*
X124580952Y-96164285D01*
%TO.C,C31*%
X167757142Y-123342857D02*
X167804761Y-123390476D01*
X167852380Y-123533333D01*
X167852380Y-123628571D01*
X167804761Y-123771428D01*
X167709523Y-123866666D01*
X167614285Y-123914285D01*
X167423809Y-123961904D01*
X167280952Y-123961904D01*
X167090476Y-123914285D01*
X166995238Y-123866666D01*
X166900000Y-123771428D01*
X166852380Y-123628571D01*
X166852380Y-123533333D01*
X166900000Y-123390476D01*
X166947619Y-123342857D01*
X166852380Y-123009523D02*
X166852380Y-122390476D01*
X167233333Y-122723809D01*
X167233333Y-122580952D01*
X167280952Y-122485714D01*
X167328571Y-122438095D01*
X167423809Y-122390476D01*
X167661904Y-122390476D01*
X167757142Y-122438095D01*
X167804761Y-122485714D01*
X167852380Y-122580952D01*
X167852380Y-122866666D01*
X167804761Y-122961904D01*
X167757142Y-123009523D01*
X167852380Y-121438095D02*
X167852380Y-122009523D01*
X167852380Y-121723809D02*
X166852380Y-121723809D01*
X166995238Y-121819047D01*
X167090476Y-121914285D01*
X167138095Y-122009523D01*
%TO.C,R11*%
X133452380Y-87942857D02*
X132976190Y-88276190D01*
X133452380Y-88514285D02*
X132452380Y-88514285D01*
X132452380Y-88133333D01*
X132500000Y-88038095D01*
X132547619Y-87990476D01*
X132642857Y-87942857D01*
X132785714Y-87942857D01*
X132880952Y-87990476D01*
X132928571Y-88038095D01*
X132976190Y-88133333D01*
X132976190Y-88514285D01*
X133452380Y-86990476D02*
X133452380Y-87561904D01*
X133452380Y-87276190D02*
X132452380Y-87276190D01*
X132595238Y-87371428D01*
X132690476Y-87466666D01*
X132738095Y-87561904D01*
X133452380Y-86038095D02*
X133452380Y-86609523D01*
X133452380Y-86323809D02*
X132452380Y-86323809D01*
X132595238Y-86419047D01*
X132690476Y-86514285D01*
X132738095Y-86609523D01*
%TO.C,Q5*%
X159747619Y-126145238D02*
X159700000Y-126240476D01*
X159604761Y-126335714D01*
X159461904Y-126478571D01*
X159414285Y-126573809D01*
X159414285Y-126669047D01*
X159652380Y-126621428D02*
X159604761Y-126716666D01*
X159509523Y-126811904D01*
X159319047Y-126859523D01*
X158985714Y-126859523D01*
X158795238Y-126811904D01*
X158700000Y-126716666D01*
X158652380Y-126621428D01*
X158652380Y-126430952D01*
X158700000Y-126335714D01*
X158795238Y-126240476D01*
X158985714Y-126192857D01*
X159319047Y-126192857D01*
X159509523Y-126240476D01*
X159604761Y-126335714D01*
X159652380Y-126430952D01*
X159652380Y-126621428D01*
X158652380Y-125288095D02*
X158652380Y-125764285D01*
X159128571Y-125811904D01*
X159080952Y-125764285D01*
X159033333Y-125669047D01*
X159033333Y-125430952D01*
X159080952Y-125335714D01*
X159128571Y-125288095D01*
X159223809Y-125240476D01*
X159461904Y-125240476D01*
X159557142Y-125288095D01*
X159604761Y-125335714D01*
X159652380Y-125430952D01*
X159652380Y-125669047D01*
X159604761Y-125764285D01*
X159557142Y-125811904D01*
%TO.C,C4*%
X163133333Y-113757142D02*
X163085714Y-113804761D01*
X162942857Y-113852380D01*
X162847619Y-113852380D01*
X162704761Y-113804761D01*
X162609523Y-113709523D01*
X162561904Y-113614285D01*
X162514285Y-113423809D01*
X162514285Y-113280952D01*
X162561904Y-113090476D01*
X162609523Y-112995238D01*
X162704761Y-112900000D01*
X162847619Y-112852380D01*
X162942857Y-112852380D01*
X163085714Y-112900000D01*
X163133333Y-112947619D01*
X163990476Y-113185714D02*
X163990476Y-113852380D01*
X163752380Y-112804761D02*
X163514285Y-113519047D01*
X164133333Y-113519047D01*
%TO.C,U4*%
X139438095Y-123608780D02*
X139438095Y-124418304D01*
X139485714Y-124513542D01*
X139533333Y-124561161D01*
X139628571Y-124608780D01*
X139819047Y-124608780D01*
X139914285Y-124561161D01*
X139961904Y-124513542D01*
X140009523Y-124418304D01*
X140009523Y-123608780D01*
X140914285Y-123942114D02*
X140914285Y-124608780D01*
X140676190Y-123561161D02*
X140438095Y-124275447D01*
X141057142Y-124275447D01*
%TO.C,C26*%
X135157142Y-124242857D02*
X135204761Y-124290476D01*
X135252380Y-124433333D01*
X135252380Y-124528571D01*
X135204761Y-124671428D01*
X135109523Y-124766666D01*
X135014285Y-124814285D01*
X134823809Y-124861904D01*
X134680952Y-124861904D01*
X134490476Y-124814285D01*
X134395238Y-124766666D01*
X134300000Y-124671428D01*
X134252380Y-124528571D01*
X134252380Y-124433333D01*
X134300000Y-124290476D01*
X134347619Y-124242857D01*
X134347619Y-123861904D02*
X134300000Y-123814285D01*
X134252380Y-123719047D01*
X134252380Y-123480952D01*
X134300000Y-123385714D01*
X134347619Y-123338095D01*
X134442857Y-123290476D01*
X134538095Y-123290476D01*
X134680952Y-123338095D01*
X135252380Y-123909523D01*
X135252380Y-123290476D01*
X134252380Y-122433333D02*
X134252380Y-122623809D01*
X134300000Y-122719047D01*
X134347619Y-122766666D01*
X134490476Y-122861904D01*
X134680952Y-122909523D01*
X135061904Y-122909523D01*
X135157142Y-122861904D01*
X135204761Y-122814285D01*
X135252380Y-122719047D01*
X135252380Y-122528571D01*
X135204761Y-122433333D01*
X135157142Y-122385714D01*
X135061904Y-122338095D01*
X134823809Y-122338095D01*
X134728571Y-122385714D01*
X134680952Y-122433333D01*
X134633333Y-122528571D01*
X134633333Y-122719047D01*
X134680952Y-122814285D01*
X134728571Y-122861904D01*
X134823809Y-122909523D01*
%TO.C,R6*%
X146794780Y-111723066D02*
X146318590Y-112056400D01*
X146794780Y-112294495D02*
X145794780Y-112294495D01*
X145794780Y-111913542D01*
X145842400Y-111818304D01*
X145890019Y-111770685D01*
X145985257Y-111723066D01*
X146128114Y-111723066D01*
X146223352Y-111770685D01*
X146270971Y-111818304D01*
X146318590Y-111913542D01*
X146318590Y-112294495D01*
X145794780Y-110865923D02*
X145794780Y-111056400D01*
X145842400Y-111151638D01*
X145890019Y-111199257D01*
X146032876Y-111294495D01*
X146223352Y-111342114D01*
X146604304Y-111342114D01*
X146699542Y-111294495D01*
X146747161Y-111246876D01*
X146794780Y-111151638D01*
X146794780Y-110961161D01*
X146747161Y-110865923D01*
X146699542Y-110818304D01*
X146604304Y-110770685D01*
X146366209Y-110770685D01*
X146270971Y-110818304D01*
X146223352Y-110865923D01*
X146175733Y-110961161D01*
X146175733Y-111151638D01*
X146223352Y-111246876D01*
X146270971Y-111294495D01*
X146366209Y-111342114D01*
%TO.C,C23*%
X131357142Y-115757142D02*
X131309523Y-115804761D01*
X131166666Y-115852380D01*
X131071428Y-115852380D01*
X130928571Y-115804761D01*
X130833333Y-115709523D01*
X130785714Y-115614285D01*
X130738095Y-115423809D01*
X130738095Y-115280952D01*
X130785714Y-115090476D01*
X130833333Y-114995238D01*
X130928571Y-114900000D01*
X131071428Y-114852380D01*
X131166666Y-114852380D01*
X131309523Y-114900000D01*
X131357142Y-114947619D01*
X131738095Y-114947619D02*
X131785714Y-114900000D01*
X131880952Y-114852380D01*
X132119047Y-114852380D01*
X132214285Y-114900000D01*
X132261904Y-114947619D01*
X132309523Y-115042857D01*
X132309523Y-115138095D01*
X132261904Y-115280952D01*
X131690476Y-115852380D01*
X132309523Y-115852380D01*
X132642857Y-114852380D02*
X133261904Y-114852380D01*
X132928571Y-115233333D01*
X133071428Y-115233333D01*
X133166666Y-115280952D01*
X133214285Y-115328571D01*
X133261904Y-115423809D01*
X133261904Y-115661904D01*
X133214285Y-115757142D01*
X133166666Y-115804761D01*
X133071428Y-115852380D01*
X132785714Y-115852380D01*
X132690476Y-115804761D01*
X132642857Y-115757142D01*
%TO.C,R18*%
X149107142Y-114202380D02*
X148773809Y-113726190D01*
X148535714Y-114202380D02*
X148535714Y-113202380D01*
X148916666Y-113202380D01*
X149011904Y-113250000D01*
X149059523Y-113297619D01*
X149107142Y-113392857D01*
X149107142Y-113535714D01*
X149059523Y-113630952D01*
X149011904Y-113678571D01*
X148916666Y-113726190D01*
X148535714Y-113726190D01*
X150059523Y-114202380D02*
X149488095Y-114202380D01*
X149773809Y-114202380D02*
X149773809Y-113202380D01*
X149678571Y-113345238D01*
X149583333Y-113440476D01*
X149488095Y-113488095D01*
X150630952Y-113630952D02*
X150535714Y-113583333D01*
X150488095Y-113535714D01*
X150440476Y-113440476D01*
X150440476Y-113392857D01*
X150488095Y-113297619D01*
X150535714Y-113250000D01*
X150630952Y-113202380D01*
X150821428Y-113202380D01*
X150916666Y-113250000D01*
X150964285Y-113297619D01*
X151011904Y-113392857D01*
X151011904Y-113440476D01*
X150964285Y-113535714D01*
X150916666Y-113583333D01*
X150821428Y-113630952D01*
X150630952Y-113630952D01*
X150535714Y-113678571D01*
X150488095Y-113726190D01*
X150440476Y-113821428D01*
X150440476Y-114011904D01*
X150488095Y-114107142D01*
X150535714Y-114154761D01*
X150630952Y-114202380D01*
X150821428Y-114202380D01*
X150916666Y-114154761D01*
X150964285Y-114107142D01*
X151011904Y-114011904D01*
X151011904Y-113821428D01*
X150964285Y-113726190D01*
X150916666Y-113678571D01*
X150821428Y-113630952D01*
%TO.C,C9*%
X135583333Y-92357142D02*
X135535714Y-92404761D01*
X135392857Y-92452380D01*
X135297619Y-92452380D01*
X135154761Y-92404761D01*
X135059523Y-92309523D01*
X135011904Y-92214285D01*
X134964285Y-92023809D01*
X134964285Y-91880952D01*
X135011904Y-91690476D01*
X135059523Y-91595238D01*
X135154761Y-91500000D01*
X135297619Y-91452380D01*
X135392857Y-91452380D01*
X135535714Y-91500000D01*
X135583333Y-91547619D01*
X136059523Y-92452380D02*
X136250000Y-92452380D01*
X136345238Y-92404761D01*
X136392857Y-92357142D01*
X136488095Y-92214285D01*
X136535714Y-92023809D01*
X136535714Y-91642857D01*
X136488095Y-91547619D01*
X136440476Y-91500000D01*
X136345238Y-91452380D01*
X136154761Y-91452380D01*
X136059523Y-91500000D01*
X136011904Y-91547619D01*
X135964285Y-91642857D01*
X135964285Y-91880952D01*
X136011904Y-91976190D01*
X136059523Y-92023809D01*
X136154761Y-92071428D01*
X136345238Y-92071428D01*
X136440476Y-92023809D01*
X136488095Y-91976190D01*
X136535714Y-91880952D01*
%TO.C,U6*%
X126338095Y-115552380D02*
X126338095Y-116361904D01*
X126385714Y-116457142D01*
X126433333Y-116504761D01*
X126528571Y-116552380D01*
X126719047Y-116552380D01*
X126814285Y-116504761D01*
X126861904Y-116457142D01*
X126909523Y-116361904D01*
X126909523Y-115552380D01*
X127814285Y-115552380D02*
X127623809Y-115552380D01*
X127528571Y-115600000D01*
X127480952Y-115647619D01*
X127385714Y-115790476D01*
X127338095Y-115980952D01*
X127338095Y-116361904D01*
X127385714Y-116457142D01*
X127433333Y-116504761D01*
X127528571Y-116552380D01*
X127719047Y-116552380D01*
X127814285Y-116504761D01*
X127861904Y-116457142D01*
X127909523Y-116361904D01*
X127909523Y-116123809D01*
X127861904Y-116028571D01*
X127814285Y-115980952D01*
X127719047Y-115933333D01*
X127528571Y-115933333D01*
X127433333Y-115980952D01*
X127385714Y-116028571D01*
X127338095Y-116123809D01*
%TO.C,J4*%
X154066666Y-92752380D02*
X154066666Y-93466666D01*
X154019047Y-93609523D01*
X153923809Y-93704761D01*
X153780952Y-93752380D01*
X153685714Y-93752380D01*
X154971428Y-93085714D02*
X154971428Y-93752380D01*
X154733333Y-92704761D02*
X154495238Y-93419047D01*
X155114285Y-93419047D01*
%TO.C,TP6*%
X151738095Y-109352380D02*
X152309523Y-109352380D01*
X152023809Y-110352380D02*
X152023809Y-109352380D01*
X152642857Y-110352380D02*
X152642857Y-109352380D01*
X153023809Y-109352380D01*
X153119047Y-109400000D01*
X153166666Y-109447619D01*
X153214285Y-109542857D01*
X153214285Y-109685714D01*
X153166666Y-109780952D01*
X153119047Y-109828571D01*
X153023809Y-109876190D01*
X152642857Y-109876190D01*
X154071428Y-109352380D02*
X153880952Y-109352380D01*
X153785714Y-109400000D01*
X153738095Y-109447619D01*
X153642857Y-109590476D01*
X153595238Y-109780952D01*
X153595238Y-110161904D01*
X153642857Y-110257142D01*
X153690476Y-110304761D01*
X153785714Y-110352380D01*
X153976190Y-110352380D01*
X154071428Y-110304761D01*
X154119047Y-110257142D01*
X154166666Y-110161904D01*
X154166666Y-109923809D01*
X154119047Y-109828571D01*
X154071428Y-109780952D01*
X153976190Y-109733333D01*
X153785714Y-109733333D01*
X153690476Y-109780952D01*
X153642857Y-109828571D01*
X153595238Y-109923809D01*
%TO.C,C33*%
X142749542Y-115099257D02*
X142797161Y-115146876D01*
X142844780Y-115289733D01*
X142844780Y-115384971D01*
X142797161Y-115527828D01*
X142701923Y-115623066D01*
X142606685Y-115670685D01*
X142416209Y-115718304D01*
X142273352Y-115718304D01*
X142082876Y-115670685D01*
X141987638Y-115623066D01*
X141892400Y-115527828D01*
X141844780Y-115384971D01*
X141844780Y-115289733D01*
X141892400Y-115146876D01*
X141940019Y-115099257D01*
X141844780Y-114765923D02*
X141844780Y-114146876D01*
X142225733Y-114480209D01*
X142225733Y-114337352D01*
X142273352Y-114242114D01*
X142320971Y-114194495D01*
X142416209Y-114146876D01*
X142654304Y-114146876D01*
X142749542Y-114194495D01*
X142797161Y-114242114D01*
X142844780Y-114337352D01*
X142844780Y-114623066D01*
X142797161Y-114718304D01*
X142749542Y-114765923D01*
X141844780Y-113813542D02*
X141844780Y-113194495D01*
X142225733Y-113527828D01*
X142225733Y-113384971D01*
X142273352Y-113289733D01*
X142320971Y-113242114D01*
X142416209Y-113194495D01*
X142654304Y-113194495D01*
X142749542Y-113242114D01*
X142797161Y-113289733D01*
X142844780Y-113384971D01*
X142844780Y-113670685D01*
X142797161Y-113765923D01*
X142749542Y-113813542D01*
%TO.C,TP8*%
X131452380Y-127661904D02*
X131452380Y-127090476D01*
X132452380Y-127376190D02*
X131452380Y-127376190D01*
X132452380Y-126757142D02*
X131452380Y-126757142D01*
X131452380Y-126376190D01*
X131500000Y-126280952D01*
X131547619Y-126233333D01*
X131642857Y-126185714D01*
X131785714Y-126185714D01*
X131880952Y-126233333D01*
X131928571Y-126280952D01*
X131976190Y-126376190D01*
X131976190Y-126757142D01*
X131880952Y-125614285D02*
X131833333Y-125709523D01*
X131785714Y-125757142D01*
X131690476Y-125804761D01*
X131642857Y-125804761D01*
X131547619Y-125757142D01*
X131500000Y-125709523D01*
X131452380Y-125614285D01*
X131452380Y-125423809D01*
X131500000Y-125328571D01*
X131547619Y-125280952D01*
X131642857Y-125233333D01*
X131690476Y-125233333D01*
X131785714Y-125280952D01*
X131833333Y-125328571D01*
X131880952Y-125423809D01*
X131880952Y-125614285D01*
X131928571Y-125709523D01*
X131976190Y-125757142D01*
X132071428Y-125804761D01*
X132261904Y-125804761D01*
X132357142Y-125757142D01*
X132404761Y-125709523D01*
X132452380Y-125614285D01*
X132452380Y-125423809D01*
X132404761Y-125328571D01*
X132357142Y-125280952D01*
X132261904Y-125233333D01*
X132071428Y-125233333D01*
X131976190Y-125280952D01*
X131928571Y-125328571D01*
X131880952Y-125423809D01*
%TO.C,TP7*%
X126802380Y-100311904D02*
X126802380Y-99740476D01*
X127802380Y-100026190D02*
X126802380Y-100026190D01*
X127802380Y-99407142D02*
X126802380Y-99407142D01*
X126802380Y-99026190D01*
X126850000Y-98930952D01*
X126897619Y-98883333D01*
X126992857Y-98835714D01*
X127135714Y-98835714D01*
X127230952Y-98883333D01*
X127278571Y-98930952D01*
X127326190Y-99026190D01*
X127326190Y-99407142D01*
X126802380Y-98502380D02*
X126802380Y-97835714D01*
X127802380Y-98264285D01*
%TO.C,R8*%
X150844780Y-111723066D02*
X150368590Y-112056400D01*
X150844780Y-112294495D02*
X149844780Y-112294495D01*
X149844780Y-111913542D01*
X149892400Y-111818304D01*
X149940019Y-111770685D01*
X150035257Y-111723066D01*
X150178114Y-111723066D01*
X150273352Y-111770685D01*
X150320971Y-111818304D01*
X150368590Y-111913542D01*
X150368590Y-112294495D01*
X150273352Y-111151638D02*
X150225733Y-111246876D01*
X150178114Y-111294495D01*
X150082876Y-111342114D01*
X150035257Y-111342114D01*
X149940019Y-111294495D01*
X149892400Y-111246876D01*
X149844780Y-111151638D01*
X149844780Y-110961161D01*
X149892400Y-110865923D01*
X149940019Y-110818304D01*
X150035257Y-110770685D01*
X150082876Y-110770685D01*
X150178114Y-110818304D01*
X150225733Y-110865923D01*
X150273352Y-110961161D01*
X150273352Y-111151638D01*
X150320971Y-111246876D01*
X150368590Y-111294495D01*
X150463828Y-111342114D01*
X150654304Y-111342114D01*
X150749542Y-111294495D01*
X150797161Y-111246876D01*
X150844780Y-111151638D01*
X150844780Y-110961161D01*
X150797161Y-110865923D01*
X150749542Y-110818304D01*
X150654304Y-110770685D01*
X150463828Y-110770685D01*
X150368590Y-110818304D01*
X150320971Y-110865923D01*
X150273352Y-110961161D01*
%TO.C,Q1*%
X128173161Y-96247619D02*
X128077923Y-96200000D01*
X127982685Y-96104761D01*
X127839828Y-95961904D01*
X127744590Y-95914285D01*
X127649352Y-95914285D01*
X127696971Y-96152380D02*
X127601733Y-96104761D01*
X127506495Y-96009523D01*
X127458876Y-95819047D01*
X127458876Y-95485714D01*
X127506495Y-95295238D01*
X127601733Y-95200000D01*
X127696971Y-95152380D01*
X127887447Y-95152380D01*
X127982685Y-95200000D01*
X128077923Y-95295238D01*
X128125542Y-95485714D01*
X128125542Y-95819047D01*
X128077923Y-96009523D01*
X127982685Y-96104761D01*
X127887447Y-96152380D01*
X127696971Y-96152380D01*
X129077923Y-96152380D02*
X128506495Y-96152380D01*
X128792209Y-96152380D02*
X128792209Y-95152380D01*
X128696971Y-95295238D01*
X128601733Y-95390476D01*
X128506495Y-95438095D01*
%TO.C,U2*%
X161602380Y-116611904D02*
X162411904Y-116611904D01*
X162507142Y-116564285D01*
X162554761Y-116516666D01*
X162602380Y-116421428D01*
X162602380Y-116230952D01*
X162554761Y-116135714D01*
X162507142Y-116088095D01*
X162411904Y-116040476D01*
X161602380Y-116040476D01*
X161697619Y-115611904D02*
X161650000Y-115564285D01*
X161602380Y-115469047D01*
X161602380Y-115230952D01*
X161650000Y-115135714D01*
X161697619Y-115088095D01*
X161792857Y-115040476D01*
X161888095Y-115040476D01*
X162030952Y-115088095D01*
X162602380Y-115659523D01*
X162602380Y-115040476D01*
%TO.C,Q2*%
X139104761Y-101347619D02*
X139009523Y-101300000D01*
X138914285Y-101204761D01*
X138771428Y-101061904D01*
X138676190Y-101014285D01*
X138580952Y-101014285D01*
X138628571Y-101252380D02*
X138533333Y-101204761D01*
X138438095Y-101109523D01*
X138390476Y-100919047D01*
X138390476Y-100585714D01*
X138438095Y-100395238D01*
X138533333Y-100300000D01*
X138628571Y-100252380D01*
X138819047Y-100252380D01*
X138914285Y-100300000D01*
X139009523Y-100395238D01*
X139057142Y-100585714D01*
X139057142Y-100919047D01*
X139009523Y-101109523D01*
X138914285Y-101204761D01*
X138819047Y-101252380D01*
X138628571Y-101252380D01*
X139438095Y-100347619D02*
X139485714Y-100300000D01*
X139580952Y-100252380D01*
X139819047Y-100252380D01*
X139914285Y-100300000D01*
X139961904Y-100347619D01*
X140009523Y-100442857D01*
X140009523Y-100538095D01*
X139961904Y-100680952D01*
X139390476Y-101252380D01*
X140009523Y-101252380D01*
%TO.C,C7*%
X141049542Y-90723066D02*
X141097161Y-90770685D01*
X141144780Y-90913542D01*
X141144780Y-91008780D01*
X141097161Y-91151638D01*
X141001923Y-91246876D01*
X140906685Y-91294495D01*
X140716209Y-91342114D01*
X140573352Y-91342114D01*
X140382876Y-91294495D01*
X140287638Y-91246876D01*
X140192400Y-91151638D01*
X140144780Y-91008780D01*
X140144780Y-90913542D01*
X140192400Y-90770685D01*
X140240019Y-90723066D01*
X140144780Y-90389733D02*
X140144780Y-89723066D01*
X141144780Y-90151638D01*
%TO.C,F1*%
X160159066Y-91584971D02*
X159825733Y-91584971D01*
X159825733Y-92108780D02*
X159825733Y-91108780D01*
X160301923Y-91108780D01*
X161206685Y-92108780D02*
X160635257Y-92108780D01*
X160920971Y-92108780D02*
X160920971Y-91108780D01*
X160825733Y-91251638D01*
X160730495Y-91346876D01*
X160635257Y-91394495D01*
%TO.C,L2*%
X142533333Y-124852380D02*
X142057142Y-124852380D01*
X142057142Y-123852380D01*
X142819047Y-123947619D02*
X142866666Y-123900000D01*
X142961904Y-123852380D01*
X143200000Y-123852380D01*
X143295238Y-123900000D01*
X143342857Y-123947619D01*
X143390476Y-124042857D01*
X143390476Y-124138095D01*
X143342857Y-124280952D01*
X142771428Y-124852380D01*
X143390476Y-124852380D01*
%TO.C,C22*%
X138949542Y-115199257D02*
X138997161Y-115246876D01*
X139044780Y-115389733D01*
X139044780Y-115484971D01*
X138997161Y-115627828D01*
X138901923Y-115723066D01*
X138806685Y-115770685D01*
X138616209Y-115818304D01*
X138473352Y-115818304D01*
X138282876Y-115770685D01*
X138187638Y-115723066D01*
X138092400Y-115627828D01*
X138044780Y-115484971D01*
X138044780Y-115389733D01*
X138092400Y-115246876D01*
X138140019Y-115199257D01*
X138140019Y-114818304D02*
X138092400Y-114770685D01*
X138044780Y-114675447D01*
X138044780Y-114437352D01*
X138092400Y-114342114D01*
X138140019Y-114294495D01*
X138235257Y-114246876D01*
X138330495Y-114246876D01*
X138473352Y-114294495D01*
X139044780Y-114865923D01*
X139044780Y-114246876D01*
X138140019Y-113865923D02*
X138092400Y-113818304D01*
X138044780Y-113723066D01*
X138044780Y-113484971D01*
X138092400Y-113389733D01*
X138140019Y-113342114D01*
X138235257Y-113294495D01*
X138330495Y-113294495D01*
X138473352Y-113342114D01*
X139044780Y-113913542D01*
X139044780Y-113294495D01*
%TO.C,TP5*%
X139152380Y-109111904D02*
X139152380Y-108540476D01*
X140152380Y-108826190D02*
X139152380Y-108826190D01*
X140152380Y-108207142D02*
X139152380Y-108207142D01*
X139152380Y-107826190D01*
X139200000Y-107730952D01*
X139247619Y-107683333D01*
X139342857Y-107635714D01*
X139485714Y-107635714D01*
X139580952Y-107683333D01*
X139628571Y-107730952D01*
X139676190Y-107826190D01*
X139676190Y-108207142D01*
X139152380Y-106730952D02*
X139152380Y-107207142D01*
X139628571Y-107254761D01*
X139580952Y-107207142D01*
X139533333Y-107111904D01*
X139533333Y-106873809D01*
X139580952Y-106778571D01*
X139628571Y-106730952D01*
X139723809Y-106683333D01*
X139961904Y-106683333D01*
X140057142Y-106730952D01*
X140104761Y-106778571D01*
X140152380Y-106873809D01*
X140152380Y-107111904D01*
X140104761Y-107207142D01*
X140057142Y-107254761D01*
%TO.C,R7*%
X148794780Y-111723066D02*
X148318590Y-112056400D01*
X148794780Y-112294495D02*
X147794780Y-112294495D01*
X147794780Y-111913542D01*
X147842400Y-111818304D01*
X147890019Y-111770685D01*
X147985257Y-111723066D01*
X148128114Y-111723066D01*
X148223352Y-111770685D01*
X148270971Y-111818304D01*
X148318590Y-111913542D01*
X148318590Y-112294495D01*
X147794780Y-111389733D02*
X147794780Y-110723066D01*
X148794780Y-111151638D01*
%TO.C,C20*%
X136757142Y-121842857D02*
X136804761Y-121890476D01*
X136852380Y-122033333D01*
X136852380Y-122128571D01*
X136804761Y-122271428D01*
X136709523Y-122366666D01*
X136614285Y-122414285D01*
X136423809Y-122461904D01*
X136280952Y-122461904D01*
X136090476Y-122414285D01*
X135995238Y-122366666D01*
X135900000Y-122271428D01*
X135852380Y-122128571D01*
X135852380Y-122033333D01*
X135900000Y-121890476D01*
X135947619Y-121842857D01*
X135947619Y-121461904D02*
X135900000Y-121414285D01*
X135852380Y-121319047D01*
X135852380Y-121080952D01*
X135900000Y-120985714D01*
X135947619Y-120938095D01*
X136042857Y-120890476D01*
X136138095Y-120890476D01*
X136280952Y-120938095D01*
X136852380Y-121509523D01*
X136852380Y-120890476D01*
X135852380Y-120271428D02*
X135852380Y-120176190D01*
X135900000Y-120080952D01*
X135947619Y-120033333D01*
X136042857Y-119985714D01*
X136233333Y-119938095D01*
X136471428Y-119938095D01*
X136661904Y-119985714D01*
X136757142Y-120033333D01*
X136804761Y-120080952D01*
X136852380Y-120176190D01*
X136852380Y-120271428D01*
X136804761Y-120366666D01*
X136757142Y-120414285D01*
X136661904Y-120461904D01*
X136471428Y-120509523D01*
X136233333Y-120509523D01*
X136042857Y-120461904D01*
X135947619Y-120414285D01*
X135900000Y-120366666D01*
X135852380Y-120271428D01*
%TO.C,D5*%
X128254304Y-99458780D02*
X128254304Y-98458780D01*
X128492400Y-98458780D01*
X128635257Y-98506400D01*
X128730495Y-98601638D01*
X128778114Y-98696876D01*
X128825733Y-98887352D01*
X128825733Y-99030209D01*
X128778114Y-99220685D01*
X128730495Y-99315923D01*
X128635257Y-99411161D01*
X128492400Y-99458780D01*
X128254304Y-99458780D01*
X129730495Y-98458780D02*
X129254304Y-98458780D01*
X129206685Y-98934971D01*
X129254304Y-98887352D01*
X129349542Y-98839733D01*
X129587638Y-98839733D01*
X129682876Y-98887352D01*
X129730495Y-98934971D01*
X129778114Y-99030209D01*
X129778114Y-99268304D01*
X129730495Y-99363542D01*
X129682876Y-99411161D01*
X129587638Y-99458780D01*
X129349542Y-99458780D01*
X129254304Y-99411161D01*
X129206685Y-99363542D01*
%TO.C,TP4*%
X158238095Y-113352380D02*
X158809523Y-113352380D01*
X158523809Y-114352380D02*
X158523809Y-113352380D01*
X159142857Y-114352380D02*
X159142857Y-113352380D01*
X159523809Y-113352380D01*
X159619047Y-113400000D01*
X159666666Y-113447619D01*
X159714285Y-113542857D01*
X159714285Y-113685714D01*
X159666666Y-113780952D01*
X159619047Y-113828571D01*
X159523809Y-113876190D01*
X159142857Y-113876190D01*
X160571428Y-113685714D02*
X160571428Y-114352380D01*
X160333333Y-113304761D02*
X160095238Y-114019047D01*
X160714285Y-114019047D01*
%TO.C,U7*%
X161038095Y-117152380D02*
X161038095Y-117961904D01*
X161085714Y-118057142D01*
X161133333Y-118104761D01*
X161228571Y-118152380D01*
X161419047Y-118152380D01*
X161514285Y-118104761D01*
X161561904Y-118057142D01*
X161609523Y-117961904D01*
X161609523Y-117152380D01*
X161990476Y-117152380D02*
X162657142Y-117152380D01*
X162228571Y-118152380D01*
%TO.C,TP9*%
X158838095Y-115052380D02*
X159409523Y-115052380D01*
X159123809Y-116052380D02*
X159123809Y-115052380D01*
X159742857Y-116052380D02*
X159742857Y-115052380D01*
X160123809Y-115052380D01*
X160219047Y-115100000D01*
X160266666Y-115147619D01*
X160314285Y-115242857D01*
X160314285Y-115385714D01*
X160266666Y-115480952D01*
X160219047Y-115528571D01*
X160123809Y-115576190D01*
X159742857Y-115576190D01*
X160790476Y-116052380D02*
X160980952Y-116052380D01*
X161076190Y-116004761D01*
X161123809Y-115957142D01*
X161219047Y-115814285D01*
X161266666Y-115623809D01*
X161266666Y-115242857D01*
X161219047Y-115147619D01*
X161171428Y-115100000D01*
X161076190Y-115052380D01*
X160885714Y-115052380D01*
X160790476Y-115100000D01*
X160742857Y-115147619D01*
X160695238Y-115242857D01*
X160695238Y-115480952D01*
X160742857Y-115576190D01*
X160790476Y-115623809D01*
X160885714Y-115671428D01*
X161076190Y-115671428D01*
X161171428Y-115623809D01*
X161219047Y-115576190D01*
X161266666Y-115480952D01*
D12*
%TO.C,R25*%
X157121428Y-129702380D02*
X156821428Y-129226190D01*
X156607142Y-129702380D02*
X156607142Y-128702380D01*
X156950000Y-128702380D01*
X157035714Y-128750000D01*
X157078571Y-128797619D01*
X157121428Y-128892857D01*
X157121428Y-129035714D01*
X157078571Y-129130952D01*
X157035714Y-129178571D01*
X156950000Y-129226190D01*
X156607142Y-129226190D01*
X157464285Y-128797619D02*
X157507142Y-128750000D01*
X157592857Y-128702380D01*
X157807142Y-128702380D01*
X157892857Y-128750000D01*
X157935714Y-128797619D01*
X157978571Y-128892857D01*
X157978571Y-128988095D01*
X157935714Y-129130952D01*
X157421428Y-129702380D01*
X157978571Y-129702380D01*
X158792857Y-128702380D02*
X158364285Y-128702380D01*
X158321428Y-129178571D01*
X158364285Y-129130952D01*
X158450000Y-129083333D01*
X158664285Y-129083333D01*
X158750000Y-129130952D01*
X158792857Y-129178571D01*
X158835714Y-129273809D01*
X158835714Y-129511904D01*
X158792857Y-129607142D01*
X158750000Y-129654761D01*
X158664285Y-129702380D01*
X158450000Y-129702380D01*
X158364285Y-129654761D01*
X158321428Y-129607142D01*
D11*
%TO.C,R13*%
X133602380Y-90992857D02*
X133126190Y-91326190D01*
X133602380Y-91564285D02*
X132602380Y-91564285D01*
X132602380Y-91183333D01*
X132650000Y-91088095D01*
X132697619Y-91040476D01*
X132792857Y-90992857D01*
X132935714Y-90992857D01*
X133030952Y-91040476D01*
X133078571Y-91088095D01*
X133126190Y-91183333D01*
X133126190Y-91564285D01*
X133602380Y-90040476D02*
X133602380Y-90611904D01*
X133602380Y-90326190D02*
X132602380Y-90326190D01*
X132745238Y-90421428D01*
X132840476Y-90516666D01*
X132888095Y-90611904D01*
X132602380Y-89707142D02*
X132602380Y-89088095D01*
X132983333Y-89421428D01*
X132983333Y-89278571D01*
X133030952Y-89183333D01*
X133078571Y-89135714D01*
X133173809Y-89088095D01*
X133411904Y-89088095D01*
X133507142Y-89135714D01*
X133554761Y-89183333D01*
X133602380Y-89278571D01*
X133602380Y-89564285D01*
X133554761Y-89659523D01*
X133507142Y-89707142D01*
D12*
%TO.C,R24*%
X154121428Y-126152380D02*
X153821428Y-125676190D01*
X153607142Y-126152380D02*
X153607142Y-125152380D01*
X153950000Y-125152380D01*
X154035714Y-125200000D01*
X154078571Y-125247619D01*
X154121428Y-125342857D01*
X154121428Y-125485714D01*
X154078571Y-125580952D01*
X154035714Y-125628571D01*
X153950000Y-125676190D01*
X153607142Y-125676190D01*
X154464285Y-125247619D02*
X154507142Y-125200000D01*
X154592857Y-125152380D01*
X154807142Y-125152380D01*
X154892857Y-125200000D01*
X154935714Y-125247619D01*
X154978571Y-125342857D01*
X154978571Y-125438095D01*
X154935714Y-125580952D01*
X154421428Y-126152380D01*
X154978571Y-126152380D01*
X155750000Y-125485714D02*
X155750000Y-126152380D01*
X155535714Y-125104761D02*
X155321428Y-125819047D01*
X155878571Y-125819047D01*
D11*
%TO.C,R12*%
X137957142Y-88652380D02*
X137623809Y-88176190D01*
X137385714Y-88652380D02*
X137385714Y-87652380D01*
X137766666Y-87652380D01*
X137861904Y-87700000D01*
X137909523Y-87747619D01*
X137957142Y-87842857D01*
X137957142Y-87985714D01*
X137909523Y-88080952D01*
X137861904Y-88128571D01*
X137766666Y-88176190D01*
X137385714Y-88176190D01*
X138909523Y-88652380D02*
X138338095Y-88652380D01*
X138623809Y-88652380D02*
X138623809Y-87652380D01*
X138528571Y-87795238D01*
X138433333Y-87890476D01*
X138338095Y-87938095D01*
X139290476Y-87747619D02*
X139338095Y-87700000D01*
X139433333Y-87652380D01*
X139671428Y-87652380D01*
X139766666Y-87700000D01*
X139814285Y-87747619D01*
X139861904Y-87842857D01*
X139861904Y-87938095D01*
X139814285Y-88080952D01*
X139242857Y-88652380D01*
X139861904Y-88652380D01*
%TO.C,C16*%
X156688392Y-121342857D02*
X156736011Y-121390476D01*
X156783630Y-121533333D01*
X156783630Y-121628571D01*
X156736011Y-121771428D01*
X156640773Y-121866666D01*
X156545535Y-121914285D01*
X156355059Y-121961904D01*
X156212202Y-121961904D01*
X156021726Y-121914285D01*
X155926488Y-121866666D01*
X155831250Y-121771428D01*
X155783630Y-121628571D01*
X155783630Y-121533333D01*
X155831250Y-121390476D01*
X155878869Y-121342857D01*
X156783630Y-120390476D02*
X156783630Y-120961904D01*
X156783630Y-120676190D02*
X155783630Y-120676190D01*
X155926488Y-120771428D01*
X156021726Y-120866666D01*
X156069345Y-120961904D01*
X155783630Y-119533333D02*
X155783630Y-119723809D01*
X155831250Y-119819047D01*
X155878869Y-119866666D01*
X156021726Y-119961904D01*
X156212202Y-120009523D01*
X156593154Y-120009523D01*
X156688392Y-119961904D01*
X156736011Y-119914285D01*
X156783630Y-119819047D01*
X156783630Y-119628571D01*
X156736011Y-119533333D01*
X156688392Y-119485714D01*
X156593154Y-119438095D01*
X156355059Y-119438095D01*
X156259821Y-119485714D01*
X156212202Y-119533333D01*
X156164583Y-119628571D01*
X156164583Y-119819047D01*
X156212202Y-119914285D01*
X156259821Y-119961904D01*
X156355059Y-120009523D01*
%TO.C,C27*%
X156257142Y-114557142D02*
X156209523Y-114604761D01*
X156066666Y-114652380D01*
X155971428Y-114652380D01*
X155828571Y-114604761D01*
X155733333Y-114509523D01*
X155685714Y-114414285D01*
X155638095Y-114223809D01*
X155638095Y-114080952D01*
X155685714Y-113890476D01*
X155733333Y-113795238D01*
X155828571Y-113700000D01*
X155971428Y-113652380D01*
X156066666Y-113652380D01*
X156209523Y-113700000D01*
X156257142Y-113747619D01*
X156638095Y-113747619D02*
X156685714Y-113700000D01*
X156780952Y-113652380D01*
X157019047Y-113652380D01*
X157114285Y-113700000D01*
X157161904Y-113747619D01*
X157209523Y-113842857D01*
X157209523Y-113938095D01*
X157161904Y-114080952D01*
X156590476Y-114652380D01*
X157209523Y-114652380D01*
X157542857Y-113652380D02*
X158209523Y-113652380D01*
X157780952Y-114652380D01*
%TO.C,C10*%
X130449542Y-96699257D02*
X130497161Y-96746876D01*
X130544780Y-96889733D01*
X130544780Y-96984971D01*
X130497161Y-97127828D01*
X130401923Y-97223066D01*
X130306685Y-97270685D01*
X130116209Y-97318304D01*
X129973352Y-97318304D01*
X129782876Y-97270685D01*
X129687638Y-97223066D01*
X129592400Y-97127828D01*
X129544780Y-96984971D01*
X129544780Y-96889733D01*
X129592400Y-96746876D01*
X129640019Y-96699257D01*
X130544780Y-95746876D02*
X130544780Y-96318304D01*
X130544780Y-96032590D02*
X129544780Y-96032590D01*
X129687638Y-96127828D01*
X129782876Y-96223066D01*
X129830495Y-96318304D01*
X129544780Y-95127828D02*
X129544780Y-95032590D01*
X129592400Y-94937352D01*
X129640019Y-94889733D01*
X129735257Y-94842114D01*
X129925733Y-94794495D01*
X130163828Y-94794495D01*
X130354304Y-94842114D01*
X130449542Y-94889733D01*
X130497161Y-94937352D01*
X130544780Y-95032590D01*
X130544780Y-95127828D01*
X130497161Y-95223066D01*
X130449542Y-95270685D01*
X130354304Y-95318304D01*
X130163828Y-95365923D01*
X129925733Y-95365923D01*
X129735257Y-95318304D01*
X129640019Y-95270685D01*
X129592400Y-95223066D01*
X129544780Y-95127828D01*
%TO.C,R27*%
X159657142Y-124252380D02*
X159323809Y-123776190D01*
X159085714Y-124252380D02*
X159085714Y-123252380D01*
X159466666Y-123252380D01*
X159561904Y-123300000D01*
X159609523Y-123347619D01*
X159657142Y-123442857D01*
X159657142Y-123585714D01*
X159609523Y-123680952D01*
X159561904Y-123728571D01*
X159466666Y-123776190D01*
X159085714Y-123776190D01*
X160038095Y-123347619D02*
X160085714Y-123300000D01*
X160180952Y-123252380D01*
X160419047Y-123252380D01*
X160514285Y-123300000D01*
X160561904Y-123347619D01*
X160609523Y-123442857D01*
X160609523Y-123538095D01*
X160561904Y-123680952D01*
X159990476Y-124252380D01*
X160609523Y-124252380D01*
X160942857Y-123252380D02*
X161609523Y-123252380D01*
X161180952Y-124252380D01*
%TO.C,R19*%
X144757142Y-114202380D02*
X144423809Y-113726190D01*
X144185714Y-114202380D02*
X144185714Y-113202380D01*
X144566666Y-113202380D01*
X144661904Y-113250000D01*
X144709523Y-113297619D01*
X144757142Y-113392857D01*
X144757142Y-113535714D01*
X144709523Y-113630952D01*
X144661904Y-113678571D01*
X144566666Y-113726190D01*
X144185714Y-113726190D01*
X145709523Y-114202380D02*
X145138095Y-114202380D01*
X145423809Y-114202380D02*
X145423809Y-113202380D01*
X145328571Y-113345238D01*
X145233333Y-113440476D01*
X145138095Y-113488095D01*
X146185714Y-114202380D02*
X146376190Y-114202380D01*
X146471428Y-114154761D01*
X146519047Y-114107142D01*
X146614285Y-113964285D01*
X146661904Y-113773809D01*
X146661904Y-113392857D01*
X146614285Y-113297619D01*
X146566666Y-113250000D01*
X146471428Y-113202380D01*
X146280952Y-113202380D01*
X146185714Y-113250000D01*
X146138095Y-113297619D01*
X146090476Y-113392857D01*
X146090476Y-113630952D01*
X146138095Y-113726190D01*
X146185714Y-113773809D01*
X146280952Y-113821428D01*
X146471428Y-113821428D01*
X146566666Y-113773809D01*
X146614285Y-113726190D01*
X146661904Y-113630952D01*
%TO.C,R4*%
X158533333Y-112352380D02*
X158200000Y-111876190D01*
X157961904Y-112352380D02*
X157961904Y-111352380D01*
X158342857Y-111352380D01*
X158438095Y-111400000D01*
X158485714Y-111447619D01*
X158533333Y-111542857D01*
X158533333Y-111685714D01*
X158485714Y-111780952D01*
X158438095Y-111828571D01*
X158342857Y-111876190D01*
X157961904Y-111876190D01*
X159390476Y-111685714D02*
X159390476Y-112352380D01*
X159152380Y-111304761D02*
X158914285Y-112019047D01*
X159533333Y-112019047D01*
%TO.C,C8*%
X142433333Y-86957142D02*
X142385714Y-87004761D01*
X142242857Y-87052380D01*
X142147619Y-87052380D01*
X142004761Y-87004761D01*
X141909523Y-86909523D01*
X141861904Y-86814285D01*
X141814285Y-86623809D01*
X141814285Y-86480952D01*
X141861904Y-86290476D01*
X141909523Y-86195238D01*
X142004761Y-86100000D01*
X142147619Y-86052380D01*
X142242857Y-86052380D01*
X142385714Y-86100000D01*
X142433333Y-86147619D01*
X143004761Y-86480952D02*
X142909523Y-86433333D01*
X142861904Y-86385714D01*
X142814285Y-86290476D01*
X142814285Y-86242857D01*
X142861904Y-86147619D01*
X142909523Y-86100000D01*
X143004761Y-86052380D01*
X143195238Y-86052380D01*
X143290476Y-86100000D01*
X143338095Y-86147619D01*
X143385714Y-86242857D01*
X143385714Y-86290476D01*
X143338095Y-86385714D01*
X143290476Y-86433333D01*
X143195238Y-86480952D01*
X143004761Y-86480952D01*
X142909523Y-86528571D01*
X142861904Y-86576190D01*
X142814285Y-86671428D01*
X142814285Y-86861904D01*
X142861904Y-86957142D01*
X142909523Y-87004761D01*
X143004761Y-87052380D01*
X143195238Y-87052380D01*
X143290476Y-87004761D01*
X143338095Y-86957142D01*
X143385714Y-86861904D01*
X143385714Y-86671428D01*
X143338095Y-86576190D01*
X143290476Y-86528571D01*
X143195238Y-86480952D01*
%TO.C,R17*%
X127857142Y-123252380D02*
X127523809Y-122776190D01*
X127285714Y-123252380D02*
X127285714Y-122252380D01*
X127666666Y-122252380D01*
X127761904Y-122300000D01*
X127809523Y-122347619D01*
X127857142Y-122442857D01*
X127857142Y-122585714D01*
X127809523Y-122680952D01*
X127761904Y-122728571D01*
X127666666Y-122776190D01*
X127285714Y-122776190D01*
X128809523Y-123252380D02*
X128238095Y-123252380D01*
X128523809Y-123252380D02*
X128523809Y-122252380D01*
X128428571Y-122395238D01*
X128333333Y-122490476D01*
X128238095Y-122538095D01*
X129142857Y-122252380D02*
X129809523Y-122252380D01*
X129380952Y-123252380D01*
%TO.C,R14*%
X134107180Y-97242857D02*
X133630990Y-97576190D01*
X134107180Y-97814285D02*
X133107180Y-97814285D01*
X133107180Y-97433333D01*
X133154800Y-97338095D01*
X133202419Y-97290476D01*
X133297657Y-97242857D01*
X133440514Y-97242857D01*
X133535752Y-97290476D01*
X133583371Y-97338095D01*
X133630990Y-97433333D01*
X133630990Y-97814285D01*
X134107180Y-96290476D02*
X134107180Y-96861904D01*
X134107180Y-96576190D02*
X133107180Y-96576190D01*
X133250038Y-96671428D01*
X133345276Y-96766666D01*
X133392895Y-96861904D01*
X133440514Y-95433333D02*
X134107180Y-95433333D01*
X133059561Y-95671428D02*
X133773847Y-95909523D01*
X133773847Y-95290476D01*
%TO.C,R5*%
X144794780Y-111723066D02*
X144318590Y-112056400D01*
X144794780Y-112294495D02*
X143794780Y-112294495D01*
X143794780Y-111913542D01*
X143842400Y-111818304D01*
X143890019Y-111770685D01*
X143985257Y-111723066D01*
X144128114Y-111723066D01*
X144223352Y-111770685D01*
X144270971Y-111818304D01*
X144318590Y-111913542D01*
X144318590Y-112294495D01*
X143794780Y-110818304D02*
X143794780Y-111294495D01*
X144270971Y-111342114D01*
X144223352Y-111294495D01*
X144175733Y-111199257D01*
X144175733Y-110961161D01*
X144223352Y-110865923D01*
X144270971Y-110818304D01*
X144366209Y-110770685D01*
X144604304Y-110770685D01*
X144699542Y-110818304D01*
X144747161Y-110865923D01*
X144794780Y-110961161D01*
X144794780Y-111199257D01*
X144747161Y-111294495D01*
X144699542Y-111342114D01*
%TO.C,L1*%
X139733333Y-105352380D02*
X139257142Y-105352380D01*
X139257142Y-104352380D01*
X140590476Y-105352380D02*
X140019047Y-105352380D01*
X140304761Y-105352380D02*
X140304761Y-104352380D01*
X140209523Y-104495238D01*
X140114285Y-104590476D01*
X140019047Y-104638095D01*
%TO.C,J2*%
X152400000Y-125100000D02*
X136400000Y-125100000D01*
X136400000Y-129100000D02*
X143400000Y-129100000D01*
X152400000Y-129100000D02*
X152400000Y-125100000D01*
X136400000Y-125100000D02*
X136400000Y-129100000D01*
X145400000Y-128800000D02*
X145400000Y-129100000D01*
X143400000Y-128800000D02*
X145400000Y-128800000D01*
X143400000Y-129100000D02*
X143400000Y-128800000D01*
X145400000Y-129100000D02*
X152400000Y-129100000D01*
D12*
%TO.C,C28*%
X130710000Y-120007748D02*
X130710000Y-120530252D01*
X132180000Y-120007748D02*
X132180000Y-120530252D01*
%TO.C,C3*%
X153161252Y-112365000D02*
X152638748Y-112365000D01*
X153161252Y-113835000D02*
X152638748Y-113835000D01*
%TO.C,R23*%
X153008750Y-121408314D02*
X153008750Y-119954186D01*
X154828750Y-121408314D02*
X154828750Y-119954186D01*
%TO.C,L3*%
X137363400Y-114094400D02*
X125163400Y-114094400D01*
X125163400Y-101094400D02*
X137363400Y-101094400D01*
X137763400Y-111344400D02*
X138513400Y-111344400D01*
X137763400Y-113694400D02*
X137763400Y-111344400D01*
X124763400Y-103844400D02*
X124763400Y-101494400D01*
X137763400Y-103844400D02*
X137763400Y-101494400D01*
X124763400Y-113694400D02*
X124763400Y-111344400D01*
X137763400Y-101494400D02*
G75*
G03*
X137363400Y-101094400I-399999J1D01*
G01*
X125163400Y-101094400D02*
G75*
G03*
X124763400Y-101494400I0J-400000D01*
G01*
X124763400Y-113694400D02*
G75*
G03*
X125163400Y-114094400I400000J0D01*
G01*
X137363400Y-114094400D02*
G75*
G03*
X137763400Y-113694400I1J399999D01*
G01*
%TO.C,C30*%
X153165000Y-116261252D02*
X153165000Y-115738748D01*
X154635000Y-116261252D02*
X154635000Y-115738748D01*
%TO.C,R9*%
X125449000Y-94461064D02*
X125449000Y-94006936D01*
X123979000Y-94461064D02*
X123979000Y-94006936D01*
%TO.C,C31*%
X164338748Y-121665000D02*
X164861252Y-121665000D01*
X164338748Y-123135000D02*
X164861252Y-123135000D01*
%TO.C,R11*%
X130765000Y-87777064D02*
X130765000Y-87322936D01*
X132235000Y-87777064D02*
X132235000Y-87322936D01*
%TO.C,Q5*%
X160800000Y-127154000D02*
X161460000Y-127154000D01*
X161460000Y-128564000D02*
X161460000Y-127154000D01*
X159140000Y-127154000D02*
X159140000Y-129889000D01*
X159130000Y-127154000D02*
X159800000Y-127154000D01*
%TO.C,C4*%
X165499148Y-113235000D02*
X166021652Y-113235000D01*
X165499148Y-111765000D02*
X166021652Y-111765000D01*
%TO.C,TP3*%
X148300000Y-113200000D02*
G75*
G03*
X148300000Y-113200000I-700000J0D01*
G01*
%TO.C,U4*%
X141108000Y-120056000D02*
X139308000Y-120056000D01*
X139308000Y-123276000D02*
X142258000Y-123276000D01*
%TO.C,C26*%
X134339000Y-120007748D02*
X134339000Y-120530252D01*
X132869000Y-120007748D02*
X132869000Y-120530252D01*
%TO.C,R6*%
X147039000Y-108611936D02*
X147039000Y-109066064D01*
X145569000Y-108611936D02*
X145569000Y-109066064D01*
%TO.C,C23*%
X132038748Y-116565000D02*
X132561252Y-116565000D01*
X132038748Y-118035000D02*
X132561252Y-118035000D01*
%TO.C,R18*%
X150849064Y-116035000D02*
X150394936Y-116035000D01*
X150849064Y-114565000D02*
X150394936Y-114565000D01*
%TO.C,C9*%
X135527148Y-89865000D02*
X136049652Y-89865000D01*
X135527148Y-91335000D02*
X136049652Y-91335000D01*
%TO.C,U6*%
X127127000Y-116764000D02*
X128627000Y-116764000D01*
X127127000Y-119974000D02*
X125627000Y-119974000D01*
X127127000Y-116764000D02*
X125627000Y-116764000D01*
X127127000Y-119974000D02*
X128627000Y-119974000D01*
D13*
X124227000Y-116614000D02*
G75*
G03*
X124227000Y-116614000I-100000J0D01*
G01*
D11*
%TO.C,J4*%
X155400000Y-110750000D02*
X155400000Y-92700000D01*
X168400000Y-92700000D02*
X155400000Y-92700000D01*
X168400000Y-110750000D02*
X155400000Y-110750000D01*
X168400000Y-92700000D02*
X168400000Y-110750000D01*
D12*
%TO.C,R10*%
X135677064Y-85865000D02*
X135222936Y-85865000D01*
X135677064Y-87335000D02*
X135222936Y-87335000D01*
%TO.C,TP6*%
X154200000Y-107850000D02*
G75*
G03*
X154200000Y-107850000I-1200000J0D01*
G01*
%TO.C,C33*%
X141602500Y-118117252D02*
X141602500Y-117594748D01*
X143072500Y-118117252D02*
X143072500Y-117594748D01*
%TO.C,TP8*%
X132627600Y-124079000D02*
G75*
G03*
X132627600Y-124079000I-700000J0D01*
G01*
%TO.C,TP7*%
X126410000Y-97990000D02*
X126410000Y-99050000D01*
X124290000Y-99990000D02*
X124290000Y-100110000D01*
X126410000Y-99990000D02*
X126410000Y-100110000D01*
X125350000Y-97990000D02*
X126410000Y-97990000D01*
X124290000Y-100110000D02*
X126410000Y-100110000D01*
%TO.C,R8*%
X149633000Y-108611936D02*
X149633000Y-109066064D01*
X151103000Y-108611936D02*
X151103000Y-109066064D01*
%TO.C,Q1*%
X128903400Y-92630000D02*
X128903400Y-93300000D01*
X128903400Y-92640000D02*
X126168400Y-92640000D01*
X127493400Y-94960000D02*
X128903400Y-94960000D01*
X128903400Y-94300000D02*
X128903400Y-94960000D01*
%TO.C,U2*%
X167960000Y-117700000D02*
X167960000Y-114250000D01*
X167960000Y-117700000D02*
X167960000Y-119650000D01*
X162840000Y-117700000D02*
X162840000Y-119650000D01*
X162840000Y-117700000D02*
X162840000Y-115750000D01*
%TO.C,Q2*%
X134967430Y-96327058D02*
X134967430Y-98027058D01*
X140087430Y-94377058D02*
X140087430Y-98027058D01*
X134967430Y-96327058D02*
X134967430Y-94377058D01*
D14*
X140592430Y-93488058D02*
G75*
G03*
X140592430Y-93488058I-130000J0D01*
G01*
D12*
%TO.C,C7*%
X139635000Y-90238748D02*
X139635000Y-90761252D01*
X138165000Y-90238748D02*
X138165000Y-90761252D01*
D11*
%TO.C,F1*%
X161400000Y-92360000D02*
X141600000Y-92360000D01*
X141600000Y-92360000D02*
X141600000Y-85640000D01*
X161400000Y-85640000D02*
X161400000Y-92360000D01*
X141600000Y-85640000D02*
X161400000Y-85640000D01*
D12*
%TO.C,L2*%
X144537500Y-124500000D02*
X151537500Y-124500000D01*
X144537500Y-116700000D02*
X151537500Y-116700000D01*
%TO.C,C22*%
X137822000Y-118117252D02*
X137822000Y-117594748D01*
X139292000Y-118117252D02*
X139292000Y-117594748D01*
%TO.C,TP5*%
X142850000Y-107850000D02*
G75*
G03*
X142850000Y-107850000I-1200000J0D01*
G01*
%TO.C,R7*%
X149071000Y-109066064D02*
X149071000Y-108611936D01*
X147601000Y-109066064D02*
X147601000Y-108611936D01*
%TO.C,C20*%
X135663000Y-118117252D02*
X135663000Y-117594748D01*
X137133000Y-118117252D02*
X137133000Y-117594748D01*
%TO.C,D5*%
X132600000Y-99000000D02*
X132000000Y-99400000D01*
X133200000Y-100000000D02*
X131300000Y-100000000D01*
X132000000Y-99400000D02*
X132000000Y-98600000D01*
X132000000Y-98600000D02*
X132600000Y-99000000D01*
X133200000Y-98000000D02*
X131300000Y-98000000D01*
X132000000Y-98600000D02*
X132000000Y-99400000D01*
%TO.C,TP4*%
X162300000Y-113900000D02*
G75*
G03*
X162300000Y-113900000I-700000J0D01*
G01*
%TO.C,U7*%
X159208750Y-119781250D02*
X159208750Y-121581250D01*
X162428750Y-121581250D02*
X162428750Y-119131250D01*
%TO.C,TP9*%
X160700000Y-116900000D02*
G75*
G03*
X160700000Y-116900000I-700000J0D01*
G01*
%TO.C,R25*%
X154913064Y-128424000D02*
X154458936Y-128424000D01*
X154913064Y-129894000D02*
X154458936Y-129894000D01*
%TO.C,R13*%
X130865000Y-91122936D02*
X130865000Y-91577064D01*
X132335000Y-91122936D02*
X132335000Y-91577064D01*
%TO.C,R24*%
X154458936Y-126392000D02*
X154913064Y-126392000D01*
X154458936Y-127862000D02*
X154913064Y-127862000D01*
%TO.C,R12*%
X135577064Y-89335000D02*
X135122936Y-89335000D01*
X135577064Y-87865000D02*
X135122936Y-87865000D01*
%TO.C,C16*%
X158635000Y-120942502D02*
X158635000Y-120419998D01*
X157165000Y-120942502D02*
X157165000Y-120419998D01*
%TO.C,C27*%
X156757498Y-114946250D02*
X157280002Y-114946250D01*
X156757498Y-116416250D02*
X157280002Y-116416250D01*
%TO.C,C10*%
X132357800Y-94937948D02*
X132357800Y-95460452D01*
X130887800Y-94937948D02*
X130887800Y-95460452D01*
%TO.C,R28*%
X156791686Y-117046250D02*
X157245814Y-117046250D01*
X156791686Y-118516250D02*
X157245814Y-118516250D01*
%TO.C,R27*%
X156791686Y-122846250D02*
X157245814Y-122846250D01*
X156791686Y-124316250D02*
X157245814Y-124316250D01*
%TO.C,R19*%
X147039064Y-114565000D02*
X146584936Y-114565000D01*
X147039064Y-116035000D02*
X146584936Y-116035000D01*
%TO.C,R4*%
X161669464Y-111177400D02*
X161215336Y-111177400D01*
X161669464Y-112647400D02*
X161215336Y-112647400D01*
%TO.C,C8*%
X139338748Y-87335000D02*
X139861252Y-87335000D01*
X139338748Y-85865000D02*
X139861252Y-85865000D01*
%TO.C,R17*%
X128727064Y-121935000D02*
X128272936Y-121935000D01*
X128727064Y-120465000D02*
X128272936Y-120465000D01*
%TO.C,R14*%
X132915000Y-93727064D02*
X132915000Y-93272936D01*
X134385000Y-93727064D02*
X134385000Y-93272936D01*
%TO.C,R5*%
X145007000Y-109066064D02*
X145007000Y-108611936D01*
X143537000Y-109066064D02*
X143537000Y-108611936D01*
%TO.C,L1*%
X140800000Y-92750000D02*
X153400000Y-92750000D01*
X140800000Y-105350000D02*
X140800000Y-102350000D01*
X140800000Y-95750000D02*
X140800000Y-92750000D01*
X153400000Y-92750000D02*
X153400000Y-95750000D01*
X153400000Y-102350000D02*
X153400000Y-105350000D01*
X153400000Y-105350000D02*
X140800000Y-105350000D01*
%TD*%
M02*
