M48
; DRILL file {KiCad 7.0.9} date Tue Mar 19 13:29:06 2024
; FORMAT={-:-/ absolute / inch / decimal}
; #@! TF.CreationDate,2024-03-19T13:29:06-04:00
; #@! TF.GenerationSoftware,Kicad,Pcbnew,7.0.9
; #@! TF.FileFunction,Plated,1,4,PTH
FMAT,2
INCH
; #@! TA.AperFunction,Plated,PTH,ViaDrill
T1C0.0118
; #@! TA.AperFunction,Plated,PTH,ViaDrill
T2C0.0150
; #@! TA.AperFunction,Plated,PTH,ComponentDrill
T3C0.0236
; #@! TA.AperFunction,Plated,PTH,ComponentDrill
T4C0.0268
; #@! TA.AperFunction,Plated,PTH,ComponentDrill
T5C0.0315
; #@! TA.AperFunction,Plated,PTH,ComponentDrill
T6C0.0787
; #@! TA.AperFunction,Plated,PTH,ComponentDrill
T7C0.0886
; #@! TA.AperFunction,Plated,PTH,ComponentDrill
T8C0.1260
%
G90
G05
T1
X5.507Y-4.216
X5.574Y-4.75
T2
X5.175Y-3.422
X5.215Y-3.762
X5.254Y-3.792
X5.269Y-3.932
X5.269Y-4.128
X5.274Y-3.762
X5.291Y-4.305
X5.292Y-3.793
X5.307Y-3.427
X5.313Y-3.762
X5.335Y-3.616
X5.36Y-3.59
X5.369Y-3.621
X5.405Y-4.472
X5.408Y-3.246
X5.47Y-4.6355
X5.481Y-4.701
X5.53Y-3.116
X5.546Y-3.333
X5.558Y-4.388
X5.6293Y-3.7549
X5.6293Y-3.7903
X5.6293Y-3.8257
X5.6293Y-3.8612
X5.6293Y-3.8966
X5.6293Y-3.932
X5.6293Y-3.9675
X5.6293Y-4.0029
X5.6293Y-4.0383
X5.6293Y-4.0738
X5.6293Y-4.1092
X5.6293Y-4.1446
X5.6293Y-4.1801
X5.6293Y-4.2155
X5.6293Y-4.2509
X5.6647Y-3.7549
X5.6647Y-4.2509
X5.7002Y-3.7549
X5.7002Y-4.2509
X5.7356Y-3.7549
X5.7356Y-4.2509
X5.771Y-3.7549
X5.771Y-4.2509
X5.797Y-4.575
X5.8065Y-3.7549
X5.8065Y-4.2509
X5.8419Y-3.7549
X5.8419Y-4.2509
X5.858Y-3.398
X5.8696Y-3.3118
X5.8773Y-3.7549
X5.8773Y-4.2509
X5.884Y-4.8274
X5.9128Y-3.7549
X5.9128Y-3.7903
X5.9128Y-3.8257
X5.9128Y-3.8612
X5.9128Y-3.8966
X5.9128Y-4.0738
X5.9128Y-4.1092
X5.9128Y-4.1446
X5.9128Y-4.1801
X5.9128Y-4.2155
X5.9128Y-4.2509
X5.9482Y-3.8966
X5.9482Y-3.932
X5.9482Y-4.0738
X5.9545Y-4.4297
X5.9552Y-4.1223
X5.9761Y-3.3502
X5.9832Y-3.2128
X5.9857Y-4.0848
X6.0305Y-3.3093
X6.04Y-4.797
X6.0573Y-4.289
X6.0634Y-3.5024
X6.076Y-4.465
X6.0815Y-4.3855
X6.0907Y-3.438
X6.1Y-3.7751
X6.1022Y-4.2895
X6.103Y-3.8487
X6.135Y-4.873
X6.1538Y-4.493
X6.174Y-3.806
X6.183Y-3.76
X6.184Y-4.01
X6.187Y-3.2788
X6.2Y-4.2741
X6.2193Y-4.6517
X6.223Y-3.849
X6.2293Y-4.4663
X6.2527Y-4.7879
X6.259Y-3.7445
X6.2748Y-4.2022
X6.2797Y-3.8451
X6.2915Y-3.9652
X6.2927Y-4.9159
X6.2958Y-3.4222
X6.3301Y-4.6612
X6.3531Y-4.5669
X6.358Y-3.252
X6.3592Y-3.7041
X6.3617Y-4.341
X6.3719Y-3.996
X6.3783Y-4.6098
X6.3914Y-4.3646
X6.3946Y-3.299
X6.3975Y-4.577
X6.3985Y-3.3945
X6.406Y-4.982
X6.412Y-5.1
X6.427Y-3.164
X6.447Y-4.868
X6.4559Y-3.528
X6.4725Y-4.7495
X6.479Y-3.99
X6.4845Y-4.3441
X6.4854Y-3.9326
X6.4956Y-3.6514
X6.5053Y-3.304
X6.5222Y-4.6754
X6.5262Y-4.4252
X6.538Y-3.757
X6.562Y-4.6468
X6.574Y-4.839
X6.582Y-3.527
X6.589Y-3.404
X6.6085Y-4.883
X6.609Y-4.052
X6.617Y-5.197
X6.647Y-4.41
X6.6524Y-3.783
X6.661Y-3.936
X6.671Y-3.2329
X6.681Y-3.74
X6.704Y-3.429
X6.7478Y-4.6088
X6.7485Y-3.49
T3
X5.3768Y-3.869
X5.3768Y-3.9182
X5.3768Y-3.9675
X5.426Y-3.869
X5.426Y-3.9182
X5.426Y-3.9675
T4
X6.788Y-3.9215
X6.788Y-4.0003
X6.788Y-4.079
X6.8667Y-3.9215
X6.8667Y-4.0003
X6.8667Y-4.079
T5
X5.836Y-3.9013
X5.836Y-4.0935
T6
X5.2605Y-4.4642
X5.2605Y-4.789
T7
X5.426Y-3.7155
X5.426Y-4.121
T8
X5.2892Y-5.121
X5.2895Y-3.1302
X6.7818Y-5.125
X6.782Y-3.1275
T0
M30
