G04 #@! TF.GenerationSoftware,KiCad,Pcbnew,(5.1.2)-1*
G04 #@! TF.CreationDate,2022-03-08T20:03:48-05:00*
G04 #@! TF.ProjectId,telemetry_breakout,74656c65-6d65-4747-9279-5f627265616b,rev?*
G04 #@! TF.SameCoordinates,Original*
G04 #@! TF.FileFunction,Soldermask,Top*
G04 #@! TF.FilePolarity,Negative*
%FSLAX46Y46*%
G04 Gerber Fmt 4.6, Leading zero omitted, Abs format (unit mm)*
G04 Created by KiCad (PCBNEW (5.1.2)-1) date 2022-03-08 20:03:48*
%MOMM*%
%LPD*%
G04 APERTURE LIST*
%ADD10C,0.100000*%
G04 APERTURE END LIST*
D10*
G36*
X224986606Y-110288562D02*
G01*
X225505455Y-110503476D01*
X225972407Y-110815484D01*
X226369516Y-111212593D01*
X226681524Y-111679545D01*
X226896438Y-112198394D01*
X226896438Y-112198395D01*
X227006000Y-112749200D01*
X227006000Y-113310800D01*
X226963538Y-113524269D01*
X226896438Y-113861606D01*
X226681524Y-114380455D01*
X226431579Y-114754524D01*
X226392383Y-114813185D01*
X226369516Y-114847407D01*
X225972407Y-115244516D01*
X225505455Y-115556524D01*
X224986606Y-115771438D01*
X224435800Y-115881000D01*
X223874200Y-115881000D01*
X223323394Y-115771438D01*
X222804545Y-115556524D01*
X222337593Y-115244516D01*
X221940484Y-114847407D01*
X221917618Y-114813185D01*
X221878421Y-114754524D01*
X221628476Y-114380455D01*
X221413562Y-113861606D01*
X221346462Y-113524269D01*
X221304000Y-113310800D01*
X221304000Y-112749200D01*
X221413562Y-112198395D01*
X221413562Y-112198394D01*
X221628476Y-111679545D01*
X221940484Y-111212593D01*
X222337593Y-110815484D01*
X222804545Y-110503476D01*
X223323394Y-110288562D01*
X223874200Y-110179000D01*
X224435800Y-110179000D01*
X224986606Y-110288562D01*
X224986606Y-110288562D01*
G37*
G36*
X193236606Y-110288562D02*
G01*
X193755455Y-110503476D01*
X194222407Y-110815484D01*
X194619516Y-111212593D01*
X194931524Y-111679545D01*
X195146438Y-112198394D01*
X195146438Y-112198395D01*
X195256000Y-112749200D01*
X195256000Y-113310800D01*
X195213538Y-113524269D01*
X195146438Y-113861606D01*
X194931524Y-114380455D01*
X194681579Y-114754524D01*
X194642383Y-114813185D01*
X194619516Y-114847407D01*
X194222407Y-115244516D01*
X193755455Y-115556524D01*
X193236606Y-115771438D01*
X192685800Y-115881000D01*
X192124200Y-115881000D01*
X191573394Y-115771438D01*
X191054545Y-115556524D01*
X190587593Y-115244516D01*
X190190484Y-114847407D01*
X190167618Y-114813185D01*
X190128421Y-114754524D01*
X189878476Y-114380455D01*
X189663562Y-113861606D01*
X189596462Y-113524269D01*
X189554000Y-113310800D01*
X189554000Y-112749200D01*
X189663562Y-112198395D01*
X189663562Y-112198394D01*
X189878476Y-111679545D01*
X190190484Y-111212593D01*
X190587593Y-110815484D01*
X191054545Y-110503476D01*
X191573394Y-110288562D01*
X192124200Y-110179000D01*
X192685800Y-110179000D01*
X193236606Y-110288562D01*
X193236606Y-110288562D01*
G37*
G36*
X206485442Y-113278518D02*
G01*
X206551627Y-113285037D01*
X206721466Y-113336557D01*
X206877991Y-113420222D01*
X206913729Y-113449552D01*
X207015186Y-113532814D01*
X207095535Y-113630721D01*
X207127778Y-113670009D01*
X207211443Y-113826534D01*
X207262963Y-113996373D01*
X207280359Y-114173000D01*
X207262963Y-114349627D01*
X207211443Y-114519466D01*
X207127778Y-114675991D01*
X207098448Y-114711729D01*
X207015186Y-114813186D01*
X206913729Y-114896448D01*
X206877991Y-114925778D01*
X206721466Y-115009443D01*
X206551627Y-115060963D01*
X206485443Y-115067481D01*
X206419260Y-115074000D01*
X206330740Y-115074000D01*
X206264557Y-115067481D01*
X206198373Y-115060963D01*
X206028534Y-115009443D01*
X205872009Y-114925778D01*
X205836271Y-114896448D01*
X205734814Y-114813186D01*
X205651552Y-114711729D01*
X205622222Y-114675991D01*
X205538557Y-114519466D01*
X205487037Y-114349627D01*
X205469641Y-114173000D01*
X205487037Y-113996373D01*
X205538557Y-113826534D01*
X205622222Y-113670009D01*
X205654465Y-113630721D01*
X205734814Y-113532814D01*
X205836271Y-113449552D01*
X205872009Y-113420222D01*
X206028534Y-113336557D01*
X206198373Y-113285037D01*
X206264558Y-113278518D01*
X206330740Y-113272000D01*
X206419260Y-113272000D01*
X206485442Y-113278518D01*
X206485442Y-113278518D01*
G37*
G36*
X204736000Y-115074000D02*
G01*
X202934000Y-115074000D01*
X202934000Y-113272000D01*
X204736000Y-113272000D01*
X204736000Y-115074000D01*
X204736000Y-115074000D01*
G37*
G36*
X211565442Y-113278518D02*
G01*
X211631627Y-113285037D01*
X211801466Y-113336557D01*
X211957991Y-113420222D01*
X211993729Y-113449552D01*
X212095186Y-113532814D01*
X212175535Y-113630721D01*
X212207778Y-113670009D01*
X212291443Y-113826534D01*
X212342963Y-113996373D01*
X212360359Y-114173000D01*
X212342963Y-114349627D01*
X212291443Y-114519466D01*
X212207778Y-114675991D01*
X212178448Y-114711729D01*
X212095186Y-114813186D01*
X211993729Y-114896448D01*
X211957991Y-114925778D01*
X211801466Y-115009443D01*
X211631627Y-115060963D01*
X211565443Y-115067481D01*
X211499260Y-115074000D01*
X211410740Y-115074000D01*
X211344557Y-115067481D01*
X211278373Y-115060963D01*
X211108534Y-115009443D01*
X210952009Y-114925778D01*
X210916271Y-114896448D01*
X210814814Y-114813186D01*
X210731552Y-114711729D01*
X210702222Y-114675991D01*
X210618557Y-114519466D01*
X210567037Y-114349627D01*
X210549641Y-114173000D01*
X210567037Y-113996373D01*
X210618557Y-113826534D01*
X210702222Y-113670009D01*
X210734465Y-113630721D01*
X210814814Y-113532814D01*
X210916271Y-113449552D01*
X210952009Y-113420222D01*
X211108534Y-113336557D01*
X211278373Y-113285037D01*
X211344558Y-113278518D01*
X211410740Y-113272000D01*
X211499260Y-113272000D01*
X211565442Y-113278518D01*
X211565442Y-113278518D01*
G37*
G36*
X214105442Y-113278518D02*
G01*
X214171627Y-113285037D01*
X214341466Y-113336557D01*
X214497991Y-113420222D01*
X214533729Y-113449552D01*
X214635186Y-113532814D01*
X214715535Y-113630721D01*
X214747778Y-113670009D01*
X214831443Y-113826534D01*
X214882963Y-113996373D01*
X214900359Y-114173000D01*
X214882963Y-114349627D01*
X214831443Y-114519466D01*
X214747778Y-114675991D01*
X214718448Y-114711729D01*
X214635186Y-114813186D01*
X214533729Y-114896448D01*
X214497991Y-114925778D01*
X214341466Y-115009443D01*
X214171627Y-115060963D01*
X214105443Y-115067481D01*
X214039260Y-115074000D01*
X213950740Y-115074000D01*
X213884557Y-115067481D01*
X213818373Y-115060963D01*
X213648534Y-115009443D01*
X213492009Y-114925778D01*
X213456271Y-114896448D01*
X213354814Y-114813186D01*
X213271552Y-114711729D01*
X213242222Y-114675991D01*
X213158557Y-114519466D01*
X213107037Y-114349627D01*
X213089641Y-114173000D01*
X213107037Y-113996373D01*
X213158557Y-113826534D01*
X213242222Y-113670009D01*
X213274465Y-113630721D01*
X213354814Y-113532814D01*
X213456271Y-113449552D01*
X213492009Y-113420222D01*
X213648534Y-113336557D01*
X213818373Y-113285037D01*
X213884558Y-113278518D01*
X213950740Y-113272000D01*
X214039260Y-113272000D01*
X214105442Y-113278518D01*
X214105442Y-113278518D01*
G37*
G36*
X216645442Y-113278518D02*
G01*
X216711627Y-113285037D01*
X216881466Y-113336557D01*
X217037991Y-113420222D01*
X217073729Y-113449552D01*
X217175186Y-113532814D01*
X217255535Y-113630721D01*
X217287778Y-113670009D01*
X217371443Y-113826534D01*
X217422963Y-113996373D01*
X217440359Y-114173000D01*
X217422963Y-114349627D01*
X217371443Y-114519466D01*
X217287778Y-114675991D01*
X217258448Y-114711729D01*
X217175186Y-114813186D01*
X217073729Y-114896448D01*
X217037991Y-114925778D01*
X216881466Y-115009443D01*
X216711627Y-115060963D01*
X216645443Y-115067481D01*
X216579260Y-115074000D01*
X216490740Y-115074000D01*
X216424557Y-115067481D01*
X216358373Y-115060963D01*
X216188534Y-115009443D01*
X216032009Y-114925778D01*
X215996271Y-114896448D01*
X215894814Y-114813186D01*
X215811552Y-114711729D01*
X215782222Y-114675991D01*
X215698557Y-114519466D01*
X215647037Y-114349627D01*
X215629641Y-114173000D01*
X215647037Y-113996373D01*
X215698557Y-113826534D01*
X215782222Y-113670009D01*
X215814465Y-113630721D01*
X215894814Y-113532814D01*
X215996271Y-113449552D01*
X216032009Y-113420222D01*
X216188534Y-113336557D01*
X216358373Y-113285037D01*
X216424558Y-113278518D01*
X216490740Y-113272000D01*
X216579260Y-113272000D01*
X216645442Y-113278518D01*
X216645442Y-113278518D01*
G37*
G36*
X209025442Y-113278518D02*
G01*
X209091627Y-113285037D01*
X209261466Y-113336557D01*
X209417991Y-113420222D01*
X209453729Y-113449552D01*
X209555186Y-113532814D01*
X209635535Y-113630721D01*
X209667778Y-113670009D01*
X209751443Y-113826534D01*
X209802963Y-113996373D01*
X209820359Y-114173000D01*
X209802963Y-114349627D01*
X209751443Y-114519466D01*
X209667778Y-114675991D01*
X209638448Y-114711729D01*
X209555186Y-114813186D01*
X209453729Y-114896448D01*
X209417991Y-114925778D01*
X209261466Y-115009443D01*
X209091627Y-115060963D01*
X209025443Y-115067481D01*
X208959260Y-115074000D01*
X208870740Y-115074000D01*
X208804557Y-115067481D01*
X208738373Y-115060963D01*
X208568534Y-115009443D01*
X208412009Y-114925778D01*
X208376271Y-114896448D01*
X208274814Y-114813186D01*
X208191552Y-114711729D01*
X208162222Y-114675991D01*
X208078557Y-114519466D01*
X208027037Y-114349627D01*
X208009641Y-114173000D01*
X208027037Y-113996373D01*
X208078557Y-113826534D01*
X208162222Y-113670009D01*
X208194465Y-113630721D01*
X208274814Y-113532814D01*
X208376271Y-113449552D01*
X208412009Y-113420222D01*
X208568534Y-113336557D01*
X208738373Y-113285037D01*
X208804558Y-113278518D01*
X208870740Y-113272000D01*
X208959260Y-113272000D01*
X209025442Y-113278518D01*
X209025442Y-113278518D01*
G37*
G36*
X200498721Y-112940174D02*
G01*
X200598995Y-112981709D01*
X200598996Y-112981710D01*
X200689242Y-113042010D01*
X200765990Y-113118758D01*
X200765991Y-113118760D01*
X200826291Y-113209005D01*
X200867826Y-113309279D01*
X200889000Y-113415730D01*
X200889000Y-113524270D01*
X200867826Y-113630721D01*
X200826291Y-113730995D01*
X200826290Y-113730996D01*
X200765990Y-113821242D01*
X200689242Y-113897990D01*
X200643812Y-113928345D01*
X200598995Y-113958291D01*
X200498721Y-113999826D01*
X200392270Y-114021000D01*
X200283730Y-114021000D01*
X200177279Y-113999826D01*
X200077005Y-113958291D01*
X200032188Y-113928345D01*
X199986758Y-113897990D01*
X199910010Y-113821242D01*
X199849710Y-113730996D01*
X199849709Y-113730995D01*
X199808174Y-113630721D01*
X199787000Y-113524270D01*
X199787000Y-113415730D01*
X199808174Y-113309279D01*
X199849709Y-113209005D01*
X199910009Y-113118760D01*
X199910010Y-113118758D01*
X199986758Y-113042010D01*
X200077004Y-112981710D01*
X200077005Y-112981709D01*
X200177279Y-112940174D01*
X200283730Y-112919000D01*
X200392270Y-112919000D01*
X200498721Y-112940174D01*
X200498721Y-112940174D01*
G37*
G36*
X197450721Y-112940174D02*
G01*
X197550995Y-112981709D01*
X197550996Y-112981710D01*
X197641242Y-113042010D01*
X197717990Y-113118758D01*
X197717991Y-113118760D01*
X197778291Y-113209005D01*
X197819826Y-113309279D01*
X197841000Y-113415730D01*
X197841000Y-113524270D01*
X197819826Y-113630721D01*
X197778291Y-113730995D01*
X197778290Y-113730996D01*
X197717990Y-113821242D01*
X197641242Y-113897990D01*
X197595812Y-113928345D01*
X197550995Y-113958291D01*
X197450721Y-113999826D01*
X197344270Y-114021000D01*
X197235730Y-114021000D01*
X197129279Y-113999826D01*
X197029005Y-113958291D01*
X196984188Y-113928345D01*
X196938758Y-113897990D01*
X196862010Y-113821242D01*
X196801710Y-113730996D01*
X196801709Y-113730995D01*
X196760174Y-113630721D01*
X196739000Y-113524270D01*
X196739000Y-113415730D01*
X196760174Y-113309279D01*
X196801709Y-113209005D01*
X196862009Y-113118760D01*
X196862010Y-113118758D01*
X196938758Y-113042010D01*
X197029004Y-112981710D01*
X197029005Y-112981709D01*
X197129279Y-112940174D01*
X197235730Y-112919000D01*
X197344270Y-112919000D01*
X197450721Y-112940174D01*
X197450721Y-112940174D01*
G37*
G36*
X201998562Y-108044181D02*
G01*
X202033481Y-108054774D01*
X202065663Y-108071976D01*
X202093873Y-108095127D01*
X202117024Y-108123337D01*
X202134226Y-108155519D01*
X202144819Y-108190438D01*
X202149000Y-108232895D01*
X202149000Y-109699105D01*
X202144819Y-109741562D01*
X202134226Y-109776481D01*
X202117024Y-109808663D01*
X202093873Y-109836873D01*
X202065663Y-109860024D01*
X202033481Y-109877226D01*
X201998562Y-109887819D01*
X201956105Y-109892000D01*
X200814895Y-109892000D01*
X200772438Y-109887819D01*
X200737519Y-109877226D01*
X200705337Y-109860024D01*
X200677127Y-109836873D01*
X200653976Y-109808663D01*
X200636774Y-109776481D01*
X200626181Y-109741562D01*
X200622000Y-109699105D01*
X200622000Y-108232895D01*
X200626181Y-108190438D01*
X200636774Y-108155519D01*
X200653976Y-108123337D01*
X200677127Y-108095127D01*
X200705337Y-108071976D01*
X200737519Y-108054774D01*
X200772438Y-108044181D01*
X200814895Y-108040000D01*
X201956105Y-108040000D01*
X201998562Y-108044181D01*
X201998562Y-108044181D01*
G37*
G36*
X199023562Y-108044181D02*
G01*
X199058481Y-108054774D01*
X199090663Y-108071976D01*
X199118873Y-108095127D01*
X199142024Y-108123337D01*
X199159226Y-108155519D01*
X199169819Y-108190438D01*
X199174000Y-108232895D01*
X199174000Y-109699105D01*
X199169819Y-109741562D01*
X199159226Y-109776481D01*
X199142024Y-109808663D01*
X199118873Y-109836873D01*
X199090663Y-109860024D01*
X199058481Y-109877226D01*
X199023562Y-109887819D01*
X198981105Y-109892000D01*
X197839895Y-109892000D01*
X197797438Y-109887819D01*
X197762519Y-109877226D01*
X197730337Y-109860024D01*
X197702127Y-109836873D01*
X197678976Y-109808663D01*
X197661774Y-109776481D01*
X197651181Y-109741562D01*
X197647000Y-109699105D01*
X197647000Y-108232895D01*
X197651181Y-108190438D01*
X197661774Y-108155519D01*
X197678976Y-108123337D01*
X197702127Y-108095127D01*
X197730337Y-108071976D01*
X197762519Y-108054774D01*
X197797438Y-108044181D01*
X197839895Y-108040000D01*
X198981105Y-108040000D01*
X199023562Y-108044181D01*
X199023562Y-108044181D01*
G37*
G36*
X204550674Y-108353465D02*
G01*
X204588367Y-108364899D01*
X204623103Y-108383466D01*
X204653548Y-108408452D01*
X204678534Y-108438897D01*
X204697101Y-108473633D01*
X204708535Y-108511326D01*
X204713000Y-108556661D01*
X204713000Y-109393339D01*
X204708535Y-109438674D01*
X204697101Y-109476367D01*
X204678534Y-109511103D01*
X204653548Y-109541548D01*
X204623103Y-109566534D01*
X204588367Y-109585101D01*
X204550674Y-109596535D01*
X204505339Y-109601000D01*
X203418661Y-109601000D01*
X203373326Y-109596535D01*
X203335633Y-109585101D01*
X203300897Y-109566534D01*
X203270452Y-109541548D01*
X203245466Y-109511103D01*
X203226899Y-109476367D01*
X203215465Y-109438674D01*
X203211000Y-109393339D01*
X203211000Y-108556661D01*
X203215465Y-108511326D01*
X203226899Y-108473633D01*
X203245466Y-108438897D01*
X203270452Y-108408452D01*
X203300897Y-108383466D01*
X203335633Y-108364899D01*
X203373326Y-108353465D01*
X203418661Y-108349000D01*
X204505339Y-108349000D01*
X204550674Y-108353465D01*
X204550674Y-108353465D01*
G37*
G36*
X215277000Y-107581000D02*
G01*
X213475000Y-107581000D01*
X213475000Y-105779000D01*
X215277000Y-105779000D01*
X215277000Y-107581000D01*
X215277000Y-107581000D01*
G37*
G36*
X217026443Y-105785519D02*
G01*
X217092627Y-105792037D01*
X217262466Y-105843557D01*
X217418991Y-105927222D01*
X217454729Y-105956552D01*
X217556186Y-106039814D01*
X217639448Y-106141271D01*
X217668778Y-106177009D01*
X217668779Y-106177011D01*
X217752040Y-106332779D01*
X217752443Y-106333534D01*
X217803963Y-106503373D01*
X217821359Y-106680000D01*
X217803963Y-106856627D01*
X217752443Y-107026466D01*
X217668778Y-107182991D01*
X217639448Y-107218729D01*
X217556186Y-107320186D01*
X217472732Y-107388674D01*
X217418991Y-107432778D01*
X217262466Y-107516443D01*
X217092627Y-107567963D01*
X217026443Y-107574481D01*
X216960260Y-107581000D01*
X216871740Y-107581000D01*
X216805557Y-107574481D01*
X216739373Y-107567963D01*
X216569534Y-107516443D01*
X216413009Y-107432778D01*
X216359268Y-107388674D01*
X216275814Y-107320186D01*
X216192552Y-107218729D01*
X216163222Y-107182991D01*
X216079557Y-107026466D01*
X216028037Y-106856627D01*
X216010641Y-106680000D01*
X216028037Y-106503373D01*
X216079557Y-106333534D01*
X216079961Y-106332779D01*
X216163221Y-106177011D01*
X216163222Y-106177009D01*
X216192552Y-106141271D01*
X216275814Y-106039814D01*
X216377271Y-105956552D01*
X216413009Y-105927222D01*
X216569534Y-105843557D01*
X216739373Y-105792037D01*
X216805557Y-105785519D01*
X216871740Y-105779000D01*
X216960260Y-105779000D01*
X217026443Y-105785519D01*
X217026443Y-105785519D01*
G37*
G36*
X204550674Y-106303465D02*
G01*
X204588367Y-106314899D01*
X204623103Y-106333466D01*
X204653548Y-106358452D01*
X204678534Y-106388897D01*
X204697101Y-106423633D01*
X204708535Y-106461326D01*
X204713000Y-106506661D01*
X204713000Y-107343339D01*
X204708535Y-107388674D01*
X204697101Y-107426367D01*
X204678534Y-107461103D01*
X204653548Y-107491548D01*
X204623103Y-107516534D01*
X204588367Y-107535101D01*
X204550674Y-107546535D01*
X204505339Y-107551000D01*
X203418661Y-107551000D01*
X203373326Y-107546535D01*
X203335633Y-107535101D01*
X203300897Y-107516534D01*
X203270452Y-107491548D01*
X203245466Y-107461103D01*
X203226899Y-107426367D01*
X203215465Y-107388674D01*
X203211000Y-107343339D01*
X203211000Y-106506661D01*
X203215465Y-106461326D01*
X203226899Y-106423633D01*
X203245466Y-106388897D01*
X203270452Y-106358452D01*
X203300897Y-106333466D01*
X203335633Y-106314899D01*
X203373326Y-106303465D01*
X203418661Y-106299000D01*
X204505339Y-106299000D01*
X204550674Y-106303465D01*
X204550674Y-106303465D01*
G37*
G36*
X191610442Y-104685518D02*
G01*
X191676627Y-104692037D01*
X191846466Y-104743557D01*
X192002991Y-104827222D01*
X192038729Y-104856552D01*
X192140186Y-104939814D01*
X192212527Y-105027963D01*
X192252778Y-105077009D01*
X192336443Y-105233534D01*
X192387963Y-105403373D01*
X192405359Y-105580000D01*
X192387963Y-105756627D01*
X192343934Y-105901770D01*
X192336442Y-105926468D01*
X192336039Y-105927222D01*
X192252778Y-106082991D01*
X192223448Y-106118729D01*
X192140186Y-106220186D01*
X192044149Y-106299000D01*
X192002991Y-106332778D01*
X191846466Y-106416443D01*
X191676627Y-106467963D01*
X191610442Y-106474482D01*
X191544260Y-106481000D01*
X191455740Y-106481000D01*
X191389558Y-106474482D01*
X191323373Y-106467963D01*
X191153534Y-106416443D01*
X190997009Y-106332778D01*
X190955851Y-106299000D01*
X190859814Y-106220186D01*
X190776552Y-106118729D01*
X190747222Y-106082991D01*
X190663961Y-105927222D01*
X190663558Y-105926468D01*
X190656066Y-105901770D01*
X190612037Y-105756627D01*
X190594641Y-105580000D01*
X190612037Y-105403373D01*
X190663557Y-105233534D01*
X190747222Y-105077009D01*
X190787473Y-105027963D01*
X190859814Y-104939814D01*
X190961271Y-104856552D01*
X190997009Y-104827222D01*
X191153534Y-104743557D01*
X191323373Y-104692037D01*
X191389558Y-104685518D01*
X191455740Y-104679000D01*
X191544260Y-104679000D01*
X191610442Y-104685518D01*
X191610442Y-104685518D01*
G37*
G36*
X201386674Y-104409465D02*
G01*
X201424367Y-104420899D01*
X201459103Y-104439466D01*
X201489548Y-104464452D01*
X201514534Y-104494897D01*
X201533101Y-104529633D01*
X201544535Y-104567326D01*
X201549000Y-104612661D01*
X201549000Y-105699339D01*
X201544535Y-105744674D01*
X201533101Y-105782367D01*
X201514534Y-105817103D01*
X201489548Y-105847548D01*
X201459103Y-105872534D01*
X201424367Y-105891101D01*
X201386674Y-105902535D01*
X201341339Y-105907000D01*
X200504661Y-105907000D01*
X200459326Y-105902535D01*
X200421633Y-105891101D01*
X200386897Y-105872534D01*
X200356452Y-105847548D01*
X200331466Y-105817103D01*
X200312899Y-105782367D01*
X200301465Y-105744674D01*
X200297000Y-105699339D01*
X200297000Y-104612661D01*
X200301465Y-104567326D01*
X200312899Y-104529633D01*
X200331466Y-104494897D01*
X200356452Y-104464452D01*
X200386897Y-104439466D01*
X200421633Y-104420899D01*
X200459326Y-104409465D01*
X200504661Y-104405000D01*
X201341339Y-104405000D01*
X201386674Y-104409465D01*
X201386674Y-104409465D01*
G37*
G36*
X199336674Y-104409465D02*
G01*
X199374367Y-104420899D01*
X199409103Y-104439466D01*
X199439548Y-104464452D01*
X199464534Y-104494897D01*
X199483101Y-104529633D01*
X199494535Y-104567326D01*
X199499000Y-104612661D01*
X199499000Y-105699339D01*
X199494535Y-105744674D01*
X199483101Y-105782367D01*
X199464534Y-105817103D01*
X199439548Y-105847548D01*
X199409103Y-105872534D01*
X199374367Y-105891101D01*
X199336674Y-105902535D01*
X199291339Y-105907000D01*
X198454661Y-105907000D01*
X198409326Y-105902535D01*
X198371633Y-105891101D01*
X198336897Y-105872534D01*
X198306452Y-105847548D01*
X198281466Y-105817103D01*
X198262899Y-105782367D01*
X198251465Y-105744674D01*
X198247000Y-105699339D01*
X198247000Y-104612661D01*
X198251465Y-104567326D01*
X198262899Y-104529633D01*
X198281466Y-104494897D01*
X198306452Y-104464452D01*
X198336897Y-104439466D01*
X198371633Y-104420899D01*
X198409326Y-104409465D01*
X198454661Y-104405000D01*
X199291339Y-104405000D01*
X199336674Y-104409465D01*
X199336674Y-104409465D01*
G37*
G36*
X214486443Y-103245519D02*
G01*
X214552627Y-103252037D01*
X214722466Y-103303557D01*
X214878991Y-103387222D01*
X214914729Y-103416552D01*
X215016186Y-103499814D01*
X215099448Y-103601271D01*
X215128778Y-103637009D01*
X215128779Y-103637011D01*
X215212040Y-103792779D01*
X215212443Y-103793534D01*
X215263963Y-103963373D01*
X215281359Y-104140000D01*
X215263963Y-104316627D01*
X215212443Y-104486466D01*
X215128778Y-104642991D01*
X215100725Y-104677173D01*
X215016186Y-104780186D01*
X214914729Y-104863448D01*
X214878991Y-104892778D01*
X214722466Y-104976443D01*
X214552627Y-105027963D01*
X214486442Y-105034482D01*
X214420260Y-105041000D01*
X214331740Y-105041000D01*
X214265557Y-105034481D01*
X214199373Y-105027963D01*
X214029534Y-104976443D01*
X213873009Y-104892778D01*
X213837271Y-104863448D01*
X213735814Y-104780186D01*
X213651275Y-104677173D01*
X213623222Y-104642991D01*
X213539557Y-104486466D01*
X213488037Y-104316627D01*
X213470641Y-104140000D01*
X213488037Y-103963373D01*
X213539557Y-103793534D01*
X213539961Y-103792779D01*
X213623221Y-103637011D01*
X213623222Y-103637009D01*
X213652552Y-103601271D01*
X213735814Y-103499814D01*
X213837271Y-103416552D01*
X213873009Y-103387222D01*
X214029534Y-103303557D01*
X214199373Y-103252037D01*
X214265558Y-103245518D01*
X214331740Y-103239000D01*
X214420260Y-103239000D01*
X214486443Y-103245519D01*
X214486443Y-103245519D01*
G37*
G36*
X217026443Y-103245519D02*
G01*
X217092627Y-103252037D01*
X217262466Y-103303557D01*
X217418991Y-103387222D01*
X217454729Y-103416552D01*
X217556186Y-103499814D01*
X217639448Y-103601271D01*
X217668778Y-103637009D01*
X217668779Y-103637011D01*
X217752040Y-103792779D01*
X217752443Y-103793534D01*
X217803963Y-103963373D01*
X217821359Y-104140000D01*
X217803963Y-104316627D01*
X217752443Y-104486466D01*
X217668778Y-104642991D01*
X217640725Y-104677173D01*
X217556186Y-104780186D01*
X217454729Y-104863448D01*
X217418991Y-104892778D01*
X217262466Y-104976443D01*
X217092627Y-105027963D01*
X217026442Y-105034482D01*
X216960260Y-105041000D01*
X216871740Y-105041000D01*
X216805557Y-105034481D01*
X216739373Y-105027963D01*
X216569534Y-104976443D01*
X216413009Y-104892778D01*
X216377271Y-104863448D01*
X216275814Y-104780186D01*
X216191275Y-104677173D01*
X216163222Y-104642991D01*
X216079557Y-104486466D01*
X216028037Y-104316627D01*
X216010641Y-104140000D01*
X216028037Y-103963373D01*
X216079557Y-103793534D01*
X216079961Y-103792779D01*
X216163221Y-103637011D01*
X216163222Y-103637009D01*
X216192552Y-103601271D01*
X216275814Y-103499814D01*
X216377271Y-103416552D01*
X216413009Y-103387222D01*
X216569534Y-103303557D01*
X216739373Y-103252037D01*
X216805558Y-103245518D01*
X216871740Y-103239000D01*
X216960260Y-103239000D01*
X217026443Y-103245519D01*
X217026443Y-103245519D01*
G37*
G36*
X191610443Y-102145519D02*
G01*
X191676627Y-102152037D01*
X191846466Y-102203557D01*
X192002991Y-102287222D01*
X192038729Y-102316552D01*
X192140186Y-102399814D01*
X192212527Y-102487963D01*
X192252778Y-102537009D01*
X192336443Y-102693534D01*
X192387963Y-102863373D01*
X192405359Y-103040000D01*
X192387963Y-103216627D01*
X192336443Y-103386466D01*
X192336442Y-103386468D01*
X192336039Y-103387222D01*
X192252778Y-103542991D01*
X192223448Y-103578729D01*
X192140186Y-103680186D01*
X192038729Y-103763448D01*
X192002991Y-103792778D01*
X191846466Y-103876443D01*
X191676627Y-103927963D01*
X191610442Y-103934482D01*
X191544260Y-103941000D01*
X191455740Y-103941000D01*
X191389557Y-103934481D01*
X191323373Y-103927963D01*
X191153534Y-103876443D01*
X190997009Y-103792778D01*
X190961271Y-103763448D01*
X190859814Y-103680186D01*
X190776552Y-103578729D01*
X190747222Y-103542991D01*
X190663961Y-103387222D01*
X190663558Y-103386468D01*
X190663557Y-103386466D01*
X190612037Y-103216627D01*
X190594641Y-103040000D01*
X190612037Y-102863373D01*
X190663557Y-102693534D01*
X190747222Y-102537009D01*
X190787473Y-102487963D01*
X190859814Y-102399814D01*
X190961271Y-102316552D01*
X190997009Y-102287222D01*
X191153534Y-102203557D01*
X191323373Y-102152037D01*
X191389557Y-102145519D01*
X191455740Y-102139000D01*
X191544260Y-102139000D01*
X191610443Y-102145519D01*
X191610443Y-102145519D01*
G37*
G36*
X217026443Y-100705519D02*
G01*
X217092627Y-100712037D01*
X217262466Y-100763557D01*
X217418991Y-100847222D01*
X217439560Y-100864103D01*
X217556186Y-100959814D01*
X217639448Y-101061271D01*
X217668778Y-101097009D01*
X217668779Y-101097011D01*
X217752040Y-101252779D01*
X217752443Y-101253534D01*
X217803963Y-101423373D01*
X217821359Y-101600000D01*
X217803963Y-101776627D01*
X217752443Y-101946466D01*
X217668778Y-102102991D01*
X217639448Y-102138729D01*
X217556186Y-102240186D01*
X217454729Y-102323448D01*
X217418991Y-102352778D01*
X217262466Y-102436443D01*
X217092627Y-102487963D01*
X217026442Y-102494482D01*
X216960260Y-102501000D01*
X216871740Y-102501000D01*
X216805558Y-102494482D01*
X216739373Y-102487963D01*
X216569534Y-102436443D01*
X216413009Y-102352778D01*
X216377271Y-102323448D01*
X216275814Y-102240186D01*
X216192552Y-102138729D01*
X216163222Y-102102991D01*
X216079557Y-101946466D01*
X216028037Y-101776627D01*
X216010641Y-101600000D01*
X216028037Y-101423373D01*
X216079557Y-101253534D01*
X216079961Y-101252779D01*
X216163221Y-101097011D01*
X216163222Y-101097009D01*
X216192552Y-101061271D01*
X216275814Y-100959814D01*
X216392440Y-100864103D01*
X216413009Y-100847222D01*
X216569534Y-100763557D01*
X216739373Y-100712037D01*
X216805557Y-100705519D01*
X216871740Y-100699000D01*
X216960260Y-100699000D01*
X217026443Y-100705519D01*
X217026443Y-100705519D01*
G37*
G36*
X214486443Y-100705519D02*
G01*
X214552627Y-100712037D01*
X214722466Y-100763557D01*
X214878991Y-100847222D01*
X214899560Y-100864103D01*
X215016186Y-100959814D01*
X215099448Y-101061271D01*
X215128778Y-101097009D01*
X215128779Y-101097011D01*
X215212040Y-101252779D01*
X215212443Y-101253534D01*
X215263963Y-101423373D01*
X215281359Y-101600000D01*
X215263963Y-101776627D01*
X215212443Y-101946466D01*
X215128778Y-102102991D01*
X215099448Y-102138729D01*
X215016186Y-102240186D01*
X214914729Y-102323448D01*
X214878991Y-102352778D01*
X214722466Y-102436443D01*
X214552627Y-102487963D01*
X214486442Y-102494482D01*
X214420260Y-102501000D01*
X214331740Y-102501000D01*
X214265558Y-102494482D01*
X214199373Y-102487963D01*
X214029534Y-102436443D01*
X213873009Y-102352778D01*
X213837271Y-102323448D01*
X213735814Y-102240186D01*
X213652552Y-102138729D01*
X213623222Y-102102991D01*
X213539557Y-101946466D01*
X213488037Y-101776627D01*
X213470641Y-101600000D01*
X213488037Y-101423373D01*
X213539557Y-101253534D01*
X213539961Y-101252779D01*
X213623221Y-101097011D01*
X213623222Y-101097009D01*
X213652552Y-101061271D01*
X213735814Y-100959814D01*
X213852440Y-100864103D01*
X213873009Y-100847222D01*
X214029534Y-100763557D01*
X214199373Y-100712037D01*
X214265557Y-100705519D01*
X214331740Y-100699000D01*
X214420260Y-100699000D01*
X214486443Y-100705519D01*
X214486443Y-100705519D01*
G37*
G36*
X191610443Y-99605519D02*
G01*
X191676627Y-99612037D01*
X191846466Y-99663557D01*
X192002991Y-99747222D01*
X192038729Y-99776552D01*
X192140186Y-99859814D01*
X192212527Y-99947963D01*
X192252778Y-99997009D01*
X192336443Y-100153534D01*
X192387963Y-100323373D01*
X192405359Y-100500000D01*
X192387963Y-100676627D01*
X192341630Y-100829367D01*
X192336442Y-100846468D01*
X192336039Y-100847222D01*
X192252778Y-101002991D01*
X192223448Y-101038729D01*
X192140186Y-101140186D01*
X192038729Y-101223448D01*
X192002991Y-101252778D01*
X191846466Y-101336443D01*
X191676627Y-101387963D01*
X191610442Y-101394482D01*
X191544260Y-101401000D01*
X191455740Y-101401000D01*
X191389558Y-101394482D01*
X191323373Y-101387963D01*
X191153534Y-101336443D01*
X190997009Y-101252778D01*
X190961271Y-101223448D01*
X190859814Y-101140186D01*
X190776552Y-101038729D01*
X190747222Y-101002991D01*
X190663961Y-100847222D01*
X190663558Y-100846468D01*
X190658370Y-100829367D01*
X190612037Y-100676627D01*
X190594641Y-100500000D01*
X190612037Y-100323373D01*
X190663557Y-100153534D01*
X190747222Y-99997009D01*
X190787473Y-99947963D01*
X190859814Y-99859814D01*
X190961271Y-99776552D01*
X190997009Y-99747222D01*
X191153534Y-99663557D01*
X191323373Y-99612037D01*
X191389557Y-99605519D01*
X191455740Y-99599000D01*
X191544260Y-99599000D01*
X191610443Y-99605519D01*
X191610443Y-99605519D01*
G37*
G36*
X210013674Y-99456465D02*
G01*
X210051367Y-99467899D01*
X210086103Y-99486466D01*
X210116548Y-99511452D01*
X210141534Y-99541897D01*
X210160101Y-99576633D01*
X210171535Y-99614326D01*
X210176000Y-99659661D01*
X210176000Y-100746339D01*
X210171535Y-100791674D01*
X210160101Y-100829367D01*
X210141534Y-100864103D01*
X210116548Y-100894548D01*
X210086103Y-100919534D01*
X210051367Y-100938101D01*
X210013674Y-100949535D01*
X209968339Y-100954000D01*
X209131661Y-100954000D01*
X209086326Y-100949535D01*
X209048633Y-100938101D01*
X209013897Y-100919534D01*
X208983452Y-100894548D01*
X208958466Y-100864103D01*
X208939899Y-100829367D01*
X208928465Y-100791674D01*
X208924000Y-100746339D01*
X208924000Y-99659661D01*
X208928465Y-99614326D01*
X208939899Y-99576633D01*
X208958466Y-99541897D01*
X208983452Y-99511452D01*
X209013897Y-99486466D01*
X209048633Y-99467899D01*
X209086326Y-99456465D01*
X209131661Y-99452000D01*
X209968339Y-99452000D01*
X210013674Y-99456465D01*
X210013674Y-99456465D01*
G37*
G36*
X212063674Y-99456465D02*
G01*
X212101367Y-99467899D01*
X212136103Y-99486466D01*
X212166548Y-99511452D01*
X212191534Y-99541897D01*
X212210101Y-99576633D01*
X212221535Y-99614326D01*
X212226000Y-99659661D01*
X212226000Y-100746339D01*
X212221535Y-100791674D01*
X212210101Y-100829367D01*
X212191534Y-100864103D01*
X212166548Y-100894548D01*
X212136103Y-100919534D01*
X212101367Y-100938101D01*
X212063674Y-100949535D01*
X212018339Y-100954000D01*
X211181661Y-100954000D01*
X211136326Y-100949535D01*
X211098633Y-100938101D01*
X211063897Y-100919534D01*
X211033452Y-100894548D01*
X211008466Y-100864103D01*
X210989899Y-100829367D01*
X210978465Y-100791674D01*
X210974000Y-100746339D01*
X210974000Y-99659661D01*
X210978465Y-99614326D01*
X210989899Y-99576633D01*
X211008466Y-99541897D01*
X211033452Y-99511452D01*
X211063897Y-99486466D01*
X211098633Y-99467899D01*
X211136326Y-99456465D01*
X211181661Y-99452000D01*
X212018339Y-99452000D01*
X212063674Y-99456465D01*
X212063674Y-99456465D01*
G37*
G36*
X217026443Y-98165519D02*
G01*
X217092627Y-98172037D01*
X217262466Y-98223557D01*
X217418991Y-98307222D01*
X217454729Y-98336552D01*
X217556186Y-98419814D01*
X217639448Y-98521271D01*
X217668778Y-98557009D01*
X217668779Y-98557011D01*
X217752040Y-98712779D01*
X217752443Y-98713534D01*
X217803963Y-98883373D01*
X217821359Y-99060000D01*
X217803963Y-99236627D01*
X217752443Y-99406466D01*
X217668778Y-99562991D01*
X217657582Y-99576633D01*
X217556186Y-99700186D01*
X217454729Y-99783448D01*
X217418991Y-99812778D01*
X217262466Y-99896443D01*
X217092627Y-99947963D01*
X217026443Y-99954481D01*
X216960260Y-99961000D01*
X216871740Y-99961000D01*
X216805557Y-99954481D01*
X216739373Y-99947963D01*
X216569534Y-99896443D01*
X216413009Y-99812778D01*
X216377271Y-99783448D01*
X216275814Y-99700186D01*
X216174418Y-99576633D01*
X216163222Y-99562991D01*
X216079557Y-99406466D01*
X216028037Y-99236627D01*
X216010641Y-99060000D01*
X216028037Y-98883373D01*
X216079557Y-98713534D01*
X216079961Y-98712779D01*
X216163221Y-98557011D01*
X216163222Y-98557009D01*
X216192552Y-98521271D01*
X216275814Y-98419814D01*
X216377271Y-98336552D01*
X216413009Y-98307222D01*
X216569534Y-98223557D01*
X216739373Y-98172037D01*
X216805557Y-98165519D01*
X216871740Y-98159000D01*
X216960260Y-98159000D01*
X217026443Y-98165519D01*
X217026443Y-98165519D01*
G37*
G36*
X214486443Y-98165519D02*
G01*
X214552627Y-98172037D01*
X214722466Y-98223557D01*
X214878991Y-98307222D01*
X214914729Y-98336552D01*
X215016186Y-98419814D01*
X215099448Y-98521271D01*
X215128778Y-98557009D01*
X215128779Y-98557011D01*
X215212040Y-98712779D01*
X215212443Y-98713534D01*
X215263963Y-98883373D01*
X215281359Y-99060000D01*
X215263963Y-99236627D01*
X215212443Y-99406466D01*
X215128778Y-99562991D01*
X215117582Y-99576633D01*
X215016186Y-99700186D01*
X214914729Y-99783448D01*
X214878991Y-99812778D01*
X214722466Y-99896443D01*
X214552627Y-99947963D01*
X214486443Y-99954481D01*
X214420260Y-99961000D01*
X214331740Y-99961000D01*
X214265557Y-99954481D01*
X214199373Y-99947963D01*
X214029534Y-99896443D01*
X213873009Y-99812778D01*
X213837271Y-99783448D01*
X213735814Y-99700186D01*
X213634418Y-99576633D01*
X213623222Y-99562991D01*
X213539557Y-99406466D01*
X213488037Y-99236627D01*
X213470641Y-99060000D01*
X213488037Y-98883373D01*
X213539557Y-98713534D01*
X213539961Y-98712779D01*
X213623221Y-98557011D01*
X213623222Y-98557009D01*
X213652552Y-98521271D01*
X213735814Y-98419814D01*
X213837271Y-98336552D01*
X213873009Y-98307222D01*
X214029534Y-98223557D01*
X214199373Y-98172037D01*
X214265557Y-98165519D01*
X214331740Y-98159000D01*
X214420260Y-98159000D01*
X214486443Y-98165519D01*
X214486443Y-98165519D01*
G37*
G36*
X191610442Y-97065518D02*
G01*
X191676627Y-97072037D01*
X191846466Y-97123557D01*
X192002991Y-97207222D01*
X192038729Y-97236552D01*
X192140186Y-97319814D01*
X192212527Y-97407963D01*
X192252778Y-97457009D01*
X192336443Y-97613534D01*
X192387963Y-97783373D01*
X192405359Y-97960000D01*
X192387963Y-98136627D01*
X192336443Y-98306466D01*
X192336442Y-98306468D01*
X192336039Y-98307222D01*
X192252778Y-98462991D01*
X192223448Y-98498729D01*
X192140186Y-98600186D01*
X192038729Y-98683448D01*
X192002991Y-98712778D01*
X191846466Y-98796443D01*
X191676627Y-98847963D01*
X191610442Y-98854482D01*
X191544260Y-98861000D01*
X191455740Y-98861000D01*
X191389557Y-98854481D01*
X191323373Y-98847963D01*
X191153534Y-98796443D01*
X190997009Y-98712778D01*
X190961271Y-98683448D01*
X190859814Y-98600186D01*
X190776552Y-98498729D01*
X190747222Y-98462991D01*
X190663961Y-98307222D01*
X190663558Y-98306468D01*
X190663557Y-98306466D01*
X190612037Y-98136627D01*
X190594641Y-97960000D01*
X190612037Y-97783373D01*
X190663557Y-97613534D01*
X190747222Y-97457009D01*
X190787473Y-97407963D01*
X190859814Y-97319814D01*
X190961271Y-97236552D01*
X190997009Y-97207222D01*
X191153534Y-97123557D01*
X191323373Y-97072037D01*
X191389558Y-97065518D01*
X191455740Y-97059000D01*
X191544260Y-97059000D01*
X191610442Y-97065518D01*
X191610442Y-97065518D01*
G37*
G36*
X211213000Y-97421000D02*
G01*
X209411000Y-97421000D01*
X209411000Y-95619000D01*
X211213000Y-95619000D01*
X211213000Y-97421000D01*
X211213000Y-97421000D01*
G37*
G36*
X217026442Y-95625518D02*
G01*
X217092627Y-95632037D01*
X217262466Y-95683557D01*
X217418991Y-95767222D01*
X217454729Y-95796552D01*
X217556186Y-95879814D01*
X217639448Y-95981271D01*
X217668778Y-96017009D01*
X217668779Y-96017011D01*
X217752040Y-96172779D01*
X217752443Y-96173534D01*
X217803963Y-96343373D01*
X217821359Y-96520000D01*
X217803963Y-96696627D01*
X217752443Y-96866466D01*
X217668778Y-97022991D01*
X217639448Y-97058729D01*
X217556186Y-97160186D01*
X217454729Y-97243448D01*
X217418991Y-97272778D01*
X217262466Y-97356443D01*
X217092627Y-97407963D01*
X217026442Y-97414482D01*
X216960260Y-97421000D01*
X216871740Y-97421000D01*
X216805558Y-97414482D01*
X216739373Y-97407963D01*
X216569534Y-97356443D01*
X216413009Y-97272778D01*
X216377271Y-97243448D01*
X216275814Y-97160186D01*
X216192552Y-97058729D01*
X216163222Y-97022991D01*
X216079557Y-96866466D01*
X216028037Y-96696627D01*
X216010641Y-96520000D01*
X216028037Y-96343373D01*
X216079557Y-96173534D01*
X216079961Y-96172779D01*
X216163221Y-96017011D01*
X216163222Y-96017009D01*
X216192552Y-95981271D01*
X216275814Y-95879814D01*
X216377271Y-95796552D01*
X216413009Y-95767222D01*
X216569534Y-95683557D01*
X216739373Y-95632037D01*
X216805558Y-95625518D01*
X216871740Y-95619000D01*
X216960260Y-95619000D01*
X217026442Y-95625518D01*
X217026442Y-95625518D01*
G37*
G36*
X214486442Y-95625518D02*
G01*
X214552627Y-95632037D01*
X214722466Y-95683557D01*
X214878991Y-95767222D01*
X214914729Y-95796552D01*
X215016186Y-95879814D01*
X215099448Y-95981271D01*
X215128778Y-96017009D01*
X215128779Y-96017011D01*
X215212040Y-96172779D01*
X215212443Y-96173534D01*
X215263963Y-96343373D01*
X215281359Y-96520000D01*
X215263963Y-96696627D01*
X215212443Y-96866466D01*
X215128778Y-97022991D01*
X215099448Y-97058729D01*
X215016186Y-97160186D01*
X214914729Y-97243448D01*
X214878991Y-97272778D01*
X214722466Y-97356443D01*
X214552627Y-97407963D01*
X214486442Y-97414482D01*
X214420260Y-97421000D01*
X214331740Y-97421000D01*
X214265558Y-97414482D01*
X214199373Y-97407963D01*
X214029534Y-97356443D01*
X213873009Y-97272778D01*
X213837271Y-97243448D01*
X213735814Y-97160186D01*
X213652552Y-97058729D01*
X213623222Y-97022991D01*
X213539557Y-96866466D01*
X213488037Y-96696627D01*
X213470641Y-96520000D01*
X213488037Y-96343373D01*
X213539557Y-96173534D01*
X213539961Y-96172779D01*
X213623221Y-96017011D01*
X213623222Y-96017009D01*
X213652552Y-95981271D01*
X213735814Y-95879814D01*
X213837271Y-95796552D01*
X213873009Y-95767222D01*
X214029534Y-95683557D01*
X214199373Y-95632037D01*
X214265558Y-95625518D01*
X214331740Y-95619000D01*
X214420260Y-95619000D01*
X214486442Y-95625518D01*
X214486442Y-95625518D01*
G37*
G36*
X191610442Y-94525518D02*
G01*
X191676627Y-94532037D01*
X191846466Y-94583557D01*
X192002991Y-94667222D01*
X192038729Y-94696552D01*
X192140186Y-94779814D01*
X192212527Y-94867963D01*
X192252778Y-94917009D01*
X192336443Y-95073534D01*
X192387963Y-95243373D01*
X192405359Y-95420000D01*
X192387963Y-95596627D01*
X192336443Y-95766466D01*
X192336442Y-95766468D01*
X192336039Y-95767222D01*
X192252778Y-95922991D01*
X192223448Y-95958729D01*
X192140186Y-96060186D01*
X192038729Y-96143448D01*
X192002991Y-96172778D01*
X191846466Y-96256443D01*
X191676627Y-96307963D01*
X191610443Y-96314481D01*
X191544260Y-96321000D01*
X191455740Y-96321000D01*
X191389557Y-96314481D01*
X191323373Y-96307963D01*
X191153534Y-96256443D01*
X190997009Y-96172778D01*
X190961271Y-96143448D01*
X190859814Y-96060186D01*
X190776552Y-95958729D01*
X190747222Y-95922991D01*
X190663961Y-95767222D01*
X190663558Y-95766468D01*
X190663557Y-95766466D01*
X190612037Y-95596627D01*
X190594641Y-95420000D01*
X190612037Y-95243373D01*
X190663557Y-95073534D01*
X190747222Y-94917009D01*
X190787473Y-94867963D01*
X190859814Y-94779814D01*
X190961271Y-94696552D01*
X190997009Y-94667222D01*
X191153534Y-94583557D01*
X191323373Y-94532037D01*
X191389557Y-94525519D01*
X191455740Y-94519000D01*
X191544260Y-94519000D01*
X191610442Y-94525518D01*
X191610442Y-94525518D01*
G37*
G36*
X210422443Y-93085519D02*
G01*
X210488627Y-93092037D01*
X210658466Y-93143557D01*
X210814991Y-93227222D01*
X210850729Y-93256552D01*
X210952186Y-93339814D01*
X211035448Y-93441271D01*
X211064778Y-93477009D01*
X211148443Y-93633534D01*
X211199963Y-93803373D01*
X211217359Y-93980000D01*
X211199963Y-94156627D01*
X211148443Y-94326466D01*
X211064778Y-94482991D01*
X211035448Y-94518729D01*
X210952186Y-94620186D01*
X210850729Y-94703448D01*
X210814991Y-94732778D01*
X210658466Y-94816443D01*
X210488627Y-94867963D01*
X210422443Y-94874481D01*
X210356260Y-94881000D01*
X210267740Y-94881000D01*
X210201557Y-94874481D01*
X210135373Y-94867963D01*
X209965534Y-94816443D01*
X209809009Y-94732778D01*
X209773271Y-94703448D01*
X209671814Y-94620186D01*
X209588552Y-94518729D01*
X209559222Y-94482991D01*
X209475557Y-94326466D01*
X209424037Y-94156627D01*
X209406641Y-93980000D01*
X209424037Y-93803373D01*
X209475557Y-93633534D01*
X209559222Y-93477009D01*
X209588552Y-93441271D01*
X209671814Y-93339814D01*
X209773271Y-93256552D01*
X209809009Y-93227222D01*
X209965534Y-93143557D01*
X210135373Y-93092037D01*
X210201557Y-93085519D01*
X210267740Y-93079000D01*
X210356260Y-93079000D01*
X210422443Y-93085519D01*
X210422443Y-93085519D01*
G37*
G36*
X214486443Y-93085519D02*
G01*
X214552627Y-93092037D01*
X214722466Y-93143557D01*
X214878991Y-93227222D01*
X214914729Y-93256552D01*
X215016186Y-93339814D01*
X215099448Y-93441271D01*
X215128778Y-93477009D01*
X215212443Y-93633534D01*
X215263963Y-93803373D01*
X215281359Y-93980000D01*
X215263963Y-94156627D01*
X215212443Y-94326466D01*
X215128778Y-94482991D01*
X215099448Y-94518729D01*
X215016186Y-94620186D01*
X214914729Y-94703448D01*
X214878991Y-94732778D01*
X214722466Y-94816443D01*
X214552627Y-94867963D01*
X214486443Y-94874481D01*
X214420260Y-94881000D01*
X214331740Y-94881000D01*
X214265557Y-94874481D01*
X214199373Y-94867963D01*
X214029534Y-94816443D01*
X213873009Y-94732778D01*
X213837271Y-94703448D01*
X213735814Y-94620186D01*
X213652552Y-94518729D01*
X213623222Y-94482991D01*
X213539557Y-94326466D01*
X213488037Y-94156627D01*
X213470641Y-93980000D01*
X213488037Y-93803373D01*
X213539557Y-93633534D01*
X213623222Y-93477009D01*
X213652552Y-93441271D01*
X213735814Y-93339814D01*
X213837271Y-93256552D01*
X213873009Y-93227222D01*
X214029534Y-93143557D01*
X214199373Y-93092037D01*
X214265557Y-93085519D01*
X214331740Y-93079000D01*
X214420260Y-93079000D01*
X214486443Y-93085519D01*
X214486443Y-93085519D01*
G37*
G36*
X217026443Y-93085519D02*
G01*
X217092627Y-93092037D01*
X217262466Y-93143557D01*
X217418991Y-93227222D01*
X217454729Y-93256552D01*
X217556186Y-93339814D01*
X217639448Y-93441271D01*
X217668778Y-93477009D01*
X217752443Y-93633534D01*
X217803963Y-93803373D01*
X217821359Y-93980000D01*
X217803963Y-94156627D01*
X217752443Y-94326466D01*
X217668778Y-94482991D01*
X217639448Y-94518729D01*
X217556186Y-94620186D01*
X217454729Y-94703448D01*
X217418991Y-94732778D01*
X217262466Y-94816443D01*
X217092627Y-94867963D01*
X217026443Y-94874481D01*
X216960260Y-94881000D01*
X216871740Y-94881000D01*
X216805557Y-94874481D01*
X216739373Y-94867963D01*
X216569534Y-94816443D01*
X216413009Y-94732778D01*
X216377271Y-94703448D01*
X216275814Y-94620186D01*
X216192552Y-94518729D01*
X216163222Y-94482991D01*
X216079557Y-94326466D01*
X216028037Y-94156627D01*
X216010641Y-93980000D01*
X216028037Y-93803373D01*
X216079557Y-93633534D01*
X216163222Y-93477009D01*
X216192552Y-93441271D01*
X216275814Y-93339814D01*
X216377271Y-93256552D01*
X216413009Y-93227222D01*
X216569534Y-93143557D01*
X216739373Y-93092037D01*
X216805557Y-93085519D01*
X216871740Y-93079000D01*
X216960260Y-93079000D01*
X217026443Y-93085519D01*
X217026443Y-93085519D01*
G37*
G36*
X192401000Y-93781000D02*
G01*
X190599000Y-93781000D01*
X190599000Y-91979000D01*
X192401000Y-91979000D01*
X192401000Y-93781000D01*
X192401000Y-93781000D01*
G37*
G36*
X214486443Y-90545519D02*
G01*
X214552627Y-90552037D01*
X214722466Y-90603557D01*
X214878991Y-90687222D01*
X214914729Y-90716552D01*
X215016186Y-90799814D01*
X215099448Y-90901271D01*
X215128778Y-90937009D01*
X215212443Y-91093534D01*
X215263963Y-91263373D01*
X215281359Y-91440000D01*
X215263963Y-91616627D01*
X215212443Y-91786466D01*
X215128778Y-91942991D01*
X215099448Y-91978729D01*
X215016186Y-92080186D01*
X214914729Y-92163448D01*
X214878991Y-92192778D01*
X214722466Y-92276443D01*
X214552627Y-92327963D01*
X214486443Y-92334481D01*
X214420260Y-92341000D01*
X214331740Y-92341000D01*
X214265557Y-92334481D01*
X214199373Y-92327963D01*
X214029534Y-92276443D01*
X213873009Y-92192778D01*
X213837271Y-92163448D01*
X213735814Y-92080186D01*
X213652552Y-91978729D01*
X213623222Y-91942991D01*
X213539557Y-91786466D01*
X213488037Y-91616627D01*
X213470641Y-91440000D01*
X213488037Y-91263373D01*
X213539557Y-91093534D01*
X213623222Y-90937009D01*
X213652552Y-90901271D01*
X213735814Y-90799814D01*
X213837271Y-90716552D01*
X213873009Y-90687222D01*
X214029534Y-90603557D01*
X214199373Y-90552037D01*
X214265558Y-90545518D01*
X214331740Y-90539000D01*
X214420260Y-90539000D01*
X214486443Y-90545519D01*
X214486443Y-90545519D01*
G37*
G36*
X217026443Y-90545519D02*
G01*
X217092627Y-90552037D01*
X217262466Y-90603557D01*
X217418991Y-90687222D01*
X217454729Y-90716552D01*
X217556186Y-90799814D01*
X217639448Y-90901271D01*
X217668778Y-90937009D01*
X217752443Y-91093534D01*
X217803963Y-91263373D01*
X217821359Y-91440000D01*
X217803963Y-91616627D01*
X217752443Y-91786466D01*
X217668778Y-91942991D01*
X217639448Y-91978729D01*
X217556186Y-92080186D01*
X217454729Y-92163448D01*
X217418991Y-92192778D01*
X217262466Y-92276443D01*
X217092627Y-92327963D01*
X217026443Y-92334481D01*
X216960260Y-92341000D01*
X216871740Y-92341000D01*
X216805557Y-92334481D01*
X216739373Y-92327963D01*
X216569534Y-92276443D01*
X216413009Y-92192778D01*
X216377271Y-92163448D01*
X216275814Y-92080186D01*
X216192552Y-91978729D01*
X216163222Y-91942991D01*
X216079557Y-91786466D01*
X216028037Y-91616627D01*
X216010641Y-91440000D01*
X216028037Y-91263373D01*
X216079557Y-91093534D01*
X216163222Y-90937009D01*
X216192552Y-90901271D01*
X216275814Y-90799814D01*
X216377271Y-90716552D01*
X216413009Y-90687222D01*
X216569534Y-90603557D01*
X216739373Y-90552037D01*
X216805558Y-90545518D01*
X216871740Y-90539000D01*
X216960260Y-90539000D01*
X217026443Y-90545519D01*
X217026443Y-90545519D01*
G37*
G36*
X198327674Y-90137965D02*
G01*
X198365367Y-90149399D01*
X198400103Y-90167966D01*
X198430548Y-90192952D01*
X198455534Y-90223397D01*
X198474101Y-90258133D01*
X198485535Y-90295826D01*
X198490000Y-90341161D01*
X198490000Y-91177839D01*
X198485535Y-91223174D01*
X198474101Y-91260867D01*
X198455534Y-91295603D01*
X198430548Y-91326048D01*
X198400103Y-91351034D01*
X198365367Y-91369601D01*
X198327674Y-91381035D01*
X198282339Y-91385500D01*
X197195661Y-91385500D01*
X197150326Y-91381035D01*
X197112633Y-91369601D01*
X197077897Y-91351034D01*
X197047452Y-91326048D01*
X197022466Y-91295603D01*
X197003899Y-91260867D01*
X196992465Y-91223174D01*
X196988000Y-91177839D01*
X196988000Y-90341161D01*
X196992465Y-90295826D01*
X197003899Y-90258133D01*
X197022466Y-90223397D01*
X197047452Y-90192952D01*
X197077897Y-90167966D01*
X197112633Y-90149399D01*
X197150326Y-90137965D01*
X197195661Y-90133500D01*
X198282339Y-90133500D01*
X198327674Y-90137965D01*
X198327674Y-90137965D01*
G37*
G36*
X191453674Y-89169465D02*
G01*
X191491367Y-89180899D01*
X191526103Y-89199466D01*
X191556548Y-89224452D01*
X191581534Y-89254897D01*
X191600101Y-89289633D01*
X191611535Y-89327326D01*
X191616000Y-89372661D01*
X191616000Y-90459339D01*
X191611535Y-90504674D01*
X191600101Y-90542367D01*
X191581534Y-90577103D01*
X191556548Y-90607548D01*
X191526103Y-90632534D01*
X191491367Y-90651101D01*
X191453674Y-90662535D01*
X191408339Y-90667000D01*
X190571661Y-90667000D01*
X190526326Y-90662535D01*
X190488633Y-90651101D01*
X190453897Y-90632534D01*
X190423452Y-90607548D01*
X190398466Y-90577103D01*
X190379899Y-90542367D01*
X190368465Y-90504674D01*
X190364000Y-90459339D01*
X190364000Y-89372661D01*
X190368465Y-89327326D01*
X190379899Y-89289633D01*
X190398466Y-89254897D01*
X190423452Y-89224452D01*
X190453897Y-89199466D01*
X190488633Y-89180899D01*
X190526326Y-89169465D01*
X190571661Y-89165000D01*
X191408339Y-89165000D01*
X191453674Y-89169465D01*
X191453674Y-89169465D01*
G37*
G36*
X193503674Y-89169465D02*
G01*
X193541367Y-89180899D01*
X193576103Y-89199466D01*
X193606548Y-89224452D01*
X193631534Y-89254897D01*
X193650101Y-89289633D01*
X193661535Y-89327326D01*
X193666000Y-89372661D01*
X193666000Y-90459339D01*
X193661535Y-90504674D01*
X193650101Y-90542367D01*
X193631534Y-90577103D01*
X193606548Y-90607548D01*
X193576103Y-90632534D01*
X193541367Y-90651101D01*
X193503674Y-90662535D01*
X193458339Y-90667000D01*
X192621661Y-90667000D01*
X192576326Y-90662535D01*
X192538633Y-90651101D01*
X192503897Y-90632534D01*
X192473452Y-90607548D01*
X192448466Y-90577103D01*
X192429899Y-90542367D01*
X192418465Y-90504674D01*
X192414000Y-90459339D01*
X192414000Y-89372661D01*
X192418465Y-89327326D01*
X192429899Y-89289633D01*
X192448466Y-89254897D01*
X192473452Y-89224452D01*
X192503897Y-89199466D01*
X192538633Y-89180899D01*
X192576326Y-89169465D01*
X192621661Y-89165000D01*
X193458339Y-89165000D01*
X193503674Y-89169465D01*
X193503674Y-89169465D01*
G37*
G36*
X209344202Y-84579781D02*
G01*
X209619606Y-84634562D01*
X210138455Y-84849476D01*
X210605407Y-85161484D01*
X211002516Y-85558593D01*
X211314524Y-86025545D01*
X211529438Y-86544394D01*
X211639000Y-87095201D01*
X211639000Y-87656799D01*
X211529438Y-88207606D01*
X211314524Y-88726455D01*
X211089433Y-89063327D01*
X211016036Y-89173174D01*
X211002516Y-89193407D01*
X210605407Y-89590516D01*
X210138455Y-89902524D01*
X209619606Y-90117438D01*
X209434700Y-90154218D01*
X209068800Y-90227000D01*
X208507200Y-90227000D01*
X208141300Y-90154218D01*
X207956394Y-90117438D01*
X207437545Y-89902524D01*
X206970593Y-89590516D01*
X206573484Y-89193407D01*
X206559965Y-89173174D01*
X206486567Y-89063327D01*
X206261476Y-88726455D01*
X206046562Y-88207606D01*
X205937000Y-87656799D01*
X205937000Y-87095201D01*
X206046562Y-86544394D01*
X206261476Y-86025545D01*
X206573484Y-85558593D01*
X206970593Y-85161484D01*
X207437545Y-84849476D01*
X207956394Y-84634562D01*
X208231798Y-84579781D01*
X208507200Y-84525000D01*
X209068800Y-84525000D01*
X209344202Y-84579781D01*
X209344202Y-84579781D01*
G37*
G36*
X217026443Y-88005519D02*
G01*
X217092627Y-88012037D01*
X217262466Y-88063557D01*
X217262468Y-88063558D01*
X217308130Y-88087965D01*
X217418991Y-88147222D01*
X217438482Y-88163218D01*
X217556186Y-88259814D01*
X217617996Y-88335131D01*
X217668778Y-88397009D01*
X217752443Y-88553534D01*
X217803963Y-88723373D01*
X217821359Y-88900000D01*
X217803963Y-89076627D01*
X217752443Y-89246466D01*
X217752442Y-89246468D01*
X217736631Y-89276048D01*
X217668778Y-89402991D01*
X217640725Y-89437173D01*
X217556186Y-89540186D01*
X217454729Y-89623448D01*
X217418991Y-89652778D01*
X217262466Y-89736443D01*
X217092627Y-89787963D01*
X217026443Y-89794481D01*
X216960260Y-89801000D01*
X216871740Y-89801000D01*
X216805557Y-89794481D01*
X216739373Y-89787963D01*
X216569534Y-89736443D01*
X216413009Y-89652778D01*
X216377271Y-89623448D01*
X216275814Y-89540186D01*
X216191275Y-89437173D01*
X216163222Y-89402991D01*
X216095369Y-89276048D01*
X216079558Y-89246468D01*
X216079557Y-89246466D01*
X216028037Y-89076627D01*
X216010641Y-88900000D01*
X216028037Y-88723373D01*
X216079557Y-88553534D01*
X216163222Y-88397009D01*
X216214004Y-88335131D01*
X216275814Y-88259814D01*
X216393518Y-88163218D01*
X216413009Y-88147222D01*
X216523870Y-88087965D01*
X216569532Y-88063558D01*
X216569534Y-88063557D01*
X216739373Y-88012037D01*
X216805558Y-88005518D01*
X216871740Y-87999000D01*
X216960260Y-87999000D01*
X217026443Y-88005519D01*
X217026443Y-88005519D01*
G37*
G36*
X214486443Y-88005519D02*
G01*
X214552627Y-88012037D01*
X214722466Y-88063557D01*
X214722468Y-88063558D01*
X214768130Y-88087965D01*
X214878991Y-88147222D01*
X214898482Y-88163218D01*
X215016186Y-88259814D01*
X215077996Y-88335131D01*
X215128778Y-88397009D01*
X215212443Y-88553534D01*
X215263963Y-88723373D01*
X215281359Y-88900000D01*
X215263963Y-89076627D01*
X215212443Y-89246466D01*
X215212442Y-89246468D01*
X215196631Y-89276048D01*
X215128778Y-89402991D01*
X215100725Y-89437173D01*
X215016186Y-89540186D01*
X214914729Y-89623448D01*
X214878991Y-89652778D01*
X214722466Y-89736443D01*
X214552627Y-89787963D01*
X214486443Y-89794481D01*
X214420260Y-89801000D01*
X214331740Y-89801000D01*
X214265557Y-89794481D01*
X214199373Y-89787963D01*
X214029534Y-89736443D01*
X213873009Y-89652778D01*
X213837271Y-89623448D01*
X213735814Y-89540186D01*
X213651275Y-89437173D01*
X213623222Y-89402991D01*
X213555369Y-89276048D01*
X213539558Y-89246468D01*
X213539557Y-89246466D01*
X213488037Y-89076627D01*
X213470641Y-88900000D01*
X213488037Y-88723373D01*
X213539557Y-88553534D01*
X213623222Y-88397009D01*
X213674004Y-88335131D01*
X213735814Y-88259814D01*
X213853518Y-88163218D01*
X213873009Y-88147222D01*
X213983870Y-88087965D01*
X214029532Y-88063558D01*
X214029534Y-88063557D01*
X214199373Y-88012037D01*
X214265558Y-88005518D01*
X214331740Y-87999000D01*
X214420260Y-87999000D01*
X214486443Y-88005519D01*
X214486443Y-88005519D01*
G37*
G36*
X198327674Y-88087965D02*
G01*
X198365367Y-88099399D01*
X198400103Y-88117966D01*
X198430548Y-88142952D01*
X198455534Y-88173397D01*
X198474101Y-88208133D01*
X198485535Y-88245826D01*
X198490000Y-88291161D01*
X198490000Y-89127839D01*
X198485535Y-89173174D01*
X198474101Y-89210867D01*
X198455534Y-89245603D01*
X198430548Y-89276048D01*
X198400103Y-89301034D01*
X198365367Y-89319601D01*
X198327674Y-89331035D01*
X198282339Y-89335500D01*
X197195661Y-89335500D01*
X197150326Y-89331035D01*
X197112633Y-89319601D01*
X197077897Y-89301034D01*
X197047452Y-89276048D01*
X197022466Y-89245603D01*
X197003899Y-89210867D01*
X196992465Y-89173174D01*
X196988000Y-89127839D01*
X196988000Y-88291161D01*
X196992465Y-88245826D01*
X197003899Y-88208133D01*
X197022466Y-88173397D01*
X197047452Y-88142952D01*
X197077897Y-88117966D01*
X197112633Y-88099399D01*
X197150326Y-88087965D01*
X197195661Y-88083500D01*
X198282339Y-88083500D01*
X198327674Y-88087965D01*
X198327674Y-88087965D01*
G37*
G36*
X193512674Y-86883465D02*
G01*
X193550367Y-86894899D01*
X193585103Y-86913466D01*
X193615548Y-86938452D01*
X193640534Y-86968897D01*
X193659101Y-87003633D01*
X193670535Y-87041326D01*
X193675000Y-87086661D01*
X193675000Y-88173339D01*
X193670535Y-88218674D01*
X193659101Y-88256367D01*
X193640534Y-88291103D01*
X193615548Y-88321548D01*
X193585103Y-88346534D01*
X193550367Y-88365101D01*
X193512674Y-88376535D01*
X193467339Y-88381000D01*
X192630661Y-88381000D01*
X192585326Y-88376535D01*
X192547633Y-88365101D01*
X192512897Y-88346534D01*
X192482452Y-88321548D01*
X192457466Y-88291103D01*
X192438899Y-88256367D01*
X192427465Y-88218674D01*
X192423000Y-88173339D01*
X192423000Y-87086661D01*
X192427465Y-87041326D01*
X192438899Y-87003633D01*
X192457466Y-86968897D01*
X192482452Y-86938452D01*
X192512897Y-86913466D01*
X192547633Y-86894899D01*
X192585326Y-86883465D01*
X192630661Y-86879000D01*
X193467339Y-86879000D01*
X193512674Y-86883465D01*
X193512674Y-86883465D01*
G37*
G36*
X191462674Y-86883465D02*
G01*
X191500367Y-86894899D01*
X191535103Y-86913466D01*
X191565548Y-86938452D01*
X191590534Y-86968897D01*
X191609101Y-87003633D01*
X191620535Y-87041326D01*
X191625000Y-87086661D01*
X191625000Y-88173339D01*
X191620535Y-88218674D01*
X191609101Y-88256367D01*
X191590534Y-88291103D01*
X191565548Y-88321548D01*
X191535103Y-88346534D01*
X191500367Y-88365101D01*
X191462674Y-88376535D01*
X191417339Y-88381000D01*
X190580661Y-88381000D01*
X190535326Y-88376535D01*
X190497633Y-88365101D01*
X190462897Y-88346534D01*
X190432452Y-88321548D01*
X190407466Y-88291103D01*
X190388899Y-88256367D01*
X190377465Y-88218674D01*
X190373000Y-88173339D01*
X190373000Y-87086661D01*
X190377465Y-87041326D01*
X190388899Y-87003633D01*
X190407466Y-86968897D01*
X190432452Y-86938452D01*
X190462897Y-86913466D01*
X190497633Y-86894899D01*
X190535326Y-86883465D01*
X190580661Y-86879000D01*
X191417339Y-86879000D01*
X191462674Y-86883465D01*
X191462674Y-86883465D01*
G37*
M02*
