%TF.GenerationSoftware,KiCad,Pcbnew,9.0.7*%
%TF.CreationDate,2026-02-11T23:03:53-05:00*%
%TF.ProjectId,camera,63616d65-7261-42e6-9b69-6361645f7063,rev?*%
%TF.SameCoordinates,Original*%
%TF.FileFunction,Drillmap*%
%TF.FilePolarity,Positive*%
%FSLAX45Y45*%
G04 Gerber Fmt 4.5, Leading zero omitted, Abs format (unit mm)*
G04 Created by KiCad (PCBNEW 9.0.7) date 2026-02-11 23:03:53*
%MOMM*%
%LPD*%
G01*
G04 APERTURE LIST*
%ADD10C,0.100000*%
%ADD11C,0.200000*%
%ADD12C,0.145000*%
G04 APERTURE END LIST*
D10*
X20116800Y-11277600D02*
G75*
G02*
X19761200Y-11633200I-355600J0D01*
G01*
X15951200Y-11633200D02*
G75*
G02*
X15595600Y-11277600I0J355600D01*
G01*
X15595600Y-11277600D02*
X15595600Y-8737600D01*
X20116800Y-8737600D02*
X20116800Y-11277600D01*
X15951200Y-8382000D02*
X19761200Y-8382000D01*
X19761200Y-11633200D02*
X15951200Y-11633200D01*
X19761200Y-8382000D02*
G75*
G02*
X20116800Y-8737600I0J-355600D01*
G01*
X15595600Y-8737600D02*
G75*
G02*
X15951200Y-8382000I355600J0D01*
G01*
D11*
D10*
X15652750Y-10585450D02*
X15690850Y-10623550D01*
X15690850Y-10585450D02*
X15652750Y-10623550D01*
X15665250Y-9048250D02*
X15703350Y-9086350D01*
X15703350Y-9048250D02*
X15665250Y-9086350D01*
X15665250Y-11338250D02*
X15703350Y-11376350D01*
X15703350Y-11338250D02*
X15665250Y-11376350D01*
X15665450Y-9493250D02*
X15703550Y-9531350D01*
X15703550Y-9493250D02*
X15665450Y-9531350D01*
X15665450Y-9912350D02*
X15703550Y-9950450D01*
X15703550Y-9912350D02*
X15665450Y-9950450D01*
X15675250Y-8718250D02*
X15713350Y-8756350D01*
X15713350Y-8718250D02*
X15675250Y-8756350D01*
X15715250Y-11108250D02*
X15753350Y-11146350D01*
X15753350Y-11108250D02*
X15715250Y-11146350D01*
X15745250Y-8528250D02*
X15783350Y-8566350D01*
X15783350Y-8528250D02*
X15745250Y-8566350D01*
X15755250Y-8928250D02*
X15793350Y-8966350D01*
X15793350Y-8928250D02*
X15755250Y-8966350D01*
X15855250Y-11508250D02*
X15893350Y-11546350D01*
X15893350Y-11508250D02*
X15855250Y-11546350D01*
X15855950Y-10814050D02*
X15894050Y-10852150D01*
X15894050Y-10814050D02*
X15855950Y-10852150D01*
X15915250Y-10998250D02*
X15953350Y-11036350D01*
X15953350Y-10998250D02*
X15915250Y-11036350D01*
X15955250Y-8478250D02*
X15993350Y-8516350D01*
X15993350Y-8478250D02*
X15955250Y-8516350D01*
X15965250Y-8978250D02*
X16003350Y-9016350D01*
X16003350Y-8978250D02*
X15965250Y-9016350D01*
X15995650Y-9696450D02*
X16033750Y-9734550D01*
X16033750Y-9696450D02*
X15995650Y-9734550D01*
X16013450Y-9566629D02*
X16051550Y-9604729D01*
X16051550Y-9566629D02*
X16013450Y-9604729D01*
X16026864Y-9436130D02*
X16064964Y-9474230D01*
X16064964Y-9436130D02*
X16026864Y-9474230D01*
X16046450Y-9899650D02*
X16084550Y-9937750D01*
X16084550Y-9899650D02*
X16046450Y-9937750D01*
X16145250Y-10348910D02*
X16183350Y-10387010D01*
X16183350Y-10348910D02*
X16145250Y-10387010D01*
X16155250Y-8608250D02*
X16193350Y-8646350D01*
X16193350Y-8608250D02*
X16155250Y-8646350D01*
X16155250Y-11398250D02*
X16193350Y-11436350D01*
X16193350Y-11398250D02*
X16155250Y-11436350D01*
X16165250Y-8808250D02*
X16203350Y-8846350D01*
X16203350Y-8808250D02*
X16165250Y-8846350D01*
X16185250Y-11168250D02*
X16223350Y-11206350D01*
X16223350Y-11168250D02*
X16185250Y-11206350D01*
X16195250Y-10848250D02*
X16233350Y-10886350D01*
X16233350Y-10848250D02*
X16195250Y-10886350D01*
X16300450Y-9683750D02*
X16338550Y-9721850D01*
X16338550Y-9683750D02*
X16300450Y-9721850D01*
X16300450Y-9975850D02*
X16338550Y-10013950D01*
X16338550Y-9975850D02*
X16300450Y-10013950D01*
X16300450Y-10219310D02*
X16338550Y-10257410D01*
X16338550Y-10219310D02*
X16300450Y-10257410D01*
X16325850Y-8451850D02*
X16363950Y-8489950D01*
X16363950Y-8451850D02*
X16325850Y-8489950D01*
X16325850Y-8934450D02*
X16363950Y-8972550D01*
X16363950Y-8934450D02*
X16325850Y-8972550D01*
X16389350Y-8705850D02*
X16427450Y-8743950D01*
X16427450Y-8705850D02*
X16389350Y-8743950D01*
X16389350Y-11207750D02*
X16427450Y-11245850D01*
X16427450Y-11207750D02*
X16389350Y-11245850D01*
X16402050Y-10763250D02*
X16440150Y-10801350D01*
X16440150Y-10763250D02*
X16402050Y-10801350D01*
X16478250Y-11474450D02*
X16516350Y-11512550D01*
X16516350Y-11474450D02*
X16478250Y-11512550D01*
X16490950Y-9582150D02*
X16529050Y-9620250D01*
X16529050Y-9582150D02*
X16490950Y-9620250D01*
X16513114Y-9893094D02*
X16551214Y-9931194D01*
X16551214Y-9893094D02*
X16513114Y-9931194D01*
X16535276Y-10258819D02*
X16573376Y-10296919D01*
X16573376Y-10258819D02*
X16535276Y-10296919D01*
X16585250Y-9228250D02*
X16623350Y-9266350D01*
X16623350Y-9228250D02*
X16585250Y-9266350D01*
X16613190Y-10187034D02*
X16651290Y-10225134D01*
X16651290Y-10187034D02*
X16613190Y-10225134D01*
X16719550Y-11258550D02*
X16757650Y-11296650D01*
X16757650Y-11258550D02*
X16719550Y-11296650D01*
X16765250Y-10208250D02*
X16803350Y-10246350D01*
X16803350Y-10208250D02*
X16765250Y-10246350D01*
X16773491Y-9826591D02*
X16811591Y-9864691D01*
X16811591Y-9826591D02*
X16773491Y-9864691D01*
X16838486Y-9471967D02*
X16876586Y-9510067D01*
X16876586Y-9471967D02*
X16838486Y-9510067D01*
X16906150Y-9236289D02*
X16944250Y-9274389D01*
X16944250Y-9236289D02*
X16906150Y-9274389D01*
X16907031Y-9404470D02*
X16945131Y-9442570D01*
X16945131Y-9404470D02*
X16907031Y-9442570D01*
X16910050Y-11487150D02*
X16948150Y-11525250D01*
X16948150Y-11487150D02*
X16910050Y-11525250D01*
X17026967Y-9122333D02*
X17065067Y-9160433D01*
X17065067Y-9122333D02*
X17026967Y-9160433D01*
X17075250Y-11308250D02*
X17113350Y-11346350D01*
X17113350Y-11308250D02*
X17075250Y-11346350D01*
X17100550Y-8820150D02*
X17138650Y-8858250D01*
X17138650Y-8820150D02*
X17100550Y-8858250D01*
X17125950Y-8413750D02*
X17164050Y-8451850D01*
X17164050Y-8413750D02*
X17125950Y-8451850D01*
X17125950Y-8578850D02*
X17164050Y-8616950D01*
X17164050Y-8578850D02*
X17125950Y-8616950D01*
X17125950Y-10598150D02*
X17164050Y-10636250D01*
X17164050Y-10598150D02*
X17125950Y-10636250D01*
X17138650Y-9036050D02*
X17176750Y-9074150D01*
X17176750Y-9036050D02*
X17138650Y-9074150D01*
X17181597Y-9810750D02*
X17219697Y-9848850D01*
X17219697Y-9810750D02*
X17181597Y-9848850D01*
X17181719Y-9618351D02*
X17219819Y-9656451D01*
X17219819Y-9618351D02*
X17181719Y-9656451D01*
X17182002Y-9714551D02*
X17220102Y-9752651D01*
X17220102Y-9714551D02*
X17182002Y-9752651D01*
X17195590Y-9285810D02*
X17233690Y-9323910D01*
X17233690Y-9285810D02*
X17195590Y-9323910D01*
X17265550Y-10462158D02*
X17303650Y-10500258D01*
X17303650Y-10462158D02*
X17265550Y-10500258D01*
X17315250Y-11528250D02*
X17353350Y-11566350D01*
X17353350Y-11528250D02*
X17315250Y-11566350D01*
X17318622Y-9823450D02*
X17356722Y-9861550D01*
X17356722Y-9823450D02*
X17318622Y-9861550D01*
X17318622Y-10039350D02*
X17356722Y-10077450D01*
X17356722Y-10039350D02*
X17318622Y-10077450D01*
X17389986Y-10179050D02*
X17428086Y-10217150D01*
X17428086Y-10179050D02*
X17389986Y-10217150D01*
X17430010Y-9415310D02*
X17468110Y-9453410D01*
X17468110Y-9415310D02*
X17430010Y-9453410D01*
X17455971Y-9577680D02*
X17494071Y-9615780D01*
X17494071Y-9577680D02*
X17455971Y-9615780D01*
X17473916Y-10234916D02*
X17512016Y-10273016D01*
X17512016Y-10234916D02*
X17473916Y-10273016D01*
X17473950Y-10814397D02*
X17512050Y-10852497D01*
X17512050Y-10814397D02*
X17473950Y-10852497D01*
X17526175Y-9417915D02*
X17564275Y-9456015D01*
X17564275Y-9417915D02*
X17526175Y-9456015D01*
X17532350Y-10369550D02*
X17570450Y-10407650D01*
X17570450Y-10369550D02*
X17532350Y-10407650D01*
X17594560Y-9698645D02*
X17632660Y-9736745D01*
X17632660Y-9698645D02*
X17594560Y-9736745D01*
X17605306Y-9356794D02*
X17643406Y-9394894D01*
X17643406Y-9356794D02*
X17605306Y-9394894D01*
X17611920Y-9461530D02*
X17650020Y-9499630D01*
X17650020Y-9461530D02*
X17611920Y-9499630D01*
X17645785Y-9206234D02*
X17683885Y-9244334D01*
X17683885Y-9206234D02*
X17645785Y-9244334D01*
X17665250Y-11518250D02*
X17703350Y-11556350D01*
X17703350Y-11518250D02*
X17665250Y-11556350D01*
X17862550Y-10814050D02*
X17900650Y-10852150D01*
X17900650Y-10814050D02*
X17862550Y-10852150D01*
X17875250Y-9721850D02*
X17913350Y-9759950D01*
X17913350Y-9721850D02*
X17875250Y-9759950D01*
X17875250Y-9928250D02*
X17913350Y-9966350D01*
X17913350Y-9928250D02*
X17875250Y-9966350D01*
X17893570Y-9607550D02*
X17931670Y-9645650D01*
X17931670Y-9607550D02*
X17893570Y-9645650D01*
X17913350Y-10166350D02*
X17951450Y-10204450D01*
X17951450Y-10166350D02*
X17913350Y-10204450D01*
X17943490Y-10386250D02*
X17981590Y-10424350D01*
X17981590Y-10386250D02*
X17943490Y-10424350D01*
X17964150Y-9798050D02*
X18002250Y-9836150D01*
X18002250Y-9798050D02*
X17964150Y-9836150D01*
X18035250Y-11408250D02*
X18073350Y-11446350D01*
X18073350Y-11408250D02*
X18035250Y-11446350D01*
X18078450Y-9874250D02*
X18116550Y-9912350D01*
X18116550Y-9874250D02*
X18078450Y-9912350D01*
X18174750Y-9500650D02*
X18212850Y-9538750D01*
X18212850Y-9500650D02*
X18174750Y-9538750D01*
X18175250Y-8658250D02*
X18213350Y-8696350D01*
X18213350Y-8658250D02*
X18175250Y-8696350D01*
X18187990Y-10166350D02*
X18226090Y-10204450D01*
X18226090Y-10166350D02*
X18187990Y-10204450D01*
X18211021Y-10389168D02*
X18249121Y-10427268D01*
X18249121Y-10389168D02*
X18211021Y-10427268D01*
X18255250Y-8438250D02*
X18293350Y-8476350D01*
X18293350Y-8438250D02*
X18255250Y-8476350D01*
X18319750Y-10763250D02*
X18357850Y-10801350D01*
X18357850Y-10763250D02*
X18319750Y-10801350D01*
X18332450Y-11195050D02*
X18370550Y-11233150D01*
X18370550Y-11195050D02*
X18332450Y-11233150D01*
X18357850Y-9290050D02*
X18395950Y-9328150D01*
X18395950Y-9290050D02*
X18357850Y-9328150D01*
X18395250Y-11548250D02*
X18433350Y-11586350D01*
X18433350Y-11548250D02*
X18395250Y-11586350D01*
X18405250Y-8438250D02*
X18443350Y-8476350D01*
X18443350Y-8438250D02*
X18405250Y-8476350D01*
X18421350Y-10826850D02*
X18459450Y-10864950D01*
X18459450Y-10826850D02*
X18421350Y-10864950D01*
X18436674Y-10015838D02*
X18474774Y-10053938D01*
X18474774Y-10015838D02*
X18436674Y-10053938D01*
X18484850Y-8947150D02*
X18522950Y-8985250D01*
X18522950Y-8947150D02*
X18484850Y-8985250D01*
X18555250Y-10818250D02*
X18593350Y-10856350D01*
X18593350Y-10818250D02*
X18555250Y-10856350D01*
X18575250Y-11538250D02*
X18613350Y-11576350D01*
X18613350Y-11538250D02*
X18575250Y-11576350D01*
X18599150Y-10534650D02*
X18637250Y-10572750D01*
X18637250Y-10534650D02*
X18599150Y-10572750D01*
X18605250Y-11328250D02*
X18643350Y-11366350D01*
X18643350Y-11328250D02*
X18605250Y-11366350D01*
X18649950Y-9150350D02*
X18688050Y-9188450D01*
X18688050Y-9150350D02*
X18649950Y-9188450D01*
X18665250Y-11168250D02*
X18703350Y-11206350D01*
X18703350Y-11168250D02*
X18665250Y-11206350D01*
X18685250Y-10828250D02*
X18723350Y-10866350D01*
X18723350Y-10828250D02*
X18685250Y-10866350D01*
X18738850Y-8477250D02*
X18776950Y-8515350D01*
X18776950Y-8477250D02*
X18738850Y-8515350D01*
X18738850Y-8591550D02*
X18776950Y-8629650D01*
X18776950Y-8591550D02*
X18738850Y-8629650D01*
X18738850Y-9658350D02*
X18776950Y-9696450D01*
X18776950Y-9658350D02*
X18738850Y-9696450D01*
X18781710Y-10125050D02*
X18819810Y-10163150D01*
X18819810Y-10125050D02*
X18781710Y-10163150D01*
X18785250Y-11518250D02*
X18823350Y-11556350D01*
X18823350Y-11518250D02*
X18785250Y-11556350D01*
X18837917Y-9555160D02*
X18876017Y-9593260D01*
X18876017Y-9555160D02*
X18837917Y-9593260D01*
X18854574Y-10787961D02*
X18892674Y-10826061D01*
X18892674Y-10787961D02*
X18854574Y-10826061D01*
X18905250Y-10318750D02*
X18943350Y-10356850D01*
X18943350Y-10318750D02*
X18905250Y-10356850D01*
X18929350Y-8477250D02*
X18967450Y-8515350D01*
X18967450Y-8477250D02*
X18929350Y-8515350D01*
X18929350Y-8591550D02*
X18967450Y-8629650D01*
X18967450Y-8591550D02*
X18929350Y-8629650D01*
X18942050Y-9696450D02*
X18980150Y-9734550D01*
X18980150Y-9696450D02*
X18942050Y-9734550D01*
X18954750Y-9582150D02*
X18992850Y-9620250D01*
X18992850Y-9582150D02*
X18954750Y-9620250D01*
X19005550Y-10560050D02*
X19043650Y-10598150D01*
X19043650Y-10560050D02*
X19005550Y-10598150D01*
X19069050Y-9556750D02*
X19107150Y-9594850D01*
X19107150Y-9556750D02*
X19069050Y-9594850D01*
X19105250Y-11558250D02*
X19143350Y-11596350D01*
X19143350Y-11558250D02*
X19105250Y-11596350D01*
X19119850Y-9086850D02*
X19157950Y-9124950D01*
X19157950Y-9086850D02*
X19119850Y-9124950D01*
X19183350Y-8553450D02*
X19221450Y-8591550D01*
X19221450Y-8553450D02*
X19183350Y-8591550D01*
X19183350Y-9556750D02*
X19221450Y-9594850D01*
X19221450Y-9556750D02*
X19183350Y-9594850D01*
X19185250Y-11148250D02*
X19223350Y-11186350D01*
X19223350Y-11148250D02*
X19185250Y-11186350D01*
X19196050Y-8451850D02*
X19234150Y-8489950D01*
X19234150Y-8451850D02*
X19196050Y-8489950D01*
X19272250Y-9556750D02*
X19310350Y-9594850D01*
X19310350Y-9556750D02*
X19272250Y-9594850D01*
X19272250Y-10260870D02*
X19310350Y-10298970D01*
X19310350Y-10260870D02*
X19272250Y-10298970D01*
X19373850Y-10229850D02*
X19411950Y-10267950D01*
X19411950Y-10229850D02*
X19373850Y-10267950D01*
X19386550Y-9569450D02*
X19424650Y-9607550D01*
X19424650Y-9569450D02*
X19386550Y-9607550D01*
X19399250Y-10140950D02*
X19437350Y-10179050D01*
X19437350Y-10140950D02*
X19399250Y-10179050D01*
X19411950Y-10026650D02*
X19450050Y-10064750D01*
X19450050Y-10026650D02*
X19411950Y-10064750D01*
X19424650Y-9074150D02*
X19462750Y-9112250D01*
X19462750Y-9074150D02*
X19424650Y-9112250D01*
X19445250Y-11548250D02*
X19483350Y-11586350D01*
X19483350Y-11548250D02*
X19445250Y-11586350D01*
X19475250Y-8678250D02*
X19513350Y-8716350D01*
X19513350Y-8678250D02*
X19475250Y-8716350D01*
X19488150Y-10217150D02*
X19526250Y-10255250D01*
X19526250Y-10217150D02*
X19488150Y-10255250D01*
X19500850Y-9594850D02*
X19538950Y-9632950D01*
X19538950Y-9594850D02*
X19500850Y-9632950D01*
X19505250Y-11318250D02*
X19543350Y-11356350D01*
X19543350Y-11318250D02*
X19505250Y-11356350D01*
X19515250Y-8528250D02*
X19553350Y-8566350D01*
X19553350Y-8528250D02*
X19515250Y-8566350D01*
X19526250Y-10026650D02*
X19564350Y-10064750D01*
X19564350Y-10026650D02*
X19526250Y-10064750D01*
X19535250Y-8878250D02*
X19573350Y-8916350D01*
X19573350Y-8878250D02*
X19535250Y-8916350D01*
X19551650Y-10661650D02*
X19589750Y-10699750D01*
X19589750Y-10661650D02*
X19551650Y-10699750D01*
X19564350Y-9912350D02*
X19602450Y-9950450D01*
X19602450Y-9912350D02*
X19564350Y-9950450D01*
X19577050Y-9683750D02*
X19615150Y-9721850D01*
X19615150Y-9683750D02*
X19577050Y-9721850D01*
X19625250Y-11028250D02*
X19663350Y-11066350D01*
X19663350Y-11028250D02*
X19625250Y-11066350D01*
X19705250Y-11528250D02*
X19743350Y-11566350D01*
X19743350Y-11528250D02*
X19705250Y-11566350D01*
X19716750Y-10826750D02*
X19754850Y-10864850D01*
X19754850Y-10826750D02*
X19716750Y-10864850D01*
X19755250Y-8448250D02*
X19793350Y-8486350D01*
X19793350Y-8448250D02*
X19755250Y-8486350D01*
X19755250Y-9218250D02*
X19793350Y-9256350D01*
X19793350Y-9218250D02*
X19755250Y-9256350D01*
X19775250Y-8958250D02*
X19813350Y-8996350D01*
X19813350Y-8958250D02*
X19775250Y-8996350D01*
X19843750Y-10166350D02*
X19881850Y-10204450D01*
X19881850Y-10166350D02*
X19843750Y-10204450D01*
X19843750Y-10369550D02*
X19881850Y-10407650D01*
X19881850Y-10369550D02*
X19843750Y-10407650D01*
X19843750Y-10674350D02*
X19881850Y-10712450D01*
X19881850Y-10674350D02*
X19843750Y-10712450D01*
X19895250Y-11008250D02*
X19933350Y-11046350D01*
X19933350Y-11008250D02*
X19895250Y-11046350D01*
X19935250Y-11458250D02*
X19973350Y-11496350D01*
X19973350Y-11458250D02*
X19935250Y-11496350D01*
X19965250Y-9518250D02*
X20003350Y-9556350D01*
X20003350Y-9518250D02*
X19965250Y-9556350D01*
X19970750Y-9874250D02*
X20008850Y-9912350D01*
X20008850Y-9874250D02*
X19970750Y-9912350D01*
X19975250Y-8578250D02*
X20013350Y-8616350D01*
X20013350Y-8578250D02*
X19975250Y-8616350D01*
X19975250Y-8828250D02*
X20013350Y-8866350D01*
X20013350Y-8828250D02*
X19975250Y-8866350D01*
X19975250Y-11208250D02*
X20013350Y-11246350D01*
X20013350Y-11208250D02*
X19975250Y-11246350D01*
X20008850Y-9086850D02*
X20046950Y-9124950D01*
X20046950Y-9086850D02*
X20008850Y-9124950D01*
X15734300Y-10417300D02*
G75*
G02*
X15694300Y-10417300I-20000J0D01*
G01*
X15694300Y-10417300D02*
G75*
G02*
X15734300Y-10417300I20000J0D01*
G01*
X16339500Y-10134600D02*
G75*
G02*
X16299500Y-10134600I-20000J0D01*
G01*
X16299500Y-10134600D02*
G75*
G02*
X16339500Y-10134600I20000J0D01*
G01*
X16881949Y-9017499D02*
G75*
G02*
X16841949Y-9017499I-20000J0D01*
G01*
X16841949Y-9017499D02*
G75*
G02*
X16881949Y-9017499I20000J0D01*
G01*
X16969772Y-9160366D02*
G75*
G02*
X16929772Y-9160366I-20000J0D01*
G01*
X16929772Y-9160366D02*
G75*
G02*
X16969772Y-9160366I20000J0D01*
G01*
X18190060Y-9227648D02*
G75*
G02*
X18150060Y-9227648I-20000J0D01*
G01*
X18150060Y-9227648D02*
G75*
G02*
X18190060Y-9227648I20000J0D01*
G01*
X18320073Y-8945827D02*
G75*
G02*
X18280073Y-8945827I-20000J0D01*
G01*
X18280073Y-8945827D02*
G75*
G02*
X18320073Y-8945827I20000J0D01*
G01*
X18370549Y-10303830D02*
G75*
G02*
X18330549Y-10303830I-20000J0D01*
G01*
X18330549Y-10303830D02*
G75*
G02*
X18370549Y-10303830I20000J0D01*
G01*
X18387200Y-10465728D02*
G75*
G02*
X18347200Y-10465728I-20000J0D01*
G01*
X18347200Y-10465728D02*
G75*
G02*
X18387200Y-10465728I20000J0D01*
G01*
X18768416Y-10397300D02*
G75*
G02*
X18728416Y-10397300I-20000J0D01*
G01*
X18728416Y-10397300D02*
G75*
G02*
X18768416Y-10397300I20000J0D01*
G01*
X17025600Y-10986500D02*
X17025600Y-11046500D01*
X16995600Y-11016500D02*
X17055600Y-11016500D01*
X17025600Y-11111500D02*
X17025600Y-11171500D01*
X16995600Y-11141500D02*
X17055600Y-11141500D01*
X17150600Y-10986500D02*
X17150600Y-11046500D01*
X17120600Y-11016500D02*
X17180600Y-11016500D01*
X17150600Y-11111500D02*
X17150600Y-11171500D01*
X17120600Y-11141500D02*
X17180600Y-11141500D01*
D12*
X17471866Y-11109766D02*
X17471866Y-11007234D01*
X17369334Y-11007234D01*
X17369334Y-11109766D01*
X17471866Y-11109766D01*
X17846866Y-11109766D02*
X17846866Y-11007234D01*
X17744334Y-11007234D01*
X17744334Y-11109766D01*
X17846866Y-11109766D01*
X18221866Y-11109766D02*
X18221866Y-11007234D01*
X18119334Y-11007234D01*
X18119334Y-11109766D01*
X18221866Y-11109766D01*
X18596866Y-11109766D02*
X18596866Y-11007234D01*
X18494334Y-11007234D01*
X18494334Y-11109766D01*
X18596866Y-11109766D01*
D11*
X15851377Y-11949684D02*
X15851377Y-11749684D01*
X15851377Y-11749684D02*
X15898996Y-11749684D01*
X15898996Y-11749684D02*
X15927567Y-11759208D01*
X15927567Y-11759208D02*
X15946615Y-11778255D01*
X15946615Y-11778255D02*
X15956139Y-11797303D01*
X15956139Y-11797303D02*
X15965662Y-11835398D01*
X15965662Y-11835398D02*
X15965662Y-11863969D01*
X15965662Y-11863969D02*
X15956139Y-11902065D01*
X15956139Y-11902065D02*
X15946615Y-11921112D01*
X15946615Y-11921112D02*
X15927567Y-11940160D01*
X15927567Y-11940160D02*
X15898996Y-11949684D01*
X15898996Y-11949684D02*
X15851377Y-11949684D01*
X16051377Y-11949684D02*
X16051377Y-11816350D01*
X16051377Y-11854446D02*
X16060901Y-11835398D01*
X16060901Y-11835398D02*
X16070424Y-11825874D01*
X16070424Y-11825874D02*
X16089472Y-11816350D01*
X16089472Y-11816350D02*
X16108520Y-11816350D01*
X16175186Y-11949684D02*
X16175186Y-11816350D01*
X16175186Y-11749684D02*
X16165662Y-11759208D01*
X16165662Y-11759208D02*
X16175186Y-11768731D01*
X16175186Y-11768731D02*
X16184710Y-11759208D01*
X16184710Y-11759208D02*
X16175186Y-11749684D01*
X16175186Y-11749684D02*
X16175186Y-11768731D01*
X16298996Y-11949684D02*
X16279948Y-11940160D01*
X16279948Y-11940160D02*
X16270424Y-11921112D01*
X16270424Y-11921112D02*
X16270424Y-11749684D01*
X16403758Y-11949684D02*
X16384710Y-11940160D01*
X16384710Y-11940160D02*
X16375186Y-11921112D01*
X16375186Y-11921112D02*
X16375186Y-11749684D01*
X16632329Y-11949684D02*
X16632329Y-11749684D01*
X16632329Y-11749684D02*
X16698996Y-11892541D01*
X16698996Y-11892541D02*
X16765662Y-11749684D01*
X16765662Y-11749684D02*
X16765662Y-11949684D01*
X16946615Y-11949684D02*
X16946615Y-11844922D01*
X16946615Y-11844922D02*
X16937091Y-11825874D01*
X16937091Y-11825874D02*
X16918044Y-11816350D01*
X16918044Y-11816350D02*
X16879948Y-11816350D01*
X16879948Y-11816350D02*
X16860901Y-11825874D01*
X16946615Y-11940160D02*
X16927567Y-11949684D01*
X16927567Y-11949684D02*
X16879948Y-11949684D01*
X16879948Y-11949684D02*
X16860901Y-11940160D01*
X16860901Y-11940160D02*
X16851377Y-11921112D01*
X16851377Y-11921112D02*
X16851377Y-11902065D01*
X16851377Y-11902065D02*
X16860901Y-11883017D01*
X16860901Y-11883017D02*
X16879948Y-11873493D01*
X16879948Y-11873493D02*
X16927567Y-11873493D01*
X16927567Y-11873493D02*
X16946615Y-11863969D01*
X17041853Y-11816350D02*
X17041853Y-12016350D01*
X17041853Y-11825874D02*
X17060901Y-11816350D01*
X17060901Y-11816350D02*
X17098996Y-11816350D01*
X17098996Y-11816350D02*
X17118044Y-11825874D01*
X17118044Y-11825874D02*
X17127567Y-11835398D01*
X17127567Y-11835398D02*
X17137091Y-11854446D01*
X17137091Y-11854446D02*
X17137091Y-11911588D01*
X17137091Y-11911588D02*
X17127567Y-11930636D01*
X17127567Y-11930636D02*
X17118044Y-11940160D01*
X17118044Y-11940160D02*
X17098996Y-11949684D01*
X17098996Y-11949684D02*
X17060901Y-11949684D01*
X17060901Y-11949684D02*
X17041853Y-11940160D01*
X17222805Y-11930636D02*
X17232329Y-11940160D01*
X17232329Y-11940160D02*
X17222805Y-11949684D01*
X17222805Y-11949684D02*
X17213282Y-11940160D01*
X17213282Y-11940160D02*
X17222805Y-11930636D01*
X17222805Y-11930636D02*
X17222805Y-11949684D01*
X17222805Y-11825874D02*
X17232329Y-11835398D01*
X17232329Y-11835398D02*
X17222805Y-11844922D01*
X17222805Y-11844922D02*
X17213282Y-11835398D01*
X17213282Y-11835398D02*
X17222805Y-11825874D01*
X17222805Y-11825874D02*
X17222805Y-11844922D01*
D10*
X15552500Y-12259150D02*
X15590600Y-12297250D01*
X15590600Y-12259150D02*
X15552500Y-12297250D01*
D11*
X15889472Y-12169684D02*
X15908520Y-12169684D01*
X15908520Y-12169684D02*
X15927567Y-12179208D01*
X15927567Y-12179208D02*
X15937091Y-12188731D01*
X15937091Y-12188731D02*
X15946615Y-12207779D01*
X15946615Y-12207779D02*
X15956139Y-12245874D01*
X15956139Y-12245874D02*
X15956139Y-12293493D01*
X15956139Y-12293493D02*
X15946615Y-12331588D01*
X15946615Y-12331588D02*
X15937091Y-12350636D01*
X15937091Y-12350636D02*
X15927567Y-12360160D01*
X15927567Y-12360160D02*
X15908520Y-12369684D01*
X15908520Y-12369684D02*
X15889472Y-12369684D01*
X15889472Y-12369684D02*
X15870424Y-12360160D01*
X15870424Y-12360160D02*
X15860901Y-12350636D01*
X15860901Y-12350636D02*
X15851377Y-12331588D01*
X15851377Y-12331588D02*
X15841853Y-12293493D01*
X15841853Y-12293493D02*
X15841853Y-12245874D01*
X15841853Y-12245874D02*
X15851377Y-12207779D01*
X15851377Y-12207779D02*
X15860901Y-12188731D01*
X15860901Y-12188731D02*
X15870424Y-12179208D01*
X15870424Y-12179208D02*
X15889472Y-12169684D01*
X16041853Y-12350636D02*
X16051377Y-12360160D01*
X16051377Y-12360160D02*
X16041853Y-12369684D01*
X16041853Y-12369684D02*
X16032329Y-12360160D01*
X16032329Y-12360160D02*
X16041853Y-12350636D01*
X16041853Y-12350636D02*
X16041853Y-12369684D01*
X16118043Y-12169684D02*
X16241853Y-12169684D01*
X16241853Y-12169684D02*
X16175186Y-12245874D01*
X16175186Y-12245874D02*
X16203758Y-12245874D01*
X16203758Y-12245874D02*
X16222805Y-12255398D01*
X16222805Y-12255398D02*
X16232329Y-12264922D01*
X16232329Y-12264922D02*
X16241853Y-12283969D01*
X16241853Y-12283969D02*
X16241853Y-12331588D01*
X16241853Y-12331588D02*
X16232329Y-12350636D01*
X16232329Y-12350636D02*
X16222805Y-12360160D01*
X16222805Y-12360160D02*
X16203758Y-12369684D01*
X16203758Y-12369684D02*
X16146615Y-12369684D01*
X16146615Y-12369684D02*
X16127567Y-12360160D01*
X16127567Y-12360160D02*
X16118043Y-12350636D01*
X16356139Y-12255398D02*
X16337091Y-12245874D01*
X16337091Y-12245874D02*
X16327567Y-12236350D01*
X16327567Y-12236350D02*
X16318043Y-12217303D01*
X16318043Y-12217303D02*
X16318043Y-12207779D01*
X16318043Y-12207779D02*
X16327567Y-12188731D01*
X16327567Y-12188731D02*
X16337091Y-12179208D01*
X16337091Y-12179208D02*
X16356139Y-12169684D01*
X16356139Y-12169684D02*
X16394234Y-12169684D01*
X16394234Y-12169684D02*
X16413282Y-12179208D01*
X16413282Y-12179208D02*
X16422805Y-12188731D01*
X16422805Y-12188731D02*
X16432329Y-12207779D01*
X16432329Y-12207779D02*
X16432329Y-12217303D01*
X16432329Y-12217303D02*
X16422805Y-12236350D01*
X16422805Y-12236350D02*
X16413282Y-12245874D01*
X16413282Y-12245874D02*
X16394234Y-12255398D01*
X16394234Y-12255398D02*
X16356139Y-12255398D01*
X16356139Y-12255398D02*
X16337091Y-12264922D01*
X16337091Y-12264922D02*
X16327567Y-12274446D01*
X16327567Y-12274446D02*
X16318043Y-12293493D01*
X16318043Y-12293493D02*
X16318043Y-12331588D01*
X16318043Y-12331588D02*
X16327567Y-12350636D01*
X16327567Y-12350636D02*
X16337091Y-12360160D01*
X16337091Y-12360160D02*
X16356139Y-12369684D01*
X16356139Y-12369684D02*
X16394234Y-12369684D01*
X16394234Y-12369684D02*
X16413282Y-12360160D01*
X16413282Y-12360160D02*
X16422805Y-12350636D01*
X16422805Y-12350636D02*
X16432329Y-12331588D01*
X16432329Y-12331588D02*
X16432329Y-12293493D01*
X16432329Y-12293493D02*
X16422805Y-12274446D01*
X16422805Y-12274446D02*
X16413282Y-12264922D01*
X16413282Y-12264922D02*
X16394234Y-12255398D01*
X16622805Y-12369684D02*
X16508520Y-12369684D01*
X16565662Y-12369684D02*
X16565662Y-12169684D01*
X16565662Y-12169684D02*
X16546615Y-12198255D01*
X16546615Y-12198255D02*
X16527567Y-12217303D01*
X16527567Y-12217303D02*
X16508520Y-12226827D01*
X16708520Y-12369684D02*
X16708520Y-12236350D01*
X16708520Y-12255398D02*
X16718043Y-12245874D01*
X16718043Y-12245874D02*
X16737091Y-12236350D01*
X16737091Y-12236350D02*
X16765663Y-12236350D01*
X16765663Y-12236350D02*
X16784710Y-12245874D01*
X16784710Y-12245874D02*
X16794234Y-12264922D01*
X16794234Y-12264922D02*
X16794234Y-12369684D01*
X16794234Y-12264922D02*
X16803758Y-12245874D01*
X16803758Y-12245874D02*
X16822805Y-12236350D01*
X16822805Y-12236350D02*
X16851377Y-12236350D01*
X16851377Y-12236350D02*
X16870425Y-12245874D01*
X16870425Y-12245874D02*
X16879948Y-12264922D01*
X16879948Y-12264922D02*
X16879948Y-12369684D01*
X16975186Y-12369684D02*
X16975186Y-12236350D01*
X16975186Y-12255398D02*
X16984710Y-12245874D01*
X16984710Y-12245874D02*
X17003758Y-12236350D01*
X17003758Y-12236350D02*
X17032329Y-12236350D01*
X17032329Y-12236350D02*
X17051377Y-12245874D01*
X17051377Y-12245874D02*
X17060901Y-12264922D01*
X17060901Y-12264922D02*
X17060901Y-12369684D01*
X17060901Y-12264922D02*
X17070425Y-12245874D01*
X17070425Y-12245874D02*
X17089472Y-12236350D01*
X17089472Y-12236350D02*
X17118044Y-12236350D01*
X17118044Y-12236350D02*
X17137091Y-12245874D01*
X17137091Y-12245874D02*
X17146615Y-12264922D01*
X17146615Y-12264922D02*
X17146615Y-12369684D01*
X17537091Y-12160160D02*
X17365663Y-12417303D01*
X17794234Y-12169684D02*
X17813282Y-12169684D01*
X17813282Y-12169684D02*
X17832329Y-12179208D01*
X17832329Y-12179208D02*
X17841853Y-12188731D01*
X17841853Y-12188731D02*
X17851377Y-12207779D01*
X17851377Y-12207779D02*
X17860901Y-12245874D01*
X17860901Y-12245874D02*
X17860901Y-12293493D01*
X17860901Y-12293493D02*
X17851377Y-12331588D01*
X17851377Y-12331588D02*
X17841853Y-12350636D01*
X17841853Y-12350636D02*
X17832329Y-12360160D01*
X17832329Y-12360160D02*
X17813282Y-12369684D01*
X17813282Y-12369684D02*
X17794234Y-12369684D01*
X17794234Y-12369684D02*
X17775187Y-12360160D01*
X17775187Y-12360160D02*
X17765663Y-12350636D01*
X17765663Y-12350636D02*
X17756139Y-12331588D01*
X17756139Y-12331588D02*
X17746615Y-12293493D01*
X17746615Y-12293493D02*
X17746615Y-12245874D01*
X17746615Y-12245874D02*
X17756139Y-12207779D01*
X17756139Y-12207779D02*
X17765663Y-12188731D01*
X17765663Y-12188731D02*
X17775187Y-12179208D01*
X17775187Y-12179208D02*
X17794234Y-12169684D01*
X17946615Y-12350636D02*
X17956139Y-12360160D01*
X17956139Y-12360160D02*
X17946615Y-12369684D01*
X17946615Y-12369684D02*
X17937091Y-12360160D01*
X17937091Y-12360160D02*
X17946615Y-12350636D01*
X17946615Y-12350636D02*
X17946615Y-12369684D01*
X18079948Y-12169684D02*
X18098996Y-12169684D01*
X18098996Y-12169684D02*
X18118044Y-12179208D01*
X18118044Y-12179208D02*
X18127568Y-12188731D01*
X18127568Y-12188731D02*
X18137091Y-12207779D01*
X18137091Y-12207779D02*
X18146615Y-12245874D01*
X18146615Y-12245874D02*
X18146615Y-12293493D01*
X18146615Y-12293493D02*
X18137091Y-12331588D01*
X18137091Y-12331588D02*
X18127568Y-12350636D01*
X18127568Y-12350636D02*
X18118044Y-12360160D01*
X18118044Y-12360160D02*
X18098996Y-12369684D01*
X18098996Y-12369684D02*
X18079948Y-12369684D01*
X18079948Y-12369684D02*
X18060901Y-12360160D01*
X18060901Y-12360160D02*
X18051377Y-12350636D01*
X18051377Y-12350636D02*
X18041853Y-12331588D01*
X18041853Y-12331588D02*
X18032329Y-12293493D01*
X18032329Y-12293493D02*
X18032329Y-12245874D01*
X18032329Y-12245874D02*
X18041853Y-12207779D01*
X18041853Y-12207779D02*
X18051377Y-12188731D01*
X18051377Y-12188731D02*
X18060901Y-12179208D01*
X18060901Y-12179208D02*
X18079948Y-12169684D01*
X18337091Y-12369684D02*
X18222806Y-12369684D01*
X18279948Y-12369684D02*
X18279948Y-12169684D01*
X18279948Y-12169684D02*
X18260901Y-12198255D01*
X18260901Y-12198255D02*
X18241853Y-12217303D01*
X18241853Y-12217303D02*
X18222806Y-12226827D01*
X18518044Y-12169684D02*
X18422806Y-12169684D01*
X18422806Y-12169684D02*
X18413282Y-12264922D01*
X18413282Y-12264922D02*
X18422806Y-12255398D01*
X18422806Y-12255398D02*
X18441853Y-12245874D01*
X18441853Y-12245874D02*
X18489472Y-12245874D01*
X18489472Y-12245874D02*
X18508520Y-12255398D01*
X18508520Y-12255398D02*
X18518044Y-12264922D01*
X18518044Y-12264922D02*
X18527568Y-12283969D01*
X18527568Y-12283969D02*
X18527568Y-12331588D01*
X18527568Y-12331588D02*
X18518044Y-12350636D01*
X18518044Y-12350636D02*
X18508520Y-12360160D01*
X18508520Y-12360160D02*
X18489472Y-12369684D01*
X18489472Y-12369684D02*
X18441853Y-12369684D01*
X18441853Y-12369684D02*
X18422806Y-12360160D01*
X18422806Y-12360160D02*
X18413282Y-12350636D01*
X18651377Y-12169684D02*
X18670425Y-12169684D01*
X18670425Y-12169684D02*
X18689472Y-12179208D01*
X18689472Y-12179208D02*
X18698996Y-12188731D01*
X18698996Y-12188731D02*
X18708520Y-12207779D01*
X18708520Y-12207779D02*
X18718044Y-12245874D01*
X18718044Y-12245874D02*
X18718044Y-12293493D01*
X18718044Y-12293493D02*
X18708520Y-12331588D01*
X18708520Y-12331588D02*
X18698996Y-12350636D01*
X18698996Y-12350636D02*
X18689472Y-12360160D01*
X18689472Y-12360160D02*
X18670425Y-12369684D01*
X18670425Y-12369684D02*
X18651377Y-12369684D01*
X18651377Y-12369684D02*
X18632329Y-12360160D01*
X18632329Y-12360160D02*
X18622806Y-12350636D01*
X18622806Y-12350636D02*
X18613282Y-12331588D01*
X18613282Y-12331588D02*
X18603758Y-12293493D01*
X18603758Y-12293493D02*
X18603758Y-12245874D01*
X18603758Y-12245874D02*
X18613282Y-12207779D01*
X18613282Y-12207779D02*
X18622806Y-12188731D01*
X18622806Y-12188731D02*
X18632329Y-12179208D01*
X18632329Y-12179208D02*
X18651377Y-12169684D01*
X18794234Y-12169684D02*
X18794234Y-12207779D01*
X18870425Y-12169684D02*
X18870425Y-12207779D01*
X19165663Y-12445874D02*
X19156139Y-12436350D01*
X19156139Y-12436350D02*
X19137091Y-12407779D01*
X19137091Y-12407779D02*
X19127568Y-12388731D01*
X19127568Y-12388731D02*
X19118044Y-12360160D01*
X19118044Y-12360160D02*
X19108520Y-12312541D01*
X19108520Y-12312541D02*
X19108520Y-12274446D01*
X19108520Y-12274446D02*
X19118044Y-12226827D01*
X19118044Y-12226827D02*
X19127568Y-12198255D01*
X19127568Y-12198255D02*
X19137091Y-12179208D01*
X19137091Y-12179208D02*
X19156139Y-12150636D01*
X19156139Y-12150636D02*
X19165663Y-12141112D01*
X19346615Y-12369684D02*
X19232330Y-12369684D01*
X19289472Y-12369684D02*
X19289472Y-12169684D01*
X19289472Y-12169684D02*
X19270425Y-12198255D01*
X19270425Y-12198255D02*
X19251377Y-12217303D01*
X19251377Y-12217303D02*
X19232330Y-12226827D01*
X19527568Y-12169684D02*
X19432330Y-12169684D01*
X19432330Y-12169684D02*
X19422806Y-12264922D01*
X19422806Y-12264922D02*
X19432330Y-12255398D01*
X19432330Y-12255398D02*
X19451377Y-12245874D01*
X19451377Y-12245874D02*
X19498996Y-12245874D01*
X19498996Y-12245874D02*
X19518044Y-12255398D01*
X19518044Y-12255398D02*
X19527568Y-12264922D01*
X19527568Y-12264922D02*
X19537091Y-12283969D01*
X19537091Y-12283969D02*
X19537091Y-12331588D01*
X19537091Y-12331588D02*
X19527568Y-12350636D01*
X19527568Y-12350636D02*
X19518044Y-12360160D01*
X19518044Y-12360160D02*
X19498996Y-12369684D01*
X19498996Y-12369684D02*
X19451377Y-12369684D01*
X19451377Y-12369684D02*
X19432330Y-12360160D01*
X19432330Y-12360160D02*
X19422806Y-12350636D01*
X19708520Y-12169684D02*
X19670425Y-12169684D01*
X19670425Y-12169684D02*
X19651377Y-12179208D01*
X19651377Y-12179208D02*
X19641853Y-12188731D01*
X19641853Y-12188731D02*
X19622806Y-12217303D01*
X19622806Y-12217303D02*
X19613282Y-12255398D01*
X19613282Y-12255398D02*
X19613282Y-12331588D01*
X19613282Y-12331588D02*
X19622806Y-12350636D01*
X19622806Y-12350636D02*
X19632330Y-12360160D01*
X19632330Y-12360160D02*
X19651377Y-12369684D01*
X19651377Y-12369684D02*
X19689472Y-12369684D01*
X19689472Y-12369684D02*
X19708520Y-12360160D01*
X19708520Y-12360160D02*
X19718044Y-12350636D01*
X19718044Y-12350636D02*
X19727568Y-12331588D01*
X19727568Y-12331588D02*
X19727568Y-12283969D01*
X19727568Y-12283969D02*
X19718044Y-12264922D01*
X19718044Y-12264922D02*
X19708520Y-12255398D01*
X19708520Y-12255398D02*
X19689472Y-12245874D01*
X19689472Y-12245874D02*
X19651377Y-12245874D01*
X19651377Y-12245874D02*
X19632330Y-12255398D01*
X19632330Y-12255398D02*
X19622806Y-12264922D01*
X19622806Y-12264922D02*
X19613282Y-12283969D01*
X19965663Y-12369684D02*
X19965663Y-12169684D01*
X20051377Y-12369684D02*
X20051377Y-12264922D01*
X20051377Y-12264922D02*
X20041853Y-12245874D01*
X20041853Y-12245874D02*
X20022806Y-12236350D01*
X20022806Y-12236350D02*
X19994234Y-12236350D01*
X19994234Y-12236350D02*
X19975187Y-12245874D01*
X19975187Y-12245874D02*
X19965663Y-12255398D01*
X20175187Y-12369684D02*
X20156139Y-12360160D01*
X20156139Y-12360160D02*
X20146615Y-12350636D01*
X20146615Y-12350636D02*
X20137092Y-12331588D01*
X20137092Y-12331588D02*
X20137092Y-12274446D01*
X20137092Y-12274446D02*
X20146615Y-12255398D01*
X20146615Y-12255398D02*
X20156139Y-12245874D01*
X20156139Y-12245874D02*
X20175187Y-12236350D01*
X20175187Y-12236350D02*
X20203758Y-12236350D01*
X20203758Y-12236350D02*
X20222806Y-12245874D01*
X20222806Y-12245874D02*
X20232330Y-12255398D01*
X20232330Y-12255398D02*
X20241853Y-12274446D01*
X20241853Y-12274446D02*
X20241853Y-12331588D01*
X20241853Y-12331588D02*
X20232330Y-12350636D01*
X20232330Y-12350636D02*
X20222806Y-12360160D01*
X20222806Y-12360160D02*
X20203758Y-12369684D01*
X20203758Y-12369684D02*
X20175187Y-12369684D01*
X20356139Y-12369684D02*
X20337092Y-12360160D01*
X20337092Y-12360160D02*
X20327568Y-12341112D01*
X20327568Y-12341112D02*
X20327568Y-12169684D01*
X20508520Y-12360160D02*
X20489473Y-12369684D01*
X20489473Y-12369684D02*
X20451377Y-12369684D01*
X20451377Y-12369684D02*
X20432330Y-12360160D01*
X20432330Y-12360160D02*
X20422806Y-12341112D01*
X20422806Y-12341112D02*
X20422806Y-12264922D01*
X20422806Y-12264922D02*
X20432330Y-12245874D01*
X20432330Y-12245874D02*
X20451377Y-12236350D01*
X20451377Y-12236350D02*
X20489473Y-12236350D01*
X20489473Y-12236350D02*
X20508520Y-12245874D01*
X20508520Y-12245874D02*
X20518044Y-12264922D01*
X20518044Y-12264922D02*
X20518044Y-12283969D01*
X20518044Y-12283969D02*
X20422806Y-12303017D01*
X20594234Y-12360160D02*
X20613282Y-12369684D01*
X20613282Y-12369684D02*
X20651377Y-12369684D01*
X20651377Y-12369684D02*
X20670425Y-12360160D01*
X20670425Y-12360160D02*
X20679949Y-12341112D01*
X20679949Y-12341112D02*
X20679949Y-12331588D01*
X20679949Y-12331588D02*
X20670425Y-12312541D01*
X20670425Y-12312541D02*
X20651377Y-12303017D01*
X20651377Y-12303017D02*
X20622806Y-12303017D01*
X20622806Y-12303017D02*
X20603758Y-12293493D01*
X20603758Y-12293493D02*
X20594234Y-12274446D01*
X20594234Y-12274446D02*
X20594234Y-12264922D01*
X20594234Y-12264922D02*
X20603758Y-12245874D01*
X20603758Y-12245874D02*
X20622806Y-12236350D01*
X20622806Y-12236350D02*
X20651377Y-12236350D01*
X20651377Y-12236350D02*
X20670425Y-12245874D01*
X20746615Y-12445874D02*
X20756139Y-12436350D01*
X20756139Y-12436350D02*
X20775187Y-12407779D01*
X20775187Y-12407779D02*
X20784711Y-12388731D01*
X20784711Y-12388731D02*
X20794234Y-12360160D01*
X20794234Y-12360160D02*
X20803758Y-12312541D01*
X20803758Y-12312541D02*
X20803758Y-12274446D01*
X20803758Y-12274446D02*
X20794234Y-12226827D01*
X20794234Y-12226827D02*
X20784711Y-12198255D01*
X20784711Y-12198255D02*
X20775187Y-12179208D01*
X20775187Y-12179208D02*
X20756139Y-12150636D01*
X20756139Y-12150636D02*
X20746615Y-12141112D01*
D10*
X15590600Y-12542200D02*
G75*
G02*
X15550600Y-12542200I-20000J0D01*
G01*
X15550600Y-12542200D02*
G75*
G02*
X15590600Y-12542200I20000J0D01*
G01*
D11*
X15889472Y-12433684D02*
X15908520Y-12433684D01*
X15908520Y-12433684D02*
X15927567Y-12443208D01*
X15927567Y-12443208D02*
X15937091Y-12452731D01*
X15937091Y-12452731D02*
X15946615Y-12471779D01*
X15946615Y-12471779D02*
X15956139Y-12509874D01*
X15956139Y-12509874D02*
X15956139Y-12557493D01*
X15956139Y-12557493D02*
X15946615Y-12595588D01*
X15946615Y-12595588D02*
X15937091Y-12614636D01*
X15937091Y-12614636D02*
X15927567Y-12624160D01*
X15927567Y-12624160D02*
X15908520Y-12633684D01*
X15908520Y-12633684D02*
X15889472Y-12633684D01*
X15889472Y-12633684D02*
X15870424Y-12624160D01*
X15870424Y-12624160D02*
X15860901Y-12614636D01*
X15860901Y-12614636D02*
X15851377Y-12595588D01*
X15851377Y-12595588D02*
X15841853Y-12557493D01*
X15841853Y-12557493D02*
X15841853Y-12509874D01*
X15841853Y-12509874D02*
X15851377Y-12471779D01*
X15851377Y-12471779D02*
X15860901Y-12452731D01*
X15860901Y-12452731D02*
X15870424Y-12443208D01*
X15870424Y-12443208D02*
X15889472Y-12433684D01*
X16041853Y-12614636D02*
X16051377Y-12624160D01*
X16051377Y-12624160D02*
X16041853Y-12633684D01*
X16041853Y-12633684D02*
X16032329Y-12624160D01*
X16032329Y-12624160D02*
X16041853Y-12614636D01*
X16041853Y-12614636D02*
X16041853Y-12633684D01*
X16222805Y-12500350D02*
X16222805Y-12633684D01*
X16175186Y-12424160D02*
X16127567Y-12567017D01*
X16127567Y-12567017D02*
X16251377Y-12567017D01*
X16365662Y-12433684D02*
X16384710Y-12433684D01*
X16384710Y-12433684D02*
X16403758Y-12443208D01*
X16403758Y-12443208D02*
X16413282Y-12452731D01*
X16413282Y-12452731D02*
X16422805Y-12471779D01*
X16422805Y-12471779D02*
X16432329Y-12509874D01*
X16432329Y-12509874D02*
X16432329Y-12557493D01*
X16432329Y-12557493D02*
X16422805Y-12595588D01*
X16422805Y-12595588D02*
X16413282Y-12614636D01*
X16413282Y-12614636D02*
X16403758Y-12624160D01*
X16403758Y-12624160D02*
X16384710Y-12633684D01*
X16384710Y-12633684D02*
X16365662Y-12633684D01*
X16365662Y-12633684D02*
X16346615Y-12624160D01*
X16346615Y-12624160D02*
X16337091Y-12614636D01*
X16337091Y-12614636D02*
X16327567Y-12595588D01*
X16327567Y-12595588D02*
X16318043Y-12557493D01*
X16318043Y-12557493D02*
X16318043Y-12509874D01*
X16318043Y-12509874D02*
X16327567Y-12471779D01*
X16327567Y-12471779D02*
X16337091Y-12452731D01*
X16337091Y-12452731D02*
X16346615Y-12443208D01*
X16346615Y-12443208D02*
X16365662Y-12433684D01*
X16556139Y-12433684D02*
X16575186Y-12433684D01*
X16575186Y-12433684D02*
X16594234Y-12443208D01*
X16594234Y-12443208D02*
X16603758Y-12452731D01*
X16603758Y-12452731D02*
X16613282Y-12471779D01*
X16613282Y-12471779D02*
X16622805Y-12509874D01*
X16622805Y-12509874D02*
X16622805Y-12557493D01*
X16622805Y-12557493D02*
X16613282Y-12595588D01*
X16613282Y-12595588D02*
X16603758Y-12614636D01*
X16603758Y-12614636D02*
X16594234Y-12624160D01*
X16594234Y-12624160D02*
X16575186Y-12633684D01*
X16575186Y-12633684D02*
X16556139Y-12633684D01*
X16556139Y-12633684D02*
X16537091Y-12624160D01*
X16537091Y-12624160D02*
X16527567Y-12614636D01*
X16527567Y-12614636D02*
X16518043Y-12595588D01*
X16518043Y-12595588D02*
X16508520Y-12557493D01*
X16508520Y-12557493D02*
X16508520Y-12509874D01*
X16508520Y-12509874D02*
X16518043Y-12471779D01*
X16518043Y-12471779D02*
X16527567Y-12452731D01*
X16527567Y-12452731D02*
X16537091Y-12443208D01*
X16537091Y-12443208D02*
X16556139Y-12433684D01*
X16708520Y-12633684D02*
X16708520Y-12500350D01*
X16708520Y-12519398D02*
X16718043Y-12509874D01*
X16718043Y-12509874D02*
X16737091Y-12500350D01*
X16737091Y-12500350D02*
X16765663Y-12500350D01*
X16765663Y-12500350D02*
X16784710Y-12509874D01*
X16784710Y-12509874D02*
X16794234Y-12528922D01*
X16794234Y-12528922D02*
X16794234Y-12633684D01*
X16794234Y-12528922D02*
X16803758Y-12509874D01*
X16803758Y-12509874D02*
X16822805Y-12500350D01*
X16822805Y-12500350D02*
X16851377Y-12500350D01*
X16851377Y-12500350D02*
X16870425Y-12509874D01*
X16870425Y-12509874D02*
X16879948Y-12528922D01*
X16879948Y-12528922D02*
X16879948Y-12633684D01*
X16975186Y-12633684D02*
X16975186Y-12500350D01*
X16975186Y-12519398D02*
X16984710Y-12509874D01*
X16984710Y-12509874D02*
X17003758Y-12500350D01*
X17003758Y-12500350D02*
X17032329Y-12500350D01*
X17032329Y-12500350D02*
X17051377Y-12509874D01*
X17051377Y-12509874D02*
X17060901Y-12528922D01*
X17060901Y-12528922D02*
X17060901Y-12633684D01*
X17060901Y-12528922D02*
X17070425Y-12509874D01*
X17070425Y-12509874D02*
X17089472Y-12500350D01*
X17089472Y-12500350D02*
X17118044Y-12500350D01*
X17118044Y-12500350D02*
X17137091Y-12509874D01*
X17137091Y-12509874D02*
X17146615Y-12528922D01*
X17146615Y-12528922D02*
X17146615Y-12633684D01*
X17537091Y-12424160D02*
X17365663Y-12681303D01*
X17794234Y-12433684D02*
X17813282Y-12433684D01*
X17813282Y-12433684D02*
X17832329Y-12443208D01*
X17832329Y-12443208D02*
X17841853Y-12452731D01*
X17841853Y-12452731D02*
X17851377Y-12471779D01*
X17851377Y-12471779D02*
X17860901Y-12509874D01*
X17860901Y-12509874D02*
X17860901Y-12557493D01*
X17860901Y-12557493D02*
X17851377Y-12595588D01*
X17851377Y-12595588D02*
X17841853Y-12614636D01*
X17841853Y-12614636D02*
X17832329Y-12624160D01*
X17832329Y-12624160D02*
X17813282Y-12633684D01*
X17813282Y-12633684D02*
X17794234Y-12633684D01*
X17794234Y-12633684D02*
X17775187Y-12624160D01*
X17775187Y-12624160D02*
X17765663Y-12614636D01*
X17765663Y-12614636D02*
X17756139Y-12595588D01*
X17756139Y-12595588D02*
X17746615Y-12557493D01*
X17746615Y-12557493D02*
X17746615Y-12509874D01*
X17746615Y-12509874D02*
X17756139Y-12471779D01*
X17756139Y-12471779D02*
X17765663Y-12452731D01*
X17765663Y-12452731D02*
X17775187Y-12443208D01*
X17775187Y-12443208D02*
X17794234Y-12433684D01*
X17946615Y-12614636D02*
X17956139Y-12624160D01*
X17956139Y-12624160D02*
X17946615Y-12633684D01*
X17946615Y-12633684D02*
X17937091Y-12624160D01*
X17937091Y-12624160D02*
X17946615Y-12614636D01*
X17946615Y-12614636D02*
X17946615Y-12633684D01*
X18079948Y-12433684D02*
X18098996Y-12433684D01*
X18098996Y-12433684D02*
X18118044Y-12443208D01*
X18118044Y-12443208D02*
X18127568Y-12452731D01*
X18127568Y-12452731D02*
X18137091Y-12471779D01*
X18137091Y-12471779D02*
X18146615Y-12509874D01*
X18146615Y-12509874D02*
X18146615Y-12557493D01*
X18146615Y-12557493D02*
X18137091Y-12595588D01*
X18137091Y-12595588D02*
X18127568Y-12614636D01*
X18127568Y-12614636D02*
X18118044Y-12624160D01*
X18118044Y-12624160D02*
X18098996Y-12633684D01*
X18098996Y-12633684D02*
X18079948Y-12633684D01*
X18079948Y-12633684D02*
X18060901Y-12624160D01*
X18060901Y-12624160D02*
X18051377Y-12614636D01*
X18051377Y-12614636D02*
X18041853Y-12595588D01*
X18041853Y-12595588D02*
X18032329Y-12557493D01*
X18032329Y-12557493D02*
X18032329Y-12509874D01*
X18032329Y-12509874D02*
X18041853Y-12471779D01*
X18041853Y-12471779D02*
X18051377Y-12452731D01*
X18051377Y-12452731D02*
X18060901Y-12443208D01*
X18060901Y-12443208D02*
X18079948Y-12433684D01*
X18337091Y-12633684D02*
X18222806Y-12633684D01*
X18279948Y-12633684D02*
X18279948Y-12433684D01*
X18279948Y-12433684D02*
X18260901Y-12462255D01*
X18260901Y-12462255D02*
X18241853Y-12481303D01*
X18241853Y-12481303D02*
X18222806Y-12490827D01*
X18518044Y-12433684D02*
X18422806Y-12433684D01*
X18422806Y-12433684D02*
X18413282Y-12528922D01*
X18413282Y-12528922D02*
X18422806Y-12519398D01*
X18422806Y-12519398D02*
X18441853Y-12509874D01*
X18441853Y-12509874D02*
X18489472Y-12509874D01*
X18489472Y-12509874D02*
X18508520Y-12519398D01*
X18508520Y-12519398D02*
X18518044Y-12528922D01*
X18518044Y-12528922D02*
X18527568Y-12547969D01*
X18527568Y-12547969D02*
X18527568Y-12595588D01*
X18527568Y-12595588D02*
X18518044Y-12614636D01*
X18518044Y-12614636D02*
X18508520Y-12624160D01*
X18508520Y-12624160D02*
X18489472Y-12633684D01*
X18489472Y-12633684D02*
X18441853Y-12633684D01*
X18441853Y-12633684D02*
X18422806Y-12624160D01*
X18422806Y-12624160D02*
X18413282Y-12614636D01*
X18594234Y-12433684D02*
X18727568Y-12433684D01*
X18727568Y-12433684D02*
X18641853Y-12633684D01*
X18794234Y-12433684D02*
X18794234Y-12471779D01*
X18870425Y-12433684D02*
X18870425Y-12471779D01*
X19165663Y-12709874D02*
X19156139Y-12700350D01*
X19156139Y-12700350D02*
X19137091Y-12671779D01*
X19137091Y-12671779D02*
X19127568Y-12652731D01*
X19127568Y-12652731D02*
X19118044Y-12624160D01*
X19118044Y-12624160D02*
X19108520Y-12576541D01*
X19108520Y-12576541D02*
X19108520Y-12538446D01*
X19108520Y-12538446D02*
X19118044Y-12490827D01*
X19118044Y-12490827D02*
X19127568Y-12462255D01*
X19127568Y-12462255D02*
X19137091Y-12443208D01*
X19137091Y-12443208D02*
X19156139Y-12414636D01*
X19156139Y-12414636D02*
X19165663Y-12405112D01*
X19251377Y-12633684D02*
X19289472Y-12633684D01*
X19289472Y-12633684D02*
X19308520Y-12624160D01*
X19308520Y-12624160D02*
X19318044Y-12614636D01*
X19318044Y-12614636D02*
X19337091Y-12586065D01*
X19337091Y-12586065D02*
X19346615Y-12547969D01*
X19346615Y-12547969D02*
X19346615Y-12471779D01*
X19346615Y-12471779D02*
X19337091Y-12452731D01*
X19337091Y-12452731D02*
X19327568Y-12443208D01*
X19327568Y-12443208D02*
X19308520Y-12433684D01*
X19308520Y-12433684D02*
X19270425Y-12433684D01*
X19270425Y-12433684D02*
X19251377Y-12443208D01*
X19251377Y-12443208D02*
X19241853Y-12452731D01*
X19241853Y-12452731D02*
X19232330Y-12471779D01*
X19232330Y-12471779D02*
X19232330Y-12519398D01*
X19232330Y-12519398D02*
X19241853Y-12538446D01*
X19241853Y-12538446D02*
X19251377Y-12547969D01*
X19251377Y-12547969D02*
X19270425Y-12557493D01*
X19270425Y-12557493D02*
X19308520Y-12557493D01*
X19308520Y-12557493D02*
X19327568Y-12547969D01*
X19327568Y-12547969D02*
X19337091Y-12538446D01*
X19337091Y-12538446D02*
X19346615Y-12519398D01*
X19584711Y-12633684D02*
X19584711Y-12433684D01*
X19670425Y-12633684D02*
X19670425Y-12528922D01*
X19670425Y-12528922D02*
X19660901Y-12509874D01*
X19660901Y-12509874D02*
X19641853Y-12500350D01*
X19641853Y-12500350D02*
X19613282Y-12500350D01*
X19613282Y-12500350D02*
X19594234Y-12509874D01*
X19594234Y-12509874D02*
X19584711Y-12519398D01*
X19794234Y-12633684D02*
X19775187Y-12624160D01*
X19775187Y-12624160D02*
X19765663Y-12614636D01*
X19765663Y-12614636D02*
X19756139Y-12595588D01*
X19756139Y-12595588D02*
X19756139Y-12538446D01*
X19756139Y-12538446D02*
X19765663Y-12519398D01*
X19765663Y-12519398D02*
X19775187Y-12509874D01*
X19775187Y-12509874D02*
X19794234Y-12500350D01*
X19794234Y-12500350D02*
X19822806Y-12500350D01*
X19822806Y-12500350D02*
X19841853Y-12509874D01*
X19841853Y-12509874D02*
X19851377Y-12519398D01*
X19851377Y-12519398D02*
X19860901Y-12538446D01*
X19860901Y-12538446D02*
X19860901Y-12595588D01*
X19860901Y-12595588D02*
X19851377Y-12614636D01*
X19851377Y-12614636D02*
X19841853Y-12624160D01*
X19841853Y-12624160D02*
X19822806Y-12633684D01*
X19822806Y-12633684D02*
X19794234Y-12633684D01*
X19975187Y-12633684D02*
X19956139Y-12624160D01*
X19956139Y-12624160D02*
X19946615Y-12605112D01*
X19946615Y-12605112D02*
X19946615Y-12433684D01*
X20127568Y-12624160D02*
X20108520Y-12633684D01*
X20108520Y-12633684D02*
X20070425Y-12633684D01*
X20070425Y-12633684D02*
X20051377Y-12624160D01*
X20051377Y-12624160D02*
X20041853Y-12605112D01*
X20041853Y-12605112D02*
X20041853Y-12528922D01*
X20041853Y-12528922D02*
X20051377Y-12509874D01*
X20051377Y-12509874D02*
X20070425Y-12500350D01*
X20070425Y-12500350D02*
X20108520Y-12500350D01*
X20108520Y-12500350D02*
X20127568Y-12509874D01*
X20127568Y-12509874D02*
X20137092Y-12528922D01*
X20137092Y-12528922D02*
X20137092Y-12547969D01*
X20137092Y-12547969D02*
X20041853Y-12567017D01*
X20213282Y-12624160D02*
X20232330Y-12633684D01*
X20232330Y-12633684D02*
X20270425Y-12633684D01*
X20270425Y-12633684D02*
X20289473Y-12624160D01*
X20289473Y-12624160D02*
X20298996Y-12605112D01*
X20298996Y-12605112D02*
X20298996Y-12595588D01*
X20298996Y-12595588D02*
X20289473Y-12576541D01*
X20289473Y-12576541D02*
X20270425Y-12567017D01*
X20270425Y-12567017D02*
X20241853Y-12567017D01*
X20241853Y-12567017D02*
X20222806Y-12557493D01*
X20222806Y-12557493D02*
X20213282Y-12538446D01*
X20213282Y-12538446D02*
X20213282Y-12528922D01*
X20213282Y-12528922D02*
X20222806Y-12509874D01*
X20222806Y-12509874D02*
X20241853Y-12500350D01*
X20241853Y-12500350D02*
X20270425Y-12500350D01*
X20270425Y-12500350D02*
X20289473Y-12509874D01*
X20365663Y-12709874D02*
X20375187Y-12700350D01*
X20375187Y-12700350D02*
X20394234Y-12671779D01*
X20394234Y-12671779D02*
X20403758Y-12652731D01*
X20403758Y-12652731D02*
X20413282Y-12624160D01*
X20413282Y-12624160D02*
X20422806Y-12576541D01*
X20422806Y-12576541D02*
X20422806Y-12538446D01*
X20422806Y-12538446D02*
X20413282Y-12490827D01*
X20413282Y-12490827D02*
X20403758Y-12462255D01*
X20403758Y-12462255D02*
X20394234Y-12443208D01*
X20394234Y-12443208D02*
X20375187Y-12414636D01*
X20375187Y-12414636D02*
X20365663Y-12405112D01*
D10*
X15560600Y-12776200D02*
X15560600Y-12836200D01*
X15530600Y-12806200D02*
X15590600Y-12806200D01*
D11*
X15889472Y-12697684D02*
X15908520Y-12697684D01*
X15908520Y-12697684D02*
X15927567Y-12707208D01*
X15927567Y-12707208D02*
X15937091Y-12716731D01*
X15937091Y-12716731D02*
X15946615Y-12735779D01*
X15946615Y-12735779D02*
X15956139Y-12773874D01*
X15956139Y-12773874D02*
X15956139Y-12821493D01*
X15956139Y-12821493D02*
X15946615Y-12859588D01*
X15946615Y-12859588D02*
X15937091Y-12878636D01*
X15937091Y-12878636D02*
X15927567Y-12888160D01*
X15927567Y-12888160D02*
X15908520Y-12897684D01*
X15908520Y-12897684D02*
X15889472Y-12897684D01*
X15889472Y-12897684D02*
X15870424Y-12888160D01*
X15870424Y-12888160D02*
X15860901Y-12878636D01*
X15860901Y-12878636D02*
X15851377Y-12859588D01*
X15851377Y-12859588D02*
X15841853Y-12821493D01*
X15841853Y-12821493D02*
X15841853Y-12773874D01*
X15841853Y-12773874D02*
X15851377Y-12735779D01*
X15851377Y-12735779D02*
X15860901Y-12716731D01*
X15860901Y-12716731D02*
X15870424Y-12707208D01*
X15870424Y-12707208D02*
X15889472Y-12697684D01*
X16041853Y-12878636D02*
X16051377Y-12888160D01*
X16051377Y-12888160D02*
X16041853Y-12897684D01*
X16041853Y-12897684D02*
X16032329Y-12888160D01*
X16032329Y-12888160D02*
X16041853Y-12878636D01*
X16041853Y-12878636D02*
X16041853Y-12897684D01*
X16222805Y-12697684D02*
X16184710Y-12697684D01*
X16184710Y-12697684D02*
X16165662Y-12707208D01*
X16165662Y-12707208D02*
X16156139Y-12716731D01*
X16156139Y-12716731D02*
X16137091Y-12745303D01*
X16137091Y-12745303D02*
X16127567Y-12783398D01*
X16127567Y-12783398D02*
X16127567Y-12859588D01*
X16127567Y-12859588D02*
X16137091Y-12878636D01*
X16137091Y-12878636D02*
X16146615Y-12888160D01*
X16146615Y-12888160D02*
X16165662Y-12897684D01*
X16165662Y-12897684D02*
X16203758Y-12897684D01*
X16203758Y-12897684D02*
X16222805Y-12888160D01*
X16222805Y-12888160D02*
X16232329Y-12878636D01*
X16232329Y-12878636D02*
X16241853Y-12859588D01*
X16241853Y-12859588D02*
X16241853Y-12811969D01*
X16241853Y-12811969D02*
X16232329Y-12792922D01*
X16232329Y-12792922D02*
X16222805Y-12783398D01*
X16222805Y-12783398D02*
X16203758Y-12773874D01*
X16203758Y-12773874D02*
X16165662Y-12773874D01*
X16165662Y-12773874D02*
X16146615Y-12783398D01*
X16146615Y-12783398D02*
X16137091Y-12792922D01*
X16137091Y-12792922D02*
X16127567Y-12811969D01*
X16365662Y-12697684D02*
X16384710Y-12697684D01*
X16384710Y-12697684D02*
X16403758Y-12707208D01*
X16403758Y-12707208D02*
X16413282Y-12716731D01*
X16413282Y-12716731D02*
X16422805Y-12735779D01*
X16422805Y-12735779D02*
X16432329Y-12773874D01*
X16432329Y-12773874D02*
X16432329Y-12821493D01*
X16432329Y-12821493D02*
X16422805Y-12859588D01*
X16422805Y-12859588D02*
X16413282Y-12878636D01*
X16413282Y-12878636D02*
X16403758Y-12888160D01*
X16403758Y-12888160D02*
X16384710Y-12897684D01*
X16384710Y-12897684D02*
X16365662Y-12897684D01*
X16365662Y-12897684D02*
X16346615Y-12888160D01*
X16346615Y-12888160D02*
X16337091Y-12878636D01*
X16337091Y-12878636D02*
X16327567Y-12859588D01*
X16327567Y-12859588D02*
X16318043Y-12821493D01*
X16318043Y-12821493D02*
X16318043Y-12773874D01*
X16318043Y-12773874D02*
X16327567Y-12735779D01*
X16327567Y-12735779D02*
X16337091Y-12716731D01*
X16337091Y-12716731D02*
X16346615Y-12707208D01*
X16346615Y-12707208D02*
X16365662Y-12697684D01*
X16556139Y-12697684D02*
X16575186Y-12697684D01*
X16575186Y-12697684D02*
X16594234Y-12707208D01*
X16594234Y-12707208D02*
X16603758Y-12716731D01*
X16603758Y-12716731D02*
X16613282Y-12735779D01*
X16613282Y-12735779D02*
X16622805Y-12773874D01*
X16622805Y-12773874D02*
X16622805Y-12821493D01*
X16622805Y-12821493D02*
X16613282Y-12859588D01*
X16613282Y-12859588D02*
X16603758Y-12878636D01*
X16603758Y-12878636D02*
X16594234Y-12888160D01*
X16594234Y-12888160D02*
X16575186Y-12897684D01*
X16575186Y-12897684D02*
X16556139Y-12897684D01*
X16556139Y-12897684D02*
X16537091Y-12888160D01*
X16537091Y-12888160D02*
X16527567Y-12878636D01*
X16527567Y-12878636D02*
X16518043Y-12859588D01*
X16518043Y-12859588D02*
X16508520Y-12821493D01*
X16508520Y-12821493D02*
X16508520Y-12773874D01*
X16508520Y-12773874D02*
X16518043Y-12735779D01*
X16518043Y-12735779D02*
X16527567Y-12716731D01*
X16527567Y-12716731D02*
X16537091Y-12707208D01*
X16537091Y-12707208D02*
X16556139Y-12697684D01*
X16708520Y-12897684D02*
X16708520Y-12764350D01*
X16708520Y-12783398D02*
X16718043Y-12773874D01*
X16718043Y-12773874D02*
X16737091Y-12764350D01*
X16737091Y-12764350D02*
X16765663Y-12764350D01*
X16765663Y-12764350D02*
X16784710Y-12773874D01*
X16784710Y-12773874D02*
X16794234Y-12792922D01*
X16794234Y-12792922D02*
X16794234Y-12897684D01*
X16794234Y-12792922D02*
X16803758Y-12773874D01*
X16803758Y-12773874D02*
X16822805Y-12764350D01*
X16822805Y-12764350D02*
X16851377Y-12764350D01*
X16851377Y-12764350D02*
X16870425Y-12773874D01*
X16870425Y-12773874D02*
X16879948Y-12792922D01*
X16879948Y-12792922D02*
X16879948Y-12897684D01*
X16975186Y-12897684D02*
X16975186Y-12764350D01*
X16975186Y-12783398D02*
X16984710Y-12773874D01*
X16984710Y-12773874D02*
X17003758Y-12764350D01*
X17003758Y-12764350D02*
X17032329Y-12764350D01*
X17032329Y-12764350D02*
X17051377Y-12773874D01*
X17051377Y-12773874D02*
X17060901Y-12792922D01*
X17060901Y-12792922D02*
X17060901Y-12897684D01*
X17060901Y-12792922D02*
X17070425Y-12773874D01*
X17070425Y-12773874D02*
X17089472Y-12764350D01*
X17089472Y-12764350D02*
X17118044Y-12764350D01*
X17118044Y-12764350D02*
X17137091Y-12773874D01*
X17137091Y-12773874D02*
X17146615Y-12792922D01*
X17146615Y-12792922D02*
X17146615Y-12897684D01*
X17537091Y-12688160D02*
X17365663Y-12945303D01*
X17794234Y-12697684D02*
X17813282Y-12697684D01*
X17813282Y-12697684D02*
X17832329Y-12707208D01*
X17832329Y-12707208D02*
X17841853Y-12716731D01*
X17841853Y-12716731D02*
X17851377Y-12735779D01*
X17851377Y-12735779D02*
X17860901Y-12773874D01*
X17860901Y-12773874D02*
X17860901Y-12821493D01*
X17860901Y-12821493D02*
X17851377Y-12859588D01*
X17851377Y-12859588D02*
X17841853Y-12878636D01*
X17841853Y-12878636D02*
X17832329Y-12888160D01*
X17832329Y-12888160D02*
X17813282Y-12897684D01*
X17813282Y-12897684D02*
X17794234Y-12897684D01*
X17794234Y-12897684D02*
X17775187Y-12888160D01*
X17775187Y-12888160D02*
X17765663Y-12878636D01*
X17765663Y-12878636D02*
X17756139Y-12859588D01*
X17756139Y-12859588D02*
X17746615Y-12821493D01*
X17746615Y-12821493D02*
X17746615Y-12773874D01*
X17746615Y-12773874D02*
X17756139Y-12735779D01*
X17756139Y-12735779D02*
X17765663Y-12716731D01*
X17765663Y-12716731D02*
X17775187Y-12707208D01*
X17775187Y-12707208D02*
X17794234Y-12697684D01*
X17946615Y-12878636D02*
X17956139Y-12888160D01*
X17956139Y-12888160D02*
X17946615Y-12897684D01*
X17946615Y-12897684D02*
X17937091Y-12888160D01*
X17937091Y-12888160D02*
X17946615Y-12878636D01*
X17946615Y-12878636D02*
X17946615Y-12897684D01*
X18079948Y-12697684D02*
X18098996Y-12697684D01*
X18098996Y-12697684D02*
X18118044Y-12707208D01*
X18118044Y-12707208D02*
X18127568Y-12716731D01*
X18127568Y-12716731D02*
X18137091Y-12735779D01*
X18137091Y-12735779D02*
X18146615Y-12773874D01*
X18146615Y-12773874D02*
X18146615Y-12821493D01*
X18146615Y-12821493D02*
X18137091Y-12859588D01*
X18137091Y-12859588D02*
X18127568Y-12878636D01*
X18127568Y-12878636D02*
X18118044Y-12888160D01*
X18118044Y-12888160D02*
X18098996Y-12897684D01*
X18098996Y-12897684D02*
X18079948Y-12897684D01*
X18079948Y-12897684D02*
X18060901Y-12888160D01*
X18060901Y-12888160D02*
X18051377Y-12878636D01*
X18051377Y-12878636D02*
X18041853Y-12859588D01*
X18041853Y-12859588D02*
X18032329Y-12821493D01*
X18032329Y-12821493D02*
X18032329Y-12773874D01*
X18032329Y-12773874D02*
X18041853Y-12735779D01*
X18041853Y-12735779D02*
X18051377Y-12716731D01*
X18051377Y-12716731D02*
X18060901Y-12707208D01*
X18060901Y-12707208D02*
X18079948Y-12697684D01*
X18222806Y-12716731D02*
X18232329Y-12707208D01*
X18232329Y-12707208D02*
X18251377Y-12697684D01*
X18251377Y-12697684D02*
X18298996Y-12697684D01*
X18298996Y-12697684D02*
X18318044Y-12707208D01*
X18318044Y-12707208D02*
X18327568Y-12716731D01*
X18327568Y-12716731D02*
X18337091Y-12735779D01*
X18337091Y-12735779D02*
X18337091Y-12754827D01*
X18337091Y-12754827D02*
X18327568Y-12783398D01*
X18327568Y-12783398D02*
X18213282Y-12897684D01*
X18213282Y-12897684D02*
X18337091Y-12897684D01*
X18403758Y-12697684D02*
X18527568Y-12697684D01*
X18527568Y-12697684D02*
X18460901Y-12773874D01*
X18460901Y-12773874D02*
X18489472Y-12773874D01*
X18489472Y-12773874D02*
X18508520Y-12783398D01*
X18508520Y-12783398D02*
X18518044Y-12792922D01*
X18518044Y-12792922D02*
X18527568Y-12811969D01*
X18527568Y-12811969D02*
X18527568Y-12859588D01*
X18527568Y-12859588D02*
X18518044Y-12878636D01*
X18518044Y-12878636D02*
X18508520Y-12888160D01*
X18508520Y-12888160D02*
X18489472Y-12897684D01*
X18489472Y-12897684D02*
X18432329Y-12897684D01*
X18432329Y-12897684D02*
X18413282Y-12888160D01*
X18413282Y-12888160D02*
X18403758Y-12878636D01*
X18698996Y-12697684D02*
X18660901Y-12697684D01*
X18660901Y-12697684D02*
X18641853Y-12707208D01*
X18641853Y-12707208D02*
X18632329Y-12716731D01*
X18632329Y-12716731D02*
X18613282Y-12745303D01*
X18613282Y-12745303D02*
X18603758Y-12783398D01*
X18603758Y-12783398D02*
X18603758Y-12859588D01*
X18603758Y-12859588D02*
X18613282Y-12878636D01*
X18613282Y-12878636D02*
X18622806Y-12888160D01*
X18622806Y-12888160D02*
X18641853Y-12897684D01*
X18641853Y-12897684D02*
X18679949Y-12897684D01*
X18679949Y-12897684D02*
X18698996Y-12888160D01*
X18698996Y-12888160D02*
X18708520Y-12878636D01*
X18708520Y-12878636D02*
X18718044Y-12859588D01*
X18718044Y-12859588D02*
X18718044Y-12811969D01*
X18718044Y-12811969D02*
X18708520Y-12792922D01*
X18708520Y-12792922D02*
X18698996Y-12783398D01*
X18698996Y-12783398D02*
X18679949Y-12773874D01*
X18679949Y-12773874D02*
X18641853Y-12773874D01*
X18641853Y-12773874D02*
X18622806Y-12783398D01*
X18622806Y-12783398D02*
X18613282Y-12792922D01*
X18613282Y-12792922D02*
X18603758Y-12811969D01*
X18794234Y-12697684D02*
X18794234Y-12735779D01*
X18870425Y-12697684D02*
X18870425Y-12735779D01*
X19165663Y-12973874D02*
X19156139Y-12964350D01*
X19156139Y-12964350D02*
X19137091Y-12935779D01*
X19137091Y-12935779D02*
X19127568Y-12916731D01*
X19127568Y-12916731D02*
X19118044Y-12888160D01*
X19118044Y-12888160D02*
X19108520Y-12840541D01*
X19108520Y-12840541D02*
X19108520Y-12802446D01*
X19108520Y-12802446D02*
X19118044Y-12754827D01*
X19118044Y-12754827D02*
X19127568Y-12726255D01*
X19127568Y-12726255D02*
X19137091Y-12707208D01*
X19137091Y-12707208D02*
X19156139Y-12678636D01*
X19156139Y-12678636D02*
X19165663Y-12669112D01*
X19327568Y-12764350D02*
X19327568Y-12897684D01*
X19279949Y-12688160D02*
X19232330Y-12831017D01*
X19232330Y-12831017D02*
X19356139Y-12831017D01*
X19584711Y-12897684D02*
X19584711Y-12697684D01*
X19670425Y-12897684D02*
X19670425Y-12792922D01*
X19670425Y-12792922D02*
X19660901Y-12773874D01*
X19660901Y-12773874D02*
X19641853Y-12764350D01*
X19641853Y-12764350D02*
X19613282Y-12764350D01*
X19613282Y-12764350D02*
X19594234Y-12773874D01*
X19594234Y-12773874D02*
X19584711Y-12783398D01*
X19794234Y-12897684D02*
X19775187Y-12888160D01*
X19775187Y-12888160D02*
X19765663Y-12878636D01*
X19765663Y-12878636D02*
X19756139Y-12859588D01*
X19756139Y-12859588D02*
X19756139Y-12802446D01*
X19756139Y-12802446D02*
X19765663Y-12783398D01*
X19765663Y-12783398D02*
X19775187Y-12773874D01*
X19775187Y-12773874D02*
X19794234Y-12764350D01*
X19794234Y-12764350D02*
X19822806Y-12764350D01*
X19822806Y-12764350D02*
X19841853Y-12773874D01*
X19841853Y-12773874D02*
X19851377Y-12783398D01*
X19851377Y-12783398D02*
X19860901Y-12802446D01*
X19860901Y-12802446D02*
X19860901Y-12859588D01*
X19860901Y-12859588D02*
X19851377Y-12878636D01*
X19851377Y-12878636D02*
X19841853Y-12888160D01*
X19841853Y-12888160D02*
X19822806Y-12897684D01*
X19822806Y-12897684D02*
X19794234Y-12897684D01*
X19975187Y-12897684D02*
X19956139Y-12888160D01*
X19956139Y-12888160D02*
X19946615Y-12869112D01*
X19946615Y-12869112D02*
X19946615Y-12697684D01*
X20127568Y-12888160D02*
X20108520Y-12897684D01*
X20108520Y-12897684D02*
X20070425Y-12897684D01*
X20070425Y-12897684D02*
X20051377Y-12888160D01*
X20051377Y-12888160D02*
X20041853Y-12869112D01*
X20041853Y-12869112D02*
X20041853Y-12792922D01*
X20041853Y-12792922D02*
X20051377Y-12773874D01*
X20051377Y-12773874D02*
X20070425Y-12764350D01*
X20070425Y-12764350D02*
X20108520Y-12764350D01*
X20108520Y-12764350D02*
X20127568Y-12773874D01*
X20127568Y-12773874D02*
X20137092Y-12792922D01*
X20137092Y-12792922D02*
X20137092Y-12811969D01*
X20137092Y-12811969D02*
X20041853Y-12831017D01*
X20213282Y-12888160D02*
X20232330Y-12897684D01*
X20232330Y-12897684D02*
X20270425Y-12897684D01*
X20270425Y-12897684D02*
X20289473Y-12888160D01*
X20289473Y-12888160D02*
X20298996Y-12869112D01*
X20298996Y-12869112D02*
X20298996Y-12859588D01*
X20298996Y-12859588D02*
X20289473Y-12840541D01*
X20289473Y-12840541D02*
X20270425Y-12831017D01*
X20270425Y-12831017D02*
X20241853Y-12831017D01*
X20241853Y-12831017D02*
X20222806Y-12821493D01*
X20222806Y-12821493D02*
X20213282Y-12802446D01*
X20213282Y-12802446D02*
X20213282Y-12792922D01*
X20213282Y-12792922D02*
X20222806Y-12773874D01*
X20222806Y-12773874D02*
X20241853Y-12764350D01*
X20241853Y-12764350D02*
X20270425Y-12764350D01*
X20270425Y-12764350D02*
X20289473Y-12773874D01*
X20365663Y-12973874D02*
X20375187Y-12964350D01*
X20375187Y-12964350D02*
X20394234Y-12935779D01*
X20394234Y-12935779D02*
X20403758Y-12916731D01*
X20403758Y-12916731D02*
X20413282Y-12888160D01*
X20413282Y-12888160D02*
X20422806Y-12840541D01*
X20422806Y-12840541D02*
X20422806Y-12802446D01*
X20422806Y-12802446D02*
X20413282Y-12754827D01*
X20413282Y-12754827D02*
X20403758Y-12726255D01*
X20403758Y-12726255D02*
X20394234Y-12707208D01*
X20394234Y-12707208D02*
X20375187Y-12678636D01*
X20375187Y-12678636D02*
X20365663Y-12669112D01*
D12*
X15569366Y-13121466D02*
X15569366Y-13018934D01*
X15466834Y-13018934D01*
X15466834Y-13121466D01*
X15569366Y-13121466D01*
D11*
X15956139Y-13161684D02*
X15841853Y-13161684D01*
X15898996Y-13161684D02*
X15898996Y-12961684D01*
X15898996Y-12961684D02*
X15879948Y-12990255D01*
X15879948Y-12990255D02*
X15860901Y-13009303D01*
X15860901Y-13009303D02*
X15841853Y-13018827D01*
X16041853Y-13142636D02*
X16051377Y-13152160D01*
X16051377Y-13152160D02*
X16041853Y-13161684D01*
X16041853Y-13161684D02*
X16032329Y-13152160D01*
X16032329Y-13152160D02*
X16041853Y-13142636D01*
X16041853Y-13142636D02*
X16041853Y-13161684D01*
X16222805Y-13028350D02*
X16222805Y-13161684D01*
X16175186Y-12952160D02*
X16127567Y-13095017D01*
X16127567Y-13095017D02*
X16251377Y-13095017D01*
X16422805Y-12961684D02*
X16327567Y-12961684D01*
X16327567Y-12961684D02*
X16318043Y-13056922D01*
X16318043Y-13056922D02*
X16327567Y-13047398D01*
X16327567Y-13047398D02*
X16346615Y-13037874D01*
X16346615Y-13037874D02*
X16394234Y-13037874D01*
X16394234Y-13037874D02*
X16413282Y-13047398D01*
X16413282Y-13047398D02*
X16422805Y-13056922D01*
X16422805Y-13056922D02*
X16432329Y-13075969D01*
X16432329Y-13075969D02*
X16432329Y-13123588D01*
X16432329Y-13123588D02*
X16422805Y-13142636D01*
X16422805Y-13142636D02*
X16413282Y-13152160D01*
X16413282Y-13152160D02*
X16394234Y-13161684D01*
X16394234Y-13161684D02*
X16346615Y-13161684D01*
X16346615Y-13161684D02*
X16327567Y-13152160D01*
X16327567Y-13152160D02*
X16318043Y-13142636D01*
X16556139Y-12961684D02*
X16575186Y-12961684D01*
X16575186Y-12961684D02*
X16594234Y-12971208D01*
X16594234Y-12971208D02*
X16603758Y-12980731D01*
X16603758Y-12980731D02*
X16613282Y-12999779D01*
X16613282Y-12999779D02*
X16622805Y-13037874D01*
X16622805Y-13037874D02*
X16622805Y-13085493D01*
X16622805Y-13085493D02*
X16613282Y-13123588D01*
X16613282Y-13123588D02*
X16603758Y-13142636D01*
X16603758Y-13142636D02*
X16594234Y-13152160D01*
X16594234Y-13152160D02*
X16575186Y-13161684D01*
X16575186Y-13161684D02*
X16556139Y-13161684D01*
X16556139Y-13161684D02*
X16537091Y-13152160D01*
X16537091Y-13152160D02*
X16527567Y-13142636D01*
X16527567Y-13142636D02*
X16518043Y-13123588D01*
X16518043Y-13123588D02*
X16508520Y-13085493D01*
X16508520Y-13085493D02*
X16508520Y-13037874D01*
X16508520Y-13037874D02*
X16518043Y-12999779D01*
X16518043Y-12999779D02*
X16527567Y-12980731D01*
X16527567Y-12980731D02*
X16537091Y-12971208D01*
X16537091Y-12971208D02*
X16556139Y-12961684D01*
X16708520Y-13161684D02*
X16708520Y-13028350D01*
X16708520Y-13047398D02*
X16718043Y-13037874D01*
X16718043Y-13037874D02*
X16737091Y-13028350D01*
X16737091Y-13028350D02*
X16765663Y-13028350D01*
X16765663Y-13028350D02*
X16784710Y-13037874D01*
X16784710Y-13037874D02*
X16794234Y-13056922D01*
X16794234Y-13056922D02*
X16794234Y-13161684D01*
X16794234Y-13056922D02*
X16803758Y-13037874D01*
X16803758Y-13037874D02*
X16822805Y-13028350D01*
X16822805Y-13028350D02*
X16851377Y-13028350D01*
X16851377Y-13028350D02*
X16870425Y-13037874D01*
X16870425Y-13037874D02*
X16879948Y-13056922D01*
X16879948Y-13056922D02*
X16879948Y-13161684D01*
X16975186Y-13161684D02*
X16975186Y-13028350D01*
X16975186Y-13047398D02*
X16984710Y-13037874D01*
X16984710Y-13037874D02*
X17003758Y-13028350D01*
X17003758Y-13028350D02*
X17032329Y-13028350D01*
X17032329Y-13028350D02*
X17051377Y-13037874D01*
X17051377Y-13037874D02*
X17060901Y-13056922D01*
X17060901Y-13056922D02*
X17060901Y-13161684D01*
X17060901Y-13056922D02*
X17070425Y-13037874D01*
X17070425Y-13037874D02*
X17089472Y-13028350D01*
X17089472Y-13028350D02*
X17118044Y-13028350D01*
X17118044Y-13028350D02*
X17137091Y-13037874D01*
X17137091Y-13037874D02*
X17146615Y-13056922D01*
X17146615Y-13056922D02*
X17146615Y-13161684D01*
X17537091Y-12952160D02*
X17365663Y-13209303D01*
X17794234Y-12961684D02*
X17813282Y-12961684D01*
X17813282Y-12961684D02*
X17832329Y-12971208D01*
X17832329Y-12971208D02*
X17841853Y-12980731D01*
X17841853Y-12980731D02*
X17851377Y-12999779D01*
X17851377Y-12999779D02*
X17860901Y-13037874D01*
X17860901Y-13037874D02*
X17860901Y-13085493D01*
X17860901Y-13085493D02*
X17851377Y-13123588D01*
X17851377Y-13123588D02*
X17841853Y-13142636D01*
X17841853Y-13142636D02*
X17832329Y-13152160D01*
X17832329Y-13152160D02*
X17813282Y-13161684D01*
X17813282Y-13161684D02*
X17794234Y-13161684D01*
X17794234Y-13161684D02*
X17775187Y-13152160D01*
X17775187Y-13152160D02*
X17765663Y-13142636D01*
X17765663Y-13142636D02*
X17756139Y-13123588D01*
X17756139Y-13123588D02*
X17746615Y-13085493D01*
X17746615Y-13085493D02*
X17746615Y-13037874D01*
X17746615Y-13037874D02*
X17756139Y-12999779D01*
X17756139Y-12999779D02*
X17765663Y-12980731D01*
X17765663Y-12980731D02*
X17775187Y-12971208D01*
X17775187Y-12971208D02*
X17794234Y-12961684D01*
X17946615Y-13142636D02*
X17956139Y-13152160D01*
X17956139Y-13152160D02*
X17946615Y-13161684D01*
X17946615Y-13161684D02*
X17937091Y-13152160D01*
X17937091Y-13152160D02*
X17946615Y-13142636D01*
X17946615Y-13142636D02*
X17946615Y-13161684D01*
X18079948Y-12961684D02*
X18098996Y-12961684D01*
X18098996Y-12961684D02*
X18118044Y-12971208D01*
X18118044Y-12971208D02*
X18127568Y-12980731D01*
X18127568Y-12980731D02*
X18137091Y-12999779D01*
X18137091Y-12999779D02*
X18146615Y-13037874D01*
X18146615Y-13037874D02*
X18146615Y-13085493D01*
X18146615Y-13085493D02*
X18137091Y-13123588D01*
X18137091Y-13123588D02*
X18127568Y-13142636D01*
X18127568Y-13142636D02*
X18118044Y-13152160D01*
X18118044Y-13152160D02*
X18098996Y-13161684D01*
X18098996Y-13161684D02*
X18079948Y-13161684D01*
X18079948Y-13161684D02*
X18060901Y-13152160D01*
X18060901Y-13152160D02*
X18051377Y-13142636D01*
X18051377Y-13142636D02*
X18041853Y-13123588D01*
X18041853Y-13123588D02*
X18032329Y-13085493D01*
X18032329Y-13085493D02*
X18032329Y-13037874D01*
X18032329Y-13037874D02*
X18041853Y-12999779D01*
X18041853Y-12999779D02*
X18051377Y-12980731D01*
X18051377Y-12980731D02*
X18060901Y-12971208D01*
X18060901Y-12971208D02*
X18079948Y-12961684D01*
X18327568Y-12961684D02*
X18232329Y-12961684D01*
X18232329Y-12961684D02*
X18222806Y-13056922D01*
X18222806Y-13056922D02*
X18232329Y-13047398D01*
X18232329Y-13047398D02*
X18251377Y-13037874D01*
X18251377Y-13037874D02*
X18298996Y-13037874D01*
X18298996Y-13037874D02*
X18318044Y-13047398D01*
X18318044Y-13047398D02*
X18327568Y-13056922D01*
X18327568Y-13056922D02*
X18337091Y-13075969D01*
X18337091Y-13075969D02*
X18337091Y-13123588D01*
X18337091Y-13123588D02*
X18327568Y-13142636D01*
X18327568Y-13142636D02*
X18318044Y-13152160D01*
X18318044Y-13152160D02*
X18298996Y-13161684D01*
X18298996Y-13161684D02*
X18251377Y-13161684D01*
X18251377Y-13161684D02*
X18232329Y-13152160D01*
X18232329Y-13152160D02*
X18222806Y-13142636D01*
X18403758Y-12961684D02*
X18537091Y-12961684D01*
X18537091Y-12961684D02*
X18451377Y-13161684D01*
X18718044Y-13161684D02*
X18603758Y-13161684D01*
X18660901Y-13161684D02*
X18660901Y-12961684D01*
X18660901Y-12961684D02*
X18641853Y-12990255D01*
X18641853Y-12990255D02*
X18622806Y-13009303D01*
X18622806Y-13009303D02*
X18603758Y-13018827D01*
X18794234Y-12961684D02*
X18794234Y-12999779D01*
X18870425Y-12961684D02*
X18870425Y-12999779D01*
X19165663Y-13237874D02*
X19156139Y-13228350D01*
X19156139Y-13228350D02*
X19137091Y-13199779D01*
X19137091Y-13199779D02*
X19127568Y-13180731D01*
X19127568Y-13180731D02*
X19118044Y-13152160D01*
X19118044Y-13152160D02*
X19108520Y-13104541D01*
X19108520Y-13104541D02*
X19108520Y-13066446D01*
X19108520Y-13066446D02*
X19118044Y-13018827D01*
X19118044Y-13018827D02*
X19127568Y-12990255D01*
X19127568Y-12990255D02*
X19137091Y-12971208D01*
X19137091Y-12971208D02*
X19156139Y-12942636D01*
X19156139Y-12942636D02*
X19165663Y-12933112D01*
X19327568Y-13028350D02*
X19327568Y-13161684D01*
X19279949Y-12952160D02*
X19232330Y-13095017D01*
X19232330Y-13095017D02*
X19356139Y-13095017D01*
X19584711Y-13161684D02*
X19584711Y-12961684D01*
X19670425Y-13161684D02*
X19670425Y-13056922D01*
X19670425Y-13056922D02*
X19660901Y-13037874D01*
X19660901Y-13037874D02*
X19641853Y-13028350D01*
X19641853Y-13028350D02*
X19613282Y-13028350D01*
X19613282Y-13028350D02*
X19594234Y-13037874D01*
X19594234Y-13037874D02*
X19584711Y-13047398D01*
X19794234Y-13161684D02*
X19775187Y-13152160D01*
X19775187Y-13152160D02*
X19765663Y-13142636D01*
X19765663Y-13142636D02*
X19756139Y-13123588D01*
X19756139Y-13123588D02*
X19756139Y-13066446D01*
X19756139Y-13066446D02*
X19765663Y-13047398D01*
X19765663Y-13047398D02*
X19775187Y-13037874D01*
X19775187Y-13037874D02*
X19794234Y-13028350D01*
X19794234Y-13028350D02*
X19822806Y-13028350D01*
X19822806Y-13028350D02*
X19841853Y-13037874D01*
X19841853Y-13037874D02*
X19851377Y-13047398D01*
X19851377Y-13047398D02*
X19860901Y-13066446D01*
X19860901Y-13066446D02*
X19860901Y-13123588D01*
X19860901Y-13123588D02*
X19851377Y-13142636D01*
X19851377Y-13142636D02*
X19841853Y-13152160D01*
X19841853Y-13152160D02*
X19822806Y-13161684D01*
X19822806Y-13161684D02*
X19794234Y-13161684D01*
X19975187Y-13161684D02*
X19956139Y-13152160D01*
X19956139Y-13152160D02*
X19946615Y-13133112D01*
X19946615Y-13133112D02*
X19946615Y-12961684D01*
X20127568Y-13152160D02*
X20108520Y-13161684D01*
X20108520Y-13161684D02*
X20070425Y-13161684D01*
X20070425Y-13161684D02*
X20051377Y-13152160D01*
X20051377Y-13152160D02*
X20041853Y-13133112D01*
X20041853Y-13133112D02*
X20041853Y-13056922D01*
X20041853Y-13056922D02*
X20051377Y-13037874D01*
X20051377Y-13037874D02*
X20070425Y-13028350D01*
X20070425Y-13028350D02*
X20108520Y-13028350D01*
X20108520Y-13028350D02*
X20127568Y-13037874D01*
X20127568Y-13037874D02*
X20137092Y-13056922D01*
X20137092Y-13056922D02*
X20137092Y-13075969D01*
X20137092Y-13075969D02*
X20041853Y-13095017D01*
X20213282Y-13152160D02*
X20232330Y-13161684D01*
X20232330Y-13161684D02*
X20270425Y-13161684D01*
X20270425Y-13161684D02*
X20289473Y-13152160D01*
X20289473Y-13152160D02*
X20298996Y-13133112D01*
X20298996Y-13133112D02*
X20298996Y-13123588D01*
X20298996Y-13123588D02*
X20289473Y-13104541D01*
X20289473Y-13104541D02*
X20270425Y-13095017D01*
X20270425Y-13095017D02*
X20241853Y-13095017D01*
X20241853Y-13095017D02*
X20222806Y-13085493D01*
X20222806Y-13085493D02*
X20213282Y-13066446D01*
X20213282Y-13066446D02*
X20213282Y-13056922D01*
X20213282Y-13056922D02*
X20222806Y-13037874D01*
X20222806Y-13037874D02*
X20241853Y-13028350D01*
X20241853Y-13028350D02*
X20270425Y-13028350D01*
X20270425Y-13028350D02*
X20289473Y-13037874D01*
X20365663Y-13237874D02*
X20375187Y-13228350D01*
X20375187Y-13228350D02*
X20394234Y-13199779D01*
X20394234Y-13199779D02*
X20403758Y-13180731D01*
X20403758Y-13180731D02*
X20413282Y-13152160D01*
X20413282Y-13152160D02*
X20422806Y-13104541D01*
X20422806Y-13104541D02*
X20422806Y-13066446D01*
X20422806Y-13066446D02*
X20413282Y-13018827D01*
X20413282Y-13018827D02*
X20403758Y-12990255D01*
X20403758Y-12990255D02*
X20394234Y-12971208D01*
X20394234Y-12971208D02*
X20375187Y-12942636D01*
X20375187Y-12942636D02*
X20365663Y-12933112D01*
M02*
