G04 #@! TF.GenerationSoftware,KiCad,Pcbnew,9.0.7*
G04 #@! TF.CreationDate,2026-02-11T23:03:53-05:00*
G04 #@! TF.ProjectId,camera,63616d65-7261-42e6-9b69-6361645f7063,rev?*
G04 #@! TF.SameCoordinates,Original*
G04 #@! TF.FileFunction,Copper,L4,Bot*
G04 #@! TF.FilePolarity,Positive*
%FSLAX46Y46*%
G04 Gerber Fmt 4.6, Leading zero omitted, Abs format (unit mm)*
G04 Created by KiCad (PCBNEW 9.0.7) date 2026-02-11 23:03:53*
%MOMM*%
%LPD*%
G01*
G04 APERTURE LIST*
G04 Aperture macros list*
%AMRoundRect*
0 Rectangle with rounded corners*
0 $1 Rounding radius*
0 $2 $3 $4 $5 $6 $7 $8 $9 X,Y pos of 4 corners*
0 Add a 4 corners polygon primitive as box body*
4,1,4,$2,$3,$4,$5,$6,$7,$8,$9,$2,$3,0*
0 Add four circle primitives for the rounded corners*
1,1,$1+$1,$2,$3*
1,1,$1+$1,$4,$5*
1,1,$1+$1,$6,$7*
1,1,$1+$1,$8,$9*
0 Add four rect primitives between the rounded corners*
20,1,$1+$1,$2,$3,$4,$5,0*
20,1,$1+$1,$4,$5,$6,$7,0*
20,1,$1+$1,$6,$7,$8,$9,0*
20,1,$1+$1,$8,$9,$2,$3,0*%
G04 Aperture macros list end*
G04 #@! TA.AperFunction,ComponentPad*
%ADD10R,1.000000X1.000000*%
G04 #@! TD*
G04 #@! TA.AperFunction,ComponentPad*
%ADD11C,1.000000*%
G04 #@! TD*
G04 #@! TA.AperFunction,ComponentPad*
%ADD12C,2.175000*%
G04 #@! TD*
G04 #@! TA.AperFunction,SMDPad,CuDef*
%ADD13RoundRect,0.237500X-0.300000X-0.237500X0.300000X-0.237500X0.300000X0.237500X-0.300000X0.237500X0*%
G04 #@! TD*
G04 #@! TA.AperFunction,SMDPad,CuDef*
%ADD14RoundRect,0.237500X0.300000X0.237500X-0.300000X0.237500X-0.300000X-0.237500X0.300000X-0.237500X0*%
G04 #@! TD*
G04 #@! TA.AperFunction,SMDPad,CuDef*
%ADD15RoundRect,0.237500X-0.250000X-0.237500X0.250000X-0.237500X0.250000X0.237500X-0.250000X0.237500X0*%
G04 #@! TD*
G04 #@! TA.AperFunction,SMDPad,CuDef*
%ADD16RoundRect,0.237500X0.250000X0.237500X-0.250000X0.237500X-0.250000X-0.237500X0.250000X-0.237500X0*%
G04 #@! TD*
G04 #@! TA.AperFunction,SMDPad,CuDef*
%ADD17RoundRect,0.250000X0.350000X-0.450000X0.350000X0.450000X-0.350000X0.450000X-0.350000X-0.450000X0*%
G04 #@! TD*
G04 #@! TA.AperFunction,SMDPad,CuDef*
%ADD18RoundRect,0.237500X0.237500X-0.300000X0.237500X0.300000X-0.237500X0.300000X-0.237500X-0.300000X0*%
G04 #@! TD*
G04 #@! TA.AperFunction,SMDPad,CuDef*
%ADD19RoundRect,0.237500X-0.237500X0.300000X-0.237500X-0.300000X0.237500X-0.300000X0.237500X0.300000X0*%
G04 #@! TD*
G04 #@! TA.AperFunction,SMDPad,CuDef*
%ADD20RoundRect,0.075000X0.725000X0.075000X-0.725000X0.075000X-0.725000X-0.075000X0.725000X-0.075000X0*%
G04 #@! TD*
G04 #@! TA.AperFunction,SMDPad,CuDef*
%ADD21RoundRect,0.075000X0.075000X0.725000X-0.075000X0.725000X-0.075000X-0.725000X0.075000X-0.725000X0*%
G04 #@! TD*
G04 #@! TA.AperFunction,SMDPad,CuDef*
%ADD22R,1.200000X1.200000*%
G04 #@! TD*
G04 #@! TA.AperFunction,SMDPad,CuDef*
%ADD23RoundRect,0.250001X-0.462499X-0.624999X0.462499X-0.624999X0.462499X0.624999X-0.462499X0.624999X0*%
G04 #@! TD*
G04 #@! TA.AperFunction,SMDPad,CuDef*
%ADD24RoundRect,0.150000X-0.150000X0.825000X-0.150000X-0.825000X0.150000X-0.825000X0.150000X0.825000X0*%
G04 #@! TD*
G04 #@! TA.AperFunction,ViaPad*
%ADD25C,0.762000*%
G04 #@! TD*
G04 #@! TA.AperFunction,ViaPad*
%ADD26C,0.800000*%
G04 #@! TD*
G04 #@! TA.AperFunction,Conductor*
%ADD27C,0.203200*%
G04 #@! TD*
G04 #@! TA.AperFunction,Conductor*
%ADD28C,0.250000*%
G04 #@! TD*
G04 #@! TA.AperFunction,Conductor*
%ADD29C,0.406400*%
G04 #@! TD*
G04 APERTURE END LIST*
D10*
G04 #@! TO.P,J6,1,CANH*
G04 #@! TO.N,/CANH*
X170256000Y-110165000D03*
D11*
G04 #@! TO.P,J6,2,CANL*
G04 #@! TO.N,/CANL*
X171506000Y-110165000D03*
G04 #@! TO.P,J6,3,NC*
G04 #@! TO.N,unconnected-(J6-NC-Pad3)*
X170256000Y-111415000D03*
G04 #@! TO.P,J6,4,NC*
G04 #@! TO.N,unconnected-(J6-NC-Pad4)*
X171506000Y-111415000D03*
D12*
G04 #@! TO.P,J6,A,+CHG*
G04 #@! TO.N,unconnected-(J6-+CHG-PadA)*
X174206000Y-110585000D03*
G04 #@! TO.P,J6,B,+12V*
G04 #@! TO.N,Net-(J6-+12V)*
X177956000Y-110585000D03*
G04 #@! TO.P,J6,C,+5V*
G04 #@! TO.N,Net-(J6-+5V)*
X181706000Y-110585000D03*
G04 #@! TO.P,J6,D,GND*
G04 #@! TO.N,GND*
X185456000Y-110585000D03*
G04 #@! TD*
D13*
G04 #@! TO.P,C8,1*
G04 #@! TO.N,Net-(C8-Pad1)*
X176048500Y-108331000D03*
G04 #@! TO.P,C8,2*
G04 #@! TO.N,GND*
X177773500Y-108331000D03*
G04 #@! TD*
D14*
G04 #@! TO.P,C9,1*
G04 #@! TO.N,Net-(C9-Pad1)*
X167605500Y-91059000D03*
G04 #@! TO.P,C9,2*
G04 #@! TO.N,GND*
X165880500Y-91059000D03*
G04 #@! TD*
D15*
G04 #@! TO.P,R14,1*
G04 #@! TO.N,+3V3*
X157456500Y-93980000D03*
G04 #@! TO.P,R14,2*
G04 #@! TO.N,/MCU/SD_D1*
X159281500Y-93980000D03*
G04 #@! TD*
D16*
G04 #@! TO.P,R9,1*
G04 #@! TO.N,/MCU/LED_G*
X174648500Y-88392000D03*
G04 #@! TO.P,R9,2*
G04 #@! TO.N,Net-(D4-A)*
X172823500Y-88392000D03*
G04 #@! TD*
D17*
G04 #@! TO.P,Y1,1,XTAL_1*
G04 #@! TO.N,/XTAL_1*
X190920000Y-99398000D03*
G04 #@! TO.P,Y1,2,GND_1*
G04 #@! TO.N,GND*
X190920000Y-97198000D03*
G04 #@! TO.P,Y1,3,XTAL_2*
G04 #@! TO.N,/XTAL_2*
X192620000Y-97198000D03*
G04 #@! TO.P,Y1,4,GND_2*
G04 #@! TO.N,GND*
X192620000Y-99398000D03*
G04 #@! TD*
D13*
G04 #@! TO.P,C19,1*
G04 #@! TO.N,/XTAL_1*
X190907500Y-101473000D03*
G04 #@! TO.P,C19,2*
G04 #@! TO.N,GND*
X192632500Y-101473000D03*
G04 #@! TD*
D18*
G04 #@! TO.P,C12,1*
G04 #@! TO.N,+3V3*
X192532000Y-94080500D03*
G04 #@! TO.P,C12,2*
G04 #@! TO.N,GND*
X192532000Y-92355500D03*
G04 #@! TD*
D14*
G04 #@! TO.P,C13,1*
G04 #@! TO.N,+3V3*
X167605500Y-89073000D03*
G04 #@! TO.P,C13,2*
G04 #@! TO.N,GND*
X165880500Y-89073000D03*
G04 #@! TD*
D18*
G04 #@! TO.P,C10,1*
G04 #@! TO.N,+3V3*
X190373000Y-94080500D03*
G04 #@! TO.P,C10,2*
G04 #@! TO.N,GND*
X190373000Y-92355500D03*
G04 #@! TD*
D19*
G04 #@! TO.P,C20,1*
G04 #@! TO.N,/XTAL_2*
X194437000Y-97435500D03*
G04 #@! TO.P,C20,2*
G04 #@! TO.N,GND*
X194437000Y-99160500D03*
G04 #@! TD*
D13*
G04 #@! TO.P,C16,1*
G04 #@! TO.N,+3V3*
X191034500Y-106807000D03*
G04 #@! TO.P,C16,2*
G04 #@! TO.N,GND*
X192759500Y-106807000D03*
G04 #@! TD*
D18*
G04 #@! TO.P,C17,1*
G04 #@! TO.N,+3V3*
X188468000Y-106653500D03*
G04 #@! TO.P,C17,2*
G04 #@! TO.N,GND*
X188468000Y-104928500D03*
G04 #@! TD*
D15*
G04 #@! TO.P,R11,1*
G04 #@! TO.N,+3V3*
X157456500Y-100457000D03*
G04 #@! TO.P,R11,2*
G04 #@! TO.N,/MCU/SD_D3*
X159281500Y-100457000D03*
G04 #@! TD*
D20*
G04 #@! TO.P,U4,1,PE2*
G04 #@! TO.N,/Flash/FLASH_IO2*
X185983000Y-92552000D03*
G04 #@! TO.P,U4,2,PE3*
G04 #@! TO.N,unconnected-(U4-PE3-Pad2)*
X185983000Y-93052000D03*
G04 #@! TO.P,U4,3,PE4*
G04 #@! TO.N,unconnected-(U4-PE4-Pad3)*
X185983000Y-93552000D03*
G04 #@! TO.P,U4,4,PE5*
G04 #@! TO.N,unconnected-(U4-PE5-Pad4)*
X185983000Y-94052000D03*
G04 #@! TO.P,U4,5,PE6*
G04 #@! TO.N,unconnected-(U4-PE6-Pad5)*
X185983000Y-94552000D03*
G04 #@! TO.P,U4,6,VBAT*
G04 #@! TO.N,+3V3*
X185983000Y-95052000D03*
G04 #@! TO.P,U4,7,PC13*
G04 #@! TO.N,unconnected-(U4-PC13-Pad7)*
X185983000Y-95552000D03*
G04 #@! TO.P,U4,8,PC14*
G04 #@! TO.N,unconnected-(U4-PC14-Pad8)*
X185983000Y-96052000D03*
G04 #@! TO.P,U4,9,PC15*
G04 #@! TO.N,unconnected-(U4-PC15-Pad9)*
X185983000Y-96552000D03*
G04 #@! TO.P,U4,10,VSS*
G04 #@! TO.N,GND*
X185983000Y-97052000D03*
G04 #@! TO.P,U4,11,VDD*
G04 #@! TO.N,+3V3*
X185983000Y-97552000D03*
G04 #@! TO.P,U4,12,PH0*
G04 #@! TO.N,/XTAL_2*
X185983000Y-98052000D03*
G04 #@! TO.P,U4,13,PH1*
G04 #@! TO.N,/XTAL_1*
X185983000Y-98552000D03*
G04 #@! TO.P,U4,14,NRST*
G04 #@! TO.N,Net-(U4-NRST)*
X185983000Y-99052000D03*
G04 #@! TO.P,U4,15,PC0*
G04 #@! TO.N,unconnected-(U4-PC0-Pad15)*
X185983000Y-99552000D03*
G04 #@! TO.P,U4,16,PC1*
G04 #@! TO.N,/V_SENS*
X185983000Y-100052000D03*
G04 #@! TO.P,U4,17,PC2_C*
G04 #@! TO.N,unconnected-(U4-PC2_C-Pad17)*
X185983000Y-100552000D03*
G04 #@! TO.P,U4,18,PC3_C*
G04 #@! TO.N,unconnected-(U4-PC3_C-Pad18)*
X185983000Y-101052000D03*
G04 #@! TO.P,U4,19,VSSA*
G04 #@! TO.N,GND*
X185983000Y-101552000D03*
G04 #@! TO.P,U4,20,VREF+*
G04 #@! TO.N,unconnected-(U4-VREF+-Pad20)*
X185983000Y-102052000D03*
G04 #@! TO.P,U4,21,VDDA*
G04 #@! TO.N,+3V3*
X185983000Y-102552000D03*
G04 #@! TO.P,U4,22,PA0*
G04 #@! TO.N,unconnected-(U4-PA0-Pad22)*
X185983000Y-103052000D03*
G04 #@! TO.P,U4,23,PA1*
G04 #@! TO.N,unconnected-(U4-PA1-Pad23)*
X185983000Y-103552000D03*
G04 #@! TO.P,U4,24,PA2*
G04 #@! TO.N,unconnected-(U4-PA2-Pad24)*
X185983000Y-104052000D03*
G04 #@! TO.P,U4,25,PA3*
G04 #@! TO.N,/CURR_SENS*
X185983000Y-104552000D03*
D21*
G04 #@! TO.P,U4,26,VSS*
G04 #@! TO.N,GND*
X184308000Y-106227000D03*
G04 #@! TO.P,U4,27,VDD*
G04 #@! TO.N,+3V3*
X183808000Y-106227000D03*
G04 #@! TO.P,U4,28,PA4*
G04 #@! TO.N,unconnected-(U4-PA4-Pad28)*
X183308000Y-106227000D03*
G04 #@! TO.P,U4,29,PA5*
G04 #@! TO.N,unconnected-(U4-PA5-Pad29)*
X182808000Y-106227000D03*
G04 #@! TO.P,U4,30,PA6*
G04 #@! TO.N,unconnected-(U4-PA6-Pad30)*
X182308000Y-106227000D03*
G04 #@! TO.P,U4,31,PA7*
G04 #@! TO.N,unconnected-(U4-PA7-Pad31)*
X181808000Y-106227000D03*
G04 #@! TO.P,U4,32,PC4*
G04 #@! TO.N,unconnected-(U4-PC4-Pad32)*
X181308000Y-106227000D03*
G04 #@! TO.P,U4,33,PC5*
G04 #@! TO.N,unconnected-(U4-PC5-Pad33)*
X180808000Y-106227000D03*
G04 #@! TO.P,U4,34,PB0*
G04 #@! TO.N,unconnected-(U4-PB0-Pad34)*
X180308000Y-106227000D03*
G04 #@! TO.P,U4,35,PB1*
G04 #@! TO.N,unconnected-(U4-PB1-Pad35)*
X179808000Y-106227000D03*
G04 #@! TO.P,U4,36,PB2*
G04 #@! TO.N,/Flash/FLASH_CLK*
X179308000Y-106227000D03*
G04 #@! TO.P,U4,37,PE7*
G04 #@! TO.N,unconnected-(U4-PE7-Pad37)*
X178808000Y-106227000D03*
G04 #@! TO.P,U4,38,PE8*
G04 #@! TO.N,unconnected-(U4-PE8-Pad38)*
X178308000Y-106227000D03*
G04 #@! TO.P,U4,39,PE9*
G04 #@! TO.N,unconnected-(U4-PE9-Pad39)*
X177808000Y-106227000D03*
G04 #@! TO.P,U4,40,PE10*
G04 #@! TO.N,unconnected-(U4-PE10-Pad40)*
X177308000Y-106227000D03*
G04 #@! TO.P,U4,41,PE11*
G04 #@! TO.N,unconnected-(U4-PE11-Pad41)*
X176808000Y-106227000D03*
G04 #@! TO.P,U4,42,PE12*
G04 #@! TO.N,unconnected-(U4-PE12-Pad42)*
X176308000Y-106227000D03*
G04 #@! TO.P,U4,43,PE13*
G04 #@! TO.N,unconnected-(U4-PE13-Pad43)*
X175808000Y-106227000D03*
G04 #@! TO.P,U4,44,PE14*
G04 #@! TO.N,unconnected-(U4-PE14-Pad44)*
X175308000Y-106227000D03*
G04 #@! TO.P,U4,45,PE15*
G04 #@! TO.N,unconnected-(U4-PE15-Pad45)*
X174808000Y-106227000D03*
G04 #@! TO.P,U4,46,PB10*
G04 #@! TO.N,/Flash/N_FLASH_CS*
X174308000Y-106227000D03*
G04 #@! TO.P,U4,47,PB11*
G04 #@! TO.N,unconnected-(U4-PB11-Pad47)*
X173808000Y-106227000D03*
G04 #@! TO.P,U4,48,VCAP*
G04 #@! TO.N,Net-(C8-Pad1)*
X173308000Y-106227000D03*
G04 #@! TO.P,U4,49,VSS*
G04 #@! TO.N,GND*
X172808000Y-106227000D03*
G04 #@! TO.P,U4,50,VDD*
G04 #@! TO.N,+3V3*
X172308000Y-106227000D03*
D20*
G04 #@! TO.P,U4,51,PB12*
G04 #@! TO.N,unconnected-(U4-PB12-Pad51)*
X170633000Y-104552000D03*
G04 #@! TO.P,U4,52,PB13*
G04 #@! TO.N,unconnected-(U4-PB13-Pad52)*
X170633000Y-104052000D03*
G04 #@! TO.P,U4,53,PB14*
G04 #@! TO.N,unconnected-(U4-PB14-Pad53)*
X170633000Y-103552000D03*
G04 #@! TO.P,U4,54,PB15*
G04 #@! TO.N,unconnected-(U4-PB15-Pad54)*
X170633000Y-103052000D03*
G04 #@! TO.P,U4,55,PD8*
G04 #@! TO.N,unconnected-(U4-PD8-Pad55)*
X170633000Y-102552000D03*
G04 #@! TO.P,U4,56,PD9*
G04 #@! TO.N,unconnected-(U4-PD9-Pad56)*
X170633000Y-102052000D03*
G04 #@! TO.P,U4,57,PD10*
G04 #@! TO.N,unconnected-(U4-PD10-Pad57)*
X170633000Y-101552000D03*
G04 #@! TO.P,U4,58,PD11*
G04 #@! TO.N,/Flash/FLASH_IO0*
X170633000Y-101052000D03*
G04 #@! TO.P,U4,59,PD12*
G04 #@! TO.N,/Flash/FLASH_IO1*
X170633000Y-100552000D03*
G04 #@! TO.P,U4,60,PD13*
G04 #@! TO.N,/Flash/FLASH_IO3*
X170633000Y-100052000D03*
G04 #@! TO.P,U4,61,PD14*
G04 #@! TO.N,unconnected-(U4-PD14-Pad61)*
X170633000Y-99552000D03*
G04 #@! TO.P,U4,62,PD15*
G04 #@! TO.N,unconnected-(U4-PD15-Pad62)*
X170633000Y-99052000D03*
G04 #@! TO.P,U4,63,PC6*
G04 #@! TO.N,unconnected-(U4-PC6-Pad63)*
X170633000Y-98552000D03*
G04 #@! TO.P,U4,64,PC7*
G04 #@! TO.N,unconnected-(U4-PC7-Pad64)*
X170633000Y-98052000D03*
G04 #@! TO.P,U4,65,PC8*
G04 #@! TO.N,/MCU/SD_D0*
X170633000Y-97552000D03*
G04 #@! TO.P,U4,66,PC9*
G04 #@! TO.N,/MCU/SD_D1*
X170633000Y-97052000D03*
G04 #@! TO.P,U4,67,PA8*
G04 #@! TO.N,unconnected-(U4-PA8-Pad67)*
X170633000Y-96552000D03*
G04 #@! TO.P,U4,68,PA9*
G04 #@! TO.N,/VBUS*
X170633000Y-96052000D03*
G04 #@! TO.P,U4,69,PA10*
G04 #@! TO.N,unconnected-(U4-PA10-Pad69)*
X170633000Y-95552000D03*
G04 #@! TO.P,U4,70,PA11*
G04 #@! TO.N,/USB_D-*
X170633000Y-95052000D03*
G04 #@! TO.P,U4,71,PA12*
G04 #@! TO.N,/USB_D+*
X170633000Y-94552000D03*
G04 #@! TO.P,U4,72,PA13*
G04 #@! TO.N,/MCU/SWDIO*
X170633000Y-94052000D03*
G04 #@! TO.P,U4,73,VCAP*
G04 #@! TO.N,Net-(C9-Pad1)*
X170633000Y-93552000D03*
G04 #@! TO.P,U4,74,VSS*
G04 #@! TO.N,GND*
X170633000Y-93052000D03*
G04 #@! TO.P,U4,75,VDD*
G04 #@! TO.N,+3V3*
X170633000Y-92552000D03*
D21*
G04 #@! TO.P,U4,76,PA14*
G04 #@! TO.N,/MCU/SWCLK*
X172308000Y-90877000D03*
G04 #@! TO.P,U4,77,PA15*
G04 #@! TO.N,unconnected-(U4-PA15-Pad77)*
X172808000Y-90877000D03*
G04 #@! TO.P,U4,78,PC10*
G04 #@! TO.N,/MCU/SD_D2*
X173308000Y-90877000D03*
G04 #@! TO.P,U4,79,PC11*
G04 #@! TO.N,/MCU/SD_D3*
X173808000Y-90877000D03*
G04 #@! TO.P,U4,80,PC12*
G04 #@! TO.N,/MCU/SD_CLK*
X174308000Y-90877000D03*
G04 #@! TO.P,U4,81,PD0*
G04 #@! TO.N,/CAN_RX*
X174808000Y-90877000D03*
G04 #@! TO.P,U4,82,PD1*
G04 #@! TO.N,/CAN_TX*
X175308000Y-90877000D03*
G04 #@! TO.P,U4,83,PD2*
G04 #@! TO.N,/MCU/SD_CMD*
X175808000Y-90877000D03*
G04 #@! TO.P,U4,84,PD3*
G04 #@! TO.N,/MCU/LED_G*
X176308000Y-90877000D03*
G04 #@! TO.P,U4,85,PD4*
G04 #@! TO.N,/MCU/LED_R*
X176808000Y-90877000D03*
G04 #@! TO.P,U4,86,PD5*
G04 #@! TO.N,unconnected-(U4-PD5-Pad86)*
X177308000Y-90877000D03*
G04 #@! TO.P,U4,87,PD6*
G04 #@! TO.N,unconnected-(U4-PD6-Pad87)*
X177808000Y-90877000D03*
G04 #@! TO.P,U4,88,PD7*
G04 #@! TO.N,unconnected-(U4-PD7-Pad88)*
X178308000Y-90877000D03*
G04 #@! TO.P,U4,89,PB3*
G04 #@! TO.N,unconnected-(U4-PB3-Pad89)*
X178808000Y-90877000D03*
G04 #@! TO.P,U4,90,PB4*
G04 #@! TO.N,unconnected-(U4-PB4-Pad90)*
X179308000Y-90877000D03*
G04 #@! TO.P,U4,91,PB5*
G04 #@! TO.N,unconnected-(U4-PB5-Pad91)*
X179808000Y-90877000D03*
G04 #@! TO.P,U4,92,PB6*
G04 #@! TO.N,unconnected-(U4-PB6-Pad92)*
X180308000Y-90877000D03*
G04 #@! TO.P,U4,93,PB7*
G04 #@! TO.N,unconnected-(U4-PB7-Pad93)*
X180808000Y-90877000D03*
G04 #@! TO.P,U4,94,BOOT0*
G04 #@! TO.N,GND*
X181308000Y-90877000D03*
G04 #@! TO.P,U4,95,PB8*
G04 #@! TO.N,unconnected-(U4-PB8-Pad95)*
X181808000Y-90877000D03*
G04 #@! TO.P,U4,96,PB9*
G04 #@! TO.N,unconnected-(U4-PB9-Pad96)*
X182308000Y-90877000D03*
G04 #@! TO.P,U4,97,PE0*
G04 #@! TO.N,unconnected-(U4-PE0-Pad97)*
X182808000Y-90877000D03*
G04 #@! TO.P,U4,98,PE1*
G04 #@! TO.N,unconnected-(U4-PE1-Pad98)*
X183308000Y-90877000D03*
G04 #@! TO.P,U4,99,VSS*
G04 #@! TO.N,GND*
X183808000Y-90877000D03*
G04 #@! TO.P,U4,100,VDD*
G04 #@! TO.N,+3V3*
X184308000Y-90877000D03*
G04 #@! TD*
D14*
G04 #@! TO.P,C33,1*
G04 #@! TO.N,+3V3*
X181684000Y-88773000D03*
G04 #@! TO.P,C33,2*
G04 #@! TO.N,GND*
X179959000Y-88773000D03*
G04 #@! TD*
D15*
G04 #@! TO.P,R13,1*
G04 #@! TO.N,+3V3*
X157456500Y-96139000D03*
G04 #@! TO.P,R13,2*
G04 #@! TO.N,/MCU/SD_D0*
X159281500Y-96139000D03*
G04 #@! TD*
D14*
G04 #@! TO.P,C32,1*
G04 #@! TO.N,+3V3*
X163168500Y-96012000D03*
G04 #@! TO.P,C32,2*
G04 #@! TO.N,GND*
X161443500Y-96012000D03*
G04 #@! TD*
D13*
G04 #@! TO.P,C14,1*
G04 #@! TO.N,+3V3*
X172238500Y-108331000D03*
G04 #@! TO.P,C14,2*
G04 #@! TO.N,GND*
X173963500Y-108331000D03*
G04 #@! TD*
D22*
G04 #@! TO.P,D5,1,K*
G04 #@! TO.N,Net-(D1-K)*
X192743000Y-114373000D03*
G04 #@! TO.P,D5,2,A*
G04 #@! TO.N,Net-(D5-A)*
X189943000Y-114373000D03*
G04 #@! TD*
D14*
G04 #@! TO.P,C1,1*
G04 #@! TO.N,+3V3*
X181710500Y-108331000D03*
G04 #@! TO.P,C1,2*
G04 #@! TO.N,GND*
X179985500Y-108331000D03*
G04 #@! TD*
D13*
G04 #@! TO.P,C15,1*
G04 #@! TO.N,+3V3*
X191034500Y-104775000D03*
G04 #@! TO.P,C15,2*
G04 #@! TO.N,GND*
X192759500Y-104775000D03*
G04 #@! TD*
D15*
G04 #@! TO.P,R10,1*
G04 #@! TO.N,+3V3*
X157456500Y-102743000D03*
G04 #@! TO.P,R10,2*
G04 #@! TO.N,/MCU/SD_D2*
X159281500Y-102743000D03*
G04 #@! TD*
D23*
G04 #@! TO.P,F3,1*
G04 #@! TO.N,Net-(J6-+5V)*
X179055500Y-114473000D03*
G04 #@! TO.P,F3,2*
G04 #@! TO.N,Net-(D5-A)*
X182030500Y-114473000D03*
G04 #@! TD*
D22*
G04 #@! TO.P,D2,1,K*
G04 #@! TO.N,Net-(D1-K)*
X187643000Y-113273000D03*
G04 #@! TO.P,D2,2,A*
G04 #@! TO.N,Net-(D2-A)*
X184843000Y-113273000D03*
G04 #@! TD*
D14*
G04 #@! TO.P,C21,1*
G04 #@! TO.N,+3V3*
X162505500Y-104673000D03*
G04 #@! TO.P,C21,2*
G04 #@! TO.N,GND*
X160780500Y-104673000D03*
G04 #@! TD*
D16*
G04 #@! TO.P,R8,1*
G04 #@! TO.N,/MCU/LED_R*
X174648500Y-85979000D03*
G04 #@! TO.P,R8,2*
G04 #@! TO.N,Net-(D3-A)*
X172823500Y-85979000D03*
G04 #@! TD*
D15*
G04 #@! TO.P,R12,1*
G04 #@! TO.N,+3V3*
X157456500Y-98425000D03*
G04 #@! TO.P,R12,2*
G04 #@! TO.N,/MCU/SD_CMD*
X159281500Y-98425000D03*
G04 #@! TD*
D22*
G04 #@! TO.P,D1,1,K*
G04 #@! TO.N,Net-(D1-K)*
X193943000Y-108973000D03*
G04 #@! TO.P,D1,2,A*
G04 #@! TO.N,/VBUS*
X193943000Y-111773000D03*
G04 #@! TD*
D18*
G04 #@! TO.P,C11,1*
G04 #@! TO.N,+3V3*
X188214000Y-94080500D03*
G04 #@! TO.P,C11,2*
G04 #@! TO.N,GND*
X188214000Y-92355500D03*
G04 #@! TD*
D14*
G04 #@! TO.P,C31,1*
G04 #@! TO.N,+3V3*
X163168500Y-98044000D03*
G04 #@! TO.P,C31,2*
G04 #@! TO.N,GND*
X161443500Y-98044000D03*
G04 #@! TD*
D24*
G04 #@! TO.P,U5,1,TXD*
G04 #@! TO.N,/CAN_TX*
X164538000Y-100598000D03*
G04 #@! TO.P,U5,2,GND*
G04 #@! TO.N,GND*
X165808000Y-100598000D03*
G04 #@! TO.P,U5,3,VCC*
G04 #@! TO.N,+3V3*
X167078000Y-100598000D03*
G04 #@! TO.P,U5,4,RXD*
G04 #@! TO.N,/CAN_RX*
X168348000Y-100598000D03*
G04 #@! TO.P,U5,5,SPLIT*
G04 #@! TO.N,unconnected-(U5-SPLIT-Pad5)*
X168348000Y-105548000D03*
G04 #@! TO.P,U5,6,CANL*
G04 #@! TO.N,/CANL*
X167078000Y-105548000D03*
G04 #@! TO.P,U5,7,CANH*
G04 #@! TO.N,/CANH*
X165808000Y-105548000D03*
G04 #@! TO.P,U5,8,RS*
G04 #@! TO.N,GND*
X164538000Y-105548000D03*
G04 #@! TD*
D23*
G04 #@! TO.P,F1,1*
G04 #@! TO.N,Net-(J6-+12V)*
X173255500Y-113373000D03*
G04 #@! TO.P,F1,2*
G04 #@! TO.N,Net-(D2-A)*
X176230500Y-113373000D03*
G04 #@! TD*
D25*
G04 #@! TO.N,+3V3*
X190246000Y-105791000D03*
X188569672Y-95742100D03*
D26*
X168619487Y-90174993D03*
D25*
X192024000Y-85725000D03*
X189484000Y-84963000D03*
X156845000Y-99314000D03*
X176648345Y-92252839D03*
D26*
X183000728Y-89458274D03*
D25*
X187579000Y-86106000D03*
X192151000Y-84709000D03*
X167843000Y-102273000D03*
X171450000Y-106172000D03*
X182070400Y-101854000D03*
X179625400Y-104053000D03*
X160655000Y-99187000D03*
D26*
X169497715Y-91603659D03*
X157143000Y-104173000D03*
D25*
X183388000Y-107823000D03*
X163195000Y-97028000D03*
X179126200Y-96266000D03*
X189484000Y-86106000D03*
X187579000Y-84963000D03*
X191389000Y-91059000D03*
X161643000Y-103679600D03*
X156845000Y-95123000D03*
G04 #@! TO.N,GND*
X161843000Y-88273000D03*
X157643000Y-85473000D03*
X194183000Y-101600000D03*
X199898000Y-98933000D03*
X199943000Y-85973000D03*
X198628000Y-101854000D03*
X186243000Y-113473000D03*
X156943000Y-87373000D03*
X195707000Y-106807000D03*
X156718000Y-106045000D03*
X163449000Y-84709000D03*
X195243000Y-113373000D03*
X159343000Y-110173000D03*
X186182000Y-105537000D03*
D26*
X181700595Y-92276478D03*
D25*
X169291000Y-115062000D03*
X189611000Y-97155000D03*
X187043000Y-108473000D03*
X195453000Y-100457000D03*
X178943000Y-97409000D03*
X184404000Y-108459000D03*
X161743000Y-86273000D03*
X192913000Y-102799200D03*
X176843000Y-115373000D03*
X193929000Y-102489000D03*
X195072000Y-102362000D03*
X165543256Y-102778688D03*
X186843000Y-111873000D03*
X174930000Y-108334469D03*
X185943000Y-115573000D03*
X187579000Y-96774000D03*
X197243000Y-115473000D03*
X184143000Y-115673000D03*
X197943000Y-89773000D03*
X156843000Y-113573000D03*
X165100000Y-96012000D03*
X189738000Y-96012000D03*
X199543000Y-114773000D03*
X167386000Y-112776000D03*
X195961000Y-97028000D03*
X164211000Y-107823000D03*
X199943000Y-112273000D03*
X192024000Y-95758000D03*
X183515000Y-112141000D03*
X194643000Y-115673000D03*
X182743000Y-84573000D03*
X197743000Y-92373000D03*
X185743000Y-108373000D03*
X194437000Y-90932000D03*
X197358000Y-108458000D03*
X157743000Y-89473000D03*
X163449000Y-89535000D03*
X188043000Y-115373000D03*
X169252000Y-92553391D03*
X179324000Y-101854000D03*
X197743000Y-84673000D03*
X194943000Y-86973000D03*
X172846000Y-104812082D03*
X195834000Y-99314000D03*
X191243000Y-115773000D03*
X164084000Y-87249000D03*
X179832000Y-98171000D03*
X199143000Y-110273000D03*
X158750000Y-108331000D03*
X158743000Y-115273000D03*
X173343000Y-115473000D03*
X160147000Y-97155000D03*
X195543000Y-88973000D03*
X195343000Y-85473000D03*
X178816000Y-108331000D03*
X196443000Y-110473000D03*
X198628000Y-106934000D03*
X171450000Y-84328000D03*
X164084000Y-112268000D03*
X200279000Y-91059000D03*
X162043000Y-111873000D03*
X159843000Y-89973000D03*
X182300713Y-104082176D03*
X195199000Y-96139000D03*
X190881000Y-95758000D03*
X161743000Y-114173000D03*
X156843000Y-90673000D03*
X199943000Y-88473000D03*
X192913000Y-95758000D03*
X170943000Y-113273000D03*
X173376722Y-98425000D03*
X199843000Y-95373000D03*
X194310000Y-100457000D03*
X180975000Y-98933000D03*
X159743000Y-84973000D03*
X166043000Y-92473000D03*
X164973000Y-114935000D03*
X157343000Y-111273000D03*
X194056000Y-95885000D03*
X198628000Y-103886000D03*
X181943000Y-86773000D03*
X184243000Y-84573000D03*
D26*
X183505492Y-103038297D03*
D25*
X162143000Y-108673000D03*
G04 #@! TO.N,Net-(U2-SW)*
X186690000Y-91694000D03*
X185039000Y-89662000D03*
X183769000Y-93091000D03*
G04 #@! TO.N,VDC*
X188007600Y-101441000D03*
X181938000Y-95197000D03*
D26*
X187484163Y-103973000D03*
D25*
G04 #@! TO.N,Net-(U4-NRST)*
X189243000Y-103378000D03*
G04 #@! TO.N,Net-(D1-K)*
X188736241Y-108070105D03*
G04 #@! TO.N,/Flash/FLASH_IO2*
X176136096Y-97176949D03*
G04 #@! TO.N,/Flash/FLASH_IO3*
X174929657Y-102539657D03*
G04 #@! TO.N,/V_SENS*
X184557244Y-100348879D03*
G04 #@! TO.N,/Flash/FLASH_IO1*
X173376722Y-100584000D03*
G04 #@! TO.N,/VBUS*
X172007685Y-96374008D03*
X192043000Y-111673000D03*
G04 #@! TO.N,/MCU/SWDIO*
X172146402Y-93048598D03*
G04 #@! TO.N,/MCU/SWCLK*
X171577000Y-90551000D03*
G04 #@! TO.N,/USB_D-*
X174750207Y-95967302D03*
X168575356Y-94910174D03*
G04 #@! TO.N,/MCU/SD_D0*
X160325000Y-95856791D03*
G04 #@! TO.N,/MCU/SD_D1*
X160459139Y-94551800D03*
G04 #@! TO.N,/MCU/SD_CLK*
X170460172Y-91413828D03*
G04 #@! TO.N,/MCU/SD_CMD*
X163195000Y-99949000D03*
X176243557Y-93758443D03*
G04 #@! TO.N,/MCU/SD_D2*
X172010522Y-97336006D03*
X163195000Y-102383600D03*
D26*
G04 #@! TO.N,/MCU/SD_D3*
X163195000Y-101346000D03*
D25*
X172006469Y-98298000D03*
X166322400Y-102060841D03*
G04 #@! TO.N,/Flash/FLASH_CLK*
X175514000Y-103886000D03*
G04 #@! TO.N,/USB_D+*
X169260814Y-94235198D03*
X176309697Y-94805800D03*
G04 #@! TO.N,/Flash/FLASH_IO0*
X174090359Y-101981000D03*
G04 #@! TO.N,Net-(D3-A)*
X171450000Y-85979000D03*
D26*
G04 #@! TO.N,/CURR_SENS*
X183672000Y-104657284D03*
D25*
G04 #@! TO.N,/CAN_RX*
X174490600Y-94343602D03*
X167925408Y-98456408D03*
G04 #@! TO.N,/CAN_TX*
X165321644Y-99121435D03*
X175452250Y-94369646D03*
G04 #@! TO.N,Net-(D4-A)*
X171196000Y-88392000D03*
G04 #@! TO.N,Net-(J6-+5V)*
X180543000Y-114273000D03*
G04 #@! TO.N,/Flash/N_FLASH_CS*
X178943000Y-99473000D03*
G04 #@! TD*
D27*
G04 #@! TO.N,+3V3*
X157456500Y-95734500D02*
X156845000Y-95123000D01*
X192532000Y-94107000D02*
X192532000Y-94080500D01*
D28*
X188468000Y-106653500D02*
X189383500Y-106653500D01*
D27*
X157456500Y-99925500D02*
X156845000Y-99314000D01*
D28*
X189383500Y-106653500D02*
X190246000Y-105791000D01*
D27*
X157456500Y-96139000D02*
X157456500Y-95734500D01*
X157456500Y-98702500D02*
X156845000Y-99314000D01*
X184308000Y-90040914D02*
X183725360Y-89458274D01*
X172253000Y-106172000D02*
X172308000Y-106227000D01*
X182315454Y-88773000D02*
X183000728Y-89458274D01*
X190373000Y-94742000D02*
X190119000Y-94996000D01*
X183134000Y-108077000D02*
X181964500Y-108077000D01*
X184308000Y-90877000D02*
X184308000Y-90040914D01*
X171450000Y-106172000D02*
X172253000Y-106172000D01*
X189357000Y-94996000D02*
X190119000Y-94996000D01*
X189151600Y-104061600D02*
X190246000Y-105156000D01*
X191643000Y-94996000D02*
X192532000Y-94107000D01*
X190373000Y-94080500D02*
X190373000Y-94742000D01*
X163193330Y-98068830D02*
X163168500Y-98044000D01*
X167078000Y-101508000D02*
X167843000Y-102273000D01*
X157456500Y-100457000D02*
X157456500Y-99925500D01*
X188610900Y-95742100D02*
X189357000Y-94996000D01*
X188341000Y-96978757D02*
X188341000Y-95970772D01*
X191034500Y-106807000D02*
X191034500Y-106579500D01*
X157456500Y-94511500D02*
X156845000Y-95123000D01*
X190246000Y-105156000D02*
X190246000Y-105791000D01*
X170446056Y-92552000D02*
X169497715Y-91603659D01*
X188341000Y-95970772D02*
X188569672Y-95742100D01*
X185983000Y-95052000D02*
X187879572Y-95052000D01*
X163168500Y-97054500D02*
X163195000Y-97028000D01*
X162505500Y-104542100D02*
X161643000Y-103679600D01*
X157456500Y-98425000D02*
X157456500Y-98702500D01*
X172005600Y-108331000D02*
X172238500Y-108331000D01*
X157456500Y-103886500D02*
X157456500Y-102743000D01*
X163168500Y-98044000D02*
X163168500Y-97054500D01*
X188569672Y-95742100D02*
X188610900Y-95742100D01*
X181684000Y-88773000D02*
X182315454Y-88773000D01*
X157456500Y-93980000D02*
X157456500Y-94511500D01*
X190119000Y-94996000D02*
X191643000Y-94996000D01*
X188631600Y-104061600D02*
X189151600Y-104061600D01*
X183388000Y-107823000D02*
X183134000Y-108077000D01*
X188214000Y-94080500D02*
X188214000Y-94717572D01*
X171450000Y-107775400D02*
X172005600Y-108331000D01*
X157143000Y-104173000D02*
X157170000Y-104173000D01*
X188214000Y-94717572D02*
X187879572Y-95052000D01*
X170633000Y-92552000D02*
X170446056Y-92552000D01*
X163168500Y-97001500D02*
X163195000Y-97028000D01*
X167605500Y-89073000D02*
X167605500Y-89161006D01*
X187879572Y-95052000D02*
X188569672Y-95742100D01*
X183808000Y-107403000D02*
X183388000Y-107823000D01*
X183725360Y-89458274D02*
X183000728Y-89458274D01*
X185983000Y-102552000D02*
X187122000Y-102552000D01*
X167605500Y-89161006D02*
X168619487Y-90174993D01*
X191034500Y-105002500D02*
X190246000Y-105791000D01*
X191034500Y-104775000D02*
X191034500Y-105002500D01*
X185983000Y-97552000D02*
X187767757Y-97552000D01*
X187767757Y-97552000D02*
X188341000Y-96978757D01*
X181964500Y-108077000D02*
X181710500Y-108331000D01*
X191034500Y-106579500D02*
X190246000Y-105791000D01*
X167078000Y-100598000D02*
X167078000Y-101508000D01*
X187122000Y-102552000D02*
X188631600Y-104061600D01*
X157170000Y-104173000D02*
X157456500Y-103886500D01*
X162505500Y-104673000D02*
X162505500Y-104542100D01*
X183808000Y-106227000D02*
X183808000Y-107403000D01*
X163168500Y-96012000D02*
X163168500Y-97001500D01*
X171450000Y-106172000D02*
X171450000Y-107775400D01*
G04 #@! TO.N,GND*
X184999189Y-101544600D02*
X183505492Y-103038297D01*
X186182000Y-105537000D02*
X187071000Y-105537000D01*
X183808000Y-91713086D02*
X183244608Y-92276478D01*
X179985500Y-108331000D02*
X178816000Y-108331000D01*
X181308000Y-90877000D02*
X181308000Y-91883883D01*
X161290000Y-96012000D02*
X160147000Y-97155000D01*
X185983000Y-97052000D02*
X187301000Y-97052000D01*
X172846000Y-104812082D02*
X172846000Y-104903000D01*
X169261391Y-92553391D02*
X169760000Y-93052000D01*
X165126500Y-96038500D02*
X165100000Y-96012000D01*
X169252000Y-92553391D02*
X169261391Y-92553391D01*
X187679500Y-104928500D02*
X188468000Y-104928500D01*
X181308000Y-91883883D02*
X181700595Y-92276478D01*
X165543256Y-100862744D02*
X165808000Y-100598000D01*
X187071000Y-105537000D02*
X187679500Y-104928500D01*
X185975600Y-101544600D02*
X184999189Y-101544600D01*
X186182000Y-105537000D02*
X184998000Y-105537000D01*
X161443500Y-98044000D02*
X161036000Y-98044000D01*
X172808000Y-104941000D02*
X172808000Y-106227000D01*
X183244608Y-92276478D02*
X181700595Y-92276478D01*
X172846000Y-104903000D02*
X172808000Y-104941000D01*
X177773500Y-108331000D02*
X178816000Y-108331000D01*
X169760000Y-93052000D02*
X170633000Y-93052000D01*
X165543256Y-102778688D02*
X165543256Y-100862744D01*
X173963500Y-108331000D02*
X174926531Y-108331000D01*
X161443500Y-96012000D02*
X161290000Y-96012000D01*
X183808000Y-90877000D02*
X183808000Y-91713086D01*
X187301000Y-97052000D02*
X187579000Y-96774000D01*
X161036000Y-98044000D02*
X160147000Y-97155000D01*
X185983000Y-101552000D02*
X185975600Y-101544600D01*
X174926531Y-108331000D02*
X174930000Y-108334469D01*
X184998000Y-105537000D02*
X184308000Y-106227000D01*
G04 #@! TO.N,/XTAL_2*
X191872600Y-98200600D02*
X192570000Y-97503200D01*
X192570000Y-97503200D02*
X192570000Y-97198000D01*
X187839382Y-98052000D02*
X187987982Y-98200600D01*
X192807500Y-97435500D02*
X192570000Y-97198000D01*
X194437000Y-97435500D02*
X192807500Y-97435500D01*
X187987982Y-98200600D02*
X191872600Y-98200600D01*
X185983000Y-98052000D02*
X187839382Y-98052000D01*
X194199500Y-97198000D02*
X194437000Y-97435500D01*
D29*
G04 #@! TO.N,Net-(D5-A)*
X182030500Y-114473000D02*
X189843000Y-114473000D01*
X189843000Y-114473000D02*
X189943000Y-114373000D01*
D27*
G04 #@! TO.N,Net-(U4-NRST)*
X187325000Y-99485810D02*
X186891190Y-99052000D01*
X188595000Y-103378000D02*
X187325000Y-102108000D01*
X186891190Y-99052000D02*
X185983000Y-99052000D01*
X189243000Y-103378000D02*
X188595000Y-103378000D01*
X187325000Y-102108000D02*
X187325000Y-99485810D01*
G04 #@! TO.N,Net-(C8-Pad1)*
X175270900Y-107553400D02*
X176048500Y-108331000D01*
X173798314Y-107553400D02*
X175270900Y-107553400D01*
X173308000Y-107063086D02*
X173798314Y-107553400D01*
X173308000Y-106227000D02*
X173308000Y-107063086D01*
D29*
G04 #@! TO.N,Net-(D1-K)*
X192830800Y-107860800D02*
X188945546Y-107860800D01*
X190843000Y-112473000D02*
X189043000Y-112473000D01*
X187643000Y-113273000D02*
X187643000Y-111073000D01*
X188945546Y-107860800D02*
X188736241Y-108070105D01*
X193943000Y-108973000D02*
X192830800Y-107860800D01*
X189043000Y-112473000D02*
X187643000Y-111073000D01*
X187643000Y-111073000D02*
X187643000Y-109163346D01*
X187643000Y-109163346D02*
X188736241Y-108070105D01*
X192743000Y-114373000D02*
X190843000Y-112473000D01*
D27*
G04 #@! TO.N,/Flash/FLASH_IO2*
X183337874Y-94488000D02*
X184857000Y-92968874D01*
X176403000Y-96901000D02*
X178816000Y-94488000D01*
X176403000Y-96910045D02*
X176403000Y-96901000D01*
X184857000Y-92808822D02*
X185113822Y-92552000D01*
X176136096Y-97176949D02*
X176403000Y-96910045D01*
X178816000Y-94488000D02*
X183337874Y-94488000D01*
X185113822Y-92552000D02*
X185983000Y-92552000D01*
X184857000Y-92968874D02*
X184857000Y-92808822D01*
G04 #@! TO.N,/Flash/FLASH_IO3*
X174744902Y-100443198D02*
X175051543Y-100136556D01*
X174627278Y-99712291D02*
X174320636Y-100018932D01*
X172941965Y-100052000D02*
X170633000Y-100052000D01*
X174954513Y-102514801D02*
X174954513Y-100992221D01*
X174954513Y-100992221D02*
X174744902Y-100782610D01*
X175051543Y-99797144D02*
X174966690Y-99712291D01*
X173981224Y-100018932D02*
X173896373Y-99934081D01*
X174929657Y-102539657D02*
X174954513Y-102514801D01*
X173896373Y-99934081D02*
X173862692Y-99900400D01*
X173801122Y-99900400D02*
X173093565Y-99900400D01*
X173093565Y-99900400D02*
X172941965Y-100052000D01*
X173862692Y-99900400D02*
X173801122Y-99900400D01*
X174744902Y-100782610D02*
G75*
G02*
X174744898Y-100443194I169698J169710D01*
G01*
X175051543Y-100136556D02*
G75*
G03*
X175051493Y-99797194I-169743J169656D01*
G01*
X174966690Y-99712291D02*
G75*
G03*
X174627278Y-99712291I-169706J-169704D01*
G01*
X174320636Y-100018932D02*
G75*
G02*
X173981224Y-100018932I-169706J169704D01*
G01*
G04 #@! TO.N,/V_SENS*
X184854123Y-100052000D02*
X184557244Y-100348879D01*
X185983000Y-100052000D02*
X184854123Y-100052000D01*
G04 #@! TO.N,/MCU/LED_R*
X174648500Y-85979000D02*
X176808000Y-88138500D01*
X176808000Y-88138500D02*
X176808000Y-90877000D01*
G04 #@! TO.N,/Flash/FLASH_IO1*
X170633000Y-100552000D02*
X173344722Y-100552000D01*
X173344722Y-100552000D02*
X173376722Y-100584000D01*
D29*
G04 #@! TO.N,/VBUS*
X193843000Y-111673000D02*
X193943000Y-111773000D01*
D27*
X171891232Y-96052000D02*
X170633000Y-96052000D01*
D29*
X192043000Y-111673000D02*
X193843000Y-111673000D01*
D27*
X172007685Y-96168453D02*
X171891232Y-96052000D01*
X172007685Y-96374008D02*
X172007685Y-96168453D01*
D29*
G04 #@! TO.N,Net-(D2-A)*
X176430500Y-113173000D02*
X184743000Y-113173000D01*
X176230500Y-113373000D02*
X176430500Y-113173000D01*
X184743000Y-113173000D02*
X184843000Y-113273000D01*
D27*
G04 #@! TO.N,/MCU/SWDIO*
X172146402Y-93410598D02*
X171505000Y-94052000D01*
X172146402Y-93048598D02*
X172146402Y-93410598D01*
X171505000Y-94052000D02*
X170633000Y-94052000D01*
G04 #@! TO.N,/MCU/SWCLK*
X171577000Y-90551000D02*
X171982000Y-90551000D01*
X171982000Y-90551000D02*
X172308000Y-90877000D01*
G04 #@! TO.N,/USB_D-*
X168575356Y-94910174D02*
X168717182Y-95052000D01*
X168717182Y-95052000D02*
X170633000Y-95052000D01*
G04 #@! TO.N,/MCU/SD_D0*
X162689377Y-93596624D02*
X162689376Y-93596624D01*
X165638634Y-94494972D02*
X165411256Y-94722347D01*
X161840847Y-94445154D02*
X161220425Y-95065575D01*
X163537906Y-93087506D02*
X163813629Y-93363229D01*
X165071846Y-94722348D02*
X164986993Y-94637495D01*
X167638670Y-96737580D02*
X167759955Y-96616292D01*
X164465000Y-91821000D02*
X164211000Y-91821000D01*
X165129517Y-93646443D02*
X164782461Y-93299387D01*
X166487163Y-95343501D02*
X166259815Y-95570846D01*
X165920405Y-95570847D02*
X165835552Y-95485994D01*
X164719000Y-93235926D02*
X164719000Y-92075000D01*
X170633000Y-97552000D02*
X169035074Y-97552000D01*
X164211000Y-91821000D02*
X163957000Y-92075000D01*
X162689376Y-93936036D02*
X162965082Y-94211742D01*
X166911427Y-95428353D02*
X166826575Y-95343501D01*
X159281500Y-96139000D02*
X160042791Y-96139000D01*
X163957000Y-92075000D02*
X163957000Y-92329000D01*
X160325000Y-95707000D02*
X160325000Y-95856791D01*
X167759956Y-96276882D02*
X167675104Y-96192030D01*
X162965081Y-94551154D02*
X162880229Y-94636007D01*
X160042791Y-96139000D02*
X160325000Y-95856791D01*
X162774232Y-93511772D02*
X162689377Y-93596624D01*
X165835552Y-95146582D02*
X166062897Y-94919234D01*
X163389364Y-93787495D02*
X163113642Y-93511773D01*
X166062898Y-94579824D02*
X165978046Y-94494972D01*
X163957000Y-92329000D02*
X163537906Y-92748094D01*
X164986993Y-94298083D02*
X165214368Y-94070705D01*
X164719000Y-92075000D02*
X164465000Y-91821000D01*
X163813628Y-93702641D02*
X163728776Y-93787494D01*
X167335692Y-96192030D02*
X167108361Y-96419358D01*
X168184221Y-97040559D02*
X168062933Y-97161844D01*
X167723523Y-97161845D02*
X167638670Y-97076992D01*
X169035074Y-97552000D02*
X168523633Y-97040559D01*
X160797600Y-95234400D02*
X160325000Y-95707000D01*
X162540817Y-94636008D02*
X162265112Y-94360303D01*
X161925702Y-94360302D02*
X161840847Y-94445154D01*
X166684098Y-95995094D02*
X166911426Y-95767763D01*
X161051600Y-95234400D02*
X160797600Y-95234400D01*
X166768951Y-96419359D02*
X166684098Y-96334506D01*
X165214369Y-93731295D02*
X165129517Y-93646443D01*
X161220425Y-95065575D02*
X161051600Y-95234400D01*
X164782461Y-93299387D02*
X164719000Y-93235926D01*
X167108361Y-96419358D02*
G75*
G02*
X166768996Y-96419315I-169661J169658D01*
G01*
X166911426Y-95767763D02*
G75*
G03*
X166911385Y-95428395I-169726J169663D01*
G01*
X165214368Y-94070705D02*
G75*
G03*
X165214369Y-93731295I-169668J169705D01*
G01*
X163728776Y-93787494D02*
G75*
G02*
X163389395Y-93787465I-169676J169694D01*
G01*
X165411256Y-94722347D02*
G75*
G02*
X165071895Y-94722299I-169656J169747D01*
G01*
X166684098Y-96334506D02*
G75*
G02*
X166684098Y-95995094I169702J169706D01*
G01*
X165835552Y-95485994D02*
G75*
G02*
X165835564Y-95146594I169748J169694D01*
G01*
X166826575Y-95343501D02*
G75*
G03*
X166487163Y-95343501I-169706J-169701D01*
G01*
X164986993Y-94637495D02*
G75*
G02*
X164987004Y-94298094I169707J169695D01*
G01*
X167759955Y-96616292D02*
G75*
G03*
X167759943Y-96276896I-169655J169692D01*
G01*
X166062897Y-94919234D02*
G75*
G03*
X166062927Y-94579796I-169697J169734D01*
G01*
X162689376Y-93596624D02*
G75*
G03*
X162689406Y-93936006I169724J-169676D01*
G01*
X167638670Y-97076992D02*
G75*
G02*
X167638684Y-96737594I169730J169692D01*
G01*
X166259815Y-95570846D02*
G75*
G02*
X165920396Y-95570857I-169715J169746D01*
G01*
X168523633Y-97040559D02*
G75*
G03*
X168184221Y-97040559I-169706J-169701D01*
G01*
X165978046Y-94494972D02*
G75*
G03*
X165638634Y-94494972I-169706J-169701D01*
G01*
X163537906Y-92748094D02*
G75*
G03*
X163537906Y-93087506I169694J-169706D01*
G01*
X162265112Y-94360303D02*
G75*
G03*
X161925695Y-94360295I-169712J-169697D01*
G01*
X163813629Y-93363229D02*
G75*
G02*
X163813594Y-93702607I-169729J-169671D01*
G01*
X168062933Y-97161844D02*
G75*
G02*
X167723496Y-97161873I-169733J169744D01*
G01*
X167675104Y-96192030D02*
G75*
G03*
X167335692Y-96192030I-169706J-169701D01*
G01*
X163113642Y-93511773D02*
G75*
G03*
X162774196Y-93511735I-169742J-169727D01*
G01*
X162965082Y-94211742D02*
G75*
G02*
X162965034Y-94551106I-169682J-169658D01*
G01*
X162880229Y-94636007D02*
G75*
G02*
X162540795Y-94636031I-169729J169707D01*
G01*
G04 #@! TO.N,/MCU/SD_D1*
X161000458Y-92914131D02*
X160632763Y-92546436D01*
X163404620Y-91924180D02*
X163036924Y-91556484D01*
X161057028Y-92122173D02*
X161424724Y-92489869D01*
X164188669Y-90782669D02*
X165227000Y-91821000D01*
X163036924Y-91217073D02*
X163121778Y-91132221D01*
X160459139Y-93794861D02*
X161000457Y-93253543D01*
X161905556Y-91273644D02*
X162442958Y-91811046D01*
X163121778Y-91132221D02*
X163471331Y-90782669D01*
X162018690Y-92235306D02*
X162018692Y-92235308D01*
X169106699Y-97052000D02*
X170633000Y-97052000D01*
X160274000Y-93980000D02*
X160459139Y-93794861D01*
X162556092Y-92772708D02*
X162018690Y-92235306D01*
X162471240Y-93196973D02*
X162556092Y-93112120D01*
X163319768Y-92348445D02*
X163404620Y-92263592D01*
X159281500Y-93980000D02*
X160274000Y-93980000D01*
X162442958Y-91811046D02*
X162442956Y-91811044D01*
X161481292Y-91358495D02*
X161566144Y-91273644D01*
X165227000Y-93172301D02*
X169106699Y-97052000D01*
X165227000Y-91821000D02*
X165227000Y-93172301D01*
X160632762Y-92207026D02*
X160717616Y-92122173D01*
X161594428Y-92659572D02*
X162131829Y-93196973D01*
X162442956Y-91811044D02*
X162612661Y-91980749D01*
X163471331Y-90782669D02*
X164188669Y-90782669D01*
X162612661Y-91980749D02*
X162980357Y-92348445D01*
X162018692Y-92235308D02*
X161481291Y-91697907D01*
X161424724Y-92489869D02*
X161594430Y-92659575D01*
X161594430Y-92659575D02*
X161594428Y-92659572D01*
X160459139Y-94551800D02*
X160459139Y-93794861D01*
X161000457Y-93253543D02*
G75*
G03*
X161000495Y-92914094I-169657J169743D01*
G01*
X163404620Y-92263592D02*
G75*
G03*
X163404606Y-91924194I-169720J169692D01*
G01*
X162980357Y-92348445D02*
G75*
G03*
X163319768Y-92348446I169706J169707D01*
G01*
X161566144Y-91273644D02*
G75*
G02*
X161905556Y-91273644I169706J-169701D01*
G01*
X160717616Y-92122173D02*
G75*
G02*
X161057028Y-92122173I169706J-169708D01*
G01*
X162556092Y-93112120D02*
G75*
G03*
X162556106Y-92772694I-169692J169720D01*
G01*
X161481291Y-91697907D02*
G75*
G02*
X161481290Y-91358494I169709J169707D01*
G01*
X160632763Y-92546436D02*
G75*
G02*
X160632731Y-92206996I169737J169736D01*
G01*
X162131829Y-93196973D02*
G75*
G03*
X162471240Y-93196973I169705J169707D01*
G01*
X163036924Y-91556484D02*
G75*
G02*
X163036945Y-91217095I169676J169684D01*
G01*
G04 #@! TO.N,/MCU/SD_CLK*
X174308000Y-90040914D02*
X174308000Y-90877000D01*
X174041486Y-89774400D02*
X174308000Y-90040914D01*
X170460172Y-90143828D02*
X170829600Y-89774400D01*
X170829600Y-89774400D02*
X174041486Y-89774400D01*
X170460172Y-91413828D02*
X170460172Y-90143828D01*
G04 #@! TO.N,/MCU/SD_CMD*
X175808000Y-93031290D02*
X175808000Y-90877000D01*
X176291745Y-93515035D02*
X175808000Y-93031290D01*
X160274000Y-99949000D02*
X163195000Y-99949000D01*
X159027500Y-98679000D02*
X159027500Y-98702500D01*
X176243557Y-93758443D02*
X176291745Y-93710255D01*
X176291745Y-93710255D02*
X176291745Y-93515035D01*
X159027500Y-98702500D02*
X160274000Y-99949000D01*
X159281500Y-98425000D02*
X159027500Y-98679000D01*
G04 #@! TO.N,/MCU/SD_D2*
X160438126Y-102997000D02*
X160184126Y-102743000D01*
X162581600Y-102997000D02*
X160438126Y-102997000D01*
X173308000Y-96567000D02*
X173308000Y-90877000D01*
X172010522Y-97336006D02*
X172538994Y-97336006D01*
X172538994Y-97336006D02*
X173308000Y-96567000D01*
X163195000Y-102383600D02*
X162581600Y-102997000D01*
X160184126Y-102743000D02*
X159281500Y-102743000D01*
G04 #@! TO.N,/MCU/SD_D3*
X172006469Y-98298000D02*
X172212000Y-98298000D01*
X172212000Y-98298000D02*
X173808000Y-96702000D01*
X159281500Y-100457000D02*
X159281500Y-100480500D01*
X173808000Y-96702000D02*
X173808000Y-90877000D01*
X159281500Y-100457000D02*
X162306000Y-100457000D01*
X162306000Y-100457000D02*
X163195000Y-101346000D01*
G04 #@! TO.N,/Flash/FLASH_CLK*
X179308000Y-106227000D02*
X179308000Y-104759000D01*
X176226251Y-103886000D02*
X175514000Y-103886000D01*
X178865697Y-104316697D02*
X178435000Y-103886000D01*
X177355000Y-104627737D02*
X177235000Y-104627737D01*
X176635000Y-103886000D02*
X176226251Y-103886000D01*
X178195000Y-103646000D02*
X178195000Y-101984252D01*
X177955000Y-101744252D02*
X177835000Y-101744252D01*
X179308000Y-104759000D02*
X178865697Y-104316697D01*
X177595000Y-103646000D02*
X177595000Y-104126000D01*
X176755000Y-103886000D02*
X176635000Y-103886000D01*
X177595000Y-101984252D02*
X177595000Y-103646000D01*
X177595000Y-104126000D02*
X177595000Y-104387737D01*
X176995000Y-104387737D02*
X176995000Y-104126000D01*
X178435000Y-103886000D02*
G75*
G02*
X178195000Y-103646000I0J240000D01*
G01*
X176995000Y-104126000D02*
G75*
G03*
X176755000Y-103886000I-240000J0D01*
G01*
X178195000Y-101984252D02*
G75*
G03*
X177955000Y-101744300I-240000J-48D01*
G01*
X177835000Y-101744252D02*
G75*
G03*
X177594952Y-101984252I0J-240048D01*
G01*
X177595000Y-104387737D02*
G75*
G02*
X177355000Y-104627700I-240000J37D01*
G01*
X177235000Y-104627737D02*
G75*
G02*
X176994963Y-104387737I0J240037D01*
G01*
D28*
G04 #@! TO.N,/CANL*
X171506000Y-109936000D02*
X171506000Y-110165000D01*
X167078000Y-106770190D02*
X169580810Y-109273000D01*
X170843000Y-109273000D02*
X171506000Y-109936000D01*
X167078000Y-105248000D02*
X167078000Y-106770190D01*
X169580810Y-109273000D02*
X170843000Y-109273000D01*
G04 #@! TO.N,/CANH*
X165808000Y-106138000D02*
X165808000Y-105248000D01*
X170256000Y-110165000D02*
X169835000Y-110165000D01*
X169835000Y-110165000D02*
X165808000Y-106138000D01*
D27*
G04 #@! TO.N,/USB_D+*
X169260814Y-94235198D02*
X169577616Y-94552000D01*
X169577616Y-94552000D02*
X170633000Y-94552000D01*
G04 #@! TO.N,/Flash/FLASH_IO0*
X171996181Y-101546003D02*
X171502178Y-101052000D01*
X172198490Y-101546003D02*
X171996181Y-101546003D01*
X173158490Y-101786003D02*
X173158490Y-103856003D01*
X171502178Y-101052000D02*
X170633000Y-101052000D01*
X174090359Y-101700359D02*
X173936003Y-101546003D01*
X172918490Y-104096003D02*
X172798490Y-104096003D01*
X172318490Y-101546003D02*
X172198490Y-101546003D01*
X174090359Y-101981000D02*
X174090359Y-101700359D01*
X173936003Y-101546003D02*
X173398490Y-101546003D01*
X172558490Y-103856003D02*
X172558490Y-101786003D01*
X172558490Y-101786003D02*
G75*
G03*
X172318490Y-101546010I-239990J3D01*
G01*
X172798490Y-104096003D02*
G75*
G02*
X172558497Y-103856003I10J240003D01*
G01*
X173398490Y-101546003D02*
G75*
G03*
X173158503Y-101786003I10J-239997D01*
G01*
X173158490Y-103856003D02*
G75*
G02*
X172918490Y-104095990I-239990J3D01*
G01*
G04 #@! TO.N,Net-(D3-A)*
X172823500Y-85979000D02*
X171450000Y-85979000D01*
G04 #@! TO.N,/XTAL_1*
X189039000Y-98679000D02*
X188919000Y-98679000D01*
X190970000Y-99398000D02*
X190970000Y-101410500D01*
X190970000Y-101410500D02*
X190907500Y-101473000D01*
X190907500Y-99460500D02*
X190970000Y-99398000D01*
X187894757Y-98679000D02*
X187767757Y-98552000D01*
X189279000Y-99522125D02*
X189279000Y-98919000D01*
X188919000Y-98679000D02*
X188214000Y-98679000D01*
X188214000Y-98679000D02*
X187894757Y-98679000D01*
X187767757Y-98552000D02*
X185983000Y-98552000D01*
X190970000Y-99398000D02*
X190251000Y-98679000D01*
X189639000Y-99762125D02*
X189519000Y-99762125D01*
X189879000Y-98919000D02*
X189879000Y-99522125D01*
X190251000Y-98679000D02*
X190119000Y-98679000D01*
X189279000Y-98919000D02*
G75*
G03*
X189039000Y-98679000I-240000J0D01*
G01*
X189879000Y-99522125D02*
G75*
G02*
X189639000Y-99762100I-240000J25D01*
G01*
X189519000Y-99762125D02*
G75*
G02*
X189278975Y-99522125I0J240025D01*
G01*
X190119000Y-98679000D02*
G75*
G03*
X189879000Y-98919000I0J-240000D01*
G01*
G04 #@! TO.N,/CURR_SENS*
X185983000Y-104552000D02*
X183777284Y-104552000D01*
X183777284Y-104552000D02*
X183672000Y-104657284D01*
G04 #@! TO.N,/CAN_RX*
X168348000Y-98879000D02*
X167925408Y-98456408D01*
X174808000Y-94026202D02*
X174808000Y-90877000D01*
X168348000Y-100598000D02*
X168348000Y-98879000D01*
X174490600Y-94343602D02*
X174808000Y-94026202D01*
G04 #@! TO.N,/CAN_TX*
X175308000Y-94225396D02*
X175308000Y-90877000D01*
X164538000Y-100598000D02*
X164538000Y-99905079D01*
X164538000Y-99905079D02*
X165321644Y-99121435D01*
X175452250Y-94369646D02*
X175308000Y-94225396D01*
G04 #@! TO.N,/MCU/LED_G*
X174648500Y-88392000D02*
X175136000Y-88392000D01*
X175136000Y-88392000D02*
X176308000Y-89564000D01*
X176308000Y-89564000D02*
X176308000Y-90877000D01*
G04 #@! TO.N,Net-(D4-A)*
X172823500Y-88392000D02*
X171196000Y-88392000D01*
G04 #@! TO.N,Net-(C9-Pad1)*
X168609000Y-93552000D02*
X168248500Y-93191500D01*
X170633000Y-93552000D02*
X168609000Y-93552000D01*
X168248500Y-91702000D02*
X167605500Y-91059000D01*
X168248500Y-93191500D02*
X168248500Y-91702000D01*
D29*
G04 #@! TO.N,Net-(J6-+12V)*
X177956000Y-110585000D02*
X176464300Y-112076700D01*
X174551800Y-112076700D02*
X173255500Y-113373000D01*
X176464300Y-112076700D02*
X174551800Y-112076700D01*
G04 #@! TO.N,Net-(J6-+5V)*
X180543000Y-114273000D02*
X179255500Y-114273000D01*
X179255500Y-114273000D02*
X179055500Y-114473000D01*
D27*
G04 #@! TO.N,/Flash/N_FLASH_CS*
X176897367Y-101826072D02*
X177177947Y-101545491D01*
X177278966Y-100654292D02*
X177360668Y-100735994D01*
X177784931Y-100651141D02*
X178169683Y-100266388D01*
X176681841Y-101754230D02*
X176753683Y-101826072D01*
X176681842Y-101754231D02*
X176681841Y-101754230D01*
X178169683Y-100266388D02*
X178943000Y-99493071D01*
X175903937Y-101485446D02*
X175988793Y-101400591D01*
X176936401Y-101160260D02*
X176854699Y-101078558D01*
X178943000Y-99493071D02*
X178943000Y-99473000D01*
X177106104Y-101329964D02*
X177106106Y-101329965D01*
X176328203Y-101400592D02*
X176512137Y-101584526D01*
X174308000Y-104125243D02*
X175209986Y-103223257D01*
X176087871Y-102008789D02*
X175903938Y-101824856D01*
X176512137Y-101584526D02*
X176681842Y-101754231D01*
X177106106Y-101329965D02*
X176936401Y-101160260D01*
X177700080Y-100735994D02*
X177784931Y-100651141D01*
X175212814Y-103223257D02*
X176087870Y-102348201D01*
X174308000Y-106227000D02*
X174308000Y-104125243D01*
X176854700Y-100739146D02*
X176939554Y-100654293D01*
X175209986Y-103223257D02*
X175212814Y-103223257D01*
X177177947Y-101401807D02*
X177106104Y-101329964D01*
X175988793Y-101400591D02*
G75*
G02*
X176328205Y-101400589I169707J-169709D01*
G01*
X176087870Y-102348201D02*
G75*
G03*
X176087866Y-102008795I-169670J169701D01*
G01*
X175903938Y-101824856D02*
G75*
G02*
X175903986Y-101485496I169662J169656D01*
G01*
X177177947Y-101545491D02*
G75*
G03*
X177177996Y-101401758I-71847J71891D01*
G01*
X176939554Y-100654293D02*
G75*
G02*
X177279005Y-100654252I169746J-169707D01*
G01*
X177360668Y-100735994D02*
G75*
G03*
X177700080Y-100735994I169706J169701D01*
G01*
X176753683Y-101826072D02*
G75*
G03*
X176897367Y-101826072I71842J71842D01*
G01*
X176854699Y-101078558D02*
G75*
G02*
X176854747Y-100739194I169701J169658D01*
G01*
G04 #@! TD*
G04 #@! TA.AperFunction,Conductor*
G04 #@! TO.N,GND*
G36*
X191560547Y-83840185D02*
G01*
X191606302Y-83892989D01*
X191616246Y-83962147D01*
X191587221Y-84025703D01*
X191581189Y-84032181D01*
X191466296Y-84147073D01*
X191466293Y-84147077D01*
X191369828Y-84291446D01*
X191369821Y-84291459D01*
X191303377Y-84451871D01*
X191303374Y-84451881D01*
X191269500Y-84622177D01*
X191269500Y-84622180D01*
X191269500Y-84795820D01*
X191269500Y-84795822D01*
X191269499Y-84795822D01*
X191303374Y-84966118D01*
X191303377Y-84966128D01*
X191342118Y-85059657D01*
X191349587Y-85129126D01*
X191330659Y-85176000D01*
X191242828Y-85307446D01*
X191242821Y-85307459D01*
X191176377Y-85467871D01*
X191176374Y-85467881D01*
X191142500Y-85638177D01*
X191142500Y-85638180D01*
X191142500Y-85811820D01*
X191142500Y-85811822D01*
X191142499Y-85811822D01*
X191176374Y-85982118D01*
X191176377Y-85982128D01*
X191242821Y-86142540D01*
X191242828Y-86142553D01*
X191339293Y-86286922D01*
X191339296Y-86286926D01*
X191462073Y-86409703D01*
X191462077Y-86409706D01*
X191606446Y-86506171D01*
X191606459Y-86506178D01*
X191766871Y-86572622D01*
X191766876Y-86572624D01*
X191766880Y-86572624D01*
X191766881Y-86572625D01*
X191937177Y-86606500D01*
X191937180Y-86606500D01*
X192110822Y-86606500D01*
X192225394Y-86583709D01*
X192281124Y-86572624D01*
X192441547Y-86506175D01*
X192585923Y-86409706D01*
X192708706Y-86286923D01*
X192805175Y-86142547D01*
X192871624Y-85982124D01*
X192889516Y-85892177D01*
X192905500Y-85811822D01*
X192905500Y-85638177D01*
X192871625Y-85467881D01*
X192871624Y-85467880D01*
X192871624Y-85467876D01*
X192854892Y-85427481D01*
X192832882Y-85374343D01*
X192825413Y-85304874D01*
X192844341Y-85258000D01*
X192932171Y-85126553D01*
X192932171Y-85126552D01*
X192932175Y-85126547D01*
X192998624Y-84966124D01*
X193032500Y-84795820D01*
X193032500Y-84622180D01*
X193032500Y-84622177D01*
X192998625Y-84451881D01*
X192998624Y-84451880D01*
X192998624Y-84451876D01*
X192986802Y-84423335D01*
X192932178Y-84291459D01*
X192932171Y-84291446D01*
X192835706Y-84147077D01*
X192835703Y-84147073D01*
X192720811Y-84032181D01*
X192687326Y-83970858D01*
X192692310Y-83901166D01*
X192734182Y-83845233D01*
X192799646Y-83820816D01*
X192808492Y-83820500D01*
X197608949Y-83820500D01*
X197615032Y-83820648D01*
X197923667Y-83835811D01*
X197930480Y-83836336D01*
X198001160Y-83843765D01*
X198006380Y-83844426D01*
X198275893Y-83884405D01*
X198283405Y-83885759D01*
X198347513Y-83899386D01*
X198351700Y-83900354D01*
X198622312Y-83968139D01*
X198630483Y-83970487D01*
X198682368Y-83987346D01*
X198685800Y-83988517D01*
X198959255Y-84086360D01*
X198967885Y-84089819D01*
X198999735Y-84104000D01*
X199002220Y-84105140D01*
X199282551Y-84237727D01*
X199293278Y-84243462D01*
X199582100Y-84416575D01*
X199592218Y-84423335D01*
X199862696Y-84623935D01*
X199872102Y-84631655D01*
X200121611Y-84857797D01*
X200130202Y-84866388D01*
X200263832Y-85013826D01*
X200356344Y-85115897D01*
X200364064Y-85125303D01*
X200564664Y-85395781D01*
X200571424Y-85405899D01*
X200744536Y-85694720D01*
X200750273Y-85705452D01*
X200882845Y-85985751D01*
X200884030Y-85988333D01*
X200898170Y-86020092D01*
X200901642Y-86028753D01*
X200999477Y-86302186D01*
X201000656Y-86305642D01*
X201017508Y-86357507D01*
X201019861Y-86365695D01*
X201087625Y-86636218D01*
X201088631Y-86640567D01*
X201102232Y-86704556D01*
X201103600Y-86712143D01*
X201143571Y-86981615D01*
X201144234Y-86986846D01*
X201151659Y-87057483D01*
X201152189Y-87064361D01*
X201167351Y-87372967D01*
X201167500Y-87379052D01*
X201167500Y-112772947D01*
X201167351Y-112779032D01*
X201152189Y-113087637D01*
X201151659Y-113094514D01*
X201151659Y-113094515D01*
X201144234Y-113165152D01*
X201143571Y-113170383D01*
X201103600Y-113439855D01*
X201102232Y-113447442D01*
X201088631Y-113511431D01*
X201087625Y-113515780D01*
X201019861Y-113786303D01*
X201017508Y-113794491D01*
X201000656Y-113846356D01*
X200999477Y-113849812D01*
X200901642Y-114123245D01*
X200898170Y-114131906D01*
X200884030Y-114163665D01*
X200882845Y-114166247D01*
X200750273Y-114446546D01*
X200744537Y-114457277D01*
X200571425Y-114746099D01*
X200564664Y-114756218D01*
X200364064Y-115026696D01*
X200356344Y-115036102D01*
X200130209Y-115285604D01*
X200121604Y-115294209D01*
X199872102Y-115520344D01*
X199862696Y-115528064D01*
X199592218Y-115728664D01*
X199582099Y-115735425D01*
X199293277Y-115908537D01*
X199282546Y-115914273D01*
X199002247Y-116046845D01*
X198999665Y-116048030D01*
X198967906Y-116062170D01*
X198959245Y-116065642D01*
X198685812Y-116163477D01*
X198682356Y-116164656D01*
X198630491Y-116181508D01*
X198622303Y-116183861D01*
X198351780Y-116251625D01*
X198347431Y-116252631D01*
X198283442Y-116266232D01*
X198275855Y-116267600D01*
X198006383Y-116307571D01*
X198001152Y-116308234D01*
X197930515Y-116315659D01*
X197923637Y-116316189D01*
X197615033Y-116331351D01*
X197608948Y-116331500D01*
X159515052Y-116331500D01*
X159508967Y-116331351D01*
X159200361Y-116316189D01*
X159193483Y-116315659D01*
X159122846Y-116308234D01*
X159117615Y-116307571D01*
X158848143Y-116267600D01*
X158840556Y-116266232D01*
X158776567Y-116252631D01*
X158772218Y-116251625D01*
X158501695Y-116183861D01*
X158493507Y-116181508D01*
X158441642Y-116164656D01*
X158438186Y-116163477D01*
X158164753Y-116065642D01*
X158156092Y-116062170D01*
X158124333Y-116048030D01*
X158121751Y-116046845D01*
X157841452Y-115914273D01*
X157830720Y-115908536D01*
X157541899Y-115735424D01*
X157531781Y-115728664D01*
X157261303Y-115528064D01*
X157251897Y-115520344D01*
X157138243Y-115417334D01*
X157002388Y-115294202D01*
X156993797Y-115285611D01*
X156767655Y-115036102D01*
X156759935Y-115026696D01*
X156559335Y-114756218D01*
X156552575Y-114746100D01*
X156552574Y-114746099D01*
X156379461Y-114457277D01*
X156373725Y-114446546D01*
X156313421Y-114319044D01*
X156241140Y-114166220D01*
X156240000Y-114163735D01*
X156225819Y-114131885D01*
X156222356Y-114123245D01*
X156176735Y-113995743D01*
X156124517Y-113849800D01*
X156123342Y-113846356D01*
X156106490Y-113794491D01*
X156104137Y-113786303D01*
X156094947Y-113749615D01*
X156036354Y-113515700D01*
X156035386Y-113511513D01*
X156021759Y-113447405D01*
X156020405Y-113439893D01*
X155980426Y-113170380D01*
X155979764Y-113165152D01*
X155972336Y-113094480D01*
X155971811Y-113087667D01*
X155956649Y-112779032D01*
X155956500Y-112772948D01*
X155956500Y-112651711D01*
X157692500Y-112651711D01*
X157692500Y-112894288D01*
X157718859Y-113094514D01*
X157724162Y-113134789D01*
X157735392Y-113176700D01*
X157786947Y-113369104D01*
X157879773Y-113593205D01*
X157879776Y-113593212D01*
X158001064Y-113803289D01*
X158001066Y-113803292D01*
X158001067Y-113803293D01*
X158148733Y-113995736D01*
X158148739Y-113995743D01*
X158320256Y-114167260D01*
X158320262Y-114167265D01*
X158512711Y-114314936D01*
X158722788Y-114436224D01*
X158946900Y-114529054D01*
X159181211Y-114591838D01*
X159361586Y-114615584D01*
X159421711Y-114623500D01*
X159421712Y-114623500D01*
X159664289Y-114623500D01*
X159712388Y-114617167D01*
X159904789Y-114591838D01*
X160139100Y-114529054D01*
X160363212Y-114436224D01*
X160573289Y-114314936D01*
X160765738Y-114167265D01*
X160937265Y-113995738D01*
X161084936Y-113803289D01*
X161206224Y-113593212D01*
X161299054Y-113369100D01*
X161361838Y-113134789D01*
X161393500Y-112894288D01*
X161393500Y-112651712D01*
X161361838Y-112411211D01*
X161299054Y-112176900D01*
X161297231Y-112172500D01*
X161263640Y-112091402D01*
X161206224Y-111952788D01*
X161084936Y-111742711D01*
X161006622Y-111640650D01*
X160937266Y-111550263D01*
X160937260Y-111550256D01*
X160765743Y-111378739D01*
X160765736Y-111378733D01*
X160573293Y-111231067D01*
X160573292Y-111231066D01*
X160573289Y-111231064D01*
X160389804Y-111125129D01*
X160363214Y-111109777D01*
X160363205Y-111109773D01*
X160139104Y-111016947D01*
X159904785Y-110954161D01*
X159664289Y-110922500D01*
X159664288Y-110922500D01*
X159421712Y-110922500D01*
X159421711Y-110922500D01*
X159181214Y-110954161D01*
X158946895Y-111016947D01*
X158722794Y-111109773D01*
X158722785Y-111109777D01*
X158512706Y-111231067D01*
X158320263Y-111378733D01*
X158320256Y-111378739D01*
X158148739Y-111550256D01*
X158148733Y-111550263D01*
X158001067Y-111742706D01*
X157879777Y-111952785D01*
X157879773Y-111952794D01*
X157786947Y-112176895D01*
X157724161Y-112411214D01*
X157692500Y-112651711D01*
X155956500Y-112651711D01*
X155956500Y-106438649D01*
X163738000Y-106438649D01*
X163740899Y-106475489D01*
X163740900Y-106475495D01*
X163786716Y-106633193D01*
X163786717Y-106633196D01*
X163870314Y-106774552D01*
X163870321Y-106774561D01*
X163986438Y-106890678D01*
X163986447Y-106890685D01*
X164127801Y-106974281D01*
X164285514Y-107020100D01*
X164285511Y-107020100D01*
X164287998Y-107020295D01*
X164288000Y-107020295D01*
X164288000Y-105798000D01*
X163738000Y-105798000D01*
X163738000Y-106438649D01*
X155956500Y-106438649D01*
X155956500Y-99971492D01*
X155976185Y-99904453D01*
X156028989Y-99858698D01*
X156098147Y-99848754D01*
X156161703Y-99877779D01*
X156168181Y-99883811D01*
X156283076Y-99998706D01*
X156413391Y-100085779D01*
X156458196Y-100139391D01*
X156468500Y-100188881D01*
X156468500Y-100743669D01*
X156468501Y-100743687D01*
X156478825Y-100844752D01*
X156510149Y-100939280D01*
X156532383Y-101006377D01*
X156533092Y-101008515D01*
X156533093Y-101008518D01*
X156548553Y-101033582D01*
X156623660Y-101155350D01*
X156745650Y-101277340D01*
X156892484Y-101367908D01*
X157056247Y-101422174D01*
X157157323Y-101432500D01*
X157755676Y-101432499D01*
X157755684Y-101432498D01*
X157755687Y-101432498D01*
X157811030Y-101426844D01*
X157856753Y-101422174D01*
X158020516Y-101367908D01*
X158167350Y-101277340D01*
X158281319Y-101163371D01*
X158342642Y-101129886D01*
X158412334Y-101134870D01*
X158456681Y-101163371D01*
X158570650Y-101277340D01*
X158717484Y-101367908D01*
X158881247Y-101422174D01*
X158982323Y-101432500D01*
X159580676Y-101432499D01*
X159580684Y-101432498D01*
X159580687Y-101432498D01*
X159636030Y-101426844D01*
X159681753Y-101422174D01*
X159845516Y-101367908D01*
X159992350Y-101277340D01*
X160114340Y-101155350D01*
X160137375Y-101118003D01*
X160189323Y-101071279D01*
X160242914Y-101059100D01*
X162005240Y-101059100D01*
X162034680Y-101067744D01*
X162064667Y-101074268D01*
X162069682Y-101078022D01*
X162072279Y-101078785D01*
X162092921Y-101095419D01*
X162258181Y-101260679D01*
X162291666Y-101322002D01*
X162294500Y-101348360D01*
X162294500Y-101434695D01*
X162329103Y-101608658D01*
X162329106Y-101608667D01*
X162396983Y-101772540D01*
X162396990Y-101772552D01*
X162424022Y-101813008D01*
X162444900Y-101879685D01*
X162426416Y-101947065D01*
X162424026Y-101950785D01*
X162413827Y-101966050D01*
X162413823Y-101966056D01*
X162347376Y-102126475D01*
X162347374Y-102126481D01*
X162313835Y-102295092D01*
X162281450Y-102357003D01*
X162220734Y-102391577D01*
X162192218Y-102394900D01*
X160738886Y-102394900D01*
X160712361Y-102387111D01*
X160685084Y-102382620D01*
X160676625Y-102376618D01*
X160671847Y-102375215D01*
X160655789Y-102362937D01*
X160653441Y-102360817D01*
X160553824Y-102261200D01*
X160535459Y-102250597D01*
X160524097Y-102244037D01*
X160416534Y-102181936D01*
X160416529Y-102181933D01*
X160365483Y-102168255D01*
X160263394Y-102140900D01*
X160263392Y-102140900D01*
X160242914Y-102140900D01*
X160175875Y-102121215D01*
X160137375Y-102081996D01*
X160114340Y-102044650D01*
X159992351Y-101922661D01*
X159992350Y-101922660D01*
X159845516Y-101832092D01*
X159681753Y-101777826D01*
X159681751Y-101777825D01*
X159580678Y-101767500D01*
X158982330Y-101767500D01*
X158982312Y-101767501D01*
X158881247Y-101777825D01*
X158717484Y-101832092D01*
X158717481Y-101832093D01*
X158570648Y-101922661D01*
X158456681Y-102036629D01*
X158395358Y-102070114D01*
X158325666Y-102065130D01*
X158281319Y-102036629D01*
X158167351Y-101922661D01*
X158167350Y-101922660D01*
X158020516Y-101832092D01*
X157856753Y-101777826D01*
X157856751Y-101777825D01*
X157755678Y-101767500D01*
X157157330Y-101767500D01*
X157157312Y-101767501D01*
X157056247Y-101777825D01*
X156892484Y-101832092D01*
X156892481Y-101832093D01*
X156745648Y-101922661D01*
X156623661Y-102044648D01*
X156533093Y-102191481D01*
X156533091Y-102191486D01*
X156515182Y-102245533D01*
X156478826Y-102355247D01*
X156478826Y-102355248D01*
X156478825Y-102355248D01*
X156468500Y-102456315D01*
X156468500Y-103029669D01*
X156468501Y-103029687D01*
X156478825Y-103130752D01*
X156508130Y-103219187D01*
X156530391Y-103286366D01*
X156533092Y-103294515D01*
X156533095Y-103294522D01*
X156563601Y-103343980D01*
X156582041Y-103411372D01*
X156561118Y-103478036D01*
X156545743Y-103496757D01*
X156443538Y-103598961D01*
X156443535Y-103598965D01*
X156344990Y-103746446D01*
X156344983Y-103746459D01*
X156277106Y-103910332D01*
X156277103Y-103910341D01*
X156242500Y-104084304D01*
X156242500Y-104261695D01*
X156277103Y-104435658D01*
X156277106Y-104435667D01*
X156344983Y-104599540D01*
X156344990Y-104599553D01*
X156443535Y-104747034D01*
X156443538Y-104747038D01*
X156568961Y-104872461D01*
X156568965Y-104872464D01*
X156716446Y-104971009D01*
X156716459Y-104971016D01*
X156784749Y-104999302D01*
X156880334Y-105038894D01*
X156880336Y-105038894D01*
X156880341Y-105038896D01*
X157054304Y-105073499D01*
X157054307Y-105073500D01*
X157054309Y-105073500D01*
X157231693Y-105073500D01*
X157231694Y-105073499D01*
X157291129Y-105061677D01*
X157405658Y-105038896D01*
X157405661Y-105038894D01*
X157405666Y-105038894D01*
X157569547Y-104971013D01*
X157586547Y-104959654D01*
X159743001Y-104959654D01*
X159753319Y-105060652D01*
X159807546Y-105224300D01*
X159807551Y-105224311D01*
X159898052Y-105371034D01*
X159898055Y-105371038D01*
X160019961Y-105492944D01*
X160019965Y-105492947D01*
X160166688Y-105583448D01*
X160166699Y-105583453D01*
X160330347Y-105637680D01*
X160431351Y-105647999D01*
X160530500Y-105647998D01*
X160530500Y-104923000D01*
X159743001Y-104923000D01*
X159743001Y-104959654D01*
X157586547Y-104959654D01*
X157717035Y-104872464D01*
X157760099Y-104829400D01*
X157805543Y-104783957D01*
X157842461Y-104747038D01*
X157842464Y-104747035D01*
X157941013Y-104599547D01*
X158008894Y-104435666D01*
X158011414Y-104423000D01*
X158038814Y-104285247D01*
X158043500Y-104261691D01*
X158043500Y-104084309D01*
X158042041Y-104076974D01*
X158043884Y-104020685D01*
X158058600Y-103965768D01*
X158058600Y-103699624D01*
X158078285Y-103632585D01*
X158101095Y-103606173D01*
X158108797Y-103599455D01*
X158167350Y-103563340D01*
X158284318Y-103446371D01*
X158287495Y-103443601D01*
X158315547Y-103430680D01*
X158342642Y-103415886D01*
X158346994Y-103416197D01*
X158350957Y-103414372D01*
X158381531Y-103418667D01*
X158412334Y-103420870D01*
X158416564Y-103423588D01*
X158420147Y-103424092D01*
X158428393Y-103431191D01*
X158456681Y-103449371D01*
X158570650Y-103563340D01*
X158717484Y-103653908D01*
X158881247Y-103708174D01*
X158982323Y-103718500D01*
X159580676Y-103718499D01*
X159580684Y-103718498D01*
X159580687Y-103718498D01*
X159660989Y-103710295D01*
X159681753Y-103708174D01*
X159845516Y-103653908D01*
X159992350Y-103563340D01*
X160006511Y-103549178D01*
X160030956Y-103535829D01*
X160053638Y-103519678D01*
X160061192Y-103519318D01*
X160067833Y-103515692D01*
X160095617Y-103517678D01*
X160123429Y-103516354D01*
X160133504Y-103520387D01*
X160137525Y-103520675D01*
X160156187Y-103529467D01*
X160177925Y-103542017D01*
X160226140Y-103592585D01*
X160239362Y-103661192D01*
X160213394Y-103726056D01*
X160172616Y-103758386D01*
X160172844Y-103758755D01*
X160169726Y-103760677D01*
X160168329Y-103761786D01*
X160166693Y-103762548D01*
X160019965Y-103853052D01*
X160019961Y-103853055D01*
X159898055Y-103974961D01*
X159898052Y-103974965D01*
X159807551Y-104121688D01*
X159807546Y-104121699D01*
X159753319Y-104285347D01*
X159743000Y-104386345D01*
X159743000Y-104423000D01*
X160656500Y-104423000D01*
X160723539Y-104442685D01*
X160769294Y-104495489D01*
X160780500Y-104547000D01*
X160780500Y-104673000D01*
X160906500Y-104673000D01*
X160973539Y-104692685D01*
X161019294Y-104745489D01*
X161030500Y-104797000D01*
X161030500Y-105647999D01*
X161129640Y-105647999D01*
X161129654Y-105647998D01*
X161230652Y-105637680D01*
X161394300Y-105583453D01*
X161394311Y-105583448D01*
X161541035Y-105492947D01*
X161554960Y-105479021D01*
X161616282Y-105445533D01*
X161685973Y-105450514D01*
X161730327Y-105479017D01*
X161744650Y-105493340D01*
X161891484Y-105583908D01*
X162055247Y-105638174D01*
X162156323Y-105648500D01*
X162854676Y-105648499D01*
X162854684Y-105648498D01*
X162854687Y-105648498D01*
X162910030Y-105642844D01*
X162955753Y-105638174D01*
X163119516Y-105583908D01*
X163266350Y-105493340D01*
X163388340Y-105371350D01*
X163478908Y-105224516D01*
X163496295Y-105172045D01*
X163536066Y-105114602D01*
X163600582Y-105087779D01*
X163669358Y-105100094D01*
X163720558Y-105147637D01*
X163738000Y-105211051D01*
X163738000Y-105298000D01*
X164288000Y-105298000D01*
X164288000Y-104075703D01*
X164285503Y-104075900D01*
X164127806Y-104121716D01*
X164127803Y-104121717D01*
X163986447Y-104205314D01*
X163986438Y-104205321D01*
X163870321Y-104321438D01*
X163870314Y-104321447D01*
X163786717Y-104462803D01*
X163786715Y-104462807D01*
X163786574Y-104463295D01*
X163786358Y-104463631D01*
X163783618Y-104469965D01*
X163782596Y-104469522D01*
X163748966Y-104522180D01*
X163685492Y-104551384D01*
X163616306Y-104541635D01*
X163563373Y-104496029D01*
X163543499Y-104429046D01*
X163543499Y-104386330D01*
X163543498Y-104386312D01*
X163533174Y-104285247D01*
X163530519Y-104277236D01*
X163478908Y-104121484D01*
X163388340Y-103974650D01*
X163266350Y-103852660D01*
X163157763Y-103785683D01*
X163119518Y-103762093D01*
X163119513Y-103762091D01*
X162963204Y-103710295D01*
X162905759Y-103670522D01*
X162878936Y-103606006D01*
X162891251Y-103537230D01*
X162938794Y-103486031D01*
X162940117Y-103485254D01*
X162951298Y-103478800D01*
X163063400Y-103366698D01*
X163128679Y-103301419D01*
X163190002Y-103267934D01*
X163216360Y-103265100D01*
X163281822Y-103265100D01*
X163396394Y-103242309D01*
X163452124Y-103231224D01*
X163612547Y-103164775D01*
X163756923Y-103068306D01*
X163879706Y-102945523D01*
X163976175Y-102801147D01*
X164042624Y-102640724D01*
X164062917Y-102538706D01*
X164076500Y-102470422D01*
X164076500Y-102296777D01*
X164055762Y-102192525D01*
X164061989Y-102122934D01*
X164104851Y-102067756D01*
X164170741Y-102044511D01*
X164211974Y-102049257D01*
X164285426Y-102070597D01*
X164285429Y-102070597D01*
X164285431Y-102070598D01*
X164322306Y-102073500D01*
X164322314Y-102073500D01*
X164753686Y-102073500D01*
X164753694Y-102073500D01*
X164790569Y-102070598D01*
X164790571Y-102070597D01*
X164790573Y-102070597D01*
X164836547Y-102057240D01*
X164948398Y-102024744D01*
X165089865Y-101941081D01*
X165089870Y-101941076D01*
X165096026Y-101936301D01*
X165097839Y-101938638D01*
X165146949Y-101911798D01*
X165216643Y-101916756D01*
X165237917Y-101927088D01*
X165381464Y-102014632D01*
X165404440Y-102039919D01*
X165427704Y-102064835D01*
X165427924Y-102065765D01*
X165428450Y-102066344D01*
X165429392Y-102071958D01*
X165440900Y-102120498D01*
X165440900Y-102147661D01*
X165440900Y-102147663D01*
X165440899Y-102147663D01*
X165474774Y-102317959D01*
X165474777Y-102317969D01*
X165541221Y-102478381D01*
X165541228Y-102478394D01*
X165637693Y-102622763D01*
X165637696Y-102622767D01*
X165760473Y-102745544D01*
X165760477Y-102745547D01*
X165904846Y-102842012D01*
X165904859Y-102842019D01*
X166011820Y-102886323D01*
X166065276Y-102908465D01*
X166065280Y-102908465D01*
X166065281Y-102908466D01*
X166235577Y-102942341D01*
X166235580Y-102942341D01*
X166409222Y-102942341D01*
X166546701Y-102914994D01*
X166579524Y-102908465D01*
X166738455Y-102842634D01*
X166739940Y-102842019D01*
X166739940Y-102842018D01*
X166739947Y-102842016D01*
X166884323Y-102745547D01*
X166905917Y-102723952D01*
X166967238Y-102690468D01*
X167036929Y-102695451D01*
X167092864Y-102737322D01*
X167096700Y-102742743D01*
X167158293Y-102834922D01*
X167158296Y-102834926D01*
X167281073Y-102957703D01*
X167281077Y-102957706D01*
X167425446Y-103054171D01*
X167425459Y-103054178D01*
X167539899Y-103101580D01*
X167585876Y-103120624D01*
X167585880Y-103120624D01*
X167585881Y-103120625D01*
X167756177Y-103154500D01*
X167756180Y-103154500D01*
X167929822Y-103154500D01*
X168049208Y-103130752D01*
X168100124Y-103120624D01*
X168260547Y-103054175D01*
X168404923Y-102957706D01*
X168527706Y-102834923D01*
X168624175Y-102690547D01*
X168690624Y-102530124D01*
X168706860Y-102448500D01*
X168724500Y-102359822D01*
X168724500Y-102186180D01*
X168721487Y-102171034D01*
X168716480Y-102145862D01*
X168722706Y-102076273D01*
X168765568Y-102021095D01*
X168774957Y-102014950D01*
X168899865Y-101941081D01*
X169016081Y-101824865D01*
X169099744Y-101683398D01*
X169099746Y-101683390D01*
X169101911Y-101678389D01*
X169103184Y-101676857D01*
X169103490Y-101674890D01*
X169125441Y-101650110D01*
X169146602Y-101624681D01*
X169148499Y-101624082D01*
X169149821Y-101622591D01*
X169181687Y-101613612D01*
X169213234Y-101603660D01*
X169215154Y-101604182D01*
X169217073Y-101603642D01*
X169248726Y-101613314D01*
X169280654Y-101622000D01*
X169281988Y-101623479D01*
X169283892Y-101624061D01*
X169305275Y-101649292D01*
X169327455Y-101673879D01*
X169328185Y-101676326D01*
X169329065Y-101677364D01*
X169338342Y-101710346D01*
X169338636Y-101711334D01*
X169347313Y-101777236D01*
X169347405Y-101777458D01*
X169348498Y-101785700D01*
X169345399Y-101805695D01*
X169345399Y-101818316D01*
X169348374Y-101818708D01*
X169347313Y-101826762D01*
X169347313Y-101826764D01*
X169343938Y-101852393D01*
X169332500Y-101939272D01*
X169332500Y-102164727D01*
X169348374Y-102285292D01*
X169345399Y-102285683D01*
X169345399Y-102318316D01*
X169348374Y-102318708D01*
X169332500Y-102439272D01*
X169332500Y-102664727D01*
X169348374Y-102785292D01*
X169345399Y-102785683D01*
X169345399Y-102818316D01*
X169348374Y-102818708D01*
X169347313Y-102826762D01*
X169347313Y-102826764D01*
X169345306Y-102842012D01*
X169332500Y-102939272D01*
X169332500Y-103164727D01*
X169343499Y-103248271D01*
X169346088Y-103267934D01*
X169348374Y-103285292D01*
X169345399Y-103285683D01*
X169345399Y-103318316D01*
X169348374Y-103318708D01*
X169347313Y-103326762D01*
X169347313Y-103326764D01*
X169345024Y-103344154D01*
X169332500Y-103439272D01*
X169332500Y-103664727D01*
X169338500Y-103710295D01*
X169345319Y-103762093D01*
X169348374Y-103785292D01*
X169345399Y-103785683D01*
X169345399Y-103818316D01*
X169348374Y-103818708D01*
X169332500Y-103939272D01*
X169332500Y-104164727D01*
X169348054Y-104282864D01*
X169348106Y-104282974D01*
X169348095Y-104283175D01*
X169348374Y-104285292D01*
X169347980Y-104285343D01*
X169347257Y-104298937D01*
X169348503Y-104318266D01*
X169347409Y-104326531D01*
X169347313Y-104326764D01*
X169334402Y-104424833D01*
X169320141Y-104457010D01*
X169306145Y-104488650D01*
X169306109Y-104488673D01*
X169306093Y-104488711D01*
X169277134Y-104507785D01*
X169247820Y-104527120D01*
X169247778Y-104527120D01*
X169247743Y-104527144D01*
X169212682Y-104527537D01*
X169177955Y-104527951D01*
X169177919Y-104527928D01*
X169177878Y-104527929D01*
X169148625Y-104509590D01*
X169118732Y-104490878D01*
X169118703Y-104490833D01*
X169118679Y-104490818D01*
X169118637Y-104490729D01*
X169104647Y-104468765D01*
X169103715Y-104469317D01*
X169098663Y-104460775D01*
X169016081Y-104321135D01*
X169016079Y-104321133D01*
X169016076Y-104321129D01*
X168899870Y-104204923D01*
X168899862Y-104204917D01*
X168816364Y-104155537D01*
X168758398Y-104121256D01*
X168758397Y-104121255D01*
X168758396Y-104121255D01*
X168758393Y-104121254D01*
X168600573Y-104075402D01*
X168600567Y-104075401D01*
X168563701Y-104072500D01*
X168563694Y-104072500D01*
X168132306Y-104072500D01*
X168132298Y-104072500D01*
X168095432Y-104075401D01*
X168095426Y-104075402D01*
X167937606Y-104121254D01*
X167937603Y-104121255D01*
X167796137Y-104204917D01*
X167789969Y-104209702D01*
X167788072Y-104207256D01*
X167739358Y-104233857D01*
X167669666Y-104228873D01*
X167637296Y-104208069D01*
X167636031Y-104209702D01*
X167629862Y-104204917D01*
X167546364Y-104155537D01*
X167488398Y-104121256D01*
X167488397Y-104121255D01*
X167488396Y-104121255D01*
X167488393Y-104121254D01*
X167330573Y-104075402D01*
X167330567Y-104075401D01*
X167293701Y-104072500D01*
X167293694Y-104072500D01*
X166862306Y-104072500D01*
X166862298Y-104072500D01*
X166825432Y-104075401D01*
X166825426Y-104075402D01*
X166667606Y-104121254D01*
X166667603Y-104121255D01*
X166526137Y-104204917D01*
X166519969Y-104209702D01*
X166518072Y-104207256D01*
X166469358Y-104233857D01*
X166399666Y-104228873D01*
X166367296Y-104208069D01*
X166366031Y-104209702D01*
X166359862Y-104204917D01*
X166276364Y-104155537D01*
X166218398Y-104121256D01*
X166218397Y-104121255D01*
X166218396Y-104121255D01*
X166218393Y-104121254D01*
X166060573Y-104075402D01*
X166060567Y-104075401D01*
X166023701Y-104072500D01*
X166023694Y-104072500D01*
X165592306Y-104072500D01*
X165592298Y-104072500D01*
X165555432Y-104075401D01*
X165555426Y-104075402D01*
X165397606Y-104121254D01*
X165397603Y-104121255D01*
X165256140Y-104204915D01*
X165249974Y-104209699D01*
X165248174Y-104207379D01*
X165198913Y-104234230D01*
X165129225Y-104229193D01*
X165096992Y-104208461D01*
X165095722Y-104210100D01*
X165089552Y-104205314D01*
X164948196Y-104121717D01*
X164948193Y-104121716D01*
X164790494Y-104075900D01*
X164790497Y-104075900D01*
X164788000Y-104075703D01*
X164788000Y-107020295D01*
X164788001Y-107020295D01*
X164790486Y-107020100D01*
X164948198Y-106974281D01*
X165089550Y-106890686D01*
X165095717Y-106885903D01*
X165097630Y-106888369D01*
X165146222Y-106861802D01*
X165215917Y-106866749D01*
X165248762Y-106887853D01*
X165249969Y-106886298D01*
X165256132Y-106891078D01*
X165256135Y-106891081D01*
X165397602Y-106974744D01*
X165431220Y-106984511D01*
X165555426Y-107020597D01*
X165555429Y-107020597D01*
X165555431Y-107020598D01*
X165592306Y-107023500D01*
X165757548Y-107023500D01*
X165824587Y-107043185D01*
X165845229Y-107059819D01*
X166649413Y-107864003D01*
X166682898Y-107925326D01*
X166677914Y-107995018D01*
X166636042Y-108050951D01*
X166570578Y-108075368D01*
X166545281Y-108074408D01*
X166545278Y-108074448D01*
X166544615Y-108074382D01*
X166543539Y-108074342D01*
X166542246Y-108074150D01*
X166542236Y-108074149D01*
X166542233Y-108074149D01*
X166356000Y-108065000D01*
X166169767Y-108074149D01*
X166169762Y-108074149D01*
X166169756Y-108074150D01*
X165985321Y-108101509D01*
X165848787Y-108135709D01*
X165804459Y-108146813D01*
X165804456Y-108146813D01*
X165804448Y-108146816D01*
X165628921Y-108209620D01*
X165628905Y-108209627D01*
X165460342Y-108289351D01*
X165300419Y-108385206D01*
X165150657Y-108496277D01*
X165150642Y-108496289D01*
X165012496Y-108621496D01*
X164887289Y-108759642D01*
X164887277Y-108759657D01*
X164776206Y-108909419D01*
X164680351Y-109069342D01*
X164600627Y-109237905D01*
X164600620Y-109237921D01*
X164537816Y-109413448D01*
X164492509Y-109594321D01*
X164465150Y-109778756D01*
X164465149Y-109778762D01*
X164465149Y-109778767D01*
X164456000Y-109965000D01*
X164465149Y-110151233D01*
X164465149Y-110151238D01*
X164465150Y-110151243D01*
X164492509Y-110335678D01*
X164537816Y-110516551D01*
X164600620Y-110692078D01*
X164600627Y-110692094D01*
X164600629Y-110692099D01*
X164627560Y-110749039D01*
X164680351Y-110860657D01*
X164776206Y-111020580D01*
X164776208Y-111020583D01*
X164887280Y-111170347D01*
X164887288Y-111170356D01*
X164887289Y-111170357D01*
X165012496Y-111308503D01*
X165146186Y-111429671D01*
X165150653Y-111433720D01*
X165300417Y-111544792D01*
X165300419Y-111544793D01*
X165460342Y-111640648D01*
X165460345Y-111640649D01*
X165460346Y-111640650D01*
X165628901Y-111720371D01*
X165628910Y-111720374D01*
X165628921Y-111720379D01*
X165792053Y-111778748D01*
X165804459Y-111783187D01*
X165985328Y-111828492D01*
X166169767Y-111855851D01*
X166356000Y-111865000D01*
X166542233Y-111855851D01*
X166726672Y-111828492D01*
X166907541Y-111783187D01*
X166989117Y-111753998D01*
X167083078Y-111720379D01*
X167083084Y-111720376D01*
X167083099Y-111720371D01*
X167251654Y-111640650D01*
X167411583Y-111544792D01*
X167561347Y-111433720D01*
X167699503Y-111308503D01*
X167824720Y-111170347D01*
X167935792Y-111020583D01*
X168031650Y-110860654D01*
X168111371Y-110692099D01*
X168116091Y-110678909D01*
X168174183Y-110516551D01*
X168174187Y-110516541D01*
X168219492Y-110335672D01*
X168246851Y-110151233D01*
X168256000Y-109965000D01*
X168246851Y-109778767D01*
X168246660Y-109777481D01*
X168246698Y-109777208D01*
X168246552Y-109775722D01*
X168246909Y-109775686D01*
X168256283Y-109708279D01*
X168301792Y-109655264D01*
X168368740Y-109635268D01*
X168435870Y-109654642D01*
X168456996Y-109671586D01*
X169219181Y-110433771D01*
X169252666Y-110495094D01*
X169255500Y-110521451D01*
X169255500Y-110712869D01*
X169255501Y-110712876D01*
X169261908Y-110772483D01*
X169312202Y-110907328D01*
X169312205Y-110907334D01*
X169315691Y-110911990D01*
X169340107Y-110977454D01*
X169330985Y-111033750D01*
X169317827Y-111065517D01*
X169299495Y-111109777D01*
X169293948Y-111123168D01*
X169293947Y-111123171D01*
X169255500Y-111316456D01*
X169255500Y-111316459D01*
X169255500Y-111513541D01*
X169255500Y-111513543D01*
X169255499Y-111513543D01*
X169293947Y-111706829D01*
X169293950Y-111706839D01*
X169369364Y-111888907D01*
X169369371Y-111888920D01*
X169478860Y-112052781D01*
X169478863Y-112052785D01*
X169618214Y-112192136D01*
X169618218Y-112192139D01*
X169782079Y-112301628D01*
X169782092Y-112301635D01*
X169963366Y-112376720D01*
X169964165Y-112377051D01*
X169964169Y-112377051D01*
X169964170Y-112377052D01*
X170157456Y-112415500D01*
X170157459Y-112415500D01*
X170354543Y-112415500D01*
X170484582Y-112389632D01*
X170547835Y-112377051D01*
X170696542Y-112315455D01*
X170729907Y-112301635D01*
X170729907Y-112301634D01*
X170729914Y-112301632D01*
X170812109Y-112246711D01*
X170878786Y-112225833D01*
X170946166Y-112244317D01*
X170949891Y-112246711D01*
X171032080Y-112301628D01*
X171032086Y-112301632D01*
X171032088Y-112301633D01*
X171032092Y-112301635D01*
X171213366Y-112376720D01*
X171214165Y-112377051D01*
X171214169Y-112377051D01*
X171214170Y-112377052D01*
X171407456Y-112415500D01*
X171407459Y-112415500D01*
X171604543Y-112415500D01*
X171734582Y-112389632D01*
X171797835Y-112377051D01*
X171926970Y-112323561D01*
X171996437Y-112316093D01*
X172058917Y-112347368D01*
X172094569Y-112407457D01*
X172092127Y-112477126D01*
X172053001Y-112595200D01*
X172053000Y-112595204D01*
X172042500Y-112697984D01*
X172042500Y-114048015D01*
X172053000Y-114150795D01*
X172053001Y-114150797D01*
X172079698Y-114231363D01*
X172108186Y-114317335D01*
X172108187Y-114317337D01*
X172200286Y-114466651D01*
X172200289Y-114466655D01*
X172324344Y-114590710D01*
X172324348Y-114590713D01*
X172473662Y-114682812D01*
X172473664Y-114682813D01*
X172473666Y-114682814D01*
X172640203Y-114737999D01*
X172742992Y-114748500D01*
X172742997Y-114748500D01*
X173768003Y-114748500D01*
X173768008Y-114748500D01*
X173870797Y-114737999D01*
X174037334Y-114682814D01*
X174186655Y-114590711D01*
X174310711Y-114466655D01*
X174402814Y-114317334D01*
X174457999Y-114150797D01*
X174468500Y-114048008D01*
X174468500Y-113206544D01*
X174488185Y-113139505D01*
X174504819Y-113118863D01*
X174805819Y-112817863D01*
X174867142Y-112784378D01*
X174936834Y-112789362D01*
X174992767Y-112831234D01*
X175017184Y-112896698D01*
X175017500Y-112905544D01*
X175017500Y-114048015D01*
X175028000Y-114150795D01*
X175028001Y-114150797D01*
X175054698Y-114231363D01*
X175083186Y-114317335D01*
X175083187Y-114317337D01*
X175175286Y-114466651D01*
X175175289Y-114466655D01*
X175299344Y-114590710D01*
X175299348Y-114590713D01*
X175448662Y-114682812D01*
X175448664Y-114682813D01*
X175448666Y-114682814D01*
X175615203Y-114737999D01*
X175717992Y-114748500D01*
X175717997Y-114748500D01*
X176743003Y-114748500D01*
X176743008Y-114748500D01*
X176845797Y-114737999D01*
X177012334Y-114682814D01*
X177161655Y-114590711D01*
X177285711Y-114466655D01*
X177377814Y-114317334D01*
X177432999Y-114150797D01*
X177443500Y-114048008D01*
X177443500Y-114000700D01*
X177446050Y-113992014D01*
X177444762Y-113983053D01*
X177455740Y-113959012D01*
X177463185Y-113933661D01*
X177470025Y-113927733D01*
X177473787Y-113919497D01*
X177496021Y-113905207D01*
X177515989Y-113887906D01*
X177526503Y-113885618D01*
X177532565Y-113881723D01*
X177567500Y-113876700D01*
X177718500Y-113876700D01*
X177785539Y-113896385D01*
X177831294Y-113949189D01*
X177842500Y-114000700D01*
X177842500Y-115148015D01*
X177853000Y-115250795D01*
X177853001Y-115250796D01*
X177908186Y-115417335D01*
X177908187Y-115417337D01*
X178000286Y-115566651D01*
X178000289Y-115566655D01*
X178124344Y-115690710D01*
X178124348Y-115690713D01*
X178273662Y-115782812D01*
X178273664Y-115782813D01*
X178273666Y-115782814D01*
X178440203Y-115837999D01*
X178542992Y-115848500D01*
X178542997Y-115848500D01*
X179568003Y-115848500D01*
X179568008Y-115848500D01*
X179670797Y-115837999D01*
X179837334Y-115782814D01*
X179986655Y-115690711D01*
X180110711Y-115566655D01*
X180202814Y-115417334D01*
X180257999Y-115250797D01*
X180258000Y-115250786D01*
X180259417Y-115244173D01*
X180261328Y-115244582D01*
X180284129Y-115188700D01*
X180341309Y-115148548D01*
X180405284Y-115144376D01*
X180423543Y-115148008D01*
X180456179Y-115154500D01*
X180456180Y-115154500D01*
X180629821Y-115154500D01*
X180649411Y-115150603D01*
X180680715Y-115144376D01*
X180750306Y-115150603D01*
X180805484Y-115193465D01*
X180824903Y-115244532D01*
X180826583Y-115244173D01*
X180828001Y-115250796D01*
X180883186Y-115417335D01*
X180883187Y-115417337D01*
X180975286Y-115566651D01*
X180975289Y-115566655D01*
X181099344Y-115690710D01*
X181099348Y-115690713D01*
X181248662Y-115782812D01*
X181248664Y-115782813D01*
X181248666Y-115782814D01*
X181415203Y-115837999D01*
X181517992Y-115848500D01*
X181517997Y-115848500D01*
X182543003Y-115848500D01*
X182543008Y-115848500D01*
X182645797Y-115837999D01*
X182812334Y-115782814D01*
X182961655Y-115690711D01*
X183085711Y-115566655D01*
X183177814Y-115417334D01*
X183229387Y-115261694D01*
X183269159Y-115204251D01*
X183333675Y-115177428D01*
X183347093Y-115176700D01*
X188808215Y-115176700D01*
X188875254Y-115196385D01*
X188907481Y-115226389D01*
X188985452Y-115330544D01*
X188985455Y-115330547D01*
X189100664Y-115416793D01*
X189100671Y-115416797D01*
X189235517Y-115467091D01*
X189235516Y-115467091D01*
X189242444Y-115467835D01*
X189295127Y-115473500D01*
X190590872Y-115473499D01*
X190650483Y-115467091D01*
X190785331Y-115416796D01*
X190900546Y-115330546D01*
X190986796Y-115215331D01*
X191037091Y-115080483D01*
X191043500Y-115020873D01*
X191043499Y-113968042D01*
X191063183Y-113901004D01*
X191115987Y-113855249D01*
X191185146Y-113845305D01*
X191248702Y-113874330D01*
X191255180Y-113880362D01*
X191606181Y-114231363D01*
X191639666Y-114292686D01*
X191642500Y-114319044D01*
X191642500Y-115020870D01*
X191642501Y-115020876D01*
X191648908Y-115080483D01*
X191699202Y-115215328D01*
X191699206Y-115215335D01*
X191785452Y-115330544D01*
X191785455Y-115330547D01*
X191900664Y-115416793D01*
X191900671Y-115416797D01*
X192035517Y-115467091D01*
X192035516Y-115467091D01*
X192042444Y-115467835D01*
X192095127Y-115473500D01*
X193390872Y-115473499D01*
X193450483Y-115467091D01*
X193585331Y-115416796D01*
X193700546Y-115330546D01*
X193786796Y-115215331D01*
X193837091Y-115080483D01*
X193843500Y-115020873D01*
X193843499Y-113725128D01*
X193837091Y-113665517D01*
X193835161Y-113660343D01*
X193786797Y-113530671D01*
X193786793Y-113530664D01*
X193700547Y-113415455D01*
X193700544Y-113415452D01*
X193585335Y-113329206D01*
X193585328Y-113329202D01*
X193450482Y-113278908D01*
X193450483Y-113278908D01*
X193390883Y-113272501D01*
X193390881Y-113272500D01*
X193390873Y-113272500D01*
X193390865Y-113272500D01*
X192689044Y-113272500D01*
X192622005Y-113252815D01*
X192601363Y-113236181D01*
X192118586Y-112753404D01*
X192085101Y-112692081D01*
X192090085Y-112622389D01*
X192131957Y-112566456D01*
X192182076Y-112544106D01*
X192235925Y-112533394D01*
X192300124Y-112520624D01*
X192460547Y-112454175D01*
X192545220Y-112397597D01*
X192563266Y-112391947D01*
X192579176Y-112381723D01*
X192610135Y-112377271D01*
X192611897Y-112376720D01*
X192614111Y-112376700D01*
X192726367Y-112376700D01*
X192793406Y-112396385D01*
X192839161Y-112449189D01*
X192845770Y-112473251D01*
X192847124Y-112472932D01*
X192848907Y-112480479D01*
X192899202Y-112615328D01*
X192899206Y-112615335D01*
X192985452Y-112730544D01*
X192985455Y-112730547D01*
X193100664Y-112816793D01*
X193100671Y-112816797D01*
X193235517Y-112867091D01*
X193235516Y-112867091D01*
X193242444Y-112867835D01*
X193295127Y-112873500D01*
X194590872Y-112873499D01*
X194650483Y-112867091D01*
X194785331Y-112816796D01*
X194900546Y-112730546D01*
X194959562Y-112651711D01*
X195792500Y-112651711D01*
X195792500Y-112894288D01*
X195818859Y-113094514D01*
X195824162Y-113134789D01*
X195835392Y-113176700D01*
X195886947Y-113369104D01*
X195979773Y-113593205D01*
X195979776Y-113593212D01*
X196101064Y-113803289D01*
X196101066Y-113803292D01*
X196101067Y-113803293D01*
X196248733Y-113995736D01*
X196248739Y-113995743D01*
X196420256Y-114167260D01*
X196420262Y-114167265D01*
X196612711Y-114314936D01*
X196822788Y-114436224D01*
X197046900Y-114529054D01*
X197281211Y-114591838D01*
X197461586Y-114615584D01*
X197521711Y-114623500D01*
X197521712Y-114623500D01*
X197764289Y-114623500D01*
X197812388Y-114617167D01*
X198004789Y-114591838D01*
X198239100Y-114529054D01*
X198463212Y-114436224D01*
X198673289Y-114314936D01*
X198865738Y-114167265D01*
X199037265Y-113995738D01*
X199184936Y-113803289D01*
X199306224Y-113593212D01*
X199399054Y-113369100D01*
X199461838Y-113134789D01*
X199493500Y-112894288D01*
X199493500Y-112651712D01*
X199461838Y-112411211D01*
X199399054Y-112176900D01*
X199397231Y-112172500D01*
X199363640Y-112091402D01*
X199306224Y-111952788D01*
X199184936Y-111742711D01*
X199106622Y-111640650D01*
X199037266Y-111550263D01*
X199037260Y-111550256D01*
X198865743Y-111378739D01*
X198865736Y-111378733D01*
X198673293Y-111231067D01*
X198673292Y-111231066D01*
X198673289Y-111231064D01*
X198489804Y-111125129D01*
X198463214Y-111109777D01*
X198463205Y-111109773D01*
X198239104Y-111016947D01*
X198004785Y-110954161D01*
X197764289Y-110922500D01*
X197764288Y-110922500D01*
X197521712Y-110922500D01*
X197521711Y-110922500D01*
X197281214Y-110954161D01*
X197046895Y-111016947D01*
X196822794Y-111109773D01*
X196822785Y-111109777D01*
X196612706Y-111231067D01*
X196420263Y-111378733D01*
X196420256Y-111378739D01*
X196248739Y-111550256D01*
X196248733Y-111550263D01*
X196101067Y-111742706D01*
X195979777Y-111952785D01*
X195979773Y-111952794D01*
X195886947Y-112176895D01*
X195824161Y-112411214D01*
X195792500Y-112651711D01*
X194959562Y-112651711D01*
X194986796Y-112615331D01*
X194986798Y-112615326D01*
X194990903Y-112604321D01*
X194990903Y-112604320D01*
X195037091Y-112480482D01*
X195037452Y-112477126D01*
X195043500Y-112420873D01*
X195043499Y-111125128D01*
X195037091Y-111065517D01*
X195020804Y-111021850D01*
X194986797Y-110930671D01*
X194986793Y-110930664D01*
X194900547Y-110815455D01*
X194900544Y-110815452D01*
X194785335Y-110729206D01*
X194785328Y-110729202D01*
X194650482Y-110678908D01*
X194650483Y-110678908D01*
X194590883Y-110672501D01*
X194590881Y-110672500D01*
X194590873Y-110672500D01*
X194590864Y-110672500D01*
X193295129Y-110672500D01*
X193295123Y-110672501D01*
X193235516Y-110678908D01*
X193100671Y-110729202D01*
X193100664Y-110729206D01*
X192985455Y-110815452D01*
X192985452Y-110815455D01*
X192907481Y-110919611D01*
X192903825Y-110922347D01*
X192901928Y-110926503D01*
X192876106Y-110943097D01*
X192851547Y-110961482D01*
X192845919Y-110962497D01*
X192843150Y-110964277D01*
X192808215Y-110969300D01*
X192614111Y-110969300D01*
X192547072Y-110949615D01*
X192545220Y-110948402D01*
X192460552Y-110891828D01*
X192460540Y-110891821D01*
X192300128Y-110825377D01*
X192300118Y-110825374D01*
X192129822Y-110791500D01*
X192129820Y-110791500D01*
X191956180Y-110791500D01*
X191956179Y-110791500D01*
X191922834Y-110798132D01*
X191853242Y-110791903D01*
X191798066Y-110749039D01*
X191774823Y-110683148D01*
X191781893Y-110634743D01*
X191824187Y-110516541D01*
X191869492Y-110335672D01*
X191896851Y-110151233D01*
X191906000Y-109965000D01*
X191896851Y-109778767D01*
X191869492Y-109594328D01*
X191824187Y-109413459D01*
X191802319Y-109352343D01*
X191761379Y-109237921D01*
X191761372Y-109237905D01*
X191761371Y-109237901D01*
X191681650Y-109069346D01*
X191677248Y-109062002D01*
X191585793Y-108909419D01*
X191585792Y-108909417D01*
X191476731Y-108762364D01*
X191452608Y-108696794D01*
X191467764Y-108628588D01*
X191517389Y-108579404D01*
X191576330Y-108564500D01*
X192487956Y-108564500D01*
X192554995Y-108584185D01*
X192575637Y-108600819D01*
X192806181Y-108831363D01*
X192839666Y-108892686D01*
X192842500Y-108919044D01*
X192842500Y-109620870D01*
X192842501Y-109620876D01*
X192848908Y-109680483D01*
X192899202Y-109815328D01*
X192899206Y-109815335D01*
X192985452Y-109930544D01*
X192985455Y-109930547D01*
X193100664Y-110016793D01*
X193100671Y-110016797D01*
X193235517Y-110067091D01*
X193235516Y-110067091D01*
X193242444Y-110067835D01*
X193295127Y-110073500D01*
X194590872Y-110073499D01*
X194650483Y-110067091D01*
X194785331Y-110016796D01*
X194900546Y-109930546D01*
X194986796Y-109815331D01*
X195037091Y-109680483D01*
X195043500Y-109620873D01*
X195043499Y-108325128D01*
X195037091Y-108265517D01*
X195027775Y-108240540D01*
X194986797Y-108130671D01*
X194986793Y-108130664D01*
X194900547Y-108015455D01*
X194900544Y-108015452D01*
X194785335Y-107929206D01*
X194785328Y-107929202D01*
X194650482Y-107878908D01*
X194650483Y-107878908D01*
X194590883Y-107872501D01*
X194590881Y-107872500D01*
X194590873Y-107872500D01*
X194590865Y-107872500D01*
X193889044Y-107872500D01*
X193859603Y-107863855D01*
X193829617Y-107857332D01*
X193824601Y-107853577D01*
X193822005Y-107852815D01*
X193801363Y-107836181D01*
X193643763Y-107678581D01*
X193610278Y-107617258D01*
X193615262Y-107547566D01*
X193638454Y-107511489D01*
X193637464Y-107510706D01*
X193641945Y-107505037D01*
X193732448Y-107358311D01*
X193732453Y-107358300D01*
X193786680Y-107194652D01*
X193796999Y-107093654D01*
X193797000Y-107093641D01*
X193797000Y-107057000D01*
X192883500Y-107057000D01*
X192816461Y-107037315D01*
X192770706Y-106984511D01*
X192759500Y-106933000D01*
X192759500Y-106807000D01*
X192633500Y-106807000D01*
X192566461Y-106787315D01*
X192520706Y-106734511D01*
X192509500Y-106683000D01*
X192509500Y-106557000D01*
X193009500Y-106557000D01*
X193796999Y-106557000D01*
X193796999Y-106520360D01*
X193796998Y-106520345D01*
X193786680Y-106419347D01*
X193732453Y-106255699D01*
X193732448Y-106255688D01*
X193641947Y-106108965D01*
X193641944Y-106108961D01*
X193520038Y-105987055D01*
X193520034Y-105987052D01*
X193373289Y-105896538D01*
X193326564Y-105844590D01*
X193315343Y-105775628D01*
X193343186Y-105711546D01*
X193373289Y-105685462D01*
X193520034Y-105594947D01*
X193520038Y-105594944D01*
X193641944Y-105473038D01*
X193641947Y-105473034D01*
X193732448Y-105326311D01*
X193732453Y-105326300D01*
X193786680Y-105162652D01*
X193796999Y-105061654D01*
X193797000Y-105061641D01*
X193797000Y-105025000D01*
X193009500Y-105025000D01*
X193009500Y-106557000D01*
X192509500Y-106557000D01*
X192509500Y-104525000D01*
X193009500Y-104525000D01*
X193796999Y-104525000D01*
X193796999Y-104488360D01*
X193796998Y-104488345D01*
X193786680Y-104387347D01*
X193732453Y-104223699D01*
X193732448Y-104223688D01*
X193641947Y-104076965D01*
X193641944Y-104076961D01*
X193520038Y-103955055D01*
X193520034Y-103955052D01*
X193373311Y-103864551D01*
X193373300Y-103864546D01*
X193209652Y-103810319D01*
X193108654Y-103800000D01*
X193009500Y-103800000D01*
X193009500Y-104525000D01*
X192509500Y-104525000D01*
X192509500Y-103799999D01*
X192410360Y-103800000D01*
X192410344Y-103800001D01*
X192309347Y-103810319D01*
X192145699Y-103864546D01*
X192145688Y-103864551D01*
X191998965Y-103955052D01*
X191985032Y-103968985D01*
X191923708Y-104002468D01*
X191854016Y-103997482D01*
X191809672Y-103968982D01*
X191795351Y-103954661D01*
X191795350Y-103954660D01*
X191656775Y-103869186D01*
X191648518Y-103864093D01*
X191648513Y-103864091D01*
X191624129Y-103856011D01*
X191484753Y-103809826D01*
X191484751Y-103809825D01*
X191383678Y-103799500D01*
X190685330Y-103799500D01*
X190685312Y-103799501D01*
X190584247Y-103809825D01*
X190420484Y-103864092D01*
X190420481Y-103864093D01*
X190273648Y-103954661D01*
X190172583Y-104055725D01*
X190164638Y-104060063D01*
X190159213Y-104067310D01*
X190134452Y-104076545D01*
X190111260Y-104089209D01*
X190102231Y-104088563D01*
X190093749Y-104091727D01*
X190067925Y-104086109D01*
X190041568Y-104084224D01*
X190032515Y-104078406D01*
X190025476Y-104076875D01*
X189997222Y-104055724D01*
X189981124Y-104039626D01*
X189947639Y-103978303D01*
X189952623Y-103908611D01*
X189965697Y-103883064D01*
X190024175Y-103795547D01*
X190090624Y-103635124D01*
X190117714Y-103498937D01*
X190124500Y-103464822D01*
X190124500Y-103291177D01*
X190090625Y-103120881D01*
X190090624Y-103120880D01*
X190090624Y-103120876D01*
X190090519Y-103120622D01*
X190024178Y-102960459D01*
X190024171Y-102960446D01*
X189927706Y-102816077D01*
X189927703Y-102816073D01*
X189804926Y-102693296D01*
X189804922Y-102693293D01*
X189660553Y-102596828D01*
X189660540Y-102596821D01*
X189500128Y-102530377D01*
X189500118Y-102530374D01*
X189329822Y-102496500D01*
X189329820Y-102496500D01*
X189156180Y-102496500D01*
X189156178Y-102496500D01*
X188985881Y-102530374D01*
X188985871Y-102530377D01*
X188825454Y-102596823D01*
X188814068Y-102604431D01*
X188747389Y-102625304D01*
X188680010Y-102606815D01*
X188657503Y-102589005D01*
X188451375Y-102382877D01*
X188417890Y-102321554D01*
X188422874Y-102251862D01*
X188464746Y-102195929D01*
X188470134Y-102192115D01*
X188569523Y-102125706D01*
X188692306Y-102002923D01*
X188788775Y-101858547D01*
X188855224Y-101698124D01*
X188873020Y-101608658D01*
X188889100Y-101527822D01*
X188889100Y-101354177D01*
X188855225Y-101183881D01*
X188855224Y-101183880D01*
X188855224Y-101183876D01*
X188832932Y-101130057D01*
X188788778Y-101023459D01*
X188788771Y-101023446D01*
X188692306Y-100879077D01*
X188692303Y-100879073D01*
X188569526Y-100756296D01*
X188569522Y-100756293D01*
X188425153Y-100659828D01*
X188425140Y-100659821D01*
X188264728Y-100593377D01*
X188264718Y-100593374D01*
X188094422Y-100559500D01*
X188094420Y-100559500D01*
X188051100Y-100559500D01*
X187984061Y-100539815D01*
X187938306Y-100487011D01*
X187927100Y-100435500D01*
X187927100Y-99405100D01*
X187946785Y-99338061D01*
X187999589Y-99292306D01*
X188051100Y-99281100D01*
X188134732Y-99281100D01*
X188552900Y-99281100D01*
X188561585Y-99283650D01*
X188570547Y-99282362D01*
X188594587Y-99293340D01*
X188619939Y-99300785D01*
X188625866Y-99307625D01*
X188634103Y-99311387D01*
X188648392Y-99333621D01*
X188665694Y-99353589D01*
X188667981Y-99364103D01*
X188671877Y-99370165D01*
X188676900Y-99405100D01*
X188676900Y-99441670D01*
X188676892Y-99441806D01*
X188676894Y-99470800D01*
X188676870Y-99470881D01*
X188676883Y-99605125D01*
X188676883Y-99605127D01*
X188709257Y-99767805D01*
X188709259Y-99767812D01*
X188772745Y-99921045D01*
X188772746Y-99921048D01*
X188864909Y-100058961D01*
X188982207Y-100176247D01*
X189001117Y-100188881D01*
X189120128Y-100268395D01*
X189273377Y-100331868D01*
X189436063Y-100364226D01*
X189519000Y-100364225D01*
X189592108Y-100364225D01*
X189639000Y-100364225D01*
X189718268Y-100364225D01*
X189718348Y-100364202D01*
X189721919Y-100364202D01*
X189721932Y-100364201D01*
X189721932Y-100364200D01*
X189721934Y-100364201D01*
X189884616Y-100331844D01*
X189884631Y-100331837D01*
X189890450Y-100330074D01*
X189890811Y-100331265D01*
X189900638Y-100330207D01*
X189915645Y-100323575D01*
X189934660Y-100326546D01*
X189953796Y-100324488D01*
X189969114Y-100331931D01*
X189984677Y-100334364D01*
X190008261Y-100350953D01*
X190014133Y-100353807D01*
X190016868Y-100356236D01*
X190101344Y-100440712D01*
X190136164Y-100462189D01*
X190144227Y-100469350D01*
X190157265Y-100490193D01*
X190173705Y-100508471D01*
X190175465Y-100519291D01*
X190181280Y-100528586D01*
X190180979Y-100553168D01*
X190184928Y-100577433D01*
X190180559Y-100587488D01*
X190180425Y-100598450D01*
X190166882Y-100618966D01*
X190157085Y-100641516D01*
X190149566Y-100649744D01*
X190024659Y-100774651D01*
X189934093Y-100921481D01*
X189934091Y-100921486D01*
X189928195Y-100939280D01*
X189879826Y-101085247D01*
X189879826Y-101085248D01*
X189879825Y-101085248D01*
X189869500Y-101186315D01*
X189869500Y-101759669D01*
X189869501Y-101759687D01*
X189879825Y-101860752D01*
X189906444Y-101941081D01*
X189934020Y-102024300D01*
X189934092Y-102024515D01*
X189934093Y-102024518D01*
X189946511Y-102044650D01*
X190024660Y-102171350D01*
X190146650Y-102293340D01*
X190293484Y-102383908D01*
X190457247Y-102438174D01*
X190558323Y-102448500D01*
X191256676Y-102448499D01*
X191256684Y-102448498D01*
X191256687Y-102448498D01*
X191312030Y-102442844D01*
X191357753Y-102438174D01*
X191521516Y-102383908D01*
X191668350Y-102293340D01*
X191682671Y-102279018D01*
X191743989Y-102245533D01*
X191813681Y-102250514D01*
X191858034Y-102279017D01*
X191871961Y-102292944D01*
X191871965Y-102292947D01*
X192018688Y-102383448D01*
X192018699Y-102383453D01*
X192182347Y-102437680D01*
X192283351Y-102447999D01*
X192882500Y-102447999D01*
X192981640Y-102447999D01*
X192981654Y-102447998D01*
X193082652Y-102437680D01*
X193246300Y-102383453D01*
X193246311Y-102383448D01*
X193393034Y-102292947D01*
X193393038Y-102292944D01*
X193514944Y-102171038D01*
X193514947Y-102171034D01*
X193605448Y-102024311D01*
X193605453Y-102024300D01*
X193659680Y-101860652D01*
X193669999Y-101759654D01*
X193670000Y-101759641D01*
X193670000Y-101723000D01*
X192882500Y-101723000D01*
X192882500Y-102447999D01*
X192283351Y-102447999D01*
X192382500Y-102447998D01*
X192382500Y-100708197D01*
X192372834Y-100690496D01*
X192370000Y-100664138D01*
X192370000Y-99648000D01*
X192870000Y-99648000D01*
X192870000Y-100387802D01*
X192879666Y-100405504D01*
X192882500Y-100431862D01*
X192882500Y-101223000D01*
X193669999Y-101223000D01*
X193669999Y-101186360D01*
X193669998Y-101186345D01*
X193659680Y-101085347D01*
X193605453Y-100921699D01*
X193605448Y-100921688D01*
X193514947Y-100774965D01*
X193514944Y-100774961D01*
X193389634Y-100649651D01*
X193356149Y-100588328D01*
X193361133Y-100518636D01*
X193403005Y-100462703D01*
X193412219Y-100456431D01*
X193438343Y-100440317D01*
X193562315Y-100316345D01*
X193654361Y-100167115D01*
X193657413Y-100160572D01*
X193659199Y-100161404D01*
X193693306Y-100112124D01*
X193757816Y-100085288D01*
X193826594Y-100097589D01*
X193836355Y-100103018D01*
X193885694Y-100133451D01*
X193885699Y-100133453D01*
X194049347Y-100187680D01*
X194150352Y-100197999D01*
X194187000Y-100197999D01*
X194687000Y-100197999D01*
X194723640Y-100197999D01*
X194723654Y-100197998D01*
X194824652Y-100187680D01*
X194988300Y-100133453D01*
X194988311Y-100133448D01*
X195135034Y-100042947D01*
X195135038Y-100042944D01*
X195256944Y-99921038D01*
X195256947Y-99921034D01*
X195347448Y-99774311D01*
X195347453Y-99774300D01*
X195401680Y-99610652D01*
X195411999Y-99509654D01*
X195412000Y-99509641D01*
X195412000Y-99410500D01*
X194687000Y-99410500D01*
X194687000Y-100197999D01*
X194187000Y-100197999D01*
X194187000Y-99410500D01*
X193850000Y-99410500D01*
X193850000Y-99524000D01*
X193830315Y-99591039D01*
X193777511Y-99636794D01*
X193726000Y-99648000D01*
X192870000Y-99648000D01*
X192370000Y-99648000D01*
X192370000Y-99522000D01*
X192389685Y-99454961D01*
X192442489Y-99409206D01*
X192494000Y-99398000D01*
X192620000Y-99398000D01*
X192620000Y-99272000D01*
X192639685Y-99204961D01*
X192692489Y-99159206D01*
X192744000Y-99148000D01*
X193332000Y-99148000D01*
X193332000Y-99034500D01*
X193351685Y-98967461D01*
X193404489Y-98921706D01*
X193456000Y-98910500D01*
X195411999Y-98910500D01*
X195411999Y-98811360D01*
X195411998Y-98811345D01*
X195401680Y-98710347D01*
X195347453Y-98546699D01*
X195347448Y-98546688D01*
X195256947Y-98399965D01*
X195256944Y-98399961D01*
X195243017Y-98386034D01*
X195209532Y-98324711D01*
X195214516Y-98255019D01*
X195243017Y-98210672D01*
X195257340Y-98196350D01*
X195347908Y-98049516D01*
X195402174Y-97885753D01*
X195412500Y-97784677D01*
X195412499Y-97086324D01*
X195402174Y-96985247D01*
X195347908Y-96821484D01*
X195257340Y-96674650D01*
X195135350Y-96552660D01*
X195033344Y-96489742D01*
X194988518Y-96462093D01*
X194988513Y-96462091D01*
X194919674Y-96439280D01*
X194824753Y-96407826D01*
X194824751Y-96407825D01*
X194723678Y-96397500D01*
X194150330Y-96397500D01*
X194150312Y-96397501D01*
X194049247Y-96407825D01*
X193885484Y-96462092D01*
X193885477Y-96462096D01*
X193836629Y-96492225D01*
X193769236Y-96510665D01*
X193702573Y-96489742D01*
X193657804Y-96436099D01*
X193655651Y-96430463D01*
X193654815Y-96428670D01*
X193654814Y-96428666D01*
X193562712Y-96279344D01*
X193438656Y-96155288D01*
X193289334Y-96063186D01*
X193122797Y-96008001D01*
X193122795Y-96008000D01*
X193020010Y-95997500D01*
X192219998Y-95997500D01*
X192219980Y-95997501D01*
X192117203Y-96008000D01*
X192117200Y-96008001D01*
X191950668Y-96063185D01*
X191950659Y-96063189D01*
X191834619Y-96134763D01*
X191767226Y-96153203D01*
X191704426Y-96134763D01*
X191589124Y-96063643D01*
X191589119Y-96063641D01*
X191422697Y-96008494D01*
X191422690Y-96008493D01*
X191319986Y-95998000D01*
X191170000Y-95998000D01*
X191170000Y-97074000D01*
X191150315Y-97141039D01*
X191097511Y-97186794D01*
X191046000Y-97198000D01*
X190920000Y-97198000D01*
X190920000Y-97324000D01*
X190900315Y-97391039D01*
X190847511Y-97436794D01*
X190796000Y-97448000D01*
X189820001Y-97448000D01*
X189820001Y-97474500D01*
X189800316Y-97541539D01*
X189747512Y-97587294D01*
X189696001Y-97598500D01*
X188872117Y-97598500D01*
X188857958Y-97594342D01*
X188843219Y-97595086D01*
X188825107Y-97584696D01*
X188805078Y-97578815D01*
X188795414Y-97567662D01*
X188782613Y-97560319D01*
X188772994Y-97541788D01*
X188759323Y-97526011D01*
X188757222Y-97511403D01*
X188750424Y-97498306D01*
X188752350Y-97477518D01*
X188749379Y-97456853D01*
X188755621Y-97442219D01*
X188756871Y-97428735D01*
X188769685Y-97409248D01*
X188774433Y-97398120D01*
X188779086Y-97392168D01*
X188822800Y-97348455D01*
X188845352Y-97309393D01*
X188902067Y-97211159D01*
X188943100Y-97058025D01*
X188943100Y-96698013D01*
X189820000Y-96698013D01*
X189820000Y-96948000D01*
X190670000Y-96948000D01*
X190670000Y-95998000D01*
X190520027Y-95998000D01*
X190520012Y-95998001D01*
X190417302Y-96008494D01*
X190250880Y-96063641D01*
X190250875Y-96063643D01*
X190101654Y-96155684D01*
X189977684Y-96279654D01*
X189885643Y-96428875D01*
X189885641Y-96428880D01*
X189830494Y-96595302D01*
X189830493Y-96595309D01*
X189820000Y-96698013D01*
X188943100Y-96698013D01*
X188943100Y-96619033D01*
X188962785Y-96551994D01*
X188998207Y-96515933D01*
X189131595Y-96426806D01*
X189254378Y-96304023D01*
X189350847Y-96159647D01*
X189417296Y-95999224D01*
X189441599Y-95877047D01*
X189451172Y-95828922D01*
X189451172Y-95804688D01*
X189459816Y-95775247D01*
X189466340Y-95745261D01*
X189470094Y-95740245D01*
X189470857Y-95737649D01*
X189487491Y-95717007D01*
X189570079Y-95634419D01*
X189631402Y-95600934D01*
X189657760Y-95598100D01*
X191722266Y-95598100D01*
X191722268Y-95598100D01*
X191875402Y-95557067D01*
X192012698Y-95477800D01*
X192124800Y-95365698D01*
X192335679Y-95154817D01*
X192397002Y-95121333D01*
X192423360Y-95118499D01*
X192818670Y-95118499D01*
X192818676Y-95118499D01*
X192919753Y-95108174D01*
X193083516Y-95053908D01*
X193230350Y-94963340D01*
X193352340Y-94841350D01*
X193442908Y-94694516D01*
X193497174Y-94530753D01*
X193507500Y-94429677D01*
X193507499Y-93731324D01*
X193503616Y-93693315D01*
X193497174Y-93630247D01*
X193477551Y-93571029D01*
X193442908Y-93466484D01*
X193352340Y-93319650D01*
X193338017Y-93305327D01*
X193304532Y-93244004D01*
X193309516Y-93174312D01*
X193338021Y-93129960D01*
X193351947Y-93116035D01*
X193442448Y-92969311D01*
X193442453Y-92969300D01*
X193496680Y-92805652D01*
X193506999Y-92704654D01*
X193507000Y-92704641D01*
X193507000Y-92605500D01*
X191557000Y-92605500D01*
X191540180Y-92622320D01*
X191478857Y-92655804D01*
X191409165Y-92650819D01*
X191364819Y-92622319D01*
X191348000Y-92605500D01*
X189398000Y-92605500D01*
X189381180Y-92622320D01*
X189319857Y-92655804D01*
X189250165Y-92650819D01*
X189205819Y-92622319D01*
X189189000Y-92605500D01*
X188338000Y-92605500D01*
X188270961Y-92585815D01*
X188225206Y-92533011D01*
X188214000Y-92481500D01*
X188214000Y-92355500D01*
X188088000Y-92355500D01*
X188020961Y-92335815D01*
X187975206Y-92283011D01*
X187964000Y-92231500D01*
X187964000Y-92105500D01*
X188464000Y-92105500D01*
X189188998Y-92105500D01*
X189205817Y-92088681D01*
X189267140Y-92055195D01*
X189336831Y-92060179D01*
X189381180Y-92088680D01*
X189398000Y-92105500D01*
X190123000Y-92105500D01*
X190123000Y-91318000D01*
X190086361Y-91318000D01*
X190086343Y-91318001D01*
X189985347Y-91328319D01*
X189821699Y-91382546D01*
X189821688Y-91382551D01*
X189674965Y-91473052D01*
X189674961Y-91473055D01*
X189553055Y-91594961D01*
X189553052Y-91594965D01*
X189462551Y-91741688D01*
X189462546Y-91741699D01*
X189411206Y-91896635D01*
X189371433Y-91954080D01*
X189306918Y-91980903D01*
X189238142Y-91968588D01*
X189186942Y-91921045D01*
X189175794Y-91896635D01*
X189124453Y-91741699D01*
X189124448Y-91741688D01*
X189033947Y-91594965D01*
X189033944Y-91594961D01*
X188912038Y-91473055D01*
X188912034Y-91473052D01*
X188765311Y-91382551D01*
X188765300Y-91382546D01*
X188601652Y-91328319D01*
X188500654Y-91318000D01*
X188464000Y-91318000D01*
X188464000Y-92105500D01*
X187964000Y-92105500D01*
X187964000Y-91318000D01*
X187927361Y-91318000D01*
X187927343Y-91318001D01*
X187826346Y-91328319D01*
X187662703Y-91382543D01*
X187656410Y-91385479D01*
X187587333Y-91395973D01*
X187523548Y-91367455D01*
X187489441Y-91320550D01*
X187471178Y-91276459D01*
X187471171Y-91276446D01*
X187383890Y-91145822D01*
X190507499Y-91145822D01*
X190541374Y-91316118D01*
X190541377Y-91316128D01*
X190607823Y-91476545D01*
X190608357Y-91477543D01*
X190608540Y-91478276D01*
X190610156Y-91482176D01*
X190609577Y-91482415D01*
X190623000Y-91535998D01*
X190623000Y-92105500D01*
X191347998Y-92105500D01*
X191364817Y-92088681D01*
X191426140Y-92055195D01*
X191495831Y-92060179D01*
X191540180Y-92088680D01*
X191557000Y-92105500D01*
X192282000Y-92105500D01*
X192782000Y-92105500D01*
X193506999Y-92105500D01*
X193506999Y-92006360D01*
X193506998Y-92006345D01*
X193496680Y-91905347D01*
X193442453Y-91741699D01*
X193442448Y-91741688D01*
X193351947Y-91594965D01*
X193351944Y-91594961D01*
X193230038Y-91473055D01*
X193230034Y-91473052D01*
X193083311Y-91382551D01*
X193083300Y-91382546D01*
X192919652Y-91328319D01*
X192818654Y-91318000D01*
X192782000Y-91318000D01*
X192782000Y-92105500D01*
X192282000Y-92105500D01*
X192282000Y-91310761D01*
X192257223Y-91265387D01*
X192256772Y-91214835D01*
X192270500Y-91145822D01*
X192270500Y-90972177D01*
X192236625Y-90801881D01*
X192236624Y-90801880D01*
X192236624Y-90801876D01*
X192231396Y-90789254D01*
X192170178Y-90641459D01*
X192170171Y-90641446D01*
X192073706Y-90497077D01*
X192073703Y-90497073D01*
X191950926Y-90374296D01*
X191950922Y-90374293D01*
X191806553Y-90277828D01*
X191806540Y-90277821D01*
X191646128Y-90211377D01*
X191646118Y-90211374D01*
X191475822Y-90177500D01*
X191475820Y-90177500D01*
X191302180Y-90177500D01*
X191302178Y-90177500D01*
X191131881Y-90211374D01*
X191131871Y-90211377D01*
X190971459Y-90277821D01*
X190971446Y-90277828D01*
X190827077Y-90374293D01*
X190827073Y-90374296D01*
X190704296Y-90497073D01*
X190704293Y-90497077D01*
X190607828Y-90641446D01*
X190607821Y-90641459D01*
X190541377Y-90801871D01*
X190541374Y-90801881D01*
X190507500Y-90972177D01*
X190507500Y-90972180D01*
X190507500Y-91145820D01*
X190507500Y-91145822D01*
X190507499Y-91145822D01*
X187383890Y-91145822D01*
X187374706Y-91132077D01*
X187374703Y-91132073D01*
X187251926Y-91009296D01*
X187251922Y-91009293D01*
X187107553Y-90912828D01*
X187107540Y-90912821D01*
X186947128Y-90846377D01*
X186947118Y-90846374D01*
X186776822Y-90812500D01*
X186776820Y-90812500D01*
X186603180Y-90812500D01*
X186603178Y-90812500D01*
X186432881Y-90846374D01*
X186432871Y-90846377D01*
X186272459Y-90912821D01*
X186272446Y-90912828D01*
X186128077Y-91009293D01*
X186128073Y-91009296D01*
X186005296Y-91132073D01*
X186005293Y-91132077D01*
X185908828Y-91276446D01*
X185908821Y-91276459D01*
X185842377Y-91436871D01*
X185842374Y-91436881D01*
X185808500Y-91607177D01*
X185808500Y-91777500D01*
X185788815Y-91844539D01*
X185736011Y-91890294D01*
X185684500Y-91901500D01*
X185220272Y-91901500D01*
X185107764Y-91916313D01*
X185107757Y-91916315D01*
X185104235Y-91917774D01*
X185101025Y-91918118D01*
X185099913Y-91918417D01*
X185099866Y-91918243D01*
X185034766Y-91925240D01*
X184972288Y-91893962D01*
X184936638Y-91833871D01*
X184939135Y-91764046D01*
X184942227Y-91755760D01*
X184943687Y-91752236D01*
X184958500Y-91639720D01*
X184958500Y-90667500D01*
X184978185Y-90600461D01*
X185030989Y-90554706D01*
X185082500Y-90543500D01*
X185125822Y-90543500D01*
X185242890Y-90520213D01*
X185296124Y-90509624D01*
X185456547Y-90443175D01*
X185600923Y-90346706D01*
X185723706Y-90223923D01*
X185820175Y-90079547D01*
X185886624Y-89919124D01*
X185901262Y-89845533D01*
X185920500Y-89748822D01*
X185920500Y-89575177D01*
X185886625Y-89404881D01*
X185886624Y-89404880D01*
X185886624Y-89404876D01*
X185886622Y-89404871D01*
X185820178Y-89244459D01*
X185820171Y-89244446D01*
X185723706Y-89100077D01*
X185723703Y-89100073D01*
X185600926Y-88977296D01*
X185600922Y-88977293D01*
X185456553Y-88880828D01*
X185456540Y-88880821D01*
X185296128Y-88814377D01*
X185296118Y-88814374D01*
X185125822Y-88780500D01*
X185125820Y-88780500D01*
X184952180Y-88780500D01*
X184952178Y-88780500D01*
X184781881Y-88814374D01*
X184781871Y-88814377D01*
X184621459Y-88880821D01*
X184621446Y-88880828D01*
X184477077Y-88977293D01*
X184477073Y-88977296D01*
X184374158Y-89080212D01*
X184371050Y-89081908D01*
X184369184Y-89084919D01*
X184340604Y-89098533D01*
X184312835Y-89113697D01*
X184309304Y-89113444D01*
X184306106Y-89114968D01*
X184274710Y-89110970D01*
X184243143Y-89108713D01*
X184239272Y-89106458D01*
X184236796Y-89106143D01*
X184225516Y-89098446D01*
X184206800Y-89087544D01*
X184202636Y-89084052D01*
X184095058Y-88976474D01*
X184037972Y-88943516D01*
X184028593Y-88938101D01*
X184028592Y-88938100D01*
X183957764Y-88897208D01*
X183957763Y-88897207D01*
X183896610Y-88880821D01*
X183804628Y-88856174D01*
X183804626Y-88856174D01*
X183723489Y-88856174D01*
X183656450Y-88836489D01*
X183635812Y-88819859D01*
X183574763Y-88758810D01*
X183574762Y-88758809D01*
X183574761Y-88758808D01*
X183427281Y-88660264D01*
X183427268Y-88660257D01*
X183263395Y-88592380D01*
X183263386Y-88592377D01*
X183089422Y-88557774D01*
X183089419Y-88557774D01*
X183003088Y-88557774D01*
X182936049Y-88538089D01*
X182915407Y-88521455D01*
X182698989Y-88305036D01*
X182668964Y-88256359D01*
X182657408Y-88221484D01*
X182566840Y-88074650D01*
X182444850Y-87952660D01*
X182353629Y-87896395D01*
X182298018Y-87862093D01*
X182298013Y-87862091D01*
X182296569Y-87861612D01*
X182134253Y-87807826D01*
X182134251Y-87807825D01*
X182033178Y-87797500D01*
X181334830Y-87797500D01*
X181334812Y-87797501D01*
X181233747Y-87807825D01*
X181069984Y-87862092D01*
X181069981Y-87862093D01*
X180923148Y-87952661D01*
X180908825Y-87966984D01*
X180847501Y-88000468D01*
X180777809Y-87995482D01*
X180733465Y-87966982D01*
X180719538Y-87953055D01*
X180719534Y-87953052D01*
X180572811Y-87862551D01*
X180572800Y-87862546D01*
X180409152Y-87808319D01*
X180308154Y-87798000D01*
X180209000Y-87798000D01*
X180209000Y-88649000D01*
X180189315Y-88716039D01*
X180136511Y-88761794D01*
X180085000Y-88773000D01*
X179959000Y-88773000D01*
X179959000Y-88899000D01*
X179939315Y-88966039D01*
X179886511Y-89011794D01*
X179835000Y-89023000D01*
X178921501Y-89023000D01*
X178921501Y-89059654D01*
X178931819Y-89160652D01*
X178986046Y-89324300D01*
X178986048Y-89324305D01*
X179024968Y-89387403D01*
X179043408Y-89454795D01*
X179022486Y-89521459D01*
X178968844Y-89566229D01*
X178919429Y-89576500D01*
X178695272Y-89576500D01*
X178608393Y-89587938D01*
X178582764Y-89591313D01*
X178582762Y-89591313D01*
X178574708Y-89592374D01*
X178574316Y-89589399D01*
X178541684Y-89589399D01*
X178541292Y-89592374D01*
X178533237Y-89591313D01*
X178533236Y-89591313D01*
X178504271Y-89587499D01*
X178420727Y-89576500D01*
X178420720Y-89576500D01*
X178195280Y-89576500D01*
X178195272Y-89576500D01*
X178108393Y-89587938D01*
X178082764Y-89591313D01*
X178082762Y-89591313D01*
X178074708Y-89592374D01*
X178074316Y-89589399D01*
X178041684Y-89589399D01*
X178041292Y-89592374D01*
X178033237Y-89591313D01*
X178033236Y-89591313D01*
X178004271Y-89587499D01*
X177920727Y-89576500D01*
X177920720Y-89576500D01*
X177695280Y-89576500D01*
X177695272Y-89576500D01*
X177576878Y-89592088D01*
X177576751Y-89592148D01*
X177576519Y-89592135D01*
X177574708Y-89592374D01*
X177574663Y-89592034D01*
X177560452Y-89591263D01*
X177541458Y-89592466D01*
X177533401Y-89591381D01*
X177533236Y-89591313D01*
X177517557Y-89589248D01*
X177485757Y-89575070D01*
X177454017Y-89561029D01*
X177453913Y-89560872D01*
X177453744Y-89560797D01*
X177434692Y-89531731D01*
X177415547Y-89502704D01*
X177415511Y-89502467D01*
X177415442Y-89502361D01*
X177415438Y-89501980D01*
X177410100Y-89466357D01*
X177410100Y-88486345D01*
X178921500Y-88486345D01*
X178921500Y-88523000D01*
X179709000Y-88523000D01*
X179709000Y-87797999D01*
X179609860Y-87798000D01*
X179609844Y-87798001D01*
X179508847Y-87808319D01*
X179345199Y-87862546D01*
X179345188Y-87862551D01*
X179198465Y-87953052D01*
X179198461Y-87953055D01*
X179076555Y-88074961D01*
X179076552Y-88074965D01*
X178986051Y-88221688D01*
X178986046Y-88221699D01*
X178931819Y-88385347D01*
X178921500Y-88486345D01*
X177410100Y-88486345D01*
X177410100Y-88059233D01*
X177410100Y-88059232D01*
X177369067Y-87906098D01*
X177289800Y-87768802D01*
X177177698Y-87656700D01*
X176772709Y-87251711D01*
X195792500Y-87251711D01*
X195792500Y-87494288D01*
X195820542Y-87707296D01*
X195824162Y-87734789D01*
X195849695Y-87830077D01*
X195886947Y-87969104D01*
X195966885Y-88162091D01*
X195979776Y-88193212D01*
X196101064Y-88403289D01*
X196101066Y-88403292D01*
X196101067Y-88403293D01*
X196248733Y-88595736D01*
X196248739Y-88595743D01*
X196420256Y-88767260D01*
X196420263Y-88767266D01*
X196475356Y-88809540D01*
X196612711Y-88914936D01*
X196822788Y-89036224D01*
X197046900Y-89129054D01*
X197281211Y-89191838D01*
X197444485Y-89213333D01*
X197521711Y-89223500D01*
X197521712Y-89223500D01*
X197764289Y-89223500D01*
X197841515Y-89213333D01*
X198004789Y-89191838D01*
X198239100Y-89129054D01*
X198463212Y-89036224D01*
X198673289Y-88914936D01*
X198865738Y-88767265D01*
X199037265Y-88595738D01*
X199184936Y-88403289D01*
X199306224Y-88193212D01*
X199399054Y-87969100D01*
X199461838Y-87734789D01*
X199493500Y-87494288D01*
X199493500Y-87251712D01*
X199461838Y-87011211D01*
X199399054Y-86776900D01*
X199306224Y-86552788D01*
X199184936Y-86342711D01*
X199103149Y-86236124D01*
X199037266Y-86150263D01*
X199037260Y-86150256D01*
X198865743Y-85978739D01*
X198865736Y-85978733D01*
X198673293Y-85831067D01*
X198673292Y-85831066D01*
X198673289Y-85831064D01*
X198501661Y-85731974D01*
X198463214Y-85709777D01*
X198463205Y-85709773D01*
X198239104Y-85616947D01*
X198121944Y-85585554D01*
X198004789Y-85554162D01*
X198004788Y-85554161D01*
X198004785Y-85554161D01*
X197764289Y-85522500D01*
X197764288Y-85522500D01*
X197521712Y-85522500D01*
X197521711Y-85522500D01*
X197281214Y-85554161D01*
X197046895Y-85616947D01*
X196822794Y-85709773D01*
X196822785Y-85709777D01*
X196612706Y-85831067D01*
X196420263Y-85978733D01*
X196420256Y-85978739D01*
X196248739Y-86150256D01*
X196248733Y-86150263D01*
X196101067Y-86342706D01*
X195979777Y-86552785D01*
X195979773Y-86552794D01*
X195886947Y-86776895D01*
X195824161Y-87011214D01*
X195792500Y-87251711D01*
X176772709Y-87251711D01*
X175672818Y-86151820D01*
X175639333Y-86090497D01*
X175636499Y-86064139D01*
X175636499Y-85692330D01*
X175636498Y-85692313D01*
X175626174Y-85591247D01*
X175608103Y-85536714D01*
X175571908Y-85427484D01*
X175481340Y-85280650D01*
X175359350Y-85158660D01*
X175212516Y-85068092D01*
X175157381Y-85049822D01*
X186697499Y-85049822D01*
X186731374Y-85220118D01*
X186731377Y-85220128D01*
X186797821Y-85380540D01*
X186797828Y-85380553D01*
X186854661Y-85465609D01*
X186875539Y-85532287D01*
X186857054Y-85599667D01*
X186854661Y-85603391D01*
X186797828Y-85688446D01*
X186797821Y-85688459D01*
X186731377Y-85848871D01*
X186731374Y-85848881D01*
X186697500Y-86019177D01*
X186697500Y-86019180D01*
X186697500Y-86192820D01*
X186697500Y-86192822D01*
X186697499Y-86192822D01*
X186731374Y-86363118D01*
X186731377Y-86363128D01*
X186797821Y-86523540D01*
X186797828Y-86523553D01*
X186894293Y-86667922D01*
X186894296Y-86667926D01*
X187017073Y-86790703D01*
X187017077Y-86790706D01*
X187161446Y-86887171D01*
X187161459Y-86887178D01*
X187321871Y-86953622D01*
X187321876Y-86953624D01*
X187321880Y-86953624D01*
X187321881Y-86953625D01*
X187492177Y-86987500D01*
X187492180Y-86987500D01*
X187665822Y-86987500D01*
X187780394Y-86964709D01*
X187836124Y-86953624D01*
X187989949Y-86889908D01*
X187996540Y-86887178D01*
X187996540Y-86887177D01*
X187996547Y-86887175D01*
X188140923Y-86790706D01*
X188263706Y-86667923D01*
X188360175Y-86523547D01*
X188367370Y-86506178D01*
X188416939Y-86386506D01*
X188460779Y-86332102D01*
X188527074Y-86310037D01*
X188594773Y-86327316D01*
X188642384Y-86378453D01*
X188646061Y-86386506D01*
X188702821Y-86523540D01*
X188702828Y-86523553D01*
X188799293Y-86667922D01*
X188799296Y-86667926D01*
X188922073Y-86790703D01*
X188922077Y-86790706D01*
X189066446Y-86887171D01*
X189066459Y-86887178D01*
X189226871Y-86953622D01*
X189226876Y-86953624D01*
X189226880Y-86953624D01*
X189226881Y-86953625D01*
X189397177Y-86987500D01*
X189397180Y-86987500D01*
X189570822Y-86987500D01*
X189685394Y-86964709D01*
X189741124Y-86953624D01*
X189894949Y-86889908D01*
X189901540Y-86887178D01*
X189901540Y-86887177D01*
X189901547Y-86887175D01*
X190045923Y-86790706D01*
X190168706Y-86667923D01*
X190265175Y-86523547D01*
X190331624Y-86363124D01*
X190346782Y-86286922D01*
X190365500Y-86192822D01*
X190365500Y-86019177D01*
X190331625Y-85848881D01*
X190331624Y-85848880D01*
X190331624Y-85848876D01*
X190324246Y-85831064D01*
X190265178Y-85688459D01*
X190265174Y-85688452D01*
X190265170Y-85688446D01*
X190208337Y-85603389D01*
X190187460Y-85536714D01*
X190205944Y-85469334D01*
X190208312Y-85465648D01*
X190265175Y-85380547D01*
X190331624Y-85220124D01*
X190342709Y-85164394D01*
X190365500Y-85049822D01*
X190365500Y-84876177D01*
X190331625Y-84705881D01*
X190331624Y-84705880D01*
X190331624Y-84705876D01*
X190325274Y-84690546D01*
X190265178Y-84545459D01*
X190265171Y-84545446D01*
X190168706Y-84401077D01*
X190168703Y-84401073D01*
X190045926Y-84278296D01*
X190045922Y-84278293D01*
X189901553Y-84181828D01*
X189901540Y-84181821D01*
X189741128Y-84115377D01*
X189741118Y-84115374D01*
X189570822Y-84081500D01*
X189570820Y-84081500D01*
X189397180Y-84081500D01*
X189397178Y-84081500D01*
X189226881Y-84115374D01*
X189226871Y-84115377D01*
X189066459Y-84181821D01*
X189066446Y-84181828D01*
X188922077Y-84278293D01*
X188922073Y-84278296D01*
X188799296Y-84401073D01*
X188799293Y-84401077D01*
X188702828Y-84545446D01*
X188702821Y-84545459D01*
X188646061Y-84682493D01*
X188602220Y-84736897D01*
X188535926Y-84758962D01*
X188468227Y-84741683D01*
X188420616Y-84690546D01*
X188416939Y-84682493D01*
X188360178Y-84545459D01*
X188360171Y-84545446D01*
X188263706Y-84401077D01*
X188263703Y-84401073D01*
X188140926Y-84278296D01*
X188140922Y-84278293D01*
X187996553Y-84181828D01*
X187996540Y-84181821D01*
X187836128Y-84115377D01*
X187836118Y-84115374D01*
X187665822Y-84081500D01*
X187665820Y-84081500D01*
X187492180Y-84081500D01*
X187492178Y-84081500D01*
X187321881Y-84115374D01*
X187321871Y-84115377D01*
X187161459Y-84181821D01*
X187161446Y-84181828D01*
X187017077Y-84278293D01*
X187017073Y-84278296D01*
X186894296Y-84401073D01*
X186894293Y-84401077D01*
X186797828Y-84545446D01*
X186797821Y-84545459D01*
X186731377Y-84705871D01*
X186731374Y-84705881D01*
X186697500Y-84876177D01*
X186697500Y-84876180D01*
X186697500Y-85049820D01*
X186697500Y-85049822D01*
X186697499Y-85049822D01*
X175157381Y-85049822D01*
X175048753Y-85013826D01*
X175048751Y-85013825D01*
X174947678Y-85003500D01*
X174349330Y-85003500D01*
X174349312Y-85003501D01*
X174248247Y-85013825D01*
X174084484Y-85068092D01*
X174084481Y-85068093D01*
X173937648Y-85158661D01*
X173823681Y-85272629D01*
X173762358Y-85306114D01*
X173692666Y-85301130D01*
X173648319Y-85272629D01*
X173534351Y-85158661D01*
X173534350Y-85158660D01*
X173387516Y-85068092D01*
X173223753Y-85013826D01*
X173223751Y-85013825D01*
X173122678Y-85003500D01*
X172524330Y-85003500D01*
X172524312Y-85003501D01*
X172423247Y-85013825D01*
X172259484Y-85068092D01*
X172259481Y-85068093D01*
X172112650Y-85158659D01*
X172062954Y-85208355D01*
X172001630Y-85241839D01*
X171931938Y-85236853D01*
X171906383Y-85223774D01*
X171867553Y-85197828D01*
X171867540Y-85197821D01*
X171707128Y-85131377D01*
X171707118Y-85131374D01*
X171536822Y-85097500D01*
X171536820Y-85097500D01*
X171363180Y-85097500D01*
X171363178Y-85097500D01*
X171192881Y-85131374D01*
X171192871Y-85131377D01*
X171032459Y-85197821D01*
X171032446Y-85197828D01*
X170888077Y-85294293D01*
X170888073Y-85294296D01*
X170765296Y-85417073D01*
X170765293Y-85417077D01*
X170668828Y-85561446D01*
X170668821Y-85561459D01*
X170602377Y-85721871D01*
X170602374Y-85721881D01*
X170568500Y-85892177D01*
X170568500Y-85892180D01*
X170568500Y-86065820D01*
X170568500Y-86065822D01*
X170568499Y-86065822D01*
X170602374Y-86236118D01*
X170602377Y-86236128D01*
X170668821Y-86396540D01*
X170668828Y-86396553D01*
X170765293Y-86540922D01*
X170765296Y-86540926D01*
X170888073Y-86663703D01*
X170888077Y-86663706D01*
X171032446Y-86760171D01*
X171032459Y-86760178D01*
X171127001Y-86799338D01*
X171192876Y-86826624D01*
X171192880Y-86826624D01*
X171192881Y-86826625D01*
X171363177Y-86860500D01*
X171363180Y-86860500D01*
X171536822Y-86860500D01*
X171651394Y-86837709D01*
X171707124Y-86826624D01*
X171867547Y-86760175D01*
X171906385Y-86734223D01*
X171973058Y-86713346D01*
X172040439Y-86731829D01*
X172062955Y-86749645D01*
X172112650Y-86799340D01*
X172259484Y-86889908D01*
X172423247Y-86944174D01*
X172524323Y-86954500D01*
X173122676Y-86954499D01*
X173122684Y-86954498D01*
X173122687Y-86954498D01*
X173178030Y-86948844D01*
X173223753Y-86944174D01*
X173387516Y-86889908D01*
X173534350Y-86799340D01*
X173648319Y-86685371D01*
X173709642Y-86651886D01*
X173779334Y-86656870D01*
X173823681Y-86685371D01*
X173937650Y-86799340D01*
X174084484Y-86889908D01*
X174248247Y-86944174D01*
X174349323Y-86954500D01*
X174721139Y-86954499D01*
X174788178Y-86974183D01*
X174808820Y-86990818D01*
X175022821Y-87204819D01*
X175056306Y-87266142D01*
X175051322Y-87335834D01*
X175009450Y-87391767D01*
X174943986Y-87416184D01*
X174935140Y-87416500D01*
X174349330Y-87416500D01*
X174349312Y-87416501D01*
X174248247Y-87426825D01*
X174084484Y-87481092D01*
X174084481Y-87481093D01*
X173937648Y-87571661D01*
X173823681Y-87685629D01*
X173762358Y-87719114D01*
X173692666Y-87714130D01*
X173648319Y-87685629D01*
X173534351Y-87571661D01*
X173534350Y-87571660D01*
X173387516Y-87481092D01*
X173223753Y-87426826D01*
X173223751Y-87426825D01*
X173122678Y-87416500D01*
X172524330Y-87416500D01*
X172524312Y-87416501D01*
X172423247Y-87426825D01*
X172259484Y-87481092D01*
X172259481Y-87481093D01*
X172112648Y-87571661D01*
X171990660Y-87693649D01*
X171990660Y-87693650D01*
X171978993Y-87712564D01*
X171927043Y-87759287D01*
X171858080Y-87770507D01*
X171793999Y-87742662D01*
X171785775Y-87735145D01*
X171757926Y-87707296D01*
X171757922Y-87707293D01*
X171613553Y-87610828D01*
X171613540Y-87610821D01*
X171453128Y-87544377D01*
X171453118Y-87544374D01*
X171282822Y-87510500D01*
X171282820Y-87510500D01*
X171109180Y-87510500D01*
X171109178Y-87510500D01*
X170938881Y-87544374D01*
X170938871Y-87544377D01*
X170778459Y-87610821D01*
X170778446Y-87610828D01*
X170634077Y-87707293D01*
X170634073Y-87707296D01*
X170511296Y-87830073D01*
X170511293Y-87830077D01*
X170414828Y-87974446D01*
X170414821Y-87974459D01*
X170348377Y-88134871D01*
X170348374Y-88134881D01*
X170314500Y-88305177D01*
X170314500Y-88305180D01*
X170314500Y-88478820D01*
X170314500Y-88478822D01*
X170314499Y-88478822D01*
X170348374Y-88649118D01*
X170348377Y-88649128D01*
X170414821Y-88809540D01*
X170414828Y-88809553D01*
X170511293Y-88953922D01*
X170511296Y-88953926D01*
X170592927Y-89035557D01*
X170604907Y-89057498D01*
X170620364Y-89077152D01*
X170621365Y-89087637D01*
X170626412Y-89096880D01*
X170624628Y-89121816D01*
X170627005Y-89146705D01*
X170622179Y-89156065D01*
X170621428Y-89166572D01*
X170606444Y-89186586D01*
X170594989Y-89208808D01*
X170582396Y-89218710D01*
X170579556Y-89222505D01*
X170567246Y-89230625D01*
X170492986Y-89273499D01*
X170492985Y-89273500D01*
X170459903Y-89292599D01*
X170459900Y-89292601D01*
X169978373Y-89774128D01*
X169978371Y-89774131D01*
X169899105Y-89911425D01*
X169879683Y-89983908D01*
X169862376Y-90048500D01*
X169858072Y-90064561D01*
X169858072Y-90606102D01*
X169852850Y-90623884D01*
X169852635Y-90642417D01*
X169843210Y-90656713D01*
X169838387Y-90673141D01*
X169824382Y-90685276D01*
X169814180Y-90700753D01*
X169798520Y-90707685D01*
X169785583Y-90718896D01*
X169767240Y-90721533D01*
X169750291Y-90729037D01*
X169721569Y-90728100D01*
X169716425Y-90728840D01*
X169714999Y-90728626D01*
X169712411Y-90728223D01*
X169586406Y-90703159D01*
X169551396Y-90703159D01*
X169541914Y-90701683D01*
X169518633Y-90690722D01*
X169493948Y-90683474D01*
X169487547Y-90676087D01*
X169478700Y-90671922D01*
X169465039Y-90650111D01*
X169448193Y-90630670D01*
X169446801Y-90620993D01*
X169441612Y-90612708D01*
X169441911Y-90586980D01*
X169438249Y-90561512D01*
X169442382Y-90546444D01*
X169442424Y-90542844D01*
X169444044Y-90540386D01*
X169446425Y-90531707D01*
X169451186Y-90520213D01*
X169485381Y-90437659D01*
X169497986Y-90374293D01*
X169515623Y-90285625D01*
X169519987Y-90263684D01*
X169519987Y-90086302D01*
X169519987Y-90086299D01*
X169519986Y-90086297D01*
X169485383Y-89912334D01*
X169485380Y-89912325D01*
X169477515Y-89893338D01*
X169468410Y-89871356D01*
X169417503Y-89748452D01*
X169417496Y-89748439D01*
X169318951Y-89600958D01*
X169318948Y-89600954D01*
X169193525Y-89475531D01*
X169193521Y-89475528D01*
X169046040Y-89376983D01*
X169046027Y-89376976D01*
X168882154Y-89309099D01*
X168882146Y-89309097D01*
X168743307Y-89281480D01*
X168681396Y-89249095D01*
X168646822Y-89188379D01*
X168643499Y-89159869D01*
X168643499Y-88786324D01*
X168640688Y-88758810D01*
X168633174Y-88685247D01*
X168621163Y-88649000D01*
X168578908Y-88521484D01*
X168488340Y-88374650D01*
X168366350Y-88252660D01*
X168269958Y-88193205D01*
X168219518Y-88162093D01*
X168219513Y-88162091D01*
X168218069Y-88161612D01*
X168055753Y-88107826D01*
X168055751Y-88107825D01*
X167954678Y-88097500D01*
X167256330Y-88097500D01*
X167256312Y-88097501D01*
X167155247Y-88107825D01*
X166991484Y-88162092D01*
X166991481Y-88162093D01*
X166844648Y-88252661D01*
X166830325Y-88266984D01*
X166769001Y-88300468D01*
X166699309Y-88295482D01*
X166654965Y-88266982D01*
X166641038Y-88253055D01*
X166641034Y-88253052D01*
X166494311Y-88162551D01*
X166494300Y-88162546D01*
X166330652Y-88108319D01*
X166229654Y-88098000D01*
X166130500Y-88098000D01*
X166130500Y-92033999D01*
X166229640Y-92033999D01*
X166229654Y-92033998D01*
X166330652Y-92023680D01*
X166494300Y-91969453D01*
X166494311Y-91969448D01*
X166641035Y-91878947D01*
X166654960Y-91865021D01*
X166716282Y-91831533D01*
X166785973Y-91836514D01*
X166830327Y-91865017D01*
X166844650Y-91879340D01*
X166991484Y-91969908D01*
X167155247Y-92024174D01*
X167256323Y-92034500D01*
X167522401Y-92034499D01*
X167589439Y-92054183D01*
X167635194Y-92106987D01*
X167646400Y-92158499D01*
X167646400Y-93270768D01*
X167687433Y-93423902D01*
X167765960Y-93559917D01*
X167765968Y-93559931D01*
X167765967Y-93559931D01*
X167766696Y-93561193D01*
X167766703Y-93561202D01*
X168127200Y-93921698D01*
X168156887Y-93951385D01*
X168190372Y-94012708D01*
X168185388Y-94082400D01*
X168143516Y-94138333D01*
X168138098Y-94142168D01*
X168013429Y-94225470D01*
X167890652Y-94348247D01*
X167890649Y-94348251D01*
X167794184Y-94492620D01*
X167794179Y-94492630D01*
X167749401Y-94600734D01*
X167705560Y-94655137D01*
X167639265Y-94677202D01*
X167571566Y-94659923D01*
X167547159Y-94640962D01*
X165865419Y-92959222D01*
X165831934Y-92897899D01*
X165829100Y-92871541D01*
X165829100Y-91741733D01*
X165825863Y-91729652D01*
X165788067Y-91588598D01*
X165708800Y-91451302D01*
X165666819Y-91409321D01*
X165633334Y-91347998D01*
X165630500Y-91321640D01*
X165630500Y-89323000D01*
X164843001Y-89323000D01*
X164843001Y-89359654D01*
X164853319Y-89460652D01*
X164907546Y-89624300D01*
X164907551Y-89624311D01*
X164998052Y-89771034D01*
X164998055Y-89771038D01*
X165119961Y-89892944D01*
X165119965Y-89892947D01*
X165229422Y-89960462D01*
X165276147Y-90012410D01*
X165287368Y-90081373D01*
X165259525Y-90145455D01*
X165229422Y-90171538D01*
X165119965Y-90239052D01*
X165119961Y-90239055D01*
X164998054Y-90360962D01*
X164935568Y-90462268D01*
X164883620Y-90508992D01*
X164814657Y-90520213D01*
X164750575Y-90492370D01*
X164742349Y-90484851D01*
X164558366Y-90300868D01*
X164535877Y-90287884D01*
X164513388Y-90274900D01*
X164421077Y-90221605D01*
X164421072Y-90221602D01*
X164323987Y-90195588D01*
X164267937Y-90180569D01*
X163392063Y-90180569D01*
X163392061Y-90180569D01*
X163336010Y-90195587D01*
X163336011Y-90195588D01*
X163262547Y-90215272D01*
X163262540Y-90215274D01*
X163238931Y-90221601D01*
X163238929Y-90221601D01*
X163238929Y-90221602D01*
X163235314Y-90223689D01*
X163217759Y-90233824D01*
X163217745Y-90233830D01*
X163101640Y-90300863D01*
X163101632Y-90300869D01*
X162731254Y-90671247D01*
X162555635Y-90846860D01*
X162555628Y-90846868D01*
X162555128Y-90847369D01*
X162555086Y-90847441D01*
X162552602Y-90849925D01*
X162546797Y-90858610D01*
X162544710Y-90861385D01*
X162519348Y-90880278D01*
X162495080Y-90900551D01*
X162491540Y-90900994D01*
X162488680Y-90903126D01*
X162457130Y-90905308D01*
X162425753Y-90909243D01*
X162422535Y-90907702D01*
X162418976Y-90907949D01*
X162391254Y-90892727D01*
X162362733Y-90879074D01*
X162357935Y-90874525D01*
X162288822Y-90805412D01*
X162288821Y-90805410D01*
X162272666Y-90789254D01*
X162181932Y-90728626D01*
X162134739Y-90697092D01*
X161981485Y-90633611D01*
X161981481Y-90633610D01*
X161981477Y-90633609D01*
X161818794Y-90601249D01*
X161818791Y-90601249D01*
X161652909Y-90601249D01*
X161652906Y-90601249D01*
X161490222Y-90633609D01*
X161490218Y-90633610D01*
X161490216Y-90633610D01*
X161490215Y-90633611D01*
X161336961Y-90697092D01*
X161336959Y-90697093D01*
X161336951Y-90697097D01*
X161199037Y-90789251D01*
X161199032Y-90789255D01*
X161161695Y-90826594D01*
X161161691Y-90826599D01*
X161107238Y-90881051D01*
X161107234Y-90881054D01*
X161095908Y-90892379D01*
X161091857Y-90896431D01*
X161055538Y-90932749D01*
X160996891Y-90991396D01*
X160984931Y-91009296D01*
X160904737Y-91129315D01*
X160904731Y-91129326D01*
X160841257Y-91282569D01*
X160841255Y-91282577D01*
X160824309Y-91367769D01*
X160791924Y-91429680D01*
X160731208Y-91464254D01*
X160726884Y-91465194D01*
X160641698Y-91482139D01*
X160641690Y-91482141D01*
X160488447Y-91545615D01*
X160488436Y-91545621D01*
X160350516Y-91637775D01*
X160349222Y-91639069D01*
X160347921Y-91640371D01*
X160272564Y-91715725D01*
X160263838Y-91724452D01*
X160263628Y-91724639D01*
X160243275Y-91744999D01*
X160243151Y-91745066D01*
X160148269Y-91839982D01*
X160148267Y-91839983D01*
X160056142Y-91977906D01*
X159992687Y-92131161D01*
X159992686Y-92131166D01*
X159960347Y-92293842D01*
X159960347Y-92293845D01*
X159960358Y-92406289D01*
X159960363Y-92459712D01*
X159985456Y-92585815D01*
X159992734Y-92622390D01*
X160056216Y-92775629D01*
X160148366Y-92913537D01*
X160148370Y-92913542D01*
X160163628Y-92928799D01*
X160230984Y-92996155D01*
X160264469Y-93057478D01*
X160259485Y-93127170D01*
X160230984Y-93171516D01*
X160211213Y-93191288D01*
X160205275Y-93197226D01*
X160143951Y-93230710D01*
X160074259Y-93225724D01*
X160029914Y-93197224D01*
X159992351Y-93159661D01*
X159992350Y-93159660D01*
X159845516Y-93069092D01*
X159681753Y-93014826D01*
X159681751Y-93014825D01*
X159580678Y-93004500D01*
X158982330Y-93004500D01*
X158982312Y-93004501D01*
X158881247Y-93014825D01*
X158717484Y-93069092D01*
X158717481Y-93069093D01*
X158570648Y-93159661D01*
X158456681Y-93273629D01*
X158395358Y-93307114D01*
X158325666Y-93302130D01*
X158281319Y-93273629D01*
X158167351Y-93159661D01*
X158167350Y-93159660D01*
X158020516Y-93069092D01*
X157856753Y-93014826D01*
X157856751Y-93014825D01*
X157755678Y-93004500D01*
X157157330Y-93004500D01*
X157157312Y-93004501D01*
X157056247Y-93014825D01*
X156892484Y-93069092D01*
X156892481Y-93069093D01*
X156745648Y-93159661D01*
X156623661Y-93281648D01*
X156533093Y-93428481D01*
X156533091Y-93428486D01*
X156520501Y-93466481D01*
X156478826Y-93592247D01*
X156478826Y-93592248D01*
X156478825Y-93592248D01*
X156468500Y-93693315D01*
X156468500Y-94248117D01*
X156448815Y-94315156D01*
X156413392Y-94351219D01*
X156283073Y-94438296D01*
X156168181Y-94553189D01*
X156106858Y-94586674D01*
X156037166Y-94581690D01*
X155981233Y-94539818D01*
X155956816Y-94474354D01*
X155956500Y-94465508D01*
X155956500Y-87379051D01*
X155956649Y-87372967D01*
X155962606Y-87251711D01*
X157692500Y-87251711D01*
X157692500Y-87494288D01*
X157720542Y-87707296D01*
X157724162Y-87734789D01*
X157749695Y-87830077D01*
X157786947Y-87969104D01*
X157866885Y-88162091D01*
X157879776Y-88193212D01*
X158001064Y-88403289D01*
X158001066Y-88403292D01*
X158001067Y-88403293D01*
X158148733Y-88595736D01*
X158148739Y-88595743D01*
X158320256Y-88767260D01*
X158320263Y-88767266D01*
X158375356Y-88809540D01*
X158512711Y-88914936D01*
X158722788Y-89036224D01*
X158946900Y-89129054D01*
X159181211Y-89191838D01*
X159344485Y-89213333D01*
X159421711Y-89223500D01*
X159421712Y-89223500D01*
X159664289Y-89223500D01*
X159741515Y-89213333D01*
X159904789Y-89191838D01*
X160139100Y-89129054D01*
X160363212Y-89036224D01*
X160573289Y-88914936D01*
X160740872Y-88786345D01*
X164843000Y-88786345D01*
X164843000Y-88823000D01*
X165630500Y-88823000D01*
X165630500Y-88097999D01*
X165531360Y-88098000D01*
X165531344Y-88098001D01*
X165430347Y-88108319D01*
X165266699Y-88162546D01*
X165266688Y-88162551D01*
X165119965Y-88253052D01*
X165119961Y-88253055D01*
X164998055Y-88374961D01*
X164998052Y-88374965D01*
X164907551Y-88521688D01*
X164907546Y-88521699D01*
X164853319Y-88685347D01*
X164843000Y-88786345D01*
X160740872Y-88786345D01*
X160765738Y-88767265D01*
X160774195Y-88758808D01*
X160837489Y-88695515D01*
X160937260Y-88595743D01*
X160937265Y-88595738D01*
X161084936Y-88403289D01*
X161206224Y-88193212D01*
X161299054Y-87969100D01*
X161361838Y-87734789D01*
X161393500Y-87494288D01*
X161393500Y-87251712D01*
X161361838Y-87011211D01*
X161299054Y-86776900D01*
X161206224Y-86552788D01*
X161084936Y-86342711D01*
X161003149Y-86236124D01*
X160937266Y-86150263D01*
X160937260Y-86150256D01*
X160765743Y-85978739D01*
X160765736Y-85978733D01*
X160573293Y-85831067D01*
X160573292Y-85831066D01*
X160573289Y-85831064D01*
X160401661Y-85731974D01*
X160363214Y-85709777D01*
X160363205Y-85709773D01*
X160139104Y-85616947D01*
X160021944Y-85585554D01*
X159904789Y-85554162D01*
X159904788Y-85554161D01*
X159904785Y-85554161D01*
X159664289Y-85522500D01*
X159664288Y-85522500D01*
X159421712Y-85522500D01*
X159421711Y-85522500D01*
X159181214Y-85554161D01*
X158946895Y-85616947D01*
X158722794Y-85709773D01*
X158722785Y-85709777D01*
X158512706Y-85831067D01*
X158320263Y-85978733D01*
X158320256Y-85978739D01*
X158148739Y-86150256D01*
X158148733Y-86150263D01*
X158001067Y-86342706D01*
X157879777Y-86552785D01*
X157879773Y-86552794D01*
X157786947Y-86776895D01*
X157724161Y-87011214D01*
X157692500Y-87251711D01*
X155962606Y-87251711D01*
X155963104Y-87241569D01*
X155971811Y-87064326D01*
X155972335Y-87057525D01*
X155979766Y-86986827D01*
X155980427Y-86981615D01*
X156020406Y-86712094D01*
X156021757Y-86704605D01*
X156035391Y-86640461D01*
X156036348Y-86636324D01*
X156104143Y-86365671D01*
X156106482Y-86357531D01*
X156123360Y-86305589D01*
X156124502Y-86302240D01*
X156222366Y-86028726D01*
X156225811Y-86020132D01*
X156240030Y-85988197D01*
X156241109Y-85985845D01*
X156373735Y-85705431D01*
X156379452Y-85694737D01*
X156552583Y-85405886D01*
X156559326Y-85395793D01*
X156759943Y-85125292D01*
X156767646Y-85115907D01*
X156993807Y-84866377D01*
X157002377Y-84857807D01*
X157251907Y-84631646D01*
X157261292Y-84623943D01*
X157531793Y-84423326D01*
X157541886Y-84416583D01*
X157830737Y-84243452D01*
X157841431Y-84237735D01*
X158121845Y-84105109D01*
X158124197Y-84104030D01*
X158156132Y-84089811D01*
X158164726Y-84086366D01*
X158438240Y-83988502D01*
X158441589Y-83987360D01*
X158493531Y-83970482D01*
X158501671Y-83968143D01*
X158772324Y-83900348D01*
X158776461Y-83899391D01*
X158840605Y-83885757D01*
X158848094Y-83884406D01*
X159117631Y-83844424D01*
X159122827Y-83843766D01*
X159193525Y-83836335D01*
X159200326Y-83835811D01*
X159508967Y-83820648D01*
X159515051Y-83820500D01*
X191493508Y-83820500D01*
X191560547Y-83840185D01*
G37*
G04 #@! TD.AperFunction*
G04 #@! TA.AperFunction,Conductor*
G36*
X186741301Y-111516748D02*
G01*
X186764306Y-111514937D01*
X186770309Y-111510309D01*
X186839922Y-111504328D01*
X186901718Y-111536932D01*
X186936077Y-111597770D01*
X186939300Y-111625859D01*
X186939300Y-112091402D01*
X186919615Y-112158441D01*
X186866811Y-112204196D01*
X186858634Y-112207584D01*
X186800669Y-112229203D01*
X186800664Y-112229206D01*
X186685455Y-112315452D01*
X186685452Y-112315455D01*
X186599206Y-112430664D01*
X186599202Y-112430671D01*
X186548908Y-112565517D01*
X186542794Y-112622389D01*
X186542500Y-112625127D01*
X186542500Y-113176701D01*
X186542501Y-113645300D01*
X186522817Y-113712339D01*
X186470013Y-113758094D01*
X186418501Y-113769300D01*
X186067500Y-113769300D01*
X186000461Y-113749615D01*
X185954706Y-113696811D01*
X185943500Y-113645300D01*
X185943499Y-112625129D01*
X185943498Y-112625123D01*
X185943497Y-112625116D01*
X185937091Y-112565517D01*
X185929105Y-112544106D01*
X185886797Y-112430671D01*
X185886795Y-112430668D01*
X185886792Y-112430664D01*
X185800546Y-112315454D01*
X185800543Y-112315452D01*
X185800083Y-112314837D01*
X185775665Y-112249373D01*
X185790516Y-112181100D01*
X185839921Y-112131694D01*
X185861031Y-112122594D01*
X186065391Y-112056192D01*
X186288030Y-111942752D01*
X186387747Y-111870301D01*
X186387748Y-111870301D01*
X185760890Y-111243444D01*
X185799416Y-111227487D01*
X185918161Y-111148144D01*
X186019144Y-111047161D01*
X186098487Y-110928416D01*
X186114444Y-110889890D01*
X186741301Y-111516748D01*
G37*
G04 #@! TD.AperFunction*
G04 #@! TA.AperFunction,Conductor*
G36*
X188411039Y-104698185D02*
G01*
X188456794Y-104750989D01*
X188468000Y-104802500D01*
X188468000Y-105054500D01*
X188448315Y-105121539D01*
X188395511Y-105167294D01*
X188344000Y-105178500D01*
X187493001Y-105178500D01*
X187493001Y-105277654D01*
X187503319Y-105378652D01*
X187557546Y-105542300D01*
X187557551Y-105542311D01*
X187648052Y-105689034D01*
X187648055Y-105689038D01*
X187661982Y-105702965D01*
X187695467Y-105764288D01*
X187690483Y-105833980D01*
X187661984Y-105878325D01*
X187647661Y-105892648D01*
X187557093Y-106039481D01*
X187557091Y-106039486D01*
X187534069Y-106108961D01*
X187502826Y-106203247D01*
X187502826Y-106203248D01*
X187502825Y-106203248D01*
X187492500Y-106304315D01*
X187492500Y-107002669D01*
X187492501Y-107002687D01*
X187502825Y-107103752D01*
X187528622Y-107181600D01*
X187557092Y-107267516D01*
X187647660Y-107414350D01*
X187769650Y-107536340D01*
X187865804Y-107595648D01*
X187883926Y-107615796D01*
X187904532Y-107633391D01*
X187906942Y-107641386D01*
X187912527Y-107647595D01*
X187916879Y-107674340D01*
X187924703Y-107700286D01*
X187922739Y-107710348D01*
X187923750Y-107716558D01*
X187919934Y-107735256D01*
X187917981Y-107742087D01*
X187888617Y-107812981D01*
X187867756Y-107917849D01*
X187866360Y-107922738D01*
X187850294Y-107948140D01*
X187836364Y-107974771D01*
X187834813Y-107976349D01*
X187486040Y-108325123D01*
X187194420Y-108616743D01*
X187194417Y-108616746D01*
X187163663Y-108647500D01*
X187096399Y-108714763D01*
X187096398Y-108714764D01*
X187048038Y-108787142D01*
X187048037Y-108787144D01*
X187019393Y-108830010D01*
X187019385Y-108830025D01*
X186966343Y-108958081D01*
X186966341Y-108958089D01*
X186939299Y-109094035D01*
X186939299Y-109238767D01*
X186939300Y-109238788D01*
X186939300Y-109544139D01*
X186919615Y-109611178D01*
X186866811Y-109656933D01*
X186797653Y-109666877D01*
X186773336Y-109655772D01*
X186741301Y-109653250D01*
X186114444Y-110280108D01*
X186098487Y-110241584D01*
X186019144Y-110122839D01*
X185918161Y-110021856D01*
X185799416Y-109942513D01*
X185760891Y-109926555D01*
X186387748Y-109299698D01*
X186387747Y-109299697D01*
X186288031Y-109227248D01*
X186065393Y-109113807D01*
X185827740Y-109036588D01*
X185580944Y-108997500D01*
X185331056Y-108997500D01*
X185084259Y-109036588D01*
X184846606Y-109113807D01*
X184623965Y-109227250D01*
X184524251Y-109299696D01*
X184524250Y-109299697D01*
X185151109Y-109926555D01*
X185112584Y-109942513D01*
X184993839Y-110021856D01*
X184892856Y-110122839D01*
X184813513Y-110241584D01*
X184797555Y-110280108D01*
X184170697Y-109653250D01*
X184170696Y-109653251D01*
X184098250Y-109752965D01*
X183984807Y-109975606D01*
X183907588Y-110213259D01*
X183868500Y-110460055D01*
X183868500Y-110709944D01*
X183907588Y-110956740D01*
X183984807Y-111194393D01*
X184098248Y-111417031D01*
X184170697Y-111516747D01*
X184170698Y-111516748D01*
X184797555Y-110889890D01*
X184813513Y-110928416D01*
X184892856Y-111047161D01*
X184993839Y-111148144D01*
X185112584Y-111227487D01*
X185151108Y-111243444D01*
X184524250Y-111870301D01*
X184623970Y-111942752D01*
X184623995Y-111942768D01*
X184624002Y-111942776D01*
X184627911Y-111945616D01*
X184627314Y-111946436D01*
X184670874Y-111994577D01*
X184682302Y-112063505D01*
X184654649Y-112127670D01*
X184596697Y-112166699D01*
X184559213Y-112172500D01*
X184195130Y-112172500D01*
X184195123Y-112172501D01*
X184135516Y-112178908D01*
X184000671Y-112229202D01*
X184000664Y-112229206D01*
X183885455Y-112315452D01*
X183885452Y-112315455D01*
X183807481Y-112419611D01*
X183751547Y-112461482D01*
X183708215Y-112469300D01*
X177472084Y-112469300D01*
X177405045Y-112449615D01*
X177366545Y-112410397D01*
X177358650Y-112397598D01*
X177326166Y-112344933D01*
X177318357Y-112316394D01*
X177308022Y-112288683D01*
X177309241Y-112283077D01*
X177307727Y-112277542D01*
X177316586Y-112249312D01*
X177322874Y-112220410D01*
X177327666Y-112214007D01*
X177328649Y-112210878D01*
X177344022Y-112192159D01*
X177393151Y-112143029D01*
X177454474Y-112109545D01*
X177519148Y-112112779D01*
X177584143Y-112133898D01*
X177831022Y-112173000D01*
X177831023Y-112173000D01*
X178080977Y-112173000D01*
X178080978Y-112173000D01*
X178327857Y-112133898D01*
X178565580Y-112056657D01*
X178788293Y-111943179D01*
X178990512Y-111796258D01*
X179167258Y-111619512D01*
X179314179Y-111417293D01*
X179427657Y-111194580D01*
X179504898Y-110956857D01*
X179544000Y-110709978D01*
X179544000Y-110460022D01*
X179504898Y-110213143D01*
X179427657Y-109975420D01*
X179427655Y-109975417D01*
X179427655Y-109975415D01*
X179367792Y-109857929D01*
X179314179Y-109752707D01*
X179167258Y-109550488D01*
X178990512Y-109373742D01*
X178823259Y-109252225D01*
X178788288Y-109226817D01*
X178714641Y-109189292D01*
X178707237Y-109182299D01*
X178697655Y-109178838D01*
X178682261Y-109158710D01*
X178663845Y-109141318D01*
X178661396Y-109131431D01*
X178655208Y-109123340D01*
X178653139Y-109098087D01*
X178647050Y-109073497D01*
X178650183Y-109062002D01*
X178649504Y-109053703D01*
X178658874Y-109030124D01*
X178661496Y-109020509D01*
X178770060Y-108816710D01*
X178787430Y-108798976D01*
X178801566Y-108778560D01*
X178811458Y-108774447D01*
X178818952Y-108766797D01*
X178843154Y-108761269D01*
X178866082Y-108751737D01*
X178876625Y-108753624D01*
X178887067Y-108751240D01*
X178910419Y-108759676D01*
X178934858Y-108764052D01*
X178942705Y-108771339D01*
X178952781Y-108774979D01*
X178967866Y-108794703D01*
X178986058Y-108811595D01*
X178993871Y-108828703D01*
X178995228Y-108830477D01*
X178995347Y-108831935D01*
X178997206Y-108836005D01*
X179012546Y-108882300D01*
X179012551Y-108882311D01*
X179103052Y-109029034D01*
X179103055Y-109029038D01*
X179224961Y-109150944D01*
X179224965Y-109150947D01*
X179371688Y-109241448D01*
X179371699Y-109241453D01*
X179535347Y-109295680D01*
X179636351Y-109305999D01*
X179735500Y-109305998D01*
X179735500Y-108581000D01*
X178932055Y-108581000D01*
X178905855Y-108595305D01*
X178836163Y-108590319D01*
X178821663Y-108581000D01*
X177897500Y-108581000D01*
X177830461Y-108561315D01*
X177784706Y-108508511D01*
X177773500Y-108457000D01*
X177773500Y-108205000D01*
X177793185Y-108137961D01*
X177845989Y-108092206D01*
X177897500Y-108081000D01*
X178826942Y-108081000D01*
X178853137Y-108066696D01*
X178922829Y-108071678D01*
X178937335Y-108081000D01*
X179861500Y-108081000D01*
X179928539Y-108100685D01*
X179974294Y-108153489D01*
X179985500Y-108205000D01*
X179985500Y-108331000D01*
X180111500Y-108331000D01*
X180178539Y-108350685D01*
X180224294Y-108403489D01*
X180235500Y-108455000D01*
X180235500Y-109305999D01*
X180334640Y-109305999D01*
X180334652Y-109305998D01*
X180438519Y-109295387D01*
X180507212Y-109308156D01*
X180558097Y-109356037D01*
X180575018Y-109423826D01*
X180552603Y-109490003D01*
X180538804Y-109506425D01*
X180494745Y-109550484D01*
X180494744Y-109550486D01*
X180494742Y-109550488D01*
X180450648Y-109611178D01*
X180347821Y-109752706D01*
X180234344Y-109975415D01*
X180157102Y-110213142D01*
X180154203Y-110231446D01*
X180118000Y-110460022D01*
X180118000Y-110709978D01*
X180124187Y-110749039D01*
X180157102Y-110956857D01*
X180234344Y-111194584D01*
X180328174Y-111378733D01*
X180347821Y-111417293D01*
X180494742Y-111619512D01*
X180671488Y-111796258D01*
X180873707Y-111943179D01*
X180931777Y-111972767D01*
X181096415Y-112056655D01*
X181096417Y-112056655D01*
X181096420Y-112056657D01*
X181334143Y-112133898D01*
X181581022Y-112173000D01*
X181581023Y-112173000D01*
X181830977Y-112173000D01*
X181830978Y-112173000D01*
X182077857Y-112133898D01*
X182315580Y-112056657D01*
X182538293Y-111943179D01*
X182740512Y-111796258D01*
X182917258Y-111619512D01*
X183064179Y-111417293D01*
X183177657Y-111194580D01*
X183254898Y-110956857D01*
X183294000Y-110709978D01*
X183294000Y-110460022D01*
X183254898Y-110213143D01*
X183177657Y-109975420D01*
X183177655Y-109975417D01*
X183177655Y-109975415D01*
X183117792Y-109857929D01*
X183064179Y-109752707D01*
X182917258Y-109550488D01*
X182740512Y-109373742D01*
X182573257Y-109252224D01*
X182530593Y-109196895D01*
X182524614Y-109127282D01*
X182557220Y-109065487D01*
X182558394Y-109064295D01*
X182593340Y-109029350D01*
X182683908Y-108882516D01*
X182723149Y-108764093D01*
X182762921Y-108706651D01*
X182827436Y-108679828D01*
X182840854Y-108679100D01*
X183054732Y-108679100D01*
X183161276Y-108679100D01*
X183185466Y-108681482D01*
X183214035Y-108687165D01*
X183301177Y-108704500D01*
X183301180Y-108704500D01*
X183474822Y-108704500D01*
X183633043Y-108673027D01*
X183645124Y-108670624D01*
X183805547Y-108604175D01*
X183949923Y-108507706D01*
X184072706Y-108384923D01*
X184169175Y-108240547D01*
X184235624Y-108080124D01*
X184252553Y-107995018D01*
X184269500Y-107909822D01*
X184269500Y-107841084D01*
X184272683Y-107827913D01*
X184271703Y-107817816D01*
X184281472Y-107791556D01*
X184283192Y-107784444D01*
X184288614Y-107773883D01*
X184289800Y-107772698D01*
X184369068Y-107635401D01*
X184379269Y-107597329D01*
X184385310Y-107585565D01*
X184400630Y-107569444D01*
X184412206Y-107550453D01*
X184424232Y-107544610D01*
X184433443Y-107534919D01*
X184455046Y-107529640D01*
X184475052Y-107519922D01*
X184479433Y-107519266D01*
X184533103Y-107512200D01*
X184533108Y-107512198D01*
X184672978Y-107454263D01*
X184793094Y-107362094D01*
X184885263Y-107241978D01*
X184943198Y-107102108D01*
X184943199Y-107102104D01*
X184957999Y-106989697D01*
X184958000Y-106989683D01*
X184958000Y-106377000D01*
X184582500Y-106377000D01*
X184573814Y-106374449D01*
X184564853Y-106375738D01*
X184540812Y-106364759D01*
X184515461Y-106357315D01*
X184509533Y-106350474D01*
X184501297Y-106346713D01*
X184487007Y-106324478D01*
X184469706Y-106304511D01*
X184467418Y-106293996D01*
X184463523Y-106287935D01*
X184458500Y-106253000D01*
X184458500Y-106201000D01*
X184478185Y-106133961D01*
X184530989Y-106088206D01*
X184582500Y-106077000D01*
X184958000Y-106077000D01*
X184958000Y-105464316D01*
X184957999Y-105464302D01*
X184943199Y-105351895D01*
X184943199Y-105351894D01*
X184941575Y-105347973D01*
X184941190Y-105344396D01*
X184941096Y-105344044D01*
X184941150Y-105344029D01*
X184934105Y-105278504D01*
X184965378Y-105216024D01*
X185025466Y-105180370D01*
X185095292Y-105182863D01*
X185103587Y-105185957D01*
X185107764Y-105187687D01*
X185220280Y-105202500D01*
X185220287Y-105202500D01*
X186745713Y-105202500D01*
X186745720Y-105202500D01*
X186858236Y-105187687D01*
X186998233Y-105129698D01*
X187118451Y-105037451D01*
X187210698Y-104917233D01*
X187210700Y-104917229D01*
X187215645Y-104910785D01*
X187217898Y-104912514D01*
X187258478Y-104873794D01*
X187327081Y-104860546D01*
X187339524Y-104862371D01*
X187374377Y-104869303D01*
X187395471Y-104873500D01*
X187395472Y-104873500D01*
X187572856Y-104873500D01*
X187572857Y-104873499D01*
X187637978Y-104860546D01*
X187746821Y-104838896D01*
X187746824Y-104838894D01*
X187746829Y-104838894D01*
X187910710Y-104771013D01*
X188001820Y-104710135D01*
X188017889Y-104699398D01*
X188084566Y-104678520D01*
X188086780Y-104678500D01*
X188344000Y-104678500D01*
X188411039Y-104698185D01*
G37*
G04 #@! TD.AperFunction*
G04 #@! TA.AperFunction,Conductor*
G36*
X172138703Y-104387561D02*
G01*
X172145168Y-104393580D01*
X172261679Y-104510095D01*
X172399596Y-104602253D01*
X172399598Y-104602254D01*
X172399600Y-104602255D01*
X172448876Y-104622667D01*
X172552842Y-104665734D01*
X172663312Y-104687711D01*
X172676859Y-104694798D01*
X172691965Y-104697154D01*
X172707185Y-104710663D01*
X172725221Y-104720098D01*
X172732786Y-104733385D01*
X172744221Y-104743534D01*
X172749722Y-104763127D01*
X172759793Y-104780815D01*
X172758974Y-104796082D01*
X172763107Y-104810803D01*
X172757140Y-104830262D01*
X172756051Y-104850585D01*
X172747108Y-104862984D01*
X172742627Y-104877603D01*
X172727087Y-104890748D01*
X172715183Y-104907255D01*
X172700149Y-104913534D01*
X172689282Y-104922727D01*
X172655302Y-104932267D01*
X172575270Y-104942804D01*
X172541527Y-104940593D01*
X172541293Y-104942374D01*
X172533236Y-104941313D01*
X172513451Y-104938708D01*
X172420727Y-104926500D01*
X172420720Y-104926500D01*
X172195280Y-104926500D01*
X172195272Y-104926500D01*
X172082764Y-104941313D01*
X172082757Y-104941315D01*
X172079235Y-104942774D01*
X172076025Y-104943118D01*
X172074913Y-104943417D01*
X172074866Y-104943243D01*
X172009766Y-104950240D01*
X171947288Y-104918962D01*
X171911638Y-104858871D01*
X171914135Y-104789046D01*
X171917220Y-104780776D01*
X171918687Y-104777236D01*
X171933500Y-104664720D01*
X171933500Y-104481274D01*
X171953185Y-104414235D01*
X172005989Y-104368480D01*
X172075147Y-104358536D01*
X172138703Y-104387561D01*
G37*
G04 #@! TD.AperFunction*
G04 #@! TA.AperFunction,Conductor*
G36*
X173625236Y-104442675D02*
G01*
X173681169Y-104484548D01*
X173705584Y-104550013D01*
X173705900Y-104558856D01*
X173705900Y-104816357D01*
X173705736Y-104816914D01*
X173705895Y-104817473D01*
X173695893Y-104850434D01*
X173686215Y-104883396D01*
X173685777Y-104883775D01*
X173685608Y-104884333D01*
X173659358Y-104906667D01*
X173633411Y-104929151D01*
X173632688Y-104929359D01*
X173632394Y-104929610D01*
X173606743Y-104936851D01*
X173598442Y-104939248D01*
X173582764Y-104941313D01*
X173582598Y-104941381D01*
X173574542Y-104942466D01*
X173554494Y-104939399D01*
X173541684Y-104939399D01*
X173541292Y-104942374D01*
X173533237Y-104941313D01*
X173533236Y-104941313D01*
X173499344Y-104936851D01*
X173420727Y-104926500D01*
X173420720Y-104926500D01*
X173195280Y-104926500D01*
X173195272Y-104926500D01*
X173099792Y-104939071D01*
X173082764Y-104941313D01*
X173082763Y-104941313D01*
X173074707Y-104942374D01*
X173074472Y-104940595D01*
X173040724Y-104942803D01*
X173021415Y-104940260D01*
X172957520Y-104911991D01*
X172919051Y-104853665D01*
X172918223Y-104783800D01*
X172955298Y-104724578D01*
X173013418Y-104695704D01*
X173164099Y-104665738D01*
X173317355Y-104602264D01*
X173455282Y-104510110D01*
X173494221Y-104471172D01*
X173555545Y-104437689D01*
X173625236Y-104442675D01*
G37*
G04 #@! TD.AperFunction*
G04 #@! TA.AperFunction,Conductor*
G36*
X184615955Y-94163929D02*
G01*
X184671889Y-94205800D01*
X184695560Y-94263924D01*
X184696612Y-94271908D01*
X184698374Y-94285293D01*
X184695399Y-94285684D01*
X184695399Y-94318316D01*
X184698374Y-94318708D01*
X184682500Y-94439272D01*
X184682500Y-94664727D01*
X184698374Y-94785292D01*
X184695399Y-94785683D01*
X184695399Y-94818316D01*
X184698374Y-94818708D01*
X184682500Y-94939272D01*
X184682500Y-95164727D01*
X184698374Y-95285292D01*
X184695399Y-95285683D01*
X184695399Y-95318316D01*
X184698374Y-95318708D01*
X184682500Y-95439272D01*
X184682500Y-95664727D01*
X184690479Y-95725330D01*
X184694902Y-95758926D01*
X184698374Y-95785292D01*
X184695399Y-95785683D01*
X184695399Y-95818316D01*
X184698374Y-95818708D01*
X184682500Y-95939272D01*
X184682500Y-96164727D01*
X184689864Y-96220654D01*
X184696931Y-96274338D01*
X184698374Y-96285292D01*
X184695399Y-96285683D01*
X184695399Y-96318316D01*
X184698374Y-96318708D01*
X184682500Y-96439272D01*
X184682500Y-96664727D01*
X184693789Y-96750470D01*
X184697313Y-96777236D01*
X184755302Y-96917233D01*
X184788735Y-96960803D01*
X184800791Y-96976515D01*
X184825984Y-97041684D01*
X184811945Y-97110129D01*
X184800791Y-97127484D01*
X184780839Y-97153486D01*
X184724413Y-97194689D01*
X184688894Y-97200879D01*
X184687911Y-97202000D01*
X184698804Y-97284729D01*
X184696595Y-97318472D01*
X184698374Y-97318707D01*
X184682500Y-97439272D01*
X184682500Y-97664727D01*
X184692262Y-97738871D01*
X184696584Y-97771702D01*
X184698374Y-97785292D01*
X184695399Y-97785683D01*
X184695399Y-97818316D01*
X184698374Y-97818708D01*
X184697313Y-97826762D01*
X184697313Y-97826764D01*
X184693938Y-97852393D01*
X184682500Y-97939272D01*
X184682500Y-98164727D01*
X184693499Y-98248271D01*
X184696862Y-98273812D01*
X184698374Y-98285292D01*
X184695399Y-98285683D01*
X184695399Y-98318316D01*
X184698374Y-98318708D01*
X184682500Y-98439272D01*
X184682500Y-98664727D01*
X184689191Y-98715547D01*
X184696288Y-98769453D01*
X184698374Y-98785292D01*
X184695399Y-98785683D01*
X184695399Y-98818316D01*
X184698374Y-98818708D01*
X184682500Y-98939272D01*
X184682500Y-99164727D01*
X184698069Y-99282979D01*
X184698125Y-99283098D01*
X184698113Y-99283313D01*
X184698374Y-99285292D01*
X184698004Y-99285340D01*
X184697260Y-99299214D01*
X184698486Y-99318391D01*
X184697396Y-99326563D01*
X184697313Y-99326764D01*
X184692968Y-99359770D01*
X184678666Y-99391952D01*
X184664728Y-99423461D01*
X184664639Y-99423519D01*
X184664595Y-99423619D01*
X184635260Y-99442897D01*
X184606404Y-99461932D01*
X184606267Y-99461952D01*
X184606206Y-99461993D01*
X184605981Y-99461995D01*
X184570056Y-99467379D01*
X184470422Y-99467379D01*
X184300125Y-99501253D01*
X184300115Y-99501256D01*
X184139703Y-99567700D01*
X184139690Y-99567707D01*
X183995321Y-99664172D01*
X183995317Y-99664175D01*
X183872540Y-99786952D01*
X183872537Y-99786956D01*
X183776072Y-99931325D01*
X183776065Y-99931338D01*
X183709621Y-100091750D01*
X183709618Y-100091760D01*
X183675744Y-100262056D01*
X183675744Y-100262059D01*
X183675744Y-100435699D01*
X183675744Y-100435701D01*
X183675743Y-100435701D01*
X183709618Y-100605997D01*
X183709621Y-100606007D01*
X183776065Y-100766419D01*
X183776072Y-100766432D01*
X183872537Y-100910801D01*
X183872540Y-100910805D01*
X183995317Y-101033582D01*
X183995321Y-101033585D01*
X184139690Y-101130050D01*
X184139703Y-101130057D01*
X184275596Y-101186345D01*
X184300120Y-101196503D01*
X184300124Y-101196503D01*
X184300125Y-101196504D01*
X184470421Y-101230379D01*
X184569112Y-101230379D01*
X184636151Y-101250064D01*
X184672581Y-101286040D01*
X184748693Y-101401278D01*
X184755302Y-101417233D01*
X184783514Y-101453999D01*
X184800791Y-101476515D01*
X184825984Y-101541684D01*
X184811945Y-101610129D01*
X184800791Y-101627484D01*
X184780839Y-101653486D01*
X184724413Y-101694689D01*
X184688894Y-101700879D01*
X184687911Y-101702000D01*
X184698804Y-101784729D01*
X184696595Y-101818472D01*
X184698374Y-101818707D01*
X184697313Y-101826763D01*
X184697313Y-101826764D01*
X184695071Y-101843792D01*
X184682500Y-101939272D01*
X184682500Y-102164727D01*
X184698374Y-102285292D01*
X184695399Y-102285683D01*
X184695399Y-102318316D01*
X184698374Y-102318708D01*
X184682500Y-102439272D01*
X184682500Y-102664727D01*
X184698374Y-102785292D01*
X184695399Y-102785683D01*
X184695399Y-102818316D01*
X184698374Y-102818708D01*
X184697313Y-102826762D01*
X184697313Y-102826764D01*
X184695306Y-102842012D01*
X184682500Y-102939272D01*
X184682500Y-103164727D01*
X184693499Y-103248271D01*
X184696088Y-103267934D01*
X184698374Y-103285292D01*
X184695399Y-103285683D01*
X184695399Y-103318316D01*
X184698374Y-103318708D01*
X184697313Y-103326762D01*
X184697313Y-103326764D01*
X184695024Y-103344154D01*
X184682500Y-103439272D01*
X184682500Y-103664727D01*
X184698088Y-103783121D01*
X184698148Y-103783249D01*
X184698135Y-103783480D01*
X184698374Y-103785292D01*
X184698034Y-103785336D01*
X184697263Y-103799547D01*
X184698466Y-103818542D01*
X184697381Y-103826598D01*
X184697313Y-103826764D01*
X184695249Y-103842442D01*
X184681070Y-103874242D01*
X184667029Y-103905983D01*
X184666872Y-103906086D01*
X184666797Y-103906256D01*
X184637731Y-103925307D01*
X184608704Y-103944453D01*
X184608467Y-103944488D01*
X184608361Y-103944558D01*
X184607980Y-103944561D01*
X184572357Y-103949900D01*
X184271797Y-103949900D01*
X184204758Y-103930215D01*
X184202960Y-103929038D01*
X184098547Y-103859271D01*
X184098540Y-103859267D01*
X183934667Y-103791390D01*
X183934658Y-103791387D01*
X183760694Y-103756784D01*
X183760691Y-103756784D01*
X183583309Y-103756784D01*
X183583306Y-103756784D01*
X183409341Y-103791387D01*
X183409332Y-103791390D01*
X183245459Y-103859267D01*
X183245446Y-103859274D01*
X183097965Y-103957819D01*
X183097961Y-103957822D01*
X182972538Y-104083245D01*
X182972535Y-104083249D01*
X182873990Y-104230730D01*
X182873983Y-104230743D01*
X182806106Y-104394616D01*
X182806103Y-104394625D01*
X182771500Y-104568588D01*
X182771500Y-104568593D01*
X182771500Y-104745975D01*
X182771500Y-104745977D01*
X182771499Y-104745977D01*
X182778718Y-104782264D01*
X182777554Y-104795272D01*
X182781093Y-104807844D01*
X182774500Y-104829400D01*
X182772491Y-104851856D01*
X182764478Y-104862170D01*
X182760659Y-104874659D01*
X182743457Y-104889230D01*
X182729628Y-104907033D01*
X182716094Y-104912410D01*
X182707347Y-104919820D01*
X182673486Y-104929338D01*
X182673373Y-104929384D01*
X182673221Y-104929404D01*
X182582764Y-104941313D01*
X182582533Y-104941408D01*
X182574272Y-104942502D01*
X182554281Y-104939399D01*
X182541684Y-104939399D01*
X182541292Y-104942374D01*
X182533237Y-104941313D01*
X182533236Y-104941313D01*
X182499344Y-104936851D01*
X182420727Y-104926500D01*
X182420720Y-104926500D01*
X182195280Y-104926500D01*
X182195272Y-104926500D01*
X182116656Y-104936851D01*
X182082764Y-104941313D01*
X182082762Y-104941313D01*
X182074708Y-104942374D01*
X182074316Y-104939399D01*
X182041684Y-104939399D01*
X182041292Y-104942374D01*
X182033237Y-104941313D01*
X182033236Y-104941313D01*
X181999344Y-104936851D01*
X181920727Y-104926500D01*
X181920720Y-104926500D01*
X181695280Y-104926500D01*
X181695272Y-104926500D01*
X181616656Y-104936851D01*
X181582764Y-104941313D01*
X181582762Y-104941313D01*
X181574708Y-104942374D01*
X181574316Y-104939399D01*
X181541684Y-104939399D01*
X181541292Y-104942374D01*
X181533237Y-104941313D01*
X181533236Y-104941313D01*
X181499344Y-104936851D01*
X181420727Y-104926500D01*
X181420720Y-104926500D01*
X181195280Y-104926500D01*
X181195272Y-104926500D01*
X181116656Y-104936851D01*
X181082764Y-104941313D01*
X181082762Y-104941313D01*
X181074708Y-104942374D01*
X181074316Y-104939399D01*
X181041684Y-104939399D01*
X181041292Y-104942374D01*
X181033237Y-104941313D01*
X181033236Y-104941313D01*
X180999344Y-104936851D01*
X180920727Y-104926500D01*
X180920720Y-104926500D01*
X180695280Y-104926500D01*
X180695272Y-104926500D01*
X180616656Y-104936851D01*
X180582764Y-104941313D01*
X180582762Y-104941313D01*
X180574708Y-104942374D01*
X180574316Y-104939399D01*
X180541684Y-104939399D01*
X180541292Y-104942374D01*
X180533237Y-104941313D01*
X180533236Y-104941313D01*
X180499344Y-104936851D01*
X180420727Y-104926500D01*
X180420720Y-104926500D01*
X180297892Y-104926500D01*
X180230853Y-104906815D01*
X180185098Y-104854011D01*
X180175154Y-104784853D01*
X180204179Y-104721297D01*
X180210211Y-104714819D01*
X180310103Y-104614926D01*
X180310106Y-104614923D01*
X180406575Y-104470547D01*
X180407085Y-104469317D01*
X180441452Y-104386345D01*
X180473024Y-104310124D01*
X180486670Y-104241523D01*
X180506900Y-104139822D01*
X180506900Y-103966177D01*
X180473025Y-103795881D01*
X180473024Y-103795880D01*
X180473024Y-103795876D01*
X180468640Y-103785292D01*
X180406578Y-103635459D01*
X180406571Y-103635446D01*
X180310106Y-103491077D01*
X180310103Y-103491073D01*
X180187326Y-103368296D01*
X180187322Y-103368293D01*
X180042953Y-103271828D01*
X180042940Y-103271821D01*
X179882528Y-103205377D01*
X179882518Y-103205374D01*
X179712222Y-103171500D01*
X179712220Y-103171500D01*
X179538580Y-103171500D01*
X179538578Y-103171500D01*
X179368281Y-103205374D01*
X179368271Y-103205377D01*
X179207859Y-103271821D01*
X179207846Y-103271828D01*
X179063477Y-103368293D01*
X179063473Y-103368296D01*
X179008781Y-103422989D01*
X178947458Y-103456474D01*
X178877766Y-103451490D01*
X178821833Y-103409618D01*
X178797416Y-103344154D01*
X178797100Y-103335308D01*
X178797100Y-102064909D01*
X178797102Y-102057286D01*
X178797114Y-102057240D01*
X178797109Y-102035485D01*
X178797156Y-102035324D01*
X178797147Y-101984132D01*
X178797148Y-101984132D01*
X178797140Y-101940822D01*
X181188899Y-101940822D01*
X181222774Y-102111118D01*
X181222777Y-102111128D01*
X181289221Y-102271540D01*
X181289228Y-102271553D01*
X181385693Y-102415922D01*
X181385696Y-102415926D01*
X181508473Y-102538703D01*
X181508477Y-102538706D01*
X181652846Y-102635171D01*
X181652859Y-102635178D01*
X181786548Y-102690553D01*
X181813276Y-102701624D01*
X181813280Y-102701624D01*
X181813281Y-102701625D01*
X181983577Y-102735500D01*
X181983580Y-102735500D01*
X182157222Y-102735500D01*
X182271794Y-102712709D01*
X182327524Y-102701624D01*
X182474541Y-102640728D01*
X182487940Y-102635178D01*
X182487940Y-102635177D01*
X182487947Y-102635175D01*
X182632323Y-102538706D01*
X182755106Y-102415923D01*
X182851575Y-102271547D01*
X182918024Y-102111124D01*
X182935252Y-102024515D01*
X182951900Y-101940822D01*
X182951900Y-101767177D01*
X182918025Y-101596881D01*
X182918024Y-101596880D01*
X182918024Y-101596876D01*
X182873214Y-101488694D01*
X182851578Y-101436459D01*
X182851571Y-101436446D01*
X182755106Y-101292077D01*
X182755103Y-101292073D01*
X182632326Y-101169296D01*
X182632322Y-101169293D01*
X182487953Y-101072828D01*
X182487940Y-101072821D01*
X182327528Y-101006377D01*
X182327518Y-101006374D01*
X182157222Y-100972500D01*
X182157220Y-100972500D01*
X181983580Y-100972500D01*
X181983578Y-100972500D01*
X181813281Y-101006374D01*
X181813271Y-101006377D01*
X181652859Y-101072821D01*
X181652846Y-101072828D01*
X181508477Y-101169293D01*
X181508473Y-101169296D01*
X181385696Y-101292073D01*
X181385693Y-101292077D01*
X181289228Y-101436446D01*
X181289221Y-101436459D01*
X181222777Y-101596871D01*
X181222774Y-101596881D01*
X181188900Y-101767177D01*
X181188900Y-101767180D01*
X181188900Y-101940820D01*
X181188900Y-101940822D01*
X181188899Y-101940822D01*
X178797140Y-101940822D01*
X178797133Y-101901198D01*
X178797133Y-101901195D01*
X178797132Y-101901194D01*
X178774059Y-101785300D01*
X178768952Y-101759654D01*
X178764745Y-101738523D01*
X178701247Y-101585291D01*
X178609079Y-101447388D01*
X178609077Y-101447386D01*
X178609073Y-101447380D01*
X178491785Y-101330117D01*
X178491783Y-101330115D01*
X178371958Y-101250064D01*
X178353860Y-101237973D01*
X178353858Y-101237972D01*
X178353856Y-101237971D01*
X178333112Y-101229380D01*
X178310169Y-101219878D01*
X178255764Y-101176041D01*
X178233695Y-101109748D01*
X178250971Y-101042047D01*
X178269931Y-101017637D01*
X178651483Y-100636086D01*
X178896750Y-100390819D01*
X178958073Y-100357334D01*
X178984431Y-100354500D01*
X179029822Y-100354500D01*
X179146629Y-100331265D01*
X179200124Y-100320624D01*
X179341513Y-100262059D01*
X179360540Y-100254178D01*
X179360540Y-100254177D01*
X179360547Y-100254175D01*
X179504923Y-100157706D01*
X179627706Y-100034923D01*
X179724175Y-99890547D01*
X179726952Y-99883844D01*
X179760852Y-99802000D01*
X179790624Y-99730124D01*
X179809215Y-99636661D01*
X179824500Y-99559822D01*
X179824500Y-99386177D01*
X179790625Y-99215881D01*
X179790624Y-99215880D01*
X179790624Y-99215876D01*
X179788009Y-99209562D01*
X179724178Y-99055459D01*
X179724171Y-99055446D01*
X179627706Y-98911077D01*
X179627703Y-98911073D01*
X179504926Y-98788296D01*
X179504922Y-98788293D01*
X179360553Y-98691828D01*
X179360540Y-98691821D01*
X179200128Y-98625377D01*
X179200118Y-98625374D01*
X179029822Y-98591500D01*
X179029820Y-98591500D01*
X178856180Y-98591500D01*
X178856178Y-98591500D01*
X178685881Y-98625374D01*
X178685871Y-98625377D01*
X178525459Y-98691821D01*
X178525446Y-98691828D01*
X178381077Y-98788293D01*
X178381073Y-98788296D01*
X178258296Y-98911073D01*
X178258293Y-98911077D01*
X178161828Y-99055446D01*
X178161821Y-99055459D01*
X178095379Y-99215868D01*
X178095374Y-99215881D01*
X178061500Y-99386177D01*
X178061500Y-99471711D01*
X178041815Y-99538750D01*
X178025181Y-99559392D01*
X177799984Y-99784589D01*
X177565837Y-100018735D01*
X177504514Y-100052220D01*
X177434822Y-100047236D01*
X177430718Y-100045621D01*
X177354842Y-100014203D01*
X177192141Y-99981860D01*
X177026253Y-99981881D01*
X177026250Y-99981881D01*
X176863568Y-100014261D01*
X176863566Y-100014261D01*
X176710319Y-100077758D01*
X176710315Y-100077761D01*
X176572396Y-100169938D01*
X176514058Y-100228291D01*
X176514057Y-100228290D01*
X176514049Y-100228298D01*
X176514047Y-100228302D01*
X176512207Y-100230141D01*
X176510390Y-100231958D01*
X176372902Y-100369445D01*
X176372800Y-100369620D01*
X176370423Y-100371999D01*
X176370412Y-100372013D01*
X176278237Y-100509915D01*
X176278233Y-100509922D01*
X176219496Y-100651666D01*
X176175646Y-100706063D01*
X176109349Y-100728118D01*
X176104945Y-100728196D01*
X176075556Y-100728196D01*
X176075552Y-100728197D01*
X175912874Y-100760556D01*
X175912866Y-100760558D01*
X175759616Y-100824036D01*
X175711107Y-100856448D01*
X175644430Y-100877324D01*
X175577050Y-100858838D01*
X175530361Y-100806858D01*
X175530120Y-100806351D01*
X175525340Y-100796243D01*
X175515581Y-100759820D01*
X175474338Y-100688386D01*
X175472166Y-100683791D01*
X175467492Y-100654099D01*
X175460405Y-100624884D01*
X175462116Y-100619939D01*
X175461303Y-100614771D01*
X175473427Y-100587260D01*
X175483258Y-100558857D01*
X175488868Y-100552222D01*
X175489480Y-100550835D01*
X175490755Y-100549990D01*
X175496559Y-100543127D01*
X175536080Y-100503588D01*
X175628200Y-100365653D01*
X175691645Y-100212397D01*
X175723975Y-100049710D01*
X175723951Y-99883842D01*
X175691572Y-99721164D01*
X175628083Y-99567928D01*
X175535922Y-99430019D01*
X175512443Y-99406542D01*
X175477276Y-99371378D01*
X175477271Y-99371374D01*
X175349946Y-99244049D01*
X175349945Y-99244047D01*
X175333797Y-99227898D01*
X175333795Y-99227896D01*
X175195876Y-99135741D01*
X175195866Y-99135736D01*
X175042617Y-99072258D01*
X175042611Y-99072256D01*
X174879926Y-99039896D01*
X174879924Y-99039896D01*
X174714044Y-99039896D01*
X174714042Y-99039896D01*
X174551356Y-99072256D01*
X174551350Y-99072258D01*
X174398101Y-99135736D01*
X174398091Y-99135741D01*
X174260172Y-99227896D01*
X174260170Y-99227898D01*
X174244023Y-99244047D01*
X174244020Y-99244050D01*
X174188022Y-99300047D01*
X174126699Y-99333531D01*
X174068250Y-99332140D01*
X173941960Y-99298300D01*
X173880390Y-99298300D01*
X173014297Y-99298300D01*
X172944155Y-99317095D01*
X172861161Y-99339333D01*
X172861156Y-99339336D01*
X172749976Y-99403524D01*
X172749938Y-99403548D01*
X172747524Y-99404942D01*
X172723867Y-99418600D01*
X172719362Y-99423104D01*
X172708016Y-99430362D01*
X172686880Y-99436517D01*
X172667563Y-99447066D01*
X172641205Y-99449900D01*
X172043643Y-99449900D01*
X171976604Y-99430215D01*
X171930849Y-99377411D01*
X171920704Y-99342085D01*
X171917755Y-99319685D01*
X171928521Y-99250650D01*
X171974901Y-99198394D01*
X172040694Y-99179500D01*
X172093291Y-99179500D01*
X172207863Y-99156709D01*
X172263593Y-99145624D01*
X172424016Y-99079175D01*
X172568392Y-98982706D01*
X172691175Y-98859923D01*
X172787644Y-98715547D01*
X172854093Y-98555124D01*
X172858603Y-98532449D01*
X172890985Y-98470539D01*
X172892482Y-98469014D01*
X174289800Y-97071698D01*
X174333551Y-96995918D01*
X174369067Y-96934402D01*
X174378530Y-96899086D01*
X174383210Y-96889120D01*
X174399359Y-96870876D01*
X174412039Y-96850074D01*
X174422104Y-96845184D01*
X174429522Y-96836805D01*
X174452971Y-96830189D01*
X174474886Y-96819543D01*
X174489913Y-96819766D01*
X174496767Y-96817833D01*
X174503778Y-96819972D01*
X174519642Y-96820208D01*
X174552847Y-96826813D01*
X174663384Y-96848802D01*
X174663387Y-96848802D01*
X174837029Y-96848802D01*
X174974377Y-96821481D01*
X175007331Y-96814926D01*
X175123050Y-96766993D01*
X175192517Y-96759525D01*
X175254997Y-96790800D01*
X175290649Y-96850889D01*
X175289247Y-96913768D01*
X175289660Y-96913851D01*
X175289193Y-96916198D01*
X175289163Y-96917546D01*
X175288471Y-96919825D01*
X175254596Y-97090126D01*
X175254596Y-97090129D01*
X175254596Y-97263769D01*
X175254596Y-97263771D01*
X175254595Y-97263771D01*
X175288470Y-97434067D01*
X175288473Y-97434077D01*
X175354917Y-97594489D01*
X175354924Y-97594502D01*
X175451389Y-97738871D01*
X175451392Y-97738875D01*
X175574169Y-97861652D01*
X175574173Y-97861655D01*
X175718542Y-97958120D01*
X175718555Y-97958127D01*
X175788356Y-97987039D01*
X175878972Y-98024573D01*
X175878976Y-98024573D01*
X175878977Y-98024574D01*
X176049273Y-98058449D01*
X176049276Y-98058449D01*
X176222918Y-98058449D01*
X176351891Y-98032794D01*
X176393220Y-98024573D01*
X176553643Y-97958124D01*
X176698019Y-97861655D01*
X176820802Y-97738872D01*
X176917271Y-97594496D01*
X176920084Y-97587706D01*
X176959441Y-97492688D01*
X176983720Y-97434073D01*
X177001309Y-97345650D01*
X177017596Y-97263771D01*
X177017596Y-97189263D01*
X177037281Y-97122224D01*
X177053910Y-97101587D01*
X178033019Y-96122477D01*
X178094342Y-96088993D01*
X178164034Y-96093977D01*
X178219967Y-96135849D01*
X178244384Y-96201313D01*
X178244700Y-96210159D01*
X178244700Y-96352820D01*
X178244700Y-96352822D01*
X178244699Y-96352822D01*
X178278574Y-96523118D01*
X178278577Y-96523128D01*
X178345021Y-96683540D01*
X178345028Y-96683553D01*
X178441493Y-96827922D01*
X178441496Y-96827926D01*
X178564273Y-96950703D01*
X178564277Y-96950706D01*
X178708646Y-97047171D01*
X178708659Y-97047178D01*
X178869071Y-97113622D01*
X178869076Y-97113624D01*
X178869080Y-97113624D01*
X178869081Y-97113625D01*
X179039377Y-97147500D01*
X179039380Y-97147500D01*
X179213022Y-97147500D01*
X179377311Y-97114820D01*
X179383324Y-97113624D01*
X179517553Y-97058025D01*
X179543740Y-97047178D01*
X179543740Y-97047177D01*
X179543747Y-97047175D01*
X179688123Y-96950706D01*
X179810906Y-96827923D01*
X179907375Y-96683547D01*
X179915171Y-96664727D01*
X179961590Y-96552660D01*
X179973824Y-96523124D01*
X179990502Y-96439280D01*
X180007700Y-96352822D01*
X180007700Y-96179177D01*
X179973825Y-96008881D01*
X179973824Y-96008880D01*
X179973824Y-96008876D01*
X179969824Y-95999218D01*
X179907378Y-95848459D01*
X179907371Y-95848446D01*
X179810906Y-95704077D01*
X179810903Y-95704073D01*
X179688126Y-95581296D01*
X179688122Y-95581293D01*
X179543753Y-95484828D01*
X179543740Y-95484821D01*
X179383328Y-95418377D01*
X179383318Y-95418374D01*
X179213022Y-95384500D01*
X179213020Y-95384500D01*
X179070360Y-95384500D01*
X179049114Y-95378261D01*
X179027026Y-95376682D01*
X179016242Y-95368609D01*
X179003321Y-95364815D01*
X178988821Y-95348081D01*
X178971093Y-95334810D01*
X178966385Y-95322189D01*
X178957566Y-95312011D01*
X178954414Y-95290093D01*
X178946676Y-95269346D01*
X178949538Y-95256185D01*
X178947622Y-95242853D01*
X178956821Y-95222709D01*
X178961528Y-95201073D01*
X178974796Y-95183347D01*
X178976647Y-95179297D01*
X178982679Y-95172819D01*
X179029079Y-95126419D01*
X179090402Y-95092934D01*
X179116760Y-95090100D01*
X180932500Y-95090100D01*
X180999539Y-95109785D01*
X181045294Y-95162589D01*
X181056500Y-95214100D01*
X181056500Y-95283820D01*
X181056500Y-95283822D01*
X181056499Y-95283822D01*
X181090374Y-95454118D01*
X181090377Y-95454128D01*
X181156821Y-95614540D01*
X181156828Y-95614553D01*
X181253293Y-95758922D01*
X181253296Y-95758926D01*
X181376073Y-95881703D01*
X181376077Y-95881706D01*
X181520446Y-95978171D01*
X181520459Y-95978178D01*
X181680871Y-96044622D01*
X181680876Y-96044624D01*
X181680880Y-96044624D01*
X181680881Y-96044625D01*
X181851177Y-96078500D01*
X181851180Y-96078500D01*
X182024822Y-96078500D01*
X182147375Y-96054122D01*
X182195124Y-96044624D01*
X182355547Y-95978175D01*
X182499923Y-95881706D01*
X182622706Y-95758923D01*
X182719175Y-95614547D01*
X182785624Y-95454124D01*
X182802634Y-95368609D01*
X182819500Y-95283822D01*
X182819500Y-95214100D01*
X182839185Y-95147061D01*
X182891989Y-95101306D01*
X182943500Y-95090100D01*
X183417140Y-95090100D01*
X183417142Y-95090100D01*
X183570276Y-95049067D01*
X183707572Y-94969800D01*
X183819674Y-94857698D01*
X184484943Y-94192428D01*
X184546264Y-94158945D01*
X184615955Y-94163929D01*
G37*
G04 #@! TD.AperFunction*
G04 #@! TA.AperFunction,Conductor*
G36*
X164238930Y-94231348D02*
G01*
X164294865Y-94273217D01*
X164319284Y-94338681D01*
X164317217Y-94371723D01*
X164314608Y-94384834D01*
X164314608Y-94384835D01*
X164314604Y-94550709D01*
X164314604Y-94550713D01*
X164346957Y-94713395D01*
X164346959Y-94713404D01*
X164410431Y-94866652D01*
X164410438Y-94866664D01*
X164502581Y-95004575D01*
X164502584Y-95004578D01*
X164502585Y-95004580D01*
X164505186Y-95007181D01*
X164505193Y-95007193D01*
X164547066Y-95049066D01*
X164550176Y-95052176D01*
X164561226Y-95063226D01*
X164561227Y-95063228D01*
X164561228Y-95063228D01*
X164561229Y-95063229D01*
X164612923Y-95114926D01*
X164612925Y-95114927D01*
X164618756Y-95120758D01*
X164618771Y-95120771D01*
X164662713Y-95164713D01*
X164704247Y-95206247D01*
X164704772Y-95206678D01*
X164704774Y-95206680D01*
X164842670Y-95298829D01*
X164910096Y-95326764D01*
X164995889Y-95362309D01*
X164995890Y-95362309D01*
X164995892Y-95362310D01*
X165081173Y-95379283D01*
X165143079Y-95411673D01*
X165177647Y-95472392D01*
X165178587Y-95476713D01*
X165195520Y-95561870D01*
X165205916Y-95586975D01*
X165258977Y-95715110D01*
X165327908Y-95818301D01*
X165351107Y-95853030D01*
X165353729Y-95855652D01*
X165353752Y-95855692D01*
X165409733Y-95911673D01*
X165409734Y-95911675D01*
X165437881Y-95939831D01*
X165437935Y-95939892D01*
X165443017Y-95944972D01*
X165443018Y-95944974D01*
X165450933Y-95952887D01*
X165450935Y-95952889D01*
X165459754Y-95961711D01*
X165459768Y-95961737D01*
X165537961Y-96039908D01*
X165553360Y-96055303D01*
X165653921Y-96122478D01*
X165691279Y-96147433D01*
X165691286Y-96147436D01*
X165844512Y-96210888D01*
X165844515Y-96210889D01*
X165844520Y-96210891D01*
X165929686Y-96227826D01*
X165991600Y-96260207D01*
X166026178Y-96320921D01*
X166027120Y-96325252D01*
X166044063Y-96410429D01*
X166044065Y-96410434D01*
X166107544Y-96563685D01*
X166197300Y-96698013D01*
X166199706Y-96701613D01*
X166221744Y-96723650D01*
X166221746Y-96723652D01*
X166401420Y-96903327D01*
X166401775Y-96903619D01*
X166472207Y-96950703D01*
X166539688Y-96995815D01*
X166692942Y-97059331D01*
X166855645Y-97091722D01*
X166890467Y-97091726D01*
X166957504Y-97111419D01*
X167003253Y-97164228D01*
X167005010Y-97168268D01*
X167062100Y-97306124D01*
X167151054Y-97439280D01*
X167154238Y-97444046D01*
X167154244Y-97444054D01*
X167156857Y-97446667D01*
X167156870Y-97446690D01*
X167212873Y-97502693D01*
X167240839Y-97530665D01*
X167240975Y-97530818D01*
X167261500Y-97551335D01*
X167261563Y-97551451D01*
X167334965Y-97624826D01*
X167368461Y-97686143D01*
X167363490Y-97755835D01*
X167334982Y-97800204D01*
X167240701Y-97894485D01*
X167144236Y-98038854D01*
X167144229Y-98038867D01*
X167077785Y-98199279D01*
X167077782Y-98199289D01*
X167043908Y-98369585D01*
X167043908Y-98369586D01*
X167043908Y-98369588D01*
X167043908Y-98543228D01*
X167043908Y-98543230D01*
X167043907Y-98543230D01*
X167077782Y-98713526D01*
X167077785Y-98713536D01*
X167144229Y-98873948D01*
X167144236Y-98873961D01*
X167181419Y-98929609D01*
X167202297Y-98996287D01*
X167183812Y-99063667D01*
X167131833Y-99110357D01*
X167078317Y-99122500D01*
X166862298Y-99122500D01*
X166825432Y-99125401D01*
X166825426Y-99125402D01*
X166667606Y-99171254D01*
X166667603Y-99171255D01*
X166526140Y-99254915D01*
X166519974Y-99259699D01*
X166518174Y-99257379D01*
X166468913Y-99284230D01*
X166399225Y-99279193D01*
X166377738Y-99268699D01*
X166262236Y-99197741D01*
X166239503Y-99172557D01*
X166216339Y-99147748D01*
X166216065Y-99146592D01*
X166215418Y-99145876D01*
X166214334Y-99139293D01*
X166203144Y-99092086D01*
X166203144Y-99034612D01*
X166169269Y-98864316D01*
X166169268Y-98864315D01*
X166169268Y-98864311D01*
X166167452Y-98859926D01*
X166102822Y-98703894D01*
X166102815Y-98703881D01*
X166006350Y-98559512D01*
X166006347Y-98559508D01*
X165883570Y-98436731D01*
X165883566Y-98436728D01*
X165739197Y-98340263D01*
X165739184Y-98340256D01*
X165578772Y-98273812D01*
X165578762Y-98273809D01*
X165408466Y-98239935D01*
X165408464Y-98239935D01*
X165234824Y-98239935D01*
X165234822Y-98239935D01*
X165064525Y-98273809D01*
X165064515Y-98273812D01*
X164904103Y-98340256D01*
X164904090Y-98340263D01*
X164759721Y-98436728D01*
X164759717Y-98436731D01*
X164636940Y-98559508D01*
X164636937Y-98559512D01*
X164540472Y-98703881D01*
X164540465Y-98703894D01*
X164474021Y-98864306D01*
X164474018Y-98864316D01*
X164442515Y-99022692D01*
X164410130Y-99084603D01*
X164349414Y-99119177D01*
X164324720Y-99122054D01*
X164324727Y-99122238D01*
X164324733Y-99122309D01*
X164324730Y-99122309D01*
X164324734Y-99122405D01*
X164322298Y-99122500D01*
X164285432Y-99125401D01*
X164285426Y-99125402D01*
X164127606Y-99171254D01*
X164127603Y-99171255D01*
X163986137Y-99254917D01*
X163986128Y-99254924D01*
X163954521Y-99286531D01*
X163893197Y-99320016D01*
X163823506Y-99315030D01*
X163792674Y-99298223D01*
X163785491Y-99292862D01*
X163756923Y-99264294D01*
X163664208Y-99202344D01*
X163661605Y-99200401D01*
X163642494Y-99174948D01*
X163622076Y-99150517D01*
X163621659Y-99147200D01*
X163619653Y-99144528D01*
X163617336Y-99112778D01*
X163613369Y-99081192D01*
X163614811Y-99078177D01*
X163614568Y-99074844D01*
X163629787Y-99046874D01*
X163643524Y-99018164D01*
X163646454Y-99016246D01*
X163647964Y-99013472D01*
X163664741Y-99004279D01*
X163696766Y-98983322D01*
X163782516Y-98954908D01*
X163929350Y-98864340D01*
X164051340Y-98742350D01*
X164141908Y-98595516D01*
X164196174Y-98431753D01*
X164206500Y-98330677D01*
X164206499Y-97757324D01*
X164204614Y-97738875D01*
X164196174Y-97656247D01*
X164179080Y-97604661D01*
X164141908Y-97492484D01*
X164061232Y-97361688D01*
X164042793Y-97294297D01*
X164045155Y-97272401D01*
X164076500Y-97114820D01*
X164076500Y-96941177D01*
X164045155Y-96783598D01*
X164051382Y-96714006D01*
X164061234Y-96694309D01*
X164067869Y-96683553D01*
X164141908Y-96563516D01*
X164196174Y-96399753D01*
X164206500Y-96298677D01*
X164206499Y-95725324D01*
X164205649Y-95717007D01*
X164196174Y-95624247D01*
X164181941Y-95581296D01*
X164141908Y-95460484D01*
X164051340Y-95313650D01*
X163929350Y-95191660D01*
X163814400Y-95120758D01*
X163782518Y-95101093D01*
X163782513Y-95101091D01*
X163757897Y-95092934D01*
X163618753Y-95046826D01*
X163618751Y-95046825D01*
X163584772Y-95043354D01*
X163520080Y-95016957D01*
X163479930Y-94959775D01*
X163477068Y-94889964D01*
X163494285Y-94851089D01*
X163541539Y-94780400D01*
X163605047Y-94627154D01*
X163622024Y-94541875D01*
X163654418Y-94479972D01*
X163715139Y-94445407D01*
X163719441Y-94444472D01*
X163804663Y-94427528D01*
X163957920Y-94364059D01*
X164095851Y-94271909D01*
X164095856Y-94271903D01*
X164095899Y-94271868D01*
X164098473Y-94269293D01*
X164098477Y-94269292D01*
X164107917Y-94259850D01*
X164169238Y-94226366D01*
X164238930Y-94231348D01*
G37*
G04 #@! TD.AperFunction*
G04 #@! TA.AperFunction,Conductor*
G36*
X156161703Y-95686779D02*
G01*
X156168181Y-95692811D01*
X156283076Y-95807706D01*
X156413391Y-95894779D01*
X156458196Y-95948391D01*
X156468500Y-95997881D01*
X156468500Y-96425669D01*
X156468501Y-96425687D01*
X156478825Y-96526752D01*
X156491064Y-96563685D01*
X156530780Y-96683540D01*
X156533092Y-96690515D01*
X156533093Y-96690518D01*
X156545326Y-96710350D01*
X156623660Y-96837350D01*
X156745650Y-96959340D01*
X156892484Y-97049908D01*
X157056247Y-97104174D01*
X157157323Y-97114500D01*
X157755676Y-97114499D01*
X157755684Y-97114498D01*
X157755687Y-97114498D01*
X157811030Y-97108844D01*
X157856753Y-97104174D01*
X158020516Y-97049908D01*
X158167350Y-96959340D01*
X158281319Y-96845371D01*
X158342642Y-96811886D01*
X158412334Y-96816870D01*
X158456681Y-96845371D01*
X158570650Y-96959340D01*
X158717484Y-97049908D01*
X158881247Y-97104174D01*
X158982323Y-97114500D01*
X159580676Y-97114499D01*
X159580684Y-97114498D01*
X159580687Y-97114498D01*
X159636030Y-97108844D01*
X159681753Y-97104174D01*
X159845516Y-97049908D01*
X159992350Y-96959340D01*
X160114340Y-96837350D01*
X160124128Y-96821481D01*
X160139108Y-96797195D01*
X160191056Y-96750470D01*
X160244647Y-96738291D01*
X160411821Y-96738291D01*
X160432185Y-96734240D01*
X160494854Y-96721774D01*
X160564444Y-96728001D01*
X160606726Y-96755709D01*
X160682964Y-96831946D01*
X160829711Y-96922462D01*
X160876435Y-96974410D01*
X160887656Y-97043373D01*
X160859813Y-97107455D01*
X160829711Y-97133538D01*
X160682962Y-97224054D01*
X160561055Y-97345961D01*
X160561052Y-97345965D01*
X160470551Y-97492688D01*
X160470546Y-97492699D01*
X160416319Y-97656347D01*
X160406000Y-97757345D01*
X160406000Y-97762267D01*
X160386315Y-97829306D01*
X160333511Y-97875061D01*
X160264353Y-97885005D01*
X160200797Y-97855980D01*
X160176462Y-97827364D01*
X160114342Y-97726653D01*
X160114339Y-97726649D01*
X159992351Y-97604661D01*
X159992350Y-97604660D01*
X159845516Y-97514092D01*
X159681753Y-97459826D01*
X159681751Y-97459825D01*
X159580678Y-97449500D01*
X158982330Y-97449500D01*
X158982312Y-97449501D01*
X158881247Y-97459825D01*
X158717484Y-97514092D01*
X158717481Y-97514093D01*
X158570648Y-97604661D01*
X158456681Y-97718629D01*
X158395358Y-97752114D01*
X158325666Y-97747130D01*
X158281319Y-97718629D01*
X158167351Y-97604661D01*
X158167350Y-97604660D01*
X158020516Y-97514092D01*
X157856753Y-97459826D01*
X157856751Y-97459825D01*
X157755678Y-97449500D01*
X157157330Y-97449500D01*
X157157312Y-97449501D01*
X157056247Y-97459825D01*
X156892484Y-97514092D01*
X156892481Y-97514093D01*
X156745648Y-97604661D01*
X156623661Y-97726648D01*
X156533093Y-97873481D01*
X156533092Y-97873484D01*
X156478826Y-98037247D01*
X156478826Y-98037248D01*
X156478825Y-98037248D01*
X156468500Y-98138315D01*
X156468500Y-98439119D01*
X156448815Y-98506158D01*
X156413391Y-98542221D01*
X156283076Y-98629293D01*
X156283073Y-98629296D01*
X156168181Y-98744189D01*
X156106858Y-98777674D01*
X156037166Y-98772690D01*
X155981233Y-98730818D01*
X155956816Y-98665354D01*
X155956500Y-98656508D01*
X155956500Y-95780492D01*
X155976185Y-95713453D01*
X156028989Y-95667698D01*
X156098147Y-95657754D01*
X156161703Y-95686779D01*
G37*
G04 #@! TD.AperFunction*
G04 #@! TA.AperFunction,Conductor*
G36*
X161636539Y-96031685D02*
G01*
X161682294Y-96084489D01*
X161693500Y-96136000D01*
X161693500Y-97920000D01*
X161673815Y-97987039D01*
X161621011Y-98032794D01*
X161569500Y-98044000D01*
X161317500Y-98044000D01*
X161250461Y-98024315D01*
X161204706Y-97971511D01*
X161193500Y-97920000D01*
X161193500Y-96136000D01*
X161213185Y-96068961D01*
X161265989Y-96023206D01*
X161317500Y-96012000D01*
X161569500Y-96012000D01*
X161636539Y-96031685D01*
G37*
G04 #@! TD.AperFunction*
G04 #@! TA.AperFunction,Conductor*
G36*
X187572857Y-95656650D02*
G01*
X187581819Y-95655362D01*
X187605859Y-95666340D01*
X187631211Y-95673785D01*
X187637138Y-95680625D01*
X187645375Y-95684387D01*
X187659664Y-95706621D01*
X187676966Y-95726589D01*
X187679253Y-95737103D01*
X187683149Y-95743165D01*
X187688172Y-95778100D01*
X187688172Y-95828920D01*
X187688172Y-95828922D01*
X187688171Y-95828922D01*
X187722046Y-95999218D01*
X187722048Y-95999224D01*
X187729461Y-96017120D01*
X187738900Y-96064573D01*
X187738900Y-96677997D01*
X187730255Y-96707437D01*
X187723732Y-96737424D01*
X187719977Y-96742439D01*
X187719215Y-96745036D01*
X187702581Y-96765678D01*
X187554678Y-96913581D01*
X187493355Y-96947066D01*
X187466997Y-96949900D01*
X187393139Y-96949900D01*
X187326100Y-96930215D01*
X187280345Y-96877411D01*
X187270200Y-96842086D01*
X187267196Y-96819270D01*
X187269409Y-96785529D01*
X187267626Y-96785295D01*
X187270070Y-96766733D01*
X187283500Y-96664720D01*
X187283500Y-96439280D01*
X187268687Y-96326764D01*
X187268686Y-96326763D01*
X187267626Y-96318705D01*
X187270689Y-96318301D01*
X187270689Y-96285698D01*
X187267626Y-96285295D01*
X187268687Y-96277236D01*
X187283500Y-96164720D01*
X187283500Y-95939280D01*
X187268687Y-95826764D01*
X187268686Y-95826763D01*
X187267626Y-95818705D01*
X187270689Y-95818301D01*
X187270689Y-95785698D01*
X187267626Y-95785295D01*
X187270704Y-95761915D01*
X187298970Y-95698018D01*
X187357295Y-95659547D01*
X187393643Y-95654100D01*
X187564172Y-95654100D01*
X187572857Y-95656650D01*
G37*
G04 #@! TD.AperFunction*
G04 #@! TA.AperFunction,Conductor*
G36*
X181366129Y-92048055D02*
G01*
X181383484Y-92059208D01*
X181442767Y-92104698D01*
X181582764Y-92162687D01*
X181695280Y-92177500D01*
X181695287Y-92177500D01*
X181920713Y-92177500D01*
X181920720Y-92177500D01*
X182033236Y-92162687D01*
X182033236Y-92162686D01*
X182041295Y-92161626D01*
X182041698Y-92164689D01*
X182074302Y-92164689D01*
X182074705Y-92161626D01*
X182082763Y-92162686D01*
X182082764Y-92162687D01*
X182195280Y-92177500D01*
X182195287Y-92177500D01*
X182420713Y-92177500D01*
X182420720Y-92177500D01*
X182533236Y-92162687D01*
X182533236Y-92162686D01*
X182541295Y-92161626D01*
X182541698Y-92164689D01*
X182574302Y-92164689D01*
X182574705Y-92161626D01*
X182582763Y-92162686D01*
X182582764Y-92162687D01*
X182695280Y-92177500D01*
X182695287Y-92177500D01*
X182920713Y-92177500D01*
X182920720Y-92177500D01*
X183033236Y-92162687D01*
X183033239Y-92162685D01*
X183038873Y-92161944D01*
X183038988Y-92161891D01*
X183039195Y-92161902D01*
X183041295Y-92161626D01*
X183041346Y-92162019D01*
X183055007Y-92162765D01*
X183074280Y-92161498D01*
X183082531Y-92162590D01*
X183082764Y-92162687D01*
X183164643Y-92173466D01*
X183197220Y-92187908D01*
X183228441Y-92201719D01*
X183228468Y-92201760D01*
X183228515Y-92201781D01*
X183247849Y-92231143D01*
X183266913Y-92260043D01*
X183266913Y-92260093D01*
X183266941Y-92260135D01*
X183267328Y-92294936D01*
X183267745Y-92329908D01*
X183267718Y-92329950D01*
X183267719Y-92330001D01*
X183249079Y-92359726D01*
X183230673Y-92389131D01*
X183230611Y-92389178D01*
X183230601Y-92389195D01*
X183230573Y-92389208D01*
X183217258Y-92399489D01*
X183207082Y-92406289D01*
X183207073Y-92406296D01*
X183084296Y-92529073D01*
X183084293Y-92529077D01*
X182987828Y-92673446D01*
X182987821Y-92673459D01*
X182921377Y-92833871D01*
X182921374Y-92833881D01*
X182887500Y-93004177D01*
X182887500Y-93004180D01*
X182887500Y-93177820D01*
X182887500Y-93177822D01*
X182887499Y-93177822D01*
X182921374Y-93348118D01*
X182921377Y-93348128D01*
X182987821Y-93508540D01*
X182987828Y-93508553D01*
X183084293Y-93652922D01*
X183084296Y-93652926D01*
X183105589Y-93674219D01*
X183139074Y-93735542D01*
X183134090Y-93805234D01*
X183092218Y-93861167D01*
X183026754Y-93885584D01*
X183017908Y-93885900D01*
X178736732Y-93885900D01*
X178660165Y-93906416D01*
X178583596Y-93926933D01*
X178583595Y-93926934D01*
X178541245Y-93951385D01*
X178469174Y-93992995D01*
X178458695Y-93999044D01*
X178446302Y-94006199D01*
X177388697Y-95063804D01*
X177327374Y-95097289D01*
X177257682Y-95092305D01*
X177201749Y-95050433D01*
X177177332Y-94984969D01*
X177179399Y-94951930D01*
X177181416Y-94941793D01*
X177191197Y-94892620D01*
X177191197Y-94718980D01*
X177191197Y-94718977D01*
X177157322Y-94548681D01*
X177157321Y-94548680D01*
X177157321Y-94548676D01*
X177149896Y-94530751D01*
X177090875Y-94388259D01*
X177090868Y-94388246D01*
X177032385Y-94300720D01*
X177011507Y-94234042D01*
X177023989Y-94182277D01*
X177022401Y-94181619D01*
X177068810Y-94069576D01*
X177091181Y-94015567D01*
X177108522Y-93928388D01*
X177125057Y-93845265D01*
X177125057Y-93671620D01*
X177091182Y-93501324D01*
X177091181Y-93501323D01*
X177091181Y-93501319D01*
X177027726Y-93348124D01*
X177024735Y-93340902D01*
X177024728Y-93340889D01*
X176956996Y-93239521D01*
X176936118Y-93172843D01*
X176954603Y-93105463D01*
X177006581Y-93058773D01*
X177012625Y-93056077D01*
X177065892Y-93034014D01*
X177210268Y-92937545D01*
X177333051Y-92814762D01*
X177429520Y-92670386D01*
X177495969Y-92509963D01*
X177519995Y-92389178D01*
X177529845Y-92339661D01*
X177529845Y-92297114D01*
X177549530Y-92230075D01*
X177602334Y-92184320D01*
X177670029Y-92174175D01*
X177695280Y-92177500D01*
X177695287Y-92177500D01*
X177920713Y-92177500D01*
X177920720Y-92177500D01*
X178033236Y-92162687D01*
X178033236Y-92162686D01*
X178041295Y-92161626D01*
X178041698Y-92164689D01*
X178074302Y-92164689D01*
X178074705Y-92161626D01*
X178082763Y-92162686D01*
X178082764Y-92162687D01*
X178195280Y-92177500D01*
X178195287Y-92177500D01*
X178420713Y-92177500D01*
X178420720Y-92177500D01*
X178533236Y-92162687D01*
X178533236Y-92162686D01*
X178541295Y-92161626D01*
X178541698Y-92164689D01*
X178574302Y-92164689D01*
X178574705Y-92161626D01*
X178582763Y-92162686D01*
X178582764Y-92162687D01*
X178695280Y-92177500D01*
X178695287Y-92177500D01*
X178920713Y-92177500D01*
X178920720Y-92177500D01*
X179033236Y-92162687D01*
X179033236Y-92162686D01*
X179041295Y-92161626D01*
X179041698Y-92164689D01*
X179074302Y-92164689D01*
X179074705Y-92161626D01*
X179082763Y-92162686D01*
X179082764Y-92162687D01*
X179195280Y-92177500D01*
X179195287Y-92177500D01*
X179420713Y-92177500D01*
X179420720Y-92177500D01*
X179533236Y-92162687D01*
X179533236Y-92162686D01*
X179541295Y-92161626D01*
X179541698Y-92164689D01*
X179574302Y-92164689D01*
X179574705Y-92161626D01*
X179582763Y-92162686D01*
X179582764Y-92162687D01*
X179695280Y-92177500D01*
X179695287Y-92177500D01*
X179920713Y-92177500D01*
X179920720Y-92177500D01*
X180033236Y-92162687D01*
X180033236Y-92162686D01*
X180041295Y-92161626D01*
X180041698Y-92164689D01*
X180074302Y-92164689D01*
X180074705Y-92161626D01*
X180082763Y-92162686D01*
X180082764Y-92162687D01*
X180195280Y-92177500D01*
X180195287Y-92177500D01*
X180420713Y-92177500D01*
X180420720Y-92177500D01*
X180533236Y-92162687D01*
X180533236Y-92162686D01*
X180541295Y-92161626D01*
X180541698Y-92164689D01*
X180574302Y-92164689D01*
X180574705Y-92161626D01*
X180582763Y-92162686D01*
X180582764Y-92162687D01*
X180695280Y-92177500D01*
X180695287Y-92177500D01*
X180920713Y-92177500D01*
X180920720Y-92177500D01*
X181033236Y-92162687D01*
X181173233Y-92104698D01*
X181232515Y-92059208D01*
X181297684Y-92034016D01*
X181366129Y-92048055D01*
G37*
G04 #@! TD.AperFunction*
G04 #@! TA.AperFunction,Conductor*
G36*
X169043490Y-92383178D02*
G01*
X169071168Y-92401672D01*
X169071170Y-92401673D01*
X169071174Y-92401675D01*
X169179106Y-92446381D01*
X169235049Y-92469553D01*
X169235052Y-92469553D01*
X169240884Y-92471323D01*
X169240347Y-92473092D01*
X169256501Y-92481540D01*
X169281796Y-92490682D01*
X169287000Y-92497488D01*
X169294591Y-92501458D01*
X169307899Y-92524822D01*
X169324235Y-92546187D01*
X169326249Y-92557036D01*
X169329173Y-92562169D01*
X169332088Y-92580596D01*
X169332500Y-92585634D01*
X169332500Y-92664720D01*
X169347313Y-92777236D01*
X169348375Y-92779801D01*
X169349453Y-92792979D01*
X169347651Y-92801684D01*
X169348804Y-92819270D01*
X169345800Y-92842086D01*
X169317533Y-92905983D01*
X169259208Y-92944453D01*
X169222861Y-92949900D01*
X168974600Y-92949900D01*
X168907561Y-92930215D01*
X168861806Y-92877411D01*
X168850600Y-92825900D01*
X168850600Y-92486281D01*
X168870285Y-92419242D01*
X168923089Y-92373487D01*
X168992247Y-92363543D01*
X169043490Y-92383178D01*
G37*
G04 #@! TD.AperFunction*
G04 #@! TD*
M02*
