G04 #@! TF.GenerationSoftware,KiCad,Pcbnew,(5.0.0-3-g5ebb6b6)*
G04 #@! TF.CreationDate,2020-02-17T18:56:09-04:00*
G04 #@! TF.ProjectId,rocketlog,726F636B65746C6F672E6B696361645F,rev?*
G04 #@! TF.SameCoordinates,Original*
G04 #@! TF.FileFunction,Legend,Top*
G04 #@! TF.FilePolarity,Positive*
%FSLAX46Y46*%
G04 Gerber Fmt 4.6, Leading zero omitted, Abs format (unit mm)*
G04 Created by KiCad (PCBNEW (5.0.0-3-g5ebb6b6)) date Monday, February 17, 2020 at 06:56:09 PM*
%MOMM*%
%LPD*%
G01*
G04 APERTURE LIST*
%ADD10C,0.150000*%
%ADD11C,0.120000*%
G04 APERTURE END LIST*
D10*
X126064971Y-103620723D02*
X126112590Y-103477866D01*
X126160209Y-103430247D01*
X126255447Y-103382628D01*
X126398304Y-103382628D01*
X126493542Y-103430247D01*
X126541161Y-103477866D01*
X126588780Y-103573104D01*
X126588780Y-103954057D01*
X125588780Y-103954057D01*
X125588780Y-103620723D01*
X125636400Y-103525485D01*
X125684019Y-103477866D01*
X125779257Y-103430247D01*
X125874495Y-103430247D01*
X125969733Y-103477866D01*
X126017352Y-103525485D01*
X126064971Y-103620723D01*
X126064971Y-103954057D01*
X126588780Y-102477866D02*
X126588780Y-102954057D01*
X125588780Y-102954057D01*
X125588780Y-102144533D02*
X126398304Y-102144533D01*
X126493542Y-102096914D01*
X126541161Y-102049295D01*
X126588780Y-101954057D01*
X126588780Y-101763580D01*
X126541161Y-101668342D01*
X126493542Y-101620723D01*
X126398304Y-101573104D01*
X125588780Y-101573104D01*
X126064971Y-101096914D02*
X126064971Y-100763580D01*
X126588780Y-100620723D02*
X126588780Y-101096914D01*
X125588780Y-101096914D01*
X125588780Y-100620723D01*
X125715780Y-96842009D02*
X126715780Y-96603914D01*
X126001495Y-96413438D01*
X126715780Y-96222961D01*
X125715780Y-95984866D01*
X126715780Y-95603914D02*
X125715780Y-95603914D01*
X126191971Y-95603914D02*
X126191971Y-95032485D01*
X126715780Y-95032485D02*
X125715780Y-95032485D01*
X126715780Y-94556295D02*
X125715780Y-94556295D01*
X125715780Y-94222961D02*
X125715780Y-93651533D01*
X126715780Y-93937247D02*
X125715780Y-93937247D01*
X126191971Y-93318200D02*
X126191971Y-92984866D01*
X126715780Y-92842009D02*
X126715780Y-93318200D01*
X125715780Y-93318200D01*
X125715780Y-92842009D01*
G04 #@! TO.C,J4*
X129676400Y-72086200D02*
X125676400Y-72086200D01*
X129676400Y-88086200D02*
X129676400Y-72086200D01*
X125676400Y-88086200D02*
X129676400Y-88086200D01*
X125676400Y-81086200D02*
X125676400Y-88086200D01*
X125976400Y-81086200D02*
X125676400Y-81086200D01*
X125976400Y-79086200D02*
X125976400Y-81086200D01*
X125676400Y-79086200D02*
X125976400Y-79086200D01*
X125676400Y-72086200D02*
X125676400Y-79086200D01*
D11*
G04 #@! TO.C,Y1*
X142190400Y-106969800D02*
G75*
G03X142190400Y-101919800I0J2525000D01*
G01*
X135790400Y-106969800D02*
G75*
G02X135790400Y-101919800I0J2525000D01*
G01*
X135790400Y-106969800D02*
X142190400Y-106969800D01*
X135790400Y-101919800D02*
X142190400Y-101919800D01*
G04 #@! TO.C,C6*
X150951000Y-71517252D02*
X150951000Y-70994748D01*
X149531000Y-71517252D02*
X149531000Y-70994748D01*
G04 #@! TO.C,R2*
X149531000Y-65778748D02*
X149531000Y-66301252D01*
X150951000Y-65778748D02*
X150951000Y-66301252D01*
G04 #@! TO.C,C1*
X150928000Y-96111852D02*
X150928000Y-95589348D01*
X152348000Y-96111852D02*
X152348000Y-95589348D01*
G04 #@! TO.C,C3*
X149531000Y-79627252D02*
X149531000Y-79104748D01*
X150951000Y-79627252D02*
X150951000Y-79104748D01*
G04 #@! TO.C,C4*
X137031252Y-100557400D02*
X136508748Y-100557400D01*
X137031252Y-99137400D02*
X136508748Y-99137400D01*
G04 #@! TO.C,C5*
X142120252Y-99137400D02*
X141597748Y-99137400D01*
X142120252Y-100557400D02*
X141597748Y-100557400D01*
G04 #@! TO.C,D1*
X127084200Y-100344900D02*
X127084200Y-104404900D01*
X129354200Y-100344900D02*
X127084200Y-100344900D01*
X129354200Y-104404900D02*
X129354200Y-100344900D01*
G04 #@! TO.C,D2*
X129455800Y-96784900D02*
X129455800Y-92724900D01*
X129455800Y-92724900D02*
X127185800Y-92724900D01*
X127185800Y-92724900D02*
X127185800Y-96784900D01*
D10*
G04 #@! TO.C,U1*
X131591000Y-95619800D02*
X131841000Y-95619800D01*
X131591000Y-87869800D02*
X131936000Y-87869800D01*
X149841000Y-87869800D02*
X149496000Y-87869800D01*
X149841000Y-95619800D02*
X149496000Y-95619800D01*
X131591000Y-95619800D02*
X131591000Y-87869800D01*
X149841000Y-95619800D02*
X149841000Y-87869800D01*
X131841000Y-95619800D02*
X131841000Y-97444800D01*
D11*
G04 #@! TO.C,J2*
X135182600Y-65562600D02*
G75*
G03X134682600Y-66062600I0J-500000D01*
G01*
X145682600Y-66062600D02*
G75*
G03X145182600Y-65562600I-500000J0D01*
G01*
X133272600Y-67062600D02*
X133272600Y-67462600D01*
X133272600Y-69982600D02*
X133272600Y-75762600D01*
X133272600Y-78282600D02*
X133272600Y-80982600D01*
X147092600Y-69982600D02*
X147092600Y-75762600D01*
X147092600Y-67062600D02*
X147092600Y-67462600D01*
X147092600Y-78282600D02*
X147092600Y-80982600D01*
X147092600Y-80982600D02*
X133272600Y-80982600D01*
X133272600Y-67062600D02*
X147092600Y-67062600D01*
X145682600Y-67062600D02*
X145682600Y-66062600D01*
X134682600Y-67062600D02*
X134682600Y-66062600D01*
X135182600Y-65562600D02*
X145182600Y-65562600D01*
X134682600Y-66162600D02*
X135482600Y-66362600D01*
X135482600Y-66362600D02*
X137182600Y-66662600D01*
X137182600Y-66662600D02*
X137982600Y-66762600D01*
X137982600Y-66762600D02*
X139282600Y-66862600D01*
X139282600Y-66862600D02*
X141082600Y-66862600D01*
X141082600Y-66862600D02*
X142382600Y-66762600D01*
X142382600Y-66762600D02*
X143882600Y-66562600D01*
X143882600Y-66562600D02*
X145182600Y-66262600D01*
X145182600Y-66262600D02*
X145682600Y-66162600D01*
G04 #@! TO.C,Y1*
D10*
X131883209Y-106351390D02*
X131883209Y-106827580D01*
X131549876Y-105827580D02*
X131883209Y-106351390D01*
X132216542Y-105827580D01*
X133073685Y-106827580D02*
X132502257Y-106827580D01*
X132787971Y-106827580D02*
X132787971Y-105827580D01*
X132692733Y-105970438D01*
X132597495Y-106065676D01*
X132502257Y-106113295D01*
G04 #@! TO.C,C6*
X150099733Y-74220342D02*
X150052114Y-74267961D01*
X149909257Y-74315580D01*
X149814019Y-74315580D01*
X149671161Y-74267961D01*
X149575923Y-74172723D01*
X149528304Y-74077485D01*
X149480685Y-73887009D01*
X149480685Y-73744152D01*
X149528304Y-73553676D01*
X149575923Y-73458438D01*
X149671161Y-73363200D01*
X149814019Y-73315580D01*
X149909257Y-73315580D01*
X150052114Y-73363200D01*
X150099733Y-73410819D01*
X150956876Y-73315580D02*
X150766400Y-73315580D01*
X150671161Y-73363200D01*
X150623542Y-73410819D01*
X150528304Y-73553676D01*
X150480685Y-73744152D01*
X150480685Y-74125104D01*
X150528304Y-74220342D01*
X150575923Y-74267961D01*
X150671161Y-74315580D01*
X150861638Y-74315580D01*
X150956876Y-74267961D01*
X151004495Y-74220342D01*
X151052114Y-74125104D01*
X151052114Y-73887009D01*
X151004495Y-73791771D01*
X150956876Y-73744152D01*
X150861638Y-73696533D01*
X150671161Y-73696533D01*
X150575923Y-73744152D01*
X150528304Y-73791771D01*
X150480685Y-73887009D01*
G04 #@! TO.C,R2*
X148067733Y-65552580D02*
X147734400Y-65076390D01*
X147496304Y-65552580D02*
X147496304Y-64552580D01*
X147877257Y-64552580D01*
X147972495Y-64600200D01*
X148020114Y-64647819D01*
X148067733Y-64743057D01*
X148067733Y-64885914D01*
X148020114Y-64981152D01*
X147972495Y-65028771D01*
X147877257Y-65076390D01*
X147496304Y-65076390D01*
X148448685Y-64647819D02*
X148496304Y-64600200D01*
X148591542Y-64552580D01*
X148829638Y-64552580D01*
X148924876Y-64600200D01*
X148972495Y-64647819D01*
X149020114Y-64743057D01*
X149020114Y-64838295D01*
X148972495Y-64981152D01*
X148401066Y-65552580D01*
X149020114Y-65552580D01*
G04 #@! TO.C,C1*
X151496733Y-98731342D02*
X151449114Y-98778961D01*
X151306257Y-98826580D01*
X151211019Y-98826580D01*
X151068161Y-98778961D01*
X150972923Y-98683723D01*
X150925304Y-98588485D01*
X150877685Y-98398009D01*
X150877685Y-98255152D01*
X150925304Y-98064676D01*
X150972923Y-97969438D01*
X151068161Y-97874200D01*
X151211019Y-97826580D01*
X151306257Y-97826580D01*
X151449114Y-97874200D01*
X151496733Y-97921819D01*
X152449114Y-98826580D02*
X151877685Y-98826580D01*
X152163400Y-98826580D02*
X152163400Y-97826580D01*
X152068161Y-97969438D01*
X151972923Y-98064676D01*
X151877685Y-98112295D01*
G04 #@! TO.C,C3*
X150099733Y-82475342D02*
X150052114Y-82522961D01*
X149909257Y-82570580D01*
X149814019Y-82570580D01*
X149671161Y-82522961D01*
X149575923Y-82427723D01*
X149528304Y-82332485D01*
X149480685Y-82142009D01*
X149480685Y-81999152D01*
X149528304Y-81808676D01*
X149575923Y-81713438D01*
X149671161Y-81618200D01*
X149814019Y-81570580D01*
X149909257Y-81570580D01*
X150052114Y-81618200D01*
X150099733Y-81665819D01*
X150433066Y-81570580D02*
X151052114Y-81570580D01*
X150718780Y-81951533D01*
X150861638Y-81951533D01*
X150956876Y-81999152D01*
X151004495Y-82046771D01*
X151052114Y-82142009D01*
X151052114Y-82380104D01*
X151004495Y-82475342D01*
X150956876Y-82522961D01*
X150861638Y-82570580D01*
X150575923Y-82570580D01*
X150480685Y-82522961D01*
X150433066Y-82475342D01*
G04 #@! TO.C,C4*
X133589733Y-100255342D02*
X133542114Y-100302961D01*
X133399257Y-100350580D01*
X133304019Y-100350580D01*
X133161161Y-100302961D01*
X133065923Y-100207723D01*
X133018304Y-100112485D01*
X132970685Y-99922009D01*
X132970685Y-99779152D01*
X133018304Y-99588676D01*
X133065923Y-99493438D01*
X133161161Y-99398200D01*
X133304019Y-99350580D01*
X133399257Y-99350580D01*
X133542114Y-99398200D01*
X133589733Y-99445819D01*
X134446876Y-99683914D02*
X134446876Y-100350580D01*
X134208780Y-99302961D02*
X133970685Y-100017247D01*
X134589733Y-100017247D01*
G04 #@! TO.C,C5*
X144638733Y-100128342D02*
X144591114Y-100175961D01*
X144448257Y-100223580D01*
X144353019Y-100223580D01*
X144210161Y-100175961D01*
X144114923Y-100080723D01*
X144067304Y-99985485D01*
X144019685Y-99795009D01*
X144019685Y-99652152D01*
X144067304Y-99461676D01*
X144114923Y-99366438D01*
X144210161Y-99271200D01*
X144353019Y-99223580D01*
X144448257Y-99223580D01*
X144591114Y-99271200D01*
X144638733Y-99318819D01*
X145543495Y-99223580D02*
X145067304Y-99223580D01*
X145019685Y-99699771D01*
X145067304Y-99652152D01*
X145162542Y-99604533D01*
X145400638Y-99604533D01*
X145495876Y-99652152D01*
X145543495Y-99699771D01*
X145591114Y-99795009D01*
X145591114Y-100033104D01*
X145543495Y-100128342D01*
X145495876Y-100175961D01*
X145400638Y-100223580D01*
X145162542Y-100223580D01*
X145067304Y-100175961D01*
X145019685Y-100128342D01*
G04 #@! TO.C,D1*
X127481104Y-99869780D02*
X127481104Y-98869780D01*
X127719200Y-98869780D01*
X127862057Y-98917400D01*
X127957295Y-99012638D01*
X128004914Y-99107876D01*
X128052533Y-99298352D01*
X128052533Y-99441209D01*
X128004914Y-99631685D01*
X127957295Y-99726923D01*
X127862057Y-99822161D01*
X127719200Y-99869780D01*
X127481104Y-99869780D01*
X129004914Y-99869780D02*
X128433485Y-99869780D01*
X128719200Y-99869780D02*
X128719200Y-98869780D01*
X128623961Y-99012638D01*
X128528723Y-99107876D01*
X128433485Y-99155495D01*
G04 #@! TO.C,D2*
X127682704Y-92249780D02*
X127682704Y-91249780D01*
X127920800Y-91249780D01*
X128063657Y-91297400D01*
X128158895Y-91392638D01*
X128206514Y-91487876D01*
X128254133Y-91678352D01*
X128254133Y-91821209D01*
X128206514Y-92011685D01*
X128158895Y-92106923D01*
X128063657Y-92202161D01*
X127920800Y-92249780D01*
X127682704Y-92249780D01*
X128635085Y-91345019D02*
X128682704Y-91297400D01*
X128777942Y-91249780D01*
X129016038Y-91249780D01*
X129111276Y-91297400D01*
X129158895Y-91345019D01*
X129206514Y-91440257D01*
X129206514Y-91535495D01*
X129158895Y-91678352D01*
X128587466Y-92249780D01*
X129206514Y-92249780D01*
G04 #@! TO.C,U1*
X150266495Y-87920580D02*
X150266495Y-88730104D01*
X150314114Y-88825342D01*
X150361733Y-88872961D01*
X150456971Y-88920580D01*
X150647447Y-88920580D01*
X150742685Y-88872961D01*
X150790304Y-88825342D01*
X150837923Y-88730104D01*
X150837923Y-87920580D01*
X151837923Y-88920580D02*
X151266495Y-88920580D01*
X151552209Y-88920580D02*
X151552209Y-87920580D01*
X151456971Y-88063438D01*
X151361733Y-88158676D01*
X151266495Y-88206295D01*
G04 #@! TO.C,J2*
X139838676Y-73499866D02*
X139838676Y-74214152D01*
X139791057Y-74357009D01*
X139695819Y-74452247D01*
X139552962Y-74499866D01*
X139457724Y-74499866D01*
X140267248Y-73595105D02*
X140314867Y-73547486D01*
X140410105Y-73499866D01*
X140648200Y-73499866D01*
X140743438Y-73547486D01*
X140791057Y-73595105D01*
X140838676Y-73690343D01*
X140838676Y-73785581D01*
X140791057Y-73928438D01*
X140219629Y-74499866D01*
X140838676Y-74499866D01*
G04 #@! TD*
M02*
