G04 #@! TF.GenerationSoftware,KiCad,Pcbnew,5.0.1*
G04 #@! TF.CreationDate,2018-10-31T11:08:41-04:00*
G04 #@! TF.ProjectId,usbdbg,7573626462672E6B696361645F706362,rev?*
G04 #@! TF.SameCoordinates,Original*
G04 #@! TF.FileFunction,Soldermask,Bot*
G04 #@! TF.FilePolarity,Negative*
%FSLAX46Y46*%
G04 Gerber Fmt 4.6, Leading zero omitted, Abs format (unit mm)*
G04 Created by KiCad (PCBNEW 5.0.1) date Wed 31 Oct 2018 11:08:41 AM EDT*
%MOMM*%
%LPD*%
G01*
G04 APERTURE LIST*
%ADD10C,0.100000*%
G04 APERTURE END LIST*
D10*
G36*
X158731870Y-132376859D02*
X158925068Y-132415288D01*
X159471033Y-132641434D01*
X159959077Y-132967535D01*
X159962392Y-132969750D01*
X160380250Y-133387608D01*
X160380252Y-133387611D01*
X160708566Y-133878967D01*
X160934712Y-134424932D01*
X161050000Y-135004526D01*
X161050000Y-135595474D01*
X160934712Y-136175068D01*
X160708566Y-136721033D01*
X160382465Y-137209077D01*
X160380250Y-137212392D01*
X159962392Y-137630250D01*
X159962389Y-137630252D01*
X159471033Y-137958566D01*
X158925068Y-138184712D01*
X158731870Y-138223141D01*
X158345476Y-138300000D01*
X157754524Y-138300000D01*
X157368130Y-138223141D01*
X157174932Y-138184712D01*
X156628967Y-137958566D01*
X156137611Y-137630252D01*
X156137608Y-137630250D01*
X155719750Y-137212392D01*
X155717535Y-137209077D01*
X155391434Y-136721033D01*
X155165288Y-136175068D01*
X155050000Y-135595474D01*
X155050000Y-135004526D01*
X155165288Y-134424932D01*
X155391434Y-133878967D01*
X155719748Y-133387611D01*
X155719750Y-133387608D01*
X156137608Y-132969750D01*
X156140923Y-132967535D01*
X156628967Y-132641434D01*
X157174932Y-132415288D01*
X157368130Y-132376859D01*
X157754524Y-132300000D01*
X158345476Y-132300000D01*
X158731870Y-132376859D01*
X158731870Y-132376859D01*
G37*
G36*
X158827930Y-128061510D02*
X158877779Y-128076631D01*
X158923711Y-128101182D01*
X158963974Y-128134226D01*
X158997018Y-128174489D01*
X159021569Y-128220421D01*
X159036690Y-128270270D01*
X159042400Y-128328244D01*
X159042400Y-129583356D01*
X159036690Y-129641330D01*
X159021569Y-129691179D01*
X158997018Y-129737111D01*
X158963974Y-129777374D01*
X158923711Y-129810418D01*
X158877779Y-129834969D01*
X158827930Y-129850090D01*
X158769956Y-129855800D01*
X157764844Y-129855800D01*
X157706870Y-129850090D01*
X157657021Y-129834969D01*
X157611089Y-129810418D01*
X157570826Y-129777374D01*
X157537782Y-129737111D01*
X157513231Y-129691179D01*
X157498110Y-129641330D01*
X157492400Y-129583356D01*
X157492400Y-128328244D01*
X157498110Y-128270270D01*
X157513231Y-128220421D01*
X157537782Y-128174489D01*
X157570826Y-128134226D01*
X157611089Y-128101182D01*
X157657021Y-128076631D01*
X157706870Y-128061510D01*
X157764844Y-128055800D01*
X158769956Y-128055800D01*
X158827930Y-128061510D01*
X158827930Y-128061510D01*
G37*
G36*
X156777930Y-128061510D02*
X156827779Y-128076631D01*
X156873711Y-128101182D01*
X156913974Y-128134226D01*
X156947018Y-128174489D01*
X156971569Y-128220421D01*
X156986690Y-128270270D01*
X156992400Y-128328244D01*
X156992400Y-129583356D01*
X156986690Y-129641330D01*
X156971569Y-129691179D01*
X156947018Y-129737111D01*
X156913974Y-129777374D01*
X156873711Y-129810418D01*
X156827779Y-129834969D01*
X156777930Y-129850090D01*
X156719956Y-129855800D01*
X155714844Y-129855800D01*
X155656870Y-129850090D01*
X155607021Y-129834969D01*
X155561089Y-129810418D01*
X155520826Y-129777374D01*
X155487782Y-129737111D01*
X155463231Y-129691179D01*
X155448110Y-129641330D01*
X155442400Y-129583356D01*
X155442400Y-128328244D01*
X155448110Y-128270270D01*
X155463231Y-128220421D01*
X155487782Y-128174489D01*
X155520826Y-128134226D01*
X155561089Y-128101182D01*
X155607021Y-128076631D01*
X155656870Y-128061510D01*
X155714844Y-128055800D01*
X156719956Y-128055800D01*
X156777930Y-128061510D01*
X156777930Y-128061510D01*
G37*
G36*
X176288793Y-125684937D02*
X176643670Y-125831932D01*
X176963055Y-126045338D01*
X177234662Y-126316945D01*
X177448068Y-126636330D01*
X177595063Y-126991207D01*
X177670000Y-127367940D01*
X177670000Y-127752060D01*
X177595063Y-128128793D01*
X177448068Y-128483670D01*
X177234662Y-128803055D01*
X176963055Y-129074662D01*
X176643670Y-129288068D01*
X176288793Y-129435063D01*
X175912060Y-129510000D01*
X175527940Y-129510000D01*
X175151207Y-129435063D01*
X174796330Y-129288068D01*
X174476945Y-129074662D01*
X174205338Y-128803055D01*
X173991932Y-128483670D01*
X173844937Y-128128793D01*
X173770000Y-127752060D01*
X173770000Y-127367940D01*
X173844937Y-126991207D01*
X173991932Y-126636330D01*
X174205338Y-126316945D01*
X174476945Y-126045338D01*
X174796330Y-125831932D01*
X175151207Y-125684937D01*
X175527940Y-125610000D01*
X175912060Y-125610000D01*
X176288793Y-125684937D01*
X176288793Y-125684937D01*
G37*
G36*
X164248793Y-125684937D02*
X164603670Y-125831932D01*
X164923055Y-126045338D01*
X165194662Y-126316945D01*
X165408068Y-126636330D01*
X165555063Y-126991207D01*
X165630000Y-127367940D01*
X165630000Y-127752060D01*
X165555063Y-128128793D01*
X165408068Y-128483670D01*
X165194662Y-128803055D01*
X164923055Y-129074662D01*
X164603670Y-129288068D01*
X164248793Y-129435063D01*
X163872060Y-129510000D01*
X163487940Y-129510000D01*
X163111207Y-129435063D01*
X162756330Y-129288068D01*
X162436945Y-129074662D01*
X162165338Y-128803055D01*
X161951932Y-128483670D01*
X161804937Y-128128793D01*
X161730000Y-127752060D01*
X161730000Y-127367940D01*
X161804937Y-126991207D01*
X161951932Y-126636330D01*
X162165338Y-126316945D01*
X162436945Y-126045338D01*
X162756330Y-125831932D01*
X163111207Y-125684937D01*
X163487940Y-125610000D01*
X163872060Y-125610000D01*
X164248793Y-125684937D01*
X164248793Y-125684937D01*
G37*
G36*
X155341400Y-126382400D02*
X153441400Y-126382400D01*
X153441400Y-125382400D01*
X155341400Y-125382400D01*
X155341400Y-126382400D01*
X155341400Y-126382400D01*
G37*
G36*
X160741400Y-126382400D02*
X158841400Y-126382400D01*
X158841400Y-125382400D01*
X160741400Y-125382400D01*
X160741400Y-126382400D01*
X160741400Y-126382400D01*
G37*
G36*
X172000000Y-123900000D02*
X171786701Y-123900000D01*
X171762315Y-123902402D01*
X171738866Y-123909515D01*
X171717255Y-123921066D01*
X171698313Y-123936612D01*
X171682767Y-123955554D01*
X171671216Y-123977165D01*
X171664103Y-124000614D01*
X171661701Y-124025000D01*
X171664103Y-124049386D01*
X171671216Y-124072835D01*
X171682767Y-124094446D01*
X171698313Y-124113388D01*
X171765589Y-124180664D01*
X171880498Y-124352638D01*
X171959650Y-124543726D01*
X172000000Y-124746584D01*
X172000000Y-124953416D01*
X171959650Y-125156274D01*
X171880498Y-125347362D01*
X171765589Y-125519336D01*
X171619336Y-125665589D01*
X171447362Y-125780498D01*
X171256274Y-125859650D01*
X171075888Y-125895530D01*
X171053417Y-125900000D01*
X170846583Y-125900000D01*
X170824112Y-125895530D01*
X170643726Y-125859650D01*
X170452638Y-125780498D01*
X170280664Y-125665589D01*
X170134411Y-125519336D01*
X170019502Y-125347362D01*
X169940350Y-125156274D01*
X169900000Y-124953416D01*
X169900000Y-124746584D01*
X169940350Y-124543726D01*
X170019502Y-124352638D01*
X170134411Y-124180664D01*
X170201687Y-124113388D01*
X170217233Y-124094446D01*
X170228784Y-124072835D01*
X170235897Y-124049386D01*
X170238299Y-124025000D01*
X170235897Y-124000614D01*
X170228784Y-123977165D01*
X170217233Y-123955554D01*
X170201687Y-123936612D01*
X170182745Y-123921066D01*
X170161134Y-123909515D01*
X170137685Y-123902402D01*
X170113299Y-123900000D01*
X169900000Y-123900000D01*
X169900000Y-121800000D01*
X172000000Y-121800000D01*
X172000000Y-123900000D01*
X172000000Y-123900000D01*
G37*
G36*
X168575888Y-121804470D02*
X168756274Y-121840350D01*
X168947362Y-121919502D01*
X169119336Y-122034411D01*
X169265589Y-122180664D01*
X169380498Y-122352638D01*
X169459650Y-122543726D01*
X169500000Y-122746584D01*
X169500000Y-122953416D01*
X169459650Y-123156274D01*
X169380498Y-123347362D01*
X169265589Y-123519336D01*
X169119336Y-123665589D01*
X168998886Y-123746071D01*
X168979950Y-123761612D01*
X168964404Y-123780554D01*
X168952853Y-123802164D01*
X168945740Y-123825614D01*
X168943338Y-123850000D01*
X168945740Y-123874386D01*
X168952853Y-123897835D01*
X168964404Y-123919446D01*
X168979950Y-123938388D01*
X168998886Y-123953929D01*
X169119336Y-124034411D01*
X169265589Y-124180664D01*
X169380498Y-124352638D01*
X169459650Y-124543726D01*
X169500000Y-124746584D01*
X169500000Y-124953416D01*
X169459650Y-125156274D01*
X169380498Y-125347362D01*
X169265589Y-125519336D01*
X169119336Y-125665589D01*
X168947362Y-125780498D01*
X168756274Y-125859650D01*
X168575888Y-125895530D01*
X168553417Y-125900000D01*
X168346583Y-125900000D01*
X168324112Y-125895530D01*
X168143726Y-125859650D01*
X167952638Y-125780498D01*
X167780664Y-125665589D01*
X167634411Y-125519336D01*
X167519502Y-125347362D01*
X167440350Y-125156274D01*
X167400000Y-124953416D01*
X167400000Y-124746584D01*
X167440350Y-124543726D01*
X167519502Y-124352638D01*
X167634411Y-124180664D01*
X167780664Y-124034411D01*
X167901114Y-123953929D01*
X167920050Y-123938388D01*
X167935596Y-123919446D01*
X167947147Y-123897836D01*
X167954260Y-123874386D01*
X167956662Y-123850000D01*
X167954260Y-123825614D01*
X167947147Y-123802165D01*
X167935596Y-123780554D01*
X167920050Y-123761612D01*
X167901114Y-123746071D01*
X167780664Y-123665589D01*
X167634411Y-123519336D01*
X167519502Y-123347362D01*
X167440350Y-123156274D01*
X167400000Y-122953416D01*
X167400000Y-122746584D01*
X167440350Y-122543726D01*
X167519502Y-122352638D01*
X167634411Y-122180664D01*
X167780664Y-122034411D01*
X167952638Y-121919502D01*
X168143726Y-121840350D01*
X168324112Y-121804470D01*
X168346583Y-121800000D01*
X168553417Y-121800000D01*
X168575888Y-121804470D01*
X168575888Y-121804470D01*
G37*
G36*
X160741400Y-125112400D02*
X158841400Y-125112400D01*
X158841400Y-124112400D01*
X160741400Y-124112400D01*
X160741400Y-125112400D01*
X160741400Y-125112400D01*
G37*
G36*
X155341400Y-125112400D02*
X153441400Y-125112400D01*
X153441400Y-124112400D01*
X155341400Y-124112400D01*
X155341400Y-125112400D01*
X155341400Y-125112400D01*
G37*
G36*
X155341400Y-123842400D02*
X153441400Y-123842400D01*
X153441400Y-122842400D01*
X155341400Y-122842400D01*
X155341400Y-123842400D01*
X155341400Y-123842400D01*
G37*
G36*
X160741400Y-123842400D02*
X158841400Y-123842400D01*
X158841400Y-122842400D01*
X160741400Y-122842400D01*
X160741400Y-123842400D01*
X160741400Y-123842400D01*
G37*
G36*
X149373470Y-117599859D02*
X149566668Y-117638288D01*
X150112633Y-117864434D01*
X150453275Y-118092044D01*
X150603992Y-118192750D01*
X151021850Y-118610608D01*
X151021852Y-118610611D01*
X151350166Y-119101967D01*
X151576312Y-119647932D01*
X151576312Y-119647933D01*
X151687031Y-120204553D01*
X151691600Y-120227526D01*
X151691600Y-120818474D01*
X151576312Y-121398068D01*
X151350166Y-121944033D01*
X151024065Y-122432077D01*
X151021850Y-122435392D01*
X150603992Y-122853250D01*
X150603989Y-122853252D01*
X150112633Y-123181566D01*
X149566668Y-123407712D01*
X149373470Y-123446141D01*
X148987076Y-123523000D01*
X148396124Y-123523000D01*
X148009730Y-123446141D01*
X147816532Y-123407712D01*
X147270567Y-123181566D01*
X146779211Y-122853252D01*
X146779208Y-122853250D01*
X146361350Y-122435392D01*
X146359135Y-122432077D01*
X146033034Y-121944033D01*
X145806888Y-121398068D01*
X145691600Y-120818474D01*
X145691600Y-120227526D01*
X145696170Y-120204553D01*
X145806888Y-119647933D01*
X145806888Y-119647932D01*
X146033034Y-119101967D01*
X146361348Y-118610611D01*
X146361350Y-118610608D01*
X146779208Y-118192750D01*
X146929925Y-118092044D01*
X147270567Y-117864434D01*
X147816532Y-117638288D01*
X148009730Y-117599859D01*
X148396124Y-117523000D01*
X148987076Y-117523000D01*
X149373470Y-117599859D01*
X149373470Y-117599859D01*
G37*
G36*
X160741400Y-122572400D02*
X158841400Y-122572400D01*
X158841400Y-121572400D01*
X160741400Y-121572400D01*
X160741400Y-122572400D01*
X160741400Y-122572400D01*
G37*
G36*
X155341400Y-122572400D02*
X153441400Y-122572400D01*
X153441400Y-121572400D01*
X155341400Y-121572400D01*
X155341400Y-122572400D01*
X155341400Y-122572400D01*
G37*
G36*
X165101730Y-120060510D02*
X165151579Y-120075631D01*
X165197511Y-120100182D01*
X165237774Y-120133226D01*
X165270818Y-120173489D01*
X165295369Y-120219421D01*
X165310490Y-120269270D01*
X165316200Y-120327244D01*
X165316200Y-121582356D01*
X165310490Y-121640330D01*
X165295369Y-121690179D01*
X165270818Y-121736111D01*
X165237774Y-121776374D01*
X165197511Y-121809418D01*
X165151579Y-121833969D01*
X165101730Y-121849090D01*
X165043756Y-121854800D01*
X164038644Y-121854800D01*
X163980670Y-121849090D01*
X163930821Y-121833969D01*
X163884889Y-121809418D01*
X163844626Y-121776374D01*
X163811582Y-121736111D01*
X163787031Y-121690179D01*
X163771910Y-121640330D01*
X163766200Y-121582356D01*
X163766200Y-120327244D01*
X163771910Y-120269270D01*
X163787031Y-120219421D01*
X163811582Y-120173489D01*
X163844626Y-120133226D01*
X163884889Y-120100182D01*
X163930821Y-120075631D01*
X163980670Y-120060510D01*
X164038644Y-120054800D01*
X165043756Y-120054800D01*
X165101730Y-120060510D01*
X165101730Y-120060510D01*
G37*
G36*
X163051730Y-120060510D02*
X163101579Y-120075631D01*
X163147511Y-120100182D01*
X163187774Y-120133226D01*
X163220818Y-120173489D01*
X163245369Y-120219421D01*
X163260490Y-120269270D01*
X163266200Y-120327244D01*
X163266200Y-121582356D01*
X163260490Y-121640330D01*
X163245369Y-121690179D01*
X163220818Y-121736111D01*
X163187774Y-121776374D01*
X163147511Y-121809418D01*
X163101579Y-121833969D01*
X163051730Y-121849090D01*
X162993756Y-121854800D01*
X161988644Y-121854800D01*
X161930670Y-121849090D01*
X161880821Y-121833969D01*
X161834889Y-121809418D01*
X161794626Y-121776374D01*
X161761582Y-121736111D01*
X161737031Y-121690179D01*
X161721910Y-121640330D01*
X161716200Y-121582356D01*
X161716200Y-120327244D01*
X161721910Y-120269270D01*
X161737031Y-120219421D01*
X161761582Y-120173489D01*
X161794626Y-120133226D01*
X161834889Y-120100182D01*
X161880821Y-120075631D01*
X161930670Y-120060510D01*
X161988644Y-120054800D01*
X162993756Y-120054800D01*
X163051730Y-120060510D01*
X163051730Y-120060510D01*
G37*
G36*
X160741400Y-121302400D02*
X158841400Y-121302400D01*
X158841400Y-120302400D01*
X160741400Y-120302400D01*
X160741400Y-121302400D01*
X160741400Y-121302400D01*
G37*
G36*
X155341400Y-121302400D02*
X153441400Y-121302400D01*
X153441400Y-120302400D01*
X155341400Y-120302400D01*
X155341400Y-121302400D01*
X155341400Y-121302400D01*
G37*
G36*
X155341400Y-120032400D02*
X153441400Y-120032400D01*
X153441400Y-119032400D01*
X155341400Y-119032400D01*
X155341400Y-120032400D01*
X155341400Y-120032400D01*
G37*
G36*
X160741400Y-120032400D02*
X158841400Y-120032400D01*
X158841400Y-119032400D01*
X160741400Y-119032400D01*
X160741400Y-120032400D01*
X160741400Y-120032400D01*
G37*
G36*
X168015330Y-117825310D02*
X168065179Y-117840431D01*
X168111111Y-117864982D01*
X168151374Y-117898026D01*
X168184418Y-117938289D01*
X168208969Y-117984221D01*
X168224090Y-118034070D01*
X168229800Y-118092044D01*
X168229800Y-119347156D01*
X168224090Y-119405130D01*
X168208969Y-119454979D01*
X168184418Y-119500911D01*
X168151374Y-119541174D01*
X168111111Y-119574218D01*
X168065179Y-119598769D01*
X168015330Y-119613890D01*
X167957356Y-119619600D01*
X166952244Y-119619600D01*
X166894270Y-119613890D01*
X166844421Y-119598769D01*
X166798489Y-119574218D01*
X166758226Y-119541174D01*
X166725182Y-119500911D01*
X166700631Y-119454979D01*
X166685510Y-119405130D01*
X166679800Y-119347156D01*
X166679800Y-118092044D01*
X166685510Y-118034070D01*
X166700631Y-117984221D01*
X166725182Y-117938289D01*
X166758226Y-117898026D01*
X166798489Y-117864982D01*
X166844421Y-117840431D01*
X166894270Y-117825310D01*
X166952244Y-117819600D01*
X167957356Y-117819600D01*
X168015330Y-117825310D01*
X168015330Y-117825310D01*
G37*
G36*
X165965330Y-117825310D02*
X166015179Y-117840431D01*
X166061111Y-117864982D01*
X166101374Y-117898026D01*
X166134418Y-117938289D01*
X166158969Y-117984221D01*
X166174090Y-118034070D01*
X166179800Y-118092044D01*
X166179800Y-119347156D01*
X166174090Y-119405130D01*
X166158969Y-119454979D01*
X166134418Y-119500911D01*
X166101374Y-119541174D01*
X166061111Y-119574218D01*
X166015179Y-119598769D01*
X165965330Y-119613890D01*
X165907356Y-119619600D01*
X164902244Y-119619600D01*
X164844270Y-119613890D01*
X164794421Y-119598769D01*
X164748489Y-119574218D01*
X164708226Y-119541174D01*
X164675182Y-119500911D01*
X164650631Y-119454979D01*
X164635510Y-119405130D01*
X164629800Y-119347156D01*
X164629800Y-118092044D01*
X164635510Y-118034070D01*
X164650631Y-117984221D01*
X164675182Y-117938289D01*
X164708226Y-117898026D01*
X164748489Y-117864982D01*
X164794421Y-117840431D01*
X164844270Y-117825310D01*
X164902244Y-117819600D01*
X165907356Y-117819600D01*
X165965330Y-117825310D01*
X165965330Y-117825310D01*
G37*
G36*
X155341400Y-118762400D02*
X153441400Y-118762400D01*
X153441400Y-117762400D01*
X155341400Y-117762400D01*
X155341400Y-118762400D01*
X155341400Y-118762400D01*
G37*
G36*
X160741400Y-118762400D02*
X158841400Y-118762400D01*
X158841400Y-117762400D01*
X160741400Y-117762400D01*
X160741400Y-118762400D01*
X160741400Y-118762400D01*
G37*
G36*
X172322200Y-118169400D02*
X170222200Y-118169400D01*
X170222200Y-116069400D01*
X172322200Y-116069400D01*
X172322200Y-118169400D01*
X172322200Y-118169400D01*
G37*
G36*
X173940907Y-116076997D02*
X174018036Y-116084593D01*
X174149987Y-116124620D01*
X174215963Y-116144633D01*
X174398372Y-116242133D01*
X174558254Y-116373346D01*
X174689467Y-116533228D01*
X174786967Y-116715637D01*
X174786967Y-116715638D01*
X174847007Y-116913564D01*
X174867280Y-117119400D01*
X174847007Y-117325236D01*
X174806980Y-117457187D01*
X174786967Y-117523163D01*
X174689467Y-117705572D01*
X174558254Y-117865454D01*
X174398372Y-117996667D01*
X174215963Y-118094167D01*
X174149987Y-118114180D01*
X174018036Y-118154207D01*
X173940907Y-118161803D01*
X173863780Y-118169400D01*
X173760620Y-118169400D01*
X173683493Y-118161803D01*
X173606364Y-118154207D01*
X173474413Y-118114180D01*
X173408437Y-118094167D01*
X173226028Y-117996667D01*
X173066146Y-117865454D01*
X172934933Y-117705572D01*
X172837433Y-117523163D01*
X172817420Y-117457187D01*
X172777393Y-117325236D01*
X172757120Y-117119400D01*
X172777393Y-116913564D01*
X172837433Y-116715638D01*
X172837433Y-116715637D01*
X172934933Y-116533228D01*
X173066146Y-116373346D01*
X173226028Y-116242133D01*
X173408437Y-116144633D01*
X173474413Y-116124620D01*
X173606364Y-116084593D01*
X173683493Y-116076997D01*
X173760620Y-116069400D01*
X173863780Y-116069400D01*
X173940907Y-116076997D01*
X173940907Y-116076997D01*
G37*
G36*
X176480907Y-116076997D02*
X176558036Y-116084593D01*
X176689987Y-116124620D01*
X176755963Y-116144633D01*
X176938372Y-116242133D01*
X177098254Y-116373346D01*
X177229467Y-116533228D01*
X177326967Y-116715637D01*
X177326967Y-116715638D01*
X177387007Y-116913564D01*
X177407280Y-117119400D01*
X177387007Y-117325236D01*
X177346980Y-117457187D01*
X177326967Y-117523163D01*
X177229467Y-117705572D01*
X177098254Y-117865454D01*
X176938372Y-117996667D01*
X176755963Y-118094167D01*
X176689987Y-118114180D01*
X176558036Y-118154207D01*
X176480907Y-118161803D01*
X176403780Y-118169400D01*
X176300620Y-118169400D01*
X176223493Y-118161803D01*
X176146364Y-118154207D01*
X176014413Y-118114180D01*
X175948437Y-118094167D01*
X175766028Y-117996667D01*
X175606146Y-117865454D01*
X175474933Y-117705572D01*
X175377433Y-117523163D01*
X175357420Y-117457187D01*
X175317393Y-117325236D01*
X175297120Y-117119400D01*
X175317393Y-116913564D01*
X175377433Y-116715638D01*
X175377433Y-116715637D01*
X175474933Y-116533228D01*
X175606146Y-116373346D01*
X175766028Y-116242133D01*
X175948437Y-116144633D01*
X176014413Y-116124620D01*
X176146364Y-116084593D01*
X176223493Y-116076997D01*
X176300620Y-116069400D01*
X176403780Y-116069400D01*
X176480907Y-116076997D01*
X176480907Y-116076997D01*
G37*
G36*
X165041200Y-116712600D02*
X164041200Y-116712600D01*
X164041200Y-114762600D01*
X165041200Y-114762600D01*
X165041200Y-116712600D01*
X165041200Y-116712600D01*
G37*
G36*
X168851200Y-116712600D02*
X167851200Y-116712600D01*
X167851200Y-114762600D01*
X168851200Y-114762600D01*
X168851200Y-116712600D01*
X168851200Y-116712600D01*
G37*
G36*
X167581200Y-116712600D02*
X166581200Y-116712600D01*
X166581200Y-114762600D01*
X167581200Y-114762600D01*
X167581200Y-116712600D01*
X167581200Y-116712600D01*
G37*
G36*
X166311200Y-116712600D02*
X165311200Y-116712600D01*
X165311200Y-114762600D01*
X166311200Y-114762600D01*
X166311200Y-116712600D01*
X166311200Y-116712600D01*
G37*
G36*
X149524226Y-114085915D02*
X149742612Y-114176373D01*
X149939158Y-114307701D01*
X150106299Y-114474842D01*
X150237627Y-114671388D01*
X150328085Y-114889774D01*
X150374200Y-115121609D01*
X150374200Y-115357991D01*
X150328085Y-115589826D01*
X150237627Y-115808212D01*
X150106299Y-116004758D01*
X149939158Y-116171899D01*
X149742612Y-116303227D01*
X149524226Y-116393685D01*
X149292391Y-116439800D01*
X149056009Y-116439800D01*
X148824174Y-116393685D01*
X148605788Y-116303227D01*
X148409242Y-116171899D01*
X148242101Y-116004758D01*
X148110773Y-115808212D01*
X148020315Y-115589826D01*
X147974200Y-115357991D01*
X147974200Y-115121609D01*
X148020315Y-114889774D01*
X148110773Y-114671388D01*
X148242101Y-114474842D01*
X148409242Y-114307701D01*
X148605788Y-114176373D01*
X148824174Y-114085915D01*
X149056009Y-114039800D01*
X149292391Y-114039800D01*
X149524226Y-114085915D01*
X149524226Y-114085915D01*
G37*
G36*
X175306870Y-108201859D02*
X175500068Y-108240288D01*
X176046033Y-108466434D01*
X176534077Y-108792535D01*
X176537392Y-108794750D01*
X176955250Y-109212608D01*
X176955252Y-109212611D01*
X177283566Y-109703967D01*
X177455789Y-110119751D01*
X177509712Y-110249933D01*
X177613712Y-110772774D01*
X177625000Y-110829526D01*
X177625000Y-111420474D01*
X177509712Y-112000068D01*
X177283566Y-112546033D01*
X177135052Y-112768299D01*
X176955250Y-113037392D01*
X176537392Y-113455250D01*
X176537389Y-113455252D01*
X176046033Y-113783566D01*
X175500068Y-114009712D01*
X175348805Y-114039800D01*
X174920476Y-114125000D01*
X174329524Y-114125000D01*
X173901195Y-114039800D01*
X173749932Y-114009712D01*
X173203967Y-113783566D01*
X172712611Y-113455252D01*
X172712608Y-113455250D01*
X172294750Y-113037392D01*
X172114948Y-112768299D01*
X171966434Y-112546033D01*
X171740288Y-112000068D01*
X171625000Y-111420474D01*
X171625000Y-110829526D01*
X171636289Y-110772774D01*
X171740288Y-110249933D01*
X171794211Y-110119751D01*
X171966434Y-109703967D01*
X172294748Y-109212611D01*
X172294750Y-109212608D01*
X172712608Y-108794750D01*
X172715923Y-108792535D01*
X173203967Y-108466434D01*
X173749932Y-108240288D01*
X173943130Y-108201859D01*
X174329524Y-108125000D01*
X174920476Y-108125000D01*
X175306870Y-108201859D01*
X175306870Y-108201859D01*
G37*
G36*
X149524226Y-110682315D02*
X149742612Y-110772773D01*
X149939158Y-110904101D01*
X150106299Y-111071242D01*
X150237627Y-111267788D01*
X150328085Y-111486174D01*
X150374200Y-111718009D01*
X150374200Y-111954391D01*
X150328085Y-112186226D01*
X150237627Y-112404612D01*
X150106299Y-112601158D01*
X149939158Y-112768299D01*
X149742612Y-112899627D01*
X149524226Y-112990085D01*
X149292391Y-113036200D01*
X149056009Y-113036200D01*
X148824174Y-112990085D01*
X148605788Y-112899627D01*
X148409242Y-112768299D01*
X148242101Y-112601158D01*
X148110773Y-112404612D01*
X148020315Y-112186226D01*
X147974200Y-111954391D01*
X147974200Y-111718009D01*
X148020315Y-111486174D01*
X148110773Y-111267788D01*
X148242101Y-111071242D01*
X148409242Y-110904101D01*
X148605788Y-110772773D01*
X148824174Y-110682315D01*
X149056009Y-110636200D01*
X149292391Y-110636200D01*
X149524226Y-110682315D01*
X149524226Y-110682315D01*
G37*
G36*
X167581200Y-111312600D02*
X166581200Y-111312600D01*
X166581200Y-109362600D01*
X167581200Y-109362600D01*
X167581200Y-111312600D01*
X167581200Y-111312600D01*
G37*
G36*
X165041200Y-111312600D02*
X164041200Y-111312600D01*
X164041200Y-109362600D01*
X165041200Y-109362600D01*
X165041200Y-111312600D01*
X165041200Y-111312600D01*
G37*
G36*
X166311200Y-111312600D02*
X165311200Y-111312600D01*
X165311200Y-109362600D01*
X166311200Y-109362600D01*
X166311200Y-111312600D01*
X166311200Y-111312600D01*
G37*
G36*
X168851200Y-111312600D02*
X167851200Y-111312600D01*
X167851200Y-109362600D01*
X168851200Y-109362600D01*
X168851200Y-111312600D01*
X168851200Y-111312600D01*
G37*
G36*
X150801530Y-108351110D02*
X150851379Y-108366231D01*
X150897311Y-108390782D01*
X150937574Y-108423826D01*
X150970618Y-108464089D01*
X150995169Y-108510021D01*
X151010290Y-108559870D01*
X151016000Y-108617844D01*
X151016000Y-109872956D01*
X151010290Y-109930930D01*
X150995169Y-109980779D01*
X150970618Y-110026711D01*
X150937574Y-110066974D01*
X150897311Y-110100018D01*
X150851379Y-110124569D01*
X150801530Y-110139690D01*
X150743556Y-110145400D01*
X149738444Y-110145400D01*
X149680470Y-110139690D01*
X149630621Y-110124569D01*
X149584689Y-110100018D01*
X149544426Y-110066974D01*
X149511382Y-110026711D01*
X149486831Y-109980779D01*
X149471710Y-109930930D01*
X149466000Y-109872956D01*
X149466000Y-108617844D01*
X149471710Y-108559870D01*
X149486831Y-108510021D01*
X149511382Y-108464089D01*
X149544426Y-108423826D01*
X149584689Y-108390782D01*
X149630621Y-108366231D01*
X149680470Y-108351110D01*
X149738444Y-108345400D01*
X150743556Y-108345400D01*
X150801530Y-108351110D01*
X150801530Y-108351110D01*
G37*
G36*
X148751530Y-108351110D02*
X148801379Y-108366231D01*
X148847311Y-108390782D01*
X148887574Y-108423826D01*
X148920618Y-108464089D01*
X148945169Y-108510021D01*
X148960290Y-108559870D01*
X148966000Y-108617844D01*
X148966000Y-109872956D01*
X148960290Y-109930930D01*
X148945169Y-109980779D01*
X148920618Y-110026711D01*
X148887574Y-110066974D01*
X148847311Y-110100018D01*
X148801379Y-110124569D01*
X148751530Y-110139690D01*
X148693556Y-110145400D01*
X147688444Y-110145400D01*
X147630470Y-110139690D01*
X147580621Y-110124569D01*
X147534689Y-110100018D01*
X147494426Y-110066974D01*
X147461382Y-110026711D01*
X147436831Y-109980779D01*
X147421710Y-109930930D01*
X147416000Y-109872956D01*
X147416000Y-108617844D01*
X147421710Y-108559870D01*
X147436831Y-108510021D01*
X147461382Y-108464089D01*
X147494426Y-108423826D01*
X147534689Y-108390782D01*
X147580621Y-108366231D01*
X147630470Y-108351110D01*
X147688444Y-108345400D01*
X148693556Y-108345400D01*
X148751530Y-108351110D01*
X148751530Y-108351110D01*
G37*
G36*
X167433352Y-106130743D02*
X167578941Y-106191048D01*
X167709973Y-106278601D01*
X167821399Y-106390027D01*
X167908952Y-106521059D01*
X167969257Y-106666648D01*
X168000000Y-106821205D01*
X168000000Y-106978795D01*
X167969257Y-107133352D01*
X167908952Y-107278941D01*
X167821399Y-107409973D01*
X167709973Y-107521399D01*
X167578941Y-107608952D01*
X167433352Y-107669257D01*
X167278795Y-107700000D01*
X167121205Y-107700000D01*
X166966648Y-107669257D01*
X166821059Y-107608952D01*
X166690027Y-107521399D01*
X166578601Y-107409973D01*
X166491048Y-107278941D01*
X166430743Y-107133352D01*
X166400000Y-106978795D01*
X166400000Y-106821205D01*
X166430743Y-106666648D01*
X166491048Y-106521059D01*
X166578601Y-106390027D01*
X166690027Y-106278601D01*
X166821059Y-106191048D01*
X166966648Y-106130743D01*
X167121205Y-106100000D01*
X167278795Y-106100000D01*
X167433352Y-106130743D01*
X167433352Y-106130743D01*
G37*
G36*
X169433352Y-106130743D02*
X169578941Y-106191048D01*
X169709973Y-106278601D01*
X169821399Y-106390027D01*
X169908952Y-106521059D01*
X169969257Y-106666648D01*
X170000000Y-106821205D01*
X170000000Y-106978795D01*
X169969257Y-107133352D01*
X169908952Y-107278941D01*
X169821399Y-107409973D01*
X169709973Y-107521399D01*
X169578941Y-107608952D01*
X169433352Y-107669257D01*
X169278795Y-107700000D01*
X169121205Y-107700000D01*
X168966648Y-107669257D01*
X168821059Y-107608952D01*
X168690027Y-107521399D01*
X168578601Y-107409973D01*
X168491048Y-107278941D01*
X168430743Y-107133352D01*
X168400000Y-106978795D01*
X168400000Y-106821205D01*
X168430743Y-106666648D01*
X168491048Y-106521059D01*
X168578601Y-106390027D01*
X168690027Y-106278601D01*
X168821059Y-106191048D01*
X168966648Y-106130743D01*
X169121205Y-106100000D01*
X169278795Y-106100000D01*
X169433352Y-106130743D01*
X169433352Y-106130743D01*
G37*
G36*
X171433352Y-106130743D02*
X171578941Y-106191048D01*
X171709973Y-106278601D01*
X171821399Y-106390027D01*
X171908952Y-106521059D01*
X171969257Y-106666648D01*
X172000000Y-106821205D01*
X172000000Y-106978795D01*
X171969257Y-107133352D01*
X171908952Y-107278941D01*
X171821399Y-107409973D01*
X171709973Y-107521399D01*
X171578941Y-107608952D01*
X171433352Y-107669257D01*
X171278795Y-107700000D01*
X171121205Y-107700000D01*
X170966648Y-107669257D01*
X170821059Y-107608952D01*
X170690027Y-107521399D01*
X170578601Y-107409973D01*
X170491048Y-107278941D01*
X170430743Y-107133352D01*
X170400000Y-106978795D01*
X170400000Y-106821205D01*
X170430743Y-106666648D01*
X170491048Y-106521059D01*
X170578601Y-106390027D01*
X170690027Y-106278601D01*
X170821059Y-106191048D01*
X170966648Y-106130743D01*
X171121205Y-106100000D01*
X171278795Y-106100000D01*
X171433352Y-106130743D01*
X171433352Y-106130743D01*
G37*
G36*
X164079196Y-104649958D02*
X164315780Y-104747954D01*
X164528705Y-104890226D01*
X164709774Y-105071295D01*
X164852046Y-105284220D01*
X164950042Y-105520804D01*
X165000000Y-105771960D01*
X165000000Y-106028040D01*
X164950042Y-106279196D01*
X164852046Y-106515780D01*
X164709774Y-106728705D01*
X164528705Y-106909774D01*
X164315780Y-107052046D01*
X164079196Y-107150042D01*
X163828040Y-107200000D01*
X163571960Y-107200000D01*
X163320804Y-107150042D01*
X163084220Y-107052046D01*
X162871295Y-106909774D01*
X162690226Y-106728705D01*
X162547954Y-106515780D01*
X162449958Y-106279196D01*
X162400000Y-106028040D01*
X162400000Y-105771960D01*
X162449958Y-105520804D01*
X162547954Y-105284220D01*
X162690226Y-105071295D01*
X162871295Y-104890226D01*
X163084220Y-104747954D01*
X163320804Y-104649958D01*
X163571960Y-104600000D01*
X163828040Y-104600000D01*
X164079196Y-104649958D01*
X164079196Y-104649958D01*
G37*
G36*
X175079196Y-104649958D02*
X175315780Y-104747954D01*
X175528705Y-104890226D01*
X175709774Y-105071295D01*
X175852046Y-105284220D01*
X175950042Y-105520804D01*
X176000000Y-105771960D01*
X176000000Y-106028040D01*
X175950042Y-106279196D01*
X175852046Y-106515780D01*
X175709774Y-106728705D01*
X175528705Y-106909774D01*
X175315780Y-107052046D01*
X175079196Y-107150042D01*
X174828040Y-107200000D01*
X174571960Y-107200000D01*
X174320804Y-107150042D01*
X174084220Y-107052046D01*
X173871295Y-106909774D01*
X173690226Y-106728705D01*
X173547954Y-106515780D01*
X173449958Y-106279196D01*
X173400000Y-106028040D01*
X173400000Y-105771960D01*
X173449958Y-105520804D01*
X173547954Y-105284220D01*
X173690226Y-105071295D01*
X173871295Y-104890226D01*
X174084220Y-104747954D01*
X174320804Y-104649958D01*
X174571960Y-104600000D01*
X174828040Y-104600000D01*
X175079196Y-104649958D01*
X175079196Y-104649958D01*
G37*
G36*
X158268707Y-104557597D02*
X158345836Y-104565193D01*
X158477787Y-104605220D01*
X158543763Y-104625233D01*
X158726172Y-104722733D01*
X158886054Y-104853946D01*
X159017267Y-105013828D01*
X159114767Y-105196237D01*
X159114767Y-105196238D01*
X159174807Y-105394164D01*
X159195080Y-105600000D01*
X159174807Y-105805836D01*
X159134780Y-105937787D01*
X159114767Y-106003763D01*
X159017267Y-106186172D01*
X158886054Y-106346054D01*
X158726172Y-106477267D01*
X158543763Y-106574767D01*
X158477787Y-106594780D01*
X158345836Y-106634807D01*
X158268707Y-106642404D01*
X158191580Y-106650000D01*
X158088420Y-106650000D01*
X158011293Y-106642404D01*
X157934164Y-106634807D01*
X157802213Y-106594780D01*
X157736237Y-106574767D01*
X157553828Y-106477267D01*
X157393946Y-106346054D01*
X157262733Y-106186172D01*
X157165233Y-106003763D01*
X157145220Y-105937787D01*
X157105193Y-105805836D01*
X157084920Y-105600000D01*
X157105193Y-105394164D01*
X157165233Y-105196238D01*
X157165233Y-105196237D01*
X157262733Y-105013828D01*
X157393946Y-104853946D01*
X157553828Y-104722733D01*
X157736237Y-104625233D01*
X157802213Y-104605220D01*
X157934164Y-104565193D01*
X158011293Y-104557596D01*
X158088420Y-104550000D01*
X158191580Y-104550000D01*
X158268707Y-104557597D01*
X158268707Y-104557597D01*
G37*
G36*
X153188707Y-104557597D02*
X153265836Y-104565193D01*
X153397787Y-104605220D01*
X153463763Y-104625233D01*
X153646172Y-104722733D01*
X153806054Y-104853946D01*
X153937267Y-105013828D01*
X154034767Y-105196237D01*
X154034767Y-105196238D01*
X154094807Y-105394164D01*
X154115080Y-105600000D01*
X154094807Y-105805836D01*
X154054780Y-105937787D01*
X154034767Y-106003763D01*
X153937267Y-106186172D01*
X153806054Y-106346054D01*
X153646172Y-106477267D01*
X153463763Y-106574767D01*
X153397787Y-106594780D01*
X153265836Y-106634807D01*
X153188707Y-106642404D01*
X153111580Y-106650000D01*
X153008420Y-106650000D01*
X152931293Y-106642404D01*
X152854164Y-106634807D01*
X152722213Y-106594780D01*
X152656237Y-106574767D01*
X152473828Y-106477267D01*
X152313946Y-106346054D01*
X152182733Y-106186172D01*
X152085233Y-106003763D01*
X152065220Y-105937787D01*
X152025193Y-105805836D01*
X152004920Y-105600000D01*
X152025193Y-105394164D01*
X152085233Y-105196238D01*
X152085233Y-105196237D01*
X152182733Y-105013828D01*
X152313946Y-104853946D01*
X152473828Y-104722733D01*
X152656237Y-104625233D01*
X152722213Y-104605220D01*
X152854164Y-104565193D01*
X152931293Y-104557596D01*
X153008420Y-104550000D01*
X153111580Y-104550000D01*
X153188707Y-104557597D01*
X153188707Y-104557597D01*
G37*
G36*
X155728707Y-104557597D02*
X155805836Y-104565193D01*
X155937787Y-104605220D01*
X156003763Y-104625233D01*
X156186172Y-104722733D01*
X156346054Y-104853946D01*
X156477267Y-105013828D01*
X156574767Y-105196237D01*
X156574767Y-105196238D01*
X156634807Y-105394164D01*
X156655080Y-105600000D01*
X156634807Y-105805836D01*
X156594780Y-105937787D01*
X156574767Y-106003763D01*
X156477267Y-106186172D01*
X156346054Y-106346054D01*
X156186172Y-106477267D01*
X156003763Y-106574767D01*
X155937787Y-106594780D01*
X155805836Y-106634807D01*
X155728707Y-106642404D01*
X155651580Y-106650000D01*
X155548420Y-106650000D01*
X155471293Y-106642404D01*
X155394164Y-106634807D01*
X155262213Y-106594780D01*
X155196237Y-106574767D01*
X155013828Y-106477267D01*
X154853946Y-106346054D01*
X154722733Y-106186172D01*
X154625233Y-106003763D01*
X154605220Y-105937787D01*
X154565193Y-105805836D01*
X154544920Y-105600000D01*
X154565193Y-105394164D01*
X154625233Y-105196238D01*
X154625233Y-105196237D01*
X154722733Y-105013828D01*
X154853946Y-104853946D01*
X155013828Y-104722733D01*
X155196237Y-104625233D01*
X155262213Y-104605220D01*
X155394164Y-104565193D01*
X155471293Y-104557596D01*
X155548420Y-104550000D01*
X155651580Y-104550000D01*
X155728707Y-104557597D01*
X155728707Y-104557597D01*
G37*
G36*
X150648707Y-104557597D02*
X150725836Y-104565193D01*
X150857787Y-104605220D01*
X150923763Y-104625233D01*
X151106172Y-104722733D01*
X151266054Y-104853946D01*
X151397267Y-105013828D01*
X151494767Y-105196237D01*
X151494767Y-105196238D01*
X151554807Y-105394164D01*
X151575080Y-105600000D01*
X151554807Y-105805836D01*
X151514780Y-105937787D01*
X151494767Y-106003763D01*
X151397267Y-106186172D01*
X151266054Y-106346054D01*
X151106172Y-106477267D01*
X150923763Y-106574767D01*
X150857787Y-106594780D01*
X150725836Y-106634807D01*
X150648707Y-106642404D01*
X150571580Y-106650000D01*
X150468420Y-106650000D01*
X150391293Y-106642404D01*
X150314164Y-106634807D01*
X150182213Y-106594780D01*
X150116237Y-106574767D01*
X149933828Y-106477267D01*
X149773946Y-106346054D01*
X149642733Y-106186172D01*
X149545233Y-106003763D01*
X149525220Y-105937787D01*
X149485193Y-105805836D01*
X149464920Y-105600000D01*
X149485193Y-105394164D01*
X149545233Y-105196238D01*
X149545233Y-105196237D01*
X149642733Y-105013828D01*
X149773946Y-104853946D01*
X149933828Y-104722733D01*
X150116237Y-104625233D01*
X150182213Y-104605220D01*
X150314164Y-104565193D01*
X150391293Y-104557596D01*
X150468420Y-104550000D01*
X150571580Y-104550000D01*
X150648707Y-104557597D01*
X150648707Y-104557597D01*
G37*
G36*
X149030000Y-106650000D02*
X146930000Y-106650000D01*
X146930000Y-104550000D01*
X149030000Y-104550000D01*
X149030000Y-106650000D01*
X149030000Y-106650000D01*
G37*
G36*
X172000000Y-105700000D02*
X170400000Y-105700000D01*
X170400000Y-104100000D01*
X172000000Y-104100000D01*
X172000000Y-105700000D01*
X172000000Y-105700000D01*
G37*
G36*
X169433352Y-104130743D02*
X169578941Y-104191048D01*
X169709973Y-104278601D01*
X169821399Y-104390027D01*
X169908952Y-104521059D01*
X169969257Y-104666648D01*
X170000000Y-104821205D01*
X170000000Y-104978795D01*
X169969257Y-105133352D01*
X169908952Y-105278941D01*
X169821399Y-105409973D01*
X169709973Y-105521399D01*
X169578941Y-105608952D01*
X169433352Y-105669257D01*
X169278795Y-105700000D01*
X169121205Y-105700000D01*
X168966648Y-105669257D01*
X168821059Y-105608952D01*
X168690027Y-105521399D01*
X168578601Y-105409973D01*
X168491048Y-105278941D01*
X168430743Y-105133352D01*
X168400000Y-104978795D01*
X168400000Y-104821205D01*
X168430743Y-104666648D01*
X168491048Y-104521059D01*
X168578601Y-104390027D01*
X168690027Y-104278601D01*
X168821059Y-104191048D01*
X168966648Y-104130743D01*
X169121205Y-104100000D01*
X169278795Y-104100000D01*
X169433352Y-104130743D01*
X169433352Y-104130743D01*
G37*
G36*
X167433352Y-104130743D02*
X167578941Y-104191048D01*
X167709973Y-104278601D01*
X167821399Y-104390027D01*
X167908952Y-104521059D01*
X167969257Y-104666648D01*
X168000000Y-104821205D01*
X168000000Y-104978795D01*
X167969257Y-105133352D01*
X167908952Y-105278941D01*
X167821399Y-105409973D01*
X167709973Y-105521399D01*
X167578941Y-105608952D01*
X167433352Y-105669257D01*
X167278795Y-105700000D01*
X167121205Y-105700000D01*
X166966648Y-105669257D01*
X166821059Y-105608952D01*
X166690027Y-105521399D01*
X166578601Y-105409973D01*
X166491048Y-105278941D01*
X166430743Y-105133352D01*
X166400000Y-104978795D01*
X166400000Y-104821205D01*
X166430743Y-104666648D01*
X166491048Y-104521059D01*
X166578601Y-104390027D01*
X166690027Y-104278601D01*
X166821059Y-104191048D01*
X166966648Y-104130743D01*
X167121205Y-104100000D01*
X167278795Y-104100000D01*
X167433352Y-104130743D01*
X167433352Y-104130743D01*
G37*
M02*
