G04 #@! TF.GenerationSoftware,KiCad,Pcbnew,5.1.10*
G04 #@! TF.CreationDate,2021-12-09T23:26:38-05:00*
G04 #@! TF.ProjectId,usbdbg,75736264-6267-42e6-9b69-6361645f7063,rev?*
G04 #@! TF.SameCoordinates,Original*
G04 #@! TF.FileFunction,Paste,Top*
G04 #@! TF.FilePolarity,Positive*
%FSLAX46Y46*%
G04 Gerber Fmt 4.6, Leading zero omitted, Abs format (unit mm)*
G04 Created by KiCad (PCBNEW 5.1.10) date 2021-12-09 23:26:38*
%MOMM*%
%LPD*%
G01*
G04 APERTURE LIST*
%ADD10R,0.600000X1.500000*%
%ADD11R,0.600000X2.000000*%
%ADD12R,0.600000X1.550000*%
%ADD13R,2.000000X1.000000*%
G04 APERTURE END LIST*
G36*
G01*
X164192000Y-56445999D02*
X164192000Y-57346001D01*
G75*
G02*
X163942001Y-57596000I-249999J0D01*
G01*
X163241999Y-57596000D01*
G75*
G02*
X162992000Y-57346001I0J249999D01*
G01*
X162992000Y-56445999D01*
G75*
G02*
X163241999Y-56196000I249999J0D01*
G01*
X163942001Y-56196000D01*
G75*
G02*
X164192000Y-56445999I0J-249999D01*
G01*
G37*
G36*
G01*
X166192000Y-56445999D02*
X166192000Y-57346001D01*
G75*
G02*
X165942001Y-57596000I-249999J0D01*
G01*
X165241999Y-57596000D01*
G75*
G02*
X164992000Y-57346001I0J249999D01*
G01*
X164992000Y-56445999D01*
G75*
G02*
X165241999Y-56196000I249999J0D01*
G01*
X165942001Y-56196000D01*
G75*
G02*
X166192000Y-56445999I0J-249999D01*
G01*
G37*
G36*
G01*
X136201999Y-65991000D02*
X137102001Y-65991000D01*
G75*
G02*
X137352000Y-66240999I0J-249999D01*
G01*
X137352000Y-66891001D01*
G75*
G02*
X137102001Y-67141000I-249999J0D01*
G01*
X136201999Y-67141000D01*
G75*
G02*
X135952000Y-66891001I0J249999D01*
G01*
X135952000Y-66240999D01*
G75*
G02*
X136201999Y-65991000I249999J0D01*
G01*
G37*
G36*
G01*
X136201999Y-63941000D02*
X137102001Y-63941000D01*
G75*
G02*
X137352000Y-64190999I0J-249999D01*
G01*
X137352000Y-64841001D01*
G75*
G02*
X137102001Y-65091000I-249999J0D01*
G01*
X136201999Y-65091000D01*
G75*
G02*
X135952000Y-64841001I0J249999D01*
G01*
X135952000Y-64190999D01*
G75*
G02*
X136201999Y-63941000I249999J0D01*
G01*
G37*
D10*
X152146000Y-60104000D03*
X150876000Y-60104000D03*
X149606000Y-60104000D03*
X148336000Y-60104000D03*
X147066000Y-60104000D03*
X145796000Y-60104000D03*
X144526000Y-60104000D03*
X144526000Y-54704000D03*
X145796000Y-54704000D03*
X147066000Y-54704000D03*
X148336000Y-54704000D03*
X149606000Y-54704000D03*
X150876000Y-54704000D03*
X152146000Y-54704000D03*
D11*
X139700000Y-64768000D03*
X140970000Y-64768000D03*
X142240000Y-64768000D03*
X143510000Y-64768000D03*
X144780000Y-64768000D03*
X146050000Y-64768000D03*
X147320000Y-64768000D03*
X148590000Y-64768000D03*
X149860000Y-64768000D03*
X149860000Y-74168000D03*
X148590000Y-74168000D03*
X147320000Y-74168000D03*
X146050000Y-74168000D03*
X144780000Y-74168000D03*
X143510000Y-74168000D03*
X142240000Y-74168000D03*
X140970000Y-74168000D03*
X139700000Y-74168000D03*
D12*
X159893000Y-60104000D03*
X158623000Y-60104000D03*
X157353000Y-60104000D03*
X156083000Y-60104000D03*
X156083000Y-54704000D03*
X157353000Y-54704000D03*
X158623000Y-54704000D03*
X159893000Y-54704000D03*
G36*
G01*
X137872500Y-58811000D02*
X137872500Y-60061000D01*
G75*
G02*
X137622500Y-60311000I-250000J0D01*
G01*
X136697500Y-60311000D01*
G75*
G02*
X136447500Y-60061000I0J250000D01*
G01*
X136447500Y-58811000D01*
G75*
G02*
X136697500Y-58561000I250000J0D01*
G01*
X137622500Y-58561000D01*
G75*
G02*
X137872500Y-58811000I0J-250000D01*
G01*
G37*
G36*
G01*
X140847500Y-58811000D02*
X140847500Y-60061000D01*
G75*
G02*
X140597500Y-60311000I-250000J0D01*
G01*
X139672500Y-60311000D01*
G75*
G02*
X139422500Y-60061000I0J250000D01*
G01*
X139422500Y-58811000D01*
G75*
G02*
X139672500Y-58561000I250000J0D01*
G01*
X140597500Y-58561000D01*
G75*
G02*
X140847500Y-58811000I0J-250000D01*
G01*
G37*
G36*
G01*
X140847500Y-55255000D02*
X140847500Y-56505000D01*
G75*
G02*
X140597500Y-56755000I-250000J0D01*
G01*
X139672500Y-56755000D01*
G75*
G02*
X139422500Y-56505000I0J250000D01*
G01*
X139422500Y-55255000D01*
G75*
G02*
X139672500Y-55005000I250000J0D01*
G01*
X140597500Y-55005000D01*
G75*
G02*
X140847500Y-55255000I0J-250000D01*
G01*
G37*
G36*
G01*
X137872500Y-55255000D02*
X137872500Y-56505000D01*
G75*
G02*
X137622500Y-56755000I-250000J0D01*
G01*
X136697500Y-56755000D01*
G75*
G02*
X136447500Y-56505000I0J250000D01*
G01*
X136447500Y-55255000D01*
G75*
G02*
X136697500Y-55005000I250000J0D01*
G01*
X137622500Y-55005000D01*
G75*
G02*
X137872500Y-55255000I0J-250000D01*
G01*
G37*
D13*
X160020000Y-64516000D03*
X160020000Y-67056000D03*
X160020000Y-69596000D03*
X160020000Y-72136000D03*
X160020000Y-74676000D03*
M02*
