M48
;DRILL file {KiCad 5.0.1} date Wed 31 Oct 2018 11:08:32 AM EDT
;FORMAT={-:-/ absolute / metric / decimal}
FMAT,2
METRIC,TZ
T1C0.440
T2C0.680
T3C0.920
T4C1.000
T5C2.330
T6C3.200
%
G90
G05
M71
T1
X152.Y-123.
X154.5Y-131.5
X155.683Y-114.808
X156.132Y-120.08
X156.235Y-121.768
X157.099Y-125.857
X157.201Y-123.241
X158.007Y-113.03
X158.756Y-112.288
X158.997Y-116.051
X159.004Y-114.859
X160.782Y-116.23
X165.Y-108.
X165.Y-113.75
X168.25Y-112.75
T2
X167.2Y-104.9
X167.2Y-106.9
X169.2Y-104.9
X169.2Y-106.9
X171.2Y-104.9
X171.2Y-106.9
T3
X168.45Y-122.85
X168.45Y-124.85
X170.95Y-122.85
X170.95Y-124.85
T4
X149.174Y-111.836
X171.272Y-117.119
X173.812Y-117.119
X176.352Y-117.119
X147.98Y-105.6
X150.52Y-105.6
X153.06Y-105.6
X155.6Y-105.6
X158.14Y-105.6
X149.174Y-115.24
T5
X163.68Y-127.56
X175.72Y-127.56
T6
X158.05Y-135.3
X148.692Y-120.523
X174.625Y-111.125
T0
M30
