M48
; DRILL file {KiCad 5.1.10} date Thu Dec  9 23:27:31 2021
; FORMAT={-:-/ absolute / metric / decimal}
; #@! TF.CreationDate,2021-12-09T23:27:31-05:00
; #@! TF.GenerationSoftware,Kicad,Pcbnew,5.1.10
; #@! TF.FileFunction,Plated,1,2,PTH
FMAT,2
METRIC
T1C0.440
T2C0.900
T3C1.000
%
G90
G05
T1
X135.763Y-55.88
X135.763Y-59.436
X137.973Y-62.332
X138.176Y-67.564
X140.259Y-61.163
X141.021Y-72.39
X141.901Y-55.88
X142.545Y-71.628
X143.459Y-55.88
X144.272Y-66.548
X146.812Y-66.548
X148.082Y-69.647
X148.285Y-56.439
X148.616Y-61.735
X148.641Y-58.826
X149.708Y-61.722
X149.86Y-69.596
X151.536Y-73.66
X151.638Y-61.824
X151.638Y-71.272
X151.638Y-72.39
X153.568Y-54.813
X153.924Y-70.612
X155.194Y-65.532
X155.194Y-68.072
X158.496Y-70.866
X158.496Y-73.406
X159.004Y-62.484
X159.055Y-52.934
X161.138Y-55.423
X161.29Y-59.944
X163.068Y-66.04
X163.068Y-68.072
X164.084Y-68.072
T3
X153.416Y-64.262
X156.972Y-64.262
X164.592Y-53.848
X164.592Y-59.944
X167.132Y-53.848
X167.132Y-59.944
T2
X133.684Y-59.324G85X132.084Y-59.324
G05
X133.684Y-70.724G85X132.084Y-70.724
G05
T0
M30
