G04 #@! TF.GenerationSoftware,KiCad,Pcbnew,(6.0.5)*
G04 #@! TF.CreationDate,2023-01-26T23:57:16-05:00*
G04 #@! TF.ProjectId,sensors,73656e73-6f72-4732-9e6b-696361645f70,rev?*
G04 #@! TF.SameCoordinates,Original*
G04 #@! TF.FileFunction,Legend,Top*
G04 #@! TF.FilePolarity,Positive*
%FSLAX46Y46*%
G04 Gerber Fmt 4.6, Leading zero omitted, Abs format (unit mm)*
G04 Created by KiCad (PCBNEW (6.0.5)) date 2023-01-26 23:57:16*
%MOMM*%
%LPD*%
G01*
G04 APERTURE LIST*
G04 Aperture macros list*
%AMRoundRect*
0 Rectangle with rounded corners*
0 $1 Rounding radius*
0 $2 $3 $4 $5 $6 $7 $8 $9 X,Y pos of 4 corners*
0 Add a 4 corners polygon primitive as box body*
4,1,4,$2,$3,$4,$5,$6,$7,$8,$9,$2,$3,0*
0 Add four circle primitives for the rounded corners*
1,1,$1+$1,$2,$3*
1,1,$1+$1,$4,$5*
1,1,$1+$1,$6,$7*
1,1,$1+$1,$8,$9*
0 Add four rect primitives between the rounded corners*
20,1,$1+$1,$2,$3,$4,$5,0*
20,1,$1+$1,$4,$5,$6,$7,0*
20,1,$1+$1,$6,$7,$8,$9,0*
20,1,$1+$1,$8,$9,$2,$3,0*%
G04 Aperture macros list end*
%ADD10C,0.125000*%
%ADD11C,0.150000*%
%ADD12C,0.120000*%
%ADD13C,0.127000*%
%ADD14C,0.400000*%
%ADD15C,0.200000*%
%ADD16C,2.082800*%
%ADD17C,3.903600*%
%ADD18C,4.003600*%
%ADD19C,5.701600*%
%ADD20RoundRect,0.300800X-0.450000X0.350000X-0.450000X-0.350000X0.450000X-0.350000X0.450000X0.350000X0*%
%ADD21RoundRect,0.300800X-0.400000X-0.625000X0.400000X-0.625000X0.400000X0.625000X-0.400000X0.625000X0*%
%ADD22RoundRect,0.300801X0.462499X0.624999X-0.462499X0.624999X-0.462499X-0.624999X0.462499X-0.624999X0*%
%ADD23RoundRect,0.300800X-0.475000X0.337500X-0.475000X-0.337500X0.475000X-0.337500X0.475000X0.337500X0*%
%ADD24C,1.601600*%
%ADD25RoundRect,0.050800X0.780000X0.325000X-0.780000X0.325000X-0.780000X-0.325000X0.780000X-0.325000X0*%
%ADD26RoundRect,0.300800X0.625000X-0.400000X0.625000X0.400000X-0.625000X0.400000X-0.625000X-0.400000X0*%
%ADD27RoundRect,0.200800X-0.512500X-0.150000X0.512500X-0.150000X0.512500X0.150000X-0.512500X0.150000X0*%
%ADD28RoundRect,0.300800X-0.337500X-0.475000X0.337500X-0.475000X0.337500X0.475000X-0.337500X0.475000X0*%
%ADD29C,2.301600*%
%ADD30RoundRect,0.050800X-0.600000X0.600000X-0.600000X-0.600000X0.600000X-0.600000X0.600000X0.600000X0*%
%ADD31C,1.301600*%
%ADD32RoundRect,0.300800X0.337500X0.475000X-0.337500X0.475000X-0.337500X-0.475000X0.337500X-0.475000X0*%
%ADD33RoundRect,0.300800X0.350000X0.625000X-0.350000X0.625000X-0.350000X-0.625000X0.350000X-0.625000X0*%
%ADD34O,1.301600X1.851600*%
%ADD35RoundRect,0.200800X0.150000X-0.875000X0.150000X0.875000X-0.150000X0.875000X-0.150000X-0.875000X0*%
%ADD36RoundRect,0.300801X0.624999X-0.462499X0.624999X0.462499X-0.624999X0.462499X-0.624999X-0.462499X0*%
%ADD37RoundRect,0.050800X-0.754000X-0.754000X0.754000X-0.754000X0.754000X0.754000X-0.754000X0.754000X0*%
%ADD38C,1.609600*%
%ADD39RoundRect,0.050800X-0.325000X0.780000X-0.325000X-0.780000X0.325000X-0.780000X0.325000X0.780000X0*%
%ADD40RoundRect,0.072000X0.633800X0.243800X-0.633800X0.243800X-0.633800X-0.243800X0.633800X-0.243800X0*%
%ADD41RoundRect,0.050800X-1.025000X-2.350000X1.025000X-2.350000X1.025000X2.350000X-1.025000X2.350000X0*%
%ADD42RoundRect,0.300800X0.475000X-0.337500X0.475000X0.337500X-0.475000X0.337500X-0.475000X-0.337500X0*%
%ADD43RoundRect,0.300800X-0.350000X-0.450000X0.350000X-0.450000X0.350000X0.450000X-0.350000X0.450000X0*%
%ADD44C,1.856600*%
G04 APERTURE END LIST*
D10*
X168083333Y-129407142D02*
X168083333Y-129169047D01*
X168226190Y-129454761D02*
X167726190Y-129288095D01*
X168226190Y-129121428D01*
X168226190Y-128954761D02*
X167726190Y-128954761D01*
X167726190Y-128835714D01*
X167750000Y-128764285D01*
X167797619Y-128716666D01*
X167845238Y-128692857D01*
X167940476Y-128669047D01*
X168011904Y-128669047D01*
X168107142Y-128692857D01*
X168154761Y-128716666D01*
X168202380Y-128764285D01*
X168226190Y-128835714D01*
X168226190Y-128954761D01*
X167726190Y-128359523D02*
X167726190Y-128311904D01*
X167750000Y-128264285D01*
X167773809Y-128240476D01*
X167821428Y-128216666D01*
X167916666Y-128192857D01*
X168035714Y-128192857D01*
X168130952Y-128216666D01*
X168178571Y-128240476D01*
X168202380Y-128264285D01*
X168226190Y-128311904D01*
X168226190Y-128359523D01*
X168202380Y-128407142D01*
X168178571Y-128430952D01*
X168130952Y-128454761D01*
X168035714Y-128478571D01*
X167916666Y-128478571D01*
X167821428Y-128454761D01*
X167773809Y-128430952D01*
X167750000Y-128407142D01*
X167726190Y-128359523D01*
X167650000Y-118880952D02*
X167626190Y-118928571D01*
X167626190Y-119000000D01*
X167650000Y-119071428D01*
X167697619Y-119119047D01*
X167745238Y-119142857D01*
X167840476Y-119166666D01*
X167911904Y-119166666D01*
X168007142Y-119142857D01*
X168054761Y-119119047D01*
X168102380Y-119071428D01*
X168126190Y-119000000D01*
X168126190Y-118952380D01*
X168102380Y-118880952D01*
X168078571Y-118857142D01*
X167911904Y-118857142D01*
X167911904Y-118952380D01*
X168126190Y-118642857D02*
X167626190Y-118642857D01*
X168126190Y-118357142D01*
X167626190Y-118357142D01*
X168126190Y-118119047D02*
X167626190Y-118119047D01*
X167626190Y-118000000D01*
X167650000Y-117928571D01*
X167697619Y-117880952D01*
X167745238Y-117857142D01*
X167840476Y-117833333D01*
X167911904Y-117833333D01*
X168007142Y-117857142D01*
X168054761Y-117880952D01*
X168102380Y-117928571D01*
X168126190Y-118000000D01*
X168126190Y-118119047D01*
X190550000Y-118980952D02*
X190526190Y-119028571D01*
X190526190Y-119100000D01*
X190550000Y-119171428D01*
X190597619Y-119219047D01*
X190645238Y-119242857D01*
X190740476Y-119266666D01*
X190811904Y-119266666D01*
X190907142Y-119242857D01*
X190954761Y-119219047D01*
X191002380Y-119171428D01*
X191026190Y-119100000D01*
X191026190Y-119052380D01*
X191002380Y-118980952D01*
X190978571Y-118957142D01*
X190811904Y-118957142D01*
X190811904Y-119052380D01*
X191026190Y-118742857D02*
X190526190Y-118742857D01*
X191026190Y-118457142D01*
X190526190Y-118457142D01*
X191026190Y-118219047D02*
X190526190Y-118219047D01*
X190526190Y-118100000D01*
X190550000Y-118028571D01*
X190597619Y-117980952D01*
X190645238Y-117957142D01*
X190740476Y-117933333D01*
X190811904Y-117933333D01*
X190907142Y-117957142D01*
X190954761Y-117980952D01*
X191002380Y-118028571D01*
X191026190Y-118100000D01*
X191026190Y-118219047D01*
X168202380Y-126695238D02*
X168226190Y-126623809D01*
X168226190Y-126504761D01*
X168202380Y-126457142D01*
X168178571Y-126433333D01*
X168130952Y-126409523D01*
X168083333Y-126409523D01*
X168035714Y-126433333D01*
X168011904Y-126457142D01*
X167988095Y-126504761D01*
X167964285Y-126600000D01*
X167940476Y-126647619D01*
X167916666Y-126671428D01*
X167869047Y-126695238D01*
X167821428Y-126695238D01*
X167773809Y-126671428D01*
X167750000Y-126647619D01*
X167726190Y-126600000D01*
X167726190Y-126480952D01*
X167750000Y-126409523D01*
X168178571Y-125909523D02*
X168202380Y-125933333D01*
X168226190Y-126004761D01*
X168226190Y-126052380D01*
X168202380Y-126123809D01*
X168154761Y-126171428D01*
X168107142Y-126195238D01*
X168011904Y-126219047D01*
X167940476Y-126219047D01*
X167845238Y-126195238D01*
X167797619Y-126171428D01*
X167750000Y-126123809D01*
X167726190Y-126052380D01*
X167726190Y-126004761D01*
X167750000Y-125933333D01*
X167773809Y-125909523D01*
X168226190Y-125457142D02*
X168226190Y-125695238D01*
X167726190Y-125695238D01*
X191126190Y-121452380D02*
X190626190Y-121452380D01*
X191126190Y-121214285D02*
X190626190Y-121214285D01*
X191126190Y-120928571D01*
X190626190Y-120928571D01*
X190626190Y-120761904D02*
X190626190Y-120476190D01*
X191126190Y-120619047D02*
X190626190Y-120619047D01*
X167726190Y-131919047D02*
X167726190Y-131609523D01*
X167916666Y-131776190D01*
X167916666Y-131704761D01*
X167940476Y-131657142D01*
X167964285Y-131633333D01*
X168011904Y-131609523D01*
X168130952Y-131609523D01*
X168178571Y-131633333D01*
X168202380Y-131657142D01*
X168226190Y-131704761D01*
X168226190Y-131847619D01*
X168202380Y-131895238D01*
X168178571Y-131919047D01*
X167726190Y-131466666D02*
X168226190Y-131300000D01*
X167726190Y-131133333D01*
X167726190Y-131014285D02*
X167726190Y-130704761D01*
X167916666Y-130871428D01*
X167916666Y-130800000D01*
X167940476Y-130752380D01*
X167964285Y-130728571D01*
X168011904Y-130704761D01*
X168130952Y-130704761D01*
X168178571Y-130728571D01*
X168202380Y-130752380D01*
X168226190Y-130800000D01*
X168226190Y-130942857D01*
X168202380Y-130990476D01*
X168178571Y-131014285D01*
X167626190Y-121619047D02*
X167626190Y-121309523D01*
X167816666Y-121476190D01*
X167816666Y-121404761D01*
X167840476Y-121357142D01*
X167864285Y-121333333D01*
X167911904Y-121309523D01*
X168030952Y-121309523D01*
X168078571Y-121333333D01*
X168102380Y-121357142D01*
X168126190Y-121404761D01*
X168126190Y-121547619D01*
X168102380Y-121595238D01*
X168078571Y-121619047D01*
X167626190Y-121166666D02*
X168126190Y-121000000D01*
X167626190Y-120833333D01*
X167626190Y-120714285D02*
X167626190Y-120404761D01*
X167816666Y-120571428D01*
X167816666Y-120500000D01*
X167840476Y-120452380D01*
X167864285Y-120428571D01*
X167911904Y-120404761D01*
X168030952Y-120404761D01*
X168078571Y-120428571D01*
X168102380Y-120452380D01*
X168126190Y-120500000D01*
X168126190Y-120642857D01*
X168102380Y-120690476D01*
X168078571Y-120714285D01*
X168102380Y-124407142D02*
X168126190Y-124335714D01*
X168126190Y-124216666D01*
X168102380Y-124169047D01*
X168078571Y-124145238D01*
X168030952Y-124121428D01*
X167983333Y-124121428D01*
X167935714Y-124145238D01*
X167911904Y-124169047D01*
X167888095Y-124216666D01*
X167864285Y-124311904D01*
X167840476Y-124359523D01*
X167816666Y-124383333D01*
X167769047Y-124407142D01*
X167721428Y-124407142D01*
X167673809Y-124383333D01*
X167650000Y-124359523D01*
X167626190Y-124311904D01*
X167626190Y-124192857D01*
X167650000Y-124121428D01*
X168126190Y-123907142D02*
X167626190Y-123907142D01*
X167626190Y-123788095D01*
X167650000Y-123716666D01*
X167697619Y-123669047D01*
X167745238Y-123645238D01*
X167840476Y-123621428D01*
X167911904Y-123621428D01*
X168007142Y-123645238D01*
X168054761Y-123669047D01*
X168102380Y-123716666D01*
X168126190Y-123788095D01*
X168126190Y-123907142D01*
X167983333Y-123430952D02*
X167983333Y-123192857D01*
X168126190Y-123478571D02*
X167626190Y-123311904D01*
X168126190Y-123145238D01*
D11*
X165163458Y-118359425D02*
X165520601Y-118359425D01*
X165092030Y-118573710D02*
X165342030Y-117823710D01*
X165592030Y-118573710D01*
X166234887Y-118573710D02*
X165806315Y-118573710D01*
X166020601Y-118573710D02*
X166020601Y-117823710D01*
X165949173Y-117930853D01*
X165877744Y-118002282D01*
X165806315Y-118037996D01*
X181889857Y-103139285D02*
X181639857Y-102782142D01*
X181461285Y-103139285D02*
X181461285Y-102389285D01*
X181747000Y-102389285D01*
X181818428Y-102425000D01*
X181854142Y-102460714D01*
X181889857Y-102532142D01*
X181889857Y-102639285D01*
X181854142Y-102710714D01*
X181818428Y-102746428D01*
X181747000Y-102782142D01*
X181461285Y-102782142D01*
X182139857Y-102389285D02*
X182604142Y-102389285D01*
X182354142Y-102675000D01*
X182461285Y-102675000D01*
X182532714Y-102710714D01*
X182568428Y-102746428D01*
X182604142Y-102817857D01*
X182604142Y-102996428D01*
X182568428Y-103067857D01*
X182532714Y-103103571D01*
X182461285Y-103139285D01*
X182247000Y-103139285D01*
X182175571Y-103103571D01*
X182139857Y-103067857D01*
X183032714Y-102710714D02*
X182961285Y-102675000D01*
X182925571Y-102639285D01*
X182889857Y-102567857D01*
X182889857Y-102532142D01*
X182925571Y-102460714D01*
X182961285Y-102425000D01*
X183032714Y-102389285D01*
X183175571Y-102389285D01*
X183247000Y-102425000D01*
X183282714Y-102460714D01*
X183318428Y-102532142D01*
X183318428Y-102567857D01*
X183282714Y-102639285D01*
X183247000Y-102675000D01*
X183175571Y-102710714D01*
X183032714Y-102710714D01*
X182961285Y-102746428D01*
X182925571Y-102782142D01*
X182889857Y-102853571D01*
X182889857Y-102996428D01*
X182925571Y-103067857D01*
X182961285Y-103103571D01*
X183032714Y-103139285D01*
X183175571Y-103139285D01*
X183247000Y-103103571D01*
X183282714Y-103067857D01*
X183318428Y-102996428D01*
X183318428Y-102853571D01*
X183282714Y-102782142D01*
X183247000Y-102746428D01*
X183175571Y-102710714D01*
X163117857Y-127589285D02*
X162867857Y-127232142D01*
X162689285Y-127589285D02*
X162689285Y-126839285D01*
X162975000Y-126839285D01*
X163046428Y-126875000D01*
X163082142Y-126910714D01*
X163117857Y-126982142D01*
X163117857Y-127089285D01*
X163082142Y-127160714D01*
X163046428Y-127196428D01*
X162975000Y-127232142D01*
X162689285Y-127232142D01*
X163367857Y-126839285D02*
X163832142Y-126839285D01*
X163582142Y-127125000D01*
X163689285Y-127125000D01*
X163760714Y-127160714D01*
X163796428Y-127196428D01*
X163832142Y-127267857D01*
X163832142Y-127446428D01*
X163796428Y-127517857D01*
X163760714Y-127553571D01*
X163689285Y-127589285D01*
X163475000Y-127589285D01*
X163403571Y-127553571D01*
X163367857Y-127517857D01*
X164546428Y-127589285D02*
X164117857Y-127589285D01*
X164332142Y-127589285D02*
X164332142Y-126839285D01*
X164260714Y-126946428D01*
X164189285Y-127017857D01*
X164117857Y-127053571D01*
X160900000Y-122746428D02*
X160650000Y-122746428D01*
X160650000Y-123139285D02*
X160650000Y-122389285D01*
X161007142Y-122389285D01*
X161685714Y-123139285D02*
X161257142Y-123139285D01*
X161471428Y-123139285D02*
X161471428Y-122389285D01*
X161400000Y-122496428D01*
X161328571Y-122567857D01*
X161257142Y-122603571D01*
X154617857Y-122389285D02*
X154367857Y-122032142D01*
X154189285Y-122389285D02*
X154189285Y-121639285D01*
X154475000Y-121639285D01*
X154546428Y-121675000D01*
X154582142Y-121710714D01*
X154617857Y-121782142D01*
X154617857Y-121889285D01*
X154582142Y-121960714D01*
X154546428Y-121996428D01*
X154475000Y-122032142D01*
X154189285Y-122032142D01*
X154867857Y-121639285D02*
X155332142Y-121639285D01*
X155082142Y-121925000D01*
X155189285Y-121925000D01*
X155260714Y-121960714D01*
X155296428Y-121996428D01*
X155332142Y-122067857D01*
X155332142Y-122246428D01*
X155296428Y-122317857D01*
X155260714Y-122353571D01*
X155189285Y-122389285D01*
X154975000Y-122389285D01*
X154903571Y-122353571D01*
X154867857Y-122317857D01*
X155582142Y-121639285D02*
X156046428Y-121639285D01*
X155796428Y-121925000D01*
X155903571Y-121925000D01*
X155975000Y-121960714D01*
X156010714Y-121996428D01*
X156046428Y-122067857D01*
X156046428Y-122246428D01*
X156010714Y-122317857D01*
X155975000Y-122353571D01*
X155903571Y-122389285D01*
X155689285Y-122389285D01*
X155617857Y-122353571D01*
X155582142Y-122317857D01*
X166617857Y-139892857D02*
X166582142Y-139928571D01*
X166475000Y-139964285D01*
X166403571Y-139964285D01*
X166296428Y-139928571D01*
X166225000Y-139857142D01*
X166189285Y-139785714D01*
X166153571Y-139642857D01*
X166153571Y-139535714D01*
X166189285Y-139392857D01*
X166225000Y-139321428D01*
X166296428Y-139250000D01*
X166403571Y-139214285D01*
X166475000Y-139214285D01*
X166582142Y-139250000D01*
X166617857Y-139285714D01*
X167332142Y-139964285D02*
X166903571Y-139964285D01*
X167117857Y-139964285D02*
X167117857Y-139214285D01*
X167046428Y-139321428D01*
X166975000Y-139392857D01*
X166903571Y-139428571D01*
X167796428Y-139214285D02*
X167867857Y-139214285D01*
X167939285Y-139250000D01*
X167975000Y-139285714D01*
X168010714Y-139357142D01*
X168046428Y-139500000D01*
X168046428Y-139678571D01*
X168010714Y-139821428D01*
X167975000Y-139892857D01*
X167939285Y-139928571D01*
X167867857Y-139964285D01*
X167796428Y-139964285D01*
X167725000Y-139928571D01*
X167689285Y-139892857D01*
X167653571Y-139821428D01*
X167617857Y-139678571D01*
X167617857Y-139500000D01*
X167653571Y-139357142D01*
X167689285Y-139285714D01*
X167725000Y-139250000D01*
X167796428Y-139214285D01*
X176742857Y-133332142D02*
X176742857Y-133689285D01*
X176492857Y-132939285D02*
X176742857Y-133332142D01*
X176992857Y-132939285D01*
X177635714Y-133689285D02*
X177207142Y-133689285D01*
X177421428Y-133689285D02*
X177421428Y-132939285D01*
X177350000Y-133046428D01*
X177278571Y-133117857D01*
X177207142Y-133153571D01*
X184517857Y-103189285D02*
X184267857Y-102832142D01*
X184089285Y-103189285D02*
X184089285Y-102439285D01*
X184375000Y-102439285D01*
X184446428Y-102475000D01*
X184482142Y-102510714D01*
X184517857Y-102582142D01*
X184517857Y-102689285D01*
X184482142Y-102760714D01*
X184446428Y-102796428D01*
X184375000Y-102832142D01*
X184089285Y-102832142D01*
X184767857Y-102439285D02*
X185232142Y-102439285D01*
X184982142Y-102725000D01*
X185089285Y-102725000D01*
X185160714Y-102760714D01*
X185196428Y-102796428D01*
X185232142Y-102867857D01*
X185232142Y-103046428D01*
X185196428Y-103117857D01*
X185160714Y-103153571D01*
X185089285Y-103189285D01*
X184875000Y-103189285D01*
X184803571Y-103153571D01*
X184767857Y-103117857D01*
X185589285Y-103189285D02*
X185732142Y-103189285D01*
X185803571Y-103153571D01*
X185839285Y-103117857D01*
X185910714Y-103010714D01*
X185946428Y-102867857D01*
X185946428Y-102582142D01*
X185910714Y-102510714D01*
X185875000Y-102475000D01*
X185803571Y-102439285D01*
X185660714Y-102439285D01*
X185589285Y-102475000D01*
X185553571Y-102510714D01*
X185517857Y-102582142D01*
X185517857Y-102760714D01*
X185553571Y-102832142D01*
X185589285Y-102867857D01*
X185660714Y-102903571D01*
X185803571Y-102903571D01*
X185875000Y-102867857D01*
X185910714Y-102832142D01*
X185946428Y-102760714D01*
X162661856Y-130646895D02*
X162661856Y-131254038D01*
X162697570Y-131325467D01*
X162733285Y-131361181D01*
X162804713Y-131396895D01*
X162947570Y-131396895D01*
X163018999Y-131361181D01*
X163054713Y-131325467D01*
X163090427Y-131254038D01*
X163090427Y-130646895D01*
X163804713Y-130646895D02*
X163447570Y-130646895D01*
X163411856Y-131004038D01*
X163447570Y-130968324D01*
X163518999Y-130932610D01*
X163697570Y-130932610D01*
X163768999Y-130968324D01*
X163804713Y-131004038D01*
X163840427Y-131075467D01*
X163840427Y-131254038D01*
X163804713Y-131325467D01*
X163768999Y-131361181D01*
X163697570Y-131396895D01*
X163518999Y-131396895D01*
X163447570Y-131361181D01*
X163411856Y-131325467D01*
X162090557Y-115514685D02*
X161840557Y-115157542D01*
X161661985Y-115514685D02*
X161661985Y-114764685D01*
X161947700Y-114764685D01*
X162019128Y-114800400D01*
X162054842Y-114836114D01*
X162090557Y-114907542D01*
X162090557Y-115014685D01*
X162054842Y-115086114D01*
X162019128Y-115121828D01*
X161947700Y-115157542D01*
X161661985Y-115157542D01*
X162733414Y-115014685D02*
X162733414Y-115514685D01*
X162554842Y-114728971D02*
X162376271Y-115264685D01*
X162840557Y-115264685D01*
X163269128Y-114764685D02*
X163340557Y-114764685D01*
X163411985Y-114800400D01*
X163447700Y-114836114D01*
X163483414Y-114907542D01*
X163519128Y-115050400D01*
X163519128Y-115228971D01*
X163483414Y-115371828D01*
X163447700Y-115443257D01*
X163411985Y-115478971D01*
X163340557Y-115514685D01*
X163269128Y-115514685D01*
X163197700Y-115478971D01*
X163161985Y-115443257D01*
X163126271Y-115371828D01*
X163090557Y-115228971D01*
X163090557Y-115050400D01*
X163126271Y-114907542D01*
X163161985Y-114836114D01*
X163197700Y-114800400D01*
X163269128Y-114764685D01*
X179475000Y-103114285D02*
X179225000Y-102757142D01*
X179046428Y-103114285D02*
X179046428Y-102364285D01*
X179332142Y-102364285D01*
X179403571Y-102400000D01*
X179439285Y-102435714D01*
X179475000Y-102507142D01*
X179475000Y-102614285D01*
X179439285Y-102685714D01*
X179403571Y-102721428D01*
X179332142Y-102757142D01*
X179046428Y-102757142D01*
X180117857Y-102614285D02*
X180117857Y-103114285D01*
X179939285Y-102328571D02*
X179760714Y-102864285D01*
X180225000Y-102864285D01*
X172173971Y-137866885D02*
X172173971Y-138474028D01*
X172209685Y-138545457D01*
X172245400Y-138581171D01*
X172316828Y-138616885D01*
X172459685Y-138616885D01*
X172531114Y-138581171D01*
X172566828Y-138545457D01*
X172602542Y-138474028D01*
X172602542Y-137866885D01*
X173066828Y-138188314D02*
X172995400Y-138152600D01*
X172959685Y-138116885D01*
X172923971Y-138045457D01*
X172923971Y-138009742D01*
X172959685Y-137938314D01*
X172995400Y-137902600D01*
X173066828Y-137866885D01*
X173209685Y-137866885D01*
X173281114Y-137902600D01*
X173316828Y-137938314D01*
X173352542Y-138009742D01*
X173352542Y-138045457D01*
X173316828Y-138116885D01*
X173281114Y-138152600D01*
X173209685Y-138188314D01*
X173066828Y-138188314D01*
X172995400Y-138224028D01*
X172959685Y-138259742D01*
X172923971Y-138331171D01*
X172923971Y-138474028D01*
X172959685Y-138545457D01*
X172995400Y-138581171D01*
X173066828Y-138616885D01*
X173209685Y-138616885D01*
X173281114Y-138581171D01*
X173316828Y-138545457D01*
X173352542Y-138474028D01*
X173352542Y-138331171D01*
X173316828Y-138259742D01*
X173281114Y-138224028D01*
X173209685Y-138188314D01*
X164242300Y-142486257D02*
X164206585Y-142521971D01*
X164099442Y-142557685D01*
X164028014Y-142557685D01*
X163920871Y-142521971D01*
X163849442Y-142450542D01*
X163813728Y-142379114D01*
X163778014Y-142236257D01*
X163778014Y-142129114D01*
X163813728Y-141986257D01*
X163849442Y-141914828D01*
X163920871Y-141843400D01*
X164028014Y-141807685D01*
X164099442Y-141807685D01*
X164206585Y-141843400D01*
X164242300Y-141879114D01*
X164492300Y-141807685D02*
X164992300Y-141807685D01*
X164670871Y-142557685D01*
X160278357Y-134023285D02*
X160028357Y-133666142D01*
X159849785Y-134023285D02*
X159849785Y-133273285D01*
X160135500Y-133273285D01*
X160206928Y-133309000D01*
X160242642Y-133344714D01*
X160278357Y-133416142D01*
X160278357Y-133523285D01*
X160242642Y-133594714D01*
X160206928Y-133630428D01*
X160135500Y-133666142D01*
X159849785Y-133666142D01*
X160528357Y-133273285D02*
X160992642Y-133273285D01*
X160742642Y-133559000D01*
X160849785Y-133559000D01*
X160921214Y-133594714D01*
X160956928Y-133630428D01*
X160992642Y-133701857D01*
X160992642Y-133880428D01*
X160956928Y-133951857D01*
X160921214Y-133987571D01*
X160849785Y-134023285D01*
X160635500Y-134023285D01*
X160564071Y-133987571D01*
X160528357Y-133951857D01*
X161278357Y-133344714D02*
X161314071Y-133309000D01*
X161385500Y-133273285D01*
X161564071Y-133273285D01*
X161635500Y-133309000D01*
X161671214Y-133344714D01*
X161706928Y-133416142D01*
X161706928Y-133487571D01*
X161671214Y-133594714D01*
X161242642Y-134023285D01*
X161706928Y-134023285D01*
X151605000Y-119299285D02*
X151605000Y-119835000D01*
X151569285Y-119942142D01*
X151497857Y-120013571D01*
X151390714Y-120049285D01*
X151319285Y-120049285D01*
X152283571Y-119299285D02*
X152140714Y-119299285D01*
X152069285Y-119335000D01*
X152033571Y-119370714D01*
X151962142Y-119477857D01*
X151926428Y-119620714D01*
X151926428Y-119906428D01*
X151962142Y-119977857D01*
X151997857Y-120013571D01*
X152069285Y-120049285D01*
X152212142Y-120049285D01*
X152283571Y-120013571D01*
X152319285Y-119977857D01*
X152355000Y-119906428D01*
X152355000Y-119727857D01*
X152319285Y-119656428D01*
X152283571Y-119620714D01*
X152212142Y-119585000D01*
X152069285Y-119585000D01*
X151997857Y-119620714D01*
X151962142Y-119656428D01*
X151926428Y-119727857D01*
X180574500Y-139590599D02*
X180538785Y-139626313D01*
X180431642Y-139662027D01*
X180360214Y-139662027D01*
X180253071Y-139626313D01*
X180181642Y-139554884D01*
X180145928Y-139483456D01*
X180110214Y-139340599D01*
X180110214Y-139233456D01*
X180145928Y-139090599D01*
X180181642Y-139019170D01*
X180253071Y-138947742D01*
X180360214Y-138912027D01*
X180431642Y-138912027D01*
X180538785Y-138947742D01*
X180574500Y-138983456D01*
X180824500Y-138912027D02*
X181288785Y-138912027D01*
X181038785Y-139197742D01*
X181145928Y-139197742D01*
X181217357Y-139233456D01*
X181253071Y-139269170D01*
X181288785Y-139340599D01*
X181288785Y-139519170D01*
X181253071Y-139590599D01*
X181217357Y-139626313D01*
X181145928Y-139662027D01*
X180931642Y-139662027D01*
X180860214Y-139626313D01*
X180824500Y-139590599D01*
X167633117Y-100741599D02*
X167633117Y-101277314D01*
X167597402Y-101384456D01*
X167525974Y-101455885D01*
X167418831Y-101491599D01*
X167347402Y-101491599D01*
X167918831Y-100741599D02*
X168383117Y-100741599D01*
X168133117Y-101027314D01*
X168240259Y-101027314D01*
X168311688Y-101063028D01*
X168347402Y-101098742D01*
X168383117Y-101170171D01*
X168383117Y-101348742D01*
X168347402Y-101420171D01*
X168311688Y-101455885D01*
X168240259Y-101491599D01*
X168025974Y-101491599D01*
X167954545Y-101455885D01*
X167918831Y-101420171D01*
X179428571Y-116689285D02*
X179428571Y-117296428D01*
X179464285Y-117367857D01*
X179500000Y-117403571D01*
X179571428Y-117439285D01*
X179714285Y-117439285D01*
X179785714Y-117403571D01*
X179821428Y-117367857D01*
X179857142Y-117296428D01*
X179857142Y-116689285D01*
X180607142Y-117439285D02*
X180178571Y-117439285D01*
X180392857Y-117439285D02*
X180392857Y-116689285D01*
X180321428Y-116796428D01*
X180250000Y-116867857D01*
X180178571Y-116903571D01*
X179046428Y-113139285D02*
X179046428Y-112389285D01*
X179225000Y-112389285D01*
X179332142Y-112425000D01*
X179403571Y-112496428D01*
X179439285Y-112567857D01*
X179475000Y-112710714D01*
X179475000Y-112817857D01*
X179439285Y-112960714D01*
X179403571Y-113032142D01*
X179332142Y-113103571D01*
X179225000Y-113139285D01*
X179046428Y-113139285D01*
X180189285Y-113139285D02*
X179760714Y-113139285D01*
X179975000Y-113139285D02*
X179975000Y-112389285D01*
X179903571Y-112496428D01*
X179832142Y-112567857D01*
X179760714Y-112603571D01*
X156340857Y-100964228D02*
X156340857Y-101483942D01*
X156371428Y-101545085D01*
X156402000Y-101575657D01*
X156463142Y-101606228D01*
X156585428Y-101606228D01*
X156646571Y-101575657D01*
X156677142Y-101545085D01*
X156707714Y-101483942D01*
X156707714Y-100964228D01*
X156952285Y-100964228D02*
X157380285Y-100964228D01*
X157105142Y-101606228D01*
X184646428Y-113139285D02*
X184646428Y-112389285D01*
X184825000Y-112389285D01*
X184932142Y-112425000D01*
X185003571Y-112496428D01*
X185039285Y-112567857D01*
X185075000Y-112710714D01*
X185075000Y-112817857D01*
X185039285Y-112960714D01*
X185003571Y-113032142D01*
X184932142Y-113103571D01*
X184825000Y-113139285D01*
X184646428Y-113139285D01*
X185325000Y-112389285D02*
X185789285Y-112389285D01*
X185539285Y-112675000D01*
X185646428Y-112675000D01*
X185717857Y-112710714D01*
X185753571Y-112746428D01*
X185789285Y-112817857D01*
X185789285Y-112996428D01*
X185753571Y-113067857D01*
X185717857Y-113103571D01*
X185646428Y-113139285D01*
X185432142Y-113139285D01*
X185360714Y-113103571D01*
X185325000Y-113067857D01*
X155125000Y-136796428D02*
X154875000Y-136796428D01*
X154875000Y-137189285D02*
X154875000Y-136439285D01*
X155232142Y-136439285D01*
X155482142Y-136510714D02*
X155517857Y-136475000D01*
X155589285Y-136439285D01*
X155767857Y-136439285D01*
X155839285Y-136475000D01*
X155875000Y-136510714D01*
X155910714Y-136582142D01*
X155910714Y-136653571D01*
X155875000Y-136760714D01*
X155446428Y-137189285D01*
X155910714Y-137189285D01*
X164828571Y-133389285D02*
X164828571Y-133996428D01*
X164864285Y-134067857D01*
X164900000Y-134103571D01*
X164971428Y-134139285D01*
X165114285Y-134139285D01*
X165185714Y-134103571D01*
X165221428Y-134067857D01*
X165257142Y-133996428D01*
X165257142Y-133389285D01*
X165935714Y-133389285D02*
X165792857Y-133389285D01*
X165721428Y-133425000D01*
X165685714Y-133460714D01*
X165614285Y-133567857D01*
X165578571Y-133710714D01*
X165578571Y-133996428D01*
X165614285Y-134067857D01*
X165650000Y-134103571D01*
X165721428Y-134139285D01*
X165864285Y-134139285D01*
X165935714Y-134103571D01*
X165971428Y-134067857D01*
X166007142Y-133996428D01*
X166007142Y-133817857D01*
X165971428Y-133746428D01*
X165935714Y-133710714D01*
X165864285Y-133675000D01*
X165721428Y-133675000D01*
X165650000Y-133710714D01*
X165614285Y-133746428D01*
X165578571Y-133817857D01*
X174662200Y-108555357D02*
X174626485Y-108591071D01*
X174519342Y-108626785D01*
X174447914Y-108626785D01*
X174340771Y-108591071D01*
X174269342Y-108519642D01*
X174233628Y-108448214D01*
X174197914Y-108305357D01*
X174197914Y-108198214D01*
X174233628Y-108055357D01*
X174269342Y-107983928D01*
X174340771Y-107912500D01*
X174447914Y-107876785D01*
X174519342Y-107876785D01*
X174626485Y-107912500D01*
X174662200Y-107948214D01*
X175340771Y-107876785D02*
X174983628Y-107876785D01*
X174947914Y-108233928D01*
X174983628Y-108198214D01*
X175055057Y-108162500D01*
X175233628Y-108162500D01*
X175305057Y-108198214D01*
X175340771Y-108233928D01*
X175376485Y-108305357D01*
X175376485Y-108483928D01*
X175340771Y-108555357D01*
X175305057Y-108591071D01*
X175233628Y-108626785D01*
X175055057Y-108626785D01*
X174983628Y-108591071D01*
X174947914Y-108555357D01*
X181796428Y-113139285D02*
X181796428Y-112389285D01*
X181975000Y-112389285D01*
X182082142Y-112425000D01*
X182153571Y-112496428D01*
X182189285Y-112567857D01*
X182225000Y-112710714D01*
X182225000Y-112817857D01*
X182189285Y-112960714D01*
X182153571Y-113032142D01*
X182082142Y-113103571D01*
X181975000Y-113139285D01*
X181796428Y-113139285D01*
X182510714Y-112460714D02*
X182546428Y-112425000D01*
X182617857Y-112389285D01*
X182796428Y-112389285D01*
X182867857Y-112425000D01*
X182903571Y-112460714D01*
X182939285Y-112532142D01*
X182939285Y-112603571D01*
X182903571Y-112710714D01*
X182475000Y-113139285D01*
X182939285Y-113139285D01*
X175658117Y-100666599D02*
X175658117Y-101202314D01*
X175622402Y-101309456D01*
X175550974Y-101380885D01*
X175443831Y-101416599D01*
X175372402Y-101416599D01*
X176336688Y-100916599D02*
X176336688Y-101416599D01*
X176158117Y-100630885D02*
X175979545Y-101166599D01*
X176443831Y-101166599D01*
X179317857Y-141767857D02*
X179282142Y-141803571D01*
X179175000Y-141839285D01*
X179103571Y-141839285D01*
X178996428Y-141803571D01*
X178925000Y-141732142D01*
X178889285Y-141660714D01*
X178853571Y-141517857D01*
X178853571Y-141410714D01*
X178889285Y-141267857D01*
X178925000Y-141196428D01*
X178996428Y-141125000D01*
X179103571Y-141089285D01*
X179175000Y-141089285D01*
X179282142Y-141125000D01*
X179317857Y-141160714D01*
X180032142Y-141839285D02*
X179603571Y-141839285D01*
X179817857Y-141839285D02*
X179817857Y-141089285D01*
X179746428Y-141196428D01*
X179675000Y-141267857D01*
X179603571Y-141303571D01*
X180317857Y-141160714D02*
X180353571Y-141125000D01*
X180425000Y-141089285D01*
X180603571Y-141089285D01*
X180675000Y-141125000D01*
X180710714Y-141160714D01*
X180746428Y-141232142D01*
X180746428Y-141303571D01*
X180710714Y-141410714D01*
X180282142Y-141839285D01*
X180746428Y-141839285D01*
X183263000Y-114981857D02*
X183227285Y-115017571D01*
X183120142Y-115053285D01*
X183048714Y-115053285D01*
X182941571Y-115017571D01*
X182870142Y-114946142D01*
X182834428Y-114874714D01*
X182798714Y-114731857D01*
X182798714Y-114624714D01*
X182834428Y-114481857D01*
X182870142Y-114410428D01*
X182941571Y-114339000D01*
X183048714Y-114303285D01*
X183120142Y-114303285D01*
X183227285Y-114339000D01*
X183263000Y-114374714D01*
X183977285Y-115053285D02*
X183548714Y-115053285D01*
X183763000Y-115053285D02*
X183763000Y-114303285D01*
X183691571Y-114410428D01*
X183620142Y-114481857D01*
X183548714Y-114517571D01*
X170471873Y-108250542D02*
X170471873Y-108769180D01*
X170502381Y-108830196D01*
X170532889Y-108860704D01*
X170593905Y-108891212D01*
X170715938Y-108891212D01*
X170776954Y-108860704D01*
X170807462Y-108830196D01*
X170837970Y-108769180D01*
X170837970Y-108250542D01*
X171082035Y-108250542D02*
X171478640Y-108250542D01*
X171265083Y-108494607D01*
X171356608Y-108494607D01*
X171417624Y-108525115D01*
X171448132Y-108555623D01*
X171478640Y-108616640D01*
X171478640Y-108769180D01*
X171448132Y-108830196D01*
X171417624Y-108860704D01*
X171356608Y-108891212D01*
X171173559Y-108891212D01*
X171112543Y-108860704D01*
X171082035Y-108830196D01*
X185300000Y-139542857D02*
X185264285Y-139578571D01*
X185157142Y-139614285D01*
X185085714Y-139614285D01*
X184978571Y-139578571D01*
X184907142Y-139507142D01*
X184871428Y-139435714D01*
X184835714Y-139292857D01*
X184835714Y-139185714D01*
X184871428Y-139042857D01*
X184907142Y-138971428D01*
X184978571Y-138900000D01*
X185085714Y-138864285D01*
X185157142Y-138864285D01*
X185264285Y-138900000D01*
X185300000Y-138935714D01*
X185942857Y-139114285D02*
X185942857Y-139614285D01*
X185764285Y-138828571D02*
X185585714Y-139364285D01*
X186050000Y-139364285D01*
X157062700Y-117449685D02*
X156705557Y-117449685D01*
X156705557Y-116699685D01*
X157705557Y-117449685D02*
X157276985Y-117449685D01*
X157491271Y-117449685D02*
X157491271Y-116699685D01*
X157419842Y-116806828D01*
X157348414Y-116878257D01*
X157276985Y-116913971D01*
X159658117Y-100766599D02*
X159658117Y-101302314D01*
X159622402Y-101409456D01*
X159550974Y-101480885D01*
X159443831Y-101516599D01*
X159372402Y-101516599D01*
X159979545Y-100838028D02*
X160015259Y-100802314D01*
X160086688Y-100766599D01*
X160265259Y-100766599D01*
X160336688Y-100802314D01*
X160372402Y-100838028D01*
X160408117Y-100909456D01*
X160408117Y-100980885D01*
X160372402Y-101088028D01*
X159943831Y-101516599D01*
X160408117Y-101516599D01*
X154206800Y-105135257D02*
X154171085Y-105170971D01*
X154063942Y-105206685D01*
X153992514Y-105206685D01*
X153885371Y-105170971D01*
X153813942Y-105099542D01*
X153778228Y-105028114D01*
X153742514Y-104885257D01*
X153742514Y-104778114D01*
X153778228Y-104635257D01*
X153813942Y-104563828D01*
X153885371Y-104492400D01*
X153992514Y-104456685D01*
X154063942Y-104456685D01*
X154171085Y-104492400D01*
X154206800Y-104528114D01*
X154635371Y-104778114D02*
X154563942Y-104742400D01*
X154528228Y-104706685D01*
X154492514Y-104635257D01*
X154492514Y-104599542D01*
X154528228Y-104528114D01*
X154563942Y-104492400D01*
X154635371Y-104456685D01*
X154778228Y-104456685D01*
X154849657Y-104492400D01*
X154885371Y-104528114D01*
X154921085Y-104599542D01*
X154921085Y-104635257D01*
X154885371Y-104706685D01*
X154849657Y-104742400D01*
X154778228Y-104778114D01*
X154635371Y-104778114D01*
X154563942Y-104813828D01*
X154528228Y-104849542D01*
X154492514Y-104920971D01*
X154492514Y-105063828D01*
X154528228Y-105135257D01*
X154563942Y-105170971D01*
X154635371Y-105206685D01*
X154778228Y-105206685D01*
X154849657Y-105170971D01*
X154885371Y-105135257D01*
X154921085Y-105063828D01*
X154921085Y-104920971D01*
X154885371Y-104849542D01*
X154849657Y-104813828D01*
X154778228Y-104778114D01*
X185863652Y-115487246D02*
X185613652Y-115130103D01*
X185435080Y-115487246D02*
X185435080Y-114737246D01*
X185720794Y-114737246D01*
X185792223Y-114772961D01*
X185827937Y-114808675D01*
X185863652Y-114880103D01*
X185863652Y-114987246D01*
X185827937Y-115058675D01*
X185792223Y-115094389D01*
X185720794Y-115130103D01*
X185435080Y-115130103D01*
X186149366Y-114808675D02*
X186185080Y-114772961D01*
X186256509Y-114737246D01*
X186435080Y-114737246D01*
X186506509Y-114772961D01*
X186542223Y-114808675D01*
X186577937Y-114880103D01*
X186577937Y-114951532D01*
X186542223Y-115058675D01*
X186113652Y-115487246D01*
X186577937Y-115487246D01*
X167425057Y-110806257D02*
X167389342Y-110841971D01*
X167282200Y-110877685D01*
X167210771Y-110877685D01*
X167103628Y-110841971D01*
X167032200Y-110770542D01*
X166996485Y-110699114D01*
X166960771Y-110556257D01*
X166960771Y-110449114D01*
X166996485Y-110306257D01*
X167032200Y-110234828D01*
X167103628Y-110163400D01*
X167210771Y-110127685D01*
X167282200Y-110127685D01*
X167389342Y-110163400D01*
X167425057Y-110199114D01*
X168139342Y-110877685D02*
X167710771Y-110877685D01*
X167925057Y-110877685D02*
X167925057Y-110127685D01*
X167853628Y-110234828D01*
X167782200Y-110306257D01*
X167710771Y-110341971D01*
X168853628Y-110877685D02*
X168425057Y-110877685D01*
X168639342Y-110877685D02*
X168639342Y-110127685D01*
X168567914Y-110234828D01*
X168496485Y-110306257D01*
X168425057Y-110341971D01*
X183483117Y-100566599D02*
X183483117Y-101102314D01*
X183447402Y-101209456D01*
X183375974Y-101280885D01*
X183268831Y-101316599D01*
X183197402Y-101316599D01*
X184197402Y-100566599D02*
X183840259Y-100566599D01*
X183804545Y-100923742D01*
X183840259Y-100888028D01*
X183911688Y-100852314D01*
X184090259Y-100852314D01*
X184161688Y-100888028D01*
X184197402Y-100923742D01*
X184233117Y-100995171D01*
X184233117Y-101173742D01*
X184197402Y-101245171D01*
X184161688Y-101280885D01*
X184090259Y-101316599D01*
X183911688Y-101316599D01*
X183840259Y-101280885D01*
X183804545Y-101245171D01*
X173355457Y-137275457D02*
X173319742Y-137311171D01*
X173212600Y-137346885D01*
X173141171Y-137346885D01*
X173034028Y-137311171D01*
X172962600Y-137239742D01*
X172926885Y-137168314D01*
X172891171Y-137025457D01*
X172891171Y-136918314D01*
X172926885Y-136775457D01*
X172962600Y-136704028D01*
X173034028Y-136632600D01*
X173141171Y-136596885D01*
X173212600Y-136596885D01*
X173319742Y-136632600D01*
X173355457Y-136668314D01*
X174069742Y-137346885D02*
X173641171Y-137346885D01*
X173855457Y-137346885D02*
X173855457Y-136596885D01*
X173784028Y-136704028D01*
X173712600Y-136775457D01*
X173641171Y-136811171D01*
X174319742Y-136596885D02*
X174784028Y-136596885D01*
X174534028Y-136882600D01*
X174641171Y-136882600D01*
X174712600Y-136918314D01*
X174748314Y-136954028D01*
X174784028Y-137025457D01*
X174784028Y-137204028D01*
X174748314Y-137275457D01*
X174712600Y-137311171D01*
X174641171Y-137346885D01*
X174426885Y-137346885D01*
X174355457Y-137311171D01*
X174319742Y-137275457D01*
X165475000Y-127439285D02*
X165225000Y-127082142D01*
X165046428Y-127439285D02*
X165046428Y-126689285D01*
X165332142Y-126689285D01*
X165403571Y-126725000D01*
X165439285Y-126760714D01*
X165475000Y-126832142D01*
X165475000Y-126939285D01*
X165439285Y-127010714D01*
X165403571Y-127046428D01*
X165332142Y-127082142D01*
X165046428Y-127082142D01*
X166189285Y-127439285D02*
X165760714Y-127439285D01*
X165975000Y-127439285D02*
X165975000Y-126689285D01*
X165903571Y-126796428D01*
X165832142Y-126867857D01*
X165760714Y-126903571D01*
X155950000Y-128767857D02*
X155914285Y-128803571D01*
X155807142Y-128839285D01*
X155735714Y-128839285D01*
X155628571Y-128803571D01*
X155557142Y-128732142D01*
X155521428Y-128660714D01*
X155485714Y-128517857D01*
X155485714Y-128410714D01*
X155521428Y-128267857D01*
X155557142Y-128196428D01*
X155628571Y-128125000D01*
X155735714Y-128089285D01*
X155807142Y-128089285D01*
X155914285Y-128125000D01*
X155950000Y-128160714D01*
X156592857Y-128089285D02*
X156450000Y-128089285D01*
X156378571Y-128125000D01*
X156342857Y-128160714D01*
X156271428Y-128267857D01*
X156235714Y-128410714D01*
X156235714Y-128696428D01*
X156271428Y-128767857D01*
X156307142Y-128803571D01*
X156378571Y-128839285D01*
X156521428Y-128839285D01*
X156592857Y-128803571D01*
X156628571Y-128767857D01*
X156664285Y-128696428D01*
X156664285Y-128517857D01*
X156628571Y-128446428D01*
X156592857Y-128410714D01*
X156521428Y-128375000D01*
X156378571Y-128375000D01*
X156307142Y-128410714D01*
X156271428Y-128446428D01*
X156235714Y-128517857D01*
D12*
X181637000Y-104928936D02*
X181637000Y-105383064D01*
X183107000Y-104928936D02*
X183107000Y-105383064D01*
X159320260Y-128150000D02*
X160774388Y-128150000D01*
X159320260Y-126330000D02*
X160774388Y-126330000D01*
X160700796Y-123475000D02*
X159496668Y-123475000D01*
X160700796Y-125295000D02*
X159496668Y-125295000D01*
X155835000Y-119472936D02*
X155835000Y-119927064D01*
X154365000Y-119472936D02*
X154365000Y-119927064D01*
X169848200Y-139798248D02*
X169848200Y-140320752D01*
X168378200Y-139798248D02*
X168378200Y-140320752D01*
X180594000Y-130650000D02*
X185594000Y-130650000D01*
X180594000Y-136050000D02*
X185594000Y-136050000D01*
X180594000Y-130650000D02*
G75*
G03*
X180594000Y-136050000I0J-2700000D01*
G01*
X185594000Y-136050000D02*
G75*
G03*
X185594000Y-130650000I0J2700000D01*
G01*
X184431000Y-104928936D02*
X184431000Y-105383064D01*
X185901000Y-104928936D02*
X185901000Y-105383064D01*
X159173324Y-132660000D02*
X161623324Y-132660000D01*
X160973324Y-129440000D02*
X159173324Y-129440000D01*
X163922700Y-112862464D02*
X163922700Y-111408336D01*
X162102700Y-112862464D02*
X162102700Y-111408336D01*
X180313000Y-104928936D02*
X180313000Y-105383064D01*
X178843000Y-104928936D02*
X178843000Y-105383064D01*
X172720000Y-142022000D02*
X171920000Y-142022000D01*
X172720000Y-138902000D02*
X170920000Y-138902000D01*
X172720000Y-142022000D02*
X173520000Y-142022000D01*
X172720000Y-138902000D02*
X173520000Y-138902000D01*
X164098663Y-141490971D02*
X164621167Y-141490971D01*
X164098663Y-140020971D02*
X164621167Y-140020971D01*
X161793600Y-137408264D02*
X161793600Y-135954136D01*
X159973600Y-137408264D02*
X159973600Y-135954136D01*
D11*
X149880000Y-129260000D02*
X149880000Y-136260000D01*
X150180000Y-127260000D02*
X150180000Y-129260000D01*
X149880000Y-127260000D02*
X150180000Y-127260000D01*
X149880000Y-120260000D02*
X149880000Y-127260000D01*
X149880000Y-136260000D02*
X153880000Y-136260000D01*
X153880000Y-136260000D02*
X153880000Y-120260000D01*
X153880000Y-120260000D02*
X149880000Y-120260000D01*
X150180000Y-129260000D02*
X149880000Y-129260000D01*
D12*
X180960752Y-138377742D02*
X180438248Y-138377742D01*
X180960752Y-136907742D02*
X180438248Y-136907742D01*
X169766206Y-95225604D02*
X169766206Y-92965604D01*
X170266206Y-96825604D02*
X170266206Y-95225604D01*
X167466206Y-97325604D02*
X167466206Y-92965604D01*
X164906206Y-100785604D02*
X165826206Y-100785604D01*
X165666206Y-95225604D02*
X166666206Y-95225604D01*
X169266206Y-95225604D02*
X169266206Y-96825604D01*
X170266206Y-95225604D02*
X169266206Y-95225604D01*
X164906206Y-99185604D02*
X165826206Y-99185604D01*
X165826206Y-99185604D02*
X166106206Y-99185604D01*
X168466206Y-92965604D02*
X168466206Y-97325604D01*
X165826206Y-100785604D02*
X165826206Y-99185604D01*
X168466206Y-97325604D02*
X167466206Y-97325604D01*
X169826206Y-99185604D02*
X170106206Y-99185604D01*
X171026206Y-92965604D02*
X164906206Y-92965604D01*
X171026206Y-99185604D02*
X170106206Y-99185604D01*
X166666206Y-96825604D02*
X165666206Y-96825604D01*
X169266206Y-96825604D02*
X170266206Y-96825604D01*
X169826206Y-99185604D02*
X169826206Y-100400604D01*
X169266206Y-95225604D02*
X169266206Y-92965604D01*
X164906206Y-92965604D02*
X164906206Y-100785604D01*
X171026206Y-100785604D02*
X171026206Y-92965604D01*
X170106206Y-99185604D02*
X170106206Y-100785604D01*
X170106206Y-100785604D02*
X171026206Y-100785604D01*
X165666206Y-96825604D02*
X165666206Y-95225604D01*
X166666206Y-95225604D02*
X166666206Y-96825604D01*
X189654000Y-127812000D02*
X189409000Y-127812000D01*
X189654000Y-120092000D02*
X189409000Y-120092000D01*
X171534000Y-127812000D02*
X171779000Y-127812000D01*
X189654000Y-123952000D02*
X189654000Y-127812000D01*
X171534000Y-120092000D02*
X171779000Y-120092000D01*
X171534000Y-123952000D02*
X171534000Y-127812000D01*
X189654000Y-123952000D02*
X189654000Y-120092000D01*
X171534000Y-123952000D02*
X171534000Y-120092000D01*
X171779000Y-127812000D02*
X171779000Y-129627000D01*
X178443000Y-108091500D02*
X178443000Y-112151500D01*
X180713000Y-112151500D02*
X180713000Y-108091500D01*
X178443000Y-112151500D02*
X180713000Y-112151500D01*
D13*
X156190000Y-101825800D02*
X167790000Y-101825800D01*
X156190000Y-107825800D02*
X156190000Y-101825800D01*
X167790000Y-107825800D02*
X156190000Y-107825800D01*
X167790000Y-101825800D02*
X167790000Y-107825800D01*
D14*
X158180000Y-108381800D02*
G75*
G03*
X158180000Y-108381800I0J0D01*
G01*
D12*
X184031000Y-108091500D02*
X184031000Y-112151500D01*
X184031000Y-112151500D02*
X186301000Y-112151500D01*
X186301000Y-112151500D02*
X186301000Y-108091500D01*
X157439564Y-136060000D02*
X156235436Y-136060000D01*
X157439564Y-134240000D02*
X156235436Y-134240000D01*
X162829600Y-135781200D02*
X162829600Y-137581200D01*
X166049600Y-137581200D02*
X166049600Y-135131200D01*
X175505000Y-105538748D02*
X175505000Y-106061252D01*
X174035000Y-105538748D02*
X174035000Y-106061252D01*
X181237000Y-108128000D02*
X181237000Y-112188000D01*
X183507000Y-112188000D02*
X183507000Y-108128000D01*
X181237000Y-112188000D02*
X183507000Y-112188000D01*
X177447147Y-97314004D02*
X174447147Y-97314004D01*
X172807147Y-100774004D02*
X172807147Y-99174004D01*
X172647147Y-96814004D02*
X172647147Y-95214004D01*
X180007147Y-100774004D02*
X180007147Y-92954004D01*
X178247147Y-95214004D02*
X178247147Y-96814004D01*
X180007147Y-99174004D02*
X179087147Y-99174004D01*
X177447147Y-92954004D02*
X177447147Y-97314004D01*
X173647147Y-96814004D02*
X172647147Y-96814004D01*
X179247147Y-95214004D02*
X178247147Y-95214004D01*
X178747147Y-95214004D02*
X178747147Y-92954004D01*
X171887147Y-92954004D02*
X171887147Y-100774004D01*
X179087147Y-99174004D02*
X179087147Y-100774004D01*
X174447147Y-97314004D02*
X174447147Y-92954004D01*
X179087147Y-100774004D02*
X180007147Y-100774004D01*
X172647147Y-95214004D02*
X173647147Y-95214004D01*
X180007147Y-92954004D02*
X171887147Y-92954004D01*
X178247147Y-95214004D02*
X178247147Y-92954004D01*
X172807147Y-99174004D02*
X173087147Y-99174004D01*
X179247147Y-96814004D02*
X179247147Y-95214004D01*
X171887147Y-99174004D02*
X172807147Y-99174004D01*
X178247147Y-96814004D02*
X179247147Y-96814004D01*
X178807147Y-99174004D02*
X178807147Y-100389004D01*
X173647147Y-95214004D02*
X173647147Y-96814004D01*
X171887147Y-100774004D02*
X172807147Y-100774004D01*
X178807147Y-99174004D02*
X179087147Y-99174004D01*
X176628248Y-142213000D02*
X177150752Y-142213000D01*
X176628248Y-140743000D02*
X177150752Y-140743000D01*
X183649252Y-115465000D02*
X183126748Y-115465000D01*
X183649252Y-116935000D02*
X183126748Y-116935000D01*
D13*
X172460000Y-107770500D02*
X169460000Y-107770500D01*
X172460000Y-102770500D02*
X169460000Y-102770500D01*
D15*
X173687000Y-107143500D02*
G75*
G03*
X173687000Y-107143500I-100000J0D01*
G01*
D12*
X185180248Y-138377742D02*
X185702752Y-138377742D01*
X185180248Y-136907742D02*
X185702752Y-136907742D01*
X160743700Y-116537400D02*
X160743700Y-115267400D01*
X155663700Y-109933400D02*
X158457700Y-109933400D01*
X153631700Y-116537400D02*
X160743700Y-116537400D01*
X153631700Y-115267400D02*
X153631700Y-116537400D01*
X164041052Y-92939249D02*
X155921052Y-92939249D01*
X163121052Y-99159249D02*
X163121052Y-100759249D01*
X156841052Y-99159249D02*
X157121052Y-99159249D01*
X157681052Y-95199249D02*
X157681052Y-96799249D01*
X155921052Y-92939249D02*
X155921052Y-100759249D01*
X156841052Y-100759249D02*
X156841052Y-99159249D01*
X162281052Y-95199249D02*
X162281052Y-96799249D01*
X156681052Y-95199249D02*
X157681052Y-95199249D01*
X164041052Y-100759249D02*
X164041052Y-92939249D01*
X163281052Y-95199249D02*
X162281052Y-95199249D01*
X155921052Y-99159249D02*
X156841052Y-99159249D01*
X158481052Y-97299249D02*
X158481052Y-92939249D01*
X161481052Y-97299249D02*
X158481052Y-97299249D01*
X162281052Y-96799249D02*
X163281052Y-96799249D01*
X163281052Y-96799249D02*
X163281052Y-95199249D01*
X155921052Y-100759249D02*
X156841052Y-100759249D01*
X162841052Y-99159249D02*
X162841052Y-100374249D01*
X162281052Y-95199249D02*
X162281052Y-92939249D01*
X161481052Y-92939249D02*
X161481052Y-97299249D01*
X162841052Y-99159249D02*
X163121052Y-99159249D01*
X156681052Y-96799249D02*
X156681052Y-95199249D01*
X157681052Y-96799249D02*
X156681052Y-96799249D01*
X164041052Y-99159249D02*
X163121052Y-99159249D01*
X163121052Y-100759249D02*
X164041052Y-100759249D01*
X162781052Y-95199249D02*
X162781052Y-92939249D01*
X153620800Y-107474652D02*
X153620800Y-106952148D01*
X155090800Y-107474652D02*
X155090800Y-106952148D01*
X186965000Y-114936536D02*
X186965000Y-115390664D01*
X188435000Y-114936536D02*
X188435000Y-115390664D01*
X166546200Y-111302148D02*
X166546200Y-111824652D01*
X165076200Y-111302148D02*
X165076200Y-111824652D01*
X184426510Y-97314004D02*
X183426510Y-97314004D01*
X181786510Y-100774004D02*
X181786510Y-99174004D01*
X186986510Y-100774004D02*
X186986510Y-92954004D01*
X181786510Y-99174004D02*
X182066510Y-99174004D01*
X182626510Y-95214004D02*
X182626510Y-96814004D01*
X183426510Y-97314004D02*
X183426510Y-92954004D01*
X186986510Y-92954004D02*
X180866510Y-92954004D01*
X180866510Y-100774004D02*
X181786510Y-100774004D01*
X186226510Y-95214004D02*
X185226510Y-95214004D01*
X181626510Y-96814004D02*
X181626510Y-95214004D01*
X185786510Y-99174004D02*
X185786510Y-100389004D01*
X186066510Y-100774004D02*
X186986510Y-100774004D01*
X185786510Y-99174004D02*
X186066510Y-99174004D01*
X186066510Y-99174004D02*
X186066510Y-100774004D01*
X185226510Y-95214004D02*
X185226510Y-96814004D01*
X186226510Y-96814004D02*
X186226510Y-95214004D01*
X185726510Y-95214004D02*
X185726510Y-92954004D01*
X182626510Y-96814004D02*
X181626510Y-96814004D01*
X186986510Y-99174004D02*
X186066510Y-99174004D01*
X184426510Y-92954004D02*
X184426510Y-97314004D01*
X185226510Y-95214004D02*
X185226510Y-92954004D01*
X185226510Y-96814004D02*
X186226510Y-96814004D01*
X180866510Y-92954004D02*
X180866510Y-100774004D01*
X180866510Y-99174004D02*
X181786510Y-99174004D01*
X181626510Y-95214004D02*
X182626510Y-95214004D01*
X176731600Y-138339552D02*
X176731600Y-137817048D01*
X175261600Y-138339552D02*
X175261600Y-137817048D01*
X165372936Y-124965000D02*
X165827064Y-124965000D01*
X165372936Y-126435000D02*
X165827064Y-126435000D01*
X155320546Y-130687719D02*
X155320546Y-131210223D01*
X156790546Y-130687719D02*
X156790546Y-131210223D01*
%LPC*%
D16*
X192379600Y-118237000D03*
X192379600Y-120777000D03*
X192379600Y-123317000D03*
X192379600Y-125857000D03*
X192379600Y-128397000D03*
X192379600Y-130937000D03*
X169519600Y-130937000D03*
X169519600Y-128397000D03*
X169519600Y-125857000D03*
X169519600Y-123317000D03*
X169519600Y-120777000D03*
X169519600Y-118237000D03*
D17*
X191109600Y-114427000D03*
D18*
X170789600Y-114427000D03*
D17*
X191109600Y-134747000D03*
X170789600Y-134747000D03*
D19*
X190500000Y-139700000D03*
X152400000Y-139700000D03*
X152400000Y-101600000D03*
D20*
X182372000Y-104156000D03*
X182372000Y-106156000D03*
D21*
X158497324Y-127240000D03*
X161597324Y-127240000D03*
D22*
X161586232Y-124385000D03*
X158611232Y-124385000D03*
D20*
X155100000Y-118700000D03*
X155100000Y-120700000D03*
D23*
X169113200Y-139022000D03*
X169113200Y-141097000D03*
D24*
X180594000Y-133350000D03*
X185594000Y-133350000D03*
D20*
X185166000Y-104156000D03*
X185166000Y-106156000D03*
D25*
X161423324Y-132000000D03*
X161423324Y-131050000D03*
X161423324Y-130100000D03*
X158723324Y-130100000D03*
X158723324Y-132000000D03*
D26*
X163012700Y-113685400D03*
X163012700Y-110585400D03*
D20*
X179578000Y-104156000D03*
X179578000Y-106156000D03*
D27*
X171582500Y-139512000D03*
X171582500Y-140462000D03*
X171582500Y-141412000D03*
X173857500Y-141412000D03*
X173857500Y-139512000D03*
D28*
X163322415Y-140755971D03*
X165397415Y-140755971D03*
D26*
X160883600Y-138231200D03*
X160883600Y-135131200D03*
D29*
X151880000Y-133760000D03*
X151880000Y-122760000D03*
D30*
X150880000Y-126260000D03*
D31*
X150880000Y-128260000D03*
X150880000Y-130260000D03*
X152880000Y-126260000D03*
X152880000Y-128260000D03*
X152880000Y-130260000D03*
D32*
X181737000Y-137642742D03*
X179662000Y-137642742D03*
D33*
X168966206Y-99325604D03*
D34*
X166966206Y-99325604D03*
D35*
X172339000Y-128602000D03*
X173609000Y-128602000D03*
X174879000Y-128602000D03*
X176149000Y-128602000D03*
X177419000Y-128602000D03*
X178689000Y-128602000D03*
X179959000Y-128602000D03*
X181229000Y-128602000D03*
X182499000Y-128602000D03*
X183769000Y-128602000D03*
X185039000Y-128602000D03*
X186309000Y-128602000D03*
X187579000Y-128602000D03*
X188849000Y-128602000D03*
X188849000Y-119302000D03*
X187579000Y-119302000D03*
X186309000Y-119302000D03*
X185039000Y-119302000D03*
X183769000Y-119302000D03*
X182499000Y-119302000D03*
X181229000Y-119302000D03*
X179959000Y-119302000D03*
X178689000Y-119302000D03*
X177419000Y-119302000D03*
X176149000Y-119302000D03*
X174879000Y-119302000D03*
X173609000Y-119302000D03*
X172339000Y-119302000D03*
D36*
X179578000Y-111179000D03*
X179578000Y-108204000D03*
D37*
X158180000Y-106925800D03*
D38*
X160720000Y-106925800D03*
X163260000Y-106925800D03*
X165800000Y-106925800D03*
D36*
X185166000Y-111179000D03*
X185166000Y-108204000D03*
D22*
X158325000Y-135150000D03*
X155350000Y-135150000D03*
D39*
X165389600Y-135331200D03*
X164439600Y-135331200D03*
X163489600Y-135331200D03*
X163489600Y-138031200D03*
X165389600Y-138031200D03*
D23*
X174770000Y-104762500D03*
X174770000Y-106837500D03*
D36*
X182372000Y-111215500D03*
X182372000Y-108240500D03*
D33*
X177947147Y-99314004D03*
D34*
X175947147Y-99314004D03*
X173947147Y-99314004D03*
D28*
X175852000Y-141478000D03*
X177927000Y-141478000D03*
D32*
X184425500Y-116200000D03*
X182350500Y-116200000D03*
D40*
X172160000Y-107145500D03*
X172160000Y-105895500D03*
X172160000Y-104645500D03*
X172160000Y-103395500D03*
X169760000Y-103395500D03*
X169760000Y-104645500D03*
X169760000Y-105895500D03*
X169760000Y-107145500D03*
D28*
X184404000Y-137642742D03*
X186479000Y-137642742D03*
D41*
X154362700Y-112685400D03*
X160012700Y-112685400D03*
D19*
X190500000Y-101600000D03*
D33*
X161981052Y-99299249D03*
D34*
X159981052Y-99299249D03*
X157981052Y-99299249D03*
D42*
X154355800Y-108250900D03*
X154355800Y-106175900D03*
D20*
X187700000Y-114163600D03*
X187700000Y-116163600D03*
D23*
X165811200Y-110525900D03*
X165811200Y-112600900D03*
D33*
X184926510Y-99314004D03*
D34*
X182926510Y-99314004D03*
D42*
X175996600Y-139115800D03*
X175996600Y-137040800D03*
D43*
X164600000Y-125700000D03*
X166600000Y-125700000D03*
D23*
X156055546Y-129911471D03*
X156055546Y-131986471D03*
D44*
X167259000Y-116484400D03*
X163982400Y-116611400D03*
X165105768Y-119955193D03*
X167208200Y-134035800D03*
X185300000Y-141200000D03*
X153800000Y-95225000D03*
X157480000Y-141100000D03*
X182100000Y-141200000D03*
X165100000Y-123139200D03*
X177350000Y-108475000D03*
X157500000Y-137975000D03*
X151125000Y-97000000D03*
X190400000Y-96700000D03*
X191795400Y-110820200D03*
X163800000Y-133000000D03*
X172110400Y-110540800D03*
X166000000Y-129700000D03*
X174800000Y-125400000D03*
X175100000Y-122200000D03*
X174700000Y-116400000D03*
X167259000Y-137160000D03*
M02*
