G04 #@! TF.GenerationSoftware,KiCad,Pcbnew,6.0.0*
G04 #@! TF.CreationDate,2022-02-03T15:12:05-05:00*
G04 #@! TF.ProjectId,sensors,73656e73-6f72-4732-9e6b-696361645f70,rev?*
G04 #@! TF.SameCoordinates,Original*
G04 #@! TF.FileFunction,Legend,Bot*
G04 #@! TF.FilePolarity,Positive*
%FSLAX46Y46*%
G04 Gerber Fmt 4.6, Leading zero omitted, Abs format (unit mm)*
G04 Created by KiCad (PCBNEW 6.0.0) date 2022-02-03 15:12:05*
%MOMM*%
%LPD*%
G01*
G04 APERTURE LIST*
G04 Aperture macros list*
%AMRoundRect*
0 Rectangle with rounded corners*
0 $1 Rounding radius*
0 $2 $3 $4 $5 $6 $7 $8 $9 X,Y pos of 4 corners*
0 Add a 4 corners polygon primitive as box body*
4,1,4,$2,$3,$4,$5,$6,$7,$8,$9,$2,$3,0*
0 Add four circle primitives for the rounded corners*
1,1,$1+$1,$2,$3*
1,1,$1+$1,$4,$5*
1,1,$1+$1,$6,$7*
1,1,$1+$1,$8,$9*
0 Add four rect primitives between the rounded corners*
20,1,$1+$1,$2,$3,$4,$5,0*
20,1,$1+$1,$4,$5,$6,$7,0*
20,1,$1+$1,$6,$7,$8,$9,0*
20,1,$1+$1,$8,$9,$2,$3,0*%
G04 Aperture macros list end*
%ADD10C,0.150000*%
%ADD11C,0.127000*%
%ADD12C,0.200000*%
%ADD13C,0.120000*%
%ADD14R,2.000000X2.000000*%
%ADD15C,2.301600*%
%ADD16RoundRect,0.050800X-0.600000X-0.600000X0.600000X-0.600000X0.600000X0.600000X-0.600000X0.600000X0*%
%ADD17C,1.301600*%
%ADD18C,5.701600*%
%ADD19RoundRect,0.050800X0.900000X0.900000X-0.900000X0.900000X-0.900000X-0.900000X0.900000X-0.900000X0*%
%ADD20C,1.901600*%
%ADD21RoundRect,0.300800X0.350000X0.625000X-0.350000X0.625000X-0.350000X-0.625000X0.350000X-0.625000X0*%
%ADD22O,1.301600X1.851600*%
%ADD23RoundRect,0.050800X1.000000X1.000000X-1.000000X1.000000X-1.000000X-1.000000X1.000000X-1.000000X0*%
%ADD24RoundRect,0.050800X-1.000000X-1.000000X1.000000X-1.000000X1.000000X1.000000X-1.000000X1.000000X0*%
%ADD25C,1.601600*%
%ADD26RoundRect,0.050800X-0.265000X1.000000X-0.265000X-1.000000X0.265000X-1.000000X0.265000X1.000000X0*%
%ADD27RoundRect,0.300800X-0.450000X0.325000X-0.450000X-0.325000X0.450000X-0.325000X0.450000X0.325000X0*%
%ADD28RoundRect,0.300800X-0.325000X-0.450000X0.325000X-0.450000X0.325000X0.450000X-0.325000X0.450000X0*%
%ADD29RoundRect,0.300800X0.450000X-0.325000X0.450000X0.325000X-0.450000X0.325000X-0.450000X-0.325000X0*%
%ADD30RoundRect,0.050800X0.780000X0.325000X-0.780000X0.325000X-0.780000X-0.325000X0.780000X-0.325000X0*%
%ADD31RoundRect,0.300800X-0.350000X-0.625000X0.350000X-0.625000X0.350000X0.625000X-0.350000X0.625000X0*%
%ADD32RoundRect,0.300801X0.624999X-0.462499X0.624999X0.462499X-0.624999X0.462499X-0.624999X-0.462499X0*%
%ADD33RoundRect,0.300800X0.325000X0.450000X-0.325000X0.450000X-0.325000X-0.450000X0.325000X-0.450000X0*%
%ADD34RoundRect,0.050800X0.325000X-0.780000X0.325000X0.780000X-0.325000X0.780000X-0.325000X-0.780000X0*%
%ADD35RoundRect,0.050800X-0.780000X-0.325000X0.780000X-0.325000X0.780000X0.325000X-0.780000X0.325000X0*%
%ADD36RoundRect,0.300801X-0.462499X-0.624999X0.462499X-0.624999X0.462499X0.624999X-0.462499X0.624999X0*%
%ADD37RoundRect,0.050800X0.500000X1.000000X-0.500000X1.000000X-0.500000X-1.000000X0.500000X-1.000000X0*%
%ADD38RoundRect,0.300800X0.475000X-0.337500X0.475000X0.337500X-0.475000X0.337500X-0.475000X-0.337500X0*%
G04 APERTURE END LIST*
D10*
X137473214Y-70467261D02*
X137330357Y-70514880D01*
X137092261Y-70514880D01*
X136997023Y-70467261D01*
X136949404Y-70419642D01*
X136901785Y-70324404D01*
X136901785Y-70229166D01*
X136949404Y-70133928D01*
X136997023Y-70086309D01*
X137092261Y-70038690D01*
X137282738Y-69991071D01*
X137377976Y-69943452D01*
X137425595Y-69895833D01*
X137473214Y-69800595D01*
X137473214Y-69705357D01*
X137425595Y-69610119D01*
X137377976Y-69562500D01*
X137282738Y-69514880D01*
X137044642Y-69514880D01*
X136901785Y-69562500D01*
X139599702Y-70040178D02*
X138837797Y-70040178D01*
X156642500Y-71300595D02*
X156642500Y-70157738D01*
X155360119Y-71062500D02*
X156360119Y-71062500D01*
X155645833Y-70729166D01*
X156360119Y-70395833D01*
X155360119Y-70395833D01*
X156642500Y-70157738D02*
X156642500Y-69157738D01*
X155455357Y-69348214D02*
X155407738Y-69395833D01*
X155360119Y-69538690D01*
X155360119Y-69633928D01*
X155407738Y-69776785D01*
X155502976Y-69872023D01*
X155598214Y-69919642D01*
X155788690Y-69967261D01*
X155931547Y-69967261D01*
X156122023Y-69919642D01*
X156217261Y-69872023D01*
X156312500Y-69776785D01*
X156360119Y-69633928D01*
X156360119Y-69538690D01*
X156312500Y-69395833D01*
X156264880Y-69348214D01*
X156642500Y-69157738D02*
X156642500Y-68348214D01*
X155360119Y-68443452D02*
X155360119Y-68919642D01*
X156360119Y-68919642D01*
X156642500Y-68348214D02*
X156642500Y-67348214D01*
X155360119Y-67538690D02*
X155836309Y-67872023D01*
X155360119Y-68110119D02*
X156360119Y-68110119D01*
X156360119Y-67729166D01*
X156312500Y-67633928D01*
X156264880Y-67586309D01*
X156169642Y-67538690D01*
X156026785Y-67538690D01*
X155931547Y-67586309D01*
X155883928Y-67633928D01*
X155836309Y-67729166D01*
X155836309Y-68110119D01*
X156360119Y-66443452D02*
X156360119Y-65824404D01*
X155979166Y-66157738D01*
X155979166Y-66014880D01*
X155931547Y-65919642D01*
X155883928Y-65872023D01*
X155788690Y-65824404D01*
X155550595Y-65824404D01*
X155455357Y-65872023D01*
X155407738Y-65919642D01*
X155360119Y-66014880D01*
X155360119Y-66300595D01*
X155407738Y-66395833D01*
X155455357Y-66443452D01*
X156360119Y-65538690D02*
X155360119Y-65205357D01*
X156360119Y-64872023D01*
X156360119Y-64633928D02*
X156360119Y-64014880D01*
X155979166Y-64348214D01*
X155979166Y-64205357D01*
X155931547Y-64110119D01*
X155883928Y-64062500D01*
X155788690Y-64014880D01*
X155550595Y-64014880D01*
X155455357Y-64062500D01*
X155407738Y-64110119D01*
X155360119Y-64205357D01*
X155360119Y-64491071D01*
X155407738Y-64586309D01*
X155455357Y-64633928D01*
X147391904Y-83982380D02*
X147391904Y-84791904D01*
X147344285Y-84887142D01*
X147296666Y-84934761D01*
X147201428Y-84982380D01*
X147010952Y-84982380D01*
X146915714Y-84934761D01*
X146868095Y-84887142D01*
X146820476Y-84791904D01*
X146820476Y-83982380D01*
X145915714Y-84315714D02*
X145915714Y-84982380D01*
X146153809Y-83934761D02*
X146391904Y-84649047D01*
X145772857Y-84649047D01*
X133719866Y-79605142D02*
X133767485Y-79652761D01*
X133910342Y-79700380D01*
X134005580Y-79700380D01*
X134148438Y-79652761D01*
X134243676Y-79557523D01*
X134291295Y-79462285D01*
X134338914Y-79271809D01*
X134338914Y-79128952D01*
X134291295Y-78938476D01*
X134243676Y-78843238D01*
X134148438Y-78748000D01*
X134005580Y-78700380D01*
X133910342Y-78700380D01*
X133767485Y-78748000D01*
X133719866Y-78795619D01*
X133338914Y-78795619D02*
X133291295Y-78748000D01*
X133196057Y-78700380D01*
X132957961Y-78700380D01*
X132862723Y-78748000D01*
X132815104Y-78795619D01*
X132767485Y-78890857D01*
X132767485Y-78986095D01*
X132815104Y-79128952D01*
X133386533Y-79700380D01*
X132767485Y-79700380D01*
X153144457Y-83008742D02*
X153192076Y-83056361D01*
X153334933Y-83103980D01*
X153430171Y-83103980D01*
X153573028Y-83056361D01*
X153668266Y-82961123D01*
X153715885Y-82865885D01*
X153763504Y-82675409D01*
X153763504Y-82532552D01*
X153715885Y-82342076D01*
X153668266Y-82246838D01*
X153573028Y-82151600D01*
X153430171Y-82103980D01*
X153334933Y-82103980D01*
X153192076Y-82151600D01*
X153144457Y-82199219D01*
X152192076Y-83103980D02*
X152763504Y-83103980D01*
X152477790Y-83103980D02*
X152477790Y-82103980D01*
X152573028Y-82246838D01*
X152668266Y-82342076D01*
X152763504Y-82389695D01*
X151334933Y-82103980D02*
X151525409Y-82103980D01*
X151620647Y-82151600D01*
X151668266Y-82199219D01*
X151763504Y-82342076D01*
X151811123Y-82532552D01*
X151811123Y-82913504D01*
X151763504Y-83008742D01*
X151715885Y-83056361D01*
X151620647Y-83103980D01*
X151430171Y-83103980D01*
X151334933Y-83056361D01*
X151287314Y-83008742D01*
X151239695Y-82913504D01*
X151239695Y-82675409D01*
X151287314Y-82580171D01*
X151334933Y-82532552D01*
X151430171Y-82484933D01*
X151620647Y-82484933D01*
X151715885Y-82532552D01*
X151763504Y-82580171D01*
X151811123Y-82675409D01*
X159950892Y-86138392D02*
X159998511Y-86090773D01*
X160046130Y-85947916D01*
X160046130Y-85852678D01*
X159998511Y-85709821D01*
X159903273Y-85614583D01*
X159808035Y-85566964D01*
X159617559Y-85519345D01*
X159474702Y-85519345D01*
X159284226Y-85566964D01*
X159188988Y-85614583D01*
X159093750Y-85709821D01*
X159046130Y-85852678D01*
X159046130Y-85947916D01*
X159093750Y-86090773D01*
X159141369Y-86138392D01*
X160046130Y-87090773D02*
X160046130Y-86519345D01*
X160046130Y-86805059D02*
X159046130Y-86805059D01*
X159188988Y-86709821D01*
X159284226Y-86614583D01*
X159331845Y-86519345D01*
X159474702Y-87662202D02*
X159427083Y-87566964D01*
X159379464Y-87519345D01*
X159284226Y-87471726D01*
X159236607Y-87471726D01*
X159141369Y-87519345D01*
X159093750Y-87566964D01*
X159046130Y-87662202D01*
X159046130Y-87852678D01*
X159093750Y-87947916D01*
X159141369Y-87995535D01*
X159236607Y-88043154D01*
X159284226Y-88043154D01*
X159379464Y-87995535D01*
X159427083Y-87947916D01*
X159474702Y-87852678D01*
X159474702Y-87662202D01*
X159522321Y-87566964D01*
X159569940Y-87519345D01*
X159665178Y-87471726D01*
X159855654Y-87471726D01*
X159950892Y-87519345D01*
X159998511Y-87566964D01*
X160046130Y-87662202D01*
X160046130Y-87852678D01*
X159998511Y-87947916D01*
X159950892Y-87995535D01*
X159855654Y-88043154D01*
X159665178Y-88043154D01*
X159569940Y-87995535D01*
X159522321Y-87947916D01*
X159474702Y-87852678D01*
X141898666Y-83618342D02*
X141946285Y-83665961D01*
X142089142Y-83713580D01*
X142184380Y-83713580D01*
X142327238Y-83665961D01*
X142422476Y-83570723D01*
X142470095Y-83475485D01*
X142517714Y-83285009D01*
X142517714Y-83142152D01*
X142470095Y-82951676D01*
X142422476Y-82856438D01*
X142327238Y-82761200D01*
X142184380Y-82713580D01*
X142089142Y-82713580D01*
X141946285Y-82761200D01*
X141898666Y-82808819D01*
X141565333Y-82713580D02*
X140898666Y-82713580D01*
X141327238Y-83713580D01*
X156122666Y-88139542D02*
X156170285Y-88187161D01*
X156313142Y-88234780D01*
X156408380Y-88234780D01*
X156551238Y-88187161D01*
X156646476Y-88091923D01*
X156694095Y-87996685D01*
X156741714Y-87806209D01*
X156741714Y-87663352D01*
X156694095Y-87472876D01*
X156646476Y-87377638D01*
X156551238Y-87282400D01*
X156408380Y-87234780D01*
X156313142Y-87234780D01*
X156170285Y-87282400D01*
X156122666Y-87330019D01*
X155265523Y-87568114D02*
X155265523Y-88234780D01*
X155503619Y-87187161D02*
X155741714Y-87901447D01*
X155122666Y-87901447D01*
X132236607Y-87857142D02*
X132284226Y-87904761D01*
X132427083Y-87952380D01*
X132522321Y-87952380D01*
X132665178Y-87904761D01*
X132760416Y-87809523D01*
X132808035Y-87714285D01*
X132855654Y-87523809D01*
X132855654Y-87380952D01*
X132808035Y-87190476D01*
X132760416Y-87095238D01*
X132665178Y-87000000D01*
X132522321Y-86952380D01*
X132427083Y-86952380D01*
X132284226Y-87000000D01*
X132236607Y-87047619D01*
X131284226Y-87952380D02*
X131855654Y-87952380D01*
X131569940Y-87952380D02*
X131569940Y-86952380D01*
X131665178Y-87095238D01*
X131760416Y-87190476D01*
X131855654Y-87238095D01*
X130379464Y-86952380D02*
X130855654Y-86952380D01*
X130903273Y-87428571D01*
X130855654Y-87380952D01*
X130760416Y-87333333D01*
X130522321Y-87333333D01*
X130427083Y-87380952D01*
X130379464Y-87428571D01*
X130331845Y-87523809D01*
X130331845Y-87761904D01*
X130379464Y-87857142D01*
X130427083Y-87904761D01*
X130522321Y-87952380D01*
X130760416Y-87952380D01*
X130855654Y-87904761D01*
X130903273Y-87857142D01*
X129309097Y-72838582D02*
X129356716Y-72886201D01*
X129499573Y-72933820D01*
X129594811Y-72933820D01*
X129737668Y-72886201D01*
X129832906Y-72790963D01*
X129880525Y-72695725D01*
X129928144Y-72505249D01*
X129928144Y-72362392D01*
X129880525Y-72171916D01*
X129832906Y-72076678D01*
X129737668Y-71981440D01*
X129594811Y-71933820D01*
X129499573Y-71933820D01*
X129356716Y-71981440D01*
X129309097Y-72029059D01*
X128356716Y-72933820D02*
X128928144Y-72933820D01*
X128642430Y-72933820D02*
X128642430Y-71933820D01*
X128737668Y-72076678D01*
X128832906Y-72171916D01*
X128928144Y-72219535D01*
X127880525Y-72933820D02*
X127690049Y-72933820D01*
X127594811Y-72886201D01*
X127547192Y-72838582D01*
X127451954Y-72695725D01*
X127404335Y-72505249D01*
X127404335Y-72124297D01*
X127451954Y-72029059D01*
X127499573Y-71981440D01*
X127594811Y-71933820D01*
X127785287Y-71933820D01*
X127880525Y-71981440D01*
X127928144Y-72029059D01*
X127975763Y-72124297D01*
X127975763Y-72362392D01*
X127928144Y-72457630D01*
X127880525Y-72505249D01*
X127785287Y-72552868D01*
X127594811Y-72552868D01*
X127499573Y-72505249D01*
X127451954Y-72457630D01*
X127404335Y-72362392D01*
X139471304Y-86053680D02*
X139471304Y-86863204D01*
X139423685Y-86958442D01*
X139376066Y-87006061D01*
X139280828Y-87053680D01*
X139090352Y-87053680D01*
X138995114Y-87006061D01*
X138947495Y-86958442D01*
X138899876Y-86863204D01*
X138899876Y-86053680D01*
X138518923Y-86053680D02*
X137852257Y-86053680D01*
X138280828Y-87053680D01*
X134345833Y-63922630D02*
X134345833Y-64636916D01*
X134393452Y-64779773D01*
X134488690Y-64875011D01*
X134631547Y-64922630D01*
X134726785Y-64922630D01*
X133917261Y-64017869D02*
X133869642Y-63970250D01*
X133774404Y-63922630D01*
X133536309Y-63922630D01*
X133441071Y-63970250D01*
X133393452Y-64017869D01*
X133345833Y-64113107D01*
X133345833Y-64208345D01*
X133393452Y-64351202D01*
X133964880Y-64922630D01*
X133345833Y-64922630D01*
X135053366Y-73121780D02*
X135386700Y-72645590D01*
X135624795Y-73121780D02*
X135624795Y-72121780D01*
X135243842Y-72121780D01*
X135148604Y-72169400D01*
X135100985Y-72217019D01*
X135053366Y-72312257D01*
X135053366Y-72455114D01*
X135100985Y-72550352D01*
X135148604Y-72597971D01*
X135243842Y-72645590D01*
X135624795Y-72645590D01*
X134148604Y-72121780D02*
X134624795Y-72121780D01*
X134672414Y-72597971D01*
X134624795Y-72550352D01*
X134529557Y-72502733D01*
X134291461Y-72502733D01*
X134196223Y-72550352D01*
X134148604Y-72597971D01*
X134100985Y-72693209D01*
X134100985Y-72931304D01*
X134148604Y-73026542D01*
X134196223Y-73074161D01*
X134291461Y-73121780D01*
X134529557Y-73121780D01*
X134624795Y-73074161D01*
X134672414Y-73026542D01*
X151614095Y-79446380D02*
X151614095Y-78446380D01*
X151376000Y-78446380D01*
X151233142Y-78494000D01*
X151137904Y-78589238D01*
X151090285Y-78684476D01*
X151042666Y-78874952D01*
X151042666Y-79017809D01*
X151090285Y-79208285D01*
X151137904Y-79303523D01*
X151233142Y-79398761D01*
X151376000Y-79446380D01*
X151614095Y-79446380D01*
X150090285Y-79446380D02*
X150661714Y-79446380D01*
X150376000Y-79446380D02*
X150376000Y-78446380D01*
X150471238Y-78589238D01*
X150566476Y-78684476D01*
X150661714Y-78732095D01*
X138596666Y-79655942D02*
X138644285Y-79703561D01*
X138787142Y-79751180D01*
X138882380Y-79751180D01*
X139025238Y-79703561D01*
X139120476Y-79608323D01*
X139168095Y-79513085D01*
X139215714Y-79322609D01*
X139215714Y-79179752D01*
X139168095Y-78989276D01*
X139120476Y-78894038D01*
X139025238Y-78798800D01*
X138882380Y-78751180D01*
X138787142Y-78751180D01*
X138644285Y-78798800D01*
X138596666Y-78846419D01*
X138263333Y-78751180D02*
X137644285Y-78751180D01*
X137977619Y-79132133D01*
X137834761Y-79132133D01*
X137739523Y-79179752D01*
X137691904Y-79227371D01*
X137644285Y-79322609D01*
X137644285Y-79560704D01*
X137691904Y-79655942D01*
X137739523Y-79703561D01*
X137834761Y-79751180D01*
X138120476Y-79751180D01*
X138215714Y-79703561D01*
X138263333Y-79655942D01*
X151578657Y-87936342D02*
X151626276Y-87983961D01*
X151769133Y-88031580D01*
X151864371Y-88031580D01*
X152007228Y-87983961D01*
X152102466Y-87888723D01*
X152150085Y-87793485D01*
X152197704Y-87603009D01*
X152197704Y-87460152D01*
X152150085Y-87269676D01*
X152102466Y-87174438D01*
X152007228Y-87079200D01*
X151864371Y-87031580D01*
X151769133Y-87031580D01*
X151626276Y-87079200D01*
X151578657Y-87126819D01*
X150626276Y-88031580D02*
X151197704Y-88031580D01*
X150911990Y-88031580D02*
X150911990Y-87031580D01*
X151007228Y-87174438D01*
X151102466Y-87269676D01*
X151197704Y-87317295D01*
X149769133Y-87364914D02*
X149769133Y-88031580D01*
X150007228Y-86983961D02*
X150245323Y-87698247D01*
X149626276Y-87698247D01*
X135072916Y-77514880D02*
X135406250Y-77038690D01*
X135644345Y-77514880D02*
X135644345Y-76514880D01*
X135263392Y-76514880D01*
X135168154Y-76562500D01*
X135120535Y-76610119D01*
X135072916Y-76705357D01*
X135072916Y-76848214D01*
X135120535Y-76943452D01*
X135168154Y-76991071D01*
X135263392Y-77038690D01*
X135644345Y-77038690D01*
X134215773Y-76514880D02*
X134406250Y-76514880D01*
X134501488Y-76562500D01*
X134549107Y-76610119D01*
X134644345Y-76752976D01*
X134691964Y-76943452D01*
X134691964Y-77324404D01*
X134644345Y-77419642D01*
X134596726Y-77467261D01*
X134501488Y-77514880D01*
X134311011Y-77514880D01*
X134215773Y-77467261D01*
X134168154Y-77419642D01*
X134120535Y-77324404D01*
X134120535Y-77086309D01*
X134168154Y-76991071D01*
X134215773Y-76943452D01*
X134311011Y-76895833D01*
X134501488Y-76895833D01*
X134596726Y-76943452D01*
X134644345Y-76991071D01*
X134691964Y-77086309D01*
X157210704Y-81421980D02*
X157210704Y-82231504D01*
X157163085Y-82326742D01*
X157115466Y-82374361D01*
X157020228Y-82421980D01*
X156829752Y-82421980D01*
X156734514Y-82374361D01*
X156686895Y-82326742D01*
X156639276Y-82231504D01*
X156639276Y-81421980D01*
X156115466Y-82421980D02*
X155924990Y-82421980D01*
X155829752Y-82374361D01*
X155782133Y-82326742D01*
X155686895Y-82183885D01*
X155639276Y-81993409D01*
X155639276Y-81612457D01*
X155686895Y-81517219D01*
X155734514Y-81469600D01*
X155829752Y-81421980D01*
X156020228Y-81421980D01*
X156115466Y-81469600D01*
X156163085Y-81517219D01*
X156210704Y-81612457D01*
X156210704Y-81850552D01*
X156163085Y-81945790D01*
X156115466Y-81993409D01*
X156020228Y-82041028D01*
X155829752Y-82041028D01*
X155734514Y-81993409D01*
X155686895Y-81945790D01*
X155639276Y-81850552D01*
X146311904Y-90102380D02*
X146311904Y-90911904D01*
X146264285Y-91007142D01*
X146216666Y-91054761D01*
X146121428Y-91102380D01*
X145930952Y-91102380D01*
X145835714Y-91054761D01*
X145788095Y-91007142D01*
X145740476Y-90911904D01*
X145740476Y-90102380D01*
X144835714Y-90102380D02*
X145026190Y-90102380D01*
X145121428Y-90150000D01*
X145169047Y-90197619D01*
X145264285Y-90340476D01*
X145311904Y-90530952D01*
X145311904Y-90911904D01*
X145264285Y-91007142D01*
X145216666Y-91054761D01*
X145121428Y-91102380D01*
X144930952Y-91102380D01*
X144835714Y-91054761D01*
X144788095Y-91007142D01*
X144740476Y-90911904D01*
X144740476Y-90673809D01*
X144788095Y-90578571D01*
X144835714Y-90530952D01*
X144930952Y-90483333D01*
X145121428Y-90483333D01*
X145216666Y-90530952D01*
X145264285Y-90578571D01*
X145311904Y-90673809D01*
X135311846Y-93351480D02*
X135645180Y-92875290D01*
X135883275Y-93351480D02*
X135883275Y-92351480D01*
X135502322Y-92351480D01*
X135407084Y-92399100D01*
X135359465Y-92446719D01*
X135311846Y-92541957D01*
X135311846Y-92684814D01*
X135359465Y-92780052D01*
X135407084Y-92827671D01*
X135502322Y-92875290D01*
X135883275Y-92875290D01*
X134835656Y-93351480D02*
X134645180Y-93351480D01*
X134549941Y-93303861D01*
X134502322Y-93256242D01*
X134407084Y-93113385D01*
X134359465Y-92922909D01*
X134359465Y-92541957D01*
X134407084Y-92446719D01*
X134454703Y-92399100D01*
X134549941Y-92351480D01*
X134740418Y-92351480D01*
X134835656Y-92399100D01*
X134883275Y-92446719D01*
X134930894Y-92541957D01*
X134930894Y-92780052D01*
X134883275Y-92875290D01*
X134835656Y-92922909D01*
X134740418Y-92970528D01*
X134549941Y-92970528D01*
X134454703Y-92922909D01*
X134407084Y-92875290D01*
X134359465Y-92780052D01*
X155322566Y-80729080D02*
X155655900Y-80252890D01*
X155893995Y-80729080D02*
X155893995Y-79729080D01*
X155513042Y-79729080D01*
X155417804Y-79776700D01*
X155370185Y-79824319D01*
X155322566Y-79919557D01*
X155322566Y-80062414D01*
X155370185Y-80157652D01*
X155417804Y-80205271D01*
X155513042Y-80252890D01*
X155893995Y-80252890D01*
X154465423Y-80062414D02*
X154465423Y-80729080D01*
X154703519Y-79681461D02*
X154941614Y-80395747D01*
X154322566Y-80395747D01*
X155322566Y-77947780D02*
X155655900Y-77471590D01*
X155893995Y-77947780D02*
X155893995Y-76947780D01*
X155513042Y-76947780D01*
X155417804Y-76995400D01*
X155370185Y-77043019D01*
X155322566Y-77138257D01*
X155322566Y-77281114D01*
X155370185Y-77376352D01*
X155417804Y-77423971D01*
X155513042Y-77471590D01*
X155893995Y-77471590D01*
X154989233Y-76947780D02*
X154370185Y-76947780D01*
X154703519Y-77328733D01*
X154560661Y-77328733D01*
X154465423Y-77376352D01*
X154417804Y-77423971D01*
X154370185Y-77519209D01*
X154370185Y-77757304D01*
X154417804Y-77852542D01*
X154465423Y-77900161D01*
X154560661Y-77947780D01*
X154846376Y-77947780D01*
X154941614Y-77900161D01*
X154989233Y-77852542D01*
X142645833Y-74202380D02*
X142645833Y-74916666D01*
X142693452Y-75059523D01*
X142788690Y-75154761D01*
X142931547Y-75202380D01*
X143026785Y-75202380D01*
X141645833Y-75202380D02*
X142217261Y-75202380D01*
X141931547Y-75202380D02*
X141931547Y-74202380D01*
X142026785Y-74345238D01*
X142122023Y-74440476D01*
X142217261Y-74488095D01*
X129361607Y-81950892D02*
X129409226Y-81998511D01*
X129552083Y-82046130D01*
X129647321Y-82046130D01*
X129790178Y-81998511D01*
X129885416Y-81903273D01*
X129933035Y-81808035D01*
X129980654Y-81617559D01*
X129980654Y-81474702D01*
X129933035Y-81284226D01*
X129885416Y-81188988D01*
X129790178Y-81093750D01*
X129647321Y-81046130D01*
X129552083Y-81046130D01*
X129409226Y-81093750D01*
X129361607Y-81141369D01*
X128409226Y-82046130D02*
X128980654Y-82046130D01*
X128694940Y-82046130D02*
X128694940Y-81046130D01*
X128790178Y-81188988D01*
X128885416Y-81284226D01*
X128980654Y-81331845D01*
X128075892Y-81046130D02*
X127409226Y-81046130D01*
X127837797Y-82046130D01*
D11*
X149185000Y-79550000D02*
X149185000Y-82550000D01*
X144185000Y-79550000D02*
X144185000Y-82550000D01*
D12*
X143991000Y-78423000D02*
G75*
G03*
X143991000Y-78423000I-100000J0D01*
G01*
D13*
X133394380Y-81596548D02*
X133394380Y-82119052D01*
X134814380Y-81596548D02*
X134814380Y-82119052D01*
X151740800Y-84768948D02*
X151740800Y-85291452D01*
X153160800Y-84768948D02*
X153160800Y-85291452D01*
X161901348Y-87222400D02*
X162423852Y-87222400D01*
X161901348Y-85802400D02*
X162423852Y-85802400D01*
X140971200Y-81278252D02*
X140971200Y-80755748D01*
X142391200Y-81278252D02*
X142391200Y-80755748D01*
X155685748Y-89864000D02*
X156208252Y-89864000D01*
X155685748Y-88444000D02*
X156208252Y-88444000D01*
X134720400Y-87798652D02*
X134720400Y-87276148D01*
X133300400Y-87798652D02*
X133300400Y-87276148D01*
X129386400Y-74677748D02*
X129386400Y-75200252D01*
X127966400Y-74677748D02*
X127966400Y-75200252D01*
X137784000Y-87290000D02*
X140234000Y-87290000D01*
X139584000Y-90510000D02*
X137784000Y-90510000D01*
X136047500Y-69803750D02*
X135127500Y-69803750D01*
X138687500Y-66343750D02*
X138687500Y-61983750D01*
X141247500Y-61983750D02*
X141247500Y-69803750D01*
X137687500Y-66343750D02*
X138687500Y-66343750D01*
X135127500Y-69803750D02*
X135127500Y-61983750D01*
X135127500Y-68203750D02*
X136047500Y-68203750D01*
X140327500Y-68203750D02*
X140047500Y-68203750D01*
X139487500Y-65843750D02*
X140487500Y-65843750D01*
X136887500Y-65843750D02*
X135887500Y-65843750D01*
X135887500Y-64243750D02*
X136887500Y-64243750D01*
X141247500Y-68203750D02*
X140327500Y-68203750D01*
X136327500Y-68203750D02*
X136047500Y-68203750D01*
X141247500Y-69803750D02*
X140327500Y-69803750D01*
X140487500Y-65843750D02*
X140487500Y-64243750D01*
X140487500Y-64243750D02*
X139487500Y-64243750D01*
X135127500Y-61983750D02*
X141247500Y-61983750D01*
X139487500Y-64243750D02*
X139487500Y-65843750D01*
X136887500Y-64243750D02*
X136887500Y-61983750D01*
X140327500Y-69803750D02*
X140327500Y-68203750D01*
X136327500Y-68203750D02*
X136327500Y-69418750D01*
X136047500Y-68203750D02*
X136047500Y-69803750D01*
X136887500Y-64243750D02*
X136887500Y-65843750D01*
X135887500Y-65843750D02*
X135887500Y-64243750D01*
X136387500Y-64243750D02*
X136387500Y-61983750D01*
X137687500Y-61983750D02*
X137687500Y-66343750D01*
X134647148Y-70460800D02*
X135169652Y-70460800D01*
X134647148Y-71880800D02*
X135169652Y-71880800D01*
X154144600Y-77382900D02*
X154144600Y-81442900D01*
X151874600Y-81442900D02*
X151874600Y-77382900D01*
X154144600Y-81442900D02*
X151874600Y-81442900D01*
X137280580Y-82068252D02*
X137280580Y-81545748D01*
X138700580Y-82068252D02*
X138700580Y-81545748D01*
X150716348Y-89864000D02*
X151238852Y-89864000D01*
X150716348Y-88444000D02*
X151238852Y-88444000D01*
X135197372Y-76117520D02*
X134674868Y-76117520D01*
X135197372Y-74697520D02*
X134674868Y-74697520D01*
X154904800Y-85634400D02*
X154904800Y-83834400D01*
X158124800Y-83834400D02*
X158124800Y-86284400D01*
X144633840Y-86690000D02*
X146433840Y-86690000D01*
X146433840Y-89910000D02*
X143983840Y-89910000D01*
X138097516Y-93821800D02*
X139301644Y-93821800D01*
X138097516Y-92001800D02*
X139301644Y-92001800D01*
X157935452Y-80974000D02*
X157412948Y-80974000D01*
X157935452Y-79554000D02*
X157412948Y-79554000D01*
X157948152Y-78180000D02*
X157425648Y-78180000D01*
X157948152Y-76760000D02*
X157425648Y-76760000D01*
D10*
X142544800Y-71851820D02*
X142544800Y-63351820D01*
X155244800Y-63351820D02*
X142544800Y-63351820D01*
X152704800Y-71851820D02*
X152704800Y-63351820D01*
X155244800Y-71851820D02*
X142544800Y-71851820D01*
X145084800Y-71851820D02*
X145084800Y-63351820D01*
X150164800Y-71851820D02*
X150164800Y-63351820D01*
X155244800Y-71851820D02*
X155244800Y-63351820D01*
X147624800Y-71851820D02*
X147624800Y-63351820D01*
X155194000Y-63406020D02*
X152755600Y-63406020D01*
X152755600Y-63406020D02*
X152755600Y-71788020D01*
X152755600Y-71788020D02*
X155194000Y-71788020D01*
X155194000Y-71788020D02*
X155194000Y-63406020D01*
G36*
X155194000Y-71788020D02*
G01*
X152755600Y-71788020D01*
X152755600Y-63406020D01*
X155194000Y-63406020D01*
X155194000Y-71788020D01*
G37*
X155194000Y-71788020D02*
X152755600Y-71788020D01*
X152755600Y-63406020D01*
X155194000Y-63406020D01*
X155194000Y-71788020D01*
D13*
X128015000Y-84442502D02*
X128015000Y-83919998D01*
X129485000Y-84442502D02*
X129485000Y-83919998D01*
D14*
X162430000Y-74300000D03*
%LPC*%
D15*
X143725000Y-92075000D03*
X154725000Y-92075000D03*
D16*
X147225000Y-93075000D03*
D17*
X149225000Y-93075000D03*
X151225000Y-93075000D03*
X147225000Y-91075000D03*
X149225000Y-91075000D03*
X151225000Y-91075000D03*
D18*
X161925000Y-91440000D03*
X161925000Y-66040000D03*
X130175000Y-91440000D03*
D19*
X131191000Y-85217000D03*
D20*
X131191000Y-82677000D03*
X131191000Y-77597000D03*
X131191000Y-75057000D03*
X131191000Y-72517000D03*
D21*
X132715000Y-68326000D03*
D22*
X130715000Y-68326000D03*
X128715000Y-68326000D03*
D23*
X162430000Y-77310000D03*
D24*
X138430000Y-71882000D03*
X162440000Y-83350000D03*
X162430000Y-80330000D03*
X138430000Y-74917300D03*
D23*
X162430000Y-74300000D03*
D25*
X136022080Y-79448600D03*
X136022080Y-84448600D03*
D26*
X144810000Y-79550000D03*
X146060000Y-79550000D03*
X147310000Y-79550000D03*
X148560000Y-79550000D03*
X148560000Y-82550000D03*
X147310000Y-82550000D03*
X146060000Y-82550000D03*
X144810000Y-82550000D03*
D27*
X134104380Y-80832800D03*
X134104380Y-82882800D03*
X152450800Y-84005200D03*
X152450800Y-86055200D03*
D28*
X161137600Y-86512400D03*
X163187600Y-86512400D03*
D29*
X141681200Y-82042000D03*
X141681200Y-79992000D03*
D28*
X154922000Y-89154000D03*
X156972000Y-89154000D03*
D29*
X134010400Y-88562400D03*
X134010400Y-86512400D03*
D27*
X128676400Y-73914000D03*
X128676400Y-75964000D03*
D30*
X140034000Y-87950000D03*
X140034000Y-88900000D03*
X140034000Y-89850000D03*
X137334000Y-89850000D03*
X137334000Y-87950000D03*
D31*
X137187500Y-68343750D03*
D22*
X139187500Y-68343750D03*
D28*
X133883400Y-71170800D03*
X135933400Y-71170800D03*
D32*
X153009600Y-80470400D03*
X153009600Y-77495400D03*
D29*
X137990580Y-82832000D03*
X137990580Y-80782000D03*
D28*
X149952600Y-89154000D03*
X152002600Y-89154000D03*
D33*
X135961120Y-75407520D03*
X133911120Y-75407520D03*
D34*
X157464800Y-86084400D03*
X156514800Y-86084400D03*
X155564800Y-86084400D03*
X155564800Y-83384400D03*
X157464800Y-83384400D03*
D35*
X144183840Y-89250000D03*
X144183840Y-88300000D03*
X144183840Y-87350000D03*
X146883840Y-87350000D03*
X146883840Y-89250000D03*
D36*
X137212080Y-92911800D03*
X140187080Y-92911800D03*
D33*
X158699200Y-80264000D03*
X156649200Y-80264000D03*
X158711900Y-77470000D03*
X156661900Y-77470000D03*
D37*
X153974800Y-74251820D03*
X151434800Y-74251820D03*
X148894800Y-74251820D03*
X146354800Y-74251820D03*
X143814800Y-74251820D03*
D38*
X128750000Y-85218750D03*
X128750000Y-83143750D03*
M02*
