G04 #@! TF.GenerationSoftware,KiCad,Pcbnew,(6.0.5)*
G04 #@! TF.CreationDate,2023-01-26T19:50:10-05:00*
G04 #@! TF.ProjectId,sensors,73656e73-6f72-4732-9e6b-696361645f70,rev?*
G04 #@! TF.SameCoordinates,Original*
G04 #@! TF.FileFunction,Legend,Bot*
G04 #@! TF.FilePolarity,Positive*
%FSLAX46Y46*%
G04 Gerber Fmt 4.6, Leading zero omitted, Abs format (unit mm)*
G04 Created by KiCad (PCBNEW (6.0.5)) date 2023-01-26 19:50:10*
%MOMM*%
%LPD*%
G01*
G04 APERTURE LIST*
G04 Aperture macros list*
%AMRoundRect*
0 Rectangle with rounded corners*
0 $1 Rounding radius*
0 $2 $3 $4 $5 $6 $7 $8 $9 X,Y pos of 4 corners*
0 Add a 4 corners polygon primitive as box body*
4,1,4,$2,$3,$4,$5,$6,$7,$8,$9,$2,$3,0*
0 Add four circle primitives for the rounded corners*
1,1,$1+$1,$2,$3*
1,1,$1+$1,$4,$5*
1,1,$1+$1,$6,$7*
1,1,$1+$1,$8,$9*
0 Add four rect primitives between the rounded corners*
20,1,$1+$1,$2,$3,$4,$5,0*
20,1,$1+$1,$4,$5,$6,$7,0*
20,1,$1+$1,$6,$7,$8,$9,0*
20,1,$1+$1,$8,$9,$2,$3,0*%
G04 Aperture macros list end*
%ADD10C,0.125000*%
%ADD11C,0.120000*%
%ADD12C,0.150000*%
%ADD13C,0.175000*%
%ADD14C,0.127000*%
%ADD15C,0.010000*%
%ADD16C,5.701600*%
%ADD17RoundRect,0.300800X0.450000X-0.350000X0.450000X0.350000X-0.450000X0.350000X-0.450000X-0.350000X0*%
%ADD18C,3.403600*%
%ADD19C,2.082800*%
%ADD20C,1.601600*%
%ADD21C,2.301600*%
%ADD22RoundRect,0.050800X-0.600000X0.600000X-0.600000X-0.600000X0.600000X-0.600000X0.600000X0.600000X0*%
%ADD23C,1.301600*%
%ADD24RoundRect,0.300800X0.350000X0.625000X-0.350000X0.625000X-0.350000X-0.625000X0.350000X-0.625000X0*%
%ADD25O,1.301600X1.851600*%
%ADD26RoundRect,0.050800X-0.754000X-0.754000X0.754000X-0.754000X0.754000X0.754000X-0.754000X0.754000X0*%
%ADD27C,1.609600*%
%ADD28C,1.856600*%
%ADD29RoundRect,0.300800X-0.475000X0.337500X-0.475000X-0.337500X0.475000X-0.337500X0.475000X0.337500X0*%
%ADD30RoundRect,0.300800X0.475000X-0.337500X0.475000X0.337500X-0.475000X0.337500X-0.475000X-0.337500X0*%
%ADD31RoundRect,0.300800X-0.350000X-0.450000X0.350000X-0.450000X0.350000X0.450000X-0.350000X0.450000X0*%
%ADD32RoundRect,0.300800X0.350000X0.450000X-0.350000X0.450000X-0.350000X-0.450000X0.350000X-0.450000X0*%
%ADD33RoundRect,0.300800X-0.450000X0.350000X-0.450000X-0.350000X0.450000X-0.350000X0.450000X0.350000X0*%
%ADD34RoundRect,0.200800X0.825000X0.150000X-0.825000X0.150000X-0.825000X-0.150000X0.825000X-0.150000X0*%
%ADD35RoundRect,0.050800X0.400000X0.250000X-0.400000X0.250000X-0.400000X-0.250000X0.400000X-0.250000X0*%
%ADD36RoundRect,0.050800X-1.000000X0.500000X-1.000000X-0.500000X1.000000X-0.500000X1.000000X0.500000X0*%
%ADD37RoundRect,0.200800X0.150000X-0.825000X0.150000X0.825000X-0.150000X0.825000X-0.150000X-0.825000X0*%
G04 APERTURE END LIST*
D10*
X174134016Y-96779565D02*
X174086397Y-96779565D01*
X174038778Y-96803375D01*
X174014969Y-96827184D01*
X173991159Y-96874803D01*
X173967350Y-96970041D01*
X173967350Y-97089089D01*
X173991159Y-97184327D01*
X174014969Y-97231946D01*
X174038778Y-97255755D01*
X174086397Y-97279565D01*
X174134016Y-97279565D01*
X174181635Y-97255755D01*
X174205445Y-97231946D01*
X174229254Y-97184327D01*
X174253064Y-97089089D01*
X174253064Y-96970041D01*
X174229254Y-96874803D01*
X174205445Y-96827184D01*
X174181635Y-96803375D01*
X174134016Y-96779565D01*
X173491159Y-97279565D02*
X173776873Y-97279565D01*
X173634016Y-97279565D02*
X173634016Y-96779565D01*
X173681635Y-96850994D01*
X173729254Y-96898613D01*
X173776873Y-96922422D01*
X173276873Y-97089089D02*
X172895921Y-97089089D01*
X172681635Y-96827184D02*
X172657826Y-96803375D01*
X172610207Y-96779565D01*
X172491159Y-96779565D01*
X172443540Y-96803375D01*
X172419731Y-96827184D01*
X172395921Y-96874803D01*
X172395921Y-96922422D01*
X172419731Y-96993851D01*
X172705445Y-97279565D01*
X172395921Y-97279565D01*
X171967350Y-96779565D02*
X172062588Y-96779565D01*
X172110207Y-96803375D01*
X172134016Y-96827184D01*
X172181635Y-96898613D01*
X172205445Y-96993851D01*
X172205445Y-97184327D01*
X172181635Y-97231946D01*
X172157826Y-97255755D01*
X172110207Y-97279565D01*
X172014969Y-97279565D01*
X171967350Y-97255755D01*
X171943540Y-97231946D01*
X171919731Y-97184327D01*
X171919731Y-97065279D01*
X171943540Y-97017660D01*
X171967350Y-96993851D01*
X172014969Y-96970041D01*
X172110207Y-96970041D01*
X172157826Y-96993851D01*
X172181635Y-97017660D01*
X172205445Y-97065279D01*
X171705445Y-97089089D02*
X171324493Y-97089089D01*
X171110207Y-96827184D02*
X171086397Y-96803375D01*
X171038778Y-96779565D01*
X170919731Y-96779565D01*
X170872112Y-96803375D01*
X170848302Y-96827184D01*
X170824493Y-96874803D01*
X170824493Y-96922422D01*
X170848302Y-96993851D01*
X171134016Y-97279565D01*
X170824493Y-97279565D01*
X170514969Y-96779565D02*
X170467350Y-96779565D01*
X170419731Y-96803375D01*
X170395921Y-96827184D01*
X170372112Y-96874803D01*
X170348302Y-96970041D01*
X170348302Y-97089089D01*
X170372112Y-97184327D01*
X170395921Y-97231946D01*
X170419731Y-97255755D01*
X170467350Y-97279565D01*
X170514969Y-97279565D01*
X170562588Y-97255755D01*
X170586397Y-97231946D01*
X170610207Y-97184327D01*
X170634016Y-97089089D01*
X170634016Y-96970041D01*
X170610207Y-96874803D01*
X170586397Y-96827184D01*
X170562588Y-96803375D01*
X170514969Y-96779565D01*
X170157826Y-96827184D02*
X170134016Y-96803375D01*
X170086397Y-96779565D01*
X169967350Y-96779565D01*
X169919731Y-96803375D01*
X169895921Y-96827184D01*
X169872112Y-96874803D01*
X169872112Y-96922422D01*
X169895921Y-96993851D01*
X170181635Y-97279565D01*
X169872112Y-97279565D01*
X169705445Y-96779565D02*
X169395921Y-96779565D01*
X169562588Y-96970041D01*
X169491159Y-96970041D01*
X169443540Y-96993851D01*
X169419731Y-97017660D01*
X169395921Y-97065279D01*
X169395921Y-97184327D01*
X169419731Y-97231946D01*
X169443540Y-97255755D01*
X169491159Y-97279565D01*
X169634016Y-97279565D01*
X169681635Y-97255755D01*
X169705445Y-97231946D01*
X173927923Y-96492190D02*
X174094590Y-96254095D01*
X174213638Y-96492190D02*
X174213638Y-95992190D01*
X174023161Y-95992190D01*
X173975542Y-96016000D01*
X173951733Y-96039809D01*
X173927923Y-96087428D01*
X173927923Y-96158857D01*
X173951733Y-96206476D01*
X173975542Y-96230285D01*
X174023161Y-96254095D01*
X174213638Y-96254095D01*
X173713638Y-96444571D02*
X173689828Y-96468380D01*
X173713638Y-96492190D01*
X173737447Y-96468380D01*
X173713638Y-96444571D01*
X173713638Y-96492190D01*
X173094590Y-96492190D02*
X173094590Y-95992190D01*
X172975542Y-95992190D01*
X172904114Y-96016000D01*
X172856495Y-96063619D01*
X172832685Y-96111238D01*
X172808876Y-96206476D01*
X172808876Y-96277904D01*
X172832685Y-96373142D01*
X172856495Y-96420761D01*
X172904114Y-96468380D01*
X172975542Y-96492190D01*
X173094590Y-96492190D01*
X172380304Y-96492190D02*
X172380304Y-96230285D01*
X172404114Y-96182666D01*
X172451733Y-96158857D01*
X172546971Y-96158857D01*
X172594590Y-96182666D01*
X172380304Y-96468380D02*
X172427923Y-96492190D01*
X172546971Y-96492190D01*
X172594590Y-96468380D01*
X172618400Y-96420761D01*
X172618400Y-96373142D01*
X172594590Y-96325523D01*
X172546971Y-96301714D01*
X172427923Y-96301714D01*
X172380304Y-96277904D01*
X172142209Y-96492190D02*
X172142209Y-95992190D01*
X172094590Y-96301714D02*
X171951733Y-96492190D01*
X171951733Y-96158857D02*
X172142209Y-96349333D01*
X171737447Y-96492190D02*
X171737447Y-95992190D01*
X171523161Y-96492190D02*
X171523161Y-96230285D01*
X171546971Y-96182666D01*
X171594590Y-96158857D01*
X171666019Y-96158857D01*
X171713638Y-96182666D01*
X171737447Y-96206476D01*
X171285066Y-96492190D02*
X171285066Y-96158857D01*
X171285066Y-95992190D02*
X171308876Y-96016000D01*
X171285066Y-96039809D01*
X171261257Y-96016000D01*
X171285066Y-95992190D01*
X171285066Y-96039809D01*
X170975542Y-96492190D02*
X171023161Y-96468380D01*
X171046971Y-96420761D01*
X171046971Y-95992190D01*
D11*
X174197596Y-95587333D02*
X173959500Y-95587333D01*
X174245215Y-95730190D02*
X174078548Y-95230190D01*
X173911881Y-95730190D01*
X173745215Y-95682571D02*
X173721405Y-95706380D01*
X173745215Y-95730190D01*
X173769024Y-95706380D01*
X173745215Y-95682571D01*
X173745215Y-95730190D01*
X173149976Y-95706380D02*
X173078548Y-95730190D01*
X172959500Y-95730190D01*
X172911881Y-95706380D01*
X172888072Y-95682571D01*
X172864262Y-95634952D01*
X172864262Y-95587333D01*
X172888072Y-95539714D01*
X172911881Y-95515904D01*
X172959500Y-95492095D01*
X173054738Y-95468285D01*
X173102357Y-95444476D01*
X173126167Y-95420666D01*
X173149976Y-95373047D01*
X173149976Y-95325428D01*
X173126167Y-95277809D01*
X173102357Y-95254000D01*
X173054738Y-95230190D01*
X172935691Y-95230190D01*
X172864262Y-95254000D01*
X172578548Y-95730190D02*
X172626167Y-95706380D01*
X172649976Y-95682571D01*
X172673786Y-95634952D01*
X172673786Y-95492095D01*
X172649976Y-95444476D01*
X172626167Y-95420666D01*
X172578548Y-95396857D01*
X172507119Y-95396857D01*
X172459500Y-95420666D01*
X172435691Y-95444476D01*
X172411881Y-95492095D01*
X172411881Y-95634952D01*
X172435691Y-95682571D01*
X172459500Y-95706380D01*
X172507119Y-95730190D01*
X172578548Y-95730190D01*
X172269024Y-95396857D02*
X172078548Y-95396857D01*
X172197596Y-95230190D02*
X172197596Y-95658761D01*
X172173786Y-95706380D01*
X172126167Y-95730190D01*
X172078548Y-95730190D01*
X171911881Y-95396857D02*
X171911881Y-95730190D01*
X171911881Y-95444476D02*
X171888072Y-95420666D01*
X171840453Y-95396857D01*
X171769024Y-95396857D01*
X171721405Y-95420666D01*
X171697596Y-95468285D01*
X171697596Y-95730190D01*
X171459500Y-95730190D02*
X171459500Y-95396857D01*
X171459500Y-95230190D02*
X171483310Y-95254000D01*
X171459500Y-95277809D01*
X171435691Y-95254000D01*
X171459500Y-95230190D01*
X171459500Y-95277809D01*
X171221405Y-95730190D02*
X171221405Y-95230190D01*
X171173786Y-95539714D02*
X171030929Y-95730190D01*
X171030929Y-95396857D02*
X171221405Y-95587333D01*
X170745215Y-95730190D02*
X170792834Y-95706380D01*
X170816643Y-95682571D01*
X170840453Y-95634952D01*
X170840453Y-95492095D01*
X170816643Y-95444476D01*
X170792834Y-95420666D01*
X170745215Y-95396857D01*
X170673786Y-95396857D01*
X170626167Y-95420666D01*
X170602357Y-95444476D01*
X170578548Y-95492095D01*
X170578548Y-95634952D01*
X170602357Y-95682571D01*
X170626167Y-95706380D01*
X170673786Y-95730190D01*
X170745215Y-95730190D01*
X170411881Y-95396857D02*
X170292834Y-95730190D01*
X170173786Y-95396857D01*
D12*
X165600000Y-133600000D02*
X165600000Y-137300000D01*
X166100000Y-133800000D02*
X166300000Y-133600000D01*
X165600000Y-138800000D02*
X160300000Y-138800000D01*
X166000000Y-133900000D02*
X166300000Y-133600000D01*
X166300000Y-133600000D02*
X166100000Y-133800000D01*
X165900000Y-133600000D02*
X166300000Y-133600000D01*
X165600000Y-137300000D02*
X165600000Y-138800000D01*
X166100000Y-133800000D02*
X166000000Y-133900000D01*
X166000000Y-133300000D02*
X166300000Y-133600000D01*
X165900000Y-133600000D02*
X165600000Y-133600000D01*
D10*
X165307142Y-114802380D02*
X165235714Y-114826190D01*
X165116666Y-114826190D01*
X165069047Y-114802380D01*
X165045238Y-114778571D01*
X165021428Y-114730952D01*
X165021428Y-114683333D01*
X165045238Y-114635714D01*
X165069047Y-114611904D01*
X165116666Y-114588095D01*
X165211904Y-114564285D01*
X165259523Y-114540476D01*
X165283333Y-114516666D01*
X165307142Y-114469047D01*
X165307142Y-114421428D01*
X165283333Y-114373809D01*
X165259523Y-114350000D01*
X165211904Y-114326190D01*
X165092857Y-114326190D01*
X165021428Y-114350000D01*
X164807142Y-114826190D02*
X164807142Y-114326190D01*
X164688095Y-114326190D01*
X164616666Y-114350000D01*
X164569047Y-114397619D01*
X164545238Y-114445238D01*
X164521428Y-114540476D01*
X164521428Y-114611904D01*
X164545238Y-114707142D01*
X164569047Y-114754761D01*
X164616666Y-114802380D01*
X164688095Y-114826190D01*
X164807142Y-114826190D01*
X164330952Y-114683333D02*
X164092857Y-114683333D01*
X164378571Y-114826190D02*
X164211904Y-114326190D01*
X164045238Y-114826190D01*
X168395238Y-114702380D02*
X168323809Y-114726190D01*
X168204761Y-114726190D01*
X168157142Y-114702380D01*
X168133333Y-114678571D01*
X168109523Y-114630952D01*
X168109523Y-114583333D01*
X168133333Y-114535714D01*
X168157142Y-114511904D01*
X168204761Y-114488095D01*
X168300000Y-114464285D01*
X168347619Y-114440476D01*
X168371428Y-114416666D01*
X168395238Y-114369047D01*
X168395238Y-114321428D01*
X168371428Y-114273809D01*
X168347619Y-114250000D01*
X168300000Y-114226190D01*
X168180952Y-114226190D01*
X168109523Y-114250000D01*
X167609523Y-114678571D02*
X167633333Y-114702380D01*
X167704761Y-114726190D01*
X167752380Y-114726190D01*
X167823809Y-114702380D01*
X167871428Y-114654761D01*
X167895238Y-114607142D01*
X167919047Y-114511904D01*
X167919047Y-114440476D01*
X167895238Y-114345238D01*
X167871428Y-114297619D01*
X167823809Y-114250000D01*
X167752380Y-114226190D01*
X167704761Y-114226190D01*
X167633333Y-114250000D01*
X167609523Y-114273809D01*
X167157142Y-114726190D02*
X167395238Y-114726190D01*
X167395238Y-114226190D01*
X179009523Y-117426190D02*
X179009523Y-116926190D01*
X178771428Y-117426190D02*
X178771428Y-116926190D01*
X178604761Y-117283333D01*
X178438095Y-116926190D01*
X178438095Y-117426190D01*
X178200000Y-116926190D02*
X178200000Y-117330952D01*
X178176190Y-117378571D01*
X178152380Y-117402380D01*
X178104761Y-117426190D01*
X178009523Y-117426190D01*
X177961904Y-117402380D01*
X177938095Y-117378571D01*
X177914285Y-117330952D01*
X177914285Y-116926190D01*
X177795238Y-117473809D02*
X177414285Y-117473809D01*
X177295238Y-117426190D02*
X177295238Y-116926190D01*
X177057142Y-117426190D02*
X177057142Y-116926190D01*
X176771428Y-117426190D01*
X176771428Y-116926190D01*
X176604761Y-116926190D02*
X176319047Y-116926190D01*
X176461904Y-117426190D02*
X176461904Y-116926190D01*
X158605952Y-136110714D02*
X158225000Y-136110714D01*
X158415476Y-136301190D02*
X158415476Y-135920238D01*
X158034523Y-135801190D02*
X157725000Y-135801190D01*
X157891666Y-135991666D01*
X157820238Y-135991666D01*
X157772619Y-136015476D01*
X157748809Y-136039285D01*
X157725000Y-136086904D01*
X157725000Y-136205952D01*
X157748809Y-136253571D01*
X157772619Y-136277380D01*
X157820238Y-136301190D01*
X157963095Y-136301190D01*
X158010714Y-136277380D01*
X158034523Y-136253571D01*
X157582142Y-135801190D02*
X157415476Y-136301190D01*
X157248809Y-135801190D01*
X157129761Y-135801190D02*
X156820238Y-135801190D01*
X156986904Y-135991666D01*
X156915476Y-135991666D01*
X156867857Y-136015476D01*
X156844047Y-136039285D01*
X156820238Y-136086904D01*
X156820238Y-136205952D01*
X156844047Y-136253571D01*
X156867857Y-136277380D01*
X156915476Y-136301190D01*
X157058333Y-136301190D01*
X157105952Y-136277380D01*
X157129761Y-136253571D01*
X190885714Y-112802380D02*
X190814285Y-112826190D01*
X190695238Y-112826190D01*
X190647619Y-112802380D01*
X190623809Y-112778571D01*
X190600000Y-112730952D01*
X190600000Y-112683333D01*
X190623809Y-112635714D01*
X190647619Y-112611904D01*
X190695238Y-112588095D01*
X190790476Y-112564285D01*
X190838095Y-112540476D01*
X190861904Y-112516666D01*
X190885714Y-112469047D01*
X190885714Y-112421428D01*
X190861904Y-112373809D01*
X190838095Y-112350000D01*
X190790476Y-112326190D01*
X190671428Y-112326190D01*
X190600000Y-112350000D01*
X190409523Y-112373809D02*
X190385714Y-112350000D01*
X190338095Y-112326190D01*
X190219047Y-112326190D01*
X190171428Y-112350000D01*
X190147619Y-112373809D01*
X190123809Y-112421428D01*
X190123809Y-112469047D01*
X190147619Y-112540476D01*
X190433333Y-112826190D01*
X190123809Y-112826190D01*
X190028571Y-112873809D02*
X189647619Y-112873809D01*
X189433333Y-112326190D02*
X189338095Y-112326190D01*
X189290476Y-112350000D01*
X189242857Y-112397619D01*
X189219047Y-112492857D01*
X189219047Y-112659523D01*
X189242857Y-112754761D01*
X189290476Y-112802380D01*
X189338095Y-112826190D01*
X189433333Y-112826190D01*
X189480952Y-112802380D01*
X189528571Y-112754761D01*
X189552380Y-112659523D01*
X189552380Y-112492857D01*
X189528571Y-112397619D01*
X189480952Y-112350000D01*
X189433333Y-112326190D01*
X189004761Y-112326190D02*
X189004761Y-112730952D01*
X188980952Y-112778571D01*
X188957142Y-112802380D01*
X188909523Y-112826190D01*
X188814285Y-112826190D01*
X188766666Y-112802380D01*
X188742857Y-112778571D01*
X188719047Y-112730952D01*
X188719047Y-112326190D01*
X188552380Y-112326190D02*
X188266666Y-112326190D01*
X188409523Y-112826190D02*
X188409523Y-112326190D01*
X185680952Y-139026190D02*
X185395238Y-139026190D01*
X185538095Y-139526190D02*
X185538095Y-139026190D01*
X185276190Y-139026190D02*
X184942857Y-139526190D01*
X184942857Y-139026190D02*
X185276190Y-139526190D01*
X163244933Y-124181371D02*
X163268742Y-124205180D01*
X163340171Y-124228990D01*
X163387790Y-124228990D01*
X163459219Y-124205180D01*
X163506838Y-124157561D01*
X163530647Y-124109942D01*
X163554457Y-124014704D01*
X163554457Y-123943276D01*
X163530647Y-123848038D01*
X163506838Y-123800419D01*
X163459219Y-123752800D01*
X163387790Y-123728990D01*
X163340171Y-123728990D01*
X163268742Y-123752800D01*
X163244933Y-123776609D01*
X163054457Y-124086133D02*
X162816361Y-124086133D01*
X163102076Y-124228990D02*
X162935409Y-123728990D01*
X162768742Y-124228990D01*
X162602076Y-124228990D02*
X162602076Y-123728990D01*
X162316361Y-124228990D01*
X162316361Y-123728990D01*
X162078266Y-124228990D02*
X162078266Y-123728990D01*
X162078266Y-123967085D02*
X161792552Y-123967085D01*
X161792552Y-124228990D02*
X161792552Y-123728990D01*
X168950000Y-139678571D02*
X168973809Y-139702380D01*
X169045238Y-139726190D01*
X169092857Y-139726190D01*
X169164285Y-139702380D01*
X169211904Y-139654761D01*
X169235714Y-139607142D01*
X169259523Y-139511904D01*
X169259523Y-139440476D01*
X169235714Y-139345238D01*
X169211904Y-139297619D01*
X169164285Y-139250000D01*
X169092857Y-139226190D01*
X169045238Y-139226190D01*
X168973809Y-139250000D01*
X168950000Y-139273809D01*
X168735714Y-139226190D02*
X168735714Y-139630952D01*
X168711904Y-139678571D01*
X168688095Y-139702380D01*
X168640476Y-139726190D01*
X168545238Y-139726190D01*
X168497619Y-139702380D01*
X168473809Y-139678571D01*
X168450000Y-139630952D01*
X168450000Y-139226190D01*
X167926190Y-139726190D02*
X168092857Y-139488095D01*
X168211904Y-139726190D02*
X168211904Y-139226190D01*
X168021428Y-139226190D01*
X167973809Y-139250000D01*
X167950000Y-139273809D01*
X167926190Y-139321428D01*
X167926190Y-139392857D01*
X167950000Y-139440476D01*
X167973809Y-139464285D01*
X168021428Y-139488095D01*
X168211904Y-139488095D01*
X167426190Y-139726190D02*
X167592857Y-139488095D01*
X167711904Y-139726190D02*
X167711904Y-139226190D01*
X167521428Y-139226190D01*
X167473809Y-139250000D01*
X167450000Y-139273809D01*
X167426190Y-139321428D01*
X167426190Y-139392857D01*
X167450000Y-139440476D01*
X167473809Y-139464285D01*
X167521428Y-139488095D01*
X167711904Y-139488095D01*
X167330952Y-139773809D02*
X166950000Y-139773809D01*
X166592857Y-139226190D02*
X166830952Y-139226190D01*
X166854761Y-139464285D01*
X166830952Y-139440476D01*
X166783333Y-139416666D01*
X166664285Y-139416666D01*
X166616666Y-139440476D01*
X166592857Y-139464285D01*
X166569047Y-139511904D01*
X166569047Y-139630952D01*
X166592857Y-139678571D01*
X166616666Y-139702380D01*
X166664285Y-139726190D01*
X166783333Y-139726190D01*
X166830952Y-139702380D01*
X166854761Y-139678571D01*
X166426190Y-139226190D02*
X166259523Y-139726190D01*
X166092857Y-139226190D01*
D13*
X174219310Y-94926857D02*
X174219310Y-93726857D01*
X173819310Y-94584000D01*
X173419310Y-93726857D01*
X173419310Y-94926857D01*
X172847881Y-94926857D02*
X172847881Y-94126857D01*
X172847881Y-93726857D02*
X172905024Y-93784000D01*
X172847881Y-93841142D01*
X172790738Y-93784000D01*
X172847881Y-93726857D01*
X172847881Y-93841142D01*
X172276453Y-94126857D02*
X172276453Y-94926857D01*
X172276453Y-94241142D02*
X172219310Y-94184000D01*
X172105024Y-94126857D01*
X171933596Y-94126857D01*
X171819310Y-94184000D01*
X171762167Y-94298285D01*
X171762167Y-94926857D01*
X171190738Y-94926857D02*
X171190738Y-94126857D01*
X171190738Y-93726857D02*
X171247881Y-93784000D01*
X171190738Y-93841142D01*
X171133596Y-93784000D01*
X171190738Y-93726857D01*
X171190738Y-93841142D01*
X170676453Y-94869714D02*
X170562167Y-94926857D01*
X170333596Y-94926857D01*
X170219310Y-94869714D01*
X170162167Y-94755428D01*
X170162167Y-94698285D01*
X170219310Y-94584000D01*
X170333596Y-94526857D01*
X170505024Y-94526857D01*
X170619310Y-94469714D01*
X170676453Y-94355428D01*
X170676453Y-94298285D01*
X170619310Y-94184000D01*
X170505024Y-94126857D01*
X170333596Y-94126857D01*
X170219310Y-94184000D01*
X169190738Y-94869714D02*
X169305024Y-94926857D01*
X169533596Y-94926857D01*
X169647881Y-94869714D01*
X169705024Y-94755428D01*
X169705024Y-94298285D01*
X169647881Y-94184000D01*
X169533596Y-94126857D01*
X169305024Y-94126857D01*
X169190738Y-94184000D01*
X169133596Y-94298285D01*
X169133596Y-94412571D01*
X169705024Y-94526857D01*
X168619310Y-94126857D02*
X168619310Y-94926857D01*
X168619310Y-94241142D02*
X168562167Y-94184000D01*
X168447881Y-94126857D01*
X168276453Y-94126857D01*
X168162167Y-94184000D01*
X168105024Y-94298285D01*
X168105024Y-94926857D01*
X167590738Y-94869714D02*
X167476453Y-94926857D01*
X167247881Y-94926857D01*
X167133596Y-94869714D01*
X167076453Y-94755428D01*
X167076453Y-94698285D01*
X167133596Y-94584000D01*
X167247881Y-94526857D01*
X167419310Y-94526857D01*
X167533596Y-94469714D01*
X167590738Y-94355428D01*
X167590738Y-94298285D01*
X167533596Y-94184000D01*
X167419310Y-94126857D01*
X167247881Y-94126857D01*
X167133596Y-94184000D01*
X166390738Y-94926857D02*
X166505024Y-94869714D01*
X166562167Y-94812571D01*
X166619310Y-94698285D01*
X166619310Y-94355428D01*
X166562167Y-94241142D01*
X166505024Y-94184000D01*
X166390738Y-94126857D01*
X166219310Y-94126857D01*
X166105024Y-94184000D01*
X166047881Y-94241142D01*
X165990738Y-94355428D01*
X165990738Y-94698285D01*
X166047881Y-94812571D01*
X166105024Y-94869714D01*
X166219310Y-94926857D01*
X166390738Y-94926857D01*
X165476453Y-94926857D02*
X165476453Y-94126857D01*
X165476453Y-94355428D02*
X165419310Y-94241142D01*
X165362167Y-94184000D01*
X165247881Y-94126857D01*
X165133596Y-94126857D01*
X163133596Y-94926857D02*
X163533596Y-94355428D01*
X163819310Y-94926857D02*
X163819310Y-93726857D01*
X163362167Y-93726857D01*
X163247881Y-93784000D01*
X163190738Y-93841142D01*
X163133596Y-93955428D01*
X163133596Y-94126857D01*
X163190738Y-94241142D01*
X163247881Y-94298285D01*
X163362167Y-94355428D01*
X163819310Y-94355428D01*
X162676453Y-93841142D02*
X162619310Y-93784000D01*
X162505024Y-93726857D01*
X162219310Y-93726857D01*
X162105024Y-93784000D01*
X162047881Y-93841142D01*
X161990738Y-93955428D01*
X161990738Y-94069714D01*
X162047881Y-94241142D01*
X162733596Y-94926857D01*
X161990738Y-94926857D01*
D10*
X167788095Y-127978571D02*
X167811904Y-128002380D01*
X167883333Y-128026190D01*
X167930952Y-128026190D01*
X168002380Y-128002380D01*
X168050000Y-127954761D01*
X168073809Y-127907142D01*
X168097619Y-127811904D01*
X168097619Y-127740476D01*
X168073809Y-127645238D01*
X168050000Y-127597619D01*
X168002380Y-127550000D01*
X167930952Y-127526190D01*
X167883333Y-127526190D01*
X167811904Y-127550000D01*
X167788095Y-127573809D01*
X167573809Y-127526190D02*
X167573809Y-127930952D01*
X167550000Y-127978571D01*
X167526190Y-128002380D01*
X167478571Y-128026190D01*
X167383333Y-128026190D01*
X167335714Y-128002380D01*
X167311904Y-127978571D01*
X167288095Y-127930952D01*
X167288095Y-127526190D01*
X166764285Y-128026190D02*
X166930952Y-127788095D01*
X167050000Y-128026190D02*
X167050000Y-127526190D01*
X166859523Y-127526190D01*
X166811904Y-127550000D01*
X166788095Y-127573809D01*
X166764285Y-127621428D01*
X166764285Y-127692857D01*
X166788095Y-127740476D01*
X166811904Y-127764285D01*
X166859523Y-127788095D01*
X167050000Y-127788095D01*
X166264285Y-128026190D02*
X166430952Y-127788095D01*
X166550000Y-128026190D02*
X166550000Y-127526190D01*
X166359523Y-127526190D01*
X166311904Y-127550000D01*
X166288095Y-127573809D01*
X166264285Y-127621428D01*
X166264285Y-127692857D01*
X166288095Y-127740476D01*
X166311904Y-127764285D01*
X166359523Y-127788095D01*
X166550000Y-127788095D01*
X166169047Y-128073809D02*
X165788095Y-128073809D01*
X165407142Y-128026190D02*
X165692857Y-128026190D01*
X165550000Y-128026190D02*
X165550000Y-127526190D01*
X165597619Y-127597619D01*
X165645238Y-127645238D01*
X165692857Y-127669047D01*
X165216666Y-127573809D02*
X165192857Y-127550000D01*
X165145238Y-127526190D01*
X165026190Y-127526190D01*
X164978571Y-127550000D01*
X164954761Y-127573809D01*
X164930952Y-127621428D01*
X164930952Y-127669047D01*
X164954761Y-127740476D01*
X165240476Y-128026190D01*
X164930952Y-128026190D01*
X164788095Y-127526190D02*
X164621428Y-128026190D01*
X164454761Y-127526190D01*
X161143047Y-108506390D02*
X161143047Y-108006390D01*
X160976380Y-108363533D01*
X160809714Y-108006390D01*
X160809714Y-108506390D01*
X160285904Y-108458771D02*
X160309714Y-108482580D01*
X160381142Y-108506390D01*
X160428761Y-108506390D01*
X160500190Y-108482580D01*
X160547809Y-108434961D01*
X160571619Y-108387342D01*
X160595428Y-108292104D01*
X160595428Y-108220676D01*
X160571619Y-108125438D01*
X160547809Y-108077819D01*
X160500190Y-108030200D01*
X160428761Y-108006390D01*
X160381142Y-108006390D01*
X160309714Y-108030200D01*
X160285904Y-108054009D01*
X159833523Y-108506390D02*
X160071619Y-108506390D01*
X160071619Y-108006390D01*
X159381142Y-108506390D02*
X159547809Y-108268295D01*
X159666857Y-108506390D02*
X159666857Y-108006390D01*
X159476380Y-108006390D01*
X159428761Y-108030200D01*
X159404952Y-108054009D01*
X159381142Y-108101628D01*
X159381142Y-108173057D01*
X159404952Y-108220676D01*
X159428761Y-108244485D01*
X159476380Y-108268295D01*
X159666857Y-108268295D01*
X160542857Y-141885714D02*
X160161904Y-141885714D01*
X160352380Y-142076190D02*
X160352380Y-141695238D01*
X159685714Y-141576190D02*
X159923809Y-141576190D01*
X159947619Y-141814285D01*
X159923809Y-141790476D01*
X159876190Y-141766666D01*
X159757142Y-141766666D01*
X159709523Y-141790476D01*
X159685714Y-141814285D01*
X159661904Y-141861904D01*
X159661904Y-141980952D01*
X159685714Y-142028571D01*
X159709523Y-142052380D01*
X159757142Y-142076190D01*
X159876190Y-142076190D01*
X159923809Y-142052380D01*
X159947619Y-142028571D01*
X159519047Y-141576190D02*
X159352380Y-142076190D01*
X159185714Y-141576190D01*
X157897619Y-96076190D02*
X158183333Y-96076190D01*
X158040476Y-96076190D02*
X158040476Y-95576190D01*
X158088095Y-95647619D01*
X158135714Y-95695238D01*
X158183333Y-95719047D01*
X157707142Y-95623809D02*
X157683333Y-95600000D01*
X157635714Y-95576190D01*
X157516666Y-95576190D01*
X157469047Y-95600000D01*
X157445238Y-95623809D01*
X157421428Y-95671428D01*
X157421428Y-95719047D01*
X157445238Y-95790476D01*
X157730952Y-96076190D01*
X157421428Y-96076190D01*
X156850000Y-95552380D02*
X157278571Y-96195238D01*
X156421428Y-96076190D02*
X156707142Y-96076190D01*
X156564285Y-96076190D02*
X156564285Y-95576190D01*
X156611904Y-95647619D01*
X156659523Y-95695238D01*
X156707142Y-95719047D01*
X155969047Y-95576190D02*
X156207142Y-95576190D01*
X156230952Y-95814285D01*
X156207142Y-95790476D01*
X156159523Y-95766666D01*
X156040476Y-95766666D01*
X155992857Y-95790476D01*
X155969047Y-95814285D01*
X155945238Y-95861904D01*
X155945238Y-95980952D01*
X155969047Y-96028571D01*
X155992857Y-96052380D01*
X156040476Y-96076190D01*
X156159523Y-96076190D01*
X156207142Y-96052380D01*
X156230952Y-96028571D01*
X155802380Y-95576190D02*
X155635714Y-96076190D01*
X155469047Y-95576190D01*
X162636152Y-114227800D02*
X162683771Y-114203990D01*
X162755200Y-114203990D01*
X162826628Y-114227800D01*
X162874247Y-114275419D01*
X162898057Y-114323038D01*
X162921866Y-114418276D01*
X162921866Y-114489704D01*
X162898057Y-114584942D01*
X162874247Y-114632561D01*
X162826628Y-114680180D01*
X162755200Y-114703990D01*
X162707580Y-114703990D01*
X162636152Y-114680180D01*
X162612342Y-114656371D01*
X162612342Y-114489704D01*
X162707580Y-114489704D01*
X162398057Y-114703990D02*
X162398057Y-114203990D01*
X162112342Y-114703990D01*
X162112342Y-114203990D01*
X161874247Y-114703990D02*
X161874247Y-114203990D01*
X161755200Y-114203990D01*
X161683771Y-114227800D01*
X161636152Y-114275419D01*
X161612342Y-114323038D01*
X161588533Y-114418276D01*
X161588533Y-114489704D01*
X161612342Y-114584942D01*
X161636152Y-114632561D01*
X161683771Y-114680180D01*
X161755200Y-114703990D01*
X161874247Y-114703990D01*
X162950447Y-111587790D02*
X162640923Y-111587790D01*
X162807590Y-111778266D01*
X162736161Y-111778266D01*
X162688542Y-111802076D01*
X162664733Y-111825885D01*
X162640923Y-111873504D01*
X162640923Y-111992552D01*
X162664733Y-112040171D01*
X162688542Y-112063980D01*
X162736161Y-112087790D01*
X162879019Y-112087790D01*
X162926638Y-112063980D01*
X162950447Y-112040171D01*
X162498066Y-111587790D02*
X162331400Y-112087790D01*
X162164733Y-111587790D01*
X162045685Y-111587790D02*
X161736161Y-111587790D01*
X161902828Y-111778266D01*
X161831400Y-111778266D01*
X161783780Y-111802076D01*
X161759971Y-111825885D01*
X161736161Y-111873504D01*
X161736161Y-111992552D01*
X161759971Y-112040171D01*
X161783780Y-112063980D01*
X161831400Y-112087790D01*
X161974257Y-112087790D01*
X162021876Y-112063980D01*
X162045685Y-112040171D01*
X175620238Y-108878571D02*
X175644047Y-108902380D01*
X175715476Y-108926190D01*
X175763095Y-108926190D01*
X175834523Y-108902380D01*
X175882142Y-108854761D01*
X175905952Y-108807142D01*
X175929761Y-108711904D01*
X175929761Y-108640476D01*
X175905952Y-108545238D01*
X175882142Y-108497619D01*
X175834523Y-108450000D01*
X175763095Y-108426190D01*
X175715476Y-108426190D01*
X175644047Y-108450000D01*
X175620238Y-108473809D01*
X175405952Y-108926190D02*
X175405952Y-108426190D01*
X175405952Y-108664285D02*
X175120238Y-108664285D01*
X175120238Y-108926190D02*
X175120238Y-108426190D01*
X174905952Y-108473809D02*
X174882142Y-108450000D01*
X174834523Y-108426190D01*
X174715476Y-108426190D01*
X174667857Y-108450000D01*
X174644047Y-108473809D01*
X174620238Y-108521428D01*
X174620238Y-108569047D01*
X174644047Y-108640476D01*
X174929761Y-108926190D01*
X174620238Y-108926190D01*
X174405952Y-108735714D02*
X174025000Y-108735714D01*
X173501190Y-108926190D02*
X173667857Y-108688095D01*
X173786904Y-108926190D02*
X173786904Y-108426190D01*
X173596428Y-108426190D01*
X173548809Y-108450000D01*
X173525000Y-108473809D01*
X173501190Y-108521428D01*
X173501190Y-108592857D01*
X173525000Y-108640476D01*
X173548809Y-108664285D01*
X173596428Y-108688095D01*
X173786904Y-108688095D01*
X173286904Y-108664285D02*
X173120238Y-108664285D01*
X173048809Y-108926190D02*
X173286904Y-108926190D01*
X173286904Y-108426190D01*
X173048809Y-108426190D01*
X172667857Y-108664285D02*
X172834523Y-108664285D01*
X172834523Y-108926190D02*
X172834523Y-108426190D01*
X172596428Y-108426190D01*
X154730952Y-98335714D02*
X154350000Y-98335714D01*
X154540476Y-98526190D02*
X154540476Y-98145238D01*
X153850000Y-98526190D02*
X154135714Y-98526190D01*
X153992857Y-98526190D02*
X153992857Y-98026190D01*
X154040476Y-98097619D01*
X154088095Y-98145238D01*
X154135714Y-98169047D01*
X153659523Y-98073809D02*
X153635714Y-98050000D01*
X153588095Y-98026190D01*
X153469047Y-98026190D01*
X153421428Y-98050000D01*
X153397619Y-98073809D01*
X153373809Y-98121428D01*
X153373809Y-98169047D01*
X153397619Y-98240476D01*
X153683333Y-98526190D01*
X153373809Y-98526190D01*
X153230952Y-98026190D02*
X153064285Y-98526190D01*
X152897619Y-98026190D01*
X188485714Y-97702380D02*
X188414285Y-97726190D01*
X188295238Y-97726190D01*
X188247619Y-97702380D01*
X188223809Y-97678571D01*
X188200000Y-97630952D01*
X188200000Y-97583333D01*
X188223809Y-97535714D01*
X188247619Y-97511904D01*
X188295238Y-97488095D01*
X188390476Y-97464285D01*
X188438095Y-97440476D01*
X188461904Y-97416666D01*
X188485714Y-97369047D01*
X188485714Y-97321428D01*
X188461904Y-97273809D01*
X188438095Y-97250000D01*
X188390476Y-97226190D01*
X188271428Y-97226190D01*
X188200000Y-97250000D01*
X187771428Y-97392857D02*
X187771428Y-97726190D01*
X187890476Y-97202380D02*
X188009523Y-97559523D01*
X187700000Y-97559523D01*
X187628571Y-97773809D02*
X187247619Y-97773809D01*
X187033333Y-97226190D02*
X186938095Y-97226190D01*
X186890476Y-97250000D01*
X186842857Y-97297619D01*
X186819047Y-97392857D01*
X186819047Y-97559523D01*
X186842857Y-97654761D01*
X186890476Y-97702380D01*
X186938095Y-97726190D01*
X187033333Y-97726190D01*
X187080952Y-97702380D01*
X187128571Y-97654761D01*
X187152380Y-97559523D01*
X187152380Y-97392857D01*
X187128571Y-97297619D01*
X187080952Y-97250000D01*
X187033333Y-97226190D01*
X186604761Y-97226190D02*
X186604761Y-97630952D01*
X186580952Y-97678571D01*
X186557142Y-97702380D01*
X186509523Y-97726190D01*
X186414285Y-97726190D01*
X186366666Y-97702380D01*
X186342857Y-97678571D01*
X186319047Y-97630952D01*
X186319047Y-97226190D01*
X186152380Y-97226190D02*
X185866666Y-97226190D01*
X186009523Y-97726190D02*
X186009523Y-97226190D01*
D12*
X164972380Y-138528571D02*
X165002857Y-138559047D01*
X165094285Y-138589523D01*
X165155238Y-138589523D01*
X165246666Y-138559047D01*
X165307619Y-138498095D01*
X165338095Y-138437142D01*
X165368571Y-138315238D01*
X165368571Y-138223809D01*
X165338095Y-138101904D01*
X165307619Y-138040952D01*
X165246666Y-137980000D01*
X165155238Y-137949523D01*
X165094285Y-137949523D01*
X165002857Y-137980000D01*
X164972380Y-138010476D01*
X164698095Y-138589523D02*
X164698095Y-137949523D01*
X164698095Y-138254285D02*
X164332380Y-138254285D01*
X164332380Y-138589523D02*
X164332380Y-137949523D01*
X163692380Y-138589523D02*
X164058095Y-138589523D01*
X163875238Y-138589523D02*
X163875238Y-137949523D01*
X163936190Y-138040952D01*
X163997142Y-138101904D01*
X164058095Y-138132380D01*
X163418095Y-138345714D02*
X162930476Y-138345714D01*
X162656190Y-138559047D02*
X162564761Y-138589523D01*
X162412380Y-138589523D01*
X162351428Y-138559047D01*
X162320952Y-138528571D01*
X162290476Y-138467619D01*
X162290476Y-138406666D01*
X162320952Y-138345714D01*
X162351428Y-138315238D01*
X162412380Y-138284761D01*
X162534285Y-138254285D01*
X162595238Y-138223809D01*
X162625714Y-138193333D01*
X162656190Y-138132380D01*
X162656190Y-138071428D01*
X162625714Y-138010476D01*
X162595238Y-137980000D01*
X162534285Y-137949523D01*
X162381904Y-137949523D01*
X162290476Y-137980000D01*
X162016190Y-138254285D02*
X161802857Y-138254285D01*
X161711428Y-138589523D02*
X162016190Y-138589523D01*
X162016190Y-137949523D01*
X161711428Y-137949523D01*
X161437142Y-138589523D02*
X161437142Y-137949523D01*
X161071428Y-138589523D01*
X161071428Y-137949523D01*
X160797142Y-138559047D02*
X160705714Y-138589523D01*
X160553333Y-138589523D01*
X160492380Y-138559047D01*
X160461904Y-138528571D01*
X160431428Y-138467619D01*
X160431428Y-138406666D01*
X160461904Y-138345714D01*
X160492380Y-138315238D01*
X160553333Y-138284761D01*
X160675238Y-138254285D01*
X160736190Y-138223809D01*
X160766666Y-138193333D01*
X160797142Y-138132380D01*
X160797142Y-138071428D01*
X160766666Y-138010476D01*
X160736190Y-137980000D01*
X160675238Y-137949523D01*
X160522857Y-137949523D01*
X160431428Y-137980000D01*
D10*
X167923809Y-120678571D02*
X167947619Y-120702380D01*
X168019047Y-120726190D01*
X168066666Y-120726190D01*
X168138095Y-120702380D01*
X168185714Y-120654761D01*
X168209523Y-120607142D01*
X168233333Y-120511904D01*
X168233333Y-120440476D01*
X168209523Y-120345238D01*
X168185714Y-120297619D01*
X168138095Y-120250000D01*
X168066666Y-120226190D01*
X168019047Y-120226190D01*
X167947619Y-120250000D01*
X167923809Y-120273809D01*
X167733333Y-120583333D02*
X167495238Y-120583333D01*
X167780952Y-120726190D02*
X167614285Y-120226190D01*
X167447619Y-120726190D01*
X167280952Y-120726190D02*
X167280952Y-120226190D01*
X166995238Y-120726190D01*
X166995238Y-120226190D01*
X166519047Y-120726190D02*
X166757142Y-120726190D01*
X166757142Y-120226190D01*
X162425819Y-119609371D02*
X162449628Y-119633180D01*
X162521057Y-119656990D01*
X162568676Y-119656990D01*
X162640104Y-119633180D01*
X162687723Y-119585561D01*
X162711533Y-119537942D01*
X162735342Y-119442704D01*
X162735342Y-119371276D01*
X162711533Y-119276038D01*
X162687723Y-119228419D01*
X162640104Y-119180800D01*
X162568676Y-119156990D01*
X162521057Y-119156990D01*
X162449628Y-119180800D01*
X162425819Y-119204609D01*
X161973438Y-119656990D02*
X162211533Y-119656990D01*
X162211533Y-119156990D01*
X161806771Y-119656990D02*
X161806771Y-119156990D01*
X161521057Y-119656990D02*
X161735342Y-119371276D01*
X161521057Y-119156990D02*
X161806771Y-119442704D01*
X176370238Y-120503571D02*
X176394047Y-120527380D01*
X176465476Y-120551190D01*
X176513095Y-120551190D01*
X176584523Y-120527380D01*
X176632142Y-120479761D01*
X176655952Y-120432142D01*
X176679761Y-120336904D01*
X176679761Y-120265476D01*
X176655952Y-120170238D01*
X176632142Y-120122619D01*
X176584523Y-120075000D01*
X176513095Y-120051190D01*
X176465476Y-120051190D01*
X176394047Y-120075000D01*
X176370238Y-120098809D01*
X176155952Y-120551190D02*
X176155952Y-120051190D01*
X176155952Y-120289285D02*
X175870238Y-120289285D01*
X175870238Y-120551190D02*
X175870238Y-120051190D01*
X175370238Y-120551190D02*
X175655952Y-120551190D01*
X175513095Y-120551190D02*
X175513095Y-120051190D01*
X175560714Y-120122619D01*
X175608333Y-120170238D01*
X175655952Y-120194047D01*
X175155952Y-120360714D02*
X174775000Y-120360714D01*
X174251190Y-120551190D02*
X174417857Y-120313095D01*
X174536904Y-120551190D02*
X174536904Y-120051190D01*
X174346428Y-120051190D01*
X174298809Y-120075000D01*
X174275000Y-120098809D01*
X174251190Y-120146428D01*
X174251190Y-120217857D01*
X174275000Y-120265476D01*
X174298809Y-120289285D01*
X174346428Y-120313095D01*
X174536904Y-120313095D01*
X174036904Y-120289285D02*
X173870238Y-120289285D01*
X173798809Y-120551190D02*
X174036904Y-120551190D01*
X174036904Y-120051190D01*
X173798809Y-120051190D01*
X173417857Y-120289285D02*
X173584523Y-120289285D01*
X173584523Y-120551190D02*
X173584523Y-120051190D01*
X173346428Y-120051190D01*
X164985714Y-135902380D02*
X164914285Y-135926190D01*
X164795238Y-135926190D01*
X164747619Y-135902380D01*
X164723809Y-135878571D01*
X164700000Y-135830952D01*
X164700000Y-135783333D01*
X164723809Y-135735714D01*
X164747619Y-135711904D01*
X164795238Y-135688095D01*
X164890476Y-135664285D01*
X164938095Y-135640476D01*
X164961904Y-135616666D01*
X164985714Y-135569047D01*
X164985714Y-135521428D01*
X164961904Y-135473809D01*
X164938095Y-135450000D01*
X164890476Y-135426190D01*
X164771428Y-135426190D01*
X164700000Y-135450000D01*
X164533333Y-135426190D02*
X164223809Y-135426190D01*
X164390476Y-135616666D01*
X164319047Y-135616666D01*
X164271428Y-135640476D01*
X164247619Y-135664285D01*
X164223809Y-135711904D01*
X164223809Y-135830952D01*
X164247619Y-135878571D01*
X164271428Y-135902380D01*
X164319047Y-135926190D01*
X164461904Y-135926190D01*
X164509523Y-135902380D01*
X164533333Y-135878571D01*
X164128571Y-135973809D02*
X163747619Y-135973809D01*
X163533333Y-135426190D02*
X163438095Y-135426190D01*
X163390476Y-135450000D01*
X163342857Y-135497619D01*
X163319047Y-135592857D01*
X163319047Y-135759523D01*
X163342857Y-135854761D01*
X163390476Y-135902380D01*
X163438095Y-135926190D01*
X163533333Y-135926190D01*
X163580952Y-135902380D01*
X163628571Y-135854761D01*
X163652380Y-135759523D01*
X163652380Y-135592857D01*
X163628571Y-135497619D01*
X163580952Y-135450000D01*
X163533333Y-135426190D01*
X163104761Y-135426190D02*
X163104761Y-135830952D01*
X163080952Y-135878571D01*
X163057142Y-135902380D01*
X163009523Y-135926190D01*
X162914285Y-135926190D01*
X162866666Y-135902380D01*
X162842857Y-135878571D01*
X162819047Y-135830952D01*
X162819047Y-135426190D01*
X162652380Y-135426190D02*
X162366666Y-135426190D01*
X162509523Y-135926190D02*
X162509523Y-135426190D01*
X162663914Y-117193190D02*
X162663914Y-116693190D01*
X162544866Y-116693190D01*
X162473438Y-116717000D01*
X162425819Y-116764619D01*
X162402009Y-116812238D01*
X162378200Y-116907476D01*
X162378200Y-116978904D01*
X162402009Y-117074142D01*
X162425819Y-117121761D01*
X162473438Y-117169380D01*
X162544866Y-117193190D01*
X162663914Y-117193190D01*
X162187723Y-117050333D02*
X161949628Y-117050333D01*
X162235342Y-117193190D02*
X162068676Y-116693190D01*
X161902009Y-117193190D01*
X161806771Y-116693190D02*
X161521057Y-116693190D01*
X161663914Y-117193190D02*
X161663914Y-116693190D01*
X170469047Y-111328571D02*
X170492857Y-111352380D01*
X170564285Y-111376190D01*
X170611904Y-111376190D01*
X170683333Y-111352380D01*
X170730952Y-111304761D01*
X170754761Y-111257142D01*
X170778571Y-111161904D01*
X170778571Y-111090476D01*
X170754761Y-110995238D01*
X170730952Y-110947619D01*
X170683333Y-110900000D01*
X170611904Y-110876190D01*
X170564285Y-110876190D01*
X170492857Y-110900000D01*
X170469047Y-110923809D01*
X170254761Y-111376190D02*
X170254761Y-110876190D01*
X170254761Y-111114285D02*
X169969047Y-111114285D01*
X169969047Y-111376190D02*
X169969047Y-110876190D01*
X169754761Y-110923809D02*
X169730952Y-110900000D01*
X169683333Y-110876190D01*
X169564285Y-110876190D01*
X169516666Y-110900000D01*
X169492857Y-110923809D01*
X169469047Y-110971428D01*
X169469047Y-111019047D01*
X169492857Y-111090476D01*
X169778571Y-111376190D01*
X169469047Y-111376190D01*
X169254761Y-111185714D02*
X168873809Y-111185714D01*
X168659523Y-111352380D02*
X168588095Y-111376190D01*
X168469047Y-111376190D01*
X168421428Y-111352380D01*
X168397619Y-111328571D01*
X168373809Y-111280952D01*
X168373809Y-111233333D01*
X168397619Y-111185714D01*
X168421428Y-111161904D01*
X168469047Y-111138095D01*
X168564285Y-111114285D01*
X168611904Y-111090476D01*
X168635714Y-111066666D01*
X168659523Y-111019047D01*
X168659523Y-110971428D01*
X168635714Y-110923809D01*
X168611904Y-110900000D01*
X168564285Y-110876190D01*
X168445238Y-110876190D01*
X168373809Y-110900000D01*
X168159523Y-111114285D02*
X167992857Y-111114285D01*
X167921428Y-111376190D02*
X168159523Y-111376190D01*
X168159523Y-110876190D01*
X167921428Y-110876190D01*
X167707142Y-111376190D02*
X167707142Y-110876190D01*
X167421428Y-111376190D01*
X167421428Y-110876190D01*
X167207142Y-111352380D02*
X167135714Y-111376190D01*
X167016666Y-111376190D01*
X166969047Y-111352380D01*
X166945238Y-111328571D01*
X166921428Y-111280952D01*
X166921428Y-111233333D01*
X166945238Y-111185714D01*
X166969047Y-111161904D01*
X167016666Y-111138095D01*
X167111904Y-111114285D01*
X167159523Y-111090476D01*
X167183333Y-111066666D01*
X167207142Y-111019047D01*
X167207142Y-110971428D01*
X167183333Y-110923809D01*
X167159523Y-110900000D01*
X167111904Y-110876190D01*
X166992857Y-110876190D01*
X166921428Y-110900000D01*
X173285714Y-124802380D02*
X173214285Y-124826190D01*
X173095238Y-124826190D01*
X173047619Y-124802380D01*
X173023809Y-124778571D01*
X173000000Y-124730952D01*
X173000000Y-124683333D01*
X173023809Y-124635714D01*
X173047619Y-124611904D01*
X173095238Y-124588095D01*
X173190476Y-124564285D01*
X173238095Y-124540476D01*
X173261904Y-124516666D01*
X173285714Y-124469047D01*
X173285714Y-124421428D01*
X173261904Y-124373809D01*
X173238095Y-124350000D01*
X173190476Y-124326190D01*
X173071428Y-124326190D01*
X173000000Y-124350000D01*
X172523809Y-124826190D02*
X172809523Y-124826190D01*
X172666666Y-124826190D02*
X172666666Y-124326190D01*
X172714285Y-124397619D01*
X172761904Y-124445238D01*
X172809523Y-124469047D01*
X172428571Y-124873809D02*
X172047619Y-124873809D01*
X171833333Y-124326190D02*
X171738095Y-124326190D01*
X171690476Y-124350000D01*
X171642857Y-124397619D01*
X171619047Y-124492857D01*
X171619047Y-124659523D01*
X171642857Y-124754761D01*
X171690476Y-124802380D01*
X171738095Y-124826190D01*
X171833333Y-124826190D01*
X171880952Y-124802380D01*
X171928571Y-124754761D01*
X171952380Y-124659523D01*
X171952380Y-124492857D01*
X171928571Y-124397619D01*
X171880952Y-124350000D01*
X171833333Y-124326190D01*
X171404761Y-124326190D02*
X171404761Y-124730952D01*
X171380952Y-124778571D01*
X171357142Y-124802380D01*
X171309523Y-124826190D01*
X171214285Y-124826190D01*
X171166666Y-124802380D01*
X171142857Y-124778571D01*
X171119047Y-124730952D01*
X171119047Y-124326190D01*
X170952380Y-124326190D02*
X170666666Y-124326190D01*
X170809523Y-124826190D02*
X170809523Y-124326190D01*
X182233333Y-139501190D02*
X182400000Y-139263095D01*
X182519047Y-139501190D02*
X182519047Y-139001190D01*
X182328571Y-139001190D01*
X182280952Y-139025000D01*
X182257142Y-139048809D01*
X182233333Y-139096428D01*
X182233333Y-139167857D01*
X182257142Y-139215476D01*
X182280952Y-139239285D01*
X182328571Y-139263095D01*
X182519047Y-139263095D01*
X182066666Y-139001190D02*
X181733333Y-139501190D01*
X181733333Y-139001190D02*
X182066666Y-139501190D01*
D12*
X162432400Y-110829285D02*
X162682400Y-110472142D01*
X162860971Y-110829285D02*
X162860971Y-110079285D01*
X162575257Y-110079285D01*
X162503828Y-110115000D01*
X162468114Y-110150714D01*
X162432400Y-110222142D01*
X162432400Y-110329285D01*
X162468114Y-110400714D01*
X162503828Y-110436428D01*
X162575257Y-110472142D01*
X162860971Y-110472142D01*
X162182400Y-110079285D02*
X161718114Y-110079285D01*
X161968114Y-110365000D01*
X161860971Y-110365000D01*
X161789542Y-110400714D01*
X161753828Y-110436428D01*
X161718114Y-110507857D01*
X161718114Y-110686428D01*
X161753828Y-110757857D01*
X161789542Y-110793571D01*
X161860971Y-110829285D01*
X162075257Y-110829285D01*
X162146685Y-110793571D01*
X162182400Y-110757857D01*
X168554701Y-113374671D02*
X168188986Y-113374671D01*
X168371843Y-114014671D02*
X168371843Y-113374671D01*
X167975653Y-114014671D02*
X167975653Y-113374671D01*
X167731843Y-113374671D01*
X167670891Y-113405148D01*
X167640415Y-113435624D01*
X167609939Y-113496576D01*
X167609939Y-113588005D01*
X167640415Y-113648957D01*
X167670891Y-113679433D01*
X167731843Y-113709909D01*
X167975653Y-113709909D01*
X167030891Y-113374671D02*
X167335653Y-113374671D01*
X167366129Y-113679433D01*
X167335653Y-113648957D01*
X167274701Y-113618481D01*
X167122320Y-113618481D01*
X167061367Y-113648957D01*
X167030891Y-113679433D01*
X167000415Y-113740386D01*
X167000415Y-113892767D01*
X167030891Y-113953719D01*
X167061367Y-113984195D01*
X167122320Y-114014671D01*
X167274701Y-114014671D01*
X167335653Y-113984195D01*
X167366129Y-113953719D01*
X165482619Y-113454523D02*
X165116904Y-113454523D01*
X165299761Y-114094523D02*
X165299761Y-113454523D01*
X164903571Y-114094523D02*
X164903571Y-113454523D01*
X164659761Y-113454523D01*
X164598809Y-113485000D01*
X164568333Y-113515476D01*
X164537857Y-113576428D01*
X164537857Y-113667857D01*
X164568333Y-113728809D01*
X164598809Y-113759285D01*
X164659761Y-113789761D01*
X164903571Y-113789761D01*
X163989285Y-113454523D02*
X164111190Y-113454523D01*
X164172142Y-113485000D01*
X164202619Y-113515476D01*
X164263571Y-113606904D01*
X164294047Y-113728809D01*
X164294047Y-113972619D01*
X164263571Y-114033571D01*
X164233095Y-114064047D01*
X164172142Y-114094523D01*
X164050238Y-114094523D01*
X163989285Y-114064047D01*
X163958809Y-114033571D01*
X163928333Y-113972619D01*
X163928333Y-113820238D01*
X163958809Y-113759285D01*
X163989285Y-113728809D01*
X164050238Y-113698333D01*
X164172142Y-113698333D01*
X164233095Y-113728809D01*
X164263571Y-113759285D01*
X164294047Y-113820238D01*
X168149587Y-119302316D02*
X167783872Y-119302316D01*
X167966729Y-119942316D02*
X167966729Y-119302316D01*
X167570539Y-119942316D02*
X167570539Y-119302316D01*
X167326729Y-119302316D01*
X167265777Y-119332793D01*
X167235301Y-119363269D01*
X167204825Y-119424221D01*
X167204825Y-119515650D01*
X167235301Y-119576602D01*
X167265777Y-119607078D01*
X167326729Y-119637554D01*
X167570539Y-119637554D01*
X166991491Y-119302316D02*
X166595301Y-119302316D01*
X166808634Y-119546126D01*
X166717206Y-119546126D01*
X166656253Y-119576602D01*
X166625777Y-119607078D01*
X166595301Y-119668031D01*
X166595301Y-119820412D01*
X166625777Y-119881364D01*
X166656253Y-119911840D01*
X166717206Y-119942316D01*
X166900063Y-119942316D01*
X166961015Y-119911840D01*
X166991491Y-119881364D01*
X185225000Y-121003651D02*
X185260714Y-121039365D01*
X185367857Y-121075079D01*
X185439285Y-121075079D01*
X185546428Y-121039365D01*
X185617857Y-120967936D01*
X185653571Y-120896508D01*
X185689285Y-120753651D01*
X185689285Y-120646508D01*
X185653571Y-120503651D01*
X185617857Y-120432222D01*
X185546428Y-120360794D01*
X185439285Y-120325079D01*
X185367857Y-120325079D01*
X185260714Y-120360794D01*
X185225000Y-120396508D01*
X184867857Y-121075079D02*
X184725000Y-121075079D01*
X184653571Y-121039365D01*
X184617857Y-121003651D01*
X184546428Y-120896508D01*
X184510714Y-120753651D01*
X184510714Y-120467936D01*
X184546428Y-120396508D01*
X184582142Y-120360794D01*
X184653571Y-120325079D01*
X184796428Y-120325079D01*
X184867857Y-120360794D01*
X184903571Y-120396508D01*
X184939285Y-120467936D01*
X184939285Y-120646508D01*
X184903571Y-120717936D01*
X184867857Y-120753651D01*
X184796428Y-120789365D01*
X184653571Y-120789365D01*
X184582142Y-120753651D01*
X184546428Y-120717936D01*
X184510714Y-120646508D01*
X165407619Y-136849523D02*
X165041904Y-136849523D01*
X165224761Y-137489523D02*
X165224761Y-136849523D01*
X164828571Y-137489523D02*
X164828571Y-136849523D01*
X164584761Y-136849523D01*
X164523809Y-136880000D01*
X164493333Y-136910476D01*
X164462857Y-136971428D01*
X164462857Y-137062857D01*
X164493333Y-137123809D01*
X164523809Y-137154285D01*
X164584761Y-137184761D01*
X164828571Y-137184761D01*
X164158095Y-137489523D02*
X164036190Y-137489523D01*
X163975238Y-137459047D01*
X163944761Y-137428571D01*
X163883809Y-137337142D01*
X163853333Y-137215238D01*
X163853333Y-136971428D01*
X163883809Y-136910476D01*
X163914285Y-136880000D01*
X163975238Y-136849523D01*
X164097142Y-136849523D01*
X164158095Y-136880000D01*
X164188571Y-136910476D01*
X164219047Y-136971428D01*
X164219047Y-137123809D01*
X164188571Y-137184761D01*
X164158095Y-137215238D01*
X164097142Y-137245714D01*
X163975238Y-137245714D01*
X163914285Y-137215238D01*
X163883809Y-137184761D01*
X163853333Y-137123809D01*
X186082619Y-138099523D02*
X185716904Y-138099523D01*
X185899761Y-138739523D02*
X185899761Y-138099523D01*
X185503571Y-138739523D02*
X185503571Y-138099523D01*
X185259761Y-138099523D01*
X185198809Y-138130000D01*
X185168333Y-138160476D01*
X185137857Y-138221428D01*
X185137857Y-138312857D01*
X185168333Y-138373809D01*
X185198809Y-138404285D01*
X185259761Y-138434761D01*
X185503571Y-138434761D01*
X184894047Y-138160476D02*
X184863571Y-138130000D01*
X184802619Y-138099523D01*
X184650238Y-138099523D01*
X184589285Y-138130000D01*
X184558809Y-138160476D01*
X184528333Y-138221428D01*
X184528333Y-138282380D01*
X184558809Y-138373809D01*
X184924523Y-138739523D01*
X184528333Y-138739523D01*
X157762380Y-94549523D02*
X157396666Y-94549523D01*
X157579523Y-95189523D02*
X157579523Y-94549523D01*
X157183333Y-95189523D02*
X157183333Y-94549523D01*
X156939523Y-94549523D01*
X156878571Y-94580000D01*
X156848095Y-94610476D01*
X156817619Y-94671428D01*
X156817619Y-94762857D01*
X156848095Y-94823809D01*
X156878571Y-94854285D01*
X156939523Y-94884761D01*
X157183333Y-94884761D01*
X156208095Y-95189523D02*
X156573809Y-95189523D01*
X156390952Y-95189523D02*
X156390952Y-94549523D01*
X156451904Y-94640952D01*
X156512857Y-94701904D01*
X156573809Y-94732380D01*
X155842380Y-94823809D02*
X155903333Y-94793333D01*
X155933809Y-94762857D01*
X155964285Y-94701904D01*
X155964285Y-94671428D01*
X155933809Y-94610476D01*
X155903333Y-94580000D01*
X155842380Y-94549523D01*
X155720476Y-94549523D01*
X155659523Y-94580000D01*
X155629047Y-94610476D01*
X155598571Y-94671428D01*
X155598571Y-94701904D01*
X155629047Y-94762857D01*
X155659523Y-94793333D01*
X155720476Y-94823809D01*
X155842380Y-94823809D01*
X155903333Y-94854285D01*
X155933809Y-94884761D01*
X155964285Y-94945714D01*
X155964285Y-95067619D01*
X155933809Y-95128571D01*
X155903333Y-95159047D01*
X155842380Y-95189523D01*
X155720476Y-95189523D01*
X155659523Y-95159047D01*
X155629047Y-95128571D01*
X155598571Y-95067619D01*
X155598571Y-94945714D01*
X155629047Y-94884761D01*
X155659523Y-94854285D01*
X155720476Y-94823809D01*
X176128000Y-132181285D02*
X176378000Y-131824142D01*
X176556571Y-132181285D02*
X176556571Y-131431285D01*
X176270857Y-131431285D01*
X176199428Y-131467000D01*
X176163714Y-131502714D01*
X176128000Y-131574142D01*
X176128000Y-131681285D01*
X176163714Y-131752714D01*
X176199428Y-131788428D01*
X176270857Y-131824142D01*
X176556571Y-131824142D01*
X175770857Y-132181285D02*
X175628000Y-132181285D01*
X175556571Y-132145571D01*
X175520857Y-132109857D01*
X175449428Y-132002714D01*
X175413714Y-131859857D01*
X175413714Y-131574142D01*
X175449428Y-131502714D01*
X175485142Y-131467000D01*
X175556571Y-131431285D01*
X175699428Y-131431285D01*
X175770857Y-131467000D01*
X175806571Y-131502714D01*
X175842285Y-131574142D01*
X175842285Y-131752714D01*
X175806571Y-131824142D01*
X175770857Y-131859857D01*
X175699428Y-131895571D01*
X175556571Y-131895571D01*
X175485142Y-131859857D01*
X175449428Y-131824142D01*
X175413714Y-131752714D01*
X163525000Y-127367857D02*
X163560714Y-127403571D01*
X163667857Y-127439285D01*
X163739285Y-127439285D01*
X163846428Y-127403571D01*
X163917857Y-127332142D01*
X163953571Y-127260714D01*
X163989285Y-127117857D01*
X163989285Y-127010714D01*
X163953571Y-126867857D01*
X163917857Y-126796428D01*
X163846428Y-126725000D01*
X163739285Y-126689285D01*
X163667857Y-126689285D01*
X163560714Y-126725000D01*
X163525000Y-126760714D01*
X163239285Y-126760714D02*
X163203571Y-126725000D01*
X163132142Y-126689285D01*
X162953571Y-126689285D01*
X162882142Y-126725000D01*
X162846428Y-126760714D01*
X162810714Y-126832142D01*
X162810714Y-126903571D01*
X162846428Y-127010714D01*
X163275000Y-127439285D01*
X162810714Y-127439285D01*
X161362380Y-140724523D02*
X160996666Y-140724523D01*
X161179523Y-141364523D02*
X161179523Y-140724523D01*
X160783333Y-141364523D02*
X160783333Y-140724523D01*
X160539523Y-140724523D01*
X160478571Y-140755000D01*
X160448095Y-140785476D01*
X160417619Y-140846428D01*
X160417619Y-140937857D01*
X160448095Y-140998809D01*
X160478571Y-141029285D01*
X160539523Y-141059761D01*
X160783333Y-141059761D01*
X159808095Y-141364523D02*
X160173809Y-141364523D01*
X159990952Y-141364523D02*
X159990952Y-140724523D01*
X160051904Y-140815952D01*
X160112857Y-140876904D01*
X160173809Y-140907380D01*
X159594761Y-140724523D02*
X159198571Y-140724523D01*
X159411904Y-140968333D01*
X159320476Y-140968333D01*
X159259523Y-140998809D01*
X159229047Y-141029285D01*
X159198571Y-141090238D01*
X159198571Y-141242619D01*
X159229047Y-141303571D01*
X159259523Y-141334047D01*
X159320476Y-141364523D01*
X159503333Y-141364523D01*
X159564285Y-141334047D01*
X159594761Y-141303571D01*
X177732142Y-115789285D02*
X177982142Y-115432142D01*
X178160714Y-115789285D02*
X178160714Y-115039285D01*
X177875000Y-115039285D01*
X177803571Y-115075000D01*
X177767857Y-115110714D01*
X177732142Y-115182142D01*
X177732142Y-115289285D01*
X177767857Y-115360714D01*
X177803571Y-115396428D01*
X177875000Y-115432142D01*
X178160714Y-115432142D01*
X177017857Y-115789285D02*
X177446428Y-115789285D01*
X177232142Y-115789285D02*
X177232142Y-115039285D01*
X177303571Y-115146428D01*
X177375000Y-115217857D01*
X177446428Y-115253571D01*
X176375000Y-115289285D02*
X176375000Y-115789285D01*
X176553571Y-115003571D02*
X176732142Y-115539285D01*
X176267857Y-115539285D01*
X181307142Y-109164285D02*
X181557142Y-108807142D01*
X181735714Y-109164285D02*
X181735714Y-108414285D01*
X181450000Y-108414285D01*
X181378571Y-108450000D01*
X181342857Y-108485714D01*
X181307142Y-108557142D01*
X181307142Y-108664285D01*
X181342857Y-108735714D01*
X181378571Y-108771428D01*
X181450000Y-108807142D01*
X181735714Y-108807142D01*
X181021428Y-108485714D02*
X180985714Y-108450000D01*
X180914285Y-108414285D01*
X180735714Y-108414285D01*
X180664285Y-108450000D01*
X180628571Y-108485714D01*
X180592857Y-108557142D01*
X180592857Y-108628571D01*
X180628571Y-108735714D01*
X181057142Y-109164285D01*
X180592857Y-109164285D01*
X179950000Y-108414285D02*
X180092857Y-108414285D01*
X180164285Y-108450000D01*
X180200000Y-108485714D01*
X180271428Y-108592857D01*
X180307142Y-108735714D01*
X180307142Y-109021428D01*
X180271428Y-109092857D01*
X180235714Y-109128571D01*
X180164285Y-109164285D01*
X180021428Y-109164285D01*
X179950000Y-109128571D01*
X179914285Y-109092857D01*
X179878571Y-109021428D01*
X179878571Y-108842857D01*
X179914285Y-108771428D01*
X179950000Y-108735714D01*
X180021428Y-108700000D01*
X180164285Y-108700000D01*
X180235714Y-108735714D01*
X180271428Y-108771428D01*
X180307142Y-108842857D01*
X184282142Y-116689285D02*
X184532142Y-116332142D01*
X184710714Y-116689285D02*
X184710714Y-115939285D01*
X184425000Y-115939285D01*
X184353571Y-115975000D01*
X184317857Y-116010714D01*
X184282142Y-116082142D01*
X184282142Y-116189285D01*
X184317857Y-116260714D01*
X184353571Y-116296428D01*
X184425000Y-116332142D01*
X184710714Y-116332142D01*
X183567857Y-116689285D02*
X183996428Y-116689285D01*
X183782142Y-116689285D02*
X183782142Y-115939285D01*
X183853571Y-116046428D01*
X183925000Y-116117857D01*
X183996428Y-116153571D01*
X183139285Y-116260714D02*
X183210714Y-116225000D01*
X183246428Y-116189285D01*
X183282142Y-116117857D01*
X183282142Y-116082142D01*
X183246428Y-116010714D01*
X183210714Y-115975000D01*
X183139285Y-115939285D01*
X182996428Y-115939285D01*
X182925000Y-115975000D01*
X182889285Y-116010714D01*
X182853571Y-116082142D01*
X182853571Y-116117857D01*
X182889285Y-116189285D01*
X182925000Y-116225000D01*
X182996428Y-116260714D01*
X183139285Y-116260714D01*
X183210714Y-116296428D01*
X183246428Y-116332142D01*
X183282142Y-116403571D01*
X183282142Y-116546428D01*
X183246428Y-116617857D01*
X183210714Y-116653571D01*
X183139285Y-116689285D01*
X182996428Y-116689285D01*
X182925000Y-116653571D01*
X182889285Y-116617857D01*
X182853571Y-116546428D01*
X182853571Y-116403571D01*
X182889285Y-116332142D01*
X182925000Y-116296428D01*
X182996428Y-116260714D01*
X158673858Y-133034439D02*
X158673858Y-133641582D01*
X158638144Y-133713011D01*
X158602430Y-133748725D01*
X158531001Y-133784439D01*
X158388144Y-133784439D01*
X158316715Y-133748725D01*
X158281001Y-133713011D01*
X158245287Y-133641582D01*
X158245287Y-133034439D01*
X157923858Y-133105868D02*
X157888144Y-133070154D01*
X157816715Y-133034439D01*
X157638144Y-133034439D01*
X157566715Y-133070154D01*
X157531001Y-133105868D01*
X157495287Y-133177296D01*
X157495287Y-133248725D01*
X157531001Y-133355868D01*
X157959572Y-133784439D01*
X157495287Y-133784439D01*
X174482942Y-101325285D02*
X174732942Y-100968142D01*
X174911514Y-101325285D02*
X174911514Y-100575285D01*
X174625800Y-100575285D01*
X174554371Y-100611000D01*
X174518657Y-100646714D01*
X174482942Y-100718142D01*
X174482942Y-100825285D01*
X174518657Y-100896714D01*
X174554371Y-100932428D01*
X174625800Y-100968142D01*
X174911514Y-100968142D01*
X174197228Y-100646714D02*
X174161514Y-100611000D01*
X174090085Y-100575285D01*
X173911514Y-100575285D01*
X173840085Y-100611000D01*
X173804371Y-100646714D01*
X173768657Y-100718142D01*
X173768657Y-100789571D01*
X173804371Y-100896714D01*
X174232942Y-101325285D01*
X173768657Y-101325285D01*
X173518657Y-100575285D02*
X173054371Y-100575285D01*
X173304371Y-100861000D01*
X173197228Y-100861000D01*
X173125800Y-100896714D01*
X173090085Y-100932428D01*
X173054371Y-101003857D01*
X173054371Y-101182428D01*
X173090085Y-101253857D01*
X173125800Y-101289571D01*
X173197228Y-101325285D01*
X173411514Y-101325285D01*
X173482942Y-101289571D01*
X173518657Y-101253857D01*
X187432142Y-113589285D02*
X187682142Y-113232142D01*
X187860714Y-113589285D02*
X187860714Y-112839285D01*
X187575000Y-112839285D01*
X187503571Y-112875000D01*
X187467857Y-112910714D01*
X187432142Y-112982142D01*
X187432142Y-113089285D01*
X187467857Y-113160714D01*
X187503571Y-113196428D01*
X187575000Y-113232142D01*
X187860714Y-113232142D01*
X186717857Y-113589285D02*
X187146428Y-113589285D01*
X186932142Y-113589285D02*
X186932142Y-112839285D01*
X187003571Y-112946428D01*
X187075000Y-113017857D01*
X187146428Y-113053571D01*
X186039285Y-112839285D02*
X186396428Y-112839285D01*
X186432142Y-113196428D01*
X186396428Y-113160714D01*
X186325000Y-113125000D01*
X186146428Y-113125000D01*
X186075000Y-113160714D01*
X186039285Y-113196428D01*
X186003571Y-113267857D01*
X186003571Y-113446428D01*
X186039285Y-113517857D01*
X186075000Y-113553571D01*
X186146428Y-113589285D01*
X186325000Y-113589285D01*
X186396428Y-113553571D01*
X186432142Y-113517857D01*
X192252142Y-105883685D02*
X192502142Y-105526542D01*
X192680714Y-105883685D02*
X192680714Y-105133685D01*
X192395000Y-105133685D01*
X192323571Y-105169400D01*
X192287857Y-105205114D01*
X192252142Y-105276542D01*
X192252142Y-105383685D01*
X192287857Y-105455114D01*
X192323571Y-105490828D01*
X192395000Y-105526542D01*
X192680714Y-105526542D01*
X191537857Y-105883685D02*
X191966428Y-105883685D01*
X191752142Y-105883685D02*
X191752142Y-105133685D01*
X191823571Y-105240828D01*
X191895000Y-105312257D01*
X191966428Y-105347971D01*
X191287857Y-105133685D02*
X190787857Y-105133685D01*
X191109285Y-105883685D01*
X173900000Y-127664285D02*
X174150000Y-127307142D01*
X174328571Y-127664285D02*
X174328571Y-126914285D01*
X174042857Y-126914285D01*
X173971428Y-126950000D01*
X173935714Y-126985714D01*
X173900000Y-127057142D01*
X173900000Y-127164285D01*
X173935714Y-127235714D01*
X173971428Y-127271428D01*
X174042857Y-127307142D01*
X174328571Y-127307142D01*
X173471428Y-127235714D02*
X173542857Y-127200000D01*
X173578571Y-127164285D01*
X173614285Y-127092857D01*
X173614285Y-127057142D01*
X173578571Y-126985714D01*
X173542857Y-126950000D01*
X173471428Y-126914285D01*
X173328571Y-126914285D01*
X173257142Y-126950000D01*
X173221428Y-126985714D01*
X173185714Y-127057142D01*
X173185714Y-127092857D01*
X173221428Y-127164285D01*
X173257142Y-127200000D01*
X173328571Y-127235714D01*
X173471428Y-127235714D01*
X173542857Y-127271428D01*
X173578571Y-127307142D01*
X173614285Y-127378571D01*
X173614285Y-127521428D01*
X173578571Y-127592857D01*
X173542857Y-127628571D01*
X173471428Y-127664285D01*
X173328571Y-127664285D01*
X173257142Y-127628571D01*
X173221428Y-127592857D01*
X173185714Y-127521428D01*
X173185714Y-127378571D01*
X173221428Y-127307142D01*
X173257142Y-127271428D01*
X173328571Y-127235714D01*
X182882619Y-138099523D02*
X182516904Y-138099523D01*
X182699761Y-138739523D02*
X182699761Y-138099523D01*
X182303571Y-138739523D02*
X182303571Y-138099523D01*
X182059761Y-138099523D01*
X181998809Y-138130000D01*
X181968333Y-138160476D01*
X181937857Y-138221428D01*
X181937857Y-138312857D01*
X181968333Y-138373809D01*
X181998809Y-138404285D01*
X182059761Y-138434761D01*
X182303571Y-138434761D01*
X181328333Y-138739523D02*
X181694047Y-138739523D01*
X181511190Y-138739523D02*
X181511190Y-138099523D01*
X181572142Y-138190952D01*
X181633095Y-138251904D01*
X181694047Y-138282380D01*
X188657142Y-127685285D02*
X188907142Y-127328142D01*
X189085714Y-127685285D02*
X189085714Y-126935285D01*
X188800000Y-126935285D01*
X188728571Y-126971000D01*
X188692857Y-127006714D01*
X188657142Y-127078142D01*
X188657142Y-127185285D01*
X188692857Y-127256714D01*
X188728571Y-127292428D01*
X188800000Y-127328142D01*
X189085714Y-127328142D01*
X188371428Y-127006714D02*
X188335714Y-126971000D01*
X188264285Y-126935285D01*
X188085714Y-126935285D01*
X188014285Y-126971000D01*
X187978571Y-127006714D01*
X187942857Y-127078142D01*
X187942857Y-127149571D01*
X187978571Y-127256714D01*
X188407142Y-127685285D01*
X187942857Y-127685285D01*
X187478571Y-126935285D02*
X187407142Y-126935285D01*
X187335714Y-126971000D01*
X187300000Y-127006714D01*
X187264285Y-127078142D01*
X187228571Y-127221000D01*
X187228571Y-127399571D01*
X187264285Y-127542428D01*
X187300000Y-127613857D01*
X187335714Y-127649571D01*
X187407142Y-127685285D01*
X187478571Y-127685285D01*
X187550000Y-127649571D01*
X187585714Y-127613857D01*
X187621428Y-127542428D01*
X187657142Y-127399571D01*
X187657142Y-127221000D01*
X187621428Y-127078142D01*
X187585714Y-127006714D01*
X187550000Y-126971000D01*
X187478571Y-126935285D01*
X163520019Y-122915723D02*
X163154304Y-122915723D01*
X163337161Y-123555723D02*
X163337161Y-122915723D01*
X162940971Y-123555723D02*
X162940971Y-122915723D01*
X162697161Y-122915723D01*
X162636209Y-122946200D01*
X162605733Y-122976676D01*
X162575257Y-123037628D01*
X162575257Y-123129057D01*
X162605733Y-123190009D01*
X162636209Y-123220485D01*
X162697161Y-123250961D01*
X162940971Y-123250961D01*
X162026685Y-123129057D02*
X162026685Y-123555723D01*
X162179066Y-122885247D02*
X162331447Y-123342390D01*
X161935257Y-123342390D01*
X176062380Y-107524523D02*
X175696666Y-107524523D01*
X175879523Y-108164523D02*
X175879523Y-107524523D01*
X175483333Y-108164523D02*
X175483333Y-107524523D01*
X175239523Y-107524523D01*
X175178571Y-107555000D01*
X175148095Y-107585476D01*
X175117619Y-107646428D01*
X175117619Y-107737857D01*
X175148095Y-107798809D01*
X175178571Y-107829285D01*
X175239523Y-107859761D01*
X175483333Y-107859761D01*
X174508095Y-108164523D02*
X174873809Y-108164523D01*
X174690952Y-108164523D02*
X174690952Y-107524523D01*
X174751904Y-107615952D01*
X174812857Y-107676904D01*
X174873809Y-107707380D01*
X173898571Y-108164523D02*
X174264285Y-108164523D01*
X174081428Y-108164523D02*
X174081428Y-107524523D01*
X174142380Y-107615952D01*
X174203333Y-107676904D01*
X174264285Y-107707380D01*
X179782142Y-111439285D02*
X180032142Y-111082142D01*
X180210714Y-111439285D02*
X180210714Y-110689285D01*
X179925000Y-110689285D01*
X179853571Y-110725000D01*
X179817857Y-110760714D01*
X179782142Y-110832142D01*
X179782142Y-110939285D01*
X179817857Y-111010714D01*
X179853571Y-111046428D01*
X179925000Y-111082142D01*
X180210714Y-111082142D01*
X179067857Y-111439285D02*
X179496428Y-111439285D01*
X179282142Y-111439285D02*
X179282142Y-110689285D01*
X179353571Y-110796428D01*
X179425000Y-110867857D01*
X179496428Y-110903571D01*
X178782142Y-110760714D02*
X178746428Y-110725000D01*
X178675000Y-110689285D01*
X178496428Y-110689285D01*
X178425000Y-110725000D01*
X178389285Y-110760714D01*
X178353571Y-110832142D01*
X178353571Y-110903571D01*
X178389285Y-111010714D01*
X178817857Y-111439285D01*
X178353571Y-111439285D01*
X158087200Y-101356485D02*
X158337200Y-100999342D01*
X158515771Y-101356485D02*
X158515771Y-100606485D01*
X158230057Y-100606485D01*
X158158628Y-100642200D01*
X158122914Y-100677914D01*
X158087200Y-100749342D01*
X158087200Y-100856485D01*
X158122914Y-100927914D01*
X158158628Y-100963628D01*
X158230057Y-100999342D01*
X158515771Y-100999342D01*
X157444342Y-100606485D02*
X157587200Y-100606485D01*
X157658628Y-100642200D01*
X157694342Y-100677914D01*
X157765771Y-100785057D01*
X157801485Y-100927914D01*
X157801485Y-101213628D01*
X157765771Y-101285057D01*
X157730057Y-101320771D01*
X157658628Y-101356485D01*
X157515771Y-101356485D01*
X157444342Y-101320771D01*
X157408628Y-101285057D01*
X157372914Y-101213628D01*
X157372914Y-101035057D01*
X157408628Y-100963628D01*
X157444342Y-100927914D01*
X157515771Y-100892200D01*
X157658628Y-100892200D01*
X157730057Y-100927914D01*
X157765771Y-100963628D01*
X157801485Y-101035057D01*
X158712380Y-134824523D02*
X158346666Y-134824523D01*
X158529523Y-135464523D02*
X158529523Y-134824523D01*
X158133333Y-135464523D02*
X158133333Y-134824523D01*
X157889523Y-134824523D01*
X157828571Y-134855000D01*
X157798095Y-134885476D01*
X157767619Y-134946428D01*
X157767619Y-135037857D01*
X157798095Y-135098809D01*
X157828571Y-135129285D01*
X157889523Y-135159761D01*
X158133333Y-135159761D01*
X157158095Y-135464523D02*
X157523809Y-135464523D01*
X157340952Y-135464523D02*
X157340952Y-134824523D01*
X157401904Y-134915952D01*
X157462857Y-134976904D01*
X157523809Y-135007380D01*
X156944761Y-134824523D02*
X156518095Y-134824523D01*
X156792380Y-135464523D01*
X154962380Y-97199523D02*
X154596666Y-97199523D01*
X154779523Y-97839523D02*
X154779523Y-97199523D01*
X154383333Y-97839523D02*
X154383333Y-97199523D01*
X154139523Y-97199523D01*
X154078571Y-97230000D01*
X154048095Y-97260476D01*
X154017619Y-97321428D01*
X154017619Y-97412857D01*
X154048095Y-97473809D01*
X154078571Y-97504285D01*
X154139523Y-97534761D01*
X154383333Y-97534761D01*
X153408095Y-97839523D02*
X153773809Y-97839523D01*
X153590952Y-97839523D02*
X153590952Y-97199523D01*
X153651904Y-97290952D01*
X153712857Y-97351904D01*
X153773809Y-97382380D01*
X152859523Y-97412857D02*
X152859523Y-97839523D01*
X153011904Y-97169047D02*
X153164285Y-97626190D01*
X152768095Y-97626190D01*
X180668700Y-131486663D02*
X180918700Y-131129520D01*
X181097272Y-131486663D02*
X181097272Y-130736663D01*
X180811558Y-130736663D01*
X180740129Y-130772378D01*
X180704415Y-130808092D01*
X180668700Y-130879520D01*
X180668700Y-130986663D01*
X180704415Y-131058092D01*
X180740129Y-131093806D01*
X180811558Y-131129520D01*
X181097272Y-131129520D01*
X180418700Y-130736663D02*
X179954415Y-130736663D01*
X180204415Y-131022378D01*
X180097272Y-131022378D01*
X180025843Y-131058092D01*
X179990129Y-131093806D01*
X179954415Y-131165235D01*
X179954415Y-131343806D01*
X179990129Y-131415235D01*
X180025843Y-131450949D01*
X180097272Y-131486663D01*
X180311558Y-131486663D01*
X180382986Y-131450949D01*
X180418700Y-131415235D01*
X179311558Y-130736663D02*
X179454415Y-130736663D01*
X179525843Y-130772378D01*
X179561558Y-130808092D01*
X179632986Y-130915235D01*
X179668700Y-131058092D01*
X179668700Y-131343806D01*
X179632986Y-131415235D01*
X179597272Y-131450949D01*
X179525843Y-131486663D01*
X179382986Y-131486663D01*
X179311558Y-131450949D01*
X179275843Y-131415235D01*
X179240129Y-131343806D01*
X179240129Y-131165235D01*
X179275843Y-131093806D01*
X179311558Y-131058092D01*
X179382986Y-131022378D01*
X179525843Y-131022378D01*
X179597272Y-131058092D01*
X179632986Y-131093806D01*
X179668700Y-131165235D01*
X180932142Y-116814285D02*
X181182142Y-116457142D01*
X181360714Y-116814285D02*
X181360714Y-116064285D01*
X181075000Y-116064285D01*
X181003571Y-116100000D01*
X180967857Y-116135714D01*
X180932142Y-116207142D01*
X180932142Y-116314285D01*
X180967857Y-116385714D01*
X181003571Y-116421428D01*
X181075000Y-116457142D01*
X181360714Y-116457142D01*
X180682142Y-116064285D02*
X180217857Y-116064285D01*
X180467857Y-116350000D01*
X180360714Y-116350000D01*
X180289285Y-116385714D01*
X180253571Y-116421428D01*
X180217857Y-116492857D01*
X180217857Y-116671428D01*
X180253571Y-116742857D01*
X180289285Y-116778571D01*
X180360714Y-116814285D01*
X180575000Y-116814285D01*
X180646428Y-116778571D01*
X180682142Y-116742857D01*
X179539285Y-116064285D02*
X179896428Y-116064285D01*
X179932142Y-116421428D01*
X179896428Y-116385714D01*
X179825000Y-116350000D01*
X179646428Y-116350000D01*
X179575000Y-116385714D01*
X179539285Y-116421428D01*
X179503571Y-116492857D01*
X179503571Y-116671428D01*
X179539285Y-116742857D01*
X179575000Y-116778571D01*
X179646428Y-116814285D01*
X179825000Y-116814285D01*
X179896428Y-116778571D01*
X179932142Y-116742857D01*
X188612380Y-96249523D02*
X188246666Y-96249523D01*
X188429523Y-96889523D02*
X188429523Y-96249523D01*
X188033333Y-96889523D02*
X188033333Y-96249523D01*
X187789523Y-96249523D01*
X187728571Y-96280000D01*
X187698095Y-96310476D01*
X187667619Y-96371428D01*
X187667619Y-96462857D01*
X187698095Y-96523809D01*
X187728571Y-96554285D01*
X187789523Y-96584761D01*
X188033333Y-96584761D01*
X187058095Y-96889523D02*
X187423809Y-96889523D01*
X187240952Y-96889523D02*
X187240952Y-96249523D01*
X187301904Y-96340952D01*
X187362857Y-96401904D01*
X187423809Y-96432380D01*
X186753333Y-96889523D02*
X186631428Y-96889523D01*
X186570476Y-96859047D01*
X186540000Y-96828571D01*
X186479047Y-96737142D01*
X186448571Y-96615238D01*
X186448571Y-96371428D01*
X186479047Y-96310476D01*
X186509523Y-96280000D01*
X186570476Y-96249523D01*
X186692380Y-96249523D01*
X186753333Y-96280000D01*
X186783809Y-96310476D01*
X186814285Y-96371428D01*
X186814285Y-96523809D01*
X186783809Y-96584761D01*
X186753333Y-96615238D01*
X186692380Y-96645714D01*
X186570476Y-96645714D01*
X186509523Y-96615238D01*
X186479047Y-96584761D01*
X186448571Y-96523809D01*
X171882942Y-101355285D02*
X172132942Y-100998142D01*
X172311514Y-101355285D02*
X172311514Y-100605285D01*
X172025800Y-100605285D01*
X171954371Y-100641000D01*
X171918657Y-100676714D01*
X171882942Y-100748142D01*
X171882942Y-100855285D01*
X171918657Y-100926714D01*
X171954371Y-100962428D01*
X172025800Y-100998142D01*
X172311514Y-100998142D01*
X171597228Y-100676714D02*
X171561514Y-100641000D01*
X171490085Y-100605285D01*
X171311514Y-100605285D01*
X171240085Y-100641000D01*
X171204371Y-100676714D01*
X171168657Y-100748142D01*
X171168657Y-100819571D01*
X171204371Y-100926714D01*
X171632942Y-101355285D01*
X171168657Y-101355285D01*
X170525800Y-100855285D02*
X170525800Y-101355285D01*
X170704371Y-100569571D02*
X170882942Y-101105285D01*
X170418657Y-101105285D01*
X187182142Y-109497285D02*
X187432142Y-109140142D01*
X187610714Y-109497285D02*
X187610714Y-108747285D01*
X187325000Y-108747285D01*
X187253571Y-108783000D01*
X187217857Y-108818714D01*
X187182142Y-108890142D01*
X187182142Y-108997285D01*
X187217857Y-109068714D01*
X187253571Y-109104428D01*
X187325000Y-109140142D01*
X187610714Y-109140142D01*
X186932142Y-108747285D02*
X186467857Y-108747285D01*
X186717857Y-109033000D01*
X186610714Y-109033000D01*
X186539285Y-109068714D01*
X186503571Y-109104428D01*
X186467857Y-109175857D01*
X186467857Y-109354428D01*
X186503571Y-109425857D01*
X186539285Y-109461571D01*
X186610714Y-109497285D01*
X186825000Y-109497285D01*
X186896428Y-109461571D01*
X186932142Y-109425857D01*
X186003571Y-108747285D02*
X185932142Y-108747285D01*
X185860714Y-108783000D01*
X185825000Y-108818714D01*
X185789285Y-108890142D01*
X185753571Y-109033000D01*
X185753571Y-109211571D01*
X185789285Y-109354428D01*
X185825000Y-109425857D01*
X185860714Y-109461571D01*
X185932142Y-109497285D01*
X186003571Y-109497285D01*
X186075000Y-109461571D01*
X186110714Y-109425857D01*
X186146428Y-109354428D01*
X186182142Y-109211571D01*
X186182142Y-109033000D01*
X186146428Y-108890142D01*
X186110714Y-108818714D01*
X186075000Y-108783000D01*
X186003571Y-108747285D01*
X183362142Y-101301685D02*
X183612142Y-100944542D01*
X183790714Y-101301685D02*
X183790714Y-100551685D01*
X183505000Y-100551685D01*
X183433571Y-100587400D01*
X183397857Y-100623114D01*
X183362142Y-100694542D01*
X183362142Y-100801685D01*
X183397857Y-100873114D01*
X183433571Y-100908828D01*
X183505000Y-100944542D01*
X183790714Y-100944542D01*
X183076428Y-100623114D02*
X183040714Y-100587400D01*
X182969285Y-100551685D01*
X182790714Y-100551685D01*
X182719285Y-100587400D01*
X182683571Y-100623114D01*
X182647857Y-100694542D01*
X182647857Y-100765971D01*
X182683571Y-100873114D01*
X183112142Y-101301685D01*
X182647857Y-101301685D01*
X182397857Y-100551685D02*
X181897857Y-100551685D01*
X182219285Y-101301685D01*
X191061380Y-109940323D02*
X190695666Y-109940323D01*
X190878523Y-110580323D02*
X190878523Y-109940323D01*
X190482333Y-110580323D02*
X190482333Y-109940323D01*
X190238523Y-109940323D01*
X190177571Y-109970800D01*
X190147095Y-110001276D01*
X190116619Y-110062228D01*
X190116619Y-110153657D01*
X190147095Y-110214609D01*
X190177571Y-110245085D01*
X190238523Y-110275561D01*
X190482333Y-110275561D01*
X189507095Y-110580323D02*
X189872809Y-110580323D01*
X189689952Y-110580323D02*
X189689952Y-109940323D01*
X189750904Y-110031752D01*
X189811857Y-110092704D01*
X189872809Y-110123180D01*
X188928047Y-109940323D02*
X189232809Y-109940323D01*
X189263285Y-110245085D01*
X189232809Y-110214609D01*
X189171857Y-110184133D01*
X189019476Y-110184133D01*
X188958523Y-110214609D01*
X188928047Y-110245085D01*
X188897571Y-110306038D01*
X188897571Y-110458419D01*
X188928047Y-110519371D01*
X188958523Y-110549847D01*
X189019476Y-110580323D01*
X189171857Y-110580323D01*
X189232809Y-110549847D01*
X189263285Y-110519371D01*
X164912380Y-134549523D02*
X164546666Y-134549523D01*
X164729523Y-135189523D02*
X164729523Y-134549523D01*
X164333333Y-135189523D02*
X164333333Y-134549523D01*
X164089523Y-134549523D01*
X164028571Y-134580000D01*
X163998095Y-134610476D01*
X163967619Y-134671428D01*
X163967619Y-134762857D01*
X163998095Y-134823809D01*
X164028571Y-134854285D01*
X164089523Y-134884761D01*
X164333333Y-134884761D01*
X163358095Y-135189523D02*
X163723809Y-135189523D01*
X163540952Y-135189523D02*
X163540952Y-134549523D01*
X163601904Y-134640952D01*
X163662857Y-134701904D01*
X163723809Y-134732380D01*
X162809523Y-134549523D02*
X162931428Y-134549523D01*
X162992380Y-134580000D01*
X163022857Y-134610476D01*
X163083809Y-134701904D01*
X163114285Y-134823809D01*
X163114285Y-135067619D01*
X163083809Y-135128571D01*
X163053333Y-135159047D01*
X162992380Y-135189523D01*
X162870476Y-135189523D01*
X162809523Y-135159047D01*
X162779047Y-135128571D01*
X162748571Y-135067619D01*
X162748571Y-134915238D01*
X162779047Y-134854285D01*
X162809523Y-134823809D01*
X162870476Y-134793333D01*
X162992380Y-134793333D01*
X163053333Y-134823809D01*
X163083809Y-134854285D01*
X163114285Y-134915238D01*
X155310000Y-106959285D02*
X155310000Y-107495000D01*
X155345714Y-107602142D01*
X155417142Y-107673571D01*
X155524285Y-107709285D01*
X155595714Y-107709285D01*
X154560000Y-107709285D02*
X154988571Y-107709285D01*
X154774285Y-107709285D02*
X154774285Y-106959285D01*
X154845714Y-107066428D01*
X154917142Y-107137857D01*
X154988571Y-107173571D01*
X184932142Y-129889285D02*
X185182142Y-129532142D01*
X185360714Y-129889285D02*
X185360714Y-129139285D01*
X185075000Y-129139285D01*
X185003571Y-129175000D01*
X184967857Y-129210714D01*
X184932142Y-129282142D01*
X184932142Y-129389285D01*
X184967857Y-129460714D01*
X185003571Y-129496428D01*
X185075000Y-129532142D01*
X185360714Y-129532142D01*
X184682142Y-129139285D02*
X184217857Y-129139285D01*
X184467857Y-129425000D01*
X184360714Y-129425000D01*
X184289285Y-129460714D01*
X184253571Y-129496428D01*
X184217857Y-129567857D01*
X184217857Y-129746428D01*
X184253571Y-129817857D01*
X184289285Y-129853571D01*
X184360714Y-129889285D01*
X184575000Y-129889285D01*
X184646428Y-129853571D01*
X184682142Y-129817857D01*
X183967857Y-129139285D02*
X183467857Y-129139285D01*
X183789285Y-129889285D01*
X170757619Y-110049523D02*
X170391904Y-110049523D01*
X170574761Y-110689523D02*
X170574761Y-110049523D01*
X170178571Y-110689523D02*
X170178571Y-110049523D01*
X169934761Y-110049523D01*
X169873809Y-110080000D01*
X169843333Y-110110476D01*
X169812857Y-110171428D01*
X169812857Y-110262857D01*
X169843333Y-110323809D01*
X169873809Y-110354285D01*
X169934761Y-110384761D01*
X170178571Y-110384761D01*
X169447142Y-110323809D02*
X169508095Y-110293333D01*
X169538571Y-110262857D01*
X169569047Y-110201904D01*
X169569047Y-110171428D01*
X169538571Y-110110476D01*
X169508095Y-110080000D01*
X169447142Y-110049523D01*
X169325238Y-110049523D01*
X169264285Y-110080000D01*
X169233809Y-110110476D01*
X169203333Y-110171428D01*
X169203333Y-110201904D01*
X169233809Y-110262857D01*
X169264285Y-110293333D01*
X169325238Y-110323809D01*
X169447142Y-110323809D01*
X169508095Y-110354285D01*
X169538571Y-110384761D01*
X169569047Y-110445714D01*
X169569047Y-110567619D01*
X169538571Y-110628571D01*
X169508095Y-110659047D01*
X169447142Y-110689523D01*
X169325238Y-110689523D01*
X169264285Y-110659047D01*
X169233809Y-110628571D01*
X169203333Y-110567619D01*
X169203333Y-110445714D01*
X169233809Y-110384761D01*
X169264285Y-110354285D01*
X169325238Y-110323809D01*
X167212380Y-126649523D02*
X166846666Y-126649523D01*
X167029523Y-127289523D02*
X167029523Y-126649523D01*
X166633333Y-127289523D02*
X166633333Y-126649523D01*
X166389523Y-126649523D01*
X166328571Y-126680000D01*
X166298095Y-126710476D01*
X166267619Y-126771428D01*
X166267619Y-126862857D01*
X166298095Y-126923809D01*
X166328571Y-126954285D01*
X166389523Y-126984761D01*
X166633333Y-126984761D01*
X166023809Y-126710476D02*
X165993333Y-126680000D01*
X165932380Y-126649523D01*
X165780000Y-126649523D01*
X165719047Y-126680000D01*
X165688571Y-126710476D01*
X165658095Y-126771428D01*
X165658095Y-126832380D01*
X165688571Y-126923809D01*
X166054285Y-127289523D01*
X165658095Y-127289523D01*
X165048571Y-127289523D02*
X165414285Y-127289523D01*
X165231428Y-127289523D02*
X165231428Y-126649523D01*
X165292380Y-126740952D01*
X165353333Y-126801904D01*
X165414285Y-126832380D01*
X188747342Y-133912285D02*
X188997342Y-133555142D01*
X189175914Y-133912285D02*
X189175914Y-133162285D01*
X188890200Y-133162285D01*
X188818771Y-133198000D01*
X188783057Y-133233714D01*
X188747342Y-133305142D01*
X188747342Y-133412285D01*
X188783057Y-133483714D01*
X188818771Y-133519428D01*
X188890200Y-133555142D01*
X189175914Y-133555142D01*
X188033057Y-133912285D02*
X188461628Y-133912285D01*
X188247342Y-133912285D02*
X188247342Y-133162285D01*
X188318771Y-133269428D01*
X188390200Y-133340857D01*
X188461628Y-133376571D01*
X187390200Y-133162285D02*
X187533057Y-133162285D01*
X187604485Y-133198000D01*
X187640200Y-133233714D01*
X187711628Y-133340857D01*
X187747342Y-133483714D01*
X187747342Y-133769428D01*
X187711628Y-133840857D01*
X187675914Y-133876571D01*
X187604485Y-133912285D01*
X187461628Y-133912285D01*
X187390200Y-133876571D01*
X187354485Y-133840857D01*
X187318771Y-133769428D01*
X187318771Y-133590857D01*
X187354485Y-133519428D01*
X187390200Y-133483714D01*
X187461628Y-133448000D01*
X187604485Y-133448000D01*
X187675914Y-133483714D01*
X187711628Y-133519428D01*
X187747342Y-133590857D01*
X161604342Y-101276485D02*
X161854342Y-100919342D01*
X162032914Y-101276485D02*
X162032914Y-100526485D01*
X161747200Y-100526485D01*
X161675771Y-100562200D01*
X161640057Y-100597914D01*
X161604342Y-100669342D01*
X161604342Y-100776485D01*
X161640057Y-100847914D01*
X161675771Y-100883628D01*
X161747200Y-100919342D01*
X162032914Y-100919342D01*
X160890057Y-101276485D02*
X161318628Y-101276485D01*
X161104342Y-101276485D02*
X161104342Y-100526485D01*
X161175771Y-100633628D01*
X161247200Y-100705057D01*
X161318628Y-100740771D01*
X160175771Y-101276485D02*
X160604342Y-101276485D01*
X160390057Y-101276485D02*
X160390057Y-100526485D01*
X160461485Y-100633628D01*
X160532914Y-100705057D01*
X160604342Y-100740771D01*
X180242142Y-101326455D02*
X180492142Y-100969312D01*
X180670714Y-101326455D02*
X180670714Y-100576455D01*
X180385000Y-100576455D01*
X180313571Y-100612170D01*
X180277857Y-100647884D01*
X180242142Y-100719312D01*
X180242142Y-100826455D01*
X180277857Y-100897884D01*
X180313571Y-100933598D01*
X180385000Y-100969312D01*
X180670714Y-100969312D01*
X179956428Y-100647884D02*
X179920714Y-100612170D01*
X179849285Y-100576455D01*
X179670714Y-100576455D01*
X179599285Y-100612170D01*
X179563571Y-100647884D01*
X179527857Y-100719312D01*
X179527857Y-100790741D01*
X179563571Y-100897884D01*
X179992142Y-101326455D01*
X179527857Y-101326455D01*
X179099285Y-100897884D02*
X179170714Y-100862170D01*
X179206428Y-100826455D01*
X179242142Y-100755027D01*
X179242142Y-100719312D01*
X179206428Y-100647884D01*
X179170714Y-100612170D01*
X179099285Y-100576455D01*
X178956428Y-100576455D01*
X178885000Y-100612170D01*
X178849285Y-100647884D01*
X178813571Y-100719312D01*
X178813571Y-100755027D01*
X178849285Y-100826455D01*
X178885000Y-100862170D01*
X178956428Y-100897884D01*
X179099285Y-100897884D01*
X179170714Y-100933598D01*
X179206428Y-100969312D01*
X179242142Y-101040741D01*
X179242142Y-101183598D01*
X179206428Y-101255027D01*
X179170714Y-101290741D01*
X179099285Y-101326455D01*
X178956428Y-101326455D01*
X178885000Y-101290741D01*
X178849285Y-101255027D01*
X178813571Y-101183598D01*
X178813571Y-101040741D01*
X178849285Y-100969312D01*
X178885000Y-100933598D01*
X178956428Y-100897884D01*
X180121428Y-117514285D02*
X180121428Y-118121428D01*
X180085714Y-118192857D01*
X180050000Y-118228571D01*
X179978571Y-118264285D01*
X179835714Y-118264285D01*
X179764285Y-118228571D01*
X179728571Y-118192857D01*
X179692857Y-118121428D01*
X179692857Y-117514285D01*
X179014285Y-117764285D02*
X179014285Y-118264285D01*
X179192857Y-117478571D02*
X179371428Y-118014285D01*
X178907142Y-118014285D01*
X189482142Y-121789285D02*
X189732142Y-121432142D01*
X189910714Y-121789285D02*
X189910714Y-121039285D01*
X189625000Y-121039285D01*
X189553571Y-121075000D01*
X189517857Y-121110714D01*
X189482142Y-121182142D01*
X189482142Y-121289285D01*
X189517857Y-121360714D01*
X189553571Y-121396428D01*
X189625000Y-121432142D01*
X189910714Y-121432142D01*
X188767857Y-121789285D02*
X189196428Y-121789285D01*
X188982142Y-121789285D02*
X188982142Y-121039285D01*
X189053571Y-121146428D01*
X189125000Y-121217857D01*
X189196428Y-121253571D01*
X188410714Y-121789285D02*
X188267857Y-121789285D01*
X188196428Y-121753571D01*
X188160714Y-121717857D01*
X188089285Y-121610714D01*
X188053571Y-121467857D01*
X188053571Y-121182142D01*
X188089285Y-121110714D01*
X188125000Y-121075000D01*
X188196428Y-121039285D01*
X188339285Y-121039285D01*
X188410714Y-121075000D01*
X188446428Y-121110714D01*
X188482142Y-121182142D01*
X188482142Y-121360714D01*
X188446428Y-121432142D01*
X188410714Y-121467857D01*
X188339285Y-121503571D01*
X188196428Y-121503571D01*
X188125000Y-121467857D01*
X188089285Y-121432142D01*
X188053571Y-121360714D01*
X173212380Y-123349523D02*
X172846666Y-123349523D01*
X173029523Y-123989523D02*
X173029523Y-123349523D01*
X172633333Y-123989523D02*
X172633333Y-123349523D01*
X172389523Y-123349523D01*
X172328571Y-123380000D01*
X172298095Y-123410476D01*
X172267619Y-123471428D01*
X172267619Y-123562857D01*
X172298095Y-123623809D01*
X172328571Y-123654285D01*
X172389523Y-123684761D01*
X172633333Y-123684761D01*
X171658095Y-123989523D02*
X172023809Y-123989523D01*
X171840952Y-123989523D02*
X171840952Y-123349523D01*
X171901904Y-123440952D01*
X171962857Y-123501904D01*
X172023809Y-123532380D01*
X171414285Y-123410476D02*
X171383809Y-123380000D01*
X171322857Y-123349523D01*
X171170476Y-123349523D01*
X171109523Y-123380000D01*
X171079047Y-123410476D01*
X171048571Y-123471428D01*
X171048571Y-123532380D01*
X171079047Y-123623809D01*
X171444761Y-123989523D01*
X171048571Y-123989523D01*
X176187380Y-119224523D02*
X175821666Y-119224523D01*
X176004523Y-119864523D02*
X176004523Y-119224523D01*
X175608333Y-119864523D02*
X175608333Y-119224523D01*
X175364523Y-119224523D01*
X175303571Y-119255000D01*
X175273095Y-119285476D01*
X175242619Y-119346428D01*
X175242619Y-119437857D01*
X175273095Y-119498809D01*
X175303571Y-119529285D01*
X175364523Y-119559761D01*
X175608333Y-119559761D01*
X174633095Y-119864523D02*
X174998809Y-119864523D01*
X174815952Y-119864523D02*
X174815952Y-119224523D01*
X174876904Y-119315952D01*
X174937857Y-119376904D01*
X174998809Y-119407380D01*
X174236904Y-119224523D02*
X174175952Y-119224523D01*
X174115000Y-119255000D01*
X174084523Y-119285476D01*
X174054047Y-119346428D01*
X174023571Y-119468333D01*
X174023571Y-119620714D01*
X174054047Y-119742619D01*
X174084523Y-119803571D01*
X174115000Y-119834047D01*
X174175952Y-119864523D01*
X174236904Y-119864523D01*
X174297857Y-119834047D01*
X174328333Y-119803571D01*
X174358809Y-119742619D01*
X174389285Y-119620714D01*
X174389285Y-119468333D01*
X174358809Y-119346428D01*
X174328333Y-119285476D01*
X174297857Y-119255000D01*
X174236904Y-119224523D01*
X177432142Y-129889285D02*
X177682142Y-129532142D01*
X177860714Y-129889285D02*
X177860714Y-129139285D01*
X177575000Y-129139285D01*
X177503571Y-129175000D01*
X177467857Y-129210714D01*
X177432142Y-129282142D01*
X177432142Y-129389285D01*
X177467857Y-129460714D01*
X177503571Y-129496428D01*
X177575000Y-129532142D01*
X177860714Y-129532142D01*
X176717857Y-129889285D02*
X177146428Y-129889285D01*
X176932142Y-129889285D02*
X176932142Y-129139285D01*
X177003571Y-129246428D01*
X177075000Y-129317857D01*
X177146428Y-129353571D01*
X176467857Y-129139285D02*
X176003571Y-129139285D01*
X176253571Y-129425000D01*
X176146428Y-129425000D01*
X176075000Y-129460714D01*
X176039285Y-129496428D01*
X176003571Y-129567857D01*
X176003571Y-129746428D01*
X176039285Y-129817857D01*
X176075000Y-129853571D01*
X176146428Y-129889285D01*
X176360714Y-129889285D01*
X176432142Y-129853571D01*
X176467857Y-129817857D01*
X178007619Y-116049523D02*
X177641904Y-116049523D01*
X177824761Y-116689523D02*
X177824761Y-116049523D01*
X177428571Y-116689523D02*
X177428571Y-116049523D01*
X177184761Y-116049523D01*
X177123809Y-116080000D01*
X177093333Y-116110476D01*
X177062857Y-116171428D01*
X177062857Y-116262857D01*
X177093333Y-116323809D01*
X177123809Y-116354285D01*
X177184761Y-116384761D01*
X177428571Y-116384761D01*
X176849523Y-116049523D02*
X176422857Y-116049523D01*
X176697142Y-116689523D01*
X187476942Y-119413885D02*
X187726942Y-119056742D01*
X187905514Y-119413885D02*
X187905514Y-118663885D01*
X187619800Y-118663885D01*
X187548371Y-118699600D01*
X187512657Y-118735314D01*
X187476942Y-118806742D01*
X187476942Y-118913885D01*
X187512657Y-118985314D01*
X187548371Y-119021028D01*
X187619800Y-119056742D01*
X187905514Y-119056742D01*
X187191228Y-118735314D02*
X187155514Y-118699600D01*
X187084085Y-118663885D01*
X186905514Y-118663885D01*
X186834085Y-118699600D01*
X186798371Y-118735314D01*
X186762657Y-118806742D01*
X186762657Y-118878171D01*
X186798371Y-118985314D01*
X187226942Y-119413885D01*
X186762657Y-119413885D01*
X186048371Y-119413885D02*
X186476942Y-119413885D01*
X186262657Y-119413885D02*
X186262657Y-118663885D01*
X186334085Y-118771028D01*
X186405514Y-118842457D01*
X186476942Y-118878171D01*
X152732142Y-107614285D02*
X152982142Y-107257142D01*
X153160714Y-107614285D02*
X153160714Y-106864285D01*
X152875000Y-106864285D01*
X152803571Y-106900000D01*
X152767857Y-106935714D01*
X152732142Y-107007142D01*
X152732142Y-107114285D01*
X152767857Y-107185714D01*
X152803571Y-107221428D01*
X152875000Y-107257142D01*
X153160714Y-107257142D01*
X152017857Y-107614285D02*
X152446428Y-107614285D01*
X152232142Y-107614285D02*
X152232142Y-106864285D01*
X152303571Y-106971428D01*
X152375000Y-107042857D01*
X152446428Y-107078571D01*
X151553571Y-106864285D02*
X151482142Y-106864285D01*
X151410714Y-106900000D01*
X151375000Y-106935714D01*
X151339285Y-107007142D01*
X151303571Y-107150000D01*
X151303571Y-107328571D01*
X151339285Y-107471428D01*
X151375000Y-107542857D01*
X151410714Y-107578571D01*
X151482142Y-107614285D01*
X151553571Y-107614285D01*
X151625000Y-107578571D01*
X151660714Y-107542857D01*
X151696428Y-107471428D01*
X151732142Y-107328571D01*
X151732142Y-107150000D01*
X151696428Y-107007142D01*
X151660714Y-106935714D01*
X151625000Y-106900000D01*
X151553571Y-106864285D01*
X177782142Y-101336455D02*
X178032142Y-100979312D01*
X178210714Y-101336455D02*
X178210714Y-100586455D01*
X177925000Y-100586455D01*
X177853571Y-100622170D01*
X177817857Y-100657884D01*
X177782142Y-100729312D01*
X177782142Y-100836455D01*
X177817857Y-100907884D01*
X177853571Y-100943598D01*
X177925000Y-100979312D01*
X178210714Y-100979312D01*
X177496428Y-100657884D02*
X177460714Y-100622170D01*
X177389285Y-100586455D01*
X177210714Y-100586455D01*
X177139285Y-100622170D01*
X177103571Y-100657884D01*
X177067857Y-100729312D01*
X177067857Y-100800741D01*
X177103571Y-100907884D01*
X177532142Y-101336455D01*
X177067857Y-101336455D01*
X176389285Y-100586455D02*
X176746428Y-100586455D01*
X176782142Y-100943598D01*
X176746428Y-100907884D01*
X176675000Y-100872170D01*
X176496428Y-100872170D01*
X176425000Y-100907884D01*
X176389285Y-100943598D01*
X176353571Y-101015027D01*
X176353571Y-101193598D01*
X176389285Y-101265027D01*
X176425000Y-101300741D01*
X176496428Y-101336455D01*
X176675000Y-101336455D01*
X176746428Y-101300741D01*
X176782142Y-101265027D01*
X164222800Y-101259485D02*
X164472800Y-100902342D01*
X164651371Y-101259485D02*
X164651371Y-100509485D01*
X164365657Y-100509485D01*
X164294228Y-100545200D01*
X164258514Y-100580914D01*
X164222800Y-100652342D01*
X164222800Y-100759485D01*
X164258514Y-100830914D01*
X164294228Y-100866628D01*
X164365657Y-100902342D01*
X164651371Y-100902342D01*
X163972800Y-100509485D02*
X163472800Y-100509485D01*
X163794228Y-101259485D01*
X186162142Y-101281685D02*
X186412142Y-100924542D01*
X186590714Y-101281685D02*
X186590714Y-100531685D01*
X186305000Y-100531685D01*
X186233571Y-100567400D01*
X186197857Y-100603114D01*
X186162142Y-100674542D01*
X186162142Y-100781685D01*
X186197857Y-100853114D01*
X186233571Y-100888828D01*
X186305000Y-100924542D01*
X186590714Y-100924542D01*
X185876428Y-100603114D02*
X185840714Y-100567400D01*
X185769285Y-100531685D01*
X185590714Y-100531685D01*
X185519285Y-100567400D01*
X185483571Y-100603114D01*
X185447857Y-100674542D01*
X185447857Y-100745971D01*
X185483571Y-100853114D01*
X185912142Y-101281685D01*
X185447857Y-101281685D01*
X185090714Y-101281685D02*
X184947857Y-101281685D01*
X184876428Y-101245971D01*
X184840714Y-101210257D01*
X184769285Y-101103114D01*
X184733571Y-100960257D01*
X184733571Y-100674542D01*
X184769285Y-100603114D01*
X184805000Y-100567400D01*
X184876428Y-100531685D01*
X185019285Y-100531685D01*
X185090714Y-100567400D01*
X185126428Y-100603114D01*
X185162142Y-100674542D01*
X185162142Y-100853114D01*
X185126428Y-100924542D01*
X185090714Y-100960257D01*
X185019285Y-100995971D01*
X184876428Y-100995971D01*
X184805000Y-100960257D01*
X184769285Y-100924542D01*
X184733571Y-100853114D01*
X167081800Y-101336485D02*
X167331800Y-100979342D01*
X167510371Y-101336485D02*
X167510371Y-100586485D01*
X167224657Y-100586485D01*
X167153228Y-100622200D01*
X167117514Y-100657914D01*
X167081800Y-100729342D01*
X167081800Y-100836485D01*
X167117514Y-100907914D01*
X167153228Y-100943628D01*
X167224657Y-100979342D01*
X167510371Y-100979342D01*
X166403228Y-100586485D02*
X166760371Y-100586485D01*
X166796085Y-100943628D01*
X166760371Y-100907914D01*
X166688942Y-100872200D01*
X166510371Y-100872200D01*
X166438942Y-100907914D01*
X166403228Y-100943628D01*
X166367514Y-101015057D01*
X166367514Y-101193628D01*
X166403228Y-101265057D01*
X166438942Y-101300771D01*
X166510371Y-101336485D01*
X166688942Y-101336485D01*
X166760371Y-101300771D01*
X166796085Y-101265057D01*
X168712380Y-138349523D02*
X168346666Y-138349523D01*
X168529523Y-138989523D02*
X168529523Y-138349523D01*
X168133333Y-138989523D02*
X168133333Y-138349523D01*
X167889523Y-138349523D01*
X167828571Y-138380000D01*
X167798095Y-138410476D01*
X167767619Y-138471428D01*
X167767619Y-138562857D01*
X167798095Y-138623809D01*
X167828571Y-138654285D01*
X167889523Y-138684761D01*
X168133333Y-138684761D01*
X167523809Y-138410476D02*
X167493333Y-138380000D01*
X167432380Y-138349523D01*
X167280000Y-138349523D01*
X167219047Y-138380000D01*
X167188571Y-138410476D01*
X167158095Y-138471428D01*
X167158095Y-138532380D01*
X167188571Y-138623809D01*
X167554285Y-138989523D01*
X167158095Y-138989523D01*
X166761904Y-138349523D02*
X166700952Y-138349523D01*
X166640000Y-138380000D01*
X166609523Y-138410476D01*
X166579047Y-138471428D01*
X166548571Y-138593333D01*
X166548571Y-138745714D01*
X166579047Y-138867619D01*
X166609523Y-138928571D01*
X166640000Y-138959047D01*
X166700952Y-138989523D01*
X166761904Y-138989523D01*
X166822857Y-138959047D01*
X166853333Y-138928571D01*
X166883809Y-138867619D01*
X166914285Y-138745714D01*
X166914285Y-138593333D01*
X166883809Y-138471428D01*
X166853333Y-138410476D01*
X166822857Y-138380000D01*
X166761904Y-138349523D01*
X185882142Y-123839285D02*
X186132142Y-123482142D01*
X186310714Y-123839285D02*
X186310714Y-123089285D01*
X186025000Y-123089285D01*
X185953571Y-123125000D01*
X185917857Y-123160714D01*
X185882142Y-123232142D01*
X185882142Y-123339285D01*
X185917857Y-123410714D01*
X185953571Y-123446428D01*
X186025000Y-123482142D01*
X186310714Y-123482142D01*
X185596428Y-123160714D02*
X185560714Y-123125000D01*
X185489285Y-123089285D01*
X185310714Y-123089285D01*
X185239285Y-123125000D01*
X185203571Y-123160714D01*
X185167857Y-123232142D01*
X185167857Y-123303571D01*
X185203571Y-123410714D01*
X185632142Y-123839285D01*
X185167857Y-123839285D01*
X184882142Y-123160714D02*
X184846428Y-123125000D01*
X184775000Y-123089285D01*
X184596428Y-123089285D01*
X184525000Y-123125000D01*
X184489285Y-123160714D01*
X184453571Y-123232142D01*
X184453571Y-123303571D01*
X184489285Y-123410714D01*
X184917857Y-123839285D01*
X184453571Y-123839285D01*
X184582142Y-111339285D02*
X184832142Y-110982142D01*
X185010714Y-111339285D02*
X185010714Y-110589285D01*
X184725000Y-110589285D01*
X184653571Y-110625000D01*
X184617857Y-110660714D01*
X184582142Y-110732142D01*
X184582142Y-110839285D01*
X184617857Y-110910714D01*
X184653571Y-110946428D01*
X184725000Y-110982142D01*
X185010714Y-110982142D01*
X184332142Y-110589285D02*
X183867857Y-110589285D01*
X184117857Y-110875000D01*
X184010714Y-110875000D01*
X183939285Y-110910714D01*
X183903571Y-110946428D01*
X183867857Y-111017857D01*
X183867857Y-111196428D01*
X183903571Y-111267857D01*
X183939285Y-111303571D01*
X184010714Y-111339285D01*
X184225000Y-111339285D01*
X184296428Y-111303571D01*
X184332142Y-111267857D01*
X183225000Y-110839285D02*
X183225000Y-111339285D01*
X183403571Y-110553571D02*
X183582142Y-111089285D01*
X183117857Y-111089285D01*
D11*
X163247400Y-110717064D02*
X163247400Y-110262936D01*
X164717400Y-110717064D02*
X164717400Y-110262936D01*
D14*
X169030000Y-116240000D02*
G75*
G03*
X169030000Y-116240000I-1270000J0D01*
G01*
X165920000Y-116280000D02*
G75*
G03*
X165920000Y-116280000I-1270000J0D01*
G01*
X166375768Y-119955193D02*
G75*
G03*
X166375768Y-119955193I-1270000J0D01*
G01*
D11*
X182673948Y-120474542D02*
X182673948Y-120997046D01*
X184143948Y-120474542D02*
X184143948Y-120997046D01*
D14*
X169204830Y-133649623D02*
G75*
G03*
X169204830Y-133649623I-1270000J0D01*
G01*
X186570000Y-141200000D02*
G75*
G03*
X186570000Y-141200000I-1270000J0D01*
G01*
X155070000Y-95225000D02*
G75*
G03*
X155070000Y-95225000I-1270000J0D01*
G01*
D11*
X173509000Y-132053064D02*
X173509000Y-131598936D01*
X174979000Y-132053064D02*
X174979000Y-131598936D01*
X164135000Y-129761252D02*
X164135000Y-129238748D01*
X162665000Y-129761252D02*
X162665000Y-129238748D01*
D14*
X158750000Y-141100000D02*
G75*
G03*
X158750000Y-141100000I-1270000J0D01*
G01*
D11*
X176172936Y-113165000D02*
X176627064Y-113165000D01*
X176172936Y-114635000D02*
X176627064Y-114635000D01*
X181027064Y-108035000D02*
X180572936Y-108035000D01*
X181027064Y-106565000D02*
X180572936Y-106565000D01*
X183040940Y-113818936D02*
X183040940Y-114273064D01*
X184510940Y-113818936D02*
X184510940Y-114273064D01*
X158100000Y-132760000D02*
X156150000Y-132760000D01*
X158100000Y-127640000D02*
X161550000Y-127640000D01*
X158100000Y-132760000D02*
X160050000Y-132760000D01*
X158100000Y-127640000D02*
X156150000Y-127640000D01*
X173279165Y-103108936D02*
X173279165Y-103563064D01*
X174749165Y-103108936D02*
X174749165Y-103563064D01*
X186461940Y-113830000D02*
X187461940Y-113830000D01*
X186461940Y-115770000D02*
X187461940Y-115770000D01*
X191035000Y-107621336D02*
X191035000Y-108075464D01*
X192505000Y-107621336D02*
X192505000Y-108075464D01*
X172835000Y-127227064D02*
X172835000Y-126772936D01*
X171365000Y-127227064D02*
X171365000Y-126772936D01*
D14*
X183370000Y-141200000D02*
G75*
G03*
X183370000Y-141200000I-1270000J0D01*
G01*
D11*
X185427064Y-128035000D02*
X184972936Y-128035000D01*
X185427064Y-126565000D02*
X184972936Y-126565000D01*
G36*
X179656928Y-94917044D02*
G01*
X179655281Y-94924682D01*
X179650556Y-94944324D01*
X179643105Y-94974588D01*
X179633277Y-95014094D01*
X179621423Y-95061463D01*
X179607891Y-95115314D01*
X179593034Y-95174267D01*
X179577200Y-95236941D01*
X179560739Y-95301957D01*
X179544003Y-95367934D01*
X179527340Y-95433492D01*
X179511101Y-95497250D01*
X179495637Y-95557829D01*
X179481297Y-95613849D01*
X179468431Y-95663928D01*
X179457389Y-95706687D01*
X179448522Y-95740746D01*
X179442180Y-95764724D01*
X179438712Y-95777241D01*
X179438586Y-95778548D01*
X179442099Y-95784582D01*
X179452539Y-95793578D01*
X179470983Y-95806243D01*
X179498507Y-95823284D01*
X179536188Y-95845406D01*
X179585102Y-95873317D01*
X179617128Y-95891549D01*
X179655164Y-95913550D01*
X179687601Y-95932707D01*
X179712799Y-95948037D01*
X179729120Y-95958556D01*
X179734924Y-95963280D01*
X179731646Y-95965926D01*
X179717593Y-95975751D01*
X179693125Y-95992346D01*
X179658955Y-96015244D01*
X179615793Y-96043972D01*
X179564350Y-96078064D01*
X179505337Y-96117047D01*
X179439466Y-96160454D01*
X179367448Y-96207814D01*
X179289994Y-96258658D01*
X179207815Y-96312516D01*
X179121621Y-96368918D01*
X179032125Y-96427395D01*
X178964404Y-96471648D01*
X178877315Y-96528660D01*
X178794066Y-96583276D01*
X178715367Y-96635025D01*
X178641931Y-96683433D01*
X178574469Y-96728028D01*
X178513693Y-96768340D01*
X178460313Y-96803894D01*
X178415043Y-96834220D01*
X178378592Y-96858844D01*
X178351673Y-96877295D01*
X178334997Y-96889101D01*
X178329276Y-96893790D01*
X178329461Y-96894887D01*
X178332670Y-96906658D01*
X178339526Y-96929788D01*
X178349578Y-96962814D01*
X178362375Y-97004273D01*
X178377467Y-97052704D01*
X178394403Y-97106644D01*
X178412733Y-97164631D01*
X178418429Y-97182605D01*
X178436373Y-97239412D01*
X178452790Y-97291658D01*
X178467232Y-97337894D01*
X178479248Y-97376669D01*
X178488388Y-97406534D01*
X178494202Y-97426038D01*
X178496240Y-97433732D01*
X178492439Y-97437419D01*
X178479840Y-97439507D01*
X178472572Y-97438888D01*
X178452169Y-97436712D01*
X178419858Y-97433085D01*
X178376661Y-97428126D01*
X178323599Y-97421956D01*
X178261694Y-97414694D01*
X178191968Y-97406460D01*
X178115442Y-97397374D01*
X178033137Y-97387557D01*
X177946075Y-97377127D01*
X177855278Y-97366206D01*
X177247116Y-97292904D01*
X176626231Y-97367562D01*
X176625613Y-97367637D01*
X176534210Y-97378571D01*
X176446773Y-97388924D01*
X176364287Y-97398584D01*
X176287735Y-97407441D01*
X176218105Y-97415385D01*
X176156379Y-97422305D01*
X176103544Y-97428090D01*
X176060584Y-97432631D01*
X176028485Y-97435817D01*
X176008230Y-97437537D01*
X176000806Y-97437681D01*
X176000711Y-97436494D01*
X176003168Y-97424726D01*
X176009317Y-97401649D01*
X176018738Y-97368691D01*
X176031008Y-97327284D01*
X176045705Y-97278858D01*
X176062409Y-97224842D01*
X176080697Y-97166667D01*
X176087175Y-97146200D01*
X176105166Y-97089123D01*
X176121609Y-97036609D01*
X176136059Y-96990109D01*
X176148069Y-96951073D01*
X176157191Y-96920948D01*
X176162979Y-96901185D01*
X176164987Y-96893233D01*
X176161715Y-96890436D01*
X176147666Y-96880414D01*
X176123198Y-96863629D01*
X176089024Y-96840551D01*
X176045855Y-96811654D01*
X175994402Y-96777407D01*
X175935378Y-96738282D01*
X175869493Y-96694752D01*
X175797460Y-96647288D01*
X175719991Y-96596360D01*
X175637796Y-96542441D01*
X175551587Y-96486002D01*
X175462077Y-96427515D01*
X175394244Y-96383210D01*
X175307173Y-96326264D01*
X175223943Y-96271746D01*
X175145264Y-96220125D01*
X175071847Y-96171870D01*
X175004404Y-96127452D01*
X174943646Y-96087340D01*
X174890284Y-96052004D01*
X174845029Y-96021913D01*
X174808593Y-95997538D01*
X174781687Y-95979347D01*
X174765021Y-95967811D01*
X174759308Y-95963400D01*
X174762775Y-95960294D01*
X174776810Y-95950997D01*
X174800102Y-95936666D01*
X174831012Y-95918285D01*
X174867901Y-95896840D01*
X174909131Y-95873317D01*
X174924667Y-95864511D01*
X174970183Y-95838366D01*
X175004781Y-95817804D01*
X175029537Y-95802116D01*
X175045528Y-95790598D01*
X175053831Y-95782541D01*
X175055520Y-95777241D01*
X175055361Y-95776708D01*
X175051676Y-95763312D01*
X175045142Y-95738557D01*
X175036108Y-95703823D01*
X175024924Y-95660491D01*
X175011941Y-95609940D01*
X174997509Y-95553551D01*
X174981977Y-95492704D01*
X174965697Y-95428779D01*
X174949017Y-95363155D01*
X174932289Y-95297214D01*
X174915863Y-95232334D01*
X174900087Y-95169897D01*
X174885314Y-95111282D01*
X174871892Y-95057869D01*
X174860172Y-95011039D01*
X174850504Y-94972171D01*
X174843239Y-94942646D01*
X174838725Y-94923843D01*
X174837314Y-94917143D01*
X174837325Y-94917137D01*
X174844611Y-94918198D01*
X174864187Y-94921708D01*
X174894718Y-94927412D01*
X174934872Y-94935055D01*
X174983315Y-94944382D01*
X175038712Y-94955137D01*
X175099730Y-94967064D01*
X175165035Y-94979908D01*
X175187801Y-94984407D01*
X175265698Y-94999955D01*
X175330972Y-95013271D01*
X175384472Y-95024547D01*
X175427044Y-95033977D01*
X175459539Y-95041752D01*
X175482805Y-95048066D01*
X175497690Y-95053111D01*
X175505043Y-95057079D01*
X175512794Y-95065114D01*
X175529896Y-95085504D01*
X175552918Y-95114854D01*
X175580751Y-95151639D01*
X175612284Y-95194339D01*
X175646408Y-95241430D01*
X175682011Y-95291389D01*
X175717985Y-95342694D01*
X175753218Y-95393822D01*
X175786601Y-95443251D01*
X175798921Y-95461772D01*
X175899874Y-95618296D01*
X175998924Y-95780171D01*
X176094913Y-95945251D01*
X176186684Y-96111390D01*
X176273078Y-96276442D01*
X176352937Y-96438261D01*
X176425104Y-96594701D01*
X176488418Y-96743617D01*
X176500499Y-96774206D01*
X176517723Y-96819849D01*
X176535720Y-96869443D01*
X176553672Y-96920567D01*
X176570758Y-96970799D01*
X176586156Y-97017717D01*
X176599047Y-97058900D01*
X176608610Y-97091926D01*
X176614025Y-97114372D01*
X176614986Y-97119069D01*
X176619467Y-97134181D01*
X176623713Y-97140274D01*
X176628568Y-97136872D01*
X176641604Y-97124309D01*
X176661151Y-97103948D01*
X176685830Y-97077329D01*
X176714257Y-97045989D01*
X176745051Y-97011468D01*
X176776829Y-96975306D01*
X176808212Y-96939040D01*
X176837815Y-96904211D01*
X176864259Y-96872357D01*
X176875059Y-96859070D01*
X176961886Y-96746225D01*
X177043349Y-96628810D01*
X177121507Y-96503716D01*
X177198418Y-96367836D01*
X177213891Y-96339556D01*
X177227753Y-96314848D01*
X177238070Y-96297146D01*
X177243337Y-96289088D01*
X177247868Y-96292579D01*
X177257976Y-96306505D01*
X177272430Y-96329166D01*
X177290083Y-96358757D01*
X177309784Y-96393471D01*
X177336242Y-96440615D01*
X177393328Y-96538035D01*
X177449179Y-96626812D01*
X177505916Y-96710123D01*
X177565665Y-96791140D01*
X177630547Y-96873040D01*
X177651732Y-96898628D01*
X177680745Y-96932889D01*
X177711814Y-96968897D01*
X177743554Y-97005108D01*
X177774580Y-97039981D01*
X177803508Y-97071973D01*
X177828950Y-97099541D01*
X177849524Y-97121142D01*
X177863842Y-97135234D01*
X177870519Y-97140274D01*
X177871476Y-97139845D01*
X177875949Y-97131015D01*
X177880207Y-97114372D01*
X177883920Y-97098346D01*
X177892566Y-97067629D01*
X177904736Y-97028176D01*
X177919609Y-96982409D01*
X177936366Y-96932749D01*
X177954185Y-96881618D01*
X177972246Y-96831438D01*
X177989730Y-96784630D01*
X178005814Y-96743617D01*
X178069612Y-96593546D01*
X178143083Y-96434352D01*
X178224394Y-96269847D01*
X178312397Y-96102163D01*
X178405942Y-95933429D01*
X178503877Y-95765776D01*
X178605054Y-95601334D01*
X178708323Y-95442234D01*
X178730181Y-95409745D01*
X178764952Y-95358969D01*
X178800829Y-95307524D01*
X178836700Y-95256937D01*
X178871452Y-95208732D01*
X178903972Y-95164433D01*
X178933149Y-95125566D01*
X178957870Y-95093656D01*
X178977022Y-95070227D01*
X178989494Y-95056804D01*
X178991963Y-95055085D01*
X179002122Y-95050729D01*
X179019618Y-95045330D01*
X179045357Y-95038683D01*
X179080248Y-95030580D01*
X179125200Y-95020815D01*
X179181121Y-95009182D01*
X179248919Y-94995474D01*
X179329502Y-94979484D01*
X179330620Y-94979263D01*
X179395834Y-94966455D01*
X179456737Y-94954572D01*
X179511997Y-94943871D01*
X179560277Y-94934605D01*
X179600244Y-94927030D01*
X179630563Y-94921400D01*
X179649899Y-94917970D01*
X179656919Y-94916994D01*
X179656928Y-94917044D01*
G37*
D15*
X179656928Y-94917044D02*
X179655281Y-94924682D01*
X179650556Y-94944324D01*
X179643105Y-94974588D01*
X179633277Y-95014094D01*
X179621423Y-95061463D01*
X179607891Y-95115314D01*
X179593034Y-95174267D01*
X179577200Y-95236941D01*
X179560739Y-95301957D01*
X179544003Y-95367934D01*
X179527340Y-95433492D01*
X179511101Y-95497250D01*
X179495637Y-95557829D01*
X179481297Y-95613849D01*
X179468431Y-95663928D01*
X179457389Y-95706687D01*
X179448522Y-95740746D01*
X179442180Y-95764724D01*
X179438712Y-95777241D01*
X179438586Y-95778548D01*
X179442099Y-95784582D01*
X179452539Y-95793578D01*
X179470983Y-95806243D01*
X179498507Y-95823284D01*
X179536188Y-95845406D01*
X179585102Y-95873317D01*
X179617128Y-95891549D01*
X179655164Y-95913550D01*
X179687601Y-95932707D01*
X179712799Y-95948037D01*
X179729120Y-95958556D01*
X179734924Y-95963280D01*
X179731646Y-95965926D01*
X179717593Y-95975751D01*
X179693125Y-95992346D01*
X179658955Y-96015244D01*
X179615793Y-96043972D01*
X179564350Y-96078064D01*
X179505337Y-96117047D01*
X179439466Y-96160454D01*
X179367448Y-96207814D01*
X179289994Y-96258658D01*
X179207815Y-96312516D01*
X179121621Y-96368918D01*
X179032125Y-96427395D01*
X178964404Y-96471648D01*
X178877315Y-96528660D01*
X178794066Y-96583276D01*
X178715367Y-96635025D01*
X178641931Y-96683433D01*
X178574469Y-96728028D01*
X178513693Y-96768340D01*
X178460313Y-96803894D01*
X178415043Y-96834220D01*
X178378592Y-96858844D01*
X178351673Y-96877295D01*
X178334997Y-96889101D01*
X178329276Y-96893790D01*
X178329461Y-96894887D01*
X178332670Y-96906658D01*
X178339526Y-96929788D01*
X178349578Y-96962814D01*
X178362375Y-97004273D01*
X178377467Y-97052704D01*
X178394403Y-97106644D01*
X178412733Y-97164631D01*
X178418429Y-97182605D01*
X178436373Y-97239412D01*
X178452790Y-97291658D01*
X178467232Y-97337894D01*
X178479248Y-97376669D01*
X178488388Y-97406534D01*
X178494202Y-97426038D01*
X178496240Y-97433732D01*
X178492439Y-97437419D01*
X178479840Y-97439507D01*
X178472572Y-97438888D01*
X178452169Y-97436712D01*
X178419858Y-97433085D01*
X178376661Y-97428126D01*
X178323599Y-97421956D01*
X178261694Y-97414694D01*
X178191968Y-97406460D01*
X178115442Y-97397374D01*
X178033137Y-97387557D01*
X177946075Y-97377127D01*
X177855278Y-97366206D01*
X177247116Y-97292904D01*
X176626231Y-97367562D01*
X176625613Y-97367637D01*
X176534210Y-97378571D01*
X176446773Y-97388924D01*
X176364287Y-97398584D01*
X176287735Y-97407441D01*
X176218105Y-97415385D01*
X176156379Y-97422305D01*
X176103544Y-97428090D01*
X176060584Y-97432631D01*
X176028485Y-97435817D01*
X176008230Y-97437537D01*
X176000806Y-97437681D01*
X176000711Y-97436494D01*
X176003168Y-97424726D01*
X176009317Y-97401649D01*
X176018738Y-97368691D01*
X176031008Y-97327284D01*
X176045705Y-97278858D01*
X176062409Y-97224842D01*
X176080697Y-97166667D01*
X176087175Y-97146200D01*
X176105166Y-97089123D01*
X176121609Y-97036609D01*
X176136059Y-96990109D01*
X176148069Y-96951073D01*
X176157191Y-96920948D01*
X176162979Y-96901185D01*
X176164987Y-96893233D01*
X176161715Y-96890436D01*
X176147666Y-96880414D01*
X176123198Y-96863629D01*
X176089024Y-96840551D01*
X176045855Y-96811654D01*
X175994402Y-96777407D01*
X175935378Y-96738282D01*
X175869493Y-96694752D01*
X175797460Y-96647288D01*
X175719991Y-96596360D01*
X175637796Y-96542441D01*
X175551587Y-96486002D01*
X175462077Y-96427515D01*
X175394244Y-96383210D01*
X175307173Y-96326264D01*
X175223943Y-96271746D01*
X175145264Y-96220125D01*
X175071847Y-96171870D01*
X175004404Y-96127452D01*
X174943646Y-96087340D01*
X174890284Y-96052004D01*
X174845029Y-96021913D01*
X174808593Y-95997538D01*
X174781687Y-95979347D01*
X174765021Y-95967811D01*
X174759308Y-95963400D01*
X174762775Y-95960294D01*
X174776810Y-95950997D01*
X174800102Y-95936666D01*
X174831012Y-95918285D01*
X174867901Y-95896840D01*
X174909131Y-95873317D01*
X174924667Y-95864511D01*
X174970183Y-95838366D01*
X175004781Y-95817804D01*
X175029537Y-95802116D01*
X175045528Y-95790598D01*
X175053831Y-95782541D01*
X175055520Y-95777241D01*
X175055361Y-95776708D01*
X175051676Y-95763312D01*
X175045142Y-95738557D01*
X175036108Y-95703823D01*
X175024924Y-95660491D01*
X175011941Y-95609940D01*
X174997509Y-95553551D01*
X174981977Y-95492704D01*
X174965697Y-95428779D01*
X174949017Y-95363155D01*
X174932289Y-95297214D01*
X174915863Y-95232334D01*
X174900087Y-95169897D01*
X174885314Y-95111282D01*
X174871892Y-95057869D01*
X174860172Y-95011039D01*
X174850504Y-94972171D01*
X174843239Y-94942646D01*
X174838725Y-94923843D01*
X174837314Y-94917143D01*
X174837325Y-94917137D01*
X174844611Y-94918198D01*
X174864187Y-94921708D01*
X174894718Y-94927412D01*
X174934872Y-94935055D01*
X174983315Y-94944382D01*
X175038712Y-94955137D01*
X175099730Y-94967064D01*
X175165035Y-94979908D01*
X175187801Y-94984407D01*
X175265698Y-94999955D01*
X175330972Y-95013271D01*
X175384472Y-95024547D01*
X175427044Y-95033977D01*
X175459539Y-95041752D01*
X175482805Y-95048066D01*
X175497690Y-95053111D01*
X175505043Y-95057079D01*
X175512794Y-95065114D01*
X175529896Y-95085504D01*
X175552918Y-95114854D01*
X175580751Y-95151639D01*
X175612284Y-95194339D01*
X175646408Y-95241430D01*
X175682011Y-95291389D01*
X175717985Y-95342694D01*
X175753218Y-95393822D01*
X175786601Y-95443251D01*
X175798921Y-95461772D01*
X175899874Y-95618296D01*
X175998924Y-95780171D01*
X176094913Y-95945251D01*
X176186684Y-96111390D01*
X176273078Y-96276442D01*
X176352937Y-96438261D01*
X176425104Y-96594701D01*
X176488418Y-96743617D01*
X176500499Y-96774206D01*
X176517723Y-96819849D01*
X176535720Y-96869443D01*
X176553672Y-96920567D01*
X176570758Y-96970799D01*
X176586156Y-97017717D01*
X176599047Y-97058900D01*
X176608610Y-97091926D01*
X176614025Y-97114372D01*
X176614986Y-97119069D01*
X176619467Y-97134181D01*
X176623713Y-97140274D01*
X176628568Y-97136872D01*
X176641604Y-97124309D01*
X176661151Y-97103948D01*
X176685830Y-97077329D01*
X176714257Y-97045989D01*
X176745051Y-97011468D01*
X176776829Y-96975306D01*
X176808212Y-96939040D01*
X176837815Y-96904211D01*
X176864259Y-96872357D01*
X176875059Y-96859070D01*
X176961886Y-96746225D01*
X177043349Y-96628810D01*
X177121507Y-96503716D01*
X177198418Y-96367836D01*
X177213891Y-96339556D01*
X177227753Y-96314848D01*
X177238070Y-96297146D01*
X177243337Y-96289088D01*
X177247868Y-96292579D01*
X177257976Y-96306505D01*
X177272430Y-96329166D01*
X177290083Y-96358757D01*
X177309784Y-96393471D01*
X177336242Y-96440615D01*
X177393328Y-96538035D01*
X177449179Y-96626812D01*
X177505916Y-96710123D01*
X177565665Y-96791140D01*
X177630547Y-96873040D01*
X177651732Y-96898628D01*
X177680745Y-96932889D01*
X177711814Y-96968897D01*
X177743554Y-97005108D01*
X177774580Y-97039981D01*
X177803508Y-97071973D01*
X177828950Y-97099541D01*
X177849524Y-97121142D01*
X177863842Y-97135234D01*
X177870519Y-97140274D01*
X177871476Y-97139845D01*
X177875949Y-97131015D01*
X177880207Y-97114372D01*
X177883920Y-97098346D01*
X177892566Y-97067629D01*
X177904736Y-97028176D01*
X177919609Y-96982409D01*
X177936366Y-96932749D01*
X177954185Y-96881618D01*
X177972246Y-96831438D01*
X177989730Y-96784630D01*
X178005814Y-96743617D01*
X178069612Y-96593546D01*
X178143083Y-96434352D01*
X178224394Y-96269847D01*
X178312397Y-96102163D01*
X178405942Y-95933429D01*
X178503877Y-95765776D01*
X178605054Y-95601334D01*
X178708323Y-95442234D01*
X178730181Y-95409745D01*
X178764952Y-95358969D01*
X178800829Y-95307524D01*
X178836700Y-95256937D01*
X178871452Y-95208732D01*
X178903972Y-95164433D01*
X178933149Y-95125566D01*
X178957870Y-95093656D01*
X178977022Y-95070227D01*
X178989494Y-95056804D01*
X178991963Y-95055085D01*
X179002122Y-95050729D01*
X179019618Y-95045330D01*
X179045357Y-95038683D01*
X179080248Y-95030580D01*
X179125200Y-95020815D01*
X179181121Y-95009182D01*
X179248919Y-94995474D01*
X179329502Y-94979484D01*
X179330620Y-94979263D01*
X179395834Y-94966455D01*
X179456737Y-94954572D01*
X179511997Y-94943871D01*
X179560277Y-94934605D01*
X179600244Y-94927030D01*
X179630563Y-94921400D01*
X179649899Y-94917970D01*
X179656919Y-94916994D01*
X179656928Y-94917044D01*
G36*
X178147569Y-94748272D02*
G01*
X178139758Y-94831350D01*
X178132585Y-94908336D01*
X178126137Y-94978261D01*
X178120503Y-95040155D01*
X178115771Y-95093047D01*
X178112029Y-95135966D01*
X178109366Y-95167944D01*
X178107871Y-95188009D01*
X178107632Y-95195192D01*
X178111651Y-95192444D01*
X178125230Y-95181309D01*
X178147494Y-95162390D01*
X178177518Y-95136492D01*
X178214378Y-95104418D01*
X178257150Y-95066973D01*
X178304909Y-95024962D01*
X178356732Y-94979191D01*
X178411695Y-94930462D01*
X178457625Y-94889726D01*
X178510218Y-94843228D01*
X178558976Y-94800283D01*
X178602962Y-94761706D01*
X178641241Y-94728313D01*
X178672876Y-94700921D01*
X178696932Y-94680345D01*
X178712474Y-94667401D01*
X178718564Y-94662905D01*
X178720529Y-94664291D01*
X178723710Y-94669510D01*
X178728466Y-94679722D01*
X178735249Y-94696082D01*
X178744511Y-94719748D01*
X178756704Y-94751874D01*
X178772280Y-94793618D01*
X178791692Y-94846136D01*
X178815390Y-94910583D01*
X178836063Y-94966892D01*
X178776763Y-95035302D01*
X178770327Y-95042745D01*
X178700649Y-95125442D01*
X178627292Y-95216070D01*
X178551243Y-95313213D01*
X178473490Y-95415454D01*
X178395022Y-95521379D01*
X178316827Y-95629572D01*
X178239892Y-95738616D01*
X178165205Y-95847097D01*
X178093755Y-95953597D01*
X178026530Y-96056702D01*
X177964517Y-96154995D01*
X177908705Y-96247061D01*
X177860081Y-96331484D01*
X177819633Y-96406849D01*
X177812359Y-96420659D01*
X177799930Y-96442340D01*
X177790315Y-96456639D01*
X177785150Y-96460989D01*
X177781239Y-96456356D01*
X177771164Y-96441856D01*
X177756952Y-96420104D01*
X177740327Y-96393689D01*
X177679266Y-96289714D01*
X177616987Y-96170822D01*
X177559074Y-96045539D01*
X177505153Y-95912803D01*
X177454849Y-95771556D01*
X177407786Y-95620738D01*
X177363589Y-95459290D01*
X177321883Y-95286152D01*
X177282292Y-95100266D01*
X177246467Y-94921764D01*
X177226750Y-95027197D01*
X177204977Y-95137766D01*
X177176991Y-95266948D01*
X177146551Y-95395606D01*
X177114485Y-95520397D01*
X177081621Y-95637980D01*
X177048788Y-95745014D01*
X177030580Y-95799383D01*
X176993671Y-95900387D01*
X176952894Y-96001821D01*
X176909339Y-96101337D01*
X176864096Y-96196587D01*
X176818257Y-96285222D01*
X176772912Y-96364895D01*
X176729151Y-96433258D01*
X176706195Y-96466623D01*
X176668404Y-96395437D01*
X176634740Y-96333807D01*
X176579009Y-96237410D01*
X176515760Y-96133499D01*
X176446120Y-96023683D01*
X176371214Y-95909573D01*
X176292167Y-95792779D01*
X176210106Y-95674911D01*
X176126156Y-95557578D01*
X176041443Y-95442391D01*
X175957092Y-95330960D01*
X175874229Y-95224895D01*
X175793980Y-95125806D01*
X175717470Y-95035302D01*
X175658169Y-94966892D01*
X175678843Y-94910583D01*
X175701485Y-94849004D01*
X175721093Y-94795939D01*
X175736845Y-94753702D01*
X175749195Y-94721138D01*
X175758595Y-94697089D01*
X175765497Y-94680398D01*
X175770354Y-94669908D01*
X175773618Y-94664463D01*
X175775743Y-94662905D01*
X175780114Y-94666018D01*
X175794121Y-94677587D01*
X175816799Y-94696931D01*
X175847211Y-94723233D01*
X175884422Y-94755676D01*
X175927496Y-94793445D01*
X175975496Y-94835723D01*
X176027488Y-94881694D01*
X176082535Y-94930540D01*
X176128851Y-94971646D01*
X176181220Y-95017959D01*
X176229678Y-95060636D01*
X176273300Y-95098873D01*
X176311162Y-95131863D01*
X176342339Y-95158803D01*
X176365908Y-95178887D01*
X176380944Y-95191311D01*
X176386523Y-95195269D01*
X176386576Y-95195010D01*
X176386134Y-95185619D01*
X176384450Y-95163507D01*
X176381613Y-95129643D01*
X176377711Y-95084998D01*
X176372832Y-95030541D01*
X176367064Y-94967244D01*
X176360497Y-94896077D01*
X176353217Y-94818010D01*
X176345314Y-94734014D01*
X176337356Y-94650124D01*
X176994304Y-94650124D01*
X176999692Y-94648124D01*
X177012334Y-94638419D01*
X177030144Y-94622553D01*
X177080115Y-94583563D01*
X177137724Y-94554343D01*
X177198523Y-94538010D01*
X177261135Y-94534774D01*
X177324184Y-94544844D01*
X177386294Y-94568429D01*
X177414178Y-94584308D01*
X177444768Y-94605313D01*
X177469386Y-94625806D01*
X177471428Y-94627764D01*
X177487208Y-94641970D01*
X177497433Y-94649501D01*
X177499976Y-94648759D01*
X177497413Y-94640879D01*
X177491052Y-94620811D01*
X177481285Y-94589795D01*
X177468484Y-94549021D01*
X177453023Y-94499677D01*
X177435272Y-94442951D01*
X177415605Y-94380032D01*
X177394395Y-94312109D01*
X177372013Y-94240370D01*
X177349789Y-94169196D01*
X177328755Y-94102005D01*
X177309322Y-94040100D01*
X177291851Y-93984624D01*
X177276705Y-93936722D01*
X177264244Y-93897536D01*
X177254831Y-93868210D01*
X177248826Y-93849888D01*
X177246592Y-93843712D01*
X177244465Y-93850103D01*
X177238550Y-93868658D01*
X177229216Y-93898219D01*
X177216825Y-93937628D01*
X177201739Y-93985728D01*
X177184323Y-94041361D01*
X177164938Y-94103371D01*
X177143949Y-94170600D01*
X177121716Y-94241891D01*
X177100456Y-94310085D01*
X177079239Y-94378097D01*
X177059552Y-94441164D01*
X177041766Y-94498096D01*
X177026255Y-94547698D01*
X177013392Y-94588781D01*
X177003549Y-94620151D01*
X176997099Y-94640617D01*
X176994415Y-94648987D01*
X176994304Y-94650124D01*
X176337356Y-94650124D01*
X176336875Y-94645058D01*
X176327990Y-94552113D01*
X176326516Y-94536747D01*
X176317716Y-94444345D01*
X176309406Y-94356064D01*
X176301672Y-94272876D01*
X176294601Y-94195755D01*
X176288278Y-94125673D01*
X176282791Y-94063605D01*
X176278225Y-94010522D01*
X176274666Y-93967399D01*
X176272201Y-93935208D01*
X176270916Y-93914923D01*
X176270896Y-93907517D01*
X176270945Y-93907482D01*
X176278553Y-93909382D01*
X176297397Y-93916293D01*
X176326039Y-93927625D01*
X176363041Y-93942790D01*
X176406963Y-93961198D01*
X176456367Y-93982260D01*
X176509813Y-94005385D01*
X176566716Y-94030076D01*
X176620045Y-94052916D01*
X176662634Y-94070728D01*
X176695506Y-94083909D01*
X176719683Y-94092851D01*
X176736186Y-94097950D01*
X176746039Y-94099601D01*
X176750262Y-94098197D01*
X176753257Y-94092958D01*
X176762616Y-94076270D01*
X176777723Y-94049205D01*
X176798027Y-94012755D01*
X176822977Y-93967908D01*
X176852022Y-93915656D01*
X176884613Y-93856988D01*
X176920198Y-93792895D01*
X176958227Y-93724367D01*
X176998149Y-93652394D01*
X177031420Y-93592517D01*
X177069783Y-93523778D01*
X177105831Y-93459515D01*
X177139013Y-93400690D01*
X177168779Y-93348269D01*
X177194579Y-93303215D01*
X177215863Y-93266494D01*
X177232080Y-93239069D01*
X177242682Y-93221905D01*
X177247116Y-93215967D01*
X177251011Y-93221091D01*
X177261178Y-93237489D01*
X177277009Y-93264238D01*
X177297958Y-93300382D01*
X177323483Y-93344967D01*
X177353038Y-93397036D01*
X177386080Y-93455636D01*
X177422064Y-93519811D01*
X177460447Y-93588606D01*
X177500685Y-93661066D01*
X177538218Y-93728763D01*
X177576556Y-93797804D01*
X177612429Y-93862293D01*
X177645303Y-93921279D01*
X177674644Y-93973806D01*
X177699919Y-94018922D01*
X177720594Y-94055672D01*
X177736136Y-94083103D01*
X177746011Y-94100261D01*
X177749687Y-94106192D01*
X177749701Y-94106191D01*
X177756647Y-94103405D01*
X177774891Y-94095683D01*
X177803000Y-94083642D01*
X177839543Y-94067899D01*
X177883090Y-94049069D01*
X177932210Y-94027770D01*
X177985471Y-94004618D01*
X177986572Y-94004139D01*
X178039821Y-93981139D01*
X178088997Y-93960218D01*
X178132658Y-93941966D01*
X178169360Y-93926974D01*
X178197658Y-93915832D01*
X178216110Y-93909128D01*
X178223273Y-93907454D01*
X178223361Y-93907742D01*
X178223139Y-93917320D01*
X178221665Y-93939617D01*
X178219024Y-93973661D01*
X178215303Y-94018479D01*
X178210588Y-94073098D01*
X178204965Y-94136543D01*
X178198520Y-94207843D01*
X178191339Y-94286023D01*
X178183508Y-94370110D01*
X178175114Y-94459131D01*
X178166243Y-94552113D01*
X178164746Y-94567724D01*
X178157007Y-94648759D01*
X178155927Y-94660073D01*
X178147569Y-94748272D01*
G37*
X178147569Y-94748272D02*
X178139758Y-94831350D01*
X178132585Y-94908336D01*
X178126137Y-94978261D01*
X178120503Y-95040155D01*
X178115771Y-95093047D01*
X178112029Y-95135966D01*
X178109366Y-95167944D01*
X178107871Y-95188009D01*
X178107632Y-95195192D01*
X178111651Y-95192444D01*
X178125230Y-95181309D01*
X178147494Y-95162390D01*
X178177518Y-95136492D01*
X178214378Y-95104418D01*
X178257150Y-95066973D01*
X178304909Y-95024962D01*
X178356732Y-94979191D01*
X178411695Y-94930462D01*
X178457625Y-94889726D01*
X178510218Y-94843228D01*
X178558976Y-94800283D01*
X178602962Y-94761706D01*
X178641241Y-94728313D01*
X178672876Y-94700921D01*
X178696932Y-94680345D01*
X178712474Y-94667401D01*
X178718564Y-94662905D01*
X178720529Y-94664291D01*
X178723710Y-94669510D01*
X178728466Y-94679722D01*
X178735249Y-94696082D01*
X178744511Y-94719748D01*
X178756704Y-94751874D01*
X178772280Y-94793618D01*
X178791692Y-94846136D01*
X178815390Y-94910583D01*
X178836063Y-94966892D01*
X178776763Y-95035302D01*
X178770327Y-95042745D01*
X178700649Y-95125442D01*
X178627292Y-95216070D01*
X178551243Y-95313213D01*
X178473490Y-95415454D01*
X178395022Y-95521379D01*
X178316827Y-95629572D01*
X178239892Y-95738616D01*
X178165205Y-95847097D01*
X178093755Y-95953597D01*
X178026530Y-96056702D01*
X177964517Y-96154995D01*
X177908705Y-96247061D01*
X177860081Y-96331484D01*
X177819633Y-96406849D01*
X177812359Y-96420659D01*
X177799930Y-96442340D01*
X177790315Y-96456639D01*
X177785150Y-96460989D01*
X177781239Y-96456356D01*
X177771164Y-96441856D01*
X177756952Y-96420104D01*
X177740327Y-96393689D01*
X177679266Y-96289714D01*
X177616987Y-96170822D01*
X177559074Y-96045539D01*
X177505153Y-95912803D01*
X177454849Y-95771556D01*
X177407786Y-95620738D01*
X177363589Y-95459290D01*
X177321883Y-95286152D01*
X177282292Y-95100266D01*
X177246467Y-94921764D01*
X177226750Y-95027197D01*
X177204977Y-95137766D01*
X177176991Y-95266948D01*
X177146551Y-95395606D01*
X177114485Y-95520397D01*
X177081621Y-95637980D01*
X177048788Y-95745014D01*
X177030580Y-95799383D01*
X176993671Y-95900387D01*
X176952894Y-96001821D01*
X176909339Y-96101337D01*
X176864096Y-96196587D01*
X176818257Y-96285222D01*
X176772912Y-96364895D01*
X176729151Y-96433258D01*
X176706195Y-96466623D01*
X176668404Y-96395437D01*
X176634740Y-96333807D01*
X176579009Y-96237410D01*
X176515760Y-96133499D01*
X176446120Y-96023683D01*
X176371214Y-95909573D01*
X176292167Y-95792779D01*
X176210106Y-95674911D01*
X176126156Y-95557578D01*
X176041443Y-95442391D01*
X175957092Y-95330960D01*
X175874229Y-95224895D01*
X175793980Y-95125806D01*
X175717470Y-95035302D01*
X175658169Y-94966892D01*
X175678843Y-94910583D01*
X175701485Y-94849004D01*
X175721093Y-94795939D01*
X175736845Y-94753702D01*
X175749195Y-94721138D01*
X175758595Y-94697089D01*
X175765497Y-94680398D01*
X175770354Y-94669908D01*
X175773618Y-94664463D01*
X175775743Y-94662905D01*
X175780114Y-94666018D01*
X175794121Y-94677587D01*
X175816799Y-94696931D01*
X175847211Y-94723233D01*
X175884422Y-94755676D01*
X175927496Y-94793445D01*
X175975496Y-94835723D01*
X176027488Y-94881694D01*
X176082535Y-94930540D01*
X176128851Y-94971646D01*
X176181220Y-95017959D01*
X176229678Y-95060636D01*
X176273300Y-95098873D01*
X176311162Y-95131863D01*
X176342339Y-95158803D01*
X176365908Y-95178887D01*
X176380944Y-95191311D01*
X176386523Y-95195269D01*
X176386576Y-95195010D01*
X176386134Y-95185619D01*
X176384450Y-95163507D01*
X176381613Y-95129643D01*
X176377711Y-95084998D01*
X176372832Y-95030541D01*
X176367064Y-94967244D01*
X176360497Y-94896077D01*
X176353217Y-94818010D01*
X176345314Y-94734014D01*
X176337356Y-94650124D01*
X176994304Y-94650124D01*
X176999692Y-94648124D01*
X177012334Y-94638419D01*
X177030144Y-94622553D01*
X177080115Y-94583563D01*
X177137724Y-94554343D01*
X177198523Y-94538010D01*
X177261135Y-94534774D01*
X177324184Y-94544844D01*
X177386294Y-94568429D01*
X177414178Y-94584308D01*
X177444768Y-94605313D01*
X177469386Y-94625806D01*
X177471428Y-94627764D01*
X177487208Y-94641970D01*
X177497433Y-94649501D01*
X177499976Y-94648759D01*
X177497413Y-94640879D01*
X177491052Y-94620811D01*
X177481285Y-94589795D01*
X177468484Y-94549021D01*
X177453023Y-94499677D01*
X177435272Y-94442951D01*
X177415605Y-94380032D01*
X177394395Y-94312109D01*
X177372013Y-94240370D01*
X177349789Y-94169196D01*
X177328755Y-94102005D01*
X177309322Y-94040100D01*
X177291851Y-93984624D01*
X177276705Y-93936722D01*
X177264244Y-93897536D01*
X177254831Y-93868210D01*
X177248826Y-93849888D01*
X177246592Y-93843712D01*
X177244465Y-93850103D01*
X177238550Y-93868658D01*
X177229216Y-93898219D01*
X177216825Y-93937628D01*
X177201739Y-93985728D01*
X177184323Y-94041361D01*
X177164938Y-94103371D01*
X177143949Y-94170600D01*
X177121716Y-94241891D01*
X177100456Y-94310085D01*
X177079239Y-94378097D01*
X177059552Y-94441164D01*
X177041766Y-94498096D01*
X177026255Y-94547698D01*
X177013392Y-94588781D01*
X177003549Y-94620151D01*
X176997099Y-94640617D01*
X176994415Y-94648987D01*
X176994304Y-94650124D01*
X176337356Y-94650124D01*
X176336875Y-94645058D01*
X176327990Y-94552113D01*
X176326516Y-94536747D01*
X176317716Y-94444345D01*
X176309406Y-94356064D01*
X176301672Y-94272876D01*
X176294601Y-94195755D01*
X176288278Y-94125673D01*
X176282791Y-94063605D01*
X176278225Y-94010522D01*
X176274666Y-93967399D01*
X176272201Y-93935208D01*
X176270916Y-93914923D01*
X176270896Y-93907517D01*
X176270945Y-93907482D01*
X176278553Y-93909382D01*
X176297397Y-93916293D01*
X176326039Y-93927625D01*
X176363041Y-93942790D01*
X176406963Y-93961198D01*
X176456367Y-93982260D01*
X176509813Y-94005385D01*
X176566716Y-94030076D01*
X176620045Y-94052916D01*
X176662634Y-94070728D01*
X176695506Y-94083909D01*
X176719683Y-94092851D01*
X176736186Y-94097950D01*
X176746039Y-94099601D01*
X176750262Y-94098197D01*
X176753257Y-94092958D01*
X176762616Y-94076270D01*
X176777723Y-94049205D01*
X176798027Y-94012755D01*
X176822977Y-93967908D01*
X176852022Y-93915656D01*
X176884613Y-93856988D01*
X176920198Y-93792895D01*
X176958227Y-93724367D01*
X176998149Y-93652394D01*
X177031420Y-93592517D01*
X177069783Y-93523778D01*
X177105831Y-93459515D01*
X177139013Y-93400690D01*
X177168779Y-93348269D01*
X177194579Y-93303215D01*
X177215863Y-93266494D01*
X177232080Y-93239069D01*
X177242682Y-93221905D01*
X177247116Y-93215967D01*
X177251011Y-93221091D01*
X177261178Y-93237489D01*
X177277009Y-93264238D01*
X177297958Y-93300382D01*
X177323483Y-93344967D01*
X177353038Y-93397036D01*
X177386080Y-93455636D01*
X177422064Y-93519811D01*
X177460447Y-93588606D01*
X177500685Y-93661066D01*
X177538218Y-93728763D01*
X177576556Y-93797804D01*
X177612429Y-93862293D01*
X177645303Y-93921279D01*
X177674644Y-93973806D01*
X177699919Y-94018922D01*
X177720594Y-94055672D01*
X177736136Y-94083103D01*
X177746011Y-94100261D01*
X177749687Y-94106192D01*
X177749701Y-94106191D01*
X177756647Y-94103405D01*
X177774891Y-94095683D01*
X177803000Y-94083642D01*
X177839543Y-94067899D01*
X177883090Y-94049069D01*
X177932210Y-94027770D01*
X177985471Y-94004618D01*
X177986572Y-94004139D01*
X178039821Y-93981139D01*
X178088997Y-93960218D01*
X178132658Y-93941966D01*
X178169360Y-93926974D01*
X178197658Y-93915832D01*
X178216110Y-93909128D01*
X178223273Y-93907454D01*
X178223361Y-93907742D01*
X178223139Y-93917320D01*
X178221665Y-93939617D01*
X178219024Y-93973661D01*
X178215303Y-94018479D01*
X178210588Y-94073098D01*
X178204965Y-94136543D01*
X178198520Y-94207843D01*
X178191339Y-94286023D01*
X178183508Y-94370110D01*
X178175114Y-94459131D01*
X178166243Y-94552113D01*
X178164746Y-94567724D01*
X178157007Y-94648759D01*
X178155927Y-94660073D01*
X178147569Y-94748272D01*
D14*
X166370000Y-123139200D02*
G75*
G03*
X166370000Y-123139200I-1270000J0D01*
G01*
X178620000Y-108475000D02*
G75*
G03*
X178620000Y-108475000I-1270000J0D01*
G01*
D11*
X176147936Y-112410000D02*
X176602064Y-112410000D01*
X176147936Y-110940000D02*
X176602064Y-110940000D01*
X157227200Y-103090136D02*
X157227200Y-103544264D01*
X158697200Y-103090136D02*
X158697200Y-103544264D01*
D14*
X158770000Y-137975000D02*
G75*
G03*
X158770000Y-137975000I-1270000J0D01*
G01*
X152395000Y-97000000D02*
G75*
G03*
X152395000Y-97000000I-1270000J0D01*
G01*
D11*
X180941825Y-129013942D02*
X180941825Y-128559814D01*
X179471825Y-129013942D02*
X179471825Y-128559814D01*
X181208940Y-114273064D02*
X181208940Y-113818936D01*
X179738940Y-114273064D02*
X179738940Y-113818936D01*
D14*
X191670000Y-96700000D02*
G75*
G03*
X191670000Y-96700000I-1270000J0D01*
G01*
D11*
X172153957Y-103563064D02*
X172153957Y-103108936D01*
X170683957Y-103563064D02*
X170683957Y-103108936D01*
X186901064Y-108435000D02*
X186446936Y-108435000D01*
X186901064Y-106965000D02*
X186446936Y-106965000D01*
X182177201Y-103049336D02*
X182177201Y-103503464D01*
X183647201Y-103049336D02*
X183647201Y-103503464D01*
D14*
X193270000Y-111500000D02*
G75*
G03*
X193270000Y-111500000I-1270000J0D01*
G01*
X165070000Y-133000000D02*
G75*
G03*
X165070000Y-133000000I-1270000J0D01*
G01*
G36*
X157763700Y-110439200D02*
G01*
X149381700Y-110439200D01*
X149381700Y-108000800D01*
X157763700Y-108000800D01*
X157763700Y-110439200D01*
G37*
D12*
X157763700Y-110439200D02*
X149381700Y-110439200D01*
X149381700Y-108000800D01*
X157763700Y-108000800D01*
X157763700Y-110439200D01*
X157827500Y-107950000D02*
X149327500Y-107950000D01*
X149327500Y-107950000D02*
X149327500Y-120650000D01*
X157827500Y-113030000D02*
X149327500Y-113030000D01*
X157827500Y-115570000D02*
X149327500Y-115570000D01*
X157827500Y-110490000D02*
X149327500Y-110490000D01*
X157827500Y-118110000D02*
X149327500Y-118110000D01*
X157827500Y-120650000D02*
X149327500Y-120650000D01*
X157827500Y-107950000D02*
X157827500Y-120650000D01*
D11*
X187663064Y-130335000D02*
X187208936Y-130335000D01*
X187663064Y-128865000D02*
X187208936Y-128865000D01*
D14*
X173456600Y-111506000D02*
G75*
G03*
X173456600Y-111506000I-1270000J0D01*
G01*
X167270000Y-129700000D02*
G75*
G03*
X167270000Y-129700000I-1270000J0D01*
G01*
D11*
X187663200Y-132923000D02*
X188663200Y-132923000D01*
X187663200Y-130983000D02*
X188663200Y-130983000D01*
X160377200Y-103100136D02*
X160377200Y-103554264D01*
X161847200Y-103100136D02*
X161847200Y-103554264D01*
X179097000Y-103540234D02*
X179097000Y-103086106D01*
X180567000Y-103540234D02*
X180567000Y-103086106D01*
X182138000Y-122174000D02*
X182138000Y-120224000D01*
X177018000Y-122174000D02*
X177018000Y-120224000D01*
X182138000Y-122174000D02*
X182138000Y-125624000D01*
X177018000Y-122174000D02*
X177018000Y-124124000D01*
X189711000Y-123941064D02*
X189711000Y-123486936D01*
X188241000Y-123941064D02*
X188241000Y-123486936D01*
D14*
X176070000Y-125400000D02*
G75*
G03*
X176070000Y-125400000I-1270000J0D01*
G01*
X176370000Y-122200000D02*
G75*
G03*
X176370000Y-122200000I-1270000J0D01*
G01*
D11*
X176706876Y-127313000D02*
X177161004Y-127313000D01*
X176706876Y-128783000D02*
X177161004Y-128783000D01*
D14*
X175970000Y-116400000D02*
G75*
G03*
X175970000Y-116400000I-1270000J0D01*
G01*
D11*
X186767736Y-116841600D02*
X187221864Y-116841600D01*
X186767736Y-118311600D02*
X187221864Y-118311600D01*
X152484064Y-106653000D02*
X152029936Y-106653000D01*
X152484064Y-105183000D02*
X152029936Y-105183000D01*
X176557000Y-103524234D02*
X176557000Y-103070106D01*
X178027000Y-103524234D02*
X178027000Y-103070106D01*
X163396800Y-103549264D02*
X163396800Y-103095136D01*
X164866800Y-103549264D02*
X164866800Y-103095136D01*
X186409000Y-103519464D02*
X186409000Y-103065336D01*
X184939000Y-103519464D02*
X184939000Y-103065336D01*
X166263582Y-103095136D02*
X166263582Y-103549264D01*
X167733582Y-103095136D02*
X167733582Y-103549264D01*
D14*
X168870000Y-136800000D02*
G75*
G03*
X168870000Y-136800000I-1270000J0D01*
G01*
D11*
X184972936Y-124165000D02*
X185427064Y-124165000D01*
X184972936Y-125635000D02*
X185427064Y-125635000D01*
X186834876Y-110295000D02*
X187289004Y-110295000D01*
X186834876Y-111765000D02*
X187289004Y-111765000D01*
%LPC*%
D16*
X190500000Y-139700000D03*
X152400000Y-139700000D03*
X152400000Y-101600000D03*
D17*
X163982400Y-111490000D03*
X163982400Y-109490000D03*
D18*
X170790427Y-114649833D03*
X191110427Y-114649833D03*
X170790427Y-134969833D03*
X191110427Y-134969833D03*
D19*
X169520427Y-118459833D03*
X169520427Y-120999833D03*
X169520427Y-123539833D03*
X169520427Y-126079833D03*
X169520427Y-128619833D03*
X169520427Y-131159833D03*
X192380427Y-131159833D03*
X192380427Y-128619833D03*
X192380427Y-126079833D03*
X192380427Y-123539833D03*
X192380427Y-120999833D03*
X192380427Y-118459833D03*
D20*
X180594000Y-133350000D03*
X185594000Y-133350000D03*
D21*
X151880000Y-133760000D03*
X151880000Y-122760000D03*
D22*
X150880000Y-126260000D03*
D23*
X150880000Y-128260000D03*
X150880000Y-130260000D03*
X152880000Y-126260000D03*
X152880000Y-128260000D03*
X152880000Y-130260000D03*
D24*
X168966206Y-99325604D03*
D25*
X166966206Y-99325604D03*
D26*
X158180000Y-106925800D03*
D27*
X160720000Y-106925800D03*
X163260000Y-106925800D03*
X165800000Y-106925800D03*
D24*
X177947147Y-99314004D03*
D25*
X175947147Y-99314004D03*
X173947147Y-99314004D03*
D16*
X190500000Y-101600000D03*
D24*
X161981052Y-99299249D03*
D25*
X159981052Y-99299249D03*
X157981052Y-99299249D03*
D24*
X184926510Y-99314004D03*
D25*
X182926510Y-99314004D03*
D28*
X167760000Y-116240000D03*
X164650000Y-116280000D03*
X165105768Y-119955193D03*
D29*
X183408948Y-119698294D03*
X183408948Y-121773294D03*
D28*
X167934830Y-133649623D03*
X185300000Y-141200000D03*
X153800000Y-95225000D03*
D17*
X174244000Y-132826000D03*
X174244000Y-130826000D03*
D30*
X163400000Y-130537500D03*
X163400000Y-128462500D03*
D28*
X157480000Y-141100000D03*
D31*
X175400000Y-113900000D03*
X177400000Y-113900000D03*
D32*
X181800000Y-107300000D03*
X179800000Y-107300000D03*
D33*
X183775940Y-113046000D03*
X183775940Y-115046000D03*
D34*
X160575000Y-128295000D03*
X160575000Y-129565000D03*
X160575000Y-130835000D03*
X160575000Y-132105000D03*
X155625000Y-132105000D03*
X155625000Y-130835000D03*
X155625000Y-129565000D03*
X155625000Y-128295000D03*
D33*
X174014165Y-102336000D03*
X174014165Y-104336000D03*
D35*
X187861940Y-114300000D03*
X187861940Y-115300000D03*
X186061940Y-115300000D03*
X186061940Y-114300000D03*
D33*
X191770000Y-106848400D03*
X191770000Y-108848400D03*
D17*
X172100000Y-128000000D03*
X172100000Y-126000000D03*
D28*
X182100000Y-141200000D03*
D32*
X186200000Y-127300000D03*
X184200000Y-127300000D03*
D28*
X165100000Y-123139200D03*
X177350000Y-108475000D03*
D31*
X175375000Y-111675000D03*
X177375000Y-111675000D03*
D33*
X157962200Y-102317200D03*
X157962200Y-104317200D03*
D28*
X157500000Y-137975000D03*
X151125000Y-97000000D03*
D17*
X180206825Y-129786878D03*
X180206825Y-127786878D03*
X180473940Y-115046000D03*
X180473940Y-113046000D03*
D28*
X190400000Y-96700000D03*
D17*
X171418957Y-104336000D03*
X171418957Y-102336000D03*
D32*
X187674000Y-107700000D03*
X185674000Y-107700000D03*
D33*
X182912201Y-102276400D03*
X182912201Y-104276400D03*
D28*
X192000000Y-111500000D03*
X163800000Y-133000000D03*
D36*
X160227500Y-119380000D03*
X160227500Y-116840000D03*
X160227500Y-114300000D03*
X160227500Y-111760000D03*
X160227500Y-109220000D03*
D32*
X188436000Y-129600000D03*
X186436000Y-129600000D03*
D28*
X172186600Y-111506000D03*
X166000000Y-129700000D03*
D35*
X187263200Y-131453000D03*
X187263200Y-132453000D03*
X189063200Y-132453000D03*
X189063200Y-131453000D03*
D33*
X161112200Y-102327200D03*
X161112200Y-104327200D03*
D17*
X179832000Y-104313170D03*
X179832000Y-102313170D03*
D37*
X181483000Y-124649000D03*
X180213000Y-124649000D03*
X178943000Y-124649000D03*
X177673000Y-124649000D03*
X177673000Y-119699000D03*
X178943000Y-119699000D03*
X180213000Y-119699000D03*
X181483000Y-119699000D03*
D17*
X188976000Y-124714000D03*
X188976000Y-122714000D03*
D28*
X174800000Y-125400000D03*
X175100000Y-122200000D03*
D31*
X175933940Y-128048000D03*
X177933940Y-128048000D03*
D28*
X174700000Y-116400000D03*
D31*
X185994800Y-117576600D03*
X187994800Y-117576600D03*
D32*
X153257000Y-105918000D03*
X151257000Y-105918000D03*
D17*
X177292000Y-104297170D03*
X177292000Y-102297170D03*
X164131800Y-102322200D03*
X164131800Y-104322200D03*
X185674000Y-104292400D03*
X185674000Y-102292400D03*
D33*
X166998582Y-104322200D03*
X166998582Y-102322200D03*
D28*
X167600000Y-136800000D03*
D31*
X184200000Y-124900000D03*
X186200000Y-124900000D03*
X186061940Y-111030000D03*
X188061940Y-111030000D03*
M02*
