G04 #@! TF.GenerationSoftware,KiCad,Pcbnew,(5.1.6)-1*
G04 #@! TF.CreationDate,2020-10-05T11:52:14-04:00*
G04 #@! TF.ProjectId,recovery_CAN,7265636f-7665-4727-995f-43414e2e6b69,rev?*
G04 #@! TF.SameCoordinates,Original*
G04 #@! TF.FileFunction,Legend,Bot*
G04 #@! TF.FilePolarity,Positive*
%FSLAX46Y46*%
G04 Gerber Fmt 4.6, Leading zero omitted, Abs format (unit mm)*
G04 Created by KiCad (PCBNEW (5.1.6)-1) date 2020-10-05 11:52:14*
%MOMM*%
%LPD*%
G01*
G04 APERTURE LIST*
%ADD10C,0.150000*%
%ADD11C,0.200000*%
%ADD12C,0.300000*%
%ADD13C,0.120000*%
%ADD14C,0.010000*%
G04 APERTURE END LIST*
D10*
X218392000Y-109559285D02*
X218392000Y-108809285D01*
X218011047Y-108809285D01*
X217915809Y-108845000D01*
X217868190Y-108880714D01*
X217820571Y-108952142D01*
X217820571Y-109059285D01*
X217868190Y-109130714D01*
X217915809Y-109166428D01*
X218011047Y-109202142D01*
X218392000Y-109202142D01*
X217392000Y-108809285D02*
X217392000Y-109416428D01*
X217344380Y-109487857D01*
X217296761Y-109523571D01*
X217201523Y-109559285D01*
X217011047Y-109559285D01*
X216915809Y-109523571D01*
X216868190Y-109487857D01*
X216820571Y-109416428D01*
X216820571Y-108809285D01*
X215868190Y-109559285D02*
X216344380Y-109559285D01*
X216344380Y-108809285D01*
X215058666Y-109559285D02*
X215534857Y-109559285D01*
X215534857Y-108809285D01*
X213963428Y-108809285D02*
X213963428Y-109416428D01*
X213915809Y-109487857D01*
X213868190Y-109523571D01*
X213772952Y-109559285D01*
X213582476Y-109559285D01*
X213487238Y-109523571D01*
X213439619Y-109487857D01*
X213392000Y-109416428D01*
X213392000Y-108809285D01*
X212915809Y-109559285D02*
X212915809Y-108809285D01*
X212534857Y-108809285D01*
X212439619Y-108845000D01*
X212392000Y-108880714D01*
X212344380Y-108952142D01*
X212344380Y-109059285D01*
X212392000Y-109130714D01*
X212439619Y-109166428D01*
X212534857Y-109202142D01*
X212915809Y-109202142D01*
X235156000Y-109559285D02*
X235156000Y-108809285D01*
X234775047Y-108809285D01*
X234679809Y-108845000D01*
X234632190Y-108880714D01*
X234584571Y-108952142D01*
X234584571Y-109059285D01*
X234632190Y-109130714D01*
X234679809Y-109166428D01*
X234775047Y-109202142D01*
X235156000Y-109202142D01*
X234156000Y-108809285D02*
X234156000Y-109416428D01*
X234108380Y-109487857D01*
X234060761Y-109523571D01*
X233965523Y-109559285D01*
X233775047Y-109559285D01*
X233679809Y-109523571D01*
X233632190Y-109487857D01*
X233584571Y-109416428D01*
X233584571Y-108809285D01*
X232632190Y-109559285D02*
X233108380Y-109559285D01*
X233108380Y-108809285D01*
X231822666Y-109559285D02*
X232298857Y-109559285D01*
X232298857Y-108809285D01*
X230727428Y-108809285D02*
X230727428Y-109416428D01*
X230679809Y-109487857D01*
X230632190Y-109523571D01*
X230536952Y-109559285D01*
X230346476Y-109559285D01*
X230251238Y-109523571D01*
X230203619Y-109487857D01*
X230156000Y-109416428D01*
X230156000Y-108809285D01*
X229679809Y-109559285D02*
X229679809Y-108809285D01*
X229298857Y-108809285D01*
X229203619Y-108845000D01*
X229156000Y-108880714D01*
X229108380Y-108952142D01*
X229108380Y-109059285D01*
X229156000Y-109130714D01*
X229203619Y-109166428D01*
X229298857Y-109202142D01*
X229679809Y-109202142D01*
X242256142Y-73453904D02*
X242284714Y-73596761D01*
X242313285Y-73644380D01*
X242370428Y-73692000D01*
X242456142Y-73692000D01*
X242513285Y-73644380D01*
X242541857Y-73596761D01*
X242570428Y-73501523D01*
X242570428Y-73120571D01*
X241970428Y-73120571D01*
X241970428Y-73453904D01*
X241999000Y-73549142D01*
X242027571Y-73596761D01*
X242084714Y-73644380D01*
X242141857Y-73644380D01*
X242199000Y-73596761D01*
X242227571Y-73549142D01*
X242256142Y-73453904D01*
X242256142Y-73120571D01*
X242284714Y-74311047D02*
X242570428Y-74311047D01*
X241970428Y-73977714D02*
X242284714Y-74311047D01*
X241970428Y-74644380D01*
X242570428Y-74977714D02*
X241970428Y-74977714D01*
X241970428Y-75358666D01*
X241999000Y-75453904D01*
X242027571Y-75501523D01*
X242084714Y-75549142D01*
X242170428Y-75549142D01*
X242227571Y-75501523D01*
X242256142Y-75453904D01*
X242284714Y-75358666D01*
X242284714Y-74977714D01*
X242399000Y-75930095D02*
X242399000Y-76406285D01*
X242570428Y-75834857D02*
X241970428Y-76168190D01*
X242570428Y-76501523D01*
X242541857Y-76787238D02*
X242570428Y-76930095D01*
X242570428Y-77168190D01*
X242541857Y-77263428D01*
X242513285Y-77311047D01*
X242456142Y-77358666D01*
X242399000Y-77358666D01*
X242341857Y-77311047D01*
X242313285Y-77263428D01*
X242284714Y-77168190D01*
X242256142Y-76977714D01*
X242227571Y-76882476D01*
X242199000Y-76834857D01*
X242141857Y-76787238D01*
X242084714Y-76787238D01*
X242027571Y-76834857D01*
X241999000Y-76882476D01*
X241970428Y-76977714D01*
X241970428Y-77215809D01*
X241999000Y-77358666D01*
X242541857Y-77739619D02*
X242570428Y-77882476D01*
X242570428Y-78120571D01*
X242541857Y-78215809D01*
X242513285Y-78263428D01*
X242456142Y-78311047D01*
X242399000Y-78311047D01*
X242341857Y-78263428D01*
X242313285Y-78215809D01*
X242284714Y-78120571D01*
X242256142Y-77930095D01*
X242227571Y-77834857D01*
X242199000Y-77787238D01*
X242141857Y-77739619D01*
X242084714Y-77739619D01*
X242027571Y-77787238D01*
X241999000Y-77834857D01*
X241970428Y-77930095D01*
X241970428Y-78168190D01*
X241999000Y-78311047D01*
X243620428Y-72287238D02*
X243020428Y-72287238D01*
X243620428Y-72763428D02*
X243020428Y-72763428D01*
X243620428Y-73334857D01*
X243020428Y-73334857D01*
X243020428Y-73668190D02*
X243020428Y-74239619D01*
X243620428Y-73953904D02*
X243020428Y-73953904D01*
X243306142Y-74572952D02*
X243306142Y-74906285D01*
X243620428Y-75049142D02*
X243620428Y-74572952D01*
X243020428Y-74572952D01*
X243020428Y-75049142D01*
X243620428Y-76049142D02*
X243334714Y-75715809D01*
X243620428Y-75477714D02*
X243020428Y-75477714D01*
X243020428Y-75858666D01*
X243049000Y-75953904D01*
X243077571Y-76001523D01*
X243134714Y-76049142D01*
X243220428Y-76049142D01*
X243277571Y-76001523D01*
X243306142Y-75953904D01*
X243334714Y-75858666D01*
X243334714Y-75477714D01*
X243563285Y-77049142D02*
X243591857Y-77001523D01*
X243620428Y-76858666D01*
X243620428Y-76763428D01*
X243591857Y-76620571D01*
X243534714Y-76525333D01*
X243477571Y-76477714D01*
X243363285Y-76430095D01*
X243277571Y-76430095D01*
X243163285Y-76477714D01*
X243106142Y-76525333D01*
X243049000Y-76620571D01*
X243020428Y-76763428D01*
X243020428Y-76858666D01*
X243049000Y-77001523D01*
X243077571Y-77049142D01*
X243020428Y-77668190D02*
X243020428Y-77858666D01*
X243049000Y-77953904D01*
X243106142Y-78049142D01*
X243220428Y-78096761D01*
X243420428Y-78096761D01*
X243534714Y-78049142D01*
X243591857Y-77953904D01*
X243620428Y-77858666D01*
X243620428Y-77668190D01*
X243591857Y-77572952D01*
X243534714Y-77477714D01*
X243420428Y-77430095D01*
X243220428Y-77430095D01*
X243106142Y-77477714D01*
X243049000Y-77572952D01*
X243020428Y-77668190D01*
X243620428Y-78525333D02*
X243020428Y-78525333D01*
X243620428Y-79096761D01*
X243020428Y-79096761D01*
X242262428Y-91487904D02*
X242298142Y-91630761D01*
X242333857Y-91678380D01*
X242405285Y-91726000D01*
X242512428Y-91726000D01*
X242583857Y-91678380D01*
X242619571Y-91630761D01*
X242655285Y-91535523D01*
X242655285Y-91154571D01*
X241905285Y-91154571D01*
X241905285Y-91487904D01*
X241941000Y-91583142D01*
X241976714Y-91630761D01*
X242048142Y-91678380D01*
X242119571Y-91678380D01*
X242191000Y-91630761D01*
X242226714Y-91583142D01*
X242262428Y-91487904D01*
X242262428Y-91154571D01*
X242298142Y-92345047D02*
X242655285Y-92345047D01*
X241905285Y-92011714D02*
X242298142Y-92345047D01*
X241905285Y-92678380D01*
X242655285Y-93011714D02*
X241905285Y-93011714D01*
X241905285Y-93392666D01*
X241941000Y-93487904D01*
X241976714Y-93535523D01*
X242048142Y-93583142D01*
X242155285Y-93583142D01*
X242226714Y-93535523D01*
X242262428Y-93487904D01*
X242298142Y-93392666D01*
X242298142Y-93011714D01*
X242441000Y-93964095D02*
X242441000Y-94440285D01*
X242655285Y-93868857D02*
X241905285Y-94202190D01*
X242655285Y-94535523D01*
X242619571Y-94821238D02*
X242655285Y-94964095D01*
X242655285Y-95202190D01*
X242619571Y-95297428D01*
X242583857Y-95345047D01*
X242512428Y-95392666D01*
X242441000Y-95392666D01*
X242369571Y-95345047D01*
X242333857Y-95297428D01*
X242298142Y-95202190D01*
X242262428Y-95011714D01*
X242226714Y-94916476D01*
X242191000Y-94868857D01*
X242119571Y-94821238D01*
X242048142Y-94821238D01*
X241976714Y-94868857D01*
X241941000Y-94916476D01*
X241905285Y-95011714D01*
X241905285Y-95249809D01*
X241941000Y-95392666D01*
X242619571Y-95773619D02*
X242655285Y-95916476D01*
X242655285Y-96154571D01*
X242619571Y-96249809D01*
X242583857Y-96297428D01*
X242512428Y-96345047D01*
X242441000Y-96345047D01*
X242369571Y-96297428D01*
X242333857Y-96249809D01*
X242298142Y-96154571D01*
X242262428Y-95964095D01*
X242226714Y-95868857D01*
X242191000Y-95821238D01*
X242119571Y-95773619D01*
X242048142Y-95773619D01*
X241976714Y-95821238D01*
X241941000Y-95868857D01*
X241905285Y-95964095D01*
X241905285Y-96202190D01*
X241941000Y-96345047D01*
X242389428Y-107489904D02*
X242425142Y-107632761D01*
X242460857Y-107680380D01*
X242532285Y-107728000D01*
X242639428Y-107728000D01*
X242710857Y-107680380D01*
X242746571Y-107632761D01*
X242782285Y-107537523D01*
X242782285Y-107156571D01*
X242032285Y-107156571D01*
X242032285Y-107489904D01*
X242068000Y-107585142D01*
X242103714Y-107632761D01*
X242175142Y-107680380D01*
X242246571Y-107680380D01*
X242318000Y-107632761D01*
X242353714Y-107585142D01*
X242389428Y-107489904D01*
X242389428Y-107156571D01*
X242425142Y-108347047D02*
X242782285Y-108347047D01*
X242032285Y-108013714D02*
X242425142Y-108347047D01*
X242032285Y-108680380D01*
X242782285Y-109013714D02*
X242032285Y-109013714D01*
X242032285Y-109394666D01*
X242068000Y-109489904D01*
X242103714Y-109537523D01*
X242175142Y-109585142D01*
X242282285Y-109585142D01*
X242353714Y-109537523D01*
X242389428Y-109489904D01*
X242425142Y-109394666D01*
X242425142Y-109013714D01*
X242568000Y-109966095D02*
X242568000Y-110442285D01*
X242782285Y-109870857D02*
X242032285Y-110204190D01*
X242782285Y-110537523D01*
X242746571Y-110823238D02*
X242782285Y-110966095D01*
X242782285Y-111204190D01*
X242746571Y-111299428D01*
X242710857Y-111347047D01*
X242639428Y-111394666D01*
X242568000Y-111394666D01*
X242496571Y-111347047D01*
X242460857Y-111299428D01*
X242425142Y-111204190D01*
X242389428Y-111013714D01*
X242353714Y-110918476D01*
X242318000Y-110870857D01*
X242246571Y-110823238D01*
X242175142Y-110823238D01*
X242103714Y-110870857D01*
X242068000Y-110918476D01*
X242032285Y-111013714D01*
X242032285Y-111251809D01*
X242068000Y-111394666D01*
X242746571Y-111775619D02*
X242782285Y-111918476D01*
X242782285Y-112156571D01*
X242746571Y-112251809D01*
X242710857Y-112299428D01*
X242639428Y-112347047D01*
X242568000Y-112347047D01*
X242496571Y-112299428D01*
X242460857Y-112251809D01*
X242425142Y-112156571D01*
X242389428Y-111966095D01*
X242353714Y-111870857D01*
X242318000Y-111823238D01*
X242246571Y-111775619D01*
X242175142Y-111775619D01*
X242103714Y-111823238D01*
X242068000Y-111870857D01*
X242032285Y-111966095D01*
X242032285Y-112204190D01*
X242068000Y-112347047D01*
X235433761Y-119719285D02*
X235433761Y-118969285D01*
X234957571Y-119719285D02*
X234957571Y-118969285D01*
X234386142Y-119719285D01*
X234386142Y-118969285D01*
X234052809Y-118969285D02*
X233481380Y-118969285D01*
X233767095Y-119719285D02*
X233767095Y-118969285D01*
X233148047Y-119326428D02*
X232814714Y-119326428D01*
X232671857Y-119719285D02*
X233148047Y-119719285D01*
X233148047Y-118969285D01*
X232671857Y-118969285D01*
X231671857Y-119719285D02*
X232005190Y-119362142D01*
X232243285Y-119719285D02*
X232243285Y-118969285D01*
X231862333Y-118969285D01*
X231767095Y-119005000D01*
X231719476Y-119040714D01*
X231671857Y-119112142D01*
X231671857Y-119219285D01*
X231719476Y-119290714D01*
X231767095Y-119326428D01*
X231862333Y-119362142D01*
X232243285Y-119362142D01*
X230671857Y-119647857D02*
X230719476Y-119683571D01*
X230862333Y-119719285D01*
X230957571Y-119719285D01*
X231100428Y-119683571D01*
X231195666Y-119612142D01*
X231243285Y-119540714D01*
X231290904Y-119397857D01*
X231290904Y-119290714D01*
X231243285Y-119147857D01*
X231195666Y-119076428D01*
X231100428Y-119005000D01*
X230957571Y-118969285D01*
X230862333Y-118969285D01*
X230719476Y-119005000D01*
X230671857Y-119040714D01*
X230052809Y-118969285D02*
X229862333Y-118969285D01*
X229767095Y-119005000D01*
X229671857Y-119076428D01*
X229624238Y-119219285D01*
X229624238Y-119469285D01*
X229671857Y-119612142D01*
X229767095Y-119683571D01*
X229862333Y-119719285D01*
X230052809Y-119719285D01*
X230148047Y-119683571D01*
X230243285Y-119612142D01*
X230290904Y-119469285D01*
X230290904Y-119219285D01*
X230243285Y-119076428D01*
X230148047Y-119005000D01*
X230052809Y-118969285D01*
X229195666Y-119719285D02*
X229195666Y-118969285D01*
X228624238Y-119719285D01*
X228624238Y-118969285D01*
X218669761Y-119846285D02*
X218669761Y-119096285D01*
X218193571Y-119846285D02*
X218193571Y-119096285D01*
X217622142Y-119846285D01*
X217622142Y-119096285D01*
X217288809Y-119096285D02*
X216717380Y-119096285D01*
X217003095Y-119846285D02*
X217003095Y-119096285D01*
X216384047Y-119453428D02*
X216050714Y-119453428D01*
X215907857Y-119846285D02*
X216384047Y-119846285D01*
X216384047Y-119096285D01*
X215907857Y-119096285D01*
X214907857Y-119846285D02*
X215241190Y-119489142D01*
X215479285Y-119846285D02*
X215479285Y-119096285D01*
X215098333Y-119096285D01*
X215003095Y-119132000D01*
X214955476Y-119167714D01*
X214907857Y-119239142D01*
X214907857Y-119346285D01*
X214955476Y-119417714D01*
X215003095Y-119453428D01*
X215098333Y-119489142D01*
X215479285Y-119489142D01*
X213907857Y-119774857D02*
X213955476Y-119810571D01*
X214098333Y-119846285D01*
X214193571Y-119846285D01*
X214336428Y-119810571D01*
X214431666Y-119739142D01*
X214479285Y-119667714D01*
X214526904Y-119524857D01*
X214526904Y-119417714D01*
X214479285Y-119274857D01*
X214431666Y-119203428D01*
X214336428Y-119132000D01*
X214193571Y-119096285D01*
X214098333Y-119096285D01*
X213955476Y-119132000D01*
X213907857Y-119167714D01*
X213288809Y-119096285D02*
X213098333Y-119096285D01*
X213003095Y-119132000D01*
X212907857Y-119203428D01*
X212860238Y-119346285D01*
X212860238Y-119596285D01*
X212907857Y-119739142D01*
X213003095Y-119810571D01*
X213098333Y-119846285D01*
X213288809Y-119846285D01*
X213384047Y-119810571D01*
X213479285Y-119739142D01*
X213526904Y-119596285D01*
X213526904Y-119346285D01*
X213479285Y-119203428D01*
X213384047Y-119132000D01*
X213288809Y-119096285D01*
X212431666Y-119846285D02*
X212431666Y-119096285D01*
X211860238Y-119846285D01*
X211860238Y-119096285D01*
D11*
X189865000Y-97663000D02*
X190373000Y-98298000D01*
X189865000Y-97663000D02*
X189357000Y-98298000D01*
X189865000Y-99187000D02*
X189865000Y-97663000D01*
X187960000Y-99187000D02*
X189865000Y-99187000D01*
D12*
X187511000Y-97966000D02*
X185796714Y-97966000D01*
X187153857Y-100114571D02*
X187153857Y-98614571D01*
X186653857Y-99686000D01*
X186153857Y-98614571D01*
X186153857Y-100114571D01*
X185796714Y-97966000D02*
X184296714Y-97966000D01*
X184582428Y-99971714D02*
X184653857Y-100043142D01*
X184868142Y-100114571D01*
X185011000Y-100114571D01*
X185225285Y-100043142D01*
X185368142Y-99900285D01*
X185439571Y-99757428D01*
X185511000Y-99471714D01*
X185511000Y-99257428D01*
X185439571Y-98971714D01*
X185368142Y-98828857D01*
X185225285Y-98686000D01*
X185011000Y-98614571D01*
X184868142Y-98614571D01*
X184653857Y-98686000D01*
X184582428Y-98757428D01*
X184296714Y-97966000D02*
X183082428Y-97966000D01*
X183225285Y-100114571D02*
X183939571Y-100114571D01*
X183939571Y-98614571D01*
X183082428Y-97966000D02*
X181582428Y-97966000D01*
X181868142Y-100114571D02*
X182368142Y-99400285D01*
X182725285Y-100114571D02*
X182725285Y-98614571D01*
X182153857Y-98614571D01*
X182011000Y-98686000D01*
X181939571Y-98757428D01*
X181868142Y-98900285D01*
X181868142Y-99114571D01*
X181939571Y-99257428D01*
X182011000Y-99328857D01*
X182153857Y-99400285D01*
X182725285Y-99400285D01*
X186439571Y-101164571D02*
X187153857Y-101164571D01*
X187225285Y-101878857D01*
X187153857Y-101807428D01*
X187011000Y-101736000D01*
X186653857Y-101736000D01*
X186511000Y-101807428D01*
X186439571Y-101878857D01*
X186368142Y-102021714D01*
X186368142Y-102378857D01*
X186439571Y-102521714D01*
X186511000Y-102593142D01*
X186653857Y-102664571D01*
X187011000Y-102664571D01*
X187153857Y-102593142D01*
X187225285Y-102521714D01*
X185939571Y-101164571D02*
X185439571Y-102664571D01*
X184939571Y-101164571D01*
X233199285Y-66764142D02*
X232985000Y-66835571D01*
X232627857Y-66835571D01*
X232485000Y-66764142D01*
X232413571Y-66692714D01*
X232342142Y-66549857D01*
X232342142Y-66407000D01*
X232413571Y-66264142D01*
X232485000Y-66192714D01*
X232627857Y-66121285D01*
X232913571Y-66049857D01*
X233056428Y-65978428D01*
X233127857Y-65907000D01*
X233199285Y-65764142D01*
X233199285Y-65621285D01*
X233127857Y-65478428D01*
X233056428Y-65407000D01*
X232913571Y-65335571D01*
X232556428Y-65335571D01*
X232342142Y-65407000D01*
X231056428Y-65835571D02*
X231056428Y-66835571D01*
X231699285Y-65835571D02*
X231699285Y-66621285D01*
X231627857Y-66764142D01*
X231485000Y-66835571D01*
X231270714Y-66835571D01*
X231127857Y-66764142D01*
X231056428Y-66692714D01*
X230413571Y-66764142D02*
X230270714Y-66835571D01*
X229985000Y-66835571D01*
X229842142Y-66764142D01*
X229770714Y-66621285D01*
X229770714Y-66549857D01*
X229842142Y-66407000D01*
X229985000Y-66335571D01*
X230199285Y-66335571D01*
X230342142Y-66264142D01*
X230413571Y-66121285D01*
X230413571Y-66049857D01*
X230342142Y-65907000D01*
X230199285Y-65835571D01*
X229985000Y-65835571D01*
X229842142Y-65907000D01*
X229127857Y-66835571D02*
X229127857Y-65335571D01*
X228485000Y-66835571D02*
X228485000Y-66049857D01*
X228556428Y-65907000D01*
X228699285Y-65835571D01*
X228913571Y-65835571D01*
X229056428Y-65907000D01*
X229127857Y-65978428D01*
X227770714Y-66835571D02*
X227770714Y-65835571D01*
X227770714Y-65335571D02*
X227842142Y-65407000D01*
X227770714Y-65478428D01*
X227699285Y-65407000D01*
X227770714Y-65335571D01*
X227770714Y-65478428D01*
X226127857Y-65335571D02*
X225627857Y-66835571D01*
X225127857Y-65335571D01*
X224699285Y-65478428D02*
X224627857Y-65407000D01*
X224485000Y-65335571D01*
X224127857Y-65335571D01*
X223985000Y-65407000D01*
X223913571Y-65478428D01*
X223842142Y-65621285D01*
X223842142Y-65764142D01*
X223913571Y-65978428D01*
X224770714Y-66835571D01*
X223842142Y-66835571D01*
X233270714Y-67885571D02*
X232270714Y-67885571D01*
X233270714Y-69385571D01*
X232270714Y-69385571D01*
X231699285Y-69242714D02*
X231627857Y-69314142D01*
X231699285Y-69385571D01*
X231770714Y-69314142D01*
X231699285Y-69242714D01*
X231699285Y-69385571D01*
X229842142Y-69385571D02*
X229842142Y-67885571D01*
X229342142Y-68957000D01*
X228842142Y-67885571D01*
X228842142Y-69385571D01*
X227556428Y-69314142D02*
X227699285Y-69385571D01*
X227985000Y-69385571D01*
X228127857Y-69314142D01*
X228199285Y-69171285D01*
X228199285Y-68599857D01*
X228127857Y-68457000D01*
X227985000Y-68385571D01*
X227699285Y-68385571D01*
X227556428Y-68457000D01*
X227485000Y-68599857D01*
X227485000Y-68742714D01*
X228199285Y-68885571D01*
X226199285Y-69385571D02*
X226199285Y-68599857D01*
X226270714Y-68457000D01*
X226413571Y-68385571D01*
X226699285Y-68385571D01*
X226842142Y-68457000D01*
X226199285Y-69314142D02*
X226342142Y-69385571D01*
X226699285Y-69385571D01*
X226842142Y-69314142D01*
X226913571Y-69171285D01*
X226913571Y-69028428D01*
X226842142Y-68885571D01*
X226699285Y-68814142D01*
X226342142Y-68814142D01*
X226199285Y-68742714D01*
X225485000Y-69385571D02*
X225485000Y-68385571D01*
X225485000Y-68671285D02*
X225413571Y-68528428D01*
X225342142Y-68457000D01*
X225199285Y-68385571D01*
X225056428Y-68385571D01*
X224627857Y-69314142D02*
X224485000Y-69385571D01*
X224199285Y-69385571D01*
X224056428Y-69314142D01*
X223985000Y-69171285D01*
X223985000Y-69099857D01*
X224056428Y-68957000D01*
X224199285Y-68885571D01*
X224413571Y-68885571D01*
X224556428Y-68814142D01*
X224627857Y-68671285D01*
X224627857Y-68599857D01*
X224556428Y-68457000D01*
X224413571Y-68385571D01*
X224199285Y-68385571D01*
X224056428Y-68457000D01*
X233199285Y-70578428D02*
X233127857Y-70507000D01*
X232985000Y-70435571D01*
X232627857Y-70435571D01*
X232485000Y-70507000D01*
X232413571Y-70578428D01*
X232342142Y-70721285D01*
X232342142Y-70864142D01*
X232413571Y-71078428D01*
X233270714Y-71935571D01*
X232342142Y-71935571D01*
X231413571Y-70435571D02*
X231270714Y-70435571D01*
X231127857Y-70507000D01*
X231056428Y-70578428D01*
X230985000Y-70721285D01*
X230913571Y-71007000D01*
X230913571Y-71364142D01*
X230985000Y-71649857D01*
X231056428Y-71792714D01*
X231127857Y-71864142D01*
X231270714Y-71935571D01*
X231413571Y-71935571D01*
X231556428Y-71864142D01*
X231627857Y-71792714D01*
X231699285Y-71649857D01*
X231770714Y-71364142D01*
X231770714Y-71007000D01*
X231699285Y-70721285D01*
X231627857Y-70578428D01*
X231556428Y-70507000D01*
X231413571Y-70435571D01*
X230342142Y-70578428D02*
X230270714Y-70507000D01*
X230127857Y-70435571D01*
X229770714Y-70435571D01*
X229627857Y-70507000D01*
X229556428Y-70578428D01*
X229485000Y-70721285D01*
X229485000Y-70864142D01*
X229556428Y-71078428D01*
X230413571Y-71935571D01*
X229485000Y-71935571D01*
X228556428Y-70435571D02*
X228413571Y-70435571D01*
X228270714Y-70507000D01*
X228199285Y-70578428D01*
X228127857Y-70721285D01*
X228056428Y-71007000D01*
X228056428Y-71364142D01*
X228127857Y-71649857D01*
X228199285Y-71792714D01*
X228270714Y-71864142D01*
X228413571Y-71935571D01*
X228556428Y-71935571D01*
X228699285Y-71864142D01*
X228770714Y-71792714D01*
X228842142Y-71649857D01*
X228913571Y-71364142D01*
X228913571Y-71007000D01*
X228842142Y-70721285D01*
X228770714Y-70578428D01*
X228699285Y-70507000D01*
X228556428Y-70435571D01*
X227413571Y-71364142D02*
X226270714Y-71364142D01*
X224770714Y-71935571D02*
X225627857Y-71935571D01*
X225199285Y-71935571D02*
X225199285Y-70435571D01*
X225342142Y-70649857D01*
X225485000Y-70792714D01*
X225627857Y-70864142D01*
X223842142Y-70435571D02*
X223699285Y-70435571D01*
X223556428Y-70507000D01*
X223485000Y-70578428D01*
X223413571Y-70721285D01*
X223342142Y-71007000D01*
X223342142Y-71364142D01*
X223413571Y-71649857D01*
X223485000Y-71792714D01*
X223556428Y-71864142D01*
X223699285Y-71935571D01*
X223842142Y-71935571D01*
X223985000Y-71864142D01*
X224056428Y-71792714D01*
X224127857Y-71649857D01*
X224199285Y-71364142D01*
X224199285Y-71007000D01*
X224127857Y-70721285D01*
X224056428Y-70578428D01*
X223985000Y-70507000D01*
X223842142Y-70435571D01*
X222699285Y-71364142D02*
X221556428Y-71364142D01*
X220127857Y-70435571D02*
X220842142Y-70435571D01*
X220913571Y-71149857D01*
X220842142Y-71078428D01*
X220699285Y-71007000D01*
X220342142Y-71007000D01*
X220199285Y-71078428D01*
X220127857Y-71149857D01*
X220056428Y-71292714D01*
X220056428Y-71649857D01*
X220127857Y-71792714D01*
X220199285Y-71864142D01*
X220342142Y-71935571D01*
X220699285Y-71935571D01*
X220842142Y-71864142D01*
X220913571Y-71792714D01*
D13*
X241030000Y-93664000D02*
X241030000Y-92264000D01*
X240330000Y-91564000D02*
X239730000Y-91564000D01*
X239030000Y-92264000D02*
X239030000Y-93664000D01*
X239730000Y-94364000D02*
X240330000Y-94364000D01*
X240330000Y-94364000D02*
G75*
G03*
X241030000Y-93664000I0J700000D01*
G01*
X239030000Y-93664000D02*
G75*
G03*
X239730000Y-94364000I700000J0D01*
G01*
X239730000Y-91564000D02*
G75*
G03*
X239030000Y-92264000I0J-700000D01*
G01*
X241030000Y-92264000D02*
G75*
G03*
X240330000Y-91564000I-700000J0D01*
G01*
D10*
G36*
X179146200Y-84632800D02*
G01*
X179146200Y-87071200D01*
X187528200Y-87071200D01*
X187528200Y-84632800D01*
X179146200Y-84632800D01*
G37*
X179146200Y-84632800D02*
X179146200Y-87071200D01*
X187528200Y-87071200D01*
X187528200Y-84632800D01*
X179146200Y-84632800D01*
X187592000Y-87122000D02*
X179092000Y-87122000D01*
X187592000Y-92202000D02*
X179092000Y-92202000D01*
X187592000Y-89662000D02*
X179092000Y-89662000D01*
X187592000Y-94742000D02*
X179092000Y-94742000D01*
X187592000Y-97282000D02*
X179092000Y-97282000D01*
X187592000Y-84582000D02*
X179092000Y-84582000D01*
X179092000Y-84582000D02*
X179092000Y-97282000D01*
X187592000Y-84582000D02*
X187592000Y-97282000D01*
D13*
X217676252Y-102310000D02*
X217153748Y-102310000D01*
X217676252Y-100890000D02*
X217153748Y-100890000D01*
X217676252Y-89610000D02*
X217153748Y-89610000D01*
X217676252Y-88190000D02*
X217153748Y-88190000D01*
X203402000Y-65279748D02*
X203402000Y-65802252D01*
X201982000Y-65279748D02*
X201982000Y-65802252D01*
D10*
X218933000Y-97071000D02*
X218933000Y-98471000D01*
X213833000Y-97071000D02*
X213833000Y-92921000D01*
X218983000Y-97071000D02*
X218983000Y-92921000D01*
X213833000Y-97071000D02*
X213978000Y-97071000D01*
X213833000Y-92921000D02*
X213978000Y-92921000D01*
X218983000Y-92921000D02*
X218838000Y-92921000D01*
X218983000Y-97071000D02*
X218933000Y-97071000D01*
D13*
X205588000Y-66258000D02*
X205588000Y-63808000D01*
X208808000Y-64458000D02*
X208808000Y-66258000D01*
X241030000Y-110428000D02*
X241030000Y-109028000D01*
X240330000Y-108328000D02*
X239730000Y-108328000D01*
X239030000Y-109028000D02*
X239030000Y-110428000D01*
X239730000Y-111128000D02*
X240330000Y-111128000D01*
X240330000Y-111128000D02*
G75*
G03*
X241030000Y-110428000I0J700000D01*
G01*
X239030000Y-110428000D02*
G75*
G03*
X239730000Y-111128000I700000J0D01*
G01*
X239730000Y-108328000D02*
G75*
G03*
X239030000Y-109028000I0J-700000D01*
G01*
X241030000Y-109028000D02*
G75*
G03*
X240330000Y-108328000I-700000J0D01*
G01*
X185114000Y-70359748D02*
X185114000Y-70882252D01*
X183694000Y-70359748D02*
X183694000Y-70882252D01*
X185114000Y-75947748D02*
X185114000Y-76470252D01*
X183694000Y-75947748D02*
X183694000Y-76470252D01*
X185241000Y-105529748D02*
X185241000Y-106052252D01*
X183821000Y-105529748D02*
X183821000Y-106052252D01*
X185241000Y-110491748D02*
X185241000Y-111014252D01*
X183821000Y-110491748D02*
X183821000Y-111014252D01*
X224588000Y-103122252D02*
X224588000Y-102599748D01*
X226008000Y-103122252D02*
X226008000Y-102599748D01*
X226262000Y-78977748D02*
X226262000Y-79500252D01*
X224842000Y-78977748D02*
X224842000Y-79500252D01*
X233628000Y-102599748D02*
X233628000Y-103122252D01*
X232208000Y-102599748D02*
X232208000Y-103122252D01*
X233882000Y-78977748D02*
X233882000Y-79500252D01*
X232462000Y-78977748D02*
X232462000Y-79500252D01*
X237692000Y-78977748D02*
X237692000Y-79500252D01*
X236272000Y-78977748D02*
X236272000Y-79500252D01*
X237438000Y-102599748D02*
X237438000Y-103122252D01*
X236018000Y-102599748D02*
X236018000Y-103122252D01*
X237438000Y-87141748D02*
X237438000Y-87664252D01*
X236018000Y-87141748D02*
X236018000Y-87664252D01*
X236018000Y-95284252D02*
X236018000Y-94761748D01*
X237438000Y-95284252D02*
X237438000Y-94761748D01*
X233628000Y-94761748D02*
X233628000Y-95284252D01*
X232208000Y-94761748D02*
X232208000Y-95284252D01*
X233628000Y-87141748D02*
X233628000Y-87664252D01*
X232208000Y-87141748D02*
X232208000Y-87664252D01*
X226008000Y-94761748D02*
X226008000Y-95284252D01*
X224588000Y-94761748D02*
X224588000Y-95284252D01*
X229818000Y-94761748D02*
X229818000Y-95284252D01*
X228398000Y-94761748D02*
X228398000Y-95284252D01*
X224588000Y-87637252D02*
X224588000Y-87114748D01*
X226008000Y-87637252D02*
X226008000Y-87114748D01*
X228398000Y-87637252D02*
X228398000Y-87114748D01*
X229818000Y-87637252D02*
X229818000Y-87114748D01*
X229818000Y-102599748D02*
X229818000Y-103122252D01*
X228398000Y-102599748D02*
X228398000Y-103122252D01*
X230072000Y-78977748D02*
X230072000Y-79500252D01*
X228652000Y-78977748D02*
X228652000Y-79500252D01*
X215498000Y-66097564D02*
X215498000Y-64893436D01*
X217318000Y-66097564D02*
X217318000Y-64893436D01*
X211434000Y-66097564D02*
X211434000Y-64893436D01*
X213254000Y-66097564D02*
X213254000Y-64893436D01*
X219648000Y-110252000D02*
X218248000Y-110252000D01*
X217548000Y-110952000D02*
X217548000Y-111552000D01*
X218248000Y-112252000D02*
X219648000Y-112252000D01*
X220348000Y-111552000D02*
X220348000Y-110952000D01*
X220348000Y-110952000D02*
G75*
G03*
X219648000Y-110252000I-700000J0D01*
G01*
X219648000Y-112252000D02*
G75*
G03*
X220348000Y-111552000I0J700000D01*
G01*
X217548000Y-111552000D02*
G75*
G03*
X218248000Y-112252000I700000J0D01*
G01*
X218248000Y-110252000D02*
G75*
G03*
X217548000Y-110952000I0J-700000D01*
G01*
X235904000Y-110252000D02*
X234504000Y-110252000D01*
X233804000Y-110952000D02*
X233804000Y-111552000D01*
X234504000Y-112252000D02*
X235904000Y-112252000D01*
X236604000Y-111552000D02*
X236604000Y-110952000D01*
X236604000Y-110952000D02*
G75*
G03*
X235904000Y-110252000I-700000J0D01*
G01*
X235904000Y-112252000D02*
G75*
G03*
X236604000Y-111552000I0J700000D01*
G01*
X233804000Y-111552000D02*
G75*
G03*
X234504000Y-112252000I700000J0D01*
G01*
X234504000Y-110252000D02*
G75*
G03*
X233804000Y-110952000I0J-700000D01*
G01*
X211136000Y-112252000D02*
X212536000Y-112252000D01*
X213236000Y-111552000D02*
X213236000Y-110952000D01*
X212536000Y-110252000D02*
X211136000Y-110252000D01*
X210436000Y-110952000D02*
X210436000Y-111552000D01*
X210436000Y-111552000D02*
G75*
G03*
X211136000Y-112252000I700000J0D01*
G01*
X211136000Y-110252000D02*
G75*
G03*
X210436000Y-110952000I0J-700000D01*
G01*
X213236000Y-110952000D02*
G75*
G03*
X212536000Y-110252000I-700000J0D01*
G01*
X212536000Y-112252000D02*
G75*
G03*
X213236000Y-111552000I0J700000D01*
G01*
X227900000Y-112252000D02*
X229300000Y-112252000D01*
X230000000Y-111552000D02*
X230000000Y-110952000D01*
X229300000Y-110252000D02*
X227900000Y-110252000D01*
X227200000Y-110952000D02*
X227200000Y-111552000D01*
X227200000Y-111552000D02*
G75*
G03*
X227900000Y-112252000I700000J0D01*
G01*
X227900000Y-110252000D02*
G75*
G03*
X227200000Y-110952000I0J-700000D01*
G01*
X230000000Y-110952000D02*
G75*
G03*
X229300000Y-110252000I-700000J0D01*
G01*
X229300000Y-112252000D02*
G75*
G03*
X230000000Y-111552000I0J700000D01*
G01*
X241792000Y-76392000D02*
X241792000Y-74992000D01*
X241092000Y-74292000D02*
X240492000Y-74292000D01*
X239792000Y-74992000D02*
X239792000Y-76392000D01*
X240492000Y-77092000D02*
X241092000Y-77092000D01*
X241092000Y-77092000D02*
G75*
G03*
X241792000Y-76392000I0J700000D01*
G01*
X239792000Y-76392000D02*
G75*
G03*
X240492000Y-77092000I700000J0D01*
G01*
X240492000Y-74292000D02*
G75*
G03*
X239792000Y-74992000I0J-700000D01*
G01*
X241792000Y-74992000D02*
G75*
G03*
X241092000Y-74292000I-700000J0D01*
G01*
X211136000Y-118348000D02*
X212536000Y-118348000D01*
X213236000Y-117648000D02*
X213236000Y-117048000D01*
X212536000Y-116348000D02*
X211136000Y-116348000D01*
X210436000Y-117048000D02*
X210436000Y-117648000D01*
X210436000Y-117648000D02*
G75*
G03*
X211136000Y-118348000I700000J0D01*
G01*
X211136000Y-116348000D02*
G75*
G03*
X210436000Y-117048000I0J-700000D01*
G01*
X213236000Y-117048000D02*
G75*
G03*
X212536000Y-116348000I-700000J0D01*
G01*
X212536000Y-118348000D02*
G75*
G03*
X213236000Y-117648000I0J700000D01*
G01*
X227900000Y-118348000D02*
X229300000Y-118348000D01*
X230000000Y-117648000D02*
X230000000Y-117048000D01*
X229300000Y-116348000D02*
X227900000Y-116348000D01*
X227200000Y-117048000D02*
X227200000Y-117648000D01*
X227200000Y-117648000D02*
G75*
G03*
X227900000Y-118348000I700000J0D01*
G01*
X227900000Y-116348000D02*
G75*
G03*
X227200000Y-117048000I0J-700000D01*
G01*
X230000000Y-117048000D02*
G75*
G03*
X229300000Y-116348000I-700000J0D01*
G01*
X229300000Y-118348000D02*
G75*
G03*
X230000000Y-117648000I0J700000D01*
G01*
X219648000Y-116348000D02*
X218248000Y-116348000D01*
X217548000Y-117048000D02*
X217548000Y-117648000D01*
X218248000Y-118348000D02*
X219648000Y-118348000D01*
X220348000Y-117648000D02*
X220348000Y-117048000D01*
X220348000Y-117048000D02*
G75*
G03*
X219648000Y-116348000I-700000J0D01*
G01*
X219648000Y-118348000D02*
G75*
G03*
X220348000Y-117648000I0J700000D01*
G01*
X217548000Y-117648000D02*
G75*
G03*
X218248000Y-118348000I700000J0D01*
G01*
X218248000Y-116348000D02*
G75*
G03*
X217548000Y-117048000I0J-700000D01*
G01*
X235904000Y-116348000D02*
X234504000Y-116348000D01*
X233804000Y-117048000D02*
X233804000Y-117648000D01*
X234504000Y-118348000D02*
X235904000Y-118348000D01*
X236604000Y-117648000D02*
X236604000Y-117048000D01*
X236604000Y-117048000D02*
G75*
G03*
X235904000Y-116348000I-700000J0D01*
G01*
X235904000Y-118348000D02*
G75*
G03*
X236604000Y-117648000I0J700000D01*
G01*
X233804000Y-117648000D02*
G75*
G03*
X234504000Y-118348000I700000J0D01*
G01*
X234504000Y-116348000D02*
G75*
G03*
X233804000Y-117048000I0J-700000D01*
G01*
X222338000Y-96896000D02*
X222338000Y-93746000D01*
X220638000Y-96896000D02*
X220638000Y-93746000D01*
X222338000Y-96896000D02*
X220638000Y-96896000D01*
X219622000Y-63632000D02*
X219622000Y-66782000D01*
X221322000Y-63632000D02*
X221322000Y-66782000D01*
X219622000Y-63632000D02*
X221322000Y-63632000D01*
X222198000Y-78995748D02*
X222198000Y-79518252D01*
X220778000Y-78995748D02*
X220778000Y-79518252D01*
X218054000Y-79984000D02*
X218054000Y-78524000D01*
X214894000Y-79984000D02*
X214894000Y-76824000D01*
X214894000Y-79984000D02*
X215824000Y-79984000D01*
X218054000Y-79984000D02*
X217124000Y-79984000D01*
X199234000Y-77636000D02*
X198134000Y-77636000D01*
X199234000Y-75826000D02*
X199234000Y-77636000D01*
X200734000Y-75826000D02*
X199234000Y-75826000D01*
X199234000Y-84416000D02*
X194109000Y-84416000D01*
X199234000Y-86226000D02*
X199234000Y-84416000D01*
X200734000Y-86226000D02*
X199234000Y-86226000D01*
X199234000Y-98718000D02*
X198134000Y-98718000D01*
X199234000Y-96908000D02*
X199234000Y-98718000D01*
X200734000Y-96908000D02*
X199234000Y-96908000D01*
X199234000Y-105498000D02*
X194109000Y-105498000D01*
X199234000Y-107308000D02*
X199234000Y-105498000D01*
X200734000Y-107308000D02*
X199234000Y-107308000D01*
D14*
G36*
X239760172Y-63867810D02*
G01*
X239738969Y-63902138D01*
X239706534Y-63956988D01*
X239663966Y-64030430D01*
X239612366Y-64120537D01*
X239552834Y-64225380D01*
X239486470Y-64343029D01*
X239414374Y-64471556D01*
X239337648Y-64609033D01*
X239271106Y-64728787D01*
X239191262Y-64872733D01*
X239115205Y-65009789D01*
X239044035Y-65137976D01*
X238978853Y-65255311D01*
X238920762Y-65359816D01*
X238870862Y-65449509D01*
X238830255Y-65522410D01*
X238800041Y-65576539D01*
X238781322Y-65609916D01*
X238775333Y-65620394D01*
X238766886Y-65623201D01*
X238747181Y-65619900D01*
X238714174Y-65609702D01*
X238665820Y-65591817D01*
X238600077Y-65565456D01*
X238514898Y-65529831D01*
X238408240Y-65484152D01*
X238294435Y-65434770D01*
X238187542Y-65388519D01*
X238088735Y-65346396D01*
X238000891Y-65309580D01*
X237926887Y-65279250D01*
X237869602Y-65256585D01*
X237831914Y-65242763D01*
X237816699Y-65238964D01*
X237816601Y-65239034D01*
X237816640Y-65253846D01*
X237819210Y-65294416D01*
X237824141Y-65358798D01*
X237831258Y-65445044D01*
X237840390Y-65551209D01*
X237851365Y-65675346D01*
X237864010Y-65815509D01*
X237878152Y-65969751D01*
X237893620Y-66136127D01*
X237910240Y-66312690D01*
X237927841Y-66497493D01*
X237930788Y-66528226D01*
X237948559Y-66714115D01*
X237965436Y-66892027D01*
X237981242Y-67060020D01*
X237995802Y-67216154D01*
X238008937Y-67358488D01*
X238020472Y-67485082D01*
X238030231Y-67593995D01*
X238038035Y-67683285D01*
X238043709Y-67751013D01*
X238047077Y-67795238D01*
X238047960Y-67814019D01*
X238047855Y-67814538D01*
X238036697Y-67806621D01*
X238006625Y-67781773D01*
X237959487Y-67741605D01*
X237897133Y-67687726D01*
X237821409Y-67621745D01*
X237734165Y-67545272D01*
X237637249Y-67459918D01*
X237532510Y-67367291D01*
X237439878Y-67285079D01*
X237329784Y-67187387D01*
X237225801Y-67095446D01*
X237129800Y-67010890D01*
X237043652Y-66935352D01*
X236969231Y-66870465D01*
X236908406Y-66817861D01*
X236863051Y-66779174D01*
X236835036Y-66756035D01*
X236826294Y-66749809D01*
X236822045Y-66752925D01*
X236815516Y-66763816D01*
X236805802Y-66784795D01*
X236791998Y-66818177D01*
X236773199Y-66866276D01*
X236748499Y-66931404D01*
X236716994Y-67015877D01*
X236677778Y-67122007D01*
X236632494Y-67245166D01*
X236591147Y-67357784D01*
X236709748Y-67494604D01*
X236862768Y-67675611D01*
X237023267Y-67873790D01*
X237188993Y-68085920D01*
X237357694Y-68308782D01*
X237527121Y-68539156D01*
X237695021Y-68773821D01*
X237859143Y-69009558D01*
X238017236Y-69243146D01*
X238167048Y-69471366D01*
X238306328Y-69690997D01*
X238432826Y-69898819D01*
X238544289Y-70091613D01*
X238611616Y-70214873D01*
X238687199Y-70357245D01*
X238733111Y-70290515D01*
X238820633Y-70153790D01*
X238911323Y-69994444D01*
X239003001Y-69817174D01*
X239093486Y-69626674D01*
X239180596Y-69427642D01*
X239262151Y-69224774D01*
X239335969Y-69022765D01*
X239372385Y-68914028D01*
X239438051Y-68699960D01*
X239503778Y-68464794D01*
X239567911Y-68215211D01*
X239628791Y-67957896D01*
X239684763Y-67699531D01*
X239728308Y-67478394D01*
X239767742Y-67267527D01*
X239839393Y-67624531D01*
X239918574Y-67996304D01*
X240001986Y-68342580D01*
X240090380Y-68665476D01*
X240184506Y-68967112D01*
X240285115Y-69249606D01*
X240392957Y-69515077D01*
X240508782Y-69765644D01*
X240633340Y-70003427D01*
X240755463Y-70211377D01*
X240788713Y-70264208D01*
X240817137Y-70307711D01*
X240837286Y-70336711D01*
X240845108Y-70345978D01*
X240855439Y-70337278D01*
X240874669Y-70308679D01*
X240899527Y-70265318D01*
X240914075Y-70237697D01*
X240994970Y-70086968D01*
X241092218Y-69918122D01*
X241203842Y-69733990D01*
X241327868Y-69537403D01*
X241462319Y-69331194D01*
X241605219Y-69118193D01*
X241754592Y-68901232D01*
X241908462Y-68683144D01*
X242064853Y-68466758D01*
X242221789Y-68254908D01*
X242377294Y-68050425D01*
X242529392Y-67856139D01*
X242676107Y-67674884D01*
X242815463Y-67509489D01*
X242828334Y-67494604D01*
X242946935Y-67357784D01*
X242905588Y-67245166D01*
X242858192Y-67116271D01*
X242819369Y-67011236D01*
X242788217Y-66927748D01*
X242763831Y-66863495D01*
X242745307Y-66816164D01*
X242731741Y-66783443D01*
X242722229Y-66763020D01*
X242715867Y-66752582D01*
X242711936Y-66749809D01*
X242699756Y-66758801D01*
X242668673Y-66784689D01*
X242620561Y-66825841D01*
X242557290Y-66880626D01*
X242480733Y-66947411D01*
X242392761Y-67024565D01*
X242295245Y-67110455D01*
X242190058Y-67203451D01*
X242098198Y-67284924D01*
X241988273Y-67382381D01*
X241884627Y-67473924D01*
X241789108Y-67557945D01*
X241703564Y-67632835D01*
X241629844Y-67696983D01*
X241569796Y-67748780D01*
X241525268Y-67786618D01*
X241498110Y-67808887D01*
X241490072Y-67814383D01*
X241490551Y-67800018D01*
X241493541Y-67759887D01*
X241498867Y-67695932D01*
X241506350Y-67610093D01*
X241515814Y-67504309D01*
X241527083Y-67380522D01*
X241539979Y-67240672D01*
X241554325Y-67086699D01*
X241569946Y-66920543D01*
X241586663Y-66744146D01*
X241588823Y-66721517D01*
X240274761Y-66721517D01*
X240269675Y-66723002D01*
X240249224Y-66707940D01*
X240217665Y-66679527D01*
X240213581Y-66675611D01*
X240164345Y-66634626D01*
X240103164Y-66592615D01*
X240047397Y-66560857D01*
X239923176Y-66513687D01*
X239797078Y-66493548D01*
X239671854Y-66500020D01*
X239550257Y-66532685D01*
X239435039Y-66591125D01*
X239335096Y-66669106D01*
X239299477Y-66700838D01*
X239274193Y-66720248D01*
X239263417Y-66724247D01*
X239263639Y-66721973D01*
X239269007Y-66705234D01*
X239281907Y-66664302D01*
X239301593Y-66601562D01*
X239327319Y-66519396D01*
X239358341Y-66420191D01*
X239393912Y-66306328D01*
X239433287Y-66180193D01*
X239475720Y-66044169D01*
X239518241Y-65907781D01*
X239562706Y-65765200D01*
X239604685Y-65630742D01*
X239643454Y-65506722D01*
X239678287Y-65395456D01*
X239708458Y-65299256D01*
X239733240Y-65220438D01*
X239751909Y-65161316D01*
X239763738Y-65124205D01*
X239767992Y-65111424D01*
X239772461Y-65123775D01*
X239784470Y-65160420D01*
X239803297Y-65219072D01*
X239828218Y-65297444D01*
X239858511Y-65393248D01*
X239893452Y-65504199D01*
X239932318Y-65628009D01*
X239974386Y-65762391D01*
X240018834Y-65904739D01*
X240063598Y-66048217D01*
X240106019Y-66184064D01*
X240145353Y-66309901D01*
X240180854Y-66423353D01*
X240211777Y-66522042D01*
X240237378Y-66603590D01*
X240256913Y-66665621D01*
X240269635Y-66705757D01*
X240274761Y-66721517D01*
X241588823Y-66721517D01*
X241604300Y-66559447D01*
X241607294Y-66528226D01*
X241625037Y-66342262D01*
X241641825Y-66164220D01*
X241657486Y-65996045D01*
X241671848Y-65839685D01*
X241684738Y-65697086D01*
X241695984Y-65570195D01*
X241705414Y-65460958D01*
X241712856Y-65371322D01*
X241718138Y-65303233D01*
X241721087Y-65258639D01*
X241721531Y-65239484D01*
X241721354Y-65238907D01*
X241707029Y-65242256D01*
X241670125Y-65255663D01*
X241613528Y-65277948D01*
X241540125Y-65307932D01*
X241452803Y-65344435D01*
X241354450Y-65386277D01*
X241247952Y-65432278D01*
X241245751Y-65433236D01*
X241139229Y-65479540D01*
X241040989Y-65522138D01*
X240953895Y-65559797D01*
X240880808Y-65591284D01*
X240824590Y-65615366D01*
X240788103Y-65630809D01*
X240774210Y-65636382D01*
X240774182Y-65636384D01*
X240766831Y-65624521D01*
X240747081Y-65590206D01*
X240715996Y-65535344D01*
X240674646Y-65461843D01*
X240624096Y-65371612D01*
X240565414Y-65266557D01*
X240499667Y-65148586D01*
X240427921Y-65019607D01*
X240351245Y-64881526D01*
X240276178Y-64746132D01*
X240195703Y-64601212D01*
X240118937Y-64463622D01*
X240046968Y-64335271D01*
X239980884Y-64218072D01*
X239921774Y-64113933D01*
X239870725Y-64024764D01*
X239828826Y-63952476D01*
X239797165Y-63898978D01*
X239776831Y-63866182D01*
X239769041Y-63855933D01*
X239760172Y-63867810D01*
G37*
X239760172Y-63867810D02*
X239738969Y-63902138D01*
X239706534Y-63956988D01*
X239663966Y-64030430D01*
X239612366Y-64120537D01*
X239552834Y-64225380D01*
X239486470Y-64343029D01*
X239414374Y-64471556D01*
X239337648Y-64609033D01*
X239271106Y-64728787D01*
X239191262Y-64872733D01*
X239115205Y-65009789D01*
X239044035Y-65137976D01*
X238978853Y-65255311D01*
X238920762Y-65359816D01*
X238870862Y-65449509D01*
X238830255Y-65522410D01*
X238800041Y-65576539D01*
X238781322Y-65609916D01*
X238775333Y-65620394D01*
X238766886Y-65623201D01*
X238747181Y-65619900D01*
X238714174Y-65609702D01*
X238665820Y-65591817D01*
X238600077Y-65565456D01*
X238514898Y-65529831D01*
X238408240Y-65484152D01*
X238294435Y-65434770D01*
X238187542Y-65388519D01*
X238088735Y-65346396D01*
X238000891Y-65309580D01*
X237926887Y-65279250D01*
X237869602Y-65256585D01*
X237831914Y-65242763D01*
X237816699Y-65238964D01*
X237816601Y-65239034D01*
X237816640Y-65253846D01*
X237819210Y-65294416D01*
X237824141Y-65358798D01*
X237831258Y-65445044D01*
X237840390Y-65551209D01*
X237851365Y-65675346D01*
X237864010Y-65815509D01*
X237878152Y-65969751D01*
X237893620Y-66136127D01*
X237910240Y-66312690D01*
X237927841Y-66497493D01*
X237930788Y-66528226D01*
X237948559Y-66714115D01*
X237965436Y-66892027D01*
X237981242Y-67060020D01*
X237995802Y-67216154D01*
X238008937Y-67358488D01*
X238020472Y-67485082D01*
X238030231Y-67593995D01*
X238038035Y-67683285D01*
X238043709Y-67751013D01*
X238047077Y-67795238D01*
X238047960Y-67814019D01*
X238047855Y-67814538D01*
X238036697Y-67806621D01*
X238006625Y-67781773D01*
X237959487Y-67741605D01*
X237897133Y-67687726D01*
X237821409Y-67621745D01*
X237734165Y-67545272D01*
X237637249Y-67459918D01*
X237532510Y-67367291D01*
X237439878Y-67285079D01*
X237329784Y-67187387D01*
X237225801Y-67095446D01*
X237129800Y-67010890D01*
X237043652Y-66935352D01*
X236969231Y-66870465D01*
X236908406Y-66817861D01*
X236863051Y-66779174D01*
X236835036Y-66756035D01*
X236826294Y-66749809D01*
X236822045Y-66752925D01*
X236815516Y-66763816D01*
X236805802Y-66784795D01*
X236791998Y-66818177D01*
X236773199Y-66866276D01*
X236748499Y-66931404D01*
X236716994Y-67015877D01*
X236677778Y-67122007D01*
X236632494Y-67245166D01*
X236591147Y-67357784D01*
X236709748Y-67494604D01*
X236862768Y-67675611D01*
X237023267Y-67873790D01*
X237188993Y-68085920D01*
X237357694Y-68308782D01*
X237527121Y-68539156D01*
X237695021Y-68773821D01*
X237859143Y-69009558D01*
X238017236Y-69243146D01*
X238167048Y-69471366D01*
X238306328Y-69690997D01*
X238432826Y-69898819D01*
X238544289Y-70091613D01*
X238611616Y-70214873D01*
X238687199Y-70357245D01*
X238733111Y-70290515D01*
X238820633Y-70153790D01*
X238911323Y-69994444D01*
X239003001Y-69817174D01*
X239093486Y-69626674D01*
X239180596Y-69427642D01*
X239262151Y-69224774D01*
X239335969Y-69022765D01*
X239372385Y-68914028D01*
X239438051Y-68699960D01*
X239503778Y-68464794D01*
X239567911Y-68215211D01*
X239628791Y-67957896D01*
X239684763Y-67699531D01*
X239728308Y-67478394D01*
X239767742Y-67267527D01*
X239839393Y-67624531D01*
X239918574Y-67996304D01*
X240001986Y-68342580D01*
X240090380Y-68665476D01*
X240184506Y-68967112D01*
X240285115Y-69249606D01*
X240392957Y-69515077D01*
X240508782Y-69765644D01*
X240633340Y-70003427D01*
X240755463Y-70211377D01*
X240788713Y-70264208D01*
X240817137Y-70307711D01*
X240837286Y-70336711D01*
X240845108Y-70345978D01*
X240855439Y-70337278D01*
X240874669Y-70308679D01*
X240899527Y-70265318D01*
X240914075Y-70237697D01*
X240994970Y-70086968D01*
X241092218Y-69918122D01*
X241203842Y-69733990D01*
X241327868Y-69537403D01*
X241462319Y-69331194D01*
X241605219Y-69118193D01*
X241754592Y-68901232D01*
X241908462Y-68683144D01*
X242064853Y-68466758D01*
X242221789Y-68254908D01*
X242377294Y-68050425D01*
X242529392Y-67856139D01*
X242676107Y-67674884D01*
X242815463Y-67509489D01*
X242828334Y-67494604D01*
X242946935Y-67357784D01*
X242905588Y-67245166D01*
X242858192Y-67116271D01*
X242819369Y-67011236D01*
X242788217Y-66927748D01*
X242763831Y-66863495D01*
X242745307Y-66816164D01*
X242731741Y-66783443D01*
X242722229Y-66763020D01*
X242715867Y-66752582D01*
X242711936Y-66749809D01*
X242699756Y-66758801D01*
X242668673Y-66784689D01*
X242620561Y-66825841D01*
X242557290Y-66880626D01*
X242480733Y-66947411D01*
X242392761Y-67024565D01*
X242295245Y-67110455D01*
X242190058Y-67203451D01*
X242098198Y-67284924D01*
X241988273Y-67382381D01*
X241884627Y-67473924D01*
X241789108Y-67557945D01*
X241703564Y-67632835D01*
X241629844Y-67696983D01*
X241569796Y-67748780D01*
X241525268Y-67786618D01*
X241498110Y-67808887D01*
X241490072Y-67814383D01*
X241490551Y-67800018D01*
X241493541Y-67759887D01*
X241498867Y-67695932D01*
X241506350Y-67610093D01*
X241515814Y-67504309D01*
X241527083Y-67380522D01*
X241539979Y-67240672D01*
X241554325Y-67086699D01*
X241569946Y-66920543D01*
X241586663Y-66744146D01*
X241588823Y-66721517D01*
X240274761Y-66721517D01*
X240269675Y-66723002D01*
X240249224Y-66707940D01*
X240217665Y-66679527D01*
X240213581Y-66675611D01*
X240164345Y-66634626D01*
X240103164Y-66592615D01*
X240047397Y-66560857D01*
X239923176Y-66513687D01*
X239797078Y-66493548D01*
X239671854Y-66500020D01*
X239550257Y-66532685D01*
X239435039Y-66591125D01*
X239335096Y-66669106D01*
X239299477Y-66700838D01*
X239274193Y-66720248D01*
X239263417Y-66724247D01*
X239263639Y-66721973D01*
X239269007Y-66705234D01*
X239281907Y-66664302D01*
X239301593Y-66601562D01*
X239327319Y-66519396D01*
X239358341Y-66420191D01*
X239393912Y-66306328D01*
X239433287Y-66180193D01*
X239475720Y-66044169D01*
X239518241Y-65907781D01*
X239562706Y-65765200D01*
X239604685Y-65630742D01*
X239643454Y-65506722D01*
X239678287Y-65395456D01*
X239708458Y-65299256D01*
X239733240Y-65220438D01*
X239751909Y-65161316D01*
X239763738Y-65124205D01*
X239767992Y-65111424D01*
X239772461Y-65123775D01*
X239784470Y-65160420D01*
X239803297Y-65219072D01*
X239828218Y-65297444D01*
X239858511Y-65393248D01*
X239893452Y-65504199D01*
X239932318Y-65628009D01*
X239974386Y-65762391D01*
X240018834Y-65904739D01*
X240063598Y-66048217D01*
X240106019Y-66184064D01*
X240145353Y-66309901D01*
X240180854Y-66423353D01*
X240211777Y-66522042D01*
X240237378Y-66603590D01*
X240256913Y-66665621D01*
X240269635Y-66705757D01*
X240274761Y-66721517D01*
X241588823Y-66721517D01*
X241604300Y-66559447D01*
X241607294Y-66528226D01*
X241625037Y-66342262D01*
X241641825Y-66164220D01*
X241657486Y-65996045D01*
X241671848Y-65839685D01*
X241684738Y-65697086D01*
X241695984Y-65570195D01*
X241705414Y-65460958D01*
X241712856Y-65371322D01*
X241718138Y-65303233D01*
X241721087Y-65258639D01*
X241721531Y-65239484D01*
X241721354Y-65238907D01*
X241707029Y-65242256D01*
X241670125Y-65255663D01*
X241613528Y-65277948D01*
X241540125Y-65307932D01*
X241452803Y-65344435D01*
X241354450Y-65386277D01*
X241247952Y-65432278D01*
X241245751Y-65433236D01*
X241139229Y-65479540D01*
X241040989Y-65522138D01*
X240953895Y-65559797D01*
X240880808Y-65591284D01*
X240824590Y-65615366D01*
X240788103Y-65630809D01*
X240774210Y-65636382D01*
X240774182Y-65636384D01*
X240766831Y-65624521D01*
X240747081Y-65590206D01*
X240715996Y-65535344D01*
X240674646Y-65461843D01*
X240624096Y-65371612D01*
X240565414Y-65266557D01*
X240499667Y-65148586D01*
X240427921Y-65019607D01*
X240351245Y-64881526D01*
X240276178Y-64746132D01*
X240195703Y-64601212D01*
X240118937Y-64463622D01*
X240046968Y-64335271D01*
X239980884Y-64218072D01*
X239921774Y-64113933D01*
X239870725Y-64024764D01*
X239828826Y-63952476D01*
X239797165Y-63898978D01*
X239776831Y-63866182D01*
X239769041Y-63855933D01*
X239760172Y-63867810D01*
G36*
X244574607Y-67259939D02*
G01*
X244535934Y-67266799D01*
X244475296Y-67278060D01*
X244395362Y-67293210D01*
X244298802Y-67311742D01*
X244188283Y-67333144D01*
X244066476Y-67356909D01*
X243936049Y-67382526D01*
X243933812Y-67382967D01*
X243772646Y-67414947D01*
X243637050Y-67442363D01*
X243525208Y-67465630D01*
X243435305Y-67485159D01*
X243365522Y-67501365D01*
X243314044Y-67514660D01*
X243279053Y-67525457D01*
X243258735Y-67534169D01*
X243253796Y-67537608D01*
X243228853Y-67564453D01*
X243190548Y-67611311D01*
X243141107Y-67675132D01*
X243082753Y-67752866D01*
X243017712Y-67841463D01*
X242948208Y-67937874D01*
X242876467Y-68039048D01*
X242804712Y-68141937D01*
X242735170Y-68243490D01*
X242691454Y-68308467D01*
X242484917Y-68626668D01*
X242282563Y-68955552D01*
X242086692Y-69290858D01*
X241899603Y-69628325D01*
X241723597Y-69963694D01*
X241560974Y-70292703D01*
X241414032Y-70611092D01*
X241286437Y-70911233D01*
X241254268Y-70993260D01*
X241219301Y-71086875D01*
X241183179Y-71187236D01*
X241147540Y-71289498D01*
X241114027Y-71388817D01*
X241084280Y-71480352D01*
X241059940Y-71559258D01*
X241042648Y-71620691D01*
X241035223Y-71652744D01*
X241026707Y-71686030D01*
X241017760Y-71703689D01*
X241015847Y-71704548D01*
X241002492Y-71694468D01*
X240973856Y-71666284D01*
X240932709Y-71623081D01*
X240881824Y-71567946D01*
X240823969Y-71503962D01*
X240761916Y-71434216D01*
X240698436Y-71361793D01*
X240636298Y-71289778D01*
X240578273Y-71221256D01*
X240535902Y-71170079D01*
X240406138Y-71006280D01*
X240286641Y-70844245D01*
X240173166Y-70677624D01*
X240061465Y-70500069D01*
X239947293Y-70305229D01*
X239894377Y-70210942D01*
X239854974Y-70141513D01*
X239819669Y-70082332D01*
X239790760Y-70037010D01*
X239770545Y-70009158D01*
X239761482Y-70002175D01*
X239750948Y-70018292D01*
X239730315Y-70053695D01*
X239702590Y-70103112D01*
X239671644Y-70159672D01*
X239517823Y-70431432D01*
X239361507Y-70681619D01*
X239198580Y-70916450D01*
X239024926Y-71142139D01*
X239003326Y-71168713D01*
X238950439Y-71232421D01*
X238891232Y-71302080D01*
X238828467Y-71374611D01*
X238764910Y-71446936D01*
X238703322Y-71515977D01*
X238646468Y-71578657D01*
X238597111Y-71631896D01*
X238558016Y-71672618D01*
X238531945Y-71697743D01*
X238522235Y-71704548D01*
X238513743Y-71692361D01*
X238504781Y-71662137D01*
X238502859Y-71652744D01*
X238492029Y-71607851D01*
X238472903Y-71541800D01*
X238447121Y-71459434D01*
X238416324Y-71365597D01*
X238382153Y-71265133D01*
X238346249Y-71162886D01*
X238310254Y-71063697D01*
X238275807Y-70972412D01*
X238251645Y-70911233D01*
X238125016Y-70613402D01*
X237980683Y-70300521D01*
X237820965Y-69976883D01*
X237648177Y-69646779D01*
X237464635Y-69314501D01*
X237272656Y-68984342D01*
X237074556Y-68660592D01*
X236872651Y-68347543D01*
X236848010Y-68310501D01*
X236781245Y-68211644D01*
X236710778Y-68109388D01*
X236638831Y-68006778D01*
X236567624Y-67906859D01*
X236499376Y-67812678D01*
X236436310Y-67727278D01*
X236380644Y-67653707D01*
X236334600Y-67595008D01*
X236300397Y-67554228D01*
X236284894Y-67538158D01*
X236270188Y-67530221D01*
X236240419Y-67520132D01*
X236193887Y-67507504D01*
X236128897Y-67491953D01*
X236043752Y-67473094D01*
X235936753Y-67450541D01*
X235806205Y-67423909D01*
X235650410Y-67392813D01*
X235604878Y-67383816D01*
X235474268Y-67358127D01*
X235352233Y-67334273D01*
X235241438Y-67312763D01*
X235144553Y-67294110D01*
X235064245Y-67278824D01*
X235003182Y-67267415D01*
X234964030Y-67260395D01*
X234949459Y-67258274D01*
X234949437Y-67258286D01*
X234952259Y-67271686D01*
X234961286Y-67309291D01*
X234975817Y-67368342D01*
X234995153Y-67446077D01*
X235018593Y-67539738D01*
X235045436Y-67646563D01*
X235074983Y-67763794D01*
X235106534Y-67888668D01*
X235139387Y-68018427D01*
X235172843Y-68150310D01*
X235206202Y-68281557D01*
X235238763Y-68409407D01*
X235269826Y-68531102D01*
X235298690Y-68643880D01*
X235324656Y-68744981D01*
X235347024Y-68831645D01*
X235365092Y-68901113D01*
X235378161Y-68950623D01*
X235385531Y-68977416D01*
X235385849Y-68978481D01*
X235382470Y-68989082D01*
X235365865Y-69005195D01*
X235333883Y-69028232D01*
X235284370Y-69059607D01*
X235215174Y-69100732D01*
X235124142Y-69153021D01*
X235093070Y-69170633D01*
X235010611Y-69217680D01*
X234936832Y-69260570D01*
X234875012Y-69297331D01*
X234828428Y-69325994D01*
X234800359Y-69344588D01*
X234793425Y-69350799D01*
X234804851Y-69359622D01*
X234838182Y-69382694D01*
X234891995Y-69419075D01*
X234964867Y-69467826D01*
X235055377Y-69528007D01*
X235162101Y-69598680D01*
X235283617Y-69678904D01*
X235418503Y-69767740D01*
X235565337Y-69864249D01*
X235722695Y-69967492D01*
X235889155Y-70076528D01*
X236063296Y-70190419D01*
X236198962Y-70279030D01*
X236377982Y-70396004D01*
X236550400Y-70508882D01*
X236714790Y-70616720D01*
X236869729Y-70718575D01*
X237013795Y-70813504D01*
X237145564Y-70900564D01*
X237263613Y-70978813D01*
X237366519Y-71047307D01*
X237452857Y-71105102D01*
X237521205Y-71151257D01*
X237570140Y-71184828D01*
X237598238Y-71204872D01*
X237604782Y-71210466D01*
X237600767Y-71226370D01*
X237589190Y-71265896D01*
X237570946Y-71326145D01*
X237546927Y-71404218D01*
X237518027Y-71497218D01*
X237485140Y-71602245D01*
X237449159Y-71716400D01*
X237436203Y-71757334D01*
X237399627Y-71873683D01*
X237366219Y-71981715D01*
X237336824Y-72078568D01*
X237312284Y-72161382D01*
X237293443Y-72227297D01*
X237281144Y-72273452D01*
X237276230Y-72296987D01*
X237276421Y-72299362D01*
X237291269Y-72299074D01*
X237331778Y-72295633D01*
X237395977Y-72289262D01*
X237481896Y-72280180D01*
X237587567Y-72268609D01*
X237711018Y-72254769D01*
X237850279Y-72238882D01*
X238003382Y-72221167D01*
X238168355Y-72201847D01*
X238343229Y-72181142D01*
X238526034Y-72159273D01*
X238527271Y-72159124D01*
X239769041Y-72009808D01*
X240985364Y-72156411D01*
X241166959Y-72178254D01*
X241341083Y-72199114D01*
X241505692Y-72218748D01*
X241658745Y-72236919D01*
X241798197Y-72253387D01*
X241922006Y-72267911D01*
X242028130Y-72280251D01*
X242114524Y-72290169D01*
X242179146Y-72297423D01*
X242219953Y-72301775D01*
X242234488Y-72303014D01*
X242259686Y-72298837D01*
X242267288Y-72291463D01*
X242263212Y-72276076D01*
X242251584Y-72237068D01*
X242233304Y-72177338D01*
X242209273Y-72099788D01*
X242180389Y-72007316D01*
X242147554Y-71902824D01*
X242111666Y-71789210D01*
X242100274Y-71753261D01*
X242063615Y-71637287D01*
X242029743Y-71529408D01*
X241999559Y-71432546D01*
X241973965Y-71349627D01*
X241953861Y-71283575D01*
X241940149Y-71237316D01*
X241933730Y-71213773D01*
X241933361Y-71211579D01*
X241944803Y-71202202D01*
X241978154Y-71178590D01*
X242031993Y-71141688D01*
X242104894Y-71092439D01*
X242195435Y-71031787D01*
X242302194Y-70960679D01*
X242423747Y-70880056D01*
X242558671Y-70790865D01*
X242705543Y-70694049D01*
X242862940Y-70590552D01*
X243029438Y-70481319D01*
X243203616Y-70367295D01*
X243339059Y-70278790D01*
X243518051Y-70161835D01*
X243690438Y-70049031D01*
X243854797Y-69941315D01*
X244009705Y-69839627D01*
X244153741Y-69744907D01*
X244285483Y-69658094D01*
X244403508Y-69580127D01*
X244506394Y-69511944D01*
X244592718Y-69454487D01*
X244661059Y-69408692D01*
X244709994Y-69375501D01*
X244738101Y-69355852D01*
X244744657Y-69350559D01*
X244733049Y-69341112D01*
X244700407Y-69320074D01*
X244650011Y-69289414D01*
X244585137Y-69251099D01*
X244509064Y-69207097D01*
X244445012Y-69170633D01*
X244347185Y-69114812D01*
X244271823Y-69070567D01*
X244216774Y-69036486D01*
X244179886Y-69011155D01*
X244159006Y-68993163D01*
X244151980Y-68981095D01*
X244152233Y-68978481D01*
X244159168Y-68953447D01*
X244171853Y-68905491D01*
X244189587Y-68837374D01*
X244211670Y-68751855D01*
X244237402Y-68651697D01*
X244266082Y-68539658D01*
X244297011Y-68418500D01*
X244329488Y-68290983D01*
X244362814Y-68159868D01*
X244396287Y-68027914D01*
X244429208Y-67897882D01*
X244460876Y-67772534D01*
X244490591Y-67654628D01*
X244517654Y-67546926D01*
X244541363Y-67452188D01*
X244561019Y-67373175D01*
X244575921Y-67312647D01*
X244585370Y-67273364D01*
X244588665Y-67258087D01*
X244588646Y-67257987D01*
X244574607Y-67259939D01*
G37*
X244574607Y-67259939D02*
X244535934Y-67266799D01*
X244475296Y-67278060D01*
X244395362Y-67293210D01*
X244298802Y-67311742D01*
X244188283Y-67333144D01*
X244066476Y-67356909D01*
X243936049Y-67382526D01*
X243933812Y-67382967D01*
X243772646Y-67414947D01*
X243637050Y-67442363D01*
X243525208Y-67465630D01*
X243435305Y-67485159D01*
X243365522Y-67501365D01*
X243314044Y-67514660D01*
X243279053Y-67525457D01*
X243258735Y-67534169D01*
X243253796Y-67537608D01*
X243228853Y-67564453D01*
X243190548Y-67611311D01*
X243141107Y-67675132D01*
X243082753Y-67752866D01*
X243017712Y-67841463D01*
X242948208Y-67937874D01*
X242876467Y-68039048D01*
X242804712Y-68141937D01*
X242735170Y-68243490D01*
X242691454Y-68308467D01*
X242484917Y-68626668D01*
X242282563Y-68955552D01*
X242086692Y-69290858D01*
X241899603Y-69628325D01*
X241723597Y-69963694D01*
X241560974Y-70292703D01*
X241414032Y-70611092D01*
X241286437Y-70911233D01*
X241254268Y-70993260D01*
X241219301Y-71086875D01*
X241183179Y-71187236D01*
X241147540Y-71289498D01*
X241114027Y-71388817D01*
X241084280Y-71480352D01*
X241059940Y-71559258D01*
X241042648Y-71620691D01*
X241035223Y-71652744D01*
X241026707Y-71686030D01*
X241017760Y-71703689D01*
X241015847Y-71704548D01*
X241002492Y-71694468D01*
X240973856Y-71666284D01*
X240932709Y-71623081D01*
X240881824Y-71567946D01*
X240823969Y-71503962D01*
X240761916Y-71434216D01*
X240698436Y-71361793D01*
X240636298Y-71289778D01*
X240578273Y-71221256D01*
X240535902Y-71170079D01*
X240406138Y-71006280D01*
X240286641Y-70844245D01*
X240173166Y-70677624D01*
X240061465Y-70500069D01*
X239947293Y-70305229D01*
X239894377Y-70210942D01*
X239854974Y-70141513D01*
X239819669Y-70082332D01*
X239790760Y-70037010D01*
X239770545Y-70009158D01*
X239761482Y-70002175D01*
X239750948Y-70018292D01*
X239730315Y-70053695D01*
X239702590Y-70103112D01*
X239671644Y-70159672D01*
X239517823Y-70431432D01*
X239361507Y-70681619D01*
X239198580Y-70916450D01*
X239024926Y-71142139D01*
X239003326Y-71168713D01*
X238950439Y-71232421D01*
X238891232Y-71302080D01*
X238828467Y-71374611D01*
X238764910Y-71446936D01*
X238703322Y-71515977D01*
X238646468Y-71578657D01*
X238597111Y-71631896D01*
X238558016Y-71672618D01*
X238531945Y-71697743D01*
X238522235Y-71704548D01*
X238513743Y-71692361D01*
X238504781Y-71662137D01*
X238502859Y-71652744D01*
X238492029Y-71607851D01*
X238472903Y-71541800D01*
X238447121Y-71459434D01*
X238416324Y-71365597D01*
X238382153Y-71265133D01*
X238346249Y-71162886D01*
X238310254Y-71063697D01*
X238275807Y-70972412D01*
X238251645Y-70911233D01*
X238125016Y-70613402D01*
X237980683Y-70300521D01*
X237820965Y-69976883D01*
X237648177Y-69646779D01*
X237464635Y-69314501D01*
X237272656Y-68984342D01*
X237074556Y-68660592D01*
X236872651Y-68347543D01*
X236848010Y-68310501D01*
X236781245Y-68211644D01*
X236710778Y-68109388D01*
X236638831Y-68006778D01*
X236567624Y-67906859D01*
X236499376Y-67812678D01*
X236436310Y-67727278D01*
X236380644Y-67653707D01*
X236334600Y-67595008D01*
X236300397Y-67554228D01*
X236284894Y-67538158D01*
X236270188Y-67530221D01*
X236240419Y-67520132D01*
X236193887Y-67507504D01*
X236128897Y-67491953D01*
X236043752Y-67473094D01*
X235936753Y-67450541D01*
X235806205Y-67423909D01*
X235650410Y-67392813D01*
X235604878Y-67383816D01*
X235474268Y-67358127D01*
X235352233Y-67334273D01*
X235241438Y-67312763D01*
X235144553Y-67294110D01*
X235064245Y-67278824D01*
X235003182Y-67267415D01*
X234964030Y-67260395D01*
X234949459Y-67258274D01*
X234949437Y-67258286D01*
X234952259Y-67271686D01*
X234961286Y-67309291D01*
X234975817Y-67368342D01*
X234995153Y-67446077D01*
X235018593Y-67539738D01*
X235045436Y-67646563D01*
X235074983Y-67763794D01*
X235106534Y-67888668D01*
X235139387Y-68018427D01*
X235172843Y-68150310D01*
X235206202Y-68281557D01*
X235238763Y-68409407D01*
X235269826Y-68531102D01*
X235298690Y-68643880D01*
X235324656Y-68744981D01*
X235347024Y-68831645D01*
X235365092Y-68901113D01*
X235378161Y-68950623D01*
X235385531Y-68977416D01*
X235385849Y-68978481D01*
X235382470Y-68989082D01*
X235365865Y-69005195D01*
X235333883Y-69028232D01*
X235284370Y-69059607D01*
X235215174Y-69100732D01*
X235124142Y-69153021D01*
X235093070Y-69170633D01*
X235010611Y-69217680D01*
X234936832Y-69260570D01*
X234875012Y-69297331D01*
X234828428Y-69325994D01*
X234800359Y-69344588D01*
X234793425Y-69350799D01*
X234804851Y-69359622D01*
X234838182Y-69382694D01*
X234891995Y-69419075D01*
X234964867Y-69467826D01*
X235055377Y-69528007D01*
X235162101Y-69598680D01*
X235283617Y-69678904D01*
X235418503Y-69767740D01*
X235565337Y-69864249D01*
X235722695Y-69967492D01*
X235889155Y-70076528D01*
X236063296Y-70190419D01*
X236198962Y-70279030D01*
X236377982Y-70396004D01*
X236550400Y-70508882D01*
X236714790Y-70616720D01*
X236869729Y-70718575D01*
X237013795Y-70813504D01*
X237145564Y-70900564D01*
X237263613Y-70978813D01*
X237366519Y-71047307D01*
X237452857Y-71105102D01*
X237521205Y-71151257D01*
X237570140Y-71184828D01*
X237598238Y-71204872D01*
X237604782Y-71210466D01*
X237600767Y-71226370D01*
X237589190Y-71265896D01*
X237570946Y-71326145D01*
X237546927Y-71404218D01*
X237518027Y-71497218D01*
X237485140Y-71602245D01*
X237449159Y-71716400D01*
X237436203Y-71757334D01*
X237399627Y-71873683D01*
X237366219Y-71981715D01*
X237336824Y-72078568D01*
X237312284Y-72161382D01*
X237293443Y-72227297D01*
X237281144Y-72273452D01*
X237276230Y-72296987D01*
X237276421Y-72299362D01*
X237291269Y-72299074D01*
X237331778Y-72295633D01*
X237395977Y-72289262D01*
X237481896Y-72280180D01*
X237587567Y-72268609D01*
X237711018Y-72254769D01*
X237850279Y-72238882D01*
X238003382Y-72221167D01*
X238168355Y-72201847D01*
X238343229Y-72181142D01*
X238526034Y-72159273D01*
X238527271Y-72159124D01*
X239769041Y-72009808D01*
X240985364Y-72156411D01*
X241166959Y-72178254D01*
X241341083Y-72199114D01*
X241505692Y-72218748D01*
X241658745Y-72236919D01*
X241798197Y-72253387D01*
X241922006Y-72267911D01*
X242028130Y-72280251D01*
X242114524Y-72290169D01*
X242179146Y-72297423D01*
X242219953Y-72301775D01*
X242234488Y-72303014D01*
X242259686Y-72298837D01*
X242267288Y-72291463D01*
X242263212Y-72276076D01*
X242251584Y-72237068D01*
X242233304Y-72177338D01*
X242209273Y-72099788D01*
X242180389Y-72007316D01*
X242147554Y-71902824D01*
X242111666Y-71789210D01*
X242100274Y-71753261D01*
X242063615Y-71637287D01*
X242029743Y-71529408D01*
X241999559Y-71432546D01*
X241973965Y-71349627D01*
X241953861Y-71283575D01*
X241940149Y-71237316D01*
X241933730Y-71213773D01*
X241933361Y-71211579D01*
X241944803Y-71202202D01*
X241978154Y-71178590D01*
X242031993Y-71141688D01*
X242104894Y-71092439D01*
X242195435Y-71031787D01*
X242302194Y-70960679D01*
X242423747Y-70880056D01*
X242558671Y-70790865D01*
X242705543Y-70694049D01*
X242862940Y-70590552D01*
X243029438Y-70481319D01*
X243203616Y-70367295D01*
X243339059Y-70278790D01*
X243518051Y-70161835D01*
X243690438Y-70049031D01*
X243854797Y-69941315D01*
X244009705Y-69839627D01*
X244153741Y-69744907D01*
X244285483Y-69658094D01*
X244403508Y-69580127D01*
X244506394Y-69511944D01*
X244592718Y-69454487D01*
X244661059Y-69408692D01*
X244709994Y-69375501D01*
X244738101Y-69355852D01*
X244744657Y-69350559D01*
X244733049Y-69341112D01*
X244700407Y-69320074D01*
X244650011Y-69289414D01*
X244585137Y-69251099D01*
X244509064Y-69207097D01*
X244445012Y-69170633D01*
X244347185Y-69114812D01*
X244271823Y-69070567D01*
X244216774Y-69036486D01*
X244179886Y-69011155D01*
X244159006Y-68993163D01*
X244151980Y-68981095D01*
X244152233Y-68978481D01*
X244159168Y-68953447D01*
X244171853Y-68905491D01*
X244189587Y-68837374D01*
X244211670Y-68751855D01*
X244237402Y-68651697D01*
X244266082Y-68539658D01*
X244297011Y-68418500D01*
X244329488Y-68290983D01*
X244362814Y-68159868D01*
X244396287Y-68027914D01*
X244429208Y-67897882D01*
X244460876Y-67772534D01*
X244490591Y-67654628D01*
X244517654Y-67546926D01*
X244541363Y-67452188D01*
X244561019Y-67373175D01*
X244575921Y-67312647D01*
X244585370Y-67273364D01*
X244588665Y-67258087D01*
X244588646Y-67257987D01*
X244574607Y-67259939D01*
D13*
X207017252Y-116130000D02*
X206494748Y-116130000D01*
X207017252Y-117550000D02*
X206494748Y-117550000D01*
X196290000Y-67444252D02*
X196290000Y-66921748D01*
X194870000Y-67444252D02*
X194870000Y-66921748D01*
X191718000Y-122429748D02*
X191718000Y-122952252D01*
X190298000Y-122429748D02*
X190298000Y-122952252D01*
X196290000Y-71874748D02*
X196290000Y-72397252D01*
X194870000Y-71874748D02*
X194870000Y-72397252D01*
X191718000Y-117990252D02*
X191718000Y-117467748D01*
X190298000Y-117990252D02*
X190298000Y-117467748D01*
X208682000Y-111854064D02*
X208682000Y-110649936D01*
X206862000Y-111854064D02*
X206862000Y-110649936D01*
X203433000Y-111854064D02*
X203433000Y-110649936D01*
X205253000Y-111854064D02*
X205253000Y-110649936D01*
X200776000Y-114341000D02*
X202576000Y-114341000D01*
X202576000Y-117561000D02*
X200126000Y-117561000D01*
D10*
X237450380Y-92130666D02*
X238164666Y-92130666D01*
X238307523Y-92083047D01*
X238402761Y-91987809D01*
X238450380Y-91844952D01*
X238450380Y-91749714D01*
X238450380Y-92606857D02*
X237450380Y-92606857D01*
X237450380Y-92987809D01*
X237498000Y-93083047D01*
X237545619Y-93130666D01*
X237640857Y-93178285D01*
X237783714Y-93178285D01*
X237878952Y-93130666D01*
X237926571Y-93083047D01*
X237974190Y-92987809D01*
X237974190Y-92606857D01*
X237545619Y-93559238D02*
X237498000Y-93606857D01*
X237450380Y-93702095D01*
X237450380Y-93940190D01*
X237498000Y-94035428D01*
X237545619Y-94083047D01*
X237640857Y-94130666D01*
X237736095Y-94130666D01*
X237878952Y-94083047D01*
X238450380Y-93511619D01*
X238450380Y-94130666D01*
X189444380Y-83613666D02*
X190158666Y-83613666D01*
X190301523Y-83566047D01*
X190396761Y-83470809D01*
X190444380Y-83327952D01*
X190444380Y-83232714D01*
X190444380Y-84613666D02*
X190444380Y-84042238D01*
X190444380Y-84327952D02*
X189444380Y-84327952D01*
X189587238Y-84232714D01*
X189682476Y-84137476D01*
X189730095Y-84042238D01*
X215114142Y-101433333D02*
X215161761Y-101385714D01*
X215209380Y-101242857D01*
X215209380Y-101147619D01*
X215161761Y-101004761D01*
X215066523Y-100909523D01*
X214971285Y-100861904D01*
X214780809Y-100814285D01*
X214637952Y-100814285D01*
X214447476Y-100861904D01*
X214352238Y-100909523D01*
X214257000Y-101004761D01*
X214209380Y-101147619D01*
X214209380Y-101242857D01*
X214257000Y-101385714D01*
X214304619Y-101433333D01*
X214542714Y-102290476D02*
X215209380Y-102290476D01*
X214161761Y-102052380D02*
X214876047Y-101814285D01*
X214876047Y-102433333D01*
X215114142Y-88733333D02*
X215161761Y-88685714D01*
X215209380Y-88542857D01*
X215209380Y-88447619D01*
X215161761Y-88304761D01*
X215066523Y-88209523D01*
X214971285Y-88161904D01*
X214780809Y-88114285D01*
X214637952Y-88114285D01*
X214447476Y-88161904D01*
X214352238Y-88209523D01*
X214257000Y-88304761D01*
X214209380Y-88447619D01*
X214209380Y-88542857D01*
X214257000Y-88685714D01*
X214304619Y-88733333D01*
X214209380Y-89638095D02*
X214209380Y-89161904D01*
X214685571Y-89114285D01*
X214637952Y-89161904D01*
X214590333Y-89257142D01*
X214590333Y-89495238D01*
X214637952Y-89590476D01*
X214685571Y-89638095D01*
X214780809Y-89685714D01*
X215018904Y-89685714D01*
X215114142Y-89638095D01*
X215161761Y-89590476D01*
X215209380Y-89495238D01*
X215209380Y-89257142D01*
X215161761Y-89161904D01*
X215114142Y-89114285D01*
X201399142Y-65374333D02*
X201446761Y-65326714D01*
X201494380Y-65183857D01*
X201494380Y-65088619D01*
X201446761Y-64945761D01*
X201351523Y-64850523D01*
X201256285Y-64802904D01*
X201065809Y-64755285D01*
X200922952Y-64755285D01*
X200732476Y-64802904D01*
X200637238Y-64850523D01*
X200542000Y-64945761D01*
X200494380Y-65088619D01*
X200494380Y-65183857D01*
X200542000Y-65326714D01*
X200589619Y-65374333D01*
X200494380Y-66231476D02*
X200494380Y-66041000D01*
X200542000Y-65945761D01*
X200589619Y-65898142D01*
X200732476Y-65802904D01*
X200922952Y-65755285D01*
X201303904Y-65755285D01*
X201399142Y-65802904D01*
X201446761Y-65850523D01*
X201494380Y-65945761D01*
X201494380Y-66136238D01*
X201446761Y-66231476D01*
X201399142Y-66279095D01*
X201303904Y-66326714D01*
X201065809Y-66326714D01*
X200970571Y-66279095D01*
X200922952Y-66231476D01*
X200875333Y-66136238D01*
X200875333Y-65945761D01*
X200922952Y-65850523D01*
X200970571Y-65802904D01*
X201065809Y-65755285D01*
X212304380Y-94234095D02*
X213113904Y-94234095D01*
X213209142Y-94281714D01*
X213256761Y-94329333D01*
X213304380Y-94424571D01*
X213304380Y-94615047D01*
X213256761Y-94710285D01*
X213209142Y-94757904D01*
X213113904Y-94805523D01*
X212304380Y-94805523D01*
X212304380Y-95186476D02*
X212304380Y-95805523D01*
X212685333Y-95472190D01*
X212685333Y-95615047D01*
X212732952Y-95710285D01*
X212780571Y-95757904D01*
X212875809Y-95805523D01*
X213113904Y-95805523D01*
X213209142Y-95757904D01*
X213256761Y-95710285D01*
X213304380Y-95615047D01*
X213304380Y-95329333D01*
X213256761Y-95234095D01*
X213209142Y-95186476D01*
X204176380Y-64596095D02*
X204985904Y-64596095D01*
X205081142Y-64643714D01*
X205128761Y-64691333D01*
X205176380Y-64786571D01*
X205176380Y-64977047D01*
X205128761Y-65072285D01*
X205081142Y-65119904D01*
X204985904Y-65167523D01*
X204176380Y-65167523D01*
X204509714Y-66072285D02*
X205176380Y-66072285D01*
X204128761Y-65834190D02*
X204843047Y-65596095D01*
X204843047Y-66215142D01*
X237450380Y-108894666D02*
X238164666Y-108894666D01*
X238307523Y-108847047D01*
X238402761Y-108751809D01*
X238450380Y-108608952D01*
X238450380Y-108513714D01*
X238450380Y-109370857D02*
X237450380Y-109370857D01*
X237450380Y-109751809D01*
X237498000Y-109847047D01*
X237545619Y-109894666D01*
X237640857Y-109942285D01*
X237783714Y-109942285D01*
X237878952Y-109894666D01*
X237926571Y-109847047D01*
X237974190Y-109751809D01*
X237974190Y-109370857D01*
X238450380Y-110894666D02*
X238450380Y-110323238D01*
X238450380Y-110608952D02*
X237450380Y-110608952D01*
X237593238Y-110513714D01*
X237688476Y-110418476D01*
X237736095Y-110323238D01*
X183206380Y-70454333D02*
X182730190Y-70121000D01*
X183206380Y-69882904D02*
X182206380Y-69882904D01*
X182206380Y-70263857D01*
X182254000Y-70359095D01*
X182301619Y-70406714D01*
X182396857Y-70454333D01*
X182539714Y-70454333D01*
X182634952Y-70406714D01*
X182682571Y-70359095D01*
X182730190Y-70263857D01*
X182730190Y-69882904D01*
X182539714Y-71311476D02*
X183206380Y-71311476D01*
X182158761Y-71073380D02*
X182873047Y-70835285D01*
X182873047Y-71454333D01*
X183206380Y-76042333D02*
X182730190Y-75709000D01*
X183206380Y-75470904D02*
X182206380Y-75470904D01*
X182206380Y-75851857D01*
X182254000Y-75947095D01*
X182301619Y-75994714D01*
X182396857Y-76042333D01*
X182539714Y-76042333D01*
X182634952Y-75994714D01*
X182682571Y-75947095D01*
X182730190Y-75851857D01*
X182730190Y-75470904D01*
X182206380Y-76947095D02*
X182206380Y-76470904D01*
X182682571Y-76423285D01*
X182634952Y-76470904D01*
X182587333Y-76566142D01*
X182587333Y-76804238D01*
X182634952Y-76899476D01*
X182682571Y-76947095D01*
X182777809Y-76994714D01*
X183015904Y-76994714D01*
X183111142Y-76947095D01*
X183158761Y-76899476D01*
X183206380Y-76804238D01*
X183206380Y-76566142D01*
X183158761Y-76470904D01*
X183111142Y-76423285D01*
X183333380Y-105624333D02*
X182857190Y-105291000D01*
X183333380Y-105052904D02*
X182333380Y-105052904D01*
X182333380Y-105433857D01*
X182381000Y-105529095D01*
X182428619Y-105576714D01*
X182523857Y-105624333D01*
X182666714Y-105624333D01*
X182761952Y-105576714D01*
X182809571Y-105529095D01*
X182857190Y-105433857D01*
X182857190Y-105052904D01*
X182333380Y-106481476D02*
X182333380Y-106291000D01*
X182381000Y-106195761D01*
X182428619Y-106148142D01*
X182571476Y-106052904D01*
X182761952Y-106005285D01*
X183142904Y-106005285D01*
X183238142Y-106052904D01*
X183285761Y-106100523D01*
X183333380Y-106195761D01*
X183333380Y-106386238D01*
X183285761Y-106481476D01*
X183238142Y-106529095D01*
X183142904Y-106576714D01*
X182904809Y-106576714D01*
X182809571Y-106529095D01*
X182761952Y-106481476D01*
X182714333Y-106386238D01*
X182714333Y-106195761D01*
X182761952Y-106100523D01*
X182809571Y-106052904D01*
X182904809Y-106005285D01*
X183333380Y-110586333D02*
X182857190Y-110253000D01*
X183333380Y-110014904D02*
X182333380Y-110014904D01*
X182333380Y-110395857D01*
X182381000Y-110491095D01*
X182428619Y-110538714D01*
X182523857Y-110586333D01*
X182666714Y-110586333D01*
X182761952Y-110538714D01*
X182809571Y-110491095D01*
X182857190Y-110395857D01*
X182857190Y-110014904D01*
X182333380Y-110919666D02*
X182333380Y-111586333D01*
X183333380Y-111157761D01*
X223972380Y-102694333D02*
X223496190Y-102361000D01*
X223972380Y-102122904D02*
X222972380Y-102122904D01*
X222972380Y-102503857D01*
X223020000Y-102599095D01*
X223067619Y-102646714D01*
X223162857Y-102694333D01*
X223305714Y-102694333D01*
X223400952Y-102646714D01*
X223448571Y-102599095D01*
X223496190Y-102503857D01*
X223496190Y-102122904D01*
X223972380Y-103170523D02*
X223972380Y-103361000D01*
X223924761Y-103456238D01*
X223877142Y-103503857D01*
X223734285Y-103599095D01*
X223543809Y-103646714D01*
X223162857Y-103646714D01*
X223067619Y-103599095D01*
X223020000Y-103551476D01*
X222972380Y-103456238D01*
X222972380Y-103265761D01*
X223020000Y-103170523D01*
X223067619Y-103122904D01*
X223162857Y-103075285D01*
X223400952Y-103075285D01*
X223496190Y-103122904D01*
X223543809Y-103170523D01*
X223591428Y-103265761D01*
X223591428Y-103456238D01*
X223543809Y-103551476D01*
X223496190Y-103599095D01*
X223400952Y-103646714D01*
X224354380Y-78596142D02*
X223878190Y-78262809D01*
X224354380Y-78024714D02*
X223354380Y-78024714D01*
X223354380Y-78405666D01*
X223402000Y-78500904D01*
X223449619Y-78548523D01*
X223544857Y-78596142D01*
X223687714Y-78596142D01*
X223782952Y-78548523D01*
X223830571Y-78500904D01*
X223878190Y-78405666D01*
X223878190Y-78024714D01*
X224354380Y-79548523D02*
X224354380Y-78977095D01*
X224354380Y-79262809D02*
X223354380Y-79262809D01*
X223497238Y-79167571D01*
X223592476Y-79072333D01*
X223640095Y-78977095D01*
X223354380Y-80167571D02*
X223354380Y-80262809D01*
X223402000Y-80358047D01*
X223449619Y-80405666D01*
X223544857Y-80453285D01*
X223735333Y-80500904D01*
X223973428Y-80500904D01*
X224163904Y-80453285D01*
X224259142Y-80405666D01*
X224306761Y-80358047D01*
X224354380Y-80262809D01*
X224354380Y-80167571D01*
X224306761Y-80072333D01*
X224259142Y-80024714D01*
X224163904Y-79977095D01*
X223973428Y-79929476D01*
X223735333Y-79929476D01*
X223544857Y-79977095D01*
X223449619Y-80024714D01*
X223402000Y-80072333D01*
X223354380Y-80167571D01*
X231720380Y-102218142D02*
X231244190Y-101884809D01*
X231720380Y-101646714D02*
X230720380Y-101646714D01*
X230720380Y-102027666D01*
X230768000Y-102122904D01*
X230815619Y-102170523D01*
X230910857Y-102218142D01*
X231053714Y-102218142D01*
X231148952Y-102170523D01*
X231196571Y-102122904D01*
X231244190Y-102027666D01*
X231244190Y-101646714D01*
X231720380Y-103170523D02*
X231720380Y-102599095D01*
X231720380Y-102884809D02*
X230720380Y-102884809D01*
X230863238Y-102789571D01*
X230958476Y-102694333D01*
X231006095Y-102599095D01*
X231720380Y-104122904D02*
X231720380Y-103551476D01*
X231720380Y-103837190D02*
X230720380Y-103837190D01*
X230863238Y-103741952D01*
X230958476Y-103646714D01*
X231006095Y-103551476D01*
X231974380Y-78596142D02*
X231498190Y-78262809D01*
X231974380Y-78024714D02*
X230974380Y-78024714D01*
X230974380Y-78405666D01*
X231022000Y-78500904D01*
X231069619Y-78548523D01*
X231164857Y-78596142D01*
X231307714Y-78596142D01*
X231402952Y-78548523D01*
X231450571Y-78500904D01*
X231498190Y-78405666D01*
X231498190Y-78024714D01*
X231974380Y-79548523D02*
X231974380Y-78977095D01*
X231974380Y-79262809D02*
X230974380Y-79262809D01*
X231117238Y-79167571D01*
X231212476Y-79072333D01*
X231260095Y-78977095D01*
X231069619Y-79929476D02*
X231022000Y-79977095D01*
X230974380Y-80072333D01*
X230974380Y-80310428D01*
X231022000Y-80405666D01*
X231069619Y-80453285D01*
X231164857Y-80500904D01*
X231260095Y-80500904D01*
X231402952Y-80453285D01*
X231974380Y-79881857D01*
X231974380Y-80500904D01*
X235784380Y-78596142D02*
X235308190Y-78262809D01*
X235784380Y-78024714D02*
X234784380Y-78024714D01*
X234784380Y-78405666D01*
X234832000Y-78500904D01*
X234879619Y-78548523D01*
X234974857Y-78596142D01*
X235117714Y-78596142D01*
X235212952Y-78548523D01*
X235260571Y-78500904D01*
X235308190Y-78405666D01*
X235308190Y-78024714D01*
X235784380Y-79548523D02*
X235784380Y-78977095D01*
X235784380Y-79262809D02*
X234784380Y-79262809D01*
X234927238Y-79167571D01*
X235022476Y-79072333D01*
X235070095Y-78977095D01*
X234784380Y-79881857D02*
X234784380Y-80500904D01*
X235165333Y-80167571D01*
X235165333Y-80310428D01*
X235212952Y-80405666D01*
X235260571Y-80453285D01*
X235355809Y-80500904D01*
X235593904Y-80500904D01*
X235689142Y-80453285D01*
X235736761Y-80405666D01*
X235784380Y-80310428D01*
X235784380Y-80024714D01*
X235736761Y-79929476D01*
X235689142Y-79881857D01*
X235530380Y-102218142D02*
X235054190Y-101884809D01*
X235530380Y-101646714D02*
X234530380Y-101646714D01*
X234530380Y-102027666D01*
X234578000Y-102122904D01*
X234625619Y-102170523D01*
X234720857Y-102218142D01*
X234863714Y-102218142D01*
X234958952Y-102170523D01*
X235006571Y-102122904D01*
X235054190Y-102027666D01*
X235054190Y-101646714D01*
X235530380Y-103170523D02*
X235530380Y-102599095D01*
X235530380Y-102884809D02*
X234530380Y-102884809D01*
X234673238Y-102789571D01*
X234768476Y-102694333D01*
X234816095Y-102599095D01*
X234863714Y-104027666D02*
X235530380Y-104027666D01*
X234482761Y-103789571D02*
X235197047Y-103551476D01*
X235197047Y-104170523D01*
X235530380Y-86760142D02*
X235054190Y-86426809D01*
X235530380Y-86188714D02*
X234530380Y-86188714D01*
X234530380Y-86569666D01*
X234578000Y-86664904D01*
X234625619Y-86712523D01*
X234720857Y-86760142D01*
X234863714Y-86760142D01*
X234958952Y-86712523D01*
X235006571Y-86664904D01*
X235054190Y-86569666D01*
X235054190Y-86188714D01*
X235530380Y-87712523D02*
X235530380Y-87141095D01*
X235530380Y-87426809D02*
X234530380Y-87426809D01*
X234673238Y-87331571D01*
X234768476Y-87236333D01*
X234816095Y-87141095D01*
X234530380Y-88617285D02*
X234530380Y-88141095D01*
X235006571Y-88093476D01*
X234958952Y-88141095D01*
X234911333Y-88236333D01*
X234911333Y-88474428D01*
X234958952Y-88569666D01*
X235006571Y-88617285D01*
X235101809Y-88664904D01*
X235339904Y-88664904D01*
X235435142Y-88617285D01*
X235482761Y-88569666D01*
X235530380Y-88474428D01*
X235530380Y-88236333D01*
X235482761Y-88141095D01*
X235435142Y-88093476D01*
X235656380Y-94380142D02*
X235180190Y-94046809D01*
X235656380Y-93808714D02*
X234656380Y-93808714D01*
X234656380Y-94189666D01*
X234704000Y-94284904D01*
X234751619Y-94332523D01*
X234846857Y-94380142D01*
X234989714Y-94380142D01*
X235084952Y-94332523D01*
X235132571Y-94284904D01*
X235180190Y-94189666D01*
X235180190Y-93808714D01*
X235656380Y-95332523D02*
X235656380Y-94761095D01*
X235656380Y-95046809D02*
X234656380Y-95046809D01*
X234799238Y-94951571D01*
X234894476Y-94856333D01*
X234942095Y-94761095D01*
X234656380Y-96189666D02*
X234656380Y-95999190D01*
X234704000Y-95903952D01*
X234751619Y-95856333D01*
X234894476Y-95761095D01*
X235084952Y-95713476D01*
X235465904Y-95713476D01*
X235561142Y-95761095D01*
X235608761Y-95808714D01*
X235656380Y-95903952D01*
X235656380Y-96094428D01*
X235608761Y-96189666D01*
X235561142Y-96237285D01*
X235465904Y-96284904D01*
X235227809Y-96284904D01*
X235132571Y-96237285D01*
X235084952Y-96189666D01*
X235037333Y-96094428D01*
X235037333Y-95903952D01*
X235084952Y-95808714D01*
X235132571Y-95761095D01*
X235227809Y-95713476D01*
X231720380Y-94380142D02*
X231244190Y-94046809D01*
X231720380Y-93808714D02*
X230720380Y-93808714D01*
X230720380Y-94189666D01*
X230768000Y-94284904D01*
X230815619Y-94332523D01*
X230910857Y-94380142D01*
X231053714Y-94380142D01*
X231148952Y-94332523D01*
X231196571Y-94284904D01*
X231244190Y-94189666D01*
X231244190Y-93808714D01*
X231720380Y-95332523D02*
X231720380Y-94761095D01*
X231720380Y-95046809D02*
X230720380Y-95046809D01*
X230863238Y-94951571D01*
X230958476Y-94856333D01*
X231006095Y-94761095D01*
X230720380Y-95665857D02*
X230720380Y-96332523D01*
X231720380Y-95903952D01*
X231720380Y-86760142D02*
X231244190Y-86426809D01*
X231720380Y-86188714D02*
X230720380Y-86188714D01*
X230720380Y-86569666D01*
X230768000Y-86664904D01*
X230815619Y-86712523D01*
X230910857Y-86760142D01*
X231053714Y-86760142D01*
X231148952Y-86712523D01*
X231196571Y-86664904D01*
X231244190Y-86569666D01*
X231244190Y-86188714D01*
X231720380Y-87712523D02*
X231720380Y-87141095D01*
X231720380Y-87426809D02*
X230720380Y-87426809D01*
X230863238Y-87331571D01*
X230958476Y-87236333D01*
X231006095Y-87141095D01*
X231148952Y-88283952D02*
X231101333Y-88188714D01*
X231053714Y-88141095D01*
X230958476Y-88093476D01*
X230910857Y-88093476D01*
X230815619Y-88141095D01*
X230768000Y-88188714D01*
X230720380Y-88283952D01*
X230720380Y-88474428D01*
X230768000Y-88569666D01*
X230815619Y-88617285D01*
X230910857Y-88664904D01*
X230958476Y-88664904D01*
X231053714Y-88617285D01*
X231101333Y-88569666D01*
X231148952Y-88474428D01*
X231148952Y-88283952D01*
X231196571Y-88188714D01*
X231244190Y-88141095D01*
X231339428Y-88093476D01*
X231529904Y-88093476D01*
X231625142Y-88141095D01*
X231672761Y-88188714D01*
X231720380Y-88283952D01*
X231720380Y-88474428D01*
X231672761Y-88569666D01*
X231625142Y-88617285D01*
X231529904Y-88664904D01*
X231339428Y-88664904D01*
X231244190Y-88617285D01*
X231196571Y-88569666D01*
X231148952Y-88474428D01*
X224100380Y-94380142D02*
X223624190Y-94046809D01*
X224100380Y-93808714D02*
X223100380Y-93808714D01*
X223100380Y-94189666D01*
X223148000Y-94284904D01*
X223195619Y-94332523D01*
X223290857Y-94380142D01*
X223433714Y-94380142D01*
X223528952Y-94332523D01*
X223576571Y-94284904D01*
X223624190Y-94189666D01*
X223624190Y-93808714D01*
X224100380Y-95332523D02*
X224100380Y-94761095D01*
X224100380Y-95046809D02*
X223100380Y-95046809D01*
X223243238Y-94951571D01*
X223338476Y-94856333D01*
X223386095Y-94761095D01*
X224100380Y-95808714D02*
X224100380Y-95999190D01*
X224052761Y-96094428D01*
X224005142Y-96142047D01*
X223862285Y-96237285D01*
X223671809Y-96284904D01*
X223290857Y-96284904D01*
X223195619Y-96237285D01*
X223148000Y-96189666D01*
X223100380Y-96094428D01*
X223100380Y-95903952D01*
X223148000Y-95808714D01*
X223195619Y-95761095D01*
X223290857Y-95713476D01*
X223528952Y-95713476D01*
X223624190Y-95761095D01*
X223671809Y-95808714D01*
X223719428Y-95903952D01*
X223719428Y-96094428D01*
X223671809Y-96189666D01*
X223624190Y-96237285D01*
X223528952Y-96284904D01*
X227910380Y-94380142D02*
X227434190Y-94046809D01*
X227910380Y-93808714D02*
X226910380Y-93808714D01*
X226910380Y-94189666D01*
X226958000Y-94284904D01*
X227005619Y-94332523D01*
X227100857Y-94380142D01*
X227243714Y-94380142D01*
X227338952Y-94332523D01*
X227386571Y-94284904D01*
X227434190Y-94189666D01*
X227434190Y-93808714D01*
X227005619Y-94761095D02*
X226958000Y-94808714D01*
X226910380Y-94903952D01*
X226910380Y-95142047D01*
X226958000Y-95237285D01*
X227005619Y-95284904D01*
X227100857Y-95332523D01*
X227196095Y-95332523D01*
X227338952Y-95284904D01*
X227910380Y-94713476D01*
X227910380Y-95332523D01*
X226910380Y-95951571D02*
X226910380Y-96046809D01*
X226958000Y-96142047D01*
X227005619Y-96189666D01*
X227100857Y-96237285D01*
X227291333Y-96284904D01*
X227529428Y-96284904D01*
X227719904Y-96237285D01*
X227815142Y-96189666D01*
X227862761Y-96142047D01*
X227910380Y-96046809D01*
X227910380Y-95951571D01*
X227862761Y-95856333D01*
X227815142Y-95808714D01*
X227719904Y-95761095D01*
X227529428Y-95713476D01*
X227291333Y-95713476D01*
X227100857Y-95761095D01*
X227005619Y-95808714D01*
X226958000Y-95856333D01*
X226910380Y-95951571D01*
X223972380Y-86706142D02*
X223496190Y-86372809D01*
X223972380Y-86134714D02*
X222972380Y-86134714D01*
X222972380Y-86515666D01*
X223020000Y-86610904D01*
X223067619Y-86658523D01*
X223162857Y-86706142D01*
X223305714Y-86706142D01*
X223400952Y-86658523D01*
X223448571Y-86610904D01*
X223496190Y-86515666D01*
X223496190Y-86134714D01*
X223067619Y-87087095D02*
X223020000Y-87134714D01*
X222972380Y-87229952D01*
X222972380Y-87468047D01*
X223020000Y-87563285D01*
X223067619Y-87610904D01*
X223162857Y-87658523D01*
X223258095Y-87658523D01*
X223400952Y-87610904D01*
X223972380Y-87039476D01*
X223972380Y-87658523D01*
X223972380Y-88610904D02*
X223972380Y-88039476D01*
X223972380Y-88325190D02*
X222972380Y-88325190D01*
X223115238Y-88229952D01*
X223210476Y-88134714D01*
X223258095Y-88039476D01*
X228036380Y-86733142D02*
X227560190Y-86399809D01*
X228036380Y-86161714D02*
X227036380Y-86161714D01*
X227036380Y-86542666D01*
X227084000Y-86637904D01*
X227131619Y-86685523D01*
X227226857Y-86733142D01*
X227369714Y-86733142D01*
X227464952Y-86685523D01*
X227512571Y-86637904D01*
X227560190Y-86542666D01*
X227560190Y-86161714D01*
X227131619Y-87114095D02*
X227084000Y-87161714D01*
X227036380Y-87256952D01*
X227036380Y-87495047D01*
X227084000Y-87590285D01*
X227131619Y-87637904D01*
X227226857Y-87685523D01*
X227322095Y-87685523D01*
X227464952Y-87637904D01*
X228036380Y-87066476D01*
X228036380Y-87685523D01*
X227131619Y-88066476D02*
X227084000Y-88114095D01*
X227036380Y-88209333D01*
X227036380Y-88447428D01*
X227084000Y-88542666D01*
X227131619Y-88590285D01*
X227226857Y-88637904D01*
X227322095Y-88637904D01*
X227464952Y-88590285D01*
X228036380Y-88018857D01*
X228036380Y-88637904D01*
X227910380Y-102218142D02*
X227434190Y-101884809D01*
X227910380Y-101646714D02*
X226910380Y-101646714D01*
X226910380Y-102027666D01*
X226958000Y-102122904D01*
X227005619Y-102170523D01*
X227100857Y-102218142D01*
X227243714Y-102218142D01*
X227338952Y-102170523D01*
X227386571Y-102122904D01*
X227434190Y-102027666D01*
X227434190Y-101646714D01*
X227005619Y-102599095D02*
X226958000Y-102646714D01*
X226910380Y-102741952D01*
X226910380Y-102980047D01*
X226958000Y-103075285D01*
X227005619Y-103122904D01*
X227100857Y-103170523D01*
X227196095Y-103170523D01*
X227338952Y-103122904D01*
X227910380Y-102551476D01*
X227910380Y-103170523D01*
X227243714Y-104027666D02*
X227910380Y-104027666D01*
X226862761Y-103789571D02*
X227577047Y-103551476D01*
X227577047Y-104170523D01*
X228164380Y-78596142D02*
X227688190Y-78262809D01*
X228164380Y-78024714D02*
X227164380Y-78024714D01*
X227164380Y-78405666D01*
X227212000Y-78500904D01*
X227259619Y-78548523D01*
X227354857Y-78596142D01*
X227497714Y-78596142D01*
X227592952Y-78548523D01*
X227640571Y-78500904D01*
X227688190Y-78405666D01*
X227688190Y-78024714D01*
X227259619Y-78977095D02*
X227212000Y-79024714D01*
X227164380Y-79119952D01*
X227164380Y-79358047D01*
X227212000Y-79453285D01*
X227259619Y-79500904D01*
X227354857Y-79548523D01*
X227450095Y-79548523D01*
X227592952Y-79500904D01*
X228164380Y-78929476D01*
X228164380Y-79548523D01*
X227164380Y-80453285D02*
X227164380Y-79977095D01*
X227640571Y-79929476D01*
X227592952Y-79977095D01*
X227545333Y-80072333D01*
X227545333Y-80310428D01*
X227592952Y-80405666D01*
X227640571Y-80453285D01*
X227735809Y-80500904D01*
X227973904Y-80500904D01*
X228069142Y-80453285D01*
X228116761Y-80405666D01*
X228164380Y-80310428D01*
X228164380Y-80072333D01*
X228116761Y-79977095D01*
X228069142Y-79929476D01*
X214304571Y-65198666D02*
X214304571Y-64865333D01*
X214828380Y-64865333D02*
X213828380Y-64865333D01*
X213828380Y-65341523D01*
X214828380Y-66246285D02*
X214828380Y-65674857D01*
X214828380Y-65960571D02*
X213828380Y-65960571D01*
X213971238Y-65865333D01*
X214066476Y-65770095D01*
X214114095Y-65674857D01*
X210764380Y-65365333D02*
X210288190Y-65032000D01*
X210764380Y-64793904D02*
X209764380Y-64793904D01*
X209764380Y-65174857D01*
X209812000Y-65270095D01*
X209859619Y-65317714D01*
X209954857Y-65365333D01*
X210097714Y-65365333D01*
X210192952Y-65317714D01*
X210240571Y-65270095D01*
X210288190Y-65174857D01*
X210288190Y-64793904D01*
X210192952Y-65936761D02*
X210145333Y-65841523D01*
X210097714Y-65793904D01*
X210002476Y-65746285D01*
X209954857Y-65746285D01*
X209859619Y-65793904D01*
X209812000Y-65841523D01*
X209764380Y-65936761D01*
X209764380Y-66127238D01*
X209812000Y-66222476D01*
X209859619Y-66270095D01*
X209954857Y-66317714D01*
X210002476Y-66317714D01*
X210097714Y-66270095D01*
X210145333Y-66222476D01*
X210192952Y-66127238D01*
X210192952Y-65936761D01*
X210240571Y-65841523D01*
X210288190Y-65793904D01*
X210383428Y-65746285D01*
X210573904Y-65746285D01*
X210669142Y-65793904D01*
X210716761Y-65841523D01*
X210764380Y-65936761D01*
X210764380Y-66127238D01*
X210716761Y-66222476D01*
X210669142Y-66270095D01*
X210573904Y-66317714D01*
X210383428Y-66317714D01*
X210288190Y-66270095D01*
X210240571Y-66222476D01*
X210192952Y-66127238D01*
X216114380Y-110418666D02*
X216828666Y-110418666D01*
X216971523Y-110371047D01*
X217066761Y-110275809D01*
X217114380Y-110132952D01*
X217114380Y-110037714D01*
X217114380Y-110894857D02*
X216114380Y-110894857D01*
X216114380Y-111275809D01*
X216162000Y-111371047D01*
X216209619Y-111418666D01*
X216304857Y-111466285D01*
X216447714Y-111466285D01*
X216542952Y-111418666D01*
X216590571Y-111371047D01*
X216638190Y-111275809D01*
X216638190Y-110894857D01*
X216114380Y-111799619D02*
X216114380Y-112418666D01*
X216495333Y-112085333D01*
X216495333Y-112228190D01*
X216542952Y-112323428D01*
X216590571Y-112371047D01*
X216685809Y-112418666D01*
X216923904Y-112418666D01*
X217019142Y-112371047D01*
X217066761Y-112323428D01*
X217114380Y-112228190D01*
X217114380Y-111942476D01*
X217066761Y-111847238D01*
X217019142Y-111799619D01*
X232370380Y-110418666D02*
X233084666Y-110418666D01*
X233227523Y-110371047D01*
X233322761Y-110275809D01*
X233370380Y-110132952D01*
X233370380Y-110037714D01*
X233370380Y-110894857D02*
X232370380Y-110894857D01*
X232370380Y-111275809D01*
X232418000Y-111371047D01*
X232465619Y-111418666D01*
X232560857Y-111466285D01*
X232703714Y-111466285D01*
X232798952Y-111418666D01*
X232846571Y-111371047D01*
X232894190Y-111275809D01*
X232894190Y-110894857D01*
X232703714Y-112323428D02*
X233370380Y-112323428D01*
X232322761Y-112085333D02*
X233037047Y-111847238D01*
X233037047Y-112466285D01*
X209002380Y-110418666D02*
X209716666Y-110418666D01*
X209859523Y-110371047D01*
X209954761Y-110275809D01*
X210002380Y-110132952D01*
X210002380Y-110037714D01*
X210002380Y-110894857D02*
X209002380Y-110894857D01*
X209002380Y-111275809D01*
X209050000Y-111371047D01*
X209097619Y-111418666D01*
X209192857Y-111466285D01*
X209335714Y-111466285D01*
X209430952Y-111418666D01*
X209478571Y-111371047D01*
X209526190Y-111275809D01*
X209526190Y-110894857D01*
X209002380Y-112371047D02*
X209002380Y-111894857D01*
X209478571Y-111847238D01*
X209430952Y-111894857D01*
X209383333Y-111990095D01*
X209383333Y-112228190D01*
X209430952Y-112323428D01*
X209478571Y-112371047D01*
X209573809Y-112418666D01*
X209811904Y-112418666D01*
X209907142Y-112371047D01*
X209954761Y-112323428D01*
X210002380Y-112228190D01*
X210002380Y-111990095D01*
X209954761Y-111894857D01*
X209907142Y-111847238D01*
X225766380Y-110418666D02*
X226480666Y-110418666D01*
X226623523Y-110371047D01*
X226718761Y-110275809D01*
X226766380Y-110132952D01*
X226766380Y-110037714D01*
X226766380Y-110894857D02*
X225766380Y-110894857D01*
X225766380Y-111275809D01*
X225814000Y-111371047D01*
X225861619Y-111418666D01*
X225956857Y-111466285D01*
X226099714Y-111466285D01*
X226194952Y-111418666D01*
X226242571Y-111371047D01*
X226290190Y-111275809D01*
X226290190Y-110894857D01*
X225766380Y-112323428D02*
X225766380Y-112132952D01*
X225814000Y-112037714D01*
X225861619Y-111990095D01*
X226004476Y-111894857D01*
X226194952Y-111847238D01*
X226575904Y-111847238D01*
X226671142Y-111894857D01*
X226718761Y-111942476D01*
X226766380Y-112037714D01*
X226766380Y-112228190D01*
X226718761Y-112323428D01*
X226671142Y-112371047D01*
X226575904Y-112418666D01*
X226337809Y-112418666D01*
X226242571Y-112371047D01*
X226194952Y-112323428D01*
X226147333Y-112228190D01*
X226147333Y-112037714D01*
X226194952Y-111942476D01*
X226242571Y-111894857D01*
X226337809Y-111847238D01*
X238212380Y-74858666D02*
X238926666Y-74858666D01*
X239069523Y-74811047D01*
X239164761Y-74715809D01*
X239212380Y-74572952D01*
X239212380Y-74477714D01*
X239212380Y-75334857D02*
X238212380Y-75334857D01*
X238212380Y-75715809D01*
X238260000Y-75811047D01*
X238307619Y-75858666D01*
X238402857Y-75906285D01*
X238545714Y-75906285D01*
X238640952Y-75858666D01*
X238688571Y-75811047D01*
X238736190Y-75715809D01*
X238736190Y-75334857D01*
X238212380Y-76239619D02*
X238212380Y-76906285D01*
X239212380Y-76477714D01*
X209002380Y-116514666D02*
X209716666Y-116514666D01*
X209859523Y-116467047D01*
X209954761Y-116371809D01*
X210002380Y-116228952D01*
X210002380Y-116133714D01*
X210002380Y-116990857D02*
X209002380Y-116990857D01*
X209002380Y-117371809D01*
X209050000Y-117467047D01*
X209097619Y-117514666D01*
X209192857Y-117562285D01*
X209335714Y-117562285D01*
X209430952Y-117514666D01*
X209478571Y-117467047D01*
X209526190Y-117371809D01*
X209526190Y-116990857D01*
X209430952Y-118133714D02*
X209383333Y-118038476D01*
X209335714Y-117990857D01*
X209240476Y-117943238D01*
X209192857Y-117943238D01*
X209097619Y-117990857D01*
X209050000Y-118038476D01*
X209002380Y-118133714D01*
X209002380Y-118324190D01*
X209050000Y-118419428D01*
X209097619Y-118467047D01*
X209192857Y-118514666D01*
X209240476Y-118514666D01*
X209335714Y-118467047D01*
X209383333Y-118419428D01*
X209430952Y-118324190D01*
X209430952Y-118133714D01*
X209478571Y-118038476D01*
X209526190Y-117990857D01*
X209621428Y-117943238D01*
X209811904Y-117943238D01*
X209907142Y-117990857D01*
X209954761Y-118038476D01*
X210002380Y-118133714D01*
X210002380Y-118324190D01*
X209954761Y-118419428D01*
X209907142Y-118467047D01*
X209811904Y-118514666D01*
X209621428Y-118514666D01*
X209526190Y-118467047D01*
X209478571Y-118419428D01*
X209430952Y-118324190D01*
X225766380Y-116514666D02*
X226480666Y-116514666D01*
X226623523Y-116467047D01*
X226718761Y-116371809D01*
X226766380Y-116228952D01*
X226766380Y-116133714D01*
X226766380Y-116990857D02*
X225766380Y-116990857D01*
X225766380Y-117371809D01*
X225814000Y-117467047D01*
X225861619Y-117514666D01*
X225956857Y-117562285D01*
X226099714Y-117562285D01*
X226194952Y-117514666D01*
X226242571Y-117467047D01*
X226290190Y-117371809D01*
X226290190Y-116990857D01*
X226766380Y-118038476D02*
X226766380Y-118228952D01*
X226718761Y-118324190D01*
X226671142Y-118371809D01*
X226528285Y-118467047D01*
X226337809Y-118514666D01*
X225956857Y-118514666D01*
X225861619Y-118467047D01*
X225814000Y-118419428D01*
X225766380Y-118324190D01*
X225766380Y-118133714D01*
X225814000Y-118038476D01*
X225861619Y-117990857D01*
X225956857Y-117943238D01*
X226194952Y-117943238D01*
X226290190Y-117990857D01*
X226337809Y-118038476D01*
X226385428Y-118133714D01*
X226385428Y-118324190D01*
X226337809Y-118419428D01*
X226290190Y-118467047D01*
X226194952Y-118514666D01*
X216241380Y-115784476D02*
X216955666Y-115784476D01*
X217098523Y-115736857D01*
X217193761Y-115641619D01*
X217241380Y-115498761D01*
X217241380Y-115403523D01*
X217241380Y-116260666D02*
X216241380Y-116260666D01*
X216241380Y-116641619D01*
X216289000Y-116736857D01*
X216336619Y-116784476D01*
X216431857Y-116832095D01*
X216574714Y-116832095D01*
X216669952Y-116784476D01*
X216717571Y-116736857D01*
X216765190Y-116641619D01*
X216765190Y-116260666D01*
X217241380Y-117784476D02*
X217241380Y-117213047D01*
X217241380Y-117498761D02*
X216241380Y-117498761D01*
X216384238Y-117403523D01*
X216479476Y-117308285D01*
X216527095Y-117213047D01*
X216241380Y-118403523D02*
X216241380Y-118498761D01*
X216289000Y-118594000D01*
X216336619Y-118641619D01*
X216431857Y-118689238D01*
X216622333Y-118736857D01*
X216860428Y-118736857D01*
X217050904Y-118689238D01*
X217146142Y-118641619D01*
X217193761Y-118594000D01*
X217241380Y-118498761D01*
X217241380Y-118403523D01*
X217193761Y-118308285D01*
X217146142Y-118260666D01*
X217050904Y-118213047D01*
X216860428Y-118165428D01*
X216622333Y-118165428D01*
X216431857Y-118213047D01*
X216336619Y-118260666D01*
X216289000Y-118308285D01*
X216241380Y-118403523D01*
X232497380Y-116365857D02*
X233211666Y-116365857D01*
X233354523Y-116330142D01*
X233449761Y-116258714D01*
X233497380Y-116151571D01*
X233497380Y-116080142D01*
X233497380Y-116723000D02*
X232497380Y-116723000D01*
X232497380Y-117008714D01*
X232545000Y-117080142D01*
X232592619Y-117115857D01*
X232687857Y-117151571D01*
X232830714Y-117151571D01*
X232925952Y-117115857D01*
X232973571Y-117080142D01*
X233021190Y-117008714D01*
X233021190Y-116723000D01*
X233497380Y-117865857D02*
X233497380Y-117437285D01*
X233497380Y-117651571D02*
X232497380Y-117651571D01*
X232640238Y-117580142D01*
X232735476Y-117508714D01*
X232783095Y-117437285D01*
X233497380Y-118580142D02*
X233497380Y-118151571D01*
X233497380Y-118365857D02*
X232497380Y-118365857D01*
X232640238Y-118294428D01*
X232735476Y-118223000D01*
X232783095Y-118151571D01*
X220416380Y-94257904D02*
X219416380Y-94257904D01*
X219416380Y-94496000D01*
X219464000Y-94638857D01*
X219559238Y-94734095D01*
X219654476Y-94781714D01*
X219844952Y-94829333D01*
X219987809Y-94829333D01*
X220178285Y-94781714D01*
X220273523Y-94734095D01*
X220368761Y-94638857D01*
X220416380Y-94496000D01*
X220416380Y-94257904D01*
X219511619Y-95210285D02*
X219464000Y-95257904D01*
X219416380Y-95353142D01*
X219416380Y-95591238D01*
X219464000Y-95686476D01*
X219511619Y-95734095D01*
X219606857Y-95781714D01*
X219702095Y-95781714D01*
X219844952Y-95734095D01*
X220416380Y-95162666D01*
X220416380Y-95781714D01*
X219074380Y-64793904D02*
X218074380Y-64793904D01*
X218074380Y-65032000D01*
X218122000Y-65174857D01*
X218217238Y-65270095D01*
X218312476Y-65317714D01*
X218502952Y-65365333D01*
X218645809Y-65365333D01*
X218836285Y-65317714D01*
X218931523Y-65270095D01*
X219026761Y-65174857D01*
X219074380Y-65032000D01*
X219074380Y-64793904D01*
X218074380Y-65698666D02*
X218074380Y-66317714D01*
X218455333Y-65984380D01*
X218455333Y-66127238D01*
X218502952Y-66222476D01*
X218550571Y-66270095D01*
X218645809Y-66317714D01*
X218883904Y-66317714D01*
X218979142Y-66270095D01*
X219026761Y-66222476D01*
X219074380Y-66127238D01*
X219074380Y-65841523D01*
X219026761Y-65746285D01*
X218979142Y-65698666D01*
X220290380Y-78614142D02*
X219814190Y-78280809D01*
X220290380Y-78042714D02*
X219290380Y-78042714D01*
X219290380Y-78423666D01*
X219338000Y-78518904D01*
X219385619Y-78566523D01*
X219480857Y-78614142D01*
X219623714Y-78614142D01*
X219718952Y-78566523D01*
X219766571Y-78518904D01*
X219814190Y-78423666D01*
X219814190Y-78042714D01*
X219385619Y-78995095D02*
X219338000Y-79042714D01*
X219290380Y-79137952D01*
X219290380Y-79376047D01*
X219338000Y-79471285D01*
X219385619Y-79518904D01*
X219480857Y-79566523D01*
X219576095Y-79566523D01*
X219718952Y-79518904D01*
X220290380Y-78947476D01*
X220290380Y-79566523D01*
X219290380Y-80423666D02*
X219290380Y-80233190D01*
X219338000Y-80137952D01*
X219385619Y-80090333D01*
X219528476Y-79995095D01*
X219718952Y-79947476D01*
X220099904Y-79947476D01*
X220195142Y-79995095D01*
X220242761Y-80042714D01*
X220290380Y-80137952D01*
X220290380Y-80328428D01*
X220242761Y-80423666D01*
X220195142Y-80471285D01*
X220099904Y-80518904D01*
X219861809Y-80518904D01*
X219766571Y-80471285D01*
X219718952Y-80423666D01*
X219671333Y-80328428D01*
X219671333Y-80137952D01*
X219718952Y-80042714D01*
X219766571Y-79995095D01*
X219861809Y-79947476D01*
X214521619Y-79128761D02*
X214474000Y-79033523D01*
X214378761Y-78938285D01*
X214235904Y-78795428D01*
X214188285Y-78700190D01*
X214188285Y-78604952D01*
X214426380Y-78652571D02*
X214378761Y-78557333D01*
X214283523Y-78462095D01*
X214093047Y-78414476D01*
X213759714Y-78414476D01*
X213569238Y-78462095D01*
X213474000Y-78557333D01*
X213426380Y-78652571D01*
X213426380Y-78843047D01*
X213474000Y-78938285D01*
X213569238Y-79033523D01*
X213759714Y-79081142D01*
X214093047Y-79081142D01*
X214283523Y-79033523D01*
X214378761Y-78938285D01*
X214426380Y-78843047D01*
X214426380Y-78652571D01*
X213426380Y-79938285D02*
X213426380Y-79747809D01*
X213474000Y-79652571D01*
X213521619Y-79604952D01*
X213664476Y-79509714D01*
X213854952Y-79462095D01*
X214235904Y-79462095D01*
X214331142Y-79509714D01*
X214378761Y-79557333D01*
X214426380Y-79652571D01*
X214426380Y-79843047D01*
X214378761Y-79938285D01*
X214331142Y-79985904D01*
X214235904Y-80033523D01*
X213997809Y-80033523D01*
X213902571Y-79985904D01*
X213854952Y-79938285D01*
X213807333Y-79843047D01*
X213807333Y-79652571D01*
X213854952Y-79557333D01*
X213902571Y-79509714D01*
X213997809Y-79462095D01*
X192984380Y-80033904D02*
X191984380Y-80033904D01*
X191984380Y-80272000D01*
X192032000Y-80414857D01*
X192127238Y-80510095D01*
X192222476Y-80557714D01*
X192412952Y-80605333D01*
X192555809Y-80605333D01*
X192746285Y-80557714D01*
X192841523Y-80510095D01*
X192936761Y-80414857D01*
X192984380Y-80272000D01*
X192984380Y-80033904D01*
X192317714Y-81462476D02*
X192984380Y-81462476D01*
X191936761Y-81224380D02*
X192651047Y-80986285D01*
X192651047Y-81605333D01*
X193238380Y-101369904D02*
X192238380Y-101369904D01*
X192238380Y-101608000D01*
X192286000Y-101750857D01*
X192381238Y-101846095D01*
X192476476Y-101893714D01*
X192666952Y-101941333D01*
X192809809Y-101941333D01*
X193000285Y-101893714D01*
X193095523Y-101846095D01*
X193190761Y-101750857D01*
X193238380Y-101608000D01*
X193238380Y-101369904D01*
X192238380Y-102846095D02*
X192238380Y-102369904D01*
X192714571Y-102322285D01*
X192666952Y-102369904D01*
X192619333Y-102465142D01*
X192619333Y-102703238D01*
X192666952Y-102798476D01*
X192714571Y-102846095D01*
X192809809Y-102893714D01*
X193047904Y-102893714D01*
X193143142Y-102846095D01*
X193190761Y-102798476D01*
X193238380Y-102703238D01*
X193238380Y-102465142D01*
X193190761Y-102369904D01*
X193143142Y-102322285D01*
X207113142Y-118705333D02*
X207160761Y-118657714D01*
X207208380Y-118514857D01*
X207208380Y-118419619D01*
X207160761Y-118276761D01*
X207065523Y-118181523D01*
X206970285Y-118133904D01*
X206779809Y-118086285D01*
X206636952Y-118086285D01*
X206446476Y-118133904D01*
X206351238Y-118181523D01*
X206256000Y-118276761D01*
X206208380Y-118419619D01*
X206208380Y-118514857D01*
X206256000Y-118657714D01*
X206303619Y-118705333D01*
X206636952Y-119276761D02*
X206589333Y-119181523D01*
X206541714Y-119133904D01*
X206446476Y-119086285D01*
X206398857Y-119086285D01*
X206303619Y-119133904D01*
X206256000Y-119181523D01*
X206208380Y-119276761D01*
X206208380Y-119467238D01*
X206256000Y-119562476D01*
X206303619Y-119610095D01*
X206398857Y-119657714D01*
X206446476Y-119657714D01*
X206541714Y-119610095D01*
X206589333Y-119562476D01*
X206636952Y-119467238D01*
X206636952Y-119276761D01*
X206684571Y-119181523D01*
X206732190Y-119133904D01*
X206827428Y-119086285D01*
X207017904Y-119086285D01*
X207113142Y-119133904D01*
X207160761Y-119181523D01*
X207208380Y-119276761D01*
X207208380Y-119467238D01*
X207160761Y-119562476D01*
X207113142Y-119610095D01*
X207017904Y-119657714D01*
X206827428Y-119657714D01*
X206732190Y-119610095D01*
X206684571Y-119562476D01*
X206636952Y-119467238D01*
X194381380Y-66540142D02*
X193905190Y-66206809D01*
X194381380Y-65968714D02*
X193381380Y-65968714D01*
X193381380Y-66349666D01*
X193429000Y-66444904D01*
X193476619Y-66492523D01*
X193571857Y-66540142D01*
X193714714Y-66540142D01*
X193809952Y-66492523D01*
X193857571Y-66444904D01*
X193905190Y-66349666D01*
X193905190Y-65968714D01*
X193476619Y-66921095D02*
X193429000Y-66968714D01*
X193381380Y-67063952D01*
X193381380Y-67302047D01*
X193429000Y-67397285D01*
X193476619Y-67444904D01*
X193571857Y-67492523D01*
X193667095Y-67492523D01*
X193809952Y-67444904D01*
X194381380Y-66873476D01*
X194381380Y-67492523D01*
X193381380Y-67825857D02*
X193381380Y-68492523D01*
X194381380Y-68063952D01*
X189810380Y-122048142D02*
X189334190Y-121714809D01*
X189810380Y-121476714D02*
X188810380Y-121476714D01*
X188810380Y-121857666D01*
X188858000Y-121952904D01*
X188905619Y-122000523D01*
X189000857Y-122048142D01*
X189143714Y-122048142D01*
X189238952Y-122000523D01*
X189286571Y-121952904D01*
X189334190Y-121857666D01*
X189334190Y-121476714D01*
X188810380Y-122381476D02*
X188810380Y-123000523D01*
X189191333Y-122667190D01*
X189191333Y-122810047D01*
X189238952Y-122905285D01*
X189286571Y-122952904D01*
X189381809Y-123000523D01*
X189619904Y-123000523D01*
X189715142Y-122952904D01*
X189762761Y-122905285D01*
X189810380Y-122810047D01*
X189810380Y-122524333D01*
X189762761Y-122429095D01*
X189715142Y-122381476D01*
X188810380Y-123619571D02*
X188810380Y-123714809D01*
X188858000Y-123810047D01*
X188905619Y-123857666D01*
X189000857Y-123905285D01*
X189191333Y-123952904D01*
X189429428Y-123952904D01*
X189619904Y-123905285D01*
X189715142Y-123857666D01*
X189762761Y-123810047D01*
X189810380Y-123714809D01*
X189810380Y-123619571D01*
X189762761Y-123524333D01*
X189715142Y-123476714D01*
X189619904Y-123429095D01*
X189429428Y-123381476D01*
X189191333Y-123381476D01*
X189000857Y-123429095D01*
X188905619Y-123476714D01*
X188858000Y-123524333D01*
X188810380Y-123619571D01*
X194382380Y-71493142D02*
X193906190Y-71159809D01*
X194382380Y-70921714D02*
X193382380Y-70921714D01*
X193382380Y-71302666D01*
X193430000Y-71397904D01*
X193477619Y-71445523D01*
X193572857Y-71493142D01*
X193715714Y-71493142D01*
X193810952Y-71445523D01*
X193858571Y-71397904D01*
X193906190Y-71302666D01*
X193906190Y-70921714D01*
X193382380Y-71826476D02*
X193382380Y-72445523D01*
X193763333Y-72112190D01*
X193763333Y-72255047D01*
X193810952Y-72350285D01*
X193858571Y-72397904D01*
X193953809Y-72445523D01*
X194191904Y-72445523D01*
X194287142Y-72397904D01*
X194334761Y-72350285D01*
X194382380Y-72255047D01*
X194382380Y-71969333D01*
X194334761Y-71874095D01*
X194287142Y-71826476D01*
X194382380Y-73397904D02*
X194382380Y-72826476D01*
X194382380Y-73112190D02*
X193382380Y-73112190D01*
X193525238Y-73016952D01*
X193620476Y-72921714D01*
X193668095Y-72826476D01*
X189809380Y-117086142D02*
X189333190Y-116752809D01*
X189809380Y-116514714D02*
X188809380Y-116514714D01*
X188809380Y-116895666D01*
X188857000Y-116990904D01*
X188904619Y-117038523D01*
X188999857Y-117086142D01*
X189142714Y-117086142D01*
X189237952Y-117038523D01*
X189285571Y-116990904D01*
X189333190Y-116895666D01*
X189333190Y-116514714D01*
X188809380Y-117419476D02*
X188809380Y-118038523D01*
X189190333Y-117705190D01*
X189190333Y-117848047D01*
X189237952Y-117943285D01*
X189285571Y-117990904D01*
X189380809Y-118038523D01*
X189618904Y-118038523D01*
X189714142Y-117990904D01*
X189761761Y-117943285D01*
X189809380Y-117848047D01*
X189809380Y-117562333D01*
X189761761Y-117467095D01*
X189714142Y-117419476D01*
X188904619Y-118419476D02*
X188857000Y-118467095D01*
X188809380Y-118562333D01*
X188809380Y-118800428D01*
X188857000Y-118895666D01*
X188904619Y-118943285D01*
X188999857Y-118990904D01*
X189095095Y-118990904D01*
X189237952Y-118943285D01*
X189809380Y-118371857D01*
X189809380Y-118990904D01*
X206573380Y-110609142D02*
X206097190Y-110275809D01*
X206573380Y-110037714D02*
X205573380Y-110037714D01*
X205573380Y-110418666D01*
X205621000Y-110513904D01*
X205668619Y-110561523D01*
X205763857Y-110609142D01*
X205906714Y-110609142D01*
X206001952Y-110561523D01*
X206049571Y-110513904D01*
X206097190Y-110418666D01*
X206097190Y-110037714D01*
X205573380Y-110942476D02*
X205573380Y-111561523D01*
X205954333Y-111228190D01*
X205954333Y-111371047D01*
X206001952Y-111466285D01*
X206049571Y-111513904D01*
X206144809Y-111561523D01*
X206382904Y-111561523D01*
X206478142Y-111513904D01*
X206525761Y-111466285D01*
X206573380Y-111371047D01*
X206573380Y-111085333D01*
X206525761Y-110990095D01*
X206478142Y-110942476D01*
X205573380Y-111894857D02*
X205573380Y-112513904D01*
X205954333Y-112180571D01*
X205954333Y-112323428D01*
X206001952Y-112418666D01*
X206049571Y-112466285D01*
X206144809Y-112513904D01*
X206382904Y-112513904D01*
X206478142Y-112466285D01*
X206525761Y-112418666D01*
X206573380Y-112323428D01*
X206573380Y-112037714D01*
X206525761Y-111942476D01*
X206478142Y-111894857D01*
X202890380Y-110609142D02*
X202414190Y-110275809D01*
X202890380Y-110037714D02*
X201890380Y-110037714D01*
X201890380Y-110418666D01*
X201938000Y-110513904D01*
X201985619Y-110561523D01*
X202080857Y-110609142D01*
X202223714Y-110609142D01*
X202318952Y-110561523D01*
X202366571Y-110513904D01*
X202414190Y-110418666D01*
X202414190Y-110037714D01*
X201890380Y-110942476D02*
X201890380Y-111561523D01*
X202271333Y-111228190D01*
X202271333Y-111371047D01*
X202318952Y-111466285D01*
X202366571Y-111513904D01*
X202461809Y-111561523D01*
X202699904Y-111561523D01*
X202795142Y-111513904D01*
X202842761Y-111466285D01*
X202890380Y-111371047D01*
X202890380Y-111085333D01*
X202842761Y-110990095D01*
X202795142Y-110942476D01*
X202223714Y-112418666D02*
X202890380Y-112418666D01*
X201842761Y-112180571D02*
X202557047Y-111942476D01*
X202557047Y-112561523D01*
X201128380Y-118089095D02*
X201937904Y-118089095D01*
X202033142Y-118136714D01*
X202080761Y-118184333D01*
X202128380Y-118279571D01*
X202128380Y-118470047D01*
X202080761Y-118565285D01*
X202033142Y-118612904D01*
X201937904Y-118660523D01*
X201128380Y-118660523D01*
X201128380Y-119612904D02*
X201128380Y-119136714D01*
X201604571Y-119089095D01*
X201556952Y-119136714D01*
X201509333Y-119231952D01*
X201509333Y-119470047D01*
X201556952Y-119565285D01*
X201604571Y-119612904D01*
X201699809Y-119660523D01*
X201937904Y-119660523D01*
X202033142Y-119612904D01*
X202080761Y-119565285D01*
X202128380Y-119470047D01*
X202128380Y-119231952D01*
X202080761Y-119136714D01*
X202033142Y-119089095D01*
M02*
