G04 #@! TF.GenerationSoftware,KiCad,Pcbnew,6.0.0*
G04 #@! TF.CreationDate,2022-02-03T14:26:25-05:00*
G04 #@! TF.ProjectId,remote_arming,72656d6f-7465-45f6-9172-6d696e672e6b,rev?*
G04 #@! TF.SameCoordinates,Original*
G04 #@! TF.FileFunction,Paste,Bot*
G04 #@! TF.FilePolarity,Positive*
%FSLAX46Y46*%
G04 Gerber Fmt 4.6, Leading zero omitted, Abs format (unit mm)*
G04 Created by KiCad (PCBNEW 6.0.0) date 2022-02-03 14:26:25*
%MOMM*%
%LPD*%
G01*
G04 APERTURE LIST*
G04 Aperture macros list*
%AMRoundRect*
0 Rectangle with rounded corners*
0 $1 Rounding radius*
0 $2 $3 $4 $5 $6 $7 $8 $9 X,Y pos of 4 corners*
0 Add a 4 corners polygon primitive as box body*
4,1,4,$2,$3,$4,$5,$6,$7,$8,$9,$2,$3,0*
0 Add four circle primitives for the rounded corners*
1,1,$1+$1,$2,$3*
1,1,$1+$1,$4,$5*
1,1,$1+$1,$6,$7*
1,1,$1+$1,$8,$9*
0 Add four rect primitives between the rounded corners*
20,1,$1+$1,$2,$3,$4,$5,0*
20,1,$1+$1,$4,$5,$6,$7,0*
20,1,$1+$1,$6,$7,$8,$9,0*
20,1,$1+$1,$8,$9,$2,$3,0*%
G04 Aperture macros list end*
%ADD10R,2.000000X1.000000*%
%ADD11RoundRect,0.250000X0.325000X0.450000X-0.325000X0.450000X-0.325000X-0.450000X0.325000X-0.450000X0*%
%ADD12RoundRect,0.250000X-0.450000X0.325000X-0.450000X-0.325000X0.450000X-0.325000X0.450000X0.325000X0*%
%ADD13R,0.600000X1.550000*%
%ADD14R,0.650000X1.560000*%
%ADD15RoundRect,0.250000X0.450000X-0.325000X0.450000X0.325000X-0.450000X0.325000X-0.450000X-0.325000X0*%
%ADD16RoundRect,0.250001X0.624999X-0.462499X0.624999X0.462499X-0.624999X0.462499X-0.624999X-0.462499X0*%
%ADD17R,1.000000X1.000000*%
%ADD18R,0.800000X1.900000*%
%ADD19R,4.550000X5.250000*%
%ADD20R,4.600000X1.100000*%
%ADD21R,1.560000X0.650000*%
G04 APERTURE END LIST*
D10*
X189992000Y-96012000D03*
X189992000Y-93472000D03*
X189992000Y-90932000D03*
X189992000Y-88392000D03*
X189992000Y-85852000D03*
D11*
X216390000Y-101600000D03*
X218440000Y-101600000D03*
X216390000Y-88900000D03*
X218440000Y-88900000D03*
D12*
X202692000Y-66566000D03*
X202692000Y-64516000D03*
D13*
X218313000Y-92296000D03*
X217043000Y-92296000D03*
X215773000Y-92296000D03*
X214503000Y-92296000D03*
X214503000Y-97696000D03*
X215773000Y-97696000D03*
X217043000Y-97696000D03*
X218313000Y-97696000D03*
D14*
X206248000Y-66708000D03*
X208148000Y-66708000D03*
X208148000Y-64008000D03*
X207198000Y-64008000D03*
X206248000Y-64008000D03*
D12*
X184404000Y-71646000D03*
X184404000Y-69596000D03*
X184404000Y-77234000D03*
X184404000Y-75184000D03*
X184531000Y-106816000D03*
X184531000Y-104766000D03*
X184531000Y-111778000D03*
X184531000Y-109728000D03*
D15*
X225298000Y-101836000D03*
X225298000Y-103886000D03*
D12*
X225552000Y-80264000D03*
X225552000Y-78214000D03*
X232918000Y-103886000D03*
X232918000Y-101836000D03*
X233172000Y-80264000D03*
X233172000Y-78214000D03*
X236982000Y-80264000D03*
X236982000Y-78214000D03*
X236728000Y-103886000D03*
X236728000Y-101836000D03*
X236728000Y-88428000D03*
X236728000Y-86378000D03*
D15*
X236728000Y-93998000D03*
X236728000Y-96048000D03*
D12*
X232918000Y-96048000D03*
X232918000Y-93998000D03*
X232918000Y-88428000D03*
X232918000Y-86378000D03*
X225298000Y-96048000D03*
X225298000Y-93998000D03*
X229108000Y-96048000D03*
X229108000Y-93998000D03*
D15*
X225298000Y-86351000D03*
X225298000Y-88401000D03*
X229108000Y-86351000D03*
X229108000Y-88401000D03*
D12*
X229108000Y-103886000D03*
X229108000Y-101836000D03*
X229362000Y-80264000D03*
X229362000Y-78214000D03*
D16*
X216408000Y-64008000D03*
X216408000Y-66983000D03*
X212344000Y-64008000D03*
X212344000Y-66983000D03*
D17*
X221488000Y-93746000D03*
X221488000Y-96246000D03*
X220472000Y-66782000D03*
X220472000Y-64282000D03*
D12*
X221488000Y-80282000D03*
X221488000Y-78232000D03*
D18*
X216474000Y-80724000D03*
X217424000Y-77724000D03*
X215524000Y-77724000D03*
D19*
X203134000Y-78251000D03*
X207984000Y-83801000D03*
X203134000Y-83801000D03*
X207984000Y-78251000D03*
D20*
X196409000Y-78486000D03*
X196409000Y-81026000D03*
X196409000Y-83566000D03*
D19*
X203134000Y-99333000D03*
X207984000Y-104883000D03*
X203134000Y-104883000D03*
X207984000Y-99333000D03*
D20*
X196409000Y-99568000D03*
X196409000Y-102108000D03*
X196409000Y-104648000D03*
D11*
X207781000Y-116840000D03*
X205731000Y-116840000D03*
D15*
X195580000Y-68208000D03*
X195580000Y-66158000D03*
D12*
X191008000Y-123716000D03*
X191008000Y-121666000D03*
X195580000Y-73161000D03*
X195580000Y-71111000D03*
D15*
X191008000Y-118754000D03*
X191008000Y-116704000D03*
D16*
X207772000Y-112739500D03*
X207772000Y-109764500D03*
X204343000Y-109764500D03*
X204343000Y-112739500D03*
D21*
X200326000Y-116901000D03*
X200326000Y-115951000D03*
X200326000Y-115001000D03*
X203026000Y-115001000D03*
X203026000Y-116901000D03*
M02*
