M48
; DRILL file {KiCad (5.1.6)-1} date 12/09/21 22:57:57
; FORMAT={-:-/ absolute / inch / decimal}
; #@! TF.CreationDate,2021-12-09T22:57:57-05:00
; #@! TF.GenerationSoftware,Kicad,Pcbnew,(5.1.6)-1
; #@! TF.FileFunction,Plated,1,4,PTH
FMAT,2
INCH
T1C0.0150
T2C0.0157
T3C0.0268
T4C0.0300
T5C0.0315
T6C0.0374
T7C0.0394
T8C0.0787
T9C0.1260
T10C0.1660
%
G90
G05
T1
X7.26Y-3.12
X7.265Y-4.475
X7.3Y-3.705
X7.34Y-3.3
X7.34Y-3.35
X7.345Y-2.76
X7.39Y-3.51
X7.45Y-4.71
X7.52Y-4.525
X7.56Y-3.5
X7.56Y-3.575
X7.56Y-3.65
X7.56Y-3.725
X7.56Y-3.8
X7.625Y-3.45
X7.625Y-3.85
X7.7Y-2.97
X7.7Y-3.45
X7.7Y-3.85
X7.775Y-3.45
X7.775Y-3.85
X7.7781Y-4.6119
X7.85Y-3.475
X7.85Y-3.85
X7.855Y-4.69
X7.88Y-3.25
X7.9Y-3.475
X7.9Y-3.75
X8.05Y-4.66
X8.055Y-2.53
X8.06Y-2.65
X8.0673Y-3.4572
X8.08Y-3.575
X8.16Y-2.7
X8.17Y-2.445
X8.1721Y-3.4761
X8.1871Y-3.4413
X8.19Y-3.695
X8.2Y-4.675
X8.225Y-3.43
X8.285Y-3.655
X8.285Y-3.705
X8.42Y-3.18
X8.4442Y-3.7781
X8.45Y-3.92
X8.47Y-3.575
X8.48Y-3.18
X8.4821Y-3.7799
X8.485Y-3.26
X8.515Y-3.925
X8.52Y-3.78
X8.575Y-3.77
X8.575Y-4.3304
X8.585Y-3.71
X8.615Y-3.095
X8.63Y-3.3264
X8.63Y-3.3643
X8.63Y-3.4021
X8.63Y-3.44
X8.68Y-2.46
X8.715Y-4.09
X8.72Y-3.855
X8.74Y-3.51
X8.77Y-2.64
X8.79Y-3.62
X8.8Y-3.3
X8.8Y-3.81
X8.8Y-4.09
X8.81Y-2.71
X8.81Y-2.865
X8.875Y-2.865
X8.905Y-3.335
X8.94Y-3.78
X8.94Y-3.96
X8.98Y-2.625
X9.005Y-4.17
X9.03Y-3.225
X9.035Y-3.95
X9.05Y-3.5926
X9.11Y-3.9374
X9.15Y-3.95
X9.155Y-3.55
X9.165Y-3.305
X9.18Y-3.01
X9.235Y-4.3304
X9.295Y-3.27
X9.32Y-4.22
X9.38Y-4.14
X9.4Y-3.035
X9.4Y-3.46
X9.425Y-2.915
X9.425Y-3.15
X9.4269Y-3.35
X9.47Y-3.77
X9.47Y-3.8079
X9.47Y-3.8457
X9.47Y-3.8836
X9.4743Y-4.4693
X9.57Y-3.74
X9.57Y-3.78
X9.57Y-3.82
X9.66Y-4.21
T2
X7.47Y-3.73
X7.8248Y-2.8642
X8.115Y-3.77
T3
X8.4413Y-2.3013
X8.4413Y-2.38
X8.52Y-2.3013
X8.52Y-2.38
X8.5987Y-2.3013
X8.5987Y-2.38
X9.0547Y-4.7606
X9.0547Y-4.8394
X9.1335Y-4.7606
X9.1335Y-4.8394
X9.2122Y-4.7606
X9.2122Y-4.8394
X8.3978Y-4.7606
X8.3978Y-4.8394
X8.4765Y-4.7606
X8.4765Y-4.8394
X8.5553Y-4.7606
X8.5553Y-4.8394
X9.6206Y-4.2447
X9.6206Y-4.3235
X9.6206Y-4.4022
X9.6994Y-4.2447
X9.6994Y-4.3235
X9.6994Y-4.4022
X9.6206Y-2.9047
X9.6206Y-2.9835
X9.6206Y-3.0622
X9.6994Y-2.9047
X9.6994Y-2.9835
X9.6994Y-3.0622
X9.6206Y-3.5778
X9.6206Y-3.6565
X9.6206Y-3.7353
X9.6994Y-3.5778
X9.6994Y-3.6565
X9.6994Y-3.7353
T4
X8.245Y-4.535
X8.275Y-3.455
X8.335Y-4.05
X9.15Y-3.61
X9.41Y-4.48
X9.49Y-4.22
X9.5Y-3.22
X9.5171Y-3.555
X9.56Y-4.044
T5
X7.78Y-3.56
X7.78Y-3.7521
T6
X9.0666Y-2.49
X9.165Y-2.49
X9.2634Y-2.49
T7
X8.2808Y-2.84
X8.58Y-2.84
X9.14Y-4.22
X9.14Y-4.5192
X8.48Y-4.22
X8.48Y-4.5192
T8
X7.47Y-4.0952
X7.47Y-4.42
X7.47Y-2.8002
X7.47Y-3.125
T9
X7.2Y-2.36
X9.7Y-4.86
X9.7Y-2.36
X7.2Y-4.86
T10
X7.7304Y-2.364
X7.9904Y-2.364
X7.9904Y-2.804
X7.73Y-4.42
X7.73Y-4.86
X7.99Y-4.86
T0
M30
