G04 #@! TF.GenerationSoftware,KiCad,Pcbnew,7.0.11*
G04 #@! TF.CreationDate,2024-06-05T21:03:52-04:00*
G04 #@! TF.ProjectId,remote_arming,72656d6f-7465-45f6-9172-6d696e672e6b,rev?*
G04 #@! TF.SameCoordinates,Original*
G04 #@! TF.FileFunction,Legend,Top*
G04 #@! TF.FilePolarity,Positive*
%FSLAX46Y46*%
G04 Gerber Fmt 4.6, Leading zero omitted, Abs format (unit mm)*
G04 Created by KiCad (PCBNEW 7.0.11) date 2024-06-05 21:03:52*
%MOMM*%
%LPD*%
G01*
G04 APERTURE LIST*
G04 Aperture macros list*
%AMRoundRect*
0 Rectangle with rounded corners*
0 $1 Rounding radius*
0 $2 $3 $4 $5 $6 $7 $8 $9 X,Y pos of 4 corners*
0 Add a 4 corners polygon primitive as box body*
4,1,4,$2,$3,$4,$5,$6,$7,$8,$9,$2,$3,0*
0 Add four circle primitives for the rounded corners*
1,1,$1+$1,$2,$3*
1,1,$1+$1,$4,$5*
1,1,$1+$1,$6,$7*
1,1,$1+$1,$8,$9*
0 Add four rect primitives between the rounded corners*
20,1,$1+$1,$2,$3,$4,$5,0*
20,1,$1+$1,$4,$5,$6,$7,0*
20,1,$1+$1,$6,$7,$8,$9,0*
20,1,$1+$1,$8,$9,$2,$3,0*%
G04 Aperture macros list end*
%ADD10C,0.300000*%
%ADD11C,0.150000*%
%ADD12C,0.010000*%
%ADD13C,0.120000*%
%ADD14RoundRect,0.250000X-0.850000X-0.350000X0.850000X-0.350000X0.850000X0.350000X-0.850000X0.350000X0*%
%ADD15RoundRect,0.249997X-2.950003X-2.650003X2.950003X-2.650003X2.950003X2.650003X-2.950003X2.650003X0*%
%ADD16RoundRect,0.250001X-0.462499X-0.624999X0.462499X-0.624999X0.462499X0.624999X-0.462499X0.624999X0*%
%ADD17R,2.000000X2.000000*%
%ADD18C,2.000000*%
%ADD19RoundRect,0.250000X0.350000X0.450000X-0.350000X0.450000X-0.350000X-0.450000X0.350000X-0.450000X0*%
%ADD20RoundRect,0.250000X0.475000X-0.337500X0.475000X0.337500X-0.475000X0.337500X-0.475000X-0.337500X0*%
%ADD21C,1.500000*%
%ADD22C,6.197600*%
%ADD23RoundRect,0.200000X0.750000X0.200000X-0.750000X0.200000X-0.750000X-0.200000X0.750000X-0.200000X0*%
%ADD24C,6.400000*%
%ADD25C,2.200000*%
%ADD26R,1.200000X1.200000*%
%ADD27C,1.200000*%
%ADD28RoundRect,0.250000X0.337500X0.475000X-0.337500X0.475000X-0.337500X-0.475000X0.337500X-0.475000X0*%
%ADD29C,3.000000*%
%ADD30RoundRect,0.200000X-0.750000X-0.200000X0.750000X-0.200000X0.750000X0.200000X-0.750000X0.200000X0*%
%ADD31RoundRect,0.150000X0.150000X-0.825000X0.150000X0.825000X-0.150000X0.825000X-0.150000X-0.825000X0*%
%ADD32RoundRect,0.150000X-0.750000X-0.150000X0.750000X-0.150000X0.750000X0.150000X-0.750000X0.150000X0*%
%ADD33RoundRect,0.250000X-0.450000X0.350000X-0.450000X-0.350000X0.450000X-0.350000X0.450000X0.350000X0*%
%ADD34RoundRect,0.250000X-0.600000X-0.725000X0.600000X-0.725000X0.600000X0.725000X-0.600000X0.725000X0*%
%ADD35O,1.700000X1.950000*%
%ADD36RoundRect,0.250000X-0.350000X-0.450000X0.350000X-0.450000X0.350000X0.450000X-0.350000X0.450000X0*%
%ADD37RoundRect,0.250000X-0.475000X0.337500X-0.475000X-0.337500X0.475000X-0.337500X0.475000X0.337500X0*%
G04 APERTURE END LIST*
D10*
X180785833Y-86946619D02*
X180785833Y-85011381D01*
X194735286Y-103778614D02*
X194949572Y-103850042D01*
X194949572Y-103850042D02*
X195021001Y-103921471D01*
X195021001Y-103921471D02*
X195092429Y-104064328D01*
X195092429Y-104064328D02*
X195092429Y-104278614D01*
X195092429Y-104278614D02*
X195021001Y-104421471D01*
X195021001Y-104421471D02*
X194949572Y-104492900D01*
X194949572Y-104492900D02*
X194806715Y-104564328D01*
X194806715Y-104564328D02*
X194235286Y-104564328D01*
X194235286Y-104564328D02*
X194235286Y-103064328D01*
X194235286Y-103064328D02*
X194735286Y-103064328D01*
X194735286Y-103064328D02*
X194878144Y-103135757D01*
X194878144Y-103135757D02*
X194949572Y-103207185D01*
X194949572Y-103207185D02*
X195021001Y-103350042D01*
X195021001Y-103350042D02*
X195021001Y-103492900D01*
X195021001Y-103492900D02*
X194949572Y-103635757D01*
X194949572Y-103635757D02*
X194878144Y-103707185D01*
X194878144Y-103707185D02*
X194735286Y-103778614D01*
X194735286Y-103778614D02*
X194235286Y-103778614D01*
X195663858Y-104135757D02*
X196378144Y-104135757D01*
X195521001Y-104564328D02*
X196021001Y-103064328D01*
X196021001Y-103064328D02*
X196521001Y-104564328D01*
X196806715Y-103064328D02*
X197663858Y-103064328D01*
X197235286Y-104564328D02*
X197235286Y-103064328D01*
X197949572Y-103064328D02*
X198806715Y-103064328D01*
X198378143Y-104564328D02*
X198378143Y-103064328D01*
X199306714Y-103778614D02*
X199806714Y-103778614D01*
X200021000Y-104564328D02*
X199306714Y-104564328D01*
X199306714Y-104564328D02*
X199306714Y-103064328D01*
X199306714Y-103064328D02*
X200021000Y-103064328D01*
X201521000Y-104564328D02*
X201021000Y-103850042D01*
X200663857Y-104564328D02*
X200663857Y-103064328D01*
X200663857Y-103064328D02*
X201235286Y-103064328D01*
X201235286Y-103064328D02*
X201378143Y-103135757D01*
X201378143Y-103135757D02*
X201449572Y-103207185D01*
X201449572Y-103207185D02*
X201521000Y-103350042D01*
X201521000Y-103350042D02*
X201521000Y-103564328D01*
X201521000Y-103564328D02*
X201449572Y-103707185D01*
X201449572Y-103707185D02*
X201378143Y-103778614D01*
X201378143Y-103778614D02*
X201235286Y-103850042D01*
X201235286Y-103850042D02*
X200663857Y-103850042D01*
X202449572Y-103850042D02*
X202449572Y-104564328D01*
X201949572Y-103064328D02*
X202449572Y-103850042D01*
X202449572Y-103850042D02*
X202949572Y-103064328D01*
X204521000Y-103207185D02*
X204592428Y-103135757D01*
X204592428Y-103135757D02*
X204735286Y-103064328D01*
X204735286Y-103064328D02*
X205092428Y-103064328D01*
X205092428Y-103064328D02*
X205235286Y-103135757D01*
X205235286Y-103135757D02*
X205306714Y-103207185D01*
X205306714Y-103207185D02*
X205378143Y-103350042D01*
X205378143Y-103350042D02*
X205378143Y-103492900D01*
X205378143Y-103492900D02*
X205306714Y-103707185D01*
X205306714Y-103707185D02*
X204449571Y-104564328D01*
X204449571Y-104564328D02*
X205378143Y-104564328D01*
X226402001Y-125725757D02*
X227116287Y-125725757D01*
X226259144Y-126154328D02*
X226759144Y-124654328D01*
X226759144Y-124654328D02*
X227259144Y-126154328D01*
X227973429Y-126154328D02*
X227830572Y-126082900D01*
X227830572Y-126082900D02*
X227759143Y-125940042D01*
X227759143Y-125940042D02*
X227759143Y-124654328D01*
X228330572Y-125154328D02*
X228902000Y-125154328D01*
X228544857Y-124654328D02*
X228544857Y-125940042D01*
X228544857Y-125940042D02*
X228616286Y-126082900D01*
X228616286Y-126082900D02*
X228759143Y-126154328D01*
X228759143Y-126154328D02*
X228902000Y-126154328D01*
X230473429Y-124797185D02*
X230544857Y-124725757D01*
X230544857Y-124725757D02*
X230687715Y-124654328D01*
X230687715Y-124654328D02*
X231044857Y-124654328D01*
X231044857Y-124654328D02*
X231187715Y-124725757D01*
X231187715Y-124725757D02*
X231259143Y-124797185D01*
X231259143Y-124797185D02*
X231330572Y-124940042D01*
X231330572Y-124940042D02*
X231330572Y-125082900D01*
X231330572Y-125082900D02*
X231259143Y-125297185D01*
X231259143Y-125297185D02*
X230402000Y-126154328D01*
X230402000Y-126154328D02*
X231330572Y-126154328D01*
X233116285Y-126154328D02*
X233116285Y-124654328D01*
X233116285Y-124654328D02*
X233687714Y-124654328D01*
X233687714Y-124654328D02*
X233830571Y-124725757D01*
X233830571Y-124725757D02*
X233902000Y-124797185D01*
X233902000Y-124797185D02*
X233973428Y-124940042D01*
X233973428Y-124940042D02*
X233973428Y-125154328D01*
X233973428Y-125154328D02*
X233902000Y-125297185D01*
X233902000Y-125297185D02*
X233830571Y-125368614D01*
X233830571Y-125368614D02*
X233687714Y-125440042D01*
X233687714Y-125440042D02*
X233116285Y-125440042D01*
X234473428Y-125154328D02*
X234830571Y-126154328D01*
X235187714Y-125154328D02*
X234830571Y-126154328D01*
X234830571Y-126154328D02*
X234687714Y-126511471D01*
X234687714Y-126511471D02*
X234616285Y-126582900D01*
X234616285Y-126582900D02*
X234473428Y-126654328D01*
X235759142Y-126154328D02*
X235759142Y-125154328D01*
X235759142Y-125440042D02*
X235830571Y-125297185D01*
X235830571Y-125297185D02*
X235902000Y-125225757D01*
X235902000Y-125225757D02*
X236044857Y-125154328D01*
X236044857Y-125154328D02*
X236187714Y-125154328D01*
X236901999Y-126154328D02*
X236759142Y-126082900D01*
X236759142Y-126082900D02*
X236687713Y-126011471D01*
X236687713Y-126011471D02*
X236616285Y-125868614D01*
X236616285Y-125868614D02*
X236616285Y-125440042D01*
X236616285Y-125440042D02*
X236687713Y-125297185D01*
X236687713Y-125297185D02*
X236759142Y-125225757D01*
X236759142Y-125225757D02*
X236901999Y-125154328D01*
X236901999Y-125154328D02*
X237116285Y-125154328D01*
X237116285Y-125154328D02*
X237259142Y-125225757D01*
X237259142Y-125225757D02*
X237330571Y-125297185D01*
X237330571Y-125297185D02*
X237401999Y-125440042D01*
X237401999Y-125440042D02*
X237401999Y-125868614D01*
X237401999Y-125868614D02*
X237330571Y-126011471D01*
X237330571Y-126011471D02*
X237259142Y-126082900D01*
X237259142Y-126082900D02*
X237116285Y-126154328D01*
X237116285Y-126154328D02*
X236901999Y-126154328D01*
X239478671Y-58495714D02*
X240978671Y-58495714D01*
X240978671Y-58495714D02*
X240978671Y-58852857D01*
X240978671Y-58852857D02*
X240907242Y-59067143D01*
X240907242Y-59067143D02*
X240764385Y-59210000D01*
X240764385Y-59210000D02*
X240621528Y-59281429D01*
X240621528Y-59281429D02*
X240335814Y-59352857D01*
X240335814Y-59352857D02*
X240121528Y-59352857D01*
X240121528Y-59352857D02*
X239835814Y-59281429D01*
X239835814Y-59281429D02*
X239692957Y-59210000D01*
X239692957Y-59210000D02*
X239550100Y-59067143D01*
X239550100Y-59067143D02*
X239478671Y-58852857D01*
X239478671Y-58852857D02*
X239478671Y-58495714D01*
X240978671Y-59781429D02*
X240978671Y-60638572D01*
X239478671Y-60210000D02*
X240978671Y-60210000D01*
X240478671Y-61781429D02*
X239478671Y-61781429D01*
X241050100Y-61424286D02*
X239978671Y-61067143D01*
X239978671Y-61067143D02*
X239978671Y-61995714D01*
X240978671Y-62567142D02*
X239764385Y-62567142D01*
X239764385Y-62567142D02*
X239621528Y-62638571D01*
X239621528Y-62638571D02*
X239550100Y-62710000D01*
X239550100Y-62710000D02*
X239478671Y-62852857D01*
X239478671Y-62852857D02*
X239478671Y-63138571D01*
X239478671Y-63138571D02*
X239550100Y-63281428D01*
X239550100Y-63281428D02*
X239621528Y-63352857D01*
X239621528Y-63352857D02*
X239764385Y-63424285D01*
X239764385Y-63424285D02*
X240978671Y-63424285D01*
D11*
X237654029Y-74330866D02*
X238415934Y-74330866D01*
X238034981Y-74711819D02*
X238034981Y-73949914D01*
X237643779Y-77974866D02*
X238405684Y-77974866D01*
X238024731Y-78355819D02*
X238024731Y-77593914D01*
D10*
X179753380Y-64453833D02*
X181688619Y-64453833D01*
X180720999Y-65421452D02*
X180720999Y-63486214D01*
X217372285Y-62456528D02*
X217443713Y-62385100D01*
X217443713Y-62385100D02*
X217657999Y-62313671D01*
X217657999Y-62313671D02*
X217800856Y-62313671D01*
X217800856Y-62313671D02*
X218015142Y-62385100D01*
X218015142Y-62385100D02*
X218157999Y-62527957D01*
X218157999Y-62527957D02*
X218229428Y-62670814D01*
X218229428Y-62670814D02*
X218300856Y-62956528D01*
X218300856Y-62956528D02*
X218300856Y-63170814D01*
X218300856Y-63170814D02*
X218229428Y-63456528D01*
X218229428Y-63456528D02*
X218157999Y-63599385D01*
X218157999Y-63599385D02*
X218015142Y-63742242D01*
X218015142Y-63742242D02*
X217800856Y-63813671D01*
X217800856Y-63813671D02*
X217657999Y-63813671D01*
X217657999Y-63813671D02*
X217443713Y-63742242D01*
X217443713Y-63742242D02*
X217372285Y-63670814D01*
X216800856Y-62742242D02*
X216086571Y-62742242D01*
X216943713Y-62313671D02*
X216443713Y-63813671D01*
X216443713Y-63813671D02*
X215943713Y-62313671D01*
X215443714Y-62313671D02*
X215443714Y-63813671D01*
X215443714Y-63813671D02*
X214586571Y-62313671D01*
X214586571Y-62313671D02*
X214586571Y-63813671D01*
D11*
X237826779Y-82800866D02*
X238588684Y-82800866D01*
X238207731Y-83181819D02*
X238207731Y-82419914D01*
D10*
X248915757Y-94645998D02*
X248915757Y-93931713D01*
X249344328Y-94788855D02*
X247844328Y-94288855D01*
X247844328Y-94288855D02*
X249344328Y-93788855D01*
X249344328Y-93074570D02*
X249272900Y-93217427D01*
X249272900Y-93217427D02*
X249130042Y-93288856D01*
X249130042Y-93288856D02*
X247844328Y-93288856D01*
X248344328Y-92717427D02*
X248344328Y-92145999D01*
X247844328Y-92503142D02*
X249130042Y-92503142D01*
X249130042Y-92503142D02*
X249272900Y-92431713D01*
X249272900Y-92431713D02*
X249344328Y-92288856D01*
X249344328Y-92288856D02*
X249344328Y-92145999D01*
X249344328Y-91645999D02*
X248344328Y-91645999D01*
X247844328Y-91645999D02*
X247915757Y-91717427D01*
X247915757Y-91717427D02*
X247987185Y-91645999D01*
X247987185Y-91645999D02*
X247915757Y-91574570D01*
X247915757Y-91574570D02*
X247844328Y-91645999D01*
X247844328Y-91645999D02*
X247987185Y-91645999D01*
X249344328Y-90931713D02*
X248344328Y-90931713D01*
X248487185Y-90931713D02*
X248415757Y-90860284D01*
X248415757Y-90860284D02*
X248344328Y-90717427D01*
X248344328Y-90717427D02*
X248344328Y-90503141D01*
X248344328Y-90503141D02*
X248415757Y-90360284D01*
X248415757Y-90360284D02*
X248558614Y-90288856D01*
X248558614Y-90288856D02*
X249344328Y-90288856D01*
X248558614Y-90288856D02*
X248415757Y-90217427D01*
X248415757Y-90217427D02*
X248344328Y-90074570D01*
X248344328Y-90074570D02*
X248344328Y-89860284D01*
X248344328Y-89860284D02*
X248415757Y-89717427D01*
X248415757Y-89717427D02*
X248558614Y-89645998D01*
X248558614Y-89645998D02*
X249344328Y-89645998D01*
X249272900Y-88360284D02*
X249344328Y-88503141D01*
X249344328Y-88503141D02*
X249344328Y-88788856D01*
X249344328Y-88788856D02*
X249272900Y-88931713D01*
X249272900Y-88931713D02*
X249130042Y-89003141D01*
X249130042Y-89003141D02*
X248558614Y-89003141D01*
X248558614Y-89003141D02*
X248415757Y-88931713D01*
X248415757Y-88931713D02*
X248344328Y-88788856D01*
X248344328Y-88788856D02*
X248344328Y-88503141D01*
X248344328Y-88503141D02*
X248415757Y-88360284D01*
X248415757Y-88360284D02*
X248558614Y-88288856D01*
X248558614Y-88288856D02*
X248701471Y-88288856D01*
X248701471Y-88288856D02*
X248844328Y-89003141D01*
X248344328Y-87860284D02*
X248344328Y-87288856D01*
X247844328Y-87645999D02*
X249130042Y-87645999D01*
X249130042Y-87645999D02*
X249272900Y-87574570D01*
X249272900Y-87574570D02*
X249344328Y-87431713D01*
X249344328Y-87431713D02*
X249344328Y-87288856D01*
X249272900Y-86217427D02*
X249344328Y-86360284D01*
X249344328Y-86360284D02*
X249344328Y-86645999D01*
X249344328Y-86645999D02*
X249272900Y-86788856D01*
X249272900Y-86788856D02*
X249130042Y-86860284D01*
X249130042Y-86860284D02*
X248558614Y-86860284D01*
X248558614Y-86860284D02*
X248415757Y-86788856D01*
X248415757Y-86788856D02*
X248344328Y-86645999D01*
X248344328Y-86645999D02*
X248344328Y-86360284D01*
X248344328Y-86360284D02*
X248415757Y-86217427D01*
X248415757Y-86217427D02*
X248558614Y-86145999D01*
X248558614Y-86145999D02*
X248701471Y-86145999D01*
X248701471Y-86145999D02*
X248844328Y-86860284D01*
X249344328Y-85503142D02*
X248344328Y-85503142D01*
X248630042Y-85503142D02*
X248487185Y-85431713D01*
X248487185Y-85431713D02*
X248415757Y-85360285D01*
X248415757Y-85360285D02*
X248344328Y-85217427D01*
X248344328Y-85217427D02*
X248344328Y-85074570D01*
X249344328Y-82645999D02*
X249344328Y-83503142D01*
X249344328Y-83074571D02*
X247844328Y-83074571D01*
X247844328Y-83074571D02*
X248058614Y-83217428D01*
X248058614Y-83217428D02*
X248201471Y-83360285D01*
X248201471Y-83360285D02*
X248272900Y-83503142D01*
X179372380Y-118936833D02*
X181307619Y-118936833D01*
X180339999Y-119904452D02*
X180339999Y-117969214D01*
X248788757Y-111155998D02*
X248788757Y-110441713D01*
X249217328Y-111298855D02*
X247717328Y-110798855D01*
X247717328Y-110798855D02*
X249217328Y-110298855D01*
X249217328Y-109584570D02*
X249145900Y-109727427D01*
X249145900Y-109727427D02*
X249003042Y-109798856D01*
X249003042Y-109798856D02*
X247717328Y-109798856D01*
X248217328Y-109227427D02*
X248217328Y-108655999D01*
X247717328Y-109013142D02*
X249003042Y-109013142D01*
X249003042Y-109013142D02*
X249145900Y-108941713D01*
X249145900Y-108941713D02*
X249217328Y-108798856D01*
X249217328Y-108798856D02*
X249217328Y-108655999D01*
X249217328Y-108155999D02*
X248217328Y-108155999D01*
X247717328Y-108155999D02*
X247788757Y-108227427D01*
X247788757Y-108227427D02*
X247860185Y-108155999D01*
X247860185Y-108155999D02*
X247788757Y-108084570D01*
X247788757Y-108084570D02*
X247717328Y-108155999D01*
X247717328Y-108155999D02*
X247860185Y-108155999D01*
X249217328Y-107441713D02*
X248217328Y-107441713D01*
X248360185Y-107441713D02*
X248288757Y-107370284D01*
X248288757Y-107370284D02*
X248217328Y-107227427D01*
X248217328Y-107227427D02*
X248217328Y-107013141D01*
X248217328Y-107013141D02*
X248288757Y-106870284D01*
X248288757Y-106870284D02*
X248431614Y-106798856D01*
X248431614Y-106798856D02*
X249217328Y-106798856D01*
X248431614Y-106798856D02*
X248288757Y-106727427D01*
X248288757Y-106727427D02*
X248217328Y-106584570D01*
X248217328Y-106584570D02*
X248217328Y-106370284D01*
X248217328Y-106370284D02*
X248288757Y-106227427D01*
X248288757Y-106227427D02*
X248431614Y-106155998D01*
X248431614Y-106155998D02*
X249217328Y-106155998D01*
X249145900Y-104870284D02*
X249217328Y-105013141D01*
X249217328Y-105013141D02*
X249217328Y-105298856D01*
X249217328Y-105298856D02*
X249145900Y-105441713D01*
X249145900Y-105441713D02*
X249003042Y-105513141D01*
X249003042Y-105513141D02*
X248431614Y-105513141D01*
X248431614Y-105513141D02*
X248288757Y-105441713D01*
X248288757Y-105441713D02*
X248217328Y-105298856D01*
X248217328Y-105298856D02*
X248217328Y-105013141D01*
X248217328Y-105013141D02*
X248288757Y-104870284D01*
X248288757Y-104870284D02*
X248431614Y-104798856D01*
X248431614Y-104798856D02*
X248574471Y-104798856D01*
X248574471Y-104798856D02*
X248717328Y-105513141D01*
X248217328Y-104370284D02*
X248217328Y-103798856D01*
X247717328Y-104155999D02*
X249003042Y-104155999D01*
X249003042Y-104155999D02*
X249145900Y-104084570D01*
X249145900Y-104084570D02*
X249217328Y-103941713D01*
X249217328Y-103941713D02*
X249217328Y-103798856D01*
X249145900Y-102727427D02*
X249217328Y-102870284D01*
X249217328Y-102870284D02*
X249217328Y-103155999D01*
X249217328Y-103155999D02*
X249145900Y-103298856D01*
X249145900Y-103298856D02*
X249003042Y-103370284D01*
X249003042Y-103370284D02*
X248431614Y-103370284D01*
X248431614Y-103370284D02*
X248288757Y-103298856D01*
X248288757Y-103298856D02*
X248217328Y-103155999D01*
X248217328Y-103155999D02*
X248217328Y-102870284D01*
X248217328Y-102870284D02*
X248288757Y-102727427D01*
X248288757Y-102727427D02*
X248431614Y-102655999D01*
X248431614Y-102655999D02*
X248574471Y-102655999D01*
X248574471Y-102655999D02*
X248717328Y-103370284D01*
X249217328Y-102013142D02*
X248217328Y-102013142D01*
X248503042Y-102013142D02*
X248360185Y-101941713D01*
X248360185Y-101941713D02*
X248288757Y-101870285D01*
X248288757Y-101870285D02*
X248217328Y-101727427D01*
X248217328Y-101727427D02*
X248217328Y-101584570D01*
X247860185Y-100013142D02*
X247788757Y-99941714D01*
X247788757Y-99941714D02*
X247717328Y-99798857D01*
X247717328Y-99798857D02*
X247717328Y-99441714D01*
X247717328Y-99441714D02*
X247788757Y-99298857D01*
X247788757Y-99298857D02*
X247860185Y-99227428D01*
X247860185Y-99227428D02*
X248003042Y-99155999D01*
X248003042Y-99155999D02*
X248145900Y-99155999D01*
X248145900Y-99155999D02*
X248360185Y-99227428D01*
X248360185Y-99227428D02*
X249217328Y-100084571D01*
X249217328Y-100084571D02*
X249217328Y-99155999D01*
X194735286Y-79267614D02*
X194949572Y-79339042D01*
X194949572Y-79339042D02*
X195021001Y-79410471D01*
X195021001Y-79410471D02*
X195092429Y-79553328D01*
X195092429Y-79553328D02*
X195092429Y-79767614D01*
X195092429Y-79767614D02*
X195021001Y-79910471D01*
X195021001Y-79910471D02*
X194949572Y-79981900D01*
X194949572Y-79981900D02*
X194806715Y-80053328D01*
X194806715Y-80053328D02*
X194235286Y-80053328D01*
X194235286Y-80053328D02*
X194235286Y-78553328D01*
X194235286Y-78553328D02*
X194735286Y-78553328D01*
X194735286Y-78553328D02*
X194878144Y-78624757D01*
X194878144Y-78624757D02*
X194949572Y-78696185D01*
X194949572Y-78696185D02*
X195021001Y-78839042D01*
X195021001Y-78839042D02*
X195021001Y-78981900D01*
X195021001Y-78981900D02*
X194949572Y-79124757D01*
X194949572Y-79124757D02*
X194878144Y-79196185D01*
X194878144Y-79196185D02*
X194735286Y-79267614D01*
X194735286Y-79267614D02*
X194235286Y-79267614D01*
X195663858Y-79624757D02*
X196378144Y-79624757D01*
X195521001Y-80053328D02*
X196021001Y-78553328D01*
X196021001Y-78553328D02*
X196521001Y-80053328D01*
X196806715Y-78553328D02*
X197663858Y-78553328D01*
X197235286Y-80053328D02*
X197235286Y-78553328D01*
X197949572Y-78553328D02*
X198806715Y-78553328D01*
X198378143Y-80053328D02*
X198378143Y-78553328D01*
X199306714Y-79267614D02*
X199806714Y-79267614D01*
X200021000Y-80053328D02*
X199306714Y-80053328D01*
X199306714Y-80053328D02*
X199306714Y-78553328D01*
X199306714Y-78553328D02*
X200021000Y-78553328D01*
X201521000Y-80053328D02*
X201021000Y-79339042D01*
X200663857Y-80053328D02*
X200663857Y-78553328D01*
X200663857Y-78553328D02*
X201235286Y-78553328D01*
X201235286Y-78553328D02*
X201378143Y-78624757D01*
X201378143Y-78624757D02*
X201449572Y-78696185D01*
X201449572Y-78696185D02*
X201521000Y-78839042D01*
X201521000Y-78839042D02*
X201521000Y-79053328D01*
X201521000Y-79053328D02*
X201449572Y-79196185D01*
X201449572Y-79196185D02*
X201378143Y-79267614D01*
X201378143Y-79267614D02*
X201235286Y-79339042D01*
X201235286Y-79339042D02*
X200663857Y-79339042D01*
X202449572Y-79339042D02*
X202449572Y-80053328D01*
X201949572Y-78553328D02*
X202449572Y-79339042D01*
X202449572Y-79339042D02*
X202949572Y-78553328D01*
X205378143Y-80053328D02*
X204521000Y-80053328D01*
X204949571Y-80053328D02*
X204949571Y-78553328D01*
X204949571Y-78553328D02*
X204806714Y-78767614D01*
X204806714Y-78767614D02*
X204663857Y-78910471D01*
X204663857Y-78910471D02*
X204521000Y-78981900D01*
X240824400Y-78891917D02*
X240895828Y-78677632D01*
X240895828Y-78677632D02*
X240895828Y-78320489D01*
X240895828Y-78320489D02*
X240824400Y-78177632D01*
X240824400Y-78177632D02*
X240752971Y-78106203D01*
X240752971Y-78106203D02*
X240610114Y-78034774D01*
X240610114Y-78034774D02*
X240467257Y-78034774D01*
X240467257Y-78034774D02*
X240324400Y-78106203D01*
X240324400Y-78106203D02*
X240252971Y-78177632D01*
X240252971Y-78177632D02*
X240181542Y-78320489D01*
X240181542Y-78320489D02*
X240110114Y-78606203D01*
X240110114Y-78606203D02*
X240038685Y-78749060D01*
X240038685Y-78749060D02*
X239967257Y-78820489D01*
X239967257Y-78820489D02*
X239824400Y-78891917D01*
X239824400Y-78891917D02*
X239681542Y-78891917D01*
X239681542Y-78891917D02*
X239538685Y-78820489D01*
X239538685Y-78820489D02*
X239467257Y-78749060D01*
X239467257Y-78749060D02*
X239395828Y-78606203D01*
X239395828Y-78606203D02*
X239395828Y-78249060D01*
X239395828Y-78249060D02*
X239467257Y-78034774D01*
X239895828Y-76749061D02*
X240895828Y-76749061D01*
X239895828Y-77391918D02*
X240681542Y-77391918D01*
X240681542Y-77391918D02*
X240824400Y-77320489D01*
X240824400Y-77320489D02*
X240895828Y-77177632D01*
X240895828Y-77177632D02*
X240895828Y-76963346D01*
X240895828Y-76963346D02*
X240824400Y-76820489D01*
X240824400Y-76820489D02*
X240752971Y-76749061D01*
X240824400Y-76106203D02*
X240895828Y-75963346D01*
X240895828Y-75963346D02*
X240895828Y-75677632D01*
X240895828Y-75677632D02*
X240824400Y-75534775D01*
X240824400Y-75534775D02*
X240681542Y-75463346D01*
X240681542Y-75463346D02*
X240610114Y-75463346D01*
X240610114Y-75463346D02*
X240467257Y-75534775D01*
X240467257Y-75534775D02*
X240395828Y-75677632D01*
X240395828Y-75677632D02*
X240395828Y-75891918D01*
X240395828Y-75891918D02*
X240324400Y-76034775D01*
X240324400Y-76034775D02*
X240181542Y-76106203D01*
X240181542Y-76106203D02*
X240110114Y-76106203D01*
X240110114Y-76106203D02*
X239967257Y-76034775D01*
X239967257Y-76034775D02*
X239895828Y-75891918D01*
X239895828Y-75891918D02*
X239895828Y-75677632D01*
X239895828Y-75677632D02*
X239967257Y-75534775D01*
X240895828Y-74820489D02*
X239395828Y-74820489D01*
X240895828Y-74177632D02*
X240110114Y-74177632D01*
X240110114Y-74177632D02*
X239967257Y-74249060D01*
X239967257Y-74249060D02*
X239895828Y-74391917D01*
X239895828Y-74391917D02*
X239895828Y-74606203D01*
X239895828Y-74606203D02*
X239967257Y-74749060D01*
X239967257Y-74749060D02*
X240038685Y-74820489D01*
X240895828Y-73463346D02*
X239895828Y-73463346D01*
X239395828Y-73463346D02*
X239467257Y-73534774D01*
X239467257Y-73534774D02*
X239538685Y-73463346D01*
X239538685Y-73463346D02*
X239467257Y-73391917D01*
X239467257Y-73391917D02*
X239395828Y-73463346D01*
X239395828Y-73463346D02*
X239538685Y-73463346D01*
X239395828Y-71820488D02*
X240895828Y-71320488D01*
X240895828Y-71320488D02*
X239395828Y-70820488D01*
X239395828Y-70463346D02*
X239395828Y-69534774D01*
X239395828Y-69534774D02*
X239967257Y-70034774D01*
X239967257Y-70034774D02*
X239967257Y-69820489D01*
X239967257Y-69820489D02*
X240038685Y-69677632D01*
X240038685Y-69677632D02*
X240110114Y-69606203D01*
X240110114Y-69606203D02*
X240252971Y-69534774D01*
X240252971Y-69534774D02*
X240610114Y-69534774D01*
X240610114Y-69534774D02*
X240752971Y-69606203D01*
X240752971Y-69606203D02*
X240824400Y-69677632D01*
X240824400Y-69677632D02*
X240895828Y-69820489D01*
X240895828Y-69820489D02*
X240895828Y-70249060D01*
X240895828Y-70249060D02*
X240824400Y-70391917D01*
X240824400Y-70391917D02*
X240752971Y-70463346D01*
X240752971Y-68891918D02*
X240824400Y-68820489D01*
X240824400Y-68820489D02*
X240895828Y-68891918D01*
X240895828Y-68891918D02*
X240824400Y-68963346D01*
X240824400Y-68963346D02*
X240752971Y-68891918D01*
X240752971Y-68891918D02*
X240895828Y-68891918D01*
X240895828Y-67391917D02*
X240895828Y-68249060D01*
X240895828Y-67820489D02*
X239395828Y-67820489D01*
X239395828Y-67820489D02*
X239610114Y-67963346D01*
X239610114Y-67963346D02*
X239752971Y-68106203D01*
X239752971Y-68106203D02*
X239824400Y-68249060D01*
X243310828Y-77963346D02*
X242596542Y-78463346D01*
X243310828Y-78820489D02*
X241810828Y-78820489D01*
X241810828Y-78820489D02*
X241810828Y-78249060D01*
X241810828Y-78249060D02*
X241882257Y-78106203D01*
X241882257Y-78106203D02*
X241953685Y-78034774D01*
X241953685Y-78034774D02*
X242096542Y-77963346D01*
X242096542Y-77963346D02*
X242310828Y-77963346D01*
X242310828Y-77963346D02*
X242453685Y-78034774D01*
X242453685Y-78034774D02*
X242525114Y-78106203D01*
X242525114Y-78106203D02*
X242596542Y-78249060D01*
X242596542Y-78249060D02*
X242596542Y-78820489D01*
X243239400Y-76749060D02*
X243310828Y-76891917D01*
X243310828Y-76891917D02*
X243310828Y-77177632D01*
X243310828Y-77177632D02*
X243239400Y-77320489D01*
X243239400Y-77320489D02*
X243096542Y-77391917D01*
X243096542Y-77391917D02*
X242525114Y-77391917D01*
X242525114Y-77391917D02*
X242382257Y-77320489D01*
X242382257Y-77320489D02*
X242310828Y-77177632D01*
X242310828Y-77177632D02*
X242310828Y-76891917D01*
X242310828Y-76891917D02*
X242382257Y-76749060D01*
X242382257Y-76749060D02*
X242525114Y-76677632D01*
X242525114Y-76677632D02*
X242667971Y-76677632D01*
X242667971Y-76677632D02*
X242810828Y-77391917D01*
X243310828Y-76034775D02*
X242310828Y-76034775D01*
X242453685Y-76034775D02*
X242382257Y-75963346D01*
X242382257Y-75963346D02*
X242310828Y-75820489D01*
X242310828Y-75820489D02*
X242310828Y-75606203D01*
X242310828Y-75606203D02*
X242382257Y-75463346D01*
X242382257Y-75463346D02*
X242525114Y-75391918D01*
X242525114Y-75391918D02*
X243310828Y-75391918D01*
X242525114Y-75391918D02*
X242382257Y-75320489D01*
X242382257Y-75320489D02*
X242310828Y-75177632D01*
X242310828Y-75177632D02*
X242310828Y-74963346D01*
X242310828Y-74963346D02*
X242382257Y-74820489D01*
X242382257Y-74820489D02*
X242525114Y-74749060D01*
X242525114Y-74749060D02*
X243310828Y-74749060D01*
X243310828Y-73820489D02*
X243239400Y-73963346D01*
X243239400Y-73963346D02*
X243167971Y-74034775D01*
X243167971Y-74034775D02*
X243025114Y-74106203D01*
X243025114Y-74106203D02*
X242596542Y-74106203D01*
X242596542Y-74106203D02*
X242453685Y-74034775D01*
X242453685Y-74034775D02*
X242382257Y-73963346D01*
X242382257Y-73963346D02*
X242310828Y-73820489D01*
X242310828Y-73820489D02*
X242310828Y-73606203D01*
X242310828Y-73606203D02*
X242382257Y-73463346D01*
X242382257Y-73463346D02*
X242453685Y-73391918D01*
X242453685Y-73391918D02*
X242596542Y-73320489D01*
X242596542Y-73320489D02*
X243025114Y-73320489D01*
X243025114Y-73320489D02*
X243167971Y-73391918D01*
X243167971Y-73391918D02*
X243239400Y-73463346D01*
X243239400Y-73463346D02*
X243310828Y-73606203D01*
X243310828Y-73606203D02*
X243310828Y-73820489D01*
X242310828Y-72891917D02*
X242310828Y-72320489D01*
X241810828Y-72677632D02*
X243096542Y-72677632D01*
X243096542Y-72677632D02*
X243239400Y-72606203D01*
X243239400Y-72606203D02*
X243310828Y-72463346D01*
X243310828Y-72463346D02*
X243310828Y-72320489D01*
X243239400Y-71249060D02*
X243310828Y-71391917D01*
X243310828Y-71391917D02*
X243310828Y-71677632D01*
X243310828Y-71677632D02*
X243239400Y-71820489D01*
X243239400Y-71820489D02*
X243096542Y-71891917D01*
X243096542Y-71891917D02*
X242525114Y-71891917D01*
X242525114Y-71891917D02*
X242382257Y-71820489D01*
X242382257Y-71820489D02*
X242310828Y-71677632D01*
X242310828Y-71677632D02*
X242310828Y-71391917D01*
X242310828Y-71391917D02*
X242382257Y-71249060D01*
X242382257Y-71249060D02*
X242525114Y-71177632D01*
X242525114Y-71177632D02*
X242667971Y-71177632D01*
X242667971Y-71177632D02*
X242810828Y-71891917D01*
X242882257Y-69463346D02*
X242882257Y-68749061D01*
X243310828Y-69606203D02*
X241810828Y-69106203D01*
X241810828Y-69106203D02*
X243310828Y-68606203D01*
X243310828Y-68106204D02*
X242310828Y-68106204D01*
X242596542Y-68106204D02*
X242453685Y-68034775D01*
X242453685Y-68034775D02*
X242382257Y-67963347D01*
X242382257Y-67963347D02*
X242310828Y-67820489D01*
X242310828Y-67820489D02*
X242310828Y-67677632D01*
X243310828Y-67177633D02*
X242310828Y-67177633D01*
X242453685Y-67177633D02*
X242382257Y-67106204D01*
X242382257Y-67106204D02*
X242310828Y-66963347D01*
X242310828Y-66963347D02*
X242310828Y-66749061D01*
X242310828Y-66749061D02*
X242382257Y-66606204D01*
X242382257Y-66606204D02*
X242525114Y-66534776D01*
X242525114Y-66534776D02*
X243310828Y-66534776D01*
X242525114Y-66534776D02*
X242382257Y-66463347D01*
X242382257Y-66463347D02*
X242310828Y-66320490D01*
X242310828Y-66320490D02*
X242310828Y-66106204D01*
X242310828Y-66106204D02*
X242382257Y-65963347D01*
X242382257Y-65963347D02*
X242525114Y-65891918D01*
X242525114Y-65891918D02*
X243310828Y-65891918D01*
X243310828Y-65177633D02*
X242310828Y-65177633D01*
X241810828Y-65177633D02*
X241882257Y-65249061D01*
X241882257Y-65249061D02*
X241953685Y-65177633D01*
X241953685Y-65177633D02*
X241882257Y-65106204D01*
X241882257Y-65106204D02*
X241810828Y-65177633D01*
X241810828Y-65177633D02*
X241953685Y-65177633D01*
X242310828Y-64463347D02*
X243310828Y-64463347D01*
X242453685Y-64463347D02*
X242382257Y-64391918D01*
X242382257Y-64391918D02*
X242310828Y-64249061D01*
X242310828Y-64249061D02*
X242310828Y-64034775D01*
X242310828Y-64034775D02*
X242382257Y-63891918D01*
X242382257Y-63891918D02*
X242525114Y-63820490D01*
X242525114Y-63820490D02*
X243310828Y-63820490D01*
X242310828Y-62463347D02*
X243525114Y-62463347D01*
X243525114Y-62463347D02*
X243667971Y-62534775D01*
X243667971Y-62534775D02*
X243739400Y-62606204D01*
X243739400Y-62606204D02*
X243810828Y-62749061D01*
X243810828Y-62749061D02*
X243810828Y-62963347D01*
X243810828Y-62963347D02*
X243739400Y-63106204D01*
X243239400Y-62463347D02*
X243310828Y-62606204D01*
X243310828Y-62606204D02*
X243310828Y-62891918D01*
X243310828Y-62891918D02*
X243239400Y-63034775D01*
X243239400Y-63034775D02*
X243167971Y-63106204D01*
X243167971Y-63106204D02*
X243025114Y-63177632D01*
X243025114Y-63177632D02*
X242596542Y-63177632D01*
X242596542Y-63177632D02*
X242453685Y-63106204D01*
X242453685Y-63106204D02*
X242382257Y-63034775D01*
X242382257Y-63034775D02*
X242310828Y-62891918D01*
X242310828Y-62891918D02*
X242310828Y-62606204D01*
X242310828Y-62606204D02*
X242382257Y-62463347D01*
X245725828Y-78820489D02*
X244225828Y-78820489D01*
X244225828Y-78820489D02*
X245297257Y-78320489D01*
X245297257Y-78320489D02*
X244225828Y-77820489D01*
X244225828Y-77820489D02*
X245725828Y-77820489D01*
X245725828Y-76463346D02*
X244940114Y-76463346D01*
X244940114Y-76463346D02*
X244797257Y-76534774D01*
X244797257Y-76534774D02*
X244725828Y-76677631D01*
X244725828Y-76677631D02*
X244725828Y-76963346D01*
X244725828Y-76963346D02*
X244797257Y-77106203D01*
X245654400Y-76463346D02*
X245725828Y-76606203D01*
X245725828Y-76606203D02*
X245725828Y-76963346D01*
X245725828Y-76963346D02*
X245654400Y-77106203D01*
X245654400Y-77106203D02*
X245511542Y-77177631D01*
X245511542Y-77177631D02*
X245368685Y-77177631D01*
X245368685Y-77177631D02*
X245225828Y-77106203D01*
X245225828Y-77106203D02*
X245154400Y-76963346D01*
X245154400Y-76963346D02*
X245154400Y-76606203D01*
X245154400Y-76606203D02*
X245082971Y-76463346D01*
X244725828Y-75749060D02*
X245725828Y-75749060D01*
X244868685Y-75749060D02*
X244797257Y-75677631D01*
X244797257Y-75677631D02*
X244725828Y-75534774D01*
X244725828Y-75534774D02*
X244725828Y-75320488D01*
X244725828Y-75320488D02*
X244797257Y-75177631D01*
X244797257Y-75177631D02*
X244940114Y-75106203D01*
X244940114Y-75106203D02*
X245725828Y-75106203D01*
X245725828Y-73749060D02*
X244940114Y-73749060D01*
X244940114Y-73749060D02*
X244797257Y-73820488D01*
X244797257Y-73820488D02*
X244725828Y-73963345D01*
X244725828Y-73963345D02*
X244725828Y-74249060D01*
X244725828Y-74249060D02*
X244797257Y-74391917D01*
X245654400Y-73749060D02*
X245725828Y-73891917D01*
X245725828Y-73891917D02*
X245725828Y-74249060D01*
X245725828Y-74249060D02*
X245654400Y-74391917D01*
X245654400Y-74391917D02*
X245511542Y-74463345D01*
X245511542Y-74463345D02*
X245368685Y-74463345D01*
X245368685Y-74463345D02*
X245225828Y-74391917D01*
X245225828Y-74391917D02*
X245154400Y-74249060D01*
X245154400Y-74249060D02*
X245154400Y-73891917D01*
X245154400Y-73891917D02*
X245082971Y-73749060D01*
X244725828Y-73177631D02*
X245725828Y-72820488D01*
X245725828Y-72820488D02*
X244725828Y-72463345D01*
X244225828Y-70963345D02*
X244225828Y-70106203D01*
X245725828Y-70534774D02*
X244225828Y-70534774D01*
X245725828Y-69391917D02*
X245654400Y-69534774D01*
X245654400Y-69534774D02*
X245582971Y-69606203D01*
X245582971Y-69606203D02*
X245440114Y-69677631D01*
X245440114Y-69677631D02*
X245011542Y-69677631D01*
X245011542Y-69677631D02*
X244868685Y-69606203D01*
X244868685Y-69606203D02*
X244797257Y-69534774D01*
X244797257Y-69534774D02*
X244725828Y-69391917D01*
X244725828Y-69391917D02*
X244725828Y-69177631D01*
X244725828Y-69177631D02*
X244797257Y-69034774D01*
X244797257Y-69034774D02*
X244868685Y-68963346D01*
X244868685Y-68963346D02*
X245011542Y-68891917D01*
X245011542Y-68891917D02*
X245440114Y-68891917D01*
X245440114Y-68891917D02*
X245582971Y-68963346D01*
X245582971Y-68963346D02*
X245654400Y-69034774D01*
X245654400Y-69034774D02*
X245725828Y-69177631D01*
X245725828Y-69177631D02*
X245725828Y-69391917D01*
X245725828Y-68034774D02*
X245654400Y-68177631D01*
X245654400Y-68177631D02*
X245582971Y-68249060D01*
X245582971Y-68249060D02*
X245440114Y-68320488D01*
X245440114Y-68320488D02*
X245011542Y-68320488D01*
X245011542Y-68320488D02*
X244868685Y-68249060D01*
X244868685Y-68249060D02*
X244797257Y-68177631D01*
X244797257Y-68177631D02*
X244725828Y-68034774D01*
X244725828Y-68034774D02*
X244725828Y-67820488D01*
X244725828Y-67820488D02*
X244797257Y-67677631D01*
X244797257Y-67677631D02*
X244868685Y-67606203D01*
X244868685Y-67606203D02*
X245011542Y-67534774D01*
X245011542Y-67534774D02*
X245440114Y-67534774D01*
X245440114Y-67534774D02*
X245582971Y-67606203D01*
X245582971Y-67606203D02*
X245654400Y-67677631D01*
X245654400Y-67677631D02*
X245725828Y-67820488D01*
X245725828Y-67820488D02*
X245725828Y-68034774D01*
X245725828Y-66891917D02*
X244725828Y-66891917D01*
X245011542Y-66891917D02*
X244868685Y-66820488D01*
X244868685Y-66820488D02*
X244797257Y-66749060D01*
X244797257Y-66749060D02*
X244725828Y-66606202D01*
X244725828Y-66606202D02*
X244725828Y-66463345D01*
X246783685Y-78891917D02*
X246712257Y-78820489D01*
X246712257Y-78820489D02*
X246640828Y-78677632D01*
X246640828Y-78677632D02*
X246640828Y-78320489D01*
X246640828Y-78320489D02*
X246712257Y-78177632D01*
X246712257Y-78177632D02*
X246783685Y-78106203D01*
X246783685Y-78106203D02*
X246926542Y-78034774D01*
X246926542Y-78034774D02*
X247069400Y-78034774D01*
X247069400Y-78034774D02*
X247283685Y-78106203D01*
X247283685Y-78106203D02*
X248140828Y-78963346D01*
X248140828Y-78963346D02*
X248140828Y-78034774D01*
X246640828Y-77106203D02*
X246640828Y-76963346D01*
X246640828Y-76963346D02*
X246712257Y-76820489D01*
X246712257Y-76820489D02*
X246783685Y-76749061D01*
X246783685Y-76749061D02*
X246926542Y-76677632D01*
X246926542Y-76677632D02*
X247212257Y-76606203D01*
X247212257Y-76606203D02*
X247569400Y-76606203D01*
X247569400Y-76606203D02*
X247855114Y-76677632D01*
X247855114Y-76677632D02*
X247997971Y-76749061D01*
X247997971Y-76749061D02*
X248069400Y-76820489D01*
X248069400Y-76820489D02*
X248140828Y-76963346D01*
X248140828Y-76963346D02*
X248140828Y-77106203D01*
X248140828Y-77106203D02*
X248069400Y-77249061D01*
X248069400Y-77249061D02*
X247997971Y-77320489D01*
X247997971Y-77320489D02*
X247855114Y-77391918D01*
X247855114Y-77391918D02*
X247569400Y-77463346D01*
X247569400Y-77463346D02*
X247212257Y-77463346D01*
X247212257Y-77463346D02*
X246926542Y-77391918D01*
X246926542Y-77391918D02*
X246783685Y-77320489D01*
X246783685Y-77320489D02*
X246712257Y-77249061D01*
X246712257Y-77249061D02*
X246640828Y-77106203D01*
X246783685Y-76034775D02*
X246712257Y-75963347D01*
X246712257Y-75963347D02*
X246640828Y-75820490D01*
X246640828Y-75820490D02*
X246640828Y-75463347D01*
X246640828Y-75463347D02*
X246712257Y-75320490D01*
X246712257Y-75320490D02*
X246783685Y-75249061D01*
X246783685Y-75249061D02*
X246926542Y-75177632D01*
X246926542Y-75177632D02*
X247069400Y-75177632D01*
X247069400Y-75177632D02*
X247283685Y-75249061D01*
X247283685Y-75249061D02*
X248140828Y-76106204D01*
X248140828Y-76106204D02*
X248140828Y-75177632D01*
X247140828Y-73891919D02*
X248140828Y-73891919D01*
X246569400Y-74249061D02*
X247640828Y-74606204D01*
X247640828Y-74606204D02*
X247640828Y-73677633D01*
X247569400Y-73106205D02*
X247569400Y-71963348D01*
X246640828Y-70963347D02*
X246640828Y-70820490D01*
X246640828Y-70820490D02*
X246712257Y-70677633D01*
X246712257Y-70677633D02*
X246783685Y-70606205D01*
X246783685Y-70606205D02*
X246926542Y-70534776D01*
X246926542Y-70534776D02*
X247212257Y-70463347D01*
X247212257Y-70463347D02*
X247569400Y-70463347D01*
X247569400Y-70463347D02*
X247855114Y-70534776D01*
X247855114Y-70534776D02*
X247997971Y-70606205D01*
X247997971Y-70606205D02*
X248069400Y-70677633D01*
X248069400Y-70677633D02*
X248140828Y-70820490D01*
X248140828Y-70820490D02*
X248140828Y-70963347D01*
X248140828Y-70963347D02*
X248069400Y-71106205D01*
X248069400Y-71106205D02*
X247997971Y-71177633D01*
X247997971Y-71177633D02*
X247855114Y-71249062D01*
X247855114Y-71249062D02*
X247569400Y-71320490D01*
X247569400Y-71320490D02*
X247212257Y-71320490D01*
X247212257Y-71320490D02*
X246926542Y-71249062D01*
X246926542Y-71249062D02*
X246783685Y-71177633D01*
X246783685Y-71177633D02*
X246712257Y-71106205D01*
X246712257Y-71106205D02*
X246640828Y-70963347D01*
X246640828Y-69106205D02*
X246640828Y-69820491D01*
X246640828Y-69820491D02*
X247355114Y-69891919D01*
X247355114Y-69891919D02*
X247283685Y-69820491D01*
X247283685Y-69820491D02*
X247212257Y-69677634D01*
X247212257Y-69677634D02*
X247212257Y-69320491D01*
X247212257Y-69320491D02*
X247283685Y-69177634D01*
X247283685Y-69177634D02*
X247355114Y-69106205D01*
X247355114Y-69106205D02*
X247497971Y-69034776D01*
X247497971Y-69034776D02*
X247855114Y-69034776D01*
X247855114Y-69034776D02*
X247997971Y-69106205D01*
X247997971Y-69106205D02*
X248069400Y-69177634D01*
X248069400Y-69177634D02*
X248140828Y-69320491D01*
X248140828Y-69320491D02*
X248140828Y-69677634D01*
X248140828Y-69677634D02*
X248069400Y-69820491D01*
X248069400Y-69820491D02*
X247997971Y-69891919D01*
X247569400Y-68391920D02*
X247569400Y-67249063D01*
X246783685Y-66606205D02*
X246712257Y-66534777D01*
X246712257Y-66534777D02*
X246640828Y-66391920D01*
X246640828Y-66391920D02*
X246640828Y-66034777D01*
X246640828Y-66034777D02*
X246712257Y-65891920D01*
X246712257Y-65891920D02*
X246783685Y-65820491D01*
X246783685Y-65820491D02*
X246926542Y-65749062D01*
X246926542Y-65749062D02*
X247069400Y-65749062D01*
X247069400Y-65749062D02*
X247283685Y-65820491D01*
X247283685Y-65820491D02*
X248140828Y-66677634D01*
X248140828Y-66677634D02*
X248140828Y-65749062D01*
X248140828Y-64320491D02*
X248140828Y-65177634D01*
X248140828Y-64749063D02*
X246640828Y-64749063D01*
X246640828Y-64749063D02*
X246855114Y-64891920D01*
X246855114Y-64891920D02*
X246997971Y-65034777D01*
X246997971Y-65034777D02*
X247069400Y-65177634D01*
X180531833Y-98122619D02*
X180531833Y-96187381D01*
X210146001Y-125725757D02*
X210860287Y-125725757D01*
X210003144Y-126154328D02*
X210503144Y-124654328D01*
X210503144Y-124654328D02*
X211003144Y-126154328D01*
X211717429Y-126154328D02*
X211574572Y-126082900D01*
X211574572Y-126082900D02*
X211503143Y-125940042D01*
X211503143Y-125940042D02*
X211503143Y-124654328D01*
X212074572Y-125154328D02*
X212646000Y-125154328D01*
X212288857Y-124654328D02*
X212288857Y-125940042D01*
X212288857Y-125940042D02*
X212360286Y-126082900D01*
X212360286Y-126082900D02*
X212503143Y-126154328D01*
X212503143Y-126154328D02*
X212646000Y-126154328D01*
X215074572Y-126154328D02*
X214217429Y-126154328D01*
X214646000Y-126154328D02*
X214646000Y-124654328D01*
X214646000Y-124654328D02*
X214503143Y-124868614D01*
X214503143Y-124868614D02*
X214360286Y-125011471D01*
X214360286Y-125011471D02*
X214217429Y-125082900D01*
X216860285Y-126154328D02*
X216860285Y-124654328D01*
X216860285Y-124654328D02*
X217431714Y-124654328D01*
X217431714Y-124654328D02*
X217574571Y-124725757D01*
X217574571Y-124725757D02*
X217646000Y-124797185D01*
X217646000Y-124797185D02*
X217717428Y-124940042D01*
X217717428Y-124940042D02*
X217717428Y-125154328D01*
X217717428Y-125154328D02*
X217646000Y-125297185D01*
X217646000Y-125297185D02*
X217574571Y-125368614D01*
X217574571Y-125368614D02*
X217431714Y-125440042D01*
X217431714Y-125440042D02*
X216860285Y-125440042D01*
X218217428Y-125154328D02*
X218574571Y-126154328D01*
X218931714Y-125154328D02*
X218574571Y-126154328D01*
X218574571Y-126154328D02*
X218431714Y-126511471D01*
X218431714Y-126511471D02*
X218360285Y-126582900D01*
X218360285Y-126582900D02*
X218217428Y-126654328D01*
X219503142Y-126154328D02*
X219503142Y-125154328D01*
X219503142Y-125440042D02*
X219574571Y-125297185D01*
X219574571Y-125297185D02*
X219646000Y-125225757D01*
X219646000Y-125225757D02*
X219788857Y-125154328D01*
X219788857Y-125154328D02*
X219931714Y-125154328D01*
X220645999Y-126154328D02*
X220503142Y-126082900D01*
X220503142Y-126082900D02*
X220431713Y-126011471D01*
X220431713Y-126011471D02*
X220360285Y-125868614D01*
X220360285Y-125868614D02*
X220360285Y-125440042D01*
X220360285Y-125440042D02*
X220431713Y-125297185D01*
X220431713Y-125297185D02*
X220503142Y-125225757D01*
X220503142Y-125225757D02*
X220645999Y-125154328D01*
X220645999Y-125154328D02*
X220860285Y-125154328D01*
X220860285Y-125154328D02*
X221003142Y-125225757D01*
X221003142Y-125225757D02*
X221074571Y-125297185D01*
X221074571Y-125297185D02*
X221145999Y-125440042D01*
X221145999Y-125440042D02*
X221145999Y-125868614D01*
X221145999Y-125868614D02*
X221074571Y-126011471D01*
X221074571Y-126011471D02*
X221003142Y-126082900D01*
X221003142Y-126082900D02*
X220860285Y-126154328D01*
X220860285Y-126154328D02*
X220645999Y-126154328D01*
D11*
X229520761Y-85333557D02*
X229425523Y-85285938D01*
X229425523Y-85285938D02*
X229330285Y-85190700D01*
X229330285Y-85190700D02*
X229187428Y-85047842D01*
X229187428Y-85047842D02*
X229092190Y-85000223D01*
X229092190Y-85000223D02*
X228996952Y-85000223D01*
X229044571Y-85238319D02*
X228949333Y-85190700D01*
X228949333Y-85190700D02*
X228854095Y-85095461D01*
X228854095Y-85095461D02*
X228806476Y-84904985D01*
X228806476Y-84904985D02*
X228806476Y-84571652D01*
X228806476Y-84571652D02*
X228854095Y-84381176D01*
X228854095Y-84381176D02*
X228949333Y-84285938D01*
X228949333Y-84285938D02*
X229044571Y-84238319D01*
X229044571Y-84238319D02*
X229235047Y-84238319D01*
X229235047Y-84238319D02*
X229330285Y-84285938D01*
X229330285Y-84285938D02*
X229425523Y-84381176D01*
X229425523Y-84381176D02*
X229473142Y-84571652D01*
X229473142Y-84571652D02*
X229473142Y-84904985D01*
X229473142Y-84904985D02*
X229425523Y-85095461D01*
X229425523Y-85095461D02*
X229330285Y-85190700D01*
X229330285Y-85190700D02*
X229235047Y-85238319D01*
X229235047Y-85238319D02*
X229044571Y-85238319D01*
X230330285Y-84571652D02*
X230330285Y-85238319D01*
X230092190Y-84190700D02*
X229854095Y-84904985D01*
X229854095Y-84904985D02*
X230473142Y-84904985D01*
X233991726Y-81226819D02*
X233991726Y-80226819D01*
X233991726Y-80226819D02*
X234229821Y-80226819D01*
X234229821Y-80226819D02*
X234372678Y-80274438D01*
X234372678Y-80274438D02*
X234467916Y-80369676D01*
X234467916Y-80369676D02*
X234515535Y-80464914D01*
X234515535Y-80464914D02*
X234563154Y-80655390D01*
X234563154Y-80655390D02*
X234563154Y-80798247D01*
X234563154Y-80798247D02*
X234515535Y-80988723D01*
X234515535Y-80988723D02*
X234467916Y-81083961D01*
X234467916Y-81083961D02*
X234372678Y-81179200D01*
X234372678Y-81179200D02*
X234229821Y-81226819D01*
X234229821Y-81226819D02*
X233991726Y-81226819D01*
X234896488Y-80226819D02*
X235134583Y-81226819D01*
X235134583Y-81226819D02*
X235325059Y-80512533D01*
X235325059Y-80512533D02*
X235515535Y-81226819D01*
X235515535Y-81226819D02*
X235753631Y-80226819D01*
X236658392Y-81226819D02*
X236086964Y-81226819D01*
X236372678Y-81226819D02*
X236372678Y-80226819D01*
X236372678Y-80226819D02*
X236277440Y-80369676D01*
X236277440Y-80369676D02*
X236182202Y-80464914D01*
X236182202Y-80464914D02*
X236086964Y-80512533D01*
X207703009Y-75556952D02*
X207750628Y-75414095D01*
X207750628Y-75414095D02*
X207798247Y-75366476D01*
X207798247Y-75366476D02*
X207893485Y-75318857D01*
X207893485Y-75318857D02*
X208036342Y-75318857D01*
X208036342Y-75318857D02*
X208131580Y-75366476D01*
X208131580Y-75366476D02*
X208179200Y-75414095D01*
X208179200Y-75414095D02*
X208226819Y-75509333D01*
X208226819Y-75509333D02*
X208226819Y-75890285D01*
X208226819Y-75890285D02*
X207226819Y-75890285D01*
X207226819Y-75890285D02*
X207226819Y-75556952D01*
X207226819Y-75556952D02*
X207274438Y-75461714D01*
X207274438Y-75461714D02*
X207322057Y-75414095D01*
X207322057Y-75414095D02*
X207417295Y-75366476D01*
X207417295Y-75366476D02*
X207512533Y-75366476D01*
X207512533Y-75366476D02*
X207607771Y-75414095D01*
X207607771Y-75414095D02*
X207655390Y-75461714D01*
X207655390Y-75461714D02*
X207703009Y-75556952D01*
X207703009Y-75556952D02*
X207703009Y-75890285D01*
X207226819Y-74985523D02*
X207226819Y-74318857D01*
X207226819Y-74318857D02*
X208226819Y-74985523D01*
X208226819Y-74985523D02*
X208226819Y-74318857D01*
X208226819Y-73414095D02*
X208226819Y-73985523D01*
X208226819Y-73699809D02*
X207226819Y-73699809D01*
X207226819Y-73699809D02*
X207369676Y-73795047D01*
X207369676Y-73795047D02*
X207464914Y-73890285D01*
X207464914Y-73890285D02*
X207512533Y-73985523D01*
X217243866Y-70992951D02*
X217243866Y-70231047D01*
X217624819Y-70611999D02*
X216862914Y-70611999D01*
X229673583Y-74280819D02*
X229340250Y-73804628D01*
X229102155Y-74280819D02*
X229102155Y-73280819D01*
X229102155Y-73280819D02*
X229483107Y-73280819D01*
X229483107Y-73280819D02*
X229578345Y-73328438D01*
X229578345Y-73328438D02*
X229625964Y-73376057D01*
X229625964Y-73376057D02*
X229673583Y-73471295D01*
X229673583Y-73471295D02*
X229673583Y-73614152D01*
X229673583Y-73614152D02*
X229625964Y-73709390D01*
X229625964Y-73709390D02*
X229578345Y-73757009D01*
X229578345Y-73757009D02*
X229483107Y-73804628D01*
X229483107Y-73804628D02*
X229102155Y-73804628D01*
X230054536Y-73376057D02*
X230102155Y-73328438D01*
X230102155Y-73328438D02*
X230197393Y-73280819D01*
X230197393Y-73280819D02*
X230435488Y-73280819D01*
X230435488Y-73280819D02*
X230530726Y-73328438D01*
X230530726Y-73328438D02*
X230578345Y-73376057D01*
X230578345Y-73376057D02*
X230625964Y-73471295D01*
X230625964Y-73471295D02*
X230625964Y-73566533D01*
X230625964Y-73566533D02*
X230578345Y-73709390D01*
X230578345Y-73709390D02*
X230006917Y-74280819D01*
X230006917Y-74280819D02*
X230625964Y-74280819D01*
X192100580Y-91606666D02*
X192148200Y-91654285D01*
X192148200Y-91654285D02*
X192195819Y-91797142D01*
X192195819Y-91797142D02*
X192195819Y-91892380D01*
X192195819Y-91892380D02*
X192148200Y-92035237D01*
X192148200Y-92035237D02*
X192052961Y-92130475D01*
X192052961Y-92130475D02*
X191957723Y-92178094D01*
X191957723Y-92178094D02*
X191767247Y-92225713D01*
X191767247Y-92225713D02*
X191624390Y-92225713D01*
X191624390Y-92225713D02*
X191433914Y-92178094D01*
X191433914Y-92178094D02*
X191338676Y-92130475D01*
X191338676Y-92130475D02*
X191243438Y-92035237D01*
X191243438Y-92035237D02*
X191195819Y-91892380D01*
X191195819Y-91892380D02*
X191195819Y-91797142D01*
X191195819Y-91797142D02*
X191243438Y-91654285D01*
X191243438Y-91654285D02*
X191291057Y-91606666D01*
X191291057Y-91225713D02*
X191243438Y-91178094D01*
X191243438Y-91178094D02*
X191195819Y-91082856D01*
X191195819Y-91082856D02*
X191195819Y-90844761D01*
X191195819Y-90844761D02*
X191243438Y-90749523D01*
X191243438Y-90749523D02*
X191291057Y-90701904D01*
X191291057Y-90701904D02*
X191386295Y-90654285D01*
X191386295Y-90654285D02*
X191481533Y-90654285D01*
X191481533Y-90654285D02*
X191624390Y-90701904D01*
X191624390Y-90701904D02*
X192195819Y-91273332D01*
X192195819Y-91273332D02*
X192195819Y-90654285D01*
X196500809Y-86465628D02*
X196500809Y-86941819D01*
X196167476Y-85941819D02*
X196500809Y-86465628D01*
X196500809Y-86465628D02*
X196834142Y-85941819D01*
X197691285Y-86941819D02*
X197119857Y-86941819D01*
X197405571Y-86941819D02*
X197405571Y-85941819D01*
X197405571Y-85941819D02*
X197310333Y-86084676D01*
X197310333Y-86084676D02*
X197215095Y-86179914D01*
X197215095Y-86179914D02*
X197119857Y-86227533D01*
X191478819Y-60705904D02*
X192288342Y-60705904D01*
X192288342Y-60705904D02*
X192383580Y-60658285D01*
X192383580Y-60658285D02*
X192431200Y-60610666D01*
X192431200Y-60610666D02*
X192478819Y-60515428D01*
X192478819Y-60515428D02*
X192478819Y-60324952D01*
X192478819Y-60324952D02*
X192431200Y-60229714D01*
X192431200Y-60229714D02*
X192383580Y-60182095D01*
X192383580Y-60182095D02*
X192288342Y-60134476D01*
X192288342Y-60134476D02*
X191478819Y-60134476D01*
X191812152Y-59229714D02*
X192478819Y-59229714D01*
X191431200Y-59467809D02*
X192145485Y-59705904D01*
X192145485Y-59705904D02*
X192145485Y-59086857D01*
X236632761Y-69130057D02*
X236537523Y-69082438D01*
X236537523Y-69082438D02*
X236442285Y-68987200D01*
X236442285Y-68987200D02*
X236299428Y-68844342D01*
X236299428Y-68844342D02*
X236204190Y-68796723D01*
X236204190Y-68796723D02*
X236108952Y-68796723D01*
X236156571Y-69034819D02*
X236061333Y-68987200D01*
X236061333Y-68987200D02*
X235966095Y-68891961D01*
X235966095Y-68891961D02*
X235918476Y-68701485D01*
X235918476Y-68701485D02*
X235918476Y-68368152D01*
X235918476Y-68368152D02*
X235966095Y-68177676D01*
X235966095Y-68177676D02*
X236061333Y-68082438D01*
X236061333Y-68082438D02*
X236156571Y-68034819D01*
X236156571Y-68034819D02*
X236347047Y-68034819D01*
X236347047Y-68034819D02*
X236442285Y-68082438D01*
X236442285Y-68082438D02*
X236537523Y-68177676D01*
X236537523Y-68177676D02*
X236585142Y-68368152D01*
X236585142Y-68368152D02*
X236585142Y-68701485D01*
X236585142Y-68701485D02*
X236537523Y-68891961D01*
X236537523Y-68891961D02*
X236442285Y-68987200D01*
X236442285Y-68987200D02*
X236347047Y-69034819D01*
X236347047Y-69034819D02*
X236156571Y-69034819D01*
X237442285Y-68034819D02*
X237251809Y-68034819D01*
X237251809Y-68034819D02*
X237156571Y-68082438D01*
X237156571Y-68082438D02*
X237108952Y-68130057D01*
X237108952Y-68130057D02*
X237013714Y-68272914D01*
X237013714Y-68272914D02*
X236966095Y-68463390D01*
X236966095Y-68463390D02*
X236966095Y-68844342D01*
X236966095Y-68844342D02*
X237013714Y-68939580D01*
X237013714Y-68939580D02*
X237061333Y-68987200D01*
X237061333Y-68987200D02*
X237156571Y-69034819D01*
X237156571Y-69034819D02*
X237347047Y-69034819D01*
X237347047Y-69034819D02*
X237442285Y-68987200D01*
X237442285Y-68987200D02*
X237489904Y-68939580D01*
X237489904Y-68939580D02*
X237537523Y-68844342D01*
X237537523Y-68844342D02*
X237537523Y-68606247D01*
X237537523Y-68606247D02*
X237489904Y-68511009D01*
X237489904Y-68511009D02*
X237442285Y-68463390D01*
X237442285Y-68463390D02*
X237347047Y-68415771D01*
X237347047Y-68415771D02*
X237156571Y-68415771D01*
X237156571Y-68415771D02*
X237061333Y-68463390D01*
X237061333Y-68463390D02*
X237013714Y-68511009D01*
X237013714Y-68511009D02*
X236966095Y-68606247D01*
X207226819Y-59642333D02*
X207941104Y-59642333D01*
X207941104Y-59642333D02*
X208083961Y-59689952D01*
X208083961Y-59689952D02*
X208179200Y-59785190D01*
X208179200Y-59785190D02*
X208226819Y-59928047D01*
X208226819Y-59928047D02*
X208226819Y-60023285D01*
X207560152Y-58737571D02*
X208226819Y-58737571D01*
X207179200Y-58975666D02*
X207893485Y-59213761D01*
X207893485Y-59213761D02*
X207893485Y-58594714D01*
X222591333Y-74175580D02*
X222543714Y-74223200D01*
X222543714Y-74223200D02*
X222400857Y-74270819D01*
X222400857Y-74270819D02*
X222305619Y-74270819D01*
X222305619Y-74270819D02*
X222162762Y-74223200D01*
X222162762Y-74223200D02*
X222067524Y-74127961D01*
X222067524Y-74127961D02*
X222019905Y-74032723D01*
X222019905Y-74032723D02*
X221972286Y-73842247D01*
X221972286Y-73842247D02*
X221972286Y-73699390D01*
X221972286Y-73699390D02*
X222019905Y-73508914D01*
X222019905Y-73508914D02*
X222067524Y-73413676D01*
X222067524Y-73413676D02*
X222162762Y-73318438D01*
X222162762Y-73318438D02*
X222305619Y-73270819D01*
X222305619Y-73270819D02*
X222400857Y-73270819D01*
X222400857Y-73270819D02*
X222543714Y-73318438D01*
X222543714Y-73318438D02*
X222591333Y-73366057D01*
X223543714Y-74270819D02*
X222972286Y-74270819D01*
X223258000Y-74270819D02*
X223258000Y-73270819D01*
X223258000Y-73270819D02*
X223162762Y-73413676D01*
X223162762Y-73413676D02*
X223067524Y-73508914D01*
X223067524Y-73508914D02*
X222972286Y-73556533D01*
X242024819Y-103965333D02*
X242739104Y-103965333D01*
X242739104Y-103965333D02*
X242881961Y-104012952D01*
X242881961Y-104012952D02*
X242977200Y-104108190D01*
X242977200Y-104108190D02*
X243024819Y-104251047D01*
X243024819Y-104251047D02*
X243024819Y-104346285D01*
X242024819Y-103060571D02*
X242024819Y-103251047D01*
X242024819Y-103251047D02*
X242072438Y-103346285D01*
X242072438Y-103346285D02*
X242120057Y-103393904D01*
X242120057Y-103393904D02*
X242262914Y-103489142D01*
X242262914Y-103489142D02*
X242453390Y-103536761D01*
X242453390Y-103536761D02*
X242834342Y-103536761D01*
X242834342Y-103536761D02*
X242929580Y-103489142D01*
X242929580Y-103489142D02*
X242977200Y-103441523D01*
X242977200Y-103441523D02*
X243024819Y-103346285D01*
X243024819Y-103346285D02*
X243024819Y-103155809D01*
X243024819Y-103155809D02*
X242977200Y-103060571D01*
X242977200Y-103060571D02*
X242929580Y-103012952D01*
X242929580Y-103012952D02*
X242834342Y-102965333D01*
X242834342Y-102965333D02*
X242596247Y-102965333D01*
X242596247Y-102965333D02*
X242501009Y-103012952D01*
X242501009Y-103012952D02*
X242453390Y-103060571D01*
X242453390Y-103060571D02*
X242405771Y-103155809D01*
X242405771Y-103155809D02*
X242405771Y-103346285D01*
X242405771Y-103346285D02*
X242453390Y-103441523D01*
X242453390Y-103441523D02*
X242501009Y-103489142D01*
X242501009Y-103489142D02*
X242596247Y-103536761D01*
X193042019Y-101181533D02*
X193756304Y-101181533D01*
X193756304Y-101181533D02*
X193899161Y-101229152D01*
X193899161Y-101229152D02*
X193994400Y-101324390D01*
X193994400Y-101324390D02*
X194042019Y-101467247D01*
X194042019Y-101467247D02*
X194042019Y-101562485D01*
X193042019Y-100800580D02*
X193042019Y-100181533D01*
X193042019Y-100181533D02*
X193422971Y-100514866D01*
X193422971Y-100514866D02*
X193422971Y-100372009D01*
X193422971Y-100372009D02*
X193470590Y-100276771D01*
X193470590Y-100276771D02*
X193518209Y-100229152D01*
X193518209Y-100229152D02*
X193613447Y-100181533D01*
X193613447Y-100181533D02*
X193851542Y-100181533D01*
X193851542Y-100181533D02*
X193946780Y-100229152D01*
X193946780Y-100229152D02*
X193994400Y-100276771D01*
X193994400Y-100276771D02*
X194042019Y-100372009D01*
X194042019Y-100372009D02*
X194042019Y-100657723D01*
X194042019Y-100657723D02*
X193994400Y-100752961D01*
X193994400Y-100752961D02*
X193946780Y-100800580D01*
X192748819Y-76787333D02*
X193463104Y-76787333D01*
X193463104Y-76787333D02*
X193605961Y-76834952D01*
X193605961Y-76834952D02*
X193701200Y-76930190D01*
X193701200Y-76930190D02*
X193748819Y-77073047D01*
X193748819Y-77073047D02*
X193748819Y-77168285D01*
X192844057Y-76358761D02*
X192796438Y-76311142D01*
X192796438Y-76311142D02*
X192748819Y-76215904D01*
X192748819Y-76215904D02*
X192748819Y-75977809D01*
X192748819Y-75977809D02*
X192796438Y-75882571D01*
X192796438Y-75882571D02*
X192844057Y-75834952D01*
X192844057Y-75834952D02*
X192939295Y-75787333D01*
X192939295Y-75787333D02*
X193034533Y-75787333D01*
X193034533Y-75787333D02*
X193177390Y-75834952D01*
X193177390Y-75834952D02*
X193748819Y-76406380D01*
X193748819Y-76406380D02*
X193748819Y-75787333D01*
X223170761Y-81195057D02*
X223075523Y-81147438D01*
X223075523Y-81147438D02*
X222980285Y-81052200D01*
X222980285Y-81052200D02*
X222837428Y-80909342D01*
X222837428Y-80909342D02*
X222742190Y-80861723D01*
X222742190Y-80861723D02*
X222646952Y-80861723D01*
X222694571Y-81099819D02*
X222599333Y-81052200D01*
X222599333Y-81052200D02*
X222504095Y-80956961D01*
X222504095Y-80956961D02*
X222456476Y-80766485D01*
X222456476Y-80766485D02*
X222456476Y-80433152D01*
X222456476Y-80433152D02*
X222504095Y-80242676D01*
X222504095Y-80242676D02*
X222599333Y-80147438D01*
X222599333Y-80147438D02*
X222694571Y-80099819D01*
X222694571Y-80099819D02*
X222885047Y-80099819D01*
X222885047Y-80099819D02*
X222980285Y-80147438D01*
X222980285Y-80147438D02*
X223075523Y-80242676D01*
X223075523Y-80242676D02*
X223123142Y-80433152D01*
X223123142Y-80433152D02*
X223123142Y-80766485D01*
X223123142Y-80766485D02*
X223075523Y-80956961D01*
X223075523Y-80956961D02*
X222980285Y-81052200D01*
X222980285Y-81052200D02*
X222885047Y-81099819D01*
X222885047Y-81099819D02*
X222694571Y-81099819D01*
X223456476Y-80099819D02*
X224075523Y-80099819D01*
X224075523Y-80099819D02*
X223742190Y-80480771D01*
X223742190Y-80480771D02*
X223885047Y-80480771D01*
X223885047Y-80480771D02*
X223980285Y-80528390D01*
X223980285Y-80528390D02*
X224027904Y-80576009D01*
X224027904Y-80576009D02*
X224075523Y-80671247D01*
X224075523Y-80671247D02*
X224075523Y-80909342D01*
X224075523Y-80909342D02*
X224027904Y-81004580D01*
X224027904Y-81004580D02*
X223980285Y-81052200D01*
X223980285Y-81052200D02*
X223885047Y-81099819D01*
X223885047Y-81099819D02*
X223599333Y-81099819D01*
X223599333Y-81099819D02*
X223504095Y-81052200D01*
X223504095Y-81052200D02*
X223456476Y-81004580D01*
X219701819Y-67182904D02*
X220511342Y-67182904D01*
X220511342Y-67182904D02*
X220606580Y-67135285D01*
X220606580Y-67135285D02*
X220654200Y-67087666D01*
X220654200Y-67087666D02*
X220701819Y-66992428D01*
X220701819Y-66992428D02*
X220701819Y-66801952D01*
X220701819Y-66801952D02*
X220654200Y-66706714D01*
X220654200Y-66706714D02*
X220606580Y-66659095D01*
X220606580Y-66659095D02*
X220511342Y-66611476D01*
X220511342Y-66611476D02*
X219701819Y-66611476D01*
X220701819Y-65611476D02*
X220701819Y-66182904D01*
X220701819Y-65897190D02*
X219701819Y-65897190D01*
X219701819Y-65897190D02*
X219844676Y-65992428D01*
X219844676Y-65992428D02*
X219939914Y-66087666D01*
X219939914Y-66087666D02*
X219987533Y-66182904D01*
X207365095Y-80467819D02*
X207365095Y-81277342D01*
X207365095Y-81277342D02*
X207412714Y-81372580D01*
X207412714Y-81372580D02*
X207460333Y-81420200D01*
X207460333Y-81420200D02*
X207555571Y-81467819D01*
X207555571Y-81467819D02*
X207746047Y-81467819D01*
X207746047Y-81467819D02*
X207841285Y-81420200D01*
X207841285Y-81420200D02*
X207888904Y-81372580D01*
X207888904Y-81372580D02*
X207936523Y-81277342D01*
X207936523Y-81277342D02*
X207936523Y-80467819D01*
X208365095Y-80563057D02*
X208412714Y-80515438D01*
X208412714Y-80515438D02*
X208507952Y-80467819D01*
X208507952Y-80467819D02*
X208746047Y-80467819D01*
X208746047Y-80467819D02*
X208841285Y-80515438D01*
X208841285Y-80515438D02*
X208888904Y-80563057D01*
X208888904Y-80563057D02*
X208936523Y-80658295D01*
X208936523Y-80658295D02*
X208936523Y-80753533D01*
X208936523Y-80753533D02*
X208888904Y-80896390D01*
X208888904Y-80896390D02*
X208317476Y-81467819D01*
X208317476Y-81467819D02*
X208936523Y-81467819D01*
X229734761Y-96628057D02*
X229639523Y-96580438D01*
X229639523Y-96580438D02*
X229544285Y-96485200D01*
X229544285Y-96485200D02*
X229401428Y-96342342D01*
X229401428Y-96342342D02*
X229306190Y-96294723D01*
X229306190Y-96294723D02*
X229210952Y-96294723D01*
X229258571Y-96532819D02*
X229163333Y-96485200D01*
X229163333Y-96485200D02*
X229068095Y-96389961D01*
X229068095Y-96389961D02*
X229020476Y-96199485D01*
X229020476Y-96199485D02*
X229020476Y-95866152D01*
X229020476Y-95866152D02*
X229068095Y-95675676D01*
X229068095Y-95675676D02*
X229163333Y-95580438D01*
X229163333Y-95580438D02*
X229258571Y-95532819D01*
X229258571Y-95532819D02*
X229449047Y-95532819D01*
X229449047Y-95532819D02*
X229544285Y-95580438D01*
X229544285Y-95580438D02*
X229639523Y-95675676D01*
X229639523Y-95675676D02*
X229687142Y-95866152D01*
X229687142Y-95866152D02*
X229687142Y-96199485D01*
X229687142Y-96199485D02*
X229639523Y-96389961D01*
X229639523Y-96389961D02*
X229544285Y-96485200D01*
X229544285Y-96485200D02*
X229449047Y-96532819D01*
X229449047Y-96532819D02*
X229258571Y-96532819D01*
X230591904Y-95532819D02*
X230115714Y-95532819D01*
X230115714Y-95532819D02*
X230068095Y-96009009D01*
X230068095Y-96009009D02*
X230115714Y-95961390D01*
X230115714Y-95961390D02*
X230210952Y-95913771D01*
X230210952Y-95913771D02*
X230449047Y-95913771D01*
X230449047Y-95913771D02*
X230544285Y-95961390D01*
X230544285Y-95961390D02*
X230591904Y-96009009D01*
X230591904Y-96009009D02*
X230639523Y-96104247D01*
X230639523Y-96104247D02*
X230639523Y-96342342D01*
X230639523Y-96342342D02*
X230591904Y-96437580D01*
X230591904Y-96437580D02*
X230544285Y-96485200D01*
X230544285Y-96485200D02*
X230449047Y-96532819D01*
X230449047Y-96532819D02*
X230210952Y-96532819D01*
X230210952Y-96532819D02*
X230115714Y-96485200D01*
X230115714Y-96485200D02*
X230068095Y-96437580D01*
X217910580Y-94146666D02*
X217958200Y-94194285D01*
X217958200Y-94194285D02*
X218005819Y-94337142D01*
X218005819Y-94337142D02*
X218005819Y-94432380D01*
X218005819Y-94432380D02*
X217958200Y-94575237D01*
X217958200Y-94575237D02*
X217862961Y-94670475D01*
X217862961Y-94670475D02*
X217767723Y-94718094D01*
X217767723Y-94718094D02*
X217577247Y-94765713D01*
X217577247Y-94765713D02*
X217434390Y-94765713D01*
X217434390Y-94765713D02*
X217243914Y-94718094D01*
X217243914Y-94718094D02*
X217148676Y-94670475D01*
X217148676Y-94670475D02*
X217053438Y-94575237D01*
X217053438Y-94575237D02*
X217005819Y-94432380D01*
X217005819Y-94432380D02*
X217005819Y-94337142D01*
X217005819Y-94337142D02*
X217053438Y-94194285D01*
X217053438Y-94194285D02*
X217101057Y-94146666D01*
X217339152Y-93289523D02*
X218005819Y-93289523D01*
X216958200Y-93527618D02*
X217672485Y-93765713D01*
X217672485Y-93765713D02*
X217672485Y-93146666D01*
X233936155Y-73818819D02*
X233936155Y-72818819D01*
X233936155Y-72818819D02*
X234174250Y-72818819D01*
X234174250Y-72818819D02*
X234317107Y-72866438D01*
X234317107Y-72866438D02*
X234412345Y-72961676D01*
X234412345Y-72961676D02*
X234459964Y-73056914D01*
X234459964Y-73056914D02*
X234507583Y-73247390D01*
X234507583Y-73247390D02*
X234507583Y-73390247D01*
X234507583Y-73390247D02*
X234459964Y-73580723D01*
X234459964Y-73580723D02*
X234412345Y-73675961D01*
X234412345Y-73675961D02*
X234317107Y-73771200D01*
X234317107Y-73771200D02*
X234174250Y-73818819D01*
X234174250Y-73818819D02*
X233936155Y-73818819D01*
X235507583Y-73818819D02*
X235174250Y-73342628D01*
X234936155Y-73818819D02*
X234936155Y-72818819D01*
X234936155Y-72818819D02*
X235317107Y-72818819D01*
X235317107Y-72818819D02*
X235412345Y-72866438D01*
X235412345Y-72866438D02*
X235459964Y-72914057D01*
X235459964Y-72914057D02*
X235507583Y-73009295D01*
X235507583Y-73009295D02*
X235507583Y-73152152D01*
X235507583Y-73152152D02*
X235459964Y-73247390D01*
X235459964Y-73247390D02*
X235412345Y-73295009D01*
X235412345Y-73295009D02*
X235317107Y-73342628D01*
X235317107Y-73342628D02*
X234936155Y-73342628D01*
X236459964Y-73818819D02*
X235888536Y-73818819D01*
X236174250Y-73818819D02*
X236174250Y-72818819D01*
X236174250Y-72818819D02*
X236079012Y-72961676D01*
X236079012Y-72961676D02*
X235983774Y-73056914D01*
X235983774Y-73056914D02*
X235888536Y-73104533D01*
X229520333Y-78051819D02*
X229187000Y-77575628D01*
X228948905Y-78051819D02*
X228948905Y-77051819D01*
X228948905Y-77051819D02*
X229329857Y-77051819D01*
X229329857Y-77051819D02*
X229425095Y-77099438D01*
X229425095Y-77099438D02*
X229472714Y-77147057D01*
X229472714Y-77147057D02*
X229520333Y-77242295D01*
X229520333Y-77242295D02*
X229520333Y-77385152D01*
X229520333Y-77385152D02*
X229472714Y-77480390D01*
X229472714Y-77480390D02*
X229425095Y-77528009D01*
X229425095Y-77528009D02*
X229329857Y-77575628D01*
X229329857Y-77575628D02*
X228948905Y-77575628D01*
X229853667Y-77051819D02*
X230472714Y-77051819D01*
X230472714Y-77051819D02*
X230139381Y-77432771D01*
X230139381Y-77432771D02*
X230282238Y-77432771D01*
X230282238Y-77432771D02*
X230377476Y-77480390D01*
X230377476Y-77480390D02*
X230425095Y-77528009D01*
X230425095Y-77528009D02*
X230472714Y-77623247D01*
X230472714Y-77623247D02*
X230472714Y-77861342D01*
X230472714Y-77861342D02*
X230425095Y-77956580D01*
X230425095Y-77956580D02*
X230377476Y-78004200D01*
X230377476Y-78004200D02*
X230282238Y-78051819D01*
X230282238Y-78051819D02*
X229996524Y-78051819D01*
X229996524Y-78051819D02*
X229901286Y-78004200D01*
X229901286Y-78004200D02*
X229853667Y-77956580D01*
X198882095Y-107404819D02*
X198882095Y-108214342D01*
X198882095Y-108214342D02*
X198929714Y-108309580D01*
X198929714Y-108309580D02*
X198977333Y-108357200D01*
X198977333Y-108357200D02*
X199072571Y-108404819D01*
X199072571Y-108404819D02*
X199263047Y-108404819D01*
X199263047Y-108404819D02*
X199358285Y-108357200D01*
X199358285Y-108357200D02*
X199405904Y-108309580D01*
X199405904Y-108309580D02*
X199453523Y-108214342D01*
X199453523Y-108214342D02*
X199453523Y-107404819D01*
X200405904Y-107404819D02*
X199929714Y-107404819D01*
X199929714Y-107404819D02*
X199882095Y-107881009D01*
X199882095Y-107881009D02*
X199929714Y-107833390D01*
X199929714Y-107833390D02*
X200024952Y-107785771D01*
X200024952Y-107785771D02*
X200263047Y-107785771D01*
X200263047Y-107785771D02*
X200358285Y-107833390D01*
X200358285Y-107833390D02*
X200405904Y-107881009D01*
X200405904Y-107881009D02*
X200453523Y-107976247D01*
X200453523Y-107976247D02*
X200453523Y-108214342D01*
X200453523Y-108214342D02*
X200405904Y-108309580D01*
X200405904Y-108309580D02*
X200358285Y-108357200D01*
X200358285Y-108357200D02*
X200263047Y-108404819D01*
X200263047Y-108404819D02*
X200024952Y-108404819D01*
X200024952Y-108404819D02*
X199929714Y-108357200D01*
X199929714Y-108357200D02*
X199882095Y-108309580D01*
X224887009Y-111380952D02*
X224934628Y-111238095D01*
X224934628Y-111238095D02*
X224982247Y-111190476D01*
X224982247Y-111190476D02*
X225077485Y-111142857D01*
X225077485Y-111142857D02*
X225220342Y-111142857D01*
X225220342Y-111142857D02*
X225315580Y-111190476D01*
X225315580Y-111190476D02*
X225363200Y-111238095D01*
X225363200Y-111238095D02*
X225410819Y-111333333D01*
X225410819Y-111333333D02*
X225410819Y-111714285D01*
X225410819Y-111714285D02*
X224410819Y-111714285D01*
X224410819Y-111714285D02*
X224410819Y-111380952D01*
X224410819Y-111380952D02*
X224458438Y-111285714D01*
X224458438Y-111285714D02*
X224506057Y-111238095D01*
X224506057Y-111238095D02*
X224601295Y-111190476D01*
X224601295Y-111190476D02*
X224696533Y-111190476D01*
X224696533Y-111190476D02*
X224791771Y-111238095D01*
X224791771Y-111238095D02*
X224839390Y-111285714D01*
X224839390Y-111285714D02*
X224887009Y-111380952D01*
X224887009Y-111380952D02*
X224887009Y-111714285D01*
X224410819Y-110809523D02*
X224410819Y-110142857D01*
X224410819Y-110142857D02*
X225410819Y-110809523D01*
X225410819Y-110809523D02*
X225410819Y-110142857D01*
X224410819Y-109857142D02*
X224410819Y-109238095D01*
X224410819Y-109238095D02*
X224791771Y-109571428D01*
X224791771Y-109571428D02*
X224791771Y-109428571D01*
X224791771Y-109428571D02*
X224839390Y-109333333D01*
X224839390Y-109333333D02*
X224887009Y-109285714D01*
X224887009Y-109285714D02*
X224982247Y-109238095D01*
X224982247Y-109238095D02*
X225220342Y-109238095D01*
X225220342Y-109238095D02*
X225315580Y-109285714D01*
X225315580Y-109285714D02*
X225363200Y-109333333D01*
X225363200Y-109333333D02*
X225410819Y-109428571D01*
X225410819Y-109428571D02*
X225410819Y-109714285D01*
X225410819Y-109714285D02*
X225363200Y-109809523D01*
X225363200Y-109809523D02*
X225315580Y-109857142D01*
X229689866Y-114690951D02*
X229689866Y-113929047D01*
X230070819Y-114309999D02*
X229308914Y-114309999D01*
X189556819Y-95416666D02*
X189080628Y-95749999D01*
X189556819Y-95988094D02*
X188556819Y-95988094D01*
X188556819Y-95988094D02*
X188556819Y-95607142D01*
X188556819Y-95607142D02*
X188604438Y-95511904D01*
X188604438Y-95511904D02*
X188652057Y-95464285D01*
X188652057Y-95464285D02*
X188747295Y-95416666D01*
X188747295Y-95416666D02*
X188890152Y-95416666D01*
X188890152Y-95416666D02*
X188985390Y-95464285D01*
X188985390Y-95464285D02*
X189033009Y-95511904D01*
X189033009Y-95511904D02*
X189080628Y-95607142D01*
X189080628Y-95607142D02*
X189080628Y-95988094D01*
X189556819Y-94464285D02*
X189556819Y-95035713D01*
X189556819Y-94749999D02*
X188556819Y-94749999D01*
X188556819Y-94749999D02*
X188699676Y-94845237D01*
X188699676Y-94845237D02*
X188794914Y-94940475D01*
X188794914Y-94940475D02*
X188842533Y-95035713D01*
X220768057Y-95091238D02*
X220720438Y-95186476D01*
X220720438Y-95186476D02*
X220625200Y-95281714D01*
X220625200Y-95281714D02*
X220482342Y-95424571D01*
X220482342Y-95424571D02*
X220434723Y-95519809D01*
X220434723Y-95519809D02*
X220434723Y-95615047D01*
X220672819Y-95567428D02*
X220625200Y-95662666D01*
X220625200Y-95662666D02*
X220529961Y-95757904D01*
X220529961Y-95757904D02*
X220339485Y-95805523D01*
X220339485Y-95805523D02*
X220006152Y-95805523D01*
X220006152Y-95805523D02*
X219815676Y-95757904D01*
X219815676Y-95757904D02*
X219720438Y-95662666D01*
X219720438Y-95662666D02*
X219672819Y-95567428D01*
X219672819Y-95567428D02*
X219672819Y-95376952D01*
X219672819Y-95376952D02*
X219720438Y-95281714D01*
X219720438Y-95281714D02*
X219815676Y-95186476D01*
X219815676Y-95186476D02*
X220006152Y-95138857D01*
X220006152Y-95138857D02*
X220339485Y-95138857D01*
X220339485Y-95138857D02*
X220529961Y-95186476D01*
X220529961Y-95186476D02*
X220625200Y-95281714D01*
X220625200Y-95281714D02*
X220672819Y-95376952D01*
X220672819Y-95376952D02*
X220672819Y-95567428D01*
X219768057Y-94757904D02*
X219720438Y-94710285D01*
X219720438Y-94710285D02*
X219672819Y-94615047D01*
X219672819Y-94615047D02*
X219672819Y-94376952D01*
X219672819Y-94376952D02*
X219720438Y-94281714D01*
X219720438Y-94281714D02*
X219768057Y-94234095D01*
X219768057Y-94234095D02*
X219863295Y-94186476D01*
X219863295Y-94186476D02*
X219958533Y-94186476D01*
X219958533Y-94186476D02*
X220101390Y-94234095D01*
X220101390Y-94234095D02*
X220672819Y-94805523D01*
X220672819Y-94805523D02*
X220672819Y-94186476D01*
X228038819Y-70746857D02*
X227562628Y-71080190D01*
X228038819Y-71318285D02*
X227038819Y-71318285D01*
X227038819Y-71318285D02*
X227038819Y-70937333D01*
X227038819Y-70937333D02*
X227086438Y-70842095D01*
X227086438Y-70842095D02*
X227134057Y-70794476D01*
X227134057Y-70794476D02*
X227229295Y-70746857D01*
X227229295Y-70746857D02*
X227372152Y-70746857D01*
X227372152Y-70746857D02*
X227467390Y-70794476D01*
X227467390Y-70794476D02*
X227515009Y-70842095D01*
X227515009Y-70842095D02*
X227562628Y-70937333D01*
X227562628Y-70937333D02*
X227562628Y-71318285D01*
X227038819Y-70413523D02*
X227038819Y-69794476D01*
X227038819Y-69794476D02*
X227419771Y-70127809D01*
X227419771Y-70127809D02*
X227419771Y-69984952D01*
X227419771Y-69984952D02*
X227467390Y-69889714D01*
X227467390Y-69889714D02*
X227515009Y-69842095D01*
X227515009Y-69842095D02*
X227610247Y-69794476D01*
X227610247Y-69794476D02*
X227848342Y-69794476D01*
X227848342Y-69794476D02*
X227943580Y-69842095D01*
X227943580Y-69842095D02*
X227991200Y-69889714D01*
X227991200Y-69889714D02*
X228038819Y-69984952D01*
X228038819Y-69984952D02*
X228038819Y-70270666D01*
X228038819Y-70270666D02*
X227991200Y-70365904D01*
X227991200Y-70365904D02*
X227943580Y-70413523D01*
X227372152Y-68937333D02*
X228038819Y-68937333D01*
X226991200Y-69175428D02*
X227705485Y-69413523D01*
X227705485Y-69413523D02*
X227705485Y-68794476D01*
X231187666Y-118707819D02*
X231187666Y-119422104D01*
X231187666Y-119422104D02*
X231140047Y-119564961D01*
X231140047Y-119564961D02*
X231044809Y-119660200D01*
X231044809Y-119660200D02*
X230901952Y-119707819D01*
X230901952Y-119707819D02*
X230806714Y-119707819D01*
X231711476Y-119707819D02*
X231901952Y-119707819D01*
X231901952Y-119707819D02*
X231997190Y-119660200D01*
X231997190Y-119660200D02*
X232044809Y-119612580D01*
X232044809Y-119612580D02*
X232140047Y-119469723D01*
X232140047Y-119469723D02*
X232187666Y-119279247D01*
X232187666Y-119279247D02*
X232187666Y-118898295D01*
X232187666Y-118898295D02*
X232140047Y-118803057D01*
X232140047Y-118803057D02*
X232092428Y-118755438D01*
X232092428Y-118755438D02*
X231997190Y-118707819D01*
X231997190Y-118707819D02*
X231806714Y-118707819D01*
X231806714Y-118707819D02*
X231711476Y-118755438D01*
X231711476Y-118755438D02*
X231663857Y-118803057D01*
X231663857Y-118803057D02*
X231616238Y-118898295D01*
X231616238Y-118898295D02*
X231616238Y-119136390D01*
X231616238Y-119136390D02*
X231663857Y-119231628D01*
X231663857Y-119231628D02*
X231711476Y-119279247D01*
X231711476Y-119279247D02*
X231806714Y-119326866D01*
X231806714Y-119326866D02*
X231997190Y-119326866D01*
X231997190Y-119326866D02*
X232092428Y-119279247D01*
X232092428Y-119279247D02*
X232140047Y-119231628D01*
X232140047Y-119231628D02*
X232187666Y-119136390D01*
X226403819Y-60785333D02*
X227118104Y-60785333D01*
X227118104Y-60785333D02*
X227260961Y-60832952D01*
X227260961Y-60832952D02*
X227356200Y-60928190D01*
X227356200Y-60928190D02*
X227403819Y-61071047D01*
X227403819Y-61071047D02*
X227403819Y-61166285D01*
X226403819Y-60404380D02*
X226403819Y-59737714D01*
X226403819Y-59737714D02*
X227403819Y-60166285D01*
X208123009Y-111380952D02*
X208170628Y-111238095D01*
X208170628Y-111238095D02*
X208218247Y-111190476D01*
X208218247Y-111190476D02*
X208313485Y-111142857D01*
X208313485Y-111142857D02*
X208456342Y-111142857D01*
X208456342Y-111142857D02*
X208551580Y-111190476D01*
X208551580Y-111190476D02*
X208599200Y-111238095D01*
X208599200Y-111238095D02*
X208646819Y-111333333D01*
X208646819Y-111333333D02*
X208646819Y-111714285D01*
X208646819Y-111714285D02*
X207646819Y-111714285D01*
X207646819Y-111714285D02*
X207646819Y-111380952D01*
X207646819Y-111380952D02*
X207694438Y-111285714D01*
X207694438Y-111285714D02*
X207742057Y-111238095D01*
X207742057Y-111238095D02*
X207837295Y-111190476D01*
X207837295Y-111190476D02*
X207932533Y-111190476D01*
X207932533Y-111190476D02*
X208027771Y-111238095D01*
X208027771Y-111238095D02*
X208075390Y-111285714D01*
X208075390Y-111285714D02*
X208123009Y-111380952D01*
X208123009Y-111380952D02*
X208123009Y-111714285D01*
X207646819Y-110809523D02*
X207646819Y-110142857D01*
X207646819Y-110142857D02*
X208646819Y-110809523D01*
X208646819Y-110809523D02*
X208646819Y-110142857D01*
X207742057Y-109809523D02*
X207694438Y-109761904D01*
X207694438Y-109761904D02*
X207646819Y-109666666D01*
X207646819Y-109666666D02*
X207646819Y-109428571D01*
X207646819Y-109428571D02*
X207694438Y-109333333D01*
X207694438Y-109333333D02*
X207742057Y-109285714D01*
X207742057Y-109285714D02*
X207837295Y-109238095D01*
X207837295Y-109238095D02*
X207932533Y-109238095D01*
X207932533Y-109238095D02*
X208075390Y-109285714D01*
X208075390Y-109285714D02*
X208646819Y-109857142D01*
X208646819Y-109857142D02*
X208646819Y-109238095D01*
X212925866Y-114690951D02*
X212925866Y-113929047D01*
X213306819Y-114309999D02*
X212544914Y-114309999D01*
X233037142Y-66494819D02*
X232703809Y-66018628D01*
X232465714Y-66494819D02*
X232465714Y-65494819D01*
X232465714Y-65494819D02*
X232846666Y-65494819D01*
X232846666Y-65494819D02*
X232941904Y-65542438D01*
X232941904Y-65542438D02*
X232989523Y-65590057D01*
X232989523Y-65590057D02*
X233037142Y-65685295D01*
X233037142Y-65685295D02*
X233037142Y-65828152D01*
X233037142Y-65828152D02*
X232989523Y-65923390D01*
X232989523Y-65923390D02*
X232941904Y-65971009D01*
X232941904Y-65971009D02*
X232846666Y-66018628D01*
X232846666Y-66018628D02*
X232465714Y-66018628D01*
X233370476Y-65494819D02*
X233989523Y-65494819D01*
X233989523Y-65494819D02*
X233656190Y-65875771D01*
X233656190Y-65875771D02*
X233799047Y-65875771D01*
X233799047Y-65875771D02*
X233894285Y-65923390D01*
X233894285Y-65923390D02*
X233941904Y-65971009D01*
X233941904Y-65971009D02*
X233989523Y-66066247D01*
X233989523Y-66066247D02*
X233989523Y-66304342D01*
X233989523Y-66304342D02*
X233941904Y-66399580D01*
X233941904Y-66399580D02*
X233894285Y-66447200D01*
X233894285Y-66447200D02*
X233799047Y-66494819D01*
X233799047Y-66494819D02*
X233513333Y-66494819D01*
X233513333Y-66494819D02*
X233418095Y-66447200D01*
X233418095Y-66447200D02*
X233370476Y-66399580D01*
X234322857Y-65494819D02*
X234941904Y-65494819D01*
X234941904Y-65494819D02*
X234608571Y-65875771D01*
X234608571Y-65875771D02*
X234751428Y-65875771D01*
X234751428Y-65875771D02*
X234846666Y-65923390D01*
X234846666Y-65923390D02*
X234894285Y-65971009D01*
X234894285Y-65971009D02*
X234941904Y-66066247D01*
X234941904Y-66066247D02*
X234941904Y-66304342D01*
X234941904Y-66304342D02*
X234894285Y-66399580D01*
X234894285Y-66399580D02*
X234846666Y-66447200D01*
X234846666Y-66447200D02*
X234751428Y-66494819D01*
X234751428Y-66494819D02*
X234465714Y-66494819D01*
X234465714Y-66494819D02*
X234370476Y-66447200D01*
X234370476Y-66447200D02*
X234322857Y-66399580D01*
X229800583Y-81685819D02*
X229467250Y-81209628D01*
X229229155Y-81685819D02*
X229229155Y-80685819D01*
X229229155Y-80685819D02*
X229610107Y-80685819D01*
X229610107Y-80685819D02*
X229705345Y-80733438D01*
X229705345Y-80733438D02*
X229752964Y-80781057D01*
X229752964Y-80781057D02*
X229800583Y-80876295D01*
X229800583Y-80876295D02*
X229800583Y-81019152D01*
X229800583Y-81019152D02*
X229752964Y-81114390D01*
X229752964Y-81114390D02*
X229705345Y-81162009D01*
X229705345Y-81162009D02*
X229610107Y-81209628D01*
X229610107Y-81209628D02*
X229229155Y-81209628D01*
X230657726Y-81019152D02*
X230657726Y-81685819D01*
X230419631Y-80638200D02*
X230181536Y-81352485D01*
X230181536Y-81352485D02*
X230800583Y-81352485D01*
X214296666Y-118707819D02*
X214296666Y-119422104D01*
X214296666Y-119422104D02*
X214249047Y-119564961D01*
X214249047Y-119564961D02*
X214153809Y-119660200D01*
X214153809Y-119660200D02*
X214010952Y-119707819D01*
X214010952Y-119707819D02*
X213915714Y-119707819D01*
X214915714Y-119136390D02*
X214820476Y-119088771D01*
X214820476Y-119088771D02*
X214772857Y-119041152D01*
X214772857Y-119041152D02*
X214725238Y-118945914D01*
X214725238Y-118945914D02*
X214725238Y-118898295D01*
X214725238Y-118898295D02*
X214772857Y-118803057D01*
X214772857Y-118803057D02*
X214820476Y-118755438D01*
X214820476Y-118755438D02*
X214915714Y-118707819D01*
X214915714Y-118707819D02*
X215106190Y-118707819D01*
X215106190Y-118707819D02*
X215201428Y-118755438D01*
X215201428Y-118755438D02*
X215249047Y-118803057D01*
X215249047Y-118803057D02*
X215296666Y-118898295D01*
X215296666Y-118898295D02*
X215296666Y-118945914D01*
X215296666Y-118945914D02*
X215249047Y-119041152D01*
X215249047Y-119041152D02*
X215201428Y-119088771D01*
X215201428Y-119088771D02*
X215106190Y-119136390D01*
X215106190Y-119136390D02*
X214915714Y-119136390D01*
X214915714Y-119136390D02*
X214820476Y-119184009D01*
X214820476Y-119184009D02*
X214772857Y-119231628D01*
X214772857Y-119231628D02*
X214725238Y-119326866D01*
X214725238Y-119326866D02*
X214725238Y-119517342D01*
X214725238Y-119517342D02*
X214772857Y-119612580D01*
X214772857Y-119612580D02*
X214820476Y-119660200D01*
X214820476Y-119660200D02*
X214915714Y-119707819D01*
X214915714Y-119707819D02*
X215106190Y-119707819D01*
X215106190Y-119707819D02*
X215201428Y-119660200D01*
X215201428Y-119660200D02*
X215249047Y-119612580D01*
X215249047Y-119612580D02*
X215296666Y-119517342D01*
X215296666Y-119517342D02*
X215296666Y-119326866D01*
X215296666Y-119326866D02*
X215249047Y-119231628D01*
X215249047Y-119231628D02*
X215201428Y-119184009D01*
X215201428Y-119184009D02*
X215106190Y-119136390D01*
X192129580Y-96686666D02*
X192177200Y-96734285D01*
X192177200Y-96734285D02*
X192224819Y-96877142D01*
X192224819Y-96877142D02*
X192224819Y-96972380D01*
X192224819Y-96972380D02*
X192177200Y-97115237D01*
X192177200Y-97115237D02*
X192081961Y-97210475D01*
X192081961Y-97210475D02*
X191986723Y-97258094D01*
X191986723Y-97258094D02*
X191796247Y-97305713D01*
X191796247Y-97305713D02*
X191653390Y-97305713D01*
X191653390Y-97305713D02*
X191462914Y-97258094D01*
X191462914Y-97258094D02*
X191367676Y-97210475D01*
X191367676Y-97210475D02*
X191272438Y-97115237D01*
X191272438Y-97115237D02*
X191224819Y-96972380D01*
X191224819Y-96972380D02*
X191224819Y-96877142D01*
X191224819Y-96877142D02*
X191272438Y-96734285D01*
X191272438Y-96734285D02*
X191320057Y-96686666D01*
X191224819Y-96353332D02*
X191224819Y-95734285D01*
X191224819Y-95734285D02*
X191605771Y-96067618D01*
X191605771Y-96067618D02*
X191605771Y-95924761D01*
X191605771Y-95924761D02*
X191653390Y-95829523D01*
X191653390Y-95829523D02*
X191701009Y-95781904D01*
X191701009Y-95781904D02*
X191796247Y-95734285D01*
X191796247Y-95734285D02*
X192034342Y-95734285D01*
X192034342Y-95734285D02*
X192129580Y-95781904D01*
X192129580Y-95781904D02*
X192177200Y-95829523D01*
X192177200Y-95829523D02*
X192224819Y-95924761D01*
X192224819Y-95924761D02*
X192224819Y-96210475D01*
X192224819Y-96210475D02*
X192177200Y-96305713D01*
X192177200Y-96305713D02*
X192129580Y-96353332D01*
X242151819Y-88090333D02*
X242866104Y-88090333D01*
X242866104Y-88090333D02*
X243008961Y-88137952D01*
X243008961Y-88137952D02*
X243104200Y-88233190D01*
X243104200Y-88233190D02*
X243151819Y-88376047D01*
X243151819Y-88376047D02*
X243151819Y-88471285D01*
X242151819Y-87137952D02*
X242151819Y-87614142D01*
X242151819Y-87614142D02*
X242628009Y-87661761D01*
X242628009Y-87661761D02*
X242580390Y-87614142D01*
X242580390Y-87614142D02*
X242532771Y-87518904D01*
X242532771Y-87518904D02*
X242532771Y-87280809D01*
X242532771Y-87280809D02*
X242580390Y-87185571D01*
X242580390Y-87185571D02*
X242628009Y-87137952D01*
X242628009Y-87137952D02*
X242723247Y-87090333D01*
X242723247Y-87090333D02*
X242961342Y-87090333D01*
X242961342Y-87090333D02*
X243056580Y-87137952D01*
X243056580Y-87137952D02*
X243104200Y-87185571D01*
X243104200Y-87185571D02*
X243151819Y-87280809D01*
X243151819Y-87280809D02*
X243151819Y-87518904D01*
X243151819Y-87518904D02*
X243104200Y-87614142D01*
X243104200Y-87614142D02*
X243056580Y-87661761D01*
X234063155Y-77416819D02*
X234063155Y-76416819D01*
X234063155Y-76416819D02*
X234301250Y-76416819D01*
X234301250Y-76416819D02*
X234444107Y-76464438D01*
X234444107Y-76464438D02*
X234539345Y-76559676D01*
X234539345Y-76559676D02*
X234586964Y-76654914D01*
X234586964Y-76654914D02*
X234634583Y-76845390D01*
X234634583Y-76845390D02*
X234634583Y-76988247D01*
X234634583Y-76988247D02*
X234586964Y-77178723D01*
X234586964Y-77178723D02*
X234539345Y-77273961D01*
X234539345Y-77273961D02*
X234444107Y-77369200D01*
X234444107Y-77369200D02*
X234301250Y-77416819D01*
X234301250Y-77416819D02*
X234063155Y-77416819D01*
X235396488Y-76893009D02*
X235539345Y-76940628D01*
X235539345Y-76940628D02*
X235586964Y-76988247D01*
X235586964Y-76988247D02*
X235634583Y-77083485D01*
X235634583Y-77083485D02*
X235634583Y-77226342D01*
X235634583Y-77226342D02*
X235586964Y-77321580D01*
X235586964Y-77321580D02*
X235539345Y-77369200D01*
X235539345Y-77369200D02*
X235444107Y-77416819D01*
X235444107Y-77416819D02*
X235063155Y-77416819D01*
X235063155Y-77416819D02*
X235063155Y-76416819D01*
X235063155Y-76416819D02*
X235396488Y-76416819D01*
X235396488Y-76416819D02*
X235491726Y-76464438D01*
X235491726Y-76464438D02*
X235539345Y-76512057D01*
X235539345Y-76512057D02*
X235586964Y-76607295D01*
X235586964Y-76607295D02*
X235586964Y-76702533D01*
X235586964Y-76702533D02*
X235539345Y-76797771D01*
X235539345Y-76797771D02*
X235491726Y-76845390D01*
X235491726Y-76845390D02*
X235396488Y-76893009D01*
X235396488Y-76893009D02*
X235063155Y-76893009D01*
X236586964Y-77416819D02*
X236015536Y-77416819D01*
X236301250Y-77416819D02*
X236301250Y-76416819D01*
X236301250Y-76416819D02*
X236206012Y-76559676D01*
X236206012Y-76559676D02*
X236110774Y-76654914D01*
X236110774Y-76654914D02*
X236015536Y-76702533D01*
D12*
X237547604Y-92056748D02*
X237728611Y-92209768D01*
X237926790Y-92370267D01*
X238138920Y-92535993D01*
X238361782Y-92704694D01*
X238592156Y-92874121D01*
X238826821Y-93042021D01*
X239062558Y-93206143D01*
X239296146Y-93364236D01*
X239524366Y-93514048D01*
X239743997Y-93653328D01*
X239951819Y-93779826D01*
X240144613Y-93891289D01*
X240267873Y-93958616D01*
X240410245Y-94034199D01*
X240343515Y-94080111D01*
X240206790Y-94167633D01*
X240047444Y-94258323D01*
X239870174Y-94350001D01*
X239679674Y-94440486D01*
X239480642Y-94527596D01*
X239277774Y-94609151D01*
X239075765Y-94682969D01*
X238967028Y-94719385D01*
X238752960Y-94785051D01*
X238517794Y-94850778D01*
X238268211Y-94914911D01*
X238010896Y-94975791D01*
X237752531Y-95031763D01*
X237531394Y-95075308D01*
X237320527Y-95114742D01*
X237677531Y-95186393D01*
X238049304Y-95265574D01*
X238395580Y-95348986D01*
X238718476Y-95437380D01*
X239020112Y-95531506D01*
X239302606Y-95632115D01*
X239568077Y-95739957D01*
X239818644Y-95855782D01*
X240056427Y-95980340D01*
X240264377Y-96102463D01*
X240317208Y-96135713D01*
X240360711Y-96164137D01*
X240389711Y-96184286D01*
X240398978Y-96192108D01*
X240390278Y-96202439D01*
X240361679Y-96221669D01*
X240318318Y-96246527D01*
X240290697Y-96261075D01*
X240139968Y-96341970D01*
X239971122Y-96439218D01*
X239786990Y-96550842D01*
X239590403Y-96674868D01*
X239384194Y-96809319D01*
X239171193Y-96952219D01*
X238954232Y-97101592D01*
X238736144Y-97255462D01*
X238519758Y-97411853D01*
X238307908Y-97568789D01*
X238103425Y-97724294D01*
X237909139Y-97876392D01*
X237727884Y-98023107D01*
X237562489Y-98162463D01*
X237547604Y-98175334D01*
X237410784Y-98293935D01*
X237298166Y-98252588D01*
X237169271Y-98205192D01*
X237064236Y-98166369D01*
X236980748Y-98135217D01*
X236916495Y-98110831D01*
X236869164Y-98092307D01*
X236836443Y-98078741D01*
X236816020Y-98069229D01*
X236805582Y-98062867D01*
X236802809Y-98058936D01*
X236811801Y-98046756D01*
X236837689Y-98015673D01*
X236878841Y-97967561D01*
X236933626Y-97904290D01*
X237000411Y-97827733D01*
X237077565Y-97739761D01*
X237163455Y-97642245D01*
X237256451Y-97537058D01*
X237337924Y-97445198D01*
X237435381Y-97335273D01*
X237526924Y-97231627D01*
X237610945Y-97136108D01*
X237685835Y-97050564D01*
X237749983Y-96976844D01*
X237801780Y-96916796D01*
X237839618Y-96872268D01*
X237861887Y-96845110D01*
X237867383Y-96837072D01*
X237853018Y-96837551D01*
X237812887Y-96840541D01*
X237748932Y-96845867D01*
X237663093Y-96853350D01*
X237557309Y-96862814D01*
X237433522Y-96874083D01*
X237293672Y-96886979D01*
X237139699Y-96901325D01*
X236973543Y-96916946D01*
X236797146Y-96933663D01*
X236774517Y-96935823D01*
X236612447Y-96951300D01*
X236581226Y-96954294D01*
X236395262Y-96972037D01*
X236217220Y-96988825D01*
X236049045Y-97004486D01*
X235892685Y-97018848D01*
X235750086Y-97031738D01*
X235623195Y-97042984D01*
X235513958Y-97052414D01*
X235424322Y-97059856D01*
X235356233Y-97065138D01*
X235311639Y-97068087D01*
X235292484Y-97068531D01*
X235291907Y-97068354D01*
X235295256Y-97054029D01*
X235308663Y-97017125D01*
X235330948Y-96960528D01*
X235360932Y-96887125D01*
X235397435Y-96799803D01*
X235439277Y-96701450D01*
X235485278Y-96594952D01*
X235486236Y-96592751D01*
X235532540Y-96486229D01*
X235575138Y-96387989D01*
X235612797Y-96300895D01*
X235644284Y-96227808D01*
X235668366Y-96171590D01*
X235683809Y-96135103D01*
X235689382Y-96121210D01*
X235689384Y-96121182D01*
X235677521Y-96113831D01*
X235643206Y-96094081D01*
X235588344Y-96062996D01*
X235514843Y-96021646D01*
X235424612Y-95971096D01*
X235319557Y-95912414D01*
X235201586Y-95846667D01*
X235072607Y-95774921D01*
X234934526Y-95698245D01*
X234799132Y-95623178D01*
X234654212Y-95542703D01*
X234516622Y-95465937D01*
X234388271Y-95393968D01*
X234271072Y-95327884D01*
X234166933Y-95268774D01*
X234077764Y-95217725D01*
X234005476Y-95175826D01*
X233951978Y-95144165D01*
X233919182Y-95123831D01*
X233908933Y-95116041D01*
X233910338Y-95114992D01*
X235164424Y-95114992D01*
X235176775Y-95119461D01*
X235213420Y-95131470D01*
X235272072Y-95150297D01*
X235350444Y-95175218D01*
X235446248Y-95205511D01*
X235557199Y-95240452D01*
X235681009Y-95279318D01*
X235815391Y-95321386D01*
X235957739Y-95365834D01*
X236101217Y-95410598D01*
X236237064Y-95453019D01*
X236362901Y-95492353D01*
X236476353Y-95527854D01*
X236575042Y-95558777D01*
X236656590Y-95584378D01*
X236718621Y-95603913D01*
X236758757Y-95616635D01*
X236774517Y-95621761D01*
X236776002Y-95616675D01*
X236760940Y-95596224D01*
X236732527Y-95564665D01*
X236728611Y-95560581D01*
X236687626Y-95511345D01*
X236645615Y-95450164D01*
X236613857Y-95394397D01*
X236566687Y-95270176D01*
X236546548Y-95144078D01*
X236553020Y-95018854D01*
X236585685Y-94897257D01*
X236644125Y-94782039D01*
X236722106Y-94682096D01*
X236753838Y-94646477D01*
X236773248Y-94621193D01*
X236777247Y-94610417D01*
X236774973Y-94610639D01*
X236758234Y-94616007D01*
X236717302Y-94628907D01*
X236654562Y-94648593D01*
X236572396Y-94674319D01*
X236473191Y-94705341D01*
X236359328Y-94740912D01*
X236233193Y-94780287D01*
X236097169Y-94822720D01*
X235960781Y-94865241D01*
X235818200Y-94909706D01*
X235683742Y-94951685D01*
X235559722Y-94990454D01*
X235448456Y-95025287D01*
X235352256Y-95055458D01*
X235273438Y-95080240D01*
X235214316Y-95098909D01*
X235177205Y-95110738D01*
X235164424Y-95114992D01*
X233910338Y-95114992D01*
X233920810Y-95107172D01*
X233955138Y-95085969D01*
X234009988Y-95053534D01*
X234083430Y-95010966D01*
X234173537Y-94959366D01*
X234278380Y-94899834D01*
X234396029Y-94833470D01*
X234524556Y-94761374D01*
X234662033Y-94684648D01*
X234781787Y-94618106D01*
X234925733Y-94538262D01*
X235062789Y-94462205D01*
X235190976Y-94391035D01*
X235308311Y-94325853D01*
X235412816Y-94267762D01*
X235502509Y-94217862D01*
X235575410Y-94177255D01*
X235629539Y-94147041D01*
X235662916Y-94128322D01*
X235673394Y-94122333D01*
X235676201Y-94113886D01*
X235672900Y-94094181D01*
X235662702Y-94061174D01*
X235644817Y-94012820D01*
X235618456Y-93947077D01*
X235582831Y-93861898D01*
X235537152Y-93755240D01*
X235487770Y-93641435D01*
X235441519Y-93534542D01*
X235399396Y-93435735D01*
X235362580Y-93347891D01*
X235332250Y-93273887D01*
X235309585Y-93216602D01*
X235295763Y-93178914D01*
X235291964Y-93163699D01*
X235292034Y-93163601D01*
X235306846Y-93163640D01*
X235347416Y-93166210D01*
X235411798Y-93171141D01*
X235498044Y-93178258D01*
X235604209Y-93187390D01*
X235728346Y-93198365D01*
X235868509Y-93211010D01*
X236022751Y-93225152D01*
X236189127Y-93240620D01*
X236365690Y-93257240D01*
X236550493Y-93274841D01*
X236581226Y-93277788D01*
X236767115Y-93295559D01*
X236945027Y-93312436D01*
X237113020Y-93328242D01*
X237269154Y-93342802D01*
X237411488Y-93355937D01*
X237538082Y-93367472D01*
X237646995Y-93377231D01*
X237736285Y-93385035D01*
X237804013Y-93390709D01*
X237848238Y-93394077D01*
X237867019Y-93394960D01*
X237867538Y-93394855D01*
X237859621Y-93383697D01*
X237834773Y-93353625D01*
X237794605Y-93306487D01*
X237740726Y-93244133D01*
X237674745Y-93168409D01*
X237598272Y-93081165D01*
X237512918Y-92984249D01*
X237420291Y-92879510D01*
X237338079Y-92786878D01*
X237240387Y-92676784D01*
X237148446Y-92572801D01*
X237063890Y-92476800D01*
X236988352Y-92390652D01*
X236923465Y-92316231D01*
X236870861Y-92255406D01*
X236832174Y-92210051D01*
X236809035Y-92182036D01*
X236802809Y-92173294D01*
X236805925Y-92169045D01*
X236816816Y-92162516D01*
X236837795Y-92152802D01*
X236871177Y-92138998D01*
X236919276Y-92120199D01*
X236984404Y-92095499D01*
X237068877Y-92063994D01*
X237175007Y-92024778D01*
X237298166Y-91979494D01*
X237410784Y-91938147D01*
X237547604Y-92056748D01*
G36*
X237547604Y-92056748D02*
G01*
X237728611Y-92209768D01*
X237926790Y-92370267D01*
X238138920Y-92535993D01*
X238361782Y-92704694D01*
X238592156Y-92874121D01*
X238826821Y-93042021D01*
X239062558Y-93206143D01*
X239296146Y-93364236D01*
X239524366Y-93514048D01*
X239743997Y-93653328D01*
X239951819Y-93779826D01*
X240144613Y-93891289D01*
X240267873Y-93958616D01*
X240410245Y-94034199D01*
X240343515Y-94080111D01*
X240206790Y-94167633D01*
X240047444Y-94258323D01*
X239870174Y-94350001D01*
X239679674Y-94440486D01*
X239480642Y-94527596D01*
X239277774Y-94609151D01*
X239075765Y-94682969D01*
X238967028Y-94719385D01*
X238752960Y-94785051D01*
X238517794Y-94850778D01*
X238268211Y-94914911D01*
X238010896Y-94975791D01*
X237752531Y-95031763D01*
X237531394Y-95075308D01*
X237320527Y-95114742D01*
X237677531Y-95186393D01*
X238049304Y-95265574D01*
X238395580Y-95348986D01*
X238718476Y-95437380D01*
X239020112Y-95531506D01*
X239302606Y-95632115D01*
X239568077Y-95739957D01*
X239818644Y-95855782D01*
X240056427Y-95980340D01*
X240264377Y-96102463D01*
X240317208Y-96135713D01*
X240360711Y-96164137D01*
X240389711Y-96184286D01*
X240398978Y-96192108D01*
X240390278Y-96202439D01*
X240361679Y-96221669D01*
X240318318Y-96246527D01*
X240290697Y-96261075D01*
X240139968Y-96341970D01*
X239971122Y-96439218D01*
X239786990Y-96550842D01*
X239590403Y-96674868D01*
X239384194Y-96809319D01*
X239171193Y-96952219D01*
X238954232Y-97101592D01*
X238736144Y-97255462D01*
X238519758Y-97411853D01*
X238307908Y-97568789D01*
X238103425Y-97724294D01*
X237909139Y-97876392D01*
X237727884Y-98023107D01*
X237562489Y-98162463D01*
X237547604Y-98175334D01*
X237410784Y-98293935D01*
X237298166Y-98252588D01*
X237169271Y-98205192D01*
X237064236Y-98166369D01*
X236980748Y-98135217D01*
X236916495Y-98110831D01*
X236869164Y-98092307D01*
X236836443Y-98078741D01*
X236816020Y-98069229D01*
X236805582Y-98062867D01*
X236802809Y-98058936D01*
X236811801Y-98046756D01*
X236837689Y-98015673D01*
X236878841Y-97967561D01*
X236933626Y-97904290D01*
X237000411Y-97827733D01*
X237077565Y-97739761D01*
X237163455Y-97642245D01*
X237256451Y-97537058D01*
X237337924Y-97445198D01*
X237435381Y-97335273D01*
X237526924Y-97231627D01*
X237610945Y-97136108D01*
X237685835Y-97050564D01*
X237749983Y-96976844D01*
X237801780Y-96916796D01*
X237839618Y-96872268D01*
X237861887Y-96845110D01*
X237867383Y-96837072D01*
X237853018Y-96837551D01*
X237812887Y-96840541D01*
X237748932Y-96845867D01*
X237663093Y-96853350D01*
X237557309Y-96862814D01*
X237433522Y-96874083D01*
X237293672Y-96886979D01*
X237139699Y-96901325D01*
X236973543Y-96916946D01*
X236797146Y-96933663D01*
X236774517Y-96935823D01*
X236612447Y-96951300D01*
X236581226Y-96954294D01*
X236395262Y-96972037D01*
X236217220Y-96988825D01*
X236049045Y-97004486D01*
X235892685Y-97018848D01*
X235750086Y-97031738D01*
X235623195Y-97042984D01*
X235513958Y-97052414D01*
X235424322Y-97059856D01*
X235356233Y-97065138D01*
X235311639Y-97068087D01*
X235292484Y-97068531D01*
X235291907Y-97068354D01*
X235295256Y-97054029D01*
X235308663Y-97017125D01*
X235330948Y-96960528D01*
X235360932Y-96887125D01*
X235397435Y-96799803D01*
X235439277Y-96701450D01*
X235485278Y-96594952D01*
X235486236Y-96592751D01*
X235532540Y-96486229D01*
X235575138Y-96387989D01*
X235612797Y-96300895D01*
X235644284Y-96227808D01*
X235668366Y-96171590D01*
X235683809Y-96135103D01*
X235689382Y-96121210D01*
X235689384Y-96121182D01*
X235677521Y-96113831D01*
X235643206Y-96094081D01*
X235588344Y-96062996D01*
X235514843Y-96021646D01*
X235424612Y-95971096D01*
X235319557Y-95912414D01*
X235201586Y-95846667D01*
X235072607Y-95774921D01*
X234934526Y-95698245D01*
X234799132Y-95623178D01*
X234654212Y-95542703D01*
X234516622Y-95465937D01*
X234388271Y-95393968D01*
X234271072Y-95327884D01*
X234166933Y-95268774D01*
X234077764Y-95217725D01*
X234005476Y-95175826D01*
X233951978Y-95144165D01*
X233919182Y-95123831D01*
X233908933Y-95116041D01*
X233910338Y-95114992D01*
X235164424Y-95114992D01*
X235176775Y-95119461D01*
X235213420Y-95131470D01*
X235272072Y-95150297D01*
X235350444Y-95175218D01*
X235446248Y-95205511D01*
X235557199Y-95240452D01*
X235681009Y-95279318D01*
X235815391Y-95321386D01*
X235957739Y-95365834D01*
X236101217Y-95410598D01*
X236237064Y-95453019D01*
X236362901Y-95492353D01*
X236476353Y-95527854D01*
X236575042Y-95558777D01*
X236656590Y-95584378D01*
X236718621Y-95603913D01*
X236758757Y-95616635D01*
X236774517Y-95621761D01*
X236776002Y-95616675D01*
X236760940Y-95596224D01*
X236732527Y-95564665D01*
X236728611Y-95560581D01*
X236687626Y-95511345D01*
X236645615Y-95450164D01*
X236613857Y-95394397D01*
X236566687Y-95270176D01*
X236546548Y-95144078D01*
X236553020Y-95018854D01*
X236585685Y-94897257D01*
X236644125Y-94782039D01*
X236722106Y-94682096D01*
X236753838Y-94646477D01*
X236773248Y-94621193D01*
X236777247Y-94610417D01*
X236774973Y-94610639D01*
X236758234Y-94616007D01*
X236717302Y-94628907D01*
X236654562Y-94648593D01*
X236572396Y-94674319D01*
X236473191Y-94705341D01*
X236359328Y-94740912D01*
X236233193Y-94780287D01*
X236097169Y-94822720D01*
X235960781Y-94865241D01*
X235818200Y-94909706D01*
X235683742Y-94951685D01*
X235559722Y-94990454D01*
X235448456Y-95025287D01*
X235352256Y-95055458D01*
X235273438Y-95080240D01*
X235214316Y-95098909D01*
X235177205Y-95110738D01*
X235164424Y-95114992D01*
X233910338Y-95114992D01*
X233920810Y-95107172D01*
X233955138Y-95085969D01*
X234009988Y-95053534D01*
X234083430Y-95010966D01*
X234173537Y-94959366D01*
X234278380Y-94899834D01*
X234396029Y-94833470D01*
X234524556Y-94761374D01*
X234662033Y-94684648D01*
X234781787Y-94618106D01*
X234925733Y-94538262D01*
X235062789Y-94462205D01*
X235190976Y-94391035D01*
X235308311Y-94325853D01*
X235412816Y-94267762D01*
X235502509Y-94217862D01*
X235575410Y-94177255D01*
X235629539Y-94147041D01*
X235662916Y-94128322D01*
X235673394Y-94122333D01*
X235676201Y-94113886D01*
X235672900Y-94094181D01*
X235662702Y-94061174D01*
X235644817Y-94012820D01*
X235618456Y-93947077D01*
X235582831Y-93861898D01*
X235537152Y-93755240D01*
X235487770Y-93641435D01*
X235441519Y-93534542D01*
X235399396Y-93435735D01*
X235362580Y-93347891D01*
X235332250Y-93273887D01*
X235309585Y-93216602D01*
X235295763Y-93178914D01*
X235291964Y-93163699D01*
X235292034Y-93163601D01*
X235306846Y-93163640D01*
X235347416Y-93166210D01*
X235411798Y-93171141D01*
X235498044Y-93178258D01*
X235604209Y-93187390D01*
X235728346Y-93198365D01*
X235868509Y-93211010D01*
X236022751Y-93225152D01*
X236189127Y-93240620D01*
X236365690Y-93257240D01*
X236550493Y-93274841D01*
X236581226Y-93277788D01*
X236767115Y-93295559D01*
X236945027Y-93312436D01*
X237113020Y-93328242D01*
X237269154Y-93342802D01*
X237411488Y-93355937D01*
X237538082Y-93367472D01*
X237646995Y-93377231D01*
X237736285Y-93385035D01*
X237804013Y-93390709D01*
X237848238Y-93394077D01*
X237867019Y-93394960D01*
X237867538Y-93394855D01*
X237859621Y-93383697D01*
X237834773Y-93353625D01*
X237794605Y-93306487D01*
X237740726Y-93244133D01*
X237674745Y-93168409D01*
X237598272Y-93081165D01*
X237512918Y-92984249D01*
X237420291Y-92879510D01*
X237338079Y-92786878D01*
X237240387Y-92676784D01*
X237148446Y-92572801D01*
X237063890Y-92476800D01*
X236988352Y-92390652D01*
X236923465Y-92316231D01*
X236870861Y-92255406D01*
X236832174Y-92210051D01*
X236809035Y-92182036D01*
X236802809Y-92173294D01*
X236805925Y-92169045D01*
X236816816Y-92162516D01*
X236837795Y-92152802D01*
X236871177Y-92138998D01*
X236919276Y-92120199D01*
X236984404Y-92095499D01*
X237068877Y-92063994D01*
X237175007Y-92024778D01*
X237298166Y-91979494D01*
X237410784Y-91938147D01*
X237547604Y-92056748D01*
G37*
X239412622Y-90151851D02*
X239435694Y-90185182D01*
X239472075Y-90238995D01*
X239520826Y-90311867D01*
X239581007Y-90402377D01*
X239651680Y-90509101D01*
X239731904Y-90630617D01*
X239820740Y-90765503D01*
X239917249Y-90912337D01*
X240020492Y-91069695D01*
X240129528Y-91236155D01*
X240243419Y-91410296D01*
X240332030Y-91545962D01*
X240449004Y-91724982D01*
X240561882Y-91897400D01*
X240669720Y-92061790D01*
X240771575Y-92216729D01*
X240866504Y-92360795D01*
X240953564Y-92492564D01*
X241031813Y-92610613D01*
X241100307Y-92713519D01*
X241158102Y-92799857D01*
X241204257Y-92868205D01*
X241237828Y-92917140D01*
X241257872Y-92945238D01*
X241263466Y-92951782D01*
X241279370Y-92947767D01*
X241318896Y-92936190D01*
X241379145Y-92917946D01*
X241457218Y-92893927D01*
X241550218Y-92865027D01*
X241655245Y-92832140D01*
X241769400Y-92796159D01*
X241810334Y-92783203D01*
X241926683Y-92746627D01*
X242034715Y-92713219D01*
X242131568Y-92683824D01*
X242214382Y-92659284D01*
X242280297Y-92640443D01*
X242326452Y-92628144D01*
X242349987Y-92623230D01*
X242352362Y-92623421D01*
X242352074Y-92638269D01*
X242348633Y-92678778D01*
X242342262Y-92742977D01*
X242333180Y-92828896D01*
X242321609Y-92934567D01*
X242307769Y-93058018D01*
X242291882Y-93197279D01*
X242274167Y-93350382D01*
X242254847Y-93515355D01*
X242234142Y-93690229D01*
X242212273Y-93873034D01*
X242212124Y-93874271D01*
X242062808Y-95116041D01*
X242209411Y-96332364D01*
X242231254Y-96513959D01*
X242252114Y-96688083D01*
X242271748Y-96852692D01*
X242289919Y-97005745D01*
X242306387Y-97145197D01*
X242320911Y-97269006D01*
X242333251Y-97375130D01*
X242343169Y-97461524D01*
X242350423Y-97526146D01*
X242354775Y-97566953D01*
X242356014Y-97581488D01*
X242351837Y-97606686D01*
X242344463Y-97614288D01*
X242329076Y-97610212D01*
X242290068Y-97598584D01*
X242230338Y-97580304D01*
X242152788Y-97556273D01*
X242060316Y-97527389D01*
X241955824Y-97494554D01*
X241842210Y-97458666D01*
X241806261Y-97447274D01*
X241690287Y-97410615D01*
X241582408Y-97376743D01*
X241485546Y-97346559D01*
X241402627Y-97320965D01*
X241336575Y-97300861D01*
X241290316Y-97287149D01*
X241266773Y-97280730D01*
X241264579Y-97280361D01*
X241255202Y-97291803D01*
X241231590Y-97325154D01*
X241194688Y-97378993D01*
X241145439Y-97451894D01*
X241084787Y-97542435D01*
X241013679Y-97649194D01*
X240933056Y-97770747D01*
X240843865Y-97905671D01*
X240747049Y-98052543D01*
X240643552Y-98209940D01*
X240534319Y-98376438D01*
X240420295Y-98550616D01*
X240331790Y-98686059D01*
X240214835Y-98865051D01*
X240102031Y-99037438D01*
X239994315Y-99201797D01*
X239892627Y-99356705D01*
X239797907Y-99500741D01*
X239711094Y-99632483D01*
X239633127Y-99750508D01*
X239564944Y-99853394D01*
X239507487Y-99939718D01*
X239461692Y-100008059D01*
X239428501Y-100056994D01*
X239408852Y-100085101D01*
X239403559Y-100091657D01*
X239394112Y-100080049D01*
X239373074Y-100047407D01*
X239342414Y-99997011D01*
X239304099Y-99932137D01*
X239260097Y-99856064D01*
X239223633Y-99792012D01*
X239167812Y-99694185D01*
X239123567Y-99618823D01*
X239089486Y-99563774D01*
X239064155Y-99526886D01*
X239046163Y-99506006D01*
X239034095Y-99498980D01*
X239031481Y-99499233D01*
X239006447Y-99506168D01*
X238958491Y-99518853D01*
X238890374Y-99536587D01*
X238804855Y-99558670D01*
X238704697Y-99584402D01*
X238592658Y-99613082D01*
X238471500Y-99644011D01*
X238343983Y-99676488D01*
X238212868Y-99709814D01*
X238080914Y-99743287D01*
X237950882Y-99776208D01*
X237825534Y-99807876D01*
X237707628Y-99837591D01*
X237599926Y-99864654D01*
X237505188Y-99888363D01*
X237426175Y-99908019D01*
X237365647Y-99922921D01*
X237326364Y-99932370D01*
X237311087Y-99935665D01*
X237310987Y-99935646D01*
X237312939Y-99921607D01*
X237319799Y-99882934D01*
X237331060Y-99822296D01*
X237346210Y-99742362D01*
X237364742Y-99645802D01*
X237386144Y-99535283D01*
X237409909Y-99413476D01*
X237435526Y-99283049D01*
X237435967Y-99280812D01*
X237467947Y-99119646D01*
X237495363Y-98984050D01*
X237518630Y-98872208D01*
X237538159Y-98782305D01*
X237554365Y-98712522D01*
X237567660Y-98661044D01*
X237578457Y-98626053D01*
X237587169Y-98605735D01*
X237590608Y-98600796D01*
X237617453Y-98575853D01*
X237664311Y-98537548D01*
X237728132Y-98488107D01*
X237805866Y-98429753D01*
X237894463Y-98364712D01*
X237990874Y-98295208D01*
X238092048Y-98223467D01*
X238194937Y-98151712D01*
X238296490Y-98082170D01*
X238361467Y-98038454D01*
X238679668Y-97831917D01*
X239008552Y-97629563D01*
X239343858Y-97433692D01*
X239681325Y-97246603D01*
X240016694Y-97070597D01*
X240345703Y-96907974D01*
X240664092Y-96761032D01*
X240964233Y-96633437D01*
X241046260Y-96601268D01*
X241139875Y-96566301D01*
X241240236Y-96530179D01*
X241342498Y-96494540D01*
X241441817Y-96461027D01*
X241533352Y-96431280D01*
X241612258Y-96406940D01*
X241673691Y-96389648D01*
X241705744Y-96382223D01*
X241739030Y-96373707D01*
X241756689Y-96364760D01*
X241757548Y-96362847D01*
X241747468Y-96349492D01*
X241719284Y-96320856D01*
X241676081Y-96279709D01*
X241620946Y-96228824D01*
X241556962Y-96170969D01*
X241487216Y-96108916D01*
X241414793Y-96045436D01*
X241342778Y-95983298D01*
X241274256Y-95925273D01*
X241223079Y-95882902D01*
X241059280Y-95753138D01*
X240897245Y-95633641D01*
X240730624Y-95520166D01*
X240553069Y-95408465D01*
X240358229Y-95294293D01*
X240263942Y-95241377D01*
X240194513Y-95201974D01*
X240135332Y-95166669D01*
X240090010Y-95137760D01*
X240062158Y-95117545D01*
X240055175Y-95108482D01*
X240071292Y-95097948D01*
X240106695Y-95077315D01*
X240156112Y-95049590D01*
X240212672Y-95018644D01*
X240484432Y-94864823D01*
X240734619Y-94708507D01*
X240969450Y-94545580D01*
X241195139Y-94371926D01*
X241221713Y-94350326D01*
X241285421Y-94297439D01*
X241355080Y-94238232D01*
X241427611Y-94175467D01*
X241499936Y-94111910D01*
X241568977Y-94050322D01*
X241631657Y-93993468D01*
X241684896Y-93944111D01*
X241725618Y-93905016D01*
X241750743Y-93878945D01*
X241757548Y-93869235D01*
X241745361Y-93860743D01*
X241715137Y-93851781D01*
X241705744Y-93849859D01*
X241660851Y-93839029D01*
X241594800Y-93819903D01*
X241512434Y-93794121D01*
X241418597Y-93763324D01*
X241318133Y-93729153D01*
X241215886Y-93693249D01*
X241116697Y-93657254D01*
X241025412Y-93622807D01*
X240964233Y-93598645D01*
X240666402Y-93472016D01*
X240353521Y-93327683D01*
X240029883Y-93167965D01*
X239699779Y-92995177D01*
X239367501Y-92811635D01*
X239037342Y-92619656D01*
X238713592Y-92421556D01*
X238400543Y-92219651D01*
X238363501Y-92195010D01*
X238264644Y-92128245D01*
X238162388Y-92057778D01*
X238059778Y-91985831D01*
X237959859Y-91914624D01*
X237865678Y-91846376D01*
X237780278Y-91783310D01*
X237706707Y-91727644D01*
X237648008Y-91681600D01*
X237607228Y-91647397D01*
X237591158Y-91631894D01*
X237583221Y-91617188D01*
X237573132Y-91587419D01*
X237560504Y-91540887D01*
X237544953Y-91475897D01*
X237526094Y-91390752D01*
X237503541Y-91283753D01*
X237476909Y-91153205D01*
X237445813Y-90997410D01*
X237436816Y-90951878D01*
X237411127Y-90821268D01*
X237387273Y-90699233D01*
X237365763Y-90588438D01*
X237347110Y-90491553D01*
X237331824Y-90411245D01*
X237320415Y-90350182D01*
X237313395Y-90311030D01*
X237311274Y-90296459D01*
X237311286Y-90296437D01*
X237324686Y-90299259D01*
X237362291Y-90308286D01*
X237421342Y-90322817D01*
X237499077Y-90342153D01*
X237592738Y-90365593D01*
X237699563Y-90392436D01*
X237816794Y-90421983D01*
X237941668Y-90453534D01*
X238071427Y-90486387D01*
X238203310Y-90519843D01*
X238334557Y-90553202D01*
X238462407Y-90585763D01*
X238584102Y-90616826D01*
X238696880Y-90645690D01*
X238797981Y-90671656D01*
X238884645Y-90694024D01*
X238954113Y-90712092D01*
X239003623Y-90725161D01*
X239030416Y-90732531D01*
X239031481Y-90732849D01*
X239042082Y-90729470D01*
X239058195Y-90712865D01*
X239081232Y-90680883D01*
X239112607Y-90631370D01*
X239153732Y-90562174D01*
X239206021Y-90471142D01*
X239223633Y-90440070D01*
X239270680Y-90357611D01*
X239313570Y-90283832D01*
X239350331Y-90222012D01*
X239378994Y-90175428D01*
X239397588Y-90147359D01*
X239403799Y-90140425D01*
X239412622Y-90151851D01*
G36*
X239412622Y-90151851D02*
G01*
X239435694Y-90185182D01*
X239472075Y-90238995D01*
X239520826Y-90311867D01*
X239581007Y-90402377D01*
X239651680Y-90509101D01*
X239731904Y-90630617D01*
X239820740Y-90765503D01*
X239917249Y-90912337D01*
X240020492Y-91069695D01*
X240129528Y-91236155D01*
X240243419Y-91410296D01*
X240332030Y-91545962D01*
X240449004Y-91724982D01*
X240561882Y-91897400D01*
X240669720Y-92061790D01*
X240771575Y-92216729D01*
X240866504Y-92360795D01*
X240953564Y-92492564D01*
X241031813Y-92610613D01*
X241100307Y-92713519D01*
X241158102Y-92799857D01*
X241204257Y-92868205D01*
X241237828Y-92917140D01*
X241257872Y-92945238D01*
X241263466Y-92951782D01*
X241279370Y-92947767D01*
X241318896Y-92936190D01*
X241379145Y-92917946D01*
X241457218Y-92893927D01*
X241550218Y-92865027D01*
X241655245Y-92832140D01*
X241769400Y-92796159D01*
X241810334Y-92783203D01*
X241926683Y-92746627D01*
X242034715Y-92713219D01*
X242131568Y-92683824D01*
X242214382Y-92659284D01*
X242280297Y-92640443D01*
X242326452Y-92628144D01*
X242349987Y-92623230D01*
X242352362Y-92623421D01*
X242352074Y-92638269D01*
X242348633Y-92678778D01*
X242342262Y-92742977D01*
X242333180Y-92828896D01*
X242321609Y-92934567D01*
X242307769Y-93058018D01*
X242291882Y-93197279D01*
X242274167Y-93350382D01*
X242254847Y-93515355D01*
X242234142Y-93690229D01*
X242212273Y-93873034D01*
X242212124Y-93874271D01*
X242062808Y-95116041D01*
X242209411Y-96332364D01*
X242231254Y-96513959D01*
X242252114Y-96688083D01*
X242271748Y-96852692D01*
X242289919Y-97005745D01*
X242306387Y-97145197D01*
X242320911Y-97269006D01*
X242333251Y-97375130D01*
X242343169Y-97461524D01*
X242350423Y-97526146D01*
X242354775Y-97566953D01*
X242356014Y-97581488D01*
X242351837Y-97606686D01*
X242344463Y-97614288D01*
X242329076Y-97610212D01*
X242290068Y-97598584D01*
X242230338Y-97580304D01*
X242152788Y-97556273D01*
X242060316Y-97527389D01*
X241955824Y-97494554D01*
X241842210Y-97458666D01*
X241806261Y-97447274D01*
X241690287Y-97410615D01*
X241582408Y-97376743D01*
X241485546Y-97346559D01*
X241402627Y-97320965D01*
X241336575Y-97300861D01*
X241290316Y-97287149D01*
X241266773Y-97280730D01*
X241264579Y-97280361D01*
X241255202Y-97291803D01*
X241231590Y-97325154D01*
X241194688Y-97378993D01*
X241145439Y-97451894D01*
X241084787Y-97542435D01*
X241013679Y-97649194D01*
X240933056Y-97770747D01*
X240843865Y-97905671D01*
X240747049Y-98052543D01*
X240643552Y-98209940D01*
X240534319Y-98376438D01*
X240420295Y-98550616D01*
X240331790Y-98686059D01*
X240214835Y-98865051D01*
X240102031Y-99037438D01*
X239994315Y-99201797D01*
X239892627Y-99356705D01*
X239797907Y-99500741D01*
X239711094Y-99632483D01*
X239633127Y-99750508D01*
X239564944Y-99853394D01*
X239507487Y-99939718D01*
X239461692Y-100008059D01*
X239428501Y-100056994D01*
X239408852Y-100085101D01*
X239403559Y-100091657D01*
X239394112Y-100080049D01*
X239373074Y-100047407D01*
X239342414Y-99997011D01*
X239304099Y-99932137D01*
X239260097Y-99856064D01*
X239223633Y-99792012D01*
X239167812Y-99694185D01*
X239123567Y-99618823D01*
X239089486Y-99563774D01*
X239064155Y-99526886D01*
X239046163Y-99506006D01*
X239034095Y-99498980D01*
X239031481Y-99499233D01*
X239006447Y-99506168D01*
X238958491Y-99518853D01*
X238890374Y-99536587D01*
X238804855Y-99558670D01*
X238704697Y-99584402D01*
X238592658Y-99613082D01*
X238471500Y-99644011D01*
X238343983Y-99676488D01*
X238212868Y-99709814D01*
X238080914Y-99743287D01*
X237950882Y-99776208D01*
X237825534Y-99807876D01*
X237707628Y-99837591D01*
X237599926Y-99864654D01*
X237505188Y-99888363D01*
X237426175Y-99908019D01*
X237365647Y-99922921D01*
X237326364Y-99932370D01*
X237311087Y-99935665D01*
X237310987Y-99935646D01*
X237312939Y-99921607D01*
X237319799Y-99882934D01*
X237331060Y-99822296D01*
X237346210Y-99742362D01*
X237364742Y-99645802D01*
X237386144Y-99535283D01*
X237409909Y-99413476D01*
X237435526Y-99283049D01*
X237435967Y-99280812D01*
X237467947Y-99119646D01*
X237495363Y-98984050D01*
X237518630Y-98872208D01*
X237538159Y-98782305D01*
X237554365Y-98712522D01*
X237567660Y-98661044D01*
X237578457Y-98626053D01*
X237587169Y-98605735D01*
X237590608Y-98600796D01*
X237617453Y-98575853D01*
X237664311Y-98537548D01*
X237728132Y-98488107D01*
X237805866Y-98429753D01*
X237894463Y-98364712D01*
X237990874Y-98295208D01*
X238092048Y-98223467D01*
X238194937Y-98151712D01*
X238296490Y-98082170D01*
X238361467Y-98038454D01*
X238679668Y-97831917D01*
X239008552Y-97629563D01*
X239343858Y-97433692D01*
X239681325Y-97246603D01*
X240016694Y-97070597D01*
X240345703Y-96907974D01*
X240664092Y-96761032D01*
X240964233Y-96633437D01*
X241046260Y-96601268D01*
X241139875Y-96566301D01*
X241240236Y-96530179D01*
X241342498Y-96494540D01*
X241441817Y-96461027D01*
X241533352Y-96431280D01*
X241612258Y-96406940D01*
X241673691Y-96389648D01*
X241705744Y-96382223D01*
X241739030Y-96373707D01*
X241756689Y-96364760D01*
X241757548Y-96362847D01*
X241747468Y-96349492D01*
X241719284Y-96320856D01*
X241676081Y-96279709D01*
X241620946Y-96228824D01*
X241556962Y-96170969D01*
X241487216Y-96108916D01*
X241414793Y-96045436D01*
X241342778Y-95983298D01*
X241274256Y-95925273D01*
X241223079Y-95882902D01*
X241059280Y-95753138D01*
X240897245Y-95633641D01*
X240730624Y-95520166D01*
X240553069Y-95408465D01*
X240358229Y-95294293D01*
X240263942Y-95241377D01*
X240194513Y-95201974D01*
X240135332Y-95166669D01*
X240090010Y-95137760D01*
X240062158Y-95117545D01*
X240055175Y-95108482D01*
X240071292Y-95097948D01*
X240106695Y-95077315D01*
X240156112Y-95049590D01*
X240212672Y-95018644D01*
X240484432Y-94864823D01*
X240734619Y-94708507D01*
X240969450Y-94545580D01*
X241195139Y-94371926D01*
X241221713Y-94350326D01*
X241285421Y-94297439D01*
X241355080Y-94238232D01*
X241427611Y-94175467D01*
X241499936Y-94111910D01*
X241568977Y-94050322D01*
X241631657Y-93993468D01*
X241684896Y-93944111D01*
X241725618Y-93905016D01*
X241750743Y-93878945D01*
X241757548Y-93869235D01*
X241745361Y-93860743D01*
X241715137Y-93851781D01*
X241705744Y-93849859D01*
X241660851Y-93839029D01*
X241594800Y-93819903D01*
X241512434Y-93794121D01*
X241418597Y-93763324D01*
X241318133Y-93729153D01*
X241215886Y-93693249D01*
X241116697Y-93657254D01*
X241025412Y-93622807D01*
X240964233Y-93598645D01*
X240666402Y-93472016D01*
X240353521Y-93327683D01*
X240029883Y-93167965D01*
X239699779Y-92995177D01*
X239367501Y-92811635D01*
X239037342Y-92619656D01*
X238713592Y-92421556D01*
X238400543Y-92219651D01*
X238363501Y-92195010D01*
X238264644Y-92128245D01*
X238162388Y-92057778D01*
X238059778Y-91985831D01*
X237959859Y-91914624D01*
X237865678Y-91846376D01*
X237780278Y-91783310D01*
X237706707Y-91727644D01*
X237648008Y-91681600D01*
X237607228Y-91647397D01*
X237591158Y-91631894D01*
X237583221Y-91617188D01*
X237573132Y-91587419D01*
X237560504Y-91540887D01*
X237544953Y-91475897D01*
X237526094Y-91390752D01*
X237503541Y-91283753D01*
X237476909Y-91153205D01*
X237445813Y-90997410D01*
X237436816Y-90951878D01*
X237411127Y-90821268D01*
X237387273Y-90699233D01*
X237365763Y-90588438D01*
X237347110Y-90491553D01*
X237331824Y-90411245D01*
X237320415Y-90350182D01*
X237313395Y-90311030D01*
X237311274Y-90296459D01*
X237311286Y-90296437D01*
X237324686Y-90299259D01*
X237362291Y-90308286D01*
X237421342Y-90322817D01*
X237499077Y-90342153D01*
X237592738Y-90365593D01*
X237699563Y-90392436D01*
X237816794Y-90421983D01*
X237941668Y-90453534D01*
X238071427Y-90486387D01*
X238203310Y-90519843D01*
X238334557Y-90553202D01*
X238462407Y-90585763D01*
X238584102Y-90616826D01*
X238696880Y-90645690D01*
X238797981Y-90671656D01*
X238884645Y-90694024D01*
X238954113Y-90712092D01*
X239003623Y-90725161D01*
X239030416Y-90732531D01*
X239031481Y-90732849D01*
X239042082Y-90729470D01*
X239058195Y-90712865D01*
X239081232Y-90680883D01*
X239112607Y-90631370D01*
X239153732Y-90562174D01*
X239206021Y-90471142D01*
X239223633Y-90440070D01*
X239270680Y-90357611D01*
X239313570Y-90283832D01*
X239350331Y-90222012D01*
X239378994Y-90175428D01*
X239397588Y-90147359D01*
X239403799Y-90140425D01*
X239412622Y-90151851D01*
G37*
D13*
X226003000Y-85833500D02*
X226003000Y-86103500D01*
X226003000Y-92733500D02*
X226003000Y-92463500D01*
X232423000Y-85833500D02*
X226003000Y-85833500D01*
X232423000Y-92733500D02*
X226003000Y-92733500D01*
X224583000Y-86143500D02*
X224343000Y-85813500D01*
X224823000Y-85813500D01*
X224583000Y-86143500D01*
G36*
X224583000Y-86143500D02*
G01*
X224343000Y-85813500D01*
X224823000Y-85813500D01*
X224583000Y-86143500D01*
G37*
X232841250Y-81415000D02*
X232841250Y-83685000D01*
X232841250Y-83685000D02*
X236901250Y-83685000D01*
X236901250Y-81415000D02*
X232841250Y-81415000D01*
X220730000Y-74422000D02*
G75*
G03*
X208530000Y-74422000I-6100000J0D01*
G01*
X208530000Y-74422000D02*
G75*
G03*
X220730000Y-74422000I6100000J0D01*
G01*
X230067314Y-75958000D02*
X229613186Y-75958000D01*
X230067314Y-74488000D02*
X229613186Y-74488000D01*
X192686000Y-90558252D02*
X192686000Y-90035748D01*
X194156000Y-90558252D02*
X194156000Y-90035748D01*
X200137000Y-89664000D02*
X200137000Y-96064000D01*
X195087000Y-89664000D02*
X195087000Y-96064000D01*
X200137000Y-89664000D02*
G75*
G03*
X195087000Y-89664000I-2525000J0D01*
G01*
X195087000Y-96064000D02*
G75*
G03*
X200137000Y-96064000I2525000J0D01*
G01*
D11*
X206502000Y-74763500D02*
X192786000Y-74763500D01*
X206502000Y-56475500D02*
X206502000Y-74763500D01*
X206502000Y-56475500D02*
X192786000Y-56475500D01*
X192786000Y-74763500D02*
X192786000Y-56475500D01*
D13*
X236260000Y-72446000D02*
X237060000Y-72446000D01*
X236260000Y-72446000D02*
X235460000Y-72446000D01*
X235460000Y-72446000D02*
X235460000Y-71516000D01*
X235460000Y-69286000D02*
X236920000Y-69286000D01*
X235460000Y-69286000D02*
X235460000Y-70216000D01*
X237800000Y-72806000D02*
X237320000Y-72806000D01*
X237560000Y-72476000D01*
X237800000Y-72806000D01*
G36*
X237800000Y-72806000D02*
G01*
X237320000Y-72806000D01*
X237560000Y-72476000D01*
X237800000Y-72806000D01*
G37*
D11*
X224376000Y-61452000D02*
X224376000Y-57452000D01*
X224376000Y-57452000D02*
X217376000Y-57452000D01*
X217376000Y-57752000D02*
X215376000Y-57752000D01*
X217376000Y-57452000D02*
X217376000Y-57752000D01*
X215376000Y-57752000D02*
X215376000Y-57452000D01*
X215376000Y-57452000D02*
X208376000Y-57452000D01*
X208376000Y-61452000D02*
X224376000Y-61452000D01*
X208376000Y-57452000D02*
X208376000Y-61452000D01*
D13*
X223019252Y-72871000D02*
X222496748Y-72871000D01*
X223019252Y-71401000D02*
X222496748Y-71401000D01*
D11*
X243348000Y-112870000D02*
X247348000Y-112870000D01*
X247348000Y-112870000D02*
X247348000Y-105870000D01*
X247048000Y-105870000D02*
X247048000Y-103870000D01*
X247348000Y-105870000D02*
X247048000Y-105870000D01*
X247048000Y-103870000D02*
X247348000Y-103870000D01*
X247348000Y-103870000D02*
X247348000Y-96870000D01*
X243348000Y-96870000D02*
X243348000Y-112870000D01*
X247348000Y-96870000D02*
X243348000Y-96870000D01*
X179377200Y-117178200D02*
X192377200Y-117178200D01*
X179377200Y-117178200D02*
X179377200Y-99128200D01*
X179377200Y-99128200D02*
X192377200Y-99128200D01*
X192377200Y-99128200D02*
X192377200Y-117178200D01*
X179377200Y-84310600D02*
X192377200Y-84310600D01*
X179377200Y-84310600D02*
X179377200Y-66260600D01*
X179377200Y-66260600D02*
X192377200Y-66260600D01*
X192377200Y-66260600D02*
X192377200Y-84310600D01*
D13*
X223734000Y-81871000D02*
X222934000Y-81871000D01*
X223734000Y-81871000D02*
X224534000Y-81871000D01*
X224534000Y-81871000D02*
X224534000Y-82801000D01*
X224534000Y-85031000D02*
X223074000Y-85031000D01*
X224534000Y-85031000D02*
X224534000Y-84101000D01*
X222434000Y-81841000D02*
X222194000Y-81511000D01*
X222674000Y-81511000D01*
X222434000Y-81841000D01*
G36*
X222434000Y-81841000D02*
G01*
X222194000Y-81511000D01*
X222674000Y-81511000D01*
X222434000Y-81841000D01*
G37*
X221087000Y-66421000D02*
X221087000Y-68371000D01*
X221087000Y-66421000D02*
X221087000Y-64471000D01*
X226207000Y-66421000D02*
X226207000Y-68371000D01*
X226207000Y-66421000D02*
X226207000Y-64471000D01*
X221182000Y-69121000D02*
X220852000Y-69361000D01*
X220852000Y-68881000D01*
X221182000Y-69121000D01*
G36*
X221182000Y-69121000D02*
G01*
X220852000Y-69361000D01*
X220852000Y-68881000D01*
X221182000Y-69121000D01*
G37*
X204267000Y-81853000D02*
X204267000Y-82498000D01*
X204267000Y-100773000D02*
X204267000Y-100128000D01*
X208127000Y-81853000D02*
X204267000Y-81853000D01*
X208127000Y-81853000D02*
X211987000Y-81853000D01*
X208127000Y-100773000D02*
X204267000Y-100773000D01*
X208127000Y-100773000D02*
X211987000Y-100773000D01*
X211987000Y-81853000D02*
X211987000Y-82498000D01*
X211987000Y-100773000D02*
X211987000Y-100128000D01*
X203402000Y-82498000D02*
X203062000Y-82028000D01*
X203742000Y-82028000D01*
X203402000Y-82498000D01*
G36*
X203402000Y-82498000D02*
G01*
X203062000Y-82028000D01*
X203742000Y-82028000D01*
X203402000Y-82498000D01*
G37*
X226520000Y-97128000D02*
X226520000Y-97398000D01*
X226520000Y-104028000D02*
X226520000Y-103758000D01*
X232940000Y-97128000D02*
X226520000Y-97128000D01*
X232940000Y-104028000D02*
X226520000Y-104028000D01*
X225100000Y-97438000D02*
X224860000Y-97108000D01*
X225340000Y-97108000D01*
X225100000Y-97438000D01*
G36*
X225100000Y-97438000D02*
G01*
X224860000Y-97108000D01*
X225340000Y-97108000D01*
X225100000Y-97438000D01*
G37*
X215419000Y-94241252D02*
X215419000Y-93718748D01*
X216889000Y-94241252D02*
X216889000Y-93718748D01*
X232714250Y-74049000D02*
X232714250Y-76319000D01*
X232714250Y-76319000D02*
X236774250Y-76319000D01*
X236774250Y-74049000D02*
X232714250Y-74049000D01*
X230057064Y-79602000D02*
X229602936Y-79602000D01*
X230057064Y-78132000D02*
X229602936Y-78132000D01*
D11*
X192786000Y-108624500D02*
X206502000Y-108624500D01*
X192786000Y-126912500D02*
X192786000Y-108624500D01*
X192786000Y-126912500D02*
X206502000Y-126912500D01*
X206502000Y-108624500D02*
X206502000Y-126912500D01*
D13*
X238256000Y-110500000D02*
G75*
G03*
X226056000Y-110500000I-6100000J0D01*
G01*
X226056000Y-110500000D02*
G75*
G03*
X238256000Y-110500000I6100000J0D01*
G01*
X188187000Y-95022936D02*
X188187000Y-95477064D01*
X186717000Y-95022936D02*
X186717000Y-95477064D01*
X223480000Y-93416000D02*
X222680000Y-93416000D01*
X223480000Y-93416000D02*
X224280000Y-93416000D01*
X224280000Y-93416000D02*
X224280000Y-94346000D01*
X224280000Y-96576000D02*
X222820000Y-96576000D01*
X224280000Y-96576000D02*
X224280000Y-95646000D01*
X222180000Y-93386000D02*
X221940000Y-93056000D01*
X222420000Y-93056000D01*
X222180000Y-93386000D01*
G36*
X222180000Y-93386000D02*
G01*
X221940000Y-93056000D01*
X222420000Y-93056000D01*
X222180000Y-93386000D01*
G37*
X229970000Y-69876936D02*
X229970000Y-70331064D01*
X228500000Y-69876936D02*
X228500000Y-70331064D01*
D11*
X223997000Y-119904000D02*
X223997000Y-123904000D01*
X223997000Y-123904000D02*
X230997000Y-123904000D01*
X230997000Y-123604000D02*
X232997000Y-123604000D01*
X230997000Y-123904000D02*
X230997000Y-123604000D01*
X232997000Y-123604000D02*
X232997000Y-123904000D01*
X232997000Y-123904000D02*
X239997000Y-123904000D01*
X239997000Y-119904000D02*
X223997000Y-119904000D01*
X239997000Y-123904000D02*
X239997000Y-119904000D01*
D13*
X227681000Y-56555500D02*
X237901000Y-56555500D01*
X227681000Y-57775500D02*
X228901000Y-57775500D01*
X227681000Y-64975500D02*
X227681000Y-56555500D01*
X228901000Y-57775500D02*
X228901000Y-62775500D01*
X228901000Y-61775500D02*
X236681000Y-61775500D01*
X228901000Y-62775500D02*
X227681000Y-62775500D01*
X228901000Y-62775500D02*
X228901000Y-64975500D01*
X228901000Y-64975500D02*
X227681000Y-64975500D01*
X229971000Y-58355500D02*
X230291000Y-58275500D01*
X229971000Y-61775500D02*
X229971000Y-58355500D01*
X229991000Y-65465500D02*
X230591000Y-65465500D01*
X230291000Y-58275500D02*
X230611000Y-58355500D01*
X230291000Y-61775500D02*
X229971000Y-61775500D01*
X230291000Y-64865500D02*
X229991000Y-65465500D01*
X230591000Y-65465500D02*
X230291000Y-64865500D01*
X230611000Y-58355500D02*
X230611000Y-61775500D01*
X230611000Y-61775500D02*
X230291000Y-61775500D01*
X231461000Y-62775500D02*
X231621000Y-62775500D01*
X232471000Y-58355500D02*
X232791000Y-58275500D01*
X232471000Y-61775500D02*
X232471000Y-58355500D01*
X232791000Y-58275500D02*
X233111000Y-58355500D01*
X232791000Y-61775500D02*
X232471000Y-61775500D01*
X233111000Y-58355500D02*
X233111000Y-61775500D01*
X233111000Y-61775500D02*
X232791000Y-61775500D01*
X233961000Y-62775500D02*
X234121000Y-62775500D01*
X234971000Y-58355500D02*
X235291000Y-58275500D01*
X234971000Y-61775500D02*
X234971000Y-58355500D01*
X235291000Y-58275500D02*
X235611000Y-58355500D01*
X235291000Y-61775500D02*
X234971000Y-61775500D01*
X235611000Y-58355500D02*
X235611000Y-61775500D01*
X235611000Y-61775500D02*
X235291000Y-61775500D01*
X236681000Y-57775500D02*
X236681000Y-62775500D01*
X236681000Y-62775500D02*
X237901000Y-62775500D01*
X236681000Y-64975500D02*
X236681000Y-62775500D01*
X237901000Y-56555500D02*
X237901000Y-64975500D01*
X237901000Y-57775500D02*
X236681000Y-57775500D01*
X237901000Y-64975500D02*
X236681000Y-64975500D01*
X221492000Y-110500000D02*
G75*
G03*
X209292000Y-110500000I-6100000J0D01*
G01*
X209292000Y-110500000D02*
G75*
G03*
X221492000Y-110500000I6100000J0D01*
G01*
X233452936Y-66829000D02*
X233907064Y-66829000D01*
X233452936Y-68299000D02*
X233907064Y-68299000D01*
X230194314Y-83363000D02*
X229740186Y-83363000D01*
X230194314Y-81893000D02*
X229740186Y-81893000D01*
D11*
X207297000Y-119936000D02*
X207297000Y-123936000D01*
X207297000Y-123936000D02*
X214297000Y-123936000D01*
X214297000Y-123636000D02*
X216297000Y-123636000D01*
X214297000Y-123936000D02*
X214297000Y-123636000D01*
X216297000Y-123636000D02*
X216297000Y-123936000D01*
X216297000Y-123936000D02*
X223297000Y-123936000D01*
X223297000Y-119936000D02*
X207297000Y-119936000D01*
X223297000Y-123936000D02*
X223297000Y-119936000D01*
D13*
X194283000Y-94988748D02*
X194283000Y-95511252D01*
X192813000Y-94988748D02*
X192813000Y-95511252D01*
D11*
X243380000Y-96170000D02*
X247380000Y-96170000D01*
X247380000Y-96170000D02*
X247380000Y-89170000D01*
X247080000Y-89170000D02*
X247080000Y-87170000D01*
X247380000Y-89170000D02*
X247080000Y-89170000D01*
X247080000Y-87170000D02*
X247380000Y-87170000D01*
X247380000Y-87170000D02*
X247380000Y-80170000D01*
X243380000Y-80170000D02*
X243380000Y-96170000D01*
X247380000Y-80170000D02*
X243380000Y-80170000D01*
D13*
X232704000Y-77732000D02*
X232704000Y-80002000D01*
X232704000Y-80002000D02*
X236764000Y-80002000D01*
X236764000Y-77732000D02*
X232704000Y-77732000D01*
%LPC*%
D14*
X224273000Y-87003500D03*
D15*
X230573000Y-89283500D03*
D14*
X224273000Y-91563500D03*
D16*
X233813750Y-82550000D03*
X236788750Y-82550000D03*
D17*
X214630000Y-70622000D03*
D18*
X214630000Y-78222000D03*
D19*
X230840250Y-75223000D03*
X228840250Y-75223000D03*
D20*
X193421000Y-91334500D03*
X193421000Y-89259500D03*
D21*
X197612000Y-90424000D03*
X197612000Y-95304000D03*
D22*
X202946000Y-71207500D03*
X202946000Y-60031500D03*
X196342000Y-60031500D03*
D23*
X237720000Y-71816000D03*
X237720000Y-69916000D03*
X234720000Y-70866000D03*
D24*
X182880000Y-123444000D03*
D25*
X221876000Y-59452000D03*
X210876000Y-59452000D03*
D26*
X218376000Y-58452000D03*
D27*
X216376000Y-58452000D03*
X214376000Y-58452000D03*
X218376000Y-60452000D03*
X216376000Y-60452000D03*
X214376000Y-60452000D03*
D28*
X223795500Y-72136000D03*
X221720500Y-72136000D03*
D25*
X245348000Y-110370000D03*
X245348000Y-99370000D03*
D26*
X246348000Y-106870000D03*
D27*
X246348000Y-104870000D03*
X246348000Y-102870000D03*
X244348000Y-106870000D03*
X244348000Y-104870000D03*
X244348000Y-102870000D03*
D29*
X189777200Y-112278200D03*
X189777200Y-104028200D03*
X189777200Y-79410600D03*
X189777200Y-71160600D03*
D30*
X222274000Y-82501000D03*
X222274000Y-84401000D03*
X225274000Y-83451000D03*
D31*
X221742000Y-68896000D03*
X223012000Y-68896000D03*
X224282000Y-68896000D03*
X225552000Y-68896000D03*
X225552000Y-63946000D03*
X224282000Y-63946000D03*
X223012000Y-63946000D03*
X221742000Y-63946000D03*
D32*
X203327000Y-83058000D03*
X203327000Y-84328000D03*
X203327000Y-85598000D03*
X203327000Y-86868000D03*
X203327000Y-88138000D03*
X203327000Y-89408000D03*
X203327000Y-90678000D03*
X203327000Y-91948000D03*
X203327000Y-93218000D03*
X203327000Y-94488000D03*
X203327000Y-95758000D03*
X203327000Y-97028000D03*
X203327000Y-98298000D03*
X203327000Y-99568000D03*
X212927000Y-99568000D03*
X212927000Y-98298000D03*
X212927000Y-97028000D03*
X212927000Y-95758000D03*
X212927000Y-94488000D03*
X212927000Y-93218000D03*
X212927000Y-91948000D03*
X212927000Y-90678000D03*
X212927000Y-89408000D03*
X212927000Y-88138000D03*
X212927000Y-86868000D03*
X212927000Y-85598000D03*
X212927000Y-84328000D03*
X212927000Y-83058000D03*
D14*
X224790000Y-98298000D03*
D15*
X231090000Y-100578000D03*
D14*
X224790000Y-102858000D03*
D20*
X216154000Y-95017500D03*
X216154000Y-92942500D03*
D16*
X233686750Y-75184000D03*
X236661750Y-75184000D03*
D19*
X230830000Y-78867000D03*
X228830000Y-78867000D03*
D22*
X196342000Y-112180500D03*
X196342000Y-123356500D03*
X202946000Y-123356500D03*
D17*
X232156000Y-114300000D03*
D18*
X232156000Y-106700000D03*
D33*
X187452000Y-94250000D03*
X187452000Y-96250000D03*
D30*
X222020000Y-94046000D03*
X222020000Y-95946000D03*
X225020000Y-94996000D03*
D33*
X229235000Y-69104000D03*
X229235000Y-71104000D03*
D25*
X226497000Y-121904000D03*
X237497000Y-121904000D03*
D26*
X229997000Y-122904000D03*
D27*
X231997000Y-122904000D03*
X233997000Y-122904000D03*
X229997000Y-120904000D03*
X231997000Y-120904000D03*
X233997000Y-120904000D03*
D24*
X246380000Y-59944000D03*
D34*
X230291000Y-63365500D03*
D35*
X232791000Y-63365500D03*
X235291000Y-63365500D03*
D17*
X215392000Y-114300000D03*
D18*
X215392000Y-106700000D03*
D36*
X232680000Y-67564000D03*
X234680000Y-67564000D03*
D19*
X230967250Y-82628000D03*
X228967250Y-82628000D03*
D24*
X182880000Y-59944000D03*
X246380000Y-123444000D03*
D25*
X209797000Y-121936000D03*
X220797000Y-121936000D03*
D26*
X213297000Y-122936000D03*
D27*
X215297000Y-122936000D03*
X217297000Y-122936000D03*
X213297000Y-120936000D03*
X215297000Y-120936000D03*
X217297000Y-120936000D03*
D37*
X193548000Y-94212500D03*
X193548000Y-96287500D03*
D25*
X245380000Y-93670000D03*
X245380000Y-82670000D03*
D26*
X246380000Y-90170000D03*
D27*
X246380000Y-88170000D03*
X246380000Y-86170000D03*
X244380000Y-90170000D03*
X244380000Y-88170000D03*
X244380000Y-86170000D03*
D16*
X233676500Y-78867000D03*
X236651500Y-78867000D03*
%LPD*%
M02*
