G04 #@! TF.GenerationSoftware,KiCad,Pcbnew,(5.0.0)*
G04 #@! TF.CreationDate,2019-04-17T22:55:46-04:00*
G04 #@! TF.ProjectId,gps,6770732E6B696361645F706362000000,rev?*
G04 #@! TF.SameCoordinates,Original*
G04 #@! TF.FileFunction,Soldermask,Top*
G04 #@! TF.FilePolarity,Negative*
%FSLAX46Y46*%
G04 Gerber Fmt 4.6, Leading zero omitted, Abs format (unit mm)*
G04 Created by KiCad (PCBNEW (5.0.0)) date 04/17/19 22:55:46*
%MOMM*%
%LPD*%
G01*
G04 APERTURE LIST*
%ADD10C,0.100000*%
G04 APERTURE END LIST*
D10*
G36*
X130932400Y-105532400D02*
X130230400Y-105532400D01*
X130230400Y-103880400D01*
X130932400Y-103880400D01*
X130932400Y-105532400D01*
X130932400Y-105532400D01*
G37*
G36*
X129662400Y-105532400D02*
X128960400Y-105532400D01*
X128960400Y-103880400D01*
X129662400Y-103880400D01*
X129662400Y-105532400D01*
X129662400Y-105532400D01*
G37*
G36*
X127122400Y-105532400D02*
X126420400Y-105532400D01*
X126420400Y-103880400D01*
X127122400Y-103880400D01*
X127122400Y-105532400D01*
X127122400Y-105532400D01*
G37*
G36*
X128392400Y-105532400D02*
X127690400Y-105532400D01*
X127690400Y-103880400D01*
X128392400Y-103880400D01*
X128392400Y-105532400D01*
X128392400Y-105532400D01*
G37*
G36*
X137796843Y-102607781D02*
X137942615Y-102668162D01*
X138073811Y-102755824D01*
X138185376Y-102867389D01*
X138273038Y-102998585D01*
X138333419Y-103144357D01*
X138364200Y-103299107D01*
X138364200Y-103456893D01*
X138333419Y-103611643D01*
X138273038Y-103757415D01*
X138185376Y-103888611D01*
X138073811Y-104000176D01*
X137942615Y-104087838D01*
X137796843Y-104148219D01*
X137642093Y-104179000D01*
X137484307Y-104179000D01*
X137329557Y-104148219D01*
X137183785Y-104087838D01*
X137052589Y-104000176D01*
X136941024Y-103888611D01*
X136853362Y-103757415D01*
X136792981Y-103611643D01*
X136762200Y-103456893D01*
X136762200Y-103299107D01*
X136792981Y-103144357D01*
X136853362Y-102998585D01*
X136941024Y-102867389D01*
X137052589Y-102755824D01*
X137183785Y-102668162D01*
X137329557Y-102607781D01*
X137484307Y-102577000D01*
X137642093Y-102577000D01*
X137796843Y-102607781D01*
X137796843Y-102607781D01*
G37*
G36*
X142676843Y-102607781D02*
X142822615Y-102668162D01*
X142953811Y-102755824D01*
X143065376Y-102867389D01*
X143153038Y-102998585D01*
X143213419Y-103144357D01*
X143244200Y-103299107D01*
X143244200Y-103456893D01*
X143213419Y-103611643D01*
X143153038Y-103757415D01*
X143065376Y-103888611D01*
X142953811Y-104000176D01*
X142822615Y-104087838D01*
X142676843Y-104148219D01*
X142522093Y-104179000D01*
X142364307Y-104179000D01*
X142209557Y-104148219D01*
X142063785Y-104087838D01*
X141932589Y-104000176D01*
X141821024Y-103888611D01*
X141733362Y-103757415D01*
X141672981Y-103611643D01*
X141642200Y-103456893D01*
X141642200Y-103299107D01*
X141672981Y-103144357D01*
X141733362Y-102998585D01*
X141821024Y-102867389D01*
X141932589Y-102755824D01*
X142063785Y-102668162D01*
X142209557Y-102607781D01*
X142364307Y-102577000D01*
X142522093Y-102577000D01*
X142676843Y-102607781D01*
X142676843Y-102607781D01*
G37*
G36*
X154431239Y-97141467D02*
X154745282Y-97203934D01*
X155336926Y-97449001D01*
X155865802Y-97802385D01*
X155869395Y-97804786D01*
X156322214Y-98257605D01*
X156322216Y-98257608D01*
X156677999Y-98790074D01*
X156923066Y-99381718D01*
X157048000Y-100009804D01*
X157048000Y-100650196D01*
X156923066Y-101278282D01*
X156677999Y-101869926D01*
X156349205Y-102362000D01*
X156322214Y-102402395D01*
X155869395Y-102855214D01*
X155869392Y-102855216D01*
X155336926Y-103210999D01*
X154745282Y-103456066D01*
X154431239Y-103518533D01*
X154117197Y-103581000D01*
X153476803Y-103581000D01*
X153162761Y-103518533D01*
X152848718Y-103456066D01*
X152257074Y-103210999D01*
X151724608Y-102855216D01*
X151724605Y-102855214D01*
X151271786Y-102402395D01*
X151244795Y-102362000D01*
X150916001Y-101869926D01*
X150670934Y-101278282D01*
X150546000Y-100650196D01*
X150546000Y-100009804D01*
X150670934Y-99381718D01*
X150916001Y-98790074D01*
X151271784Y-98257608D01*
X151271786Y-98257605D01*
X151724605Y-97804786D01*
X151728198Y-97802385D01*
X152257074Y-97449001D01*
X152848718Y-97203934D01*
X153162761Y-97141467D01*
X153476803Y-97079000D01*
X154117197Y-97079000D01*
X154431239Y-97141467D01*
X154431239Y-97141467D01*
G37*
G36*
X107314239Y-97141467D02*
X107628282Y-97203934D01*
X108219926Y-97449001D01*
X108748802Y-97802385D01*
X108752395Y-97804786D01*
X109205214Y-98257605D01*
X109205216Y-98257608D01*
X109560999Y-98790074D01*
X109806066Y-99381718D01*
X109931000Y-100009804D01*
X109931000Y-100650196D01*
X109806066Y-101278282D01*
X109560999Y-101869926D01*
X109232205Y-102362000D01*
X109205214Y-102402395D01*
X108752395Y-102855214D01*
X108752392Y-102855216D01*
X108219926Y-103210999D01*
X107628282Y-103456066D01*
X107314239Y-103518533D01*
X107000197Y-103581000D01*
X106359803Y-103581000D01*
X106045761Y-103518533D01*
X105731718Y-103456066D01*
X105140074Y-103210999D01*
X104607608Y-102855216D01*
X104607605Y-102855214D01*
X104154786Y-102402395D01*
X104127795Y-102362000D01*
X103799001Y-101869926D01*
X103553934Y-101278282D01*
X103429000Y-100650196D01*
X103429000Y-100009804D01*
X103553934Y-99381718D01*
X103799001Y-98790074D01*
X104154784Y-98257608D01*
X104154786Y-98257605D01*
X104607605Y-97804786D01*
X104611198Y-97802385D01*
X105140074Y-97449001D01*
X105731718Y-97203934D01*
X106045761Y-97141467D01*
X106359803Y-97079000D01*
X107000197Y-97079000D01*
X107314239Y-97141467D01*
X107314239Y-97141467D01*
G37*
G36*
X117301677Y-101114465D02*
X117339364Y-101125898D01*
X117374103Y-101144466D01*
X117404548Y-101169452D01*
X117429534Y-101199897D01*
X117448102Y-101234636D01*
X117459535Y-101272323D01*
X117464000Y-101317661D01*
X117464000Y-102154339D01*
X117459535Y-102199677D01*
X117448102Y-102237364D01*
X117429534Y-102272103D01*
X117404548Y-102302548D01*
X117374103Y-102327534D01*
X117339364Y-102346102D01*
X117301677Y-102357535D01*
X117256339Y-102362000D01*
X116169661Y-102362000D01*
X116124323Y-102357535D01*
X116086636Y-102346102D01*
X116051897Y-102327534D01*
X116021452Y-102302548D01*
X115996466Y-102272103D01*
X115977898Y-102237364D01*
X115966465Y-102199677D01*
X115962000Y-102154339D01*
X115962000Y-101317661D01*
X115966465Y-101272323D01*
X115977898Y-101234636D01*
X115996466Y-101199897D01*
X116021452Y-101169452D01*
X116051897Y-101144466D01*
X116086636Y-101125898D01*
X116124323Y-101114465D01*
X116169661Y-101110000D01*
X117256339Y-101110000D01*
X117301677Y-101114465D01*
X117301677Y-101114465D01*
G37*
G36*
X124032677Y-101114465D02*
X124070364Y-101125898D01*
X124105103Y-101144466D01*
X124135548Y-101169452D01*
X124160534Y-101199897D01*
X124179102Y-101234636D01*
X124190535Y-101272323D01*
X124195000Y-101317661D01*
X124195000Y-102154339D01*
X124190535Y-102199677D01*
X124179102Y-102237364D01*
X124160534Y-102272103D01*
X124135548Y-102302548D01*
X124105103Y-102327534D01*
X124070364Y-102346102D01*
X124032677Y-102357535D01*
X123987339Y-102362000D01*
X122900661Y-102362000D01*
X122855323Y-102357535D01*
X122817636Y-102346102D01*
X122782897Y-102327534D01*
X122752452Y-102302548D01*
X122727466Y-102272103D01*
X122708898Y-102237364D01*
X122697465Y-102199677D01*
X122693000Y-102154339D01*
X122693000Y-101317661D01*
X122697465Y-101272323D01*
X122708898Y-101234636D01*
X122727466Y-101199897D01*
X122752452Y-101169452D01*
X122782897Y-101144466D01*
X122817636Y-101125898D01*
X122855323Y-101114465D01*
X122900661Y-101110000D01*
X123987339Y-101110000D01*
X124032677Y-101114465D01*
X124032677Y-101114465D01*
G37*
G36*
X113999677Y-101114465D02*
X114037364Y-101125898D01*
X114072103Y-101144466D01*
X114102548Y-101169452D01*
X114127534Y-101199897D01*
X114146102Y-101234636D01*
X114157535Y-101272323D01*
X114162000Y-101317661D01*
X114162000Y-102154339D01*
X114157535Y-102199677D01*
X114146102Y-102237364D01*
X114127534Y-102272103D01*
X114102548Y-102302548D01*
X114072103Y-102327534D01*
X114037364Y-102346102D01*
X113999677Y-102357535D01*
X113954339Y-102362000D01*
X112867661Y-102362000D01*
X112822323Y-102357535D01*
X112784636Y-102346102D01*
X112749897Y-102327534D01*
X112719452Y-102302548D01*
X112694466Y-102272103D01*
X112675898Y-102237364D01*
X112664465Y-102199677D01*
X112660000Y-102154339D01*
X112660000Y-101317661D01*
X112664465Y-101272323D01*
X112675898Y-101234636D01*
X112694466Y-101199897D01*
X112719452Y-101169452D01*
X112749897Y-101144466D01*
X112784636Y-101125898D01*
X112822323Y-101114465D01*
X112867661Y-101110000D01*
X113954339Y-101110000D01*
X113999677Y-101114465D01*
X113999677Y-101114465D01*
G37*
G36*
X120603677Y-101114465D02*
X120641364Y-101125898D01*
X120676103Y-101144466D01*
X120706548Y-101169452D01*
X120731534Y-101199897D01*
X120750102Y-101234636D01*
X120761535Y-101272323D01*
X120766000Y-101317661D01*
X120766000Y-102154339D01*
X120761535Y-102199677D01*
X120750102Y-102237364D01*
X120731534Y-102272103D01*
X120706548Y-102302548D01*
X120676103Y-102327534D01*
X120641364Y-102346102D01*
X120603677Y-102357535D01*
X120558339Y-102362000D01*
X119471661Y-102362000D01*
X119426323Y-102357535D01*
X119388636Y-102346102D01*
X119353897Y-102327534D01*
X119323452Y-102302548D01*
X119298466Y-102272103D01*
X119279898Y-102237364D01*
X119268465Y-102199677D01*
X119264000Y-102154339D01*
X119264000Y-101317661D01*
X119268465Y-101272323D01*
X119279898Y-101234636D01*
X119298466Y-101199897D01*
X119323452Y-101169452D01*
X119353897Y-101144466D01*
X119388636Y-101125898D01*
X119426323Y-101114465D01*
X119471661Y-101110000D01*
X120558339Y-101110000D01*
X120603677Y-101114465D01*
X120603677Y-101114465D01*
G37*
G36*
X124032677Y-99064465D02*
X124070364Y-99075898D01*
X124105103Y-99094466D01*
X124135548Y-99119452D01*
X124160534Y-99149897D01*
X124179102Y-99184636D01*
X124190535Y-99222323D01*
X124195000Y-99267661D01*
X124195000Y-100104339D01*
X124190535Y-100149677D01*
X124179102Y-100187364D01*
X124160534Y-100222103D01*
X124135548Y-100252548D01*
X124105103Y-100277534D01*
X124070364Y-100296102D01*
X124032677Y-100307535D01*
X123987339Y-100312000D01*
X122900661Y-100312000D01*
X122855323Y-100307535D01*
X122817636Y-100296102D01*
X122782897Y-100277534D01*
X122752452Y-100252548D01*
X122727466Y-100222103D01*
X122708898Y-100187364D01*
X122697465Y-100149677D01*
X122693000Y-100104339D01*
X122693000Y-99267661D01*
X122697465Y-99222323D01*
X122708898Y-99184636D01*
X122727466Y-99149897D01*
X122752452Y-99119452D01*
X122782897Y-99094466D01*
X122817636Y-99075898D01*
X122855323Y-99064465D01*
X122900661Y-99060000D01*
X123987339Y-99060000D01*
X124032677Y-99064465D01*
X124032677Y-99064465D01*
G37*
G36*
X120603677Y-99064465D02*
X120641364Y-99075898D01*
X120676103Y-99094466D01*
X120706548Y-99119452D01*
X120731534Y-99149897D01*
X120750102Y-99184636D01*
X120761535Y-99222323D01*
X120766000Y-99267661D01*
X120766000Y-100104339D01*
X120761535Y-100149677D01*
X120750102Y-100187364D01*
X120731534Y-100222103D01*
X120706548Y-100252548D01*
X120676103Y-100277534D01*
X120641364Y-100296102D01*
X120603677Y-100307535D01*
X120558339Y-100312000D01*
X119471661Y-100312000D01*
X119426323Y-100307535D01*
X119388636Y-100296102D01*
X119353897Y-100277534D01*
X119323452Y-100252548D01*
X119298466Y-100222103D01*
X119279898Y-100187364D01*
X119268465Y-100149677D01*
X119264000Y-100104339D01*
X119264000Y-99267661D01*
X119268465Y-99222323D01*
X119279898Y-99184636D01*
X119298466Y-99149897D01*
X119323452Y-99119452D01*
X119353897Y-99094466D01*
X119388636Y-99075898D01*
X119426323Y-99064465D01*
X119471661Y-99060000D01*
X120558339Y-99060000D01*
X120603677Y-99064465D01*
X120603677Y-99064465D01*
G37*
G36*
X113999677Y-99064465D02*
X114037364Y-99075898D01*
X114072103Y-99094466D01*
X114102548Y-99119452D01*
X114127534Y-99149897D01*
X114146102Y-99184636D01*
X114157535Y-99222323D01*
X114162000Y-99267661D01*
X114162000Y-100104339D01*
X114157535Y-100149677D01*
X114146102Y-100187364D01*
X114127534Y-100222103D01*
X114102548Y-100252548D01*
X114072103Y-100277534D01*
X114037364Y-100296102D01*
X113999677Y-100307535D01*
X113954339Y-100312000D01*
X112867661Y-100312000D01*
X112822323Y-100307535D01*
X112784636Y-100296102D01*
X112749897Y-100277534D01*
X112719452Y-100252548D01*
X112694466Y-100222103D01*
X112675898Y-100187364D01*
X112664465Y-100149677D01*
X112660000Y-100104339D01*
X112660000Y-99267661D01*
X112664465Y-99222323D01*
X112675898Y-99184636D01*
X112694466Y-99149897D01*
X112719452Y-99119452D01*
X112749897Y-99094466D01*
X112784636Y-99075898D01*
X112822323Y-99064465D01*
X112867661Y-99060000D01*
X113954339Y-99060000D01*
X113999677Y-99064465D01*
X113999677Y-99064465D01*
G37*
G36*
X117301677Y-99064465D02*
X117339364Y-99075898D01*
X117374103Y-99094466D01*
X117404548Y-99119452D01*
X117429534Y-99149897D01*
X117448102Y-99184636D01*
X117459535Y-99222323D01*
X117464000Y-99267661D01*
X117464000Y-100104339D01*
X117459535Y-100149677D01*
X117448102Y-100187364D01*
X117429534Y-100222103D01*
X117404548Y-100252548D01*
X117374103Y-100277534D01*
X117339364Y-100296102D01*
X117301677Y-100307535D01*
X117256339Y-100312000D01*
X116169661Y-100312000D01*
X116124323Y-100307535D01*
X116086636Y-100296102D01*
X116051897Y-100277534D01*
X116021452Y-100252548D01*
X115996466Y-100222103D01*
X115977898Y-100187364D01*
X115966465Y-100149677D01*
X115962000Y-100104339D01*
X115962000Y-99267661D01*
X115966465Y-99222323D01*
X115977898Y-99184636D01*
X115996466Y-99149897D01*
X116021452Y-99119452D01*
X116051897Y-99094466D01*
X116086636Y-99075898D01*
X116124323Y-99064465D01*
X116169661Y-99060000D01*
X117256339Y-99060000D01*
X117301677Y-99064465D01*
X117301677Y-99064465D01*
G37*
G36*
X130932400Y-100132400D02*
X130230400Y-100132400D01*
X130230400Y-98480400D01*
X130932400Y-98480400D01*
X130932400Y-100132400D01*
X130932400Y-100132400D01*
G37*
G36*
X129662400Y-100132400D02*
X128960400Y-100132400D01*
X128960400Y-98480400D01*
X129662400Y-98480400D01*
X129662400Y-100132400D01*
X129662400Y-100132400D01*
G37*
G36*
X127122400Y-100132400D02*
X126420400Y-100132400D01*
X126420400Y-98480400D01*
X127122400Y-98480400D01*
X127122400Y-100132400D01*
X127122400Y-100132400D01*
G37*
G36*
X128392400Y-100132400D02*
X127690400Y-100132400D01*
X127690400Y-98480400D01*
X128392400Y-98480400D01*
X128392400Y-100132400D01*
X128392400Y-100132400D01*
G37*
G36*
X126890070Y-95493895D02*
X125888070Y-95493895D01*
X125888070Y-94191895D01*
X126890070Y-94191895D01*
X126890070Y-95493895D01*
X126890070Y-95493895D01*
G37*
G36*
X125620070Y-95493895D02*
X124618070Y-95493895D01*
X124618070Y-94191895D01*
X125620070Y-94191895D01*
X125620070Y-95493895D01*
X125620070Y-95493895D01*
G37*
G36*
X124350070Y-95493895D02*
X123348070Y-95493895D01*
X123348070Y-94191895D01*
X124350070Y-94191895D01*
X124350070Y-95493895D01*
X124350070Y-95493895D01*
G37*
G36*
X121810070Y-95493895D02*
X120808070Y-95493895D01*
X120808070Y-94191895D01*
X121810070Y-94191895D01*
X121810070Y-95493895D01*
X121810070Y-95493895D01*
G37*
G36*
X120540070Y-95493895D02*
X119538070Y-95493895D01*
X119538070Y-94191895D01*
X120540070Y-94191895D01*
X120540070Y-95493895D01*
X120540070Y-95493895D01*
G37*
G36*
X116730070Y-95493895D02*
X115728070Y-95493895D01*
X115728070Y-94191895D01*
X116730070Y-94191895D01*
X116730070Y-95493895D01*
X116730070Y-95493895D01*
G37*
G36*
X114190070Y-95493895D02*
X113188070Y-95493895D01*
X113188070Y-94191895D01*
X114190070Y-94191895D01*
X114190070Y-95493895D01*
X114190070Y-95493895D01*
G37*
G36*
X112920070Y-95493895D02*
X111918070Y-95493895D01*
X111918070Y-94191895D01*
X112920070Y-94191895D01*
X112920070Y-95493895D01*
X112920070Y-95493895D01*
G37*
G36*
X111650070Y-95493895D02*
X110648070Y-95493895D01*
X110648070Y-94191895D01*
X111650070Y-94191895D01*
X111650070Y-95493895D01*
X111650070Y-95493895D01*
G37*
G36*
X118000070Y-95493895D02*
X116998070Y-95493895D01*
X116998070Y-94191895D01*
X118000070Y-94191895D01*
X118000070Y-95493895D01*
X118000070Y-95493895D01*
G37*
G36*
X123080070Y-95493895D02*
X122078070Y-95493895D01*
X122078070Y-94191895D01*
X123080070Y-94191895D01*
X123080070Y-95493895D01*
X123080070Y-95493895D01*
G37*
G36*
X119270070Y-95493895D02*
X118268070Y-95493895D01*
X118268070Y-94191895D01*
X119270070Y-94191895D01*
X119270070Y-95493895D01*
X119270070Y-95493895D01*
G37*
G36*
X115460070Y-95493895D02*
X114458070Y-95493895D01*
X114458070Y-94191895D01*
X115460070Y-94191895D01*
X115460070Y-95493895D01*
X115460070Y-95493895D01*
G37*
G36*
X136351677Y-93113465D02*
X136389364Y-93124898D01*
X136424103Y-93143466D01*
X136454548Y-93168452D01*
X136479534Y-93198897D01*
X136498102Y-93233636D01*
X136509535Y-93271323D01*
X136514000Y-93316661D01*
X136514000Y-94153339D01*
X136509535Y-94198677D01*
X136498102Y-94236364D01*
X136479534Y-94271103D01*
X136454548Y-94301548D01*
X136424103Y-94326534D01*
X136389364Y-94345102D01*
X136351677Y-94356535D01*
X136306339Y-94361000D01*
X135219661Y-94361000D01*
X135174323Y-94356535D01*
X135136636Y-94345102D01*
X135101897Y-94326534D01*
X135071452Y-94301548D01*
X135046466Y-94271103D01*
X135027898Y-94236364D01*
X135016465Y-94198677D01*
X135012000Y-94153339D01*
X135012000Y-93316661D01*
X135016465Y-93271323D01*
X135027898Y-93233636D01*
X135046466Y-93198897D01*
X135071452Y-93168452D01*
X135101897Y-93143466D01*
X135136636Y-93124898D01*
X135174323Y-93113465D01*
X135219661Y-93109000D01*
X136306339Y-93109000D01*
X136351677Y-93113465D01*
X136351677Y-93113465D01*
G37*
G36*
X144987677Y-93113465D02*
X145025364Y-93124898D01*
X145060103Y-93143466D01*
X145090548Y-93168452D01*
X145115534Y-93198897D01*
X145134102Y-93233636D01*
X145145535Y-93271323D01*
X145150000Y-93316661D01*
X145150000Y-94153339D01*
X145145535Y-94198677D01*
X145134102Y-94236364D01*
X145115534Y-94271103D01*
X145090548Y-94301548D01*
X145060103Y-94326534D01*
X145025364Y-94345102D01*
X144987677Y-94356535D01*
X144942339Y-94361000D01*
X143855661Y-94361000D01*
X143810323Y-94356535D01*
X143772636Y-94345102D01*
X143737897Y-94326534D01*
X143707452Y-94301548D01*
X143682466Y-94271103D01*
X143663898Y-94236364D01*
X143652465Y-94198677D01*
X143648000Y-94153339D01*
X143648000Y-93316661D01*
X143652465Y-93271323D01*
X143663898Y-93233636D01*
X143682466Y-93198897D01*
X143707452Y-93168452D01*
X143737897Y-93143466D01*
X143772636Y-93124898D01*
X143810323Y-93113465D01*
X143855661Y-93109000D01*
X144942339Y-93109000D01*
X144987677Y-93113465D01*
X144987677Y-93113465D01*
G37*
G36*
X140669677Y-93113465D02*
X140707364Y-93124898D01*
X140742103Y-93143466D01*
X140772548Y-93168452D01*
X140797534Y-93198897D01*
X140816102Y-93233636D01*
X140827535Y-93271323D01*
X140832000Y-93316661D01*
X140832000Y-94153339D01*
X140827535Y-94198677D01*
X140816102Y-94236364D01*
X140797534Y-94271103D01*
X140772548Y-94301548D01*
X140742103Y-94326534D01*
X140707364Y-94345102D01*
X140669677Y-94356535D01*
X140624339Y-94361000D01*
X139537661Y-94361000D01*
X139492323Y-94356535D01*
X139454636Y-94345102D01*
X139419897Y-94326534D01*
X139389452Y-94301548D01*
X139364466Y-94271103D01*
X139345898Y-94236364D01*
X139334465Y-94198677D01*
X139330000Y-94153339D01*
X139330000Y-93316661D01*
X139334465Y-93271323D01*
X139345898Y-93233636D01*
X139364466Y-93198897D01*
X139389452Y-93168452D01*
X139419897Y-93143466D01*
X139454636Y-93124898D01*
X139492323Y-93113465D01*
X139537661Y-93109000D01*
X140624339Y-93109000D01*
X140669677Y-93113465D01*
X140669677Y-93113465D01*
G37*
G36*
X154259734Y-91451732D02*
X154469202Y-91538496D01*
X154657723Y-91664462D01*
X154818038Y-91824777D01*
X154944004Y-92013298D01*
X155030768Y-92222766D01*
X155075000Y-92445135D01*
X155075000Y-92671865D01*
X155030768Y-92894234D01*
X154944004Y-93103702D01*
X154818038Y-93292223D01*
X154657723Y-93452538D01*
X154469202Y-93578504D01*
X154259734Y-93665268D01*
X154037365Y-93709500D01*
X153810635Y-93709500D01*
X153588266Y-93665268D01*
X153378798Y-93578504D01*
X153190277Y-93452538D01*
X153029962Y-93292223D01*
X152903996Y-93103702D01*
X152817232Y-92894234D01*
X152773000Y-92671865D01*
X152773000Y-92445135D01*
X152817232Y-92222766D01*
X152903996Y-92013298D01*
X153029962Y-91824777D01*
X153190277Y-91664462D01*
X153378798Y-91538496D01*
X153588266Y-91451732D01*
X153810635Y-91407500D01*
X154037365Y-91407500D01*
X154259734Y-91451732D01*
X154259734Y-91451732D01*
G37*
G36*
X136351677Y-91063465D02*
X136389364Y-91074898D01*
X136424103Y-91093466D01*
X136454548Y-91118452D01*
X136479534Y-91148897D01*
X136498102Y-91183636D01*
X136509535Y-91221323D01*
X136514000Y-91266661D01*
X136514000Y-92103339D01*
X136509535Y-92148677D01*
X136498102Y-92186364D01*
X136479534Y-92221103D01*
X136454548Y-92251548D01*
X136424103Y-92276534D01*
X136389364Y-92295102D01*
X136351677Y-92306535D01*
X136306339Y-92311000D01*
X135219661Y-92311000D01*
X135174323Y-92306535D01*
X135136636Y-92295102D01*
X135101897Y-92276534D01*
X135071452Y-92251548D01*
X135046466Y-92221103D01*
X135027898Y-92186364D01*
X135016465Y-92148677D01*
X135012000Y-92103339D01*
X135012000Y-91266661D01*
X135016465Y-91221323D01*
X135027898Y-91183636D01*
X135046466Y-91148897D01*
X135071452Y-91118452D01*
X135101897Y-91093466D01*
X135136636Y-91074898D01*
X135174323Y-91063465D01*
X135219661Y-91059000D01*
X136306339Y-91059000D01*
X136351677Y-91063465D01*
X136351677Y-91063465D01*
G37*
G36*
X144987677Y-91063465D02*
X145025364Y-91074898D01*
X145060103Y-91093466D01*
X145090548Y-91118452D01*
X145115534Y-91148897D01*
X145134102Y-91183636D01*
X145145535Y-91221323D01*
X145150000Y-91266661D01*
X145150000Y-92103339D01*
X145145535Y-92148677D01*
X145134102Y-92186364D01*
X145115534Y-92221103D01*
X145090548Y-92251548D01*
X145060103Y-92276534D01*
X145025364Y-92295102D01*
X144987677Y-92306535D01*
X144942339Y-92311000D01*
X143855661Y-92311000D01*
X143810323Y-92306535D01*
X143772636Y-92295102D01*
X143737897Y-92276534D01*
X143707452Y-92251548D01*
X143682466Y-92221103D01*
X143663898Y-92186364D01*
X143652465Y-92148677D01*
X143648000Y-92103339D01*
X143648000Y-91266661D01*
X143652465Y-91221323D01*
X143663898Y-91183636D01*
X143682466Y-91148897D01*
X143707452Y-91118452D01*
X143737897Y-91093466D01*
X143772636Y-91074898D01*
X143810323Y-91063465D01*
X143855661Y-91059000D01*
X144942339Y-91059000D01*
X144987677Y-91063465D01*
X144987677Y-91063465D01*
G37*
G36*
X140669677Y-91063465D02*
X140707364Y-91074898D01*
X140742103Y-91093466D01*
X140772548Y-91118452D01*
X140797534Y-91148897D01*
X140816102Y-91183636D01*
X140827535Y-91221323D01*
X140832000Y-91266661D01*
X140832000Y-92103339D01*
X140827535Y-92148677D01*
X140816102Y-92186364D01*
X140797534Y-92221103D01*
X140772548Y-92251548D01*
X140742103Y-92276534D01*
X140707364Y-92295102D01*
X140669677Y-92306535D01*
X140624339Y-92311000D01*
X139537661Y-92311000D01*
X139492323Y-92306535D01*
X139454636Y-92295102D01*
X139419897Y-92276534D01*
X139389452Y-92251548D01*
X139364466Y-92221103D01*
X139345898Y-92186364D01*
X139334465Y-92148677D01*
X139330000Y-92103339D01*
X139330000Y-91266661D01*
X139334465Y-91221323D01*
X139345898Y-91183636D01*
X139364466Y-91148897D01*
X139389452Y-91118452D01*
X139419897Y-91093466D01*
X139454636Y-91074898D01*
X139492323Y-91063465D01*
X139537661Y-91059000D01*
X140624339Y-91059000D01*
X140669677Y-91063465D01*
X140669677Y-91063465D01*
G37*
G36*
X107328562Y-90466381D02*
X107363477Y-90476973D01*
X107395665Y-90494178D01*
X107423873Y-90517327D01*
X107447022Y-90545535D01*
X107464227Y-90577723D01*
X107474819Y-90612638D01*
X107479000Y-90655095D01*
X107479000Y-91796305D01*
X107474819Y-91838762D01*
X107464227Y-91873677D01*
X107447022Y-91905865D01*
X107423873Y-91934073D01*
X107395665Y-91957222D01*
X107363477Y-91974427D01*
X107328562Y-91985019D01*
X107286105Y-91989200D01*
X105819895Y-91989200D01*
X105777438Y-91985019D01*
X105742523Y-91974427D01*
X105710335Y-91957222D01*
X105682127Y-91934073D01*
X105658978Y-91905865D01*
X105641773Y-91873677D01*
X105631181Y-91838762D01*
X105627000Y-91796305D01*
X105627000Y-90655095D01*
X105631181Y-90612638D01*
X105641773Y-90577723D01*
X105658978Y-90545535D01*
X105682127Y-90517327D01*
X105710335Y-90494178D01*
X105742523Y-90476973D01*
X105777438Y-90466381D01*
X105819895Y-90462200D01*
X107286105Y-90462200D01*
X107328562Y-90466381D01*
X107328562Y-90466381D01*
G37*
G36*
X113740070Y-91083895D02*
X112368070Y-91083895D01*
X112368070Y-89711895D01*
X113740070Y-89711895D01*
X113740070Y-91083895D01*
X113740070Y-91083895D01*
G37*
G36*
X125170070Y-91083895D02*
X123798070Y-91083895D01*
X123798070Y-89711895D01*
X125170070Y-89711895D01*
X125170070Y-91083895D01*
X125170070Y-91083895D01*
G37*
G36*
X148543677Y-89811465D02*
X148581364Y-89822898D01*
X148616103Y-89841466D01*
X148646548Y-89866452D01*
X148671534Y-89896897D01*
X148690102Y-89931636D01*
X148701535Y-89969323D01*
X148706000Y-90014661D01*
X148706000Y-90851339D01*
X148701535Y-90896677D01*
X148690102Y-90934364D01*
X148671534Y-90969103D01*
X148646548Y-90999548D01*
X148616103Y-91024534D01*
X148581364Y-91043102D01*
X148543677Y-91054535D01*
X148498339Y-91059000D01*
X147411661Y-91059000D01*
X147366323Y-91054535D01*
X147328636Y-91043102D01*
X147293897Y-91024534D01*
X147263452Y-90999548D01*
X147238466Y-90969103D01*
X147219898Y-90934364D01*
X147208465Y-90896677D01*
X147204000Y-90851339D01*
X147204000Y-90014661D01*
X147208465Y-89969323D01*
X147219898Y-89931636D01*
X147238466Y-89896897D01*
X147263452Y-89866452D01*
X147293897Y-89841466D01*
X147328636Y-89822898D01*
X147366323Y-89811465D01*
X147411661Y-89807000D01*
X148498339Y-89807000D01*
X148543677Y-89811465D01*
X148543677Y-89811465D01*
G37*
G36*
X132171677Y-89042465D02*
X132209364Y-89053898D01*
X132244103Y-89072466D01*
X132274548Y-89097452D01*
X132299534Y-89127897D01*
X132318102Y-89162636D01*
X132329535Y-89200323D01*
X132334000Y-89245661D01*
X132334000Y-90332339D01*
X132329535Y-90377677D01*
X132318102Y-90415364D01*
X132299534Y-90450103D01*
X132274548Y-90480548D01*
X132244103Y-90505534D01*
X132209364Y-90524102D01*
X132171677Y-90535535D01*
X132126339Y-90540000D01*
X131289661Y-90540000D01*
X131244323Y-90535535D01*
X131206636Y-90524102D01*
X131171897Y-90505534D01*
X131141452Y-90480548D01*
X131116466Y-90450103D01*
X131097898Y-90415364D01*
X131086465Y-90377677D01*
X131082000Y-90332339D01*
X131082000Y-89245661D01*
X131086465Y-89200323D01*
X131097898Y-89162636D01*
X131116466Y-89127897D01*
X131141452Y-89097452D01*
X131171897Y-89072466D01*
X131206636Y-89053898D01*
X131244323Y-89042465D01*
X131289661Y-89038000D01*
X132126339Y-89038000D01*
X132171677Y-89042465D01*
X132171677Y-89042465D01*
G37*
G36*
X130121677Y-89042465D02*
X130159364Y-89053898D01*
X130194103Y-89072466D01*
X130224548Y-89097452D01*
X130249534Y-89127897D01*
X130268102Y-89162636D01*
X130279535Y-89200323D01*
X130284000Y-89245661D01*
X130284000Y-90332339D01*
X130279535Y-90377677D01*
X130268102Y-90415364D01*
X130249534Y-90450103D01*
X130224548Y-90480548D01*
X130194103Y-90505534D01*
X130159364Y-90524102D01*
X130121677Y-90535535D01*
X130076339Y-90540000D01*
X129239661Y-90540000D01*
X129194323Y-90535535D01*
X129156636Y-90524102D01*
X129121897Y-90505534D01*
X129091452Y-90480548D01*
X129066466Y-90450103D01*
X129047898Y-90415364D01*
X129036465Y-90377677D01*
X129032000Y-90332339D01*
X129032000Y-89245661D01*
X129036465Y-89200323D01*
X129047898Y-89162636D01*
X129066466Y-89127897D01*
X129091452Y-89097452D01*
X129121897Y-89072466D01*
X129156636Y-89053898D01*
X129194323Y-89042465D01*
X129239661Y-89038000D01*
X130076339Y-89038000D01*
X130121677Y-89042465D01*
X130121677Y-89042465D01*
G37*
G36*
X136538562Y-88358181D02*
X136573477Y-88368773D01*
X136605665Y-88385978D01*
X136633873Y-88409127D01*
X136657022Y-88437335D01*
X136674227Y-88469523D01*
X136684819Y-88504438D01*
X136689000Y-88546895D01*
X136689000Y-89688105D01*
X136684819Y-89730562D01*
X136674227Y-89765477D01*
X136657022Y-89797665D01*
X136633873Y-89825873D01*
X136605665Y-89849022D01*
X136573477Y-89866227D01*
X136538562Y-89876819D01*
X136496105Y-89881000D01*
X135029895Y-89881000D01*
X134987438Y-89876819D01*
X134952523Y-89866227D01*
X134920335Y-89849022D01*
X134892127Y-89825873D01*
X134868978Y-89797665D01*
X134851773Y-89765477D01*
X134841181Y-89730562D01*
X134837000Y-89688105D01*
X134837000Y-88546895D01*
X134841181Y-88504438D01*
X134851773Y-88469523D01*
X134868978Y-88437335D01*
X134892127Y-88409127D01*
X134920335Y-88385978D01*
X134952523Y-88368773D01*
X134987438Y-88358181D01*
X135029895Y-88354000D01*
X136496105Y-88354000D01*
X136538562Y-88358181D01*
X136538562Y-88358181D01*
G37*
G36*
X145174562Y-88358181D02*
X145209477Y-88368773D01*
X145241665Y-88385978D01*
X145269873Y-88409127D01*
X145293022Y-88437335D01*
X145310227Y-88469523D01*
X145320819Y-88504438D01*
X145325000Y-88546895D01*
X145325000Y-89688105D01*
X145320819Y-89730562D01*
X145310227Y-89765477D01*
X145293022Y-89797665D01*
X145269873Y-89825873D01*
X145241665Y-89849022D01*
X145209477Y-89866227D01*
X145174562Y-89876819D01*
X145132105Y-89881000D01*
X143665895Y-89881000D01*
X143623438Y-89876819D01*
X143588523Y-89866227D01*
X143556335Y-89849022D01*
X143528127Y-89825873D01*
X143504978Y-89797665D01*
X143487773Y-89765477D01*
X143477181Y-89730562D01*
X143473000Y-89688105D01*
X143473000Y-88546895D01*
X143477181Y-88504438D01*
X143487773Y-88469523D01*
X143504978Y-88437335D01*
X143528127Y-88409127D01*
X143556335Y-88385978D01*
X143588523Y-88368773D01*
X143623438Y-88358181D01*
X143665895Y-88354000D01*
X145132105Y-88354000D01*
X145174562Y-88358181D01*
X145174562Y-88358181D01*
G37*
G36*
X140856562Y-88358181D02*
X140891477Y-88368773D01*
X140923665Y-88385978D01*
X140951873Y-88409127D01*
X140975022Y-88437335D01*
X140992227Y-88469523D01*
X141002819Y-88504438D01*
X141007000Y-88546895D01*
X141007000Y-89688105D01*
X141002819Y-89730562D01*
X140992227Y-89765477D01*
X140975022Y-89797665D01*
X140951873Y-89825873D01*
X140923665Y-89849022D01*
X140891477Y-89866227D01*
X140856562Y-89876819D01*
X140814105Y-89881000D01*
X139347895Y-89881000D01*
X139305438Y-89876819D01*
X139270523Y-89866227D01*
X139238335Y-89849022D01*
X139210127Y-89825873D01*
X139186978Y-89797665D01*
X139169773Y-89765477D01*
X139159181Y-89730562D01*
X139155000Y-89688105D01*
X139155000Y-88546895D01*
X139159181Y-88504438D01*
X139169773Y-88469523D01*
X139186978Y-88437335D01*
X139210127Y-88409127D01*
X139238335Y-88385978D01*
X139270523Y-88368773D01*
X139305438Y-88358181D01*
X139347895Y-88354000D01*
X140814105Y-88354000D01*
X140856562Y-88358181D01*
X140856562Y-88358181D01*
G37*
G36*
X155575000Y-89709500D02*
X154273000Y-89709500D01*
X154273000Y-88407500D01*
X155575000Y-88407500D01*
X155575000Y-89709500D01*
X155575000Y-89709500D01*
G37*
G36*
X153113890Y-88432517D02*
X153232361Y-88481589D01*
X153338992Y-88552838D01*
X153429662Y-88643508D01*
X153500911Y-88750139D01*
X153549983Y-88868610D01*
X153575000Y-88994381D01*
X153575000Y-89122619D01*
X153549983Y-89248390D01*
X153500911Y-89366861D01*
X153429662Y-89473492D01*
X153338992Y-89564162D01*
X153232361Y-89635411D01*
X153113890Y-89684483D01*
X152988119Y-89709500D01*
X152859881Y-89709500D01*
X152734110Y-89684483D01*
X152615639Y-89635411D01*
X152509008Y-89564162D01*
X152418338Y-89473492D01*
X152347089Y-89366861D01*
X152298017Y-89248390D01*
X152273000Y-89122619D01*
X152273000Y-88994381D01*
X152298017Y-88868610D01*
X152347089Y-88750139D01*
X152418338Y-88643508D01*
X152509008Y-88552838D01*
X152615639Y-88481589D01*
X152734110Y-88432517D01*
X152859881Y-88407500D01*
X152988119Y-88407500D01*
X153113890Y-88432517D01*
X153113890Y-88432517D01*
G37*
G36*
X107328562Y-87491381D02*
X107363477Y-87501973D01*
X107395665Y-87519178D01*
X107423873Y-87542327D01*
X107447022Y-87570535D01*
X107464227Y-87602723D01*
X107474819Y-87637638D01*
X107479000Y-87680095D01*
X107479000Y-88821305D01*
X107474819Y-88863762D01*
X107464227Y-88898677D01*
X107447022Y-88930865D01*
X107423873Y-88959073D01*
X107395665Y-88982222D01*
X107363477Y-88999427D01*
X107328562Y-89010019D01*
X107286105Y-89014200D01*
X105819895Y-89014200D01*
X105777438Y-89010019D01*
X105742523Y-88999427D01*
X105710335Y-88982222D01*
X105682127Y-88959073D01*
X105658978Y-88930865D01*
X105641773Y-88898677D01*
X105631181Y-88863762D01*
X105627000Y-88821305D01*
X105627000Y-87680095D01*
X105631181Y-87637638D01*
X105641773Y-87602723D01*
X105658978Y-87570535D01*
X105682127Y-87542327D01*
X105710335Y-87519178D01*
X105742523Y-87501973D01*
X105777438Y-87491381D01*
X105819895Y-87487200D01*
X107286105Y-87487200D01*
X107328562Y-87491381D01*
X107328562Y-87491381D01*
G37*
G36*
X148543677Y-87761465D02*
X148581364Y-87772898D01*
X148616103Y-87791466D01*
X148646548Y-87816452D01*
X148671534Y-87846897D01*
X148690102Y-87881636D01*
X148701535Y-87919323D01*
X148706000Y-87964661D01*
X148706000Y-88801339D01*
X148701535Y-88846677D01*
X148690102Y-88884364D01*
X148671534Y-88919103D01*
X148646548Y-88949548D01*
X148616103Y-88974534D01*
X148581364Y-88993102D01*
X148543677Y-89004535D01*
X148498339Y-89009000D01*
X147411661Y-89009000D01*
X147366323Y-89004535D01*
X147328636Y-88993102D01*
X147293897Y-88974534D01*
X147263452Y-88949548D01*
X147238466Y-88919103D01*
X147219898Y-88884364D01*
X147208465Y-88846677D01*
X147204000Y-88801339D01*
X147204000Y-87964661D01*
X147208465Y-87919323D01*
X147219898Y-87881636D01*
X147238466Y-87846897D01*
X147263452Y-87816452D01*
X147293897Y-87791466D01*
X147328636Y-87772898D01*
X147366323Y-87761465D01*
X147411661Y-87757000D01*
X148498339Y-87757000D01*
X148543677Y-87761465D01*
X148543677Y-87761465D01*
G37*
G36*
X125170070Y-88543895D02*
X123798070Y-88543895D01*
X123798070Y-87171895D01*
X125170070Y-87171895D01*
X125170070Y-88543895D01*
X125170070Y-88543895D01*
G37*
G36*
X113740070Y-88543895D02*
X112368070Y-88543895D01*
X112368070Y-87171895D01*
X113740070Y-87171895D01*
X113740070Y-88543895D01*
X113740070Y-88543895D01*
G37*
G36*
X153113890Y-86432517D02*
X153232361Y-86481589D01*
X153338992Y-86552838D01*
X153429662Y-86643508D01*
X153500911Y-86750139D01*
X153549983Y-86868610D01*
X153575000Y-86994381D01*
X153575000Y-87122619D01*
X153549983Y-87248390D01*
X153500911Y-87366861D01*
X153429662Y-87473492D01*
X153338992Y-87564162D01*
X153338989Y-87564164D01*
X153338988Y-87564165D01*
X153281282Y-87602723D01*
X153232361Y-87635411D01*
X153113890Y-87684483D01*
X152988119Y-87709500D01*
X152859881Y-87709500D01*
X152734110Y-87684483D01*
X152615639Y-87635411D01*
X152566718Y-87602723D01*
X152509012Y-87564165D01*
X152509011Y-87564164D01*
X152509008Y-87564162D01*
X152418338Y-87473492D01*
X152347089Y-87366861D01*
X152298017Y-87248390D01*
X152273000Y-87122619D01*
X152273000Y-86994381D01*
X152298017Y-86868610D01*
X152347089Y-86750139D01*
X152418338Y-86643508D01*
X152509008Y-86552838D01*
X152615639Y-86481589D01*
X152734110Y-86432517D01*
X152859881Y-86407500D01*
X152988119Y-86407500D01*
X153113890Y-86432517D01*
X153113890Y-86432517D01*
G37*
G36*
X155113890Y-86432517D02*
X155232361Y-86481589D01*
X155338992Y-86552838D01*
X155429662Y-86643508D01*
X155500911Y-86750139D01*
X155549983Y-86868610D01*
X155575000Y-86994381D01*
X155575000Y-87122619D01*
X155549983Y-87248390D01*
X155500911Y-87366861D01*
X155429662Y-87473492D01*
X155338992Y-87564162D01*
X155338989Y-87564164D01*
X155338988Y-87564165D01*
X155281282Y-87602723D01*
X155232361Y-87635411D01*
X155113890Y-87684483D01*
X154988119Y-87709500D01*
X154859881Y-87709500D01*
X154734110Y-87684483D01*
X154615639Y-87635411D01*
X154566718Y-87602723D01*
X154509012Y-87564165D01*
X154509011Y-87564164D01*
X154509008Y-87564162D01*
X154418338Y-87473492D01*
X154347089Y-87366861D01*
X154298017Y-87248390D01*
X154273000Y-87122619D01*
X154273000Y-86994381D01*
X154298017Y-86868610D01*
X154347089Y-86750139D01*
X154418338Y-86643508D01*
X154509008Y-86552838D01*
X154615639Y-86481589D01*
X154734110Y-86432517D01*
X154859881Y-86407500D01*
X154988119Y-86407500D01*
X155113890Y-86432517D01*
X155113890Y-86432517D01*
G37*
G36*
X150702677Y-85883465D02*
X150740364Y-85894898D01*
X150775103Y-85913466D01*
X150805548Y-85938452D01*
X150830534Y-85968897D01*
X150849102Y-86003636D01*
X150860535Y-86041323D01*
X150865000Y-86086661D01*
X150865000Y-86923339D01*
X150860535Y-86968677D01*
X150849102Y-87006364D01*
X150830534Y-87041103D01*
X150805548Y-87071548D01*
X150775103Y-87096534D01*
X150740364Y-87115102D01*
X150702677Y-87126535D01*
X150657339Y-87131000D01*
X149570661Y-87131000D01*
X149525323Y-87126535D01*
X149487636Y-87115102D01*
X149452897Y-87096534D01*
X149422452Y-87071548D01*
X149397466Y-87041103D01*
X149378898Y-87006364D01*
X149367465Y-86968677D01*
X149363000Y-86923339D01*
X149363000Y-86086661D01*
X149367465Y-86041323D01*
X149378898Y-86003636D01*
X149397466Y-85968897D01*
X149422452Y-85938452D01*
X149452897Y-85913466D01*
X149487636Y-85894898D01*
X149525323Y-85883465D01*
X149570661Y-85879000D01*
X150657339Y-85879000D01*
X150702677Y-85883465D01*
X150702677Y-85883465D01*
G37*
G36*
X145174562Y-85383181D02*
X145209477Y-85393773D01*
X145241665Y-85410978D01*
X145269873Y-85434127D01*
X145293022Y-85462335D01*
X145310227Y-85494523D01*
X145320819Y-85529438D01*
X145325000Y-85571895D01*
X145325000Y-86713105D01*
X145320819Y-86755562D01*
X145310227Y-86790477D01*
X145293022Y-86822665D01*
X145269873Y-86850873D01*
X145241665Y-86874022D01*
X145209477Y-86891227D01*
X145174562Y-86901819D01*
X145132105Y-86906000D01*
X143665895Y-86906000D01*
X143623438Y-86901819D01*
X143588523Y-86891227D01*
X143556335Y-86874022D01*
X143528127Y-86850873D01*
X143504978Y-86822665D01*
X143487773Y-86790477D01*
X143477181Y-86755562D01*
X143473000Y-86713105D01*
X143473000Y-85571895D01*
X143477181Y-85529438D01*
X143487773Y-85494523D01*
X143504978Y-85462335D01*
X143528127Y-85434127D01*
X143556335Y-85410978D01*
X143588523Y-85393773D01*
X143623438Y-85383181D01*
X143665895Y-85379000D01*
X145132105Y-85379000D01*
X145174562Y-85383181D01*
X145174562Y-85383181D01*
G37*
G36*
X140856562Y-85383181D02*
X140891477Y-85393773D01*
X140923665Y-85410978D01*
X140951873Y-85434127D01*
X140975022Y-85462335D01*
X140992227Y-85494523D01*
X141002819Y-85529438D01*
X141007000Y-85571895D01*
X141007000Y-86713105D01*
X141002819Y-86755562D01*
X140992227Y-86790477D01*
X140975022Y-86822665D01*
X140951873Y-86850873D01*
X140923665Y-86874022D01*
X140891477Y-86891227D01*
X140856562Y-86901819D01*
X140814105Y-86906000D01*
X139347895Y-86906000D01*
X139305438Y-86901819D01*
X139270523Y-86891227D01*
X139238335Y-86874022D01*
X139210127Y-86850873D01*
X139186978Y-86822665D01*
X139169773Y-86790477D01*
X139159181Y-86755562D01*
X139155000Y-86713105D01*
X139155000Y-85571895D01*
X139159181Y-85529438D01*
X139169773Y-85494523D01*
X139186978Y-85462335D01*
X139210127Y-85434127D01*
X139238335Y-85410978D01*
X139270523Y-85393773D01*
X139305438Y-85383181D01*
X139347895Y-85379000D01*
X140814105Y-85379000D01*
X140856562Y-85383181D01*
X140856562Y-85383181D01*
G37*
G36*
X136538562Y-85383181D02*
X136573477Y-85393773D01*
X136605665Y-85410978D01*
X136633873Y-85434127D01*
X136657022Y-85462335D01*
X136674227Y-85494523D01*
X136684819Y-85529438D01*
X136689000Y-85571895D01*
X136689000Y-86713105D01*
X136684819Y-86755562D01*
X136674227Y-86790477D01*
X136657022Y-86822665D01*
X136633873Y-86850873D01*
X136605665Y-86874022D01*
X136573477Y-86891227D01*
X136538562Y-86901819D01*
X136496105Y-86906000D01*
X135029895Y-86906000D01*
X134987438Y-86901819D01*
X134952523Y-86891227D01*
X134920335Y-86874022D01*
X134892127Y-86850873D01*
X134868978Y-86822665D01*
X134851773Y-86790477D01*
X134841181Y-86755562D01*
X134837000Y-86713105D01*
X134837000Y-85571895D01*
X134841181Y-85529438D01*
X134851773Y-85494523D01*
X134868978Y-85462335D01*
X134892127Y-85434127D01*
X134920335Y-85410978D01*
X134952523Y-85393773D01*
X134987438Y-85383181D01*
X135029895Y-85379000D01*
X136496105Y-85379000D01*
X136538562Y-85383181D01*
X136538562Y-85383181D01*
G37*
G36*
X107141677Y-84985465D02*
X107179364Y-84996898D01*
X107214103Y-85015466D01*
X107244548Y-85040452D01*
X107269534Y-85070897D01*
X107288102Y-85105636D01*
X107299535Y-85143323D01*
X107304000Y-85188661D01*
X107304000Y-86025339D01*
X107299535Y-86070677D01*
X107288102Y-86108364D01*
X107269534Y-86143103D01*
X107244548Y-86173548D01*
X107214103Y-86198534D01*
X107179364Y-86217102D01*
X107141677Y-86228535D01*
X107096339Y-86233000D01*
X106009661Y-86233000D01*
X105964323Y-86228535D01*
X105926636Y-86217102D01*
X105891897Y-86198534D01*
X105861452Y-86173548D01*
X105836466Y-86143103D01*
X105817898Y-86108364D01*
X105806465Y-86070677D01*
X105802000Y-86025339D01*
X105802000Y-85188661D01*
X105806465Y-85143323D01*
X105817898Y-85105636D01*
X105836466Y-85070897D01*
X105861452Y-85040452D01*
X105891897Y-85015466D01*
X105926636Y-84996898D01*
X105964323Y-84985465D01*
X106009661Y-84981000D01*
X107096339Y-84981000D01*
X107141677Y-84985465D01*
X107141677Y-84985465D01*
G37*
G36*
X113740070Y-86003895D02*
X112368070Y-86003895D01*
X112368070Y-84631895D01*
X113740070Y-84631895D01*
X113740070Y-86003895D01*
X113740070Y-86003895D01*
G37*
G36*
X125170070Y-86003895D02*
X123798070Y-86003895D01*
X123798070Y-84631895D01*
X125170070Y-84631895D01*
X125170070Y-86003895D01*
X125170070Y-86003895D01*
G37*
G36*
X153113890Y-84432517D02*
X153232361Y-84481589D01*
X153338992Y-84552838D01*
X153429662Y-84643508D01*
X153500911Y-84750139D01*
X153549983Y-84868610D01*
X153575000Y-84994381D01*
X153575000Y-85122619D01*
X153549983Y-85248390D01*
X153500911Y-85366861D01*
X153429662Y-85473492D01*
X153338992Y-85564162D01*
X153232361Y-85635411D01*
X153113890Y-85684483D01*
X152988119Y-85709500D01*
X152859881Y-85709500D01*
X152734110Y-85684483D01*
X152615639Y-85635411D01*
X152509008Y-85564162D01*
X152418338Y-85473492D01*
X152347089Y-85366861D01*
X152298017Y-85248390D01*
X152273000Y-85122619D01*
X152273000Y-84994381D01*
X152298017Y-84868610D01*
X152347089Y-84750139D01*
X152418338Y-84643508D01*
X152509008Y-84552838D01*
X152615639Y-84481589D01*
X152734110Y-84432517D01*
X152859881Y-84407500D01*
X152988119Y-84407500D01*
X153113890Y-84432517D01*
X153113890Y-84432517D01*
G37*
G36*
X155113890Y-84432517D02*
X155232361Y-84481589D01*
X155338992Y-84552838D01*
X155429662Y-84643508D01*
X155500911Y-84750139D01*
X155549983Y-84868610D01*
X155575000Y-84994381D01*
X155575000Y-85122619D01*
X155549983Y-85248390D01*
X155500911Y-85366861D01*
X155429662Y-85473492D01*
X155338992Y-85564162D01*
X155232361Y-85635411D01*
X155113890Y-85684483D01*
X154988119Y-85709500D01*
X154859881Y-85709500D01*
X154734110Y-85684483D01*
X154615639Y-85635411D01*
X154509008Y-85564162D01*
X154418338Y-85473492D01*
X154347089Y-85366861D01*
X154298017Y-85248390D01*
X154273000Y-85122619D01*
X154273000Y-84994381D01*
X154298017Y-84868610D01*
X154347089Y-84750139D01*
X154418338Y-84643508D01*
X154509008Y-84552838D01*
X154615639Y-84481589D01*
X154734110Y-84432517D01*
X154859881Y-84407500D01*
X154988119Y-84407500D01*
X155113890Y-84432517D01*
X155113890Y-84432517D01*
G37*
G36*
X150702677Y-83833465D02*
X150740364Y-83844898D01*
X150775103Y-83863466D01*
X150805548Y-83888452D01*
X150830534Y-83918897D01*
X150849102Y-83953636D01*
X150860535Y-83991323D01*
X150865000Y-84036661D01*
X150865000Y-84873339D01*
X150860535Y-84918677D01*
X150849102Y-84956364D01*
X150830534Y-84991103D01*
X150805548Y-85021548D01*
X150775103Y-85046534D01*
X150740364Y-85065102D01*
X150702677Y-85076535D01*
X150657339Y-85081000D01*
X149570661Y-85081000D01*
X149525323Y-85076535D01*
X149487636Y-85065102D01*
X149452897Y-85046534D01*
X149422452Y-85021548D01*
X149397466Y-84991103D01*
X149378898Y-84956364D01*
X149367465Y-84918677D01*
X149363000Y-84873339D01*
X149363000Y-84036661D01*
X149367465Y-83991323D01*
X149378898Y-83953636D01*
X149397466Y-83918897D01*
X149422452Y-83888452D01*
X149452897Y-83863466D01*
X149487636Y-83844898D01*
X149525323Y-83833465D01*
X149570661Y-83829000D01*
X150657339Y-83829000D01*
X150702677Y-83833465D01*
X150702677Y-83833465D01*
G37*
G36*
X107141677Y-82935465D02*
X107179364Y-82946898D01*
X107214103Y-82965466D01*
X107244548Y-82990452D01*
X107269534Y-83020897D01*
X107288102Y-83055636D01*
X107299535Y-83093323D01*
X107304000Y-83138661D01*
X107304000Y-83975339D01*
X107299535Y-84020677D01*
X107288102Y-84058364D01*
X107269534Y-84093103D01*
X107244548Y-84123548D01*
X107214103Y-84148534D01*
X107179364Y-84167102D01*
X107141677Y-84178535D01*
X107096339Y-84183000D01*
X106009661Y-84183000D01*
X105964323Y-84178535D01*
X105926636Y-84167102D01*
X105891897Y-84148534D01*
X105861452Y-84123548D01*
X105836466Y-84093103D01*
X105817898Y-84058364D01*
X105806465Y-84020677D01*
X105802000Y-83975339D01*
X105802000Y-83138661D01*
X105806465Y-83093323D01*
X105817898Y-83055636D01*
X105836466Y-83020897D01*
X105861452Y-82990452D01*
X105891897Y-82965466D01*
X105926636Y-82946898D01*
X105964323Y-82935465D01*
X106009661Y-82931000D01*
X107096339Y-82931000D01*
X107141677Y-82935465D01*
X107141677Y-82935465D01*
G37*
G36*
X113740070Y-83463895D02*
X112368070Y-83463895D01*
X112368070Y-82091895D01*
X113740070Y-82091895D01*
X113740070Y-83463895D01*
X113740070Y-83463895D01*
G37*
G36*
X125170070Y-83463895D02*
X123798070Y-83463895D01*
X123798070Y-82091895D01*
X125170070Y-82091895D01*
X125170070Y-83463895D01*
X125170070Y-83463895D01*
G37*
G36*
X154259734Y-80451732D02*
X154469202Y-80538496D01*
X154657723Y-80664462D01*
X154818038Y-80824777D01*
X154944004Y-81013298D01*
X155030768Y-81222766D01*
X155075000Y-81445135D01*
X155075000Y-81671865D01*
X155030768Y-81894234D01*
X154944004Y-82103702D01*
X154818038Y-82292223D01*
X154657723Y-82452538D01*
X154469202Y-82578504D01*
X154259734Y-82665268D01*
X154037365Y-82709500D01*
X153810635Y-82709500D01*
X153588266Y-82665268D01*
X153378798Y-82578504D01*
X153190277Y-82452538D01*
X153029962Y-82292223D01*
X152903996Y-82103702D01*
X152817232Y-81894234D01*
X152773000Y-81671865D01*
X152773000Y-81445135D01*
X152817232Y-81222766D01*
X152903996Y-81013298D01*
X153029962Y-80824777D01*
X153190277Y-80664462D01*
X153378798Y-80538496D01*
X153588266Y-80451732D01*
X153810635Y-80407500D01*
X154037365Y-80407500D01*
X154259734Y-80451732D01*
X154259734Y-80451732D01*
G37*
G36*
X150771000Y-81209000D02*
X149109000Y-81209000D01*
X149109000Y-78557000D01*
X150771000Y-78557000D01*
X150771000Y-81209000D01*
X150771000Y-81209000D01*
G37*
G36*
X148071000Y-81209000D02*
X146409000Y-81209000D01*
X146409000Y-80457000D01*
X148071000Y-80457000D01*
X148071000Y-81209000D01*
X148071000Y-81209000D01*
G37*
G36*
X133139000Y-80807000D02*
X132037000Y-80807000D01*
X132037000Y-78705000D01*
X133139000Y-78705000D01*
X133139000Y-80807000D01*
X133139000Y-80807000D01*
G37*
G36*
X135679000Y-80807000D02*
X134577000Y-80807000D01*
X134577000Y-78705000D01*
X135679000Y-78705000D01*
X135679000Y-80807000D01*
X135679000Y-80807000D01*
G37*
G36*
X140759000Y-80807000D02*
X139657000Y-80807000D01*
X139657000Y-78705000D01*
X140759000Y-78705000D01*
X140759000Y-80807000D01*
X140759000Y-80807000D01*
G37*
G36*
X143299000Y-80807000D02*
X142197000Y-80807000D01*
X142197000Y-78705000D01*
X143299000Y-78705000D01*
X143299000Y-80807000D01*
X143299000Y-80807000D01*
G37*
G36*
X138219000Y-80807000D02*
X137117000Y-80807000D01*
X137117000Y-78705000D01*
X138219000Y-78705000D01*
X138219000Y-80807000D01*
X138219000Y-80807000D01*
G37*
G36*
X148071000Y-79309000D02*
X146409000Y-79309000D01*
X146409000Y-78557000D01*
X148071000Y-78557000D01*
X148071000Y-79309000D01*
X148071000Y-79309000D01*
G37*
G36*
X126890070Y-78983895D02*
X125888070Y-78983895D01*
X125888070Y-77681895D01*
X126890070Y-77681895D01*
X126890070Y-78983895D01*
X126890070Y-78983895D01*
G37*
G36*
X120540070Y-78983895D02*
X119538070Y-78983895D01*
X119538070Y-77681895D01*
X120540070Y-77681895D01*
X120540070Y-78983895D01*
X120540070Y-78983895D01*
G37*
G36*
X111650070Y-78983895D02*
X110648070Y-78983895D01*
X110648070Y-77681895D01*
X111650070Y-77681895D01*
X111650070Y-78983895D01*
X111650070Y-78983895D01*
G37*
G36*
X112920070Y-78983895D02*
X111918070Y-78983895D01*
X111918070Y-77681895D01*
X112920070Y-77681895D01*
X112920070Y-78983895D01*
X112920070Y-78983895D01*
G37*
G36*
X114190070Y-78983895D02*
X113188070Y-78983895D01*
X113188070Y-77681895D01*
X114190070Y-77681895D01*
X114190070Y-78983895D01*
X114190070Y-78983895D01*
G37*
G36*
X121810070Y-78983895D02*
X120808070Y-78983895D01*
X120808070Y-77681895D01*
X121810070Y-77681895D01*
X121810070Y-78983895D01*
X121810070Y-78983895D01*
G37*
G36*
X123080070Y-78983895D02*
X122078070Y-78983895D01*
X122078070Y-77681895D01*
X123080070Y-77681895D01*
X123080070Y-78983895D01*
X123080070Y-78983895D01*
G37*
G36*
X124350070Y-78983895D02*
X123348070Y-78983895D01*
X123348070Y-77681895D01*
X124350070Y-77681895D01*
X124350070Y-78983895D01*
X124350070Y-78983895D01*
G37*
G36*
X125620070Y-78983895D02*
X124618070Y-78983895D01*
X124618070Y-77681895D01*
X125620070Y-77681895D01*
X125620070Y-78983895D01*
X125620070Y-78983895D01*
G37*
G36*
X150055562Y-74770181D02*
X150090477Y-74780773D01*
X150122665Y-74797978D01*
X150150873Y-74821127D01*
X150174022Y-74849335D01*
X150191227Y-74881523D01*
X150201819Y-74916438D01*
X150206000Y-74958895D01*
X150206000Y-76425105D01*
X150201819Y-76467562D01*
X150191227Y-76502477D01*
X150174022Y-76534665D01*
X150150873Y-76562873D01*
X150122665Y-76586022D01*
X150090477Y-76603227D01*
X150055562Y-76613819D01*
X150013105Y-76618000D01*
X148871895Y-76618000D01*
X148829438Y-76613819D01*
X148794523Y-76603227D01*
X148762335Y-76586022D01*
X148734127Y-76562873D01*
X148710978Y-76534665D01*
X148693773Y-76502477D01*
X148683181Y-76467562D01*
X148679000Y-76425105D01*
X148679000Y-74958895D01*
X148683181Y-74916438D01*
X148693773Y-74881523D01*
X148710978Y-74849335D01*
X148734127Y-74821127D01*
X148762335Y-74797978D01*
X148794523Y-74780773D01*
X148829438Y-74770181D01*
X148871895Y-74766000D01*
X150013105Y-74766000D01*
X150055562Y-74770181D01*
X150055562Y-74770181D01*
G37*
G36*
X147080562Y-74770181D02*
X147115477Y-74780773D01*
X147147665Y-74797978D01*
X147175873Y-74821127D01*
X147199022Y-74849335D01*
X147216227Y-74881523D01*
X147226819Y-74916438D01*
X147231000Y-74958895D01*
X147231000Y-76425105D01*
X147226819Y-76467562D01*
X147216227Y-76502477D01*
X147199022Y-76534665D01*
X147175873Y-76562873D01*
X147147665Y-76586022D01*
X147115477Y-76603227D01*
X147080562Y-76613819D01*
X147038105Y-76618000D01*
X145896895Y-76618000D01*
X145854438Y-76613819D01*
X145819523Y-76603227D01*
X145787335Y-76586022D01*
X145759127Y-76562873D01*
X145735978Y-76534665D01*
X145718773Y-76502477D01*
X145708181Y-76467562D01*
X145704000Y-76425105D01*
X145704000Y-74958895D01*
X145708181Y-74916438D01*
X145718773Y-74881523D01*
X145735978Y-74849335D01*
X145759127Y-74821127D01*
X145787335Y-74797978D01*
X145819523Y-74780773D01*
X145854438Y-74770181D01*
X145896895Y-74766000D01*
X147038105Y-74766000D01*
X147080562Y-74770181D01*
X147080562Y-74770181D01*
G37*
G36*
X155193239Y-69709467D02*
X155507282Y-69771934D01*
X156098926Y-70017001D01*
X156627802Y-70370385D01*
X156631395Y-70372786D01*
X157084214Y-70825605D01*
X157084216Y-70825608D01*
X157439999Y-71358074D01*
X157579144Y-71694000D01*
X157685066Y-71949719D01*
X157773643Y-72395022D01*
X157810000Y-72577804D01*
X157810000Y-73218196D01*
X157685066Y-73846282D01*
X157439999Y-74437926D01*
X157183952Y-74821127D01*
X157084214Y-74970395D01*
X156631395Y-75423214D01*
X156631392Y-75423216D01*
X156098926Y-75778999D01*
X155507282Y-76024066D01*
X155193239Y-76086533D01*
X154879197Y-76149000D01*
X154238803Y-76149000D01*
X153924761Y-76086533D01*
X153610718Y-76024066D01*
X153019074Y-75778999D01*
X152486608Y-75423216D01*
X152486605Y-75423214D01*
X152033786Y-74970395D01*
X151934048Y-74821127D01*
X151678001Y-74437926D01*
X151432934Y-73846282D01*
X151308000Y-73218196D01*
X151308000Y-72577804D01*
X151344358Y-72395022D01*
X151432934Y-71949719D01*
X151538856Y-71694000D01*
X151678001Y-71358074D01*
X152033784Y-70825608D01*
X152033786Y-70825605D01*
X152486605Y-70372786D01*
X152490198Y-70370385D01*
X153019074Y-70017001D01*
X153610718Y-69771934D01*
X153924761Y-69709467D01*
X154238803Y-69647000D01*
X154879197Y-69647000D01*
X155193239Y-69709467D01*
X155193239Y-69709467D01*
G37*
G36*
X107314239Y-69709467D02*
X107628282Y-69771934D01*
X108219926Y-70017001D01*
X108748802Y-70370385D01*
X108752395Y-70372786D01*
X109205214Y-70825605D01*
X109205216Y-70825608D01*
X109560999Y-71358074D01*
X109700144Y-71694000D01*
X109806066Y-71949719D01*
X109894643Y-72395022D01*
X109931000Y-72577804D01*
X109931000Y-73218196D01*
X109806066Y-73846282D01*
X109560999Y-74437926D01*
X109304952Y-74821127D01*
X109205214Y-74970395D01*
X108752395Y-75423214D01*
X108752392Y-75423216D01*
X108219926Y-75778999D01*
X107628282Y-76024066D01*
X107314239Y-76086533D01*
X107000197Y-76149000D01*
X106359803Y-76149000D01*
X106045761Y-76086533D01*
X105731718Y-76024066D01*
X105140074Y-75778999D01*
X104607608Y-75423216D01*
X104607605Y-75423214D01*
X104154786Y-74970395D01*
X104055048Y-74821127D01*
X103799001Y-74437926D01*
X103553934Y-73846282D01*
X103429000Y-73218196D01*
X103429000Y-72577804D01*
X103465358Y-72395022D01*
X103553934Y-71949719D01*
X103659856Y-71694000D01*
X103799001Y-71358074D01*
X104154784Y-70825608D01*
X104154786Y-70825605D01*
X104607605Y-70372786D01*
X104611198Y-70370385D01*
X105140074Y-70017001D01*
X105731718Y-69771934D01*
X106045761Y-69709467D01*
X106359803Y-69647000D01*
X107000197Y-69647000D01*
X107314239Y-69709467D01*
X107314239Y-69709467D01*
G37*
G36*
X127454677Y-74310465D02*
X127492364Y-74321898D01*
X127527103Y-74340466D01*
X127557548Y-74365452D01*
X127582534Y-74395897D01*
X127601102Y-74430636D01*
X127612535Y-74468323D01*
X127617000Y-74513661D01*
X127617000Y-75600339D01*
X127612535Y-75645677D01*
X127601102Y-75683364D01*
X127582534Y-75718103D01*
X127557548Y-75748548D01*
X127527103Y-75773534D01*
X127492364Y-75792102D01*
X127454677Y-75803535D01*
X127409339Y-75808000D01*
X126572661Y-75808000D01*
X126527323Y-75803535D01*
X126489636Y-75792102D01*
X126454897Y-75773534D01*
X126424452Y-75748548D01*
X126399466Y-75718103D01*
X126380898Y-75683364D01*
X126369465Y-75645677D01*
X126365000Y-75600339D01*
X126365000Y-74513661D01*
X126369465Y-74468323D01*
X126380898Y-74430636D01*
X126399466Y-74395897D01*
X126424452Y-74365452D01*
X126454897Y-74340466D01*
X126489636Y-74321898D01*
X126527323Y-74310465D01*
X126572661Y-74306000D01*
X127409339Y-74306000D01*
X127454677Y-74310465D01*
X127454677Y-74310465D01*
G37*
G36*
X129504677Y-74310465D02*
X129542364Y-74321898D01*
X129577103Y-74340466D01*
X129607548Y-74365452D01*
X129632534Y-74395897D01*
X129651102Y-74430636D01*
X129662535Y-74468323D01*
X129667000Y-74513661D01*
X129667000Y-75600339D01*
X129662535Y-75645677D01*
X129651102Y-75683364D01*
X129632534Y-75718103D01*
X129607548Y-75748548D01*
X129577103Y-75773534D01*
X129542364Y-75792102D01*
X129504677Y-75803535D01*
X129459339Y-75808000D01*
X128622661Y-75808000D01*
X128577323Y-75803535D01*
X128539636Y-75792102D01*
X128504897Y-75773534D01*
X128474452Y-75748548D01*
X128449466Y-75718103D01*
X128430898Y-75683364D01*
X128419465Y-75645677D01*
X128415000Y-75600339D01*
X128415000Y-74513661D01*
X128419465Y-74468323D01*
X128430898Y-74430636D01*
X128449466Y-74395897D01*
X128474452Y-74365452D01*
X128504897Y-74340466D01*
X128539636Y-74321898D01*
X128577323Y-74310465D01*
X128622661Y-74306000D01*
X129459339Y-74306000D01*
X129504677Y-74310465D01*
X129504677Y-74310465D01*
G37*
G36*
X116525277Y-72862665D02*
X116562964Y-72874098D01*
X116597703Y-72892666D01*
X116628148Y-72917652D01*
X116653134Y-72948097D01*
X116671702Y-72982836D01*
X116683135Y-73020523D01*
X116687600Y-73065861D01*
X116687600Y-74152539D01*
X116683135Y-74197877D01*
X116671702Y-74235564D01*
X116653134Y-74270303D01*
X116628148Y-74300748D01*
X116597703Y-74325734D01*
X116562964Y-74344302D01*
X116525277Y-74355735D01*
X116479939Y-74360200D01*
X115643261Y-74360200D01*
X115597923Y-74355735D01*
X115560236Y-74344302D01*
X115525497Y-74325734D01*
X115495052Y-74300748D01*
X115470066Y-74270303D01*
X115451498Y-74235564D01*
X115440065Y-74197877D01*
X115435600Y-74152539D01*
X115435600Y-73065861D01*
X115440065Y-73020523D01*
X115451498Y-72982836D01*
X115470066Y-72948097D01*
X115495052Y-72917652D01*
X115525497Y-72892666D01*
X115560236Y-72874098D01*
X115597923Y-72862665D01*
X115643261Y-72858200D01*
X116479939Y-72858200D01*
X116525277Y-72862665D01*
X116525277Y-72862665D01*
G37*
G36*
X114475277Y-72862665D02*
X114512964Y-72874098D01*
X114547703Y-72892666D01*
X114578148Y-72917652D01*
X114603134Y-72948097D01*
X114621702Y-72982836D01*
X114633135Y-73020523D01*
X114637600Y-73065861D01*
X114637600Y-74152539D01*
X114633135Y-74197877D01*
X114621702Y-74235564D01*
X114603134Y-74270303D01*
X114578148Y-74300748D01*
X114547703Y-74325734D01*
X114512964Y-74344302D01*
X114475277Y-74355735D01*
X114429939Y-74360200D01*
X113593261Y-74360200D01*
X113547923Y-74355735D01*
X113510236Y-74344302D01*
X113475497Y-74325734D01*
X113445052Y-74300748D01*
X113420066Y-74270303D01*
X113401498Y-74235564D01*
X113390065Y-74197877D01*
X113385600Y-74152539D01*
X113385600Y-73065861D01*
X113390065Y-73020523D01*
X113401498Y-72982836D01*
X113420066Y-72948097D01*
X113445052Y-72917652D01*
X113475497Y-72892666D01*
X113510236Y-72874098D01*
X113547923Y-72862665D01*
X113593261Y-72858200D01*
X114429939Y-72858200D01*
X114475277Y-72862665D01*
X114475277Y-72862665D01*
G37*
G36*
X123466000Y-72446000D02*
X121804000Y-72446000D01*
X121804000Y-69794000D01*
X123466000Y-69794000D01*
X123466000Y-72446000D01*
X123466000Y-72446000D01*
G37*
G36*
X120766000Y-72446000D02*
X119104000Y-72446000D01*
X119104000Y-71694000D01*
X120766000Y-71694000D01*
X120766000Y-72446000D01*
X120766000Y-72446000D01*
G37*
G36*
X147080562Y-70579181D02*
X147115477Y-70589773D01*
X147147665Y-70606978D01*
X147175873Y-70630127D01*
X147199022Y-70658335D01*
X147216227Y-70690523D01*
X147226819Y-70725438D01*
X147231000Y-70767895D01*
X147231000Y-72234105D01*
X147226819Y-72276562D01*
X147216227Y-72311477D01*
X147199022Y-72343665D01*
X147175873Y-72371873D01*
X147147665Y-72395022D01*
X147115477Y-72412227D01*
X147080562Y-72422819D01*
X147038105Y-72427000D01*
X145896895Y-72427000D01*
X145854438Y-72422819D01*
X145819523Y-72412227D01*
X145787335Y-72395022D01*
X145759127Y-72371873D01*
X145735978Y-72343665D01*
X145718773Y-72311477D01*
X145708181Y-72276562D01*
X145704000Y-72234105D01*
X145704000Y-70767895D01*
X145708181Y-70725438D01*
X145718773Y-70690523D01*
X145735978Y-70658335D01*
X145759127Y-70630127D01*
X145787335Y-70606978D01*
X145819523Y-70589773D01*
X145854438Y-70579181D01*
X145896895Y-70575000D01*
X147038105Y-70575000D01*
X147080562Y-70579181D01*
X147080562Y-70579181D01*
G37*
G36*
X150055562Y-70579181D02*
X150090477Y-70589773D01*
X150122665Y-70606978D01*
X150150873Y-70630127D01*
X150174022Y-70658335D01*
X150191227Y-70690523D01*
X150201819Y-70725438D01*
X150206000Y-70767895D01*
X150206000Y-72234105D01*
X150201819Y-72276562D01*
X150191227Y-72311477D01*
X150174022Y-72343665D01*
X150150873Y-72371873D01*
X150122665Y-72395022D01*
X150090477Y-72412227D01*
X150055562Y-72422819D01*
X150013105Y-72427000D01*
X148871895Y-72427000D01*
X148829438Y-72422819D01*
X148794523Y-72412227D01*
X148762335Y-72395022D01*
X148734127Y-72371873D01*
X148710978Y-72343665D01*
X148693773Y-72311477D01*
X148683181Y-72276562D01*
X148679000Y-72234105D01*
X148679000Y-70767895D01*
X148683181Y-70725438D01*
X148693773Y-70690523D01*
X148710978Y-70658335D01*
X148734127Y-70630127D01*
X148762335Y-70606978D01*
X148794523Y-70589773D01*
X148829438Y-70579181D01*
X148871895Y-70575000D01*
X150013105Y-70575000D01*
X150055562Y-70579181D01*
X150055562Y-70579181D01*
G37*
G36*
X114475277Y-69560665D02*
X114512964Y-69572098D01*
X114547703Y-69590666D01*
X114578148Y-69615652D01*
X114603134Y-69646097D01*
X114621702Y-69680836D01*
X114633135Y-69718523D01*
X114637600Y-69763861D01*
X114637600Y-70850539D01*
X114633135Y-70895877D01*
X114621702Y-70933564D01*
X114603134Y-70968303D01*
X114578148Y-70998748D01*
X114547703Y-71023734D01*
X114512964Y-71042302D01*
X114475277Y-71053735D01*
X114429939Y-71058200D01*
X113593261Y-71058200D01*
X113547923Y-71053735D01*
X113510236Y-71042302D01*
X113475497Y-71023734D01*
X113445052Y-70998748D01*
X113420066Y-70968303D01*
X113401498Y-70933564D01*
X113390065Y-70895877D01*
X113385600Y-70850539D01*
X113385600Y-69763861D01*
X113390065Y-69718523D01*
X113401498Y-69680836D01*
X113420066Y-69646097D01*
X113445052Y-69615652D01*
X113475497Y-69590666D01*
X113510236Y-69572098D01*
X113547923Y-69560665D01*
X113593261Y-69556200D01*
X114429939Y-69556200D01*
X114475277Y-69560665D01*
X114475277Y-69560665D01*
G37*
G36*
X116525277Y-69560665D02*
X116562964Y-69572098D01*
X116597703Y-69590666D01*
X116628148Y-69615652D01*
X116653134Y-69646097D01*
X116671702Y-69680836D01*
X116683135Y-69718523D01*
X116687600Y-69763861D01*
X116687600Y-70850539D01*
X116683135Y-70895877D01*
X116671702Y-70933564D01*
X116653134Y-70968303D01*
X116628148Y-70998748D01*
X116597703Y-71023734D01*
X116562964Y-71042302D01*
X116525277Y-71053735D01*
X116479939Y-71058200D01*
X115643261Y-71058200D01*
X115597923Y-71053735D01*
X115560236Y-71042302D01*
X115525497Y-71023734D01*
X115495052Y-70998748D01*
X115470066Y-70968303D01*
X115451498Y-70933564D01*
X115440065Y-70895877D01*
X115435600Y-70850539D01*
X115435600Y-69763861D01*
X115440065Y-69718523D01*
X115451498Y-69680836D01*
X115470066Y-69646097D01*
X115495052Y-69615652D01*
X115525497Y-69590666D01*
X115560236Y-69572098D01*
X115597923Y-69560665D01*
X115643261Y-69556200D01*
X116479939Y-69556200D01*
X116525277Y-69560665D01*
X116525277Y-69560665D01*
G37*
G36*
X120766000Y-70546000D02*
X119104000Y-70546000D01*
X119104000Y-69794000D01*
X120766000Y-69794000D01*
X120766000Y-70546000D01*
X120766000Y-70546000D01*
G37*
M02*
