%TF.GenerationSoftware,KiCad,Pcbnew,8.0.6*%
%TF.CreationDate,2025-01-08T17:22:54-05:00*%
%TF.ProjectId,LTT,4c54542e-6b69-4636-9164-5f7063625858,rev?*%
%TF.SameCoordinates,Original*%
%TF.FileFunction,Copper,L3,Inr*%
%TF.FilePolarity,Positive*%
%FSLAX46Y46*%
G04 Gerber Fmt 4.6, Leading zero omitted, Abs format (unit mm)*
G04 Created by KiCad (PCBNEW 8.0.6) date 2025-01-08 17:22:54*
%MOMM*%
%LPD*%
G01*
G04 APERTURE LIST*
%TA.AperFunction,ComponentPad*%
%ADD10C,0.800000*%
%TD*%
%TA.AperFunction,ComponentPad*%
%ADD11C,6.400000*%
%TD*%
%TA.AperFunction,ComponentPad*%
%ADD12R,1.200000X1.200000*%
%TD*%
%TA.AperFunction,ComponentPad*%
%ADD13C,1.200000*%
%TD*%
%TA.AperFunction,ComponentPad*%
%ADD14C,1.500000*%
%TD*%
%TA.AperFunction,ViaPad*%
%ADD15C,0.600000*%
%TD*%
%TA.AperFunction,ViaPad*%
%ADD16C,0.350000*%
%TD*%
G04 APERTURE END LIST*
D10*
%TO.N,GND*%
%TO.C,H3*%
X114440000Y-81000000D03*
X115142944Y-79302944D03*
X115142944Y-82697056D03*
X116840000Y-78600000D03*
D11*
X116840000Y-81000000D03*
D10*
X116840000Y-83400000D03*
X118537056Y-79302944D03*
X118537056Y-82697056D03*
X119240000Y-81000000D03*
%TD*%
%TO.N,GND*%
%TO.C,H1*%
X167780000Y-81000000D03*
X168482944Y-79302944D03*
X168482944Y-82697056D03*
X170180000Y-78600000D03*
D11*
X170180000Y-81000000D03*
D10*
X170180000Y-83400000D03*
X171877056Y-79302944D03*
X171877056Y-82697056D03*
X172580000Y-81000000D03*
%TD*%
%TO.N,GND*%
%TO.C,H2*%
X167780000Y-137160000D03*
X168482944Y-135462944D03*
X168482944Y-138857056D03*
X170180000Y-134760000D03*
D11*
X170180000Y-137160000D03*
D10*
X170180000Y-139560000D03*
X171877056Y-135462944D03*
X171877056Y-138857056D03*
X172580000Y-137160000D03*
%TD*%
%TO.N,GND*%
%TO.C,H4*%
X114440000Y-137160000D03*
X115142944Y-135462944D03*
X115142944Y-138857056D03*
X116840000Y-134760000D03*
D11*
X116840000Y-137160000D03*
D10*
X116840000Y-139560000D03*
X118537056Y-135462944D03*
X118537056Y-138857056D03*
X119240000Y-137160000D03*
%TD*%
D12*
%TO.N,Net-(J4-Pin_1)*%
%TO.C,J4*%
X172500000Y-125700000D03*
D13*
%TO.N,unconnected-(J4-Pin_2-Pad2)*%
X172500000Y-123700000D03*
%TO.N,GND*%
X172500000Y-121700000D03*
%TO.N,CANH*%
X170500000Y-125700000D03*
%TO.N,CANL*%
X170500000Y-123700000D03*
%TO.N,N/C*%
X170500000Y-121700000D03*
%TD*%
D14*
%TO.N,/MCU/OSC1*%
%TO.C,Y1*%
X151820000Y-100670000D03*
%TO.N,/MCU/OSC2*%
X156820000Y-100670000D03*
%TD*%
D15*
%TO.N,+5V*%
X153300000Y-117200000D03*
X147500000Y-139000000D03*
X141500000Y-139000000D03*
X158000000Y-120600000D03*
X149500000Y-139000000D03*
X129200000Y-104600000D03*
X167500000Y-105500000D03*
X172180000Y-97050000D03*
X145500000Y-139000000D03*
X170000000Y-112400000D03*
X149500000Y-136100000D03*
X126800000Y-98600000D03*
X128400000Y-105500000D03*
X147350000Y-125250000D03*
X163050000Y-94600000D03*
X171780000Y-102650000D03*
X156900000Y-93100000D03*
X151500000Y-139000000D03*
X139500000Y-139000000D03*
X172180000Y-100850000D03*
X143500000Y-139000000D03*
X129100000Y-101200000D03*
%TO.N,GND*%
X150000000Y-82500000D03*
X124800000Y-116573750D03*
X130506250Y-88256250D03*
X154600000Y-135400000D03*
X174300000Y-88000000D03*
X139000000Y-133300000D03*
X158700000Y-112500000D03*
D16*
X131422500Y-103200000D03*
D15*
X159000000Y-96200000D03*
X165500000Y-123200000D03*
X156800000Y-104600000D03*
X112700000Y-132000000D03*
X166250000Y-108500000D03*
X133900000Y-99800000D03*
X123750000Y-128500000D03*
X128200000Y-131000000D03*
X140000000Y-97750000D03*
X147600000Y-104400000D03*
X148100000Y-133300000D03*
X129150000Y-102333300D03*
X136600000Y-131800000D03*
X121500000Y-140800000D03*
X126800000Y-115473750D03*
X133800000Y-117128750D03*
X147900000Y-140800000D03*
X113750000Y-126250000D03*
X137500000Y-86250000D03*
X113750000Y-106250000D03*
D16*
X128750000Y-102800000D03*
D15*
X150150000Y-92950000D03*
X125800000Y-114373750D03*
D16*
X131100000Y-104900000D03*
D15*
X120641250Y-118100000D03*
X120182500Y-105400000D03*
X138900000Y-106300000D03*
D16*
X132022500Y-102000000D03*
D15*
X165920002Y-123760002D03*
X140000000Y-121750000D03*
X156900000Y-112900000D03*
D16*
X130822500Y-103200000D03*
D15*
X150600000Y-118800000D03*
X168000000Y-117600000D03*
X130300000Y-140800000D03*
X122300000Y-108200000D03*
X113750000Y-121250000D03*
X133100000Y-114528750D03*
X147700000Y-96800000D03*
X165500000Y-140800000D03*
X163800000Y-113400000D03*
X130581250Y-92181250D03*
X174300000Y-96800000D03*
X133025000Y-112825000D03*
D16*
X128956250Y-88856250D03*
D15*
X156700000Y-88000000D03*
X149600000Y-96200000D03*
X135800000Y-131800000D03*
X161900000Y-115400000D03*
X133750000Y-128500000D03*
X159457500Y-122742500D03*
D16*
X130822500Y-102000000D03*
D15*
X165000000Y-113400000D03*
X124200000Y-108000000D03*
X152300000Y-104600000D03*
X113750000Y-91250000D03*
X132500000Y-86250000D03*
D16*
X131422500Y-102000000D03*
D15*
X134400000Y-137000000D03*
X165500000Y-114400000D03*
X117000000Y-121400000D03*
X144500000Y-82500000D03*
X157000000Y-131600000D03*
X125000000Y-86250000D03*
X165500000Y-132000000D03*
X133922500Y-105300000D03*
X117350000Y-78950000D03*
X124700000Y-107500000D03*
X126750000Y-121200000D03*
X174300000Y-123200000D03*
X125800000Y-116573750D03*
X124800000Y-114373750D03*
X118100000Y-113300000D03*
X126831250Y-88131250D03*
X118300000Y-124100000D03*
D16*
X133600000Y-103300000D03*
D15*
X140000000Y-112750000D03*
X161000000Y-107600000D03*
X174300000Y-114400000D03*
D16*
X128156250Y-88881250D03*
D15*
X147900000Y-88000000D03*
X140000000Y-92750000D03*
X140000000Y-117750000D03*
X117000000Y-122500000D03*
X151600000Y-108200000D03*
X156600000Y-123200000D03*
X128581250Y-92881250D03*
X123000000Y-82500000D03*
X123950000Y-122250000D03*
X121500000Y-132000000D03*
X139100000Y-79200000D03*
X130100000Y-132000000D03*
D16*
X132022500Y-103200000D03*
D15*
X173000000Y-120600000D03*
X140000000Y-87750000D03*
X160200000Y-120600000D03*
D16*
X128981250Y-91606250D03*
D15*
X118750000Y-86250000D03*
X124800000Y-115473750D03*
X162200000Y-139300000D03*
X147900000Y-116700000D03*
X136000000Y-94700000D03*
X139100000Y-140800000D03*
X165500000Y-105600000D03*
X137850000Y-108250000D03*
X130300000Y-79200000D03*
X136000000Y-95500000D03*
X163800000Y-110400000D03*
X131810000Y-137010000D03*
X122800000Y-121700000D03*
D16*
X131422500Y-102600000D03*
D15*
X155300000Y-117200000D03*
X121500000Y-79200000D03*
X115900000Y-117700000D03*
X128500000Y-82500000D03*
X118050000Y-116300000D03*
X164900000Y-96800000D03*
X113750000Y-86250000D03*
X126413750Y-92648750D03*
X128750000Y-128500000D03*
X118750000Y-128500000D03*
X147900000Y-123200000D03*
X125800000Y-115500000D03*
X140000000Y-126750000D03*
X153800000Y-112000000D03*
X165800000Y-117600000D03*
X168000000Y-113400000D03*
X174300000Y-105600000D03*
X165800000Y-120400000D03*
X156700000Y-140800000D03*
X168000000Y-110400000D03*
X129400000Y-96600000D03*
X170000000Y-111000000D03*
X118800000Y-111600000D03*
X119582500Y-105800000D03*
D16*
X133600000Y-102300000D03*
D15*
X113750000Y-116250000D03*
D16*
X128231250Y-91606250D03*
D15*
X128581250Y-87431250D03*
X152400000Y-132600000D03*
X165500000Y-79200000D03*
X140000000Y-102750000D03*
D16*
X131000000Y-100300000D03*
D15*
X140000000Y-107750000D03*
D16*
X130822500Y-102600000D03*
D15*
X165500000Y-88000000D03*
D16*
X132022500Y-102600000D03*
D15*
X174300000Y-132000000D03*
X113750000Y-96250000D03*
X119523750Y-124200000D03*
X129756250Y-107556250D03*
X168200000Y-120400000D03*
X136600000Y-95100000D03*
X133650000Y-115728750D03*
X156700000Y-79200000D03*
X166212500Y-105512500D03*
X126800000Y-114373750D03*
X118100000Y-114834829D03*
X126900000Y-140200000D03*
X120182500Y-106200000D03*
X113750000Y-101250000D03*
X113750000Y-111250000D03*
X126800000Y-97500000D03*
X138750000Y-128500000D03*
X154700000Y-137400000D03*
X126800000Y-116573750D03*
X148000000Y-112000000D03*
D16*
X133600000Y-101800000D03*
X133600000Y-102800000D03*
D15*
%TO.N,+3V3*%
X126606250Y-91481250D03*
X132621250Y-113728750D03*
X129000000Y-137000000D03*
X118865129Y-112512463D03*
X127000000Y-135000000D03*
X130373894Y-89274011D03*
X133121250Y-116438750D03*
X130000000Y-134000000D03*
X118700000Y-114234829D03*
X131000000Y-135000000D03*
X136978750Y-108223750D03*
X133021250Y-117928750D03*
X128000000Y-136000000D03*
X126750000Y-120300000D03*
X118706896Y-115738750D03*
X122271250Y-109238750D03*
X123900000Y-119150000D03*
X127000000Y-137000000D03*
%TO.N,/RF/Antenna_Switch*%
X129400000Y-117900000D03*
X126681250Y-89281250D03*
%TO.N,Net-(U8-SW)*%
X149400000Y-130800000D03*
X154000000Y-130600000D03*
X157400000Y-133200000D03*
X148600000Y-130000000D03*
X149400000Y-130000000D03*
X157400000Y-134200000D03*
X154800000Y-130600000D03*
X148600000Y-130800000D03*
%TO.N,/MCU/LED_GREEN*%
X156900000Y-110200000D03*
%TO.N,/MCU/LED_BLUE*%
X155150000Y-109550000D03*
%TO.N,/MCU/LED_RED*%
X153400000Y-108900000D03*
%TO.N,/MCU/MOSI*%
X160900000Y-115400000D03*
%TO.N,/MCU/RESET*%
X124700000Y-124300000D03*
%TO.N,/MCU/SCLK*%
X160050000Y-108150000D03*
%TO.N,/MCU/CS*%
X151050000Y-107550000D03*
%TO.N,/MCU/MISO*%
X158200000Y-113600000D03*
%TO.N,/RF/SW*%
X130431250Y-91231250D03*
X125750000Y-122350000D03*
%TD*%
%TA.AperFunction,Conductor*%
%TO.N,+3V3*%
G36*
X126274841Y-88769685D02*
G01*
X126320596Y-88822489D01*
X126330540Y-88891647D01*
X126301515Y-88955202D01*
X126255875Y-89007872D01*
X126255872Y-89007878D01*
X126196084Y-89138793D01*
X126175603Y-89281250D01*
X126196084Y-89423706D01*
X126255872Y-89554621D01*
X126255873Y-89554623D01*
X126350122Y-89663393D01*
X126471197Y-89741203D01*
X126471200Y-89741204D01*
X126471199Y-89741204D01*
X126609286Y-89781749D01*
X126609288Y-89781750D01*
X126609289Y-89781750D01*
X126753212Y-89781750D01*
X126753212Y-89781749D01*
X126891303Y-89741203D01*
X127012378Y-89663393D01*
X127106627Y-89554623D01*
X127166415Y-89423707D01*
X127186897Y-89281250D01*
X127166415Y-89138793D01*
X127106627Y-89007877D01*
X127106625Y-89007875D01*
X127106624Y-89007872D01*
X127060985Y-88955202D01*
X127031960Y-88891646D01*
X127041904Y-88822488D01*
X127087659Y-88769684D01*
X127154698Y-88750000D01*
X127652069Y-88750000D01*
X127719108Y-88769685D01*
X127764863Y-88822489D01*
X127776069Y-88874000D01*
X127776069Y-88881253D01*
X127794674Y-88998727D01*
X127794674Y-88998728D01*
X127794675Y-88998731D01*
X127794676Y-88998732D01*
X127846596Y-89100631D01*
X127848678Y-89104716D01*
X127848681Y-89104720D01*
X127932779Y-89188818D01*
X127932783Y-89188821D01*
X127932785Y-89188823D01*
X128038768Y-89242824D01*
X128038770Y-89242824D01*
X128038772Y-89242825D01*
X128156247Y-89261431D01*
X128156250Y-89261431D01*
X128156253Y-89261431D01*
X128273727Y-89242825D01*
X128273728Y-89242825D01*
X128273729Y-89242824D01*
X128273732Y-89242824D01*
X128379715Y-89188823D01*
X128463823Y-89104715D01*
X128463826Y-89104707D01*
X128466789Y-89100631D01*
X128522117Y-89057963D01*
X128591730Y-89051981D01*
X128653527Y-89084583D01*
X128654792Y-89085831D01*
X128732779Y-89163818D01*
X128732783Y-89163821D01*
X128732785Y-89163823D01*
X128838768Y-89217824D01*
X128838770Y-89217824D01*
X128838772Y-89217825D01*
X128956247Y-89236431D01*
X128956250Y-89236431D01*
X128956253Y-89236431D01*
X129073727Y-89217825D01*
X129073728Y-89217825D01*
X129073729Y-89217824D01*
X129073732Y-89217824D01*
X129179715Y-89163823D01*
X129263823Y-89079715D01*
X129317824Y-88973732D01*
X129332472Y-88881250D01*
X129336692Y-88854603D01*
X129366621Y-88791468D01*
X129425932Y-88754536D01*
X129459165Y-88750000D01*
X130393472Y-88750000D01*
X130428406Y-88755022D01*
X130434289Y-88756750D01*
X130578211Y-88756750D01*
X130584093Y-88755022D01*
X130619028Y-88750000D01*
X130626000Y-88750000D01*
X130693039Y-88769685D01*
X130738794Y-88822489D01*
X130750000Y-88874000D01*
X130750000Y-90637568D01*
X130730315Y-90704607D01*
X130677511Y-90750362D01*
X130608353Y-90760306D01*
X130591066Y-90756545D01*
X130503214Y-90730750D01*
X130503211Y-90730750D01*
X130359289Y-90730750D01*
X130359286Y-90730750D01*
X130221199Y-90771295D01*
X130100123Y-90849106D01*
X130005873Y-90957876D01*
X130005872Y-90957878D01*
X129946084Y-91088793D01*
X129925603Y-91231250D01*
X129946084Y-91373706D01*
X129998634Y-91488772D01*
X130005873Y-91504623D01*
X130100122Y-91613393D01*
X130179446Y-91664371D01*
X130225200Y-91717174D01*
X130235144Y-91786332D01*
X130206120Y-91849888D01*
X130155873Y-91907877D01*
X130155872Y-91907878D01*
X130096084Y-92038793D01*
X130075603Y-92181250D01*
X130096084Y-92323706D01*
X130122136Y-92380750D01*
X130155873Y-92454623D01*
X130250122Y-92563393D01*
X130371197Y-92641203D01*
X130371200Y-92641204D01*
X130371199Y-92641204D01*
X130509286Y-92681749D01*
X130509288Y-92681750D01*
X130626000Y-92681750D01*
X130693039Y-92701435D01*
X130738794Y-92754239D01*
X130750000Y-92805750D01*
X130750000Y-92876000D01*
X130730315Y-92943039D01*
X130677511Y-92988794D01*
X130626000Y-93000000D01*
X129210897Y-93000000D01*
X129143858Y-92980315D01*
X129098103Y-92927511D01*
X129089894Y-92889778D01*
X129088159Y-92890028D01*
X129066415Y-92738793D01*
X129040364Y-92681750D01*
X129006627Y-92607877D01*
X128912378Y-92499107D01*
X128791303Y-92421297D01*
X128791301Y-92421296D01*
X128791299Y-92421295D01*
X128791300Y-92421295D01*
X128653213Y-92380750D01*
X128653211Y-92380750D01*
X128509289Y-92380750D01*
X128509286Y-92380750D01*
X128371199Y-92421295D01*
X128250123Y-92499106D01*
X128155873Y-92607876D01*
X128155872Y-92607878D01*
X128096084Y-92738793D01*
X128074341Y-92890028D01*
X128071599Y-92889633D01*
X128055918Y-92943039D01*
X128003114Y-92988794D01*
X127951603Y-93000000D01*
X126996510Y-93000000D01*
X126929471Y-92980315D01*
X126883716Y-92927511D01*
X126873772Y-92858353D01*
X126883716Y-92824489D01*
X126892273Y-92805750D01*
X126898915Y-92791207D01*
X126919397Y-92648750D01*
X126898915Y-92506293D01*
X126839127Y-92375377D01*
X126744878Y-92266607D01*
X126623803Y-92188797D01*
X126623801Y-92188796D01*
X126623799Y-92188795D01*
X126623800Y-92188795D01*
X126485713Y-92148250D01*
X126485711Y-92148250D01*
X126341789Y-92148250D01*
X126341786Y-92148250D01*
X126203699Y-92188795D01*
X126082623Y-92266606D01*
X125988373Y-92375376D01*
X125988372Y-92375378D01*
X125928584Y-92506293D01*
X125908103Y-92648750D01*
X125928584Y-92791207D01*
X125928585Y-92791208D01*
X125943784Y-92824489D01*
X125953728Y-92893647D01*
X125924703Y-92957203D01*
X125865925Y-92994977D01*
X125830990Y-93000000D01*
X125500000Y-93000000D01*
X125500000Y-107000000D01*
X129243321Y-107073398D01*
X129309958Y-107094392D01*
X129354669Y-107148083D01*
X129363254Y-107217423D01*
X129334603Y-107278571D01*
X129330875Y-107282872D01*
X129330872Y-107282878D01*
X129271084Y-107413793D01*
X129250603Y-107556250D01*
X129271084Y-107698706D01*
X129330872Y-107829621D01*
X129330873Y-107829623D01*
X129425122Y-107938393D01*
X129546197Y-108016203D01*
X129546200Y-108016204D01*
X129546199Y-108016204D01*
X129684286Y-108056749D01*
X129684288Y-108056750D01*
X129684289Y-108056750D01*
X129828212Y-108056750D01*
X129828212Y-108056749D01*
X129966303Y-108016203D01*
X130087378Y-107938393D01*
X130181627Y-107829623D01*
X130241415Y-107698707D01*
X130261897Y-107556250D01*
X130241415Y-107413793D01*
X130199632Y-107322302D01*
X130177943Y-107274810D01*
X130179735Y-107273991D01*
X130163262Y-107217893D01*
X130182945Y-107150853D01*
X130235749Y-107105098D01*
X130289690Y-107093915D01*
X138128431Y-107247616D01*
X138195072Y-107268611D01*
X138239783Y-107322302D01*
X138250000Y-107371592D01*
X138250000Y-107685029D01*
X138230315Y-107752068D01*
X138177511Y-107797823D01*
X138108353Y-107807767D01*
X138068496Y-107792902D01*
X138068118Y-107793730D01*
X138060050Y-107790045D01*
X137921963Y-107749500D01*
X137921961Y-107749500D01*
X137778039Y-107749500D01*
X137778036Y-107749500D01*
X137639949Y-107790045D01*
X137518873Y-107867856D01*
X137424623Y-107976626D01*
X137424622Y-107976628D01*
X137364834Y-108107543D01*
X137344353Y-108250000D01*
X137364834Y-108392456D01*
X137414177Y-108500499D01*
X137424623Y-108523373D01*
X137518872Y-108632143D01*
X137639947Y-108709953D01*
X137639950Y-108709954D01*
X137639949Y-108709954D01*
X137778036Y-108750499D01*
X137778038Y-108750500D01*
X137778039Y-108750500D01*
X137921962Y-108750500D01*
X137921962Y-108750499D01*
X138060053Y-108709953D01*
X138060054Y-108709951D01*
X138068118Y-108706270D01*
X138068801Y-108707766D01*
X138125993Y-108690970D01*
X138193033Y-108710651D01*
X138238791Y-108763452D01*
X138250000Y-108814970D01*
X138250000Y-128451854D01*
X138248738Y-128469500D01*
X138244353Y-128499999D01*
X138248738Y-128530498D01*
X138250000Y-128548145D01*
X138250000Y-141665500D01*
X138230315Y-141732539D01*
X138177511Y-141778294D01*
X138126000Y-141789500D01*
X116842706Y-141789500D01*
X116837297Y-141789382D01*
X116441918Y-141772119D01*
X116431142Y-141771176D01*
X116041467Y-141719874D01*
X116030814Y-141717996D01*
X115791031Y-141664838D01*
X115647080Y-141632925D01*
X115636637Y-141630127D01*
X115261776Y-141511933D01*
X115251613Y-141508234D01*
X114888487Y-141357822D01*
X114878683Y-141353250D01*
X114549988Y-141182143D01*
X114530042Y-141171759D01*
X114520696Y-141166364D01*
X114189193Y-140955172D01*
X114180337Y-140948971D01*
X113986194Y-140800000D01*
X120994353Y-140800000D01*
X121014834Y-140942456D01*
X121020643Y-140955175D01*
X121074623Y-141073373D01*
X121168872Y-141182143D01*
X121289947Y-141259953D01*
X121289950Y-141259954D01*
X121289949Y-141259954D01*
X121428036Y-141300499D01*
X121428038Y-141300500D01*
X121428039Y-141300500D01*
X121571962Y-141300500D01*
X121571962Y-141300499D01*
X121710053Y-141259953D01*
X121831128Y-141182143D01*
X121925377Y-141073373D01*
X121985165Y-140942457D01*
X122005647Y-140800000D01*
X129794353Y-140800000D01*
X129814834Y-140942456D01*
X129820643Y-140955175D01*
X129874623Y-141073373D01*
X129968872Y-141182143D01*
X130089947Y-141259953D01*
X130089950Y-141259954D01*
X130089949Y-141259954D01*
X130228036Y-141300499D01*
X130228038Y-141300500D01*
X130228039Y-141300500D01*
X130371962Y-141300500D01*
X130371962Y-141300499D01*
X130510053Y-141259953D01*
X130631128Y-141182143D01*
X130725377Y-141073373D01*
X130785165Y-140942457D01*
X130805647Y-140800000D01*
X130785165Y-140657543D01*
X130725377Y-140526627D01*
X130631128Y-140417857D01*
X130510053Y-140340047D01*
X130510051Y-140340046D01*
X130510049Y-140340045D01*
X130510050Y-140340045D01*
X130371963Y-140299500D01*
X130371961Y-140299500D01*
X130228039Y-140299500D01*
X130228036Y-140299500D01*
X130089949Y-140340045D01*
X129968873Y-140417856D01*
X129874623Y-140526626D01*
X129874622Y-140526628D01*
X129814834Y-140657543D01*
X129794353Y-140800000D01*
X122005647Y-140800000D01*
X121985165Y-140657543D01*
X121925377Y-140526627D01*
X121831128Y-140417857D01*
X121710053Y-140340047D01*
X121710051Y-140340046D01*
X121710049Y-140340045D01*
X121710050Y-140340045D01*
X121571963Y-140299500D01*
X121571961Y-140299500D01*
X121428039Y-140299500D01*
X121428036Y-140299500D01*
X121289949Y-140340045D01*
X121168873Y-140417856D01*
X121074623Y-140526626D01*
X121074622Y-140526628D01*
X121014834Y-140657543D01*
X120994353Y-140800000D01*
X113986194Y-140800000D01*
X113868507Y-140709696D01*
X113860220Y-140702742D01*
X113570440Y-140437208D01*
X113562791Y-140429559D01*
X113297257Y-140139779D01*
X113290303Y-140131492D01*
X113051028Y-139819662D01*
X113044830Y-139810811D01*
X112833631Y-139479296D01*
X112828244Y-139469965D01*
X112646746Y-139121310D01*
X112642177Y-139111512D01*
X112561076Y-138915717D01*
X112491759Y-138748371D01*
X112488070Y-138738236D01*
X112369867Y-138363347D01*
X112367078Y-138352935D01*
X112282000Y-137969168D01*
X112280128Y-137958549D01*
X112228821Y-137568837D01*
X112227881Y-137558102D01*
X112210618Y-137162702D01*
X112210559Y-137160000D01*
X113434506Y-137160000D01*
X113453509Y-137510500D01*
X113454469Y-137528196D01*
X113454470Y-137528213D01*
X113514122Y-137892068D01*
X113514128Y-137892094D01*
X113612768Y-138247365D01*
X113612770Y-138247371D01*
X113749255Y-138589926D01*
X113749261Y-138589938D01*
X113921973Y-138915708D01*
X113921976Y-138915713D01*
X113921978Y-138915716D01*
X114128910Y-139220917D01*
X114367627Y-139501956D01*
X114635330Y-139755538D01*
X114928881Y-139978690D01*
X115244838Y-140168795D01*
X115244840Y-140168796D01*
X115244842Y-140168797D01*
X115244846Y-140168799D01*
X115579486Y-140323620D01*
X115579497Y-140323625D01*
X115928934Y-140441364D01*
X116289052Y-140520632D01*
X116655630Y-140560500D01*
X116655636Y-140560500D01*
X117024364Y-140560500D01*
X117024370Y-140560500D01*
X117390948Y-140520632D01*
X117751066Y-140441364D01*
X118100503Y-140323625D01*
X118367714Y-140200000D01*
X126394353Y-140200000D01*
X126414834Y-140342456D01*
X126458107Y-140437208D01*
X126474623Y-140473373D01*
X126568872Y-140582143D01*
X126689947Y-140659953D01*
X126689950Y-140659954D01*
X126689949Y-140659954D01*
X126828036Y-140700499D01*
X126828038Y-140700500D01*
X126828039Y-140700500D01*
X126971962Y-140700500D01*
X126971962Y-140700499D01*
X127110053Y-140659953D01*
X127231128Y-140582143D01*
X127325377Y-140473373D01*
X127385165Y-140342457D01*
X127405647Y-140200000D01*
X127385165Y-140057543D01*
X127325377Y-139926627D01*
X127231128Y-139817857D01*
X127110053Y-139740047D01*
X127110051Y-139740046D01*
X127110049Y-139740045D01*
X127110050Y-139740045D01*
X126971963Y-139699500D01*
X126971961Y-139699500D01*
X126828039Y-139699500D01*
X126828036Y-139699500D01*
X126689949Y-139740045D01*
X126568873Y-139817856D01*
X126474623Y-139926626D01*
X126474622Y-139926628D01*
X126414834Y-140057543D01*
X126394353Y-140200000D01*
X118367714Y-140200000D01*
X118435162Y-140168795D01*
X118751119Y-139978690D01*
X119044670Y-139755538D01*
X119312373Y-139501956D01*
X119551090Y-139220917D01*
X119758022Y-138915716D01*
X119930743Y-138589930D01*
X120067227Y-138247379D01*
X120165875Y-137892081D01*
X120184237Y-137780077D01*
X120225529Y-137528213D01*
X120225529Y-137528210D01*
X120225531Y-137528199D01*
X120245494Y-137160000D01*
X120237361Y-137010000D01*
X131304353Y-137010000D01*
X131324834Y-137152456D01*
X131380055Y-137273371D01*
X131384623Y-137283373D01*
X131478872Y-137392143D01*
X131599947Y-137469953D01*
X131599950Y-137469954D01*
X131599949Y-137469954D01*
X131738036Y-137510499D01*
X131738038Y-137510500D01*
X131738039Y-137510500D01*
X131881962Y-137510500D01*
X131881962Y-137510499D01*
X132020053Y-137469953D01*
X132141128Y-137392143D01*
X132235377Y-137283373D01*
X132295165Y-137152457D01*
X132315647Y-137010000D01*
X132314209Y-137000000D01*
X133894353Y-137000000D01*
X133914834Y-137142456D01*
X133974622Y-137273371D01*
X133974623Y-137273373D01*
X134068872Y-137382143D01*
X134189947Y-137459953D01*
X134189950Y-137459954D01*
X134189949Y-137459954D01*
X134328036Y-137500499D01*
X134328038Y-137500500D01*
X134328039Y-137500500D01*
X134471962Y-137500500D01*
X134471962Y-137500499D01*
X134610053Y-137459953D01*
X134731128Y-137382143D01*
X134825377Y-137273373D01*
X134885165Y-137142457D01*
X134905647Y-137000000D01*
X134885165Y-136857543D01*
X134825377Y-136726627D01*
X134731128Y-136617857D01*
X134610053Y-136540047D01*
X134610051Y-136540046D01*
X134610049Y-136540045D01*
X134610050Y-136540045D01*
X134471963Y-136499500D01*
X134471961Y-136499500D01*
X134328039Y-136499500D01*
X134328036Y-136499500D01*
X134189949Y-136540045D01*
X134068873Y-136617856D01*
X133974623Y-136726626D01*
X133974622Y-136726628D01*
X133914834Y-136857543D01*
X133894353Y-137000000D01*
X132314209Y-137000000D01*
X132295165Y-136867543D01*
X132235377Y-136736627D01*
X132141128Y-136627857D01*
X132020053Y-136550047D01*
X132020051Y-136550046D01*
X132020049Y-136550045D01*
X132020050Y-136550045D01*
X131881963Y-136509500D01*
X131881961Y-136509500D01*
X131738039Y-136509500D01*
X131738036Y-136509500D01*
X131599949Y-136550045D01*
X131478873Y-136627856D01*
X131384623Y-136736626D01*
X131384622Y-136736628D01*
X131324834Y-136867543D01*
X131304353Y-137010000D01*
X120237361Y-137010000D01*
X120225531Y-136791801D01*
X120216485Y-136736626D01*
X120165877Y-136427931D01*
X120165876Y-136427930D01*
X120165875Y-136427919D01*
X120067227Y-136072621D01*
X119930743Y-135730070D01*
X119758022Y-135404284D01*
X119551090Y-135099083D01*
X119312373Y-134818044D01*
X119044670Y-134564462D01*
X118751119Y-134341310D01*
X118435162Y-134151205D01*
X118435161Y-134151204D01*
X118435157Y-134151202D01*
X118435153Y-134151200D01*
X118100513Y-133996379D01*
X118100508Y-133996377D01*
X118100503Y-133996375D01*
X117930172Y-133938983D01*
X117751065Y-133878635D01*
X117390946Y-133799367D01*
X117024371Y-133759500D01*
X117024370Y-133759500D01*
X116655630Y-133759500D01*
X116655628Y-133759500D01*
X116289053Y-133799367D01*
X115928934Y-133878635D01*
X115658812Y-133969650D01*
X115579497Y-133996375D01*
X115579494Y-133996376D01*
X115579486Y-133996379D01*
X115244846Y-134151200D01*
X115244842Y-134151202D01*
X115009538Y-134292779D01*
X114928881Y-134341310D01*
X114828410Y-134417685D01*
X114635330Y-134564461D01*
X114635330Y-134564462D01*
X114367626Y-134818044D01*
X114128909Y-135099083D01*
X113921979Y-135404282D01*
X113921973Y-135404291D01*
X113749261Y-135730061D01*
X113749255Y-135730073D01*
X113612770Y-136072628D01*
X113612768Y-136072634D01*
X113514128Y-136427905D01*
X113514122Y-136427931D01*
X113454470Y-136791786D01*
X113454469Y-136791803D01*
X113437722Y-137100691D01*
X113434506Y-137160000D01*
X112210559Y-137160000D01*
X112210500Y-137157293D01*
X112210500Y-132507452D01*
X112230185Y-132440413D01*
X112282989Y-132394658D01*
X112352147Y-132384714D01*
X112401538Y-132403136D01*
X112448279Y-132433174D01*
X112489948Y-132459954D01*
X112628036Y-132500499D01*
X112628038Y-132500500D01*
X112628039Y-132500500D01*
X112771962Y-132500500D01*
X112771962Y-132500499D01*
X112910053Y-132459953D01*
X113031128Y-132382143D01*
X113125377Y-132273373D01*
X113185165Y-132142457D01*
X113205647Y-132000000D01*
X120994353Y-132000000D01*
X121014834Y-132142456D01*
X121032421Y-132180965D01*
X121074623Y-132273373D01*
X121168872Y-132382143D01*
X121289947Y-132459953D01*
X121289950Y-132459954D01*
X121289949Y-132459954D01*
X121428036Y-132500499D01*
X121428038Y-132500500D01*
X121428039Y-132500500D01*
X121571962Y-132500500D01*
X121571962Y-132500499D01*
X121710053Y-132459953D01*
X121831128Y-132382143D01*
X121925377Y-132273373D01*
X121985165Y-132142457D01*
X122005647Y-132000000D01*
X129594353Y-132000000D01*
X129614834Y-132142456D01*
X129632421Y-132180965D01*
X129674623Y-132273373D01*
X129768872Y-132382143D01*
X129889947Y-132459953D01*
X129889950Y-132459954D01*
X129889949Y-132459954D01*
X130028036Y-132500499D01*
X130028038Y-132500500D01*
X130028039Y-132500500D01*
X130171962Y-132500500D01*
X130171962Y-132500499D01*
X130310053Y-132459953D01*
X130431128Y-132382143D01*
X130525377Y-132273373D01*
X130585165Y-132142457D01*
X130605647Y-132000000D01*
X130585165Y-131857543D01*
X130558886Y-131800000D01*
X135294353Y-131800000D01*
X135314834Y-131942456D01*
X135341114Y-132000000D01*
X135374623Y-132073373D01*
X135468872Y-132182143D01*
X135589947Y-132259953D01*
X135589950Y-132259954D01*
X135589949Y-132259954D01*
X135728036Y-132300499D01*
X135728038Y-132300500D01*
X135728039Y-132300500D01*
X135871962Y-132300500D01*
X135871962Y-132300499D01*
X136010050Y-132259954D01*
X136010051Y-132259954D01*
X136010053Y-132259953D01*
X136131128Y-132182143D01*
X136131129Y-132182141D01*
X136132960Y-132180965D01*
X136200000Y-132161280D01*
X136267039Y-132180964D01*
X136267040Y-132180965D01*
X136268870Y-132182141D01*
X136268872Y-132182143D01*
X136346251Y-132231871D01*
X136389948Y-132259954D01*
X136528036Y-132300499D01*
X136528038Y-132300500D01*
X136528039Y-132300500D01*
X136671962Y-132300500D01*
X136671962Y-132300499D01*
X136810053Y-132259953D01*
X136931128Y-132182143D01*
X137025377Y-132073373D01*
X137085165Y-131942457D01*
X137105647Y-131800000D01*
X137085165Y-131657543D01*
X137025377Y-131526627D01*
X136931128Y-131417857D01*
X136810053Y-131340047D01*
X136810051Y-131340046D01*
X136810049Y-131340045D01*
X136810050Y-131340045D01*
X136671963Y-131299500D01*
X136671961Y-131299500D01*
X136528039Y-131299500D01*
X136528036Y-131299500D01*
X136389949Y-131340045D01*
X136267039Y-131419035D01*
X136200000Y-131438719D01*
X136132961Y-131419035D01*
X136131126Y-131417856D01*
X136010053Y-131340047D01*
X136010051Y-131340046D01*
X136010049Y-131340045D01*
X136010050Y-131340045D01*
X135871963Y-131299500D01*
X135871961Y-131299500D01*
X135728039Y-131299500D01*
X135728036Y-131299500D01*
X135589949Y-131340045D01*
X135468873Y-131417856D01*
X135374623Y-131526626D01*
X135374622Y-131526628D01*
X135314834Y-131657543D01*
X135294353Y-131800000D01*
X130558886Y-131800000D01*
X130525377Y-131726627D01*
X130431128Y-131617857D01*
X130310053Y-131540047D01*
X130310051Y-131540046D01*
X130310049Y-131540045D01*
X130310050Y-131540045D01*
X130171963Y-131499500D01*
X130171961Y-131499500D01*
X130028039Y-131499500D01*
X130028036Y-131499500D01*
X129889949Y-131540045D01*
X129768873Y-131617856D01*
X129674623Y-131726626D01*
X129674622Y-131726628D01*
X129614834Y-131857543D01*
X129594353Y-132000000D01*
X122005647Y-132000000D01*
X121985165Y-131857543D01*
X121925377Y-131726627D01*
X121831128Y-131617857D01*
X121710053Y-131540047D01*
X121710051Y-131540046D01*
X121710049Y-131540045D01*
X121710050Y-131540045D01*
X121571963Y-131499500D01*
X121571961Y-131499500D01*
X121428039Y-131499500D01*
X121428036Y-131499500D01*
X121289949Y-131540045D01*
X121168873Y-131617856D01*
X121074623Y-131726626D01*
X121074622Y-131726628D01*
X121014834Y-131857543D01*
X120994353Y-132000000D01*
X113205647Y-132000000D01*
X113185165Y-131857543D01*
X113125377Y-131726627D01*
X113031128Y-131617857D01*
X112910053Y-131540047D01*
X112910051Y-131540046D01*
X112910049Y-131540045D01*
X112910050Y-131540045D01*
X112771963Y-131499500D01*
X112771961Y-131499500D01*
X112628039Y-131499500D01*
X112628036Y-131499500D01*
X112489949Y-131540045D01*
X112401539Y-131596863D01*
X112334499Y-131616547D01*
X112267460Y-131596862D01*
X112221705Y-131544058D01*
X112210500Y-131492547D01*
X112210500Y-131000000D01*
X127694353Y-131000000D01*
X127714834Y-131142456D01*
X127774622Y-131273371D01*
X127774623Y-131273373D01*
X127868872Y-131382143D01*
X127989947Y-131459953D01*
X127989950Y-131459954D01*
X127989949Y-131459954D01*
X128097107Y-131491417D01*
X128124633Y-131499500D01*
X128128036Y-131500499D01*
X128128038Y-131500500D01*
X128128039Y-131500500D01*
X128271962Y-131500500D01*
X128271962Y-131500499D01*
X128410053Y-131459953D01*
X128531128Y-131382143D01*
X128625377Y-131273373D01*
X128685165Y-131142457D01*
X128705647Y-131000000D01*
X128685165Y-130857543D01*
X128625377Y-130726627D01*
X128531128Y-130617857D01*
X128410053Y-130540047D01*
X128410051Y-130540046D01*
X128410049Y-130540045D01*
X128410050Y-130540045D01*
X128271963Y-130499500D01*
X128271961Y-130499500D01*
X128128039Y-130499500D01*
X128128036Y-130499500D01*
X127989949Y-130540045D01*
X127868873Y-130617856D01*
X127774623Y-130726626D01*
X127774622Y-130726628D01*
X127714834Y-130857543D01*
X127694353Y-131000000D01*
X112210500Y-131000000D01*
X112210500Y-128500000D01*
X118244353Y-128500000D01*
X118264834Y-128642456D01*
X118324622Y-128773371D01*
X118324623Y-128773373D01*
X118418872Y-128882143D01*
X118539947Y-128959953D01*
X118539950Y-128959954D01*
X118539949Y-128959954D01*
X118678036Y-129000499D01*
X118678038Y-129000500D01*
X118678039Y-129000500D01*
X118821962Y-129000500D01*
X118821962Y-129000499D01*
X118960053Y-128959953D01*
X119081128Y-128882143D01*
X119175377Y-128773373D01*
X119235165Y-128642457D01*
X119255647Y-128500000D01*
X123244353Y-128500000D01*
X123264834Y-128642456D01*
X123324622Y-128773371D01*
X123324623Y-128773373D01*
X123418872Y-128882143D01*
X123539947Y-128959953D01*
X123539950Y-128959954D01*
X123539949Y-128959954D01*
X123678036Y-129000499D01*
X123678038Y-129000500D01*
X123678039Y-129000500D01*
X123821962Y-129000500D01*
X123821962Y-129000499D01*
X123960053Y-128959953D01*
X124081128Y-128882143D01*
X124175377Y-128773373D01*
X124235165Y-128642457D01*
X124255647Y-128500000D01*
X128244353Y-128500000D01*
X128264834Y-128642456D01*
X128324622Y-128773371D01*
X128324623Y-128773373D01*
X128418872Y-128882143D01*
X128539947Y-128959953D01*
X128539950Y-128959954D01*
X128539949Y-128959954D01*
X128678036Y-129000499D01*
X128678038Y-129000500D01*
X128678039Y-129000500D01*
X128821962Y-129000500D01*
X128821962Y-129000499D01*
X128960053Y-128959953D01*
X129081128Y-128882143D01*
X129175377Y-128773373D01*
X129235165Y-128642457D01*
X129255647Y-128500000D01*
X133244353Y-128500000D01*
X133264834Y-128642456D01*
X133324622Y-128773371D01*
X133324623Y-128773373D01*
X133418872Y-128882143D01*
X133539947Y-128959953D01*
X133539950Y-128959954D01*
X133539949Y-128959954D01*
X133678036Y-129000499D01*
X133678038Y-129000500D01*
X133678039Y-129000500D01*
X133821962Y-129000500D01*
X133821962Y-129000499D01*
X133960053Y-128959953D01*
X134081128Y-128882143D01*
X134175377Y-128773373D01*
X134235165Y-128642457D01*
X134255647Y-128500000D01*
X134235165Y-128357543D01*
X134175377Y-128226627D01*
X134081128Y-128117857D01*
X133960053Y-128040047D01*
X133960051Y-128040046D01*
X133960049Y-128040045D01*
X133960050Y-128040045D01*
X133821963Y-127999500D01*
X133821961Y-127999500D01*
X133678039Y-127999500D01*
X133678036Y-127999500D01*
X133539949Y-128040045D01*
X133418873Y-128117856D01*
X133324623Y-128226626D01*
X133324622Y-128226628D01*
X133264834Y-128357543D01*
X133244353Y-128500000D01*
X129255647Y-128500000D01*
X129235165Y-128357543D01*
X129175377Y-128226627D01*
X129081128Y-128117857D01*
X128960053Y-128040047D01*
X128960051Y-128040046D01*
X128960049Y-128040045D01*
X128960050Y-128040045D01*
X128821963Y-127999500D01*
X128821961Y-127999500D01*
X128678039Y-127999500D01*
X128678036Y-127999500D01*
X128539949Y-128040045D01*
X128418873Y-128117856D01*
X128324623Y-128226626D01*
X128324622Y-128226628D01*
X128264834Y-128357543D01*
X128244353Y-128500000D01*
X124255647Y-128500000D01*
X124235165Y-128357543D01*
X124175377Y-128226627D01*
X124081128Y-128117857D01*
X123960053Y-128040047D01*
X123960051Y-128040046D01*
X123960049Y-128040045D01*
X123960050Y-128040045D01*
X123821963Y-127999500D01*
X123821961Y-127999500D01*
X123678039Y-127999500D01*
X123678036Y-127999500D01*
X123539949Y-128040045D01*
X123418873Y-128117856D01*
X123324623Y-128226626D01*
X123324622Y-128226628D01*
X123264834Y-128357543D01*
X123244353Y-128500000D01*
X119255647Y-128500000D01*
X119235165Y-128357543D01*
X119175377Y-128226627D01*
X119081128Y-128117857D01*
X118960053Y-128040047D01*
X118960051Y-128040046D01*
X118960049Y-128040045D01*
X118960050Y-128040045D01*
X118821963Y-127999500D01*
X118821961Y-127999500D01*
X118678039Y-127999500D01*
X118678036Y-127999500D01*
X118539949Y-128040045D01*
X118418873Y-128117856D01*
X118324623Y-128226626D01*
X118324622Y-128226628D01*
X118264834Y-128357543D01*
X118244353Y-128500000D01*
X112210500Y-128500000D01*
X112210500Y-126250000D01*
X113244353Y-126250000D01*
X113264834Y-126392456D01*
X113324622Y-126523371D01*
X113324623Y-126523373D01*
X113418872Y-126632143D01*
X113539947Y-126709953D01*
X113539950Y-126709954D01*
X113539949Y-126709954D01*
X113678036Y-126750499D01*
X113678038Y-126750500D01*
X113678039Y-126750500D01*
X113821962Y-126750500D01*
X113821962Y-126750499D01*
X113960053Y-126709953D01*
X114081128Y-126632143D01*
X114175377Y-126523373D01*
X114235165Y-126392457D01*
X114255647Y-126250000D01*
X114235165Y-126107543D01*
X114175377Y-125976627D01*
X114081128Y-125867857D01*
X113960053Y-125790047D01*
X113960051Y-125790046D01*
X113960049Y-125790045D01*
X113960050Y-125790045D01*
X113821963Y-125749500D01*
X113821961Y-125749500D01*
X113678039Y-125749500D01*
X113678036Y-125749500D01*
X113539949Y-125790045D01*
X113418873Y-125867856D01*
X113324623Y-125976626D01*
X113324622Y-125976628D01*
X113264834Y-126107543D01*
X113244353Y-126250000D01*
X112210500Y-126250000D01*
X112210500Y-124100000D01*
X117794353Y-124100000D01*
X117814834Y-124242456D01*
X117860504Y-124342457D01*
X117874623Y-124373373D01*
X117968872Y-124482143D01*
X118089947Y-124559953D01*
X118089950Y-124559954D01*
X118089949Y-124559954D01*
X118228036Y-124600499D01*
X118228038Y-124600500D01*
X118228039Y-124600500D01*
X118371962Y-124600500D01*
X118371962Y-124600499D01*
X118510053Y-124559953D01*
X118631128Y-124482143D01*
X118725377Y-124373373D01*
X118785165Y-124242457D01*
X118785165Y-124242456D01*
X118788849Y-124234390D01*
X118790124Y-124234972D01*
X118822809Y-124184110D01*
X118886364Y-124155082D01*
X118955523Y-124165022D01*
X119008329Y-124210775D01*
X119026754Y-124260172D01*
X119038584Y-124342456D01*
X119084254Y-124442457D01*
X119098373Y-124473373D01*
X119192622Y-124582143D01*
X119313697Y-124659953D01*
X119313700Y-124659954D01*
X119313699Y-124659954D01*
X119451786Y-124700499D01*
X119451788Y-124700500D01*
X119451789Y-124700500D01*
X119595712Y-124700500D01*
X119595712Y-124700499D01*
X119733803Y-124659953D01*
X119854878Y-124582143D01*
X119949127Y-124473373D01*
X120008915Y-124342457D01*
X120015019Y-124300000D01*
X124194353Y-124300000D01*
X124214834Y-124442456D01*
X124228953Y-124473371D01*
X124274623Y-124573373D01*
X124368872Y-124682143D01*
X124489947Y-124759953D01*
X124489950Y-124759954D01*
X124489949Y-124759954D01*
X124628036Y-124800499D01*
X124628038Y-124800500D01*
X124628039Y-124800500D01*
X124771962Y-124800500D01*
X124771962Y-124800499D01*
X124910053Y-124759953D01*
X125031128Y-124682143D01*
X125125377Y-124573373D01*
X125185165Y-124442457D01*
X125205647Y-124300000D01*
X125185165Y-124157543D01*
X125125377Y-124026627D01*
X125031128Y-123917857D01*
X124910053Y-123840047D01*
X124910051Y-123840046D01*
X124910049Y-123840045D01*
X124910050Y-123840045D01*
X124771963Y-123799500D01*
X124771961Y-123799500D01*
X124628039Y-123799500D01*
X124628036Y-123799500D01*
X124489949Y-123840045D01*
X124368873Y-123917856D01*
X124274623Y-124026626D01*
X124274622Y-124026628D01*
X124214834Y-124157543D01*
X124194353Y-124300000D01*
X120015019Y-124300000D01*
X120029397Y-124200000D01*
X120008915Y-124057543D01*
X119949127Y-123926627D01*
X119854878Y-123817857D01*
X119733803Y-123740047D01*
X119733801Y-123740046D01*
X119733799Y-123740045D01*
X119733800Y-123740045D01*
X119595713Y-123699500D01*
X119595711Y-123699500D01*
X119451789Y-123699500D01*
X119451786Y-123699500D01*
X119313699Y-123740045D01*
X119192623Y-123817856D01*
X119098373Y-123926626D01*
X119098372Y-123926628D01*
X119034901Y-124065610D01*
X119033627Y-124065028D01*
X119000926Y-124115901D01*
X118937367Y-124144920D01*
X118868210Y-124134969D01*
X118815411Y-124089209D01*
X118796995Y-124039826D01*
X118795097Y-124026628D01*
X118785165Y-123957543D01*
X118725377Y-123826627D01*
X118631128Y-123717857D01*
X118510053Y-123640047D01*
X118510051Y-123640046D01*
X118510049Y-123640045D01*
X118510050Y-123640045D01*
X118371963Y-123599500D01*
X118371961Y-123599500D01*
X118228039Y-123599500D01*
X118228036Y-123599500D01*
X118089949Y-123640045D01*
X117968873Y-123717856D01*
X117874623Y-123826626D01*
X117874622Y-123826628D01*
X117814834Y-123957543D01*
X117794353Y-124100000D01*
X112210500Y-124100000D01*
X112210500Y-121250000D01*
X113244353Y-121250000D01*
X113264834Y-121392456D01*
X113324622Y-121523371D01*
X113324623Y-121523373D01*
X113418872Y-121632143D01*
X113539947Y-121709953D01*
X113539950Y-121709954D01*
X113539949Y-121709954D01*
X113647107Y-121741417D01*
X113674633Y-121749500D01*
X113678036Y-121750499D01*
X113678038Y-121750500D01*
X113678039Y-121750500D01*
X113821962Y-121750500D01*
X113821962Y-121750499D01*
X113960053Y-121709953D01*
X114081128Y-121632143D01*
X114175377Y-121523373D01*
X114231720Y-121400000D01*
X116494353Y-121400000D01*
X116514834Y-121542456D01*
X116568494Y-121659953D01*
X116574623Y-121673373D01*
X116668872Y-121782143D01*
X116668874Y-121782144D01*
X116668876Y-121782146D01*
X116767744Y-121845685D01*
X116813499Y-121898488D01*
X116823443Y-121967647D01*
X116794418Y-122031203D01*
X116767744Y-122054315D01*
X116668876Y-122117853D01*
X116668874Y-122117855D01*
X116574623Y-122226626D01*
X116574622Y-122226628D01*
X116514834Y-122357543D01*
X116494353Y-122500000D01*
X116514834Y-122642456D01*
X116564177Y-122750499D01*
X116574623Y-122773373D01*
X116668872Y-122882143D01*
X116789947Y-122959953D01*
X116789950Y-122959954D01*
X116789949Y-122959954D01*
X116928036Y-123000499D01*
X116928038Y-123000500D01*
X116928039Y-123000500D01*
X117071962Y-123000500D01*
X117071962Y-123000499D01*
X117210053Y-122959953D01*
X117331128Y-122882143D01*
X117425377Y-122773373D01*
X117485165Y-122642457D01*
X117505647Y-122500000D01*
X117485165Y-122357543D01*
X117436051Y-122250000D01*
X123444353Y-122250000D01*
X123464834Y-122392456D01*
X123510504Y-122492457D01*
X123524623Y-122523373D01*
X123618872Y-122632143D01*
X123739947Y-122709953D01*
X123739950Y-122709954D01*
X123739949Y-122709954D01*
X123878036Y-122750499D01*
X123878038Y-122750500D01*
X123878039Y-122750500D01*
X124021962Y-122750500D01*
X124021962Y-122750499D01*
X124160053Y-122709953D01*
X124281128Y-122632143D01*
X124375377Y-122523373D01*
X124435165Y-122392457D01*
X124441269Y-122350000D01*
X125244353Y-122350000D01*
X125264834Y-122492456D01*
X125278953Y-122523371D01*
X125324623Y-122623373D01*
X125418872Y-122732143D01*
X125539947Y-122809953D01*
X125539950Y-122809954D01*
X125539949Y-122809954D01*
X125678036Y-122850499D01*
X125678038Y-122850500D01*
X125678039Y-122850500D01*
X125821962Y-122850500D01*
X125821962Y-122850499D01*
X125960053Y-122809953D01*
X126081128Y-122732143D01*
X126175377Y-122623373D01*
X126235165Y-122492457D01*
X126255647Y-122350000D01*
X126235165Y-122207543D01*
X126175377Y-122076627D01*
X126081128Y-121967857D01*
X125960053Y-121890047D01*
X125960051Y-121890046D01*
X125960049Y-121890045D01*
X125960050Y-121890045D01*
X125821963Y-121849500D01*
X125821961Y-121849500D01*
X125678039Y-121849500D01*
X125678036Y-121849500D01*
X125539949Y-121890045D01*
X125418873Y-121967856D01*
X125324623Y-122076626D01*
X125324622Y-122076628D01*
X125264834Y-122207543D01*
X125244353Y-122350000D01*
X124441269Y-122350000D01*
X124455647Y-122250000D01*
X124435165Y-122107543D01*
X124375377Y-121976627D01*
X124281128Y-121867857D01*
X124160053Y-121790047D01*
X124160051Y-121790046D01*
X124160049Y-121790045D01*
X124160050Y-121790045D01*
X124021963Y-121749500D01*
X124021961Y-121749500D01*
X123878039Y-121749500D01*
X123878036Y-121749500D01*
X123739949Y-121790045D01*
X123618873Y-121867856D01*
X123524623Y-121976626D01*
X123524622Y-121976628D01*
X123464834Y-122107543D01*
X123444353Y-122250000D01*
X117436051Y-122250000D01*
X117425377Y-122226627D01*
X117331128Y-122117857D01*
X117232253Y-122054314D01*
X117186500Y-122001512D01*
X117176556Y-121932354D01*
X117205581Y-121868798D01*
X117232254Y-121845685D01*
X117331128Y-121782143D01*
X117402305Y-121700000D01*
X122294353Y-121700000D01*
X122314834Y-121842456D01*
X122355890Y-121932354D01*
X122374623Y-121973373D01*
X122468872Y-122082143D01*
X122589947Y-122159953D01*
X122589950Y-122159954D01*
X122589949Y-122159954D01*
X122728036Y-122200499D01*
X122728038Y-122200500D01*
X122728039Y-122200500D01*
X122871962Y-122200500D01*
X122871962Y-122200499D01*
X123010053Y-122159953D01*
X123131128Y-122082143D01*
X123225377Y-121973373D01*
X123285165Y-121842457D01*
X123305647Y-121700000D01*
X123285165Y-121557543D01*
X123225377Y-121426627D01*
X123131128Y-121317857D01*
X123010053Y-121240047D01*
X123010051Y-121240046D01*
X123010049Y-121240045D01*
X123010050Y-121240045D01*
X122873666Y-121200000D01*
X126244353Y-121200000D01*
X126264834Y-121342456D01*
X126303275Y-121426628D01*
X126324623Y-121473373D01*
X126418872Y-121582143D01*
X126539947Y-121659953D01*
X126539950Y-121659954D01*
X126539949Y-121659954D01*
X126647107Y-121691417D01*
X126676336Y-121700000D01*
X126678036Y-121700499D01*
X126678038Y-121700500D01*
X126678039Y-121700500D01*
X126821962Y-121700500D01*
X126821962Y-121700499D01*
X126960053Y-121659953D01*
X127081128Y-121582143D01*
X127175377Y-121473373D01*
X127235165Y-121342457D01*
X127255647Y-121200000D01*
X127235165Y-121057543D01*
X127175377Y-120926627D01*
X127081128Y-120817857D01*
X126960053Y-120740047D01*
X126960051Y-120740046D01*
X126960049Y-120740045D01*
X126960050Y-120740045D01*
X126821963Y-120699500D01*
X126821961Y-120699500D01*
X126678039Y-120699500D01*
X126678036Y-120699500D01*
X126539949Y-120740045D01*
X126418873Y-120817856D01*
X126324623Y-120926626D01*
X126324622Y-120926628D01*
X126264834Y-121057543D01*
X126244353Y-121200000D01*
X122873666Y-121200000D01*
X122871963Y-121199500D01*
X122871961Y-121199500D01*
X122728039Y-121199500D01*
X122728036Y-121199500D01*
X122589949Y-121240045D01*
X122468873Y-121317856D01*
X122374623Y-121426626D01*
X122374622Y-121426628D01*
X122314834Y-121557543D01*
X122294353Y-121700000D01*
X117402305Y-121700000D01*
X117425377Y-121673373D01*
X117485165Y-121542457D01*
X117505647Y-121400000D01*
X117485165Y-121257543D01*
X117425377Y-121126627D01*
X117331128Y-121017857D01*
X117210053Y-120940047D01*
X117210051Y-120940046D01*
X117210049Y-120940045D01*
X117210050Y-120940045D01*
X117071963Y-120899500D01*
X117071961Y-120899500D01*
X116928039Y-120899500D01*
X116928036Y-120899500D01*
X116789949Y-120940045D01*
X116668873Y-121017856D01*
X116574623Y-121126626D01*
X116574622Y-121126628D01*
X116514834Y-121257543D01*
X116494353Y-121400000D01*
X114231720Y-121400000D01*
X114235165Y-121392457D01*
X114255647Y-121250000D01*
X114235165Y-121107543D01*
X114175377Y-120976627D01*
X114081128Y-120867857D01*
X113960053Y-120790047D01*
X113960051Y-120790046D01*
X113960049Y-120790045D01*
X113960050Y-120790045D01*
X113821963Y-120749500D01*
X113821961Y-120749500D01*
X113678039Y-120749500D01*
X113678036Y-120749500D01*
X113539949Y-120790045D01*
X113418873Y-120867856D01*
X113324623Y-120976626D01*
X113324622Y-120976628D01*
X113264834Y-121107543D01*
X113244353Y-121250000D01*
X112210500Y-121250000D01*
X112210500Y-117700000D01*
X115394353Y-117700000D01*
X115414834Y-117842456D01*
X115474622Y-117973371D01*
X115474623Y-117973373D01*
X115568872Y-118082143D01*
X115689947Y-118159953D01*
X115689950Y-118159954D01*
X115689949Y-118159954D01*
X115828036Y-118200499D01*
X115828038Y-118200500D01*
X115828039Y-118200500D01*
X115971962Y-118200500D01*
X115971962Y-118200499D01*
X116110053Y-118159953D01*
X116203342Y-118100000D01*
X120135603Y-118100000D01*
X120156084Y-118242456D01*
X120174209Y-118282143D01*
X120215873Y-118373373D01*
X120310122Y-118482143D01*
X120431197Y-118559953D01*
X120431200Y-118559954D01*
X120431199Y-118559954D01*
X120569286Y-118600499D01*
X120569288Y-118600500D01*
X120569289Y-118600500D01*
X120713212Y-118600500D01*
X120713212Y-118600499D01*
X120851303Y-118559953D01*
X120972378Y-118482143D01*
X121066627Y-118373373D01*
X121126415Y-118242457D01*
X121146897Y-118100000D01*
X121126415Y-117957543D01*
X121100136Y-117900000D01*
X128894353Y-117900000D01*
X128914834Y-118042456D01*
X128932959Y-118082143D01*
X128974623Y-118173373D01*
X129068872Y-118282143D01*
X129189947Y-118359953D01*
X129189950Y-118359954D01*
X129189949Y-118359954D01*
X129328036Y-118400499D01*
X129328038Y-118400500D01*
X129328039Y-118400500D01*
X129471962Y-118400500D01*
X129471962Y-118400499D01*
X129610053Y-118359953D01*
X129731128Y-118282143D01*
X129825377Y-118173373D01*
X129885165Y-118042457D01*
X129905647Y-117900000D01*
X129885165Y-117757543D01*
X129825377Y-117626627D01*
X129731128Y-117517857D01*
X129610053Y-117440047D01*
X129610051Y-117440046D01*
X129610049Y-117440045D01*
X129610050Y-117440045D01*
X129471963Y-117399500D01*
X129471961Y-117399500D01*
X129328039Y-117399500D01*
X129328036Y-117399500D01*
X129189949Y-117440045D01*
X129068873Y-117517856D01*
X128974623Y-117626626D01*
X128974622Y-117626628D01*
X128914834Y-117757543D01*
X128894353Y-117900000D01*
X121100136Y-117900000D01*
X121066627Y-117826627D01*
X120972378Y-117717857D01*
X120851303Y-117640047D01*
X120851301Y-117640046D01*
X120851299Y-117640045D01*
X120851300Y-117640045D01*
X120713213Y-117599500D01*
X120713211Y-117599500D01*
X120569289Y-117599500D01*
X120569286Y-117599500D01*
X120431199Y-117640045D01*
X120310123Y-117717856D01*
X120215873Y-117826626D01*
X120215872Y-117826628D01*
X120156084Y-117957543D01*
X120135603Y-118100000D01*
X116203342Y-118100000D01*
X116231128Y-118082143D01*
X116325377Y-117973373D01*
X116385165Y-117842457D01*
X116405647Y-117700000D01*
X116385165Y-117557543D01*
X116325377Y-117426627D01*
X116231128Y-117317857D01*
X116110053Y-117240047D01*
X116110051Y-117240046D01*
X116110049Y-117240045D01*
X116110050Y-117240045D01*
X115971963Y-117199500D01*
X115971961Y-117199500D01*
X115828039Y-117199500D01*
X115828036Y-117199500D01*
X115689949Y-117240045D01*
X115568873Y-117317856D01*
X115474623Y-117426626D01*
X115474622Y-117426628D01*
X115414834Y-117557543D01*
X115394353Y-117700000D01*
X112210500Y-117700000D01*
X112210500Y-117128750D01*
X133294353Y-117128750D01*
X133314834Y-117271206D01*
X133373425Y-117399500D01*
X133374623Y-117402123D01*
X133468872Y-117510893D01*
X133589947Y-117588703D01*
X133589950Y-117588704D01*
X133589949Y-117588704D01*
X133697107Y-117620167D01*
X133719102Y-117626626D01*
X133728036Y-117629249D01*
X133728038Y-117629250D01*
X133728039Y-117629250D01*
X133871962Y-117629250D01*
X133871962Y-117629249D01*
X134010053Y-117588703D01*
X134131128Y-117510893D01*
X134225377Y-117402123D01*
X134285165Y-117271207D01*
X134305647Y-117128750D01*
X134285165Y-116986293D01*
X134225377Y-116855377D01*
X134131128Y-116746607D01*
X134010053Y-116668797D01*
X134010051Y-116668796D01*
X134010049Y-116668795D01*
X134010050Y-116668795D01*
X133871963Y-116628250D01*
X133871961Y-116628250D01*
X133728039Y-116628250D01*
X133728036Y-116628250D01*
X133589949Y-116668795D01*
X133468873Y-116746606D01*
X133374623Y-116855376D01*
X133374622Y-116855378D01*
X133314834Y-116986293D01*
X133294353Y-117128750D01*
X112210500Y-117128750D01*
X112210500Y-116250000D01*
X113244353Y-116250000D01*
X113264834Y-116392456D01*
X113282571Y-116431293D01*
X113324623Y-116523373D01*
X113418872Y-116632143D01*
X113539947Y-116709953D01*
X113539950Y-116709954D01*
X113539949Y-116709954D01*
X113678036Y-116750499D01*
X113678038Y-116750500D01*
X113678039Y-116750500D01*
X113821962Y-116750500D01*
X113821962Y-116750499D01*
X113960053Y-116709953D01*
X114081128Y-116632143D01*
X114175377Y-116523373D01*
X114235165Y-116392457D01*
X114248458Y-116300000D01*
X117544353Y-116300000D01*
X117564834Y-116442456D01*
X117606858Y-116534473D01*
X117624623Y-116573373D01*
X117718872Y-116682143D01*
X117839947Y-116759953D01*
X117839950Y-116759954D01*
X117839949Y-116759954D01*
X117978036Y-116800499D01*
X117978038Y-116800500D01*
X117978039Y-116800500D01*
X118121962Y-116800500D01*
X118121962Y-116800499D01*
X118260053Y-116759953D01*
X118381128Y-116682143D01*
X118475377Y-116573373D01*
X118535165Y-116442457D01*
X118555647Y-116300000D01*
X118535165Y-116157543D01*
X118475377Y-116026627D01*
X118381128Y-115917857D01*
X118260053Y-115840047D01*
X118260051Y-115840046D01*
X118260049Y-115840045D01*
X118260050Y-115840045D01*
X118121963Y-115799500D01*
X118121961Y-115799500D01*
X117978039Y-115799500D01*
X117978036Y-115799500D01*
X117839949Y-115840045D01*
X117718873Y-115917856D01*
X117624623Y-116026626D01*
X117624622Y-116026628D01*
X117564834Y-116157543D01*
X117544353Y-116300000D01*
X114248458Y-116300000D01*
X114255647Y-116250000D01*
X114235165Y-116107543D01*
X114175377Y-115976627D01*
X114081128Y-115867857D01*
X113960053Y-115790047D01*
X113960051Y-115790046D01*
X113960049Y-115790045D01*
X113960050Y-115790045D01*
X113821963Y-115749500D01*
X113821961Y-115749500D01*
X113678039Y-115749500D01*
X113678036Y-115749500D01*
X113539949Y-115790045D01*
X113418873Y-115867856D01*
X113324623Y-115976626D01*
X113324622Y-115976628D01*
X113264834Y-116107543D01*
X113244353Y-116250000D01*
X112210500Y-116250000D01*
X112210500Y-114834829D01*
X117594353Y-114834829D01*
X117614834Y-114977285D01*
X117667042Y-115091603D01*
X117674623Y-115108202D01*
X117768872Y-115216972D01*
X117889947Y-115294782D01*
X117889950Y-115294783D01*
X117889949Y-115294783D01*
X117997107Y-115326246D01*
X118014293Y-115331293D01*
X118028036Y-115335328D01*
X118028038Y-115335329D01*
X118028039Y-115335329D01*
X118171962Y-115335329D01*
X118171962Y-115335328D01*
X118310053Y-115294782D01*
X118431128Y-115216972D01*
X118525377Y-115108202D01*
X118585165Y-114977286D01*
X118605647Y-114834829D01*
X118585165Y-114692372D01*
X118525377Y-114561456D01*
X118431128Y-114452686D01*
X118310053Y-114374876D01*
X118310051Y-114374875D01*
X118310049Y-114374874D01*
X118310050Y-114374874D01*
X118306222Y-114373750D01*
X124294353Y-114373750D01*
X124314834Y-114516206D01*
X124335500Y-114561457D01*
X124374623Y-114647123D01*
X124468872Y-114755893D01*
X124468874Y-114755894D01*
X124468876Y-114755896D01*
X124567744Y-114819435D01*
X124613499Y-114872238D01*
X124623443Y-114941397D01*
X124594418Y-115004953D01*
X124567744Y-115028065D01*
X124468876Y-115091603D01*
X124468874Y-115091605D01*
X124468872Y-115091606D01*
X124468872Y-115091607D01*
X124446672Y-115117226D01*
X124374623Y-115200376D01*
X124374622Y-115200378D01*
X124314834Y-115331293D01*
X124294353Y-115473750D01*
X124314834Y-115616206D01*
X124326823Y-115642457D01*
X124374623Y-115747123D01*
X124468872Y-115855893D01*
X124468874Y-115855894D01*
X124468876Y-115855896D01*
X124567744Y-115919435D01*
X124613499Y-115972238D01*
X124623443Y-116041397D01*
X124594418Y-116104953D01*
X124567744Y-116128065D01*
X124468876Y-116191603D01*
X124468874Y-116191605D01*
X124374623Y-116300376D01*
X124374622Y-116300378D01*
X124314834Y-116431293D01*
X124294353Y-116573750D01*
X124314834Y-116716206D01*
X124353330Y-116800499D01*
X124374623Y-116847123D01*
X124468872Y-116955893D01*
X124589947Y-117033703D01*
X124589950Y-117033704D01*
X124589949Y-117033704D01*
X124728036Y-117074249D01*
X124728038Y-117074250D01*
X124728039Y-117074250D01*
X124871962Y-117074250D01*
X124871962Y-117074249D01*
X125010053Y-117033703D01*
X125131128Y-116955893D01*
X125206287Y-116869153D01*
X125265064Y-116831379D01*
X125334934Y-116831379D01*
X125393711Y-116869152D01*
X125468872Y-116955893D01*
X125589947Y-117033703D01*
X125589950Y-117033704D01*
X125589949Y-117033704D01*
X125728036Y-117074249D01*
X125728038Y-117074250D01*
X125728039Y-117074250D01*
X125871962Y-117074250D01*
X125871962Y-117074249D01*
X126010053Y-117033703D01*
X126131128Y-116955893D01*
X126206287Y-116869153D01*
X126265064Y-116831379D01*
X126334934Y-116831379D01*
X126393711Y-116869152D01*
X126468872Y-116955893D01*
X126589947Y-117033703D01*
X126589950Y-117033704D01*
X126589949Y-117033704D01*
X126728036Y-117074249D01*
X126728038Y-117074250D01*
X126728039Y-117074250D01*
X126871962Y-117074250D01*
X126871962Y-117074249D01*
X127010053Y-117033703D01*
X127131128Y-116955893D01*
X127225377Y-116847123D01*
X127285165Y-116716207D01*
X127305647Y-116573750D01*
X127285165Y-116431293D01*
X127225377Y-116300377D01*
X127131128Y-116191607D01*
X127032253Y-116128064D01*
X126986500Y-116075262D01*
X126976556Y-116006104D01*
X127005581Y-115942548D01*
X127032254Y-115919435D01*
X127131128Y-115855893D01*
X127225377Y-115747123D01*
X127233768Y-115728750D01*
X133144353Y-115728750D01*
X133164834Y-115871206D01*
X133203410Y-115955673D01*
X133224623Y-116002123D01*
X133318872Y-116110893D01*
X133439947Y-116188703D01*
X133439950Y-116188704D01*
X133439949Y-116188704D01*
X133578036Y-116229249D01*
X133578038Y-116229250D01*
X133578039Y-116229250D01*
X133721962Y-116229250D01*
X133721962Y-116229249D01*
X133850170Y-116191605D01*
X133860050Y-116188704D01*
X133860050Y-116188703D01*
X133860053Y-116188703D01*
X133981128Y-116110893D01*
X134075377Y-116002123D01*
X134135165Y-115871207D01*
X134155647Y-115728750D01*
X134135165Y-115586293D01*
X134075377Y-115455377D01*
X133981128Y-115346607D01*
X133860053Y-115268797D01*
X133860051Y-115268796D01*
X133860049Y-115268795D01*
X133860050Y-115268795D01*
X133721963Y-115228250D01*
X133721961Y-115228250D01*
X133578039Y-115228250D01*
X133578036Y-115228250D01*
X133439949Y-115268795D01*
X133318873Y-115346606D01*
X133224623Y-115455376D01*
X133224622Y-115455378D01*
X133164834Y-115586293D01*
X133144353Y-115728750D01*
X127233768Y-115728750D01*
X127285165Y-115616207D01*
X127305647Y-115473750D01*
X127285165Y-115331293D01*
X127225377Y-115200377D01*
X127131128Y-115091607D01*
X127032253Y-115028064D01*
X126986500Y-114975262D01*
X126976556Y-114906104D01*
X127005581Y-114842548D01*
X127032254Y-114819435D01*
X127131128Y-114755893D01*
X127225377Y-114647123D01*
X127279437Y-114528750D01*
X132594353Y-114528750D01*
X132614834Y-114671206D01*
X132674622Y-114802121D01*
X132674623Y-114802123D01*
X132768872Y-114910893D01*
X132889947Y-114988703D01*
X132889950Y-114988704D01*
X132889949Y-114988704D01*
X132975410Y-115013797D01*
X133024003Y-115028065D01*
X133028036Y-115029249D01*
X133028038Y-115029250D01*
X133028039Y-115029250D01*
X133171962Y-115029250D01*
X133171962Y-115029249D01*
X133310053Y-114988703D01*
X133431128Y-114910893D01*
X133525377Y-114802123D01*
X133585165Y-114671207D01*
X133605647Y-114528750D01*
X133585165Y-114386293D01*
X133525377Y-114255377D01*
X133431128Y-114146607D01*
X133310053Y-114068797D01*
X133310051Y-114068796D01*
X133310049Y-114068795D01*
X133310050Y-114068795D01*
X133171963Y-114028250D01*
X133171961Y-114028250D01*
X133028039Y-114028250D01*
X133028036Y-114028250D01*
X132889949Y-114068795D01*
X132768873Y-114146606D01*
X132674623Y-114255376D01*
X132674622Y-114255378D01*
X132614834Y-114386293D01*
X132594353Y-114528750D01*
X127279437Y-114528750D01*
X127285165Y-114516207D01*
X127305647Y-114373750D01*
X127285165Y-114231293D01*
X127225377Y-114100377D01*
X127131128Y-113991607D01*
X127010053Y-113913797D01*
X127010051Y-113913796D01*
X127010049Y-113913795D01*
X127010050Y-113913795D01*
X126871963Y-113873250D01*
X126871961Y-113873250D01*
X126728039Y-113873250D01*
X126728036Y-113873250D01*
X126589949Y-113913795D01*
X126468873Y-113991606D01*
X126393713Y-114078346D01*
X126334935Y-114116120D01*
X126265065Y-114116120D01*
X126206287Y-114078346D01*
X126198011Y-114068795D01*
X126131128Y-113991607D01*
X126010053Y-113913797D01*
X126010051Y-113913796D01*
X126010049Y-113913795D01*
X126010050Y-113913795D01*
X125871963Y-113873250D01*
X125871961Y-113873250D01*
X125728039Y-113873250D01*
X125728036Y-113873250D01*
X125589949Y-113913795D01*
X125468873Y-113991606D01*
X125393713Y-114078346D01*
X125334935Y-114116120D01*
X125265065Y-114116120D01*
X125206287Y-114078346D01*
X125198011Y-114068795D01*
X125131128Y-113991607D01*
X125010053Y-113913797D01*
X125010051Y-113913796D01*
X125010049Y-113913795D01*
X125010050Y-113913795D01*
X124871963Y-113873250D01*
X124871961Y-113873250D01*
X124728039Y-113873250D01*
X124728036Y-113873250D01*
X124589949Y-113913795D01*
X124468873Y-113991606D01*
X124374623Y-114100376D01*
X124374622Y-114100378D01*
X124314834Y-114231293D01*
X124294353Y-114373750D01*
X118306222Y-114373750D01*
X118171963Y-114334329D01*
X118171961Y-114334329D01*
X118028039Y-114334329D01*
X118028036Y-114334329D01*
X117889949Y-114374874D01*
X117768873Y-114452685D01*
X117674623Y-114561455D01*
X117674622Y-114561457D01*
X117614834Y-114692372D01*
X117594353Y-114834829D01*
X112210500Y-114834829D01*
X112210500Y-113300000D01*
X117594353Y-113300000D01*
X117614834Y-113442456D01*
X117674622Y-113573371D01*
X117674623Y-113573373D01*
X117768872Y-113682143D01*
X117889947Y-113759953D01*
X117889950Y-113759954D01*
X117889949Y-113759954D01*
X118028036Y-113800499D01*
X118028038Y-113800500D01*
X118028039Y-113800500D01*
X118171962Y-113800500D01*
X118171962Y-113800499D01*
X118310053Y-113759953D01*
X118431128Y-113682143D01*
X118525377Y-113573373D01*
X118585165Y-113442457D01*
X118605647Y-113300000D01*
X118585165Y-113157543D01*
X118525377Y-113026627D01*
X118431128Y-112917857D01*
X118310053Y-112840047D01*
X118310051Y-112840046D01*
X118310049Y-112840045D01*
X118310050Y-112840045D01*
X118258810Y-112825000D01*
X132519353Y-112825000D01*
X132539834Y-112967456D01*
X132599622Y-113098371D01*
X132599623Y-113098373D01*
X132693872Y-113207143D01*
X132814947Y-113284953D01*
X132814950Y-113284954D01*
X132814949Y-113284954D01*
X132953036Y-113325499D01*
X132953038Y-113325500D01*
X132953039Y-113325500D01*
X133096962Y-113325500D01*
X133096962Y-113325499D01*
X133235053Y-113284953D01*
X133356128Y-113207143D01*
X133450377Y-113098373D01*
X133510165Y-112967457D01*
X133530647Y-112825000D01*
X133510165Y-112682543D01*
X133450377Y-112551627D01*
X133356128Y-112442857D01*
X133235053Y-112365047D01*
X133235051Y-112365046D01*
X133235049Y-112365045D01*
X133235050Y-112365045D01*
X133096963Y-112324500D01*
X133096961Y-112324500D01*
X132953039Y-112324500D01*
X132953036Y-112324500D01*
X132814949Y-112365045D01*
X132693873Y-112442856D01*
X132599623Y-112551626D01*
X132599622Y-112551628D01*
X132539834Y-112682543D01*
X132519353Y-112825000D01*
X118258810Y-112825000D01*
X118171963Y-112799500D01*
X118171961Y-112799500D01*
X118028039Y-112799500D01*
X118028036Y-112799500D01*
X117889949Y-112840045D01*
X117768873Y-112917856D01*
X117674623Y-113026626D01*
X117674622Y-113026628D01*
X117614834Y-113157543D01*
X117594353Y-113300000D01*
X112210500Y-113300000D01*
X112210500Y-111250000D01*
X113244353Y-111250000D01*
X113264834Y-111392456D01*
X113294559Y-111457543D01*
X113324623Y-111523373D01*
X113418872Y-111632143D01*
X113539947Y-111709953D01*
X113539950Y-111709954D01*
X113539949Y-111709954D01*
X113678036Y-111750499D01*
X113678038Y-111750500D01*
X113678039Y-111750500D01*
X113821962Y-111750500D01*
X113821962Y-111750499D01*
X113960053Y-111709953D01*
X114081128Y-111632143D01*
X114108980Y-111600000D01*
X118294353Y-111600000D01*
X118314834Y-111742456D01*
X118318508Y-111750500D01*
X118374623Y-111873373D01*
X118468872Y-111982143D01*
X118589947Y-112059953D01*
X118589950Y-112059954D01*
X118589949Y-112059954D01*
X118728036Y-112100499D01*
X118728038Y-112100500D01*
X118728039Y-112100500D01*
X118871962Y-112100500D01*
X118871962Y-112100499D01*
X119010053Y-112059953D01*
X119131128Y-111982143D01*
X119225377Y-111873373D01*
X119285165Y-111742457D01*
X119305647Y-111600000D01*
X119285165Y-111457543D01*
X119225377Y-111326627D01*
X119131128Y-111217857D01*
X119010053Y-111140047D01*
X119010051Y-111140046D01*
X119010049Y-111140045D01*
X119010050Y-111140045D01*
X118871963Y-111099500D01*
X118871961Y-111099500D01*
X118728039Y-111099500D01*
X118728036Y-111099500D01*
X118589949Y-111140045D01*
X118468873Y-111217856D01*
X118374623Y-111326626D01*
X118374622Y-111326628D01*
X118314834Y-111457543D01*
X118294353Y-111600000D01*
X114108980Y-111600000D01*
X114175377Y-111523373D01*
X114235165Y-111392457D01*
X114255647Y-111250000D01*
X114235165Y-111107543D01*
X114175377Y-110976627D01*
X114081128Y-110867857D01*
X113960053Y-110790047D01*
X113960051Y-110790046D01*
X113960049Y-110790045D01*
X113960050Y-110790045D01*
X113821963Y-110749500D01*
X113821961Y-110749500D01*
X113678039Y-110749500D01*
X113678036Y-110749500D01*
X113539949Y-110790045D01*
X113418873Y-110867856D01*
X113324623Y-110976626D01*
X113324622Y-110976628D01*
X113264834Y-111107543D01*
X113244353Y-111250000D01*
X112210500Y-111250000D01*
X112210500Y-108200000D01*
X121794353Y-108200000D01*
X121814834Y-108342456D01*
X121832959Y-108382143D01*
X121874623Y-108473373D01*
X121968872Y-108582143D01*
X122089947Y-108659953D01*
X122089950Y-108659954D01*
X122089949Y-108659954D01*
X122228036Y-108700499D01*
X122228038Y-108700500D01*
X122228039Y-108700500D01*
X122371962Y-108700500D01*
X122371962Y-108700499D01*
X122510053Y-108659953D01*
X122631128Y-108582143D01*
X122725377Y-108473373D01*
X122785165Y-108342457D01*
X122805647Y-108200000D01*
X122785165Y-108057543D01*
X122758886Y-108000000D01*
X123694353Y-108000000D01*
X123714834Y-108142456D01*
X123741114Y-108200000D01*
X123774623Y-108273373D01*
X123868872Y-108382143D01*
X123989947Y-108459953D01*
X123989950Y-108459954D01*
X123989949Y-108459954D01*
X124128036Y-108500499D01*
X124128038Y-108500500D01*
X124128039Y-108500500D01*
X124271962Y-108500500D01*
X124271962Y-108500499D01*
X124410053Y-108459953D01*
X124531128Y-108382143D01*
X124625377Y-108273373D01*
X124685165Y-108142457D01*
X124691308Y-108099731D01*
X124720333Y-108036175D01*
X124779107Y-107998401D01*
X124910053Y-107959953D01*
X125031128Y-107882143D01*
X125125377Y-107773373D01*
X125185165Y-107642457D01*
X125205647Y-107500000D01*
X125185165Y-107357543D01*
X125125377Y-107226627D01*
X125031128Y-107117857D01*
X124910053Y-107040047D01*
X124910051Y-107040046D01*
X124910049Y-107040045D01*
X124910050Y-107040045D01*
X124771963Y-106999500D01*
X124771961Y-106999500D01*
X124628039Y-106999500D01*
X124628036Y-106999500D01*
X124489949Y-107040045D01*
X124368873Y-107117856D01*
X124274623Y-107226626D01*
X124274622Y-107226628D01*
X124214835Y-107357543D01*
X124208691Y-107400271D01*
X124179665Y-107463826D01*
X124120888Y-107501599D01*
X123989948Y-107540045D01*
X123868873Y-107617856D01*
X123774623Y-107726626D01*
X123774622Y-107726628D01*
X123714834Y-107857543D01*
X123694353Y-108000000D01*
X122758886Y-108000000D01*
X122725377Y-107926627D01*
X122631128Y-107817857D01*
X122510053Y-107740047D01*
X122510051Y-107740046D01*
X122510049Y-107740045D01*
X122510050Y-107740045D01*
X122371963Y-107699500D01*
X122371961Y-107699500D01*
X122228039Y-107699500D01*
X122228036Y-107699500D01*
X122089949Y-107740045D01*
X121968873Y-107817856D01*
X121874623Y-107926626D01*
X121874622Y-107926628D01*
X121814834Y-108057543D01*
X121794353Y-108200000D01*
X112210500Y-108200000D01*
X112210500Y-106250000D01*
X113244353Y-106250000D01*
X113264834Y-106392456D01*
X113324622Y-106523371D01*
X113324623Y-106523373D01*
X113418872Y-106632143D01*
X113539947Y-106709953D01*
X113539950Y-106709954D01*
X113539949Y-106709954D01*
X113678036Y-106750499D01*
X113678038Y-106750500D01*
X113678039Y-106750500D01*
X113821962Y-106750500D01*
X113821962Y-106750499D01*
X113960053Y-106709953D01*
X114081128Y-106632143D01*
X114175377Y-106523373D01*
X114235165Y-106392457D01*
X114255647Y-106250000D01*
X114235165Y-106107543D01*
X114175377Y-105976627D01*
X114081128Y-105867857D01*
X113975540Y-105800000D01*
X119076853Y-105800000D01*
X119097334Y-105942456D01*
X119157122Y-106073371D01*
X119157123Y-106073373D01*
X119251372Y-106182143D01*
X119372447Y-106259953D01*
X119372450Y-106259954D01*
X119372449Y-106259954D01*
X119479607Y-106291417D01*
X119508836Y-106300000D01*
X119510536Y-106300499D01*
X119510538Y-106300500D01*
X119598484Y-106300500D01*
X119665523Y-106320185D01*
X119711278Y-106372988D01*
X119757123Y-106473373D01*
X119851372Y-106582143D01*
X119972447Y-106659953D01*
X119972450Y-106659954D01*
X119972449Y-106659954D01*
X120110536Y-106700499D01*
X120110538Y-106700500D01*
X120110539Y-106700500D01*
X120254462Y-106700500D01*
X120254462Y-106700499D01*
X120392553Y-106659953D01*
X120513628Y-106582143D01*
X120607877Y-106473373D01*
X120667665Y-106342457D01*
X120688147Y-106200000D01*
X120667665Y-106057543D01*
X120607877Y-105926627D01*
X120607875Y-105926625D01*
X120607874Y-105926622D01*
X120568517Y-105881203D01*
X120539491Y-105817648D01*
X120549434Y-105748489D01*
X120568517Y-105718797D01*
X120607874Y-105673377D01*
X120607874Y-105673375D01*
X120607877Y-105673373D01*
X120667665Y-105542457D01*
X120688147Y-105400000D01*
X120667665Y-105257543D01*
X120607877Y-105126627D01*
X120513628Y-105017857D01*
X120392553Y-104940047D01*
X120392551Y-104940046D01*
X120392549Y-104940045D01*
X120392550Y-104940045D01*
X120254463Y-104899500D01*
X120254461Y-104899500D01*
X120110539Y-104899500D01*
X120110536Y-104899500D01*
X119972449Y-104940045D01*
X119851373Y-105017856D01*
X119757123Y-105126626D01*
X119757122Y-105126628D01*
X119711278Y-105227012D01*
X119665523Y-105279816D01*
X119598484Y-105299500D01*
X119510536Y-105299500D01*
X119372449Y-105340045D01*
X119251373Y-105417856D01*
X119157123Y-105526626D01*
X119157122Y-105526628D01*
X119097334Y-105657543D01*
X119076853Y-105800000D01*
X113975540Y-105800000D01*
X113960053Y-105790047D01*
X113960051Y-105790046D01*
X113960049Y-105790045D01*
X113960050Y-105790045D01*
X113821963Y-105749500D01*
X113821961Y-105749500D01*
X113678039Y-105749500D01*
X113678036Y-105749500D01*
X113539949Y-105790045D01*
X113418873Y-105867856D01*
X113324623Y-105976626D01*
X113324622Y-105976628D01*
X113264834Y-106107543D01*
X113244353Y-106250000D01*
X112210500Y-106250000D01*
X112210500Y-101250000D01*
X113244353Y-101250000D01*
X113264834Y-101392456D01*
X113310490Y-101492427D01*
X113324623Y-101523373D01*
X113418872Y-101632143D01*
X113539947Y-101709953D01*
X113539950Y-101709954D01*
X113539949Y-101709954D01*
X113678036Y-101750499D01*
X113678038Y-101750500D01*
X113678039Y-101750500D01*
X113821962Y-101750500D01*
X113821962Y-101750499D01*
X113960053Y-101709953D01*
X114081128Y-101632143D01*
X114175377Y-101523373D01*
X114235165Y-101392457D01*
X114255647Y-101250000D01*
X114235165Y-101107543D01*
X114175377Y-100976627D01*
X114081128Y-100867857D01*
X113960053Y-100790047D01*
X113960051Y-100790046D01*
X113960049Y-100790045D01*
X113960050Y-100790045D01*
X113821963Y-100749500D01*
X113821961Y-100749500D01*
X113678039Y-100749500D01*
X113678036Y-100749500D01*
X113539949Y-100790045D01*
X113418873Y-100867856D01*
X113324623Y-100976626D01*
X113324622Y-100976628D01*
X113264834Y-101107543D01*
X113244353Y-101250000D01*
X112210500Y-101250000D01*
X112210500Y-96250000D01*
X113244353Y-96250000D01*
X113264834Y-96392456D01*
X113294559Y-96457543D01*
X113324623Y-96523373D01*
X113418872Y-96632143D01*
X113539947Y-96709953D01*
X113539950Y-96709954D01*
X113539949Y-96709954D01*
X113678036Y-96750499D01*
X113678038Y-96750500D01*
X113678039Y-96750500D01*
X113821962Y-96750500D01*
X113821962Y-96750499D01*
X113960053Y-96709953D01*
X114081128Y-96632143D01*
X114175377Y-96523373D01*
X114235165Y-96392457D01*
X114255647Y-96250000D01*
X114235165Y-96107543D01*
X114175377Y-95976627D01*
X114081128Y-95867857D01*
X113960053Y-95790047D01*
X113960051Y-95790046D01*
X113960049Y-95790045D01*
X113960050Y-95790045D01*
X113821963Y-95749500D01*
X113821961Y-95749500D01*
X113678039Y-95749500D01*
X113678036Y-95749500D01*
X113539949Y-95790045D01*
X113418873Y-95867856D01*
X113324623Y-95976626D01*
X113324622Y-95976628D01*
X113264834Y-96107543D01*
X113244353Y-96250000D01*
X112210500Y-96250000D01*
X112210500Y-91250000D01*
X113244353Y-91250000D01*
X113264834Y-91392456D01*
X113308821Y-91488772D01*
X113324623Y-91523373D01*
X113418872Y-91632143D01*
X113539947Y-91709953D01*
X113539950Y-91709954D01*
X113539949Y-91709954D01*
X113678036Y-91750499D01*
X113678038Y-91750500D01*
X113678039Y-91750500D01*
X113821962Y-91750500D01*
X113821962Y-91750499D01*
X113960053Y-91709953D01*
X114081128Y-91632143D01*
X114103568Y-91606246D01*
X127851069Y-91606246D01*
X127851069Y-91606253D01*
X127869674Y-91723727D01*
X127869674Y-91723728D01*
X127869675Y-91723731D01*
X127869676Y-91723732D01*
X127919475Y-91821469D01*
X127923678Y-91829716D01*
X127923681Y-91829720D01*
X128007779Y-91913818D01*
X128007783Y-91913821D01*
X128007785Y-91913823D01*
X128113768Y-91967824D01*
X128113770Y-91967824D01*
X128113772Y-91967825D01*
X128231247Y-91986431D01*
X128231250Y-91986431D01*
X128231253Y-91986431D01*
X128348727Y-91967825D01*
X128348728Y-91967825D01*
X128348729Y-91967824D01*
X128348732Y-91967824D01*
X128454715Y-91913823D01*
X128460661Y-91907877D01*
X128518569Y-91849970D01*
X128579892Y-91816485D01*
X128649584Y-91821469D01*
X128693931Y-91849970D01*
X128757779Y-91913818D01*
X128757783Y-91913821D01*
X128757785Y-91913823D01*
X128863768Y-91967824D01*
X128863770Y-91967824D01*
X128863772Y-91967825D01*
X128981247Y-91986431D01*
X128981250Y-91986431D01*
X128981253Y-91986431D01*
X129098727Y-91967825D01*
X129098728Y-91967825D01*
X129098729Y-91967824D01*
X129098732Y-91967824D01*
X129204715Y-91913823D01*
X129288823Y-91829715D01*
X129342824Y-91723732D01*
X129345006Y-91709954D01*
X129361431Y-91606253D01*
X129361431Y-91606246D01*
X129342825Y-91488772D01*
X129342825Y-91488771D01*
X129342824Y-91488769D01*
X129342824Y-91488768D01*
X129288823Y-91382785D01*
X129288821Y-91382783D01*
X129288818Y-91382779D01*
X129204720Y-91298681D01*
X129204716Y-91298678D01*
X129204715Y-91298677D01*
X129098732Y-91244676D01*
X129098730Y-91244675D01*
X129098727Y-91244674D01*
X128981253Y-91226069D01*
X128981247Y-91226069D01*
X128863772Y-91244674D01*
X128863771Y-91244674D01*
X128757783Y-91298678D01*
X128757779Y-91298681D01*
X128693931Y-91362530D01*
X128632608Y-91396015D01*
X128562916Y-91391031D01*
X128518569Y-91362530D01*
X128454720Y-91298681D01*
X128454716Y-91298678D01*
X128454715Y-91298677D01*
X128348732Y-91244676D01*
X128348730Y-91244675D01*
X128348727Y-91244674D01*
X128231253Y-91226069D01*
X128231247Y-91226069D01*
X128113772Y-91244674D01*
X128113771Y-91244674D01*
X128007783Y-91298678D01*
X128007779Y-91298681D01*
X127923681Y-91382779D01*
X127923678Y-91382783D01*
X127869674Y-91488771D01*
X127869674Y-91488772D01*
X127851069Y-91606246D01*
X114103568Y-91606246D01*
X114175377Y-91523373D01*
X114235165Y-91392457D01*
X114255647Y-91250000D01*
X114235165Y-91107543D01*
X114175377Y-90976627D01*
X114081128Y-90867857D01*
X113960053Y-90790047D01*
X113960051Y-90790046D01*
X113960049Y-90790045D01*
X113960050Y-90790045D01*
X113821963Y-90749500D01*
X113821961Y-90749500D01*
X113678039Y-90749500D01*
X113678036Y-90749500D01*
X113539949Y-90790045D01*
X113418873Y-90867856D01*
X113324623Y-90976626D01*
X113324622Y-90976628D01*
X113264834Y-91107543D01*
X113244353Y-91250000D01*
X112210500Y-91250000D01*
X112210500Y-88874000D01*
X112230185Y-88806961D01*
X112282989Y-88761206D01*
X112334500Y-88750000D01*
X126207802Y-88750000D01*
X126274841Y-88769685D01*
G37*
%TD.AperFunction*%
%TD*%
%TA.AperFunction,Conductor*%
%TO.N,GND*%
G36*
X168343039Y-110219685D02*
G01*
X168388794Y-110272489D01*
X168400000Y-110324000D01*
X168400000Y-120350000D01*
X173126000Y-120350000D01*
X173193039Y-120369685D01*
X173238794Y-120422489D01*
X173250000Y-120474000D01*
X173250000Y-120647969D01*
X173230315Y-120715008D01*
X173177511Y-120760763D01*
X173108353Y-120770707D01*
X173060722Y-120753396D01*
X172992415Y-120711102D01*
X172802321Y-120637460D01*
X172601928Y-120600000D01*
X172398072Y-120600000D01*
X172197678Y-120637460D01*
X172007588Y-120711100D01*
X172007581Y-120711104D01*
X171919312Y-120765757D01*
X171919311Y-120765758D01*
X172513553Y-121360000D01*
X172455238Y-121360000D01*
X172368765Y-121383170D01*
X172291235Y-121427932D01*
X172227932Y-121491235D01*
X172183170Y-121568765D01*
X172160000Y-121655238D01*
X172160000Y-121744762D01*
X172183170Y-121831235D01*
X172227932Y-121908765D01*
X172291235Y-121972068D01*
X172368765Y-122016830D01*
X172455238Y-122040000D01*
X172513551Y-122040000D01*
X171919311Y-122634240D01*
X172007584Y-122688897D01*
X172089173Y-122720505D01*
X172144574Y-122763078D01*
X172168165Y-122828845D01*
X172152454Y-122896925D01*
X172102430Y-122945704D01*
X172094817Y-122949410D01*
X172072410Y-122959386D01*
X172072408Y-122959387D01*
X171927768Y-123064475D01*
X171808140Y-123197336D01*
X171718750Y-123352164D01*
X171718747Y-123352170D01*
X171663504Y-123522192D01*
X171663503Y-123522194D01*
X171644815Y-123700000D01*
X171663503Y-123877805D01*
X171663504Y-123877807D01*
X171718747Y-124047829D01*
X171718750Y-124047835D01*
X171808141Y-124202665D01*
X171849812Y-124248946D01*
X171927764Y-124335521D01*
X171927767Y-124335523D01*
X171927770Y-124335526D01*
X172072407Y-124440612D01*
X172235733Y-124513329D01*
X172410609Y-124550500D01*
X172410610Y-124550500D01*
X172589389Y-124550500D01*
X172589391Y-124550500D01*
X172764267Y-124513329D01*
X172927593Y-124440612D01*
X173053115Y-124349413D01*
X173118920Y-124325934D01*
X173186974Y-124341759D01*
X173235669Y-124391864D01*
X173250000Y-124449732D01*
X173250000Y-124725500D01*
X173230315Y-124792539D01*
X173177511Y-124838294D01*
X173126000Y-124849500D01*
X171875323Y-124849500D01*
X171802264Y-124864032D01*
X171802260Y-124864033D01*
X171719399Y-124919399D01*
X171664033Y-125002260D01*
X171664032Y-125002264D01*
X171649500Y-125075321D01*
X171649500Y-126276000D01*
X171629815Y-126343039D01*
X171577011Y-126388794D01*
X171525500Y-126400000D01*
X171291850Y-126400000D01*
X171224811Y-126380315D01*
X171179056Y-126327511D01*
X171169112Y-126258353D01*
X171189275Y-126208677D01*
X171188610Y-126208293D01*
X171191378Y-126203498D01*
X171191537Y-126203107D01*
X171191849Y-126202675D01*
X171191859Y-126202665D01*
X171281250Y-126047835D01*
X171336497Y-125877803D01*
X171355185Y-125700000D01*
X171336497Y-125522197D01*
X171281250Y-125352165D01*
X171191859Y-125197335D01*
X171145003Y-125145296D01*
X171072235Y-125064478D01*
X171072232Y-125064476D01*
X171072231Y-125064475D01*
X171072230Y-125064474D01*
X170927593Y-124959388D01*
X170764267Y-124886671D01*
X170764265Y-124886670D01*
X170636594Y-124859533D01*
X170589391Y-124849500D01*
X170410609Y-124849500D01*
X170379954Y-124856015D01*
X170235733Y-124886670D01*
X170235728Y-124886672D01*
X170072408Y-124959387D01*
X169927768Y-125064475D01*
X169808140Y-125197336D01*
X169718750Y-125352164D01*
X169718747Y-125352170D01*
X169663504Y-125522192D01*
X169663503Y-125522194D01*
X169644815Y-125700000D01*
X169663503Y-125877805D01*
X169663504Y-125877807D01*
X169718747Y-126047829D01*
X169718750Y-126047835D01*
X169808141Y-126202665D01*
X169808145Y-126202669D01*
X169808463Y-126203107D01*
X169808571Y-126203411D01*
X169811390Y-126208293D01*
X169810497Y-126208808D01*
X169831947Y-126268912D01*
X169816127Y-126336967D01*
X169766025Y-126385666D01*
X169708150Y-126400000D01*
X165524000Y-126400000D01*
X165456961Y-126380315D01*
X165411206Y-126327511D01*
X165400000Y-126276000D01*
X165400000Y-123700000D01*
X169644815Y-123700000D01*
X169663503Y-123877805D01*
X169663504Y-123877807D01*
X169718747Y-124047829D01*
X169718750Y-124047835D01*
X169808141Y-124202665D01*
X169849812Y-124248946D01*
X169927764Y-124335521D01*
X169927767Y-124335523D01*
X169927770Y-124335526D01*
X170072407Y-124440612D01*
X170235733Y-124513329D01*
X170410609Y-124550500D01*
X170410610Y-124550500D01*
X170589389Y-124550500D01*
X170589391Y-124550500D01*
X170764267Y-124513329D01*
X170927593Y-124440612D01*
X171072230Y-124335526D01*
X171191859Y-124202665D01*
X171281250Y-124047835D01*
X171336497Y-123877803D01*
X171355185Y-123700000D01*
X171336497Y-123522197D01*
X171281250Y-123352165D01*
X171191859Y-123197335D01*
X171145003Y-123145296D01*
X171072235Y-123064478D01*
X171072232Y-123064476D01*
X171072231Y-123064475D01*
X171072230Y-123064474D01*
X170927593Y-122959388D01*
X170764267Y-122886671D01*
X170764265Y-122886670D01*
X170636594Y-122859533D01*
X170589391Y-122849500D01*
X170410609Y-122849500D01*
X170379954Y-122856015D01*
X170235733Y-122886670D01*
X170235728Y-122886672D01*
X170072408Y-122959387D01*
X169927768Y-123064475D01*
X169808140Y-123197336D01*
X169718750Y-123352164D01*
X169718747Y-123352170D01*
X169663504Y-123522192D01*
X169663503Y-123522194D01*
X169644815Y-123700000D01*
X165400000Y-123700000D01*
X165400000Y-121700000D01*
X169644815Y-121700000D01*
X169663503Y-121877805D01*
X169663504Y-121877807D01*
X169718747Y-122047829D01*
X169718750Y-122047835D01*
X169808141Y-122202665D01*
X169849812Y-122248946D01*
X169927764Y-122335521D01*
X169927767Y-122335523D01*
X169927770Y-122335526D01*
X170072407Y-122440612D01*
X170235733Y-122513329D01*
X170410609Y-122550500D01*
X170410610Y-122550500D01*
X170589389Y-122550500D01*
X170589391Y-122550500D01*
X170764267Y-122513329D01*
X170927593Y-122440612D01*
X171072230Y-122335526D01*
X171191859Y-122202665D01*
X171253378Y-122096109D01*
X171303942Y-122047897D01*
X171372549Y-122034673D01*
X171437414Y-122060641D01*
X171471763Y-122102840D01*
X171560751Y-122281551D01*
X171562533Y-122283911D01*
X172146446Y-121700000D01*
X172146446Y-121699999D01*
X171562533Y-121116087D01*
X171560756Y-121118441D01*
X171471763Y-121297160D01*
X171424259Y-121348396D01*
X171356596Y-121365817D01*
X171290256Y-121343891D01*
X171253378Y-121303889D01*
X171191859Y-121197335D01*
X171183904Y-121188501D01*
X171072235Y-121064478D01*
X171072232Y-121064476D01*
X171072231Y-121064475D01*
X171072230Y-121064474D01*
X170927593Y-120959388D01*
X170764267Y-120886671D01*
X170764265Y-120886670D01*
X170636594Y-120859533D01*
X170589391Y-120849500D01*
X170410609Y-120849500D01*
X170379954Y-120856015D01*
X170235733Y-120886670D01*
X170235728Y-120886672D01*
X170072408Y-120959387D01*
X169927768Y-121064475D01*
X169808140Y-121197336D01*
X169718750Y-121352164D01*
X169718747Y-121352170D01*
X169663504Y-121522192D01*
X169663503Y-121522194D01*
X169644815Y-121700000D01*
X165400000Y-121700000D01*
X165400000Y-113800000D01*
X163524000Y-113800000D01*
X163456961Y-113780315D01*
X163411206Y-113727511D01*
X163400000Y-113676000D01*
X163400000Y-110324000D01*
X163419685Y-110256961D01*
X163472489Y-110211206D01*
X163524000Y-110200000D01*
X168276000Y-110200000D01*
X168343039Y-110219685D01*
G37*
%TD.AperFunction*%
%TD*%
%TA.AperFunction,Conductor*%
%TO.N,+5V*%
G36*
X170121935Y-76450397D02*
G01*
X170123471Y-76450500D01*
X170130691Y-76450500D01*
X170187295Y-76450500D01*
X170192703Y-76450618D01*
X170205173Y-76451162D01*
X170581127Y-76467576D01*
X170591864Y-76468516D01*
X170974653Y-76518911D01*
X170985280Y-76520784D01*
X171362225Y-76604351D01*
X171372645Y-76607143D01*
X171740865Y-76723242D01*
X171751019Y-76726938D01*
X172107709Y-76874685D01*
X172117501Y-76879251D01*
X172459965Y-77057526D01*
X172469305Y-77062919D01*
X172594409Y-77142619D01*
X172794915Y-77270356D01*
X172803776Y-77276560D01*
X173110069Y-77511587D01*
X173118356Y-77518541D01*
X173402990Y-77779360D01*
X173410639Y-77787009D01*
X173671458Y-78071643D01*
X173678412Y-78079930D01*
X173913439Y-78386223D01*
X173919643Y-78395084D01*
X174023357Y-78557882D01*
X174113578Y-78699500D01*
X174127072Y-78720680D01*
X174132477Y-78730042D01*
X174178191Y-78817857D01*
X174310745Y-79072492D01*
X174315317Y-79082296D01*
X174463060Y-79438978D01*
X174466760Y-79449143D01*
X174582851Y-79817336D01*
X174585651Y-79827786D01*
X174669212Y-80204707D01*
X174671090Y-80215360D01*
X174721481Y-80598115D01*
X174722424Y-80608891D01*
X174739382Y-80997297D01*
X174739500Y-81002706D01*
X174739500Y-87460414D01*
X174719815Y-87527453D01*
X174667011Y-87573208D01*
X174597853Y-87583152D01*
X174548461Y-87564730D01*
X174510050Y-87540045D01*
X174371963Y-87499500D01*
X174371961Y-87499500D01*
X174228039Y-87499500D01*
X174228036Y-87499500D01*
X174089949Y-87540045D01*
X173968873Y-87617856D01*
X173874623Y-87726626D01*
X173874622Y-87726628D01*
X173814834Y-87857543D01*
X173794353Y-88000000D01*
X173814834Y-88142456D01*
X173860500Y-88242448D01*
X173874623Y-88273373D01*
X173968872Y-88382143D01*
X174089947Y-88459953D01*
X174089950Y-88459954D01*
X174089949Y-88459954D01*
X174228036Y-88500499D01*
X174228038Y-88500500D01*
X174228039Y-88500500D01*
X174371962Y-88500500D01*
X174371962Y-88500499D01*
X174510050Y-88459954D01*
X174510051Y-88459954D01*
X174510053Y-88459953D01*
X174548461Y-88435269D01*
X174615499Y-88415585D01*
X174682539Y-88435269D01*
X174728294Y-88488073D01*
X174739500Y-88539585D01*
X174739500Y-96260414D01*
X174719815Y-96327453D01*
X174667011Y-96373208D01*
X174597853Y-96383152D01*
X174548461Y-96364730D01*
X174510050Y-96340045D01*
X174371963Y-96299500D01*
X174371961Y-96299500D01*
X174228039Y-96299500D01*
X174228036Y-96299500D01*
X174089949Y-96340045D01*
X173968873Y-96417856D01*
X173874623Y-96526626D01*
X173874622Y-96526628D01*
X173814834Y-96657543D01*
X173794353Y-96800000D01*
X173814834Y-96942456D01*
X173832959Y-96982143D01*
X173874623Y-97073373D01*
X173968872Y-97182143D01*
X174089947Y-97259953D01*
X174089950Y-97259954D01*
X174089949Y-97259954D01*
X174228036Y-97300499D01*
X174228038Y-97300500D01*
X174228039Y-97300500D01*
X174371962Y-97300500D01*
X174371962Y-97300499D01*
X174510050Y-97259954D01*
X174510051Y-97259954D01*
X174526318Y-97249500D01*
X174548461Y-97235269D01*
X174615499Y-97215585D01*
X174682539Y-97235269D01*
X174728294Y-97288073D01*
X174739500Y-97339585D01*
X174739500Y-105060414D01*
X174719815Y-105127453D01*
X174667011Y-105173208D01*
X174597853Y-105183152D01*
X174548461Y-105164730D01*
X174510050Y-105140045D01*
X174371963Y-105099500D01*
X174371961Y-105099500D01*
X174228039Y-105099500D01*
X174228036Y-105099500D01*
X174089949Y-105140045D01*
X173968873Y-105217856D01*
X173874623Y-105326626D01*
X173874622Y-105326628D01*
X173814834Y-105457543D01*
X173794353Y-105600000D01*
X173814834Y-105742456D01*
X173874622Y-105873371D01*
X173874623Y-105873373D01*
X173968872Y-105982143D01*
X174089947Y-106059953D01*
X174089950Y-106059954D01*
X174089949Y-106059954D01*
X174228036Y-106100499D01*
X174228038Y-106100500D01*
X174228039Y-106100500D01*
X174371962Y-106100500D01*
X174371962Y-106100499D01*
X174510050Y-106059954D01*
X174510051Y-106059954D01*
X174510053Y-106059953D01*
X174548461Y-106035269D01*
X174615499Y-106015585D01*
X174682539Y-106035269D01*
X174728294Y-106088073D01*
X174739500Y-106139585D01*
X174739500Y-113860414D01*
X174719815Y-113927453D01*
X174667011Y-113973208D01*
X174597853Y-113983152D01*
X174548461Y-113964730D01*
X174510050Y-113940045D01*
X174371963Y-113899500D01*
X174371961Y-113899500D01*
X174228039Y-113899500D01*
X174228036Y-113899500D01*
X174089949Y-113940045D01*
X173968873Y-114017856D01*
X173874623Y-114126626D01*
X173874622Y-114126628D01*
X173814834Y-114257543D01*
X173794353Y-114400000D01*
X173814834Y-114542456D01*
X173845493Y-114609588D01*
X173874623Y-114673373D01*
X173968872Y-114782143D01*
X174089947Y-114859953D01*
X174089950Y-114859954D01*
X174089949Y-114859954D01*
X174185716Y-114888073D01*
X174224633Y-114899500D01*
X174228036Y-114900499D01*
X174228038Y-114900500D01*
X174228039Y-114900500D01*
X174371962Y-114900500D01*
X174371962Y-114900499D01*
X174510050Y-114859954D01*
X174510051Y-114859954D01*
X174510053Y-114859953D01*
X174548461Y-114835269D01*
X174615499Y-114815585D01*
X174682539Y-114835269D01*
X174728294Y-114888073D01*
X174739500Y-114939585D01*
X174739500Y-122660414D01*
X174719815Y-122727453D01*
X174667011Y-122773208D01*
X174597853Y-122783152D01*
X174548461Y-122764730D01*
X174510050Y-122740045D01*
X174371963Y-122699500D01*
X174371961Y-122699500D01*
X174228039Y-122699500D01*
X174228036Y-122699500D01*
X174089949Y-122740045D01*
X173968873Y-122817856D01*
X173874623Y-122926626D01*
X173874622Y-122926628D01*
X173814834Y-123057543D01*
X173794353Y-123200000D01*
X173814834Y-123342456D01*
X173818497Y-123350476D01*
X173874623Y-123473373D01*
X173968872Y-123582143D01*
X174089947Y-123659953D01*
X174089950Y-123659954D01*
X174089949Y-123659954D01*
X174185716Y-123688073D01*
X174226346Y-123700003D01*
X174228036Y-123700499D01*
X174228038Y-123700500D01*
X174228039Y-123700500D01*
X174371962Y-123700500D01*
X174371962Y-123700499D01*
X174510050Y-123659954D01*
X174510051Y-123659954D01*
X174510053Y-123659953D01*
X174548461Y-123635269D01*
X174615499Y-123615585D01*
X174682539Y-123635269D01*
X174728294Y-123688073D01*
X174739500Y-123739585D01*
X174739500Y-131460414D01*
X174719815Y-131527453D01*
X174667011Y-131573208D01*
X174597853Y-131583152D01*
X174548461Y-131564730D01*
X174510050Y-131540045D01*
X174371963Y-131499500D01*
X174371961Y-131499500D01*
X174228039Y-131499500D01*
X174228036Y-131499500D01*
X174089949Y-131540045D01*
X173968873Y-131617856D01*
X173874623Y-131726626D01*
X173874622Y-131726628D01*
X173814834Y-131857543D01*
X173794353Y-132000000D01*
X173814834Y-132142456D01*
X173845952Y-132210593D01*
X173874623Y-132273373D01*
X173968872Y-132382143D01*
X174089947Y-132459953D01*
X174089950Y-132459954D01*
X174089949Y-132459954D01*
X174228036Y-132500499D01*
X174228038Y-132500500D01*
X174228039Y-132500500D01*
X174371962Y-132500500D01*
X174371962Y-132500499D01*
X174501372Y-132462502D01*
X174510050Y-132459954D01*
X174510051Y-132459954D01*
X174510053Y-132459953D01*
X174548461Y-132435269D01*
X174615499Y-132415585D01*
X174682539Y-132435269D01*
X174728294Y-132488073D01*
X174739500Y-132539585D01*
X174739500Y-137157293D01*
X174739382Y-137162702D01*
X174722119Y-137558081D01*
X174721176Y-137568857D01*
X174669874Y-137958532D01*
X174667996Y-137969185D01*
X174582926Y-138352916D01*
X174580126Y-138363366D01*
X174461934Y-138738221D01*
X174458234Y-138748386D01*
X174307822Y-139111512D01*
X174303250Y-139121316D01*
X174121763Y-139469951D01*
X174116358Y-139479312D01*
X174045172Y-139591053D01*
X173905175Y-139810802D01*
X173898971Y-139819662D01*
X173659696Y-140131492D01*
X173652742Y-140139779D01*
X173387208Y-140429559D01*
X173379559Y-140437208D01*
X173089779Y-140702742D01*
X173081492Y-140709696D01*
X172769662Y-140948971D01*
X172760802Y-140955175D01*
X172650828Y-141025237D01*
X172429312Y-141166358D01*
X172419951Y-141171763D01*
X172071316Y-141353250D01*
X172061512Y-141357822D01*
X171698386Y-141508234D01*
X171688221Y-141511934D01*
X171313366Y-141630126D01*
X171302916Y-141632926D01*
X170919185Y-141717996D01*
X170908532Y-141719874D01*
X170518857Y-141771176D01*
X170508081Y-141772119D01*
X170112703Y-141789382D01*
X170107294Y-141789500D01*
X139524000Y-141789500D01*
X139456961Y-141769815D01*
X139411206Y-141717011D01*
X139400000Y-141665500D01*
X139400000Y-141264315D01*
X139419685Y-141197276D01*
X139430287Y-141183112D01*
X139431124Y-141182144D01*
X139431128Y-141182143D01*
X139525377Y-141073373D01*
X139585165Y-140942457D01*
X139605647Y-140800000D01*
X147394353Y-140800000D01*
X147414834Y-140942456D01*
X147424232Y-140963034D01*
X147474623Y-141073373D01*
X147568872Y-141182143D01*
X147689947Y-141259953D01*
X147689950Y-141259954D01*
X147689949Y-141259954D01*
X147828036Y-141300499D01*
X147828038Y-141300500D01*
X147828039Y-141300500D01*
X147971962Y-141300500D01*
X147971962Y-141300499D01*
X148110053Y-141259953D01*
X148231128Y-141182143D01*
X148325377Y-141073373D01*
X148385165Y-140942457D01*
X148405647Y-140800000D01*
X156194353Y-140800000D01*
X156214834Y-140942456D01*
X156224232Y-140963034D01*
X156274623Y-141073373D01*
X156368872Y-141182143D01*
X156489947Y-141259953D01*
X156489950Y-141259954D01*
X156489949Y-141259954D01*
X156628036Y-141300499D01*
X156628038Y-141300500D01*
X156628039Y-141300500D01*
X156771962Y-141300500D01*
X156771962Y-141300499D01*
X156910053Y-141259953D01*
X157031128Y-141182143D01*
X157125377Y-141073373D01*
X157185165Y-140942457D01*
X157205647Y-140800000D01*
X164994353Y-140800000D01*
X165014834Y-140942456D01*
X165024232Y-140963034D01*
X165074623Y-141073373D01*
X165168872Y-141182143D01*
X165289947Y-141259953D01*
X165289950Y-141259954D01*
X165289949Y-141259954D01*
X165428036Y-141300499D01*
X165428038Y-141300500D01*
X165428039Y-141300500D01*
X165571962Y-141300500D01*
X165571962Y-141300499D01*
X165710053Y-141259953D01*
X165831128Y-141182143D01*
X165925377Y-141073373D01*
X165985165Y-140942457D01*
X166005647Y-140800000D01*
X165985165Y-140657543D01*
X165925377Y-140526627D01*
X165831128Y-140417857D01*
X165710053Y-140340047D01*
X165710051Y-140340046D01*
X165710049Y-140340045D01*
X165710050Y-140340045D01*
X165571963Y-140299500D01*
X165571961Y-140299500D01*
X165428039Y-140299500D01*
X165428036Y-140299500D01*
X165289949Y-140340045D01*
X165168873Y-140417856D01*
X165074623Y-140526626D01*
X165074622Y-140526628D01*
X165014834Y-140657543D01*
X164994353Y-140800000D01*
X157205647Y-140800000D01*
X157185165Y-140657543D01*
X157125377Y-140526627D01*
X157031128Y-140417857D01*
X156910053Y-140340047D01*
X156910051Y-140340046D01*
X156910049Y-140340045D01*
X156910050Y-140340045D01*
X156771963Y-140299500D01*
X156771961Y-140299500D01*
X156628039Y-140299500D01*
X156628036Y-140299500D01*
X156489949Y-140340045D01*
X156368873Y-140417856D01*
X156274623Y-140526626D01*
X156274622Y-140526628D01*
X156214834Y-140657543D01*
X156194353Y-140800000D01*
X148405647Y-140800000D01*
X148385165Y-140657543D01*
X148325377Y-140526627D01*
X148231128Y-140417857D01*
X148110053Y-140340047D01*
X148110051Y-140340046D01*
X148110049Y-140340045D01*
X148110050Y-140340045D01*
X147971963Y-140299500D01*
X147971961Y-140299500D01*
X147828039Y-140299500D01*
X147828036Y-140299500D01*
X147689949Y-140340045D01*
X147568873Y-140417856D01*
X147474623Y-140526626D01*
X147474622Y-140526628D01*
X147414834Y-140657543D01*
X147394353Y-140800000D01*
X139605647Y-140800000D01*
X139585165Y-140657543D01*
X139525377Y-140526627D01*
X139525375Y-140526625D01*
X139525374Y-140526622D01*
X139430287Y-140416885D01*
X139401262Y-140353329D01*
X139400000Y-140335683D01*
X139400000Y-139300000D01*
X161694353Y-139300000D01*
X161714834Y-139442456D01*
X161770732Y-139564854D01*
X161774623Y-139573373D01*
X161868872Y-139682143D01*
X161989947Y-139759953D01*
X161989950Y-139759954D01*
X161989949Y-139759954D01*
X162128036Y-139800499D01*
X162128038Y-139800500D01*
X162128039Y-139800500D01*
X162271962Y-139800500D01*
X162271962Y-139800499D01*
X162410053Y-139759953D01*
X162531128Y-139682143D01*
X162625377Y-139573373D01*
X162685165Y-139442457D01*
X162705647Y-139300000D01*
X162685165Y-139157543D01*
X162625377Y-139026627D01*
X162531128Y-138917857D01*
X162410053Y-138840047D01*
X162410051Y-138840046D01*
X162410049Y-138840045D01*
X162410050Y-138840045D01*
X162271963Y-138799500D01*
X162271961Y-138799500D01*
X162128039Y-138799500D01*
X162128036Y-138799500D01*
X161989949Y-138840045D01*
X161868873Y-138917856D01*
X161774623Y-139026626D01*
X161774622Y-139026628D01*
X161714834Y-139157543D01*
X161694353Y-139300000D01*
X139400000Y-139300000D01*
X139400000Y-137400000D01*
X154194353Y-137400000D01*
X154214834Y-137542456D01*
X154235069Y-137586763D01*
X154274623Y-137673373D01*
X154368872Y-137782143D01*
X154489947Y-137859953D01*
X154489950Y-137859954D01*
X154489949Y-137859954D01*
X154628036Y-137900499D01*
X154628038Y-137900500D01*
X154628039Y-137900500D01*
X154771962Y-137900500D01*
X154771962Y-137900499D01*
X154910053Y-137859953D01*
X155031128Y-137782143D01*
X155125377Y-137673373D01*
X155185165Y-137542457D01*
X155205647Y-137400000D01*
X155185165Y-137257543D01*
X155140617Y-137159997D01*
X166774506Y-137159997D01*
X166774506Y-137160002D01*
X166794469Y-137528196D01*
X166794470Y-137528213D01*
X166854122Y-137892068D01*
X166854128Y-137892094D01*
X166952768Y-138247365D01*
X166952770Y-138247371D01*
X167089255Y-138589926D01*
X167089261Y-138589938D01*
X167261973Y-138915708D01*
X167261976Y-138915713D01*
X167261978Y-138915716D01*
X167365444Y-139068316D01*
X167460260Y-139208160D01*
X167468910Y-139220917D01*
X167707627Y-139501956D01*
X167975330Y-139755538D01*
X168268881Y-139978690D01*
X168584838Y-140168795D01*
X168584840Y-140168796D01*
X168584842Y-140168797D01*
X168584846Y-140168799D01*
X168906349Y-140317542D01*
X168919497Y-140323625D01*
X169268934Y-140441364D01*
X169629052Y-140520632D01*
X169995630Y-140560500D01*
X169995636Y-140560500D01*
X170364364Y-140560500D01*
X170364370Y-140560500D01*
X170730948Y-140520632D01*
X171091066Y-140441364D01*
X171440503Y-140323625D01*
X171775162Y-140168795D01*
X172091119Y-139978690D01*
X172384670Y-139755538D01*
X172652373Y-139501956D01*
X172891090Y-139220917D01*
X173098022Y-138915716D01*
X173270743Y-138589930D01*
X173407227Y-138247379D01*
X173505875Y-137892081D01*
X173557690Y-137576028D01*
X173565529Y-137528213D01*
X173565529Y-137528210D01*
X173565531Y-137528199D01*
X173583790Y-137191412D01*
X173585494Y-137160002D01*
X173585494Y-137159997D01*
X173582278Y-137100691D01*
X173565531Y-136791801D01*
X173561936Y-136769874D01*
X173505877Y-136427931D01*
X173505876Y-136427930D01*
X173505875Y-136427919D01*
X173407227Y-136072621D01*
X173270743Y-135730070D01*
X173098022Y-135404284D01*
X172891090Y-135099083D01*
X172652373Y-134818044D01*
X172384670Y-134564462D01*
X172091119Y-134341310D01*
X171775162Y-134151205D01*
X171775161Y-134151204D01*
X171775157Y-134151202D01*
X171775153Y-134151200D01*
X171440513Y-133996379D01*
X171440508Y-133996377D01*
X171440503Y-133996375D01*
X171270172Y-133938983D01*
X171091065Y-133878635D01*
X170730946Y-133799367D01*
X170364371Y-133759500D01*
X170364370Y-133759500D01*
X169995630Y-133759500D01*
X169995628Y-133759500D01*
X169629053Y-133799367D01*
X169268934Y-133878635D01*
X169012615Y-133965000D01*
X168919497Y-133996375D01*
X168919494Y-133996376D01*
X168919486Y-133996379D01*
X168584846Y-134151200D01*
X168584842Y-134151202D01*
X168349538Y-134292779D01*
X168268881Y-134341310D01*
X168168410Y-134417685D01*
X167975330Y-134564461D01*
X167975330Y-134564462D01*
X167707626Y-134818044D01*
X167468909Y-135099083D01*
X167261979Y-135404282D01*
X167261973Y-135404291D01*
X167089261Y-135730061D01*
X167089255Y-135730073D01*
X166952770Y-136072628D01*
X166952768Y-136072634D01*
X166854128Y-136427905D01*
X166854122Y-136427931D01*
X166794470Y-136791786D01*
X166794469Y-136791799D01*
X166794469Y-136791801D01*
X166793263Y-136814053D01*
X166774506Y-137159997D01*
X155140617Y-137159997D01*
X155125377Y-137126627D01*
X155031128Y-137017857D01*
X154910053Y-136940047D01*
X154910051Y-136940046D01*
X154910049Y-136940045D01*
X154910050Y-136940045D01*
X154771963Y-136899500D01*
X154771961Y-136899500D01*
X154628039Y-136899500D01*
X154628036Y-136899500D01*
X154489949Y-136940045D01*
X154368873Y-137017856D01*
X154368872Y-137017856D01*
X154368872Y-137017857D01*
X154356290Y-137032377D01*
X154274623Y-137126626D01*
X154274622Y-137126628D01*
X154214834Y-137257543D01*
X154194353Y-137400000D01*
X139400000Y-137400000D01*
X139400000Y-133648909D01*
X139419685Y-133581870D01*
X139421313Y-133579694D01*
X139425368Y-133573382D01*
X139425377Y-133573373D01*
X139485165Y-133442457D01*
X139505647Y-133300000D01*
X147594353Y-133300000D01*
X147614834Y-133442456D01*
X147674621Y-133573368D01*
X147674623Y-133573373D01*
X147768872Y-133682143D01*
X147889947Y-133759953D01*
X147889950Y-133759954D01*
X147889949Y-133759954D01*
X147997107Y-133791417D01*
X148024180Y-133799367D01*
X148028036Y-133800499D01*
X148028038Y-133800500D01*
X148028039Y-133800500D01*
X148171962Y-133800500D01*
X148171962Y-133800499D01*
X148310053Y-133759953D01*
X148431128Y-133682143D01*
X148525377Y-133573373D01*
X148585165Y-133442457D01*
X148605647Y-133300000D01*
X148585165Y-133157543D01*
X148525377Y-133026627D01*
X148431128Y-132917857D01*
X148310053Y-132840047D01*
X148310051Y-132840046D01*
X148310049Y-132840045D01*
X148310050Y-132840045D01*
X148171963Y-132799500D01*
X148171961Y-132799500D01*
X148028039Y-132799500D01*
X148028036Y-132799500D01*
X147889949Y-132840045D01*
X147768873Y-132917856D01*
X147674623Y-133026626D01*
X147674622Y-133026628D01*
X147614834Y-133157543D01*
X147594353Y-133300000D01*
X139505647Y-133300000D01*
X139485165Y-133157543D01*
X139425377Y-133026627D01*
X139425374Y-133026624D01*
X139420582Y-133019166D01*
X139423445Y-133017325D01*
X139401257Y-132968699D01*
X139400000Y-132951090D01*
X139400000Y-129924000D01*
X147694500Y-129924000D01*
X147694500Y-131076000D01*
X147694501Y-131076009D01*
X147706052Y-131183450D01*
X147706054Y-131183462D01*
X147717260Y-131234972D01*
X147751383Y-131337497D01*
X147751386Y-131337503D01*
X147829171Y-131458537D01*
X147829179Y-131458548D01*
X147874923Y-131511340D01*
X147874926Y-131511343D01*
X147874930Y-131511347D01*
X147983664Y-131605567D01*
X147983667Y-131605568D01*
X147983668Y-131605569D01*
X148010574Y-131617857D01*
X148114541Y-131665338D01*
X148181580Y-131685023D01*
X148181584Y-131685024D01*
X148324000Y-131705500D01*
X152970500Y-131705500D01*
X153037539Y-131725185D01*
X153083294Y-131777989D01*
X153094500Y-131829500D01*
X153094500Y-132345904D01*
X153074815Y-132412943D01*
X153022011Y-132458698D01*
X152952853Y-132468642D01*
X152889297Y-132439617D01*
X152857706Y-132397416D01*
X152842881Y-132364956D01*
X152825377Y-132326627D01*
X152731128Y-132217857D01*
X152610053Y-132140047D01*
X152610051Y-132140046D01*
X152610049Y-132140045D01*
X152610050Y-132140045D01*
X152471963Y-132099500D01*
X152471961Y-132099500D01*
X152328039Y-132099500D01*
X152328036Y-132099500D01*
X152189949Y-132140045D01*
X152068873Y-132217856D01*
X151974623Y-132326626D01*
X151974622Y-132326628D01*
X151914834Y-132457543D01*
X151894353Y-132600000D01*
X151914834Y-132742456D01*
X151918179Y-132749780D01*
X151974623Y-132873373D01*
X152068872Y-132982143D01*
X152189947Y-133059953D01*
X152189950Y-133059954D01*
X152189949Y-133059954D01*
X152328036Y-133100499D01*
X152328038Y-133100500D01*
X152328039Y-133100500D01*
X152471962Y-133100500D01*
X152471962Y-133100499D01*
X152610053Y-133059953D01*
X152731128Y-132982143D01*
X152825377Y-132873373D01*
X152857706Y-132802582D01*
X152903461Y-132749779D01*
X152970500Y-132730095D01*
X153037540Y-132749780D01*
X153083294Y-132802584D01*
X153094500Y-132854095D01*
X153094500Y-134676000D01*
X153094501Y-134676009D01*
X153106052Y-134783450D01*
X153106054Y-134783462D01*
X153117260Y-134834972D01*
X153151383Y-134937497D01*
X153151386Y-134937503D01*
X153229171Y-135058537D01*
X153229179Y-135058548D01*
X153274923Y-135111340D01*
X153274926Y-135111343D01*
X153274930Y-135111347D01*
X153383664Y-135205567D01*
X153383667Y-135205568D01*
X153383668Y-135205569D01*
X153477925Y-135248616D01*
X153514541Y-135265338D01*
X153581580Y-135285023D01*
X153581584Y-135285024D01*
X153724000Y-135305500D01*
X153724003Y-135305500D01*
X153973319Y-135305500D01*
X154040358Y-135325185D01*
X154086113Y-135377989D01*
X154096057Y-135411853D01*
X154114834Y-135542456D01*
X154174622Y-135673371D01*
X154174623Y-135673373D01*
X154268872Y-135782143D01*
X154389947Y-135859953D01*
X154389950Y-135859954D01*
X154389949Y-135859954D01*
X154528036Y-135900499D01*
X154528038Y-135900500D01*
X154528039Y-135900500D01*
X154671962Y-135900500D01*
X154671962Y-135900499D01*
X154810053Y-135859953D01*
X154931128Y-135782143D01*
X155025377Y-135673373D01*
X155085165Y-135542457D01*
X155103943Y-135411853D01*
X155132968Y-135348297D01*
X155191746Y-135310523D01*
X155226681Y-135305500D01*
X157875990Y-135305500D01*
X157876000Y-135305500D01*
X157983456Y-135293947D01*
X158034967Y-135282741D01*
X158069197Y-135271347D01*
X158137497Y-135248616D01*
X158137501Y-135248613D01*
X158137504Y-135248613D01*
X158258543Y-135170825D01*
X158311347Y-135125070D01*
X158405567Y-135016336D01*
X158465338Y-134885459D01*
X158485023Y-134818420D01*
X158485024Y-134818416D01*
X158505500Y-134676000D01*
X158505500Y-132724000D01*
X158493947Y-132616544D01*
X158482741Y-132565033D01*
X158474271Y-132539585D01*
X158448616Y-132462502D01*
X158448613Y-132462496D01*
X158397212Y-132382515D01*
X158370825Y-132341457D01*
X158357974Y-132326626D01*
X158325076Y-132288659D01*
X158325072Y-132288656D01*
X158325070Y-132288653D01*
X158216336Y-132194433D01*
X158216333Y-132194431D01*
X158216331Y-132194430D01*
X158085465Y-132134664D01*
X158085460Y-132134662D01*
X158085459Y-132134662D01*
X158018420Y-132114977D01*
X158018422Y-132114977D01*
X158018417Y-132114976D01*
X157970944Y-132108150D01*
X157876000Y-132094500D01*
X157875998Y-132094500D01*
X157505292Y-132094500D01*
X157438253Y-132074815D01*
X157392498Y-132022011D01*
X157389333Y-132000000D01*
X164994353Y-132000000D01*
X165014834Y-132142456D01*
X165045952Y-132210593D01*
X165074623Y-132273373D01*
X165168872Y-132382143D01*
X165289947Y-132459953D01*
X165289950Y-132459954D01*
X165289949Y-132459954D01*
X165428036Y-132500499D01*
X165428038Y-132500500D01*
X165428039Y-132500500D01*
X165571962Y-132500500D01*
X165571962Y-132500499D01*
X165701372Y-132462502D01*
X165710050Y-132459954D01*
X165710050Y-132459953D01*
X165710053Y-132459953D01*
X165831128Y-132382143D01*
X165925377Y-132273373D01*
X165985165Y-132142457D01*
X166005647Y-132000000D01*
X165985165Y-131857543D01*
X165925377Y-131726627D01*
X165831128Y-131617857D01*
X165710053Y-131540047D01*
X165710051Y-131540046D01*
X165710049Y-131540045D01*
X165710050Y-131540045D01*
X165571963Y-131499500D01*
X165571961Y-131499500D01*
X165428039Y-131499500D01*
X165428036Y-131499500D01*
X165289949Y-131540045D01*
X165168873Y-131617856D01*
X165074623Y-131726626D01*
X165074622Y-131726628D01*
X165014834Y-131857543D01*
X164994353Y-132000000D01*
X157389333Y-132000000D01*
X157382554Y-131952853D01*
X157411578Y-131889298D01*
X157425377Y-131873373D01*
X157485165Y-131742457D01*
X157505647Y-131600000D01*
X157485165Y-131457543D01*
X157425377Y-131326627D01*
X157331128Y-131217857D01*
X157210053Y-131140047D01*
X157210051Y-131140046D01*
X157210049Y-131140045D01*
X157210050Y-131140045D01*
X157071963Y-131099500D01*
X157071961Y-131099500D01*
X156928039Y-131099500D01*
X156928036Y-131099500D01*
X156789949Y-131140045D01*
X156668873Y-131217856D01*
X156574623Y-131326626D01*
X156574622Y-131326628D01*
X156514834Y-131457543D01*
X156494353Y-131600000D01*
X156514834Y-131742456D01*
X156574622Y-131873371D01*
X156574623Y-131873373D01*
X156588422Y-131889298D01*
X156617446Y-131952854D01*
X156607502Y-132022013D01*
X156561746Y-132074816D01*
X156494708Y-132094500D01*
X155829500Y-132094500D01*
X155762461Y-132074815D01*
X155716706Y-132022011D01*
X155705500Y-131970500D01*
X155705500Y-129924010D01*
X155705500Y-129924000D01*
X155693947Y-129816544D01*
X155682741Y-129765033D01*
X155667224Y-129718412D01*
X155648616Y-129662502D01*
X155648613Y-129662496D01*
X155570828Y-129541462D01*
X155570825Y-129541457D01*
X155548977Y-129516243D01*
X155525076Y-129488659D01*
X155525072Y-129488656D01*
X155525070Y-129488653D01*
X155416336Y-129394433D01*
X155416333Y-129394431D01*
X155416331Y-129394430D01*
X155285465Y-129334664D01*
X155285460Y-129334662D01*
X155285459Y-129334662D01*
X155218420Y-129314977D01*
X155218422Y-129314977D01*
X155218417Y-129314976D01*
X155170944Y-129308150D01*
X155076000Y-129294500D01*
X148324000Y-129294500D01*
X148323991Y-129294500D01*
X148323990Y-129294501D01*
X148216549Y-129306052D01*
X148216537Y-129306054D01*
X148165027Y-129317260D01*
X148062502Y-129351383D01*
X148062496Y-129351386D01*
X147941462Y-129429171D01*
X147941451Y-129429179D01*
X147888659Y-129474923D01*
X147794433Y-129583664D01*
X147794430Y-129583668D01*
X147734664Y-129714534D01*
X147714976Y-129781582D01*
X147709949Y-129816549D01*
X147694500Y-129924000D01*
X139400000Y-129924000D01*
X139400000Y-129093713D01*
X170149500Y-129093713D01*
X170149500Y-129306287D01*
X170151238Y-129317259D01*
X170176210Y-129474930D01*
X170182754Y-129516243D01*
X170247185Y-129714541D01*
X170248444Y-129718414D01*
X170344951Y-129907820D01*
X170469890Y-130079786D01*
X170620213Y-130230109D01*
X170792179Y-130355048D01*
X170792181Y-130355049D01*
X170792184Y-130355051D01*
X170981588Y-130451557D01*
X171183757Y-130517246D01*
X171393713Y-130550500D01*
X171393714Y-130550500D01*
X171606286Y-130550500D01*
X171606287Y-130550500D01*
X171816243Y-130517246D01*
X172018412Y-130451557D01*
X172207816Y-130355051D01*
X172229789Y-130339086D01*
X172379786Y-130230109D01*
X172379788Y-130230106D01*
X172379792Y-130230104D01*
X172530104Y-130079792D01*
X172530106Y-130079788D01*
X172530109Y-130079786D01*
X172655048Y-129907820D01*
X172655047Y-129907820D01*
X172655051Y-129907816D01*
X172751557Y-129718412D01*
X172817246Y-129516243D01*
X172850500Y-129306287D01*
X172850500Y-129093713D01*
X172817246Y-128883757D01*
X172751557Y-128681588D01*
X172655051Y-128492184D01*
X172655049Y-128492181D01*
X172655048Y-128492179D01*
X172530109Y-128320213D01*
X172379786Y-128169890D01*
X172207820Y-128044951D01*
X172018414Y-127948444D01*
X172018413Y-127948443D01*
X172018412Y-127948443D01*
X171816243Y-127882754D01*
X171816241Y-127882753D01*
X171816240Y-127882753D01*
X171654957Y-127857208D01*
X171606287Y-127849500D01*
X171393713Y-127849500D01*
X171345042Y-127857208D01*
X171183760Y-127882753D01*
X170981585Y-127948444D01*
X170792179Y-128044951D01*
X170620213Y-128169890D01*
X170469890Y-128320213D01*
X170344951Y-128492179D01*
X170248444Y-128681585D01*
X170182753Y-128883760D01*
X170149500Y-129093713D01*
X139400000Y-129093713D01*
X139400000Y-127154304D01*
X139419685Y-127087265D01*
X139472489Y-127041510D01*
X139541647Y-127031566D01*
X139605203Y-127060591D01*
X139617713Y-127073102D01*
X139668872Y-127132143D01*
X139789947Y-127209953D01*
X139789950Y-127209954D01*
X139789949Y-127209954D01*
X139928036Y-127250499D01*
X139928038Y-127250500D01*
X139928039Y-127250500D01*
X140071962Y-127250500D01*
X140071962Y-127250499D01*
X140210053Y-127209953D01*
X140331128Y-127132143D01*
X140425377Y-127023373D01*
X140485165Y-126892457D01*
X140505647Y-126750000D01*
X140485165Y-126607543D01*
X140425377Y-126476627D01*
X140331128Y-126367857D01*
X140210053Y-126290047D01*
X140210051Y-126290046D01*
X140210049Y-126290045D01*
X140210050Y-126290045D01*
X140071963Y-126249500D01*
X140071961Y-126249500D01*
X139928039Y-126249500D01*
X139928036Y-126249500D01*
X139789949Y-126290045D01*
X139668873Y-126367856D01*
X139617713Y-126426898D01*
X139558934Y-126464672D01*
X139489065Y-126464672D01*
X139430287Y-126426897D01*
X139401262Y-126363342D01*
X139400000Y-126345695D01*
X139400000Y-123200000D01*
X147394353Y-123200000D01*
X147414834Y-123342456D01*
X147418497Y-123350476D01*
X147474623Y-123473373D01*
X147568872Y-123582143D01*
X147689947Y-123659953D01*
X147689950Y-123659954D01*
X147689949Y-123659954D01*
X147785716Y-123688073D01*
X147826346Y-123700003D01*
X147828036Y-123700499D01*
X147828038Y-123700500D01*
X147828039Y-123700500D01*
X147971962Y-123700500D01*
X147971962Y-123700499D01*
X148110053Y-123659953D01*
X148231128Y-123582143D01*
X148325377Y-123473373D01*
X148385165Y-123342457D01*
X148405647Y-123200000D01*
X156094353Y-123200000D01*
X156114834Y-123342456D01*
X156118497Y-123350476D01*
X156174623Y-123473373D01*
X156268872Y-123582143D01*
X156389947Y-123659953D01*
X156389950Y-123659954D01*
X156389949Y-123659954D01*
X156485716Y-123688073D01*
X156526346Y-123700003D01*
X156528036Y-123700499D01*
X156528038Y-123700500D01*
X156528039Y-123700500D01*
X156671962Y-123700500D01*
X156671962Y-123700499D01*
X156810053Y-123659953D01*
X156931128Y-123582143D01*
X157025377Y-123473373D01*
X157085165Y-123342457D01*
X157105647Y-123200000D01*
X157085165Y-123057543D01*
X157025377Y-122926627D01*
X156931128Y-122817857D01*
X156813870Y-122742500D01*
X158951853Y-122742500D01*
X158972334Y-122884956D01*
X159005488Y-122957551D01*
X159032123Y-123015873D01*
X159126372Y-123124643D01*
X159247447Y-123202453D01*
X159247450Y-123202454D01*
X159247449Y-123202454D01*
X159385536Y-123242999D01*
X159385538Y-123243000D01*
X159385539Y-123243000D01*
X159529462Y-123243000D01*
X159529462Y-123242999D01*
X159667553Y-123202453D01*
X159788628Y-123124643D01*
X159882877Y-123015873D01*
X159942665Y-122884957D01*
X159963147Y-122742500D01*
X159942665Y-122600043D01*
X159882877Y-122469127D01*
X159788628Y-122360357D01*
X159667553Y-122282547D01*
X159667551Y-122282546D01*
X159667549Y-122282545D01*
X159667550Y-122282545D01*
X159529463Y-122242000D01*
X159529461Y-122242000D01*
X159385539Y-122242000D01*
X159385536Y-122242000D01*
X159247449Y-122282545D01*
X159126373Y-122360356D01*
X159032123Y-122469126D01*
X159032122Y-122469128D01*
X158972334Y-122600043D01*
X158951853Y-122742500D01*
X156813870Y-122742500D01*
X156810053Y-122740047D01*
X156810051Y-122740046D01*
X156810049Y-122740045D01*
X156810050Y-122740045D01*
X156671963Y-122699500D01*
X156671961Y-122699500D01*
X156528039Y-122699500D01*
X156528036Y-122699500D01*
X156389949Y-122740045D01*
X156268873Y-122817856D01*
X156174623Y-122926626D01*
X156174622Y-122926628D01*
X156114834Y-123057543D01*
X156094353Y-123200000D01*
X148405647Y-123200000D01*
X148385165Y-123057543D01*
X148325377Y-122926627D01*
X148231128Y-122817857D01*
X148110053Y-122740047D01*
X148110051Y-122740046D01*
X148110049Y-122740045D01*
X148110050Y-122740045D01*
X147971963Y-122699500D01*
X147971961Y-122699500D01*
X147828039Y-122699500D01*
X147828036Y-122699500D01*
X147689949Y-122740045D01*
X147568873Y-122817856D01*
X147474623Y-122926626D01*
X147474622Y-122926628D01*
X147414834Y-123057543D01*
X147394353Y-123200000D01*
X139400000Y-123200000D01*
X139400000Y-122154304D01*
X139419685Y-122087265D01*
X139472489Y-122041510D01*
X139541647Y-122031566D01*
X139605203Y-122060591D01*
X139617713Y-122073102D01*
X139668872Y-122132143D01*
X139789947Y-122209953D01*
X139789950Y-122209954D01*
X139789949Y-122209954D01*
X139928036Y-122250499D01*
X139928038Y-122250500D01*
X139928039Y-122250500D01*
X140071962Y-122250500D01*
X140071962Y-122250499D01*
X140210053Y-122209953D01*
X140331128Y-122132143D01*
X140425377Y-122023373D01*
X140485165Y-121892457D01*
X140505647Y-121750000D01*
X140485165Y-121607543D01*
X140425377Y-121476627D01*
X140331128Y-121367857D01*
X140210053Y-121290047D01*
X140210051Y-121290046D01*
X140210049Y-121290045D01*
X140210050Y-121290045D01*
X140071963Y-121249500D01*
X140071961Y-121249500D01*
X139928039Y-121249500D01*
X139928036Y-121249500D01*
X139789949Y-121290045D01*
X139668873Y-121367856D01*
X139617713Y-121426898D01*
X139558934Y-121464672D01*
X139489065Y-121464672D01*
X139430287Y-121426897D01*
X139401262Y-121363342D01*
X139400000Y-121345695D01*
X139400000Y-120600000D01*
X159694353Y-120600000D01*
X159714834Y-120742456D01*
X159770155Y-120863589D01*
X159774623Y-120873373D01*
X159868872Y-120982143D01*
X159989947Y-121059953D01*
X159989950Y-121059954D01*
X159989949Y-121059954D01*
X160128036Y-121100499D01*
X160128038Y-121100500D01*
X160128039Y-121100500D01*
X160271962Y-121100500D01*
X160271962Y-121100499D01*
X160393726Y-121064747D01*
X160410050Y-121059954D01*
X160410050Y-121059953D01*
X160410053Y-121059953D01*
X160531128Y-120982143D01*
X160625377Y-120873373D01*
X160685165Y-120742457D01*
X160705647Y-120600000D01*
X160685165Y-120457543D01*
X160625377Y-120326627D01*
X160531128Y-120217857D01*
X160410053Y-120140047D01*
X160410051Y-120140046D01*
X160410049Y-120140045D01*
X160410050Y-120140045D01*
X160271963Y-120099500D01*
X160271961Y-120099500D01*
X160128039Y-120099500D01*
X160128036Y-120099500D01*
X159989949Y-120140045D01*
X159868873Y-120217856D01*
X159774623Y-120326626D01*
X159774622Y-120326628D01*
X159714834Y-120457543D01*
X159694353Y-120600000D01*
X139400000Y-120600000D01*
X139400000Y-118800000D01*
X150094353Y-118800000D01*
X150114834Y-118942456D01*
X150174622Y-119073371D01*
X150174623Y-119073373D01*
X150268872Y-119182143D01*
X150389947Y-119259953D01*
X150389950Y-119259954D01*
X150389949Y-119259954D01*
X150528036Y-119300499D01*
X150528038Y-119300500D01*
X150528039Y-119300500D01*
X150671962Y-119300500D01*
X150671962Y-119300499D01*
X150810053Y-119259953D01*
X150931128Y-119182143D01*
X151025377Y-119073373D01*
X151085165Y-118942457D01*
X151105647Y-118800000D01*
X151085165Y-118657543D01*
X151025377Y-118526627D01*
X150931128Y-118417857D01*
X150810053Y-118340047D01*
X150810051Y-118340046D01*
X150810049Y-118340045D01*
X150810050Y-118340045D01*
X150671963Y-118299500D01*
X150671961Y-118299500D01*
X150528039Y-118299500D01*
X150528036Y-118299500D01*
X150389949Y-118340045D01*
X150268873Y-118417856D01*
X150174623Y-118526626D01*
X150174622Y-118526628D01*
X150114834Y-118657543D01*
X150094353Y-118800000D01*
X139400000Y-118800000D01*
X139400000Y-118154304D01*
X139419685Y-118087265D01*
X139472489Y-118041510D01*
X139541647Y-118031566D01*
X139605203Y-118060591D01*
X139617713Y-118073102D01*
X139668872Y-118132143D01*
X139789947Y-118209953D01*
X139789950Y-118209954D01*
X139789949Y-118209954D01*
X139928036Y-118250499D01*
X139928038Y-118250500D01*
X139928039Y-118250500D01*
X140071962Y-118250500D01*
X140071962Y-118250499D01*
X140210053Y-118209953D01*
X140331128Y-118132143D01*
X140425377Y-118023373D01*
X140485165Y-117892457D01*
X140505647Y-117750000D01*
X140485165Y-117607543D01*
X140425377Y-117476627D01*
X140331128Y-117367857D01*
X140210053Y-117290047D01*
X140210051Y-117290046D01*
X140210049Y-117290045D01*
X140210050Y-117290045D01*
X140071963Y-117249500D01*
X140071961Y-117249500D01*
X139928039Y-117249500D01*
X139928036Y-117249500D01*
X139789949Y-117290045D01*
X139668873Y-117367856D01*
X139617713Y-117426898D01*
X139558934Y-117464672D01*
X139489065Y-117464672D01*
X139430287Y-117426897D01*
X139401262Y-117363342D01*
X139400000Y-117345695D01*
X139400000Y-116700000D01*
X147394353Y-116700000D01*
X147414834Y-116842456D01*
X147453275Y-116926628D01*
X147474623Y-116973373D01*
X147568872Y-117082143D01*
X147689947Y-117159953D01*
X147689950Y-117159954D01*
X147689949Y-117159954D01*
X147797107Y-117191417D01*
X147826336Y-117200000D01*
X147828036Y-117200499D01*
X147828038Y-117200500D01*
X147828039Y-117200500D01*
X147971962Y-117200500D01*
X147971962Y-117200499D01*
X147973661Y-117200000D01*
X154794353Y-117200000D01*
X154814834Y-117342456D01*
X154853398Y-117426897D01*
X154874623Y-117473373D01*
X154968872Y-117582143D01*
X155089947Y-117659953D01*
X155089950Y-117659954D01*
X155089949Y-117659954D01*
X155197107Y-117691417D01*
X155226336Y-117700000D01*
X155228036Y-117700499D01*
X155228038Y-117700500D01*
X155228039Y-117700500D01*
X155371962Y-117700500D01*
X155371962Y-117700499D01*
X155510053Y-117659953D01*
X155631128Y-117582143D01*
X155725377Y-117473373D01*
X155785165Y-117342457D01*
X155805647Y-117200000D01*
X155785165Y-117057543D01*
X155725377Y-116926627D01*
X155631128Y-116817857D01*
X155510053Y-116740047D01*
X155510051Y-116740046D01*
X155510049Y-116740045D01*
X155510050Y-116740045D01*
X155371963Y-116699500D01*
X155371961Y-116699500D01*
X155228039Y-116699500D01*
X155228036Y-116699500D01*
X155089949Y-116740045D01*
X154968873Y-116817856D01*
X154874623Y-116926626D01*
X154874622Y-116926628D01*
X154814834Y-117057543D01*
X154794353Y-117200000D01*
X147973661Y-117200000D01*
X148110053Y-117159953D01*
X148231128Y-117082143D01*
X148325377Y-116973373D01*
X148385165Y-116842457D01*
X148405647Y-116700000D01*
X148385165Y-116557543D01*
X148325377Y-116426627D01*
X148231128Y-116317857D01*
X148110053Y-116240047D01*
X148110051Y-116240046D01*
X148110049Y-116240045D01*
X148110050Y-116240045D01*
X147971963Y-116199500D01*
X147971961Y-116199500D01*
X147828039Y-116199500D01*
X147828036Y-116199500D01*
X147689949Y-116240045D01*
X147568873Y-116317856D01*
X147474623Y-116426626D01*
X147474622Y-116426628D01*
X147414834Y-116557543D01*
X147394353Y-116700000D01*
X139400000Y-116700000D01*
X139400000Y-115400000D01*
X160394353Y-115400000D01*
X160414834Y-115542456D01*
X160428156Y-115571626D01*
X160474623Y-115673373D01*
X160568872Y-115782143D01*
X160689947Y-115859953D01*
X160689950Y-115859954D01*
X160689949Y-115859954D01*
X160797107Y-115891417D01*
X160816265Y-115897043D01*
X160828036Y-115900499D01*
X160828038Y-115900500D01*
X160828039Y-115900500D01*
X160971962Y-115900500D01*
X160971962Y-115900499D01*
X161110053Y-115859953D01*
X161231128Y-115782143D01*
X161306287Y-115695403D01*
X161365064Y-115657629D01*
X161434934Y-115657629D01*
X161493712Y-115695403D01*
X161493713Y-115695404D01*
X161553264Y-115764131D01*
X161568872Y-115782143D01*
X161689947Y-115859953D01*
X161689950Y-115859954D01*
X161689949Y-115859954D01*
X161797107Y-115891417D01*
X161816265Y-115897043D01*
X161828036Y-115900499D01*
X161828038Y-115900500D01*
X161828039Y-115900500D01*
X161971962Y-115900500D01*
X161971962Y-115900499D01*
X162110053Y-115859953D01*
X162231128Y-115782143D01*
X162325377Y-115673373D01*
X162385165Y-115542457D01*
X162405647Y-115400000D01*
X162385165Y-115257543D01*
X162325377Y-115126627D01*
X162231128Y-115017857D01*
X162110053Y-114940047D01*
X162110051Y-114940046D01*
X162110049Y-114940045D01*
X162110050Y-114940045D01*
X161971963Y-114899500D01*
X161971961Y-114899500D01*
X161828039Y-114899500D01*
X161828036Y-114899500D01*
X161689949Y-114940045D01*
X161568873Y-115017856D01*
X161493713Y-115104596D01*
X161434935Y-115142370D01*
X161365065Y-115142370D01*
X161306287Y-115104596D01*
X161293918Y-115090321D01*
X161231128Y-115017857D01*
X161110053Y-114940047D01*
X161110051Y-114940046D01*
X161110049Y-114940045D01*
X161110050Y-114940045D01*
X160971963Y-114899500D01*
X160971961Y-114899500D01*
X160828039Y-114899500D01*
X160828036Y-114899500D01*
X160689949Y-114940045D01*
X160568873Y-115017856D01*
X160474623Y-115126626D01*
X160474622Y-115126628D01*
X160414834Y-115257543D01*
X160394353Y-115400000D01*
X139400000Y-115400000D01*
X139400000Y-113600000D01*
X157694353Y-113600000D01*
X157714834Y-113742456D01*
X157768705Y-113860414D01*
X157774623Y-113873373D01*
X157868872Y-113982143D01*
X157989947Y-114059953D01*
X157989950Y-114059954D01*
X157989949Y-114059954D01*
X158128036Y-114100499D01*
X158128038Y-114100500D01*
X158128039Y-114100500D01*
X158271962Y-114100500D01*
X158271962Y-114100499D01*
X158410053Y-114059953D01*
X158531128Y-113982143D01*
X158625377Y-113873373D01*
X158685165Y-113742457D01*
X158705647Y-113600000D01*
X158685165Y-113457543D01*
X158625377Y-113326627D01*
X158531128Y-113217857D01*
X158531124Y-113217854D01*
X158530254Y-113217100D01*
X158529630Y-113216129D01*
X158525320Y-113211155D01*
X158526035Y-113210535D01*
X158492483Y-113158320D01*
X158492487Y-113088450D01*
X158530264Y-113029674D01*
X158593821Y-113000652D01*
X158619170Y-113000654D01*
X158619170Y-113000500D01*
X158771962Y-113000500D01*
X158771962Y-113000499D01*
X158910053Y-112959953D01*
X159031128Y-112882143D01*
X159125377Y-112773373D01*
X159185165Y-112642457D01*
X159205647Y-112500000D01*
X159185165Y-112357543D01*
X159125377Y-112226627D01*
X159031128Y-112117857D01*
X158910053Y-112040047D01*
X158910051Y-112040046D01*
X158910049Y-112040045D01*
X158910050Y-112040045D01*
X158771963Y-111999500D01*
X158771961Y-111999500D01*
X158628039Y-111999500D01*
X158628036Y-111999500D01*
X158489949Y-112040045D01*
X158368873Y-112117856D01*
X158274623Y-112226626D01*
X158274622Y-112226628D01*
X158214834Y-112357543D01*
X158194353Y-112500000D01*
X158214834Y-112642456D01*
X158274622Y-112773371D01*
X158274623Y-112773373D01*
X158368872Y-112882143D01*
X158368876Y-112882145D01*
X158369744Y-112882898D01*
X158370367Y-112883867D01*
X158374680Y-112888845D01*
X158373964Y-112889465D01*
X158407516Y-112941678D01*
X158407513Y-113011548D01*
X158369736Y-113070324D01*
X158306179Y-113099347D01*
X158280830Y-113099346D01*
X158280830Y-113099500D01*
X158128036Y-113099500D01*
X157989949Y-113140045D01*
X157868873Y-113217856D01*
X157774623Y-113326626D01*
X157774622Y-113326628D01*
X157714834Y-113457543D01*
X157694353Y-113600000D01*
X139400000Y-113600000D01*
X139400000Y-113154304D01*
X139419685Y-113087265D01*
X139472489Y-113041510D01*
X139541647Y-113031566D01*
X139605203Y-113060591D01*
X139617713Y-113073102D01*
X139668872Y-113132143D01*
X139789947Y-113209953D01*
X139789950Y-113209954D01*
X139789949Y-113209954D01*
X139928036Y-113250499D01*
X139928038Y-113250500D01*
X139928039Y-113250500D01*
X140071962Y-113250500D01*
X140071962Y-113250499D01*
X140189346Y-113216033D01*
X140210050Y-113209954D01*
X140210050Y-113209953D01*
X140210053Y-113209953D01*
X140331128Y-113132143D01*
X140425377Y-113023373D01*
X140481720Y-112900000D01*
X156394353Y-112900000D01*
X156414834Y-113042456D01*
X156458865Y-113138869D01*
X156474623Y-113173373D01*
X156568872Y-113282143D01*
X156689947Y-113359953D01*
X156689950Y-113359954D01*
X156689949Y-113359954D01*
X156828036Y-113400499D01*
X156828038Y-113400500D01*
X156828039Y-113400500D01*
X156971962Y-113400500D01*
X156971962Y-113400499D01*
X157110053Y-113359953D01*
X157231128Y-113282143D01*
X157325377Y-113173373D01*
X157385165Y-113042457D01*
X157405647Y-112900000D01*
X157385165Y-112757543D01*
X157325377Y-112626627D01*
X157231128Y-112517857D01*
X157110053Y-112440047D01*
X157110051Y-112440046D01*
X157110049Y-112440045D01*
X157110050Y-112440045D01*
X156971963Y-112399500D01*
X156971961Y-112399500D01*
X156828039Y-112399500D01*
X156828036Y-112399500D01*
X156689949Y-112440045D01*
X156568873Y-112517856D01*
X156474623Y-112626626D01*
X156474622Y-112626628D01*
X156414834Y-112757543D01*
X156394353Y-112900000D01*
X140481720Y-112900000D01*
X140485165Y-112892457D01*
X140505647Y-112750000D01*
X140485165Y-112607543D01*
X140425377Y-112476627D01*
X140331128Y-112367857D01*
X140210053Y-112290047D01*
X140210051Y-112290046D01*
X140210049Y-112290045D01*
X140210050Y-112290045D01*
X140071963Y-112249500D01*
X140071961Y-112249500D01*
X139928039Y-112249500D01*
X139928036Y-112249500D01*
X139789949Y-112290045D01*
X139668873Y-112367856D01*
X139617713Y-112426898D01*
X139558934Y-112464672D01*
X139489065Y-112464672D01*
X139430287Y-112426897D01*
X139401262Y-112363342D01*
X139400000Y-112345695D01*
X139400000Y-112000000D01*
X147494353Y-112000000D01*
X147514834Y-112142456D01*
X147553275Y-112226628D01*
X147574623Y-112273373D01*
X147668872Y-112382143D01*
X147789947Y-112459953D01*
X147789950Y-112459954D01*
X147789949Y-112459954D01*
X147846737Y-112476628D01*
X147926336Y-112500000D01*
X147928036Y-112500499D01*
X147928038Y-112500500D01*
X147928039Y-112500500D01*
X148071962Y-112500500D01*
X148071962Y-112500499D01*
X148179121Y-112469035D01*
X148210050Y-112459954D01*
X148210050Y-112459953D01*
X148210053Y-112459953D01*
X148331128Y-112382143D01*
X148425377Y-112273373D01*
X148485165Y-112142457D01*
X148505647Y-112000000D01*
X153294353Y-112000000D01*
X153314834Y-112142456D01*
X153353275Y-112226628D01*
X153374623Y-112273373D01*
X153468872Y-112382143D01*
X153589947Y-112459953D01*
X153589950Y-112459954D01*
X153589949Y-112459954D01*
X153646737Y-112476628D01*
X153726336Y-112500000D01*
X153728036Y-112500499D01*
X153728038Y-112500500D01*
X153728039Y-112500500D01*
X153871962Y-112500500D01*
X153871962Y-112500499D01*
X153979121Y-112469035D01*
X154010050Y-112459954D01*
X154010050Y-112459953D01*
X154010053Y-112459953D01*
X154131128Y-112382143D01*
X154225377Y-112273373D01*
X154285165Y-112142457D01*
X154305647Y-112000000D01*
X154285165Y-111857543D01*
X154225377Y-111726627D01*
X154131128Y-111617857D01*
X154010053Y-111540047D01*
X154010051Y-111540046D01*
X154010049Y-111540045D01*
X154010050Y-111540045D01*
X153871963Y-111499500D01*
X153871961Y-111499500D01*
X153728039Y-111499500D01*
X153728036Y-111499500D01*
X153589949Y-111540045D01*
X153468873Y-111617856D01*
X153374623Y-111726626D01*
X153374622Y-111726628D01*
X153314834Y-111857543D01*
X153294353Y-112000000D01*
X148505647Y-112000000D01*
X148485165Y-111857543D01*
X148425377Y-111726627D01*
X148331128Y-111617857D01*
X148210053Y-111540047D01*
X148210051Y-111540046D01*
X148210049Y-111540045D01*
X148210050Y-111540045D01*
X148071963Y-111499500D01*
X148071961Y-111499500D01*
X147928039Y-111499500D01*
X147928036Y-111499500D01*
X147789949Y-111540045D01*
X147668873Y-111617856D01*
X147574623Y-111726626D01*
X147574622Y-111726628D01*
X147514834Y-111857543D01*
X147494353Y-112000000D01*
X139400000Y-112000000D01*
X139400000Y-110200000D01*
X156394353Y-110200000D01*
X156414834Y-110342456D01*
X156474622Y-110473371D01*
X156474623Y-110473373D01*
X156568872Y-110582143D01*
X156689947Y-110659953D01*
X156689950Y-110659954D01*
X156689949Y-110659954D01*
X156828036Y-110700499D01*
X156828038Y-110700500D01*
X156828039Y-110700500D01*
X156971962Y-110700500D01*
X156971962Y-110700499D01*
X157110053Y-110659953D01*
X157231128Y-110582143D01*
X157325377Y-110473373D01*
X157385165Y-110342457D01*
X157387819Y-110323998D01*
X163144500Y-110323998D01*
X163144500Y-113676002D01*
X163150338Y-113730312D01*
X163161543Y-113781818D01*
X163161546Y-113781827D01*
X163168779Y-113808192D01*
X163168783Y-113808203D01*
X163218105Y-113894818D01*
X163218110Y-113894825D01*
X163218112Y-113894828D01*
X163244580Y-113925374D01*
X163263863Y-113947628D01*
X163263866Y-113947631D01*
X163263867Y-113947632D01*
X163296641Y-113979257D01*
X163384976Y-114025465D01*
X163384977Y-114025465D01*
X163384977Y-114025466D01*
X163435105Y-114040184D01*
X163452015Y-114045150D01*
X163452019Y-114045150D01*
X163452021Y-114045151D01*
X163463652Y-114046823D01*
X163524000Y-114055500D01*
X164914157Y-114055500D01*
X164981196Y-114075185D01*
X165026951Y-114127989D01*
X165036895Y-114197147D01*
X165026952Y-114231010D01*
X165014834Y-114257543D01*
X164994353Y-114400000D01*
X165014834Y-114542456D01*
X165045493Y-114609588D01*
X165074623Y-114673373D01*
X165114212Y-114719061D01*
X165143238Y-114782616D01*
X165144500Y-114800264D01*
X165144500Y-122799735D01*
X165124815Y-122866774D01*
X165114216Y-122880933D01*
X165085018Y-122914631D01*
X165074623Y-122926627D01*
X165074622Y-122926628D01*
X165014834Y-123057543D01*
X164994353Y-123200000D01*
X165014834Y-123342456D01*
X165018497Y-123350476D01*
X165074623Y-123473373D01*
X165114212Y-123519061D01*
X165143238Y-123582616D01*
X165144500Y-123600264D01*
X165144500Y-126276002D01*
X165150338Y-126330312D01*
X165161543Y-126381818D01*
X165161546Y-126381827D01*
X165168779Y-126408192D01*
X165168783Y-126408203D01*
X165218105Y-126494818D01*
X165218110Y-126494825D01*
X165218112Y-126494828D01*
X165227416Y-126505565D01*
X165263863Y-126547628D01*
X165263866Y-126547631D01*
X165263867Y-126547632D01*
X165296641Y-126579257D01*
X165384976Y-126625465D01*
X165384977Y-126625465D01*
X165384977Y-126625466D01*
X165429218Y-126638456D01*
X165452015Y-126645150D01*
X165452019Y-126645150D01*
X165452021Y-126645151D01*
X165463652Y-126646823D01*
X165524000Y-126655500D01*
X165524001Y-126655500D01*
X169708145Y-126655500D01*
X169708150Y-126655500D01*
X169769574Y-126648007D01*
X169827449Y-126633673D01*
X169860439Y-126623082D01*
X169944107Y-126568879D01*
X169994209Y-126520180D01*
X169994215Y-126520172D01*
X169994220Y-126520168D01*
X170023902Y-126485658D01*
X170023901Y-126485658D01*
X170023909Y-126485650D01*
X170023913Y-126485639D01*
X170025387Y-126483329D01*
X170027469Y-126481511D01*
X170029691Y-126478928D01*
X170030062Y-126479247D01*
X170078020Y-126437378D01*
X170147141Y-126427176D01*
X170170907Y-126432938D01*
X170320737Y-126485366D01*
X170320743Y-126485367D01*
X170320745Y-126485368D01*
X170320746Y-126485368D01*
X170320750Y-126485369D01*
X170499996Y-126505565D01*
X170500000Y-126505565D01*
X170500004Y-126505565D01*
X170679249Y-126485369D01*
X170679252Y-126485368D01*
X170679255Y-126485368D01*
X170679256Y-126485367D01*
X170679259Y-126485367D01*
X170743882Y-126462754D01*
X170832949Y-126431587D01*
X170902726Y-126428025D01*
X170963354Y-126462754D01*
X170981657Y-126487269D01*
X170985958Y-126494822D01*
X170985960Y-126494825D01*
X170985962Y-126494828D01*
X170995266Y-126505565D01*
X171031713Y-126547628D01*
X171031716Y-126547631D01*
X171031717Y-126547632D01*
X171064491Y-126579257D01*
X171152826Y-126625465D01*
X171152827Y-126625465D01*
X171152827Y-126625466D01*
X171197068Y-126638456D01*
X171219865Y-126645150D01*
X171219869Y-126645150D01*
X171219871Y-126645151D01*
X171231502Y-126646823D01*
X171291850Y-126655500D01*
X171291851Y-126655500D01*
X171525500Y-126655500D01*
X171579813Y-126649661D01*
X171631324Y-126638455D01*
X171657698Y-126631219D01*
X171699275Y-126607543D01*
X171744318Y-126581894D01*
X171744319Y-126581892D01*
X171744328Y-126581888D01*
X171797132Y-126536133D01*
X171797143Y-126536122D01*
X171798846Y-126534509D01*
X171861041Y-126502673D01*
X171884154Y-126500500D01*
X173119750Y-126500500D01*
X173119751Y-126500499D01*
X173134568Y-126497552D01*
X173178229Y-126488868D01*
X173178229Y-126488867D01*
X173178231Y-126488867D01*
X173244552Y-126444552D01*
X173288867Y-126378231D01*
X173288867Y-126378229D01*
X173288868Y-126378229D01*
X173300499Y-126319752D01*
X173300500Y-126319750D01*
X173300500Y-125126427D01*
X173320185Y-125059388D01*
X173343298Y-125032714D01*
X173397620Y-124985643D01*
X173397625Y-124985639D01*
X173397624Y-124985639D01*
X173397632Y-124985633D01*
X173429257Y-124952859D01*
X173475465Y-124864524D01*
X173495150Y-124797485D01*
X173505500Y-124725500D01*
X173505500Y-124449732D01*
X173498008Y-124388313D01*
X173483677Y-124330445D01*
X173473091Y-124297467D01*
X173418894Y-124213795D01*
X173370199Y-124163690D01*
X173370198Y-124163689D01*
X173370194Y-124163685D01*
X173335672Y-124133987D01*
X173318716Y-124126317D01*
X173265748Y-124080752D01*
X173245823Y-124013784D01*
X173252781Y-123972384D01*
X173285366Y-123879262D01*
X173285369Y-123879249D01*
X173305565Y-123700003D01*
X173305565Y-123699996D01*
X173285369Y-123520750D01*
X173285368Y-123520745D01*
X173225788Y-123350476D01*
X173132779Y-123202454D01*
X173129816Y-123197738D01*
X173002262Y-123070184D01*
X172915827Y-123015873D01*
X172849523Y-122974211D01*
X172679254Y-122914631D01*
X172679249Y-122914630D01*
X172524838Y-122897233D01*
X172460424Y-122870167D01*
X172420868Y-122812572D01*
X172416078Y-122792304D01*
X172408662Y-122742582D01*
X172408661Y-122742578D01*
X172407752Y-122740045D01*
X172385070Y-122676811D01*
X172385066Y-122676803D01*
X172384981Y-122676593D01*
X172384976Y-122676548D01*
X172384136Y-122674206D01*
X172384711Y-122673999D01*
X172377770Y-122607096D01*
X172409276Y-122544733D01*
X172469497Y-122509304D01*
X172493085Y-122506385D01*
X172493081Y-122506345D01*
X172496793Y-122505926D01*
X172499717Y-122505565D01*
X172500004Y-122505565D01*
X172679249Y-122485369D01*
X172679252Y-122485368D01*
X172679255Y-122485368D01*
X172849522Y-122425789D01*
X173002262Y-122329816D01*
X173129816Y-122202262D01*
X173225789Y-122049522D01*
X173285368Y-121879255D01*
X173285912Y-121874430D01*
X173305565Y-121700003D01*
X173305565Y-121699996D01*
X173285369Y-121520750D01*
X173285368Y-121520745D01*
X173253229Y-121428897D01*
X173225789Y-121350478D01*
X173187816Y-121290045D01*
X173155790Y-121239075D01*
X173136790Y-121171838D01*
X173157158Y-121105003D01*
X173203128Y-121065580D01*
X173202593Y-121064747D01*
X173208607Y-121060881D01*
X173209280Y-121060305D01*
X173210045Y-121059955D01*
X173210053Y-121059953D01*
X173331128Y-120982143D01*
X173382408Y-120922960D01*
X173394915Y-120910455D01*
X173397632Y-120908102D01*
X173429257Y-120875328D01*
X173475465Y-120786993D01*
X173495150Y-120719954D01*
X173505500Y-120647969D01*
X173505500Y-120609891D01*
X173505646Y-120607848D01*
X173505647Y-120592179D01*
X173505500Y-120590111D01*
X173505500Y-120474000D01*
X173499661Y-120419687D01*
X173488455Y-120368176D01*
X173481219Y-120341802D01*
X173481216Y-120341796D01*
X173431894Y-120255181D01*
X173431890Y-120255176D01*
X173431888Y-120255172D01*
X173386133Y-120202368D01*
X173353359Y-120170743D01*
X173265024Y-120124535D01*
X173265023Y-120124534D01*
X173265022Y-120124534D01*
X173265022Y-120124533D01*
X173197990Y-120104851D01*
X173197978Y-120104848D01*
X173126001Y-120094500D01*
X173126000Y-120094500D01*
X168779500Y-120094500D01*
X168712461Y-120074815D01*
X168666706Y-120022011D01*
X168655500Y-119970500D01*
X168655500Y-118093713D01*
X170149500Y-118093713D01*
X170149500Y-118306287D01*
X170182754Y-118516243D01*
X170228665Y-118657543D01*
X170248444Y-118718414D01*
X170344951Y-118907820D01*
X170469890Y-119079786D01*
X170620213Y-119230109D01*
X170792179Y-119355048D01*
X170792181Y-119355049D01*
X170792184Y-119355051D01*
X170981588Y-119451557D01*
X171183757Y-119517246D01*
X171393713Y-119550500D01*
X171393714Y-119550500D01*
X171606286Y-119550500D01*
X171606287Y-119550500D01*
X171816243Y-119517246D01*
X172018412Y-119451557D01*
X172207816Y-119355051D01*
X172338707Y-119259954D01*
X172379786Y-119230109D01*
X172379788Y-119230106D01*
X172379792Y-119230104D01*
X172530104Y-119079792D01*
X172530106Y-119079788D01*
X172530109Y-119079786D01*
X172655048Y-118907820D01*
X172655047Y-118907820D01*
X172655051Y-118907816D01*
X172751557Y-118718412D01*
X172817246Y-118516243D01*
X172850500Y-118306287D01*
X172850500Y-118093713D01*
X172817246Y-117883757D01*
X172751557Y-117681588D01*
X172655051Y-117492184D01*
X172655049Y-117492181D01*
X172655048Y-117492179D01*
X172530109Y-117320213D01*
X172379786Y-117169890D01*
X172207820Y-117044951D01*
X172018414Y-116948444D01*
X172018413Y-116948443D01*
X172018412Y-116948443D01*
X171816243Y-116882754D01*
X171816241Y-116882753D01*
X171816240Y-116882753D01*
X171654957Y-116857208D01*
X171606287Y-116849500D01*
X171393713Y-116849500D01*
X171345042Y-116857208D01*
X171183760Y-116882753D01*
X170981585Y-116948444D01*
X170792179Y-117044951D01*
X170620213Y-117169890D01*
X170469890Y-117320213D01*
X170344951Y-117492179D01*
X170248444Y-117681585D01*
X170182753Y-117883760D01*
X170161803Y-118016033D01*
X170149500Y-118093713D01*
X168655500Y-118093713D01*
X168655500Y-111000000D01*
X169494353Y-111000000D01*
X169514834Y-111142456D01*
X169525603Y-111166036D01*
X169574623Y-111273373D01*
X169668872Y-111382143D01*
X169789947Y-111459953D01*
X169789950Y-111459954D01*
X169789949Y-111459954D01*
X169897107Y-111491417D01*
X169924633Y-111499500D01*
X169928036Y-111500499D01*
X169928038Y-111500500D01*
X169928039Y-111500500D01*
X170071962Y-111500500D01*
X170071962Y-111500499D01*
X170179121Y-111469035D01*
X170210050Y-111459954D01*
X170210050Y-111459953D01*
X170210053Y-111459953D01*
X170331128Y-111382143D01*
X170425377Y-111273373D01*
X170485165Y-111142457D01*
X170505647Y-111000000D01*
X170485165Y-110857543D01*
X170425377Y-110726627D01*
X170331128Y-110617857D01*
X170210053Y-110540047D01*
X170210051Y-110540046D01*
X170210049Y-110540045D01*
X170210050Y-110540045D01*
X170071963Y-110499500D01*
X170071961Y-110499500D01*
X169928039Y-110499500D01*
X169928036Y-110499500D01*
X169789949Y-110540045D01*
X169668873Y-110617856D01*
X169574623Y-110726626D01*
X169574622Y-110726628D01*
X169514834Y-110857543D01*
X169494353Y-111000000D01*
X168655500Y-111000000D01*
X168655500Y-110324000D01*
X168649661Y-110269687D01*
X168638455Y-110218176D01*
X168631219Y-110191802D01*
X168627332Y-110184976D01*
X168581894Y-110105181D01*
X168581890Y-110105176D01*
X168581888Y-110105172D01*
X168546097Y-110063867D01*
X168536136Y-110052371D01*
X168503359Y-110020743D01*
X168415022Y-109974534D01*
X168415022Y-109974533D01*
X168347990Y-109954851D01*
X168347978Y-109954848D01*
X168276001Y-109944500D01*
X168276000Y-109944500D01*
X168243048Y-109944500D01*
X168208114Y-109939477D01*
X168071963Y-109899500D01*
X168071961Y-109899500D01*
X167928039Y-109899500D01*
X167928036Y-109899500D01*
X167791886Y-109939477D01*
X167756952Y-109944500D01*
X164043048Y-109944500D01*
X164008114Y-109939477D01*
X163871963Y-109899500D01*
X163871961Y-109899500D01*
X163728039Y-109899500D01*
X163728036Y-109899500D01*
X163591886Y-109939477D01*
X163556952Y-109944500D01*
X163523997Y-109944500D01*
X163469687Y-109950338D01*
X163418181Y-109961543D01*
X163418172Y-109961546D01*
X163391807Y-109968779D01*
X163391796Y-109968783D01*
X163305181Y-110018105D01*
X163305173Y-110018111D01*
X163252371Y-110063863D01*
X163220743Y-110096640D01*
X163174534Y-110184977D01*
X163174533Y-110184977D01*
X163154851Y-110252009D01*
X163154848Y-110252021D01*
X163144500Y-110323998D01*
X157387819Y-110323998D01*
X157405647Y-110200000D01*
X157385165Y-110057543D01*
X157325377Y-109926627D01*
X157231128Y-109817857D01*
X157110053Y-109740047D01*
X157110051Y-109740046D01*
X157110049Y-109740045D01*
X157110050Y-109740045D01*
X156971963Y-109699500D01*
X156971961Y-109699500D01*
X156828039Y-109699500D01*
X156828036Y-109699500D01*
X156689949Y-109740045D01*
X156568873Y-109817856D01*
X156474623Y-109926626D01*
X156474622Y-109926628D01*
X156414834Y-110057543D01*
X156394353Y-110200000D01*
X139400000Y-110200000D01*
X139400000Y-109550000D01*
X154644353Y-109550000D01*
X154664834Y-109692456D01*
X154722103Y-109817856D01*
X154724623Y-109823373D01*
X154818872Y-109932143D01*
X154939947Y-110009953D01*
X154939950Y-110009954D01*
X154939949Y-110009954D01*
X155078036Y-110050499D01*
X155078038Y-110050500D01*
X155078039Y-110050500D01*
X155221962Y-110050500D01*
X155221962Y-110050499D01*
X155360053Y-110009953D01*
X155481128Y-109932143D01*
X155575377Y-109823373D01*
X155635165Y-109692457D01*
X155655647Y-109550000D01*
X155635165Y-109407543D01*
X155575377Y-109276627D01*
X155481128Y-109167857D01*
X155360053Y-109090047D01*
X155360051Y-109090046D01*
X155360049Y-109090045D01*
X155360050Y-109090045D01*
X155221963Y-109049500D01*
X155221961Y-109049500D01*
X155078039Y-109049500D01*
X155078036Y-109049500D01*
X154939949Y-109090045D01*
X154818873Y-109167856D01*
X154724623Y-109276626D01*
X154724622Y-109276628D01*
X154664834Y-109407543D01*
X154644353Y-109550000D01*
X139400000Y-109550000D01*
X139400000Y-108900000D01*
X152894353Y-108900000D01*
X152914834Y-109042456D01*
X152972103Y-109167856D01*
X152974623Y-109173373D01*
X153068872Y-109282143D01*
X153189947Y-109359953D01*
X153189950Y-109359954D01*
X153189949Y-109359954D01*
X153328036Y-109400499D01*
X153328038Y-109400500D01*
X153328039Y-109400500D01*
X153471962Y-109400500D01*
X153471962Y-109400499D01*
X153610053Y-109359953D01*
X153731128Y-109282143D01*
X153825377Y-109173373D01*
X153885165Y-109042457D01*
X153905647Y-108900000D01*
X153885165Y-108757543D01*
X153825377Y-108626627D01*
X153731128Y-108517857D01*
X153610053Y-108440047D01*
X153610051Y-108440046D01*
X153610049Y-108440045D01*
X153610050Y-108440045D01*
X153471963Y-108399500D01*
X153471961Y-108399500D01*
X153328039Y-108399500D01*
X153328036Y-108399500D01*
X153189949Y-108440045D01*
X153068873Y-108517856D01*
X152974623Y-108626626D01*
X152974622Y-108626628D01*
X152914834Y-108757543D01*
X152894353Y-108900000D01*
X139400000Y-108900000D01*
X139400000Y-108154304D01*
X139419685Y-108087265D01*
X139472489Y-108041510D01*
X139541647Y-108031566D01*
X139605203Y-108060591D01*
X139617713Y-108073102D01*
X139654913Y-108116034D01*
X139668872Y-108132143D01*
X139789947Y-108209953D01*
X139789950Y-108209954D01*
X139789949Y-108209954D01*
X139846737Y-108226628D01*
X139926336Y-108250000D01*
X139928036Y-108250499D01*
X139928038Y-108250500D01*
X139928039Y-108250500D01*
X140071962Y-108250500D01*
X140071962Y-108250499D01*
X140210053Y-108209953D01*
X140331128Y-108132143D01*
X140425377Y-108023373D01*
X140485165Y-107892457D01*
X140505647Y-107750000D01*
X140485165Y-107607543D01*
X140458886Y-107550000D01*
X150544353Y-107550000D01*
X150564834Y-107692456D01*
X150587669Y-107742456D01*
X150624623Y-107823373D01*
X150718872Y-107932143D01*
X150839947Y-108009953D01*
X150839950Y-108009954D01*
X150839949Y-108009954D01*
X150938427Y-108038869D01*
X150978039Y-108050500D01*
X150978043Y-108050500D01*
X150986816Y-108051762D01*
X150986420Y-108054515D01*
X151039783Y-108070185D01*
X151085538Y-108122989D01*
X151095482Y-108192146D01*
X151094353Y-108199998D01*
X151094353Y-108199999D01*
X151114834Y-108342456D01*
X151152640Y-108425237D01*
X151174623Y-108473373D01*
X151268872Y-108582143D01*
X151389947Y-108659953D01*
X151389950Y-108659954D01*
X151389949Y-108659954D01*
X151528036Y-108700499D01*
X151528038Y-108700500D01*
X151528039Y-108700500D01*
X151671962Y-108700500D01*
X151671962Y-108700499D01*
X151810053Y-108659953D01*
X151931128Y-108582143D01*
X152025377Y-108473373D01*
X152085165Y-108342457D01*
X152105647Y-108200000D01*
X152098458Y-108150000D01*
X159544353Y-108150000D01*
X159564834Y-108292456D01*
X159596197Y-108361130D01*
X159624623Y-108423373D01*
X159718872Y-108532143D01*
X159839947Y-108609953D01*
X159839950Y-108609954D01*
X159839949Y-108609954D01*
X159978036Y-108650499D01*
X159978038Y-108650500D01*
X159978039Y-108650500D01*
X160121962Y-108650500D01*
X160121962Y-108650499D01*
X160260053Y-108609953D01*
X160381128Y-108532143D01*
X160408980Y-108500000D01*
X165744353Y-108500000D01*
X165764834Y-108642456D01*
X165823668Y-108771281D01*
X165824623Y-108773373D01*
X165918872Y-108882143D01*
X166039947Y-108959953D01*
X166039950Y-108959954D01*
X166039949Y-108959954D01*
X166178036Y-109000499D01*
X166178038Y-109000500D01*
X166178039Y-109000500D01*
X166321962Y-109000500D01*
X166321962Y-109000499D01*
X166460053Y-108959953D01*
X166581128Y-108882143D01*
X166675377Y-108773373D01*
X166735165Y-108642457D01*
X166755647Y-108500000D01*
X166735165Y-108357543D01*
X166675377Y-108226627D01*
X166581128Y-108117857D01*
X166460053Y-108040047D01*
X166460051Y-108040046D01*
X166460049Y-108040045D01*
X166460050Y-108040045D01*
X166321963Y-107999500D01*
X166321961Y-107999500D01*
X166178039Y-107999500D01*
X166178036Y-107999500D01*
X166039949Y-108040045D01*
X165918873Y-108117856D01*
X165824623Y-108226626D01*
X165824622Y-108226628D01*
X165764834Y-108357543D01*
X165744353Y-108500000D01*
X160408980Y-108500000D01*
X160475377Y-108423373D01*
X160535165Y-108292457D01*
X160555647Y-108150000D01*
X160555647Y-108149999D01*
X160555647Y-108141131D01*
X160557968Y-108141131D01*
X160566114Y-108084479D01*
X160611869Y-108031675D01*
X160678908Y-108011991D01*
X160745946Y-108031675D01*
X160786197Y-108057543D01*
X160789949Y-108059954D01*
X160928036Y-108100499D01*
X160928038Y-108100500D01*
X160928039Y-108100500D01*
X161071962Y-108100500D01*
X161071962Y-108100499D01*
X161179121Y-108069035D01*
X161210050Y-108059954D01*
X161210050Y-108059953D01*
X161210053Y-108059953D01*
X161331128Y-107982143D01*
X161425377Y-107873373D01*
X161485165Y-107742457D01*
X161505647Y-107600000D01*
X161485165Y-107457543D01*
X161425377Y-107326627D01*
X161331128Y-107217857D01*
X161210053Y-107140047D01*
X161210051Y-107140046D01*
X161210049Y-107140045D01*
X161210050Y-107140045D01*
X161071963Y-107099500D01*
X161071961Y-107099500D01*
X160928039Y-107099500D01*
X160928036Y-107099500D01*
X160789949Y-107140045D01*
X160668873Y-107217856D01*
X160574623Y-107326626D01*
X160574622Y-107326628D01*
X160514834Y-107457543D01*
X160494353Y-107600000D01*
X160494353Y-107608869D01*
X160492034Y-107608869D01*
X160483877Y-107665538D01*
X160438113Y-107718335D01*
X160371070Y-107738008D01*
X160304051Y-107718323D01*
X160260051Y-107690045D01*
X160121963Y-107649500D01*
X160121961Y-107649500D01*
X159978039Y-107649500D01*
X159978036Y-107649500D01*
X159839949Y-107690045D01*
X159718873Y-107767856D01*
X159624623Y-107876626D01*
X159624622Y-107876628D01*
X159564834Y-108007543D01*
X159544353Y-108150000D01*
X152098458Y-108150000D01*
X152085165Y-108057543D01*
X152025377Y-107926627D01*
X151931128Y-107817857D01*
X151810053Y-107740047D01*
X151810051Y-107740046D01*
X151810049Y-107740045D01*
X151810050Y-107740045D01*
X151671963Y-107699500D01*
X151663184Y-107698238D01*
X151663579Y-107695484D01*
X151610217Y-107679815D01*
X151564462Y-107627011D01*
X151554518Y-107557854D01*
X151555647Y-107550001D01*
X151555647Y-107550000D01*
X151535165Y-107407543D01*
X151475377Y-107276627D01*
X151381128Y-107167857D01*
X151260053Y-107090047D01*
X151260051Y-107090046D01*
X151260049Y-107090045D01*
X151260050Y-107090045D01*
X151121963Y-107049500D01*
X151121961Y-107049500D01*
X150978039Y-107049500D01*
X150978036Y-107049500D01*
X150839949Y-107090045D01*
X150718873Y-107167856D01*
X150624623Y-107276626D01*
X150624622Y-107276628D01*
X150564834Y-107407543D01*
X150544353Y-107550000D01*
X140458886Y-107550000D01*
X140425377Y-107476627D01*
X140331128Y-107367857D01*
X140210053Y-107290047D01*
X140210051Y-107290046D01*
X140210049Y-107290045D01*
X140210050Y-107290045D01*
X140071963Y-107249500D01*
X140071961Y-107249500D01*
X139928039Y-107249500D01*
X139928036Y-107249500D01*
X139789949Y-107290045D01*
X139668873Y-107367856D01*
X139617713Y-107426898D01*
X139558934Y-107464672D01*
X139489065Y-107464672D01*
X139430287Y-107426897D01*
X139401262Y-107363342D01*
X139400000Y-107345695D01*
X139400000Y-106348145D01*
X139401262Y-106330498D01*
X139405647Y-106300000D01*
X139401262Y-106269500D01*
X139400000Y-106251854D01*
X139400000Y-106000000D01*
X139358934Y-106000000D01*
X139291895Y-105980315D01*
X139265221Y-105957203D01*
X139257784Y-105948620D01*
X139231128Y-105917857D01*
X139110053Y-105840047D01*
X139110051Y-105840046D01*
X139110049Y-105840045D01*
X139110050Y-105840045D01*
X138971963Y-105799500D01*
X138971961Y-105799500D01*
X138828039Y-105799500D01*
X138828036Y-105799500D01*
X138689949Y-105840045D01*
X138568873Y-105917856D01*
X138534779Y-105957203D01*
X138476001Y-105994977D01*
X138441066Y-106000000D01*
X134176943Y-106000000D01*
X134109904Y-105980315D01*
X134064149Y-105927511D01*
X134054205Y-105858353D01*
X134083230Y-105794797D01*
X134125429Y-105763207D01*
X134132547Y-105759954D01*
X134132553Y-105759953D01*
X134253628Y-105682143D01*
X134324805Y-105600000D01*
X164994353Y-105600000D01*
X165014834Y-105742456D01*
X165074622Y-105873371D01*
X165074623Y-105873373D01*
X165168872Y-105982143D01*
X165289947Y-106059953D01*
X165289950Y-106059954D01*
X165289949Y-106059954D01*
X165428036Y-106100499D01*
X165428038Y-106100500D01*
X165428039Y-106100500D01*
X165571962Y-106100500D01*
X165571962Y-106100499D01*
X165710053Y-106059953D01*
X165831128Y-105982143D01*
X165831133Y-105982137D01*
X165837829Y-105976336D01*
X165839717Y-105978515D01*
X165886186Y-105948636D01*
X165956056Y-105948620D01*
X165988189Y-105963290D01*
X166002448Y-105972454D01*
X166140536Y-106012999D01*
X166140538Y-106013000D01*
X166140539Y-106013000D01*
X166284462Y-106013000D01*
X166284462Y-106012999D01*
X166395777Y-105980315D01*
X166422550Y-105972454D01*
X166422550Y-105972453D01*
X166422553Y-105972453D01*
X166543628Y-105894643D01*
X166637877Y-105785873D01*
X166697665Y-105654957D01*
X166718147Y-105512500D01*
X166697665Y-105370043D01*
X166637877Y-105239127D01*
X166543628Y-105130357D01*
X166422553Y-105052547D01*
X166422551Y-105052546D01*
X166422549Y-105052545D01*
X166422550Y-105052545D01*
X166284463Y-105012000D01*
X166284461Y-105012000D01*
X166140539Y-105012000D01*
X166140536Y-105012000D01*
X166002449Y-105052545D01*
X165881372Y-105130357D01*
X165874672Y-105136163D01*
X165872789Y-105133990D01*
X165826257Y-105163879D01*
X165756387Y-105163863D01*
X165724314Y-105149212D01*
X165710053Y-105140047D01*
X165710051Y-105140046D01*
X165710049Y-105140045D01*
X165571963Y-105099500D01*
X165571961Y-105099500D01*
X165428039Y-105099500D01*
X165428036Y-105099500D01*
X165289949Y-105140045D01*
X165168873Y-105217856D01*
X165074623Y-105326626D01*
X165074622Y-105326628D01*
X165014834Y-105457543D01*
X164994353Y-105600000D01*
X134324805Y-105600000D01*
X134347877Y-105573373D01*
X134407665Y-105442457D01*
X134428147Y-105300000D01*
X134407665Y-105157543D01*
X134347877Y-105026627D01*
X134253628Y-104917857D01*
X134132553Y-104840047D01*
X134132551Y-104840046D01*
X134132549Y-104840045D01*
X134132550Y-104840045D01*
X133994463Y-104799500D01*
X133994461Y-104799500D01*
X133850539Y-104799500D01*
X133850536Y-104799500D01*
X133712449Y-104840045D01*
X133591373Y-104917856D01*
X133497123Y-105026626D01*
X133497122Y-105026628D01*
X133437334Y-105157543D01*
X133416853Y-105300000D01*
X133437334Y-105442456D01*
X133469323Y-105512500D01*
X133497123Y-105573373D01*
X133591372Y-105682143D01*
X133712447Y-105759953D01*
X133712449Y-105759953D01*
X133712450Y-105759954D01*
X133719571Y-105763207D01*
X133772374Y-105808963D01*
X133792057Y-105876003D01*
X133772371Y-105943042D01*
X133719566Y-105988796D01*
X133668057Y-106000000D01*
X126624000Y-106000000D01*
X126556961Y-105980315D01*
X126511206Y-105927511D01*
X126500000Y-105876000D01*
X126500000Y-104899996D01*
X130719819Y-104899996D01*
X130719819Y-104900003D01*
X130738424Y-105017477D01*
X130738424Y-105017478D01*
X130738425Y-105017481D01*
X130738426Y-105017482D01*
X130780725Y-105100499D01*
X130792428Y-105123466D01*
X130792431Y-105123470D01*
X130876529Y-105207568D01*
X130876533Y-105207571D01*
X130876535Y-105207573D01*
X130982518Y-105261574D01*
X130982520Y-105261574D01*
X130982522Y-105261575D01*
X131099997Y-105280181D01*
X131100000Y-105280181D01*
X131100003Y-105280181D01*
X131217477Y-105261575D01*
X131217478Y-105261575D01*
X131217479Y-105261574D01*
X131217482Y-105261574D01*
X131323465Y-105207573D01*
X131407573Y-105123465D01*
X131461574Y-105017482D01*
X131480181Y-104900000D01*
X131480181Y-104899996D01*
X131461575Y-104782522D01*
X131461575Y-104782521D01*
X131461574Y-104782519D01*
X131461574Y-104782518D01*
X131407573Y-104676535D01*
X131407571Y-104676533D01*
X131407568Y-104676529D01*
X131323470Y-104592431D01*
X131323466Y-104592428D01*
X131323465Y-104592427D01*
X131217482Y-104538426D01*
X131217480Y-104538425D01*
X131217477Y-104538424D01*
X131100003Y-104519819D01*
X131099997Y-104519819D01*
X130982522Y-104538424D01*
X130982521Y-104538424D01*
X130876533Y-104592428D01*
X130876529Y-104592431D01*
X130792431Y-104676529D01*
X130792428Y-104676533D01*
X130738424Y-104782521D01*
X130738424Y-104782522D01*
X130719819Y-104899996D01*
X126500000Y-104899996D01*
X126500000Y-104400000D01*
X147094353Y-104400000D01*
X147114834Y-104542456D01*
X147141114Y-104600000D01*
X147174623Y-104673373D01*
X147268872Y-104782143D01*
X147389947Y-104859953D01*
X147389950Y-104859954D01*
X147389949Y-104859954D01*
X147497107Y-104891417D01*
X147526346Y-104900003D01*
X147528036Y-104900499D01*
X147528038Y-104900500D01*
X147528039Y-104900500D01*
X147671962Y-104900500D01*
X147671962Y-104900499D01*
X147810053Y-104859953D01*
X147931128Y-104782143D01*
X148025377Y-104673373D01*
X148058886Y-104600000D01*
X151794353Y-104600000D01*
X151814834Y-104742456D01*
X151833132Y-104782522D01*
X151874623Y-104873373D01*
X151968872Y-104982143D01*
X152089947Y-105059953D01*
X152089950Y-105059954D01*
X152089949Y-105059954D01*
X152197107Y-105091417D01*
X152224633Y-105099500D01*
X152228036Y-105100499D01*
X152228038Y-105100500D01*
X152228039Y-105100500D01*
X152371962Y-105100500D01*
X152371962Y-105100499D01*
X152510053Y-105059953D01*
X152631128Y-104982143D01*
X152725377Y-104873373D01*
X152785165Y-104742457D01*
X152805647Y-104600000D01*
X156294353Y-104600000D01*
X156314834Y-104742456D01*
X156333132Y-104782522D01*
X156374623Y-104873373D01*
X156468872Y-104982143D01*
X156589947Y-105059953D01*
X156589950Y-105059954D01*
X156589949Y-105059954D01*
X156697107Y-105091417D01*
X156724633Y-105099500D01*
X156728036Y-105100499D01*
X156728038Y-105100500D01*
X156728039Y-105100500D01*
X156871962Y-105100500D01*
X156871962Y-105100499D01*
X157010053Y-105059953D01*
X157131128Y-104982143D01*
X157225377Y-104873373D01*
X157285165Y-104742457D01*
X157305647Y-104600000D01*
X157285165Y-104457543D01*
X157225377Y-104326627D01*
X157131128Y-104217857D01*
X157010053Y-104140047D01*
X157010051Y-104140046D01*
X157010049Y-104140045D01*
X157010050Y-104140045D01*
X156871963Y-104099500D01*
X156871961Y-104099500D01*
X156728039Y-104099500D01*
X156728036Y-104099500D01*
X156589949Y-104140045D01*
X156468873Y-104217856D01*
X156374623Y-104326626D01*
X156374622Y-104326628D01*
X156314834Y-104457543D01*
X156294353Y-104600000D01*
X152805647Y-104600000D01*
X152785165Y-104457543D01*
X152725377Y-104326627D01*
X152631128Y-104217857D01*
X152510053Y-104140047D01*
X152510051Y-104140046D01*
X152510049Y-104140045D01*
X152510050Y-104140045D01*
X152371963Y-104099500D01*
X152371961Y-104099500D01*
X152228039Y-104099500D01*
X152228036Y-104099500D01*
X152089949Y-104140045D01*
X151968873Y-104217856D01*
X151874623Y-104326626D01*
X151874622Y-104326628D01*
X151814834Y-104457543D01*
X151794353Y-104600000D01*
X148058886Y-104600000D01*
X148085165Y-104542457D01*
X148105647Y-104400000D01*
X148085165Y-104257543D01*
X148025377Y-104126627D01*
X147931128Y-104017857D01*
X147810053Y-103940047D01*
X147810051Y-103940046D01*
X147810049Y-103940045D01*
X147810050Y-103940045D01*
X147671963Y-103899500D01*
X147671961Y-103899500D01*
X147528039Y-103899500D01*
X147528036Y-103899500D01*
X147389949Y-103940045D01*
X147268873Y-104017856D01*
X147174623Y-104126626D01*
X147174622Y-104126628D01*
X147114834Y-104257543D01*
X147094353Y-104400000D01*
X126500000Y-104400000D01*
X126500000Y-102799996D01*
X128369819Y-102799996D01*
X128369819Y-102800003D01*
X128388424Y-102917477D01*
X128388424Y-102917478D01*
X128388425Y-102917481D01*
X128388426Y-102917482D01*
X128442380Y-103023373D01*
X128442428Y-103023466D01*
X128442431Y-103023470D01*
X128526529Y-103107568D01*
X128526533Y-103107571D01*
X128526535Y-103107573D01*
X128632518Y-103161574D01*
X128632520Y-103161574D01*
X128632522Y-103161575D01*
X128749997Y-103180181D01*
X128750000Y-103180181D01*
X128750003Y-103180181D01*
X128867477Y-103161575D01*
X128867478Y-103161575D01*
X128867479Y-103161574D01*
X128867482Y-103161574D01*
X128973465Y-103107573D01*
X129057573Y-103023465D01*
X129111574Y-102917482D01*
X129111575Y-102917478D01*
X129116004Y-102908786D01*
X129117659Y-102909629D01*
X129150365Y-102861804D01*
X129213210Y-102835247D01*
X129213184Y-102835062D01*
X129213889Y-102834960D01*
X129214724Y-102834608D01*
X129217410Y-102834454D01*
X129221956Y-102833800D01*
X129221961Y-102833800D01*
X129360053Y-102793253D01*
X129481128Y-102715443D01*
X129575377Y-102606673D01*
X129635165Y-102475757D01*
X129655647Y-102333300D01*
X129635165Y-102190843D01*
X129575377Y-102059927D01*
X129523447Y-101999996D01*
X130442319Y-101999996D01*
X130442319Y-102000003D01*
X130460924Y-102117477D01*
X130460924Y-102117478D01*
X130514929Y-102223469D01*
X130517582Y-102227120D01*
X130541058Y-102292928D01*
X130525229Y-102360981D01*
X130517582Y-102372880D01*
X130514929Y-102376530D01*
X130460924Y-102482521D01*
X130460924Y-102482522D01*
X130442319Y-102599996D01*
X130442319Y-102600003D01*
X130460924Y-102717477D01*
X130460924Y-102717478D01*
X130514929Y-102823469D01*
X130517582Y-102827120D01*
X130541058Y-102892928D01*
X130525229Y-102960981D01*
X130517582Y-102972880D01*
X130514929Y-102976530D01*
X130460924Y-103082521D01*
X130460924Y-103082522D01*
X130442319Y-103199996D01*
X130442319Y-103200003D01*
X130460924Y-103317477D01*
X130460924Y-103317478D01*
X130460925Y-103317481D01*
X130460926Y-103317482D01*
X130511876Y-103417478D01*
X130514928Y-103423466D01*
X130514931Y-103423470D01*
X130599029Y-103507568D01*
X130599033Y-103507571D01*
X130599035Y-103507573D01*
X130705018Y-103561574D01*
X130705020Y-103561574D01*
X130705022Y-103561575D01*
X130822497Y-103580181D01*
X130822500Y-103580181D01*
X130822503Y-103580181D01*
X130939977Y-103561575D01*
X130939978Y-103561575D01*
X130939979Y-103561574D01*
X130939982Y-103561574D01*
X131045965Y-103507573D01*
X131045971Y-103507566D01*
X131049614Y-103504921D01*
X131115421Y-103481441D01*
X131183474Y-103497266D01*
X131195386Y-103504921D01*
X131199031Y-103507569D01*
X131199035Y-103507573D01*
X131305018Y-103561574D01*
X131305020Y-103561574D01*
X131305022Y-103561575D01*
X131422497Y-103580181D01*
X131422500Y-103580181D01*
X131422503Y-103580181D01*
X131539977Y-103561575D01*
X131539978Y-103561575D01*
X131539979Y-103561574D01*
X131539982Y-103561574D01*
X131645965Y-103507573D01*
X131645971Y-103507566D01*
X131649614Y-103504921D01*
X131715421Y-103481441D01*
X131783474Y-103497266D01*
X131795386Y-103504921D01*
X131799031Y-103507569D01*
X131799035Y-103507573D01*
X131905018Y-103561574D01*
X131905020Y-103561574D01*
X131905022Y-103561575D01*
X132022497Y-103580181D01*
X132022500Y-103580181D01*
X132022503Y-103580181D01*
X132139977Y-103561575D01*
X132139978Y-103561575D01*
X132139979Y-103561574D01*
X132139982Y-103561574D01*
X132245965Y-103507573D01*
X132330073Y-103423465D01*
X132384074Y-103317482D01*
X132384075Y-103317477D01*
X132402681Y-103200003D01*
X132402681Y-103199996D01*
X132384075Y-103082522D01*
X132384075Y-103082521D01*
X132384074Y-103082519D01*
X132384074Y-103082518D01*
X132330073Y-102976535D01*
X132330068Y-102976530D01*
X132327421Y-102972886D01*
X132303941Y-102907079D01*
X132319766Y-102839026D01*
X132327421Y-102827114D01*
X132330066Y-102823471D01*
X132330073Y-102823465D01*
X132384074Y-102717482D01*
X132389612Y-102682516D01*
X132402681Y-102600003D01*
X132402681Y-102599996D01*
X132384075Y-102482522D01*
X132384075Y-102482521D01*
X132384074Y-102482519D01*
X132384074Y-102482518D01*
X132330073Y-102376535D01*
X132330068Y-102376530D01*
X132327421Y-102372886D01*
X132303941Y-102307079D01*
X132319766Y-102239026D01*
X132327421Y-102227114D01*
X132330066Y-102223471D01*
X132330073Y-102223465D01*
X132384074Y-102117482D01*
X132385846Y-102106294D01*
X132402681Y-102000003D01*
X132402681Y-101999996D01*
X132384075Y-101882522D01*
X132384075Y-101882521D01*
X132384074Y-101882519D01*
X132384074Y-101882518D01*
X132342027Y-101799996D01*
X133219819Y-101799996D01*
X133219819Y-101800003D01*
X133238424Y-101917477D01*
X133238425Y-101917481D01*
X133277264Y-101993706D01*
X133290160Y-102062375D01*
X133277264Y-102106294D01*
X133238425Y-102182518D01*
X133238424Y-102182522D01*
X133219819Y-102299996D01*
X133219819Y-102300003D01*
X133238424Y-102417477D01*
X133238425Y-102417481D01*
X133277264Y-102493706D01*
X133290160Y-102562375D01*
X133277264Y-102606294D01*
X133238425Y-102682518D01*
X133238424Y-102682522D01*
X133219819Y-102799996D01*
X133219819Y-102800003D01*
X133238424Y-102917477D01*
X133238425Y-102917481D01*
X133277264Y-102993706D01*
X133290160Y-103062375D01*
X133277264Y-103106294D01*
X133238425Y-103182518D01*
X133238424Y-103182522D01*
X133219819Y-103299996D01*
X133219819Y-103300003D01*
X133238424Y-103417477D01*
X133238424Y-103417478D01*
X133238425Y-103417481D01*
X133238426Y-103417482D01*
X133284329Y-103507572D01*
X133292428Y-103523466D01*
X133292431Y-103523470D01*
X133376529Y-103607568D01*
X133376533Y-103607571D01*
X133376535Y-103607573D01*
X133482518Y-103661574D01*
X133482520Y-103661574D01*
X133482522Y-103661575D01*
X133599997Y-103680181D01*
X133600000Y-103680181D01*
X133600003Y-103680181D01*
X133717477Y-103661575D01*
X133717478Y-103661575D01*
X133717479Y-103661574D01*
X133717482Y-103661574D01*
X133823465Y-103607573D01*
X133907573Y-103523465D01*
X133961574Y-103417482D01*
X133961575Y-103417477D01*
X133980181Y-103300003D01*
X133980181Y-103299996D01*
X133961575Y-103182522D01*
X133961573Y-103182516D01*
X133950903Y-103161575D01*
X133922735Y-103106293D01*
X133909839Y-103037626D01*
X133922736Y-102993705D01*
X133931485Y-102976535D01*
X133961574Y-102917482D01*
X133962818Y-102909629D01*
X133980181Y-102800003D01*
X133980181Y-102799996D01*
X133972262Y-102750000D01*
X139494353Y-102750000D01*
X139514834Y-102892456D01*
X139561074Y-102993705D01*
X139574623Y-103023373D01*
X139668872Y-103132143D01*
X139789947Y-103209953D01*
X139789950Y-103209954D01*
X139789949Y-103209954D01*
X139928036Y-103250499D01*
X139928038Y-103250500D01*
X139928039Y-103250500D01*
X140071962Y-103250500D01*
X140071962Y-103250499D01*
X140210053Y-103209953D01*
X140331128Y-103132143D01*
X140425377Y-103023373D01*
X140485165Y-102892457D01*
X140505647Y-102750000D01*
X140485165Y-102607543D01*
X140425377Y-102476627D01*
X140331128Y-102367857D01*
X140210053Y-102290047D01*
X140210051Y-102290046D01*
X140210049Y-102290045D01*
X140210050Y-102290045D01*
X140071963Y-102249500D01*
X140071961Y-102249500D01*
X139928039Y-102249500D01*
X139928036Y-102249500D01*
X139789949Y-102290045D01*
X139668873Y-102367856D01*
X139574623Y-102476626D01*
X139574622Y-102476628D01*
X139514834Y-102607543D01*
X139494353Y-102750000D01*
X133972262Y-102750000D01*
X133961575Y-102682522D01*
X133961573Y-102682516D01*
X133922736Y-102606295D01*
X133909839Y-102537626D01*
X133922736Y-102493705D01*
X133961574Y-102417482D01*
X133963242Y-102406953D01*
X133980181Y-102300003D01*
X133980181Y-102299996D01*
X133961575Y-102182522D01*
X133961573Y-102182516D01*
X133960051Y-102179530D01*
X133922735Y-102106293D01*
X133909839Y-102037626D01*
X133922736Y-101993705D01*
X133961574Y-101917482D01*
X133968564Y-101873347D01*
X133980181Y-101800003D01*
X133980181Y-101799996D01*
X133961575Y-101682522D01*
X133961575Y-101682521D01*
X133961574Y-101682519D01*
X133961574Y-101682518D01*
X133907573Y-101576535D01*
X133907571Y-101576533D01*
X133907568Y-101576529D01*
X133823470Y-101492431D01*
X133823466Y-101492428D01*
X133823465Y-101492427D01*
X133717482Y-101438426D01*
X133717480Y-101438425D01*
X133717477Y-101438424D01*
X133600003Y-101419819D01*
X133599997Y-101419819D01*
X133482522Y-101438424D01*
X133482521Y-101438424D01*
X133376533Y-101492428D01*
X133376529Y-101492431D01*
X133292431Y-101576529D01*
X133292428Y-101576533D01*
X133238424Y-101682521D01*
X133238424Y-101682522D01*
X133219819Y-101799996D01*
X132342027Y-101799996D01*
X132330073Y-101776535D01*
X132330071Y-101776533D01*
X132330068Y-101776529D01*
X132245970Y-101692431D01*
X132245966Y-101692428D01*
X132245965Y-101692427D01*
X132139982Y-101638426D01*
X132139980Y-101638425D01*
X132139977Y-101638424D01*
X132022503Y-101619819D01*
X132022497Y-101619819D01*
X131905022Y-101638424D01*
X131905021Y-101638424D01*
X131799030Y-101692429D01*
X131795380Y-101695082D01*
X131729572Y-101718558D01*
X131661519Y-101702729D01*
X131649620Y-101695082D01*
X131645969Y-101692429D01*
X131626517Y-101682518D01*
X131539982Y-101638426D01*
X131539980Y-101638425D01*
X131539977Y-101638424D01*
X131422503Y-101619819D01*
X131422497Y-101619819D01*
X131305022Y-101638424D01*
X131305021Y-101638424D01*
X131199030Y-101692429D01*
X131195380Y-101695082D01*
X131129572Y-101718558D01*
X131061519Y-101702729D01*
X131049620Y-101695082D01*
X131045969Y-101692429D01*
X131026517Y-101682518D01*
X130939982Y-101638426D01*
X130939980Y-101638425D01*
X130939977Y-101638424D01*
X130822503Y-101619819D01*
X130822497Y-101619819D01*
X130705022Y-101638424D01*
X130705021Y-101638424D01*
X130599033Y-101692428D01*
X130599029Y-101692431D01*
X130514931Y-101776529D01*
X130514928Y-101776533D01*
X130460924Y-101882521D01*
X130460924Y-101882522D01*
X130442319Y-101999996D01*
X129523447Y-101999996D01*
X129481128Y-101951157D01*
X129360053Y-101873347D01*
X129360051Y-101873346D01*
X129360049Y-101873345D01*
X129360050Y-101873345D01*
X129221963Y-101832800D01*
X129221961Y-101832800D01*
X129078039Y-101832800D01*
X129078036Y-101832800D01*
X128939949Y-101873345D01*
X128818873Y-101951156D01*
X128724623Y-102059926D01*
X128724622Y-102059928D01*
X128664834Y-102190843D01*
X128644353Y-102333300D01*
X128644999Y-102337795D01*
X128635052Y-102406953D01*
X128589294Y-102459755D01*
X128578557Y-102465920D01*
X128526534Y-102492427D01*
X128526529Y-102492431D01*
X128442431Y-102576529D01*
X128442428Y-102576533D01*
X128388424Y-102682521D01*
X128388424Y-102682522D01*
X128369819Y-102799996D01*
X126500000Y-102799996D01*
X126500000Y-100299996D01*
X130619819Y-100299996D01*
X130619819Y-100300003D01*
X130638424Y-100417477D01*
X130638424Y-100417478D01*
X130638425Y-100417481D01*
X130638426Y-100417482D01*
X130672149Y-100483668D01*
X130692428Y-100523466D01*
X130692431Y-100523470D01*
X130776529Y-100607568D01*
X130776533Y-100607571D01*
X130776535Y-100607573D01*
X130882518Y-100661574D01*
X130882520Y-100661574D01*
X130882522Y-100661575D01*
X130999997Y-100680181D01*
X131000000Y-100680181D01*
X131000003Y-100680181D01*
X131064283Y-100670000D01*
X150864901Y-100670000D01*
X150883252Y-100856331D01*
X150883253Y-100856333D01*
X150937604Y-101035502D01*
X151025862Y-101200623D01*
X151025864Y-101200626D01*
X151144642Y-101345357D01*
X151289373Y-101464135D01*
X151289376Y-101464137D01*
X151440662Y-101545000D01*
X151454499Y-101552396D01*
X151633666Y-101606746D01*
X151633668Y-101606747D01*
X151650374Y-101608392D01*
X151820000Y-101625099D01*
X152006331Y-101606747D01*
X152185501Y-101552396D01*
X152350625Y-101464136D01*
X152495357Y-101345357D01*
X152614136Y-101200625D01*
X152702396Y-101035501D01*
X152756747Y-100856331D01*
X152775099Y-100670000D01*
X155864901Y-100670000D01*
X155883252Y-100856331D01*
X155883253Y-100856333D01*
X155937604Y-101035502D01*
X156025862Y-101200623D01*
X156025864Y-101200626D01*
X156144642Y-101345357D01*
X156289373Y-101464135D01*
X156289376Y-101464137D01*
X156440662Y-101545000D01*
X156454499Y-101552396D01*
X156633666Y-101606746D01*
X156633668Y-101606747D01*
X156650374Y-101608392D01*
X156820000Y-101625099D01*
X157006331Y-101606747D01*
X157185501Y-101552396D01*
X157350625Y-101464136D01*
X157495357Y-101345357D01*
X157614136Y-101200625D01*
X157702396Y-101035501D01*
X157756747Y-100856331D01*
X157775099Y-100670000D01*
X157756747Y-100483669D01*
X157702396Y-100304499D01*
X157699989Y-100299996D01*
X157614137Y-100139376D01*
X157614135Y-100139373D01*
X157495357Y-99994642D01*
X157350626Y-99875864D01*
X157350623Y-99875862D01*
X157185502Y-99787604D01*
X157006333Y-99733253D01*
X157006331Y-99733252D01*
X156820000Y-99714901D01*
X156633668Y-99733252D01*
X156633666Y-99733253D01*
X156454497Y-99787604D01*
X156289376Y-99875862D01*
X156289373Y-99875864D01*
X156144642Y-99994642D01*
X156025864Y-100139373D01*
X156025862Y-100139376D01*
X155937604Y-100304497D01*
X155883253Y-100483666D01*
X155883252Y-100483668D01*
X155864901Y-100670000D01*
X152775099Y-100670000D01*
X152756747Y-100483669D01*
X152702396Y-100304499D01*
X152699989Y-100299996D01*
X152614137Y-100139376D01*
X152614135Y-100139373D01*
X152495357Y-99994642D01*
X152350626Y-99875864D01*
X152350623Y-99875862D01*
X152185502Y-99787604D01*
X152006333Y-99733253D01*
X152006331Y-99733252D01*
X151820000Y-99714901D01*
X151633668Y-99733252D01*
X151633666Y-99733253D01*
X151454497Y-99787604D01*
X151289376Y-99875862D01*
X151289373Y-99875864D01*
X151144642Y-99994642D01*
X151025864Y-100139373D01*
X151025862Y-100139376D01*
X150937604Y-100304497D01*
X150883253Y-100483666D01*
X150883252Y-100483668D01*
X150864901Y-100670000D01*
X131064283Y-100670000D01*
X131117477Y-100661575D01*
X131117478Y-100661575D01*
X131117479Y-100661574D01*
X131117482Y-100661574D01*
X131223465Y-100607573D01*
X131307573Y-100523465D01*
X131361574Y-100417482D01*
X131361575Y-100417477D01*
X131380181Y-100300003D01*
X131380181Y-100299996D01*
X131361575Y-100182522D01*
X131361575Y-100182521D01*
X131361574Y-100182519D01*
X131361574Y-100182518D01*
X131307573Y-100076535D01*
X131307571Y-100076533D01*
X131307568Y-100076529D01*
X131223470Y-99992431D01*
X131223466Y-99992428D01*
X131223465Y-99992427D01*
X131117482Y-99938426D01*
X131117480Y-99938425D01*
X131117477Y-99938424D01*
X131000003Y-99919819D01*
X130999997Y-99919819D01*
X130882522Y-99938424D01*
X130882521Y-99938424D01*
X130776533Y-99992428D01*
X130776529Y-99992431D01*
X130692431Y-100076529D01*
X130692428Y-100076533D01*
X130638424Y-100182521D01*
X130638424Y-100182522D01*
X130619819Y-100299996D01*
X126500000Y-100299996D01*
X126500000Y-99800000D01*
X133394353Y-99800000D01*
X133414834Y-99942456D01*
X133474622Y-100073371D01*
X133474623Y-100073373D01*
X133568872Y-100182143D01*
X133689947Y-100259953D01*
X133689950Y-100259954D01*
X133689949Y-100259954D01*
X133797107Y-100291417D01*
X133826346Y-100300003D01*
X133828036Y-100300499D01*
X133828038Y-100300500D01*
X133828039Y-100300500D01*
X133971962Y-100300500D01*
X133971962Y-100300499D01*
X134110053Y-100259953D01*
X134231128Y-100182143D01*
X134325377Y-100073373D01*
X134385165Y-99942457D01*
X134405647Y-99800000D01*
X134385165Y-99657543D01*
X134325377Y-99526627D01*
X134231128Y-99417857D01*
X134110053Y-99340047D01*
X134110051Y-99340046D01*
X134110049Y-99340045D01*
X134110050Y-99340045D01*
X133971963Y-99299500D01*
X133971961Y-99299500D01*
X133828039Y-99299500D01*
X133828036Y-99299500D01*
X133689949Y-99340045D01*
X133568873Y-99417856D01*
X133474623Y-99526626D01*
X133474622Y-99526628D01*
X133414834Y-99657543D01*
X133394353Y-99800000D01*
X126500000Y-99800000D01*
X126500000Y-98124000D01*
X126519685Y-98056961D01*
X126572489Y-98011206D01*
X126624000Y-98000000D01*
X126715693Y-98000000D01*
X126722684Y-98000500D01*
X126728039Y-98000500D01*
X126877316Y-98000500D01*
X126884307Y-98000000D01*
X139497741Y-98000000D01*
X139564780Y-98019685D01*
X139591453Y-98042796D01*
X139668872Y-98132143D01*
X139789947Y-98209953D01*
X139789950Y-98209954D01*
X139789949Y-98209954D01*
X139928036Y-98250499D01*
X139928038Y-98250500D01*
X139928039Y-98250500D01*
X140071962Y-98250500D01*
X140071962Y-98250499D01*
X140210053Y-98209953D01*
X140331128Y-98132143D01*
X140408546Y-98042796D01*
X140467324Y-98005023D01*
X140502259Y-98000000D01*
X141250000Y-98000000D01*
X141250000Y-96800000D01*
X147194353Y-96800000D01*
X147214834Y-96942456D01*
X147232959Y-96982143D01*
X147274623Y-97073373D01*
X147368872Y-97182143D01*
X147489947Y-97259953D01*
X147489950Y-97259954D01*
X147489949Y-97259954D01*
X147628036Y-97300499D01*
X147628038Y-97300500D01*
X147628039Y-97300500D01*
X147771962Y-97300500D01*
X147771962Y-97300499D01*
X147910053Y-97259953D01*
X148031128Y-97182143D01*
X148125377Y-97073373D01*
X148185165Y-96942457D01*
X148205647Y-96800000D01*
X164394353Y-96800000D01*
X164414834Y-96942456D01*
X164432959Y-96982143D01*
X164474623Y-97073373D01*
X164568872Y-97182143D01*
X164689947Y-97259953D01*
X164689950Y-97259954D01*
X164689949Y-97259954D01*
X164828036Y-97300499D01*
X164828038Y-97300500D01*
X164828039Y-97300500D01*
X164971962Y-97300500D01*
X164971962Y-97300499D01*
X165110053Y-97259953D01*
X165231128Y-97182143D01*
X165325377Y-97073373D01*
X165385165Y-96942457D01*
X165405647Y-96800000D01*
X165385165Y-96657543D01*
X165325377Y-96526627D01*
X165231128Y-96417857D01*
X165110053Y-96340047D01*
X165110051Y-96340046D01*
X165110049Y-96340045D01*
X165110050Y-96340045D01*
X164971963Y-96299500D01*
X164971961Y-96299500D01*
X164828039Y-96299500D01*
X164828036Y-96299500D01*
X164689949Y-96340045D01*
X164568873Y-96417856D01*
X164474623Y-96526626D01*
X164474622Y-96526628D01*
X164414834Y-96657543D01*
X164394353Y-96800000D01*
X148205647Y-96800000D01*
X148185165Y-96657543D01*
X148125377Y-96526627D01*
X148031128Y-96417857D01*
X147910053Y-96340047D01*
X147910051Y-96340046D01*
X147910049Y-96340045D01*
X147910050Y-96340045D01*
X147771963Y-96299500D01*
X147771961Y-96299500D01*
X147628039Y-96299500D01*
X147628036Y-96299500D01*
X147489949Y-96340045D01*
X147368873Y-96417856D01*
X147274623Y-96526626D01*
X147274622Y-96526628D01*
X147214834Y-96657543D01*
X147194353Y-96800000D01*
X141250000Y-96800000D01*
X141250000Y-96200000D01*
X149094353Y-96200000D01*
X149114834Y-96342456D01*
X149174622Y-96473371D01*
X149174623Y-96473373D01*
X149268872Y-96582143D01*
X149389947Y-96659953D01*
X149389950Y-96659954D01*
X149389949Y-96659954D01*
X149528036Y-96700499D01*
X149528038Y-96700500D01*
X149528039Y-96700500D01*
X149671962Y-96700500D01*
X149671962Y-96700499D01*
X149810053Y-96659953D01*
X149931128Y-96582143D01*
X150025377Y-96473373D01*
X150085165Y-96342457D01*
X150105647Y-96200000D01*
X158494353Y-96200000D01*
X158514834Y-96342456D01*
X158574622Y-96473371D01*
X158574623Y-96473373D01*
X158668872Y-96582143D01*
X158789947Y-96659953D01*
X158789950Y-96659954D01*
X158789949Y-96659954D01*
X158928036Y-96700499D01*
X158928038Y-96700500D01*
X158928039Y-96700500D01*
X159071962Y-96700500D01*
X159071962Y-96700499D01*
X159210053Y-96659953D01*
X159331128Y-96582143D01*
X159425377Y-96473373D01*
X159485165Y-96342457D01*
X159505647Y-96200000D01*
X159485165Y-96057543D01*
X159425377Y-95926627D01*
X159331128Y-95817857D01*
X159210053Y-95740047D01*
X159210051Y-95740046D01*
X159210049Y-95740045D01*
X159210050Y-95740045D01*
X159071963Y-95699500D01*
X159071961Y-95699500D01*
X158928039Y-95699500D01*
X158928036Y-95699500D01*
X158789949Y-95740045D01*
X158668873Y-95817856D01*
X158574623Y-95926626D01*
X158574622Y-95926628D01*
X158514834Y-96057543D01*
X158494353Y-96200000D01*
X150105647Y-96200000D01*
X150085165Y-96057543D01*
X150025377Y-95926627D01*
X149931128Y-95817857D01*
X149810053Y-95740047D01*
X149810051Y-95740046D01*
X149810049Y-95740045D01*
X149810050Y-95740045D01*
X149671963Y-95699500D01*
X149671961Y-95699500D01*
X149528039Y-95699500D01*
X149528036Y-95699500D01*
X149389949Y-95740045D01*
X149268873Y-95817856D01*
X149174623Y-95926626D01*
X149174622Y-95926628D01*
X149114834Y-96057543D01*
X149094353Y-96200000D01*
X141250000Y-96200000D01*
X141250000Y-92874000D01*
X141269685Y-92806961D01*
X141322489Y-92761206D01*
X141374000Y-92750000D01*
X149530005Y-92750000D01*
X149597044Y-92769685D01*
X149642799Y-92822489D01*
X149652742Y-92891646D01*
X149646668Y-92933898D01*
X149644353Y-92950000D01*
X149664834Y-93092456D01*
X149718494Y-93209953D01*
X149724623Y-93223373D01*
X149818872Y-93332143D01*
X149939947Y-93409953D01*
X149939950Y-93409954D01*
X149939949Y-93409954D01*
X150078036Y-93450499D01*
X150078038Y-93450500D01*
X150078039Y-93450500D01*
X150221962Y-93450500D01*
X150221962Y-93450499D01*
X150360053Y-93409953D01*
X150481128Y-93332143D01*
X150575377Y-93223373D01*
X150635165Y-93092457D01*
X150655647Y-92950000D01*
X150647257Y-92891646D01*
X150657201Y-92822489D01*
X150702956Y-92769685D01*
X150769995Y-92750000D01*
X152750000Y-92750000D01*
X152750000Y-88000000D01*
X156194353Y-88000000D01*
X156214834Y-88142456D01*
X156260500Y-88242448D01*
X156274623Y-88273373D01*
X156368872Y-88382143D01*
X156489947Y-88459953D01*
X156489950Y-88459954D01*
X156489949Y-88459954D01*
X156628036Y-88500499D01*
X156628038Y-88500500D01*
X156628039Y-88500500D01*
X156771962Y-88500500D01*
X156771962Y-88500499D01*
X156910053Y-88459953D01*
X157031128Y-88382143D01*
X157125377Y-88273373D01*
X157185165Y-88142457D01*
X157205647Y-88000000D01*
X164994353Y-88000000D01*
X165014834Y-88142456D01*
X165060500Y-88242448D01*
X165074623Y-88273373D01*
X165168872Y-88382143D01*
X165289947Y-88459953D01*
X165289950Y-88459954D01*
X165289949Y-88459954D01*
X165428036Y-88500499D01*
X165428038Y-88500500D01*
X165428039Y-88500500D01*
X165571962Y-88500500D01*
X165571962Y-88500499D01*
X165710053Y-88459953D01*
X165831128Y-88382143D01*
X165925377Y-88273373D01*
X165985165Y-88142457D01*
X166005647Y-88000000D01*
X165985165Y-87857543D01*
X165925377Y-87726627D01*
X165831128Y-87617857D01*
X165710053Y-87540047D01*
X165710051Y-87540046D01*
X165710049Y-87540045D01*
X165710050Y-87540045D01*
X165571963Y-87499500D01*
X165571961Y-87499500D01*
X165428039Y-87499500D01*
X165428036Y-87499500D01*
X165289949Y-87540045D01*
X165168873Y-87617856D01*
X165074623Y-87726626D01*
X165074622Y-87726628D01*
X165014834Y-87857543D01*
X164994353Y-88000000D01*
X157205647Y-88000000D01*
X157185165Y-87857543D01*
X157125377Y-87726627D01*
X157031128Y-87617857D01*
X156910053Y-87540047D01*
X156910051Y-87540046D01*
X156910049Y-87540045D01*
X156910050Y-87540045D01*
X156771963Y-87499500D01*
X156771961Y-87499500D01*
X156628039Y-87499500D01*
X156628036Y-87499500D01*
X156489949Y-87540045D01*
X156368873Y-87617856D01*
X156274623Y-87726626D01*
X156274622Y-87726628D01*
X156214834Y-87857543D01*
X156194353Y-88000000D01*
X152750000Y-88000000D01*
X152750000Y-80999997D01*
X166774506Y-80999997D01*
X166774506Y-81000002D01*
X166794469Y-81368196D01*
X166794470Y-81368213D01*
X166854122Y-81732068D01*
X166854128Y-81732094D01*
X166952768Y-82087365D01*
X166952770Y-82087371D01*
X166952772Y-82087377D01*
X166952773Y-82087379D01*
X166995865Y-82195533D01*
X167089255Y-82429926D01*
X167089261Y-82429938D01*
X167261973Y-82755708D01*
X167261979Y-82755717D01*
X167400454Y-82959953D01*
X167468910Y-83060917D01*
X167707627Y-83341956D01*
X167975330Y-83595538D01*
X168268881Y-83818690D01*
X168584838Y-84008795D01*
X168584840Y-84008796D01*
X168584842Y-84008797D01*
X168584846Y-84008799D01*
X168919486Y-84163620D01*
X168919497Y-84163625D01*
X169268934Y-84281364D01*
X169629052Y-84360632D01*
X169995630Y-84400500D01*
X169995636Y-84400500D01*
X170364364Y-84400500D01*
X170364370Y-84400500D01*
X170730948Y-84360632D01*
X171091066Y-84281364D01*
X171440503Y-84163625D01*
X171775162Y-84008795D01*
X172091119Y-83818690D01*
X172384670Y-83595538D01*
X172652373Y-83341956D01*
X172891090Y-83060917D01*
X173098022Y-82755716D01*
X173270743Y-82429930D01*
X173407227Y-82087379D01*
X173505875Y-81732081D01*
X173565531Y-81368199D01*
X173585494Y-81000000D01*
X173585347Y-80997297D01*
X173573271Y-80774566D01*
X173565531Y-80631801D01*
X173560008Y-80598115D01*
X173505877Y-80267931D01*
X173505876Y-80267930D01*
X173505875Y-80267919D01*
X173407227Y-79912621D01*
X173270743Y-79570070D01*
X173098022Y-79244284D01*
X172891090Y-78939083D01*
X172652373Y-78658044D01*
X172384670Y-78404462D01*
X172372333Y-78395084D01*
X172338364Y-78369261D01*
X172091119Y-78181310D01*
X171775162Y-77991205D01*
X171775161Y-77991204D01*
X171775157Y-77991202D01*
X171775153Y-77991200D01*
X171440513Y-77836379D01*
X171440508Y-77836377D01*
X171440503Y-77836375D01*
X171270172Y-77778983D01*
X171091065Y-77718635D01*
X170730946Y-77639367D01*
X170364371Y-77599500D01*
X170364370Y-77599500D01*
X169995630Y-77599500D01*
X169995628Y-77599500D01*
X169629053Y-77639367D01*
X169268934Y-77718635D01*
X168998812Y-77809650D01*
X168919497Y-77836375D01*
X168919494Y-77836376D01*
X168919486Y-77836379D01*
X168584846Y-77991200D01*
X168584842Y-77991202D01*
X168451149Y-78071643D01*
X168268881Y-78181310D01*
X168234317Y-78207585D01*
X167975330Y-78404461D01*
X167975330Y-78404462D01*
X167707626Y-78658044D01*
X167468909Y-78939083D01*
X167261979Y-79244282D01*
X167261973Y-79244291D01*
X167089261Y-79570061D01*
X167089255Y-79570073D01*
X166952770Y-79912628D01*
X166952768Y-79912634D01*
X166854128Y-80267905D01*
X166854122Y-80267931D01*
X166794470Y-80631786D01*
X166794469Y-80631803D01*
X166774506Y-80999997D01*
X152750000Y-80999997D01*
X152750000Y-79200000D01*
X156194353Y-79200000D01*
X156214834Y-79342456D01*
X156258915Y-79438978D01*
X156274623Y-79473373D01*
X156368872Y-79582143D01*
X156489947Y-79659953D01*
X156489950Y-79659954D01*
X156489949Y-79659954D01*
X156628036Y-79700499D01*
X156628038Y-79700500D01*
X156628039Y-79700500D01*
X156771962Y-79700500D01*
X156771962Y-79700499D01*
X156910053Y-79659953D01*
X157031128Y-79582143D01*
X157125377Y-79473373D01*
X157185165Y-79342457D01*
X157205647Y-79200000D01*
X164994353Y-79200000D01*
X165014834Y-79342456D01*
X165058915Y-79438978D01*
X165074623Y-79473373D01*
X165168872Y-79582143D01*
X165289947Y-79659953D01*
X165289950Y-79659954D01*
X165289949Y-79659954D01*
X165428036Y-79700499D01*
X165428038Y-79700500D01*
X165428039Y-79700500D01*
X165571962Y-79700500D01*
X165571962Y-79700499D01*
X165710053Y-79659953D01*
X165831128Y-79582143D01*
X165925377Y-79473373D01*
X165985165Y-79342457D01*
X166005647Y-79200000D01*
X165985165Y-79057543D01*
X165925377Y-78926627D01*
X165831128Y-78817857D01*
X165710053Y-78740047D01*
X165710051Y-78740046D01*
X165710049Y-78740045D01*
X165710050Y-78740045D01*
X165571963Y-78699500D01*
X165571961Y-78699500D01*
X165428039Y-78699500D01*
X165428036Y-78699500D01*
X165289949Y-78740045D01*
X165168873Y-78817856D01*
X165074623Y-78926626D01*
X165074622Y-78926628D01*
X165014834Y-79057543D01*
X164994353Y-79200000D01*
X157205647Y-79200000D01*
X157185165Y-79057543D01*
X157125377Y-78926627D01*
X157031128Y-78817857D01*
X156910053Y-78740047D01*
X156910051Y-78740046D01*
X156910049Y-78740045D01*
X156910050Y-78740045D01*
X156771963Y-78699500D01*
X156771961Y-78699500D01*
X156628039Y-78699500D01*
X156628036Y-78699500D01*
X156489949Y-78740045D01*
X156368873Y-78817856D01*
X156274623Y-78926626D01*
X156274622Y-78926628D01*
X156214834Y-79057543D01*
X156194353Y-79200000D01*
X152750000Y-79200000D01*
X152750000Y-76548534D01*
X152769685Y-76481495D01*
X152822489Y-76435740D01*
X152874184Y-76424534D01*
X170121935Y-76450397D01*
G37*
%TD.AperFunction*%
%TD*%
%TA.AperFunction,Conductor*%
%TO.N,Net-(U8-SW)*%
G36*
X155143039Y-129819685D02*
G01*
X155188794Y-129872489D01*
X155200000Y-129924000D01*
X155200000Y-132600000D01*
X157876000Y-132600000D01*
X157943039Y-132619685D01*
X157988794Y-132672489D01*
X158000000Y-132724000D01*
X158000000Y-134676000D01*
X157980315Y-134743039D01*
X157927511Y-134788794D01*
X157876000Y-134800000D01*
X155183039Y-134800000D01*
X155116000Y-134780315D01*
X155105724Y-134772945D01*
X155102263Y-134770185D01*
X155102262Y-134770184D01*
X155034348Y-134727511D01*
X154949523Y-134674211D01*
X154779254Y-134614631D01*
X154779249Y-134614630D01*
X154600004Y-134594435D01*
X154599996Y-134594435D01*
X154420750Y-134614630D01*
X154420745Y-134614631D01*
X154250476Y-134674211D01*
X154097736Y-134770185D01*
X154094276Y-134772945D01*
X154029590Y-134799355D01*
X154016961Y-134800000D01*
X153724000Y-134800000D01*
X153656961Y-134780315D01*
X153611206Y-134727511D01*
X153600000Y-134676000D01*
X153600000Y-131200000D01*
X148324000Y-131200000D01*
X148256961Y-131180315D01*
X148211206Y-131127511D01*
X148200000Y-131076000D01*
X148200000Y-129924000D01*
X148219685Y-129856961D01*
X148272489Y-129811206D01*
X148324000Y-129800000D01*
X155076000Y-129800000D01*
X155143039Y-129819685D01*
G37*
%TD.AperFunction*%
%TD*%
M02*
