%TF.GenerationSoftware,KiCad,Pcbnew,7.0.2*%
%TF.CreationDate,2024-04-23T17:59:15-04:00*%
%TF.ProjectId,processor,70726f63-6573-4736-9f72-2e6b69636164,rev?*%
%TF.SameCoordinates,Original*%
%TF.FileFunction,Copper,L4,Bot*%
%TF.FilePolarity,Positive*%
%FSLAX46Y46*%
G04 Gerber Fmt 4.6, Leading zero omitted, Abs format (unit mm)*
G04 Created by KiCad (PCBNEW 7.0.2) date 2024-04-23 17:59:15*
%MOMM*%
%LPD*%
G01*
G04 APERTURE LIST*
G04 Aperture macros list*
%AMRoundRect*
0 Rectangle with rounded corners*
0 $1 Rounding radius*
0 $2 $3 $4 $5 $6 $7 $8 $9 X,Y pos of 4 corners*
0 Add a 4 corners polygon primitive as box body*
4,1,4,$2,$3,$4,$5,$6,$7,$8,$9,$2,$3,0*
0 Add four circle primitives for the rounded corners*
1,1,$1+$1,$2,$3*
1,1,$1+$1,$4,$5*
1,1,$1+$1,$6,$7*
1,1,$1+$1,$8,$9*
0 Add four rect primitives between the rounded corners*
20,1,$1+$1,$2,$3,$4,$5,0*
20,1,$1+$1,$4,$5,$6,$7,0*
20,1,$1+$1,$6,$7,$8,$9,0*
20,1,$1+$1,$8,$9,$2,$3,0*%
G04 Aperture macros list end*
%TA.AperFunction,ComponentPad*%
%ADD10C,3.800000*%
%TD*%
%TA.AperFunction,ComponentPad*%
%ADD11R,1.150000X1.150000*%
%TD*%
%TA.AperFunction,ComponentPad*%
%ADD12C,1.150000*%
%TD*%
%TA.AperFunction,ComponentPad*%
%ADD13C,5.600000*%
%TD*%
%TA.AperFunction,ComponentPad*%
%ADD14C,2.000000*%
%TD*%
%TA.AperFunction,ComponentPad*%
%ADD15C,1.000000*%
%TD*%
%TA.AperFunction,ComponentPad*%
%ADD16R,1.700000X1.700000*%
%TD*%
%TA.AperFunction,ComponentPad*%
%ADD17O,1.700000X1.700000*%
%TD*%
%TA.AperFunction,ComponentPad*%
%ADD18R,0.850000X0.850000*%
%TD*%
%TA.AperFunction,ComponentPad*%
%ADD19O,0.850000X0.850000*%
%TD*%
%TA.AperFunction,SMDPad,CuDef*%
%ADD20RoundRect,0.250000X0.350000X0.450000X-0.350000X0.450000X-0.350000X-0.450000X0.350000X-0.450000X0*%
%TD*%
%TA.AperFunction,SMDPad,CuDef*%
%ADD21RoundRect,0.250000X-0.450000X0.350000X-0.450000X-0.350000X0.450000X-0.350000X0.450000X0.350000X0*%
%TD*%
%TA.AperFunction,SMDPad,CuDef*%
%ADD22R,0.750000X2.100000*%
%TD*%
%TA.AperFunction,SMDPad,CuDef*%
%ADD23RoundRect,0.250001X0.624999X-0.462499X0.624999X0.462499X-0.624999X0.462499X-0.624999X-0.462499X0*%
%TD*%
%TA.AperFunction,SMDPad,CuDef*%
%ADD24RoundRect,0.250000X-0.350000X-0.450000X0.350000X-0.450000X0.350000X0.450000X-0.350000X0.450000X0*%
%TD*%
%TA.AperFunction,SMDPad,CuDef*%
%ADD25RoundRect,0.250000X0.250000X0.250000X-0.250000X0.250000X-0.250000X-0.250000X0.250000X-0.250000X0*%
%TD*%
%TA.AperFunction,SMDPad,CuDef*%
%ADD26R,1.500000X1.000000*%
%TD*%
%TA.AperFunction,SMDPad,CuDef*%
%ADD27R,1.100000X1.300000*%
%TD*%
%TA.AperFunction,SMDPad,CuDef*%
%ADD28RoundRect,0.237500X0.287500X0.237500X-0.287500X0.237500X-0.287500X-0.237500X0.287500X-0.237500X0*%
%TD*%
%TA.AperFunction,SMDPad,CuDef*%
%ADD29RoundRect,0.250000X0.450000X-0.350000X0.450000X0.350000X-0.450000X0.350000X-0.450000X-0.350000X0*%
%TD*%
%TA.AperFunction,SMDPad,CuDef*%
%ADD30RoundRect,0.250000X-0.337500X-0.475000X0.337500X-0.475000X0.337500X0.475000X-0.337500X0.475000X0*%
%TD*%
%TA.AperFunction,SMDPad,CuDef*%
%ADD31RoundRect,0.150000X-0.150000X0.587500X-0.150000X-0.587500X0.150000X-0.587500X0.150000X0.587500X0*%
%TD*%
%TA.AperFunction,SMDPad,CuDef*%
%ADD32RoundRect,0.150000X0.150000X-0.587500X0.150000X0.587500X-0.150000X0.587500X-0.150000X-0.587500X0*%
%TD*%
%TA.AperFunction,SMDPad,CuDef*%
%ADD33R,1.500000X0.800000*%
%TD*%
%TA.AperFunction,SMDPad,CuDef*%
%ADD34R,2.000000X1.450000*%
%TD*%
%TA.AperFunction,SMDPad,CuDef*%
%ADD35RoundRect,0.150000X0.150000X-0.825000X0.150000X0.825000X-0.150000X0.825000X-0.150000X-0.825000X0*%
%TD*%
%TA.AperFunction,SMDPad,CuDef*%
%ADD36RoundRect,0.075000X0.725000X0.075000X-0.725000X0.075000X-0.725000X-0.075000X0.725000X-0.075000X0*%
%TD*%
%TA.AperFunction,SMDPad,CuDef*%
%ADD37RoundRect,0.075000X0.075000X0.725000X-0.075000X0.725000X-0.075000X-0.725000X0.075000X-0.725000X0*%
%TD*%
%TA.AperFunction,SMDPad,CuDef*%
%ADD38RoundRect,0.250000X-0.475000X0.337500X-0.475000X-0.337500X0.475000X-0.337500X0.475000X0.337500X0*%
%TD*%
%TA.AperFunction,ViaPad*%
%ADD39C,0.800000*%
%TD*%
%TA.AperFunction,Conductor*%
%ADD40C,0.400000*%
%TD*%
%TA.AperFunction,Conductor*%
%ADD41C,0.250000*%
%TD*%
%TA.AperFunction,Conductor*%
%ADD42C,0.500000*%
%TD*%
G04 APERTURE END LIST*
D10*
%TO.P,J3,*%
%TO.N,*%
X156478000Y-72898000D03*
X141478000Y-72898000D03*
D11*
%TO.P,J3,1,Pin_1*%
%TO.N,Net-(D5-A2)*%
X144978000Y-73898000D03*
D12*
%TO.P,J3,2,Pin_2*%
%TO.N,/mcu/TX_RS232*%
X144978000Y-71898000D03*
%TO.P,J3,3,Pin_3*%
%TO.N,/mcu/RX_RS232*%
X146978000Y-73898000D03*
%TO.P,J3,4,Pin_4*%
%TO.N,/mcu/SYNC_OUT*%
X146978000Y-71898000D03*
%TO.P,J3,5,Pin_5*%
%TO.N,GND*%
X148978000Y-73898000D03*
%TO.P,J3,6,Pin_6*%
%TO.N,Net-(J3-Pin_6)*%
X148978000Y-71898000D03*
%TO.P,J3,7,Pin_7*%
%TO.N,/mcu/SYNC_IN*%
X150978000Y-73898000D03*
%TO.P,J3,8,Pin_8*%
%TO.N,/mcu/TX_TTL*%
X150978000Y-71898000D03*
%TO.P,J3,9,Pin_9*%
%TO.N,/mcu/RX_TTL*%
X152978000Y-73898000D03*
%TO.P,J3,10,Pin_10*%
%TO.N,/mcu/GPS_PPS*%
X152978000Y-71898000D03*
%TD*%
D13*
%TO.P,H3,1,1*%
%TO.N,GND*%
X135000000Y-107300000D03*
%TD*%
D14*
%TO.P,TP3,1,1*%
%TO.N,Net-(U3-IN+)*%
X140462000Y-85090000D03*
%TD*%
%TO.P,TP4,1,1*%
%TO.N,GND*%
X136906000Y-85090000D03*
%TD*%
D13*
%TO.P,H1,1,1*%
%TO.N,GND*%
X135000000Y-69200000D03*
%TD*%
D10*
%TO.P,J1,*%
%TO.N,*%
X170180000Y-85738000D03*
X170180000Y-75438000D03*
D15*
%TO.P,J1,1,Pin_1*%
%TO.N,unconnected-(J1-Pin_1-Pad1)*%
X170180000Y-79338000D03*
%TO.P,J1,2,Pin_2*%
%TO.N,Net-(J1-Pin_2)*%
X170180000Y-80588000D03*
%TO.P,J1,3,Pin_3*%
%TO.N,Net-(J1-Pin_3)*%
X170180000Y-81838000D03*
%TO.P,J1,4,Pin_4*%
%TO.N,GND*%
X171430000Y-79338000D03*
%TO.P,J1,5,Pin_5*%
%TO.N,Net-(J1-Pin_5)*%
X171430000Y-80588000D03*
%TO.P,J1,6,Pin_6*%
%TO.N,unconnected-(J1-Pin_6-Pad6)*%
X171430000Y-81838000D03*
%TD*%
D16*
%TO.P,J8,1,Pin_1*%
%TO.N,/mcu/TX_RS232*%
X142240000Y-76454000D03*
D17*
%TO.P,J8,2,Pin_2*%
%TO.N,/mcu/RX_RS232*%
X142240000Y-78994000D03*
%TO.P,J8,3,Pin_3*%
%TO.N,GND*%
X142240000Y-81534000D03*
%TD*%
D18*
%TO.P,J2,1,Pin_1*%
%TO.N,Net-(J2-Pin_1)*%
X173228000Y-99060000D03*
D19*
%TO.P,J2,2,Pin_2*%
%TO.N,GND*%
X174228000Y-99060000D03*
%TD*%
D13*
%TO.P,H4,1,1*%
%TO.N,GND*%
X173100000Y-107300000D03*
%TD*%
D14*
%TO.P,TP7,1,1*%
%TO.N,GND*%
X133350000Y-85090000D03*
%TD*%
%TO.P,TP5,1,1*%
%TO.N,+3V3*%
X139954000Y-107696000D03*
%TD*%
D20*
%TO.P,R7,1*%
%TO.N,+3V3*%
X166354000Y-73660000D03*
%TO.P,R7,2*%
%TO.N,/imu/SCL*%
X164354000Y-73660000D03*
%TD*%
D21*
%TO.P,R5,1*%
%TO.N,+3V3*%
X134112000Y-73946000D03*
%TO.P,R5,2*%
%TO.N,Net-(D3-A)*%
X134112000Y-75946000D03*
%TD*%
D22*
%TO.P,J4,1,Pin_1*%
%TO.N,unconnected-(J4-Pin_1-Pad1)*%
X162814000Y-82528000D03*
%TO.P,J4,2,Pin_2*%
%TO.N,unconnected-(J4-Pin_2-Pad2)*%
X162814000Y-86128000D03*
%TO.P,J4,3,Pin_3*%
%TO.N,+3V3*%
X161544000Y-82528000D03*
%TO.P,J4,4,Pin_4*%
%TO.N,/mcu/TMS*%
X161544000Y-86128000D03*
%TO.P,J4,5,Pin_5*%
%TO.N,GND*%
X160274000Y-82528000D03*
%TO.P,J4,6,Pin_6*%
%TO.N,/mcu/TCK*%
X160274000Y-86128000D03*
%TO.P,J4,7,Pin_7*%
%TO.N,GND*%
X159004000Y-82528000D03*
%TO.P,J4,8,Pin_8*%
%TO.N,/mcu/TDO*%
X159004000Y-86128000D03*
%TO.P,J4,9,Pin_9*%
%TO.N,GND*%
X157734000Y-82528000D03*
%TO.P,J4,10,Pin_10*%
%TO.N,/mcu/TDI*%
X157734000Y-86128000D03*
%TO.P,J4,11,Pin_11*%
%TO.N,GND*%
X156464000Y-82528000D03*
%TO.P,J4,12,Pin_12*%
%TO.N,/mcu/TRST*%
X156464000Y-86128000D03*
%TO.P,J4,13,Pin_13*%
%TO.N,/mcu/VCP_RX*%
X155194000Y-82528000D03*
%TO.P,J4,14,Pin_14*%
%TO.N,/mcu/VCP_TX*%
X155194000Y-86128000D03*
%TD*%
D23*
%TO.P,D4,1,K*%
%TO.N,/mcu/D3-*%
X138938000Y-78994000D03*
%TO.P,D4,2,A*%
%TO.N,Net-(D4-A)*%
X138938000Y-76019000D03*
%TD*%
D24*
%TO.P,R15,1*%
%TO.N,GND*%
X143780000Y-85344000D03*
%TO.P,R15,2*%
%TO.N,/mcu/IMU_EN*%
X145780000Y-85344000D03*
%TD*%
D25*
%TO.P,D6,1,K*%
%TO.N,Net-(D5-A2)*%
X143871000Y-69596000D03*
%TO.P,D6,2,A*%
%TO.N,Net-(D6-A)*%
X141371000Y-69596000D03*
%TD*%
D26*
%TO.P,JP3,1,A*%
%TO.N,+5V*%
X139954000Y-82438000D03*
%TO.P,JP3,2,B*%
%TO.N,Net-(D6-A)*%
X139954000Y-81138000D03*
%TD*%
D27*
%TO.P,X1,1,EN*%
%TO.N,+3V3*%
X173037000Y-100804000D03*
%TO.P,X1,2,GND*%
%TO.N,GND*%
X173037000Y-102904000D03*
%TO.P,X1,3,OUT*%
%TO.N,Net-(U4-PH0)*%
X171387000Y-102904000D03*
%TO.P,X1,4,Vdd*%
%TO.N,+3V3*%
X171387000Y-100804000D03*
%TD*%
D21*
%TO.P,R6,1*%
%TO.N,+3V3*%
X138430000Y-72152000D03*
%TO.P,R6,2*%
%TO.N,Net-(D4-A)*%
X138430000Y-74152000D03*
%TD*%
D28*
%TO.P,D5,1,A1*%
%TO.N,GND*%
X147941000Y-75565000D03*
%TO.P,D5,2,A2*%
%TO.N,Net-(D5-A2)*%
X146191000Y-75565000D03*
%TD*%
D29*
%TO.P,R10,1*%
%TO.N,+3V3*%
X148316000Y-95734000D03*
%TO.P,R10,2*%
%TO.N,/SD Card/SDMMC_D3*%
X148316000Y-93734000D03*
%TD*%
D21*
%TO.P,R11,1*%
%TO.N,+3V3*%
X153035000Y-86249000D03*
%TO.P,R11,2*%
%TO.N,/SD Card/SDMMC_CMD*%
X153035000Y-88249000D03*
%TD*%
D24*
%TO.P,R8,1*%
%TO.N,+3V3*%
X160290000Y-72136000D03*
%TO.P,R8,2*%
%TO.N,/imu/SDA*%
X162290000Y-72136000D03*
%TD*%
D30*
%TO.P,C3,1*%
%TO.N,+3V3*%
X154897000Y-79502000D03*
%TO.P,C3,2*%
%TO.N,GND*%
X156972000Y-79502000D03*
%TD*%
D31*
%TO.P,Q1,1,G*%
%TO.N,Net-(Q1-G)*%
X148402000Y-81866500D03*
%TO.P,Q1,2,S*%
%TO.N,+5V*%
X150302000Y-81866500D03*
%TO.P,Q1,3,D*%
%TO.N,Net-(D6-A)*%
X149352000Y-83741500D03*
%TD*%
D21*
%TO.P,R13,1*%
%TO.N,+3V3*%
X150348000Y-97258000D03*
%TO.P,R13,2*%
%TO.N,/SD Card/SDMMC_D1*%
X150348000Y-99258000D03*
%TD*%
D23*
%TO.P,D2,1,K*%
%TO.N,/mcu/D1-*%
X136487488Y-80961288D03*
%TO.P,D2,2,A*%
%TO.N,Net-(D2-A)*%
X136487488Y-77986288D03*
%TD*%
%TO.P,D3,1,K*%
%TO.N,/mcu/D2-*%
X134034000Y-80989500D03*
%TO.P,D3,2,A*%
%TO.N,Net-(D3-A)*%
X134034000Y-78014500D03*
%TD*%
D32*
%TO.P,Q3,1,G*%
%TO.N,/mcu/IMU_EN*%
X146746000Y-82725500D03*
%TO.P,Q3,2,S*%
%TO.N,GND*%
X144846000Y-82725500D03*
%TO.P,Q3,3,D*%
%TO.N,Net-(Q1-G)*%
X145796000Y-80850500D03*
%TD*%
D33*
%TO.P,J6,1,DAT2*%
%TO.N,/SD Card/SDMMC_D2*%
X137200000Y-91496000D03*
%TO.P,J6,2,DAT3/CD*%
%TO.N,/SD Card/SDMMC_D3*%
X137200000Y-92596000D03*
%TO.P,J6,3,CMD*%
%TO.N,/SD Card/SDMMC_CMD*%
X137200000Y-93706000D03*
%TO.P,J6,4,VDD*%
%TO.N,+3V3*%
X137200000Y-94796000D03*
%TO.P,J6,5,CLK*%
%TO.N,/SD Card/SDMMC_CK*%
X137210000Y-95896000D03*
%TO.P,J6,6,VSS*%
%TO.N,GND*%
X137200000Y-96996000D03*
%TO.P,J6,7,DAT0*%
%TO.N,/SD Card/SDMMC_D0*%
X137200000Y-98096000D03*
%TO.P,J6,8,DAT1*%
%TO.N,/SD Card/SDMMC_D1*%
X137200000Y-99196000D03*
D34*
%TO.P,J6,9,SHIELD*%
%TO.N,unconnected-(J6-SHIELD-Pad9)*%
X134600000Y-101576000D03*
X142900000Y-101576000D03*
X134600000Y-87826000D03*
X142900000Y-87826000D03*
%TD*%
D21*
%TO.P,R4,1*%
%TO.N,+3V3*%
X136398000Y-73914000D03*
%TO.P,R4,2*%
%TO.N,Net-(D2-A)*%
X136398000Y-75914000D03*
%TD*%
D18*
%TO.P,J5,1,Pin_1*%
%TO.N,Net-(J3-Pin_6)*%
X146304000Y-77597000D03*
D19*
%TO.P,J5,2,Pin_2*%
%TO.N,Net-(D5-A2)*%
X145304000Y-77597000D03*
%TD*%
D21*
%TO.P,R12,1*%
%TO.N,+3V3*%
X148590000Y-101124000D03*
%TO.P,R12,2*%
%TO.N,/SD Card/SDMMC_D0*%
X148590000Y-103124000D03*
%TD*%
D35*
%TO.P,U2,1,TXD*%
%TO.N,/mcu/FDCAN1_TX*%
X174879000Y-96963000D03*
%TO.P,U2,2,VSS*%
%TO.N,GND*%
X173609000Y-96963000D03*
%TO.P,U2,3,VDD*%
%TO.N,+5V*%
X172339000Y-96963000D03*
%TO.P,U2,4,RXD*%
%TO.N,/mcu/FDCAN1_RX*%
X171069000Y-96963000D03*
%TO.P,U2,5,VIO*%
%TO.N,+3V3*%
X171069000Y-92013000D03*
%TO.P,U2,6,CANL*%
%TO.N,Net-(J1-Pin_2)*%
X172339000Y-92013000D03*
%TO.P,U2,7,CANH*%
%TO.N,Net-(J1-Pin_3)*%
X173609000Y-92013000D03*
%TO.P,U2,8,STBY*%
%TO.N,GND*%
X174879000Y-92013000D03*
%TD*%
D13*
%TO.P,H2,1,1*%
%TO.N,GND*%
X173100000Y-69200000D03*
%TD*%
D36*
%TO.P,U4,1,PE2*%
%TO.N,unconnected-(U4-PE2-Pad1)*%
X167929000Y-94814000D03*
%TO.P,U4,2,PE3*%
%TO.N,unconnected-(U4-PE3-Pad2)*%
X167929000Y-95314000D03*
%TO.P,U4,3,PE4*%
%TO.N,unconnected-(U4-PE4-Pad3)*%
X167929000Y-95814000D03*
%TO.P,U4,4,PE5*%
%TO.N,unconnected-(U4-PE5-Pad4)*%
X167929000Y-96314000D03*
%TO.P,U4,5,PE6*%
%TO.N,unconnected-(U4-PE6-Pad5)*%
X167929000Y-96814000D03*
%TO.P,U4,6,VBAT*%
%TO.N,+3V3*%
X167929000Y-97314000D03*
%TO.P,U4,7,PC13*%
%TO.N,unconnected-(U4-PC13-Pad7)*%
X167929000Y-97814000D03*
%TO.P,U4,8,PC14*%
%TO.N,unconnected-(U4-PC14-Pad8)*%
X167929000Y-98314000D03*
%TO.P,U4,9,PC15*%
%TO.N,unconnected-(U4-PC15-Pad9)*%
X167929000Y-98814000D03*
%TO.P,U4,10,VSS*%
%TO.N,GND*%
X167929000Y-99314000D03*
%TO.P,U4,11,VDD*%
%TO.N,+3V3*%
X167929000Y-99814000D03*
%TO.P,U4,12,PH0*%
%TO.N,Net-(U4-PH0)*%
X167929000Y-100314000D03*
%TO.P,U4,13,PH1*%
%TO.N,unconnected-(U4-PH1-Pad13)*%
X167929000Y-100814000D03*
%TO.P,U4,14,NRST*%
%TO.N,Net-(J2-Pin_1)*%
X167929000Y-101314000D03*
%TO.P,U4,15,PC0*%
%TO.N,/mcu/5V_SENSE*%
X167929000Y-101814000D03*
%TO.P,U4,16,PC1*%
%TO.N,unconnected-(U4-PC1-Pad16)*%
X167929000Y-102314000D03*
%TO.P,U4,17,PC2_C*%
%TO.N,unconnected-(U4-PC2_C-Pad17)*%
X167929000Y-102814000D03*
%TO.P,U4,18,PC3_C*%
%TO.N,unconnected-(U4-PC3_C-Pad18)*%
X167929000Y-103314000D03*
%TO.P,U4,19,VSSA*%
%TO.N,GND*%
X167929000Y-103814000D03*
%TO.P,U4,20,VREF+*%
%TO.N,Net-(U4-VREF+)*%
X167929000Y-104314000D03*
%TO.P,U4,21,VDDA*%
%TO.N,/mcu/VDDA*%
X167929000Y-104814000D03*
%TO.P,U4,22,PA0*%
%TO.N,unconnected-(U4-PA0-Pad22)*%
X167929000Y-105314000D03*
%TO.P,U4,23,PA1*%
%TO.N,unconnected-(U4-PA1-Pad23)*%
X167929000Y-105814000D03*
%TO.P,U4,24,PA2*%
%TO.N,unconnected-(U4-PA2-Pad24)*%
X167929000Y-106314000D03*
%TO.P,U4,25,PA3*%
%TO.N,unconnected-(U4-PA3-Pad25)*%
X167929000Y-106814000D03*
D37*
%TO.P,U4,26,VSS*%
%TO.N,GND*%
X166254000Y-108489000D03*
%TO.P,U4,27,VDD*%
%TO.N,+3V3*%
X165754000Y-108489000D03*
%TO.P,U4,28,PA4*%
%TO.N,unconnected-(U4-PA4-Pad28)*%
X165254000Y-108489000D03*
%TO.P,U4,29,PA5*%
%TO.N,unconnected-(U4-PA5-Pad29)*%
X164754000Y-108489000D03*
%TO.P,U4,30,PA6*%
%TO.N,unconnected-(U4-PA6-Pad30)*%
X164254000Y-108489000D03*
%TO.P,U4,31,PA7*%
%TO.N,unconnected-(U4-PA7-Pad31)*%
X163754000Y-108489000D03*
%TO.P,U4,32,PC4*%
%TO.N,unconnected-(U4-PC4-Pad32)*%
X163254000Y-108489000D03*
%TO.P,U4,33,PC5*%
%TO.N,unconnected-(U4-PC5-Pad33)*%
X162754000Y-108489000D03*
%TO.P,U4,34,PB0*%
%TO.N,unconnected-(U4-PB0-Pad34)*%
X162254000Y-108489000D03*
%TO.P,U4,35,PB1*%
%TO.N,unconnected-(U4-PB1-Pad35)*%
X161754000Y-108489000D03*
%TO.P,U4,36,PB2*%
%TO.N,unconnected-(U4-PB2-Pad36)*%
X161254000Y-108489000D03*
%TO.P,U4,37,PE7*%
%TO.N,unconnected-(U4-PE7-Pad37)*%
X160754000Y-108489000D03*
%TO.P,U4,38,PE8*%
%TO.N,unconnected-(U4-PE8-Pad38)*%
X160254000Y-108489000D03*
%TO.P,U4,39,PE9*%
%TO.N,/mcu/D1-*%
X159754000Y-108489000D03*
%TO.P,U4,40,PE10*%
%TO.N,/mcu/D2-*%
X159254000Y-108489000D03*
%TO.P,U4,41,PE11*%
%TO.N,unconnected-(U4-PE11-Pad41)*%
X158754000Y-108489000D03*
%TO.P,U4,42,PE12*%
%TO.N,unconnected-(U4-PE12-Pad42)*%
X158254000Y-108489000D03*
%TO.P,U4,43,PE13*%
%TO.N,unconnected-(U4-PE13-Pad43)*%
X157754000Y-108489000D03*
%TO.P,U4,44,PE14*%
%TO.N,unconnected-(U4-PE14-Pad44)*%
X157254000Y-108489000D03*
%TO.P,U4,45,PE15*%
%TO.N,unconnected-(U4-PE15-Pad45)*%
X156754000Y-108489000D03*
%TO.P,U4,46,PB10*%
%TO.N,unconnected-(U4-PB10-Pad46)*%
X156254000Y-108489000D03*
%TO.P,U4,47,PB11*%
%TO.N,unconnected-(U4-PB11-Pad47)*%
X155754000Y-108489000D03*
%TO.P,U4,48,VCAP*%
%TO.N,/mcu/VCAP1*%
X155254000Y-108489000D03*
%TO.P,U4,49,VSS*%
%TO.N,GND*%
X154754000Y-108489000D03*
%TO.P,U4,50,VDD*%
%TO.N,+3V3*%
X154254000Y-108489000D03*
D36*
%TO.P,U4,51,PB12*%
%TO.N,/mcu/D3-*%
X152579000Y-106814000D03*
%TO.P,U4,52,PB13*%
%TO.N,/mcu/IMU_EN*%
X152579000Y-106314000D03*
%TO.P,U4,53,PB14*%
%TO.N,/mcu/RX_TTL*%
X152579000Y-105814000D03*
%TO.P,U4,54,PB15*%
%TO.N,/mcu/TX_TTL*%
X152579000Y-105314000D03*
%TO.P,U4,55,PD8*%
%TO.N,unconnected-(U4-PD8-Pad55)*%
X152579000Y-104814000D03*
%TO.P,U4,56,PD9*%
%TO.N,unconnected-(U4-PD9-Pad56)*%
X152579000Y-104314000D03*
%TO.P,U4,57,PD10*%
%TO.N,unconnected-(U4-PD10-Pad57)*%
X152579000Y-103814000D03*
%TO.P,U4,58,PD11*%
%TO.N,unconnected-(U4-PD11-Pad58)*%
X152579000Y-103314000D03*
%TO.P,U4,59,PD12*%
%TO.N,unconnected-(U4-PD12-Pad59)*%
X152579000Y-102814000D03*
%TO.P,U4,60,PD13*%
%TO.N,unconnected-(U4-PD13-Pad60)*%
X152579000Y-102314000D03*
%TO.P,U4,61,PD14*%
%TO.N,unconnected-(U4-PD14-Pad61)*%
X152579000Y-101814000D03*
%TO.P,U4,62,PD15*%
%TO.N,unconnected-(U4-PD15-Pad62)*%
X152579000Y-101314000D03*
%TO.P,U4,63,PC6*%
%TO.N,unconnected-(U4-PC6-Pad63)*%
X152579000Y-100814000D03*
%TO.P,U4,64,PC7*%
%TO.N,unconnected-(U4-PC7-Pad64)*%
X152579000Y-100314000D03*
%TO.P,U4,65,PC8*%
%TO.N,/SD Card/SDMMC_D0*%
X152579000Y-99814000D03*
%TO.P,U4,66,PC9*%
%TO.N,/SD Card/SDMMC_D1*%
X152579000Y-99314000D03*
%TO.P,U4,67,PA8*%
%TO.N,/mcu/SYNC_OUT*%
X152579000Y-98814000D03*
%TO.P,U4,68,PA9*%
%TO.N,/mcu/GPS_PPS*%
X152579000Y-98314000D03*
%TO.P,U4,69,PA10*%
%TO.N,/mcu/SYNC_IN*%
X152579000Y-97814000D03*
%TO.P,U4,70,PA11*%
%TO.N,/mcu/FDCAN1_RX*%
X152579000Y-97314000D03*
%TO.P,U4,71,PA12*%
%TO.N,/mcu/FDCAN1_TX*%
X152579000Y-96814000D03*
%TO.P,U4,72,PA13(JTMS*%
%TO.N,/mcu/TMS*%
X152579000Y-96314000D03*
%TO.P,U4,73,VCAP*%
%TO.N,/mcu/VCAP2*%
X152579000Y-95814000D03*
%TO.P,U4,74,VSS*%
%TO.N,GND*%
X152579000Y-95314000D03*
%TO.P,U4,75,VDD*%
%TO.N,+3V3*%
X152579000Y-94814000D03*
D37*
%TO.P,U4,76,PA14(JTCK*%
%TO.N,/mcu/TCK*%
X154254000Y-93139000D03*
%TO.P,U4,77,PA15(JTDI)*%
%TO.N,/mcu/TDI*%
X154754000Y-93139000D03*
%TO.P,U4,78,PC10*%
%TO.N,/SD Card/SDMMC_D2*%
X155254000Y-93139000D03*
%TO.P,U4,79,PC11*%
%TO.N,/SD Card/SDMMC_D3*%
X155754000Y-93139000D03*
%TO.P,U4,80,PC12*%
%TO.N,/SD Card/SDMMC_CK*%
X156254000Y-93139000D03*
%TO.P,U4,81,PD0*%
%TO.N,unconnected-(U4-PD0-Pad81)*%
X156754000Y-93139000D03*
%TO.P,U4,82,PD1*%
%TO.N,unconnected-(U4-PD1-Pad82)*%
X157254000Y-93139000D03*
%TO.P,U4,83,PD2*%
%TO.N,/SD Card/SDMMC_CMD*%
X157754000Y-93139000D03*
%TO.P,U4,84,PD3*%
%TO.N,unconnected-(U4-PD3-Pad84)*%
X158254000Y-93139000D03*
%TO.P,U4,85,PD4*%
%TO.N,unconnected-(U4-PD4-Pad85)*%
X158754000Y-93139000D03*
%TO.P,U4,86,PD5*%
%TO.N,unconnected-(U4-PD5-Pad86)*%
X159254000Y-93139000D03*
%TO.P,U4,87,PD6*%
%TO.N,unconnected-(U4-PD6-Pad87)*%
X159754000Y-93139000D03*
%TO.P,U4,88,PD7*%
%TO.N,unconnected-(U4-PD7-Pad88)*%
X160254000Y-93139000D03*
%TO.P,U4,89,PB3(JTDO*%
%TO.N,/mcu/TDO*%
X160754000Y-93139000D03*
%TO.P,U4,90,PB4(NJTRST)*%
%TO.N,/mcu/TRST*%
X161254000Y-93139000D03*
%TO.P,U4,91,PB5*%
%TO.N,unconnected-(U4-PB5-Pad91)*%
X161754000Y-93139000D03*
%TO.P,U4,92,PB6*%
%TO.N,/imu/SCL*%
X162254000Y-93139000D03*
%TO.P,U4,93,PB7*%
%TO.N,/imu/SDA*%
X162754000Y-93139000D03*
%TO.P,U4,94,BOOT0*%
%TO.N,Net-(U4-BOOT0)*%
X163254000Y-93139000D03*
%TO.P,U4,95,PB8*%
%TO.N,/mcu/VCP_TX*%
X163754000Y-93139000D03*
%TO.P,U4,96,PB9*%
%TO.N,/mcu/VCP_RX*%
X164254000Y-93139000D03*
%TO.P,U4,97,PE0*%
%TO.N,unconnected-(U4-PE0-Pad97)*%
X164754000Y-93139000D03*
%TO.P,U4,98,PE1*%
%TO.N,unconnected-(U4-PE1-Pad98)*%
X165254000Y-93139000D03*
%TO.P,U4,99,VSS*%
%TO.N,GND*%
X165754000Y-93139000D03*
%TO.P,U4,100,VDD*%
%TO.N,+3V3*%
X166254000Y-93139000D03*
%TD*%
D38*
%TO.P,C21,1*%
%TO.N,+3V3*%
X175006000Y-100816500D03*
%TO.P,C21,2*%
%TO.N,GND*%
X175006000Y-102891500D03*
%TD*%
D29*
%TO.P,R9,1*%
%TO.N,+3V3*%
X150348000Y-92400000D03*
%TO.P,R9,2*%
%TO.N,/SD Card/SDMMC_D2*%
X150348000Y-90400000D03*
%TD*%
D30*
%TO.P,C5,1*%
%TO.N,+3V3*%
X154875500Y-77470000D03*
%TO.P,C5,2*%
%TO.N,GND*%
X156950500Y-77470000D03*
%TD*%
D24*
%TO.P,R14,1*%
%TO.N,Net-(Q1-G)*%
X148368000Y-85852000D03*
%TO.P,R14,2*%
%TO.N,+5V*%
X150368000Y-85852000D03*
%TD*%
D39*
%TO.N,GND*%
X141224000Y-109982000D03*
X132334000Y-98552000D03*
X146050000Y-66548000D03*
X160274000Y-109982000D03*
X175768000Y-72136000D03*
X156210000Y-66548000D03*
X175793400Y-97536000D03*
X165354000Y-66548000D03*
X175793400Y-91186000D03*
X132334000Y-97282000D03*
X143510000Y-66548000D03*
X175768000Y-94996000D03*
X164338000Y-99187000D03*
X148590000Y-66548000D03*
X164084000Y-66548000D03*
X145034000Y-109982000D03*
X139954000Y-109982000D03*
X175768000Y-81026000D03*
X159004000Y-109982000D03*
X166624000Y-109982000D03*
X132334000Y-99822000D03*
X147574000Y-109982000D03*
X164179500Y-83058000D03*
X175768000Y-104648000D03*
X152400000Y-66548000D03*
X142240000Y-66548000D03*
X142494000Y-109982000D03*
X154940000Y-66548000D03*
X164338000Y-105410000D03*
X164338000Y-97282000D03*
X150114000Y-109982000D03*
X175768000Y-84836000D03*
X152654000Y-83439000D03*
X144780000Y-66548000D03*
X175768000Y-74676000D03*
X152654000Y-84328000D03*
X132334000Y-90932000D03*
X132334000Y-76962000D03*
X139700000Y-66548000D03*
X132334000Y-101092000D03*
X132334000Y-78232000D03*
X175768000Y-79756000D03*
X164338000Y-95250000D03*
X154620651Y-107155814D03*
X151130000Y-66548000D03*
X132334000Y-75692000D03*
X175768000Y-82296000D03*
X132334000Y-94742000D03*
X169164000Y-109982000D03*
X148844000Y-109982000D03*
X165354000Y-109982000D03*
X154686000Y-104902000D03*
X157480000Y-66548000D03*
X132334000Y-82042000D03*
X137414000Y-109982000D03*
X167131037Y-91891799D03*
X132334000Y-74422000D03*
X132334000Y-73152000D03*
X140970000Y-66548000D03*
X170434000Y-109982000D03*
X132334000Y-89662000D03*
X175768000Y-98552000D03*
X132334000Y-71882000D03*
X132334000Y-92202000D03*
X151638000Y-84328000D03*
X160020000Y-66548000D03*
X153924000Y-109982000D03*
X167894000Y-109982000D03*
X156464000Y-109982000D03*
X169354500Y-103695500D03*
X138684000Y-109982000D03*
X152654000Y-109982000D03*
X155194000Y-109982000D03*
X164084000Y-109982000D03*
X175768000Y-78486000D03*
X167065155Y-108384698D03*
X146304000Y-109982000D03*
X132334000Y-93472000D03*
X132334000Y-88392000D03*
X161036000Y-106680000D03*
X132334000Y-79502000D03*
X151638000Y-85217000D03*
X175768000Y-83566000D03*
X142367000Y-85979000D03*
X175793400Y-96240600D03*
X149860000Y-66548000D03*
X175768000Y-93726000D03*
X161544000Y-109982000D03*
X175768000Y-73406000D03*
X161290000Y-66548000D03*
X169434155Y-99114155D03*
X157734000Y-109982000D03*
X175768000Y-87376000D03*
X132334000Y-96012000D03*
X132334000Y-103632000D03*
X132334000Y-87122000D03*
X175793400Y-92456000D03*
X164338000Y-103251000D03*
X147320000Y-66548000D03*
X151384000Y-109982000D03*
X137795000Y-66548000D03*
X132334000Y-83312000D03*
X161798000Y-76454000D03*
X158750000Y-66548000D03*
X132334000Y-102362000D03*
X132334000Y-104902000D03*
X175768000Y-88646000D03*
X153670000Y-66548000D03*
X143764000Y-109982000D03*
X166624000Y-66548000D03*
X151638000Y-83439000D03*
X162814000Y-109982000D03*
X175768000Y-89916000D03*
X175768000Y-86106000D03*
X154050000Y-95489000D03*
X164338000Y-101219000D03*
X132334000Y-80772000D03*
X169672000Y-66548000D03*
X175768000Y-75946000D03*
X175768000Y-77216000D03*
%TO.N,+3V3*%
X169967799Y-100203000D03*
X152273000Y-76327000D03*
X138918000Y-94718000D03*
X135128000Y-72898000D03*
X152400000Y-81788000D03*
X165100000Y-69596000D03*
X161506500Y-79248000D03*
X161267309Y-88503084D03*
X169180155Y-97314000D03*
X166370000Y-75438000D03*
X152400000Y-80772000D03*
X167894000Y-108966000D03*
X171741500Y-90170000D03*
X146812000Y-100838000D03*
X153416000Y-76327000D03*
X150949750Y-94831500D03*
X152400000Y-79756000D03*
X157835600Y-104394000D03*
X151618000Y-92400000D03*
X175768000Y-99568000D03*
X153416000Y-79756000D03*
X160146000Y-70216000D03*
X171450000Y-104153502D03*
X167148155Y-92891155D03*
X151638000Y-86868000D03*
X153416000Y-80772000D03*
X152146000Y-108458000D03*
X153416000Y-81788000D03*
%TO.N,/imu/SDA*%
X162814000Y-73660000D03*
X163925500Y-89147100D03*
%TO.N,/imu/SCL*%
X168402000Y-71628000D03*
X163830000Y-87884000D03*
X164338000Y-75184000D03*
%TO.N,+5V*%
X171704000Y-98552000D03*
X150368000Y-83820000D03*
X152908000Y-75184000D03*
X145796000Y-84044500D03*
%TO.N,Net-(U4-VREF+)*%
X162787155Y-105337155D03*
%TO.N,/mcu/VDDA*%
X169434155Y-105337155D03*
%TO.N,/mcu/D1-*%
X159763951Y-107108668D03*
X137256439Y-82404421D03*
%TO.N,/mcu/D2-*%
X158680253Y-107089500D03*
X133985000Y-83439000D03*
%TO.N,/mcu/D3-*%
X138184506Y-82033347D03*
X146812000Y-103886000D03*
%TO.N,Net-(J2-Pin_1)*%
X169676299Y-102112299D03*
%TO.N,Net-(U3-IN+)*%
X139573000Y-70866000D03*
%TO.N,/mcu/TMS*%
X162052000Y-87884000D03*
X157297933Y-95307932D03*
%TO.N,/mcu/TCK*%
X160274000Y-88392000D03*
X153588601Y-91977173D03*
%TO.N,/mcu/TDI*%
X157734000Y-88138000D03*
X153006282Y-91124500D03*
%TO.N,/mcu/TRST*%
X160020000Y-90678000D03*
X158491701Y-91444299D03*
%TO.N,Net-(J1-Pin_2)*%
X171958000Y-88862500D03*
%TO.N,Net-(J1-Pin_3)*%
X173482000Y-88646000D03*
%TO.N,/SD Card/SDMMC_CMD*%
X140966569Y-88316395D03*
X138684000Y-90678000D03*
%TO.N,/mcu/5V_SENSE*%
X168148000Y-92202000D03*
%TO.N,Net-(U4-BOOT0)*%
X160274000Y-98552000D03*
%TO.N,/mcu/FDCAN1_RX*%
X160210500Y-94538500D03*
X165932278Y-91230847D03*
%TO.N,/mcu/FDCAN1_TX*%
X164978500Y-90932000D03*
X159096969Y-94533494D03*
%TO.N,/mcu/SYNC_IN*%
X154812000Y-98283000D03*
X150368000Y-77343000D03*
%TO.N,/mcu/GPS_PPS*%
X153977002Y-98933932D03*
%TO.N,/mcu/VCAP1*%
X157086210Y-107095912D03*
%TO.N,/mcu/VCAP2*%
X151129000Y-95870000D03*
%TO.N,/mcu/TX_TTL*%
X150114000Y-104140000D03*
%TO.N,/mcu/RX_TTL*%
X149860000Y-105410000D03*
X147828000Y-78613000D03*
%TO.N,/mcu/SYNC_OUT*%
X146812000Y-97790000D03*
%TO.N,/mcu/IMU_EN*%
X147066000Y-86868000D03*
X148844000Y-105664000D03*
%TD*%
D40*
%TO.N,Net-(D6-A)*%
X141714346Y-69596000D02*
X141371000Y-69596000D01*
X143890000Y-71771654D02*
X141714346Y-69596000D01*
X143890000Y-78358000D02*
X143890000Y-71771654D01*
X144018000Y-78486000D02*
X143890000Y-78358000D01*
%TO.N,Net-(D5-A2)*%
X144540000Y-69596000D02*
X143871000Y-69596000D01*
X145953000Y-72923000D02*
X145953000Y-71009000D01*
X144978000Y-73898000D02*
X145953000Y-72923000D01*
X145953000Y-71009000D02*
X144540000Y-69596000D01*
D41*
%TO.N,+3V3*%
X160274000Y-72120000D02*
X160290000Y-72136000D01*
X160274000Y-70344000D02*
X160274000Y-72120000D01*
X160146000Y-70216000D02*
X160274000Y-70344000D01*
%TO.N,GND*%
X143002000Y-85344000D02*
X142367000Y-85979000D01*
X154050000Y-95489000D02*
X153875000Y-95314000D01*
X167065155Y-108384698D02*
X166960853Y-108489000D01*
X154754000Y-107289163D02*
X154754000Y-108489000D01*
D42*
X147941000Y-75565000D02*
X148717000Y-75565000D01*
D41*
X154620651Y-107155814D02*
X154754000Y-107289163D01*
X169236000Y-103814000D02*
X167929000Y-103814000D01*
X166960853Y-108489000D02*
X166254000Y-108489000D01*
X173609000Y-96963000D02*
X173609000Y-97675000D01*
X167084676Y-91938160D02*
X166089154Y-91938160D01*
D42*
X148717000Y-75565000D02*
X148978000Y-75304000D01*
D41*
X169434155Y-99114155D02*
X169170850Y-99114155D01*
X174993500Y-102904000D02*
X175006000Y-102891500D01*
X167131037Y-91891799D02*
X167084676Y-91938160D01*
X169170850Y-99114155D02*
X168971005Y-99314000D01*
X143780000Y-85344000D02*
X143002000Y-85344000D01*
X165754000Y-92273314D02*
X165754000Y-93139000D01*
X153875000Y-95314000D02*
X152579000Y-95314000D01*
X168971005Y-99314000D02*
X167929000Y-99314000D01*
X174232000Y-99056000D02*
X174228000Y-99060000D01*
X166089154Y-91938160D02*
X165754000Y-92273314D01*
X169354500Y-103695500D02*
X169236000Y-103814000D01*
X173609000Y-97675000D02*
X174232000Y-98298000D01*
D42*
X148978000Y-75304000D02*
X148978000Y-73898000D01*
D41*
X174232000Y-98298000D02*
X174232000Y-99056000D01*
%TO.N,+3V3*%
X135128000Y-72898000D02*
X136906000Y-72898000D01*
X150967250Y-94814000D02*
X152579000Y-94814000D01*
X165779000Y-107598315D02*
X165779000Y-108464000D01*
X152003000Y-86249000D02*
X153035000Y-86249000D01*
X137652000Y-72152000D02*
X138430000Y-72152000D01*
X150949750Y-94831500D02*
X151316403Y-94831500D01*
X171069000Y-90427000D02*
X171069000Y-92013000D01*
X161544000Y-82528000D02*
X161544000Y-79285500D01*
X150949750Y-94831500D02*
X150571488Y-94831500D01*
X136154000Y-72898000D02*
X136398000Y-73142000D01*
X150949750Y-94831500D02*
X150967250Y-94814000D01*
X174752000Y-99822000D02*
X173736000Y-99822000D01*
X138840000Y-94796000D02*
X137200000Y-94796000D01*
X135128000Y-72898000D02*
X134288000Y-72898000D01*
X175768000Y-99568000D02*
X175006000Y-99568000D01*
X174254750Y-99822000D02*
X173736000Y-99822000D01*
X166501845Y-92891155D02*
X166254000Y-93139000D01*
X150571488Y-94831500D02*
X150140494Y-95262494D01*
X169603954Y-99839155D02*
X167954155Y-99839155D01*
X173228000Y-99822000D02*
X173736000Y-99822000D01*
X166354000Y-75422000D02*
X166354000Y-73660000D01*
X147352000Y-101378000D02*
X146812000Y-100838000D01*
X150348000Y-97258000D02*
X150140494Y-97050494D01*
X166370000Y-75438000D02*
X166354000Y-75422000D01*
X135128000Y-72898000D02*
X136154000Y-72898000D01*
X173037000Y-100804000D02*
X173037000Y-100013000D01*
X173037000Y-100013000D02*
X173228000Y-99822000D01*
X169180155Y-97314000D02*
X167929000Y-97314000D01*
X175006000Y-100816500D02*
X175006000Y-100573250D01*
X134112000Y-73074000D02*
X134112000Y-73946000D01*
X175006000Y-100573250D02*
X174254750Y-99822000D01*
X152146000Y-108458000D02*
X152177000Y-108489000D01*
X169967799Y-100203000D02*
X169603954Y-99839155D01*
X175006000Y-99568000D02*
X174752000Y-99822000D01*
X150140494Y-95262494D02*
X149668989Y-95734000D01*
X148336000Y-101378000D02*
X147352000Y-101378000D01*
X173736000Y-99822000D02*
X171704000Y-99822000D01*
X167790155Y-108862155D02*
X167790155Y-108084393D01*
X151618000Y-92400000D02*
X150348000Y-92400000D01*
X151638000Y-86868000D02*
X151638000Y-86614000D01*
X151638000Y-86614000D02*
X152003000Y-86249000D01*
X166013315Y-107364000D02*
X165779000Y-107598315D01*
X171326000Y-90170000D02*
X171069000Y-90427000D01*
X149668989Y-95734000D02*
X148316000Y-95734000D01*
X136398000Y-73142000D02*
X136398000Y-73914000D01*
X167790155Y-108084393D02*
X167069762Y-107364000D01*
X171387000Y-100139000D02*
X171704000Y-99822000D01*
X167148155Y-92891155D02*
X166501845Y-92891155D01*
X167954155Y-99839155D02*
X167929000Y-99814000D01*
X136906000Y-72898000D02*
X137652000Y-72152000D01*
X167894000Y-108966000D02*
X167790155Y-108862155D01*
X165779000Y-108464000D02*
X165754000Y-108489000D01*
X150140494Y-97050494D02*
X150140494Y-95262494D01*
X134288000Y-72898000D02*
X134112000Y-73074000D01*
X161544000Y-79285500D02*
X161506500Y-79248000D01*
X167069762Y-107364000D02*
X166013315Y-107364000D01*
X152177000Y-108489000D02*
X154254000Y-108489000D01*
X138918000Y-94718000D02*
X138840000Y-94796000D01*
X171741500Y-90170000D02*
X171326000Y-90170000D01*
%TO.N,/imu/SDA*%
X163925500Y-89147100D02*
X162754000Y-90318600D01*
X162290000Y-73136000D02*
X162290000Y-72136000D01*
X162814000Y-73660000D02*
X162290000Y-73136000D01*
X162754000Y-90318600D02*
X162754000Y-93139000D01*
%TO.N,/imu/SCL*%
X165354000Y-74422000D02*
X165354000Y-72898000D01*
X164338000Y-75184000D02*
X164338000Y-73676000D01*
X163830000Y-87884000D02*
X162254000Y-89460000D01*
X165354000Y-72898000D02*
X165862000Y-72390000D01*
X168148000Y-72390000D02*
X168402000Y-72136000D01*
X162254000Y-89460000D02*
X162254000Y-93139000D01*
X164592000Y-75184000D02*
X165354000Y-74422000D01*
X165862000Y-72390000D02*
X168148000Y-72390000D01*
X164338000Y-75184000D02*
X164592000Y-75184000D01*
X168402000Y-72136000D02*
X168402000Y-71628000D01*
X164338000Y-73676000D02*
X164354000Y-73660000D01*
D42*
%TO.N,+5V*%
X141560500Y-84044500D02*
X139954000Y-82438000D01*
D41*
X172339000Y-97917000D02*
X171704000Y-98552000D01*
D42*
X145796000Y-84044500D02*
X141560500Y-84044500D01*
X150302000Y-83754000D02*
X150368000Y-83820000D01*
X150302000Y-81866500D02*
X150302000Y-83754000D01*
X150368000Y-85852000D02*
X150368000Y-83820000D01*
D41*
X172339000Y-96963000D02*
X172339000Y-97917000D01*
%TO.N,Net-(U4-VREF+)*%
X162787155Y-105337155D02*
X162787155Y-105309845D01*
X162787155Y-105309845D02*
X163783000Y-104314000D01*
X163783000Y-104314000D02*
X167929000Y-104314000D01*
%TO.N,/mcu/VDDA*%
X169434155Y-105337155D02*
X168911000Y-104814000D01*
X168911000Y-104814000D02*
X167929000Y-104814000D01*
%TO.N,/mcu/D1-*%
X136408000Y-82052000D02*
X136408000Y-80989500D01*
X159754000Y-107118619D02*
X159754000Y-108489000D01*
X136760421Y-82404421D02*
X136408000Y-82052000D01*
X159763951Y-107108668D02*
X159754000Y-107118619D01*
X137256439Y-82404421D02*
X136760421Y-82404421D01*
%TO.N,Net-(D2-A)*%
X136408000Y-78014500D02*
X136408000Y-75924000D01*
%TO.N,/mcu/D2-*%
X134034000Y-83390000D02*
X134034000Y-80989500D01*
X159254000Y-107623315D02*
X159254000Y-108489000D01*
X158680253Y-107089500D02*
X158720185Y-107089500D01*
X133985000Y-83439000D02*
X134034000Y-83390000D01*
X158720185Y-107089500D02*
X159254000Y-107623315D01*
%TO.N,Net-(D3-A)*%
X134034000Y-78014500D02*
X134034000Y-76024000D01*
%TO.N,Net-(D4-A)*%
X138684000Y-75765000D02*
X138938000Y-76019000D01*
X138430000Y-74152000D02*
X138684000Y-74406000D01*
X138684000Y-74406000D02*
X138684000Y-75765000D01*
%TO.N,/mcu/D3-*%
X138938000Y-80010000D02*
X138938000Y-78994000D01*
X152579000Y-106814000D02*
X148968695Y-106814000D01*
X138184506Y-80763494D02*
X138938000Y-80010000D01*
X148968695Y-106814000D02*
X146812000Y-104657305D01*
X146812000Y-104657305D02*
X146812000Y-103886000D01*
X138184506Y-82033347D02*
X138184506Y-80763494D01*
%TO.N,Net-(J2-Pin_1)*%
X169676299Y-102112299D02*
X168878000Y-101314000D01*
X168878000Y-101314000D02*
X167929000Y-101314000D01*
D42*
%TO.N,Net-(U3-IN+)*%
X139954000Y-84582000D02*
X140462000Y-85090000D01*
D41*
%TO.N,/mcu/TMS*%
X161458299Y-86213701D02*
X161544000Y-86128000D01*
X161458299Y-87290299D02*
X161458299Y-86213701D01*
X157297933Y-95307932D02*
X156291865Y-96314000D01*
X162052000Y-87884000D02*
X161458299Y-87290299D01*
X156291865Y-96314000D02*
X152579000Y-96314000D01*
%TO.N,/mcu/TCK*%
X153588601Y-91977173D02*
X154254000Y-92642572D01*
X160274000Y-88392000D02*
X160274000Y-86128000D01*
%TO.N,/mcu/TDO*%
X160086000Y-92014000D02*
X159004000Y-90932000D01*
X160754000Y-93139000D02*
X160754000Y-92273315D01*
X159004000Y-90932000D02*
X159004000Y-86128000D01*
X160754000Y-92273315D02*
X160494685Y-92014000D01*
X160494685Y-92014000D02*
X160086000Y-92014000D01*
%TO.N,/mcu/TDI*%
X154754000Y-92117267D02*
X154754000Y-93139000D01*
X157734000Y-88138000D02*
X157734000Y-86128000D01*
X153761233Y-91124500D02*
X154754000Y-92117267D01*
X153006282Y-91124500D02*
X153761233Y-91124500D01*
%TO.N,/mcu/TRST*%
X160862531Y-91520531D02*
X160020000Y-90678000D01*
X158491701Y-89921006D02*
X156464000Y-87893305D01*
X161254000Y-93139000D02*
X161254000Y-92136919D01*
X161254000Y-92136919D02*
X160862531Y-91745450D01*
X158491701Y-91444299D02*
X158491701Y-89921006D01*
X156464000Y-87893305D02*
X156464000Y-86128000D01*
X160862531Y-91745450D02*
X160862531Y-91520531D01*
%TO.N,/mcu/VCP_RX*%
X164254000Y-90631195D02*
X165100000Y-89785195D01*
X165100000Y-85598000D02*
X163576000Y-84074000D01*
X165100000Y-89785195D02*
X165100000Y-85598000D01*
X155194000Y-83828000D02*
X155194000Y-82528000D01*
X155440000Y-84074000D02*
X155194000Y-83828000D01*
X164254000Y-93139000D02*
X164254000Y-90631195D01*
X163576000Y-84074000D02*
X155440000Y-84074000D01*
%TO.N,/mcu/VCP_TX*%
X155194000Y-86128000D02*
X155194000Y-84836000D01*
X163754000Y-90494799D02*
X163754000Y-93139000D01*
X155448000Y-84582000D02*
X163343000Y-84582000D01*
X155194000Y-84836000D02*
X155448000Y-84582000D01*
X163343000Y-84582000D02*
X164650000Y-85889000D01*
X164650000Y-89598799D02*
X163754000Y-90494799D01*
X164650000Y-85889000D02*
X164650000Y-89598799D01*
%TO.N,Net-(J1-Pin_2)*%
X171958000Y-88862500D02*
X172466000Y-89370500D01*
X172466000Y-89370500D02*
X172466000Y-91886000D01*
%TO.N,Net-(J1-Pin_3)*%
X173736000Y-88900000D02*
X173736000Y-91886000D01*
X173482000Y-88646000D02*
X173736000Y-88900000D01*
%TO.N,/SD Card/SDMMC_D2*%
X155254000Y-90865000D02*
X155254000Y-93139000D01*
X147982000Y-91496000D02*
X149078000Y-90400000D01*
X141997000Y-90969747D02*
X141997000Y-91196000D01*
X149078000Y-90400000D02*
X154789000Y-90400000D01*
X137200000Y-91496000D02*
X141097000Y-91496000D01*
X141397000Y-91196000D02*
X141397000Y-90969747D01*
X142297000Y-91496000D02*
X147982000Y-91496000D01*
X154789000Y-90400000D02*
X155254000Y-90865000D01*
X141697000Y-90669700D02*
G75*
G03*
X141397000Y-90969747I0J-300000D01*
G01*
X141097000Y-91496000D02*
G75*
G03*
X141397000Y-91196000I0J300000D01*
G01*
X141997000Y-91196000D02*
G75*
G03*
X142297000Y-91496000I300000J0D01*
G01*
X141996953Y-90969747D02*
G75*
G03*
X141697000Y-90669747I-299953J47D01*
G01*
%TO.N,/SD Card/SDMMC_D3*%
X144260000Y-93952000D02*
X144260000Y-93085552D01*
X155494685Y-94264000D02*
X155754000Y-94004685D01*
X146171654Y-93702000D02*
X153451315Y-93702000D01*
X154013315Y-94264000D02*
X155494685Y-94264000D01*
X155754000Y-94004685D02*
X155754000Y-93139000D01*
X145010000Y-93702000D02*
X146171654Y-93702000D01*
X144760000Y-93085552D02*
X144760000Y-93452000D01*
X144260000Y-94318449D02*
X144260000Y-93952000D01*
X140475000Y-92596000D02*
X141581000Y-93702000D01*
X137200000Y-92596000D02*
X140475000Y-92596000D01*
X141581000Y-93702000D02*
X143510000Y-93702000D01*
X153451315Y-93702000D02*
X154013315Y-94264000D01*
X143760000Y-93952000D02*
X143760000Y-94318449D01*
X143760051Y-94318449D02*
G75*
G03*
X144010000Y-94568449I249949J-51D01*
G01*
X144760000Y-93452000D02*
G75*
G03*
X145010000Y-93702000I250000J0D01*
G01*
X143760000Y-93952000D02*
G75*
G03*
X143510000Y-93702000I-250000J0D01*
G01*
X144010000Y-94568500D02*
G75*
G03*
X144260000Y-94318449I0J250000D01*
G01*
X144760048Y-93085552D02*
G75*
G03*
X144510000Y-92835552I-250048J-48D01*
G01*
X144510000Y-92835600D02*
G75*
G03*
X144260000Y-93085552I0J-250000D01*
G01*
%TO.N,/SD Card/SDMMC_CMD*%
X140966569Y-88316395D02*
X140966569Y-87384431D01*
X136125000Y-90951000D02*
X136125000Y-93453000D01*
X144438000Y-86776000D02*
X146054000Y-88392000D01*
X140966569Y-87384431D02*
X141575000Y-86776000D01*
X157754000Y-89932000D02*
X157754000Y-93139000D01*
X138684000Y-90678000D02*
X136398000Y-90678000D01*
X156214000Y-88392000D02*
X157754000Y-89932000D01*
X136125000Y-93453000D02*
X136378000Y-93706000D01*
X141575000Y-86776000D02*
X144438000Y-86776000D01*
X136378000Y-93706000D02*
X137200000Y-93706000D01*
X136398000Y-90678000D02*
X136125000Y-90951000D01*
X146054000Y-88392000D02*
X156214000Y-88392000D01*
%TO.N,/SD Card/SDMMC_CK*%
X153925629Y-94742000D02*
X153290629Y-94107000D01*
X150114000Y-94107000D02*
X149479000Y-94742000D01*
X156254000Y-93139000D02*
X156254000Y-94070371D01*
X145785000Y-95896000D02*
X142240000Y-95896000D01*
X141940000Y-95596000D02*
X141940000Y-95514971D01*
X149479000Y-94742000D02*
X146939000Y-94742000D01*
X155582371Y-94742000D02*
X153925629Y-94742000D01*
X146939000Y-94742000D02*
X145785000Y-95896000D01*
X141340000Y-95514971D02*
X141340000Y-95596000D01*
X153290629Y-94107000D02*
X150114000Y-94107000D01*
X141040000Y-95896000D02*
X137210000Y-95896000D01*
X156254000Y-94070371D02*
X155582371Y-94742000D01*
X141040000Y-95896000D02*
G75*
G03*
X141340000Y-95596000I0J300000D01*
G01*
X141940029Y-95514971D02*
G75*
G03*
X141640000Y-95214971I-300029J-29D01*
G01*
X141640000Y-95215000D02*
G75*
G03*
X141340000Y-95514971I0J-300000D01*
G01*
X141940000Y-95596000D02*
G75*
G03*
X142240000Y-95896000I300000J0D01*
G01*
%TO.N,/SD Card/SDMMC_D0*%
X135763000Y-99568000D02*
X139313882Y-103118882D01*
X149614000Y-103116000D02*
X150602000Y-102128000D01*
X150602000Y-100925315D02*
X151713315Y-99814000D01*
X136200000Y-98096000D02*
X135763000Y-98533000D01*
X135763000Y-98533000D02*
X135763000Y-99568000D01*
X141014000Y-103116000D02*
X149614000Y-103116000D01*
X150602000Y-102128000D02*
X150602000Y-100925315D01*
X151713315Y-99814000D02*
X152579000Y-99814000D01*
X141011118Y-103118882D02*
X141014000Y-103116000D01*
X137200000Y-98096000D02*
X136200000Y-98096000D01*
X139313882Y-103118882D02*
X141011118Y-103118882D01*
%TO.N,/mcu/5V_SENSE*%
X167929000Y-101814000D02*
X167063315Y-101814000D01*
X166804000Y-101554685D02*
X166804000Y-94308000D01*
X167063315Y-101814000D02*
X166804000Y-101554685D01*
X168148000Y-92964000D02*
X168148000Y-92202000D01*
X166804000Y-94308000D02*
X168148000Y-92964000D01*
%TO.N,/SD Card/SDMMC_D1*%
X143797000Y-99846434D02*
X143797000Y-99314000D01*
X141997000Y-98781589D02*
X141997000Y-99014000D01*
X144397000Y-98781589D02*
X144397000Y-99014000D01*
X145745382Y-99314000D02*
X152579000Y-99314000D01*
X137318000Y-99314000D02*
X141097000Y-99314000D01*
X142597000Y-99846411D02*
X142597000Y-99314000D01*
X143197000Y-99314000D02*
X143197000Y-99846434D01*
X143797000Y-99314000D02*
X143797000Y-98781589D01*
X143197000Y-98781589D02*
X143197000Y-99314000D01*
X141997000Y-99014000D02*
X141997000Y-99846411D01*
X142597000Y-99314000D02*
X142597000Y-98781589D01*
X141397000Y-99014000D02*
X141397000Y-98781589D01*
X144697000Y-99314000D02*
X145745382Y-99314000D01*
X143196966Y-99846434D02*
G75*
G03*
X143497000Y-100146434I300034J34D01*
G01*
X141097000Y-99314000D02*
G75*
G03*
X141397000Y-99014000I0J300000D01*
G01*
X141997011Y-98781589D02*
G75*
G03*
X141697000Y-98481589I-300011J-11D01*
G01*
X144097000Y-98481600D02*
G75*
G03*
X143797000Y-98781589I0J-300000D01*
G01*
X143197011Y-98781589D02*
G75*
G03*
X142897000Y-98481589I-300011J-11D01*
G01*
X142897000Y-98481600D02*
G75*
G03*
X142597000Y-98781589I0J-300000D01*
G01*
X144397000Y-99014000D02*
G75*
G03*
X144697000Y-99314000I300000J0D01*
G01*
X144397011Y-98781589D02*
G75*
G03*
X144097000Y-98481589I-300011J-11D01*
G01*
X141697000Y-98481600D02*
G75*
G03*
X141397000Y-98781589I0J-300000D01*
G01*
X141996989Y-99846411D02*
G75*
G03*
X142297000Y-100146411I300011J11D01*
G01*
X142297000Y-100146400D02*
G75*
G03*
X142597000Y-99846411I0J300000D01*
G01*
X143497000Y-100146400D02*
G75*
G03*
X143797000Y-99846434I0J300000D01*
G01*
%TO.N,Net-(U4-BOOT0)*%
X160274000Y-98044000D02*
X162597000Y-95721000D01*
X163254000Y-95073305D02*
X163254000Y-93139000D01*
X162597000Y-95721000D02*
X162606305Y-95721000D01*
X160274000Y-98552000D02*
X160274000Y-98044000D01*
X162606305Y-95721000D02*
X163254000Y-95073305D01*
%TO.N,Net-(U4-PH0)*%
X170401299Y-101811994D02*
X170401299Y-102583299D01*
X170722000Y-102904000D02*
X171387000Y-102904000D01*
X170401299Y-102583299D02*
X170722000Y-102904000D01*
X167929000Y-100314000D02*
X168903305Y-100314000D01*
X168903305Y-100314000D02*
X170401299Y-101811994D01*
D42*
%TO.N,Net-(D5-A2)*%
X143871000Y-69596000D02*
X143891000Y-69616000D01*
D40*
X145415000Y-75565000D02*
X146191000Y-75565000D01*
D41*
X146191000Y-75565000D02*
X146177000Y-75565000D01*
D40*
X144978000Y-73898000D02*
X144978000Y-75128000D01*
X144978000Y-75128000D02*
X145415000Y-75565000D01*
X144978000Y-73898000D02*
X144978000Y-77271000D01*
D41*
X146177000Y-75565000D02*
X146050000Y-75692000D01*
D40*
X144978000Y-77271000D02*
X145304000Y-77597000D01*
D41*
%TO.N,/mcu/FDCAN1_RX*%
X169164000Y-93980000D02*
X171069000Y-95885000D01*
X157448000Y-97314000D02*
X152579000Y-97314000D01*
X160210500Y-94538500D02*
X160210500Y-94551500D01*
X160210500Y-94551500D02*
X157448000Y-97314000D01*
X169164000Y-91948000D02*
X169164000Y-93980000D01*
X171069000Y-95885000D02*
X171069000Y-96963000D01*
X165932278Y-91230847D02*
X165996326Y-91166799D01*
X165996326Y-91166799D02*
X168382799Y-91166799D01*
X168382799Y-91166799D02*
X169164000Y-91948000D01*
%TO.N,/mcu/FDCAN1_TX*%
X168656000Y-90424000D02*
X170444000Y-92212000D01*
X159096969Y-94533494D02*
X156816463Y-96814000D01*
X174879000Y-94107000D02*
X174879000Y-96963000D01*
X156816463Y-96814000D02*
X152579000Y-96814000D01*
X170444000Y-93034751D02*
X171359249Y-93950000D01*
X164978500Y-90932000D02*
X165404653Y-90505847D01*
X166232583Y-90505847D02*
X166314430Y-90424000D01*
X174722000Y-93950000D02*
X174879000Y-94107000D01*
X170444000Y-92212000D02*
X170444000Y-93034751D01*
X165404653Y-90505847D02*
X166232583Y-90505847D01*
X171359249Y-93950000D02*
X174722000Y-93950000D01*
X166314430Y-90424000D02*
X168656000Y-90424000D01*
%TO.N,/mcu/SYNC_IN*%
X150936000Y-74060000D02*
X150876000Y-74000000D01*
X150936000Y-76775000D02*
X150936000Y-74060000D01*
X154343000Y-97814000D02*
X152579000Y-97814000D01*
X154812000Y-98283000D02*
X154343000Y-97814000D01*
X150368000Y-77343000D02*
X150936000Y-76775000D01*
%TO.N,/mcu/GPS_PPS*%
X153977002Y-98614307D02*
X153676695Y-98314000D01*
X153676695Y-98314000D02*
X152579000Y-98314000D01*
X153977002Y-98933932D02*
X153977002Y-98614307D01*
%TO.N,/mcu/VCAP1*%
X155667088Y-107095912D02*
X155254000Y-107509000D01*
X157086210Y-107095912D02*
X155667088Y-107095912D01*
X155254000Y-107509000D02*
X155254000Y-108489000D01*
%TO.N,/mcu/VCAP2*%
X151185000Y-95814000D02*
X152579000Y-95814000D01*
X151129000Y-95870000D02*
X151185000Y-95814000D01*
%TO.N,/mcu/TX_TTL*%
X150114000Y-104140000D02*
X150114000Y-104394000D01*
X151034000Y-105314000D02*
X152579000Y-105314000D01*
X150114000Y-104394000D02*
X151034000Y-105314000D01*
%TO.N,/mcu/RX_TTL*%
X147828000Y-78613000D02*
X148336000Y-78105000D01*
X151511000Y-77343000D02*
X151511000Y-75365000D01*
X151511000Y-75365000D02*
X152978000Y-73898000D01*
X148336000Y-78105000D02*
X150749000Y-78105000D01*
X149860000Y-105410000D02*
X150264000Y-105814000D01*
X150749000Y-78105000D02*
X151511000Y-77343000D01*
X150264000Y-105814000D02*
X152579000Y-105814000D01*
%TO.N,Net-(J3-Pin_6)*%
X149643000Y-77052000D02*
X149643000Y-77042695D01*
X146304000Y-77597000D02*
X149098000Y-77597000D01*
X149987000Y-72907000D02*
X148978000Y-71898000D01*
X149643000Y-77042695D02*
X149987000Y-76698695D01*
X149098000Y-77597000D02*
X149643000Y-77052000D01*
X149987000Y-76698695D02*
X149987000Y-72907000D01*
%TO.N,/mcu/SYNC_OUT*%
X146812000Y-97790000D02*
X147320000Y-98298000D01*
X151197315Y-98298000D02*
X151713315Y-98814000D01*
X147320000Y-98298000D02*
X151197315Y-98298000D01*
X151713315Y-98814000D02*
X152579000Y-98814000D01*
%TO.N,Net-(Q1-G)*%
X147574000Y-85058000D02*
X147574000Y-81546500D01*
X147574000Y-81546500D02*
X147828000Y-81292500D01*
X147828000Y-81292500D02*
X146238000Y-81292500D01*
X148368000Y-85852000D02*
X147574000Y-85058000D01*
X146238000Y-81292500D02*
X145796000Y-80850500D01*
X148402000Y-81866500D02*
X147828000Y-81292500D01*
%TO.N,/mcu/IMU_EN*%
X151713315Y-106314000D02*
X152579000Y-106314000D01*
X148844000Y-105664000D02*
X149444000Y-106264000D01*
X146812000Y-86614000D02*
X147066000Y-86868000D01*
X149444000Y-106264000D02*
X151663315Y-106264000D01*
X146558000Y-85344000D02*
X146812000Y-85090000D01*
X146812000Y-85090000D02*
X146812000Y-86614000D01*
X151663315Y-106264000D02*
X151713315Y-106314000D01*
X145780000Y-85344000D02*
X146558000Y-85344000D01*
X146812000Y-82550000D02*
X146812000Y-85090000D01*
%TO.N,Net-(D6-A)*%
X141224000Y-77744000D02*
X140208000Y-78760000D01*
D40*
X144018000Y-78486000D02*
X144780000Y-79248000D01*
X144780000Y-79248000D02*
X147320000Y-79248000D01*
D41*
X140208000Y-80884000D02*
X139954000Y-81138000D01*
X140208000Y-78760000D02*
X140208000Y-80884000D01*
D40*
X147320000Y-79248000D02*
X149352000Y-81280000D01*
X149352000Y-81280000D02*
X149352000Y-83741500D01*
D41*
X144018000Y-78486000D02*
X143276000Y-77744000D01*
X143276000Y-77744000D02*
X141224000Y-77744000D01*
%TD*%
%TA.AperFunction,Conductor*%
%TO.N,GND*%
G36*
X131705703Y-69680937D02*
G01*
X131743477Y-69739715D01*
X131746867Y-69754589D01*
X131771874Y-69907130D01*
X131773317Y-69913684D01*
X131867251Y-70252001D01*
X131869396Y-70258368D01*
X131999360Y-70584552D01*
X132002169Y-70590626D01*
X132166649Y-70900868D01*
X132170102Y-70906606D01*
X132367147Y-71197225D01*
X132371207Y-71202566D01*
X132496441Y-71350003D01*
X132496442Y-71350004D01*
X133702266Y-70144179D01*
X133865130Y-70334870D01*
X134055818Y-70497732D01*
X132847255Y-71706295D01*
X132858047Y-71716518D01*
X132863157Y-71720858D01*
X133142694Y-71933357D01*
X133148240Y-71937117D01*
X133449099Y-72118137D01*
X133455038Y-72121285D01*
X133773695Y-72268712D01*
X133783057Y-72272443D01*
X133776786Y-72270146D01*
X133834089Y-72310072D01*
X133860722Y-72374666D01*
X133848204Y-72443405D01*
X133832959Y-72466756D01*
X133828584Y-72472045D01*
X133820717Y-72480691D01*
X133728204Y-72573203D01*
X133712113Y-72586095D01*
X133710123Y-72588213D01*
X133710123Y-72588214D01*
X133664069Y-72637254D01*
X133661389Y-72640019D01*
X133644635Y-72656773D01*
X133644628Y-72656780D01*
X133641880Y-72659529D01*
X133639499Y-72662597D01*
X133639490Y-72662608D01*
X133639411Y-72662711D01*
X133631842Y-72671572D01*
X133601935Y-72703420D01*
X133592285Y-72720974D01*
X133581609Y-72737228D01*
X133569326Y-72753063D01*
X133551975Y-72793158D01*
X133546838Y-72803643D01*
X133544829Y-72807299D01*
X133543474Y-72809763D01*
X133493925Y-72859024D01*
X133473820Y-72867725D01*
X133342664Y-72911186D01*
X133193342Y-73003288D01*
X133069288Y-73127342D01*
X132977186Y-73276665D01*
X132922000Y-73443202D01*
X132911819Y-73542858D01*
X132911817Y-73542878D01*
X132911500Y-73545991D01*
X132911500Y-73549138D01*
X132911500Y-73549139D01*
X132911500Y-74342858D01*
X132911500Y-74342877D01*
X132911501Y-74346008D01*
X132911820Y-74349140D01*
X132911821Y-74349141D01*
X132922000Y-74448796D01*
X132977186Y-74615334D01*
X133069288Y-74764657D01*
X133162950Y-74858319D01*
X133196435Y-74919642D01*
X133191451Y-74989334D01*
X133162950Y-75033681D01*
X133069288Y-75127342D01*
X132977186Y-75276665D01*
X132922000Y-75443202D01*
X132911819Y-75542858D01*
X132911817Y-75542878D01*
X132911500Y-75545991D01*
X132911500Y-75549138D01*
X132911500Y-75549139D01*
X132911500Y-76342858D01*
X132911500Y-76342877D01*
X132911501Y-76346008D01*
X132911820Y-76349140D01*
X132911821Y-76349141D01*
X132922000Y-76448796D01*
X132977186Y-76615334D01*
X133055619Y-76742496D01*
X133074059Y-76809889D01*
X133053136Y-76876552D01*
X133015178Y-76913130D01*
X132940343Y-76959289D01*
X132816288Y-77083344D01*
X132724186Y-77232663D01*
X132669000Y-77399202D01*
X132658819Y-77498859D01*
X132658817Y-77498879D01*
X132658500Y-77501992D01*
X132658500Y-78527008D01*
X132658818Y-78530121D01*
X132658819Y-78530140D01*
X132669000Y-78629797D01*
X132724186Y-78796336D01*
X132816288Y-78945655D01*
X132940344Y-79069711D01*
X133089663Y-79161813D01*
X133256202Y-79216999D01*
X133355859Y-79227180D01*
X133355860Y-79227180D01*
X133358992Y-79227500D01*
X133362141Y-79227500D01*
X134705859Y-79227500D01*
X134709008Y-79227500D01*
X134811797Y-79216999D01*
X134978334Y-79161814D01*
X135005244Y-79145216D01*
X135127652Y-79069713D01*
X135127652Y-79069712D01*
X135127655Y-79069711D01*
X135187170Y-79010195D01*
X135248491Y-78976712D01*
X135318183Y-78981696D01*
X135362532Y-79010198D01*
X135393833Y-79041500D01*
X135543151Y-79133601D01*
X135709690Y-79188787D01*
X135809347Y-79198968D01*
X135809348Y-79198968D01*
X135812480Y-79199288D01*
X135815629Y-79199288D01*
X137159347Y-79199288D01*
X137162496Y-79199288D01*
X137265285Y-79188787D01*
X137399498Y-79144312D01*
X137469324Y-79141911D01*
X137529366Y-79177642D01*
X137560559Y-79240162D01*
X137562500Y-79262018D01*
X137562500Y-79506508D01*
X137562818Y-79509621D01*
X137562819Y-79509640D01*
X137573000Y-79609297D01*
X137588940Y-79657399D01*
X137591342Y-79727228D01*
X137555610Y-79787269D01*
X137493089Y-79818462D01*
X137432230Y-79814109D01*
X137265285Y-79758788D01*
X137165628Y-79748607D01*
X137165609Y-79748606D01*
X137162496Y-79748288D01*
X135812480Y-79748288D01*
X135809367Y-79748605D01*
X135809347Y-79748607D01*
X135709690Y-79758788D01*
X135543151Y-79813974D01*
X135393835Y-79906074D01*
X135334318Y-79965591D01*
X135272994Y-79999075D01*
X135203303Y-79994090D01*
X135158955Y-79965589D01*
X135127654Y-79934287D01*
X134978336Y-79842186D01*
X134811797Y-79787000D01*
X134712140Y-79776819D01*
X134712121Y-79776818D01*
X134709008Y-79776500D01*
X133358992Y-79776500D01*
X133355879Y-79776817D01*
X133355859Y-79776819D01*
X133256202Y-79787000D01*
X133089663Y-79842186D01*
X132940344Y-79934288D01*
X132816288Y-80058344D01*
X132724186Y-80207663D01*
X132669000Y-80374202D01*
X132658819Y-80473859D01*
X132658817Y-80473879D01*
X132658500Y-80476992D01*
X132658500Y-81502008D01*
X132658818Y-81505121D01*
X132658819Y-81505140D01*
X132669000Y-81604797D01*
X132724186Y-81771336D01*
X132816288Y-81920655D01*
X132940344Y-82044711D01*
X133089663Y-82136813D01*
X133256202Y-82191999D01*
X133280804Y-82194512D01*
X133297100Y-82196177D01*
X133361792Y-82222572D01*
X133401944Y-82279753D01*
X133408499Y-82319535D01*
X133408499Y-82685893D01*
X133388814Y-82752932D01*
X133376649Y-82768865D01*
X133252466Y-82906783D01*
X133157820Y-83070715D01*
X133099326Y-83250742D01*
X133087832Y-83360108D01*
X133079540Y-83439000D01*
X133080876Y-83451716D01*
X133085458Y-83495306D01*
X133072888Y-83564036D01*
X133025156Y-83615059D01*
X132982555Y-83630574D01*
X132980514Y-83630914D01*
X132745392Y-83711631D01*
X132526764Y-83829946D01*
X132479942Y-83866388D01*
X132479942Y-83866390D01*
X133217466Y-84603913D01*
X133207685Y-84605320D01*
X133076900Y-84665048D01*
X132968239Y-84759202D01*
X132890507Y-84880156D01*
X132866923Y-84960475D01*
X132126564Y-84220116D01*
X132026266Y-84373634D01*
X131926413Y-84601278D01*
X131865386Y-84842267D01*
X131844858Y-85090000D01*
X131865386Y-85337732D01*
X131926413Y-85578721D01*
X132026268Y-85806370D01*
X132126563Y-85959882D01*
X132126564Y-85959882D01*
X132866923Y-85219523D01*
X132890507Y-85299844D01*
X132968239Y-85420798D01*
X133076900Y-85514952D01*
X133207685Y-85574680D01*
X133217465Y-85576086D01*
X132479942Y-86313609D01*
X132479942Y-86313610D01*
X132526766Y-86350055D01*
X132745393Y-86468368D01*
X132980507Y-86549083D01*
X133141767Y-86575993D01*
X133204653Y-86606443D01*
X133241092Y-86666058D01*
X133239517Y-86735910D01*
X133220625Y-86772612D01*
X133156205Y-86858666D01*
X133105909Y-86993516D01*
X133099899Y-87049420D01*
X133099500Y-87053127D01*
X133099500Y-87056448D01*
X133099500Y-87056449D01*
X133099500Y-88595560D01*
X133099500Y-88595578D01*
X133099501Y-88598872D01*
X133099853Y-88602152D01*
X133099854Y-88602159D01*
X133105909Y-88658484D01*
X133111787Y-88674244D01*
X133156204Y-88793331D01*
X133242454Y-88908546D01*
X133357669Y-88994796D01*
X133492517Y-89045091D01*
X133552127Y-89051500D01*
X135647872Y-89051499D01*
X135707483Y-89045091D01*
X135842331Y-88994796D01*
X135957546Y-88908546D01*
X136043796Y-88793331D01*
X136094091Y-88658483D01*
X136100500Y-88598873D01*
X136100499Y-87053128D01*
X136094091Y-86993517D01*
X136043796Y-86858669D01*
X135957546Y-86743454D01*
X135842331Y-86657204D01*
X135707483Y-86606909D01*
X135647873Y-86600500D01*
X135644551Y-86600500D01*
X134200113Y-86600500D01*
X134133074Y-86580815D01*
X134087319Y-86528011D01*
X134077375Y-86458853D01*
X134106400Y-86395297D01*
X134141097Y-86367444D01*
X134173236Y-86350051D01*
X134220056Y-86313609D01*
X133482532Y-85576086D01*
X133492315Y-85574680D01*
X133623100Y-85514952D01*
X133731761Y-85420798D01*
X133809493Y-85299844D01*
X133833076Y-85219524D01*
X134573434Y-85959882D01*
X134673730Y-85806369D01*
X134773586Y-85578721D01*
X134834613Y-85337732D01*
X134855141Y-85090000D01*
X135400858Y-85090000D01*
X135421386Y-85337732D01*
X135482413Y-85578721D01*
X135582268Y-85806370D01*
X135682563Y-85959882D01*
X135682564Y-85959882D01*
X136422922Y-85219523D01*
X136446507Y-85299844D01*
X136524239Y-85420798D01*
X136632900Y-85514952D01*
X136763685Y-85574680D01*
X136773466Y-85576086D01*
X136035942Y-86313609D01*
X136035942Y-86313610D01*
X136082766Y-86350055D01*
X136301393Y-86468368D01*
X136536506Y-86549083D01*
X136781707Y-86590000D01*
X137030293Y-86590000D01*
X137275493Y-86549083D01*
X137510606Y-86468368D01*
X137729233Y-86350053D01*
X137776056Y-86313609D01*
X137038533Y-85576086D01*
X137048315Y-85574680D01*
X137179100Y-85514952D01*
X137287761Y-85420798D01*
X137365493Y-85299844D01*
X137389076Y-85219524D01*
X138129434Y-85959882D01*
X138229730Y-85806369D01*
X138329586Y-85578721D01*
X138390613Y-85337732D01*
X138411141Y-85089999D01*
X138390613Y-84842267D01*
X138329586Y-84601278D01*
X138229730Y-84373630D01*
X138129434Y-84220116D01*
X137389076Y-84960475D01*
X137365493Y-84880156D01*
X137287761Y-84759202D01*
X137179100Y-84665048D01*
X137048315Y-84605320D01*
X137038534Y-84603913D01*
X137776057Y-83866390D01*
X137776056Y-83866388D01*
X137729235Y-83829947D01*
X137510606Y-83711631D01*
X137275493Y-83630916D01*
X137030293Y-83590000D01*
X136781707Y-83590000D01*
X136536506Y-83630916D01*
X136301393Y-83711631D01*
X136082764Y-83829946D01*
X136035942Y-83866388D01*
X136035942Y-83866390D01*
X136773466Y-84603913D01*
X136763685Y-84605320D01*
X136632900Y-84665048D01*
X136524239Y-84759202D01*
X136446507Y-84880156D01*
X136422923Y-84960474D01*
X135682564Y-84220117D01*
X135582266Y-84373634D01*
X135482413Y-84601278D01*
X135421386Y-84842267D01*
X135400858Y-85090000D01*
X134855141Y-85090000D01*
X134855141Y-85089999D01*
X134834613Y-84842267D01*
X134773586Y-84601278D01*
X134673733Y-84373634D01*
X134591980Y-84248501D01*
X134571793Y-84181611D01*
X134590973Y-84114425D01*
X134603636Y-84097709D01*
X134717533Y-83971216D01*
X134812179Y-83807284D01*
X134870674Y-83627256D01*
X134890460Y-83439000D01*
X134870674Y-83250744D01*
X134835991Y-83144000D01*
X134812179Y-83070715D01*
X134717533Y-82906783D01*
X134691350Y-82877704D01*
X134661120Y-82814712D01*
X134659500Y-82794732D01*
X134659500Y-82319535D01*
X134679185Y-82252496D01*
X134731989Y-82206741D01*
X134770897Y-82196177D01*
X134811797Y-82191999D01*
X134978334Y-82136814D01*
X135024073Y-82108602D01*
X135127652Y-82044713D01*
X135127652Y-82044712D01*
X135127655Y-82044711D01*
X135187170Y-81985195D01*
X135248491Y-81951712D01*
X135318183Y-81956696D01*
X135362532Y-81985198D01*
X135393833Y-82016500D01*
X135543151Y-82108601D01*
X135722582Y-82168059D01*
X135722098Y-82169518D01*
X135772197Y-82189960D01*
X135810200Y-82241283D01*
X135813417Y-82249410D01*
X135817197Y-82260451D01*
X135829382Y-82302391D01*
X135839580Y-82319635D01*
X135848136Y-82337100D01*
X135855514Y-82355732D01*
X135855515Y-82355733D01*
X135881180Y-82391059D01*
X135887593Y-82400822D01*
X135909826Y-82438416D01*
X135909829Y-82438419D01*
X135909830Y-82438420D01*
X135923995Y-82452585D01*
X135936627Y-82467375D01*
X135948406Y-82483587D01*
X135982058Y-82511426D01*
X135990699Y-82519289D01*
X136259618Y-82788208D01*
X136272519Y-82804310D01*
X136274633Y-82806295D01*
X136274635Y-82806298D01*
X136321982Y-82850760D01*
X136323661Y-82852337D01*
X136326457Y-82855047D01*
X136345951Y-82874541D01*
X136349036Y-82876934D01*
X136349122Y-82877001D01*
X136357994Y-82884579D01*
X136389839Y-82914483D01*
X136407395Y-82924135D01*
X136423652Y-82934813D01*
X136439485Y-82947095D01*
X136448230Y-82950879D01*
X136479577Y-82964444D01*
X136490064Y-82969581D01*
X136528329Y-82990618D01*
X136547725Y-82995598D01*
X136566137Y-83001901D01*
X136568423Y-83002890D01*
X136611315Y-83033714D01*
X136648656Y-83075185D01*
X136650571Y-83077312D01*
X136803708Y-83188572D01*
X136976636Y-83265565D01*
X137161791Y-83304921D01*
X137161793Y-83304921D01*
X137351087Y-83304921D01*
X137495076Y-83274315D01*
X137536242Y-83265565D01*
X137709169Y-83188572D01*
X137797612Y-83124315D01*
X137862309Y-83077310D01*
X137864222Y-83075185D01*
X137959384Y-82969496D01*
X138018869Y-82932849D01*
X138077313Y-82931180D01*
X138089860Y-82933847D01*
X138089863Y-82933847D01*
X138279154Y-82933847D01*
X138464304Y-82894492D01*
X138464303Y-82894492D01*
X138464309Y-82894491D01*
X138529067Y-82865658D01*
X138598312Y-82856373D01*
X138661589Y-82886001D01*
X138698804Y-82945135D01*
X138703500Y-82978920D01*
X138703500Y-82982552D01*
X138703500Y-82982570D01*
X138703501Y-82985872D01*
X138703853Y-82989152D01*
X138703854Y-82989159D01*
X138709909Y-83045484D01*
X138721780Y-83077312D01*
X138760204Y-83180331D01*
X138846454Y-83295546D01*
X138961669Y-83381796D01*
X139096517Y-83432091D01*
X139156127Y-83438500D01*
X139841769Y-83438499D01*
X139908808Y-83458183D01*
X139929450Y-83474818D01*
X139946470Y-83491838D01*
X139979955Y-83553161D01*
X139974971Y-83622853D01*
X139933099Y-83678786D01*
X139899053Y-83696800D01*
X139857192Y-83711171D01*
X139638485Y-83829529D01*
X139442259Y-83982259D01*
X139442256Y-83982261D01*
X139442256Y-83982262D01*
X139273836Y-84165215D01*
X139241689Y-84214420D01*
X139137825Y-84373395D01*
X139075684Y-84515064D01*
X139037937Y-84601119D01*
X138978541Y-84835668D01*
X138976891Y-84842183D01*
X138956356Y-85090000D01*
X138976891Y-85337816D01*
X138976891Y-85337819D01*
X138976892Y-85337821D01*
X139037937Y-85578881D01*
X139066464Y-85643915D01*
X139137825Y-85806604D01*
X139137827Y-85806607D01*
X139273836Y-86014785D01*
X139442256Y-86197738D01*
X139462710Y-86213658D01*
X139638485Y-86350470D01*
X139638487Y-86350471D01*
X139638491Y-86350474D01*
X139857190Y-86468828D01*
X140092386Y-86549571D01*
X140337665Y-86590500D01*
X140576546Y-86590500D01*
X140643585Y-86610185D01*
X140689340Y-86662989D01*
X140699284Y-86732147D01*
X140670259Y-86795703D01*
X140664240Y-86802167D01*
X140607742Y-86858666D01*
X140582777Y-86883631D01*
X140566678Y-86896528D01*
X140518665Y-86947656D01*
X140515961Y-86950447D01*
X140499197Y-86967211D01*
X140499190Y-86967218D01*
X140496449Y-86969960D01*
X140494068Y-86973028D01*
X140494059Y-86973039D01*
X140493980Y-86973142D01*
X140486411Y-86982003D01*
X140456504Y-87013851D01*
X140446854Y-87031405D01*
X140436178Y-87047659D01*
X140423895Y-87063494D01*
X140406544Y-87103589D01*
X140401407Y-87114075D01*
X140380371Y-87152338D01*
X140375390Y-87171740D01*
X140369089Y-87190142D01*
X140361130Y-87208533D01*
X140354297Y-87251673D01*
X140351929Y-87263105D01*
X140341069Y-87305408D01*
X140341069Y-87325447D01*
X140339542Y-87344845D01*
X140336409Y-87364625D01*
X140340519Y-87408104D01*
X140341069Y-87419774D01*
X140341069Y-87617707D01*
X140321384Y-87684746D01*
X140309219Y-87700679D01*
X140234035Y-87784178D01*
X140139389Y-87948110D01*
X140080895Y-88128137D01*
X140061109Y-88316395D01*
X140080895Y-88504652D01*
X140139389Y-88684679D01*
X140234035Y-88848611D01*
X140360698Y-88989284D01*
X140513838Y-89100546D01*
X140686766Y-89177539D01*
X140871921Y-89216895D01*
X140871923Y-89216895D01*
X141061217Y-89216895D01*
X141184653Y-89190657D01*
X141246372Y-89177539D01*
X141315762Y-89146643D01*
X141419296Y-89100548D01*
X141419299Y-89100546D01*
X141542489Y-89011043D01*
X141608291Y-88987565D01*
X141658698Y-88995180D01*
X141792517Y-89045091D01*
X141852127Y-89051500D01*
X143947872Y-89051499D01*
X144007483Y-89045091D01*
X144142331Y-88994796D01*
X144257546Y-88908546D01*
X144343796Y-88793331D01*
X144394091Y-88658483D01*
X144400500Y-88598873D01*
X144400499Y-87922449D01*
X144420183Y-87855412D01*
X144472987Y-87809657D01*
X144542146Y-87799713D01*
X144605702Y-87828738D01*
X144612177Y-87834767D01*
X145093804Y-88316395D01*
X145553196Y-88775787D01*
X145566096Y-88791888D01*
X145617223Y-88839900D01*
X145620020Y-88842611D01*
X145639529Y-88862120D01*
X145642709Y-88864587D01*
X145651571Y-88872155D01*
X145683418Y-88902062D01*
X145700970Y-88911711D01*
X145717238Y-88922397D01*
X145733064Y-88934673D01*
X145773146Y-88952017D01*
X145783633Y-88957155D01*
X145821907Y-88978197D01*
X145830410Y-88980379D01*
X145841308Y-88983178D01*
X145859713Y-88989478D01*
X145878104Y-88997437D01*
X145921250Y-89004270D01*
X145932668Y-89006635D01*
X145974981Y-89017500D01*
X145995016Y-89017500D01*
X146014415Y-89019027D01*
X146034196Y-89022160D01*
X146077674Y-89018050D01*
X146089344Y-89017500D01*
X151892145Y-89017500D01*
X151959184Y-89037185D01*
X151980523Y-89058923D01*
X151982040Y-89057407D01*
X151992286Y-89067653D01*
X151992288Y-89067656D01*
X152082080Y-89157448D01*
X152116345Y-89191713D01*
X152191004Y-89237763D01*
X152265666Y-89283814D01*
X152377016Y-89320712D01*
X152432202Y-89338999D01*
X152531858Y-89349180D01*
X152531859Y-89349180D01*
X152534991Y-89349500D01*
X153535008Y-89349499D01*
X153637797Y-89338999D01*
X153804334Y-89283814D01*
X153953656Y-89191712D01*
X154077712Y-89067656D01*
X154077713Y-89067653D01*
X154087960Y-89057407D01*
X154090553Y-89060000D01*
X154124262Y-89029680D01*
X154177855Y-89017500D01*
X155903548Y-89017500D01*
X155970587Y-89037185D01*
X155991229Y-89053819D01*
X157092182Y-90154772D01*
X157125666Y-90216093D01*
X157128500Y-90242451D01*
X157128500Y-91731437D01*
X157108815Y-91798476D01*
X157056011Y-91844231D01*
X157020791Y-91854362D01*
X157020293Y-91854428D01*
X156987817Y-91854442D01*
X156870740Y-91839029D01*
X156870736Y-91839028D01*
X156866720Y-91838500D01*
X156641280Y-91838500D01*
X156637266Y-91839028D01*
X156637257Y-91839029D01*
X156520184Y-91854441D01*
X156487816Y-91854441D01*
X156370742Y-91839029D01*
X156370734Y-91839028D01*
X156366720Y-91838500D01*
X156141280Y-91838500D01*
X156137266Y-91839028D01*
X156137257Y-91839029D01*
X156020181Y-91854442D01*
X155987674Y-91854424D01*
X155987177Y-91854358D01*
X155923312Y-91826019D01*
X155884906Y-91767652D01*
X155879500Y-91731437D01*
X155879500Y-90947739D01*
X155881763Y-90927238D01*
X155879561Y-90857144D01*
X155879500Y-90853250D01*
X155879500Y-90829544D01*
X155879500Y-90825650D01*
X155878998Y-90821681D01*
X155878080Y-90810024D01*
X155876709Y-90766373D01*
X155871120Y-90747137D01*
X155867176Y-90728093D01*
X155864664Y-90708208D01*
X155848582Y-90667591D01*
X155844798Y-90656540D01*
X155832617Y-90614610D01*
X155827836Y-90606525D01*
X155822421Y-90597369D01*
X155813863Y-90579902D01*
X155806486Y-90561268D01*
X155780798Y-90525912D01*
X155774409Y-90516184D01*
X155752170Y-90478579D01*
X155738006Y-90464415D01*
X155725369Y-90449620D01*
X155713595Y-90433414D01*
X155713594Y-90433413D01*
X155679935Y-90405568D01*
X155671305Y-90397714D01*
X155289802Y-90016211D01*
X155276906Y-90000113D01*
X155225775Y-89952098D01*
X155222978Y-89949387D01*
X155206227Y-89932636D01*
X155203471Y-89929880D01*
X155200290Y-89927412D01*
X155191422Y-89919837D01*
X155159582Y-89889938D01*
X155142024Y-89880285D01*
X155125764Y-89869604D01*
X155109936Y-89857327D01*
X155069851Y-89839980D01*
X155059361Y-89834841D01*
X155021091Y-89813802D01*
X155001691Y-89808821D01*
X154983284Y-89802519D01*
X154964897Y-89794562D01*
X154921758Y-89787729D01*
X154910324Y-89785361D01*
X154868019Y-89774500D01*
X154847984Y-89774500D01*
X154828586Y-89772973D01*
X154821162Y-89771797D01*
X154808805Y-89769840D01*
X154808804Y-89769840D01*
X154782484Y-89772328D01*
X154765325Y-89773950D01*
X154753656Y-89774500D01*
X151579058Y-89774500D01*
X151512019Y-89754815D01*
X151473519Y-89715596D01*
X151390711Y-89581342D01*
X151266657Y-89457288D01*
X151117334Y-89365186D01*
X150950797Y-89310000D01*
X150851141Y-89299819D01*
X150851122Y-89299818D01*
X150848009Y-89299500D01*
X150844860Y-89299500D01*
X149851140Y-89299500D01*
X149851120Y-89299500D01*
X149847992Y-89299501D01*
X149844860Y-89299820D01*
X149844858Y-89299821D01*
X149745203Y-89310000D01*
X149578665Y-89365186D01*
X149429342Y-89457288D01*
X149305289Y-89581341D01*
X149223483Y-89713972D01*
X149171535Y-89760696D01*
X149121840Y-89772814D01*
X149073141Y-89774344D01*
X149070143Y-89774439D01*
X149066251Y-89774500D01*
X149038650Y-89774500D01*
X149034799Y-89774986D01*
X149034768Y-89774988D01*
X149034640Y-89775005D01*
X149023028Y-89775918D01*
X148979368Y-89777290D01*
X148960128Y-89782880D01*
X148941081Y-89786825D01*
X148921209Y-89789335D01*
X148880599Y-89805413D01*
X148869554Y-89809194D01*
X148827610Y-89821381D01*
X148810365Y-89831579D01*
X148792904Y-89840133D01*
X148774267Y-89847512D01*
X148738931Y-89873185D01*
X148729174Y-89879595D01*
X148691580Y-89901829D01*
X148677413Y-89915996D01*
X148662624Y-89928626D01*
X148646413Y-89940404D01*
X148618572Y-89974058D01*
X148610711Y-89982697D01*
X147759228Y-90834181D01*
X147697905Y-90867666D01*
X147671547Y-90870500D01*
X142723292Y-90870500D01*
X142656253Y-90850815D01*
X142610498Y-90798011D01*
X142601173Y-90768015D01*
X142594366Y-90729379D01*
X142571886Y-90667594D01*
X142538993Y-90577188D01*
X142458033Y-90436927D01*
X142353945Y-90312858D01*
X142345385Y-90305674D01*
X142229892Y-90208749D01*
X142089644Y-90127768D01*
X141937464Y-90072373D01*
X141777975Y-90044247D01*
X141772952Y-90044247D01*
X141772949Y-90044247D01*
X141748409Y-90044247D01*
X141748245Y-90044199D01*
X141616022Y-90044200D01*
X141456523Y-90072327D01*
X141304338Y-90127723D01*
X141164082Y-90208711D01*
X141040020Y-90312827D01*
X140935929Y-90436898D01*
X140854962Y-90577171D01*
X140799589Y-90729364D01*
X140792780Y-90768015D01*
X140761762Y-90830622D01*
X140701820Y-90866521D01*
X140670661Y-90870500D01*
X139706943Y-90870500D01*
X139639904Y-90850815D01*
X139594149Y-90798011D01*
X139583622Y-90733541D01*
X139589460Y-90678000D01*
X139569674Y-90489744D01*
X139512200Y-90312858D01*
X139511179Y-90309715D01*
X139416533Y-90145783D01*
X139289870Y-90005110D01*
X139136730Y-89893848D01*
X138963802Y-89816855D01*
X138778648Y-89777500D01*
X138778646Y-89777500D01*
X138589354Y-89777500D01*
X138589352Y-89777500D01*
X138404197Y-89816855D01*
X138231272Y-89893847D01*
X138151097Y-89952098D01*
X138078129Y-90005112D01*
X138072401Y-90011472D01*
X138012916Y-90048121D01*
X137980253Y-90052500D01*
X136480740Y-90052500D01*
X136460236Y-90050236D01*
X136390144Y-90052439D01*
X136386250Y-90052500D01*
X136358650Y-90052500D01*
X136354799Y-90052986D01*
X136354768Y-90052988D01*
X136354640Y-90053005D01*
X136343028Y-90053918D01*
X136299372Y-90055290D01*
X136280135Y-90060879D01*
X136261094Y-90064822D01*
X136241208Y-90067335D01*
X136200582Y-90083419D01*
X136189537Y-90087200D01*
X136147613Y-90099381D01*
X136130365Y-90109581D01*
X136112903Y-90118135D01*
X136100915Y-90122881D01*
X136094265Y-90125515D01*
X136058926Y-90151189D01*
X136049168Y-90157599D01*
X136011579Y-90179829D01*
X135997410Y-90193998D01*
X135982622Y-90206628D01*
X135966413Y-90218405D01*
X135938572Y-90252058D01*
X135930711Y-90260696D01*
X135741208Y-90450199D01*
X135725110Y-90463096D01*
X135677096Y-90514225D01*
X135674392Y-90517016D01*
X135657628Y-90533780D01*
X135657621Y-90533787D01*
X135654880Y-90536529D01*
X135652499Y-90539597D01*
X135652490Y-90539608D01*
X135652411Y-90539711D01*
X135644842Y-90548572D01*
X135614935Y-90580420D01*
X135605285Y-90597974D01*
X135594609Y-90614228D01*
X135582326Y-90630063D01*
X135564975Y-90670158D01*
X135559838Y-90680644D01*
X135538802Y-90718907D01*
X135533821Y-90738309D01*
X135527520Y-90756711D01*
X135519561Y-90775102D01*
X135512728Y-90818242D01*
X135510360Y-90829674D01*
X135499500Y-90871977D01*
X135499500Y-90892016D01*
X135497973Y-90911414D01*
X135494840Y-90931194D01*
X135498950Y-90974673D01*
X135499500Y-90986343D01*
X135499500Y-93370256D01*
X135497235Y-93390766D01*
X135499439Y-93460872D01*
X135499500Y-93464767D01*
X135499500Y-93492350D01*
X135499988Y-93496219D01*
X135499989Y-93496225D01*
X135500004Y-93496343D01*
X135500918Y-93507967D01*
X135502290Y-93551626D01*
X135507879Y-93570860D01*
X135511825Y-93589916D01*
X135514335Y-93609792D01*
X135530414Y-93650404D01*
X135534197Y-93661451D01*
X135546382Y-93703391D01*
X135556580Y-93720635D01*
X135565136Y-93738100D01*
X135572514Y-93756732D01*
X135580654Y-93767936D01*
X135598180Y-93792059D01*
X135604593Y-93801822D01*
X135626826Y-93839416D01*
X135626829Y-93839419D01*
X135626830Y-93839420D01*
X135640995Y-93853585D01*
X135653627Y-93868375D01*
X135665406Y-93884587D01*
X135695642Y-93909600D01*
X135699057Y-93912425D01*
X135707697Y-93920287D01*
X135877201Y-94089792D01*
X135890098Y-94105889D01*
X135892212Y-94107874D01*
X135892214Y-94107877D01*
X135916939Y-94131096D01*
X135952334Y-94191337D01*
X135955344Y-94208227D01*
X135955756Y-94212062D01*
X135957574Y-94228967D01*
X135955281Y-94229213D01*
X135958721Y-94277370D01*
X135956175Y-94286037D01*
X135951042Y-94333787D01*
X135949500Y-94348127D01*
X135949500Y-94351448D01*
X135949500Y-94351449D01*
X135949500Y-95240560D01*
X135949500Y-95240578D01*
X135949501Y-95243872D01*
X135949853Y-95247152D01*
X135949854Y-95247159D01*
X135955909Y-95303483D01*
X135960605Y-95316074D01*
X135964655Y-95372718D01*
X135967574Y-95373032D01*
X135960177Y-95441834D01*
X135959500Y-95448127D01*
X135959500Y-95451448D01*
X135959500Y-95451449D01*
X135959500Y-96340560D01*
X135959500Y-96340578D01*
X135959501Y-96343872D01*
X135959853Y-96347152D01*
X135959854Y-96347159D01*
X135967574Y-96418969D01*
X135962982Y-96419462D01*
X135965840Y-96459733D01*
X135960872Y-96476636D01*
X135956401Y-96488624D01*
X135950354Y-96544867D01*
X135950000Y-96551481D01*
X135950000Y-96746000D01*
X136211931Y-96746000D01*
X136255262Y-96753817D01*
X136352517Y-96790091D01*
X136412127Y-96796500D01*
X138007872Y-96796499D01*
X138067483Y-96790091D01*
X138164736Y-96753817D01*
X138208069Y-96746000D01*
X138450000Y-96746000D01*
X138450000Y-96645500D01*
X138469685Y-96578461D01*
X138522489Y-96532706D01*
X138574000Y-96521500D01*
X141120971Y-96521500D01*
X141280452Y-96493379D01*
X141432627Y-96437992D01*
X141572873Y-96357021D01*
X141572872Y-96357021D01*
X141578000Y-96354061D01*
X141645900Y-96337588D01*
X141702000Y-96354061D01*
X141707127Y-96357021D01*
X141847373Y-96437992D01*
X141999548Y-96493379D01*
X142159029Y-96521500D01*
X142160981Y-96521500D01*
X145702256Y-96521500D01*
X145722762Y-96523764D01*
X145725665Y-96523672D01*
X145725667Y-96523673D01*
X145792872Y-96521561D01*
X145796768Y-96521500D01*
X145820448Y-96521500D01*
X145824350Y-96521500D01*
X145828313Y-96520999D01*
X145839962Y-96520080D01*
X145883627Y-96518709D01*
X145902859Y-96513120D01*
X145921918Y-96509174D01*
X145928196Y-96508381D01*
X145941792Y-96506664D01*
X145982407Y-96490582D01*
X145993444Y-96486803D01*
X146035390Y-96474618D01*
X146052629Y-96464422D01*
X146070102Y-96455862D01*
X146088732Y-96448486D01*
X146124064Y-96422814D01*
X146133830Y-96416400D01*
X146171418Y-96394171D01*
X146171417Y-96394171D01*
X146171420Y-96394170D01*
X146185585Y-96380004D01*
X146200373Y-96367373D01*
X146216587Y-96355594D01*
X146244438Y-96321926D01*
X146252279Y-96313309D01*
X146903820Y-95661769D01*
X146965142Y-95628285D01*
X147034834Y-95633269D01*
X147090767Y-95675141D01*
X147115184Y-95740605D01*
X147115500Y-95749451D01*
X147115500Y-96130858D01*
X147115500Y-96130877D01*
X147115501Y-96134008D01*
X147115820Y-96137140D01*
X147115821Y-96137141D01*
X147126000Y-96236796D01*
X147181186Y-96403334D01*
X147273288Y-96552657D01*
X147397342Y-96676711D01*
X147397344Y-96676712D01*
X147546666Y-96768814D01*
X147630214Y-96796499D01*
X147713202Y-96823999D01*
X147812858Y-96834180D01*
X147812859Y-96834180D01*
X147815991Y-96834500D01*
X148816008Y-96834499D01*
X148918797Y-96823999D01*
X148984497Y-96802227D01*
X149054324Y-96799826D01*
X149114366Y-96835557D01*
X149145559Y-96898078D01*
X149147500Y-96919934D01*
X149147500Y-97257784D01*
X149147501Y-97548500D01*
X149127817Y-97615539D01*
X149075013Y-97661294D01*
X149023501Y-97672500D01*
X147810755Y-97672500D01*
X147743716Y-97652815D01*
X147697961Y-97600011D01*
X147692824Y-97586818D01*
X147688344Y-97573031D01*
X147649561Y-97453669D01*
X147639179Y-97421715D01*
X147544533Y-97257783D01*
X147417870Y-97117110D01*
X147264730Y-97005848D01*
X147091802Y-96928855D01*
X146906648Y-96889500D01*
X146906646Y-96889500D01*
X146717354Y-96889500D01*
X146717352Y-96889500D01*
X146532197Y-96928855D01*
X146359269Y-97005848D01*
X146206129Y-97117110D01*
X146079466Y-97257783D01*
X145984820Y-97421715D01*
X145926326Y-97601742D01*
X145920067Y-97661294D01*
X145906540Y-97790000D01*
X145908843Y-97811908D01*
X145926326Y-97978257D01*
X145984820Y-98158284D01*
X146079466Y-98322216D01*
X146206128Y-98462887D01*
X146207910Y-98464182D01*
X146211584Y-98468947D01*
X146214850Y-98472574D01*
X146214573Y-98472823D01*
X146250575Y-98519512D01*
X146256554Y-98589126D01*
X146223948Y-98650921D01*
X146163109Y-98685278D01*
X146135024Y-98688500D01*
X145124419Y-98688500D01*
X145057380Y-98668815D01*
X145011625Y-98616011D01*
X145002304Y-98586036D01*
X144994383Y-98541122D01*
X144994175Y-98540550D01*
X144938991Y-98388946D01*
X144858018Y-98248704D01*
X144811998Y-98193862D01*
X144753924Y-98124653D01*
X144629867Y-98020560D01*
X144489622Y-97939593D01*
X144337449Y-97884209D01*
X144177971Y-97856089D01*
X144177970Y-97856089D01*
X144097000Y-97856089D01*
X144021051Y-97856089D01*
X144016093Y-97856089D01*
X143856557Y-97884219D01*
X143856554Y-97884219D01*
X143856554Y-97884220D01*
X143704409Y-97939594D01*
X143704376Y-97939606D01*
X143559009Y-98023531D01*
X143491109Y-98040002D01*
X143435013Y-98023531D01*
X143289622Y-97939593D01*
X143137449Y-97884209D01*
X142977971Y-97856089D01*
X142977970Y-97856089D01*
X142897000Y-97856089D01*
X142821051Y-97856089D01*
X142816093Y-97856089D01*
X142656557Y-97884219D01*
X142656554Y-97884219D01*
X142656554Y-97884220D01*
X142504409Y-97939594D01*
X142504376Y-97939606D01*
X142359009Y-98023531D01*
X142291109Y-98040002D01*
X142235013Y-98023531D01*
X142089622Y-97939593D01*
X141937449Y-97884209D01*
X141777971Y-97856089D01*
X141777970Y-97856089D01*
X141697000Y-97856089D01*
X141621051Y-97856089D01*
X141616093Y-97856089D01*
X141456557Y-97884219D01*
X141456554Y-97884219D01*
X141456554Y-97884220D01*
X141304409Y-97939594D01*
X141304376Y-97939606D01*
X141164139Y-98020569D01*
X141040083Y-98124661D01*
X140935999Y-98248700D01*
X140935991Y-98248710D01*
X140873408Y-98357102D01*
X140855019Y-98388951D01*
X140799836Y-98540550D01*
X140799628Y-98541121D01*
X140791706Y-98586038D01*
X140760679Y-98648637D01*
X140700731Y-98684526D01*
X140669592Y-98688500D01*
X138572997Y-98688500D01*
X138505958Y-98668815D01*
X138460203Y-98616011D01*
X138449707Y-98551253D01*
X138450144Y-98547183D01*
X138450500Y-98543873D01*
X138450499Y-97648128D01*
X138444091Y-97588517D01*
X138444090Y-97588515D01*
X138442426Y-97573031D01*
X138443010Y-97572968D01*
X138439145Y-97518929D01*
X138443532Y-97503986D01*
X138449646Y-97447114D01*
X138450000Y-97440518D01*
X138450000Y-97246000D01*
X138198069Y-97246000D01*
X138154737Y-97238182D01*
X138057483Y-97201909D01*
X137997873Y-97195500D01*
X137994550Y-97195500D01*
X136405439Y-97195500D01*
X136405420Y-97195500D01*
X136402128Y-97195501D01*
X136398848Y-97195853D01*
X136398840Y-97195854D01*
X136342515Y-97201909D01*
X136245264Y-97238182D01*
X136201931Y-97246000D01*
X135950000Y-97246000D01*
X135950000Y-97441294D01*
X135930315Y-97508333D01*
X135898882Y-97541615D01*
X135860927Y-97569189D01*
X135851168Y-97575599D01*
X135813579Y-97597829D01*
X135799410Y-97611998D01*
X135784622Y-97624628D01*
X135768413Y-97636405D01*
X135740572Y-97670058D01*
X135732711Y-97678696D01*
X135379208Y-98032199D01*
X135363110Y-98045096D01*
X135315096Y-98096225D01*
X135312392Y-98099016D01*
X135295628Y-98115780D01*
X135295621Y-98115787D01*
X135292880Y-98118529D01*
X135290499Y-98121597D01*
X135290490Y-98121608D01*
X135290411Y-98121711D01*
X135282842Y-98130572D01*
X135252935Y-98162420D01*
X135243285Y-98179974D01*
X135232609Y-98196228D01*
X135220326Y-98212063D01*
X135202975Y-98252158D01*
X135197838Y-98262644D01*
X135176802Y-98300907D01*
X135171821Y-98320309D01*
X135165520Y-98338711D01*
X135157561Y-98357102D01*
X135150728Y-98400242D01*
X135148360Y-98411674D01*
X135137500Y-98453977D01*
X135137500Y-98474016D01*
X135135972Y-98493414D01*
X135132840Y-98513196D01*
X135135480Y-98541120D01*
X135136950Y-98556673D01*
X135137500Y-98568343D01*
X135137500Y-99485256D01*
X135135235Y-99505766D01*
X135137439Y-99575872D01*
X135137500Y-99579767D01*
X135137500Y-99607350D01*
X135137988Y-99611219D01*
X135137989Y-99611225D01*
X135138004Y-99611343D01*
X135138918Y-99622967D01*
X135140290Y-99666626D01*
X135145879Y-99685860D01*
X135149825Y-99704916D01*
X135152335Y-99724792D01*
X135168414Y-99765404D01*
X135172197Y-99776451D01*
X135184382Y-99818391D01*
X135194580Y-99835635D01*
X135203136Y-99853100D01*
X135210514Y-99871732D01*
X135210515Y-99871733D01*
X135236180Y-99907059D01*
X135242593Y-99916822D01*
X135264826Y-99954416D01*
X135264829Y-99954419D01*
X135264830Y-99954420D01*
X135278995Y-99968585D01*
X135291627Y-99983375D01*
X135303406Y-99999587D01*
X135337058Y-100027426D01*
X135345699Y-100035289D01*
X135449229Y-100138819D01*
X135482714Y-100200142D01*
X135477730Y-100269834D01*
X135435858Y-100325767D01*
X135370394Y-100350184D01*
X135361548Y-100350500D01*
X133555439Y-100350500D01*
X133555420Y-100350500D01*
X133552128Y-100350501D01*
X133548848Y-100350853D01*
X133548840Y-100350854D01*
X133492515Y-100356909D01*
X133357669Y-100407204D01*
X133242454Y-100493454D01*
X133156204Y-100608668D01*
X133105910Y-100743515D01*
X133105909Y-100743517D01*
X133099500Y-100803127D01*
X133099500Y-100806448D01*
X133099500Y-100806449D01*
X133099500Y-102345560D01*
X133099500Y-102345578D01*
X133099501Y-102348872D01*
X133099853Y-102352152D01*
X133099854Y-102352159D01*
X133105909Y-102408484D01*
X133120997Y-102448936D01*
X133156204Y-102543331D01*
X133242454Y-102658546D01*
X133357669Y-102744796D01*
X133492517Y-102795091D01*
X133552127Y-102801500D01*
X135647872Y-102801499D01*
X135707483Y-102795091D01*
X135842331Y-102744796D01*
X135957546Y-102658546D01*
X136043796Y-102543331D01*
X136094091Y-102408483D01*
X136100500Y-102348873D01*
X136100499Y-101089450D01*
X136120184Y-101022412D01*
X136172987Y-100976657D01*
X136242146Y-100966713D01*
X136305702Y-100995738D01*
X136312178Y-101001768D01*
X137565390Y-102254981D01*
X138813078Y-103502669D01*
X138825978Y-103518770D01*
X138828095Y-103520758D01*
X138828096Y-103520759D01*
X138877105Y-103566782D01*
X138879902Y-103569493D01*
X138899411Y-103589002D01*
X138902591Y-103591469D01*
X138911453Y-103599037D01*
X138920766Y-103607783D01*
X138943300Y-103628944D01*
X138960852Y-103638593D01*
X138977120Y-103649279D01*
X138992946Y-103661555D01*
X139033028Y-103678899D01*
X139043515Y-103684037D01*
X139081789Y-103705079D01*
X139090292Y-103707261D01*
X139101190Y-103710060D01*
X139119595Y-103716360D01*
X139137986Y-103724319D01*
X139181132Y-103731152D01*
X139192550Y-103733517D01*
X139234863Y-103744382D01*
X139254898Y-103744382D01*
X139274297Y-103745909D01*
X139294078Y-103749042D01*
X139337556Y-103744932D01*
X139349226Y-103744382D01*
X140928374Y-103744382D01*
X140948880Y-103746646D01*
X140951783Y-103746554D01*
X140951785Y-103746555D01*
X141018990Y-103744443D01*
X141022886Y-103744382D01*
X141046566Y-103744382D01*
X141050468Y-103744382D01*
X141054439Y-103743880D01*
X141066080Y-103742962D01*
X141093806Y-103742091D01*
X141110709Y-103741561D01*
X141114601Y-103741500D01*
X145784012Y-103741500D01*
X145851051Y-103761185D01*
X145896806Y-103813989D01*
X145907332Y-103878464D01*
X145906540Y-103886000D01*
X145912721Y-103944809D01*
X145926326Y-104074257D01*
X145984820Y-104254284D01*
X146079466Y-104418216D01*
X146152836Y-104499701D01*
X146183066Y-104562692D01*
X146182496Y-104582358D01*
X146183835Y-104582316D01*
X146186439Y-104665177D01*
X146186500Y-104669072D01*
X146186500Y-104696655D01*
X146186988Y-104700524D01*
X146186989Y-104700530D01*
X146187004Y-104700648D01*
X146187918Y-104712272D01*
X146189290Y-104755931D01*
X146194879Y-104775165D01*
X146198825Y-104794221D01*
X146201335Y-104814097D01*
X146217414Y-104854709D01*
X146221197Y-104865756D01*
X146233382Y-104907696D01*
X146243580Y-104924940D01*
X146252136Y-104942405D01*
X146259514Y-104961037D01*
X146259515Y-104961038D01*
X146285180Y-104996364D01*
X146291593Y-105006127D01*
X146313826Y-105043721D01*
X146313829Y-105043724D01*
X146313830Y-105043725D01*
X146327995Y-105057890D01*
X146340627Y-105072680D01*
X146352406Y-105088892D01*
X146386058Y-105116731D01*
X146394699Y-105124594D01*
X148467891Y-107197787D01*
X148480791Y-107213888D01*
X148531918Y-107261900D01*
X148534715Y-107264611D01*
X148554224Y-107284120D01*
X148557404Y-107286587D01*
X148566266Y-107294155D01*
X148598113Y-107324062D01*
X148615665Y-107333711D01*
X148631933Y-107344397D01*
X148647759Y-107356673D01*
X148687841Y-107374017D01*
X148698328Y-107379155D01*
X148736602Y-107400197D01*
X148745105Y-107402379D01*
X148756003Y-107405178D01*
X148774408Y-107411478D01*
X148792799Y-107419437D01*
X148835945Y-107426270D01*
X148847363Y-107428635D01*
X148889676Y-107439500D01*
X148909711Y-107439500D01*
X148929110Y-107441027D01*
X148948891Y-107444160D01*
X148992369Y-107440050D01*
X149004039Y-107439500D01*
X151636251Y-107439500D01*
X151703290Y-107459185D01*
X151749045Y-107511989D01*
X151758989Y-107581147D01*
X151729964Y-107644703D01*
X151702820Y-107664821D01*
X151703813Y-107666188D01*
X151540129Y-107785110D01*
X151413466Y-107925783D01*
X151318820Y-108089715D01*
X151260326Y-108269742D01*
X151240540Y-108457999D01*
X151260326Y-108646257D01*
X151318820Y-108826284D01*
X151413466Y-108990216D01*
X151540129Y-109130889D01*
X151693269Y-109242151D01*
X151866197Y-109319144D01*
X152051352Y-109358500D01*
X152051354Y-109358500D01*
X152240648Y-109358500D01*
X152364083Y-109332262D01*
X152425803Y-109319144D01*
X152598730Y-109242151D01*
X152603755Y-109238500D01*
X152741833Y-109138182D01*
X152807639Y-109114702D01*
X152814718Y-109114500D01*
X153479500Y-109114500D01*
X153546539Y-109134185D01*
X153592294Y-109186989D01*
X153603500Y-109238500D01*
X153603500Y-109251720D01*
X153618313Y-109364236D01*
X153659317Y-109463228D01*
X153676197Y-109503981D01*
X153676302Y-109504233D01*
X153768549Y-109624451D01*
X153888767Y-109716698D01*
X154028764Y-109774687D01*
X154141280Y-109789500D01*
X154145333Y-109789500D01*
X154362667Y-109789500D01*
X154366720Y-109789500D01*
X154479236Y-109774687D01*
X154479238Y-109774686D01*
X154489729Y-109773305D01*
X154522099Y-109773305D01*
X154603999Y-109784086D01*
X154606155Y-109782195D01*
X154623685Y-109722497D01*
X154652508Y-109691164D01*
X154678515Y-109671208D01*
X154743681Y-109646015D01*
X154812126Y-109660053D01*
X154829476Y-109671202D01*
X154855489Y-109691163D01*
X154896690Y-109747589D01*
X154902878Y-109783102D01*
X154904000Y-109784086D01*
X154985899Y-109773305D01*
X155018270Y-109773305D01*
X155028762Y-109774686D01*
X155028764Y-109774687D01*
X155141280Y-109789500D01*
X155145333Y-109789500D01*
X155362667Y-109789500D01*
X155366720Y-109789500D01*
X155479236Y-109774687D01*
X155479238Y-109774685D01*
X155487814Y-109773557D01*
X155520186Y-109773557D01*
X155528761Y-109774685D01*
X155528764Y-109774687D01*
X155641280Y-109789500D01*
X155645333Y-109789500D01*
X155862667Y-109789500D01*
X155866720Y-109789500D01*
X155979236Y-109774687D01*
X155979238Y-109774685D01*
X155987814Y-109773557D01*
X156020186Y-109773557D01*
X156028761Y-109774685D01*
X156028764Y-109774687D01*
X156141280Y-109789500D01*
X156145333Y-109789500D01*
X156362667Y-109789500D01*
X156366720Y-109789500D01*
X156479236Y-109774687D01*
X156479238Y-109774685D01*
X156487814Y-109773557D01*
X156520186Y-109773557D01*
X156528761Y-109774685D01*
X156528764Y-109774687D01*
X156641280Y-109789500D01*
X156645333Y-109789500D01*
X156862667Y-109789500D01*
X156866720Y-109789500D01*
X156979236Y-109774687D01*
X156979238Y-109774685D01*
X156987814Y-109773557D01*
X157020186Y-109773557D01*
X157028761Y-109774685D01*
X157028764Y-109774687D01*
X157141280Y-109789500D01*
X157145333Y-109789500D01*
X157362667Y-109789500D01*
X157366720Y-109789500D01*
X157479236Y-109774687D01*
X157479238Y-109774685D01*
X157487814Y-109773557D01*
X157520186Y-109773557D01*
X157528761Y-109774685D01*
X157528764Y-109774687D01*
X157641280Y-109789500D01*
X157645333Y-109789500D01*
X157862667Y-109789500D01*
X157866720Y-109789500D01*
X157979236Y-109774687D01*
X157979238Y-109774685D01*
X157987814Y-109773557D01*
X158020186Y-109773557D01*
X158028761Y-109774685D01*
X158028764Y-109774687D01*
X158141280Y-109789500D01*
X158145333Y-109789500D01*
X158362667Y-109789500D01*
X158366720Y-109789500D01*
X158479236Y-109774687D01*
X158479238Y-109774685D01*
X158487814Y-109773557D01*
X158520186Y-109773557D01*
X158528761Y-109774685D01*
X158528764Y-109774687D01*
X158641280Y-109789500D01*
X158645333Y-109789500D01*
X158862667Y-109789500D01*
X158866720Y-109789500D01*
X158979236Y-109774687D01*
X158979238Y-109774685D01*
X158987814Y-109773557D01*
X159020186Y-109773557D01*
X159028761Y-109774685D01*
X159028764Y-109774687D01*
X159141280Y-109789500D01*
X159145333Y-109789500D01*
X159362667Y-109789500D01*
X159366720Y-109789500D01*
X159479236Y-109774687D01*
X159479238Y-109774685D01*
X159487814Y-109773557D01*
X159520186Y-109773557D01*
X159528761Y-109774685D01*
X159528764Y-109774687D01*
X159641280Y-109789500D01*
X159645333Y-109789500D01*
X159862667Y-109789500D01*
X159866720Y-109789500D01*
X159979236Y-109774687D01*
X159979238Y-109774685D01*
X159987814Y-109773557D01*
X160020186Y-109773557D01*
X160028761Y-109774685D01*
X160028764Y-109774687D01*
X160141280Y-109789500D01*
X160145333Y-109789500D01*
X160362667Y-109789500D01*
X160366720Y-109789500D01*
X160479236Y-109774687D01*
X160479238Y-109774685D01*
X160487814Y-109773557D01*
X160520186Y-109773557D01*
X160528761Y-109774685D01*
X160528764Y-109774687D01*
X160641280Y-109789500D01*
X160645333Y-109789500D01*
X160862667Y-109789500D01*
X160866720Y-109789500D01*
X160979236Y-109774687D01*
X160979238Y-109774685D01*
X160987814Y-109773557D01*
X161020186Y-109773557D01*
X161028761Y-109774685D01*
X161028764Y-109774687D01*
X161141280Y-109789500D01*
X161145333Y-109789500D01*
X161362667Y-109789500D01*
X161366720Y-109789500D01*
X161479236Y-109774687D01*
X161479238Y-109774685D01*
X161487814Y-109773557D01*
X161520186Y-109773557D01*
X161528761Y-109774685D01*
X161528764Y-109774687D01*
X161641280Y-109789500D01*
X161645333Y-109789500D01*
X161862667Y-109789500D01*
X161866720Y-109789500D01*
X161979236Y-109774687D01*
X161979238Y-109774685D01*
X161987814Y-109773557D01*
X162020186Y-109773557D01*
X162028761Y-109774685D01*
X162028764Y-109774687D01*
X162141280Y-109789500D01*
X162145333Y-109789500D01*
X162362667Y-109789500D01*
X162366720Y-109789500D01*
X162479236Y-109774687D01*
X162479238Y-109774685D01*
X162487814Y-109773557D01*
X162520186Y-109773557D01*
X162528761Y-109774685D01*
X162528764Y-109774687D01*
X162641280Y-109789500D01*
X162645333Y-109789500D01*
X162862667Y-109789500D01*
X162866720Y-109789500D01*
X162979236Y-109774687D01*
X162979238Y-109774685D01*
X162987814Y-109773557D01*
X163020186Y-109773557D01*
X163028761Y-109774685D01*
X163028764Y-109774687D01*
X163141280Y-109789500D01*
X163145333Y-109789500D01*
X163362667Y-109789500D01*
X163366720Y-109789500D01*
X163479236Y-109774687D01*
X163479238Y-109774685D01*
X163487814Y-109773557D01*
X163520186Y-109773557D01*
X163528761Y-109774685D01*
X163528764Y-109774687D01*
X163641280Y-109789500D01*
X163645333Y-109789500D01*
X163862667Y-109789500D01*
X163866720Y-109789500D01*
X163979236Y-109774687D01*
X163979238Y-109774685D01*
X163987814Y-109773557D01*
X164020186Y-109773557D01*
X164028761Y-109774685D01*
X164028764Y-109774687D01*
X164141280Y-109789500D01*
X164145333Y-109789500D01*
X164362667Y-109789500D01*
X164366720Y-109789500D01*
X164479236Y-109774687D01*
X164479238Y-109774685D01*
X164487814Y-109773557D01*
X164520186Y-109773557D01*
X164528761Y-109774685D01*
X164528764Y-109774687D01*
X164641280Y-109789500D01*
X164645333Y-109789500D01*
X164862667Y-109789500D01*
X164866720Y-109789500D01*
X164979236Y-109774687D01*
X164979238Y-109774685D01*
X164987814Y-109773557D01*
X165020186Y-109773557D01*
X165028761Y-109774685D01*
X165028764Y-109774687D01*
X165141280Y-109789500D01*
X165145333Y-109789500D01*
X165362667Y-109789500D01*
X165366720Y-109789500D01*
X165479236Y-109774687D01*
X165479238Y-109774685D01*
X165487814Y-109773557D01*
X165520186Y-109773557D01*
X165528761Y-109774685D01*
X165528764Y-109774687D01*
X165641280Y-109789500D01*
X165645333Y-109789500D01*
X165862667Y-109789500D01*
X165866720Y-109789500D01*
X165979236Y-109774687D01*
X165979238Y-109774686D01*
X165989729Y-109773305D01*
X166022099Y-109773305D01*
X166103999Y-109784086D01*
X166106155Y-109782195D01*
X166123685Y-109722497D01*
X166152512Y-109691161D01*
X166204514Y-109651258D01*
X166269683Y-109626065D01*
X166338128Y-109640103D01*
X166388117Y-109688917D01*
X166404000Y-109749635D01*
X166404000Y-109784086D01*
X166404001Y-109784087D01*
X166479103Y-109774201D01*
X166618979Y-109716262D01*
X166739094Y-109624094D01*
X166831261Y-109503981D01*
X166874365Y-109399917D01*
X166918206Y-109345513D01*
X166984500Y-109323448D01*
X167052199Y-109340727D01*
X167096314Y-109385369D01*
X167161466Y-109498215D01*
X167288129Y-109638889D01*
X167441269Y-109750151D01*
X167614197Y-109827144D01*
X167799352Y-109866500D01*
X167799354Y-109866500D01*
X167988648Y-109866500D01*
X168112084Y-109840262D01*
X168173803Y-109827144D01*
X168346730Y-109750151D01*
X168392774Y-109716698D01*
X168499870Y-109638889D01*
X168626533Y-109498216D01*
X168721179Y-109334284D01*
X168752301Y-109238500D01*
X168779674Y-109154256D01*
X168799460Y-108966000D01*
X168779674Y-108777744D01*
X168736951Y-108646256D01*
X168721179Y-108597715D01*
X168626535Y-108433786D01*
X168607462Y-108412604D01*
X168499871Y-108293112D01*
X168466768Y-108269061D01*
X168424103Y-108213730D01*
X168415655Y-108168744D01*
X168415655Y-108167136D01*
X168417919Y-108146632D01*
X168415716Y-108076505D01*
X168415655Y-108072611D01*
X168415655Y-108048934D01*
X168415655Y-108045043D01*
X168415153Y-108041076D01*
X168414236Y-108029420D01*
X168414211Y-108028631D01*
X168412865Y-107985766D01*
X168407273Y-107966519D01*
X168403329Y-107947478D01*
X168400819Y-107927601D01*
X168384734Y-107886976D01*
X168380963Y-107875961D01*
X168368773Y-107834003D01*
X168358569Y-107816748D01*
X168350016Y-107799288D01*
X168344403Y-107785112D01*
X168342641Y-107780661D01*
X168316963Y-107745318D01*
X168310556Y-107735564D01*
X168288325Y-107697973D01*
X168274161Y-107683809D01*
X168261529Y-107669020D01*
X168255980Y-107661382D01*
X168232502Y-107595578D01*
X168248328Y-107527525D01*
X168298434Y-107478830D01*
X168356300Y-107464500D01*
X168687667Y-107464500D01*
X168691720Y-107464500D01*
X168804236Y-107449687D01*
X168944233Y-107391698D01*
X169064451Y-107299451D01*
X169156698Y-107179233D01*
X169214687Y-107039236D01*
X169229500Y-106926720D01*
X169229500Y-106701280D01*
X169214687Y-106588764D01*
X169214685Y-106588761D01*
X169213557Y-106580186D01*
X169213557Y-106547814D01*
X169214685Y-106539238D01*
X169214687Y-106539236D01*
X169229500Y-106426720D01*
X169229500Y-106361655D01*
X169249185Y-106294616D01*
X169301989Y-106248861D01*
X169353500Y-106237655D01*
X169528803Y-106237655D01*
X169713955Y-106198300D01*
X169713956Y-106198299D01*
X169713958Y-106198299D01*
X169778444Y-106169587D01*
X169847691Y-106160302D01*
X169910968Y-106189930D01*
X169948182Y-106249064D01*
X169948358Y-106316040D01*
X169873318Y-106586310D01*
X169871874Y-106592869D01*
X169815069Y-106939369D01*
X169814343Y-106946041D01*
X169795335Y-107296643D01*
X169795335Y-107303356D01*
X169814343Y-107653958D01*
X169815069Y-107660630D01*
X169871874Y-108007130D01*
X169873317Y-108013684D01*
X169967251Y-108352001D01*
X169969396Y-108358368D01*
X170099360Y-108684552D01*
X170102169Y-108690626D01*
X170266649Y-109000868D01*
X170270102Y-109006606D01*
X170467147Y-109297225D01*
X170471207Y-109302566D01*
X170596441Y-109450003D01*
X170596442Y-109450004D01*
X171802266Y-108244179D01*
X171965130Y-108434870D01*
X172155818Y-108597732D01*
X170947255Y-109806295D01*
X170958047Y-109816518D01*
X170963157Y-109820858D01*
X171242694Y-110033357D01*
X171248240Y-110037117D01*
X171549099Y-110218137D01*
X171555038Y-110221285D01*
X171873695Y-110368712D01*
X171879937Y-110371199D01*
X172212684Y-110483315D01*
X172219129Y-110485104D01*
X172533934Y-110554399D01*
X172595174Y-110588035D01*
X172628508Y-110649441D01*
X172623352Y-110719120D01*
X172581343Y-110774950D01*
X172515818Y-110799205D01*
X172507277Y-110799500D01*
X135592723Y-110799500D01*
X135525684Y-110779815D01*
X135479929Y-110727011D01*
X135469985Y-110657853D01*
X135499010Y-110594297D01*
X135557788Y-110556523D01*
X135566066Y-110554399D01*
X135880870Y-110485104D01*
X135887315Y-110483315D01*
X136220062Y-110371199D01*
X136226304Y-110368712D01*
X136544961Y-110221285D01*
X136550900Y-110218137D01*
X136851759Y-110037117D01*
X136857305Y-110033357D01*
X137136846Y-109820856D01*
X137141950Y-109816519D01*
X137152742Y-109806296D01*
X137152743Y-109806295D01*
X135944180Y-108597733D01*
X136134870Y-108434870D01*
X136297733Y-108244180D01*
X137503556Y-109450003D01*
X137503557Y-109450003D01*
X137628792Y-109302566D01*
X137632852Y-109297225D01*
X137829897Y-109006606D01*
X137833350Y-109000868D01*
X137997830Y-108690626D01*
X138000639Y-108684552D01*
X138130603Y-108358368D01*
X138132748Y-108352001D01*
X138226682Y-108013684D01*
X138228127Y-108007120D01*
X138232682Y-107979333D01*
X138262951Y-107916360D01*
X138322460Y-107879749D01*
X138392316Y-107881123D01*
X138450340Y-107920046D01*
X138475254Y-107968949D01*
X138529936Y-108184878D01*
X138529937Y-108184881D01*
X138561493Y-108256822D01*
X138629825Y-108412604D01*
X138629827Y-108412607D01*
X138765836Y-108620785D01*
X138934256Y-108803738D01*
X138934259Y-108803740D01*
X139130485Y-108956470D01*
X139130487Y-108956471D01*
X139130491Y-108956474D01*
X139349190Y-109074828D01*
X139584386Y-109155571D01*
X139829665Y-109196500D01*
X140078335Y-109196500D01*
X140323614Y-109155571D01*
X140558810Y-109074828D01*
X140777509Y-108956474D01*
X140973744Y-108803738D01*
X141142164Y-108620785D01*
X141278173Y-108412607D01*
X141378063Y-108184881D01*
X141439108Y-107943821D01*
X141459643Y-107696000D01*
X141439108Y-107448179D01*
X141378063Y-107207119D01*
X141278173Y-106979393D01*
X141142164Y-106771215D01*
X140973744Y-106588262D01*
X140933944Y-106557284D01*
X140777514Y-106435529D01*
X140777510Y-106435526D01*
X140777509Y-106435526D01*
X140558810Y-106317172D01*
X140558806Y-106317170D01*
X140558805Y-106317170D01*
X140323615Y-106236429D01*
X140078335Y-106195500D01*
X139829665Y-106195500D01*
X139584384Y-106236429D01*
X139349194Y-106317170D01*
X139349190Y-106317171D01*
X139349190Y-106317172D01*
X139335618Y-106324517D01*
X139130485Y-106435529D01*
X138934259Y-106588259D01*
X138934256Y-106588261D01*
X138934256Y-106588262D01*
X138765836Y-106771215D01*
X138734576Y-106819062D01*
X138629825Y-106979395D01*
X138534308Y-107197153D01*
X138489352Y-107250639D01*
X138422616Y-107271329D01*
X138355288Y-107252654D01*
X138308745Y-107200544D01*
X138296934Y-107154056D01*
X138285656Y-106946041D01*
X138284930Y-106939369D01*
X138228125Y-106592869D01*
X138226682Y-106586315D01*
X138132748Y-106247998D01*
X138130603Y-106241631D01*
X138000639Y-105915447D01*
X137997830Y-105909373D01*
X137833350Y-105599131D01*
X137829897Y-105593393D01*
X137632852Y-105302774D01*
X137628792Y-105297433D01*
X137503557Y-105149995D01*
X137503556Y-105149994D01*
X136297732Y-106355818D01*
X136134870Y-106165130D01*
X135944179Y-106002266D01*
X137152743Y-104793703D01*
X137141942Y-104783473D01*
X137136842Y-104779141D01*
X136857305Y-104566642D01*
X136851759Y-104562882D01*
X136550900Y-104381862D01*
X136544961Y-104378714D01*
X136226304Y-104231287D01*
X136220062Y-104228800D01*
X135887315Y-104116684D01*
X135880870Y-104114895D01*
X135537946Y-104039411D01*
X135531322Y-104038325D01*
X135182259Y-104000363D01*
X135175563Y-104000000D01*
X134824437Y-104000000D01*
X134817740Y-104000363D01*
X134468677Y-104038325D01*
X134462053Y-104039411D01*
X134119129Y-104114895D01*
X134112684Y-104116684D01*
X133779937Y-104228800D01*
X133773695Y-104231287D01*
X133455038Y-104378714D01*
X133449099Y-104381862D01*
X133148240Y-104562882D01*
X133142694Y-104566642D01*
X132863149Y-104779146D01*
X132858054Y-104783474D01*
X132847256Y-104793702D01*
X132847255Y-104793704D01*
X134055818Y-106002267D01*
X133865130Y-106165130D01*
X133702266Y-106355819D01*
X132496442Y-105149994D01*
X132496441Y-105149995D01*
X132371207Y-105297433D01*
X132367147Y-105302774D01*
X132170102Y-105593393D01*
X132166649Y-105599131D01*
X132002169Y-105909373D01*
X131999360Y-105915447D01*
X131869396Y-106241631D01*
X131867251Y-106247998D01*
X131773317Y-106586315D01*
X131771870Y-106592887D01*
X131746866Y-106745410D01*
X131716595Y-106808382D01*
X131657085Y-106844991D01*
X131587229Y-106843615D01*
X131529206Y-106804690D01*
X131501438Y-106740575D01*
X131500500Y-106725349D01*
X131500500Y-69774650D01*
X131520185Y-69707611D01*
X131572989Y-69661856D01*
X131642147Y-69651912D01*
X131705703Y-69680937D01*
G37*
%TD.AperFunction*%
%TA.AperFunction,Conductor*%
G36*
X167109203Y-108288476D02*
G01*
X167115666Y-108294494D01*
X167128337Y-108307165D01*
X167161821Y-108368486D01*
X167164655Y-108394844D01*
X167164655Y-108395036D01*
X167148042Y-108457036D01*
X167147486Y-108458000D01*
X167072912Y-108587164D01*
X167022344Y-108635379D01*
X166953737Y-108648601D01*
X166929755Y-108639000D01*
X166529765Y-108639000D01*
X166462726Y-108619315D01*
X166416971Y-108566511D01*
X166407027Y-108497353D01*
X166407292Y-108495603D01*
X166409159Y-108483809D01*
X166409160Y-108483804D01*
X166408296Y-108474668D01*
X166421584Y-108406076D01*
X166469847Y-108355555D01*
X166531746Y-108339000D01*
X166904000Y-108339000D01*
X166921953Y-108321046D01*
X166923685Y-108315150D01*
X166976489Y-108269395D01*
X167045647Y-108259451D01*
X167109203Y-108288476D01*
G37*
%TD.AperFunction*%
%TA.AperFunction,Conductor*%
G36*
X165812126Y-94310053D02*
G01*
X165829476Y-94321202D01*
X165855489Y-94341163D01*
X165896690Y-94397589D01*
X165902878Y-94433102D01*
X165904000Y-94434086D01*
X165985899Y-94423305D01*
X166018270Y-94423305D01*
X166028762Y-94424686D01*
X166028764Y-94424687D01*
X166070686Y-94430206D01*
X166134582Y-94458473D01*
X166173053Y-94516798D01*
X166178500Y-94553145D01*
X166178500Y-101471941D01*
X166176235Y-101492451D01*
X166178439Y-101562557D01*
X166178500Y-101566452D01*
X166178500Y-101594035D01*
X166178988Y-101597904D01*
X166178989Y-101597910D01*
X166179004Y-101598028D01*
X166179918Y-101609652D01*
X166181290Y-101653311D01*
X166186879Y-101672545D01*
X166190825Y-101691601D01*
X166193335Y-101711477D01*
X166209414Y-101752089D01*
X166213197Y-101763136D01*
X166225382Y-101805076D01*
X166235580Y-101822320D01*
X166244136Y-101839785D01*
X166251514Y-101858417D01*
X166251515Y-101858418D01*
X166277180Y-101893744D01*
X166283593Y-101903507D01*
X166305826Y-101941101D01*
X166305829Y-101941104D01*
X166305830Y-101941105D01*
X166319995Y-101955270D01*
X166332627Y-101970060D01*
X166344406Y-101986272D01*
X166378058Y-102014111D01*
X166386699Y-102021974D01*
X166562512Y-102197787D01*
X166575412Y-102213888D01*
X166577527Y-102215874D01*
X166577529Y-102215877D01*
X166589384Y-102227010D01*
X166624779Y-102287251D01*
X166628500Y-102317400D01*
X166628500Y-102426720D01*
X166629028Y-102430736D01*
X166629029Y-102430740D01*
X166644442Y-102547812D01*
X166644442Y-102580181D01*
X166629029Y-102697257D01*
X166629029Y-102697262D01*
X166628500Y-102701280D01*
X166628500Y-102926720D01*
X166629028Y-102930736D01*
X166629029Y-102930740D01*
X166644442Y-103047814D01*
X166644442Y-103080184D01*
X166629029Y-103197259D01*
X166628500Y-103201280D01*
X166628500Y-103426720D01*
X166629028Y-103430736D01*
X166629029Y-103430740D01*
X166644508Y-103548315D01*
X166633742Y-103617350D01*
X166587362Y-103669606D01*
X166521569Y-103688500D01*
X163865744Y-103688500D01*
X163845236Y-103686235D01*
X163775113Y-103688439D01*
X163771219Y-103688500D01*
X163743650Y-103688500D01*
X163739794Y-103688986D01*
X163739791Y-103688987D01*
X163739735Y-103688994D01*
X163739662Y-103689003D01*
X163728043Y-103689917D01*
X163684372Y-103691289D01*
X163665128Y-103696880D01*
X163646084Y-103700824D01*
X163626208Y-103703335D01*
X163585600Y-103719413D01*
X163574554Y-103723194D01*
X163565707Y-103725765D01*
X163532608Y-103735382D01*
X163515355Y-103745585D01*
X163497892Y-103754139D01*
X163479268Y-103761513D01*
X163443934Y-103787183D01*
X163434177Y-103793592D01*
X163396581Y-103815827D01*
X163382410Y-103829998D01*
X163367622Y-103842628D01*
X163351411Y-103854406D01*
X163323572Y-103888058D01*
X163315710Y-103896697D01*
X163053595Y-104158814D01*
X162812073Y-104400336D01*
X162750750Y-104433821D01*
X162724392Y-104436655D01*
X162692507Y-104436655D01*
X162507352Y-104476010D01*
X162334424Y-104553003D01*
X162181284Y-104664265D01*
X162054621Y-104804938D01*
X161959975Y-104968870D01*
X161901481Y-105148897D01*
X161881695Y-105337155D01*
X161901481Y-105525412D01*
X161959975Y-105705439D01*
X162054621Y-105869371D01*
X162181284Y-106010044D01*
X162334424Y-106121306D01*
X162507352Y-106198299D01*
X162692507Y-106237655D01*
X162692509Y-106237655D01*
X162881803Y-106237655D01*
X163005239Y-106211417D01*
X163066958Y-106198299D01*
X163239885Y-106121306D01*
X163239884Y-106121305D01*
X163393025Y-106010044D01*
X163519688Y-105869371D01*
X163614334Y-105705439D01*
X163616991Y-105697262D01*
X163672829Y-105525411D01*
X163692615Y-105337155D01*
X163692614Y-105337150D01*
X163693683Y-105326985D01*
X163720267Y-105262370D01*
X163729304Y-105252284D01*
X164005772Y-104975816D01*
X164067094Y-104942334D01*
X164093452Y-104939500D01*
X166521437Y-104939500D01*
X166588476Y-104959185D01*
X166634231Y-105011989D01*
X166644366Y-105047241D01*
X166644432Y-105047740D01*
X166644442Y-105080184D01*
X166634270Y-105157450D01*
X166628500Y-105201280D01*
X166628500Y-105426720D01*
X166629028Y-105430734D01*
X166629029Y-105430742D01*
X166644441Y-105547815D01*
X166644441Y-105580183D01*
X166629029Y-105697257D01*
X166629029Y-105697262D01*
X166628500Y-105701280D01*
X166628500Y-105926720D01*
X166629028Y-105930736D01*
X166629029Y-105930740D01*
X166644442Y-106047812D01*
X166644442Y-106080181D01*
X166629029Y-106197257D01*
X166629029Y-106197262D01*
X166628500Y-106201280D01*
X166628500Y-106426720D01*
X166629028Y-106430736D01*
X166629029Y-106430740D01*
X166644442Y-106547814D01*
X166644442Y-106580183D01*
X166637794Y-106630684D01*
X166609529Y-106694581D01*
X166551204Y-106733053D01*
X166514855Y-106738500D01*
X166096055Y-106738500D01*
X166075551Y-106736236D01*
X166005459Y-106738439D01*
X166001565Y-106738500D01*
X165973965Y-106738500D01*
X165970104Y-106738987D01*
X165970093Y-106738988D01*
X165969960Y-106739005D01*
X165958344Y-106739918D01*
X165914683Y-106741290D01*
X165895444Y-106746880D01*
X165876395Y-106750825D01*
X165856523Y-106753335D01*
X165815908Y-106769415D01*
X165804864Y-106773196D01*
X165762926Y-106785382D01*
X165745679Y-106795581D01*
X165728215Y-106804136D01*
X165709582Y-106811514D01*
X165674241Y-106837189D01*
X165664483Y-106843599D01*
X165626894Y-106865829D01*
X165612725Y-106879998D01*
X165597937Y-106892628D01*
X165581728Y-106904405D01*
X165553887Y-106938058D01*
X165546026Y-106946696D01*
X165395208Y-107097514D01*
X165379112Y-107110410D01*
X165342513Y-107149384D01*
X165282271Y-107184779D01*
X165252121Y-107188500D01*
X165141280Y-107188500D01*
X165137266Y-107189028D01*
X165137257Y-107189029D01*
X165020184Y-107204441D01*
X164987816Y-107204441D01*
X164870742Y-107189029D01*
X164870734Y-107189028D01*
X164866720Y-107188500D01*
X164641280Y-107188500D01*
X164637266Y-107189028D01*
X164637257Y-107189029D01*
X164520184Y-107204441D01*
X164487816Y-107204441D01*
X164370742Y-107189029D01*
X164370734Y-107189028D01*
X164366720Y-107188500D01*
X164141280Y-107188500D01*
X164137266Y-107189028D01*
X164137257Y-107189029D01*
X164020184Y-107204441D01*
X163987816Y-107204441D01*
X163870742Y-107189029D01*
X163870734Y-107189028D01*
X163866720Y-107188500D01*
X163641280Y-107188500D01*
X163637266Y-107189028D01*
X163637257Y-107189029D01*
X163520184Y-107204441D01*
X163487816Y-107204441D01*
X163370742Y-107189029D01*
X163370734Y-107189028D01*
X163366720Y-107188500D01*
X163141280Y-107188500D01*
X163137266Y-107189028D01*
X163137257Y-107189029D01*
X163020184Y-107204441D01*
X162987816Y-107204441D01*
X162870742Y-107189029D01*
X162870734Y-107189028D01*
X162866720Y-107188500D01*
X162641280Y-107188500D01*
X162637266Y-107189028D01*
X162637257Y-107189029D01*
X162520184Y-107204441D01*
X162487816Y-107204441D01*
X162370742Y-107189029D01*
X162370734Y-107189028D01*
X162366720Y-107188500D01*
X162141280Y-107188500D01*
X162137266Y-107189028D01*
X162137257Y-107189029D01*
X162020184Y-107204441D01*
X161987816Y-107204441D01*
X161870742Y-107189029D01*
X161870734Y-107189028D01*
X161866720Y-107188500D01*
X161641280Y-107188500D01*
X161637266Y-107189028D01*
X161637257Y-107189029D01*
X161520184Y-107204441D01*
X161487816Y-107204441D01*
X161370742Y-107189029D01*
X161370734Y-107189028D01*
X161366720Y-107188500D01*
X161141280Y-107188500D01*
X161137266Y-107189028D01*
X161137257Y-107189029D01*
X161020184Y-107204441D01*
X160987816Y-107204441D01*
X160870742Y-107189029D01*
X160870734Y-107189028D01*
X160866720Y-107188500D01*
X160862667Y-107188500D01*
X160789452Y-107188500D01*
X160722413Y-107168815D01*
X160676658Y-107116011D01*
X160666131Y-107077462D01*
X160665729Y-107073635D01*
X160649625Y-106920412D01*
X160605751Y-106785382D01*
X160591130Y-106740383D01*
X160496484Y-106576451D01*
X160369821Y-106435778D01*
X160216681Y-106324516D01*
X160043753Y-106247523D01*
X159858599Y-106208168D01*
X159858597Y-106208168D01*
X159669305Y-106208168D01*
X159669303Y-106208168D01*
X159484148Y-106247523D01*
X159311217Y-106324518D01*
X159308171Y-106326731D01*
X159242363Y-106350206D01*
X159174310Y-106334376D01*
X159162408Y-106326727D01*
X159132980Y-106305346D01*
X158960055Y-106228355D01*
X158774901Y-106189000D01*
X158774899Y-106189000D01*
X158585607Y-106189000D01*
X158585605Y-106189000D01*
X158400450Y-106228355D01*
X158227522Y-106305348D01*
X158074382Y-106416610D01*
X157972495Y-106529768D01*
X157913008Y-106566417D01*
X157843151Y-106565086D01*
X157788195Y-106529769D01*
X157764521Y-106503477D01*
X157692081Y-106423024D01*
X157683253Y-106416610D01*
X157538940Y-106311760D01*
X157366012Y-106234767D01*
X157180858Y-106195412D01*
X157180856Y-106195412D01*
X156991564Y-106195412D01*
X156991562Y-106195412D01*
X156806407Y-106234767D01*
X156633482Y-106311759D01*
X156539996Y-106379681D01*
X156480339Y-106423024D01*
X156474611Y-106429384D01*
X156415126Y-106466033D01*
X156382463Y-106470412D01*
X155749832Y-106470412D01*
X155729324Y-106468147D01*
X155659201Y-106470351D01*
X155655307Y-106470412D01*
X155627738Y-106470412D01*
X155623882Y-106470898D01*
X155623879Y-106470899D01*
X155623823Y-106470906D01*
X155623750Y-106470915D01*
X155612131Y-106471829D01*
X155568460Y-106473201D01*
X155549216Y-106478792D01*
X155530172Y-106482736D01*
X155510296Y-106485247D01*
X155469688Y-106501325D01*
X155458642Y-106505106D01*
X155416698Y-106517294D01*
X155416695Y-106517295D01*
X155399453Y-106527491D01*
X155381992Y-106536045D01*
X155363355Y-106543424D01*
X155328019Y-106569097D01*
X155318262Y-106575507D01*
X155280668Y-106597741D01*
X155266501Y-106611908D01*
X155251712Y-106624538D01*
X155235501Y-106636316D01*
X155207660Y-106669970D01*
X155199799Y-106678609D01*
X154870211Y-107008197D01*
X154854112Y-107021095D01*
X154806097Y-107072224D01*
X154803393Y-107075015D01*
X154786628Y-107091780D01*
X154786621Y-107091787D01*
X154783880Y-107094529D01*
X154781499Y-107097597D01*
X154781490Y-107097608D01*
X154781411Y-107097711D01*
X154773842Y-107106572D01*
X154764979Y-107116011D01*
X154743938Y-107138418D01*
X154743937Y-107138419D01*
X154733218Y-107149835D01*
X154729604Y-107146442D01*
X154702440Y-107173715D01*
X154643016Y-107188944D01*
X154649421Y-107188734D01*
X154637288Y-107189529D01*
X154522099Y-107204694D01*
X154489729Y-107204694D01*
X154370740Y-107189029D01*
X154370736Y-107189028D01*
X154366720Y-107188500D01*
X154141280Y-107188500D01*
X154137263Y-107189028D01*
X154137260Y-107189029D01*
X154028762Y-107203313D01*
X154025238Y-107204773D01*
X153955769Y-107212240D01*
X153893290Y-107180964D01*
X153857639Y-107120875D01*
X153860134Y-107051049D01*
X153863218Y-107042782D01*
X153864687Y-107039236D01*
X153879500Y-106926720D01*
X153879500Y-106701280D01*
X153864687Y-106588764D01*
X153864685Y-106588761D01*
X153863557Y-106580186D01*
X153863557Y-106547814D01*
X153864685Y-106539238D01*
X153864687Y-106539236D01*
X153879500Y-106426720D01*
X153879500Y-106201280D01*
X153864687Y-106088764D01*
X153864685Y-106088761D01*
X153863557Y-106080186D01*
X153863557Y-106047814D01*
X153864685Y-106039238D01*
X153864687Y-106039236D01*
X153879500Y-105926720D01*
X153879500Y-105701280D01*
X153864687Y-105588764D01*
X153864685Y-105588761D01*
X153863557Y-105580186D01*
X153863557Y-105547814D01*
X153864685Y-105539238D01*
X153864687Y-105539236D01*
X153879500Y-105426720D01*
X153879500Y-105201280D01*
X153864687Y-105088764D01*
X153864685Y-105088761D01*
X153863557Y-105080186D01*
X153863557Y-105047814D01*
X153864685Y-105039238D01*
X153864687Y-105039236D01*
X153879500Y-104926720D01*
X153879500Y-104701280D01*
X153864687Y-104588764D01*
X153864685Y-104588761D01*
X153863557Y-104580186D01*
X153863557Y-104547814D01*
X153864685Y-104539238D01*
X153864687Y-104539236D01*
X153879500Y-104426720D01*
X153879500Y-104394000D01*
X156930140Y-104394000D01*
X156949926Y-104582257D01*
X157008420Y-104762284D01*
X157103066Y-104926216D01*
X157229729Y-105066889D01*
X157382869Y-105178151D01*
X157555797Y-105255144D01*
X157740952Y-105294500D01*
X157740954Y-105294500D01*
X157930248Y-105294500D01*
X158081407Y-105262370D01*
X158115403Y-105255144D01*
X158288330Y-105178151D01*
X158441471Y-105066888D01*
X158568133Y-104926216D01*
X158662779Y-104762284D01*
X158721274Y-104582256D01*
X158741060Y-104394000D01*
X158721274Y-104205744D01*
X158683265Y-104088764D01*
X158662779Y-104025715D01*
X158568133Y-103861783D01*
X158441470Y-103721110D01*
X158288330Y-103609848D01*
X158115402Y-103532855D01*
X157930248Y-103493500D01*
X157930246Y-103493500D01*
X157740954Y-103493500D01*
X157740952Y-103493500D01*
X157555797Y-103532855D01*
X157382869Y-103609848D01*
X157229729Y-103721110D01*
X157103066Y-103861783D01*
X157008420Y-104025715D01*
X156949926Y-104205742D01*
X156930140Y-104394000D01*
X153879500Y-104394000D01*
X153879500Y-104201280D01*
X153864687Y-104088764D01*
X153864685Y-104088761D01*
X153863557Y-104080186D01*
X153863557Y-104047814D01*
X153864685Y-104039238D01*
X153864687Y-104039236D01*
X153879500Y-103926720D01*
X153879500Y-103701280D01*
X153864687Y-103588764D01*
X153864685Y-103588761D01*
X153863557Y-103580186D01*
X153863557Y-103547814D01*
X153864685Y-103539238D01*
X153864687Y-103539236D01*
X153879500Y-103426720D01*
X153879500Y-103201280D01*
X153864687Y-103088764D01*
X153864685Y-103088761D01*
X153863557Y-103080186D01*
X153863557Y-103047814D01*
X153864685Y-103039238D01*
X153864687Y-103039236D01*
X153879500Y-102926720D01*
X153879500Y-102701280D01*
X153864687Y-102588764D01*
X153864685Y-102588761D01*
X153863557Y-102580186D01*
X153863557Y-102547814D01*
X153864685Y-102539238D01*
X153864687Y-102539236D01*
X153879500Y-102426720D01*
X153879500Y-102201280D01*
X153864687Y-102088764D01*
X153864685Y-102088761D01*
X153863557Y-102080186D01*
X153863557Y-102047814D01*
X153864685Y-102039238D01*
X153864687Y-102039236D01*
X153879500Y-101926720D01*
X153879500Y-101701280D01*
X153864687Y-101588764D01*
X153864685Y-101588761D01*
X153863557Y-101580186D01*
X153863557Y-101547814D01*
X153864685Y-101539238D01*
X153864687Y-101539236D01*
X153879500Y-101426720D01*
X153879500Y-101201280D01*
X153864687Y-101088764D01*
X153864685Y-101088761D01*
X153863557Y-101080186D01*
X153863557Y-101047814D01*
X153864685Y-101039238D01*
X153864687Y-101039236D01*
X153879500Y-100926720D01*
X153879500Y-100701280D01*
X153864687Y-100588764D01*
X153864685Y-100588761D01*
X153863557Y-100580186D01*
X153863557Y-100547814D01*
X153864685Y-100539238D01*
X153864687Y-100539236D01*
X153879500Y-100426720D01*
X153879500Y-100201280D01*
X153864687Y-100088764D01*
X153864685Y-100088761D01*
X153863557Y-100080186D01*
X153863557Y-100047814D01*
X153864686Y-100039238D01*
X153864687Y-100039236D01*
X153877455Y-99942246D01*
X153905723Y-99878350D01*
X153964048Y-99839879D01*
X154000395Y-99834432D01*
X154071650Y-99834432D01*
X154195085Y-99808194D01*
X154256805Y-99795076D01*
X154429732Y-99718083D01*
X154447855Y-99704916D01*
X154582872Y-99606821D01*
X154709535Y-99466148D01*
X154740137Y-99413144D01*
X154804181Y-99302216D01*
X154815891Y-99266174D01*
X154855327Y-99208501D01*
X154908040Y-99183203D01*
X155091803Y-99144144D01*
X155264730Y-99067151D01*
X155335803Y-99015514D01*
X155417870Y-98955889D01*
X155544533Y-98815216D01*
X155639179Y-98651284D01*
X155650640Y-98616011D01*
X155697674Y-98471256D01*
X155717460Y-98283000D01*
X155697674Y-98094744D01*
X155697672Y-98094740D01*
X155696311Y-98081782D01*
X155699390Y-98081458D01*
X155697976Y-98031979D01*
X155734056Y-97972146D01*
X155796756Y-97941316D01*
X155817903Y-97939500D01*
X157365256Y-97939500D01*
X157385762Y-97941764D01*
X157388665Y-97941672D01*
X157388667Y-97941673D01*
X157455872Y-97939561D01*
X157459768Y-97939500D01*
X157483448Y-97939500D01*
X157487350Y-97939500D01*
X157491313Y-97938999D01*
X157502962Y-97938080D01*
X157546627Y-97936709D01*
X157565859Y-97931120D01*
X157584918Y-97927174D01*
X157591196Y-97926381D01*
X157604792Y-97924664D01*
X157645407Y-97908582D01*
X157656444Y-97904803D01*
X157698390Y-97892618D01*
X157715629Y-97882422D01*
X157733102Y-97873862D01*
X157751732Y-97866486D01*
X157787064Y-97840814D01*
X157796830Y-97834400D01*
X157834418Y-97812171D01*
X157834417Y-97812171D01*
X157834420Y-97812170D01*
X157848585Y-97798004D01*
X157863373Y-97785373D01*
X157879587Y-97773594D01*
X157907438Y-97739926D01*
X157915279Y-97731309D01*
X160171271Y-95475319D01*
X160232595Y-95441834D01*
X160258953Y-95439000D01*
X160305148Y-95439000D01*
X160441290Y-95410062D01*
X160490303Y-95399644D01*
X160663230Y-95322651D01*
X160735010Y-95270500D01*
X160816370Y-95211389D01*
X160825190Y-95201594D01*
X160943033Y-95070716D01*
X161037679Y-94906784D01*
X161096174Y-94726756D01*
X161114694Y-94550536D01*
X161141278Y-94485924D01*
X161198576Y-94445939D01*
X161238015Y-94439500D01*
X161362667Y-94439500D01*
X161366720Y-94439500D01*
X161479236Y-94424687D01*
X161479238Y-94424685D01*
X161487814Y-94423557D01*
X161520186Y-94423557D01*
X161528761Y-94424685D01*
X161528764Y-94424687D01*
X161641280Y-94439500D01*
X161645333Y-94439500D01*
X161862667Y-94439500D01*
X161866720Y-94439500D01*
X161979236Y-94424687D01*
X161979238Y-94424685D01*
X161987814Y-94423557D01*
X162020186Y-94423557D01*
X162028761Y-94424685D01*
X162028764Y-94424687D01*
X162141280Y-94439500D01*
X162145333Y-94439500D01*
X162362667Y-94439500D01*
X162366720Y-94439500D01*
X162479236Y-94424687D01*
X162479238Y-94424685D01*
X162487814Y-94423557D01*
X162520227Y-94423562D01*
X162520727Y-94423628D01*
X162584614Y-94451917D01*
X162623065Y-94510254D01*
X162628500Y-94546562D01*
X162628500Y-94762851D01*
X162608815Y-94829890D01*
X162592181Y-94850532D01*
X162244425Y-95198287D01*
X162219872Y-95217334D01*
X162210582Y-95222828D01*
X162210580Y-95222830D01*
X162196409Y-95236999D01*
X162181624Y-95249627D01*
X162165411Y-95261406D01*
X162137572Y-95295058D01*
X162129711Y-95303697D01*
X159890208Y-97543199D01*
X159874110Y-97556096D01*
X159826096Y-97607225D01*
X159823392Y-97610016D01*
X159806628Y-97626780D01*
X159806621Y-97626787D01*
X159803880Y-97629529D01*
X159801499Y-97632597D01*
X159801490Y-97632608D01*
X159801411Y-97632711D01*
X159793842Y-97641572D01*
X159763935Y-97673420D01*
X159754285Y-97690974D01*
X159743609Y-97707228D01*
X159731326Y-97723063D01*
X159713975Y-97763158D01*
X159708838Y-97773644D01*
X159687802Y-97811907D01*
X159682821Y-97831309D01*
X159676521Y-97849710D01*
X159667859Y-97869729D01*
X159646205Y-97903459D01*
X159541466Y-98019783D01*
X159446820Y-98183715D01*
X159388326Y-98363742D01*
X159368540Y-98552000D01*
X159388326Y-98740257D01*
X159446820Y-98920284D01*
X159541466Y-99084216D01*
X159668129Y-99224889D01*
X159821269Y-99336151D01*
X159994197Y-99413144D01*
X160179352Y-99452500D01*
X160179354Y-99452500D01*
X160368648Y-99452500D01*
X160492083Y-99426262D01*
X160553803Y-99413144D01*
X160726730Y-99336151D01*
X160782000Y-99295995D01*
X160879870Y-99224889D01*
X161006533Y-99084216D01*
X161101179Y-98920284D01*
X161131440Y-98827150D01*
X161159674Y-98740256D01*
X161179460Y-98552000D01*
X161159674Y-98363744D01*
X161104474Y-98193859D01*
X161102480Y-98124021D01*
X161134723Y-98067865D01*
X162958878Y-96243711D01*
X162983438Y-96224662D01*
X162992725Y-96219170D01*
X163006890Y-96205004D01*
X163021678Y-96192373D01*
X163037892Y-96180594D01*
X163065743Y-96146926D01*
X163073584Y-96138309D01*
X163637788Y-95574106D01*
X163653885Y-95561211D01*
X163655873Y-95559092D01*
X163655877Y-95559091D01*
X163701949Y-95510028D01*
X163704534Y-95507360D01*
X163724120Y-95487776D01*
X163726585Y-95484597D01*
X163734167Y-95475721D01*
X163739899Y-95469617D01*
X163764062Y-95443887D01*
X163773712Y-95426332D01*
X163784400Y-95410062D01*
X163796673Y-95394241D01*
X163814026Y-95354137D01*
X163819157Y-95343667D01*
X163823050Y-95336586D01*
X163840197Y-95305397D01*
X163845175Y-95286004D01*
X163851481Y-95267587D01*
X163858739Y-95250815D01*
X163859438Y-95249201D01*
X163866272Y-95206050D01*
X163868635Y-95194636D01*
X163879500Y-95152324D01*
X163879500Y-95132288D01*
X163881027Y-95112889D01*
X163883966Y-95094331D01*
X163884160Y-95093109D01*
X163880049Y-95049639D01*
X163879499Y-95037967D01*
X163879499Y-94743980D01*
X163879499Y-94546559D01*
X163899184Y-94479523D01*
X163951988Y-94433768D01*
X163987304Y-94423624D01*
X163987805Y-94423558D01*
X164020186Y-94423557D01*
X164028761Y-94424685D01*
X164028764Y-94424687D01*
X164141280Y-94439500D01*
X164145333Y-94439500D01*
X164362667Y-94439500D01*
X164366720Y-94439500D01*
X164479236Y-94424687D01*
X164479238Y-94424685D01*
X164487814Y-94423557D01*
X164520186Y-94423557D01*
X164528761Y-94424685D01*
X164528764Y-94424687D01*
X164641280Y-94439500D01*
X164645333Y-94439500D01*
X164862667Y-94439500D01*
X164866720Y-94439500D01*
X164979236Y-94424687D01*
X164979238Y-94424685D01*
X164987814Y-94423557D01*
X165020186Y-94423557D01*
X165028761Y-94424685D01*
X165028764Y-94424687D01*
X165141280Y-94439500D01*
X165145333Y-94439500D01*
X165362667Y-94439500D01*
X165366720Y-94439500D01*
X165479236Y-94424687D01*
X165479238Y-94424686D01*
X165489729Y-94423305D01*
X165522099Y-94423305D01*
X165603999Y-94434086D01*
X165606155Y-94432195D01*
X165623685Y-94372497D01*
X165652508Y-94341164D01*
X165678515Y-94321208D01*
X165743681Y-94296015D01*
X165812126Y-94310053D01*
G37*
%TD.AperFunction*%
%TA.AperFunction,Conductor*%
G36*
X176512691Y-100195041D02*
G01*
X176570740Y-100233926D01*
X176598551Y-100298022D01*
X176599500Y-100313332D01*
X176599500Y-106725349D01*
X176579815Y-106792388D01*
X176527011Y-106838143D01*
X176457853Y-106848087D01*
X176394297Y-106819062D01*
X176356523Y-106760284D01*
X176353134Y-106745410D01*
X176328129Y-106592887D01*
X176326682Y-106586315D01*
X176232748Y-106247998D01*
X176230603Y-106241631D01*
X176100639Y-105915447D01*
X176097830Y-105909373D01*
X175933350Y-105599131D01*
X175929897Y-105593393D01*
X175732852Y-105302774D01*
X175728792Y-105297433D01*
X175603557Y-105149995D01*
X175603556Y-105149994D01*
X174397732Y-106355818D01*
X174234870Y-106165130D01*
X174044179Y-106002265D01*
X175252743Y-104793703D01*
X175241942Y-104783473D01*
X175236842Y-104779141D01*
X174957305Y-104566642D01*
X174951759Y-104562882D01*
X174650900Y-104381862D01*
X174644961Y-104378714D01*
X174326304Y-104231287D01*
X174320062Y-104228800D01*
X173991908Y-104118232D01*
X173934663Y-104078172D01*
X173908163Y-104013523D01*
X173920823Y-103944809D01*
X173935686Y-103927095D01*
X173933504Y-103925462D01*
X173959723Y-103890437D01*
X174015657Y-103848566D01*
X174085348Y-103843581D01*
X174124088Y-103859208D01*
X174211879Y-103913358D01*
X174378303Y-103968506D01*
X174477890Y-103978680D01*
X174484168Y-103978999D01*
X174755999Y-103978999D01*
X174756000Y-103978998D01*
X174756000Y-103141500D01*
X175256000Y-103141500D01*
X175256000Y-103978999D01*
X175527829Y-103978999D01*
X175534111Y-103978678D01*
X175633695Y-103968506D01*
X175800122Y-103913357D01*
X175949345Y-103821316D01*
X176073316Y-103697345D01*
X176165357Y-103548122D01*
X176220506Y-103381696D01*
X176230680Y-103282109D01*
X176231000Y-103275831D01*
X176231000Y-103141500D01*
X175256000Y-103141500D01*
X174756000Y-103141500D01*
X174107198Y-103141500D01*
X174089496Y-103151166D01*
X174063138Y-103154000D01*
X172911000Y-103154000D01*
X172843961Y-103134315D01*
X172798206Y-103081511D01*
X172787000Y-103030000D01*
X172787000Y-102778000D01*
X172806685Y-102710961D01*
X172859489Y-102665206D01*
X172911000Y-102654000D01*
X173760802Y-102654000D01*
X173778504Y-102644334D01*
X173804862Y-102641500D01*
X176230999Y-102641500D01*
X176230999Y-102507170D01*
X176230678Y-102500888D01*
X176220506Y-102401304D01*
X176165357Y-102234877D01*
X176073316Y-102085654D01*
X175949344Y-101961682D01*
X175946343Y-101959831D01*
X175899618Y-101907883D01*
X175888397Y-101838921D01*
X175916240Y-101774839D01*
X175946345Y-101748753D01*
X175949656Y-101746712D01*
X176073712Y-101622656D01*
X176165814Y-101473334D01*
X176220999Y-101306797D01*
X176231500Y-101204009D01*
X176231499Y-100428992D01*
X176230699Y-100421164D01*
X176243463Y-100352472D01*
X176281170Y-100308238D01*
X176373871Y-100240888D01*
X176383349Y-100230361D01*
X176442834Y-100193712D01*
X176512691Y-100195041D01*
G37*
%TD.AperFunction*%
%TA.AperFunction,Conductor*%
G36*
X170639203Y-104563800D02*
G01*
X170665387Y-104595513D01*
X170717466Y-104685718D01*
X170844129Y-104826391D01*
X170997267Y-104937652D01*
X171007945Y-104942406D01*
X171145603Y-105003696D01*
X171182845Y-105029292D01*
X172155819Y-106002266D01*
X171965130Y-106165130D01*
X171802267Y-106355818D01*
X170596442Y-105149994D01*
X170596441Y-105149995D01*
X170537936Y-105218872D01*
X170479532Y-105257224D01*
X170409666Y-105257911D01*
X170350519Y-105220717D01*
X170320870Y-105157450D01*
X170320111Y-105151586D01*
X170319829Y-105148899D01*
X170292347Y-105064318D01*
X170290352Y-104994476D01*
X170326433Y-104934644D01*
X170389134Y-104903816D01*
X170410278Y-104902000D01*
X170434000Y-104902000D01*
X170434000Y-104657513D01*
X170453685Y-104590474D01*
X170506489Y-104544719D01*
X170575647Y-104534775D01*
X170639203Y-104563800D01*
G37*
%TD.AperFunction*%
%TA.AperFunction,Conductor*%
G36*
X172574316Y-65720185D02*
G01*
X172620071Y-65772989D01*
X172630015Y-65842147D01*
X172600990Y-65905703D01*
X172542212Y-65943477D01*
X172533934Y-65945601D01*
X172219129Y-66014895D01*
X172212684Y-66016684D01*
X171879937Y-66128800D01*
X171873695Y-66131287D01*
X171555038Y-66278714D01*
X171549099Y-66281862D01*
X171248240Y-66462882D01*
X171242694Y-66466642D01*
X170963149Y-66679146D01*
X170958054Y-66683474D01*
X170947256Y-66693702D01*
X170947255Y-66693703D01*
X172155819Y-67902266D01*
X171965130Y-68065130D01*
X171802266Y-68255818D01*
X170596442Y-67049994D01*
X170596441Y-67049995D01*
X170471207Y-67197433D01*
X170467147Y-67202774D01*
X170270102Y-67493393D01*
X170266649Y-67499131D01*
X170102169Y-67809373D01*
X170099360Y-67815447D01*
X169969396Y-68141631D01*
X169967251Y-68147998D01*
X169873317Y-68486315D01*
X169871874Y-68492869D01*
X169815069Y-68839369D01*
X169814343Y-68846041D01*
X169795335Y-69196643D01*
X169795335Y-69203356D01*
X169814343Y-69553958D01*
X169815069Y-69560630D01*
X169871874Y-69907130D01*
X169873317Y-69913684D01*
X169967251Y-70252001D01*
X169969396Y-70258368D01*
X170099360Y-70584552D01*
X170102169Y-70590626D01*
X170266649Y-70900868D01*
X170270102Y-70906606D01*
X170467147Y-71197225D01*
X170471207Y-71202566D01*
X170596441Y-71350003D01*
X170596442Y-71350004D01*
X171802266Y-70144180D01*
X171965130Y-70334870D01*
X172155818Y-70497732D01*
X170947255Y-71706295D01*
X170958047Y-71716518D01*
X170963157Y-71720858D01*
X171242694Y-71933357D01*
X171248240Y-71937117D01*
X171549099Y-72118137D01*
X171555038Y-72121285D01*
X171873695Y-72268712D01*
X171879937Y-72271199D01*
X172212684Y-72383315D01*
X172219129Y-72385104D01*
X172562053Y-72460588D01*
X172568677Y-72461674D01*
X172917740Y-72499636D01*
X172924437Y-72500000D01*
X173275563Y-72500000D01*
X173282259Y-72499636D01*
X173631322Y-72461674D01*
X173637946Y-72460588D01*
X173980870Y-72385104D01*
X173987315Y-72383315D01*
X174320062Y-72271199D01*
X174326304Y-72268712D01*
X174644961Y-72121285D01*
X174650900Y-72118137D01*
X174951759Y-71937117D01*
X174957305Y-71933357D01*
X175236846Y-71720856D01*
X175241950Y-71716519D01*
X175252742Y-71706296D01*
X175252743Y-71706295D01*
X174044180Y-70497733D01*
X174234870Y-70334870D01*
X174397733Y-70144180D01*
X175603556Y-71350003D01*
X175603557Y-71350003D01*
X175728792Y-71202566D01*
X175732852Y-71197225D01*
X175929897Y-70906606D01*
X175933350Y-70900868D01*
X176097830Y-70590626D01*
X176100639Y-70584552D01*
X176230603Y-70258368D01*
X176232748Y-70252001D01*
X176326682Y-69913684D01*
X176328125Y-69907127D01*
X176353132Y-69754590D01*
X176383403Y-69691618D01*
X176442913Y-69655008D01*
X176512770Y-69656384D01*
X176570793Y-69695308D01*
X176598561Y-69759423D01*
X176599499Y-69774650D01*
X176599500Y-98822667D01*
X176579815Y-98889706D01*
X176527011Y-98935461D01*
X176457853Y-98945405D01*
X176394297Y-98916380D01*
X176383350Y-98905640D01*
X176373867Y-98895108D01*
X176220730Y-98783848D01*
X176047802Y-98706855D01*
X175862648Y-98667500D01*
X175862646Y-98667500D01*
X175673354Y-98667500D01*
X175673352Y-98667500D01*
X175488197Y-98706855D01*
X175315269Y-98783848D01*
X175287987Y-98803670D01*
X175222181Y-98827150D01*
X175154127Y-98811324D01*
X175105432Y-98761218D01*
X175097171Y-98741670D01*
X175077684Y-98681695D01*
X175042381Y-98620549D01*
X175025908Y-98552649D01*
X175048760Y-98486622D01*
X175103682Y-98443431D01*
X175119537Y-98439724D01*
X175119369Y-98439143D01*
X175233383Y-98406018D01*
X175289398Y-98389744D01*
X175430865Y-98306081D01*
X175547081Y-98189865D01*
X175630744Y-98048398D01*
X175676598Y-97890569D01*
X175679500Y-97853694D01*
X175679500Y-96072306D01*
X175676598Y-96035431D01*
X175662316Y-95986274D01*
X175630744Y-95877602D01*
X175554956Y-95749451D01*
X175547081Y-95736135D01*
X175540819Y-95729873D01*
X175507334Y-95668550D01*
X175504500Y-95642192D01*
X175504500Y-94189743D01*
X175506764Y-94169239D01*
X175506156Y-94149900D01*
X175504561Y-94099112D01*
X175504500Y-94095218D01*
X175504500Y-94071541D01*
X175504500Y-94071540D01*
X175504500Y-94067650D01*
X175503998Y-94063683D01*
X175503081Y-94052027D01*
X175502545Y-94034967D01*
X175501710Y-94008373D01*
X175496118Y-93989126D01*
X175492174Y-93970085D01*
X175489664Y-93950208D01*
X175473579Y-93909583D01*
X175469808Y-93898568D01*
X175457618Y-93856610D01*
X175447414Y-93839355D01*
X175438861Y-93821895D01*
X175431486Y-93803269D01*
X175431486Y-93803268D01*
X175405808Y-93767925D01*
X175399401Y-93758171D01*
X175382168Y-93729032D01*
X175377170Y-93720580D01*
X175363006Y-93706416D01*
X175350374Y-93691627D01*
X175338594Y-93675413D01*
X175338591Y-93675411D01*
X175338591Y-93675410D01*
X175304947Y-93647578D01*
X175296306Y-93639715D01*
X175280754Y-93624163D01*
X175247269Y-93562840D01*
X175252253Y-93493148D01*
X175294125Y-93437215D01*
X175305315Y-93429750D01*
X175430556Y-93355683D01*
X175546682Y-93239557D01*
X175630282Y-93098197D01*
X175676099Y-92940493D01*
X175678808Y-92906076D01*
X175679000Y-92901196D01*
X175679000Y-92263000D01*
X174753000Y-92263000D01*
X174685961Y-92243315D01*
X174640206Y-92190511D01*
X174629000Y-92139000D01*
X174629000Y-90540703D01*
X175129000Y-90540703D01*
X175129000Y-91763000D01*
X175679000Y-91763000D01*
X175679000Y-91124803D01*
X175678808Y-91119923D01*
X175676099Y-91085506D01*
X175630282Y-90927802D01*
X175546682Y-90786442D01*
X175430557Y-90670317D01*
X175289200Y-90586719D01*
X175131487Y-90540900D01*
X175129000Y-90540703D01*
X174629000Y-90540703D01*
X174626510Y-90540900D01*
X174520093Y-90571817D01*
X174450224Y-90571617D01*
X174391554Y-90533674D01*
X174362711Y-90470036D01*
X174361499Y-90452750D01*
X174361499Y-88982743D01*
X174363763Y-88962245D01*
X174363671Y-88959333D01*
X174363672Y-88959332D01*
X174361561Y-88892144D01*
X174361500Y-88888250D01*
X174361500Y-88872896D01*
X174367571Y-88834572D01*
X174367674Y-88834256D01*
X174387460Y-88646000D01*
X174367674Y-88457744D01*
X174337332Y-88364363D01*
X174309179Y-88277715D01*
X174214533Y-88113783D01*
X174087870Y-87973110D01*
X173934730Y-87861848D01*
X173761802Y-87784855D01*
X173576648Y-87745500D01*
X173576646Y-87745500D01*
X173387354Y-87745500D01*
X173387352Y-87745500D01*
X173202197Y-87784855D01*
X173029269Y-87861848D01*
X172876129Y-87973110D01*
X172749467Y-88113782D01*
X172732637Y-88142934D01*
X172682070Y-88191149D01*
X172613462Y-88204371D01*
X172552365Y-88181251D01*
X172410730Y-88078348D01*
X172237802Y-88001355D01*
X172052648Y-87962000D01*
X172052646Y-87962000D01*
X171863354Y-87962000D01*
X171863352Y-87962000D01*
X171678197Y-88001355D01*
X171505269Y-88078348D01*
X171352129Y-88189610D01*
X171225466Y-88330283D01*
X171130820Y-88494215D01*
X171072326Y-88674242D01*
X171052540Y-88862500D01*
X171072326Y-89050757D01*
X171130820Y-89230784D01*
X171184741Y-89324178D01*
X171201214Y-89392079D01*
X171178361Y-89458105D01*
X171150241Y-89486495D01*
X171135628Y-89497111D01*
X171045300Y-89597430D01*
X171026034Y-89614777D01*
X170986932Y-89643185D01*
X170977174Y-89649595D01*
X170939580Y-89671829D01*
X170925413Y-89685996D01*
X170910624Y-89698626D01*
X170894415Y-89710402D01*
X170866574Y-89744057D01*
X170858712Y-89752696D01*
X170685206Y-89926201D01*
X170669113Y-89939095D01*
X170667123Y-89941213D01*
X170667123Y-89941214D01*
X170621069Y-89990254D01*
X170618389Y-89993019D01*
X170601635Y-90009773D01*
X170601628Y-90009780D01*
X170598880Y-90012529D01*
X170596499Y-90015597D01*
X170596490Y-90015608D01*
X170596411Y-90015711D01*
X170588842Y-90024572D01*
X170558935Y-90056420D01*
X170549285Y-90073974D01*
X170538609Y-90090228D01*
X170526326Y-90106063D01*
X170508975Y-90146158D01*
X170503838Y-90156644D01*
X170482802Y-90194907D01*
X170477821Y-90214309D01*
X170471520Y-90232711D01*
X170463561Y-90251102D01*
X170456728Y-90294242D01*
X170454360Y-90305674D01*
X170443500Y-90347977D01*
X170443500Y-90368016D01*
X170441973Y-90387414D01*
X170439687Y-90401851D01*
X170438840Y-90407196D01*
X170441648Y-90436898D01*
X170442950Y-90450673D01*
X170443500Y-90462343D01*
X170443500Y-90692192D01*
X170423815Y-90759231D01*
X170407181Y-90779873D01*
X170400919Y-90786134D01*
X170317254Y-90927604D01*
X170314278Y-90937848D01*
X170276671Y-90996733D01*
X170213197Y-91025937D01*
X170144011Y-91016190D01*
X170107522Y-90990931D01*
X169156802Y-90040211D01*
X169143906Y-90024113D01*
X169092775Y-89976098D01*
X169089978Y-89973387D01*
X169073227Y-89956636D01*
X169070471Y-89953880D01*
X169067290Y-89951412D01*
X169058422Y-89943837D01*
X169026582Y-89913938D01*
X169009024Y-89904285D01*
X168992764Y-89893604D01*
X168976936Y-89881327D01*
X168936851Y-89863980D01*
X168926361Y-89858841D01*
X168888091Y-89837802D01*
X168868691Y-89832821D01*
X168850284Y-89826519D01*
X168831897Y-89818562D01*
X168788758Y-89811729D01*
X168777324Y-89809361D01*
X168735019Y-89798500D01*
X168714984Y-89798500D01*
X168695586Y-89796973D01*
X168680363Y-89794562D01*
X168675805Y-89793840D01*
X168675804Y-89793840D01*
X168649484Y-89796328D01*
X168632325Y-89797950D01*
X168620656Y-89798500D01*
X166397171Y-89798500D01*
X166376667Y-89796236D01*
X166306575Y-89798439D01*
X166302681Y-89798500D01*
X166275080Y-89798500D01*
X166271229Y-89798986D01*
X166271198Y-89798988D01*
X166271070Y-89799005D01*
X166259458Y-89799918D01*
X166215798Y-89801290D01*
X166196558Y-89806880D01*
X166177511Y-89810825D01*
X166157639Y-89813335D01*
X166117029Y-89829413D01*
X166105984Y-89833194D01*
X166064041Y-89845380D01*
X166046799Y-89855578D01*
X166029328Y-89864137D01*
X166010384Y-89871638D01*
X165964734Y-89880347D01*
X165850114Y-89880347D01*
X165783075Y-89860662D01*
X165737320Y-89807858D01*
X165726664Y-89768014D01*
X165726050Y-89761517D01*
X165725500Y-89749850D01*
X165725500Y-85738000D01*
X167774754Y-85738000D01*
X167793720Y-86039457D01*
X167794447Y-86043269D01*
X167794449Y-86043283D01*
X167846017Y-86313609D01*
X167850319Y-86336160D01*
X167851523Y-86339867D01*
X167851524Y-86339869D01*
X167938139Y-86606443D01*
X167943659Y-86623430D01*
X168072267Y-86896736D01*
X168074349Y-86900017D01*
X168074352Y-86900022D01*
X168232024Y-87148474D01*
X168232028Y-87148480D01*
X168234115Y-87151768D01*
X168236594Y-87154765D01*
X168236598Y-87154770D01*
X168321542Y-87257449D01*
X168426651Y-87384504D01*
X168646838Y-87591274D01*
X168891205Y-87768816D01*
X168947406Y-87799713D01*
X169060428Y-87861848D01*
X169155896Y-87914332D01*
X169436738Y-88025525D01*
X169729302Y-88100642D01*
X170028973Y-88138500D01*
X170032867Y-88138500D01*
X170327133Y-88138500D01*
X170331027Y-88138500D01*
X170630698Y-88100642D01*
X170923262Y-88025525D01*
X171204104Y-87914332D01*
X171468795Y-87768816D01*
X171713162Y-87591274D01*
X171933349Y-87384504D01*
X172125885Y-87151768D01*
X172287733Y-86896736D01*
X172416341Y-86623430D01*
X172509681Y-86336160D01*
X172566280Y-86039457D01*
X172585246Y-85738000D01*
X172566280Y-85436543D01*
X172565097Y-85430344D01*
X172556159Y-85383485D01*
X172509681Y-85139840D01*
X172416341Y-84852570D01*
X172287733Y-84579264D01*
X172254883Y-84527500D01*
X172127975Y-84327525D01*
X172127973Y-84327522D01*
X172125885Y-84324232D01*
X171933349Y-84091496D01*
X171713162Y-83884726D01*
X171637763Y-83829946D01*
X171474284Y-83711172D01*
X171468795Y-83707184D01*
X171465391Y-83705313D01*
X171465387Y-83705310D01*
X171207521Y-83563546D01*
X171207514Y-83563542D01*
X171204104Y-83561668D01*
X171200478Y-83560232D01*
X171200473Y-83560230D01*
X170926890Y-83451911D01*
X170926884Y-83451909D01*
X170923262Y-83450475D01*
X170919484Y-83449505D01*
X170919481Y-83449504D01*
X170634476Y-83376328D01*
X170634475Y-83376327D01*
X170630698Y-83375358D01*
X170626835Y-83374870D01*
X170626830Y-83374869D01*
X170334891Y-83337988D01*
X170334888Y-83337987D01*
X170331027Y-83337500D01*
X170028973Y-83337500D01*
X170025112Y-83337987D01*
X170025108Y-83337988D01*
X169733169Y-83374869D01*
X169733161Y-83374870D01*
X169729302Y-83375358D01*
X169725527Y-83376327D01*
X169725523Y-83376328D01*
X169440518Y-83449504D01*
X169440511Y-83449506D01*
X169436738Y-83450475D01*
X169433120Y-83451907D01*
X169433109Y-83451911D01*
X169159526Y-83560230D01*
X169159515Y-83560234D01*
X169155896Y-83561668D01*
X169152491Y-83563539D01*
X169152478Y-83563546D01*
X168894612Y-83705310D01*
X168894600Y-83705317D01*
X168891205Y-83707184D01*
X168888061Y-83709467D01*
X168888055Y-83709472D01*
X168649994Y-83882432D01*
X168649983Y-83882440D01*
X168646838Y-83884726D01*
X168644003Y-83887387D01*
X168643996Y-83887394D01*
X168429488Y-84088831D01*
X168429481Y-84088838D01*
X168426651Y-84091496D01*
X168424176Y-84094487D01*
X168424172Y-84094492D01*
X168236598Y-84321229D01*
X168236588Y-84321241D01*
X168234115Y-84324232D01*
X168232033Y-84327511D01*
X168232024Y-84327525D01*
X168074352Y-84575977D01*
X168074345Y-84575988D01*
X168072267Y-84579264D01*
X168070614Y-84582774D01*
X168070611Y-84582782D01*
X167948507Y-84842267D01*
X167943659Y-84852570D01*
X167942457Y-84856267D01*
X167942455Y-84856274D01*
X167865213Y-85094000D01*
X167850319Y-85139840D01*
X167849590Y-85143660D01*
X167849588Y-85143669D01*
X167794449Y-85432716D01*
X167794446Y-85432732D01*
X167793720Y-85436543D01*
X167793475Y-85440434D01*
X167793475Y-85440436D01*
X167778054Y-85685546D01*
X167774754Y-85738000D01*
X165725500Y-85738000D01*
X165725500Y-85680739D01*
X165727763Y-85660238D01*
X165726524Y-85620813D01*
X165725561Y-85590143D01*
X165725500Y-85586249D01*
X165725500Y-85562544D01*
X165725500Y-85558650D01*
X165724998Y-85554681D01*
X165724080Y-85543024D01*
X165723198Y-85514952D01*
X165722709Y-85499372D01*
X165717119Y-85480134D01*
X165713174Y-85461082D01*
X165710664Y-85441208D01*
X165707302Y-85432716D01*
X165694578Y-85400581D01*
X165690805Y-85389560D01*
X165678617Y-85347610D01*
X165668421Y-85330369D01*
X165659863Y-85312902D01*
X165652486Y-85294268D01*
X165626798Y-85258912D01*
X165620409Y-85249184D01*
X165598170Y-85211579D01*
X165584006Y-85197415D01*
X165571369Y-85182620D01*
X165559595Y-85166414D01*
X165550633Y-85159000D01*
X165525935Y-85138568D01*
X165517305Y-85130714D01*
X164076802Y-83690211D01*
X164063906Y-83674113D01*
X164012775Y-83626098D01*
X164009978Y-83623387D01*
X163993227Y-83606636D01*
X163990471Y-83603880D01*
X163987290Y-83601412D01*
X163978422Y-83593837D01*
X163946582Y-83563938D01*
X163929024Y-83554285D01*
X163912764Y-83543604D01*
X163896936Y-83531327D01*
X163856851Y-83513980D01*
X163846361Y-83508841D01*
X163808091Y-83487802D01*
X163788691Y-83482821D01*
X163770289Y-83476521D01*
X163764259Y-83473912D01*
X163710549Y-83429225D01*
X163689524Y-83362594D01*
X163689499Y-83360108D01*
X163689499Y-81838000D01*
X169174659Y-81838000D01*
X169193976Y-82034133D01*
X169251185Y-82222726D01*
X169251186Y-82222727D01*
X169344090Y-82396538D01*
X169469117Y-82548883D01*
X169621462Y-82673910D01*
X169795273Y-82766814D01*
X169983868Y-82824024D01*
X170180000Y-82843341D01*
X170376132Y-82824024D01*
X170564727Y-82766814D01*
X170738538Y-82673910D01*
X170738538Y-82673909D01*
X170746547Y-82669629D01*
X170814950Y-82655387D01*
X170863453Y-82669629D01*
X170871461Y-82673909D01*
X170871462Y-82673910D01*
X171045273Y-82766814D01*
X171233868Y-82824024D01*
X171430000Y-82843341D01*
X171626132Y-82824024D01*
X171814727Y-82766814D01*
X171988538Y-82673910D01*
X172140883Y-82548883D01*
X172265910Y-82396538D01*
X172358814Y-82222727D01*
X172416024Y-82034132D01*
X172435341Y-81838000D01*
X172416024Y-81641868D01*
X172358814Y-81453273D01*
X172358813Y-81453272D01*
X172261629Y-81271452D01*
X172247387Y-81203049D01*
X172261629Y-81154546D01*
X172265908Y-81146540D01*
X172265910Y-81146538D01*
X172358814Y-80972727D01*
X172416024Y-80784132D01*
X172435341Y-80588000D01*
X172416024Y-80391868D01*
X172358814Y-80203273D01*
X172265910Y-80029462D01*
X172261346Y-80020923D01*
X172247104Y-79952520D01*
X172261346Y-79904017D01*
X172358347Y-79722538D01*
X172415531Y-79534030D01*
X172434838Y-79337999D01*
X172415531Y-79141969D01*
X172358349Y-78953465D01*
X172292076Y-78829476D01*
X171725346Y-79396204D01*
X171733895Y-79366160D01*
X171723546Y-79254479D01*
X171673552Y-79154078D01*
X171590666Y-79078516D01*
X171486080Y-79038000D01*
X171402198Y-79038000D01*
X171370523Y-79043920D01*
X171938522Y-78475922D01*
X171938522Y-78475921D01*
X171814537Y-78409650D01*
X171626032Y-78352468D01*
X171430000Y-78333161D01*
X171233969Y-78352468D01*
X171045462Y-78409651D01*
X170863981Y-78506654D01*
X170795578Y-78520895D01*
X170747076Y-78506653D01*
X170564726Y-78409185D01*
X170376133Y-78351976D01*
X170180000Y-78332659D01*
X169983866Y-78351976D01*
X169795273Y-78409185D01*
X169621463Y-78502089D01*
X169469117Y-78627117D01*
X169344089Y-78779463D01*
X169251185Y-78953273D01*
X169193976Y-79141866D01*
X169178674Y-79297235D01*
X169174659Y-79338000D01*
X169178674Y-79378763D01*
X169193976Y-79534133D01*
X169251185Y-79722726D01*
X169348370Y-79904547D01*
X169362612Y-79972950D01*
X169348370Y-80021453D01*
X169251185Y-80203273D01*
X169193976Y-80391866D01*
X169174659Y-80588000D01*
X169193976Y-80784133D01*
X169251185Y-80972726D01*
X169348370Y-81154547D01*
X169362612Y-81222950D01*
X169348370Y-81271453D01*
X169251185Y-81453273D01*
X169193976Y-81641866D01*
X169174659Y-81838000D01*
X163689499Y-81838000D01*
X163689499Y-81433439D01*
X163689499Y-81433438D01*
X163689499Y-81430128D01*
X163683091Y-81370517D01*
X163632796Y-81235669D01*
X163546546Y-81120454D01*
X163431331Y-81034204D01*
X163296483Y-80983909D01*
X163244816Y-80978354D01*
X163240166Y-80977854D01*
X163240165Y-80977853D01*
X163236873Y-80977500D01*
X163233550Y-80977500D01*
X162394439Y-80977500D01*
X162394420Y-80977500D01*
X162391128Y-80977501D01*
X162387848Y-80977853D01*
X162387840Y-80977854D01*
X162344895Y-80982470D01*
X162331517Y-80983909D01*
X162331516Y-80983909D01*
X162316031Y-80985574D01*
X162315800Y-80983430D01*
X162267140Y-80986910D01*
X162205818Y-80953424D01*
X162172333Y-80892100D01*
X162169500Y-80865744D01*
X162169500Y-79905038D01*
X162189185Y-79837999D01*
X162201351Y-79822065D01*
X162239033Y-79780216D01*
X162333679Y-79616284D01*
X162392174Y-79436256D01*
X162411960Y-79248000D01*
X162392174Y-79059744D01*
X162355104Y-78945655D01*
X162333679Y-78879715D01*
X162239033Y-78715783D01*
X162112370Y-78575110D01*
X161959230Y-78463848D01*
X161786302Y-78386855D01*
X161601148Y-78347500D01*
X161601146Y-78347500D01*
X161411854Y-78347500D01*
X161411852Y-78347500D01*
X161226697Y-78386855D01*
X161053769Y-78463848D01*
X160900629Y-78575110D01*
X160773966Y-78715783D01*
X160679320Y-78879715D01*
X160620826Y-79059742D01*
X160601040Y-79248000D01*
X160620826Y-79436257D01*
X160679320Y-79616284D01*
X160773966Y-79780215D01*
X160886650Y-79905363D01*
X160916880Y-79968354D01*
X160918500Y-79988335D01*
X160918500Y-80866277D01*
X160898815Y-80933316D01*
X160846011Y-80979071D01*
X160776853Y-80989015D01*
X160760523Y-80984847D01*
X160700132Y-80978354D01*
X160693518Y-80978000D01*
X160524000Y-80978000D01*
X160524000Y-82654000D01*
X160504315Y-82721039D01*
X160451511Y-82766794D01*
X160400000Y-82778000D01*
X156338000Y-82778000D01*
X156270961Y-82758315D01*
X156225206Y-82705511D01*
X156214000Y-82654000D01*
X156214000Y-80978000D01*
X156714000Y-80978000D01*
X156714000Y-82278000D01*
X157484000Y-82278000D01*
X157484000Y-80978000D01*
X157984000Y-80978000D01*
X157984000Y-82278000D01*
X158754000Y-82278000D01*
X158754000Y-80978000D01*
X159254000Y-80978000D01*
X159254000Y-82278000D01*
X160024000Y-82278000D01*
X160024000Y-80978000D01*
X159854482Y-80978000D01*
X159847867Y-80978354D01*
X159791626Y-80984400D01*
X159682333Y-81025165D01*
X159612642Y-81030149D01*
X159595667Y-81025165D01*
X159486373Y-80984400D01*
X159430132Y-80978354D01*
X159423518Y-80978000D01*
X159254000Y-80978000D01*
X158754000Y-80978000D01*
X158584482Y-80978000D01*
X158577867Y-80978354D01*
X158521626Y-80984400D01*
X158412333Y-81025165D01*
X158342642Y-81030149D01*
X158325667Y-81025165D01*
X158216373Y-80984400D01*
X158160132Y-80978354D01*
X158153518Y-80978000D01*
X157984000Y-80978000D01*
X157484000Y-80978000D01*
X157314482Y-80978000D01*
X157307867Y-80978354D01*
X157251626Y-80984400D01*
X157142332Y-81025165D01*
X157072640Y-81030149D01*
X157055665Y-81025165D01*
X156946371Y-80984400D01*
X156890132Y-80978354D01*
X156883518Y-80978000D01*
X156714000Y-80978000D01*
X156214000Y-80978000D01*
X156214000Y-80959247D01*
X156203072Y-80939234D01*
X156201500Y-80895229D01*
X156205740Y-80865744D01*
X156207500Y-80853500D01*
X156207500Y-80797329D01*
X156227185Y-80730291D01*
X156279989Y-80684536D01*
X156349147Y-80674592D01*
X156370505Y-80679624D01*
X156481805Y-80716506D01*
X156581390Y-80726680D01*
X156587668Y-80726999D01*
X156721999Y-80726999D01*
X156722000Y-80726998D01*
X156722000Y-79752000D01*
X157222000Y-79752000D01*
X157222000Y-80726999D01*
X157356329Y-80726999D01*
X157362611Y-80726678D01*
X157462195Y-80716506D01*
X157628622Y-80661357D01*
X157777845Y-80569316D01*
X157901816Y-80445345D01*
X157993857Y-80296122D01*
X158049006Y-80129696D01*
X158059180Y-80030109D01*
X158059500Y-80023831D01*
X158059500Y-79752000D01*
X157222000Y-79752000D01*
X156722000Y-79752000D01*
X156722000Y-78722680D01*
X156703334Y-78688496D01*
X156700500Y-78662138D01*
X156700500Y-77720000D01*
X157200500Y-77720000D01*
X157200500Y-78249319D01*
X157219166Y-78283504D01*
X157222000Y-78309862D01*
X157222000Y-79252000D01*
X158059499Y-79252000D01*
X158059499Y-78980170D01*
X158059178Y-78973888D01*
X158049006Y-78874304D01*
X157993857Y-78707877D01*
X157894208Y-78546319D01*
X157895063Y-78545791D01*
X157868928Y-78497934D01*
X157873909Y-78428242D01*
X157884554Y-78406473D01*
X157972358Y-78264119D01*
X158027506Y-78097696D01*
X158037680Y-77998109D01*
X158038000Y-77991831D01*
X158038000Y-77720000D01*
X157200500Y-77720000D01*
X156700500Y-77720000D01*
X156700500Y-76245000D01*
X157200500Y-76245000D01*
X157200500Y-77220000D01*
X158037999Y-77220000D01*
X158037999Y-76948170D01*
X158037678Y-76941888D01*
X158027506Y-76842304D01*
X157972357Y-76675877D01*
X157880316Y-76526654D01*
X157756345Y-76402683D01*
X157607122Y-76310642D01*
X157440696Y-76255493D01*
X157341109Y-76245319D01*
X157334832Y-76245000D01*
X157200500Y-76245000D01*
X156700500Y-76245000D01*
X156566171Y-76245000D01*
X156559888Y-76245321D01*
X156460302Y-76255493D01*
X156370503Y-76285250D01*
X156300675Y-76287651D01*
X156240633Y-76251919D01*
X156209441Y-76189399D01*
X156207500Y-76167544D01*
X156207500Y-75946323D01*
X156207500Y-75946322D01*
X156207500Y-75943000D01*
X156195947Y-75835544D01*
X156184741Y-75784033D01*
X156169905Y-75739457D01*
X156150614Y-75681496D01*
X156072826Y-75560458D01*
X156057575Y-75542858D01*
X156027070Y-75507653D01*
X156002636Y-75486481D01*
X155964864Y-75427704D01*
X155964864Y-75357835D01*
X156002639Y-75299057D01*
X156066194Y-75270032D01*
X156099382Y-75269748D01*
X156326973Y-75298500D01*
X156330867Y-75298500D01*
X156625133Y-75298500D01*
X156629027Y-75298500D01*
X156928698Y-75260642D01*
X157221262Y-75185525D01*
X157502104Y-75074332D01*
X157766795Y-74928816D01*
X158011162Y-74751274D01*
X158231349Y-74544504D01*
X158423885Y-74311768D01*
X158585733Y-74056736D01*
X158714341Y-73783430D01*
X158807681Y-73496160D01*
X158864280Y-73199457D01*
X158883246Y-72898000D01*
X158866566Y-72632878D01*
X159189500Y-72632878D01*
X159189501Y-72636008D01*
X159189820Y-72639140D01*
X159189821Y-72639141D01*
X159200000Y-72738796D01*
X159255186Y-72905334D01*
X159347288Y-73054657D01*
X159471342Y-73178711D01*
X159471344Y-73178712D01*
X159620666Y-73270814D01*
X159728398Y-73306513D01*
X159787202Y-73325999D01*
X159886858Y-73336180D01*
X159886859Y-73336180D01*
X159889991Y-73336500D01*
X160690008Y-73336499D01*
X160792797Y-73325999D01*
X160959334Y-73270814D01*
X161108656Y-73178712D01*
X161202319Y-73085048D01*
X161263640Y-73051564D01*
X161333331Y-73056548D01*
X161377680Y-73085049D01*
X161471342Y-73178711D01*
X161471344Y-73178712D01*
X161620666Y-73270814D01*
X161622002Y-73271256D01*
X161627050Y-73274751D01*
X161633001Y-73278422D01*
X161632806Y-73278736D01*
X161679448Y-73311026D01*
X161702078Y-73354367D01*
X161711381Y-73386389D01*
X161721580Y-73403635D01*
X161730136Y-73421100D01*
X161737514Y-73439732D01*
X161737515Y-73439733D01*
X161763180Y-73475059D01*
X161769593Y-73484822D01*
X161791826Y-73522416D01*
X161791829Y-73522419D01*
X161791830Y-73522420D01*
X161805995Y-73536585D01*
X161818627Y-73551375D01*
X161830406Y-73567587D01*
X161848351Y-73582432D01*
X161864057Y-73595425D01*
X161872698Y-73603288D01*
X161875038Y-73605628D01*
X161908523Y-73666951D01*
X161910678Y-73680347D01*
X161928326Y-73848257D01*
X161986820Y-74028284D01*
X162081466Y-74192216D01*
X162208129Y-74332889D01*
X162361269Y-74444151D01*
X162534197Y-74521144D01*
X162719352Y-74560500D01*
X162719354Y-74560500D01*
X162908648Y-74560500D01*
X163093800Y-74521145D01*
X163093801Y-74521144D01*
X163093803Y-74521144D01*
X163216002Y-74466736D01*
X163285249Y-74457451D01*
X163348526Y-74487079D01*
X163371975Y-74514919D01*
X163411289Y-74578658D01*
X163493878Y-74661247D01*
X163527363Y-74722570D01*
X163522379Y-74792262D01*
X163513587Y-74810923D01*
X163510821Y-74815713D01*
X163452326Y-74995742D01*
X163437528Y-75136543D01*
X163432540Y-75184000D01*
X163441552Y-75269748D01*
X163452326Y-75372257D01*
X163510820Y-75552284D01*
X163605466Y-75716216D01*
X163732129Y-75856889D01*
X163885269Y-75968151D01*
X164058197Y-76045144D01*
X164243352Y-76084500D01*
X164243354Y-76084500D01*
X164432648Y-76084500D01*
X164556084Y-76058262D01*
X164617803Y-76045144D01*
X164790730Y-75968151D01*
X164943871Y-75856888D01*
X165070533Y-75716216D01*
X165165179Y-75552284D01*
X165183353Y-75496348D01*
X165213600Y-75446988D01*
X165257703Y-75402885D01*
X165319024Y-75369402D01*
X165388716Y-75374386D01*
X165444649Y-75416258D01*
X165468702Y-75477604D01*
X165477411Y-75560458D01*
X165484326Y-75626257D01*
X165542820Y-75806284D01*
X165637466Y-75970216D01*
X165764129Y-76110889D01*
X165917269Y-76222151D01*
X166090197Y-76299144D01*
X166275352Y-76338500D01*
X166275354Y-76338500D01*
X166464648Y-76338500D01*
X166595709Y-76310642D01*
X166649803Y-76299144D01*
X166822730Y-76222151D01*
X166859806Y-76195214D01*
X166975870Y-76110889D01*
X167102533Y-75970216D01*
X167197179Y-75806284D01*
X167217649Y-75743283D01*
X167255674Y-75626256D01*
X167275460Y-75438000D01*
X167774754Y-75438000D01*
X167793720Y-75739457D01*
X167794447Y-75743269D01*
X167794449Y-75743283D01*
X167849588Y-76032330D01*
X167850319Y-76036160D01*
X167851523Y-76039867D01*
X167851524Y-76039869D01*
X167932033Y-76287651D01*
X167943659Y-76323430D01*
X167945315Y-76326949D01*
X168070420Y-76592812D01*
X168072267Y-76596736D01*
X168074349Y-76600017D01*
X168074352Y-76600022D01*
X168232024Y-76848474D01*
X168232028Y-76848480D01*
X168234115Y-76851768D01*
X168236594Y-76854765D01*
X168236598Y-76854770D01*
X168313866Y-76948170D01*
X168426651Y-77084504D01*
X168646838Y-77291274D01*
X168891205Y-77468816D01*
X169155896Y-77614332D01*
X169436738Y-77725525D01*
X169729302Y-77800642D01*
X170028973Y-77838500D01*
X170032867Y-77838500D01*
X170327133Y-77838500D01*
X170331027Y-77838500D01*
X170630698Y-77800642D01*
X170923262Y-77725525D01*
X171204104Y-77614332D01*
X171468795Y-77468816D01*
X171713162Y-77291274D01*
X171933349Y-77084504D01*
X172125885Y-76851768D01*
X172287733Y-76596736D01*
X172416341Y-76323430D01*
X172509681Y-76036160D01*
X172566280Y-75739457D01*
X172585246Y-75438000D01*
X172566280Y-75136543D01*
X172509681Y-74839840D01*
X172416341Y-74552570D01*
X172287733Y-74279264D01*
X172146513Y-74056736D01*
X172127975Y-74027525D01*
X172127973Y-74027522D01*
X172125885Y-74024232D01*
X172068864Y-73955306D01*
X172013193Y-73888011D01*
X171933349Y-73791496D01*
X171713162Y-73584726D01*
X171697022Y-73573000D01*
X171471944Y-73409472D01*
X171471945Y-73409472D01*
X171468795Y-73407184D01*
X171465391Y-73405313D01*
X171465387Y-73405310D01*
X171207521Y-73263546D01*
X171207514Y-73263542D01*
X171204104Y-73261668D01*
X171200478Y-73260232D01*
X171200473Y-73260230D01*
X170926890Y-73151911D01*
X170926884Y-73151909D01*
X170923262Y-73150475D01*
X170919484Y-73149505D01*
X170919481Y-73149504D01*
X170634476Y-73076328D01*
X170634475Y-73076327D01*
X170630698Y-73075358D01*
X170626835Y-73074870D01*
X170626830Y-73074869D01*
X170334891Y-73037988D01*
X170334888Y-73037987D01*
X170331027Y-73037500D01*
X170028973Y-73037500D01*
X170025112Y-73037987D01*
X170025108Y-73037988D01*
X169733169Y-73074869D01*
X169733161Y-73074870D01*
X169729302Y-73075358D01*
X169725527Y-73076327D01*
X169725523Y-73076328D01*
X169440518Y-73149504D01*
X169440511Y-73149506D01*
X169436738Y-73150475D01*
X169433120Y-73151907D01*
X169433109Y-73151911D01*
X169159526Y-73260230D01*
X169159515Y-73260234D01*
X169155896Y-73261668D01*
X169152491Y-73263539D01*
X169152478Y-73263546D01*
X168894612Y-73405310D01*
X168894600Y-73405317D01*
X168891205Y-73407184D01*
X168888061Y-73409467D01*
X168888055Y-73409472D01*
X168649994Y-73582432D01*
X168649983Y-73582440D01*
X168646838Y-73584726D01*
X168644003Y-73587387D01*
X168643996Y-73587394D01*
X168429488Y-73788831D01*
X168429481Y-73788838D01*
X168426651Y-73791496D01*
X168424176Y-73794487D01*
X168424172Y-73794492D01*
X168236598Y-74021229D01*
X168236588Y-74021241D01*
X168234115Y-74024232D01*
X168232033Y-74027511D01*
X168232024Y-74027525D01*
X168074352Y-74275977D01*
X168074345Y-74275988D01*
X168072267Y-74279264D01*
X168070614Y-74282774D01*
X168070611Y-74282782D01*
X167946201Y-74547168D01*
X167943659Y-74552570D01*
X167942457Y-74556267D01*
X167942455Y-74556274D01*
X167857902Y-74816501D01*
X167850319Y-74839840D01*
X167849590Y-74843660D01*
X167849588Y-74843669D01*
X167794449Y-75132716D01*
X167794446Y-75132732D01*
X167793720Y-75136543D01*
X167793475Y-75140434D01*
X167793475Y-75140436D01*
X167779556Y-75361669D01*
X167774754Y-75438000D01*
X167275460Y-75438000D01*
X167255674Y-75249744D01*
X167220307Y-75140897D01*
X167197179Y-75069715D01*
X167096017Y-74894497D01*
X167099419Y-74892532D01*
X167079252Y-74850510D01*
X167087877Y-74781174D01*
X167132619Y-74727509D01*
X167136514Y-74725004D01*
X167172656Y-74702712D01*
X167296712Y-74578656D01*
X167388814Y-74429334D01*
X167443999Y-74262797D01*
X167454500Y-74160009D01*
X167454499Y-73159992D01*
X167453692Y-73152100D01*
X167466463Y-73083407D01*
X167514345Y-73032524D01*
X167577051Y-73015500D01*
X168065256Y-73015500D01*
X168085762Y-73017764D01*
X168088665Y-73017672D01*
X168088667Y-73017673D01*
X168155872Y-73015561D01*
X168159768Y-73015500D01*
X168183448Y-73015500D01*
X168187350Y-73015500D01*
X168191313Y-73014999D01*
X168202962Y-73014080D01*
X168246627Y-73012709D01*
X168265859Y-73007120D01*
X168284918Y-73003174D01*
X168291196Y-73002381D01*
X168304792Y-73000664D01*
X168345407Y-72984582D01*
X168356444Y-72980803D01*
X168398390Y-72968618D01*
X168415629Y-72958422D01*
X168433102Y-72949862D01*
X168451732Y-72942486D01*
X168487064Y-72916814D01*
X168496830Y-72910400D01*
X168534418Y-72888171D01*
X168534417Y-72888171D01*
X168534420Y-72888170D01*
X168548585Y-72874004D01*
X168563373Y-72861373D01*
X168579587Y-72849594D01*
X168607437Y-72815927D01*
X168615278Y-72807310D01*
X168785788Y-72636801D01*
X168801887Y-72623904D01*
X168803874Y-72621787D01*
X168803877Y-72621786D01*
X168849935Y-72572738D01*
X168852550Y-72570039D01*
X168872120Y-72550471D01*
X168874585Y-72547292D01*
X168882167Y-72538416D01*
X168894591Y-72525186D01*
X168912062Y-72506582D01*
X168921717Y-72489018D01*
X168932394Y-72472764D01*
X168944673Y-72456936D01*
X168962018Y-72416852D01*
X168967160Y-72406356D01*
X168970748Y-72399830D01*
X168988197Y-72368092D01*
X168993179Y-72348684D01*
X168999477Y-72330287D01*
X169007437Y-72311896D01*
X169007437Y-72311891D01*
X169008143Y-72310262D01*
X169029793Y-72276540D01*
X169134533Y-72160216D01*
X169229179Y-71996284D01*
X169287674Y-71816256D01*
X169307460Y-71628000D01*
X169287674Y-71439744D01*
X169251820Y-71329396D01*
X169229179Y-71259715D01*
X169134533Y-71095783D01*
X169007870Y-70955110D01*
X168854730Y-70843848D01*
X168681802Y-70766855D01*
X168496648Y-70727500D01*
X168496646Y-70727500D01*
X168307354Y-70727500D01*
X168307352Y-70727500D01*
X168122197Y-70766855D01*
X167949269Y-70843848D01*
X167796129Y-70955110D01*
X167669466Y-71095783D01*
X167574820Y-71259715D01*
X167516326Y-71439742D01*
X167495178Y-71640961D01*
X167494058Y-71640843D01*
X167483923Y-71696267D01*
X167436192Y-71747291D01*
X167373171Y-71764500D01*
X165944740Y-71764500D01*
X165924236Y-71762236D01*
X165854144Y-71764439D01*
X165850250Y-71764500D01*
X165822650Y-71764500D01*
X165818789Y-71764987D01*
X165818778Y-71764988D01*
X165818645Y-71765005D01*
X165807029Y-71765918D01*
X165763368Y-71767290D01*
X165744129Y-71772880D01*
X165725080Y-71776825D01*
X165705208Y-71779335D01*
X165664593Y-71795415D01*
X165653549Y-71799196D01*
X165611611Y-71811382D01*
X165594364Y-71821581D01*
X165576900Y-71830136D01*
X165558267Y-71837514D01*
X165522926Y-71863189D01*
X165513168Y-71869599D01*
X165475579Y-71891829D01*
X165461410Y-71905998D01*
X165446622Y-71918628D01*
X165430413Y-71930405D01*
X165402572Y-71964058D01*
X165394711Y-71972696D01*
X164970208Y-72397199D01*
X164954114Y-72410093D01*
X164936244Y-72429123D01*
X164876002Y-72464516D01*
X164833251Y-72467595D01*
X164757141Y-72459819D01*
X164757122Y-72459818D01*
X164754009Y-72459500D01*
X164750860Y-72459500D01*
X163957141Y-72459500D01*
X163957121Y-72459500D01*
X163953992Y-72459501D01*
X163950860Y-72459820D01*
X163950858Y-72459821D01*
X163851203Y-72470000D01*
X163684665Y-72525186D01*
X163579595Y-72589993D01*
X163512202Y-72608433D01*
X163445539Y-72587510D01*
X163400770Y-72533867D01*
X163390499Y-72484458D01*
X163390499Y-71635992D01*
X163379999Y-71533203D01*
X163324814Y-71366666D01*
X163258847Y-71259716D01*
X163232711Y-71217342D01*
X163108657Y-71093288D01*
X162959334Y-71001186D01*
X162792797Y-70946000D01*
X162693141Y-70935819D01*
X162693122Y-70935818D01*
X162690009Y-70935500D01*
X162686860Y-70935500D01*
X161893141Y-70935500D01*
X161893121Y-70935500D01*
X161889992Y-70935501D01*
X161886860Y-70935820D01*
X161886858Y-70935821D01*
X161787203Y-70946000D01*
X161620665Y-71001186D01*
X161471344Y-71093287D01*
X161377681Y-71186950D01*
X161316358Y-71220434D01*
X161246666Y-71215450D01*
X161202319Y-71186950D01*
X161108656Y-71093288D01*
X160958403Y-71000611D01*
X160911679Y-70948663D01*
X160899500Y-70895072D01*
X160899500Y-70745125D01*
X160916113Y-70683125D01*
X160917300Y-70681070D01*
X160973179Y-70584284D01*
X161031674Y-70404256D01*
X161051460Y-70216000D01*
X161031674Y-70027744D01*
X160999470Y-69928631D01*
X160973179Y-69847715D01*
X160878533Y-69683783D01*
X160799493Y-69596000D01*
X164194540Y-69596000D01*
X164214326Y-69784257D01*
X164272820Y-69964284D01*
X164367466Y-70128216D01*
X164494129Y-70268889D01*
X164647269Y-70380151D01*
X164820197Y-70457144D01*
X165005352Y-70496500D01*
X165005354Y-70496500D01*
X165194648Y-70496500D01*
X165318084Y-70470262D01*
X165379803Y-70457144D01*
X165552730Y-70380151D01*
X165616550Y-70333783D01*
X165705870Y-70268889D01*
X165832533Y-70128216D01*
X165927179Y-69964284D01*
X165943620Y-69913684D01*
X165985674Y-69784256D01*
X166005460Y-69596000D01*
X165985674Y-69407744D01*
X165947377Y-69289879D01*
X165927179Y-69227715D01*
X165832533Y-69063783D01*
X165705870Y-68923110D01*
X165552730Y-68811848D01*
X165379802Y-68734855D01*
X165194648Y-68695500D01*
X165194646Y-68695500D01*
X165005354Y-68695500D01*
X165005352Y-68695500D01*
X164820197Y-68734855D01*
X164647269Y-68811848D01*
X164494129Y-68923110D01*
X164367466Y-69063783D01*
X164272820Y-69227715D01*
X164214326Y-69407742D01*
X164194540Y-69596000D01*
X160799493Y-69596000D01*
X160751870Y-69543110D01*
X160598730Y-69431848D01*
X160425802Y-69354855D01*
X160240648Y-69315500D01*
X160240646Y-69315500D01*
X160051354Y-69315500D01*
X160051352Y-69315500D01*
X159866197Y-69354855D01*
X159693269Y-69431848D01*
X159540129Y-69543110D01*
X159413466Y-69683783D01*
X159318820Y-69847715D01*
X159260326Y-70027742D01*
X159240540Y-70215999D01*
X159260326Y-70404257D01*
X159318820Y-70584284D01*
X159413464Y-70748213D01*
X159437725Y-70775157D01*
X159534427Y-70882555D01*
X159564656Y-70945545D01*
X159556031Y-71014880D01*
X159511290Y-71068546D01*
X159507373Y-71071064D01*
X159471343Y-71093287D01*
X159347288Y-71217342D01*
X159255186Y-71366665D01*
X159200000Y-71533202D01*
X159189819Y-71632858D01*
X159189817Y-71632878D01*
X159189500Y-71635991D01*
X159189500Y-71639138D01*
X159189500Y-71639139D01*
X159189500Y-72632859D01*
X159189500Y-72632878D01*
X158866566Y-72632878D01*
X158864280Y-72596543D01*
X158807681Y-72299840D01*
X158714341Y-72012570D01*
X158585733Y-71739264D01*
X158523273Y-71640843D01*
X158425975Y-71487525D01*
X158425973Y-71487522D01*
X158423885Y-71484232D01*
X158231349Y-71251496D01*
X158011162Y-71044726D01*
X157999227Y-71036055D01*
X157777820Y-70875194D01*
X157766795Y-70867184D01*
X157763391Y-70865313D01*
X157763387Y-70865310D01*
X157505521Y-70723546D01*
X157505514Y-70723542D01*
X157502104Y-70721668D01*
X157498478Y-70720232D01*
X157498473Y-70720230D01*
X157224890Y-70611911D01*
X157224884Y-70611909D01*
X157221262Y-70610475D01*
X157217484Y-70609505D01*
X157217481Y-70609504D01*
X156932476Y-70536328D01*
X156932475Y-70536327D01*
X156928698Y-70535358D01*
X156924835Y-70534870D01*
X156924830Y-70534869D01*
X156632891Y-70497988D01*
X156632888Y-70497987D01*
X156629027Y-70497500D01*
X156326973Y-70497500D01*
X156323112Y-70497987D01*
X156323108Y-70497988D01*
X156031169Y-70534869D01*
X156031161Y-70534870D01*
X156027302Y-70535358D01*
X156023527Y-70536327D01*
X156023523Y-70536328D01*
X155738518Y-70609504D01*
X155738511Y-70609506D01*
X155734738Y-70610475D01*
X155731120Y-70611907D01*
X155731109Y-70611911D01*
X155457526Y-70720230D01*
X155457515Y-70720234D01*
X155453896Y-70721668D01*
X155450491Y-70723539D01*
X155450478Y-70723546D01*
X155192612Y-70865310D01*
X155192600Y-70865317D01*
X155189205Y-70867184D01*
X155186061Y-70869467D01*
X155186055Y-70869472D01*
X154947994Y-71042432D01*
X154947983Y-71042440D01*
X154944838Y-71044726D01*
X154942003Y-71047387D01*
X154941996Y-71047394D01*
X154727488Y-71248831D01*
X154727481Y-71248838D01*
X154724651Y-71251496D01*
X154722176Y-71254487D01*
X154722172Y-71254492D01*
X154534598Y-71481229D01*
X154534588Y-71481241D01*
X154532115Y-71484232D01*
X154530033Y-71487511D01*
X154530024Y-71487525D01*
X154372352Y-71735977D01*
X154372345Y-71735988D01*
X154370267Y-71739264D01*
X154368613Y-71742776D01*
X154368604Y-71742795D01*
X154290870Y-71907988D01*
X154244515Y-71960266D01*
X154177255Y-71979183D01*
X154110445Y-71958734D01*
X154065296Y-71905410D01*
X154055201Y-71866632D01*
X154051819Y-71830136D01*
X154039717Y-71699531D01*
X154019212Y-71627464D01*
X153985172Y-71507821D01*
X153914884Y-71366666D01*
X153896326Y-71329396D01*
X153796515Y-71197225D01*
X153776208Y-71170334D01*
X153628912Y-71036056D01*
X153459447Y-70931127D01*
X153350415Y-70888888D01*
X153273586Y-70859124D01*
X153077660Y-70822500D01*
X152878340Y-70822500D01*
X152751794Y-70846155D01*
X152682414Y-70859124D01*
X152496552Y-70931127D01*
X152327087Y-71036056D01*
X152179791Y-71170334D01*
X152076954Y-71306513D01*
X152020845Y-71348149D01*
X151951133Y-71352840D01*
X151889951Y-71319098D01*
X151879046Y-71306513D01*
X151776208Y-71170334D01*
X151628912Y-71036056D01*
X151459447Y-70931127D01*
X151350415Y-70888888D01*
X151273586Y-70859124D01*
X151077660Y-70822500D01*
X150878340Y-70822500D01*
X150751794Y-70846155D01*
X150682414Y-70859124D01*
X150496552Y-70931127D01*
X150327087Y-71036056D01*
X150179791Y-71170334D01*
X150076954Y-71306513D01*
X150020845Y-71348149D01*
X149951133Y-71352840D01*
X149889951Y-71319098D01*
X149879046Y-71306513D01*
X149776208Y-71170334D01*
X149628912Y-71036056D01*
X149459447Y-70931127D01*
X149350415Y-70888888D01*
X149273586Y-70859124D01*
X149077660Y-70822500D01*
X148878340Y-70822500D01*
X148751794Y-70846155D01*
X148682414Y-70859124D01*
X148496552Y-70931127D01*
X148327087Y-71036056D01*
X148179791Y-71170334D01*
X148076954Y-71306513D01*
X148020845Y-71348149D01*
X147951133Y-71352840D01*
X147889951Y-71319098D01*
X147879046Y-71306513D01*
X147776208Y-71170334D01*
X147628912Y-71036056D01*
X147459447Y-70931127D01*
X147350415Y-70888888D01*
X147273586Y-70859124D01*
X147077660Y-70822500D01*
X146878340Y-70822500D01*
X146832473Y-70831073D01*
X146751792Y-70846155D01*
X146682277Y-70839123D01*
X146627599Y-70795625D01*
X146615936Y-70775164D01*
X146602001Y-70744203D01*
X146599152Y-70737326D01*
X146577818Y-70681070D01*
X146577816Y-70681068D01*
X146577816Y-70681066D01*
X146572062Y-70672731D01*
X146561033Y-70653177D01*
X146556878Y-70643944D01*
X146519780Y-70596591D01*
X146515352Y-70590573D01*
X146481184Y-70541072D01*
X146450733Y-70514095D01*
X146436153Y-70501178D01*
X146430715Y-70496058D01*
X145052940Y-69118283D01*
X145047822Y-69112847D01*
X145007929Y-69067817D01*
X145002086Y-69063784D01*
X144958436Y-69033654D01*
X144952405Y-69029216D01*
X144905054Y-68992120D01*
X144895813Y-68987961D01*
X144876273Y-68976941D01*
X144867930Y-68971182D01*
X144867927Y-68971181D01*
X144867926Y-68971180D01*
X144811701Y-68949856D01*
X144804786Y-68946992D01*
X144786253Y-68938651D01*
X144772865Y-68932626D01*
X144719810Y-68887164D01*
X144718273Y-68884740D01*
X144713712Y-68877344D01*
X144589656Y-68753288D01*
X144589655Y-68753287D01*
X144589654Y-68753286D01*
X144440334Y-68661186D01*
X144273797Y-68606000D01*
X144174141Y-68595819D01*
X144174122Y-68595818D01*
X144171009Y-68595500D01*
X144167860Y-68595500D01*
X143574141Y-68595500D01*
X143574121Y-68595500D01*
X143570992Y-68595501D01*
X143567860Y-68595820D01*
X143567858Y-68595821D01*
X143468203Y-68606000D01*
X143301665Y-68661186D01*
X143152342Y-68753288D01*
X143028288Y-68877342D01*
X142936186Y-69026665D01*
X142881000Y-69193202D01*
X142870819Y-69292858D01*
X142870817Y-69292878D01*
X142870500Y-69295991D01*
X142870500Y-69299139D01*
X142870500Y-69462135D01*
X142850815Y-69529174D01*
X142798011Y-69574929D01*
X142728853Y-69584873D01*
X142665297Y-69555848D01*
X142658819Y-69549816D01*
X142398882Y-69289879D01*
X142365397Y-69228556D01*
X142363205Y-69214798D01*
X142360999Y-69193203D01*
X142319450Y-69067817D01*
X142305814Y-69026666D01*
X142213712Y-68877344D01*
X142213711Y-68877342D01*
X142089657Y-68753288D01*
X141940334Y-68661186D01*
X141773797Y-68606000D01*
X141674141Y-68595819D01*
X141674122Y-68595818D01*
X141671009Y-68595500D01*
X141667860Y-68595500D01*
X141074141Y-68595500D01*
X141074121Y-68595500D01*
X141070992Y-68595501D01*
X141067860Y-68595820D01*
X141067858Y-68595821D01*
X140968203Y-68606000D01*
X140801665Y-68661186D01*
X140652342Y-68753288D01*
X140528288Y-68877342D01*
X140436186Y-69026665D01*
X140381000Y-69193202D01*
X140370819Y-69292858D01*
X140370817Y-69292878D01*
X140370500Y-69295991D01*
X140370500Y-69299138D01*
X140370500Y-69299139D01*
X140370500Y-69892858D01*
X140370500Y-69892877D01*
X140370501Y-69896008D01*
X140370820Y-69899140D01*
X140370821Y-69899141D01*
X140381000Y-69998796D01*
X140414431Y-70099683D01*
X140416833Y-70169512D01*
X140381101Y-70229554D01*
X140318580Y-70260746D01*
X140249121Y-70253185D01*
X140204575Y-70221659D01*
X140178870Y-70193110D01*
X140025730Y-70081848D01*
X139852802Y-70004855D01*
X139667648Y-69965500D01*
X139667646Y-69965500D01*
X139478354Y-69965500D01*
X139478352Y-69965500D01*
X139293197Y-70004855D01*
X139120269Y-70081848D01*
X138967129Y-70193110D01*
X138840466Y-70333783D01*
X138745820Y-70497715D01*
X138687326Y-70677742D01*
X138667540Y-70866000D01*
X138672641Y-70914540D01*
X138660071Y-70983270D01*
X138612338Y-71034293D01*
X138549320Y-71051500D01*
X137959580Y-71051500D01*
X137892541Y-71031815D01*
X137846786Y-70979011D01*
X137836842Y-70909853D01*
X137850025Y-70869417D01*
X137997823Y-70590641D01*
X138000639Y-70584552D01*
X138130603Y-70258368D01*
X138132748Y-70252001D01*
X138226682Y-69913684D01*
X138228125Y-69907130D01*
X138284930Y-69560630D01*
X138285656Y-69553958D01*
X138304665Y-69203356D01*
X138304665Y-69196643D01*
X138285656Y-68846041D01*
X138284930Y-68839369D01*
X138228125Y-68492869D01*
X138226682Y-68486315D01*
X138132748Y-68147998D01*
X138130603Y-68141631D01*
X138000639Y-67815447D01*
X137997830Y-67809373D01*
X137833350Y-67499131D01*
X137829897Y-67493393D01*
X137632852Y-67202774D01*
X137628792Y-67197433D01*
X137503557Y-67049995D01*
X137503556Y-67049994D01*
X136297732Y-68255818D01*
X136134870Y-68065130D01*
X135944179Y-67902266D01*
X137152743Y-66693703D01*
X137141942Y-66683473D01*
X137136842Y-66679141D01*
X136857305Y-66466642D01*
X136851759Y-66462882D01*
X136550900Y-66281862D01*
X136544961Y-66278714D01*
X136226304Y-66131287D01*
X136220062Y-66128800D01*
X135887315Y-66016684D01*
X135880870Y-66014895D01*
X135566066Y-65945601D01*
X135504826Y-65911965D01*
X135471492Y-65850559D01*
X135476648Y-65780880D01*
X135518657Y-65725050D01*
X135584182Y-65700795D01*
X135592723Y-65700500D01*
X172507277Y-65700500D01*
X172574316Y-65720185D01*
G37*
%TD.AperFunction*%
%TA.AperFunction,Conductor*%
G36*
X169992540Y-93473067D02*
G01*
X169993470Y-93473836D01*
X170018060Y-93494179D01*
X170026699Y-93502040D01*
X170858446Y-94333787D01*
X170871347Y-94349889D01*
X170873461Y-94351874D01*
X170873463Y-94351877D01*
X170889246Y-94366698D01*
X170922489Y-94397916D01*
X170925285Y-94400626D01*
X170944779Y-94420120D01*
X170947864Y-94422513D01*
X170947950Y-94422580D01*
X170956822Y-94430158D01*
X170988667Y-94460062D01*
X171006223Y-94469714D01*
X171022480Y-94480392D01*
X171038313Y-94492674D01*
X171054434Y-94499649D01*
X171078405Y-94510023D01*
X171088892Y-94515160D01*
X171127157Y-94536197D01*
X171146565Y-94541180D01*
X171164959Y-94547478D01*
X171183354Y-94555438D01*
X171226503Y-94562271D01*
X171237929Y-94564638D01*
X171253471Y-94568629D01*
X171280229Y-94575500D01*
X171280230Y-94575500D01*
X171300265Y-94575500D01*
X171319662Y-94577026D01*
X171339445Y-94580160D01*
X171382923Y-94576050D01*
X171394593Y-94575500D01*
X174129500Y-94575500D01*
X174196539Y-94595185D01*
X174242294Y-94647989D01*
X174253500Y-94699500D01*
X174253500Y-95457888D01*
X174233815Y-95524927D01*
X174181011Y-95570682D01*
X174111853Y-95580626D01*
X174066380Y-95564620D01*
X174019203Y-95536720D01*
X173861487Y-95490900D01*
X173858999Y-95490703D01*
X173859000Y-97089000D01*
X173839315Y-97156039D01*
X173786511Y-97201794D01*
X173735000Y-97213000D01*
X173483000Y-97213000D01*
X173415961Y-97193315D01*
X173370206Y-97140511D01*
X173359000Y-97089000D01*
X173359000Y-95490703D01*
X173356512Y-95490900D01*
X173198799Y-95536719D01*
X173043961Y-95628291D01*
X173042756Y-95626253D01*
X173000702Y-95649213D01*
X172931010Y-95644223D01*
X172904693Y-95627308D01*
X172904348Y-95627893D01*
X172749397Y-95536255D01*
X172591572Y-95490402D01*
X172557128Y-95487691D01*
X172557114Y-95487690D01*
X172554694Y-95487500D01*
X172123306Y-95487500D01*
X172120886Y-95487690D01*
X172120871Y-95487691D01*
X172086427Y-95490402D01*
X171928602Y-95536255D01*
X171788030Y-95619389D01*
X171720306Y-95636572D01*
X171654043Y-95614412D01*
X171624591Y-95585542D01*
X171621069Y-95580695D01*
X171595814Y-95545934D01*
X171589401Y-95536171D01*
X171582751Y-95524927D01*
X171567170Y-95498580D01*
X171553006Y-95484416D01*
X171540367Y-95469617D01*
X171528595Y-95453413D01*
X171494941Y-95425573D01*
X171486299Y-95417709D01*
X169825819Y-93757228D01*
X169792334Y-93695905D01*
X169789500Y-93669547D01*
X169789500Y-93568610D01*
X169809185Y-93501571D01*
X169861989Y-93455816D01*
X169931147Y-93445872D01*
X169992540Y-93473067D01*
G37*
%TD.AperFunction*%
%TA.AperFunction,Conductor*%
G36*
X156333603Y-94977870D02*
G01*
X156389536Y-95019742D01*
X156413953Y-95085206D01*
X156413590Y-95107013D01*
X156412259Y-95119675D01*
X156412259Y-95119676D01*
X156394612Y-95287581D01*
X156368028Y-95352196D01*
X156358971Y-95362301D01*
X156213980Y-95507294D01*
X156069093Y-95652181D01*
X156007770Y-95685666D01*
X155981412Y-95688500D01*
X153986562Y-95688500D01*
X153919523Y-95668815D01*
X153873768Y-95616011D01*
X153863624Y-95580695D01*
X153863306Y-95578281D01*
X153863305Y-95545900D01*
X153872598Y-95475314D01*
X153900865Y-95411418D01*
X153959189Y-95372947D01*
X153995537Y-95367500D01*
X155499627Y-95367500D01*
X155520133Y-95369764D01*
X155523036Y-95369672D01*
X155523038Y-95369673D01*
X155590243Y-95367561D01*
X155594139Y-95367500D01*
X155617819Y-95367500D01*
X155621721Y-95367500D01*
X155625684Y-95366999D01*
X155637333Y-95366080D01*
X155680998Y-95364709D01*
X155700230Y-95359120D01*
X155719289Y-95355174D01*
X155727301Y-95354162D01*
X155739163Y-95352664D01*
X155779778Y-95336582D01*
X155790815Y-95332803D01*
X155832761Y-95320618D01*
X155850000Y-95310422D01*
X155867473Y-95301862D01*
X155886103Y-95294486D01*
X155921435Y-95268814D01*
X155931201Y-95262400D01*
X155950791Y-95250815D01*
X155968791Y-95240170D01*
X155982956Y-95226004D01*
X155997744Y-95213373D01*
X156013958Y-95201594D01*
X156041809Y-95167926D01*
X156049650Y-95159309D01*
X156202590Y-95006369D01*
X156263911Y-94972886D01*
X156333603Y-94977870D01*
G37*
%TD.AperFunction*%
%TA.AperFunction,Conductor*%
G36*
X142623039Y-84814685D02*
G01*
X142668794Y-84867489D01*
X142680000Y-84919000D01*
X142679999Y-85093999D01*
X142680000Y-85094000D01*
X143906000Y-85094000D01*
X143973039Y-85113685D01*
X144018794Y-85166489D01*
X144030000Y-85218000D01*
X144030000Y-85470000D01*
X144010315Y-85537039D01*
X143957511Y-85582794D01*
X143906000Y-85594000D01*
X142680001Y-85594000D01*
X142680001Y-85840829D01*
X142680321Y-85847111D01*
X142690493Y-85946695D01*
X142704014Y-85987496D01*
X142706416Y-86057324D01*
X142670684Y-86117366D01*
X142608164Y-86148559D01*
X142586308Y-86150500D01*
X141790629Y-86150500D01*
X141723590Y-86130815D01*
X141677835Y-86078011D01*
X141667891Y-86008853D01*
X141686820Y-85958678D01*
X141786173Y-85806607D01*
X141886063Y-85578881D01*
X141947108Y-85337821D01*
X141967643Y-85090000D01*
X141954322Y-84929239D01*
X141968404Y-84860804D01*
X142017249Y-84810845D01*
X142077899Y-84795000D01*
X142556000Y-84795000D01*
X142623039Y-84814685D01*
G37*
%TD.AperFunction*%
%TA.AperFunction,Conductor*%
G36*
X143729416Y-79200635D02*
G01*
X143768285Y-79226942D01*
X144267058Y-79725715D01*
X144272178Y-79731153D01*
X144311762Y-79775834D01*
X144312072Y-79776184D01*
X144361573Y-79810352D01*
X144367591Y-79814780D01*
X144414944Y-79851878D01*
X144424180Y-79856034D01*
X144443731Y-79867062D01*
X144452066Y-79872816D01*
X144452068Y-79872816D01*
X144452070Y-79872818D01*
X144508326Y-79894152D01*
X144515220Y-79897009D01*
X144570069Y-79921695D01*
X144580044Y-79923522D01*
X144601656Y-79929547D01*
X144611128Y-79933140D01*
X144670841Y-79940390D01*
X144678185Y-79941507D01*
X144737394Y-79952358D01*
X144794102Y-79948927D01*
X144797434Y-79948726D01*
X144804921Y-79948500D01*
X144894821Y-79948500D01*
X144961860Y-79968185D01*
X145007615Y-80020989D01*
X145017559Y-80090147D01*
X145013897Y-80107095D01*
X144998402Y-80160427D01*
X144995691Y-80194871D01*
X144995690Y-80194886D01*
X144995500Y-80197306D01*
X144995500Y-81503694D01*
X144995690Y-81506114D01*
X144995691Y-81506128D01*
X144998402Y-81540572D01*
X145044254Y-81698394D01*
X145044255Y-81698396D01*
X145044256Y-81698398D01*
X145078733Y-81756695D01*
X145096000Y-81819814D01*
X145096000Y-82475500D01*
X145646000Y-82475500D01*
X145646000Y-82212500D01*
X145665685Y-82145461D01*
X145718489Y-82099706D01*
X145770000Y-82088500D01*
X145821500Y-82088500D01*
X145888539Y-82108185D01*
X145934294Y-82160989D01*
X145945500Y-82212500D01*
X145945500Y-83020000D01*
X145925815Y-83087039D01*
X145873011Y-83132794D01*
X145821500Y-83144000D01*
X145770000Y-83144000D01*
X145702961Y-83124315D01*
X145657206Y-83071511D01*
X145646000Y-83020000D01*
X145646000Y-82975500D01*
X144046000Y-82975500D01*
X144046000Y-83170000D01*
X144026315Y-83237039D01*
X143973511Y-83282794D01*
X143922000Y-83294000D01*
X141922730Y-83294000D01*
X141855691Y-83274315D01*
X141835049Y-83257681D01*
X141539810Y-82962442D01*
X141506325Y-82901119D01*
X141511309Y-82831427D01*
X141553181Y-82775494D01*
X141618645Y-82751077D01*
X141679896Y-82762379D01*
X141776509Y-82807430D01*
X141990000Y-82864634D01*
X141990000Y-81969501D01*
X142097685Y-82018680D01*
X142204237Y-82034000D01*
X142275763Y-82034000D01*
X142382315Y-82018680D01*
X142490000Y-81969501D01*
X142490000Y-82864633D01*
X142703490Y-82807430D01*
X142917576Y-82707600D01*
X143111081Y-82572106D01*
X143207687Y-82475500D01*
X144046000Y-82475500D01*
X144596000Y-82475500D01*
X144596000Y-81490703D01*
X144593512Y-81490900D01*
X144435799Y-81536719D01*
X144294442Y-81620317D01*
X144178317Y-81736442D01*
X144094717Y-81877802D01*
X144048900Y-82035506D01*
X144046191Y-82069923D01*
X144046000Y-82074803D01*
X144046000Y-82475500D01*
X143207687Y-82475500D01*
X143278106Y-82405081D01*
X143413600Y-82211576D01*
X143513430Y-81997492D01*
X143570636Y-81784000D01*
X142673686Y-81784000D01*
X142699493Y-81743844D01*
X142740000Y-81605889D01*
X142740000Y-81462111D01*
X142699493Y-81324156D01*
X142673686Y-81284000D01*
X143570636Y-81284000D01*
X143570635Y-81283999D01*
X143513430Y-81070507D01*
X143413599Y-80856421D01*
X143278109Y-80662921D01*
X143111081Y-80495893D01*
X142925404Y-80365880D01*
X142881780Y-80311303D01*
X142874587Y-80241804D01*
X142906109Y-80179450D01*
X142925399Y-80162734D01*
X143111401Y-80032495D01*
X143278495Y-79865401D01*
X143414035Y-79671830D01*
X143513903Y-79457663D01*
X143560829Y-79282529D01*
X143597194Y-79222869D01*
X143660041Y-79192340D01*
X143729416Y-79200635D01*
G37*
%TD.AperFunction*%
%TA.AperFunction,Conductor*%
G36*
X151257703Y-82788622D02*
G01*
X151275409Y-82807550D01*
X151293462Y-82831427D01*
X151318997Y-82865203D01*
X151429482Y-82947095D01*
X151434587Y-82950879D01*
X151496068Y-82984072D01*
X151496070Y-82984073D01*
X151631116Y-83033712D01*
X151668898Y-83041743D01*
X151721157Y-83050020D01*
X151746939Y-83052730D01*
X151799782Y-83055500D01*
X151801386Y-83055500D01*
X152490614Y-83055500D01*
X152492218Y-83055500D01*
X152545063Y-83052730D01*
X152570844Y-83050020D01*
X152599212Y-83045527D01*
X152618610Y-83044000D01*
X152689391Y-83044000D01*
X152708788Y-83045526D01*
X152737156Y-83050020D01*
X152762937Y-83052730D01*
X152815782Y-83055500D01*
X152817386Y-83055500D01*
X154194500Y-83055500D01*
X154261539Y-83075185D01*
X154307294Y-83127989D01*
X154318500Y-83179500D01*
X154318500Y-83622560D01*
X154318500Y-83622578D01*
X154318501Y-83625872D01*
X154318853Y-83629152D01*
X154318854Y-83629159D01*
X154324909Y-83685484D01*
X154350056Y-83752906D01*
X154375204Y-83820331D01*
X154461454Y-83935546D01*
X154571934Y-84018251D01*
X154607029Y-84065134D01*
X154607410Y-84064909D01*
X154609475Y-84068401D01*
X154613804Y-84074184D01*
X154614962Y-84077680D01*
X154625580Y-84095635D01*
X154634136Y-84113100D01*
X154641514Y-84131732D01*
X154641515Y-84131733D01*
X154667180Y-84167059D01*
X154673593Y-84176822D01*
X154695826Y-84214416D01*
X154695829Y-84214419D01*
X154695830Y-84214420D01*
X154709995Y-84228585D01*
X154722628Y-84243377D01*
X154735907Y-84261654D01*
X154759387Y-84327460D01*
X154743561Y-84395514D01*
X154728600Y-84416544D01*
X154726625Y-84418783D01*
X154723880Y-84421529D01*
X154721500Y-84424595D01*
X154721496Y-84424601D01*
X154721411Y-84424711D01*
X154713842Y-84433572D01*
X154683935Y-84465420D01*
X154674285Y-84482974D01*
X154663609Y-84499228D01*
X154651326Y-84515063D01*
X154633975Y-84555158D01*
X154628837Y-84565645D01*
X154614178Y-84592310D01*
X154579827Y-84631840D01*
X154461454Y-84720453D01*
X154375204Y-84835668D01*
X154338774Y-84933344D01*
X154324909Y-84970517D01*
X154318500Y-85030127D01*
X154318500Y-85033448D01*
X154318500Y-85033449D01*
X154318500Y-85383485D01*
X154298815Y-85450524D01*
X154246011Y-85496279D01*
X154176853Y-85506223D01*
X154113297Y-85477198D01*
X154088961Y-85448581D01*
X154077711Y-85430342D01*
X153953657Y-85306288D01*
X153804334Y-85214186D01*
X153637797Y-85159000D01*
X153538141Y-85148819D01*
X153538122Y-85148818D01*
X153535009Y-85148500D01*
X153531860Y-85148500D01*
X152538140Y-85148500D01*
X152538120Y-85148500D01*
X152534992Y-85148501D01*
X152531860Y-85148820D01*
X152531858Y-85148821D01*
X152432203Y-85159000D01*
X152265665Y-85214186D01*
X152116342Y-85306288D01*
X151992288Y-85430342D01*
X151892578Y-85592000D01*
X151888881Y-85589719D01*
X151864366Y-85625100D01*
X151832114Y-85643915D01*
X151805600Y-85654412D01*
X151794554Y-85658194D01*
X151752610Y-85670381D01*
X151735365Y-85680579D01*
X151717904Y-85689133D01*
X151699270Y-85696511D01*
X151665383Y-85721132D01*
X151599576Y-85744611D01*
X151531523Y-85728785D01*
X151482829Y-85678678D01*
X151468499Y-85620813D01*
X151468499Y-85355140D01*
X151468499Y-85351992D01*
X151457999Y-85249203D01*
X151402814Y-85082666D01*
X151310712Y-84933344D01*
X151310711Y-84933342D01*
X151186657Y-84809288D01*
X151177400Y-84803578D01*
X151130677Y-84751629D01*
X151118500Y-84698041D01*
X151118500Y-84354321D01*
X151135113Y-84292321D01*
X151175049Y-84223151D01*
X151195179Y-84188284D01*
X151253674Y-84008256D01*
X151273460Y-83820000D01*
X151253674Y-83631744D01*
X151215410Y-83513980D01*
X151195179Y-83451715D01*
X151100533Y-83287783D01*
X151084350Y-83269810D01*
X151054120Y-83206818D01*
X151052500Y-83186838D01*
X151052500Y-82882335D01*
X151072185Y-82815296D01*
X151124989Y-82769541D01*
X151194147Y-82759597D01*
X151257703Y-82788622D01*
G37*
%TD.AperFunction*%
%TA.AperFunction,Conductor*%
G36*
X149284229Y-74954401D02*
G01*
X149338908Y-74997898D01*
X149361391Y-75064052D01*
X149361500Y-75069259D01*
X149361500Y-76388240D01*
X149341815Y-76455279D01*
X149325181Y-76475922D01*
X149259205Y-76541897D01*
X149243111Y-76554790D01*
X149195096Y-76605920D01*
X149192392Y-76608711D01*
X149175628Y-76625475D01*
X149175621Y-76625482D01*
X149172880Y-76628224D01*
X149170499Y-76631292D01*
X149170490Y-76631303D01*
X149170411Y-76631406D01*
X149162842Y-76640267D01*
X149129365Y-76675918D01*
X149113919Y-76696488D01*
X148875226Y-76935182D01*
X148813906Y-76968666D01*
X148787547Y-76971500D01*
X146264650Y-76971500D01*
X146260790Y-76971987D01*
X146260783Y-76971988D01*
X146147208Y-76986335D01*
X146000269Y-77044513D01*
X145995715Y-77047822D01*
X145929907Y-77071298D01*
X145922836Y-77071500D01*
X145869103Y-77071500D01*
X145850738Y-77075153D01*
X145781147Y-77068921D01*
X145738872Y-77041215D01*
X145714819Y-77017162D01*
X145681334Y-76955839D01*
X145678500Y-76929481D01*
X145678500Y-76659851D01*
X145698185Y-76592812D01*
X145750989Y-76547057D01*
X145815102Y-76536493D01*
X145854323Y-76540500D01*
X146527676Y-76540499D01*
X146628753Y-76530174D01*
X146792516Y-76475908D01*
X146939350Y-76385340D01*
X146978671Y-76346018D01*
X147039994Y-76312533D01*
X147109685Y-76317517D01*
X147154034Y-76346018D01*
X147192959Y-76384943D01*
X147339698Y-76475453D01*
X147503348Y-76529681D01*
X147601222Y-76539680D01*
X147607500Y-76539999D01*
X147691000Y-76539998D01*
X147691000Y-75815000D01*
X148191000Y-75815000D01*
X148191000Y-76539999D01*
X148274497Y-76539999D01*
X148280779Y-76539678D01*
X148378650Y-76529681D01*
X148542301Y-76475453D01*
X148689040Y-76384943D01*
X148810943Y-76263040D01*
X148901453Y-76116301D01*
X148955681Y-75952651D01*
X148965680Y-75854777D01*
X148966000Y-75848499D01*
X148966000Y-75815000D01*
X148191000Y-75815000D01*
X147691000Y-75815000D01*
X147691000Y-75439000D01*
X147710685Y-75371961D01*
X147763489Y-75326206D01*
X147815000Y-75315000D01*
X148965999Y-75315000D01*
X148965999Y-75281502D01*
X148965678Y-75275220D01*
X148955681Y-75177347D01*
X148941981Y-75136003D01*
X148939580Y-75066175D01*
X148975312Y-75006133D01*
X149037832Y-74974941D01*
X149059687Y-74973000D01*
X149077610Y-74973000D01*
X149214714Y-74947370D01*
X149284229Y-74954401D01*
G37*
%TD.AperFunction*%
%TA.AperFunction,Conductor*%
G36*
X148066048Y-72476900D02*
G01*
X148076954Y-72489486D01*
X148179789Y-72625663D01*
X148327089Y-72759945D01*
X148380259Y-72792866D01*
X148426895Y-72844894D01*
X148437999Y-72913875D01*
X148418070Y-72959526D01*
X148415472Y-72981919D01*
X149006578Y-73573025D01*
X149006436Y-73573000D01*
X148949564Y-73573000D01*
X148865129Y-73587888D01*
X148765871Y-73645195D01*
X148692199Y-73732993D01*
X148653000Y-73840694D01*
X148653000Y-73926554D01*
X148058772Y-73332326D01*
X147997233Y-73342365D01*
X147969197Y-73349583D01*
X147902858Y-73327655D01*
X147874414Y-73300380D01*
X147870717Y-73295485D01*
X147844094Y-73260230D01*
X147776208Y-73170334D01*
X147628910Y-73036055D01*
X147576214Y-73003427D01*
X147529578Y-72951399D01*
X147518474Y-72882418D01*
X147546427Y-72818383D01*
X147576214Y-72792573D01*
X147628910Y-72759945D01*
X147776209Y-72625664D01*
X147782535Y-72617288D01*
X147879046Y-72489486D01*
X147935154Y-72447849D01*
X148004866Y-72443157D01*
X148066048Y-72476900D01*
G37*
%TD.AperFunction*%
%TD*%
%TA.AperFunction,Conductor*%
%TO.N,+3V3*%
G36*
X155645039Y-75838685D02*
G01*
X155690794Y-75891489D01*
X155702000Y-75943000D01*
X155702000Y-76195214D01*
X155682315Y-76262253D01*
X155629511Y-76308008D01*
X155560353Y-76317952D01*
X155538996Y-76312920D01*
X155365696Y-76255493D01*
X155266109Y-76245319D01*
X155259832Y-76245000D01*
X155125500Y-76245000D01*
X155125500Y-78249319D01*
X155144166Y-78283504D01*
X155147000Y-78309862D01*
X155147000Y-80726999D01*
X155281329Y-80726999D01*
X155287611Y-80726678D01*
X155387195Y-80716506D01*
X155538996Y-80666204D01*
X155608824Y-80663802D01*
X155668866Y-80699534D01*
X155700059Y-80762054D01*
X155702000Y-80783910D01*
X155702000Y-80853500D01*
X155682315Y-80920539D01*
X155629511Y-80966294D01*
X155578000Y-80977500D01*
X154774439Y-80977500D01*
X154774420Y-80977500D01*
X154771128Y-80977501D01*
X154767848Y-80977853D01*
X154767840Y-80977854D01*
X154711515Y-80983909D01*
X154576669Y-81034204D01*
X154461454Y-81120454D01*
X154375204Y-81235668D01*
X154375203Y-81235669D01*
X154375204Y-81235669D01*
X154324909Y-81370517D01*
X154318500Y-81430127D01*
X154318500Y-82426001D01*
X154298817Y-82493039D01*
X154246013Y-82538794D01*
X154194501Y-82550000D01*
X152815782Y-82550000D01*
X152790001Y-82547290D01*
X152748647Y-82538500D01*
X152748646Y-82538500D01*
X152559354Y-82538500D01*
X152559353Y-82538500D01*
X152517999Y-82547290D01*
X152492218Y-82550000D01*
X151799782Y-82550000D01*
X151774000Y-82547290D01*
X151736218Y-82539259D01*
X151674737Y-82506066D01*
X151640960Y-82444903D01*
X151638000Y-82417969D01*
X151638000Y-79752000D01*
X153809501Y-79752000D01*
X153809501Y-80023829D01*
X153809821Y-80030111D01*
X153819993Y-80129695D01*
X153875142Y-80296122D01*
X153967183Y-80445345D01*
X154091154Y-80569316D01*
X154240377Y-80661357D01*
X154406803Y-80716506D01*
X154506390Y-80726680D01*
X154512668Y-80726999D01*
X154646999Y-80726999D01*
X154647000Y-80726998D01*
X154647000Y-79752000D01*
X153809501Y-79752000D01*
X151638000Y-79752000D01*
X151638000Y-78151951D01*
X151657685Y-78084912D01*
X151674319Y-78064270D01*
X151746760Y-77991829D01*
X151894786Y-77843802D01*
X151910886Y-77830905D01*
X151912874Y-77828787D01*
X151912877Y-77828786D01*
X151958964Y-77779707D01*
X151961549Y-77777039D01*
X151981120Y-77757470D01*
X151983565Y-77754316D01*
X151991154Y-77745429D01*
X152015035Y-77720000D01*
X153788001Y-77720000D01*
X153788001Y-77991829D01*
X153788321Y-77998111D01*
X153798493Y-78097695D01*
X153853641Y-78264120D01*
X153953292Y-78425679D01*
X153952436Y-78426206D01*
X153978572Y-78474071D01*
X153973588Y-78543763D01*
X153962945Y-78565525D01*
X153875142Y-78707877D01*
X153819993Y-78874303D01*
X153809819Y-78973890D01*
X153809500Y-78980168D01*
X153809500Y-79252000D01*
X154647000Y-79252000D01*
X154647000Y-78722680D01*
X154628334Y-78688496D01*
X154625500Y-78662138D01*
X154625500Y-77720000D01*
X153788001Y-77720000D01*
X152015035Y-77720000D01*
X152021062Y-77713582D01*
X152030713Y-77696026D01*
X152041393Y-77679767D01*
X152053674Y-77663936D01*
X152071018Y-77623851D01*
X152076160Y-77613356D01*
X152097197Y-77575092D01*
X152102178Y-77555688D01*
X152108480Y-77537283D01*
X152116438Y-77518895D01*
X152123270Y-77475748D01*
X152125639Y-77464316D01*
X152136500Y-77422020D01*
X152136500Y-77401983D01*
X152138027Y-77382584D01*
X152141160Y-77362804D01*
X152137050Y-77319324D01*
X152136500Y-77307655D01*
X152136500Y-77220000D01*
X153788000Y-77220000D01*
X154625500Y-77220000D01*
X154625500Y-76245000D01*
X154491171Y-76245000D01*
X154484888Y-76245321D01*
X154385304Y-76255493D01*
X154218877Y-76310642D01*
X154069654Y-76402683D01*
X153945683Y-76526654D01*
X153853642Y-76675877D01*
X153798493Y-76842303D01*
X153788319Y-76941890D01*
X153788000Y-76948168D01*
X153788000Y-77220000D01*
X152136500Y-77220000D01*
X152136500Y-75979915D01*
X152156185Y-75912876D01*
X152208989Y-75867121D01*
X152278147Y-75857177D01*
X152333384Y-75879596D01*
X152455270Y-75968151D01*
X152455271Y-75968151D01*
X152455272Y-75968152D01*
X152628197Y-76045144D01*
X152813352Y-76084500D01*
X152813354Y-76084500D01*
X153002648Y-76084500D01*
X153126084Y-76058262D01*
X153187803Y-76045144D01*
X153360730Y-75968151D01*
X153482615Y-75879597D01*
X153524415Y-75849228D01*
X153525700Y-75850997D01*
X153570530Y-75823379D01*
X153603194Y-75819000D01*
X155578000Y-75819000D01*
X155645039Y-75838685D01*
G37*
%TD.AperFunction*%
%TD*%
M02*
