M48
INCH,TZ
T1C0.0157
T2C0.0276
T3C0.0315
T4C0.0319
T5C0.0394
T6C0.0906
%
G90
G05
T1
X51500Y-39500
X60550Y-33400
X65100Y-25000
X68700Y-28900
X70300Y-33850
X70800Y-28300
X71000Y-36400
X74450Y-35550
X75100Y-28400
X77100Y-30900
X77650Y-32550
X77700Y-31900
T2
X48400Y-24600
X48400Y-25600
X48400Y-26600
T3
X70500Y-41700
X71484Y-41700
X60100Y-35900
X60100Y-36900
X60100Y-37900
X60100Y-38900
X63100Y-35900
X63100Y-36900
X63100Y-37900
X63100Y-38900
X68700Y-35900
X68700Y-36900
X68700Y-37900
X68700Y-38900
X71700Y-35900
X71700Y-36900
X71700Y-37900
X71700Y-38900
X61116Y-41800
X62100Y-41800
X75500Y-29800
X75500Y-30800
X75500Y-31800
X75500Y-32800
X75500Y-33800
X75500Y-34800
X75500Y-35800
X75500Y-36800
X75500Y-37800
X78500Y-29800
X78500Y-30800
X78500Y-31800
X78500Y-32800
X78500Y-33800
X78500Y-34800
X78500Y-35800
X78500Y-36800
X78500Y-37800
X48716Y-21400
X49700Y-21400
X53600Y-25900
X53600Y-26900
X53600Y-27900
X53600Y-28900
X53600Y-29900
X53600Y-30900
X53600Y-31900
X53600Y-32900
X53600Y-33900
X53600Y-34900
X53600Y-35900
X53600Y-36900
X53600Y-37900
X53600Y-38900
X56600Y-25900
X56600Y-26900
X56600Y-27900
X56600Y-28900
X56600Y-29900
X56600Y-30900
X56600Y-31900
X56600Y-32900
X56600Y-33900
X56600Y-34900
X56600Y-35900
X56600Y-36900
X56600Y-37900
X56600Y-38900
X68700Y-25900
X68700Y-26900
X68700Y-27900
X68700Y-28900
X68700Y-29900
X68700Y-30900
X68700Y-31900
X71700Y-25900
X71700Y-26900
X71700Y-27900
X71700Y-28900
X71700Y-29900
X71700Y-30900
X71700Y-31900
X48716Y-29700
X49700Y-29700
X49600Y-35000
X49600Y-36921
T4
X75800Y-24813
X75800Y-25600
X76800Y-24813
X76800Y-25600
T5
X65300Y-36350
X66300Y-36350
X65100Y-41750
X66100Y-41750
X67400Y-20200
X68400Y-20200
X69400Y-20200
X70400Y-20200
X71400Y-20200
X60800Y-20200
X61800Y-20200
X62800Y-20200
X63800Y-20200
X64800Y-20200
X55400Y-20200
X56400Y-20200
X57400Y-20200
X58400Y-20200
X52000Y-20200
X53000Y-20200
X65250Y-38000
X66250Y-38000
T6
X73938Y-23750
X78662Y-23750
T0
M30
