G04 #@! TF.GenerationSoftware,KiCad,Pcbnew,(5.1.2)-1*
G04 #@! TF.CreationDate,2020-02-23T20:15:25-05:00*
G04 #@! TF.ProjectId,telemetry_receiver,74656c65-6d65-4747-9279-5f7265636569,rev?*
G04 #@! TF.SameCoordinates,Original*
G04 #@! TF.FileFunction,Legend,Top*
G04 #@! TF.FilePolarity,Positive*
%FSLAX46Y46*%
G04 Gerber Fmt 4.6, Leading zero omitted, Abs format (unit mm)*
G04 Created by KiCad (PCBNEW (5.1.2)-1) date 2020-02-23 20:15:25*
%MOMM*%
%LPD*%
G04 APERTURE LIST*
%ADD10C,0.150000*%
%ADD11C,0.200000*%
%ADD12C,0.127000*%
%ADD13C,0.120000*%
G04 APERTURE END LIST*
D10*
X115425790Y-81494380D02*
X115663885Y-82494380D01*
X115854361Y-81780095D01*
X116044838Y-82494380D01*
X116282933Y-81494380D01*
X116663885Y-82494380D02*
X116663885Y-81494380D01*
X116663885Y-81970571D02*
X117235314Y-81970571D01*
X117235314Y-82494380D02*
X117235314Y-81494380D01*
X117711504Y-82494380D02*
X117711504Y-81494380D01*
X118044838Y-81494380D02*
X118616266Y-81494380D01*
X118330552Y-82494380D02*
X118330552Y-81494380D01*
X118949600Y-81970571D02*
X119282933Y-81970571D01*
X119425790Y-82494380D02*
X118949600Y-82494380D01*
X118949600Y-81494380D01*
X119425790Y-81494380D01*
X130770476Y-81970571D02*
X130913333Y-82018190D01*
X130960952Y-82065809D01*
X131008571Y-82161047D01*
X131008571Y-82303904D01*
X130960952Y-82399142D01*
X130913333Y-82446761D01*
X130818095Y-82494380D01*
X130437142Y-82494380D01*
X130437142Y-81494380D01*
X130770476Y-81494380D01*
X130865714Y-81542000D01*
X130913333Y-81589619D01*
X130960952Y-81684857D01*
X130960952Y-81780095D01*
X130913333Y-81875333D01*
X130865714Y-81922952D01*
X130770476Y-81970571D01*
X130437142Y-81970571D01*
X131913333Y-82494380D02*
X131437142Y-82494380D01*
X131437142Y-81494380D01*
X132246666Y-81494380D02*
X132246666Y-82303904D01*
X132294285Y-82399142D01*
X132341904Y-82446761D01*
X132437142Y-82494380D01*
X132627619Y-82494380D01*
X132722857Y-82446761D01*
X132770476Y-82399142D01*
X132818095Y-82303904D01*
X132818095Y-81494380D01*
X133294285Y-81970571D02*
X133627619Y-81970571D01*
X133770476Y-82494380D02*
X133294285Y-82494380D01*
X133294285Y-81494380D01*
X133770476Y-81494380D01*
X124096542Y-82494380D02*
X123763209Y-82018190D01*
X123525114Y-82494380D02*
X123525114Y-81494380D01*
X123906066Y-81494380D01*
X124001304Y-81542000D01*
X124048923Y-81589619D01*
X124096542Y-81684857D01*
X124096542Y-81827714D01*
X124048923Y-81922952D01*
X124001304Y-81970571D01*
X123906066Y-82018190D01*
X123525114Y-82018190D01*
X124525114Y-81970571D02*
X124858447Y-81970571D01*
X125001304Y-82494380D02*
X124525114Y-82494380D01*
X124525114Y-81494380D01*
X125001304Y-81494380D01*
X125429876Y-82494380D02*
X125429876Y-81494380D01*
X125667971Y-81494380D01*
X125810828Y-81542000D01*
X125906066Y-81637238D01*
X125953685Y-81732476D01*
X126001304Y-81922952D01*
X126001304Y-82065809D01*
X125953685Y-82256285D01*
X125906066Y-82351523D01*
X125810828Y-82446761D01*
X125667971Y-82494380D01*
X125429876Y-82494380D01*
X137826904Y-78293980D02*
X138445952Y-78293980D01*
X138112619Y-78674933D01*
X138255476Y-78674933D01*
X138350714Y-78722552D01*
X138398333Y-78770171D01*
X138445952Y-78865409D01*
X138445952Y-79103504D01*
X138398333Y-79198742D01*
X138350714Y-79246361D01*
X138255476Y-79293980D01*
X137969761Y-79293980D01*
X137874523Y-79246361D01*
X137826904Y-79198742D01*
X138731666Y-78293980D02*
X139065000Y-79293980D01*
X139398333Y-78293980D01*
X139636428Y-78293980D02*
X140255476Y-78293980D01*
X139922142Y-78674933D01*
X140065000Y-78674933D01*
X140160238Y-78722552D01*
X140207857Y-78770171D01*
X140255476Y-78865409D01*
X140255476Y-79103504D01*
X140207857Y-79198742D01*
X140160238Y-79246361D01*
X140065000Y-79293980D01*
X139779285Y-79293980D01*
X139684047Y-79246361D01*
X139636428Y-79198742D01*
X136428409Y-75691400D02*
X137571266Y-75691400D01*
X136666504Y-77058780D02*
X136666504Y-76058780D01*
X136999838Y-76773066D01*
X137333171Y-76058780D01*
X137333171Y-77058780D01*
X137571266Y-75691400D02*
X138571266Y-75691400D01*
X138380790Y-76963542D02*
X138333171Y-77011161D01*
X138190314Y-77058780D01*
X138095076Y-77058780D01*
X137952219Y-77011161D01*
X137856980Y-76915923D01*
X137809361Y-76820685D01*
X137761742Y-76630209D01*
X137761742Y-76487352D01*
X137809361Y-76296876D01*
X137856980Y-76201638D01*
X137952219Y-76106400D01*
X138095076Y-76058780D01*
X138190314Y-76058780D01*
X138333171Y-76106400D01*
X138380790Y-76154019D01*
X138571266Y-75691400D02*
X139380790Y-75691400D01*
X139285552Y-77058780D02*
X138809361Y-77058780D01*
X138809361Y-76058780D01*
X139380790Y-75691400D02*
X140380790Y-75691400D01*
X140190314Y-77058780D02*
X139856980Y-76582590D01*
X139618885Y-77058780D02*
X139618885Y-76058780D01*
X139999838Y-76058780D01*
X140095076Y-76106400D01*
X140142695Y-76154019D01*
X140190314Y-76249257D01*
X140190314Y-76392114D01*
X140142695Y-76487352D01*
X140095076Y-76534971D01*
X139999838Y-76582590D01*
X139618885Y-76582590D01*
D11*
X118067600Y-84466200D02*
G75*
G03X118067600Y-84466200I-100000J0D01*
G01*
D12*
X120117600Y-83516200D02*
X136117600Y-83516200D01*
X120117600Y-99516200D02*
X136117600Y-99516200D01*
D13*
X142189200Y-87867800D02*
X141079200Y-87867800D01*
X141079200Y-87867800D02*
X141079200Y-86537800D01*
X152279200Y-87867800D02*
X152279200Y-75047800D01*
X152279200Y-75047800D02*
X143649200Y-75047800D01*
X143649200Y-87867800D02*
X143649200Y-75047800D01*
X152279200Y-87867800D02*
X143649200Y-87867800D01*
X152279200Y-77647800D02*
X143649200Y-77647800D01*
X152279200Y-80187800D02*
X143649200Y-80187800D01*
X152279200Y-82727800D02*
X143649200Y-82727800D01*
X152279200Y-85267800D02*
X143649200Y-85267800D01*
X143649200Y-76017800D02*
X143239200Y-76017800D01*
X143649200Y-76737800D02*
X143239200Y-76737800D01*
X143649200Y-78557800D02*
X143239200Y-78557800D01*
X143649200Y-79277800D02*
X143239200Y-79277800D01*
X143649200Y-81097800D02*
X143239200Y-81097800D01*
X143649200Y-81817800D02*
X143239200Y-81817800D01*
X143649200Y-83637800D02*
X143239200Y-83637800D01*
X143649200Y-84357800D02*
X143239200Y-84357800D01*
X143649200Y-86177800D02*
X143299200Y-86177800D01*
X143649200Y-86897800D02*
X143299200Y-86897800D01*
X152279200Y-85385900D02*
X143649200Y-85385900D01*
X152279200Y-85503995D02*
X143649200Y-85503995D01*
X152279200Y-85622090D02*
X143649200Y-85622090D01*
X152279200Y-85740185D02*
X143649200Y-85740185D01*
X152279200Y-85858280D02*
X143649200Y-85858280D01*
X152279200Y-85976375D02*
X143649200Y-85976375D01*
X152279200Y-86094470D02*
X143649200Y-86094470D01*
X152279200Y-86212565D02*
X143649200Y-86212565D01*
X152279200Y-86330660D02*
X143649200Y-86330660D01*
X152279200Y-86448755D02*
X143649200Y-86448755D01*
X152279200Y-86566850D02*
X143649200Y-86566850D01*
X152279200Y-86684945D02*
X143649200Y-86684945D01*
X152279200Y-86803040D02*
X143649200Y-86803040D01*
X152279200Y-86921135D02*
X143649200Y-86921135D01*
X152279200Y-87039230D02*
X143649200Y-87039230D01*
X152279200Y-87157325D02*
X143649200Y-87157325D01*
X152279200Y-87275420D02*
X143649200Y-87275420D01*
X152279200Y-87393515D02*
X143649200Y-87393515D01*
X152279200Y-87511610D02*
X143649200Y-87511610D01*
X152279200Y-87629705D02*
X143649200Y-87629705D01*
X152279200Y-87747800D02*
X143649200Y-87747800D01*
X144730780Y-94807080D02*
X152230780Y-94807080D01*
X144730780Y-94807080D02*
X144730780Y-102307080D01*
X152230780Y-94807080D02*
X152230780Y-102307080D01*
X152230780Y-102307080D02*
X144730780Y-102307080D01*
X132401052Y-75667800D02*
X131878548Y-75667800D01*
X132401052Y-77087800D02*
X131878548Y-77087800D01*
X117770652Y-75667800D02*
X117248148Y-75667800D01*
X117770652Y-77087800D02*
X117248148Y-77087800D01*
X125076852Y-75667800D02*
X124554348Y-75667800D01*
X125076852Y-77087800D02*
X124554348Y-77087800D01*
X108033600Y-82333600D02*
X106983600Y-82333600D01*
X108033600Y-94623600D02*
X106983600Y-94623600D01*
X111203600Y-92878600D02*
X111203600Y-84078600D01*
X119898500Y-78646400D02*
X115838500Y-78646400D01*
X119898500Y-80916400D02*
X119898500Y-78646400D01*
X115838500Y-80916400D02*
X119898500Y-80916400D01*
X127188300Y-78621000D02*
X123128300Y-78621000D01*
X127188300Y-80891000D02*
X127188300Y-78621000D01*
X123128300Y-80891000D02*
X127188300Y-80891000D01*
X134514600Y-78595600D02*
X130454600Y-78595600D01*
X134514600Y-80865600D02*
X134514600Y-78595600D01*
X130454600Y-80865600D02*
X134514600Y-80865600D01*
X145058200Y-92245548D02*
X145058200Y-92768052D01*
X143638200Y-92245548D02*
X143638200Y-92768052D01*
X139701200Y-92229148D02*
X139701200Y-92751652D01*
X141121200Y-92229148D02*
X141121200Y-92751652D01*
D10*
X127355695Y-100112580D02*
X127355695Y-100922104D01*
X127403314Y-101017342D01*
X127450933Y-101064961D01*
X127546171Y-101112580D01*
X127736647Y-101112580D01*
X127831885Y-101064961D01*
X127879504Y-101017342D01*
X127927123Y-100922104D01*
X127927123Y-100112580D01*
X128355695Y-100207819D02*
X128403314Y-100160200D01*
X128498552Y-100112580D01*
X128736647Y-100112580D01*
X128831885Y-100160200D01*
X128879504Y-100207819D01*
X128927123Y-100303057D01*
X128927123Y-100398295D01*
X128879504Y-100541152D01*
X128308076Y-101112580D01*
X128927123Y-101112580D01*
X151203066Y-88250780D02*
X151203066Y-88965066D01*
X151155447Y-89107923D01*
X151060209Y-89203161D01*
X150917352Y-89250780D01*
X150822114Y-89250780D01*
X151631638Y-88346019D02*
X151679257Y-88298400D01*
X151774495Y-88250780D01*
X152012590Y-88250780D01*
X152107828Y-88298400D01*
X152155447Y-88346019D01*
X152203066Y-88441257D01*
X152203066Y-88536495D01*
X152155447Y-88679352D01*
X151584019Y-89250780D01*
X152203066Y-89250780D01*
X143346846Y-101159060D02*
X143346846Y-101873346D01*
X143299227Y-102016203D01*
X143203989Y-102111441D01*
X143061132Y-102159060D01*
X142965894Y-102159060D01*
X144346846Y-102159060D02*
X143775418Y-102159060D01*
X144061132Y-102159060D02*
X144061132Y-101159060D01*
X143965894Y-101301918D01*
X143870656Y-101397156D01*
X143775418Y-101444775D01*
X129128333Y-76804780D02*
X128795000Y-76328590D01*
X128556904Y-76804780D02*
X128556904Y-75804780D01*
X128937857Y-75804780D01*
X129033095Y-75852400D01*
X129080714Y-75900019D01*
X129128333Y-75995257D01*
X129128333Y-76138114D01*
X129080714Y-76233352D01*
X129033095Y-76280971D01*
X128937857Y-76328590D01*
X128556904Y-76328590D01*
X129985476Y-76138114D02*
X129985476Y-76804780D01*
X129747380Y-75757161D02*
X129509285Y-76471447D01*
X130128333Y-76471447D01*
X114497933Y-76855580D02*
X114164600Y-76379390D01*
X113926504Y-76855580D02*
X113926504Y-75855580D01*
X114307457Y-75855580D01*
X114402695Y-75903200D01*
X114450314Y-75950819D01*
X114497933Y-76046057D01*
X114497933Y-76188914D01*
X114450314Y-76284152D01*
X114402695Y-76331771D01*
X114307457Y-76379390D01*
X113926504Y-76379390D01*
X114878885Y-75950819D02*
X114926504Y-75903200D01*
X115021742Y-75855580D01*
X115259838Y-75855580D01*
X115355076Y-75903200D01*
X115402695Y-75950819D01*
X115450314Y-76046057D01*
X115450314Y-76141295D01*
X115402695Y-76284152D01*
X114831266Y-76855580D01*
X115450314Y-76855580D01*
X121829533Y-76830180D02*
X121496200Y-76353990D01*
X121258104Y-76830180D02*
X121258104Y-75830180D01*
X121639057Y-75830180D01*
X121734295Y-75877800D01*
X121781914Y-75925419D01*
X121829533Y-76020657D01*
X121829533Y-76163514D01*
X121781914Y-76258752D01*
X121734295Y-76306371D01*
X121639057Y-76353990D01*
X121258104Y-76353990D01*
X122781914Y-76830180D02*
X122210485Y-76830180D01*
X122496200Y-76830180D02*
X122496200Y-75830180D01*
X122400961Y-75973038D01*
X122305723Y-76068276D01*
X122210485Y-76115895D01*
X109750266Y-95930980D02*
X109750266Y-96645266D01*
X109702647Y-96788123D01*
X109607409Y-96883361D01*
X109464552Y-96930980D01*
X109369314Y-96930980D01*
X110131219Y-95930980D02*
X110750266Y-95930980D01*
X110416933Y-96311933D01*
X110559790Y-96311933D01*
X110655028Y-96359552D01*
X110702647Y-96407171D01*
X110750266Y-96502409D01*
X110750266Y-96740504D01*
X110702647Y-96835742D01*
X110655028Y-96883361D01*
X110559790Y-96930980D01*
X110274076Y-96930980D01*
X110178838Y-96883361D01*
X110131219Y-96835742D01*
X113246004Y-80309980D02*
X113246004Y-79309980D01*
X113484100Y-79309980D01*
X113626957Y-79357600D01*
X113722195Y-79452838D01*
X113769814Y-79548076D01*
X113817433Y-79738552D01*
X113817433Y-79881409D01*
X113769814Y-80071885D01*
X113722195Y-80167123D01*
X113626957Y-80262361D01*
X113484100Y-80309980D01*
X113246004Y-80309980D01*
X114150766Y-79309980D02*
X114769814Y-79309980D01*
X114436480Y-79690933D01*
X114579338Y-79690933D01*
X114674576Y-79738552D01*
X114722195Y-79786171D01*
X114769814Y-79881409D01*
X114769814Y-80119504D01*
X114722195Y-80214742D01*
X114674576Y-80262361D01*
X114579338Y-80309980D01*
X114293623Y-80309980D01*
X114198385Y-80262361D01*
X114150766Y-80214742D01*
X120550104Y-80233780D02*
X120550104Y-79233780D01*
X120788200Y-79233780D01*
X120931057Y-79281400D01*
X121026295Y-79376638D01*
X121073914Y-79471876D01*
X121121533Y-79662352D01*
X121121533Y-79805209D01*
X121073914Y-79995685D01*
X121026295Y-80090923D01*
X120931057Y-80186161D01*
X120788200Y-80233780D01*
X120550104Y-80233780D01*
X121502485Y-79329019D02*
X121550104Y-79281400D01*
X121645342Y-79233780D01*
X121883438Y-79233780D01*
X121978676Y-79281400D01*
X122026295Y-79329019D01*
X122073914Y-79424257D01*
X122073914Y-79519495D01*
X122026295Y-79662352D01*
X121454866Y-80233780D01*
X122073914Y-80233780D01*
X127887504Y-80259180D02*
X127887504Y-79259180D01*
X128125600Y-79259180D01*
X128268457Y-79306800D01*
X128363695Y-79402038D01*
X128411314Y-79497276D01*
X128458933Y-79687752D01*
X128458933Y-79830609D01*
X128411314Y-80021085D01*
X128363695Y-80116323D01*
X128268457Y-80211561D01*
X128125600Y-80259180D01*
X127887504Y-80259180D01*
X129411314Y-80259180D02*
X128839885Y-80259180D01*
X129125600Y-80259180D02*
X129125600Y-79259180D01*
X129030361Y-79402038D01*
X128935123Y-79497276D01*
X128839885Y-79544895D01*
X146162733Y-91644742D02*
X146115114Y-91692361D01*
X145972257Y-91739980D01*
X145877019Y-91739980D01*
X145734161Y-91692361D01*
X145638923Y-91597123D01*
X145591304Y-91501885D01*
X145543685Y-91311409D01*
X145543685Y-91168552D01*
X145591304Y-90978076D01*
X145638923Y-90882838D01*
X145734161Y-90787600D01*
X145877019Y-90739980D01*
X145972257Y-90739980D01*
X146115114Y-90787600D01*
X146162733Y-90835219D01*
X146496066Y-90739980D02*
X147115114Y-90739980D01*
X146781780Y-91120933D01*
X146924638Y-91120933D01*
X147019876Y-91168552D01*
X147067495Y-91216171D01*
X147115114Y-91311409D01*
X147115114Y-91549504D01*
X147067495Y-91644742D01*
X147019876Y-91692361D01*
X146924638Y-91739980D01*
X146638923Y-91739980D01*
X146543685Y-91692361D01*
X146496066Y-91644742D01*
X142251133Y-91611942D02*
X142203514Y-91659561D01*
X142060657Y-91707180D01*
X141965419Y-91707180D01*
X141822561Y-91659561D01*
X141727323Y-91564323D01*
X141679704Y-91469085D01*
X141632085Y-91278609D01*
X141632085Y-91135752D01*
X141679704Y-90945276D01*
X141727323Y-90850038D01*
X141822561Y-90754800D01*
X141965419Y-90707180D01*
X142060657Y-90707180D01*
X142203514Y-90754800D01*
X142251133Y-90802419D01*
X143203514Y-91707180D02*
X142632085Y-91707180D01*
X142917800Y-91707180D02*
X142917800Y-90707180D01*
X142822561Y-90850038D01*
X142727323Y-90945276D01*
X142632085Y-90992895D01*
M02*
