%FSLAX45Y45*%
G04 Gerber Fmt 4.5, Leading zero omitted, Abs format (unit mm)*
G04 Created by KiCad (PCBNEW 5.1.10) date 2022-01-04 22:47:25*
%MOMM*%
%LPD*%
G01*
G04 APERTURE LIST*
%TA.AperFunction,Profile*%
%ADD10C,0.150000*%
%TD*%
%ADD11C,0.200000*%
%ADD12C,0.300000*%
G04 APERTURE END LIST*
D10*
X12954000Y-7670800D02*
X12954000Y-5130800D01*
X17119600Y-7670800D02*
X12954000Y-7670800D01*
X17119600Y-5130800D02*
X17119600Y-7670800D01*
X12954000Y-5130800D02*
X17119600Y-5130800D01*
D11*
X13554300Y-5566000D02*
X13598300Y-5610000D01*
X13598300Y-5566000D02*
X13554300Y-5610000D01*
X13554300Y-5921600D02*
X13598300Y-5965600D01*
X13598300Y-5921600D02*
X13554300Y-5965600D01*
X13775280Y-6211160D02*
X13819280Y-6255160D01*
X13819280Y-6211160D02*
X13775280Y-6255160D01*
X13795600Y-6734400D02*
X13839600Y-6778400D01*
X13839600Y-6734400D02*
X13795600Y-6778400D01*
X14003880Y-6094320D02*
X14047880Y-6138320D01*
X14047880Y-6094320D02*
X14003880Y-6138320D01*
X14080080Y-7217000D02*
X14124080Y-7261000D01*
X14124080Y-7217000D02*
X14080080Y-7261000D01*
X14168150Y-5566000D02*
X14212150Y-5610000D01*
X14212150Y-5566000D02*
X14168150Y-5610000D01*
X14232480Y-7140800D02*
X14276480Y-7184800D01*
X14276480Y-7140800D02*
X14232480Y-7184800D01*
X14323920Y-5566000D02*
X14367920Y-5610000D01*
X14367920Y-5566000D02*
X14323920Y-5610000D01*
X14405200Y-6632800D02*
X14449200Y-6676800D01*
X14449200Y-6632800D02*
X14405200Y-6676800D01*
X14659200Y-6632800D02*
X14703200Y-6676800D01*
X14703200Y-6632800D02*
X14659200Y-6676800D01*
X14786200Y-6942680D02*
X14830200Y-6986680D01*
X14830200Y-6942680D02*
X14786200Y-6986680D01*
X14806520Y-5621880D02*
X14850520Y-5665880D01*
X14850520Y-5621880D02*
X14806520Y-5665880D01*
X14839606Y-6151515D02*
X14883606Y-6195515D01*
X14883606Y-6151515D02*
X14839606Y-6195515D01*
X14842080Y-5860640D02*
X14886080Y-5904640D01*
X14886080Y-5860640D02*
X14842080Y-5904640D01*
X14948760Y-6150200D02*
X14992760Y-6194200D01*
X14992760Y-6150200D02*
X14948760Y-6194200D01*
X14964000Y-6937600D02*
X15008000Y-6981600D01*
X15008000Y-6937600D02*
X14964000Y-6981600D01*
X15131640Y-7344000D02*
X15175640Y-7388000D01*
X15175640Y-7344000D02*
X15131640Y-7388000D01*
X15141800Y-6160360D02*
X15185800Y-6204360D01*
X15185800Y-6160360D02*
X15141800Y-6204360D01*
X15141800Y-7105240D02*
X15185800Y-7149240D01*
X15185800Y-7105240D02*
X15141800Y-7149240D01*
X15141800Y-7217000D02*
X15185800Y-7261000D01*
X15185800Y-7217000D02*
X15141800Y-7261000D01*
X15334840Y-5459320D02*
X15378840Y-5503320D01*
X15378840Y-5459320D02*
X15334840Y-5503320D01*
X15370400Y-7039200D02*
X15414400Y-7083200D01*
X15414400Y-7039200D02*
X15370400Y-7083200D01*
X15497400Y-6531200D02*
X15541400Y-6575200D01*
X15541400Y-6531200D02*
X15497400Y-6575200D01*
X15497400Y-6785200D02*
X15541400Y-6829200D01*
X15541400Y-6785200D02*
X15497400Y-6829200D01*
X15827600Y-7064600D02*
X15871600Y-7108600D01*
X15871600Y-7064600D02*
X15827600Y-7108600D01*
X15827600Y-7318600D02*
X15871600Y-7362600D01*
X15871600Y-7318600D02*
X15827600Y-7362600D01*
X15878400Y-6226400D02*
X15922400Y-6270400D01*
X15922400Y-6226400D02*
X15878400Y-6270400D01*
X15883480Y-5271360D02*
X15927480Y-5315360D01*
X15927480Y-5271360D02*
X15883480Y-5315360D01*
X16091760Y-5520280D02*
X16135760Y-5564280D01*
X16135760Y-5520280D02*
X16091760Y-5564280D01*
X16107000Y-5972400D02*
X16151000Y-6016400D01*
X16151000Y-5972400D02*
X16107000Y-6016400D01*
X16284800Y-6582000D02*
X16328800Y-6626000D01*
X16328800Y-6582000D02*
X16284800Y-6626000D01*
X16284800Y-6785200D02*
X16328800Y-6829200D01*
X16328800Y-6785200D02*
X16284800Y-6829200D01*
X16386400Y-6785200D02*
X16430400Y-6829200D01*
X16430400Y-6785200D02*
X16386400Y-6829200D01*
X13333400Y-5932400D02*
G75*
G03*
X13333400Y-5932400I-45000J0D01*
G01*
X13368400Y-5897400D02*
X13208400Y-5897400D01*
X13368400Y-5967400D02*
X13208400Y-5967400D01*
X13208400Y-5897400D02*
G75*
G03*
X13208400Y-5967400I0J-35000D01*
G01*
X13368400Y-5967400D02*
G75*
G03*
X13368400Y-5897400I0J35000D01*
G01*
X13333400Y-7072400D02*
G75*
G03*
X13333400Y-7072400I-45000J0D01*
G01*
X13368400Y-7037400D02*
X13208400Y-7037400D01*
X13368400Y-7107400D02*
X13208400Y-7107400D01*
X13208400Y-7037400D02*
G75*
G03*
X13208400Y-7107400I0J-35000D01*
G01*
X13368400Y-7107400D02*
G75*
G03*
X13368400Y-7037400I0J35000D01*
G01*
X15341600Y-6376200D02*
X15341600Y-6476200D01*
X15291600Y-6426200D02*
X15391600Y-6426200D01*
X15697200Y-6376200D02*
X15697200Y-6476200D01*
X15647200Y-6426200D02*
X15747200Y-6426200D01*
X16459200Y-5334800D02*
X16459200Y-5434800D01*
X16409200Y-5384800D02*
X16509200Y-5384800D01*
X16459200Y-5944400D02*
X16459200Y-6044400D01*
X16409200Y-5994400D02*
X16509200Y-5994400D01*
X16713200Y-5334800D02*
X16713200Y-5434800D01*
X16663200Y-5384800D02*
X16763200Y-5384800D01*
X16713200Y-5944400D02*
X16713200Y-6044400D01*
X16663200Y-5994400D02*
X16763200Y-5994400D01*
D12*
X13232928Y-8144014D02*
X13232928Y-7844014D01*
X13304357Y-7844014D01*
X13347214Y-7858300D01*
X13375786Y-7886871D01*
X13390071Y-7915443D01*
X13404357Y-7972586D01*
X13404357Y-8015443D01*
X13390071Y-8072586D01*
X13375786Y-8101157D01*
X13347214Y-8129729D01*
X13304357Y-8144014D01*
X13232928Y-8144014D01*
X13532928Y-8144014D02*
X13532928Y-7944014D01*
X13532928Y-8001157D02*
X13547214Y-7972586D01*
X13561500Y-7958300D01*
X13590071Y-7944014D01*
X13618643Y-7944014D01*
X13718643Y-8144014D02*
X13718643Y-7944014D01*
X13718643Y-7844014D02*
X13704357Y-7858300D01*
X13718643Y-7872586D01*
X13732928Y-7858300D01*
X13718643Y-7844014D01*
X13718643Y-7872586D01*
X13904357Y-8144014D02*
X13875786Y-8129729D01*
X13861500Y-8101157D01*
X13861500Y-7844014D01*
X14061500Y-8144014D02*
X14032928Y-8129729D01*
X14018643Y-8101157D01*
X14018643Y-7844014D01*
X14404357Y-8144014D02*
X14404357Y-7844014D01*
X14504357Y-8058300D01*
X14604357Y-7844014D01*
X14604357Y-8144014D01*
X14875786Y-8144014D02*
X14875786Y-7986871D01*
X14861500Y-7958300D01*
X14832928Y-7944014D01*
X14775786Y-7944014D01*
X14747214Y-7958300D01*
X14875786Y-8129729D02*
X14847214Y-8144014D01*
X14775786Y-8144014D01*
X14747214Y-8129729D01*
X14732928Y-8101157D01*
X14732928Y-8072586D01*
X14747214Y-8044014D01*
X14775786Y-8029729D01*
X14847214Y-8029729D01*
X14875786Y-8015443D01*
X15018643Y-7944014D02*
X15018643Y-8244014D01*
X15018643Y-7958300D02*
X15047214Y-7944014D01*
X15104357Y-7944014D01*
X15132928Y-7958300D01*
X15147214Y-7972586D01*
X15161500Y-8001157D01*
X15161500Y-8086871D01*
X15147214Y-8115443D01*
X15132928Y-8129729D01*
X15104357Y-8144014D01*
X15047214Y-8144014D01*
X15018643Y-8129729D01*
X15290071Y-8115443D02*
X15304357Y-8129729D01*
X15290071Y-8144014D01*
X15275786Y-8129729D01*
X15290071Y-8115443D01*
X15290071Y-8144014D01*
X15290071Y-7958300D02*
X15304357Y-7972586D01*
X15290071Y-7986871D01*
X15275786Y-7972586D01*
X15290071Y-7958300D01*
X15290071Y-7986871D01*
X12902500Y-8616300D02*
X12946500Y-8660300D01*
X12946500Y-8616300D02*
X12902500Y-8660300D01*
X13290071Y-8474014D02*
X13318643Y-8474014D01*
X13347214Y-8488300D01*
X13361500Y-8502586D01*
X13375786Y-8531157D01*
X13390071Y-8588300D01*
X13390071Y-8659729D01*
X13375786Y-8716872D01*
X13361500Y-8745443D01*
X13347214Y-8759729D01*
X13318643Y-8774014D01*
X13290071Y-8774014D01*
X13261500Y-8759729D01*
X13247214Y-8745443D01*
X13232928Y-8716872D01*
X13218643Y-8659729D01*
X13218643Y-8588300D01*
X13232928Y-8531157D01*
X13247214Y-8502586D01*
X13261500Y-8488300D01*
X13290071Y-8474014D01*
X13518643Y-8745443D02*
X13532928Y-8759729D01*
X13518643Y-8774014D01*
X13504357Y-8759729D01*
X13518643Y-8745443D01*
X13518643Y-8774014D01*
X13790071Y-8574014D02*
X13790071Y-8774014D01*
X13718643Y-8459729D02*
X13647214Y-8674014D01*
X13832928Y-8674014D01*
X14075786Y-8574014D02*
X14075786Y-8774014D01*
X14004357Y-8459729D02*
X13932928Y-8674014D01*
X14118643Y-8674014D01*
X14290071Y-8474014D02*
X14318643Y-8474014D01*
X14347214Y-8488300D01*
X14361500Y-8502586D01*
X14375786Y-8531157D01*
X14390071Y-8588300D01*
X14390071Y-8659729D01*
X14375786Y-8716872D01*
X14361500Y-8745443D01*
X14347214Y-8759729D01*
X14318643Y-8774014D01*
X14290071Y-8774014D01*
X14261500Y-8759729D01*
X14247214Y-8745443D01*
X14232928Y-8716872D01*
X14218643Y-8659729D01*
X14218643Y-8588300D01*
X14232928Y-8531157D01*
X14247214Y-8502586D01*
X14261500Y-8488300D01*
X14290071Y-8474014D01*
X14518643Y-8774014D02*
X14518643Y-8574014D01*
X14518643Y-8602586D02*
X14532928Y-8588300D01*
X14561500Y-8574014D01*
X14604357Y-8574014D01*
X14632928Y-8588300D01*
X14647214Y-8616872D01*
X14647214Y-8774014D01*
X14647214Y-8616872D02*
X14661500Y-8588300D01*
X14690071Y-8574014D01*
X14732928Y-8574014D01*
X14761500Y-8588300D01*
X14775786Y-8616872D01*
X14775786Y-8774014D01*
X14918643Y-8774014D02*
X14918643Y-8574014D01*
X14918643Y-8602586D02*
X14932928Y-8588300D01*
X14961500Y-8574014D01*
X15004357Y-8574014D01*
X15032928Y-8588300D01*
X15047214Y-8616872D01*
X15047214Y-8774014D01*
X15047214Y-8616872D02*
X15061500Y-8588300D01*
X15090071Y-8574014D01*
X15132928Y-8574014D01*
X15161500Y-8588300D01*
X15175786Y-8616872D01*
X15175786Y-8774014D01*
X15761500Y-8459729D02*
X15504357Y-8845443D01*
X16147214Y-8474014D02*
X16175786Y-8474014D01*
X16204357Y-8488300D01*
X16218643Y-8502586D01*
X16232928Y-8531157D01*
X16247214Y-8588300D01*
X16247214Y-8659729D01*
X16232928Y-8716872D01*
X16218643Y-8745443D01*
X16204357Y-8759729D01*
X16175786Y-8774014D01*
X16147214Y-8774014D01*
X16118643Y-8759729D01*
X16104357Y-8745443D01*
X16090071Y-8716872D01*
X16075786Y-8659729D01*
X16075786Y-8588300D01*
X16090071Y-8531157D01*
X16104357Y-8502586D01*
X16118643Y-8488300D01*
X16147214Y-8474014D01*
X16375786Y-8745443D02*
X16390071Y-8759729D01*
X16375786Y-8774014D01*
X16361500Y-8759729D01*
X16375786Y-8745443D01*
X16375786Y-8774014D01*
X16575786Y-8474014D02*
X16604357Y-8474014D01*
X16632928Y-8488300D01*
X16647214Y-8502586D01*
X16661500Y-8531157D01*
X16675786Y-8588300D01*
X16675786Y-8659729D01*
X16661500Y-8716872D01*
X16647214Y-8745443D01*
X16632928Y-8759729D01*
X16604357Y-8774014D01*
X16575786Y-8774014D01*
X16547214Y-8759729D01*
X16532928Y-8745443D01*
X16518643Y-8716872D01*
X16504357Y-8659729D01*
X16504357Y-8588300D01*
X16518643Y-8531157D01*
X16532928Y-8502586D01*
X16547214Y-8488300D01*
X16575786Y-8474014D01*
X16961500Y-8774014D02*
X16790071Y-8774014D01*
X16875786Y-8774014D02*
X16875786Y-8474014D01*
X16847214Y-8516872D01*
X16818643Y-8545443D01*
X16790071Y-8559729D01*
X17061500Y-8474014D02*
X17261500Y-8474014D01*
X17132928Y-8774014D01*
X17347214Y-8474014D02*
X17532928Y-8474014D01*
X17432928Y-8588300D01*
X17475786Y-8588300D01*
X17504357Y-8602586D01*
X17518643Y-8616872D01*
X17532928Y-8645443D01*
X17532928Y-8716872D01*
X17518643Y-8745443D01*
X17504357Y-8759729D01*
X17475786Y-8774014D01*
X17390071Y-8774014D01*
X17361500Y-8759729D01*
X17347214Y-8745443D01*
X17647214Y-8474014D02*
X17647214Y-8531157D01*
X17761500Y-8474014D02*
X17761500Y-8531157D01*
X18204357Y-8888300D02*
X18190071Y-8874014D01*
X18161500Y-8831157D01*
X18147214Y-8802586D01*
X18132928Y-8759729D01*
X18118643Y-8688300D01*
X18118643Y-8631157D01*
X18132928Y-8559729D01*
X18147214Y-8516872D01*
X18161500Y-8488300D01*
X18190071Y-8445443D01*
X18204357Y-8431157D01*
X18290071Y-8474014D02*
X18475786Y-8474014D01*
X18375786Y-8588300D01*
X18418643Y-8588300D01*
X18447214Y-8602586D01*
X18461500Y-8616872D01*
X18475786Y-8645443D01*
X18475786Y-8716872D01*
X18461500Y-8745443D01*
X18447214Y-8759729D01*
X18418643Y-8774014D01*
X18332928Y-8774014D01*
X18304357Y-8759729D01*
X18290071Y-8745443D01*
X18732928Y-8574014D02*
X18732928Y-8774014D01*
X18661500Y-8459729D02*
X18590071Y-8674014D01*
X18775786Y-8674014D01*
X19118643Y-8774014D02*
X19118643Y-8474014D01*
X19247214Y-8774014D02*
X19247214Y-8616872D01*
X19232928Y-8588300D01*
X19204357Y-8574014D01*
X19161500Y-8574014D01*
X19132928Y-8588300D01*
X19118643Y-8602586D01*
X19432928Y-8774014D02*
X19404357Y-8759729D01*
X19390071Y-8745443D01*
X19375786Y-8716872D01*
X19375786Y-8631157D01*
X19390071Y-8602586D01*
X19404357Y-8588300D01*
X19432928Y-8574014D01*
X19475786Y-8574014D01*
X19504357Y-8588300D01*
X19518643Y-8602586D01*
X19532928Y-8631157D01*
X19532928Y-8716872D01*
X19518643Y-8745443D01*
X19504357Y-8759729D01*
X19475786Y-8774014D01*
X19432928Y-8774014D01*
X19704357Y-8774014D02*
X19675786Y-8759729D01*
X19661500Y-8731157D01*
X19661500Y-8474014D01*
X19932928Y-8759729D02*
X19904357Y-8774014D01*
X19847214Y-8774014D01*
X19818643Y-8759729D01*
X19804357Y-8731157D01*
X19804357Y-8616872D01*
X19818643Y-8588300D01*
X19847214Y-8574014D01*
X19904357Y-8574014D01*
X19932928Y-8588300D01*
X19947214Y-8616872D01*
X19947214Y-8645443D01*
X19804357Y-8674014D01*
X20061500Y-8759729D02*
X20090071Y-8774014D01*
X20147214Y-8774014D01*
X20175786Y-8759729D01*
X20190071Y-8731157D01*
X20190071Y-8716872D01*
X20175786Y-8688300D01*
X20147214Y-8674014D01*
X20104357Y-8674014D01*
X20075786Y-8659729D01*
X20061500Y-8631157D01*
X20061500Y-8616872D01*
X20075786Y-8588300D01*
X20104357Y-8574014D01*
X20147214Y-8574014D01*
X20175786Y-8588300D01*
X20290071Y-8888300D02*
X20304357Y-8874014D01*
X20332928Y-8831157D01*
X20347214Y-8802586D01*
X20361500Y-8759729D01*
X20375786Y-8688300D01*
X20375786Y-8631157D01*
X20361500Y-8559729D01*
X20347214Y-8516872D01*
X20332928Y-8488300D01*
X20304357Y-8445443D01*
X20290071Y-8431157D01*
X12946500Y-9034300D02*
G75*
G03*
X12946500Y-9034300I-45000J0D01*
G01*
X13290071Y-8870014D02*
X13318643Y-8870014D01*
X13347214Y-8884300D01*
X13361500Y-8898586D01*
X13375786Y-8927157D01*
X13390071Y-8984300D01*
X13390071Y-9055729D01*
X13375786Y-9112872D01*
X13361500Y-9141443D01*
X13347214Y-9155729D01*
X13318643Y-9170014D01*
X13290071Y-9170014D01*
X13261500Y-9155729D01*
X13247214Y-9141443D01*
X13232928Y-9112872D01*
X13218643Y-9055729D01*
X13218643Y-8984300D01*
X13232928Y-8927157D01*
X13247214Y-8898586D01*
X13261500Y-8884300D01*
X13290071Y-8870014D01*
X13518643Y-9141443D02*
X13532928Y-9155729D01*
X13518643Y-9170014D01*
X13504357Y-9155729D01*
X13518643Y-9141443D01*
X13518643Y-9170014D01*
X13675786Y-9170014D02*
X13732928Y-9170014D01*
X13761500Y-9155729D01*
X13775786Y-9141443D01*
X13804357Y-9098586D01*
X13818643Y-9041443D01*
X13818643Y-8927157D01*
X13804357Y-8898586D01*
X13790071Y-8884300D01*
X13761500Y-8870014D01*
X13704357Y-8870014D01*
X13675786Y-8884300D01*
X13661500Y-8898586D01*
X13647214Y-8927157D01*
X13647214Y-8998586D01*
X13661500Y-9027157D01*
X13675786Y-9041443D01*
X13704357Y-9055729D01*
X13761500Y-9055729D01*
X13790071Y-9041443D01*
X13804357Y-9027157D01*
X13818643Y-8998586D01*
X14004357Y-8870014D02*
X14032928Y-8870014D01*
X14061500Y-8884300D01*
X14075786Y-8898586D01*
X14090071Y-8927157D01*
X14104357Y-8984300D01*
X14104357Y-9055729D01*
X14090071Y-9112872D01*
X14075786Y-9141443D01*
X14061500Y-9155729D01*
X14032928Y-9170014D01*
X14004357Y-9170014D01*
X13975786Y-9155729D01*
X13961500Y-9141443D01*
X13947214Y-9112872D01*
X13932928Y-9055729D01*
X13932928Y-8984300D01*
X13947214Y-8927157D01*
X13961500Y-8898586D01*
X13975786Y-8884300D01*
X14004357Y-8870014D01*
X14290071Y-8870014D02*
X14318643Y-8870014D01*
X14347214Y-8884300D01*
X14361500Y-8898586D01*
X14375786Y-8927157D01*
X14390071Y-8984300D01*
X14390071Y-9055729D01*
X14375786Y-9112872D01*
X14361500Y-9141443D01*
X14347214Y-9155729D01*
X14318643Y-9170014D01*
X14290071Y-9170014D01*
X14261500Y-9155729D01*
X14247214Y-9141443D01*
X14232928Y-9112872D01*
X14218643Y-9055729D01*
X14218643Y-8984300D01*
X14232928Y-8927157D01*
X14247214Y-8898586D01*
X14261500Y-8884300D01*
X14290071Y-8870014D01*
X14518643Y-9170014D02*
X14518643Y-8970014D01*
X14518643Y-8998586D02*
X14532928Y-8984300D01*
X14561500Y-8970014D01*
X14604357Y-8970014D01*
X14632928Y-8984300D01*
X14647214Y-9012872D01*
X14647214Y-9170014D01*
X14647214Y-9012872D02*
X14661500Y-8984300D01*
X14690071Y-8970014D01*
X14732928Y-8970014D01*
X14761500Y-8984300D01*
X14775786Y-9012872D01*
X14775786Y-9170014D01*
X14918643Y-9170014D02*
X14918643Y-8970014D01*
X14918643Y-8998586D02*
X14932928Y-8984300D01*
X14961500Y-8970014D01*
X15004357Y-8970014D01*
X15032928Y-8984300D01*
X15047214Y-9012872D01*
X15047214Y-9170014D01*
X15047214Y-9012872D02*
X15061500Y-8984300D01*
X15090071Y-8970014D01*
X15132928Y-8970014D01*
X15161500Y-8984300D01*
X15175786Y-9012872D01*
X15175786Y-9170014D01*
X15761500Y-8855729D02*
X15504357Y-9241443D01*
X16147214Y-8870014D02*
X16175786Y-8870014D01*
X16204357Y-8884300D01*
X16218643Y-8898586D01*
X16232928Y-8927157D01*
X16247214Y-8984300D01*
X16247214Y-9055729D01*
X16232928Y-9112872D01*
X16218643Y-9141443D01*
X16204357Y-9155729D01*
X16175786Y-9170014D01*
X16147214Y-9170014D01*
X16118643Y-9155729D01*
X16104357Y-9141443D01*
X16090071Y-9112872D01*
X16075786Y-9055729D01*
X16075786Y-8984300D01*
X16090071Y-8927157D01*
X16104357Y-8898586D01*
X16118643Y-8884300D01*
X16147214Y-8870014D01*
X16375786Y-9141443D02*
X16390071Y-9155729D01*
X16375786Y-9170014D01*
X16361500Y-9155729D01*
X16375786Y-9141443D01*
X16375786Y-9170014D01*
X16575786Y-8870014D02*
X16604357Y-8870014D01*
X16632928Y-8884300D01*
X16647214Y-8898586D01*
X16661500Y-8927157D01*
X16675786Y-8984300D01*
X16675786Y-9055729D01*
X16661500Y-9112872D01*
X16647214Y-9141443D01*
X16632928Y-9155729D01*
X16604357Y-9170014D01*
X16575786Y-9170014D01*
X16547214Y-9155729D01*
X16532928Y-9141443D01*
X16518643Y-9112872D01*
X16504357Y-9055729D01*
X16504357Y-8984300D01*
X16518643Y-8927157D01*
X16532928Y-8898586D01*
X16547214Y-8884300D01*
X16575786Y-8870014D01*
X16775786Y-8870014D02*
X16961500Y-8870014D01*
X16861500Y-8984300D01*
X16904357Y-8984300D01*
X16932928Y-8998586D01*
X16947214Y-9012872D01*
X16961500Y-9041443D01*
X16961500Y-9112872D01*
X16947214Y-9141443D01*
X16932928Y-9155729D01*
X16904357Y-9170014D01*
X16818643Y-9170014D01*
X16790071Y-9155729D01*
X16775786Y-9141443D01*
X17232928Y-8870014D02*
X17090071Y-8870014D01*
X17075786Y-9012872D01*
X17090071Y-8998586D01*
X17118643Y-8984300D01*
X17190071Y-8984300D01*
X17218643Y-8998586D01*
X17232928Y-9012872D01*
X17247214Y-9041443D01*
X17247214Y-9112872D01*
X17232928Y-9141443D01*
X17218643Y-9155729D01*
X17190071Y-9170014D01*
X17118643Y-9170014D01*
X17090071Y-9155729D01*
X17075786Y-9141443D01*
X17504357Y-8970014D02*
X17504357Y-9170014D01*
X17432928Y-8855729D02*
X17361500Y-9070014D01*
X17547214Y-9070014D01*
X17647214Y-8870014D02*
X17647214Y-8927157D01*
X17761500Y-8870014D02*
X17761500Y-8927157D01*
X18204357Y-9284300D02*
X18190071Y-9270014D01*
X18161500Y-9227157D01*
X18147214Y-9198586D01*
X18132928Y-9155729D01*
X18118643Y-9084300D01*
X18118643Y-9027157D01*
X18132928Y-8955729D01*
X18147214Y-8912872D01*
X18161500Y-8884300D01*
X18190071Y-8841443D01*
X18204357Y-8827157D01*
X18375786Y-8870014D02*
X18404357Y-8870014D01*
X18432928Y-8884300D01*
X18447214Y-8898586D01*
X18461500Y-8927157D01*
X18475786Y-8984300D01*
X18475786Y-9055729D01*
X18461500Y-9112872D01*
X18447214Y-9141443D01*
X18432928Y-9155729D01*
X18404357Y-9170014D01*
X18375786Y-9170014D01*
X18347214Y-9155729D01*
X18332928Y-9141443D01*
X18318643Y-9112872D01*
X18304357Y-9055729D01*
X18304357Y-8984300D01*
X18318643Y-8927157D01*
X18332928Y-8898586D01*
X18347214Y-8884300D01*
X18375786Y-8870014D01*
X18832928Y-9170014D02*
X18832928Y-8870014D01*
X18961500Y-9170014D02*
X18961500Y-9012872D01*
X18947214Y-8984300D01*
X18918643Y-8970014D01*
X18875786Y-8970014D01*
X18847214Y-8984300D01*
X18832928Y-8998586D01*
X19147214Y-9170014D02*
X19118643Y-9155729D01*
X19104357Y-9141443D01*
X19090071Y-9112872D01*
X19090071Y-9027157D01*
X19104357Y-8998586D01*
X19118643Y-8984300D01*
X19147214Y-8970014D01*
X19190071Y-8970014D01*
X19218643Y-8984300D01*
X19232928Y-8998586D01*
X19247214Y-9027157D01*
X19247214Y-9112872D01*
X19232928Y-9141443D01*
X19218643Y-9155729D01*
X19190071Y-9170014D01*
X19147214Y-9170014D01*
X19418643Y-9170014D02*
X19390071Y-9155729D01*
X19375786Y-9127157D01*
X19375786Y-8870014D01*
X19647214Y-9155729D02*
X19618643Y-9170014D01*
X19561500Y-9170014D01*
X19532928Y-9155729D01*
X19518643Y-9127157D01*
X19518643Y-9012872D01*
X19532928Y-8984300D01*
X19561500Y-8970014D01*
X19618643Y-8970014D01*
X19647214Y-8984300D01*
X19661500Y-9012872D01*
X19661500Y-9041443D01*
X19518643Y-9070014D01*
X19775786Y-9155729D02*
X19804357Y-9170014D01*
X19861500Y-9170014D01*
X19890071Y-9155729D01*
X19904357Y-9127157D01*
X19904357Y-9112872D01*
X19890071Y-9084300D01*
X19861500Y-9070014D01*
X19818643Y-9070014D01*
X19790071Y-9055729D01*
X19775786Y-9027157D01*
X19775786Y-9012872D01*
X19790071Y-8984300D01*
X19818643Y-8970014D01*
X19861500Y-8970014D01*
X19890071Y-8984300D01*
X20261500Y-9055729D02*
X20490071Y-9055729D01*
X20375786Y-9170014D02*
X20375786Y-8941443D01*
X20847214Y-8898586D02*
X20861500Y-8884300D01*
X20890071Y-8870014D01*
X20961500Y-8870014D01*
X20990071Y-8884300D01*
X21004357Y-8898586D01*
X21018643Y-8927157D01*
X21018643Y-8955729D01*
X21004357Y-8998586D01*
X20832928Y-9170014D01*
X21018643Y-9170014D01*
X21361500Y-9155729D02*
X21390071Y-9170014D01*
X21447214Y-9170014D01*
X21475786Y-9155729D01*
X21490071Y-9127157D01*
X21490071Y-9112872D01*
X21475786Y-9084300D01*
X21447214Y-9070014D01*
X21404357Y-9070014D01*
X21375786Y-9055729D01*
X21361500Y-9027157D01*
X21361500Y-9012872D01*
X21375786Y-8984300D01*
X21404357Y-8970014D01*
X21447214Y-8970014D01*
X21475786Y-8984300D01*
X21661500Y-9170014D02*
X21632928Y-9155729D01*
X21618643Y-9127157D01*
X21618643Y-8870014D01*
X21818643Y-9170014D02*
X21790071Y-9155729D01*
X21775786Y-9141443D01*
X21761500Y-9112872D01*
X21761500Y-9027157D01*
X21775786Y-8998586D01*
X21790071Y-8984300D01*
X21818643Y-8970014D01*
X21861500Y-8970014D01*
X21890071Y-8984300D01*
X21904357Y-8998586D01*
X21918643Y-9027157D01*
X21918643Y-9112872D01*
X21904357Y-9141443D01*
X21890071Y-9155729D01*
X21861500Y-9170014D01*
X21818643Y-9170014D01*
X22004357Y-8970014D02*
X22118643Y-8970014D01*
X22047214Y-8870014D02*
X22047214Y-9127157D01*
X22061500Y-9155729D01*
X22090071Y-9170014D01*
X22118643Y-9170014D01*
X22204357Y-9155729D02*
X22232928Y-9170014D01*
X22290071Y-9170014D01*
X22318643Y-9155729D01*
X22332928Y-9127157D01*
X22332928Y-9112872D01*
X22318643Y-9084300D01*
X22290071Y-9070014D01*
X22247214Y-9070014D01*
X22218643Y-9055729D01*
X22204357Y-9027157D01*
X22204357Y-9012872D01*
X22218643Y-8984300D01*
X22247214Y-8970014D01*
X22290071Y-8970014D01*
X22318643Y-8984300D01*
X22432928Y-9284300D02*
X22447214Y-9270014D01*
X22475786Y-9227157D01*
X22490071Y-9198586D01*
X22504357Y-9155729D01*
X22518643Y-9084300D01*
X22518643Y-9027157D01*
X22504357Y-8955729D01*
X22490071Y-8912872D01*
X22475786Y-8884300D01*
X22447214Y-8841443D01*
X22432928Y-8827157D01*
X12896500Y-9380300D02*
X12896500Y-9480300D01*
X12846500Y-9430300D02*
X12946500Y-9430300D01*
X13390071Y-9566014D02*
X13218643Y-9566014D01*
X13304357Y-9566014D02*
X13304357Y-9266014D01*
X13275786Y-9308872D01*
X13247214Y-9337443D01*
X13218643Y-9351729D01*
X13518643Y-9537443D02*
X13532928Y-9551729D01*
X13518643Y-9566014D01*
X13504357Y-9551729D01*
X13518643Y-9537443D01*
X13518643Y-9566014D01*
X13718643Y-9266014D02*
X13747214Y-9266014D01*
X13775786Y-9280300D01*
X13790071Y-9294586D01*
X13804357Y-9323157D01*
X13818643Y-9380300D01*
X13818643Y-9451729D01*
X13804357Y-9508872D01*
X13790071Y-9537443D01*
X13775786Y-9551729D01*
X13747214Y-9566014D01*
X13718643Y-9566014D01*
X13690071Y-9551729D01*
X13675786Y-9537443D01*
X13661500Y-9508872D01*
X13647214Y-9451729D01*
X13647214Y-9380300D01*
X13661500Y-9323157D01*
X13675786Y-9294586D01*
X13690071Y-9280300D01*
X13718643Y-9266014D01*
X14004357Y-9266014D02*
X14032928Y-9266014D01*
X14061500Y-9280300D01*
X14075786Y-9294586D01*
X14090071Y-9323157D01*
X14104357Y-9380300D01*
X14104357Y-9451729D01*
X14090071Y-9508872D01*
X14075786Y-9537443D01*
X14061500Y-9551729D01*
X14032928Y-9566014D01*
X14004357Y-9566014D01*
X13975786Y-9551729D01*
X13961500Y-9537443D01*
X13947214Y-9508872D01*
X13932928Y-9451729D01*
X13932928Y-9380300D01*
X13947214Y-9323157D01*
X13961500Y-9294586D01*
X13975786Y-9280300D01*
X14004357Y-9266014D01*
X14290071Y-9266014D02*
X14318643Y-9266014D01*
X14347214Y-9280300D01*
X14361500Y-9294586D01*
X14375786Y-9323157D01*
X14390071Y-9380300D01*
X14390071Y-9451729D01*
X14375786Y-9508872D01*
X14361500Y-9537443D01*
X14347214Y-9551729D01*
X14318643Y-9566014D01*
X14290071Y-9566014D01*
X14261500Y-9551729D01*
X14247214Y-9537443D01*
X14232928Y-9508872D01*
X14218643Y-9451729D01*
X14218643Y-9380300D01*
X14232928Y-9323157D01*
X14247214Y-9294586D01*
X14261500Y-9280300D01*
X14290071Y-9266014D01*
X14518643Y-9566014D02*
X14518643Y-9366014D01*
X14518643Y-9394586D02*
X14532928Y-9380300D01*
X14561500Y-9366014D01*
X14604357Y-9366014D01*
X14632928Y-9380300D01*
X14647214Y-9408872D01*
X14647214Y-9566014D01*
X14647214Y-9408872D02*
X14661500Y-9380300D01*
X14690071Y-9366014D01*
X14732928Y-9366014D01*
X14761500Y-9380300D01*
X14775786Y-9408872D01*
X14775786Y-9566014D01*
X14918643Y-9566014D02*
X14918643Y-9366014D01*
X14918643Y-9394586D02*
X14932928Y-9380300D01*
X14961500Y-9366014D01*
X15004357Y-9366014D01*
X15032928Y-9380300D01*
X15047214Y-9408872D01*
X15047214Y-9566014D01*
X15047214Y-9408872D02*
X15061500Y-9380300D01*
X15090071Y-9366014D01*
X15132928Y-9366014D01*
X15161500Y-9380300D01*
X15175786Y-9408872D01*
X15175786Y-9566014D01*
X15761500Y-9251729D02*
X15504357Y-9637443D01*
X16147214Y-9266014D02*
X16175786Y-9266014D01*
X16204357Y-9280300D01*
X16218643Y-9294586D01*
X16232928Y-9323157D01*
X16247214Y-9380300D01*
X16247214Y-9451729D01*
X16232928Y-9508872D01*
X16218643Y-9537443D01*
X16204357Y-9551729D01*
X16175786Y-9566014D01*
X16147214Y-9566014D01*
X16118643Y-9551729D01*
X16104357Y-9537443D01*
X16090071Y-9508872D01*
X16075786Y-9451729D01*
X16075786Y-9380300D01*
X16090071Y-9323157D01*
X16104357Y-9294586D01*
X16118643Y-9280300D01*
X16147214Y-9266014D01*
X16375786Y-9537443D02*
X16390071Y-9551729D01*
X16375786Y-9566014D01*
X16361500Y-9551729D01*
X16375786Y-9537443D01*
X16375786Y-9566014D01*
X16575786Y-9266014D02*
X16604357Y-9266014D01*
X16632928Y-9280300D01*
X16647214Y-9294586D01*
X16661500Y-9323157D01*
X16675786Y-9380300D01*
X16675786Y-9451729D01*
X16661500Y-9508872D01*
X16647214Y-9537443D01*
X16632928Y-9551729D01*
X16604357Y-9566014D01*
X16575786Y-9566014D01*
X16547214Y-9551729D01*
X16532928Y-9537443D01*
X16518643Y-9508872D01*
X16504357Y-9451729D01*
X16504357Y-9380300D01*
X16518643Y-9323157D01*
X16532928Y-9294586D01*
X16547214Y-9280300D01*
X16575786Y-9266014D01*
X16775786Y-9266014D02*
X16961500Y-9266014D01*
X16861500Y-9380300D01*
X16904357Y-9380300D01*
X16932928Y-9394586D01*
X16947214Y-9408872D01*
X16961500Y-9437443D01*
X16961500Y-9508872D01*
X16947214Y-9537443D01*
X16932928Y-9551729D01*
X16904357Y-9566014D01*
X16818643Y-9566014D01*
X16790071Y-9551729D01*
X16775786Y-9537443D01*
X17104357Y-9566014D02*
X17161500Y-9566014D01*
X17190071Y-9551729D01*
X17204357Y-9537443D01*
X17232928Y-9494586D01*
X17247214Y-9437443D01*
X17247214Y-9323157D01*
X17232928Y-9294586D01*
X17218643Y-9280300D01*
X17190071Y-9266014D01*
X17132928Y-9266014D01*
X17104357Y-9280300D01*
X17090071Y-9294586D01*
X17075786Y-9323157D01*
X17075786Y-9394586D01*
X17090071Y-9423157D01*
X17104357Y-9437443D01*
X17132928Y-9451729D01*
X17190071Y-9451729D01*
X17218643Y-9437443D01*
X17232928Y-9423157D01*
X17247214Y-9394586D01*
X17504357Y-9366014D02*
X17504357Y-9566014D01*
X17432928Y-9251729D02*
X17361500Y-9466014D01*
X17547214Y-9466014D01*
X17647214Y-9266014D02*
X17647214Y-9323157D01*
X17761500Y-9266014D02*
X17761500Y-9323157D01*
X18204357Y-9680300D02*
X18190071Y-9666014D01*
X18161500Y-9623157D01*
X18147214Y-9594586D01*
X18132928Y-9551729D01*
X18118643Y-9480300D01*
X18118643Y-9423157D01*
X18132928Y-9351729D01*
X18147214Y-9308872D01*
X18161500Y-9280300D01*
X18190071Y-9237443D01*
X18204357Y-9223157D01*
X18447214Y-9266014D02*
X18390071Y-9266014D01*
X18361500Y-9280300D01*
X18347214Y-9294586D01*
X18318643Y-9337443D01*
X18304357Y-9394586D01*
X18304357Y-9508872D01*
X18318643Y-9537443D01*
X18332928Y-9551729D01*
X18361500Y-9566014D01*
X18418643Y-9566014D01*
X18447214Y-9551729D01*
X18461500Y-9537443D01*
X18475786Y-9508872D01*
X18475786Y-9437443D01*
X18461500Y-9408872D01*
X18447214Y-9394586D01*
X18418643Y-9380300D01*
X18361500Y-9380300D01*
X18332928Y-9394586D01*
X18318643Y-9408872D01*
X18304357Y-9437443D01*
X18832928Y-9566014D02*
X18832928Y-9266014D01*
X18961500Y-9566014D02*
X18961500Y-9408872D01*
X18947214Y-9380300D01*
X18918643Y-9366014D01*
X18875786Y-9366014D01*
X18847214Y-9380300D01*
X18832928Y-9394586D01*
X19147214Y-9566014D02*
X19118643Y-9551729D01*
X19104357Y-9537443D01*
X19090071Y-9508872D01*
X19090071Y-9423157D01*
X19104357Y-9394586D01*
X19118643Y-9380300D01*
X19147214Y-9366014D01*
X19190071Y-9366014D01*
X19218643Y-9380300D01*
X19232928Y-9394586D01*
X19247214Y-9423157D01*
X19247214Y-9508872D01*
X19232928Y-9537443D01*
X19218643Y-9551729D01*
X19190071Y-9566014D01*
X19147214Y-9566014D01*
X19418643Y-9566014D02*
X19390071Y-9551729D01*
X19375786Y-9523157D01*
X19375786Y-9266014D01*
X19647214Y-9551729D02*
X19618643Y-9566014D01*
X19561500Y-9566014D01*
X19532928Y-9551729D01*
X19518643Y-9523157D01*
X19518643Y-9408872D01*
X19532928Y-9380300D01*
X19561500Y-9366014D01*
X19618643Y-9366014D01*
X19647214Y-9380300D01*
X19661500Y-9408872D01*
X19661500Y-9437443D01*
X19518643Y-9466014D01*
X19775786Y-9551729D02*
X19804357Y-9566014D01*
X19861500Y-9566014D01*
X19890071Y-9551729D01*
X19904357Y-9523157D01*
X19904357Y-9508872D01*
X19890071Y-9480300D01*
X19861500Y-9466014D01*
X19818643Y-9466014D01*
X19790071Y-9451729D01*
X19775786Y-9423157D01*
X19775786Y-9408872D01*
X19790071Y-9380300D01*
X19818643Y-9366014D01*
X19861500Y-9366014D01*
X19890071Y-9380300D01*
X20004357Y-9680300D02*
X20018643Y-9666014D01*
X20047214Y-9623157D01*
X20061500Y-9594586D01*
X20075786Y-9551729D01*
X20090071Y-9480300D01*
X20090071Y-9423157D01*
X20075786Y-9351729D01*
X20061500Y-9308872D01*
X20047214Y-9280300D01*
X20018643Y-9237443D01*
X20004357Y-9223157D01*
M02*
