M48
INCH,TZ
T1C0.0157
T2C0.0268
T3C0.0315
T4C0.0394
T5C0.0630
T6C0.1260
%
G90
G05
T1
X56000Y-37950
X56900Y-41150
X58850Y-39525
X58850Y-40075
X59600Y-48950
X60575Y-36775
X61100Y-44950
X61275Y-36700
X61657Y-40471
X61900Y-45050
X62275Y-42100
X62785Y-42364
X63000Y-48950
X63100Y-36700
X63100Y-42600
X63300Y-38500
X63525Y-42725
X64025Y-42725
X64200Y-34300
X64550Y-42725
X65100Y-42725
X65400Y-38250
X66000Y-48900
X66450Y-37550
X69450Y-49000
T2
X57613Y-33406
X57613Y-34194
X58400Y-33406
X58400Y-34194
X59187Y-33406
X59187Y-34194
T3
X63204Y-35725
X65125Y-35725
T4
X67600Y-37100
X67600Y-38100
X67600Y-39100
X67600Y-40100
X67600Y-41100
T5
X56100Y-47450
X56100Y-49950
X57150Y-54400
X59650Y-54400
X62150Y-54400
X64650Y-54400
X67150Y-54400
X69650Y-54400
X52548Y-42531
X52548Y-43869
X57852Y-42531
X57852Y-43869
T6
X69700Y-34400
X69700Y-43800
X53400Y-56800
X53400Y-34400
T0
M30
