G04 #@! TF.GenerationSoftware,KiCad,Pcbnew,(5.1.9)-1*
G04 #@! TF.CreationDate,2021-04-06T12:10:59-06:00*
G04 #@! TF.ProjectId,fill_sensing,66696c6c-5f73-4656-9e73-696e672e6b69,rev?*
G04 #@! TF.SameCoordinates,Original*
G04 #@! TF.FileFunction,Copper,L1,Top*
G04 #@! TF.FilePolarity,Positive*
%FSLAX46Y46*%
G04 Gerber Fmt 4.6, Leading zero omitted, Abs format (unit mm)*
G04 Created by KiCad (PCBNEW (5.1.9)-1) date 2021-04-06 12:10:59*
%MOMM*%
%LPD*%
G01*
G04 APERTURE LIST*
G04 #@! TA.AperFunction,ComponentPad*
%ADD10C,6.400000*%
G04 #@! TD*
G04 #@! TA.AperFunction,ComponentPad*
%ADD11C,1.700000*%
G04 #@! TD*
G04 #@! TA.AperFunction,SMDPad,CuDef*
%ADD12R,2.000000X0.600000*%
G04 #@! TD*
G04 #@! TA.AperFunction,ComponentPad*
%ADD13C,1.200000*%
G04 #@! TD*
G04 #@! TA.AperFunction,ComponentPad*
%ADD14R,1.200000X1.200000*%
G04 #@! TD*
G04 #@! TA.AperFunction,ComponentPad*
%ADD15C,1.500000*%
G04 #@! TD*
G04 #@! TA.AperFunction,ViaPad*
%ADD16C,0.800000*%
G04 #@! TD*
G04 #@! TA.AperFunction,ViaPad*
%ADD17C,0.762000*%
G04 #@! TD*
G04 #@! TA.AperFunction,Conductor*
%ADD18C,0.250000*%
G04 #@! TD*
G04 #@! TA.AperFunction,Conductor*
%ADD19C,0.203200*%
G04 #@! TD*
G04 #@! TA.AperFunction,Conductor*
%ADD20C,0.254000*%
G04 #@! TD*
G04 #@! TA.AperFunction,Conductor*
%ADD21C,0.100000*%
G04 #@! TD*
G04 APERTURE END LIST*
D10*
X136398000Y-68326000D03*
G04 #@! TA.AperFunction,ComponentPad*
G36*
G01*
X112360000Y-79082000D02*
X111160000Y-79082000D01*
G75*
G02*
X110910000Y-78832000I0J250000D01*
G01*
X110910000Y-77632000D01*
G75*
G02*
X111160000Y-77382000I250000J0D01*
G01*
X112360000Y-77382000D01*
G75*
G02*
X112610000Y-77632000I0J-250000D01*
G01*
X112610000Y-78832000D01*
G75*
G02*
X112360000Y-79082000I-250000J0D01*
G01*
G37*
G04 #@! TD.AperFunction*
D11*
X114260000Y-78232000D03*
X116760000Y-78232000D03*
X119260000Y-78232000D03*
X121760000Y-78232000D03*
X124260000Y-78232000D03*
X126760000Y-78232000D03*
X129260000Y-78232000D03*
X111760000Y-75732000D03*
X114260000Y-75732000D03*
X116760000Y-75732000D03*
X119260000Y-75732000D03*
X121760000Y-75732000D03*
X124260000Y-75732000D03*
X126760000Y-75732000D03*
X129260000Y-75732000D03*
D10*
X104648000Y-103886000D03*
X136398000Y-103886000D03*
D12*
X125350000Y-98425000D03*
X125350000Y-97155000D03*
X125350000Y-95885000D03*
X125350000Y-94615000D03*
X125350000Y-93345000D03*
X125350000Y-92075000D03*
X125350000Y-90805000D03*
X125350000Y-89535000D03*
X125350000Y-88265000D03*
X125350000Y-86995000D03*
X125350000Y-85725000D03*
X125350000Y-84455000D03*
X125350000Y-83185000D03*
X125350000Y-81915000D03*
X115950000Y-81915000D03*
X115950000Y-83185000D03*
X115950000Y-84455000D03*
X115950000Y-85725000D03*
X115950000Y-86995000D03*
X115950000Y-88265000D03*
X115950000Y-89535000D03*
X115950000Y-90805000D03*
X115950000Y-92075000D03*
X115950000Y-93345000D03*
X115950000Y-94615000D03*
X115950000Y-95885000D03*
X115950000Y-97155000D03*
X115950000Y-98425000D03*
G04 #@! TA.AperFunction,SMDPad,CuDef*
G36*
G01*
X112972001Y-88713000D02*
X112071999Y-88713000D01*
G75*
G02*
X111822000Y-88463001I0J249999D01*
G01*
X111822000Y-87812999D01*
G75*
G02*
X112071999Y-87563000I249999J0D01*
G01*
X112972001Y-87563000D01*
G75*
G02*
X113222000Y-87812999I0J-249999D01*
G01*
X113222000Y-88463001D01*
G75*
G02*
X112972001Y-88713000I-249999J0D01*
G01*
G37*
G04 #@! TD.AperFunction*
G04 #@! TA.AperFunction,SMDPad,CuDef*
G36*
G01*
X112972001Y-86663000D02*
X112071999Y-86663000D01*
G75*
G02*
X111822000Y-86413001I0J249999D01*
G01*
X111822000Y-85762999D01*
G75*
G02*
X112071999Y-85513000I249999J0D01*
G01*
X112972001Y-85513000D01*
G75*
G02*
X113222000Y-85762999I0J-249999D01*
G01*
X113222000Y-86413001D01*
G75*
G02*
X112972001Y-86663000I-249999J0D01*
G01*
G37*
G04 #@! TD.AperFunction*
G04 #@! TA.AperFunction,SMDPad,CuDef*
G36*
G01*
X106563000Y-82345500D02*
X107813000Y-82345500D01*
G75*
G02*
X108063000Y-82595500I0J-250000D01*
G01*
X108063000Y-83520500D01*
G75*
G02*
X107813000Y-83770500I-250000J0D01*
G01*
X106563000Y-83770500D01*
G75*
G02*
X106313000Y-83520500I0J250000D01*
G01*
X106313000Y-82595500D01*
G75*
G02*
X106563000Y-82345500I250000J0D01*
G01*
G37*
G04 #@! TD.AperFunction*
G04 #@! TA.AperFunction,SMDPad,CuDef*
G36*
G01*
X106563000Y-79370500D02*
X107813000Y-79370500D01*
G75*
G02*
X108063000Y-79620500I0J-250000D01*
G01*
X108063000Y-80545500D01*
G75*
G02*
X107813000Y-80795500I-250000J0D01*
G01*
X106563000Y-80795500D01*
G75*
G02*
X106313000Y-80545500I0J250000D01*
G01*
X106313000Y-79620500D01*
G75*
G02*
X106563000Y-79370500I250000J0D01*
G01*
G37*
G04 #@! TD.AperFunction*
G04 #@! TA.AperFunction,SMDPad,CuDef*
G36*
G01*
X106563000Y-72476000D02*
X107813000Y-72476000D01*
G75*
G02*
X108063000Y-72726000I0J-250000D01*
G01*
X108063000Y-73651000D01*
G75*
G02*
X107813000Y-73901000I-250000J0D01*
G01*
X106563000Y-73901000D01*
G75*
G02*
X106313000Y-73651000I0J250000D01*
G01*
X106313000Y-72726000D01*
G75*
G02*
X106563000Y-72476000I250000J0D01*
G01*
G37*
G04 #@! TD.AperFunction*
G04 #@! TA.AperFunction,SMDPad,CuDef*
G36*
G01*
X106563000Y-75451000D02*
X107813000Y-75451000D01*
G75*
G02*
X108063000Y-75701000I0J-250000D01*
G01*
X108063000Y-76626000D01*
G75*
G02*
X107813000Y-76876000I-250000J0D01*
G01*
X106563000Y-76876000D01*
G75*
G02*
X106313000Y-76626000I0J250000D01*
G01*
X106313000Y-75701000D01*
G75*
G02*
X106563000Y-75451000I250000J0D01*
G01*
G37*
G04 #@! TD.AperFunction*
G04 #@! TA.AperFunction,SMDPad,CuDef*
G36*
G01*
X106563000Y-86446000D02*
X107813000Y-86446000D01*
G75*
G02*
X108063000Y-86696000I0J-250000D01*
G01*
X108063000Y-87621000D01*
G75*
G02*
X107813000Y-87871000I-250000J0D01*
G01*
X106563000Y-87871000D01*
G75*
G02*
X106313000Y-87621000I0J250000D01*
G01*
X106313000Y-86696000D01*
G75*
G02*
X106563000Y-86446000I250000J0D01*
G01*
G37*
G04 #@! TD.AperFunction*
G04 #@! TA.AperFunction,SMDPad,CuDef*
G36*
G01*
X106563000Y-89421000D02*
X107813000Y-89421000D01*
G75*
G02*
X108063000Y-89671000I0J-250000D01*
G01*
X108063000Y-90596000D01*
G75*
G02*
X107813000Y-90846000I-250000J0D01*
G01*
X106563000Y-90846000D01*
G75*
G02*
X106313000Y-90596000I0J250000D01*
G01*
X106313000Y-89671000D01*
G75*
G02*
X106563000Y-89421000I250000J0D01*
G01*
G37*
G04 #@! TD.AperFunction*
G04 #@! TA.AperFunction,SMDPad,CuDef*
G36*
G01*
X103181999Y-75117000D02*
X104082001Y-75117000D01*
G75*
G02*
X104332000Y-75366999I0J-249999D01*
G01*
X104332000Y-76017001D01*
G75*
G02*
X104082001Y-76267000I-249999J0D01*
G01*
X103181999Y-76267000D01*
G75*
G02*
X102932000Y-76017001I0J249999D01*
G01*
X102932000Y-75366999D01*
G75*
G02*
X103181999Y-75117000I249999J0D01*
G01*
G37*
G04 #@! TD.AperFunction*
G04 #@! TA.AperFunction,SMDPad,CuDef*
G36*
G01*
X103181999Y-73067000D02*
X104082001Y-73067000D01*
G75*
G02*
X104332000Y-73316999I0J-249999D01*
G01*
X104332000Y-73967001D01*
G75*
G02*
X104082001Y-74217000I-249999J0D01*
G01*
X103181999Y-74217000D01*
G75*
G02*
X102932000Y-73967001I0J249999D01*
G01*
X102932000Y-73316999D01*
G75*
G02*
X103181999Y-73067000I249999J0D01*
G01*
G37*
G04 #@! TD.AperFunction*
G04 #@! TA.AperFunction,SMDPad,CuDef*
G36*
G01*
X103181999Y-79943000D02*
X104082001Y-79943000D01*
G75*
G02*
X104332000Y-80192999I0J-249999D01*
G01*
X104332000Y-80843001D01*
G75*
G02*
X104082001Y-81093000I-249999J0D01*
G01*
X103181999Y-81093000D01*
G75*
G02*
X102932000Y-80843001I0J249999D01*
G01*
X102932000Y-80192999D01*
G75*
G02*
X103181999Y-79943000I249999J0D01*
G01*
G37*
G04 #@! TD.AperFunction*
G04 #@! TA.AperFunction,SMDPad,CuDef*
G36*
G01*
X103181999Y-81993000D02*
X104082001Y-81993000D01*
G75*
G02*
X104332000Y-82242999I0J-249999D01*
G01*
X104332000Y-82893001D01*
G75*
G02*
X104082001Y-83143000I-249999J0D01*
G01*
X103181999Y-83143000D01*
G75*
G02*
X102932000Y-82893001I0J249999D01*
G01*
X102932000Y-82242999D01*
G75*
G02*
X103181999Y-81993000I249999J0D01*
G01*
G37*
G04 #@! TD.AperFunction*
G04 #@! TA.AperFunction,SMDPad,CuDef*
G36*
G01*
X103181999Y-89087000D02*
X104082001Y-89087000D01*
G75*
G02*
X104332000Y-89336999I0J-249999D01*
G01*
X104332000Y-89987001D01*
G75*
G02*
X104082001Y-90237000I-249999J0D01*
G01*
X103181999Y-90237000D01*
G75*
G02*
X102932000Y-89987001I0J249999D01*
G01*
X102932000Y-89336999D01*
G75*
G02*
X103181999Y-89087000I249999J0D01*
G01*
G37*
G04 #@! TD.AperFunction*
G04 #@! TA.AperFunction,SMDPad,CuDef*
G36*
G01*
X103181999Y-87037000D02*
X104082001Y-87037000D01*
G75*
G02*
X104332000Y-87286999I0J-249999D01*
G01*
X104332000Y-87937001D01*
G75*
G02*
X104082001Y-88187000I-249999J0D01*
G01*
X103181999Y-88187000D01*
G75*
G02*
X102932000Y-87937001I0J249999D01*
G01*
X102932000Y-87286999D01*
G75*
G02*
X103181999Y-87037000I249999J0D01*
G01*
G37*
G04 #@! TD.AperFunction*
D13*
X120904000Y-105632000D03*
D14*
X118904000Y-105632000D03*
D13*
X122904000Y-105632000D03*
X122904000Y-103632000D03*
X120904000Y-103632000D03*
X118904000Y-103632000D03*
G04 #@! TA.AperFunction,SMDPad,CuDef*
G36*
G01*
X136582999Y-90502000D02*
X137483001Y-90502000D01*
G75*
G02*
X137733000Y-90751999I0J-249999D01*
G01*
X137733000Y-91402001D01*
G75*
G02*
X137483001Y-91652000I-249999J0D01*
G01*
X136582999Y-91652000D01*
G75*
G02*
X136333000Y-91402001I0J249999D01*
G01*
X136333000Y-90751999D01*
G75*
G02*
X136582999Y-90502000I249999J0D01*
G01*
G37*
G04 #@! TD.AperFunction*
G04 #@! TA.AperFunction,SMDPad,CuDef*
G36*
G01*
X136582999Y-88452000D02*
X137483001Y-88452000D01*
G75*
G02*
X137733000Y-88701999I0J-249999D01*
G01*
X137733000Y-89352001D01*
G75*
G02*
X137483001Y-89602000I-249999J0D01*
G01*
X136582999Y-89602000D01*
G75*
G02*
X136333000Y-89352001I0J249999D01*
G01*
X136333000Y-88701999D01*
G75*
G02*
X136582999Y-88452000I249999J0D01*
G01*
G37*
G04 #@! TD.AperFunction*
G04 #@! TA.AperFunction,SMDPad,CuDef*
G36*
G01*
X137483001Y-86808000D02*
X136582999Y-86808000D01*
G75*
G02*
X136333000Y-86558001I0J249999D01*
G01*
X136333000Y-85907999D01*
G75*
G02*
X136582999Y-85658000I249999J0D01*
G01*
X137483001Y-85658000D01*
G75*
G02*
X137733000Y-85907999I0J-249999D01*
G01*
X137733000Y-86558001D01*
G75*
G02*
X137483001Y-86808000I-249999J0D01*
G01*
G37*
G04 #@! TD.AperFunction*
G04 #@! TA.AperFunction,SMDPad,CuDef*
G36*
G01*
X137483001Y-84758000D02*
X136582999Y-84758000D01*
G75*
G02*
X136333000Y-84508001I0J249999D01*
G01*
X136333000Y-83857999D01*
G75*
G02*
X136582999Y-83608000I249999J0D01*
G01*
X137483001Y-83608000D01*
G75*
G02*
X137733000Y-83857999I0J-249999D01*
G01*
X137733000Y-84508001D01*
G75*
G02*
X137483001Y-84758000I-249999J0D01*
G01*
G37*
G04 #@! TD.AperFunction*
D15*
X132334000Y-90043000D03*
X132334000Y-85163000D03*
D10*
X104648000Y-68326000D03*
D16*
X122936000Y-87630000D03*
X122936000Y-86360000D03*
X122936000Y-88900000D03*
X138684000Y-81788000D03*
X138938000Y-83312000D03*
X138938000Y-85090000D03*
X138938000Y-86868000D03*
X138938000Y-88392000D03*
X138938000Y-90170000D03*
X138938000Y-91948000D03*
X138684000Y-93472000D03*
X137160000Y-93472000D03*
X135128000Y-93472000D03*
X133096000Y-93472000D03*
X131572000Y-93472000D03*
X130048000Y-93472000D03*
X128524000Y-93472000D03*
X127508000Y-90932000D03*
X127508000Y-92456000D03*
X137160000Y-81788000D03*
X135636000Y-81788000D03*
X134112000Y-81788000D03*
X132588000Y-81788000D03*
X131064000Y-81788000D03*
X129540000Y-81788000D03*
X129540000Y-83312000D03*
X128270000Y-84836000D03*
X114046000Y-85090000D03*
D17*
X108712000Y-69850000D03*
X103124000Y-84328000D03*
X121158000Y-97536000D03*
X109220000Y-94742000D03*
X119380000Y-96520000D03*
X109982000Y-99060000D03*
D16*
X127508000Y-94742000D03*
D17*
X119888000Y-98552000D03*
D16*
X123190000Y-95123000D03*
X123190000Y-94107000D03*
X130810000Y-97536000D03*
D17*
X121412000Y-90170000D03*
D16*
X120396000Y-90170000D03*
D17*
X114046000Y-90170000D03*
X113284000Y-90932000D03*
D18*
X136409628Y-83559628D02*
X137033000Y-84183000D01*
X129546372Y-83559628D02*
X136409628Y-83559628D01*
X124206000Y-86360000D02*
X126746000Y-86360000D01*
X126746000Y-86360000D02*
X128270000Y-84836000D01*
X124024999Y-86541001D02*
X124206000Y-86360000D01*
X137033000Y-91077000D02*
X136409628Y-91700372D01*
X129546372Y-91700372D02*
X126736001Y-88890001D01*
X136409628Y-91700372D02*
X129546372Y-91700372D01*
X126736001Y-88890001D02*
X124196001Y-88890001D01*
X124196001Y-88890001D02*
X124024999Y-88718999D01*
X124024999Y-88718999D02*
X124024999Y-86541001D01*
X128270000Y-84836000D02*
X129546372Y-83559628D01*
X114343000Y-86088000D02*
X112522000Y-86088000D01*
X115950000Y-86995000D02*
X115250000Y-86995000D01*
X115250000Y-86995000D02*
X114343000Y-86088000D01*
X114343000Y-86088000D02*
X114343000Y-85387000D01*
X114343000Y-85387000D02*
X114046000Y-85090000D01*
D19*
X103632000Y-80518000D02*
X105156000Y-80518000D01*
X105591000Y-80083000D02*
X107188000Y-80083000D01*
X105156000Y-80518000D02*
X105591000Y-80083000D01*
X107188000Y-73188500D02*
X105627500Y-73188500D01*
X105174000Y-73642000D02*
X103632000Y-73642000D01*
X105627500Y-73188500D02*
X105174000Y-73642000D01*
X103632000Y-87612000D02*
X105138000Y-87612000D01*
X105591500Y-87158500D02*
X107188000Y-87158500D01*
X105138000Y-87612000D02*
X105591500Y-87158500D01*
X122333316Y-90805000D02*
X125350000Y-90805000D01*
X117127399Y-99026601D02*
X117602000Y-98552000D01*
X117602000Y-98552000D02*
X117602000Y-95536316D01*
X114708719Y-99026601D02*
X117127399Y-99026601D01*
X111147210Y-95465092D02*
X111440118Y-95758000D01*
X109115210Y-90702761D02*
X111147210Y-92734760D01*
X111440118Y-95758000D02*
X114708719Y-99026601D01*
X111252000Y-95569882D02*
X111440118Y-95758000D01*
X103632000Y-75692000D02*
X105117610Y-77177610D01*
X105117610Y-77177610D02*
X106150208Y-77177610D01*
X111147210Y-92734760D02*
X111147210Y-95465092D01*
X106150208Y-77177610D02*
X109115210Y-80142612D01*
X109115210Y-80142612D02*
X109115210Y-90702761D01*
X117602000Y-95536316D02*
X122333316Y-90805000D01*
X117294414Y-99429811D02*
X118005210Y-98719015D01*
X114541704Y-99429811D02*
X117294414Y-99429811D01*
X118005210Y-98719015D02*
X118005210Y-95703330D01*
X121633540Y-92075000D02*
X125350000Y-92075000D01*
X118005210Y-95703330D02*
X121633540Y-92075000D01*
X108712000Y-86814902D02*
X108712000Y-90869776D01*
X103632000Y-82568000D02*
X104465098Y-82568000D01*
X104465098Y-82568000D02*
X108712000Y-86814902D01*
X108712000Y-90869776D02*
X110744000Y-92901775D01*
X110744000Y-95632107D02*
X110869893Y-95758000D01*
X110744000Y-92901775D02*
X110744000Y-95632107D01*
X110744000Y-95632106D02*
X110869893Y-95758000D01*
X110869893Y-95758000D02*
X114541704Y-99429811D01*
X105117610Y-91147610D02*
X108419610Y-91147610D01*
X103632000Y-89662000D02*
X105117610Y-91147610D01*
X110340790Y-93068790D02*
X110340790Y-95862790D01*
X108419610Y-91147610D02*
X110340790Y-93068790D01*
X117461429Y-99833021D02*
X118408420Y-98886030D01*
X110340790Y-95862790D02*
X114311021Y-99833021D01*
X114311021Y-99833021D02*
X117461429Y-99833021D01*
X118408420Y-98886030D02*
X118408420Y-95870344D01*
X120933764Y-93345000D02*
X125350000Y-93345000D01*
X118408420Y-95870344D02*
X120933764Y-93345000D01*
X125223000Y-98552000D02*
X125350000Y-98425000D01*
X119888000Y-98552000D02*
X125223000Y-98552000D01*
D18*
X113410001Y-76581999D02*
X114260000Y-75732000D01*
X113084999Y-76907001D02*
X113410001Y-76581999D01*
X113084999Y-80299999D02*
X113084999Y-76907001D01*
X114700000Y-81915000D02*
X113084999Y-80299999D01*
X115950000Y-81915000D02*
X114700000Y-81915000D01*
X115910001Y-76581999D02*
X116760000Y-75732000D01*
X115584999Y-76907001D02*
X115910001Y-76581999D01*
X115584999Y-78796001D02*
X115584999Y-76907001D01*
X117725011Y-80936013D02*
X115584999Y-78796001D01*
X117725011Y-83929989D02*
X117725011Y-80936013D01*
X117200000Y-84455000D02*
X117725011Y-83929989D01*
X115950000Y-84455000D02*
X117200000Y-84455000D01*
X116650000Y-89535000D02*
X117348000Y-88837000D01*
X115950000Y-89535000D02*
X116650000Y-89535000D01*
X118410001Y-76581999D02*
X119260000Y-75732000D01*
X117935001Y-77056999D02*
X118410001Y-76581999D01*
X117935001Y-78646003D02*
X117935001Y-77056999D01*
X118625031Y-79336033D02*
X117935001Y-78646003D01*
X118625031Y-84302789D02*
X118625031Y-79336033D01*
X117348000Y-85579820D02*
X118625031Y-84302789D01*
X117348000Y-88837000D02*
X117348000Y-85579820D01*
X120910001Y-76581999D02*
X121760000Y-75732000D01*
X120584999Y-76907001D02*
X120910001Y-76581999D01*
X120584999Y-78646003D02*
X120584999Y-76907001D01*
X115950000Y-92075000D02*
X116650000Y-92075000D01*
X116650000Y-92075000D02*
X118306010Y-90418990D01*
X118306010Y-90418990D02*
X118306010Y-85894630D01*
X118306010Y-85894630D02*
X119525051Y-84675589D01*
X119525051Y-84675589D02*
X119525051Y-79705951D01*
X119525051Y-79705951D02*
X120584999Y-78646003D01*
X116650000Y-94615000D02*
X119206030Y-92058970D01*
X115950000Y-94615000D02*
X116650000Y-94615000D01*
X119206030Y-86267430D02*
X120425071Y-85048389D01*
X119206030Y-92058970D02*
X119206030Y-86267430D01*
X123410001Y-76581999D02*
X124260000Y-75732000D01*
X123084999Y-76907001D02*
X123410001Y-76581999D01*
X123084999Y-78646003D02*
X123084999Y-76907001D01*
X120425071Y-81305931D02*
X123084999Y-78646003D01*
X120425071Y-85048389D02*
X120425071Y-81305931D01*
X125910001Y-76581999D02*
X126760000Y-75732000D01*
X125584999Y-76907001D02*
X125910001Y-76581999D01*
X125584999Y-78646003D02*
X125584999Y-76907001D01*
X124024999Y-82559999D02*
X124024999Y-80206003D01*
X124024999Y-80206003D02*
X125584999Y-78646003D01*
X124650000Y-83185000D02*
X124024999Y-82559999D01*
X125350000Y-83185000D02*
X124650000Y-83185000D01*
X123952000Y-95885000D02*
X123190000Y-95123000D01*
X125350000Y-95885000D02*
X123952000Y-95885000D01*
X123317000Y-94107000D02*
X123190000Y-94107000D01*
X125350000Y-94615000D02*
X123952000Y-94615000D01*
X123444000Y-94107000D02*
X123190000Y-94107000D01*
X123952000Y-94615000D02*
X123444000Y-94107000D01*
X125350000Y-79642000D02*
X126760000Y-78232000D01*
X125350000Y-81915000D02*
X125350000Y-79642000D01*
X120904000Y-85205870D02*
X120904000Y-81588000D01*
X116650000Y-95885000D02*
X119656040Y-92878960D01*
X119656040Y-92878960D02*
X119656040Y-86453830D01*
X120904000Y-81588000D02*
X124260000Y-78232000D01*
X115950000Y-95885000D02*
X116650000Y-95885000D01*
X119656040Y-86453830D02*
X120904000Y-85205870D01*
X119975061Y-80016939D02*
X121760000Y-78232000D01*
X119975061Y-84861989D02*
X119975061Y-80016939D01*
X118756020Y-86081030D02*
X119975061Y-84861989D01*
X118756020Y-91238980D02*
X118756020Y-86081030D01*
X115950000Y-93345000D02*
X116650000Y-93345000D01*
X116650000Y-93345000D02*
X118756020Y-91238980D01*
X119075041Y-78416959D02*
X119260000Y-78232000D01*
X119075041Y-84489189D02*
X119075041Y-78416959D01*
X117856000Y-85708230D02*
X119075041Y-84489189D01*
X117856000Y-89599000D02*
X117856000Y-85708230D01*
X115950000Y-90805000D02*
X116650000Y-90805000D01*
X116650000Y-90805000D02*
X117856000Y-89599000D01*
X117609999Y-79081999D02*
X116760000Y-78232000D01*
X118175021Y-79647021D02*
X117609999Y-79081999D01*
X118175021Y-84116389D02*
X118175021Y-79647021D01*
X116566410Y-85725000D02*
X118175021Y-84116389D01*
X115950000Y-85725000D02*
X116566410Y-85725000D01*
X115109999Y-79081999D02*
X114260000Y-78232000D01*
X117275001Y-81247001D02*
X115109999Y-79081999D01*
X117275001Y-82559999D02*
X117275001Y-81247001D01*
X116650000Y-83185000D02*
X117275001Y-82559999D01*
X115950000Y-83185000D02*
X116650000Y-83185000D01*
X130810000Y-97536000D02*
X128524000Y-97536000D01*
X128143000Y-97155000D02*
X125350000Y-97155000D01*
X128524000Y-97536000D02*
X128143000Y-97155000D01*
X136271000Y-88265000D02*
X137033000Y-89027000D01*
X132334000Y-90043000D02*
X132334000Y-88982340D01*
X132334000Y-88982340D02*
X132334000Y-88265000D01*
X125350000Y-88265000D02*
X132334000Y-88265000D01*
X132334000Y-88265000D02*
X136271000Y-88265000D01*
X136271000Y-86995000D02*
X137033000Y-86233000D01*
X132334000Y-85163000D02*
X132334000Y-86995000D01*
X125350000Y-86995000D02*
X132334000Y-86995000D01*
X132334000Y-86995000D02*
X136271000Y-86995000D01*
X125350000Y-85725000D02*
X126050000Y-85725000D01*
X120650000Y-86732690D02*
X120650000Y-88900000D01*
X122292690Y-85090000D02*
X120650000Y-86732690D01*
X123825000Y-85090000D02*
X122292690Y-85090000D01*
X124460000Y-85725000D02*
X123825000Y-85090000D01*
X125350000Y-85725000D02*
X124460000Y-85725000D01*
X121412000Y-89662000D02*
X121412000Y-90170000D01*
X120650000Y-88900000D02*
X121412000Y-89662000D01*
X125350000Y-84455000D02*
X126050000Y-84455000D01*
X122291280Y-84455000D02*
X125350000Y-84455000D01*
X120106050Y-86640230D02*
X122291280Y-84455000D01*
X120106050Y-89880050D02*
X120106050Y-86640230D01*
X120396000Y-90170000D02*
X120106050Y-89880050D01*
D19*
X115250000Y-97155000D02*
X115950000Y-97155000D01*
X114046000Y-95951000D02*
X115250000Y-97155000D01*
X114046000Y-90170000D02*
X114046000Y-95951000D01*
X115250000Y-98425000D02*
X115950000Y-98425000D01*
X113284000Y-96459000D02*
X115250000Y-98425000D01*
X113284000Y-90932000D02*
X113284000Y-96459000D01*
D20*
X139498000Y-94107000D02*
X127963418Y-94107000D01*
X127877942Y-94049887D01*
X127735809Y-93991013D01*
X127584922Y-93961000D01*
X127431078Y-93961000D01*
X127280191Y-93991013D01*
X127138058Y-94049887D01*
X127052582Y-94107000D01*
X126873000Y-94107000D01*
X126873000Y-91652000D01*
X135694928Y-91652000D01*
X135707188Y-91776482D01*
X135743498Y-91896180D01*
X135802463Y-92006494D01*
X135881815Y-92103185D01*
X135978506Y-92182537D01*
X136088820Y-92241502D01*
X136208518Y-92277812D01*
X136333000Y-92290072D01*
X136747250Y-92287000D01*
X136906000Y-92128250D01*
X136906000Y-91204000D01*
X137160000Y-91204000D01*
X137160000Y-92128250D01*
X137318750Y-92287000D01*
X137733000Y-92290072D01*
X137857482Y-92277812D01*
X137977180Y-92241502D01*
X138087494Y-92182537D01*
X138184185Y-92103185D01*
X138263537Y-92006494D01*
X138322502Y-91896180D01*
X138358812Y-91776482D01*
X138371072Y-91652000D01*
X138368000Y-91362750D01*
X138209250Y-91204000D01*
X137160000Y-91204000D01*
X136906000Y-91204000D01*
X135856750Y-91204000D01*
X135698000Y-91362750D01*
X135694928Y-91652000D01*
X126873000Y-91652000D01*
X126873000Y-90198678D01*
X126880537Y-90189494D01*
X126939502Y-90079180D01*
X126975812Y-89959482D01*
X126988072Y-89835000D01*
X126985000Y-89820750D01*
X126873000Y-89708750D01*
X126873000Y-89662000D01*
X126870560Y-89637224D01*
X126863333Y-89613399D01*
X126851597Y-89591443D01*
X126835803Y-89572197D01*
X126816557Y-89556403D01*
X126794601Y-89544667D01*
X126770776Y-89537440D01*
X126746000Y-89535000D01*
X125203000Y-89535000D01*
X125203000Y-89408000D01*
X125223000Y-89408000D01*
X125223000Y-89388000D01*
X125477000Y-89388000D01*
X125477000Y-89408000D01*
X126826250Y-89408000D01*
X126985000Y-89249250D01*
X126988072Y-89235000D01*
X126975812Y-89110518D01*
X126939502Y-88990820D01*
X126880537Y-88880506D01*
X126801185Y-88783815D01*
X126785570Y-88771000D01*
X131828000Y-88771000D01*
X131828000Y-89007193D01*
X131828001Y-89007203D01*
X131828001Y-89028406D01*
X131798271Y-89040721D01*
X131613030Y-89164495D01*
X131455495Y-89322030D01*
X131331721Y-89507271D01*
X131246464Y-89713100D01*
X131203000Y-89931606D01*
X131203000Y-90154394D01*
X131246464Y-90372900D01*
X131331721Y-90578729D01*
X131455495Y-90763970D01*
X131613030Y-90921505D01*
X131798271Y-91045279D01*
X132004100Y-91130536D01*
X132222606Y-91174000D01*
X132445394Y-91174000D01*
X132663900Y-91130536D01*
X132869729Y-91045279D01*
X133054970Y-90921505D01*
X133212505Y-90763970D01*
X133336279Y-90578729D01*
X133421536Y-90372900D01*
X133465000Y-90154394D01*
X133465000Y-89931606D01*
X133421536Y-89713100D01*
X133336279Y-89507271D01*
X133212505Y-89322030D01*
X133054970Y-89164495D01*
X132869729Y-89040721D01*
X132840000Y-89028407D01*
X132840000Y-88771000D01*
X135950157Y-88771000D01*
X135950157Y-89352001D01*
X135962317Y-89475462D01*
X135998329Y-89594179D01*
X136056810Y-89703589D01*
X136135512Y-89799488D01*
X136226780Y-89874389D01*
X136208518Y-89876188D01*
X136088820Y-89912498D01*
X135978506Y-89971463D01*
X135881815Y-90050815D01*
X135802463Y-90147506D01*
X135743498Y-90257820D01*
X135707188Y-90377518D01*
X135694928Y-90502000D01*
X135698000Y-90791250D01*
X135856750Y-90950000D01*
X136906000Y-90950000D01*
X136906000Y-90930000D01*
X137160000Y-90930000D01*
X137160000Y-90950000D01*
X138209250Y-90950000D01*
X138368000Y-90791250D01*
X138371072Y-90502000D01*
X138358812Y-90377518D01*
X138322502Y-90257820D01*
X138263537Y-90147506D01*
X138184185Y-90050815D01*
X138087494Y-89971463D01*
X137977180Y-89912498D01*
X137857482Y-89876188D01*
X137839220Y-89874389D01*
X137930488Y-89799488D01*
X138009190Y-89703589D01*
X138067671Y-89594179D01*
X138103683Y-89475462D01*
X138115843Y-89352001D01*
X138115843Y-88701999D01*
X138103683Y-88578538D01*
X138067671Y-88459821D01*
X138009190Y-88350411D01*
X137930488Y-88254512D01*
X137834589Y-88175810D01*
X137725179Y-88117329D01*
X137606462Y-88081317D01*
X137483001Y-88069157D01*
X136790748Y-88069157D01*
X136646376Y-87924785D01*
X136630527Y-87905473D01*
X136553479Y-87842241D01*
X136465575Y-87795255D01*
X136370193Y-87766322D01*
X136295854Y-87759000D01*
X136295846Y-87759000D01*
X136271000Y-87756553D01*
X136246154Y-87759000D01*
X132358854Y-87759000D01*
X132334000Y-87756552D01*
X132309146Y-87759000D01*
X126671901Y-87759000D01*
X126668322Y-87752304D01*
X126620711Y-87694289D01*
X126562696Y-87646678D01*
X126531494Y-87630000D01*
X126562696Y-87613322D01*
X126620711Y-87565711D01*
X126668322Y-87507696D01*
X126671901Y-87501000D01*
X132309146Y-87501000D01*
X132334000Y-87503448D01*
X132358854Y-87501000D01*
X136246154Y-87501000D01*
X136271000Y-87503447D01*
X136295846Y-87501000D01*
X136295854Y-87501000D01*
X136370193Y-87493678D01*
X136465575Y-87464745D01*
X136553479Y-87417759D01*
X136630527Y-87354527D01*
X136646376Y-87335215D01*
X136790748Y-87190843D01*
X137483001Y-87190843D01*
X137606462Y-87178683D01*
X137725179Y-87142671D01*
X137834589Y-87084190D01*
X137930488Y-87005488D01*
X138009190Y-86909589D01*
X138067671Y-86800179D01*
X138103683Y-86681462D01*
X138115843Y-86558001D01*
X138115843Y-85907999D01*
X138103683Y-85784538D01*
X138067671Y-85665821D01*
X138009190Y-85556411D01*
X137930488Y-85460512D01*
X137839220Y-85385611D01*
X137857482Y-85383812D01*
X137977180Y-85347502D01*
X138087494Y-85288537D01*
X138184185Y-85209185D01*
X138263537Y-85112494D01*
X138322502Y-85002180D01*
X138358812Y-84882482D01*
X138371072Y-84758000D01*
X138368000Y-84468750D01*
X138209250Y-84310000D01*
X137160000Y-84310000D01*
X137160000Y-84330000D01*
X136906000Y-84330000D01*
X136906000Y-84310000D01*
X135856750Y-84310000D01*
X135698000Y-84468750D01*
X135694928Y-84758000D01*
X135707188Y-84882482D01*
X135743498Y-85002180D01*
X135802463Y-85112494D01*
X135881815Y-85209185D01*
X135978506Y-85288537D01*
X136088820Y-85347502D01*
X136208518Y-85383812D01*
X136226780Y-85385611D01*
X136135512Y-85460512D01*
X136056810Y-85556411D01*
X135998329Y-85665821D01*
X135962317Y-85784538D01*
X135950157Y-85907999D01*
X135950157Y-86489000D01*
X132840000Y-86489000D01*
X132840000Y-86177593D01*
X132869729Y-86165279D01*
X133054970Y-86041505D01*
X133212505Y-85883970D01*
X133336279Y-85698729D01*
X133421536Y-85492900D01*
X133465000Y-85274394D01*
X133465000Y-85051606D01*
X133421536Y-84833100D01*
X133336279Y-84627271D01*
X133212505Y-84442030D01*
X133054970Y-84284495D01*
X132869729Y-84160721D01*
X132663900Y-84075464D01*
X132445394Y-84032000D01*
X132222606Y-84032000D01*
X132004100Y-84075464D01*
X131798271Y-84160721D01*
X131613030Y-84284495D01*
X131455495Y-84442030D01*
X131331721Y-84627271D01*
X131246464Y-84833100D01*
X131203000Y-85051606D01*
X131203000Y-85274394D01*
X131246464Y-85492900D01*
X131331721Y-85698729D01*
X131455495Y-85883970D01*
X131613030Y-86041505D01*
X131798271Y-86165279D01*
X131828001Y-86177593D01*
X131828001Y-86489000D01*
X126671901Y-86489000D01*
X126668322Y-86482304D01*
X126620711Y-86424289D01*
X126562696Y-86376678D01*
X126531494Y-86360000D01*
X126562696Y-86343322D01*
X126620711Y-86295711D01*
X126668322Y-86237696D01*
X126703701Y-86171508D01*
X126725487Y-86099689D01*
X126732843Y-86025000D01*
X126732843Y-85725000D01*
X126746000Y-85725000D01*
X126770776Y-85722560D01*
X126794601Y-85715333D01*
X126816557Y-85703597D01*
X126835803Y-85687803D01*
X126851597Y-85668557D01*
X126863333Y-85646601D01*
X126870560Y-85622776D01*
X126873000Y-85598000D01*
X126873000Y-83608000D01*
X135694928Y-83608000D01*
X135698000Y-83897250D01*
X135856750Y-84056000D01*
X136906000Y-84056000D01*
X136906000Y-83131750D01*
X137160000Y-83131750D01*
X137160000Y-84056000D01*
X138209250Y-84056000D01*
X138368000Y-83897250D01*
X138371072Y-83608000D01*
X138358812Y-83483518D01*
X138322502Y-83363820D01*
X138263537Y-83253506D01*
X138184185Y-83156815D01*
X138087494Y-83077463D01*
X137977180Y-83018498D01*
X137857482Y-82982188D01*
X137733000Y-82969928D01*
X137318750Y-82973000D01*
X137160000Y-83131750D01*
X136906000Y-83131750D01*
X136747250Y-82973000D01*
X136333000Y-82969928D01*
X136208518Y-82982188D01*
X136088820Y-83018498D01*
X135978506Y-83077463D01*
X135881815Y-83156815D01*
X135802463Y-83253506D01*
X135743498Y-83363820D01*
X135707188Y-83483518D01*
X135694928Y-83608000D01*
X126873000Y-83608000D01*
X126873000Y-81153000D01*
X139498001Y-81153000D01*
X139498000Y-94107000D01*
G04 #@! TA.AperFunction,Conductor*
D21*
G36*
X139498000Y-94107000D02*
G01*
X127963418Y-94107000D01*
X127877942Y-94049887D01*
X127735809Y-93991013D01*
X127584922Y-93961000D01*
X127431078Y-93961000D01*
X127280191Y-93991013D01*
X127138058Y-94049887D01*
X127052582Y-94107000D01*
X126873000Y-94107000D01*
X126873000Y-91652000D01*
X135694928Y-91652000D01*
X135707188Y-91776482D01*
X135743498Y-91896180D01*
X135802463Y-92006494D01*
X135881815Y-92103185D01*
X135978506Y-92182537D01*
X136088820Y-92241502D01*
X136208518Y-92277812D01*
X136333000Y-92290072D01*
X136747250Y-92287000D01*
X136906000Y-92128250D01*
X136906000Y-91204000D01*
X137160000Y-91204000D01*
X137160000Y-92128250D01*
X137318750Y-92287000D01*
X137733000Y-92290072D01*
X137857482Y-92277812D01*
X137977180Y-92241502D01*
X138087494Y-92182537D01*
X138184185Y-92103185D01*
X138263537Y-92006494D01*
X138322502Y-91896180D01*
X138358812Y-91776482D01*
X138371072Y-91652000D01*
X138368000Y-91362750D01*
X138209250Y-91204000D01*
X137160000Y-91204000D01*
X136906000Y-91204000D01*
X135856750Y-91204000D01*
X135698000Y-91362750D01*
X135694928Y-91652000D01*
X126873000Y-91652000D01*
X126873000Y-90198678D01*
X126880537Y-90189494D01*
X126939502Y-90079180D01*
X126975812Y-89959482D01*
X126988072Y-89835000D01*
X126985000Y-89820750D01*
X126873000Y-89708750D01*
X126873000Y-89662000D01*
X126870560Y-89637224D01*
X126863333Y-89613399D01*
X126851597Y-89591443D01*
X126835803Y-89572197D01*
X126816557Y-89556403D01*
X126794601Y-89544667D01*
X126770776Y-89537440D01*
X126746000Y-89535000D01*
X125203000Y-89535000D01*
X125203000Y-89408000D01*
X125223000Y-89408000D01*
X125223000Y-89388000D01*
X125477000Y-89388000D01*
X125477000Y-89408000D01*
X126826250Y-89408000D01*
X126985000Y-89249250D01*
X126988072Y-89235000D01*
X126975812Y-89110518D01*
X126939502Y-88990820D01*
X126880537Y-88880506D01*
X126801185Y-88783815D01*
X126785570Y-88771000D01*
X131828000Y-88771000D01*
X131828000Y-89007193D01*
X131828001Y-89007203D01*
X131828001Y-89028406D01*
X131798271Y-89040721D01*
X131613030Y-89164495D01*
X131455495Y-89322030D01*
X131331721Y-89507271D01*
X131246464Y-89713100D01*
X131203000Y-89931606D01*
X131203000Y-90154394D01*
X131246464Y-90372900D01*
X131331721Y-90578729D01*
X131455495Y-90763970D01*
X131613030Y-90921505D01*
X131798271Y-91045279D01*
X132004100Y-91130536D01*
X132222606Y-91174000D01*
X132445394Y-91174000D01*
X132663900Y-91130536D01*
X132869729Y-91045279D01*
X133054970Y-90921505D01*
X133212505Y-90763970D01*
X133336279Y-90578729D01*
X133421536Y-90372900D01*
X133465000Y-90154394D01*
X133465000Y-89931606D01*
X133421536Y-89713100D01*
X133336279Y-89507271D01*
X133212505Y-89322030D01*
X133054970Y-89164495D01*
X132869729Y-89040721D01*
X132840000Y-89028407D01*
X132840000Y-88771000D01*
X135950157Y-88771000D01*
X135950157Y-89352001D01*
X135962317Y-89475462D01*
X135998329Y-89594179D01*
X136056810Y-89703589D01*
X136135512Y-89799488D01*
X136226780Y-89874389D01*
X136208518Y-89876188D01*
X136088820Y-89912498D01*
X135978506Y-89971463D01*
X135881815Y-90050815D01*
X135802463Y-90147506D01*
X135743498Y-90257820D01*
X135707188Y-90377518D01*
X135694928Y-90502000D01*
X135698000Y-90791250D01*
X135856750Y-90950000D01*
X136906000Y-90950000D01*
X136906000Y-90930000D01*
X137160000Y-90930000D01*
X137160000Y-90950000D01*
X138209250Y-90950000D01*
X138368000Y-90791250D01*
X138371072Y-90502000D01*
X138358812Y-90377518D01*
X138322502Y-90257820D01*
X138263537Y-90147506D01*
X138184185Y-90050815D01*
X138087494Y-89971463D01*
X137977180Y-89912498D01*
X137857482Y-89876188D01*
X137839220Y-89874389D01*
X137930488Y-89799488D01*
X138009190Y-89703589D01*
X138067671Y-89594179D01*
X138103683Y-89475462D01*
X138115843Y-89352001D01*
X138115843Y-88701999D01*
X138103683Y-88578538D01*
X138067671Y-88459821D01*
X138009190Y-88350411D01*
X137930488Y-88254512D01*
X137834589Y-88175810D01*
X137725179Y-88117329D01*
X137606462Y-88081317D01*
X137483001Y-88069157D01*
X136790748Y-88069157D01*
X136646376Y-87924785D01*
X136630527Y-87905473D01*
X136553479Y-87842241D01*
X136465575Y-87795255D01*
X136370193Y-87766322D01*
X136295854Y-87759000D01*
X136295846Y-87759000D01*
X136271000Y-87756553D01*
X136246154Y-87759000D01*
X132358854Y-87759000D01*
X132334000Y-87756552D01*
X132309146Y-87759000D01*
X126671901Y-87759000D01*
X126668322Y-87752304D01*
X126620711Y-87694289D01*
X126562696Y-87646678D01*
X126531494Y-87630000D01*
X126562696Y-87613322D01*
X126620711Y-87565711D01*
X126668322Y-87507696D01*
X126671901Y-87501000D01*
X132309146Y-87501000D01*
X132334000Y-87503448D01*
X132358854Y-87501000D01*
X136246154Y-87501000D01*
X136271000Y-87503447D01*
X136295846Y-87501000D01*
X136295854Y-87501000D01*
X136370193Y-87493678D01*
X136465575Y-87464745D01*
X136553479Y-87417759D01*
X136630527Y-87354527D01*
X136646376Y-87335215D01*
X136790748Y-87190843D01*
X137483001Y-87190843D01*
X137606462Y-87178683D01*
X137725179Y-87142671D01*
X137834589Y-87084190D01*
X137930488Y-87005488D01*
X138009190Y-86909589D01*
X138067671Y-86800179D01*
X138103683Y-86681462D01*
X138115843Y-86558001D01*
X138115843Y-85907999D01*
X138103683Y-85784538D01*
X138067671Y-85665821D01*
X138009190Y-85556411D01*
X137930488Y-85460512D01*
X137839220Y-85385611D01*
X137857482Y-85383812D01*
X137977180Y-85347502D01*
X138087494Y-85288537D01*
X138184185Y-85209185D01*
X138263537Y-85112494D01*
X138322502Y-85002180D01*
X138358812Y-84882482D01*
X138371072Y-84758000D01*
X138368000Y-84468750D01*
X138209250Y-84310000D01*
X137160000Y-84310000D01*
X137160000Y-84330000D01*
X136906000Y-84330000D01*
X136906000Y-84310000D01*
X135856750Y-84310000D01*
X135698000Y-84468750D01*
X135694928Y-84758000D01*
X135707188Y-84882482D01*
X135743498Y-85002180D01*
X135802463Y-85112494D01*
X135881815Y-85209185D01*
X135978506Y-85288537D01*
X136088820Y-85347502D01*
X136208518Y-85383812D01*
X136226780Y-85385611D01*
X136135512Y-85460512D01*
X136056810Y-85556411D01*
X135998329Y-85665821D01*
X135962317Y-85784538D01*
X135950157Y-85907999D01*
X135950157Y-86489000D01*
X132840000Y-86489000D01*
X132840000Y-86177593D01*
X132869729Y-86165279D01*
X133054970Y-86041505D01*
X133212505Y-85883970D01*
X133336279Y-85698729D01*
X133421536Y-85492900D01*
X133465000Y-85274394D01*
X133465000Y-85051606D01*
X133421536Y-84833100D01*
X133336279Y-84627271D01*
X133212505Y-84442030D01*
X133054970Y-84284495D01*
X132869729Y-84160721D01*
X132663900Y-84075464D01*
X132445394Y-84032000D01*
X132222606Y-84032000D01*
X132004100Y-84075464D01*
X131798271Y-84160721D01*
X131613030Y-84284495D01*
X131455495Y-84442030D01*
X131331721Y-84627271D01*
X131246464Y-84833100D01*
X131203000Y-85051606D01*
X131203000Y-85274394D01*
X131246464Y-85492900D01*
X131331721Y-85698729D01*
X131455495Y-85883970D01*
X131613030Y-86041505D01*
X131798271Y-86165279D01*
X131828001Y-86177593D01*
X131828001Y-86489000D01*
X126671901Y-86489000D01*
X126668322Y-86482304D01*
X126620711Y-86424289D01*
X126562696Y-86376678D01*
X126531494Y-86360000D01*
X126562696Y-86343322D01*
X126620711Y-86295711D01*
X126668322Y-86237696D01*
X126703701Y-86171508D01*
X126725487Y-86099689D01*
X126732843Y-86025000D01*
X126732843Y-85725000D01*
X126746000Y-85725000D01*
X126770776Y-85722560D01*
X126794601Y-85715333D01*
X126816557Y-85703597D01*
X126835803Y-85687803D01*
X126851597Y-85668557D01*
X126863333Y-85646601D01*
X126870560Y-85622776D01*
X126873000Y-85598000D01*
X126873000Y-83608000D01*
X135694928Y-83608000D01*
X135698000Y-83897250D01*
X135856750Y-84056000D01*
X136906000Y-84056000D01*
X136906000Y-83131750D01*
X137160000Y-83131750D01*
X137160000Y-84056000D01*
X138209250Y-84056000D01*
X138368000Y-83897250D01*
X138371072Y-83608000D01*
X138358812Y-83483518D01*
X138322502Y-83363820D01*
X138263537Y-83253506D01*
X138184185Y-83156815D01*
X138087494Y-83077463D01*
X137977180Y-83018498D01*
X137857482Y-82982188D01*
X137733000Y-82969928D01*
X137318750Y-82973000D01*
X137160000Y-83131750D01*
X136906000Y-83131750D01*
X136747250Y-82973000D01*
X136333000Y-82969928D01*
X136208518Y-82982188D01*
X136088820Y-83018498D01*
X135978506Y-83077463D01*
X135881815Y-83156815D01*
X135802463Y-83253506D01*
X135743498Y-83363820D01*
X135707188Y-83483518D01*
X135694928Y-83608000D01*
X126873000Y-83608000D01*
X126873000Y-81153000D01*
X139498001Y-81153000D01*
X139498000Y-94107000D01*
G37*
G04 #@! TD.AperFunction*
D20*
X123967157Y-85947749D02*
X123967157Y-86025000D01*
X123974513Y-86099689D01*
X123996299Y-86171508D01*
X124031678Y-86237696D01*
X124079289Y-86295711D01*
X124137304Y-86343322D01*
X124168506Y-86360000D01*
X124137304Y-86376678D01*
X124079289Y-86424289D01*
X124031678Y-86482304D01*
X123996299Y-86548492D01*
X123974513Y-86620311D01*
X123967157Y-86695000D01*
X123967157Y-87295000D01*
X123974513Y-87369689D01*
X123996299Y-87441508D01*
X124031678Y-87507696D01*
X124079289Y-87565711D01*
X124137304Y-87613322D01*
X124168506Y-87630000D01*
X124137304Y-87646678D01*
X124079289Y-87694289D01*
X124031678Y-87752304D01*
X123996299Y-87818492D01*
X123974513Y-87890311D01*
X123967157Y-87965000D01*
X123967157Y-88565000D01*
X123974513Y-88639689D01*
X123994430Y-88705346D01*
X123898815Y-88783815D01*
X123819463Y-88880506D01*
X123760498Y-88990820D01*
X123724188Y-89110518D01*
X123711928Y-89235000D01*
X123715000Y-89249250D01*
X123873748Y-89407998D01*
X123715000Y-89407998D01*
X123715000Y-89535000D01*
X122301000Y-89535000D01*
X122301000Y-85797282D01*
X122373282Y-85725000D01*
X123744409Y-85725000D01*
X123967157Y-85947749D01*
G04 #@! TA.AperFunction,Conductor*
D21*
G36*
X123967157Y-85947749D02*
G01*
X123967157Y-86025000D01*
X123974513Y-86099689D01*
X123996299Y-86171508D01*
X124031678Y-86237696D01*
X124079289Y-86295711D01*
X124137304Y-86343322D01*
X124168506Y-86360000D01*
X124137304Y-86376678D01*
X124079289Y-86424289D01*
X124031678Y-86482304D01*
X123996299Y-86548492D01*
X123974513Y-86620311D01*
X123967157Y-86695000D01*
X123967157Y-87295000D01*
X123974513Y-87369689D01*
X123996299Y-87441508D01*
X124031678Y-87507696D01*
X124079289Y-87565711D01*
X124137304Y-87613322D01*
X124168506Y-87630000D01*
X124137304Y-87646678D01*
X124079289Y-87694289D01*
X124031678Y-87752304D01*
X123996299Y-87818492D01*
X123974513Y-87890311D01*
X123967157Y-87965000D01*
X123967157Y-88565000D01*
X123974513Y-88639689D01*
X123994430Y-88705346D01*
X123898815Y-88783815D01*
X123819463Y-88880506D01*
X123760498Y-88990820D01*
X123724188Y-89110518D01*
X123711928Y-89235000D01*
X123715000Y-89249250D01*
X123873748Y-89407998D01*
X123715000Y-89407998D01*
X123715000Y-89535000D01*
X122301000Y-89535000D01*
X122301000Y-85797282D01*
X122373282Y-85725000D01*
X123744409Y-85725000D01*
X123967157Y-85947749D01*
G37*
G04 #@! TD.AperFunction*
D20*
X134115246Y-65544456D02*
X133616456Y-66043246D01*
X133224559Y-66629760D01*
X132954616Y-67281461D01*
X132817000Y-67973302D01*
X132817000Y-68678698D01*
X132954616Y-69370539D01*
X133224559Y-70022240D01*
X133616456Y-70608754D01*
X134115246Y-71107544D01*
X134701760Y-71499441D01*
X135353461Y-71769384D01*
X136045302Y-71907000D01*
X136750698Y-71907000D01*
X137442539Y-71769384D01*
X138094240Y-71499441D01*
X138680754Y-71107544D01*
X139179544Y-70608754D01*
X139498001Y-70132151D01*
X139498001Y-80645000D01*
X126746000Y-80645000D01*
X126671671Y-80652321D01*
X126600198Y-80674002D01*
X126534328Y-80709210D01*
X126476592Y-80756592D01*
X126429210Y-80814328D01*
X126394002Y-80880198D01*
X126372321Y-80951671D01*
X126365000Y-81026000D01*
X126365000Y-81233634D01*
X126350000Y-81232157D01*
X125856000Y-81232157D01*
X125856000Y-79851591D01*
X126323833Y-79383758D01*
X126400931Y-79415693D01*
X126638757Y-79463000D01*
X126881243Y-79463000D01*
X127119069Y-79415693D01*
X127343097Y-79322898D01*
X127544717Y-79188180D01*
X127716180Y-79016717D01*
X127850898Y-78815097D01*
X127943693Y-78591069D01*
X127991000Y-78353243D01*
X127991000Y-78110757D01*
X128029000Y-78110757D01*
X128029000Y-78353243D01*
X128076307Y-78591069D01*
X128169102Y-78815097D01*
X128303820Y-79016717D01*
X128475283Y-79188180D01*
X128676903Y-79322898D01*
X128900931Y-79415693D01*
X129138757Y-79463000D01*
X129381243Y-79463000D01*
X129619069Y-79415693D01*
X129843097Y-79322898D01*
X130044717Y-79188180D01*
X130216180Y-79016717D01*
X130350898Y-78815097D01*
X130443693Y-78591069D01*
X130491000Y-78353243D01*
X130491000Y-78110757D01*
X130443693Y-77872931D01*
X130350898Y-77648903D01*
X130216180Y-77447283D01*
X130044717Y-77275820D01*
X129843097Y-77141102D01*
X129619069Y-77048307D01*
X129381243Y-77001000D01*
X129138757Y-77001000D01*
X128900931Y-77048307D01*
X128676903Y-77141102D01*
X128475283Y-77275820D01*
X128303820Y-77447283D01*
X128169102Y-77648903D01*
X128076307Y-77872931D01*
X128029000Y-78110757D01*
X127991000Y-78110757D01*
X127943693Y-77872931D01*
X127850898Y-77648903D01*
X127716180Y-77447283D01*
X127544717Y-77275820D01*
X127343097Y-77141102D01*
X127119069Y-77048307D01*
X126881243Y-77001000D01*
X126638757Y-77001000D01*
X126400931Y-77048307D01*
X126176903Y-77141102D01*
X126090999Y-77198501D01*
X126090999Y-77116592D01*
X126323833Y-76883758D01*
X126400931Y-76915693D01*
X126638757Y-76963000D01*
X126881243Y-76963000D01*
X127119069Y-76915693D01*
X127343097Y-76822898D01*
X127544717Y-76688180D01*
X127716180Y-76516717D01*
X127850898Y-76315097D01*
X127943693Y-76091069D01*
X127991000Y-75853243D01*
X127991000Y-75610757D01*
X128029000Y-75610757D01*
X128029000Y-75853243D01*
X128076307Y-76091069D01*
X128169102Y-76315097D01*
X128303820Y-76516717D01*
X128475283Y-76688180D01*
X128676903Y-76822898D01*
X128900931Y-76915693D01*
X129138757Y-76963000D01*
X129381243Y-76963000D01*
X129619069Y-76915693D01*
X129843097Y-76822898D01*
X130044717Y-76688180D01*
X130216180Y-76516717D01*
X130350898Y-76315097D01*
X130443693Y-76091069D01*
X130491000Y-75853243D01*
X130491000Y-75610757D01*
X130443693Y-75372931D01*
X130350898Y-75148903D01*
X130216180Y-74947283D01*
X130044717Y-74775820D01*
X129843097Y-74641102D01*
X129619069Y-74548307D01*
X129381243Y-74501000D01*
X129138757Y-74501000D01*
X128900931Y-74548307D01*
X128676903Y-74641102D01*
X128475283Y-74775820D01*
X128303820Y-74947283D01*
X128169102Y-75148903D01*
X128076307Y-75372931D01*
X128029000Y-75610757D01*
X127991000Y-75610757D01*
X127943693Y-75372931D01*
X127850898Y-75148903D01*
X127716180Y-74947283D01*
X127544717Y-74775820D01*
X127343097Y-74641102D01*
X127119069Y-74548307D01*
X126881243Y-74501000D01*
X126638757Y-74501000D01*
X126400931Y-74548307D01*
X126176903Y-74641102D01*
X125975283Y-74775820D01*
X125803820Y-74947283D01*
X125669102Y-75148903D01*
X125576307Y-75372931D01*
X125529000Y-75610757D01*
X125529000Y-75853243D01*
X125576307Y-76091069D01*
X125608242Y-76168167D01*
X125244780Y-76531629D01*
X125225473Y-76547474D01*
X125162241Y-76624522D01*
X125148707Y-76649843D01*
X125115254Y-76712427D01*
X125086321Y-76807809D01*
X125076552Y-76907001D01*
X125079000Y-76931857D01*
X125079000Y-77310103D01*
X125044717Y-77275820D01*
X124843097Y-77141102D01*
X124619069Y-77048307D01*
X124381243Y-77001000D01*
X124138757Y-77001000D01*
X123900931Y-77048307D01*
X123676903Y-77141102D01*
X123590999Y-77198501D01*
X123590999Y-77116592D01*
X123823833Y-76883758D01*
X123900931Y-76915693D01*
X124138757Y-76963000D01*
X124381243Y-76963000D01*
X124619069Y-76915693D01*
X124843097Y-76822898D01*
X125044717Y-76688180D01*
X125216180Y-76516717D01*
X125350898Y-76315097D01*
X125443693Y-76091069D01*
X125491000Y-75853243D01*
X125491000Y-75610757D01*
X125443693Y-75372931D01*
X125350898Y-75148903D01*
X125216180Y-74947283D01*
X125044717Y-74775820D01*
X124843097Y-74641102D01*
X124619069Y-74548307D01*
X124381243Y-74501000D01*
X124138757Y-74501000D01*
X123900931Y-74548307D01*
X123676903Y-74641102D01*
X123475283Y-74775820D01*
X123303820Y-74947283D01*
X123169102Y-75148903D01*
X123076307Y-75372931D01*
X123029000Y-75610757D01*
X123029000Y-75853243D01*
X123076307Y-76091069D01*
X123108242Y-76168167D01*
X122744780Y-76531629D01*
X122725473Y-76547474D01*
X122662241Y-76624522D01*
X122648707Y-76649843D01*
X122615254Y-76712427D01*
X122586321Y-76807809D01*
X122576552Y-76907001D01*
X122579000Y-76931857D01*
X122579000Y-77310103D01*
X122544717Y-77275820D01*
X122343097Y-77141102D01*
X122119069Y-77048307D01*
X121881243Y-77001000D01*
X121638757Y-77001000D01*
X121400931Y-77048307D01*
X121176903Y-77141102D01*
X121090999Y-77198501D01*
X121090999Y-77116592D01*
X121323833Y-76883758D01*
X121400931Y-76915693D01*
X121638757Y-76963000D01*
X121881243Y-76963000D01*
X122119069Y-76915693D01*
X122343097Y-76822898D01*
X122544717Y-76688180D01*
X122716180Y-76516717D01*
X122850898Y-76315097D01*
X122943693Y-76091069D01*
X122991000Y-75853243D01*
X122991000Y-75610757D01*
X122943693Y-75372931D01*
X122850898Y-75148903D01*
X122716180Y-74947283D01*
X122544717Y-74775820D01*
X122343097Y-74641102D01*
X122119069Y-74548307D01*
X121881243Y-74501000D01*
X121638757Y-74501000D01*
X121400931Y-74548307D01*
X121176903Y-74641102D01*
X120975283Y-74775820D01*
X120803820Y-74947283D01*
X120669102Y-75148903D01*
X120576307Y-75372931D01*
X120529000Y-75610757D01*
X120529000Y-75853243D01*
X120576307Y-76091069D01*
X120608242Y-76168167D01*
X120244780Y-76531629D01*
X120225473Y-76547474D01*
X120162241Y-76624522D01*
X120148707Y-76649843D01*
X120115254Y-76712427D01*
X120086321Y-76807809D01*
X120076552Y-76907001D01*
X120079000Y-76931857D01*
X120079000Y-77310103D01*
X120044717Y-77275820D01*
X119843097Y-77141102D01*
X119619069Y-77048307D01*
X119381243Y-77001000D01*
X119138757Y-77001000D01*
X118900931Y-77048307D01*
X118676903Y-77141102D01*
X118475283Y-77275820D01*
X118441001Y-77310102D01*
X118441001Y-77266590D01*
X118785371Y-76922221D01*
X118785375Y-76922216D01*
X118823833Y-76883758D01*
X118900931Y-76915693D01*
X119138757Y-76963000D01*
X119381243Y-76963000D01*
X119619069Y-76915693D01*
X119843097Y-76822898D01*
X120044717Y-76688180D01*
X120216180Y-76516717D01*
X120350898Y-76315097D01*
X120443693Y-76091069D01*
X120491000Y-75853243D01*
X120491000Y-75610757D01*
X120443693Y-75372931D01*
X120350898Y-75148903D01*
X120216180Y-74947283D01*
X120044717Y-74775820D01*
X119843097Y-74641102D01*
X119619069Y-74548307D01*
X119381243Y-74501000D01*
X119138757Y-74501000D01*
X118900931Y-74548307D01*
X118676903Y-74641102D01*
X118475283Y-74775820D01*
X118303820Y-74947283D01*
X118169102Y-75148903D01*
X118076307Y-75372931D01*
X118029000Y-75610757D01*
X118029000Y-75853243D01*
X118076307Y-76091069D01*
X118108242Y-76168167D01*
X118069784Y-76206625D01*
X118069779Y-76206629D01*
X117594781Y-76681628D01*
X117575475Y-76697472D01*
X117512243Y-76774520D01*
X117494450Y-76807808D01*
X117465256Y-76862425D01*
X117436323Y-76957807D01*
X117426554Y-77056999D01*
X117429002Y-77081855D01*
X117429002Y-77198502D01*
X117343097Y-77141102D01*
X117119069Y-77048307D01*
X116881243Y-77001000D01*
X116638757Y-77001000D01*
X116400931Y-77048307D01*
X116176903Y-77141102D01*
X116090999Y-77198501D01*
X116090999Y-77116592D01*
X116323833Y-76883758D01*
X116400931Y-76915693D01*
X116638757Y-76963000D01*
X116881243Y-76963000D01*
X117119069Y-76915693D01*
X117343097Y-76822898D01*
X117544717Y-76688180D01*
X117716180Y-76516717D01*
X117850898Y-76315097D01*
X117943693Y-76091069D01*
X117991000Y-75853243D01*
X117991000Y-75610757D01*
X117943693Y-75372931D01*
X117850898Y-75148903D01*
X117716180Y-74947283D01*
X117544717Y-74775820D01*
X117343097Y-74641102D01*
X117119069Y-74548307D01*
X116881243Y-74501000D01*
X116638757Y-74501000D01*
X116400931Y-74548307D01*
X116176903Y-74641102D01*
X115975283Y-74775820D01*
X115803820Y-74947283D01*
X115669102Y-75148903D01*
X115576307Y-75372931D01*
X115529000Y-75610757D01*
X115529000Y-75853243D01*
X115576307Y-76091069D01*
X115608242Y-76168167D01*
X115244780Y-76531629D01*
X115225473Y-76547474D01*
X115162241Y-76624522D01*
X115148707Y-76649843D01*
X115115254Y-76712427D01*
X115086321Y-76807809D01*
X115076552Y-76907001D01*
X115079000Y-76931857D01*
X115079000Y-77310103D01*
X115044717Y-77275820D01*
X114843097Y-77141102D01*
X114619069Y-77048307D01*
X114381243Y-77001000D01*
X114138757Y-77001000D01*
X113900931Y-77048307D01*
X113676903Y-77141102D01*
X113590999Y-77198501D01*
X113590999Y-77116592D01*
X113823833Y-76883758D01*
X113900931Y-76915693D01*
X114138757Y-76963000D01*
X114381243Y-76963000D01*
X114619069Y-76915693D01*
X114843097Y-76822898D01*
X115044717Y-76688180D01*
X115216180Y-76516717D01*
X115350898Y-76315097D01*
X115443693Y-76091069D01*
X115491000Y-75853243D01*
X115491000Y-75610757D01*
X115443693Y-75372931D01*
X115350898Y-75148903D01*
X115216180Y-74947283D01*
X115044717Y-74775820D01*
X114843097Y-74641102D01*
X114619069Y-74548307D01*
X114381243Y-74501000D01*
X114138757Y-74501000D01*
X113900931Y-74548307D01*
X113676903Y-74641102D01*
X113475283Y-74775820D01*
X113303820Y-74947283D01*
X113169102Y-75148903D01*
X113076307Y-75372931D01*
X113029000Y-75610757D01*
X113029000Y-75853243D01*
X113076307Y-76091069D01*
X113108242Y-76168167D01*
X112744780Y-76531629D01*
X112725473Y-76547474D01*
X112662241Y-76624522D01*
X112648707Y-76649843D01*
X112615254Y-76712427D01*
X112605691Y-76743951D01*
X112460062Y-76744744D01*
X112544717Y-76688180D01*
X112716180Y-76516717D01*
X112850898Y-76315097D01*
X112943693Y-76091069D01*
X112991000Y-75853243D01*
X112991000Y-75610757D01*
X112943693Y-75372931D01*
X112850898Y-75148903D01*
X112716180Y-74947283D01*
X112544717Y-74775820D01*
X112343097Y-74641102D01*
X112119069Y-74548307D01*
X111881243Y-74501000D01*
X111638757Y-74501000D01*
X111400931Y-74548307D01*
X111176903Y-74641102D01*
X110975283Y-74775820D01*
X110803820Y-74947283D01*
X110669102Y-75148903D01*
X110576307Y-75372931D01*
X110529000Y-75610757D01*
X110529000Y-75853243D01*
X110576307Y-76091069D01*
X110669102Y-76315097D01*
X110803820Y-76516717D01*
X110975283Y-76688180D01*
X111059938Y-76744744D01*
X110910000Y-76743928D01*
X110785518Y-76756188D01*
X110665820Y-76792498D01*
X110555506Y-76851463D01*
X110458815Y-76930815D01*
X110379463Y-77027506D01*
X110320498Y-77137820D01*
X110284188Y-77257518D01*
X110271928Y-77382000D01*
X110275000Y-77946250D01*
X110433750Y-78105000D01*
X111633000Y-78105000D01*
X111633000Y-78085000D01*
X111887000Y-78085000D01*
X111887000Y-78105000D01*
X111907000Y-78105000D01*
X111907000Y-78359000D01*
X111887000Y-78359000D01*
X111887000Y-79558250D01*
X112045750Y-79717000D01*
X112578999Y-79719903D01*
X112578999Y-80275153D01*
X112576552Y-80299999D01*
X112578999Y-80324845D01*
X112578999Y-80324852D01*
X112586321Y-80399191D01*
X112615254Y-80494573D01*
X112662240Y-80582478D01*
X112725472Y-80659526D01*
X112744784Y-80675375D01*
X114324628Y-82255220D01*
X114340473Y-82274527D01*
X114417521Y-82337759D01*
X114505425Y-82384745D01*
X114578607Y-82406944D01*
X114600806Y-82413678D01*
X114610694Y-82414652D01*
X114625484Y-82416109D01*
X114631678Y-82427696D01*
X114679289Y-82485711D01*
X114737304Y-82533322D01*
X114768506Y-82550000D01*
X114737304Y-82566678D01*
X114679289Y-82614289D01*
X114631678Y-82672304D01*
X114596299Y-82738492D01*
X114574513Y-82810311D01*
X114567157Y-82885000D01*
X114567157Y-83485000D01*
X114574513Y-83559689D01*
X114596299Y-83631508D01*
X114631678Y-83697696D01*
X114679289Y-83755711D01*
X114737304Y-83803322D01*
X114768506Y-83820000D01*
X114737304Y-83836678D01*
X114679289Y-83884289D01*
X114631678Y-83942304D01*
X114596299Y-84008492D01*
X114574513Y-84080311D01*
X114567157Y-84155000D01*
X114567157Y-84506656D01*
X114543859Y-84483358D01*
X114415942Y-84397887D01*
X114273809Y-84339013D01*
X114122922Y-84309000D01*
X113969078Y-84309000D01*
X113818191Y-84339013D01*
X113676058Y-84397887D01*
X113548141Y-84483358D01*
X113439358Y-84592141D01*
X113353887Y-84720058D01*
X113295013Y-84862191D01*
X113265000Y-85013078D01*
X113265000Y-85166922D01*
X113273585Y-85210082D01*
X113214179Y-85178329D01*
X113095462Y-85142317D01*
X112972001Y-85130157D01*
X112071999Y-85130157D01*
X111948538Y-85142317D01*
X111829821Y-85178329D01*
X111720411Y-85236810D01*
X111624512Y-85315512D01*
X111545810Y-85411411D01*
X111487329Y-85520821D01*
X111451317Y-85639538D01*
X111439157Y-85762999D01*
X111439157Y-86413001D01*
X111451317Y-86536462D01*
X111487329Y-86655179D01*
X111545810Y-86764589D01*
X111624512Y-86860488D01*
X111715780Y-86935389D01*
X111697518Y-86937188D01*
X111577820Y-86973498D01*
X111467506Y-87032463D01*
X111370815Y-87111815D01*
X111291463Y-87208506D01*
X111232498Y-87318820D01*
X111196188Y-87438518D01*
X111183928Y-87563000D01*
X111187000Y-87852250D01*
X111345750Y-88011000D01*
X112395000Y-88011000D01*
X112395000Y-87991000D01*
X112649000Y-87991000D01*
X112649000Y-88011000D01*
X113698250Y-88011000D01*
X113857000Y-87852250D01*
X113860072Y-87563000D01*
X113847812Y-87438518D01*
X113811502Y-87318820D01*
X113752537Y-87208506D01*
X113673185Y-87111815D01*
X113576494Y-87032463D01*
X113466180Y-86973498D01*
X113346482Y-86937188D01*
X113328220Y-86935389D01*
X113419488Y-86860488D01*
X113498190Y-86764589D01*
X113556671Y-86655179D01*
X113575229Y-86594000D01*
X114133409Y-86594000D01*
X114567157Y-87027749D01*
X114567157Y-87295000D01*
X114574513Y-87369689D01*
X114594430Y-87435346D01*
X114498815Y-87513815D01*
X114419463Y-87610506D01*
X114360498Y-87720820D01*
X114324188Y-87840518D01*
X114311928Y-87965000D01*
X114315000Y-87979250D01*
X114473750Y-88138000D01*
X115823000Y-88138000D01*
X115823000Y-88118000D01*
X116077000Y-88118000D01*
X116077000Y-88138000D01*
X116097000Y-88138000D01*
X116097000Y-88392000D01*
X116077000Y-88392000D01*
X116077000Y-88412000D01*
X115823000Y-88412000D01*
X115823000Y-88392000D01*
X114473750Y-88392000D01*
X114315000Y-88550750D01*
X114311928Y-88565000D01*
X114324188Y-88689482D01*
X114360498Y-88809180D01*
X114419463Y-88919494D01*
X114498815Y-89016185D01*
X114594430Y-89094654D01*
X114574513Y-89160311D01*
X114567157Y-89235000D01*
X114567157Y-89613526D01*
X114531747Y-89578116D01*
X114406942Y-89494724D01*
X114268267Y-89437283D01*
X114121050Y-89408000D01*
X113970950Y-89408000D01*
X113823733Y-89437283D01*
X113685058Y-89494724D01*
X113560253Y-89578116D01*
X113454116Y-89684253D01*
X113370724Y-89809058D01*
X113313283Y-89947733D01*
X113284000Y-90094950D01*
X113284000Y-90170000D01*
X113208950Y-90170000D01*
X113061733Y-90199283D01*
X112923058Y-90256724D01*
X112798253Y-90340116D01*
X112692116Y-90446253D01*
X112608724Y-90571058D01*
X112551283Y-90709733D01*
X112522000Y-90856950D01*
X112522000Y-91007050D01*
X112551283Y-91154267D01*
X112608724Y-91292942D01*
X112692116Y-91417747D01*
X112798253Y-91523884D01*
X112801400Y-91525987D01*
X112801401Y-96435285D01*
X112801267Y-96436649D01*
X111764604Y-95399987D01*
X111629810Y-95265193D01*
X111629810Y-92758464D01*
X111632145Y-92734759D01*
X111629810Y-92711053D01*
X111622827Y-92640154D01*
X111595232Y-92549183D01*
X111550419Y-92465345D01*
X111490111Y-92391859D01*
X111471692Y-92376743D01*
X109597810Y-90502862D01*
X109597810Y-88713000D01*
X111183928Y-88713000D01*
X111196188Y-88837482D01*
X111232498Y-88957180D01*
X111291463Y-89067494D01*
X111370815Y-89164185D01*
X111467506Y-89243537D01*
X111577820Y-89302502D01*
X111697518Y-89338812D01*
X111822000Y-89351072D01*
X112236250Y-89348000D01*
X112395000Y-89189250D01*
X112395000Y-88265000D01*
X112649000Y-88265000D01*
X112649000Y-89189250D01*
X112807750Y-89348000D01*
X113222000Y-89351072D01*
X113346482Y-89338812D01*
X113466180Y-89302502D01*
X113576494Y-89243537D01*
X113673185Y-89164185D01*
X113752537Y-89067494D01*
X113811502Y-88957180D01*
X113847812Y-88837482D01*
X113860072Y-88713000D01*
X113857000Y-88423750D01*
X113698250Y-88265000D01*
X112649000Y-88265000D01*
X112395000Y-88265000D01*
X111345750Y-88265000D01*
X111187000Y-88423750D01*
X111183928Y-88713000D01*
X109597810Y-88713000D01*
X109597810Y-80166316D01*
X109600145Y-80142611D01*
X109596619Y-80106811D01*
X109590827Y-80048006D01*
X109563232Y-79957035D01*
X109518419Y-79873197D01*
X109491466Y-79840355D01*
X109473223Y-79818125D01*
X109473222Y-79818124D01*
X109458111Y-79799711D01*
X109439698Y-79784600D01*
X108737098Y-79082000D01*
X110271928Y-79082000D01*
X110284188Y-79206482D01*
X110320498Y-79326180D01*
X110379463Y-79436494D01*
X110458815Y-79533185D01*
X110555506Y-79612537D01*
X110665820Y-79671502D01*
X110785518Y-79707812D01*
X110910000Y-79720072D01*
X111474250Y-79717000D01*
X111633000Y-79558250D01*
X111633000Y-78359000D01*
X110433750Y-78359000D01*
X110275000Y-78517750D01*
X110271928Y-79082000D01*
X108737098Y-79082000D01*
X107034174Y-77379076D01*
X107061000Y-77352250D01*
X107061000Y-76290500D01*
X107315000Y-76290500D01*
X107315000Y-77352250D01*
X107473750Y-77511000D01*
X108063000Y-77514072D01*
X108187482Y-77501812D01*
X108307180Y-77465502D01*
X108417494Y-77406537D01*
X108514185Y-77327185D01*
X108593537Y-77230494D01*
X108652502Y-77120180D01*
X108688812Y-77000482D01*
X108701072Y-76876000D01*
X108698000Y-76449250D01*
X108539250Y-76290500D01*
X107315000Y-76290500D01*
X107061000Y-76290500D01*
X105836750Y-76290500D01*
X105678000Y-76449250D01*
X105676231Y-76695010D01*
X105317510Y-76695010D01*
X104708088Y-76085588D01*
X104714843Y-76017001D01*
X104714843Y-75451000D01*
X105674928Y-75451000D01*
X105678000Y-75877750D01*
X105836750Y-76036500D01*
X107061000Y-76036500D01*
X107061000Y-74974750D01*
X107315000Y-74974750D01*
X107315000Y-76036500D01*
X108539250Y-76036500D01*
X108698000Y-75877750D01*
X108701072Y-75451000D01*
X108688812Y-75326518D01*
X108652502Y-75206820D01*
X108593537Y-75096506D01*
X108514185Y-74999815D01*
X108417494Y-74920463D01*
X108307180Y-74861498D01*
X108187482Y-74825188D01*
X108063000Y-74812928D01*
X107473750Y-74816000D01*
X107315000Y-74974750D01*
X107061000Y-74974750D01*
X106902250Y-74816000D01*
X106313000Y-74812928D01*
X106188518Y-74825188D01*
X106068820Y-74861498D01*
X105958506Y-74920463D01*
X105861815Y-74999815D01*
X105782463Y-75096506D01*
X105723498Y-75206820D01*
X105687188Y-75326518D01*
X105674928Y-75451000D01*
X104714843Y-75451000D01*
X104714843Y-75366999D01*
X104702683Y-75243538D01*
X104666671Y-75124821D01*
X104608190Y-75015411D01*
X104529488Y-74919512D01*
X104433589Y-74840810D01*
X104324179Y-74782329D01*
X104205462Y-74746317D01*
X104082001Y-74734157D01*
X103181999Y-74734157D01*
X103058538Y-74746317D01*
X102939821Y-74782329D01*
X102830411Y-74840810D01*
X102734512Y-74919512D01*
X102655810Y-75015411D01*
X102597329Y-75124821D01*
X102561317Y-75243538D01*
X102549157Y-75366999D01*
X102549157Y-76017001D01*
X102561317Y-76140462D01*
X102597329Y-76259179D01*
X102655810Y-76368589D01*
X102734512Y-76464488D01*
X102830411Y-76543190D01*
X102939821Y-76601671D01*
X103058538Y-76637683D01*
X103181999Y-76649843D01*
X103907344Y-76649843D01*
X104759596Y-77502096D01*
X104774709Y-77520511D01*
X104848195Y-77580819D01*
X104932033Y-77625632D01*
X105023003Y-77653227D01*
X105117610Y-77662545D01*
X105141317Y-77660210D01*
X105950309Y-77660210D01*
X107277756Y-78987657D01*
X106563000Y-78987657D01*
X106439538Y-78999817D01*
X106320821Y-79035829D01*
X106211411Y-79094310D01*
X106115512Y-79173012D01*
X106036810Y-79268911D01*
X105978329Y-79378321D01*
X105942317Y-79497038D01*
X105932137Y-79600400D01*
X105614707Y-79600400D01*
X105591000Y-79598065D01*
X105496393Y-79607383D01*
X105447656Y-79622167D01*
X105405423Y-79634978D01*
X105321585Y-79679791D01*
X105321583Y-79679792D01*
X105321584Y-79679792D01*
X105288035Y-79707325D01*
X105248099Y-79740099D01*
X105232987Y-79758513D01*
X104956101Y-80035400D01*
X104692327Y-80035400D01*
X104666671Y-79950821D01*
X104608190Y-79841411D01*
X104529488Y-79745512D01*
X104433589Y-79666810D01*
X104324179Y-79608329D01*
X104205462Y-79572317D01*
X104082001Y-79560157D01*
X103181999Y-79560157D01*
X103058538Y-79572317D01*
X102939821Y-79608329D01*
X102830411Y-79666810D01*
X102734512Y-79745512D01*
X102655810Y-79841411D01*
X102597329Y-79950821D01*
X102561317Y-80069538D01*
X102549157Y-80192999D01*
X102549157Y-80843001D01*
X102561317Y-80966462D01*
X102597329Y-81085179D01*
X102655810Y-81194589D01*
X102734512Y-81290488D01*
X102830411Y-81369190D01*
X102939821Y-81427671D01*
X103058538Y-81463683D01*
X103181999Y-81475843D01*
X104082001Y-81475843D01*
X104205462Y-81463683D01*
X104324179Y-81427671D01*
X104433589Y-81369190D01*
X104529488Y-81290488D01*
X104608190Y-81194589D01*
X104666671Y-81085179D01*
X104692327Y-81000600D01*
X105132295Y-81000600D01*
X105156000Y-81002935D01*
X105179705Y-81000600D01*
X105179707Y-81000600D01*
X105250606Y-80993617D01*
X105341577Y-80966022D01*
X105425415Y-80921209D01*
X105498901Y-80860901D01*
X105514017Y-80842482D01*
X105790900Y-80565600D01*
X105932137Y-80565600D01*
X105942317Y-80668962D01*
X105978329Y-80787679D01*
X106036810Y-80897089D01*
X106115512Y-80992988D01*
X106211411Y-81071690D01*
X106320821Y-81130171D01*
X106439538Y-81166183D01*
X106563000Y-81178343D01*
X107813000Y-81178343D01*
X107936462Y-81166183D01*
X108055179Y-81130171D01*
X108164589Y-81071690D01*
X108260488Y-80992988D01*
X108339190Y-80897089D01*
X108397671Y-80787679D01*
X108433683Y-80668962D01*
X108445843Y-80545500D01*
X108445843Y-80155745D01*
X108632610Y-80342512D01*
X108632610Y-82064106D01*
X108593537Y-81991006D01*
X108514185Y-81894315D01*
X108417494Y-81814963D01*
X108307180Y-81755998D01*
X108187482Y-81719688D01*
X108063000Y-81707428D01*
X107473750Y-81710500D01*
X107315000Y-81869250D01*
X107315000Y-82931000D01*
X107335000Y-82931000D01*
X107335000Y-83185000D01*
X107315000Y-83185000D01*
X107315000Y-84246750D01*
X107473750Y-84405500D01*
X108063000Y-84408572D01*
X108187482Y-84396312D01*
X108307180Y-84360002D01*
X108417494Y-84301037D01*
X108514185Y-84221685D01*
X108593537Y-84124994D01*
X108632610Y-84051894D01*
X108632611Y-86053014D01*
X106943674Y-84364077D01*
X107061000Y-84246750D01*
X107061000Y-83185000D01*
X105836750Y-83185000D01*
X105800674Y-83221077D01*
X104925097Y-82345500D01*
X105674928Y-82345500D01*
X105678000Y-82772250D01*
X105836750Y-82931000D01*
X107061000Y-82931000D01*
X107061000Y-81869250D01*
X106902250Y-81710500D01*
X106313000Y-81707428D01*
X106188518Y-81719688D01*
X106068820Y-81755998D01*
X105958506Y-81814963D01*
X105861815Y-81894315D01*
X105782463Y-81991006D01*
X105723498Y-82101320D01*
X105687188Y-82221018D01*
X105674928Y-82345500D01*
X104925097Y-82345500D01*
X104823115Y-82243518D01*
X104807999Y-82225099D01*
X104734513Y-82164791D01*
X104705619Y-82149347D01*
X104702683Y-82119538D01*
X104666671Y-82000821D01*
X104608190Y-81891411D01*
X104529488Y-81795512D01*
X104433589Y-81716810D01*
X104324179Y-81658329D01*
X104205462Y-81622317D01*
X104082001Y-81610157D01*
X103181999Y-81610157D01*
X103058538Y-81622317D01*
X102939821Y-81658329D01*
X102830411Y-81716810D01*
X102734512Y-81795512D01*
X102655810Y-81891411D01*
X102597329Y-82000821D01*
X102561317Y-82119538D01*
X102549157Y-82242999D01*
X102549157Y-82893001D01*
X102561317Y-83016462D01*
X102597329Y-83135179D01*
X102655810Y-83244589D01*
X102734512Y-83340488D01*
X102830411Y-83419190D01*
X102939821Y-83477671D01*
X103058538Y-83513683D01*
X103181999Y-83525843D01*
X104082001Y-83525843D01*
X104205462Y-83513683D01*
X104324179Y-83477671D01*
X104433589Y-83419190D01*
X104529488Y-83340488D01*
X104541027Y-83326428D01*
X107277756Y-86063157D01*
X106563000Y-86063157D01*
X106439538Y-86075317D01*
X106320821Y-86111329D01*
X106211411Y-86169810D01*
X106115512Y-86248512D01*
X106036810Y-86344411D01*
X105978329Y-86453821D01*
X105942317Y-86572538D01*
X105932137Y-86675900D01*
X105615207Y-86675900D01*
X105591500Y-86673565D01*
X105496893Y-86682883D01*
X105432787Y-86702329D01*
X105405923Y-86710478D01*
X105322085Y-86755291D01*
X105322083Y-86755292D01*
X105322084Y-86755292D01*
X105278336Y-86791195D01*
X105248599Y-86815599D01*
X105233487Y-86834013D01*
X104938101Y-87129400D01*
X104692327Y-87129400D01*
X104666671Y-87044821D01*
X104608190Y-86935411D01*
X104529488Y-86839512D01*
X104433589Y-86760810D01*
X104324179Y-86702329D01*
X104205462Y-86666317D01*
X104082001Y-86654157D01*
X103181999Y-86654157D01*
X103058538Y-86666317D01*
X102939821Y-86702329D01*
X102830411Y-86760810D01*
X102734512Y-86839512D01*
X102655810Y-86935411D01*
X102597329Y-87044821D01*
X102561317Y-87163538D01*
X102549157Y-87286999D01*
X102549157Y-87937001D01*
X102561317Y-88060462D01*
X102597329Y-88179179D01*
X102655810Y-88288589D01*
X102734512Y-88384488D01*
X102830411Y-88463190D01*
X102939821Y-88521671D01*
X103058538Y-88557683D01*
X103181999Y-88569843D01*
X104082001Y-88569843D01*
X104205462Y-88557683D01*
X104324179Y-88521671D01*
X104433589Y-88463190D01*
X104529488Y-88384488D01*
X104608190Y-88288589D01*
X104666671Y-88179179D01*
X104692327Y-88094600D01*
X105114295Y-88094600D01*
X105138000Y-88096935D01*
X105161705Y-88094600D01*
X105161707Y-88094600D01*
X105232606Y-88087617D01*
X105323577Y-88060022D01*
X105407415Y-88015209D01*
X105480901Y-87954901D01*
X105496017Y-87936482D01*
X105791400Y-87641100D01*
X105932137Y-87641100D01*
X105942317Y-87744462D01*
X105978329Y-87863179D01*
X106036810Y-87972589D01*
X106115512Y-88068488D01*
X106211411Y-88147190D01*
X106320821Y-88205671D01*
X106439538Y-88241683D01*
X106563000Y-88253843D01*
X107813000Y-88253843D01*
X107936462Y-88241683D01*
X108055179Y-88205671D01*
X108164589Y-88147190D01*
X108229400Y-88094001D01*
X108229400Y-88807904D01*
X108187482Y-88795188D01*
X108063000Y-88782928D01*
X107473750Y-88786000D01*
X107315000Y-88944750D01*
X107315000Y-90006500D01*
X107335000Y-90006500D01*
X107335000Y-90260500D01*
X107315000Y-90260500D01*
X107315000Y-90280500D01*
X107061000Y-90280500D01*
X107061000Y-90260500D01*
X105836750Y-90260500D01*
X105678000Y-90419250D01*
X105676231Y-90665010D01*
X105317510Y-90665010D01*
X104708088Y-90055588D01*
X104714843Y-89987001D01*
X104714843Y-89421000D01*
X105674928Y-89421000D01*
X105678000Y-89847750D01*
X105836750Y-90006500D01*
X107061000Y-90006500D01*
X107061000Y-88944750D01*
X106902250Y-88786000D01*
X106313000Y-88782928D01*
X106188518Y-88795188D01*
X106068820Y-88831498D01*
X105958506Y-88890463D01*
X105861815Y-88969815D01*
X105782463Y-89066506D01*
X105723498Y-89176820D01*
X105687188Y-89296518D01*
X105674928Y-89421000D01*
X104714843Y-89421000D01*
X104714843Y-89336999D01*
X104702683Y-89213538D01*
X104666671Y-89094821D01*
X104608190Y-88985411D01*
X104529488Y-88889512D01*
X104433589Y-88810810D01*
X104324179Y-88752329D01*
X104205462Y-88716317D01*
X104082001Y-88704157D01*
X103181999Y-88704157D01*
X103058538Y-88716317D01*
X102939821Y-88752329D01*
X102830411Y-88810810D01*
X102734512Y-88889512D01*
X102655810Y-88985411D01*
X102597329Y-89094821D01*
X102561317Y-89213538D01*
X102549157Y-89336999D01*
X102549157Y-89987001D01*
X102561317Y-90110462D01*
X102597329Y-90229179D01*
X102655810Y-90338589D01*
X102734512Y-90434488D01*
X102830411Y-90513190D01*
X102939821Y-90571671D01*
X103058538Y-90607683D01*
X103181999Y-90619843D01*
X103907344Y-90619843D01*
X104759596Y-91472096D01*
X104774709Y-91490511D01*
X104848195Y-91550819D01*
X104932033Y-91595632D01*
X105023003Y-91623227D01*
X105117610Y-91632545D01*
X105141317Y-91630210D01*
X108219711Y-91630210D01*
X109858190Y-93268690D01*
X109858191Y-95839075D01*
X109855855Y-95862790D01*
X109865174Y-95957396D01*
X109892768Y-96048366D01*
X109937582Y-96132205D01*
X109966530Y-96167478D01*
X109997890Y-96205691D01*
X110016303Y-96220802D01*
X113953009Y-100157509D01*
X113968120Y-100175922D01*
X114041606Y-100236230D01*
X114125444Y-100281043D01*
X114216414Y-100308638D01*
X114311021Y-100317956D01*
X114334728Y-100315621D01*
X117437724Y-100315621D01*
X117461429Y-100317956D01*
X117485134Y-100315621D01*
X117485136Y-100315621D01*
X117556035Y-100308638D01*
X117647006Y-100281043D01*
X117730844Y-100236230D01*
X117804330Y-100175922D01*
X117819446Y-100157503D01*
X118732907Y-99244042D01*
X118751321Y-99228931D01*
X118811629Y-99155445D01*
X118856442Y-99071607D01*
X118870094Y-99026601D01*
X118884037Y-98980637D01*
X118893355Y-98886030D01*
X118891020Y-98862323D01*
X118891020Y-96070243D01*
X121133664Y-93827600D01*
X122460383Y-93827600D01*
X122439013Y-93879191D01*
X122409000Y-94030078D01*
X122409000Y-94183922D01*
X122439013Y-94334809D01*
X122497887Y-94476942D01*
X122583358Y-94604859D01*
X122593499Y-94615000D01*
X122583358Y-94625141D01*
X122497887Y-94753058D01*
X122439013Y-94895191D01*
X122409000Y-95046078D01*
X122409000Y-95199922D01*
X122439013Y-95350809D01*
X122497887Y-95492942D01*
X122583358Y-95620859D01*
X122692141Y-95729642D01*
X122820058Y-95815113D01*
X122962191Y-95873987D01*
X123113078Y-95904000D01*
X123255408Y-95904000D01*
X123576628Y-96225220D01*
X123592473Y-96244527D01*
X123669521Y-96307759D01*
X123740990Y-96345960D01*
X123757425Y-96354745D01*
X123852807Y-96383678D01*
X123952000Y-96393448D01*
X123976854Y-96391000D01*
X124028099Y-96391000D01*
X124031678Y-96397696D01*
X124079289Y-96455711D01*
X124137304Y-96503322D01*
X124168506Y-96520000D01*
X124137304Y-96536678D01*
X124079289Y-96584289D01*
X124031678Y-96642304D01*
X123996299Y-96708492D01*
X123974513Y-96780311D01*
X123967157Y-96855000D01*
X123967157Y-97455000D01*
X123974513Y-97529689D01*
X123996299Y-97601508D01*
X124031678Y-97667696D01*
X124079289Y-97725711D01*
X124137304Y-97773322D01*
X124168506Y-97790000D01*
X124137304Y-97806678D01*
X124079289Y-97854289D01*
X124031678Y-97912304D01*
X123996299Y-97978492D01*
X123974513Y-98050311D01*
X123972633Y-98069400D01*
X120481987Y-98069400D01*
X120479884Y-98066253D01*
X120373747Y-97960116D01*
X120248942Y-97876724D01*
X120110267Y-97819283D01*
X119963050Y-97790000D01*
X119812950Y-97790000D01*
X119665733Y-97819283D01*
X119527058Y-97876724D01*
X119402253Y-97960116D01*
X119296116Y-98066253D01*
X119212724Y-98191058D01*
X119155283Y-98329733D01*
X119126000Y-98476950D01*
X119126000Y-98627050D01*
X119155283Y-98774267D01*
X119212724Y-98912942D01*
X119296116Y-99037747D01*
X119402253Y-99143884D01*
X119527058Y-99227276D01*
X119665733Y-99284717D01*
X119812950Y-99314000D01*
X119963050Y-99314000D01*
X120110267Y-99284717D01*
X120248942Y-99227276D01*
X120373747Y-99143884D01*
X120479884Y-99037747D01*
X120481987Y-99034600D01*
X124126676Y-99034600D01*
X124137304Y-99043322D01*
X124203492Y-99078701D01*
X124275311Y-99100487D01*
X124350000Y-99107843D01*
X126350000Y-99107843D01*
X126424689Y-99100487D01*
X126496508Y-99078701D01*
X126562696Y-99043322D01*
X126620711Y-98995711D01*
X126668322Y-98937696D01*
X126703701Y-98871508D01*
X126725487Y-98799689D01*
X126732843Y-98725000D01*
X126732843Y-98125000D01*
X126725487Y-98050311D01*
X126703701Y-97978492D01*
X126668322Y-97912304D01*
X126620711Y-97854289D01*
X126562696Y-97806678D01*
X126531494Y-97790000D01*
X126562696Y-97773322D01*
X126620711Y-97725711D01*
X126668322Y-97667696D01*
X126671901Y-97661000D01*
X127933409Y-97661000D01*
X128148628Y-97876220D01*
X128164473Y-97895527D01*
X128241521Y-97958759D01*
X128329425Y-98005745D01*
X128402607Y-98027944D01*
X128424806Y-98034678D01*
X128434694Y-98035652D01*
X128499146Y-98042000D01*
X128499153Y-98042000D01*
X128523999Y-98044447D01*
X128548845Y-98042000D01*
X130211499Y-98042000D01*
X130312141Y-98142642D01*
X130440058Y-98228113D01*
X130582191Y-98286987D01*
X130733078Y-98317000D01*
X130886922Y-98317000D01*
X131037809Y-98286987D01*
X131179942Y-98228113D01*
X131307859Y-98142642D01*
X131416642Y-98033859D01*
X131502113Y-97905942D01*
X131560987Y-97763809D01*
X131591000Y-97612922D01*
X131591000Y-97459078D01*
X131560987Y-97308191D01*
X131502113Y-97166058D01*
X131416642Y-97038141D01*
X131307859Y-96929358D01*
X131179942Y-96843887D01*
X131037809Y-96785013D01*
X130886922Y-96755000D01*
X130733078Y-96755000D01*
X130582191Y-96785013D01*
X130440058Y-96843887D01*
X130312141Y-96929358D01*
X130211499Y-97030000D01*
X128733592Y-97030000D01*
X128518376Y-96814785D01*
X128502527Y-96795473D01*
X128425479Y-96732241D01*
X128337575Y-96685255D01*
X128242193Y-96656322D01*
X128167854Y-96649000D01*
X128167846Y-96649000D01*
X128143000Y-96646553D01*
X128118154Y-96649000D01*
X126671901Y-96649000D01*
X126668322Y-96642304D01*
X126620711Y-96584289D01*
X126562696Y-96536678D01*
X126531494Y-96520000D01*
X126562696Y-96503322D01*
X126620711Y-96455711D01*
X126668322Y-96397696D01*
X126703701Y-96331508D01*
X126725487Y-96259689D01*
X126732843Y-96185000D01*
X126732843Y-95585000D01*
X126725487Y-95510311D01*
X126703701Y-95438492D01*
X126668322Y-95372304D01*
X126620711Y-95314289D01*
X126562696Y-95266678D01*
X126531494Y-95250000D01*
X126562696Y-95233322D01*
X126620711Y-95185711D01*
X126668322Y-95127696D01*
X126703701Y-95061508D01*
X126725487Y-94989689D01*
X126732843Y-94915000D01*
X126732843Y-94613704D01*
X126746000Y-94615000D01*
X139498000Y-94615000D01*
X139498000Y-102079848D01*
X139179544Y-101603246D01*
X138680754Y-101104456D01*
X138094240Y-100712559D01*
X137442539Y-100442616D01*
X136750698Y-100305000D01*
X136045302Y-100305000D01*
X135353461Y-100442616D01*
X134701760Y-100712559D01*
X134115246Y-101104456D01*
X133616456Y-101603246D01*
X133224559Y-102189760D01*
X132954616Y-102841461D01*
X132817000Y-103533302D01*
X132817000Y-104238698D01*
X132954616Y-104930539D01*
X133224559Y-105582240D01*
X133616456Y-106168754D01*
X134115246Y-106667544D01*
X134591848Y-106986000D01*
X106454152Y-106986000D01*
X106930754Y-106667544D01*
X107429544Y-106168754D01*
X107821441Y-105582240D01*
X108091384Y-104930539D01*
X108179781Y-104486134D01*
X113923000Y-104486134D01*
X113923000Y-104777866D01*
X113979914Y-105063992D01*
X114091555Y-105333517D01*
X114253632Y-105576083D01*
X114459917Y-105782368D01*
X114702483Y-105944445D01*
X114972008Y-106056086D01*
X115258134Y-106113000D01*
X115549866Y-106113000D01*
X115835992Y-106056086D01*
X116105517Y-105944445D01*
X116348083Y-105782368D01*
X116554368Y-105576083D01*
X116716445Y-105333517D01*
X116828086Y-105063992D01*
X116834449Y-105032000D01*
X117921157Y-105032000D01*
X117921157Y-106232000D01*
X117928513Y-106306689D01*
X117950299Y-106378508D01*
X117985678Y-106444696D01*
X118033289Y-106502711D01*
X118091304Y-106550322D01*
X118157492Y-106585701D01*
X118229311Y-106607487D01*
X118304000Y-106614843D01*
X119504000Y-106614843D01*
X119578689Y-106607487D01*
X119650508Y-106585701D01*
X119716696Y-106550322D01*
X119774711Y-106502711D01*
X119822322Y-106444696D01*
X119857701Y-106378508D01*
X119879487Y-106306689D01*
X119886843Y-106232000D01*
X119886843Y-105535380D01*
X119923000Y-105535380D01*
X119923000Y-105728620D01*
X119960699Y-105918147D01*
X120034649Y-106096678D01*
X120142007Y-106257351D01*
X120278649Y-106393993D01*
X120439322Y-106501351D01*
X120617853Y-106575301D01*
X120807380Y-106613000D01*
X121000620Y-106613000D01*
X121190147Y-106575301D01*
X121368678Y-106501351D01*
X121529351Y-106393993D01*
X121665993Y-106257351D01*
X121773351Y-106096678D01*
X121847301Y-105918147D01*
X121885000Y-105728620D01*
X121885000Y-105535380D01*
X121923000Y-105535380D01*
X121923000Y-105728620D01*
X121960699Y-105918147D01*
X122034649Y-106096678D01*
X122142007Y-106257351D01*
X122278649Y-106393993D01*
X122439322Y-106501351D01*
X122617853Y-106575301D01*
X122807380Y-106613000D01*
X123000620Y-106613000D01*
X123190147Y-106575301D01*
X123368678Y-106501351D01*
X123529351Y-106393993D01*
X123665993Y-106257351D01*
X123773351Y-106096678D01*
X123847301Y-105918147D01*
X123885000Y-105728620D01*
X123885000Y-105535380D01*
X123847301Y-105345853D01*
X123773351Y-105167322D01*
X123665993Y-105006649D01*
X123529351Y-104870007D01*
X123368678Y-104762649D01*
X123190147Y-104688699D01*
X123000620Y-104651000D01*
X122807380Y-104651000D01*
X122617853Y-104688699D01*
X122439322Y-104762649D01*
X122278649Y-104870007D01*
X122142007Y-105006649D01*
X122034649Y-105167322D01*
X121960699Y-105345853D01*
X121923000Y-105535380D01*
X121885000Y-105535380D01*
X121847301Y-105345853D01*
X121773351Y-105167322D01*
X121665993Y-105006649D01*
X121529351Y-104870007D01*
X121368678Y-104762649D01*
X121190147Y-104688699D01*
X121000620Y-104651000D01*
X120807380Y-104651000D01*
X120617853Y-104688699D01*
X120439322Y-104762649D01*
X120278649Y-104870007D01*
X120142007Y-105006649D01*
X120034649Y-105167322D01*
X119960699Y-105345853D01*
X119923000Y-105535380D01*
X119886843Y-105535380D01*
X119886843Y-105032000D01*
X119879487Y-104957311D01*
X119857701Y-104885492D01*
X119822322Y-104819304D01*
X119774711Y-104761289D01*
X119716696Y-104713678D01*
X119650508Y-104678299D01*
X119578689Y-104656513D01*
X119504000Y-104649157D01*
X118304000Y-104649157D01*
X118229311Y-104656513D01*
X118157492Y-104678299D01*
X118091304Y-104713678D01*
X118033289Y-104761289D01*
X117985678Y-104819304D01*
X117950299Y-104885492D01*
X117928513Y-104957311D01*
X117921157Y-105032000D01*
X116834449Y-105032000D01*
X116885000Y-104777866D01*
X116885000Y-104486134D01*
X116828086Y-104200008D01*
X116716445Y-103930483D01*
X116554368Y-103687917D01*
X116401831Y-103535380D01*
X117923000Y-103535380D01*
X117923000Y-103728620D01*
X117960699Y-103918147D01*
X118034649Y-104096678D01*
X118142007Y-104257351D01*
X118278649Y-104393993D01*
X118439322Y-104501351D01*
X118617853Y-104575301D01*
X118807380Y-104613000D01*
X119000620Y-104613000D01*
X119190147Y-104575301D01*
X119368678Y-104501351D01*
X119529351Y-104393993D01*
X119665993Y-104257351D01*
X119773351Y-104096678D01*
X119847301Y-103918147D01*
X119885000Y-103728620D01*
X119885000Y-103535380D01*
X119923000Y-103535380D01*
X119923000Y-103728620D01*
X119960699Y-103918147D01*
X120034649Y-104096678D01*
X120142007Y-104257351D01*
X120278649Y-104393993D01*
X120439322Y-104501351D01*
X120617853Y-104575301D01*
X120807380Y-104613000D01*
X121000620Y-104613000D01*
X121190147Y-104575301D01*
X121368678Y-104501351D01*
X121529351Y-104393993D01*
X121665993Y-104257351D01*
X121773351Y-104096678D01*
X121847301Y-103918147D01*
X121885000Y-103728620D01*
X121885000Y-103535380D01*
X121923000Y-103535380D01*
X121923000Y-103728620D01*
X121960699Y-103918147D01*
X122034649Y-104096678D01*
X122142007Y-104257351D01*
X122278649Y-104393993D01*
X122439322Y-104501351D01*
X122617853Y-104575301D01*
X122807380Y-104613000D01*
X123000620Y-104613000D01*
X123190147Y-104575301D01*
X123368678Y-104501351D01*
X123391451Y-104486134D01*
X124923000Y-104486134D01*
X124923000Y-104777866D01*
X124979914Y-105063992D01*
X125091555Y-105333517D01*
X125253632Y-105576083D01*
X125459917Y-105782368D01*
X125702483Y-105944445D01*
X125972008Y-106056086D01*
X126258134Y-106113000D01*
X126549866Y-106113000D01*
X126835992Y-106056086D01*
X127105517Y-105944445D01*
X127348083Y-105782368D01*
X127554368Y-105576083D01*
X127716445Y-105333517D01*
X127828086Y-105063992D01*
X127885000Y-104777866D01*
X127885000Y-104486134D01*
X127828086Y-104200008D01*
X127716445Y-103930483D01*
X127554368Y-103687917D01*
X127348083Y-103481632D01*
X127105517Y-103319555D01*
X126835992Y-103207914D01*
X126549866Y-103151000D01*
X126258134Y-103151000D01*
X125972008Y-103207914D01*
X125702483Y-103319555D01*
X125459917Y-103481632D01*
X125253632Y-103687917D01*
X125091555Y-103930483D01*
X124979914Y-104200008D01*
X124923000Y-104486134D01*
X123391451Y-104486134D01*
X123529351Y-104393993D01*
X123665993Y-104257351D01*
X123773351Y-104096678D01*
X123847301Y-103918147D01*
X123885000Y-103728620D01*
X123885000Y-103535380D01*
X123847301Y-103345853D01*
X123773351Y-103167322D01*
X123665993Y-103006649D01*
X123529351Y-102870007D01*
X123368678Y-102762649D01*
X123190147Y-102688699D01*
X123000620Y-102651000D01*
X122807380Y-102651000D01*
X122617853Y-102688699D01*
X122439322Y-102762649D01*
X122278649Y-102870007D01*
X122142007Y-103006649D01*
X122034649Y-103167322D01*
X121960699Y-103345853D01*
X121923000Y-103535380D01*
X121885000Y-103535380D01*
X121847301Y-103345853D01*
X121773351Y-103167322D01*
X121665993Y-103006649D01*
X121529351Y-102870007D01*
X121368678Y-102762649D01*
X121190147Y-102688699D01*
X121000620Y-102651000D01*
X120807380Y-102651000D01*
X120617853Y-102688699D01*
X120439322Y-102762649D01*
X120278649Y-102870007D01*
X120142007Y-103006649D01*
X120034649Y-103167322D01*
X119960699Y-103345853D01*
X119923000Y-103535380D01*
X119885000Y-103535380D01*
X119847301Y-103345853D01*
X119773351Y-103167322D01*
X119665993Y-103006649D01*
X119529351Y-102870007D01*
X119368678Y-102762649D01*
X119190147Y-102688699D01*
X119000620Y-102651000D01*
X118807380Y-102651000D01*
X118617853Y-102688699D01*
X118439322Y-102762649D01*
X118278649Y-102870007D01*
X118142007Y-103006649D01*
X118034649Y-103167322D01*
X117960699Y-103345853D01*
X117923000Y-103535380D01*
X116401831Y-103535380D01*
X116348083Y-103481632D01*
X116105517Y-103319555D01*
X115835992Y-103207914D01*
X115549866Y-103151000D01*
X115258134Y-103151000D01*
X114972008Y-103207914D01*
X114702483Y-103319555D01*
X114459917Y-103481632D01*
X114253632Y-103687917D01*
X114091555Y-103930483D01*
X113979914Y-104200008D01*
X113923000Y-104486134D01*
X108179781Y-104486134D01*
X108229000Y-104238698D01*
X108229000Y-103533302D01*
X108091384Y-102841461D01*
X107821441Y-102189760D01*
X107429544Y-101603246D01*
X106930754Y-101104456D01*
X106344240Y-100712559D01*
X105692539Y-100442616D01*
X105000698Y-100305000D01*
X104295302Y-100305000D01*
X103603461Y-100442616D01*
X102951760Y-100712559D01*
X102365246Y-101104456D01*
X101866456Y-101603246D01*
X101548000Y-102079848D01*
X101548000Y-73316999D01*
X102549157Y-73316999D01*
X102549157Y-73967001D01*
X102561317Y-74090462D01*
X102597329Y-74209179D01*
X102655810Y-74318589D01*
X102734512Y-74414488D01*
X102830411Y-74493190D01*
X102939821Y-74551671D01*
X103058538Y-74587683D01*
X103181999Y-74599843D01*
X104082001Y-74599843D01*
X104205462Y-74587683D01*
X104324179Y-74551671D01*
X104433589Y-74493190D01*
X104529488Y-74414488D01*
X104608190Y-74318589D01*
X104666671Y-74209179D01*
X104692327Y-74124600D01*
X105150295Y-74124600D01*
X105174000Y-74126935D01*
X105197705Y-74124600D01*
X105197707Y-74124600D01*
X105268606Y-74117617D01*
X105359577Y-74090022D01*
X105443415Y-74045209D01*
X105516901Y-73984901D01*
X105532017Y-73966482D01*
X105827400Y-73671100D01*
X105932137Y-73671100D01*
X105942317Y-73774462D01*
X105978329Y-73893179D01*
X106036810Y-74002589D01*
X106115512Y-74098488D01*
X106211411Y-74177190D01*
X106320821Y-74235671D01*
X106439538Y-74271683D01*
X106563000Y-74283843D01*
X107813000Y-74283843D01*
X107936462Y-74271683D01*
X108055179Y-74235671D01*
X108164589Y-74177190D01*
X108260488Y-74098488D01*
X108339190Y-74002589D01*
X108397671Y-73893179D01*
X108433683Y-73774462D01*
X108445843Y-73651000D01*
X108445843Y-72726000D01*
X108433683Y-72602538D01*
X108397671Y-72483821D01*
X108339190Y-72374411D01*
X108260488Y-72278512D01*
X108164589Y-72199810D01*
X108055179Y-72141329D01*
X107936462Y-72105317D01*
X107813000Y-72093157D01*
X106563000Y-72093157D01*
X106439538Y-72105317D01*
X106320821Y-72141329D01*
X106211411Y-72199810D01*
X106115512Y-72278512D01*
X106036810Y-72374411D01*
X105978329Y-72483821D01*
X105942317Y-72602538D01*
X105932137Y-72705900D01*
X105651207Y-72705900D01*
X105627500Y-72703565D01*
X105532893Y-72712883D01*
X105468787Y-72732329D01*
X105441923Y-72740478D01*
X105358085Y-72785291D01*
X105284599Y-72845599D01*
X105269487Y-72864013D01*
X104974101Y-73159400D01*
X104692327Y-73159400D01*
X104666671Y-73074821D01*
X104608190Y-72965411D01*
X104529488Y-72869512D01*
X104433589Y-72790810D01*
X104324179Y-72732329D01*
X104205462Y-72696317D01*
X104082001Y-72684157D01*
X103181999Y-72684157D01*
X103058538Y-72696317D01*
X102939821Y-72732329D01*
X102830411Y-72790810D01*
X102734512Y-72869512D01*
X102655810Y-72965411D01*
X102597329Y-73074821D01*
X102561317Y-73193538D01*
X102549157Y-73316999D01*
X101548000Y-73316999D01*
X101548000Y-70132152D01*
X101866456Y-70608754D01*
X102365246Y-71107544D01*
X102951760Y-71499441D01*
X103603461Y-71769384D01*
X104295302Y-71907000D01*
X105000698Y-71907000D01*
X105692539Y-71769384D01*
X106344240Y-71499441D01*
X106930754Y-71107544D01*
X107429544Y-70608754D01*
X107821441Y-70022240D01*
X108091384Y-69370539D01*
X108229000Y-68678698D01*
X108229000Y-68430757D01*
X110529000Y-68430757D01*
X110529000Y-68673243D01*
X110576307Y-68911069D01*
X110669102Y-69135097D01*
X110803820Y-69336717D01*
X110975283Y-69508180D01*
X111176903Y-69642898D01*
X111400931Y-69735693D01*
X111638757Y-69783000D01*
X111881243Y-69783000D01*
X112119069Y-69735693D01*
X112343097Y-69642898D01*
X112544717Y-69508180D01*
X112716180Y-69336717D01*
X112850898Y-69135097D01*
X112943693Y-68911069D01*
X112991000Y-68673243D01*
X112991000Y-68430757D01*
X128029000Y-68430757D01*
X128029000Y-68673243D01*
X128076307Y-68911069D01*
X128169102Y-69135097D01*
X128303820Y-69336717D01*
X128475283Y-69508180D01*
X128676903Y-69642898D01*
X128900931Y-69735693D01*
X129138757Y-69783000D01*
X129381243Y-69783000D01*
X129619069Y-69735693D01*
X129843097Y-69642898D01*
X130044717Y-69508180D01*
X130216180Y-69336717D01*
X130350898Y-69135097D01*
X130443693Y-68911069D01*
X130491000Y-68673243D01*
X130491000Y-68430757D01*
X130443693Y-68192931D01*
X130350898Y-67968903D01*
X130216180Y-67767283D01*
X130044717Y-67595820D01*
X129843097Y-67461102D01*
X129619069Y-67368307D01*
X129381243Y-67321000D01*
X129138757Y-67321000D01*
X128900931Y-67368307D01*
X128676903Y-67461102D01*
X128475283Y-67595820D01*
X128303820Y-67767283D01*
X128169102Y-67968903D01*
X128076307Y-68192931D01*
X128029000Y-68430757D01*
X112991000Y-68430757D01*
X112943693Y-68192931D01*
X112850898Y-67968903D01*
X112716180Y-67767283D01*
X112544717Y-67595820D01*
X112343097Y-67461102D01*
X112119069Y-67368307D01*
X111881243Y-67321000D01*
X111638757Y-67321000D01*
X111400931Y-67368307D01*
X111176903Y-67461102D01*
X110975283Y-67595820D01*
X110803820Y-67767283D01*
X110669102Y-67968903D01*
X110576307Y-68192931D01*
X110529000Y-68430757D01*
X108229000Y-68430757D01*
X108229000Y-67973302D01*
X108091384Y-67281461D01*
X107821441Y-66629760D01*
X107429544Y-66043246D01*
X106930754Y-65544456D01*
X106491567Y-65251000D01*
X134554433Y-65251000D01*
X134115246Y-65544456D01*
G04 #@! TA.AperFunction,Conductor*
D21*
G36*
X134115246Y-65544456D02*
G01*
X133616456Y-66043246D01*
X133224559Y-66629760D01*
X132954616Y-67281461D01*
X132817000Y-67973302D01*
X132817000Y-68678698D01*
X132954616Y-69370539D01*
X133224559Y-70022240D01*
X133616456Y-70608754D01*
X134115246Y-71107544D01*
X134701760Y-71499441D01*
X135353461Y-71769384D01*
X136045302Y-71907000D01*
X136750698Y-71907000D01*
X137442539Y-71769384D01*
X138094240Y-71499441D01*
X138680754Y-71107544D01*
X139179544Y-70608754D01*
X139498001Y-70132151D01*
X139498001Y-80645000D01*
X126746000Y-80645000D01*
X126671671Y-80652321D01*
X126600198Y-80674002D01*
X126534328Y-80709210D01*
X126476592Y-80756592D01*
X126429210Y-80814328D01*
X126394002Y-80880198D01*
X126372321Y-80951671D01*
X126365000Y-81026000D01*
X126365000Y-81233634D01*
X126350000Y-81232157D01*
X125856000Y-81232157D01*
X125856000Y-79851591D01*
X126323833Y-79383758D01*
X126400931Y-79415693D01*
X126638757Y-79463000D01*
X126881243Y-79463000D01*
X127119069Y-79415693D01*
X127343097Y-79322898D01*
X127544717Y-79188180D01*
X127716180Y-79016717D01*
X127850898Y-78815097D01*
X127943693Y-78591069D01*
X127991000Y-78353243D01*
X127991000Y-78110757D01*
X128029000Y-78110757D01*
X128029000Y-78353243D01*
X128076307Y-78591069D01*
X128169102Y-78815097D01*
X128303820Y-79016717D01*
X128475283Y-79188180D01*
X128676903Y-79322898D01*
X128900931Y-79415693D01*
X129138757Y-79463000D01*
X129381243Y-79463000D01*
X129619069Y-79415693D01*
X129843097Y-79322898D01*
X130044717Y-79188180D01*
X130216180Y-79016717D01*
X130350898Y-78815097D01*
X130443693Y-78591069D01*
X130491000Y-78353243D01*
X130491000Y-78110757D01*
X130443693Y-77872931D01*
X130350898Y-77648903D01*
X130216180Y-77447283D01*
X130044717Y-77275820D01*
X129843097Y-77141102D01*
X129619069Y-77048307D01*
X129381243Y-77001000D01*
X129138757Y-77001000D01*
X128900931Y-77048307D01*
X128676903Y-77141102D01*
X128475283Y-77275820D01*
X128303820Y-77447283D01*
X128169102Y-77648903D01*
X128076307Y-77872931D01*
X128029000Y-78110757D01*
X127991000Y-78110757D01*
X127943693Y-77872931D01*
X127850898Y-77648903D01*
X127716180Y-77447283D01*
X127544717Y-77275820D01*
X127343097Y-77141102D01*
X127119069Y-77048307D01*
X126881243Y-77001000D01*
X126638757Y-77001000D01*
X126400931Y-77048307D01*
X126176903Y-77141102D01*
X126090999Y-77198501D01*
X126090999Y-77116592D01*
X126323833Y-76883758D01*
X126400931Y-76915693D01*
X126638757Y-76963000D01*
X126881243Y-76963000D01*
X127119069Y-76915693D01*
X127343097Y-76822898D01*
X127544717Y-76688180D01*
X127716180Y-76516717D01*
X127850898Y-76315097D01*
X127943693Y-76091069D01*
X127991000Y-75853243D01*
X127991000Y-75610757D01*
X128029000Y-75610757D01*
X128029000Y-75853243D01*
X128076307Y-76091069D01*
X128169102Y-76315097D01*
X128303820Y-76516717D01*
X128475283Y-76688180D01*
X128676903Y-76822898D01*
X128900931Y-76915693D01*
X129138757Y-76963000D01*
X129381243Y-76963000D01*
X129619069Y-76915693D01*
X129843097Y-76822898D01*
X130044717Y-76688180D01*
X130216180Y-76516717D01*
X130350898Y-76315097D01*
X130443693Y-76091069D01*
X130491000Y-75853243D01*
X130491000Y-75610757D01*
X130443693Y-75372931D01*
X130350898Y-75148903D01*
X130216180Y-74947283D01*
X130044717Y-74775820D01*
X129843097Y-74641102D01*
X129619069Y-74548307D01*
X129381243Y-74501000D01*
X129138757Y-74501000D01*
X128900931Y-74548307D01*
X128676903Y-74641102D01*
X128475283Y-74775820D01*
X128303820Y-74947283D01*
X128169102Y-75148903D01*
X128076307Y-75372931D01*
X128029000Y-75610757D01*
X127991000Y-75610757D01*
X127943693Y-75372931D01*
X127850898Y-75148903D01*
X127716180Y-74947283D01*
X127544717Y-74775820D01*
X127343097Y-74641102D01*
X127119069Y-74548307D01*
X126881243Y-74501000D01*
X126638757Y-74501000D01*
X126400931Y-74548307D01*
X126176903Y-74641102D01*
X125975283Y-74775820D01*
X125803820Y-74947283D01*
X125669102Y-75148903D01*
X125576307Y-75372931D01*
X125529000Y-75610757D01*
X125529000Y-75853243D01*
X125576307Y-76091069D01*
X125608242Y-76168167D01*
X125244780Y-76531629D01*
X125225473Y-76547474D01*
X125162241Y-76624522D01*
X125148707Y-76649843D01*
X125115254Y-76712427D01*
X125086321Y-76807809D01*
X125076552Y-76907001D01*
X125079000Y-76931857D01*
X125079000Y-77310103D01*
X125044717Y-77275820D01*
X124843097Y-77141102D01*
X124619069Y-77048307D01*
X124381243Y-77001000D01*
X124138757Y-77001000D01*
X123900931Y-77048307D01*
X123676903Y-77141102D01*
X123590999Y-77198501D01*
X123590999Y-77116592D01*
X123823833Y-76883758D01*
X123900931Y-76915693D01*
X124138757Y-76963000D01*
X124381243Y-76963000D01*
X124619069Y-76915693D01*
X124843097Y-76822898D01*
X125044717Y-76688180D01*
X125216180Y-76516717D01*
X125350898Y-76315097D01*
X125443693Y-76091069D01*
X125491000Y-75853243D01*
X125491000Y-75610757D01*
X125443693Y-75372931D01*
X125350898Y-75148903D01*
X125216180Y-74947283D01*
X125044717Y-74775820D01*
X124843097Y-74641102D01*
X124619069Y-74548307D01*
X124381243Y-74501000D01*
X124138757Y-74501000D01*
X123900931Y-74548307D01*
X123676903Y-74641102D01*
X123475283Y-74775820D01*
X123303820Y-74947283D01*
X123169102Y-75148903D01*
X123076307Y-75372931D01*
X123029000Y-75610757D01*
X123029000Y-75853243D01*
X123076307Y-76091069D01*
X123108242Y-76168167D01*
X122744780Y-76531629D01*
X122725473Y-76547474D01*
X122662241Y-76624522D01*
X122648707Y-76649843D01*
X122615254Y-76712427D01*
X122586321Y-76807809D01*
X122576552Y-76907001D01*
X122579000Y-76931857D01*
X122579000Y-77310103D01*
X122544717Y-77275820D01*
X122343097Y-77141102D01*
X122119069Y-77048307D01*
X121881243Y-77001000D01*
X121638757Y-77001000D01*
X121400931Y-77048307D01*
X121176903Y-77141102D01*
X121090999Y-77198501D01*
X121090999Y-77116592D01*
X121323833Y-76883758D01*
X121400931Y-76915693D01*
X121638757Y-76963000D01*
X121881243Y-76963000D01*
X122119069Y-76915693D01*
X122343097Y-76822898D01*
X122544717Y-76688180D01*
X122716180Y-76516717D01*
X122850898Y-76315097D01*
X122943693Y-76091069D01*
X122991000Y-75853243D01*
X122991000Y-75610757D01*
X122943693Y-75372931D01*
X122850898Y-75148903D01*
X122716180Y-74947283D01*
X122544717Y-74775820D01*
X122343097Y-74641102D01*
X122119069Y-74548307D01*
X121881243Y-74501000D01*
X121638757Y-74501000D01*
X121400931Y-74548307D01*
X121176903Y-74641102D01*
X120975283Y-74775820D01*
X120803820Y-74947283D01*
X120669102Y-75148903D01*
X120576307Y-75372931D01*
X120529000Y-75610757D01*
X120529000Y-75853243D01*
X120576307Y-76091069D01*
X120608242Y-76168167D01*
X120244780Y-76531629D01*
X120225473Y-76547474D01*
X120162241Y-76624522D01*
X120148707Y-76649843D01*
X120115254Y-76712427D01*
X120086321Y-76807809D01*
X120076552Y-76907001D01*
X120079000Y-76931857D01*
X120079000Y-77310103D01*
X120044717Y-77275820D01*
X119843097Y-77141102D01*
X119619069Y-77048307D01*
X119381243Y-77001000D01*
X119138757Y-77001000D01*
X118900931Y-77048307D01*
X118676903Y-77141102D01*
X118475283Y-77275820D01*
X118441001Y-77310102D01*
X118441001Y-77266590D01*
X118785371Y-76922221D01*
X118785375Y-76922216D01*
X118823833Y-76883758D01*
X118900931Y-76915693D01*
X119138757Y-76963000D01*
X119381243Y-76963000D01*
X119619069Y-76915693D01*
X119843097Y-76822898D01*
X120044717Y-76688180D01*
X120216180Y-76516717D01*
X120350898Y-76315097D01*
X120443693Y-76091069D01*
X120491000Y-75853243D01*
X120491000Y-75610757D01*
X120443693Y-75372931D01*
X120350898Y-75148903D01*
X120216180Y-74947283D01*
X120044717Y-74775820D01*
X119843097Y-74641102D01*
X119619069Y-74548307D01*
X119381243Y-74501000D01*
X119138757Y-74501000D01*
X118900931Y-74548307D01*
X118676903Y-74641102D01*
X118475283Y-74775820D01*
X118303820Y-74947283D01*
X118169102Y-75148903D01*
X118076307Y-75372931D01*
X118029000Y-75610757D01*
X118029000Y-75853243D01*
X118076307Y-76091069D01*
X118108242Y-76168167D01*
X118069784Y-76206625D01*
X118069779Y-76206629D01*
X117594781Y-76681628D01*
X117575475Y-76697472D01*
X117512243Y-76774520D01*
X117494450Y-76807808D01*
X117465256Y-76862425D01*
X117436323Y-76957807D01*
X117426554Y-77056999D01*
X117429002Y-77081855D01*
X117429002Y-77198502D01*
X117343097Y-77141102D01*
X117119069Y-77048307D01*
X116881243Y-77001000D01*
X116638757Y-77001000D01*
X116400931Y-77048307D01*
X116176903Y-77141102D01*
X116090999Y-77198501D01*
X116090999Y-77116592D01*
X116323833Y-76883758D01*
X116400931Y-76915693D01*
X116638757Y-76963000D01*
X116881243Y-76963000D01*
X117119069Y-76915693D01*
X117343097Y-76822898D01*
X117544717Y-76688180D01*
X117716180Y-76516717D01*
X117850898Y-76315097D01*
X117943693Y-76091069D01*
X117991000Y-75853243D01*
X117991000Y-75610757D01*
X117943693Y-75372931D01*
X117850898Y-75148903D01*
X117716180Y-74947283D01*
X117544717Y-74775820D01*
X117343097Y-74641102D01*
X117119069Y-74548307D01*
X116881243Y-74501000D01*
X116638757Y-74501000D01*
X116400931Y-74548307D01*
X116176903Y-74641102D01*
X115975283Y-74775820D01*
X115803820Y-74947283D01*
X115669102Y-75148903D01*
X115576307Y-75372931D01*
X115529000Y-75610757D01*
X115529000Y-75853243D01*
X115576307Y-76091069D01*
X115608242Y-76168167D01*
X115244780Y-76531629D01*
X115225473Y-76547474D01*
X115162241Y-76624522D01*
X115148707Y-76649843D01*
X115115254Y-76712427D01*
X115086321Y-76807809D01*
X115076552Y-76907001D01*
X115079000Y-76931857D01*
X115079000Y-77310103D01*
X115044717Y-77275820D01*
X114843097Y-77141102D01*
X114619069Y-77048307D01*
X114381243Y-77001000D01*
X114138757Y-77001000D01*
X113900931Y-77048307D01*
X113676903Y-77141102D01*
X113590999Y-77198501D01*
X113590999Y-77116592D01*
X113823833Y-76883758D01*
X113900931Y-76915693D01*
X114138757Y-76963000D01*
X114381243Y-76963000D01*
X114619069Y-76915693D01*
X114843097Y-76822898D01*
X115044717Y-76688180D01*
X115216180Y-76516717D01*
X115350898Y-76315097D01*
X115443693Y-76091069D01*
X115491000Y-75853243D01*
X115491000Y-75610757D01*
X115443693Y-75372931D01*
X115350898Y-75148903D01*
X115216180Y-74947283D01*
X115044717Y-74775820D01*
X114843097Y-74641102D01*
X114619069Y-74548307D01*
X114381243Y-74501000D01*
X114138757Y-74501000D01*
X113900931Y-74548307D01*
X113676903Y-74641102D01*
X113475283Y-74775820D01*
X113303820Y-74947283D01*
X113169102Y-75148903D01*
X113076307Y-75372931D01*
X113029000Y-75610757D01*
X113029000Y-75853243D01*
X113076307Y-76091069D01*
X113108242Y-76168167D01*
X112744780Y-76531629D01*
X112725473Y-76547474D01*
X112662241Y-76624522D01*
X112648707Y-76649843D01*
X112615254Y-76712427D01*
X112605691Y-76743951D01*
X112460062Y-76744744D01*
X112544717Y-76688180D01*
X112716180Y-76516717D01*
X112850898Y-76315097D01*
X112943693Y-76091069D01*
X112991000Y-75853243D01*
X112991000Y-75610757D01*
X112943693Y-75372931D01*
X112850898Y-75148903D01*
X112716180Y-74947283D01*
X112544717Y-74775820D01*
X112343097Y-74641102D01*
X112119069Y-74548307D01*
X111881243Y-74501000D01*
X111638757Y-74501000D01*
X111400931Y-74548307D01*
X111176903Y-74641102D01*
X110975283Y-74775820D01*
X110803820Y-74947283D01*
X110669102Y-75148903D01*
X110576307Y-75372931D01*
X110529000Y-75610757D01*
X110529000Y-75853243D01*
X110576307Y-76091069D01*
X110669102Y-76315097D01*
X110803820Y-76516717D01*
X110975283Y-76688180D01*
X111059938Y-76744744D01*
X110910000Y-76743928D01*
X110785518Y-76756188D01*
X110665820Y-76792498D01*
X110555506Y-76851463D01*
X110458815Y-76930815D01*
X110379463Y-77027506D01*
X110320498Y-77137820D01*
X110284188Y-77257518D01*
X110271928Y-77382000D01*
X110275000Y-77946250D01*
X110433750Y-78105000D01*
X111633000Y-78105000D01*
X111633000Y-78085000D01*
X111887000Y-78085000D01*
X111887000Y-78105000D01*
X111907000Y-78105000D01*
X111907000Y-78359000D01*
X111887000Y-78359000D01*
X111887000Y-79558250D01*
X112045750Y-79717000D01*
X112578999Y-79719903D01*
X112578999Y-80275153D01*
X112576552Y-80299999D01*
X112578999Y-80324845D01*
X112578999Y-80324852D01*
X112586321Y-80399191D01*
X112615254Y-80494573D01*
X112662240Y-80582478D01*
X112725472Y-80659526D01*
X112744784Y-80675375D01*
X114324628Y-82255220D01*
X114340473Y-82274527D01*
X114417521Y-82337759D01*
X114505425Y-82384745D01*
X114578607Y-82406944D01*
X114600806Y-82413678D01*
X114610694Y-82414652D01*
X114625484Y-82416109D01*
X114631678Y-82427696D01*
X114679289Y-82485711D01*
X114737304Y-82533322D01*
X114768506Y-82550000D01*
X114737304Y-82566678D01*
X114679289Y-82614289D01*
X114631678Y-82672304D01*
X114596299Y-82738492D01*
X114574513Y-82810311D01*
X114567157Y-82885000D01*
X114567157Y-83485000D01*
X114574513Y-83559689D01*
X114596299Y-83631508D01*
X114631678Y-83697696D01*
X114679289Y-83755711D01*
X114737304Y-83803322D01*
X114768506Y-83820000D01*
X114737304Y-83836678D01*
X114679289Y-83884289D01*
X114631678Y-83942304D01*
X114596299Y-84008492D01*
X114574513Y-84080311D01*
X114567157Y-84155000D01*
X114567157Y-84506656D01*
X114543859Y-84483358D01*
X114415942Y-84397887D01*
X114273809Y-84339013D01*
X114122922Y-84309000D01*
X113969078Y-84309000D01*
X113818191Y-84339013D01*
X113676058Y-84397887D01*
X113548141Y-84483358D01*
X113439358Y-84592141D01*
X113353887Y-84720058D01*
X113295013Y-84862191D01*
X113265000Y-85013078D01*
X113265000Y-85166922D01*
X113273585Y-85210082D01*
X113214179Y-85178329D01*
X113095462Y-85142317D01*
X112972001Y-85130157D01*
X112071999Y-85130157D01*
X111948538Y-85142317D01*
X111829821Y-85178329D01*
X111720411Y-85236810D01*
X111624512Y-85315512D01*
X111545810Y-85411411D01*
X111487329Y-85520821D01*
X111451317Y-85639538D01*
X111439157Y-85762999D01*
X111439157Y-86413001D01*
X111451317Y-86536462D01*
X111487329Y-86655179D01*
X111545810Y-86764589D01*
X111624512Y-86860488D01*
X111715780Y-86935389D01*
X111697518Y-86937188D01*
X111577820Y-86973498D01*
X111467506Y-87032463D01*
X111370815Y-87111815D01*
X111291463Y-87208506D01*
X111232498Y-87318820D01*
X111196188Y-87438518D01*
X111183928Y-87563000D01*
X111187000Y-87852250D01*
X111345750Y-88011000D01*
X112395000Y-88011000D01*
X112395000Y-87991000D01*
X112649000Y-87991000D01*
X112649000Y-88011000D01*
X113698250Y-88011000D01*
X113857000Y-87852250D01*
X113860072Y-87563000D01*
X113847812Y-87438518D01*
X113811502Y-87318820D01*
X113752537Y-87208506D01*
X113673185Y-87111815D01*
X113576494Y-87032463D01*
X113466180Y-86973498D01*
X113346482Y-86937188D01*
X113328220Y-86935389D01*
X113419488Y-86860488D01*
X113498190Y-86764589D01*
X113556671Y-86655179D01*
X113575229Y-86594000D01*
X114133409Y-86594000D01*
X114567157Y-87027749D01*
X114567157Y-87295000D01*
X114574513Y-87369689D01*
X114594430Y-87435346D01*
X114498815Y-87513815D01*
X114419463Y-87610506D01*
X114360498Y-87720820D01*
X114324188Y-87840518D01*
X114311928Y-87965000D01*
X114315000Y-87979250D01*
X114473750Y-88138000D01*
X115823000Y-88138000D01*
X115823000Y-88118000D01*
X116077000Y-88118000D01*
X116077000Y-88138000D01*
X116097000Y-88138000D01*
X116097000Y-88392000D01*
X116077000Y-88392000D01*
X116077000Y-88412000D01*
X115823000Y-88412000D01*
X115823000Y-88392000D01*
X114473750Y-88392000D01*
X114315000Y-88550750D01*
X114311928Y-88565000D01*
X114324188Y-88689482D01*
X114360498Y-88809180D01*
X114419463Y-88919494D01*
X114498815Y-89016185D01*
X114594430Y-89094654D01*
X114574513Y-89160311D01*
X114567157Y-89235000D01*
X114567157Y-89613526D01*
X114531747Y-89578116D01*
X114406942Y-89494724D01*
X114268267Y-89437283D01*
X114121050Y-89408000D01*
X113970950Y-89408000D01*
X113823733Y-89437283D01*
X113685058Y-89494724D01*
X113560253Y-89578116D01*
X113454116Y-89684253D01*
X113370724Y-89809058D01*
X113313283Y-89947733D01*
X113284000Y-90094950D01*
X113284000Y-90170000D01*
X113208950Y-90170000D01*
X113061733Y-90199283D01*
X112923058Y-90256724D01*
X112798253Y-90340116D01*
X112692116Y-90446253D01*
X112608724Y-90571058D01*
X112551283Y-90709733D01*
X112522000Y-90856950D01*
X112522000Y-91007050D01*
X112551283Y-91154267D01*
X112608724Y-91292942D01*
X112692116Y-91417747D01*
X112798253Y-91523884D01*
X112801400Y-91525987D01*
X112801401Y-96435285D01*
X112801267Y-96436649D01*
X111764604Y-95399987D01*
X111629810Y-95265193D01*
X111629810Y-92758464D01*
X111632145Y-92734759D01*
X111629810Y-92711053D01*
X111622827Y-92640154D01*
X111595232Y-92549183D01*
X111550419Y-92465345D01*
X111490111Y-92391859D01*
X111471692Y-92376743D01*
X109597810Y-90502862D01*
X109597810Y-88713000D01*
X111183928Y-88713000D01*
X111196188Y-88837482D01*
X111232498Y-88957180D01*
X111291463Y-89067494D01*
X111370815Y-89164185D01*
X111467506Y-89243537D01*
X111577820Y-89302502D01*
X111697518Y-89338812D01*
X111822000Y-89351072D01*
X112236250Y-89348000D01*
X112395000Y-89189250D01*
X112395000Y-88265000D01*
X112649000Y-88265000D01*
X112649000Y-89189250D01*
X112807750Y-89348000D01*
X113222000Y-89351072D01*
X113346482Y-89338812D01*
X113466180Y-89302502D01*
X113576494Y-89243537D01*
X113673185Y-89164185D01*
X113752537Y-89067494D01*
X113811502Y-88957180D01*
X113847812Y-88837482D01*
X113860072Y-88713000D01*
X113857000Y-88423750D01*
X113698250Y-88265000D01*
X112649000Y-88265000D01*
X112395000Y-88265000D01*
X111345750Y-88265000D01*
X111187000Y-88423750D01*
X111183928Y-88713000D01*
X109597810Y-88713000D01*
X109597810Y-80166316D01*
X109600145Y-80142611D01*
X109596619Y-80106811D01*
X109590827Y-80048006D01*
X109563232Y-79957035D01*
X109518419Y-79873197D01*
X109491466Y-79840355D01*
X109473223Y-79818125D01*
X109473222Y-79818124D01*
X109458111Y-79799711D01*
X109439698Y-79784600D01*
X108737098Y-79082000D01*
X110271928Y-79082000D01*
X110284188Y-79206482D01*
X110320498Y-79326180D01*
X110379463Y-79436494D01*
X110458815Y-79533185D01*
X110555506Y-79612537D01*
X110665820Y-79671502D01*
X110785518Y-79707812D01*
X110910000Y-79720072D01*
X111474250Y-79717000D01*
X111633000Y-79558250D01*
X111633000Y-78359000D01*
X110433750Y-78359000D01*
X110275000Y-78517750D01*
X110271928Y-79082000D01*
X108737098Y-79082000D01*
X107034174Y-77379076D01*
X107061000Y-77352250D01*
X107061000Y-76290500D01*
X107315000Y-76290500D01*
X107315000Y-77352250D01*
X107473750Y-77511000D01*
X108063000Y-77514072D01*
X108187482Y-77501812D01*
X108307180Y-77465502D01*
X108417494Y-77406537D01*
X108514185Y-77327185D01*
X108593537Y-77230494D01*
X108652502Y-77120180D01*
X108688812Y-77000482D01*
X108701072Y-76876000D01*
X108698000Y-76449250D01*
X108539250Y-76290500D01*
X107315000Y-76290500D01*
X107061000Y-76290500D01*
X105836750Y-76290500D01*
X105678000Y-76449250D01*
X105676231Y-76695010D01*
X105317510Y-76695010D01*
X104708088Y-76085588D01*
X104714843Y-76017001D01*
X104714843Y-75451000D01*
X105674928Y-75451000D01*
X105678000Y-75877750D01*
X105836750Y-76036500D01*
X107061000Y-76036500D01*
X107061000Y-74974750D01*
X107315000Y-74974750D01*
X107315000Y-76036500D01*
X108539250Y-76036500D01*
X108698000Y-75877750D01*
X108701072Y-75451000D01*
X108688812Y-75326518D01*
X108652502Y-75206820D01*
X108593537Y-75096506D01*
X108514185Y-74999815D01*
X108417494Y-74920463D01*
X108307180Y-74861498D01*
X108187482Y-74825188D01*
X108063000Y-74812928D01*
X107473750Y-74816000D01*
X107315000Y-74974750D01*
X107061000Y-74974750D01*
X106902250Y-74816000D01*
X106313000Y-74812928D01*
X106188518Y-74825188D01*
X106068820Y-74861498D01*
X105958506Y-74920463D01*
X105861815Y-74999815D01*
X105782463Y-75096506D01*
X105723498Y-75206820D01*
X105687188Y-75326518D01*
X105674928Y-75451000D01*
X104714843Y-75451000D01*
X104714843Y-75366999D01*
X104702683Y-75243538D01*
X104666671Y-75124821D01*
X104608190Y-75015411D01*
X104529488Y-74919512D01*
X104433589Y-74840810D01*
X104324179Y-74782329D01*
X104205462Y-74746317D01*
X104082001Y-74734157D01*
X103181999Y-74734157D01*
X103058538Y-74746317D01*
X102939821Y-74782329D01*
X102830411Y-74840810D01*
X102734512Y-74919512D01*
X102655810Y-75015411D01*
X102597329Y-75124821D01*
X102561317Y-75243538D01*
X102549157Y-75366999D01*
X102549157Y-76017001D01*
X102561317Y-76140462D01*
X102597329Y-76259179D01*
X102655810Y-76368589D01*
X102734512Y-76464488D01*
X102830411Y-76543190D01*
X102939821Y-76601671D01*
X103058538Y-76637683D01*
X103181999Y-76649843D01*
X103907344Y-76649843D01*
X104759596Y-77502096D01*
X104774709Y-77520511D01*
X104848195Y-77580819D01*
X104932033Y-77625632D01*
X105023003Y-77653227D01*
X105117610Y-77662545D01*
X105141317Y-77660210D01*
X105950309Y-77660210D01*
X107277756Y-78987657D01*
X106563000Y-78987657D01*
X106439538Y-78999817D01*
X106320821Y-79035829D01*
X106211411Y-79094310D01*
X106115512Y-79173012D01*
X106036810Y-79268911D01*
X105978329Y-79378321D01*
X105942317Y-79497038D01*
X105932137Y-79600400D01*
X105614707Y-79600400D01*
X105591000Y-79598065D01*
X105496393Y-79607383D01*
X105447656Y-79622167D01*
X105405423Y-79634978D01*
X105321585Y-79679791D01*
X105321583Y-79679792D01*
X105321584Y-79679792D01*
X105288035Y-79707325D01*
X105248099Y-79740099D01*
X105232987Y-79758513D01*
X104956101Y-80035400D01*
X104692327Y-80035400D01*
X104666671Y-79950821D01*
X104608190Y-79841411D01*
X104529488Y-79745512D01*
X104433589Y-79666810D01*
X104324179Y-79608329D01*
X104205462Y-79572317D01*
X104082001Y-79560157D01*
X103181999Y-79560157D01*
X103058538Y-79572317D01*
X102939821Y-79608329D01*
X102830411Y-79666810D01*
X102734512Y-79745512D01*
X102655810Y-79841411D01*
X102597329Y-79950821D01*
X102561317Y-80069538D01*
X102549157Y-80192999D01*
X102549157Y-80843001D01*
X102561317Y-80966462D01*
X102597329Y-81085179D01*
X102655810Y-81194589D01*
X102734512Y-81290488D01*
X102830411Y-81369190D01*
X102939821Y-81427671D01*
X103058538Y-81463683D01*
X103181999Y-81475843D01*
X104082001Y-81475843D01*
X104205462Y-81463683D01*
X104324179Y-81427671D01*
X104433589Y-81369190D01*
X104529488Y-81290488D01*
X104608190Y-81194589D01*
X104666671Y-81085179D01*
X104692327Y-81000600D01*
X105132295Y-81000600D01*
X105156000Y-81002935D01*
X105179705Y-81000600D01*
X105179707Y-81000600D01*
X105250606Y-80993617D01*
X105341577Y-80966022D01*
X105425415Y-80921209D01*
X105498901Y-80860901D01*
X105514017Y-80842482D01*
X105790900Y-80565600D01*
X105932137Y-80565600D01*
X105942317Y-80668962D01*
X105978329Y-80787679D01*
X106036810Y-80897089D01*
X106115512Y-80992988D01*
X106211411Y-81071690D01*
X106320821Y-81130171D01*
X106439538Y-81166183D01*
X106563000Y-81178343D01*
X107813000Y-81178343D01*
X107936462Y-81166183D01*
X108055179Y-81130171D01*
X108164589Y-81071690D01*
X108260488Y-80992988D01*
X108339190Y-80897089D01*
X108397671Y-80787679D01*
X108433683Y-80668962D01*
X108445843Y-80545500D01*
X108445843Y-80155745D01*
X108632610Y-80342512D01*
X108632610Y-82064106D01*
X108593537Y-81991006D01*
X108514185Y-81894315D01*
X108417494Y-81814963D01*
X108307180Y-81755998D01*
X108187482Y-81719688D01*
X108063000Y-81707428D01*
X107473750Y-81710500D01*
X107315000Y-81869250D01*
X107315000Y-82931000D01*
X107335000Y-82931000D01*
X107335000Y-83185000D01*
X107315000Y-83185000D01*
X107315000Y-84246750D01*
X107473750Y-84405500D01*
X108063000Y-84408572D01*
X108187482Y-84396312D01*
X108307180Y-84360002D01*
X108417494Y-84301037D01*
X108514185Y-84221685D01*
X108593537Y-84124994D01*
X108632610Y-84051894D01*
X108632611Y-86053014D01*
X106943674Y-84364077D01*
X107061000Y-84246750D01*
X107061000Y-83185000D01*
X105836750Y-83185000D01*
X105800674Y-83221077D01*
X104925097Y-82345500D01*
X105674928Y-82345500D01*
X105678000Y-82772250D01*
X105836750Y-82931000D01*
X107061000Y-82931000D01*
X107061000Y-81869250D01*
X106902250Y-81710500D01*
X106313000Y-81707428D01*
X106188518Y-81719688D01*
X106068820Y-81755998D01*
X105958506Y-81814963D01*
X105861815Y-81894315D01*
X105782463Y-81991006D01*
X105723498Y-82101320D01*
X105687188Y-82221018D01*
X105674928Y-82345500D01*
X104925097Y-82345500D01*
X104823115Y-82243518D01*
X104807999Y-82225099D01*
X104734513Y-82164791D01*
X104705619Y-82149347D01*
X104702683Y-82119538D01*
X104666671Y-82000821D01*
X104608190Y-81891411D01*
X104529488Y-81795512D01*
X104433589Y-81716810D01*
X104324179Y-81658329D01*
X104205462Y-81622317D01*
X104082001Y-81610157D01*
X103181999Y-81610157D01*
X103058538Y-81622317D01*
X102939821Y-81658329D01*
X102830411Y-81716810D01*
X102734512Y-81795512D01*
X102655810Y-81891411D01*
X102597329Y-82000821D01*
X102561317Y-82119538D01*
X102549157Y-82242999D01*
X102549157Y-82893001D01*
X102561317Y-83016462D01*
X102597329Y-83135179D01*
X102655810Y-83244589D01*
X102734512Y-83340488D01*
X102830411Y-83419190D01*
X102939821Y-83477671D01*
X103058538Y-83513683D01*
X103181999Y-83525843D01*
X104082001Y-83525843D01*
X104205462Y-83513683D01*
X104324179Y-83477671D01*
X104433589Y-83419190D01*
X104529488Y-83340488D01*
X104541027Y-83326428D01*
X107277756Y-86063157D01*
X106563000Y-86063157D01*
X106439538Y-86075317D01*
X106320821Y-86111329D01*
X106211411Y-86169810D01*
X106115512Y-86248512D01*
X106036810Y-86344411D01*
X105978329Y-86453821D01*
X105942317Y-86572538D01*
X105932137Y-86675900D01*
X105615207Y-86675900D01*
X105591500Y-86673565D01*
X105496893Y-86682883D01*
X105432787Y-86702329D01*
X105405923Y-86710478D01*
X105322085Y-86755291D01*
X105322083Y-86755292D01*
X105322084Y-86755292D01*
X105278336Y-86791195D01*
X105248599Y-86815599D01*
X105233487Y-86834013D01*
X104938101Y-87129400D01*
X104692327Y-87129400D01*
X104666671Y-87044821D01*
X104608190Y-86935411D01*
X104529488Y-86839512D01*
X104433589Y-86760810D01*
X104324179Y-86702329D01*
X104205462Y-86666317D01*
X104082001Y-86654157D01*
X103181999Y-86654157D01*
X103058538Y-86666317D01*
X102939821Y-86702329D01*
X102830411Y-86760810D01*
X102734512Y-86839512D01*
X102655810Y-86935411D01*
X102597329Y-87044821D01*
X102561317Y-87163538D01*
X102549157Y-87286999D01*
X102549157Y-87937001D01*
X102561317Y-88060462D01*
X102597329Y-88179179D01*
X102655810Y-88288589D01*
X102734512Y-88384488D01*
X102830411Y-88463190D01*
X102939821Y-88521671D01*
X103058538Y-88557683D01*
X103181999Y-88569843D01*
X104082001Y-88569843D01*
X104205462Y-88557683D01*
X104324179Y-88521671D01*
X104433589Y-88463190D01*
X104529488Y-88384488D01*
X104608190Y-88288589D01*
X104666671Y-88179179D01*
X104692327Y-88094600D01*
X105114295Y-88094600D01*
X105138000Y-88096935D01*
X105161705Y-88094600D01*
X105161707Y-88094600D01*
X105232606Y-88087617D01*
X105323577Y-88060022D01*
X105407415Y-88015209D01*
X105480901Y-87954901D01*
X105496017Y-87936482D01*
X105791400Y-87641100D01*
X105932137Y-87641100D01*
X105942317Y-87744462D01*
X105978329Y-87863179D01*
X106036810Y-87972589D01*
X106115512Y-88068488D01*
X106211411Y-88147190D01*
X106320821Y-88205671D01*
X106439538Y-88241683D01*
X106563000Y-88253843D01*
X107813000Y-88253843D01*
X107936462Y-88241683D01*
X108055179Y-88205671D01*
X108164589Y-88147190D01*
X108229400Y-88094001D01*
X108229400Y-88807904D01*
X108187482Y-88795188D01*
X108063000Y-88782928D01*
X107473750Y-88786000D01*
X107315000Y-88944750D01*
X107315000Y-90006500D01*
X107335000Y-90006500D01*
X107335000Y-90260500D01*
X107315000Y-90260500D01*
X107315000Y-90280500D01*
X107061000Y-90280500D01*
X107061000Y-90260500D01*
X105836750Y-90260500D01*
X105678000Y-90419250D01*
X105676231Y-90665010D01*
X105317510Y-90665010D01*
X104708088Y-90055588D01*
X104714843Y-89987001D01*
X104714843Y-89421000D01*
X105674928Y-89421000D01*
X105678000Y-89847750D01*
X105836750Y-90006500D01*
X107061000Y-90006500D01*
X107061000Y-88944750D01*
X106902250Y-88786000D01*
X106313000Y-88782928D01*
X106188518Y-88795188D01*
X106068820Y-88831498D01*
X105958506Y-88890463D01*
X105861815Y-88969815D01*
X105782463Y-89066506D01*
X105723498Y-89176820D01*
X105687188Y-89296518D01*
X105674928Y-89421000D01*
X104714843Y-89421000D01*
X104714843Y-89336999D01*
X104702683Y-89213538D01*
X104666671Y-89094821D01*
X104608190Y-88985411D01*
X104529488Y-88889512D01*
X104433589Y-88810810D01*
X104324179Y-88752329D01*
X104205462Y-88716317D01*
X104082001Y-88704157D01*
X103181999Y-88704157D01*
X103058538Y-88716317D01*
X102939821Y-88752329D01*
X102830411Y-88810810D01*
X102734512Y-88889512D01*
X102655810Y-88985411D01*
X102597329Y-89094821D01*
X102561317Y-89213538D01*
X102549157Y-89336999D01*
X102549157Y-89987001D01*
X102561317Y-90110462D01*
X102597329Y-90229179D01*
X102655810Y-90338589D01*
X102734512Y-90434488D01*
X102830411Y-90513190D01*
X102939821Y-90571671D01*
X103058538Y-90607683D01*
X103181999Y-90619843D01*
X103907344Y-90619843D01*
X104759596Y-91472096D01*
X104774709Y-91490511D01*
X104848195Y-91550819D01*
X104932033Y-91595632D01*
X105023003Y-91623227D01*
X105117610Y-91632545D01*
X105141317Y-91630210D01*
X108219711Y-91630210D01*
X109858190Y-93268690D01*
X109858191Y-95839075D01*
X109855855Y-95862790D01*
X109865174Y-95957396D01*
X109892768Y-96048366D01*
X109937582Y-96132205D01*
X109966530Y-96167478D01*
X109997890Y-96205691D01*
X110016303Y-96220802D01*
X113953009Y-100157509D01*
X113968120Y-100175922D01*
X114041606Y-100236230D01*
X114125444Y-100281043D01*
X114216414Y-100308638D01*
X114311021Y-100317956D01*
X114334728Y-100315621D01*
X117437724Y-100315621D01*
X117461429Y-100317956D01*
X117485134Y-100315621D01*
X117485136Y-100315621D01*
X117556035Y-100308638D01*
X117647006Y-100281043D01*
X117730844Y-100236230D01*
X117804330Y-100175922D01*
X117819446Y-100157503D01*
X118732907Y-99244042D01*
X118751321Y-99228931D01*
X118811629Y-99155445D01*
X118856442Y-99071607D01*
X118870094Y-99026601D01*
X118884037Y-98980637D01*
X118893355Y-98886030D01*
X118891020Y-98862323D01*
X118891020Y-96070243D01*
X121133664Y-93827600D01*
X122460383Y-93827600D01*
X122439013Y-93879191D01*
X122409000Y-94030078D01*
X122409000Y-94183922D01*
X122439013Y-94334809D01*
X122497887Y-94476942D01*
X122583358Y-94604859D01*
X122593499Y-94615000D01*
X122583358Y-94625141D01*
X122497887Y-94753058D01*
X122439013Y-94895191D01*
X122409000Y-95046078D01*
X122409000Y-95199922D01*
X122439013Y-95350809D01*
X122497887Y-95492942D01*
X122583358Y-95620859D01*
X122692141Y-95729642D01*
X122820058Y-95815113D01*
X122962191Y-95873987D01*
X123113078Y-95904000D01*
X123255408Y-95904000D01*
X123576628Y-96225220D01*
X123592473Y-96244527D01*
X123669521Y-96307759D01*
X123740990Y-96345960D01*
X123757425Y-96354745D01*
X123852807Y-96383678D01*
X123952000Y-96393448D01*
X123976854Y-96391000D01*
X124028099Y-96391000D01*
X124031678Y-96397696D01*
X124079289Y-96455711D01*
X124137304Y-96503322D01*
X124168506Y-96520000D01*
X124137304Y-96536678D01*
X124079289Y-96584289D01*
X124031678Y-96642304D01*
X123996299Y-96708492D01*
X123974513Y-96780311D01*
X123967157Y-96855000D01*
X123967157Y-97455000D01*
X123974513Y-97529689D01*
X123996299Y-97601508D01*
X124031678Y-97667696D01*
X124079289Y-97725711D01*
X124137304Y-97773322D01*
X124168506Y-97790000D01*
X124137304Y-97806678D01*
X124079289Y-97854289D01*
X124031678Y-97912304D01*
X123996299Y-97978492D01*
X123974513Y-98050311D01*
X123972633Y-98069400D01*
X120481987Y-98069400D01*
X120479884Y-98066253D01*
X120373747Y-97960116D01*
X120248942Y-97876724D01*
X120110267Y-97819283D01*
X119963050Y-97790000D01*
X119812950Y-97790000D01*
X119665733Y-97819283D01*
X119527058Y-97876724D01*
X119402253Y-97960116D01*
X119296116Y-98066253D01*
X119212724Y-98191058D01*
X119155283Y-98329733D01*
X119126000Y-98476950D01*
X119126000Y-98627050D01*
X119155283Y-98774267D01*
X119212724Y-98912942D01*
X119296116Y-99037747D01*
X119402253Y-99143884D01*
X119527058Y-99227276D01*
X119665733Y-99284717D01*
X119812950Y-99314000D01*
X119963050Y-99314000D01*
X120110267Y-99284717D01*
X120248942Y-99227276D01*
X120373747Y-99143884D01*
X120479884Y-99037747D01*
X120481987Y-99034600D01*
X124126676Y-99034600D01*
X124137304Y-99043322D01*
X124203492Y-99078701D01*
X124275311Y-99100487D01*
X124350000Y-99107843D01*
X126350000Y-99107843D01*
X126424689Y-99100487D01*
X126496508Y-99078701D01*
X126562696Y-99043322D01*
X126620711Y-98995711D01*
X126668322Y-98937696D01*
X126703701Y-98871508D01*
X126725487Y-98799689D01*
X126732843Y-98725000D01*
X126732843Y-98125000D01*
X126725487Y-98050311D01*
X126703701Y-97978492D01*
X126668322Y-97912304D01*
X126620711Y-97854289D01*
X126562696Y-97806678D01*
X126531494Y-97790000D01*
X126562696Y-97773322D01*
X126620711Y-97725711D01*
X126668322Y-97667696D01*
X126671901Y-97661000D01*
X127933409Y-97661000D01*
X128148628Y-97876220D01*
X128164473Y-97895527D01*
X128241521Y-97958759D01*
X128329425Y-98005745D01*
X128402607Y-98027944D01*
X128424806Y-98034678D01*
X128434694Y-98035652D01*
X128499146Y-98042000D01*
X128499153Y-98042000D01*
X128523999Y-98044447D01*
X128548845Y-98042000D01*
X130211499Y-98042000D01*
X130312141Y-98142642D01*
X130440058Y-98228113D01*
X130582191Y-98286987D01*
X130733078Y-98317000D01*
X130886922Y-98317000D01*
X131037809Y-98286987D01*
X131179942Y-98228113D01*
X131307859Y-98142642D01*
X131416642Y-98033859D01*
X131502113Y-97905942D01*
X131560987Y-97763809D01*
X131591000Y-97612922D01*
X131591000Y-97459078D01*
X131560987Y-97308191D01*
X131502113Y-97166058D01*
X131416642Y-97038141D01*
X131307859Y-96929358D01*
X131179942Y-96843887D01*
X131037809Y-96785013D01*
X130886922Y-96755000D01*
X130733078Y-96755000D01*
X130582191Y-96785013D01*
X130440058Y-96843887D01*
X130312141Y-96929358D01*
X130211499Y-97030000D01*
X128733592Y-97030000D01*
X128518376Y-96814785D01*
X128502527Y-96795473D01*
X128425479Y-96732241D01*
X128337575Y-96685255D01*
X128242193Y-96656322D01*
X128167854Y-96649000D01*
X128167846Y-96649000D01*
X128143000Y-96646553D01*
X128118154Y-96649000D01*
X126671901Y-96649000D01*
X126668322Y-96642304D01*
X126620711Y-96584289D01*
X126562696Y-96536678D01*
X126531494Y-96520000D01*
X126562696Y-96503322D01*
X126620711Y-96455711D01*
X126668322Y-96397696D01*
X126703701Y-96331508D01*
X126725487Y-96259689D01*
X126732843Y-96185000D01*
X126732843Y-95585000D01*
X126725487Y-95510311D01*
X126703701Y-95438492D01*
X126668322Y-95372304D01*
X126620711Y-95314289D01*
X126562696Y-95266678D01*
X126531494Y-95250000D01*
X126562696Y-95233322D01*
X126620711Y-95185711D01*
X126668322Y-95127696D01*
X126703701Y-95061508D01*
X126725487Y-94989689D01*
X126732843Y-94915000D01*
X126732843Y-94613704D01*
X126746000Y-94615000D01*
X139498000Y-94615000D01*
X139498000Y-102079848D01*
X139179544Y-101603246D01*
X138680754Y-101104456D01*
X138094240Y-100712559D01*
X137442539Y-100442616D01*
X136750698Y-100305000D01*
X136045302Y-100305000D01*
X135353461Y-100442616D01*
X134701760Y-100712559D01*
X134115246Y-101104456D01*
X133616456Y-101603246D01*
X133224559Y-102189760D01*
X132954616Y-102841461D01*
X132817000Y-103533302D01*
X132817000Y-104238698D01*
X132954616Y-104930539D01*
X133224559Y-105582240D01*
X133616456Y-106168754D01*
X134115246Y-106667544D01*
X134591848Y-106986000D01*
X106454152Y-106986000D01*
X106930754Y-106667544D01*
X107429544Y-106168754D01*
X107821441Y-105582240D01*
X108091384Y-104930539D01*
X108179781Y-104486134D01*
X113923000Y-104486134D01*
X113923000Y-104777866D01*
X113979914Y-105063992D01*
X114091555Y-105333517D01*
X114253632Y-105576083D01*
X114459917Y-105782368D01*
X114702483Y-105944445D01*
X114972008Y-106056086D01*
X115258134Y-106113000D01*
X115549866Y-106113000D01*
X115835992Y-106056086D01*
X116105517Y-105944445D01*
X116348083Y-105782368D01*
X116554368Y-105576083D01*
X116716445Y-105333517D01*
X116828086Y-105063992D01*
X116834449Y-105032000D01*
X117921157Y-105032000D01*
X117921157Y-106232000D01*
X117928513Y-106306689D01*
X117950299Y-106378508D01*
X117985678Y-106444696D01*
X118033289Y-106502711D01*
X118091304Y-106550322D01*
X118157492Y-106585701D01*
X118229311Y-106607487D01*
X118304000Y-106614843D01*
X119504000Y-106614843D01*
X119578689Y-106607487D01*
X119650508Y-106585701D01*
X119716696Y-106550322D01*
X119774711Y-106502711D01*
X119822322Y-106444696D01*
X119857701Y-106378508D01*
X119879487Y-106306689D01*
X119886843Y-106232000D01*
X119886843Y-105535380D01*
X119923000Y-105535380D01*
X119923000Y-105728620D01*
X119960699Y-105918147D01*
X120034649Y-106096678D01*
X120142007Y-106257351D01*
X120278649Y-106393993D01*
X120439322Y-106501351D01*
X120617853Y-106575301D01*
X120807380Y-106613000D01*
X121000620Y-106613000D01*
X121190147Y-106575301D01*
X121368678Y-106501351D01*
X121529351Y-106393993D01*
X121665993Y-106257351D01*
X121773351Y-106096678D01*
X121847301Y-105918147D01*
X121885000Y-105728620D01*
X121885000Y-105535380D01*
X121923000Y-105535380D01*
X121923000Y-105728620D01*
X121960699Y-105918147D01*
X122034649Y-106096678D01*
X122142007Y-106257351D01*
X122278649Y-106393993D01*
X122439322Y-106501351D01*
X122617853Y-106575301D01*
X122807380Y-106613000D01*
X123000620Y-106613000D01*
X123190147Y-106575301D01*
X123368678Y-106501351D01*
X123529351Y-106393993D01*
X123665993Y-106257351D01*
X123773351Y-106096678D01*
X123847301Y-105918147D01*
X123885000Y-105728620D01*
X123885000Y-105535380D01*
X123847301Y-105345853D01*
X123773351Y-105167322D01*
X123665993Y-105006649D01*
X123529351Y-104870007D01*
X123368678Y-104762649D01*
X123190147Y-104688699D01*
X123000620Y-104651000D01*
X122807380Y-104651000D01*
X122617853Y-104688699D01*
X122439322Y-104762649D01*
X122278649Y-104870007D01*
X122142007Y-105006649D01*
X122034649Y-105167322D01*
X121960699Y-105345853D01*
X121923000Y-105535380D01*
X121885000Y-105535380D01*
X121847301Y-105345853D01*
X121773351Y-105167322D01*
X121665993Y-105006649D01*
X121529351Y-104870007D01*
X121368678Y-104762649D01*
X121190147Y-104688699D01*
X121000620Y-104651000D01*
X120807380Y-104651000D01*
X120617853Y-104688699D01*
X120439322Y-104762649D01*
X120278649Y-104870007D01*
X120142007Y-105006649D01*
X120034649Y-105167322D01*
X119960699Y-105345853D01*
X119923000Y-105535380D01*
X119886843Y-105535380D01*
X119886843Y-105032000D01*
X119879487Y-104957311D01*
X119857701Y-104885492D01*
X119822322Y-104819304D01*
X119774711Y-104761289D01*
X119716696Y-104713678D01*
X119650508Y-104678299D01*
X119578689Y-104656513D01*
X119504000Y-104649157D01*
X118304000Y-104649157D01*
X118229311Y-104656513D01*
X118157492Y-104678299D01*
X118091304Y-104713678D01*
X118033289Y-104761289D01*
X117985678Y-104819304D01*
X117950299Y-104885492D01*
X117928513Y-104957311D01*
X117921157Y-105032000D01*
X116834449Y-105032000D01*
X116885000Y-104777866D01*
X116885000Y-104486134D01*
X116828086Y-104200008D01*
X116716445Y-103930483D01*
X116554368Y-103687917D01*
X116401831Y-103535380D01*
X117923000Y-103535380D01*
X117923000Y-103728620D01*
X117960699Y-103918147D01*
X118034649Y-104096678D01*
X118142007Y-104257351D01*
X118278649Y-104393993D01*
X118439322Y-104501351D01*
X118617853Y-104575301D01*
X118807380Y-104613000D01*
X119000620Y-104613000D01*
X119190147Y-104575301D01*
X119368678Y-104501351D01*
X119529351Y-104393993D01*
X119665993Y-104257351D01*
X119773351Y-104096678D01*
X119847301Y-103918147D01*
X119885000Y-103728620D01*
X119885000Y-103535380D01*
X119923000Y-103535380D01*
X119923000Y-103728620D01*
X119960699Y-103918147D01*
X120034649Y-104096678D01*
X120142007Y-104257351D01*
X120278649Y-104393993D01*
X120439322Y-104501351D01*
X120617853Y-104575301D01*
X120807380Y-104613000D01*
X121000620Y-104613000D01*
X121190147Y-104575301D01*
X121368678Y-104501351D01*
X121529351Y-104393993D01*
X121665993Y-104257351D01*
X121773351Y-104096678D01*
X121847301Y-103918147D01*
X121885000Y-103728620D01*
X121885000Y-103535380D01*
X121923000Y-103535380D01*
X121923000Y-103728620D01*
X121960699Y-103918147D01*
X122034649Y-104096678D01*
X122142007Y-104257351D01*
X122278649Y-104393993D01*
X122439322Y-104501351D01*
X122617853Y-104575301D01*
X122807380Y-104613000D01*
X123000620Y-104613000D01*
X123190147Y-104575301D01*
X123368678Y-104501351D01*
X123391451Y-104486134D01*
X124923000Y-104486134D01*
X124923000Y-104777866D01*
X124979914Y-105063992D01*
X125091555Y-105333517D01*
X125253632Y-105576083D01*
X125459917Y-105782368D01*
X125702483Y-105944445D01*
X125972008Y-106056086D01*
X126258134Y-106113000D01*
X126549866Y-106113000D01*
X126835992Y-106056086D01*
X127105517Y-105944445D01*
X127348083Y-105782368D01*
X127554368Y-105576083D01*
X127716445Y-105333517D01*
X127828086Y-105063992D01*
X127885000Y-104777866D01*
X127885000Y-104486134D01*
X127828086Y-104200008D01*
X127716445Y-103930483D01*
X127554368Y-103687917D01*
X127348083Y-103481632D01*
X127105517Y-103319555D01*
X126835992Y-103207914D01*
X126549866Y-103151000D01*
X126258134Y-103151000D01*
X125972008Y-103207914D01*
X125702483Y-103319555D01*
X125459917Y-103481632D01*
X125253632Y-103687917D01*
X125091555Y-103930483D01*
X124979914Y-104200008D01*
X124923000Y-104486134D01*
X123391451Y-104486134D01*
X123529351Y-104393993D01*
X123665993Y-104257351D01*
X123773351Y-104096678D01*
X123847301Y-103918147D01*
X123885000Y-103728620D01*
X123885000Y-103535380D01*
X123847301Y-103345853D01*
X123773351Y-103167322D01*
X123665993Y-103006649D01*
X123529351Y-102870007D01*
X123368678Y-102762649D01*
X123190147Y-102688699D01*
X123000620Y-102651000D01*
X122807380Y-102651000D01*
X122617853Y-102688699D01*
X122439322Y-102762649D01*
X122278649Y-102870007D01*
X122142007Y-103006649D01*
X122034649Y-103167322D01*
X121960699Y-103345853D01*
X121923000Y-103535380D01*
X121885000Y-103535380D01*
X121847301Y-103345853D01*
X121773351Y-103167322D01*
X121665993Y-103006649D01*
X121529351Y-102870007D01*
X121368678Y-102762649D01*
X121190147Y-102688699D01*
X121000620Y-102651000D01*
X120807380Y-102651000D01*
X120617853Y-102688699D01*
X120439322Y-102762649D01*
X120278649Y-102870007D01*
X120142007Y-103006649D01*
X120034649Y-103167322D01*
X119960699Y-103345853D01*
X119923000Y-103535380D01*
X119885000Y-103535380D01*
X119847301Y-103345853D01*
X119773351Y-103167322D01*
X119665993Y-103006649D01*
X119529351Y-102870007D01*
X119368678Y-102762649D01*
X119190147Y-102688699D01*
X119000620Y-102651000D01*
X118807380Y-102651000D01*
X118617853Y-102688699D01*
X118439322Y-102762649D01*
X118278649Y-102870007D01*
X118142007Y-103006649D01*
X118034649Y-103167322D01*
X117960699Y-103345853D01*
X117923000Y-103535380D01*
X116401831Y-103535380D01*
X116348083Y-103481632D01*
X116105517Y-103319555D01*
X115835992Y-103207914D01*
X115549866Y-103151000D01*
X115258134Y-103151000D01*
X114972008Y-103207914D01*
X114702483Y-103319555D01*
X114459917Y-103481632D01*
X114253632Y-103687917D01*
X114091555Y-103930483D01*
X113979914Y-104200008D01*
X113923000Y-104486134D01*
X108179781Y-104486134D01*
X108229000Y-104238698D01*
X108229000Y-103533302D01*
X108091384Y-102841461D01*
X107821441Y-102189760D01*
X107429544Y-101603246D01*
X106930754Y-101104456D01*
X106344240Y-100712559D01*
X105692539Y-100442616D01*
X105000698Y-100305000D01*
X104295302Y-100305000D01*
X103603461Y-100442616D01*
X102951760Y-100712559D01*
X102365246Y-101104456D01*
X101866456Y-101603246D01*
X101548000Y-102079848D01*
X101548000Y-73316999D01*
X102549157Y-73316999D01*
X102549157Y-73967001D01*
X102561317Y-74090462D01*
X102597329Y-74209179D01*
X102655810Y-74318589D01*
X102734512Y-74414488D01*
X102830411Y-74493190D01*
X102939821Y-74551671D01*
X103058538Y-74587683D01*
X103181999Y-74599843D01*
X104082001Y-74599843D01*
X104205462Y-74587683D01*
X104324179Y-74551671D01*
X104433589Y-74493190D01*
X104529488Y-74414488D01*
X104608190Y-74318589D01*
X104666671Y-74209179D01*
X104692327Y-74124600D01*
X105150295Y-74124600D01*
X105174000Y-74126935D01*
X105197705Y-74124600D01*
X105197707Y-74124600D01*
X105268606Y-74117617D01*
X105359577Y-74090022D01*
X105443415Y-74045209D01*
X105516901Y-73984901D01*
X105532017Y-73966482D01*
X105827400Y-73671100D01*
X105932137Y-73671100D01*
X105942317Y-73774462D01*
X105978329Y-73893179D01*
X106036810Y-74002589D01*
X106115512Y-74098488D01*
X106211411Y-74177190D01*
X106320821Y-74235671D01*
X106439538Y-74271683D01*
X106563000Y-74283843D01*
X107813000Y-74283843D01*
X107936462Y-74271683D01*
X108055179Y-74235671D01*
X108164589Y-74177190D01*
X108260488Y-74098488D01*
X108339190Y-74002589D01*
X108397671Y-73893179D01*
X108433683Y-73774462D01*
X108445843Y-73651000D01*
X108445843Y-72726000D01*
X108433683Y-72602538D01*
X108397671Y-72483821D01*
X108339190Y-72374411D01*
X108260488Y-72278512D01*
X108164589Y-72199810D01*
X108055179Y-72141329D01*
X107936462Y-72105317D01*
X107813000Y-72093157D01*
X106563000Y-72093157D01*
X106439538Y-72105317D01*
X106320821Y-72141329D01*
X106211411Y-72199810D01*
X106115512Y-72278512D01*
X106036810Y-72374411D01*
X105978329Y-72483821D01*
X105942317Y-72602538D01*
X105932137Y-72705900D01*
X105651207Y-72705900D01*
X105627500Y-72703565D01*
X105532893Y-72712883D01*
X105468787Y-72732329D01*
X105441923Y-72740478D01*
X105358085Y-72785291D01*
X105284599Y-72845599D01*
X105269487Y-72864013D01*
X104974101Y-73159400D01*
X104692327Y-73159400D01*
X104666671Y-73074821D01*
X104608190Y-72965411D01*
X104529488Y-72869512D01*
X104433589Y-72790810D01*
X104324179Y-72732329D01*
X104205462Y-72696317D01*
X104082001Y-72684157D01*
X103181999Y-72684157D01*
X103058538Y-72696317D01*
X102939821Y-72732329D01*
X102830411Y-72790810D01*
X102734512Y-72869512D01*
X102655810Y-72965411D01*
X102597329Y-73074821D01*
X102561317Y-73193538D01*
X102549157Y-73316999D01*
X101548000Y-73316999D01*
X101548000Y-70132152D01*
X101866456Y-70608754D01*
X102365246Y-71107544D01*
X102951760Y-71499441D01*
X103603461Y-71769384D01*
X104295302Y-71907000D01*
X105000698Y-71907000D01*
X105692539Y-71769384D01*
X106344240Y-71499441D01*
X106930754Y-71107544D01*
X107429544Y-70608754D01*
X107821441Y-70022240D01*
X108091384Y-69370539D01*
X108229000Y-68678698D01*
X108229000Y-68430757D01*
X110529000Y-68430757D01*
X110529000Y-68673243D01*
X110576307Y-68911069D01*
X110669102Y-69135097D01*
X110803820Y-69336717D01*
X110975283Y-69508180D01*
X111176903Y-69642898D01*
X111400931Y-69735693D01*
X111638757Y-69783000D01*
X111881243Y-69783000D01*
X112119069Y-69735693D01*
X112343097Y-69642898D01*
X112544717Y-69508180D01*
X112716180Y-69336717D01*
X112850898Y-69135097D01*
X112943693Y-68911069D01*
X112991000Y-68673243D01*
X112991000Y-68430757D01*
X128029000Y-68430757D01*
X128029000Y-68673243D01*
X128076307Y-68911069D01*
X128169102Y-69135097D01*
X128303820Y-69336717D01*
X128475283Y-69508180D01*
X128676903Y-69642898D01*
X128900931Y-69735693D01*
X129138757Y-69783000D01*
X129381243Y-69783000D01*
X129619069Y-69735693D01*
X129843097Y-69642898D01*
X130044717Y-69508180D01*
X130216180Y-69336717D01*
X130350898Y-69135097D01*
X130443693Y-68911069D01*
X130491000Y-68673243D01*
X130491000Y-68430757D01*
X130443693Y-68192931D01*
X130350898Y-67968903D01*
X130216180Y-67767283D01*
X130044717Y-67595820D01*
X129843097Y-67461102D01*
X129619069Y-67368307D01*
X129381243Y-67321000D01*
X129138757Y-67321000D01*
X128900931Y-67368307D01*
X128676903Y-67461102D01*
X128475283Y-67595820D01*
X128303820Y-67767283D01*
X128169102Y-67968903D01*
X128076307Y-68192931D01*
X128029000Y-68430757D01*
X112991000Y-68430757D01*
X112943693Y-68192931D01*
X112850898Y-67968903D01*
X112716180Y-67767283D01*
X112544717Y-67595820D01*
X112343097Y-67461102D01*
X112119069Y-67368307D01*
X111881243Y-67321000D01*
X111638757Y-67321000D01*
X111400931Y-67368307D01*
X111176903Y-67461102D01*
X110975283Y-67595820D01*
X110803820Y-67767283D01*
X110669102Y-67968903D01*
X110576307Y-68192931D01*
X110529000Y-68430757D01*
X108229000Y-68430757D01*
X108229000Y-67973302D01*
X108091384Y-67281461D01*
X107821441Y-66629760D01*
X107429544Y-66043246D01*
X106930754Y-65544456D01*
X106491567Y-65251000D01*
X134554433Y-65251000D01*
X134115246Y-65544456D01*
G37*
G04 #@! TD.AperFunction*
M02*
