G04 #@! TF.GenerationSoftware,KiCad,Pcbnew,9.0.7*
G04 #@! TF.CreationDate,2026-02-04T21:54:15-05:00*
G04 #@! TF.ProjectId,usbdbg,75736264-6267-42e6-9b69-6361645f7063,rev?*
G04 #@! TF.SameCoordinates,Original*
G04 #@! TF.FileFunction,Copper,L1,Top*
G04 #@! TF.FilePolarity,Positive*
%FSLAX46Y46*%
G04 Gerber Fmt 4.6, Leading zero omitted, Abs format (unit mm)*
G04 Created by KiCad (PCBNEW 9.0.7) date 2026-02-04 21:54:15*
%MOMM*%
%LPD*%
G01*
G04 APERTURE LIST*
G04 Aperture macros list*
%AMRoundRect*
0 Rectangle with rounded corners*
0 $1 Rounding radius*
0 $2 $3 $4 $5 $6 $7 $8 $9 X,Y pos of 4 corners*
0 Add a 4 corners polygon primitive as box body*
4,1,4,$2,$3,$4,$5,$6,$7,$8,$9,$2,$3,0*
0 Add four circle primitives for the rounded corners*
1,1,$1+$1,$2,$3*
1,1,$1+$1,$4,$5*
1,1,$1+$1,$6,$7*
1,1,$1+$1,$8,$9*
0 Add four rect primitives between the rounded corners*
20,1,$1+$1,$2,$3,$4,$5,0*
20,1,$1+$1,$4,$5,$6,$7,0*
20,1,$1+$1,$6,$7,$8,$9,0*
20,1,$1+$1,$8,$9,$2,$3,0*%
G04 Aperture macros list end*
G04 #@! TA.AperFunction,SMDPad,CuDef*
%ADD10RoundRect,0.237500X0.237500X-0.300000X0.237500X0.300000X-0.237500X0.300000X-0.237500X-0.300000X0*%
G04 #@! TD*
G04 #@! TA.AperFunction,ComponentPad*
%ADD11C,1.530000*%
G04 #@! TD*
G04 #@! TA.AperFunction,ComponentPad*
%ADD12C,0.800000*%
G04 #@! TD*
G04 #@! TA.AperFunction,ComponentPad*
%ADD13C,6.400000*%
G04 #@! TD*
G04 #@! TA.AperFunction,SMDPad,CuDef*
%ADD14RoundRect,0.237500X0.250000X0.237500X-0.250000X0.237500X-0.250000X-0.237500X0.250000X-0.237500X0*%
G04 #@! TD*
G04 #@! TA.AperFunction,SMDPad,CuDef*
%ADD15RoundRect,0.150000X-0.875000X-0.150000X0.875000X-0.150000X0.875000X0.150000X-0.875000X0.150000X0*%
G04 #@! TD*
G04 #@! TA.AperFunction,SMDPad,CuDef*
%ADD16RoundRect,0.150000X0.825000X0.150000X-0.825000X0.150000X-0.825000X-0.150000X0.825000X-0.150000X0*%
G04 #@! TD*
G04 #@! TA.AperFunction,ComponentPad*
%ADD17R,1.700000X1.700000*%
G04 #@! TD*
G04 #@! TA.AperFunction,ComponentPad*
%ADD18C,1.700000*%
G04 #@! TD*
G04 #@! TA.AperFunction,WasherPad*
%ADD19O,0.990600X1.803400*%
G04 #@! TD*
G04 #@! TA.AperFunction,WasherPad*
%ADD20O,0.990600X2.209800*%
G04 #@! TD*
G04 #@! TA.AperFunction,SMDPad,CuDef*
%ADD21R,0.609600X1.143000*%
G04 #@! TD*
G04 #@! TA.AperFunction,SMDPad,CuDef*
%ADD22R,0.304800X1.143000*%
G04 #@! TD*
G04 #@! TA.AperFunction,SMDPad,CuDef*
%ADD23RoundRect,0.237500X0.300000X0.237500X-0.300000X0.237500X-0.300000X-0.237500X0.300000X-0.237500X0*%
G04 #@! TD*
G04 #@! TA.AperFunction,SMDPad,CuDef*
%ADD24RoundRect,0.250001X0.462499X0.624999X-0.462499X0.624999X-0.462499X-0.624999X0.462499X-0.624999X0*%
G04 #@! TD*
G04 #@! TA.AperFunction,SMDPad,CuDef*
%ADD25R,3.810000X4.241800*%
G04 #@! TD*
G04 #@! TA.AperFunction,SMDPad,CuDef*
%ADD26RoundRect,0.237500X-0.250000X-0.237500X0.250000X-0.237500X0.250000X0.237500X-0.250000X0.237500X0*%
G04 #@! TD*
G04 #@! TA.AperFunction,ComponentPad*
%ADD27C,1.574800*%
G04 #@! TD*
G04 #@! TA.AperFunction,ViaPad*
%ADD28C,0.800000*%
G04 #@! TD*
G04 #@! TA.AperFunction,Conductor*
%ADD29C,1.000000*%
G04 #@! TD*
G04 #@! TA.AperFunction,Conductor*
%ADD30C,0.500000*%
G04 #@! TD*
G04 #@! TA.AperFunction,Conductor*
%ADD31C,0.250000*%
G04 #@! TD*
G04 APERTURE END LIST*
D10*
G04 #@! TO.P,C2,1*
G04 #@! TO.N,Net-(U1-VUSB3V3)*
X186350000Y-61862500D03*
G04 #@! TO.P,C2,2*
G04 #@! TO.N,GND*
X186350000Y-60137500D03*
G04 #@! TD*
D11*
G04 #@! TO.P,GND,1,1*
G04 #@! TO.N,GND*
X176600000Y-38775000D03*
G04 #@! TD*
D12*
G04 #@! TO.P,H1,1,1*
G04 #@! TO.N,GND*
X176050000Y-28650000D03*
X176752944Y-26952944D03*
X176752944Y-30347056D03*
X178450000Y-26250000D03*
D13*
X178450000Y-28650000D03*
D12*
X178450000Y-31050000D03*
X180147056Y-26952944D03*
X180147056Y-30347056D03*
X180850000Y-28650000D03*
G04 #@! TD*
D14*
G04 #@! TO.P,R3,1*
G04 #@! TO.N,+5V*
X195997302Y-54907807D03*
G04 #@! TO.P,R3,2*
G04 #@! TO.N,/~{MCLR}*
X194172302Y-54907807D03*
G04 #@! TD*
D15*
G04 #@! TO.P,U2,1,TXCAN*
G04 #@! TO.N,Net-(U2-TXCAN)*
X184375000Y-42845000D03*
G04 #@! TO.P,U2,2,RXCAN*
G04 #@! TO.N,Net-(U2-RXCAN)*
X184375000Y-44115000D03*
G04 #@! TO.P,U2,3,CLKOUT*
G04 #@! TO.N,unconnected-(U2-CLKOUT-Pad3)*
X184375000Y-45385000D03*
G04 #@! TO.P,U2,4,~{TX0RTS}*
G04 #@! TO.N,unconnected-(U2-~{TX0RTS}-Pad4)*
X184375000Y-46655000D03*
G04 #@! TO.P,U2,5,~{TX1RTS}*
G04 #@! TO.N,unconnected-(U2-~{TX1RTS}-Pad5)*
X184375000Y-47925000D03*
G04 #@! TO.P,U2,6,~{TX2RTS}*
G04 #@! TO.N,unconnected-(U2-~{TX2RTS}-Pad6)*
X184375000Y-49195000D03*
G04 #@! TO.P,U2,7,OSC2*
G04 #@! TO.N,unconnected-(U2-OSC2-Pad7)*
X184375000Y-50465000D03*
G04 #@! TO.P,U2,8,OSC1*
G04 #@! TO.N,/CLKOUT*
X184375000Y-51735000D03*
G04 #@! TO.P,U2,9,VSS*
G04 #@! TO.N,GND*
X184375000Y-53005000D03*
G04 #@! TO.P,U2,10,~{RX1BF}*
G04 #@! TO.N,unconnected-(U2-~{RX1BF}-Pad10)*
X193675000Y-53005000D03*
G04 #@! TO.P,U2,11,~{RX0BF}*
G04 #@! TO.N,unconnected-(U2-~{RX0BF}-Pad11)*
X193675000Y-51735000D03*
G04 #@! TO.P,U2,12,~{INT}*
G04 #@! TO.N,/CAN_INT*
X193675000Y-50465000D03*
G04 #@! TO.P,U2,13,SCK*
G04 #@! TO.N,/ICSPDAT*
X193675000Y-49195000D03*
G04 #@! TO.P,U2,14,SI*
G04 #@! TO.N,/MOSI*
X193675000Y-47925000D03*
G04 #@! TO.P,U2,15,SO*
G04 #@! TO.N,/ICSPCLK*
X193675000Y-46655000D03*
G04 #@! TO.P,U2,16,~{CS}*
G04 #@! TO.N,/CS*
X193675000Y-45385000D03*
G04 #@! TO.P,U2,17,~{RESET}*
G04 #@! TO.N,+5V*
X193675000Y-44115000D03*
G04 #@! TO.P,U2,18,VDD*
X193675000Y-42845000D03*
G04 #@! TD*
D16*
G04 #@! TO.P,U1,1,VDD*
G04 #@! TO.N,+5V*
X193975000Y-65724900D03*
G04 #@! TO.P,U1,2,RA5*
G04 #@! TO.N,/CAN_INT*
X193975000Y-64454900D03*
G04 #@! TO.P,U1,3,RA4*
G04 #@! TO.N,/CLKOUT*
X193975000Y-63184900D03*
G04 #@! TO.P,U1,4,RA3/~{MCLR}*
G04 #@! TO.N,/~{MCLR}*
X193975000Y-61914900D03*
G04 #@! TO.P,U1,5,RC5*
G04 #@! TO.N,Net-(D2-K)*
X193975000Y-60644900D03*
G04 #@! TO.P,U1,6,RC4*
G04 #@! TO.N,Net-(D1-K)*
X193975000Y-59374900D03*
G04 #@! TO.P,U1,7,RC3*
G04 #@! TO.N,/CS*
X193975000Y-58104900D03*
G04 #@! TO.P,U1,8,RC2*
G04 #@! TO.N,/MOSI*
X189025000Y-58104900D03*
G04 #@! TO.P,U1,9,RC1/ICSPCLK*
G04 #@! TO.N,/ICSPCLK*
X189025000Y-59374900D03*
G04 #@! TO.P,U1,10,RC0/ICSPDAT*
G04 #@! TO.N,/ICSPDAT*
X189025000Y-60644900D03*
G04 #@! TO.P,U1,11,VUSB3V3*
G04 #@! TO.N,Net-(U1-VUSB3V3)*
X189025000Y-61914900D03*
G04 #@! TO.P,U1,12,RA1/D-*
G04 #@! TO.N,/USB_D-*
X189025000Y-63184900D03*
G04 #@! TO.P,U1,13,RA0/D+*
G04 #@! TO.N,/USB_D+*
X189025000Y-64454900D03*
G04 #@! TO.P,U1,14,VSS*
G04 #@! TO.N,GND*
X189025000Y-65724900D03*
G04 #@! TD*
D17*
G04 #@! TO.P,PWR,1,A*
G04 #@! TO.N,+5V*
X196037200Y-34975800D03*
D18*
G04 #@! TO.P,PWR,2,B*
G04 #@! TO.N,Net-(J3-Pin_1)*
X196037200Y-32435800D03*
G04 #@! TD*
D11*
G04 #@! TO.P,5V,1,1*
G04 #@! TO.N,+5V*
X176600000Y-50775000D03*
G04 #@! TD*
D19*
G04 #@! TO.P,J4,*
G04 #@! TO.N,*
X181305000Y-70895050D03*
D20*
X181305000Y-74895051D03*
D19*
X189945000Y-70895050D03*
D20*
X189945000Y-74895051D03*
D21*
G04 #@! TO.P,J4,A1,GND*
G04 #@! TO.N,GND*
X182424999Y-70320051D03*
G04 #@! TO.P,J4,A4,VBUS*
G04 #@! TO.N,Net-(F1-Pad2)*
X183225000Y-70320051D03*
D22*
G04 #@! TO.P,J4,A5,CC1*
G04 #@! TO.N,Net-(J4-CC1)*
X184375000Y-70320051D03*
G04 #@! TO.P,J4,A6,D+*
G04 #@! TO.N,/USB_D+*
X185375000Y-70320051D03*
G04 #@! TO.P,J4,A7,D-*
G04 #@! TO.N,/USB_D-*
X185875000Y-70320051D03*
G04 #@! TO.P,J4,A8*
G04 #@! TO.N,N/C*
X186875000Y-70320051D03*
D21*
G04 #@! TO.P,J4,A9,VBUS*
G04 #@! TO.N,Net-(F1-Pad2)*
X188025000Y-70320051D03*
G04 #@! TO.P,J4,A12,GND*
G04 #@! TO.N,GND*
X188824999Y-70320051D03*
D22*
G04 #@! TO.P,J4,B5,CC2*
G04 #@! TO.N,Net-(J4-CC2)*
X187375060Y-70320051D03*
G04 #@! TO.P,J4,B6,D+*
G04 #@! TO.N,/USB_D+*
X186375059Y-70320051D03*
G04 #@! TO.P,J4,B7,D-*
G04 #@! TO.N,/USB_D-*
X184875060Y-70320051D03*
G04 #@! TO.P,J4,B8*
G04 #@! TO.N,N/C*
X183875059Y-70320051D03*
G04 #@! TD*
D23*
G04 #@! TO.P,C3,1*
G04 #@! TO.N,+5V*
X193597700Y-40650000D03*
G04 #@! TO.P,C3,2*
G04 #@! TO.N,GND*
X191872700Y-40650000D03*
G04 #@! TD*
D24*
G04 #@! TO.P,D2,1,K*
G04 #@! TO.N,Net-(D2-K)*
X179087500Y-72725000D03*
G04 #@! TO.P,D2,2,A*
G04 #@! TO.N,Net-(D2-A)*
X176112500Y-72725000D03*
G04 #@! TD*
G04 #@! TO.P,D1,1,K*
G04 #@! TO.N,Net-(D1-K)*
X179087500Y-68950000D03*
G04 #@! TO.P,D1,2,A*
G04 #@! TO.N,Net-(D1-A)*
X176112500Y-68950000D03*
G04 #@! TD*
D23*
G04 #@! TO.P,C1,1*
G04 #@! TO.N,+5V*
X194716400Y-67411600D03*
G04 #@! TO.P,C1,2*
G04 #@! TO.N,GND*
X192991400Y-67411600D03*
G04 #@! TD*
D12*
G04 #@! TO.P,H2,1,1*
G04 #@! TO.N,GND*
X192050001Y-73650001D03*
X192752945Y-71952945D03*
X192752945Y-75347057D03*
X194450001Y-71250001D03*
D13*
X194450001Y-73650001D03*
D12*
X194450001Y-76050001D03*
X196147057Y-71952945D03*
X196147057Y-75347057D03*
X196850001Y-73650001D03*
G04 #@! TD*
D17*
G04 #@! TO.P,TERM,1,A*
G04 #@! TO.N,Net-(JP1-A)*
X176855529Y-34128245D03*
D18*
G04 #@! TO.P,TERM,2,B*
G04 #@! TO.N,/CANL*
X179395529Y-34128245D03*
G04 #@! TD*
D11*
G04 #@! TO.P,CANH,1,1*
G04 #@! TO.N,/CANH*
X176600000Y-42775000D03*
G04 #@! TD*
G04 #@! TO.P,CANL,1,1*
G04 #@! TO.N,/CANL*
X176600000Y-46775000D03*
G04 #@! TD*
D25*
G04 #@! TO.P,F1,1*
G04 #@! TO.N,+5V*
X179500000Y-57062300D03*
G04 #@! TO.P,F1,2*
G04 #@! TO.N,Net-(F1-Pad2)*
X179500000Y-63437700D03*
G04 #@! TD*
D26*
G04 #@! TO.P,R5,1*
G04 #@! TO.N,Net-(JP1-A)*
X179300500Y-36975000D03*
G04 #@! TO.P,R5,2*
G04 #@! TO.N,/CANH*
X181125500Y-36975000D03*
G04 #@! TD*
D27*
G04 #@! TO.P,J3,1,Pin_1*
G04 #@! TO.N,Net-(J3-Pin_1)*
X186225000Y-34250000D03*
G04 #@! TO.P,J3,2,Pin_2*
G04 #@! TO.N,GND*
X189224999Y-34250000D03*
G04 #@! TO.P,J3,3,Pin_3*
G04 #@! TO.N,/CANH*
X186225000Y-37249999D03*
G04 #@! TO.P,J3,4,Pin_4*
G04 #@! TO.N,/CANL*
X189224999Y-37249999D03*
G04 #@! TD*
D28*
G04 #@! TO.N,+5V*
X183235600Y-65354200D03*
X182092600Y-45085000D03*
X186410600Y-66548000D03*
X177575000Y-67500000D03*
X197256400Y-65836800D03*
X192735200Y-69824600D03*
X185648600Y-55956200D03*
X188671200Y-42926000D03*
X189471300Y-68160900D03*
G04 #@! TO.N,GND*
X188575000Y-71525000D03*
X192024000Y-67411600D03*
X186131200Y-59055000D03*
X182500000Y-52250000D03*
X187426600Y-65328800D03*
X182750000Y-71600000D03*
X188398204Y-68751396D03*
X182092600Y-69113400D03*
X190652400Y-40640000D03*
G04 #@! TO.N,Net-(D1-K)*
X191731900Y-60693300D03*
X190601600Y-63525400D03*
G04 #@! TO.N,Net-(D1-A)*
X176100000Y-70775000D03*
G04 #@! TO.N,Net-(D2-K)*
X191588863Y-63703513D03*
X191947800Y-62001400D03*
G04 #@! TO.N,Net-(D2-A)*
X176100000Y-74500000D03*
G04 #@! TO.N,/~{MCLR}*
X190100000Y-56700000D03*
G04 #@! TO.N,/ICSPDAT*
X188435084Y-48385084D03*
X190064393Y-50034193D03*
G04 #@! TO.N,/ICSPCLK*
X190220600Y-47070000D03*
G04 #@! TO.N,/USB_D-*
X185875000Y-71550000D03*
X184225000Y-68050000D03*
G04 #@! TO.N,/CANH*
X180060600Y-42113200D03*
G04 #@! TO.N,/CANL*
X180213000Y-43611800D03*
G04 #@! TO.N,/CAN_INT*
X191749000Y-51231800D03*
X192582800Y-64185800D03*
G04 #@! TO.N,/CLKOUT*
X190900000Y-59385200D03*
X186000000Y-53500000D03*
G04 #@! TO.N,/CS*
X191628200Y-58100000D03*
X191655700Y-45453300D03*
G04 #@! TO.N,Net-(U2-RXCAN)*
X185801000Y-43662600D03*
G04 #@! TO.N,Net-(U2-TXCAN)*
X184988200Y-42011600D03*
G04 #@! TO.N,Net-(F1-Pad2)*
X186103200Y-67716400D03*
X183235600Y-67208400D03*
G04 #@! TO.N,Net-(J4-CC1)*
X184375000Y-71750000D03*
G04 #@! TO.N,Net-(J4-CC2)*
X187375000Y-71750000D03*
G04 #@! TD*
D29*
G04 #@! TO.N,+5V*
X187401200Y-67462400D02*
X187207400Y-67268600D01*
X188772800Y-67462400D02*
X187401200Y-67462400D01*
X189471300Y-68160900D02*
X188772800Y-67462400D01*
X187207400Y-67268600D02*
X187207400Y-67259025D01*
X187207400Y-67259025D02*
X186496375Y-66548000D01*
D30*
G04 #@! TO.N,GND*
X188398204Y-68751396D02*
X188413594Y-68751396D01*
D31*
X190662400Y-40650000D02*
X190652400Y-40640000D01*
D30*
X188824999Y-70320051D02*
X188824999Y-71275001D01*
D31*
X192991400Y-67411600D02*
X192024000Y-67411600D01*
D30*
X188413594Y-68751396D02*
X188824999Y-69162801D01*
X182092600Y-69113400D02*
X182424999Y-69445799D01*
D31*
X191872700Y-40650000D02*
X190662400Y-40650000D01*
X186131200Y-59918700D02*
X186350000Y-60137500D01*
D30*
X188824999Y-71275001D02*
X188575000Y-71525000D01*
X182424999Y-70320051D02*
X182424999Y-71274999D01*
D31*
X186131200Y-59055000D02*
X186131200Y-59918700D01*
X192024000Y-67411600D02*
X191922400Y-67411600D01*
X189025000Y-65724900D02*
X187822700Y-65724900D01*
D30*
X182424999Y-71274999D02*
X182750000Y-71600000D01*
D31*
X183255000Y-53005000D02*
X182500000Y-52250000D01*
X187822700Y-65724900D02*
X187426600Y-65328800D01*
X191922400Y-67411600D02*
X191846200Y-67335400D01*
X184375000Y-53005000D02*
X183255000Y-53005000D01*
D30*
X188824999Y-69162801D02*
X188824999Y-70320051D01*
X182424999Y-69445799D02*
X182424999Y-70320051D01*
D31*
G04 #@! TO.N,Net-(U1-VUSB3V3)*
X189025000Y-61914900D02*
X186402400Y-61914900D01*
X186402400Y-61914900D02*
X186350000Y-61862500D01*
G04 #@! TO.N,Net-(D1-K)*
X193975000Y-59374900D02*
X193050300Y-59374900D01*
X193050300Y-59374900D02*
X191731900Y-60693300D01*
X189933269Y-72479200D02*
X181316731Y-72479200D01*
X179087500Y-70249969D02*
X179087500Y-68950000D01*
X190769500Y-71642969D02*
X189933269Y-72479200D01*
X190769500Y-63693300D02*
X190769500Y-71642969D01*
X181316731Y-72479200D02*
X179087500Y-70249969D01*
X190601600Y-63525400D02*
X190769500Y-63693300D01*
G04 #@! TO.N,Net-(D1-A)*
X176112500Y-70362500D02*
X176112500Y-68950000D01*
X176100000Y-70775000D02*
X176100000Y-70375000D01*
X176100000Y-70375000D02*
X176112500Y-70362500D01*
G04 #@! TO.N,Net-(D2-K)*
X191287400Y-64004976D02*
X191588863Y-63703513D01*
X190121405Y-72933400D02*
X191287400Y-71767405D01*
X179087500Y-72725000D02*
X179295900Y-72933400D01*
X193000001Y-60644900D02*
X191947800Y-61697101D01*
X191947800Y-61697101D02*
X191947800Y-62001400D01*
X191287400Y-71767405D02*
X191287400Y-64004976D01*
X179295900Y-72933400D02*
X190121405Y-72933400D01*
X193975000Y-60644900D02*
X193000001Y-60644900D01*
G04 #@! TO.N,Net-(D2-A)*
X176100000Y-72737500D02*
X176112500Y-72725000D01*
X176100000Y-74500000D02*
X176100000Y-72737500D01*
G04 #@! TO.N,/~{MCLR}*
X194172302Y-56022302D02*
X195650000Y-57500000D01*
X195164900Y-61914900D02*
X193975000Y-61914900D01*
X195650000Y-61429800D02*
X195164900Y-61914900D01*
X190100000Y-56700000D02*
X194850000Y-56700000D01*
X195650000Y-57500000D02*
X195650000Y-61429800D01*
X194172302Y-54907807D02*
X194172302Y-56022302D01*
X194850000Y-56700000D02*
X195650000Y-57500000D01*
G04 #@! TO.N,/ICSPDAT*
X190905000Y-49195000D02*
X193675000Y-49195000D01*
X187050000Y-59100000D02*
X188594900Y-60644900D01*
X187050000Y-59100000D02*
X187050000Y-49770168D01*
X187050000Y-49770168D02*
X188435084Y-48385084D01*
X190064393Y-50034193D02*
X190419993Y-49678593D01*
X188594900Y-60644900D02*
X189025000Y-60644900D01*
X190419993Y-49678593D02*
X190421407Y-49678593D01*
X190421407Y-49678593D02*
X190905000Y-49195000D01*
X189025000Y-60644900D02*
X188584700Y-60644900D01*
G04 #@! TO.N,/ICSPCLK*
X191190000Y-47070000D02*
X191605000Y-46655000D01*
X191605000Y-46655000D02*
X193675000Y-46655000D01*
X187650000Y-50200000D02*
X187650000Y-58974899D01*
X190220600Y-47629400D02*
X187650000Y-50200000D01*
X190220600Y-47070000D02*
X191190000Y-47070000D01*
X188050001Y-59374900D02*
X189025000Y-59374900D01*
X187650000Y-58974899D02*
X188050001Y-59374900D01*
X190220600Y-47070000D02*
X190220600Y-47629400D01*
G04 #@! TO.N,/USB_D-*
X189025000Y-63184900D02*
X187840100Y-63184900D01*
X186932664Y-63575000D02*
X184875060Y-65632604D01*
X184875060Y-67399940D02*
X184875060Y-70320051D01*
X187840100Y-63184900D02*
X187450000Y-63575000D01*
X185875000Y-70320051D02*
X185875000Y-71550000D01*
X184875060Y-65632604D02*
X184875060Y-67399940D01*
X184225000Y-68050000D02*
X184875060Y-67399940D01*
X187450000Y-63575000D02*
X186932664Y-63575000D01*
G04 #@! TO.N,/USB_D+*
X187854900Y-64454900D02*
X187429200Y-64029200D01*
X185375000Y-68250000D02*
X186375059Y-69250059D01*
X187120800Y-64029200D02*
X185375000Y-65775000D01*
X187429200Y-64029200D02*
X187120800Y-64029200D01*
X185375000Y-68250000D02*
X185375000Y-70320051D01*
X185375000Y-65775000D02*
X185375000Y-68250000D01*
X189025000Y-64454900D02*
X187854900Y-64454900D01*
X186375059Y-69250059D02*
X186375059Y-70320051D01*
D29*
G04 #@! TO.N,Net-(J3-Pin_1)*
X196037200Y-32435800D02*
X188039200Y-32435800D01*
X188039200Y-32435800D02*
X186225000Y-34250000D01*
D31*
G04 #@! TO.N,/CANH*
X180060600Y-42113200D02*
X179398800Y-42775000D01*
X185950001Y-36975000D02*
X186225000Y-37249999D01*
X179398800Y-42775000D02*
X176600000Y-42775000D01*
X181610000Y-36975000D02*
X185950001Y-36975000D01*
G04 #@! TO.N,/CANL*
X180954284Y-35687000D02*
X179395529Y-34128245D01*
X189224999Y-37249999D02*
X187662000Y-35687000D01*
X179763200Y-43611800D02*
X176600000Y-46775000D01*
X187662000Y-35687000D02*
X180954284Y-35687000D01*
X180213000Y-43611800D02*
X179763200Y-43611800D01*
G04 #@! TO.N,Net-(JP1-A)*
X179702284Y-36975000D02*
X176855529Y-34128245D01*
G04 #@! TO.N,/CAN_INT*
X192515800Y-50465000D02*
X193675000Y-50465000D01*
X191749000Y-51231800D02*
X192515800Y-50465000D01*
X192851900Y-64454900D02*
X192582800Y-64185800D01*
X193975000Y-64454900D02*
X192851900Y-64454900D01*
G04 #@! TO.N,/CLKOUT*
X185550000Y-51750000D02*
X184390000Y-51750000D01*
X190900000Y-61984845D02*
X190900000Y-59385200D01*
X186000000Y-53500000D02*
X186000000Y-52200000D01*
X193975000Y-63184900D02*
X192100055Y-63184900D01*
X192100055Y-63184900D02*
X190900000Y-61984845D01*
X186000000Y-52200000D02*
X185550000Y-51750000D01*
X184390000Y-51750000D02*
X184375000Y-51735000D01*
G04 #@! TO.N,/CS*
X191633100Y-58104900D02*
X193975000Y-58104900D01*
X193675000Y-45385000D02*
X191724000Y-45385000D01*
X191724000Y-45385000D02*
X191655700Y-45453300D01*
X191628200Y-58100000D02*
X191633100Y-58104900D01*
X191655700Y-45453300D02*
X191592200Y-45516800D01*
G04 #@! TO.N,/MOSI*
X188729200Y-55579200D02*
X189025000Y-55875000D01*
X193675000Y-47925000D02*
X191143755Y-47925000D01*
X191143755Y-47925000D02*
X188729200Y-50339555D01*
X189025000Y-55875000D02*
X189025000Y-58104900D01*
X188729200Y-50339555D02*
X188729200Y-55579200D01*
G04 #@! TO.N,Net-(U2-RXCAN)*
X185801000Y-43662600D02*
X184827400Y-43662600D01*
X184827400Y-43662600D02*
X184375000Y-44115000D01*
G04 #@! TO.N,Net-(U2-TXCAN)*
X184375000Y-42845000D02*
X184375000Y-42624800D01*
X184375000Y-42624800D02*
X184988200Y-42011600D01*
D30*
G04 #@! TO.N,Net-(F1-Pad2)*
X183225000Y-67162700D02*
X179500000Y-63437700D01*
X186156600Y-67716400D02*
X188025000Y-69584800D01*
X183225000Y-70320051D02*
X183225000Y-67162700D01*
X188025000Y-69584800D02*
X188025000Y-70320051D01*
X186103200Y-67716400D02*
X186156600Y-67716400D01*
D31*
G04 #@! TO.N,Net-(J4-CC1)*
X184375000Y-70320051D02*
X184375000Y-71750000D01*
G04 #@! TO.N,Net-(J4-CC2)*
X187375060Y-71749940D02*
X187375000Y-71750000D01*
X187375060Y-70320051D02*
X187375060Y-71749940D01*
G04 #@! TD*
G04 #@! TA.AperFunction,Conductor*
G04 #@! TO.N,+5V*
G36*
X194453033Y-25000649D02*
G01*
X194769771Y-25016209D01*
X194776547Y-25016731D01*
X194849882Y-25024438D01*
X194855006Y-25025088D01*
X195131308Y-25066074D01*
X195138862Y-25067436D01*
X195205332Y-25081564D01*
X195209631Y-25082559D01*
X195486939Y-25152021D01*
X195495103Y-25154367D01*
X195549191Y-25171941D01*
X195552561Y-25173091D01*
X195832822Y-25273371D01*
X195841469Y-25276837D01*
X195874916Y-25291729D01*
X195877478Y-25292905D01*
X195977156Y-25340048D01*
X196164868Y-25428830D01*
X196175591Y-25434562D01*
X196309937Y-25515086D01*
X196472324Y-25612417D01*
X196482439Y-25619175D01*
X196610775Y-25714355D01*
X196760329Y-25825272D01*
X196769735Y-25832992D01*
X197026079Y-26065329D01*
X197034670Y-26073920D01*
X197231808Y-26291428D01*
X197267007Y-26330264D01*
X197274727Y-26339670D01*
X197480822Y-26617557D01*
X197487582Y-26627675D01*
X197665431Y-26924398D01*
X197671168Y-26935130D01*
X197807085Y-27222502D01*
X197808269Y-27225082D01*
X197823161Y-27258529D01*
X197826633Y-27267191D01*
X197926885Y-27547374D01*
X197928065Y-27550832D01*
X197945630Y-27604893D01*
X197947983Y-27613081D01*
X198017433Y-27890343D01*
X198018439Y-27894691D01*
X198032559Y-27961120D01*
X198033927Y-27968706D01*
X198074903Y-28244938D01*
X198075566Y-28250171D01*
X198083263Y-28323401D01*
X198083793Y-28330279D01*
X198099351Y-28646967D01*
X198099500Y-28653051D01*
X198099500Y-72167408D01*
X198079815Y-72234447D01*
X198027011Y-72280202D01*
X197957853Y-72290146D01*
X197894297Y-72261121D01*
X197860939Y-72214861D01*
X197799248Y-72065925D01*
X197790734Y-72049997D01*
X197627860Y-71745280D01*
X197627859Y-71745278D01*
X197627854Y-71745269D01*
X197425855Y-71442957D01*
X197195198Y-71161900D01*
X197195197Y-71161899D01*
X197195193Y-71161894D01*
X196938107Y-70904808D01*
X196657050Y-70674151D01*
X196657047Y-70674149D01*
X196657045Y-70674147D01*
X196354733Y-70472148D01*
X196354728Y-70472145D01*
X196354721Y-70472141D01*
X196034084Y-70300757D01*
X196034079Y-70300755D01*
X196020074Y-70294954D01*
X195891392Y-70241652D01*
X195698166Y-70161615D01*
X195350224Y-70056068D01*
X195350213Y-70056065D01*
X194993631Y-69985138D01*
X194705933Y-69956803D01*
X194631795Y-69949501D01*
X194268207Y-69949501D01*
X194196394Y-69956574D01*
X193906370Y-69985138D01*
X193549788Y-70056065D01*
X193549777Y-70056068D01*
X193201835Y-70161615D01*
X192865922Y-70300755D01*
X192865917Y-70300757D01*
X192545280Y-70472141D01*
X192545262Y-70472152D01*
X192242965Y-70674141D01*
X192242953Y-70674149D01*
X192115564Y-70778695D01*
X192051254Y-70806007D01*
X191982387Y-70794216D01*
X191930827Y-70747063D01*
X191912900Y-70682841D01*
X191912900Y-68436100D01*
X191913219Y-68435011D01*
X191912919Y-68433916D01*
X191923047Y-68401543D01*
X191932585Y-68369061D01*
X191933441Y-68368318D01*
X191933781Y-68367234D01*
X191959805Y-68345473D01*
X191985389Y-68323306D01*
X191986796Y-68322905D01*
X191987383Y-68322416D01*
X191991651Y-68321526D01*
X192021417Y-68313070D01*
X192029125Y-68312100D01*
X192112691Y-68312100D01*
X192256613Y-68283471D01*
X192260983Y-68282922D01*
X192291294Y-68287826D01*
X192321866Y-68290562D01*
X192328401Y-68293830D01*
X192329956Y-68294082D01*
X192331278Y-68295269D01*
X192341560Y-68300411D01*
X192377384Y-68322508D01*
X192541147Y-68376774D01*
X192642223Y-68387100D01*
X193340576Y-68387099D01*
X193340584Y-68387098D01*
X193340587Y-68387098D01*
X193395930Y-68381444D01*
X193441653Y-68376774D01*
X193605416Y-68322508D01*
X193752250Y-68231940D01*
X193766571Y-68217618D01*
X193827889Y-68184133D01*
X193897581Y-68189114D01*
X193941934Y-68217617D01*
X193955861Y-68231544D01*
X193955865Y-68231547D01*
X194102588Y-68322048D01*
X194102599Y-68322053D01*
X194266247Y-68376280D01*
X194367251Y-68386599D01*
X194966400Y-68386599D01*
X195065540Y-68386599D01*
X195065554Y-68386598D01*
X195166552Y-68376280D01*
X195330200Y-68322053D01*
X195330211Y-68322048D01*
X195476934Y-68231547D01*
X195476938Y-68231544D01*
X195598844Y-68109638D01*
X195598847Y-68109634D01*
X195689348Y-67962911D01*
X195689353Y-67962900D01*
X195743580Y-67799252D01*
X195753899Y-67698254D01*
X195753900Y-67698241D01*
X195753900Y-67661600D01*
X194966400Y-67661600D01*
X194966400Y-68386599D01*
X194367251Y-68386599D01*
X194466400Y-68386598D01*
X194466400Y-67161600D01*
X194966400Y-67161600D01*
X195753899Y-67161600D01*
X195753899Y-67124960D01*
X195753898Y-67124945D01*
X195743580Y-67023947D01*
X195689353Y-66860299D01*
X195689348Y-66860288D01*
X195598847Y-66713565D01*
X195598844Y-66713561D01*
X195476938Y-66591655D01*
X195476934Y-66591652D01*
X195330211Y-66501151D01*
X195330200Y-66501146D01*
X195166552Y-66446919D01*
X195065554Y-66436600D01*
X194966400Y-66436600D01*
X194966400Y-67161600D01*
X194466400Y-67161600D01*
X194466400Y-66436599D01*
X194367260Y-66436600D01*
X194367244Y-66436601D01*
X194266247Y-66446919D01*
X194102599Y-66501146D01*
X194102588Y-66501151D01*
X193955865Y-66591652D01*
X193941932Y-66605585D01*
X193880608Y-66639068D01*
X193810916Y-66634082D01*
X193766572Y-66605582D01*
X193752251Y-66591261D01*
X193752250Y-66591260D01*
X193622290Y-66511100D01*
X193605418Y-66500693D01*
X193605413Y-66500691D01*
X193559283Y-66485405D01*
X193441653Y-66446426D01*
X193441651Y-66446425D01*
X193340578Y-66436100D01*
X192642230Y-66436100D01*
X192642212Y-66436101D01*
X192541147Y-66446425D01*
X192377384Y-66500692D01*
X192341560Y-66522788D01*
X192318158Y-66529190D01*
X192296273Y-66539655D01*
X192280918Y-66539378D01*
X192274167Y-66541226D01*
X192260984Y-66540277D01*
X192256598Y-66539725D01*
X192112691Y-66511100D01*
X192029126Y-66511100D01*
X192021418Y-66510130D01*
X191996222Y-66499155D01*
X191969861Y-66491415D01*
X191964653Y-66485405D01*
X191957361Y-66482229D01*
X191942098Y-66459375D01*
X191924106Y-66438611D01*
X191922112Y-66429449D01*
X191918557Y-66424125D01*
X191918345Y-66412132D01*
X191912900Y-66387100D01*
X191912900Y-65053197D01*
X191932585Y-64986158D01*
X191985389Y-64940403D01*
X192054547Y-64930459D01*
X192105792Y-64950096D01*
X192156244Y-64983808D01*
X192156259Y-64983816D01*
X192279163Y-65034723D01*
X192320134Y-65051694D01*
X192320136Y-65051694D01*
X192320141Y-65051696D01*
X192494104Y-65086299D01*
X192494107Y-65086300D01*
X192660091Y-65086300D01*
X192727130Y-65105985D01*
X192747772Y-65122619D01*
X192748129Y-65122976D01*
X192748133Y-65122979D01*
X192748135Y-65122981D01*
X192889602Y-65206644D01*
X192931224Y-65218736D01*
X193047426Y-65252497D01*
X193047429Y-65252497D01*
X193047431Y-65252498D01*
X193084306Y-65255400D01*
X193084314Y-65255400D01*
X194865686Y-65255400D01*
X194865694Y-65255400D01*
X194902569Y-65252498D01*
X194902571Y-65252497D01*
X194902573Y-65252497D01*
X194944191Y-65240405D01*
X195060398Y-65206644D01*
X195201865Y-65122981D01*
X195318081Y-65006765D01*
X195401744Y-64865298D01*
X195447598Y-64707469D01*
X195450500Y-64670594D01*
X195450500Y-64239206D01*
X195447598Y-64202331D01*
X195401744Y-64044502D01*
X195318081Y-63903035D01*
X195318078Y-63903032D01*
X195313298Y-63896869D01*
X195315750Y-63894966D01*
X195289155Y-63846321D01*
X195294104Y-63776626D01*
X195314940Y-63744204D01*
X195313298Y-63742931D01*
X195318075Y-63736770D01*
X195318081Y-63736765D01*
X195401744Y-63595298D01*
X195447598Y-63437469D01*
X195450500Y-63400594D01*
X195450500Y-62969206D01*
X195447598Y-62932331D01*
X195401744Y-62774502D01*
X195341156Y-62672054D01*
X195338349Y-62660988D01*
X195331542Y-62651822D01*
X195329912Y-62627735D01*
X195323974Y-62604331D01*
X195327595Y-62593501D01*
X195326825Y-62582112D01*
X195338475Y-62560968D01*
X195346134Y-62538068D01*
X195355904Y-62529338D01*
X195360544Y-62520918D01*
X195379281Y-62508450D01*
X195388879Y-62499875D01*
X195394505Y-62496830D01*
X195461186Y-62469212D01*
X195522942Y-62427947D01*
X195563633Y-62400758D01*
X195650758Y-62313633D01*
X195650759Y-62313630D01*
X195657825Y-62306565D01*
X195657828Y-62306561D01*
X196048729Y-61915660D01*
X196048733Y-61915658D01*
X196135858Y-61828533D01*
X196182514Y-61758708D01*
X196204312Y-61726086D01*
X196248827Y-61618615D01*
X196251463Y-61612252D01*
X196263481Y-61551829D01*
X196275500Y-61491407D01*
X196275500Y-61368193D01*
X196275500Y-57567741D01*
X196275501Y-57567720D01*
X196275501Y-57438391D01*
X196253608Y-57328334D01*
X196251463Y-57317549D01*
X196204312Y-57203715D01*
X196135858Y-57101267D01*
X196135855Y-57101263D01*
X195335859Y-56301268D01*
X195248731Y-56214140D01*
X195089406Y-56054815D01*
X194910624Y-55876034D01*
X194906286Y-55868089D01*
X194899039Y-55862664D01*
X194889804Y-55837904D01*
X194877140Y-55814712D01*
X194877785Y-55805682D01*
X194874622Y-55797200D01*
X194880238Y-55771379D01*
X194882124Y-55745021D01*
X194887942Y-55735967D01*
X194889474Y-55728927D01*
X194910622Y-55700676D01*
X194997476Y-55613822D01*
X195058797Y-55580339D01*
X195128489Y-55585323D01*
X195172836Y-55613824D01*
X195286763Y-55727751D01*
X195286767Y-55727754D01*
X195433490Y-55818255D01*
X195433501Y-55818260D01*
X195597149Y-55872487D01*
X195698153Y-55882806D01*
X196247302Y-55882806D01*
X196296442Y-55882806D01*
X196296456Y-55882805D01*
X196397454Y-55872487D01*
X196561102Y-55818260D01*
X196561113Y-55818255D01*
X196707836Y-55727754D01*
X196707840Y-55727751D01*
X196829746Y-55605845D01*
X196829749Y-55605841D01*
X196920250Y-55459118D01*
X196920255Y-55459107D01*
X196974482Y-55295459D01*
X196984801Y-55194461D01*
X196984802Y-55194448D01*
X196984802Y-55157807D01*
X196247302Y-55157807D01*
X196247302Y-55882806D01*
X195698153Y-55882806D01*
X195747301Y-55882805D01*
X195747302Y-55882805D01*
X195747302Y-54657807D01*
X196247302Y-54657807D01*
X196984801Y-54657807D01*
X196984801Y-54621167D01*
X196984800Y-54621152D01*
X196974482Y-54520154D01*
X196920255Y-54356506D01*
X196920250Y-54356495D01*
X196829749Y-54209772D01*
X196829746Y-54209768D01*
X196707840Y-54087862D01*
X196707836Y-54087859D01*
X196561113Y-53997358D01*
X196561102Y-53997353D01*
X196397454Y-53943126D01*
X196296456Y-53932807D01*
X196247302Y-53932807D01*
X196247302Y-54657807D01*
X195747302Y-54657807D01*
X195747302Y-53932807D01*
X195747301Y-53932806D01*
X195698163Y-53932807D01*
X195698145Y-53932808D01*
X195597149Y-53943126D01*
X195433501Y-53997353D01*
X195433490Y-53997358D01*
X195286767Y-54087859D01*
X195172836Y-54201790D01*
X195111513Y-54235274D01*
X195041821Y-54230290D01*
X194997474Y-54201789D01*
X194883153Y-54087468D01*
X194883152Y-54087467D01*
X194736318Y-53996899D01*
X194736315Y-53996898D01*
X194733144Y-53994942D01*
X194686420Y-53942994D01*
X194675197Y-53874031D01*
X194703041Y-53809949D01*
X194761109Y-53771093D01*
X194763599Y-53770340D01*
X194810398Y-53756744D01*
X194951865Y-53673081D01*
X195068081Y-53556865D01*
X195151744Y-53415398D01*
X195197598Y-53257569D01*
X195200500Y-53220694D01*
X195200500Y-52789306D01*
X195197598Y-52752431D01*
X195175551Y-52676547D01*
X195151745Y-52594606D01*
X195151744Y-52594603D01*
X195151744Y-52594602D01*
X195068081Y-52453135D01*
X195068078Y-52453132D01*
X195063298Y-52446969D01*
X195065750Y-52445066D01*
X195039155Y-52396421D01*
X195044104Y-52326726D01*
X195064940Y-52294304D01*
X195063298Y-52293031D01*
X195068075Y-52286870D01*
X195068081Y-52286865D01*
X195151744Y-52145398D01*
X195197598Y-51987569D01*
X195200500Y-51950694D01*
X195200500Y-51519306D01*
X195197598Y-51482431D01*
X195195690Y-51475864D01*
X195151745Y-51324606D01*
X195151744Y-51324603D01*
X195151744Y-51324602D01*
X195068081Y-51183135D01*
X195068078Y-51183132D01*
X195063298Y-51176969D01*
X195065750Y-51175066D01*
X195039155Y-51126421D01*
X195044104Y-51056726D01*
X195064940Y-51024304D01*
X195063298Y-51023031D01*
X195068075Y-51016870D01*
X195068081Y-51016865D01*
X195151744Y-50875398D01*
X195197598Y-50717569D01*
X195200500Y-50680694D01*
X195200500Y-50249306D01*
X195197598Y-50212431D01*
X195151744Y-50054602D01*
X195068081Y-49913135D01*
X195068078Y-49913132D01*
X195063298Y-49906969D01*
X195065750Y-49905066D01*
X195039155Y-49856421D01*
X195044104Y-49786726D01*
X195064940Y-49754304D01*
X195063298Y-49753031D01*
X195068075Y-49746870D01*
X195068081Y-49746865D01*
X195151744Y-49605398D01*
X195197598Y-49447569D01*
X195200500Y-49410694D01*
X195200500Y-48979306D01*
X195197598Y-48942431D01*
X195151744Y-48784602D01*
X195068081Y-48643135D01*
X195068078Y-48643132D01*
X195063298Y-48636969D01*
X195065750Y-48635066D01*
X195039155Y-48586421D01*
X195044104Y-48516726D01*
X195064940Y-48484304D01*
X195063298Y-48483031D01*
X195068075Y-48476870D01*
X195068081Y-48476865D01*
X195151744Y-48335398D01*
X195197598Y-48177569D01*
X195200500Y-48140694D01*
X195200500Y-47709306D01*
X195197598Y-47672431D01*
X195172798Y-47587071D01*
X195151745Y-47514606D01*
X195151744Y-47514603D01*
X195151744Y-47514602D01*
X195068081Y-47373135D01*
X195068078Y-47373132D01*
X195063298Y-47366969D01*
X195065750Y-47365066D01*
X195039155Y-47316421D01*
X195044104Y-47246726D01*
X195064940Y-47214304D01*
X195063298Y-47213031D01*
X195068075Y-47206870D01*
X195068081Y-47206865D01*
X195151744Y-47065398D01*
X195197598Y-46907569D01*
X195200500Y-46870694D01*
X195200500Y-46439306D01*
X195197598Y-46402431D01*
X195193397Y-46387972D01*
X195151745Y-46244606D01*
X195151744Y-46244603D01*
X195151744Y-46244602D01*
X195068081Y-46103135D01*
X195068078Y-46103132D01*
X195063298Y-46096969D01*
X195065750Y-46095066D01*
X195039155Y-46046421D01*
X195044104Y-45976726D01*
X195064940Y-45944304D01*
X195063298Y-45943031D01*
X195068075Y-45936870D01*
X195068081Y-45936865D01*
X195151744Y-45795398D01*
X195197598Y-45637569D01*
X195200500Y-45600694D01*
X195200500Y-45169306D01*
X195197598Y-45132431D01*
X195151744Y-44974602D01*
X195068081Y-44833135D01*
X195068078Y-44833132D01*
X195063298Y-44826969D01*
X195065635Y-44825155D01*
X195038798Y-44776050D01*
X195043756Y-44706356D01*
X195064554Y-44673998D01*
X195062903Y-44672717D01*
X195067686Y-44666550D01*
X195151281Y-44525198D01*
X195197100Y-44367486D01*
X195197295Y-44365001D01*
X195197295Y-44365000D01*
X192152705Y-44365000D01*
X192152704Y-44365001D01*
X192152899Y-44367488D01*
X192185573Y-44479952D01*
X192185373Y-44549821D01*
X192147430Y-44608491D01*
X192083792Y-44637334D01*
X192019045Y-44629108D01*
X191969270Y-44608491D01*
X191918366Y-44587406D01*
X191918362Y-44587405D01*
X191918358Y-44587403D01*
X191744394Y-44552800D01*
X191744391Y-44552800D01*
X191567009Y-44552800D01*
X191567006Y-44552800D01*
X191393041Y-44587403D01*
X191393032Y-44587406D01*
X191229159Y-44655283D01*
X191229146Y-44655290D01*
X191081665Y-44753835D01*
X191081661Y-44753838D01*
X190956238Y-44879261D01*
X190956235Y-44879265D01*
X190857690Y-45026746D01*
X190857683Y-45026759D01*
X190789806Y-45190632D01*
X190789803Y-45190641D01*
X190755200Y-45364604D01*
X190755200Y-45541995D01*
X190789803Y-45715958D01*
X190789806Y-45715967D01*
X190857683Y-45879840D01*
X190857690Y-45879853D01*
X190956235Y-46027334D01*
X190956238Y-46027338D01*
X191064472Y-46135572D01*
X191068809Y-46143516D01*
X191076057Y-46148941D01*
X191085293Y-46173703D01*
X191097957Y-46196895D01*
X191097311Y-46205923D01*
X191100475Y-46214405D01*
X191094858Y-46240226D01*
X191092973Y-46266587D01*
X191087154Y-46275639D01*
X191085624Y-46282678D01*
X191064473Y-46310933D01*
X190987436Y-46387972D01*
X190926114Y-46421458D01*
X190856422Y-46416474D01*
X190812073Y-46387973D01*
X190794638Y-46370538D01*
X190794634Y-46370535D01*
X190647153Y-46271990D01*
X190647140Y-46271983D01*
X190483267Y-46204106D01*
X190483258Y-46204103D01*
X190309294Y-46169500D01*
X190309291Y-46169500D01*
X190131909Y-46169500D01*
X190131906Y-46169500D01*
X189957941Y-46204103D01*
X189957932Y-46204106D01*
X189794059Y-46271983D01*
X189794046Y-46271990D01*
X189646565Y-46370535D01*
X189646561Y-46370538D01*
X189521138Y-46495961D01*
X189521135Y-46495965D01*
X189422590Y-46643446D01*
X189422583Y-46643459D01*
X189354706Y-46807332D01*
X189354703Y-46807341D01*
X189320100Y-46981304D01*
X189320100Y-47158695D01*
X189354703Y-47332658D01*
X189354705Y-47332662D01*
X189354706Y-47332666D01*
X189389327Y-47416249D01*
X189404434Y-47452722D01*
X189406570Y-47472599D01*
X189413556Y-47491327D01*
X189410228Y-47506623D01*
X189411902Y-47522191D01*
X189402952Y-47540068D01*
X189398704Y-47559600D01*
X189382017Y-47581890D01*
X189380626Y-47584670D01*
X189377553Y-47587854D01*
X189232134Y-47733273D01*
X189170811Y-47766758D01*
X189101119Y-47761774D01*
X189056771Y-47733272D01*
X189009122Y-47685622D01*
X189009118Y-47685619D01*
X188861637Y-47587074D01*
X188861624Y-47587067D01*
X188697751Y-47519190D01*
X188697742Y-47519187D01*
X188523778Y-47484584D01*
X188523775Y-47484584D01*
X188346393Y-47484584D01*
X188346390Y-47484584D01*
X188172425Y-47519187D01*
X188172416Y-47519190D01*
X188008543Y-47587067D01*
X188008530Y-47587074D01*
X187861049Y-47685619D01*
X187861045Y-47685622D01*
X187735622Y-47811045D01*
X187735619Y-47811049D01*
X187637074Y-47958530D01*
X187637067Y-47958543D01*
X187569190Y-48122416D01*
X187569187Y-48122425D01*
X187534584Y-48296388D01*
X187534584Y-48349631D01*
X187514899Y-48416670D01*
X187498265Y-48437312D01*
X186653890Y-49281686D01*
X186653882Y-49281694D01*
X186651269Y-49284308D01*
X186651267Y-49284310D01*
X186564142Y-49371435D01*
X186537910Y-49410694D01*
X186533202Y-49417739D01*
X186533200Y-49417742D01*
X186495687Y-49473882D01*
X186495685Y-49473886D01*
X186467826Y-49541147D01*
X186462347Y-49554375D01*
X186456823Y-49567711D01*
X186448537Y-49587713D01*
X186448535Y-49587721D01*
X186424500Y-49708557D01*
X186424500Y-51440548D01*
X186418261Y-51461793D01*
X186416682Y-51483882D01*
X186408609Y-51494665D01*
X186404815Y-51507587D01*
X186388081Y-51522086D01*
X186374810Y-51539815D01*
X186362189Y-51544522D01*
X186352011Y-51553342D01*
X186330093Y-51556493D01*
X186309346Y-51564232D01*
X186296185Y-51561369D01*
X186282853Y-51563286D01*
X186262709Y-51554086D01*
X186241073Y-51549380D01*
X186223347Y-51536111D01*
X186219297Y-51534261D01*
X186212819Y-51528229D01*
X186040198Y-51355608D01*
X186040178Y-51355586D01*
X185948733Y-51264141D01*
X185900374Y-51231829D01*
X185900369Y-51231826D01*
X185897509Y-51229915D01*
X185846286Y-51195688D01*
X185822465Y-51185821D01*
X185814941Y-51181378D01*
X185796810Y-51161985D01*
X185776139Y-51145328D01*
X185773320Y-51136859D01*
X185767225Y-51130340D01*
X185762457Y-51104223D01*
X185754073Y-51079035D01*
X185756277Y-51070372D01*
X185754677Y-51061606D01*
X185764703Y-51037257D01*
X185771261Y-51011487D01*
X185851744Y-50875398D01*
X185897598Y-50717569D01*
X185900500Y-50680694D01*
X185900500Y-50249306D01*
X185897598Y-50212431D01*
X185851744Y-50054602D01*
X185768081Y-49913135D01*
X185768078Y-49913132D01*
X185763298Y-49906969D01*
X185765750Y-49905066D01*
X185739155Y-49856421D01*
X185744104Y-49786726D01*
X185764940Y-49754304D01*
X185763298Y-49753031D01*
X185768075Y-49746870D01*
X185768081Y-49746865D01*
X185851744Y-49605398D01*
X185897598Y-49447569D01*
X185900500Y-49410694D01*
X185900500Y-48979306D01*
X185897598Y-48942431D01*
X185851744Y-48784602D01*
X185768081Y-48643135D01*
X185768078Y-48643132D01*
X185763298Y-48636969D01*
X185765750Y-48635066D01*
X185739155Y-48586421D01*
X185744104Y-48516726D01*
X185764940Y-48484304D01*
X185763298Y-48483031D01*
X185768075Y-48476870D01*
X185768081Y-48476865D01*
X185851744Y-48335398D01*
X185897598Y-48177569D01*
X185900500Y-48140694D01*
X185900500Y-47709306D01*
X185897598Y-47672431D01*
X185872798Y-47587071D01*
X185851745Y-47514606D01*
X185851744Y-47514603D01*
X185851744Y-47514602D01*
X185768081Y-47373135D01*
X185768078Y-47373132D01*
X185763298Y-47366969D01*
X185765750Y-47365066D01*
X185739155Y-47316421D01*
X185744104Y-47246726D01*
X185764940Y-47214304D01*
X185763298Y-47213031D01*
X185768075Y-47206870D01*
X185768081Y-47206865D01*
X185851744Y-47065398D01*
X185897598Y-46907569D01*
X185900500Y-46870694D01*
X185900500Y-46439306D01*
X185897598Y-46402431D01*
X185893397Y-46387972D01*
X185851745Y-46244606D01*
X185851744Y-46244603D01*
X185851744Y-46244602D01*
X185768081Y-46103135D01*
X185768078Y-46103132D01*
X185763298Y-46096969D01*
X185765750Y-46095066D01*
X185739155Y-46046421D01*
X185744104Y-45976726D01*
X185764940Y-45944304D01*
X185763298Y-45943031D01*
X185768075Y-45936870D01*
X185768081Y-45936865D01*
X185851744Y-45795398D01*
X185897598Y-45637569D01*
X185900500Y-45600694D01*
X185900500Y-45169306D01*
X185897598Y-45132431D01*
X185851744Y-44974602D01*
X185768081Y-44833135D01*
X185768078Y-44833132D01*
X185763298Y-44826969D01*
X185765750Y-44825066D01*
X185739155Y-44776421D01*
X185744104Y-44706726D01*
X185755559Y-44683641D01*
X185762912Y-44672033D01*
X185768081Y-44666865D01*
X185794682Y-44621883D01*
X185795698Y-44620281D01*
X185820570Y-44598443D01*
X185844783Y-44575836D01*
X185847076Y-44575172D01*
X185848203Y-44574183D01*
X185852969Y-44573465D01*
X185883768Y-44564549D01*
X185883717Y-44564289D01*
X185886761Y-44563683D01*
X185888307Y-44563236D01*
X185889689Y-44563100D01*
X185889691Y-44563100D01*
X185889693Y-44563099D01*
X185889699Y-44563099D01*
X186063658Y-44528496D01*
X186063661Y-44528494D01*
X186063666Y-44528494D01*
X186227547Y-44460613D01*
X186375035Y-44362064D01*
X186500464Y-44236635D01*
X186599013Y-44089147D01*
X186666894Y-43925266D01*
X186672060Y-43899298D01*
X186701499Y-43751295D01*
X186701500Y-43751293D01*
X186701500Y-43573906D01*
X186701499Y-43573904D01*
X186666896Y-43399941D01*
X186666893Y-43399932D01*
X186665621Y-43396862D01*
X186645851Y-43349132D01*
X186599016Y-43236059D01*
X186599009Y-43236046D01*
X186521166Y-43119547D01*
X186504764Y-43095001D01*
X192152704Y-43095001D01*
X192152899Y-43097486D01*
X192198718Y-43255198D01*
X192282314Y-43396552D01*
X192287100Y-43402722D01*
X192284753Y-43404542D01*
X192311564Y-43453642D01*
X192306580Y-43523334D01*
X192285541Y-43556069D01*
X192287100Y-43557278D01*
X192282314Y-43563447D01*
X192198718Y-43704801D01*
X192152899Y-43862513D01*
X192152704Y-43864998D01*
X192152705Y-43865000D01*
X193425000Y-43865000D01*
X193925000Y-43865000D01*
X195197295Y-43865000D01*
X195197295Y-43864998D01*
X195197100Y-43862513D01*
X195151281Y-43704801D01*
X195067685Y-43563447D01*
X195062900Y-43557278D01*
X195065252Y-43555453D01*
X195038445Y-43506405D01*
X195043402Y-43436712D01*
X195064465Y-43403936D01*
X195062900Y-43402722D01*
X195067685Y-43396552D01*
X195151281Y-43255198D01*
X195197100Y-43097486D01*
X195197295Y-43095001D01*
X195197295Y-43095000D01*
X193925000Y-43095000D01*
X193925000Y-43865000D01*
X193425000Y-43865000D01*
X193425000Y-43095000D01*
X192152705Y-43095000D01*
X192152704Y-43095001D01*
X186504764Y-43095001D01*
X186500464Y-43088565D01*
X186500461Y-43088561D01*
X186375038Y-42963138D01*
X186375034Y-42963135D01*
X186227553Y-42864590D01*
X186227540Y-42864583D01*
X186063667Y-42796706D01*
X186063658Y-42796703D01*
X186000309Y-42784103D01*
X185972185Y-42769392D01*
X185943297Y-42756199D01*
X185941439Y-42753309D01*
X185938398Y-42751718D01*
X185922691Y-42724135D01*
X185905523Y-42697421D01*
X185904862Y-42692826D01*
X185903824Y-42691003D01*
X185900500Y-42662486D01*
X185900500Y-42629313D01*
X185900499Y-42629298D01*
X185897800Y-42594998D01*
X192152704Y-42594998D01*
X192152705Y-42595000D01*
X193425000Y-42595000D01*
X193925000Y-42595000D01*
X195197295Y-42595000D01*
X195197295Y-42594998D01*
X195197100Y-42592513D01*
X195151281Y-42434801D01*
X195067685Y-42293447D01*
X195067678Y-42293438D01*
X194951561Y-42177321D01*
X194951552Y-42177314D01*
X194810196Y-42093717D01*
X194810193Y-42093716D01*
X194652495Y-42047900D01*
X194652489Y-42047899D01*
X194615649Y-42045000D01*
X193925000Y-42045000D01*
X193925000Y-42595000D01*
X193425000Y-42595000D01*
X193425000Y-42045000D01*
X192734350Y-42045000D01*
X192697510Y-42047899D01*
X192697504Y-42047900D01*
X192539806Y-42093716D01*
X192539803Y-42093717D01*
X192398447Y-42177314D01*
X192398438Y-42177321D01*
X192282321Y-42293438D01*
X192282314Y-42293447D01*
X192198718Y-42434801D01*
X192152899Y-42592513D01*
X192152704Y-42594998D01*
X185897800Y-42594998D01*
X185897598Y-42592432D01*
X185897597Y-42592426D01*
X185851745Y-42434606D01*
X185851743Y-42434600D01*
X185845608Y-42424226D01*
X185828425Y-42356502D01*
X185837777Y-42313655D01*
X185854094Y-42274266D01*
X185888700Y-42100291D01*
X185888700Y-41922909D01*
X185888700Y-41922906D01*
X185888699Y-41922904D01*
X185854096Y-41748941D01*
X185854093Y-41748932D01*
X185786216Y-41585059D01*
X185786209Y-41585046D01*
X185687664Y-41437565D01*
X185687661Y-41437561D01*
X185562238Y-41312138D01*
X185562234Y-41312135D01*
X185414753Y-41213590D01*
X185414740Y-41213583D01*
X185250867Y-41145706D01*
X185250858Y-41145703D01*
X185076894Y-41111100D01*
X185076891Y-41111100D01*
X184899509Y-41111100D01*
X184899506Y-41111100D01*
X184725541Y-41145703D01*
X184725532Y-41145706D01*
X184561659Y-41213583D01*
X184561646Y-41213590D01*
X184414165Y-41312135D01*
X184414161Y-41312138D01*
X184288738Y-41437561D01*
X184288735Y-41437565D01*
X184190190Y-41585046D01*
X184190183Y-41585059D01*
X184122306Y-41748932D01*
X184122303Y-41748941D01*
X184087700Y-41922904D01*
X184087103Y-41928969D01*
X184085266Y-41928788D01*
X184068015Y-41987539D01*
X184015211Y-42033294D01*
X183963700Y-42044500D01*
X183434298Y-42044500D01*
X183397432Y-42047401D01*
X183397426Y-42047402D01*
X183239606Y-42093254D01*
X183239603Y-42093255D01*
X183098137Y-42176917D01*
X183098129Y-42176923D01*
X182981923Y-42293129D01*
X182981917Y-42293137D01*
X182898255Y-42434603D01*
X182898254Y-42434606D01*
X182852402Y-42592426D01*
X182852401Y-42592432D01*
X182849500Y-42629298D01*
X182849500Y-43060701D01*
X182852401Y-43097567D01*
X182852402Y-43097573D01*
X182898254Y-43255393D01*
X182898255Y-43255396D01*
X182981917Y-43396862D01*
X182986702Y-43403031D01*
X182984256Y-43404927D01*
X183010857Y-43453642D01*
X183005873Y-43523334D01*
X182985069Y-43555703D01*
X182986702Y-43556969D01*
X182981917Y-43563137D01*
X182898255Y-43704603D01*
X182898254Y-43704606D01*
X182852402Y-43862426D01*
X182852401Y-43862432D01*
X182849500Y-43899298D01*
X182849500Y-44330701D01*
X182852401Y-44367567D01*
X182852402Y-44367573D01*
X182898254Y-44525393D01*
X182898255Y-44525396D01*
X182898256Y-44525398D01*
X182920552Y-44563099D01*
X182981917Y-44666862D01*
X182986702Y-44673031D01*
X182984256Y-44674927D01*
X183010857Y-44723642D01*
X183005873Y-44793334D01*
X182985069Y-44825703D01*
X182986702Y-44826969D01*
X182981917Y-44833137D01*
X182898255Y-44974603D01*
X182898254Y-44974606D01*
X182852402Y-45132426D01*
X182852401Y-45132432D01*
X182849500Y-45169298D01*
X182849500Y-45600701D01*
X182852401Y-45637567D01*
X182852402Y-45637573D01*
X182898254Y-45795393D01*
X182898255Y-45795396D01*
X182898256Y-45795398D01*
X182906734Y-45809733D01*
X182981917Y-45936862D01*
X182986702Y-45943031D01*
X182984256Y-45944927D01*
X183010857Y-45993642D01*
X183005873Y-46063334D01*
X182985069Y-46095703D01*
X182986702Y-46096969D01*
X182981917Y-46103137D01*
X182898255Y-46244603D01*
X182898254Y-46244606D01*
X182852402Y-46402426D01*
X182852401Y-46402432D01*
X182849500Y-46439298D01*
X182849500Y-46870701D01*
X182852401Y-46907567D01*
X182852402Y-46907573D01*
X182898254Y-47065393D01*
X182898255Y-47065396D01*
X182898256Y-47065398D01*
X182901770Y-47071340D01*
X182981917Y-47206862D01*
X182986702Y-47213031D01*
X182984256Y-47214927D01*
X183010857Y-47263642D01*
X183005873Y-47333334D01*
X182985069Y-47365703D01*
X182986702Y-47366969D01*
X182981917Y-47373137D01*
X182898255Y-47514603D01*
X182898254Y-47514606D01*
X182852402Y-47672426D01*
X182852401Y-47672432D01*
X182849500Y-47709298D01*
X182849500Y-48140701D01*
X182852401Y-48177567D01*
X182852402Y-48177573D01*
X182898254Y-48335393D01*
X182898255Y-48335396D01*
X182981917Y-48476862D01*
X182986702Y-48483031D01*
X182984256Y-48484927D01*
X183010857Y-48533642D01*
X183005873Y-48603334D01*
X182985069Y-48635703D01*
X182986702Y-48636969D01*
X182981917Y-48643137D01*
X182898255Y-48784603D01*
X182898254Y-48784606D01*
X182852402Y-48942426D01*
X182852401Y-48942432D01*
X182849500Y-48979298D01*
X182849500Y-49410692D01*
X182852401Y-49447567D01*
X182852402Y-49447573D01*
X182898254Y-49605393D01*
X182898255Y-49605396D01*
X182981917Y-49746862D01*
X182986702Y-49753031D01*
X182984256Y-49754927D01*
X183010857Y-49803642D01*
X183005873Y-49873334D01*
X182985069Y-49905703D01*
X182986702Y-49906969D01*
X182981917Y-49913137D01*
X182898255Y-50054603D01*
X182898254Y-50054606D01*
X182852402Y-50212426D01*
X182852401Y-50212432D01*
X182849500Y-50249298D01*
X182849500Y-50680701D01*
X182852401Y-50717567D01*
X182852402Y-50717573D01*
X182898254Y-50875393D01*
X182898255Y-50875396D01*
X182981917Y-51016862D01*
X182986702Y-51023031D01*
X182984256Y-51024927D01*
X183010857Y-51073642D01*
X183005873Y-51143334D01*
X182995656Y-51164400D01*
X182987912Y-51177141D01*
X182981919Y-51183135D01*
X182898256Y-51324602D01*
X182898221Y-51324721D01*
X182896464Y-51327613D01*
X182871195Y-51350643D01*
X182846162Y-51374018D01*
X182845397Y-51374157D01*
X182844825Y-51374679D01*
X182811097Y-51380395D01*
X182777420Y-51386521D01*
X182776123Y-51386323D01*
X182775938Y-51386355D01*
X182775721Y-51386262D01*
X182766307Y-51384830D01*
X182588693Y-51349500D01*
X182588691Y-51349500D01*
X182411309Y-51349500D01*
X182411306Y-51349500D01*
X182237341Y-51384103D01*
X182237332Y-51384106D01*
X182073459Y-51451983D01*
X182073446Y-51451990D01*
X181925965Y-51550535D01*
X181925961Y-51550538D01*
X181800538Y-51675961D01*
X181800535Y-51675965D01*
X181701990Y-51823446D01*
X181701983Y-51823459D01*
X181634106Y-51987332D01*
X181634103Y-51987341D01*
X181599500Y-52161304D01*
X181599500Y-52338695D01*
X181634103Y-52512658D01*
X181634106Y-52512667D01*
X181701983Y-52676540D01*
X181701990Y-52676553D01*
X181800535Y-52824034D01*
X181800538Y-52824038D01*
X181925961Y-52949461D01*
X181925965Y-52949464D01*
X182073446Y-53048009D01*
X182073459Y-53048016D01*
X182196363Y-53098923D01*
X182237334Y-53115894D01*
X182237336Y-53115894D01*
X182237341Y-53115896D01*
X182411304Y-53150499D01*
X182411307Y-53150500D01*
X182411309Y-53150500D01*
X182464548Y-53150500D01*
X182531587Y-53170185D01*
X182552229Y-53186819D01*
X182766016Y-53400606D01*
X182766045Y-53400637D01*
X182856263Y-53490855D01*
X182856267Y-53490858D01*
X182958707Y-53559307D01*
X182958714Y-53559311D01*
X182979715Y-53568010D01*
X183019941Y-53594887D01*
X183098135Y-53673081D01*
X183239602Y-53756744D01*
X183281224Y-53768836D01*
X183397426Y-53802597D01*
X183397429Y-53802597D01*
X183397431Y-53802598D01*
X183434306Y-53805500D01*
X185068994Y-53805500D01*
X185136033Y-53825185D01*
X185181788Y-53877989D01*
X185183544Y-53882022D01*
X185192575Y-53903826D01*
X185201986Y-53926546D01*
X185201990Y-53926553D01*
X185300535Y-54074034D01*
X185300538Y-54074038D01*
X185425961Y-54199461D01*
X185425965Y-54199464D01*
X185573446Y-54298009D01*
X185573459Y-54298016D01*
X185696363Y-54348923D01*
X185737334Y-54365894D01*
X185737336Y-54365894D01*
X185737341Y-54365896D01*
X185911304Y-54400499D01*
X185911307Y-54400500D01*
X185911309Y-54400500D01*
X186088693Y-54400500D01*
X186088694Y-54400499D01*
X186262666Y-54365894D01*
X186262685Y-54365885D01*
X186264491Y-54365339D01*
X186265504Y-54365329D01*
X186268641Y-54364706D01*
X186268759Y-54365300D01*
X186334358Y-54364708D01*
X186393475Y-54401950D01*
X186423073Y-54465241D01*
X186424500Y-54483996D01*
X186424500Y-58044104D01*
X186404815Y-58111143D01*
X186352011Y-58156898D01*
X186282853Y-58166842D01*
X186276310Y-58165722D01*
X186219891Y-58154500D01*
X186042509Y-58154500D01*
X186042506Y-58154500D01*
X185868541Y-58189103D01*
X185868532Y-58189106D01*
X185704659Y-58256983D01*
X185704646Y-58256990D01*
X185557165Y-58355535D01*
X185557161Y-58355538D01*
X185431738Y-58480961D01*
X185431735Y-58480965D01*
X185333190Y-58628446D01*
X185333183Y-58628459D01*
X185265306Y-58792332D01*
X185265303Y-58792341D01*
X185230700Y-58966304D01*
X185230700Y-59143695D01*
X185265303Y-59317658D01*
X185265306Y-59317667D01*
X185333183Y-59481540D01*
X185333187Y-59481547D01*
X185379609Y-59551022D01*
X185400487Y-59617699D01*
X185394213Y-59658916D01*
X185384826Y-59687243D01*
X185374500Y-59788315D01*
X185374500Y-60486669D01*
X185374501Y-60486687D01*
X185384825Y-60587752D01*
X185405130Y-60649027D01*
X185439092Y-60751516D01*
X185529115Y-60897467D01*
X185529661Y-60898351D01*
X185543629Y-60912319D01*
X185577114Y-60973642D01*
X185572130Y-61043334D01*
X185543629Y-61087681D01*
X185529661Y-61101648D01*
X185439093Y-61248481D01*
X185439091Y-61248486D01*
X185428639Y-61280029D01*
X185384826Y-61412247D01*
X185384826Y-61412248D01*
X185384825Y-61412248D01*
X185374500Y-61513315D01*
X185374500Y-62211669D01*
X185374501Y-62211687D01*
X185384825Y-62312752D01*
X185408948Y-62385548D01*
X185439092Y-62476516D01*
X185529660Y-62623350D01*
X185651650Y-62745340D01*
X185798484Y-62835908D01*
X185962247Y-62890174D01*
X186063323Y-62900500D01*
X186423212Y-62900499D01*
X186490250Y-62920183D01*
X186536005Y-62972987D01*
X186545949Y-63042146D01*
X186516924Y-63105701D01*
X186510892Y-63112180D01*
X185420747Y-64202326D01*
X184476329Y-65146744D01*
X184476327Y-65146746D01*
X184432763Y-65190309D01*
X184389200Y-65233872D01*
X184366939Y-65267190D01*
X184366937Y-65267193D01*
X184320750Y-65336314D01*
X184320745Y-65336323D01*
X184304201Y-65376266D01*
X184273598Y-65450148D01*
X184273595Y-65450158D01*
X184267915Y-65478713D01*
X184267916Y-65478714D01*
X184255239Y-65542449D01*
X184255238Y-65542451D01*
X184249560Y-65570995D01*
X184249560Y-66696266D01*
X184229875Y-66763305D01*
X184177071Y-66809060D01*
X184107913Y-66819004D01*
X184044357Y-66789979D01*
X184022458Y-66765157D01*
X183935064Y-66634365D01*
X183935061Y-66634361D01*
X183809638Y-66508938D01*
X183809634Y-66508935D01*
X183662153Y-66410390D01*
X183662140Y-66410383D01*
X183498270Y-66342507D01*
X183498253Y-66342502D01*
X183495085Y-66341872D01*
X183493580Y-66341084D01*
X183492434Y-66340737D01*
X183492499Y-66340519D01*
X183433177Y-66309483D01*
X183431605Y-66307938D01*
X181941818Y-64818151D01*
X181908333Y-64756828D01*
X181905499Y-64730470D01*
X181905499Y-61268929D01*
X181905498Y-61268923D01*
X181905497Y-61268916D01*
X181899091Y-61209317D01*
X181894409Y-61196765D01*
X181848797Y-61074471D01*
X181848793Y-61074464D01*
X181762547Y-60959255D01*
X181762544Y-60959252D01*
X181647335Y-60873006D01*
X181647328Y-60873002D01*
X181536467Y-60831654D01*
X181480533Y-60789783D01*
X181456116Y-60724319D01*
X181455800Y-60715472D01*
X181455800Y-59783994D01*
X181475485Y-59716955D01*
X181528289Y-59671200D01*
X181536468Y-59667812D01*
X181647084Y-59626555D01*
X181647093Y-59626550D01*
X181762187Y-59540390D01*
X181762190Y-59540387D01*
X181848350Y-59425293D01*
X181848354Y-59425286D01*
X181898596Y-59290579D01*
X181898598Y-59290572D01*
X181904999Y-59231044D01*
X181905000Y-59231027D01*
X181905000Y-57312300D01*
X177095000Y-57312300D01*
X177095000Y-59231044D01*
X177101401Y-59290572D01*
X177101403Y-59290579D01*
X177151645Y-59425286D01*
X177151649Y-59425293D01*
X177237809Y-59540387D01*
X177237812Y-59540390D01*
X177352906Y-59626550D01*
X177352915Y-59626555D01*
X177463532Y-59667812D01*
X177519466Y-59709683D01*
X177543884Y-59775147D01*
X177544200Y-59783994D01*
X177544200Y-60715472D01*
X177524515Y-60782511D01*
X177471711Y-60828266D01*
X177463533Y-60831654D01*
X177352671Y-60873002D01*
X177352664Y-60873006D01*
X177237455Y-60959252D01*
X177237452Y-60959255D01*
X177151206Y-61074464D01*
X177151202Y-61074471D01*
X177100908Y-61209317D01*
X177095235Y-61262090D01*
X177094501Y-61268923D01*
X177094500Y-61268935D01*
X177094500Y-65606470D01*
X177094501Y-65606476D01*
X177100908Y-65666083D01*
X177151202Y-65800928D01*
X177151206Y-65800935D01*
X177237452Y-65916144D01*
X177237455Y-65916147D01*
X177352664Y-66002393D01*
X177352671Y-66002397D01*
X177487517Y-66052691D01*
X177487516Y-66052691D01*
X177494444Y-66053435D01*
X177547127Y-66059100D01*
X181008669Y-66059099D01*
X181075708Y-66078784D01*
X181096350Y-66095418D01*
X182317708Y-67316775D01*
X182351193Y-67378098D01*
X182351644Y-67380265D01*
X182369703Y-67471058D01*
X182369706Y-67471067D01*
X182437583Y-67634940D01*
X182437585Y-67634944D01*
X182437587Y-67634947D01*
X182453602Y-67658916D01*
X182474480Y-67725590D01*
X182474500Y-67727805D01*
X182474500Y-68120128D01*
X182454815Y-68187167D01*
X182402011Y-68232922D01*
X182332853Y-68242866D01*
X182326309Y-68241745D01*
X182181295Y-68212900D01*
X182181291Y-68212900D01*
X182003909Y-68212900D01*
X182003906Y-68212900D01*
X181829941Y-68247503D01*
X181829932Y-68247506D01*
X181666059Y-68315383D01*
X181666046Y-68315390D01*
X181518565Y-68413935D01*
X181518561Y-68413938D01*
X181393138Y-68539361D01*
X181393135Y-68539365D01*
X181294590Y-68686846D01*
X181294583Y-68686859D01*
X181226706Y-68850732D01*
X181226703Y-68850741D01*
X181192100Y-69024704D01*
X181192100Y-69202095D01*
X181224106Y-69363002D01*
X181217879Y-69432594D01*
X181175015Y-69487771D01*
X181126681Y-69508810D01*
X181014541Y-69531116D01*
X181014535Y-69531118D01*
X180833315Y-69606182D01*
X180833305Y-69606187D01*
X180670215Y-69715161D01*
X180670211Y-69715164D01*
X180531514Y-69853861D01*
X180531511Y-69853865D01*
X180478490Y-69933217D01*
X180424878Y-69978022D01*
X180355553Y-69986729D01*
X180292525Y-69956574D01*
X180255806Y-69897131D01*
X180257053Y-69827273D01*
X180257682Y-69825322D01*
X180289999Y-69727797D01*
X180300500Y-69625008D01*
X180300500Y-68274992D01*
X180289999Y-68172203D01*
X180234814Y-68005666D01*
X180208442Y-67962911D01*
X180142713Y-67856348D01*
X180142710Y-67856344D01*
X180018655Y-67732289D01*
X180018651Y-67732286D01*
X179869337Y-67640187D01*
X179869335Y-67640186D01*
X179786065Y-67612593D01*
X179702797Y-67585001D01*
X179702795Y-67585000D01*
X179600015Y-67574500D01*
X179600008Y-67574500D01*
X178574992Y-67574500D01*
X178574984Y-67574500D01*
X178472204Y-67585000D01*
X178472203Y-67585001D01*
X178305664Y-67640186D01*
X178305662Y-67640187D01*
X178156348Y-67732286D01*
X178156344Y-67732289D01*
X178032289Y-67856344D01*
X178032286Y-67856348D01*
X177940187Y-68005662D01*
X177940186Y-68005664D01*
X177885001Y-68172203D01*
X177885000Y-68172204D01*
X177874500Y-68274984D01*
X177874500Y-69625015D01*
X177885000Y-69727795D01*
X177885001Y-69727796D01*
X177940186Y-69894335D01*
X177940187Y-69894337D01*
X178032286Y-70043651D01*
X178032289Y-70043655D01*
X178156344Y-70167710D01*
X178156348Y-70167713D01*
X178305662Y-70259812D01*
X178305664Y-70259813D01*
X178305666Y-70259814D01*
X178393480Y-70288913D01*
X178400258Y-70293605D01*
X178408394Y-70294954D01*
X178428561Y-70313201D01*
X178450924Y-70328684D01*
X178455428Y-70337509D01*
X178460204Y-70341831D01*
X178468662Y-70363443D01*
X178474174Y-70374243D01*
X178475274Y-70378311D01*
X178486037Y-70432421D01*
X178494142Y-70451988D01*
X178497193Y-70459355D01*
X178497196Y-70459364D01*
X178533185Y-70546250D01*
X178533188Y-70546255D01*
X178559020Y-70584914D01*
X178559021Y-70584917D01*
X178559022Y-70584917D01*
X178601640Y-70648700D01*
X178601641Y-70648701D01*
X178601642Y-70648702D01*
X178688767Y-70735827D01*
X178688768Y-70735827D01*
X178695835Y-70742894D01*
X178695834Y-70742894D01*
X178695838Y-70742897D01*
X179090760Y-71137819D01*
X179124245Y-71199142D01*
X179119261Y-71268834D01*
X179077389Y-71324767D01*
X179011925Y-71349184D01*
X179003079Y-71349500D01*
X178574984Y-71349500D01*
X178472204Y-71360000D01*
X178472203Y-71360001D01*
X178305664Y-71415186D01*
X178305662Y-71415187D01*
X178156348Y-71507286D01*
X178156344Y-71507289D01*
X178032289Y-71631344D01*
X178032286Y-71631348D01*
X177940187Y-71780662D01*
X177940186Y-71780664D01*
X177885001Y-71947203D01*
X177885000Y-71947204D01*
X177874500Y-72049984D01*
X177874500Y-73400015D01*
X177885000Y-73502795D01*
X177885001Y-73502797D01*
X177903592Y-73558900D01*
X177940186Y-73669335D01*
X177940187Y-73669337D01*
X178032286Y-73818651D01*
X178032289Y-73818655D01*
X178156344Y-73942710D01*
X178156348Y-73942713D01*
X178305662Y-74034812D01*
X178305664Y-74034813D01*
X178305666Y-74034814D01*
X178472203Y-74089999D01*
X178574992Y-74100500D01*
X178574997Y-74100500D01*
X179600003Y-74100500D01*
X179600008Y-74100500D01*
X179702797Y-74089999D01*
X179869334Y-74034814D01*
X180018655Y-73942711D01*
X180142711Y-73818655D01*
X180176436Y-73763977D01*
X180228381Y-73717255D01*
X180297343Y-73706032D01*
X180361426Y-73733875D01*
X180400283Y-73791943D01*
X180401577Y-73861801D01*
X180396534Y-73876528D01*
X180347469Y-73994982D01*
X180347466Y-73994994D01*
X180309200Y-74187368D01*
X180309200Y-75602733D01*
X180347466Y-75795107D01*
X180347468Y-75795115D01*
X180422532Y-75976335D01*
X180422537Y-75976345D01*
X180531511Y-76139435D01*
X180531514Y-76139439D01*
X180670211Y-76278136D01*
X180670215Y-76278139D01*
X180833305Y-76387113D01*
X180833309Y-76387115D01*
X180833312Y-76387117D01*
X181014536Y-76462183D01*
X181206917Y-76500450D01*
X181206920Y-76500451D01*
X181206922Y-76500451D01*
X181403080Y-76500451D01*
X181403081Y-76500450D01*
X181595464Y-76462183D01*
X181776688Y-76387117D01*
X181939785Y-76278139D01*
X182078488Y-76139436D01*
X182187466Y-75976339D01*
X182262532Y-75795115D01*
X182300800Y-75602729D01*
X182300800Y-74187373D01*
X182300800Y-74187370D01*
X182300799Y-74187368D01*
X182291064Y-74138425D01*
X182262532Y-73994987D01*
X182187466Y-73813763D01*
X182187464Y-73813760D01*
X182187462Y-73813756D01*
X182146058Y-73751791D01*
X182125180Y-73685114D01*
X182143664Y-73617733D01*
X182195643Y-73571043D01*
X182249160Y-73558900D01*
X189000840Y-73558900D01*
X189067879Y-73578585D01*
X189113634Y-73631389D01*
X189123578Y-73700547D01*
X189103942Y-73751791D01*
X189062537Y-73813756D01*
X189062532Y-73813766D01*
X188987468Y-73994986D01*
X188987466Y-73994994D01*
X188949200Y-74187368D01*
X188949200Y-75602733D01*
X188987466Y-75795107D01*
X188987468Y-75795115D01*
X189062532Y-75976335D01*
X189062537Y-75976345D01*
X189171511Y-76139435D01*
X189171514Y-76139439D01*
X189310211Y-76278136D01*
X189310215Y-76278139D01*
X189473305Y-76387113D01*
X189473309Y-76387115D01*
X189473312Y-76387117D01*
X189654536Y-76462183D01*
X189846917Y-76500450D01*
X189846920Y-76500451D01*
X189846922Y-76500451D01*
X190043080Y-76500451D01*
X190043081Y-76500450D01*
X190235464Y-76462183D01*
X190416688Y-76387117D01*
X190579785Y-76278139D01*
X190718488Y-76139436D01*
X190827466Y-75976339D01*
X190902532Y-75795115D01*
X190940800Y-75602729D01*
X190940800Y-75429859D01*
X190960485Y-75362820D01*
X191013289Y-75317065D01*
X191082447Y-75307121D01*
X191146003Y-75336146D01*
X191174158Y-75371406D01*
X191272141Y-75554721D01*
X191272152Y-75554739D01*
X191474141Y-75857036D01*
X191474151Y-75857050D01*
X191704808Y-76138107D01*
X191961894Y-76395193D01*
X191961899Y-76395197D01*
X191961900Y-76395198D01*
X192242957Y-76625855D01*
X192545269Y-76827854D01*
X192545278Y-76827859D01*
X192545280Y-76827860D01*
X192865917Y-76999244D01*
X192865919Y-76999244D01*
X192865925Y-76999248D01*
X193014861Y-77060939D01*
X193069264Y-77104780D01*
X193091329Y-77171074D01*
X193074050Y-77238773D01*
X193022913Y-77286384D01*
X192967408Y-77299500D01*
X178453051Y-77299500D01*
X178446967Y-77299351D01*
X178130279Y-77283793D01*
X178123401Y-77283263D01*
X178050171Y-77275566D01*
X178044938Y-77274903D01*
X177768706Y-77233927D01*
X177761120Y-77232559D01*
X177694691Y-77218439D01*
X177690343Y-77217433D01*
X177413081Y-77147983D01*
X177404893Y-77145630D01*
X177350832Y-77128065D01*
X177347374Y-77126885D01*
X177067191Y-77026633D01*
X177058529Y-77023161D01*
X177025082Y-77008269D01*
X177022502Y-77007085D01*
X176735130Y-76871168D01*
X176724398Y-76865431D01*
X176427675Y-76687582D01*
X176417557Y-76680822D01*
X176139670Y-76474727D01*
X176130264Y-76467007D01*
X176042119Y-76387117D01*
X175873920Y-76234670D01*
X175865329Y-76226079D01*
X175632992Y-75969735D01*
X175625272Y-75960329D01*
X175419177Y-75682442D01*
X175412417Y-75672324D01*
X175370706Y-75602733D01*
X175234562Y-75375591D01*
X175228830Y-75364868D01*
X175092913Y-75077496D01*
X175091729Y-75074916D01*
X175076837Y-75041469D01*
X175073371Y-75032822D01*
X175045676Y-74955422D01*
X175041625Y-74885673D01*
X175051935Y-74867376D01*
X175045404Y-74865833D01*
X175027240Y-74847009D01*
X175006512Y-74831055D01*
X175000043Y-74818823D01*
X174996889Y-74815554D01*
X174990016Y-74799863D01*
X174973084Y-74752541D01*
X174971933Y-74749166D01*
X174954368Y-74695105D01*
X174952021Y-74686939D01*
X174882559Y-74409631D01*
X174881559Y-74405307D01*
X174867436Y-74338862D01*
X174866074Y-74331308D01*
X174825088Y-74055006D01*
X174824438Y-74049882D01*
X174816731Y-73976547D01*
X174816208Y-73969768D01*
X174810930Y-73862321D01*
X174827302Y-73794399D01*
X174877798Y-73746109D01*
X174946385Y-73732784D01*
X175011289Y-73758656D01*
X175040317Y-73791140D01*
X175057289Y-73818655D01*
X175057290Y-73818656D01*
X175181344Y-73942710D01*
X175181348Y-73942713D01*
X175230698Y-73973153D01*
X175239457Y-73982891D01*
X175251107Y-73988887D01*
X175262373Y-74008369D01*
X175277423Y-74025101D01*
X175279526Y-74038030D01*
X175286085Y-74049371D01*
X175285030Y-74071852D01*
X175288644Y-74094063D01*
X175283424Y-74106076D01*
X175282810Y-74119164D01*
X175280162Y-74126143D01*
X175234106Y-74237332D01*
X175234103Y-74237341D01*
X175199500Y-74411304D01*
X175199500Y-74588695D01*
X175228381Y-74733888D01*
X175226049Y-74759939D01*
X175227567Y-74786055D01*
X175222985Y-74794184D01*
X175222154Y-74803479D01*
X175219235Y-74807235D01*
X175262681Y-74840675D01*
X175276989Y-74866197D01*
X175301985Y-74926544D01*
X175301990Y-74926553D01*
X175400535Y-75074034D01*
X175400538Y-75074038D01*
X175525961Y-75199461D01*
X175525965Y-75199464D01*
X175673446Y-75298009D01*
X175673459Y-75298016D01*
X175765515Y-75336146D01*
X175837334Y-75365894D01*
X175837336Y-75365894D01*
X175837341Y-75365896D01*
X176011304Y-75400499D01*
X176011307Y-75400500D01*
X176011309Y-75400500D01*
X176188693Y-75400500D01*
X176188694Y-75400499D01*
X176246682Y-75388964D01*
X176362658Y-75365896D01*
X176362661Y-75365894D01*
X176362666Y-75365894D01*
X176526547Y-75298013D01*
X176674035Y-75199464D01*
X176799464Y-75074035D01*
X176898013Y-74926547D01*
X176965894Y-74762666D01*
X176966437Y-74759939D01*
X177000499Y-74588695D01*
X177000500Y-74588693D01*
X177000500Y-74411306D01*
X177000499Y-74411304D01*
X176965896Y-74237341D01*
X176965893Y-74237332D01*
X176924925Y-74138425D01*
X176917456Y-74068956D01*
X176948732Y-74006477D01*
X176974383Y-73985438D01*
X177043655Y-73942711D01*
X177167711Y-73818655D01*
X177259814Y-73669334D01*
X177314999Y-73502797D01*
X177325500Y-73400008D01*
X177325500Y-72049992D01*
X177314999Y-71947203D01*
X177259814Y-71780666D01*
X177237987Y-71745280D01*
X177167713Y-71631348D01*
X177167710Y-71631344D01*
X177043655Y-71507289D01*
X177043651Y-71507286D01*
X176905299Y-71421949D01*
X176858574Y-71370001D01*
X176847353Y-71301039D01*
X176867293Y-71247521D01*
X176898013Y-71201547D01*
X176965894Y-71037666D01*
X177000500Y-70863691D01*
X177000500Y-70686309D01*
X177000500Y-70686306D01*
X177000499Y-70686304D01*
X176965896Y-70512341D01*
X176965893Y-70512332D01*
X176949248Y-70472148D01*
X176908428Y-70373599D01*
X176900960Y-70304131D01*
X176932235Y-70241652D01*
X176957887Y-70220613D01*
X177043655Y-70167711D01*
X177167711Y-70043655D01*
X177259814Y-69894334D01*
X177314999Y-69727797D01*
X177325500Y-69625008D01*
X177325500Y-68274992D01*
X177314999Y-68172203D01*
X177259814Y-68005666D01*
X177233442Y-67962911D01*
X177167713Y-67856348D01*
X177167710Y-67856344D01*
X177043655Y-67732289D01*
X177043651Y-67732286D01*
X176894337Y-67640187D01*
X176894335Y-67640186D01*
X176811065Y-67612593D01*
X176727797Y-67585001D01*
X176727795Y-67585000D01*
X176625015Y-67574500D01*
X176625008Y-67574500D01*
X175599992Y-67574500D01*
X175599984Y-67574500D01*
X175497204Y-67585000D01*
X175497203Y-67585001D01*
X175330664Y-67640186D01*
X175330662Y-67640187D01*
X175181348Y-67732286D01*
X175181344Y-67732289D01*
X175057288Y-67856345D01*
X175030038Y-67900525D01*
X174978090Y-67947249D01*
X174909127Y-67958470D01*
X174845045Y-67930626D01*
X174806190Y-67872557D01*
X174800500Y-67835427D01*
X174800500Y-54893555D01*
X177095000Y-54893555D01*
X177095000Y-56812300D01*
X179250000Y-56812300D01*
X179750000Y-56812300D01*
X181905000Y-56812300D01*
X181905000Y-54893572D01*
X181904999Y-54893555D01*
X181898598Y-54834027D01*
X181898596Y-54834020D01*
X181848354Y-54699313D01*
X181848350Y-54699306D01*
X181762190Y-54584212D01*
X181762187Y-54584209D01*
X181647093Y-54498049D01*
X181647086Y-54498045D01*
X181512379Y-54447803D01*
X181512372Y-54447801D01*
X181452844Y-54441400D01*
X179750000Y-54441400D01*
X179750000Y-56812300D01*
X179250000Y-56812300D01*
X179250000Y-54441400D01*
X177547155Y-54441400D01*
X177487627Y-54447801D01*
X177487620Y-54447803D01*
X177352913Y-54498045D01*
X177352906Y-54498049D01*
X177237812Y-54584209D01*
X177237809Y-54584212D01*
X177151649Y-54699306D01*
X177151645Y-54699313D01*
X177101403Y-54834020D01*
X177101401Y-54834027D01*
X177095000Y-54893555D01*
X174800500Y-54893555D01*
X174800500Y-50675436D01*
X175335000Y-50675436D01*
X175335000Y-50874563D01*
X175366147Y-51071222D01*
X175427679Y-51260594D01*
X175518077Y-51438008D01*
X175545580Y-51475863D01*
X175545581Y-51475864D01*
X176108871Y-50912574D01*
X176124755Y-50971853D01*
X176191898Y-51088147D01*
X176286853Y-51183102D01*
X176403147Y-51250245D01*
X176462425Y-51266128D01*
X175899134Y-51829417D01*
X175936994Y-51856924D01*
X176114405Y-51947320D01*
X176303777Y-52008852D01*
X176500437Y-52040000D01*
X176699563Y-52040000D01*
X176896222Y-52008852D01*
X177085594Y-51947320D01*
X177263005Y-51856924D01*
X177300863Y-51829418D01*
X177300863Y-51829417D01*
X176737574Y-51266128D01*
X176796853Y-51250245D01*
X176913147Y-51183102D01*
X177008102Y-51088147D01*
X177075245Y-50971853D01*
X177091128Y-50912574D01*
X177654417Y-51475863D01*
X177654418Y-51475863D01*
X177681924Y-51438005D01*
X177772320Y-51260594D01*
X177833852Y-51071222D01*
X177865000Y-50874563D01*
X177865000Y-50675436D01*
X177833852Y-50478777D01*
X177772320Y-50289405D01*
X177681924Y-50111994D01*
X177654417Y-50074135D01*
X177654417Y-50074134D01*
X177091128Y-50637424D01*
X177075245Y-50578147D01*
X177008102Y-50461853D01*
X176913147Y-50366898D01*
X176796853Y-50299755D01*
X176737574Y-50283871D01*
X177300864Y-49720581D01*
X177300863Y-49720580D01*
X177263008Y-49693077D01*
X177085594Y-49602679D01*
X176896222Y-49541147D01*
X176699563Y-49510000D01*
X176500437Y-49510000D01*
X176303777Y-49541147D01*
X176114405Y-49602679D01*
X175936990Y-49693077D01*
X175899135Y-49720580D01*
X175899135Y-49720581D01*
X176462425Y-50283871D01*
X176403147Y-50299755D01*
X176286853Y-50366898D01*
X176191898Y-50461853D01*
X176124755Y-50578147D01*
X176108871Y-50637425D01*
X175545581Y-50074135D01*
X175545580Y-50074135D01*
X175518077Y-50111990D01*
X175427679Y-50289405D01*
X175366147Y-50478777D01*
X175335000Y-50675436D01*
X174800500Y-50675436D01*
X174800500Y-42675403D01*
X175334500Y-42675403D01*
X175334500Y-42874597D01*
X175348523Y-42963135D01*
X175365661Y-43071340D01*
X175365661Y-43071343D01*
X175427213Y-43260780D01*
X175496393Y-43396552D01*
X175517647Y-43438266D01*
X175634731Y-43599418D01*
X175775582Y-43740269D01*
X175936734Y-43857353D01*
X176070005Y-43925258D01*
X176114219Y-43947786D01*
X176303657Y-44009338D01*
X176303658Y-44009338D01*
X176303661Y-44009339D01*
X176500403Y-44040500D01*
X176500404Y-44040500D01*
X176699596Y-44040500D01*
X176699597Y-44040500D01*
X176896339Y-44009339D01*
X176896342Y-44009338D01*
X176896343Y-44009338D01*
X177085780Y-43947786D01*
X177085780Y-43947785D01*
X177085783Y-43947785D01*
X177263266Y-43857353D01*
X177424418Y-43740269D01*
X177565269Y-43599418D01*
X177672655Y-43451613D01*
X177727985Y-43408949D01*
X177772973Y-43400500D01*
X178790547Y-43400500D01*
X178857586Y-43420185D01*
X178903341Y-43472989D01*
X178913285Y-43542147D01*
X178884260Y-43605703D01*
X178878228Y-43612181D01*
X176987121Y-45503287D01*
X176925798Y-45536772D01*
X176880043Y-45538079D01*
X176699597Y-45509500D01*
X176500403Y-45509500D01*
X176434822Y-45519887D01*
X176303659Y-45540661D01*
X176303656Y-45540661D01*
X176114219Y-45602213D01*
X175936733Y-45692647D01*
X175844790Y-45759447D01*
X175775582Y-45809731D01*
X175775580Y-45809733D01*
X175775579Y-45809733D01*
X175634733Y-45950579D01*
X175634733Y-45950580D01*
X175634731Y-45950582D01*
X175603446Y-45993642D01*
X175517647Y-46111733D01*
X175427213Y-46289219D01*
X175365661Y-46478656D01*
X175365661Y-46478659D01*
X175334500Y-46675403D01*
X175334500Y-46874596D01*
X175365661Y-47071340D01*
X175365661Y-47071343D01*
X175427213Y-47260780D01*
X175480350Y-47365066D01*
X175517647Y-47438266D01*
X175634731Y-47599418D01*
X175775582Y-47740269D01*
X175936734Y-47857353D01*
X176114217Y-47947785D01*
X176114219Y-47947786D01*
X176303657Y-48009338D01*
X176303658Y-48009338D01*
X176303661Y-48009339D01*
X176500403Y-48040500D01*
X176500404Y-48040500D01*
X176699596Y-48040500D01*
X176699597Y-48040500D01*
X176896339Y-48009339D01*
X176896342Y-48009338D01*
X176896343Y-48009338D01*
X177085780Y-47947786D01*
X177085780Y-47947785D01*
X177085783Y-47947785D01*
X177263266Y-47857353D01*
X177424418Y-47740269D01*
X177565269Y-47599418D01*
X177682353Y-47438266D01*
X177772785Y-47260783D01*
X177777352Y-47246726D01*
X177834338Y-47071343D01*
X177834338Y-47071342D01*
X177834339Y-47071339D01*
X177865500Y-46874597D01*
X177865500Y-46675403D01*
X177860440Y-46643453D01*
X177836920Y-46494956D01*
X177845875Y-46425662D01*
X177871712Y-46387877D01*
X178756302Y-45503287D01*
X179772645Y-44486944D01*
X179833966Y-44453461D01*
X179903658Y-44458445D01*
X179907772Y-44460064D01*
X179950334Y-44477694D01*
X179950336Y-44477694D01*
X179950341Y-44477696D01*
X180124304Y-44512299D01*
X180124307Y-44512300D01*
X180124309Y-44512300D01*
X180301693Y-44512300D01*
X180301694Y-44512299D01*
X180359682Y-44500764D01*
X180475658Y-44477696D01*
X180475661Y-44477694D01*
X180475666Y-44477694D01*
X180639547Y-44409813D01*
X180787035Y-44311264D01*
X180912464Y-44185835D01*
X181011013Y-44038347D01*
X181078894Y-43874466D01*
X181080778Y-43864998D01*
X181105588Y-43740266D01*
X181113500Y-43700491D01*
X181113500Y-43523109D01*
X181113500Y-43523106D01*
X181113499Y-43523104D01*
X181078896Y-43349141D01*
X181078893Y-43349132D01*
X181011016Y-43185259D01*
X181011009Y-43185246D01*
X180912464Y-43037765D01*
X180912461Y-43037761D01*
X180787037Y-42912337D01*
X180778210Y-42906439D01*
X180761557Y-42895312D01*
X180716754Y-42841702D01*
X180708045Y-42772377D01*
X180738199Y-42709350D01*
X180742754Y-42704544D01*
X180760064Y-42687235D01*
X180858613Y-42539747D01*
X180926494Y-42375866D01*
X180938870Y-42313651D01*
X180961099Y-42201895D01*
X180961100Y-42201893D01*
X180961100Y-42024506D01*
X180961099Y-42024504D01*
X180926496Y-41850541D01*
X180926493Y-41850532D01*
X180858616Y-41686659D01*
X180858609Y-41686646D01*
X180760064Y-41539165D01*
X180760061Y-41539161D01*
X180634638Y-41413738D01*
X180634634Y-41413735D01*
X180487153Y-41315190D01*
X180487140Y-41315183D01*
X180323267Y-41247306D01*
X180323258Y-41247303D01*
X180149294Y-41212700D01*
X180149291Y-41212700D01*
X179971909Y-41212700D01*
X179971906Y-41212700D01*
X179797941Y-41247303D01*
X179797932Y-41247306D01*
X179634059Y-41315183D01*
X179634046Y-41315190D01*
X179486565Y-41413735D01*
X179486561Y-41413738D01*
X179361138Y-41539161D01*
X179361135Y-41539165D01*
X179262590Y-41686646D01*
X179262583Y-41686659D01*
X179194706Y-41850532D01*
X179194703Y-41850541D01*
X179160100Y-42024504D01*
X179160100Y-42025500D01*
X179159952Y-42026001D01*
X179159503Y-42030569D01*
X179158636Y-42030483D01*
X179140415Y-42092539D01*
X179087611Y-42138294D01*
X179036100Y-42149500D01*
X177772973Y-42149500D01*
X177705934Y-42129815D01*
X177672655Y-42098386D01*
X177668407Y-42092539D01*
X177565269Y-41950582D01*
X177424418Y-41809731D01*
X177263266Y-41692647D01*
X177251488Y-41686646D01*
X177085780Y-41602213D01*
X176896342Y-41540661D01*
X176748782Y-41517290D01*
X176699597Y-41509500D01*
X176500403Y-41509500D01*
X176434822Y-41519887D01*
X176303659Y-41540661D01*
X176303656Y-41540661D01*
X176114219Y-41602213D01*
X175936733Y-41692647D01*
X175859264Y-41748932D01*
X175775582Y-41809731D01*
X175775580Y-41809733D01*
X175775579Y-41809733D01*
X175634733Y-41950579D01*
X175634733Y-41950580D01*
X175634731Y-41950582D01*
X175607880Y-41987539D01*
X175517647Y-42111733D01*
X175427213Y-42289219D01*
X175365661Y-42478656D01*
X175365661Y-42478659D01*
X175347235Y-42594998D01*
X175334500Y-42675403D01*
X174800500Y-42675403D01*
X174800500Y-40551304D01*
X189751900Y-40551304D01*
X189751900Y-40728695D01*
X189786503Y-40902658D01*
X189786506Y-40902667D01*
X189854383Y-41066540D01*
X189854390Y-41066553D01*
X189952935Y-41214034D01*
X189952938Y-41214038D01*
X190078361Y-41339461D01*
X190078365Y-41339464D01*
X190225846Y-41438009D01*
X190225859Y-41438016D01*
X190303898Y-41470340D01*
X190389734Y-41505894D01*
X190389736Y-41505894D01*
X190389741Y-41505896D01*
X190563704Y-41540499D01*
X190563707Y-41540500D01*
X190563709Y-41540500D01*
X190741093Y-41540500D01*
X190741094Y-41540499D01*
X190799082Y-41528964D01*
X190915058Y-41505896D01*
X190915061Y-41505894D01*
X190915066Y-41505894D01*
X191008695Y-41467111D01*
X191078164Y-41459643D01*
X191121242Y-41476133D01*
X191258684Y-41560908D01*
X191422447Y-41615174D01*
X191523523Y-41625500D01*
X192221876Y-41625499D01*
X192221884Y-41625498D01*
X192221887Y-41625498D01*
X192277230Y-41619844D01*
X192322953Y-41615174D01*
X192486716Y-41560908D01*
X192633550Y-41470340D01*
X192647871Y-41456018D01*
X192709189Y-41422533D01*
X192778881Y-41427514D01*
X192823234Y-41456017D01*
X192837161Y-41469944D01*
X192837165Y-41469947D01*
X192983888Y-41560448D01*
X192983899Y-41560453D01*
X193147547Y-41614680D01*
X193248551Y-41624999D01*
X193847700Y-41624999D01*
X193946840Y-41624999D01*
X193946854Y-41624998D01*
X194047852Y-41614680D01*
X194211500Y-41560453D01*
X194211511Y-41560448D01*
X194358234Y-41469947D01*
X194358238Y-41469944D01*
X194480144Y-41348038D01*
X194480147Y-41348034D01*
X194570648Y-41201311D01*
X194570653Y-41201300D01*
X194624880Y-41037652D01*
X194635199Y-40936654D01*
X194635200Y-40936641D01*
X194635200Y-40900000D01*
X193847700Y-40900000D01*
X193847700Y-41624999D01*
X193248551Y-41624999D01*
X193347700Y-41624998D01*
X193347700Y-40400000D01*
X193847700Y-40400000D01*
X194635199Y-40400000D01*
X194635199Y-40363360D01*
X194635198Y-40363345D01*
X194624880Y-40262347D01*
X194570653Y-40098699D01*
X194570648Y-40098688D01*
X194480147Y-39951965D01*
X194480144Y-39951961D01*
X194358238Y-39830055D01*
X194358234Y-39830052D01*
X194211511Y-39739551D01*
X194211500Y-39739546D01*
X194047852Y-39685319D01*
X193946854Y-39675000D01*
X193847700Y-39675000D01*
X193847700Y-40400000D01*
X193347700Y-40400000D01*
X193347700Y-39674999D01*
X193248560Y-39675000D01*
X193248544Y-39675001D01*
X193147547Y-39685319D01*
X192983899Y-39739546D01*
X192983888Y-39739551D01*
X192837165Y-39830052D01*
X192823232Y-39843985D01*
X192761908Y-39877468D01*
X192692216Y-39872482D01*
X192647872Y-39843982D01*
X192633551Y-39829661D01*
X192633550Y-39829660D01*
X192542329Y-39773395D01*
X192486718Y-39739093D01*
X192486713Y-39739091D01*
X192485269Y-39738612D01*
X192322953Y-39684826D01*
X192322951Y-39684825D01*
X192221878Y-39674500D01*
X191523530Y-39674500D01*
X191523512Y-39674501D01*
X191422447Y-39684825D01*
X191258684Y-39739092D01*
X191258677Y-39739095D01*
X191140641Y-39811900D01*
X191073248Y-39830340D01*
X191028093Y-39820923D01*
X190915066Y-39774106D01*
X190915059Y-39774104D01*
X190915058Y-39774104D01*
X190915058Y-39774103D01*
X190741094Y-39739500D01*
X190741091Y-39739500D01*
X190563709Y-39739500D01*
X190563706Y-39739500D01*
X190389741Y-39774103D01*
X190389732Y-39774106D01*
X190225859Y-39841983D01*
X190225846Y-39841990D01*
X190078365Y-39940535D01*
X190078361Y-39940538D01*
X189952938Y-40065961D01*
X189952935Y-40065965D01*
X189854390Y-40213446D01*
X189854383Y-40213459D01*
X189786506Y-40377332D01*
X189786503Y-40377341D01*
X189751900Y-40551304D01*
X174800500Y-40551304D01*
X174800500Y-38675403D01*
X175334500Y-38675403D01*
X175334500Y-38874596D01*
X175365661Y-39071340D01*
X175365661Y-39071343D01*
X175427213Y-39260780D01*
X175427215Y-39260783D01*
X175517647Y-39438266D01*
X175634731Y-39599418D01*
X175775582Y-39740269D01*
X175936734Y-39857353D01*
X176099988Y-39940535D01*
X176114219Y-39947786D01*
X176303657Y-40009338D01*
X176303658Y-40009338D01*
X176303661Y-40009339D01*
X176500403Y-40040500D01*
X176500404Y-40040500D01*
X176699596Y-40040500D01*
X176699597Y-40040500D01*
X176896339Y-40009339D01*
X176896342Y-40009338D01*
X176896343Y-40009338D01*
X177085780Y-39947786D01*
X177085780Y-39947785D01*
X177085783Y-39947785D01*
X177263266Y-39857353D01*
X177424418Y-39740269D01*
X177565269Y-39599418D01*
X177682353Y-39438266D01*
X177772785Y-39260783D01*
X177834339Y-39071339D01*
X177865500Y-38874597D01*
X177865500Y-38675403D01*
X177834339Y-38478661D01*
X177834338Y-38478657D01*
X177834338Y-38478656D01*
X177772786Y-38289219D01*
X177682352Y-38111733D01*
X177665842Y-38089009D01*
X177565269Y-37950582D01*
X177424418Y-37809731D01*
X177263266Y-37692647D01*
X177241136Y-37681371D01*
X177085780Y-37602213D01*
X176896342Y-37540661D01*
X176748782Y-37517290D01*
X176699597Y-37509500D01*
X176500403Y-37509500D01*
X176434822Y-37519887D01*
X176303659Y-37540661D01*
X176303656Y-37540661D01*
X176114219Y-37602213D01*
X175936733Y-37692647D01*
X175865523Y-37744385D01*
X175775582Y-37809731D01*
X175775580Y-37809733D01*
X175775579Y-37809733D01*
X175634733Y-37950579D01*
X175634733Y-37950580D01*
X175634731Y-37950582D01*
X175584447Y-38019790D01*
X175517647Y-38111733D01*
X175427213Y-38289219D01*
X175365661Y-38478656D01*
X175365661Y-38478659D01*
X175334500Y-38675403D01*
X174800500Y-38675403D01*
X174800500Y-33230380D01*
X175505029Y-33230380D01*
X175505029Y-35026115D01*
X175505030Y-35026121D01*
X175511437Y-35085728D01*
X175561731Y-35220573D01*
X175561735Y-35220580D01*
X175647981Y-35335789D01*
X175647984Y-35335792D01*
X175763191Y-35422037D01*
X175763200Y-35422042D01*
X175898046Y-35472336D01*
X175898045Y-35472336D01*
X175904973Y-35473080D01*
X175957656Y-35478745D01*
X177270075Y-35478744D01*
X177337114Y-35498429D01*
X177357756Y-35515063D01*
X178295402Y-36452709D01*
X178328887Y-36514032D01*
X178325429Y-36579387D01*
X178322826Y-36587242D01*
X178312500Y-36688315D01*
X178312500Y-37261669D01*
X178312501Y-37261687D01*
X178322825Y-37362752D01*
X178359109Y-37472249D01*
X178371453Y-37509500D01*
X178377092Y-37526515D01*
X178377093Y-37526518D01*
X178392551Y-37551579D01*
X178467660Y-37673350D01*
X178589650Y-37795340D01*
X178736484Y-37885908D01*
X178900247Y-37940174D01*
X179001323Y-37950500D01*
X179599676Y-37950499D01*
X179599684Y-37950498D01*
X179599687Y-37950498D01*
X179655030Y-37944844D01*
X179700753Y-37940174D01*
X179864516Y-37885908D01*
X180011350Y-37795340D01*
X180125319Y-37681371D01*
X180186642Y-37647886D01*
X180256334Y-37652870D01*
X180300681Y-37681371D01*
X180414650Y-37795340D01*
X180561484Y-37885908D01*
X180725247Y-37940174D01*
X180826323Y-37950500D01*
X181424676Y-37950499D01*
X181424684Y-37950498D01*
X181424687Y-37950498D01*
X181480030Y-37944844D01*
X181525753Y-37940174D01*
X181689516Y-37885908D01*
X181836350Y-37795340D01*
X181958340Y-37673350D01*
X181966942Y-37659404D01*
X182018890Y-37612679D01*
X182072481Y-37600500D01*
X184894616Y-37600500D01*
X184961655Y-37620185D01*
X185007410Y-37672989D01*
X185012547Y-37686181D01*
X185031458Y-37744385D01*
X185094750Y-37868600D01*
X185103568Y-37885907D01*
X185123492Y-37925008D01*
X185242639Y-38089003D01*
X185385995Y-38232359D01*
X185539456Y-38343853D01*
X185549994Y-38351509D01*
X185730618Y-38443542D01*
X185923416Y-38506186D01*
X186123640Y-38537899D01*
X186123641Y-38537899D01*
X186326359Y-38537899D01*
X186326360Y-38537899D01*
X186526584Y-38506186D01*
X186719382Y-38443542D01*
X186900006Y-38351509D01*
X186992085Y-38284609D01*
X187064004Y-38232359D01*
X187064006Y-38232356D01*
X187064010Y-38232354D01*
X187207355Y-38089009D01*
X187207357Y-38089005D01*
X187207360Y-38089003D01*
X187307927Y-37950582D01*
X187326510Y-37925005D01*
X187418543Y-37744381D01*
X187481187Y-37551583D01*
X187512900Y-37351359D01*
X187512900Y-37148639D01*
X187481187Y-36948415D01*
X187418543Y-36755617D01*
X187329884Y-36581616D01*
X187316989Y-36512948D01*
X187343265Y-36448208D01*
X187400371Y-36407950D01*
X187470177Y-36404958D01*
X187528051Y-36437641D01*
X187933708Y-36843299D01*
X187967193Y-36904622D01*
X187968500Y-36950378D01*
X187937099Y-37148639D01*
X187937099Y-37351358D01*
X187967642Y-37544200D01*
X187968812Y-37551583D01*
X188031456Y-37744381D01*
X188103567Y-37885907D01*
X188123491Y-37925008D01*
X188242638Y-38089003D01*
X188385994Y-38232359D01*
X188539455Y-38343853D01*
X188549993Y-38351509D01*
X188730617Y-38443542D01*
X188923415Y-38506186D01*
X189123639Y-38537899D01*
X189123640Y-38537899D01*
X189326358Y-38537899D01*
X189326359Y-38537899D01*
X189526583Y-38506186D01*
X189719381Y-38443542D01*
X189900005Y-38351509D01*
X189992084Y-38284609D01*
X190064003Y-38232359D01*
X190064005Y-38232356D01*
X190064009Y-38232354D01*
X190207354Y-38089009D01*
X190207356Y-38089005D01*
X190207359Y-38089003D01*
X190307926Y-37950582D01*
X190326509Y-37925005D01*
X190418542Y-37744381D01*
X190481186Y-37551583D01*
X190512899Y-37351359D01*
X190512899Y-37148639D01*
X190481186Y-36948415D01*
X190418542Y-36755617D01*
X190326509Y-36574993D01*
X190281431Y-36512948D01*
X190207359Y-36410994D01*
X190064003Y-36267638D01*
X189900008Y-36148491D01*
X189900007Y-36148490D01*
X189900005Y-36148489D01*
X189719381Y-36056456D01*
X189526583Y-35993812D01*
X189526581Y-35993811D01*
X189526579Y-35993811D01*
X189373951Y-35969637D01*
X189326359Y-35962099D01*
X189123639Y-35962099D01*
X189098387Y-35966098D01*
X188925378Y-35993500D01*
X188856084Y-35984545D01*
X188818299Y-35958708D01*
X188733218Y-35873627D01*
X188412640Y-35553050D01*
X188379156Y-35491728D01*
X188384140Y-35422037D01*
X188426011Y-35366103D01*
X188491476Y-35341686D01*
X188556616Y-35354884D01*
X188730617Y-35443543D01*
X188923415Y-35506187D01*
X189123639Y-35537900D01*
X189123640Y-35537900D01*
X189326358Y-35537900D01*
X189326359Y-35537900D01*
X189526583Y-35506187D01*
X189719381Y-35443543D01*
X189900005Y-35351510D01*
X189994567Y-35282807D01*
X190064003Y-35232360D01*
X190064005Y-35232357D01*
X190064009Y-35232355D01*
X190207354Y-35089010D01*
X190207356Y-35089006D01*
X190207359Y-35089004D01*
X190308441Y-34949874D01*
X190326509Y-34925006D01*
X190418542Y-34744382D01*
X190481186Y-34551584D01*
X190512899Y-34351360D01*
X190512899Y-34148640D01*
X190481186Y-33948416D01*
X190418542Y-33755618D01*
X190347706Y-33616595D01*
X190334810Y-33547926D01*
X190361086Y-33483185D01*
X190418193Y-33442928D01*
X190458191Y-33436300D01*
X194917770Y-33436300D01*
X194984809Y-33455985D01*
X195030564Y-33508789D01*
X195040508Y-33577947D01*
X195011483Y-33641503D01*
X194961103Y-33676482D01*
X194945113Y-33682445D01*
X194945106Y-33682449D01*
X194830012Y-33768609D01*
X194830009Y-33768612D01*
X194743849Y-33883706D01*
X194743845Y-33883713D01*
X194693603Y-34018420D01*
X194693601Y-34018427D01*
X194687200Y-34077955D01*
X194687200Y-34725800D01*
X195604188Y-34725800D01*
X195571275Y-34782807D01*
X195537200Y-34909974D01*
X195537200Y-35041626D01*
X195571275Y-35168793D01*
X195604188Y-35225800D01*
X194687200Y-35225800D01*
X194687200Y-35873644D01*
X194693601Y-35933172D01*
X194693603Y-35933179D01*
X194743845Y-36067886D01*
X194743849Y-36067893D01*
X194830009Y-36182987D01*
X194830012Y-36182990D01*
X194945106Y-36269150D01*
X194945113Y-36269154D01*
X195079820Y-36319396D01*
X195079827Y-36319398D01*
X195139355Y-36325799D01*
X195139372Y-36325800D01*
X195787200Y-36325800D01*
X195787200Y-35408812D01*
X195844207Y-35441725D01*
X195971374Y-35475800D01*
X196103026Y-35475800D01*
X196230193Y-35441725D01*
X196287200Y-35408812D01*
X196287200Y-36325800D01*
X196935028Y-36325800D01*
X196935044Y-36325799D01*
X196994572Y-36319398D01*
X196994579Y-36319396D01*
X197129286Y-36269154D01*
X197129293Y-36269150D01*
X197244387Y-36182990D01*
X197244390Y-36182987D01*
X197330550Y-36067893D01*
X197330554Y-36067886D01*
X197380796Y-35933179D01*
X197380798Y-35933172D01*
X197387199Y-35873644D01*
X197387200Y-35873627D01*
X197387200Y-35225800D01*
X196470212Y-35225800D01*
X196503125Y-35168793D01*
X196537200Y-35041626D01*
X196537200Y-34909974D01*
X196503125Y-34782807D01*
X196470212Y-34725800D01*
X197387200Y-34725800D01*
X197387200Y-34077972D01*
X197387199Y-34077955D01*
X197380798Y-34018427D01*
X197380796Y-34018420D01*
X197330554Y-33883713D01*
X197330550Y-33883706D01*
X197244390Y-33768612D01*
X197244387Y-33768609D01*
X197129293Y-33682449D01*
X197129288Y-33682446D01*
X196997728Y-33633377D01*
X196941795Y-33591505D01*
X196917378Y-33526041D01*
X196932230Y-33457768D01*
X196953375Y-33429520D01*
X197067304Y-33315592D01*
X197118476Y-33245160D01*
X197192248Y-33143620D01*
X197192247Y-33143620D01*
X197192251Y-33143616D01*
X197288757Y-32954212D01*
X197354446Y-32752043D01*
X197387700Y-32542087D01*
X197387700Y-32329513D01*
X197354446Y-32119557D01*
X197288757Y-31917388D01*
X197192251Y-31727984D01*
X197192249Y-31727981D01*
X197192248Y-31727979D01*
X197067309Y-31556013D01*
X196916986Y-31405690D01*
X196745020Y-31280751D01*
X196555614Y-31184244D01*
X196555613Y-31184243D01*
X196555612Y-31184243D01*
X196353443Y-31118554D01*
X196353441Y-31118553D01*
X196353440Y-31118553D01*
X196192157Y-31093008D01*
X196143487Y-31085300D01*
X195930913Y-31085300D01*
X195882242Y-31093008D01*
X195720960Y-31118553D01*
X195518785Y-31184244D01*
X195329379Y-31280751D01*
X195153466Y-31408559D01*
X195152835Y-31407691D01*
X195093781Y-31434159D01*
X195077000Y-31435300D01*
X189028582Y-31435300D01*
X188961543Y-31415615D01*
X188915788Y-31362811D01*
X188905844Y-31293653D01*
X188934869Y-31230097D01*
X188940901Y-31223619D01*
X189061997Y-31102522D01*
X189062002Y-31102517D01*
X189203608Y-30917972D01*
X189319915Y-30716523D01*
X189408932Y-30501616D01*
X189469137Y-30276928D01*
X189499500Y-30046305D01*
X189499500Y-29813691D01*
X189469137Y-29583068D01*
X189408932Y-29358380D01*
X189319915Y-29143473D01*
X189319913Y-29143470D01*
X189319911Y-29143465D01*
X189203612Y-28942031D01*
X189203608Y-28942024D01*
X189062002Y-28757479D01*
X189061997Y-28757473D01*
X188897524Y-28593000D01*
X188897517Y-28592994D01*
X188712982Y-28451396D01*
X188712980Y-28451394D01*
X188712974Y-28451390D01*
X188712969Y-28451387D01*
X188712966Y-28451385D01*
X188511532Y-28335086D01*
X188511521Y-28335081D01*
X188296620Y-28246066D01*
X188184274Y-28215963D01*
X188071930Y-28185861D01*
X188020680Y-28179113D01*
X187841314Y-28155498D01*
X187841307Y-28155498D01*
X187608693Y-28155498D01*
X187608685Y-28155498D01*
X187403694Y-28182487D01*
X187378070Y-28185861D01*
X187321898Y-28200912D01*
X187153379Y-28246066D01*
X186938478Y-28335081D01*
X186938467Y-28335086D01*
X186737033Y-28451385D01*
X186737017Y-28451396D01*
X186552482Y-28592994D01*
X186552475Y-28593000D01*
X186388002Y-28757473D01*
X186387996Y-28757480D01*
X186246398Y-28942015D01*
X186246387Y-28942031D01*
X186130088Y-29143465D01*
X186130083Y-29143476D01*
X186041068Y-29358377D01*
X185980863Y-29583069D01*
X185950500Y-29813683D01*
X185950500Y-30046312D01*
X185974115Y-30225678D01*
X185980863Y-30276928D01*
X186010965Y-30389272D01*
X186041068Y-30501618D01*
X186130083Y-30716519D01*
X186130088Y-30716530D01*
X186246387Y-30917964D01*
X186246398Y-30917980D01*
X186387996Y-31102515D01*
X186388002Y-31102522D01*
X186552475Y-31266995D01*
X186552482Y-31267001D01*
X186587216Y-31293653D01*
X186737026Y-31408606D01*
X186737033Y-31408610D01*
X186938467Y-31524909D01*
X186938472Y-31524911D01*
X186938475Y-31524913D01*
X187153382Y-31613930D01*
X187176824Y-31620211D01*
X187236484Y-31656576D01*
X187267013Y-31719424D01*
X187258718Y-31788799D01*
X187232411Y-31827667D01*
X186121639Y-32938439D01*
X186060316Y-32971924D01*
X186053357Y-32973231D01*
X185923418Y-32993812D01*
X185730615Y-33056458D01*
X185549990Y-33148492D01*
X185385995Y-33267639D01*
X185242639Y-33410995D01*
X185123492Y-33574990D01*
X185031458Y-33755615D01*
X184968812Y-33948419D01*
X184937100Y-34148640D01*
X184937100Y-34351359D01*
X184965766Y-34532351D01*
X184968813Y-34551584D01*
X185025419Y-34725800D01*
X185031458Y-34744384D01*
X185101172Y-34881205D01*
X185114068Y-34949874D01*
X185087792Y-35014615D01*
X185030685Y-35054872D01*
X184990687Y-35061500D01*
X181264737Y-35061500D01*
X181197698Y-35041815D01*
X181177056Y-35025181D01*
X180737957Y-34586082D01*
X180704472Y-34524759D01*
X180707707Y-34460082D01*
X180712775Y-34444488D01*
X180746029Y-34234532D01*
X180746029Y-34021958D01*
X180712775Y-33812002D01*
X180647086Y-33609833D01*
X180550580Y-33420429D01*
X180550578Y-33420426D01*
X180550577Y-33420424D01*
X180425638Y-33248458D01*
X180275315Y-33098135D01*
X180103349Y-32973196D01*
X179913943Y-32876689D01*
X179913942Y-32876688D01*
X179913941Y-32876688D01*
X179711772Y-32810999D01*
X179711770Y-32810998D01*
X179711769Y-32810998D01*
X179550486Y-32785453D01*
X179501816Y-32777745D01*
X179289242Y-32777745D01*
X179240571Y-32785453D01*
X179079289Y-32810998D01*
X178877114Y-32876689D01*
X178687708Y-32973196D01*
X178515744Y-33098134D01*
X178402202Y-33211676D01*
X178340879Y-33245160D01*
X178271187Y-33240176D01*
X178215254Y-33198304D01*
X178198339Y-33167327D01*
X178149326Y-33035916D01*
X178149322Y-33035909D01*
X178063076Y-32920700D01*
X178063073Y-32920697D01*
X177947864Y-32834451D01*
X177947857Y-32834447D01*
X177813011Y-32784153D01*
X177813012Y-32784153D01*
X177753412Y-32777746D01*
X177753410Y-32777745D01*
X177753402Y-32777745D01*
X177753393Y-32777745D01*
X175957658Y-32777745D01*
X175957652Y-32777746D01*
X175898045Y-32784153D01*
X175763200Y-32834447D01*
X175763193Y-32834451D01*
X175647984Y-32920697D01*
X175647981Y-32920700D01*
X175561735Y-33035909D01*
X175561731Y-33035916D01*
X175511437Y-33170762D01*
X175505030Y-33230361D01*
X175505029Y-33230380D01*
X174800500Y-33230380D01*
X174800500Y-30132590D01*
X174820185Y-30065551D01*
X174872989Y-30019796D01*
X174942147Y-30009852D01*
X175005703Y-30038877D01*
X175039060Y-30085135D01*
X175100753Y-30234076D01*
X175100754Y-30234078D01*
X175100756Y-30234083D01*
X175272140Y-30554720D01*
X175272151Y-30554738D01*
X175474140Y-30857035D01*
X175474150Y-30857049D01*
X175704807Y-31138106D01*
X175961893Y-31395192D01*
X175961898Y-31395196D01*
X175961899Y-31395197D01*
X176242956Y-31625854D01*
X176545268Y-31827853D01*
X176545277Y-31827858D01*
X176545279Y-31827859D01*
X176865916Y-31999243D01*
X176865918Y-31999243D01*
X176865924Y-31999247D01*
X177201836Y-32138386D01*
X177549767Y-32243930D01*
X177549773Y-32243931D01*
X177549776Y-32243932D01*
X177549787Y-32243935D01*
X177906369Y-32314862D01*
X178268206Y-32350500D01*
X178268209Y-32350500D01*
X178631791Y-32350500D01*
X178631794Y-32350500D01*
X178993631Y-32314862D01*
X179063045Y-32301054D01*
X179350212Y-32243935D01*
X179350223Y-32243932D01*
X179350223Y-32243931D01*
X179350233Y-32243930D01*
X179698164Y-32138386D01*
X180034076Y-31999247D01*
X180354732Y-31827853D01*
X180657044Y-31625854D01*
X180938101Y-31395197D01*
X181195197Y-31138101D01*
X181425854Y-30857044D01*
X181627853Y-30554732D01*
X181799247Y-30234076D01*
X181938386Y-29898164D01*
X182043930Y-29550233D01*
X182043932Y-29550223D01*
X182043935Y-29550212D01*
X182114862Y-29193630D01*
X182119803Y-29143465D01*
X182150500Y-28831794D01*
X182150500Y-28468206D01*
X182114862Y-28106369D01*
X182043935Y-27749787D01*
X182043932Y-27749776D01*
X182043931Y-27749773D01*
X182043930Y-27749767D01*
X181938386Y-27401836D01*
X181799247Y-27065924D01*
X181627853Y-26745268D01*
X181425854Y-26442956D01*
X181195197Y-26161899D01*
X181195196Y-26161898D01*
X181195192Y-26161893D01*
X180938106Y-25904807D01*
X180657049Y-25674150D01*
X180657048Y-25674149D01*
X180657044Y-25674146D01*
X180354732Y-25472147D01*
X180354727Y-25472144D01*
X180354720Y-25472140D01*
X180034083Y-25300756D01*
X180034078Y-25300754D01*
X180015148Y-25292913D01*
X179885137Y-25239060D01*
X179830735Y-25195220D01*
X179808670Y-25128926D01*
X179825949Y-25061226D01*
X179877087Y-25013616D01*
X179932591Y-25000500D01*
X194446949Y-25000500D01*
X194453033Y-25000649D01*
G37*
G04 #@! TD.AperFunction*
G04 #@! TD*
M02*
