M48
; DRILL file {KiCad 8.0.9} date 2025-05-21T15:35:48-0400
; FORMAT={-:-/ absolute / metric / decimal}
; #@! TF.CreationDate,2025-05-21T15:35:48-04:00
; #@! TF.GenerationSoftware,Kicad,Pcbnew,8.0.9
; #@! TF.FileFunction,Plated,1,4,PTH
FMAT,2
METRIC
; #@! TA.AperFunction,Plated,PTH,ViaDrill
T1C0.300
; #@! TA.AperFunction,Plated,PTH,ViaDrill
T2C0.381
; #@! TA.AperFunction,Plated,PTH,ComponentDrill
T3C0.600
; #@! TA.AperFunction,Plated,PTH,ComponentDrill
T4C0.800
; #@! TA.AperFunction,Plated,PTH,ComponentDrill
T5C1.000
; #@! TA.AperFunction,Plated,PTH,ComponentDrill
T6C1.829
; #@! TA.AperFunction,Plated,PTH,ComponentDrill
T7C2.250
; #@! TA.AperFunction,Plated,PTH,ComponentDrill
T8C3.200
%
G90
G05
T1
X194.31Y-117.856
X194.31Y-118.618
X195.326Y-117.856
X195.326Y-118.618
X195.453Y-119.634
X195.453Y-120.777
X196.215Y-120.269
X196.215Y-120.269
X196.977Y-119.634
X196.977Y-120.777
T2
X193.548Y-111.633
X197.739Y-128.651
X197.739Y-130.429
X198.247Y-111.506
X198.628Y-129.54
X199.517Y-128.651
X199.517Y-130.429
X200.147Y-115.113
X201.295Y-95.758
X202.819Y-135.382
X202.819Y-136.398
X203.454Y-128.651
X203.454Y-130.429
X203.708Y-101.219
X203.835Y-135.382
X203.835Y-136.398
X204.343Y-129.54
X204.47Y-94.996
X204.47Y-97.536
X205.232Y-128.651
X205.232Y-130.429
X206.756Y-100.711
X206.756Y-101.6
X206.756Y-102.489
X206.756Y-103.378
X206.756Y-104.267
X206.756Y-105.156
X206.756Y-106.045
X206.756Y-106.934
X206.756Y-107.823
X206.756Y-108.712
X206.756Y-109.601
X206.756Y-110.49
X206.756Y-111.379
X206.756Y-112.268
X206.756Y-113.157
X207.391Y-135.382
X207.391Y-136.398
X207.645Y-99.314
X207.645Y-100.711
X207.645Y-113.157
X207.899Y-93.726
X208.153Y-121.793
X208.153Y-123.571
X208.153Y-125.349
X208.153Y-127.127
X208.153Y-128.905
X208.153Y-132.08
X208.153Y-133.35
X208.159Y-130.81
X208.407Y-84.836
X208.407Y-135.382
X208.407Y-136.398
X208.534Y-99.314
X208.534Y-100.711
X208.534Y-113.157
X209.423Y-99.314
X209.423Y-100.711
X209.423Y-113.157
X209.931Y-121.793
X209.931Y-123.571
X209.931Y-125.349
X210.312Y-100.711
X210.312Y-113.157
X211.201Y-100.711
X211.201Y-113.157
X211.836Y-121.793
X211.836Y-123.571
X211.836Y-125.349
X212.09Y-100.711
X212.09Y-113.157
X212.471Y-85.598
X212.852Y-93.853
X212.852Y-94.996
X212.852Y-96.266
X212.979Y-98.044
X212.979Y-100.711
X212.979Y-113.157
X213.36Y-117.348
X213.741Y-121.793
X213.741Y-123.571
X213.741Y-125.349
X213.868Y-98.044
X213.868Y-100.711
X213.868Y-113.157
X214.757Y-100.711
X214.757Y-113.157
X215.646Y-100.711
X215.646Y-113.157
X215.773Y-98.171
X215.773Y-121.793
X215.773Y-129.159
X215.773Y-135.001
X215.773Y-136.271
X215.773Y-137.16
X216.535Y-100.711
X216.535Y-101.6
X216.535Y-102.489
X216.535Y-103.378
X216.535Y-104.267
X216.535Y-105.156
X216.535Y-108.712
X216.535Y-109.601
X216.535Y-110.49
X216.535Y-111.379
X216.535Y-112.268
X216.535Y-113.157
X216.655Y-96.811
X216.662Y-129.159
X216.662Y-135.001
X216.662Y-136.271
X216.662Y-137.16
X217.17Y-94.996
X217.17Y-117.348
X218.44Y-130.81
X218.44Y-132.08
X218.694Y-117.348
X219.837Y-105.156
X219.837Y-106.045
X219.837Y-106.934
X219.837Y-107.823
X219.837Y-108.712
X219.837Y-111.379
X219.964Y-94.234
X219.964Y-101.981
X221.234Y-87.528
X221.234Y-88.341
X221.234Y-96.926
X221.234Y-97.739
X221.234Y-100.736
X221.234Y-101.549
X221.234Y-110.109
X221.234Y-111.252
X221.285Y-105.156
X221.412Y-112.649
X222.092Y-134.745
X222.098Y-87.528
X222.098Y-88.341
X222.098Y-96.926
X222.098Y-97.739
X222.098Y-100.736
X222.098Y-101.549
X222.504Y-117.475
X222.91Y-87.528
X222.91Y-88.341
X222.91Y-96.926
X222.91Y-97.739
X222.91Y-100.736
X222.91Y-101.549
X223.774Y-103.073
X224.028Y-89.662
X224.028Y-108.966
X224.155Y-117.348
X225.171Y-106.299
X225.171Y-107.569
X226.393Y-97.868
X226.441Y-103.124
X227.0Y-94.488
X228.473Y-113.919
X229.235Y-116.586
X229.235Y-119.126
X229.362Y-103.124
X229.403Y-99.908
X229.489Y-122.428
X230.886Y-113.665
X230.886Y-114.554
X231.648Y-89.535
X231.648Y-90.551
X231.775Y-113.665
X231.775Y-114.554
X232.029Y-91.643
X232.537Y-89.535
X232.537Y-90.551
X233.162Y-97.296
X233.172Y-94.869
X233.807Y-121.031
X234.061Y-92.964
X234.188Y-126.746
X234.188Y-127.762
X235.077Y-126.746
X235.077Y-127.762
X235.306Y-103.073
X235.585Y-105.918
X235.585Y-106.934
X236.474Y-105.918
X236.474Y-106.934
X236.474Y-124.587
X237.363Y-91.44
X237.414Y-115.646
X237.617Y-104.013
X237.998Y-120.396
X238.003Y-100.127
X238.506Y-85.979
X239.151Y-110.358
X239.151Y-112.262
X240.03Y-85.979
X240.03Y-123.647
X240.97Y-86.995
X241.046Y-103.759
X241.056Y-110.358
X241.056Y-112.262
X242.062Y-97.028
X242.57Y-94.742
X242.57Y-116.586
X242.951Y-89.281
X242.951Y-91.186
X242.951Y-93.091
X242.951Y-101.854
X242.951Y-103.759
X242.962Y-110.358
X242.962Y-112.262
X242.962Y-114.167
X243.332Y-121.92
X243.332Y-123.825
X243.332Y-125.73
X243.332Y-127.635
X243.332Y-129.54
X244.856Y-89.281
X244.856Y-91.186
X244.856Y-93.091
X244.856Y-94.996
X244.856Y-101.854
X244.856Y-103.759
X244.856Y-105.664
X244.856Y-107.569
X244.867Y-110.358
X244.867Y-112.262
X244.867Y-114.167
X244.867Y-116.072
X245.237Y-123.825
X245.237Y-125.73
X245.237Y-127.635
X245.237Y-129.54
X245.618Y-97.536
X245.745Y-99.822
X245.872Y-120.777
X245.999Y-117.729
X246.761Y-107.569
X247.142Y-123.825
X247.142Y-129.54
X248.814Y-123.952
X249.301Y-110.744
X249.571Y-117.343
X249.682Y-89.916
X249.682Y-96.52
X249.682Y-103.124
T3
X198.374Y-95.544
X198.374Y-96.794
X198.374Y-98.044
X199.624Y-95.544
X199.624Y-96.794
X199.624Y-98.044
T4
X213.106Y-104.504
X213.106Y-109.384
T5
X229.87Y-135.382
X233.553Y-135.382
X237.363Y-135.382
T6
X204.078Y-117.729
X204.078Y-125.984
T7
X199.624Y-91.644
X199.624Y-101.944
T8
X196.342Y-83.82
X196.342Y-134.62
X247.142Y-83.82
X247.142Y-134.62
M30
