%TF.GenerationSoftware,KiCad,Pcbnew,8.0.9*%
%TF.CreationDate,2025-05-21T00:59:13-04:00*%
%TF.ProjectId,rocket_power_board,726f636b-6574-45f7-906f-7765725f626f,rev?*%
%TF.SameCoordinates,Original*%
%TF.FileFunction,Legend,Bot*%
%TF.FilePolarity,Positive*%
%FSLAX46Y46*%
G04 Gerber Fmt 4.6, Leading zero omitted, Abs format (unit mm)*
G04 Created by KiCad (PCBNEW 8.0.9) date 2025-05-21 00:59:13*
%MOMM*%
%LPD*%
G01*
G04 APERTURE LIST*
G04 Aperture macros list*
%AMRoundRect*
0 Rectangle with rounded corners*
0 $1 Rounding radius*
0 $2 $3 $4 $5 $6 $7 $8 $9 X,Y pos of 4 corners*
0 Add a 4 corners polygon primitive as box body*
4,1,4,$2,$3,$4,$5,$6,$7,$8,$9,$2,$3,0*
0 Add four circle primitives for the rounded corners*
1,1,$1+$1,$2,$3*
1,1,$1+$1,$4,$5*
1,1,$1+$1,$6,$7*
1,1,$1+$1,$8,$9*
0 Add four rect primitives between the rounded corners*
20,1,$1+$1,$2,$3,$4,$5,0*
20,1,$1+$1,$4,$5,$6,$7,0*
20,1,$1+$1,$6,$7,$8,$9,0*
20,1,$1+$1,$8,$9,$2,$3,0*%
G04 Aperture macros list end*
%ADD10C,0.125000*%
%ADD11C,0.150000*%
%ADD12C,0.120000*%
%ADD13C,0.152400*%
%ADD14C,0.010000*%
%ADD15C,2.000000*%
%ADD16C,6.400000*%
%ADD17C,3.800000*%
%ADD18C,1.000000*%
%ADD19RoundRect,0.102000X-1.371600X1.371600X-1.371600X-1.371600X1.371600X-1.371600X1.371600X1.371600X0*%
%ADD20C,2.947200*%
%ADD21C,1.500000*%
%ADD22RoundRect,0.250000X-0.350000X-0.450000X0.350000X-0.450000X0.350000X0.450000X-0.350000X0.450000X0*%
%ADD23RoundRect,0.250000X0.350000X0.450000X-0.350000X0.450000X-0.350000X-0.450000X0.350000X-0.450000X0*%
%ADD24RoundRect,0.250000X-0.337500X-0.475000X0.337500X-0.475000X0.337500X0.475000X-0.337500X0.475000X0*%
%ADD25RoundRect,0.250000X0.337500X0.475000X-0.337500X0.475000X-0.337500X-0.475000X0.337500X-0.475000X0*%
%ADD26RoundRect,0.250000X-0.475000X0.337500X-0.475000X-0.337500X0.475000X-0.337500X0.475000X0.337500X0*%
%ADD27RoundRect,0.150000X0.512500X0.150000X-0.512500X0.150000X-0.512500X-0.150000X0.512500X-0.150000X0*%
%ADD28RoundRect,0.250000X-0.450000X0.350000X-0.450000X-0.350000X0.450000X-0.350000X0.450000X0.350000X0*%
%ADD29RoundRect,0.250000X0.450000X-0.350000X0.450000X0.350000X-0.450000X0.350000X-0.450000X-0.350000X0*%
%ADD30R,2.489200X2.159000*%
%ADD31R,1.200000X1.200000*%
G04 APERTURE END LIST*
D10*
X235744906Y-81826798D02*
X235744906Y-82362512D01*
X235744906Y-82362512D02*
X235780621Y-82469655D01*
X235780621Y-82469655D02*
X235852049Y-82541084D01*
X235852049Y-82541084D02*
X235959192Y-82576798D01*
X235959192Y-82576798D02*
X236030621Y-82576798D01*
X235066335Y-82076798D02*
X235066335Y-82576798D01*
X235387763Y-82076798D02*
X235387763Y-82469655D01*
X235387763Y-82469655D02*
X235352049Y-82541084D01*
X235352049Y-82541084D02*
X235280620Y-82576798D01*
X235280620Y-82576798D02*
X235173477Y-82576798D01*
X235173477Y-82576798D02*
X235102049Y-82541084D01*
X235102049Y-82541084D02*
X235066335Y-82505369D01*
X234744906Y-82541084D02*
X234673478Y-82576798D01*
X234673478Y-82576798D02*
X234530621Y-82576798D01*
X234530621Y-82576798D02*
X234459192Y-82541084D01*
X234459192Y-82541084D02*
X234423478Y-82469655D01*
X234423478Y-82469655D02*
X234423478Y-82433941D01*
X234423478Y-82433941D02*
X234459192Y-82362512D01*
X234459192Y-82362512D02*
X234530621Y-82326798D01*
X234530621Y-82326798D02*
X234637764Y-82326798D01*
X234637764Y-82326798D02*
X234709192Y-82291084D01*
X234709192Y-82291084D02*
X234744906Y-82219655D01*
X234744906Y-82219655D02*
X234744906Y-82183941D01*
X234744906Y-82183941D02*
X234709192Y-82112512D01*
X234709192Y-82112512D02*
X234637764Y-82076798D01*
X234637764Y-82076798D02*
X234530621Y-82076798D01*
X234530621Y-82076798D02*
X234459192Y-82112512D01*
X234209192Y-82076798D02*
X233923478Y-82076798D01*
X234102049Y-81826798D02*
X234102049Y-82469655D01*
X234102049Y-82469655D02*
X234066335Y-82541084D01*
X234066335Y-82541084D02*
X233994906Y-82576798D01*
X233994906Y-82576798D02*
X233923478Y-82576798D01*
X232959192Y-81826798D02*
X232816335Y-81826798D01*
X232816335Y-81826798D02*
X232744906Y-81862512D01*
X232744906Y-81862512D02*
X232673478Y-81933941D01*
X232673478Y-81933941D02*
X232637763Y-82076798D01*
X232637763Y-82076798D02*
X232637763Y-82326798D01*
X232637763Y-82326798D02*
X232673478Y-82469655D01*
X232673478Y-82469655D02*
X232744906Y-82541084D01*
X232744906Y-82541084D02*
X232816335Y-82576798D01*
X232816335Y-82576798D02*
X232959192Y-82576798D01*
X232959192Y-82576798D02*
X233030621Y-82541084D01*
X233030621Y-82541084D02*
X233102049Y-82469655D01*
X233102049Y-82469655D02*
X233137763Y-82326798D01*
X233137763Y-82326798D02*
X233137763Y-82076798D01*
X233137763Y-82076798D02*
X233102049Y-81933941D01*
X233102049Y-81933941D02*
X233030621Y-81862512D01*
X233030621Y-81862512D02*
X232959192Y-81826798D01*
X232316335Y-82076798D02*
X232316335Y-82576798D01*
X232316335Y-82148226D02*
X232280621Y-82112512D01*
X232280621Y-82112512D02*
X232209192Y-82076798D01*
X232209192Y-82076798D02*
X232102049Y-82076798D01*
X232102049Y-82076798D02*
X232030621Y-82112512D01*
X232030621Y-82112512D02*
X231994907Y-82183941D01*
X231994907Y-82183941D02*
X231994907Y-82576798D01*
X231352050Y-82541084D02*
X231423478Y-82576798D01*
X231423478Y-82576798D02*
X231566336Y-82576798D01*
X231566336Y-82576798D02*
X231637764Y-82541084D01*
X231637764Y-82541084D02*
X231673478Y-82469655D01*
X231673478Y-82469655D02*
X231673478Y-82183941D01*
X231673478Y-82183941D02*
X231637764Y-82112512D01*
X231637764Y-82112512D02*
X231566336Y-82076798D01*
X231566336Y-82076798D02*
X231423478Y-82076798D01*
X231423478Y-82076798D02*
X231352050Y-82112512D01*
X231352050Y-82112512D02*
X231316336Y-82183941D01*
X231316336Y-82183941D02*
X231316336Y-82255369D01*
X231316336Y-82255369D02*
X231673478Y-82326798D01*
X230066335Y-82576798D02*
X230423478Y-82576798D01*
X230423478Y-82576798D02*
X230423478Y-81826798D01*
X229530621Y-82541084D02*
X229602049Y-82576798D01*
X229602049Y-82576798D02*
X229744907Y-82576798D01*
X229744907Y-82576798D02*
X229816335Y-82541084D01*
X229816335Y-82541084D02*
X229852049Y-82469655D01*
X229852049Y-82469655D02*
X229852049Y-82183941D01*
X229852049Y-82183941D02*
X229816335Y-82112512D01*
X229816335Y-82112512D02*
X229744907Y-82076798D01*
X229744907Y-82076798D02*
X229602049Y-82076798D01*
X229602049Y-82076798D02*
X229530621Y-82112512D01*
X229530621Y-82112512D02*
X229494907Y-82183941D01*
X229494907Y-82183941D02*
X229494907Y-82255369D01*
X229494907Y-82255369D02*
X229852049Y-82326798D01*
X229209192Y-82541084D02*
X229137764Y-82576798D01*
X229137764Y-82576798D02*
X228994907Y-82576798D01*
X228994907Y-82576798D02*
X228923478Y-82541084D01*
X228923478Y-82541084D02*
X228887764Y-82469655D01*
X228887764Y-82469655D02*
X228887764Y-82433941D01*
X228887764Y-82433941D02*
X228923478Y-82362512D01*
X228923478Y-82362512D02*
X228994907Y-82326798D01*
X228994907Y-82326798D02*
X229102050Y-82326798D01*
X229102050Y-82326798D02*
X229173478Y-82291084D01*
X229173478Y-82291084D02*
X229209192Y-82219655D01*
X229209192Y-82219655D02*
X229209192Y-82183941D01*
X229209192Y-82183941D02*
X229173478Y-82112512D01*
X229173478Y-82112512D02*
X229102050Y-82076798D01*
X229102050Y-82076798D02*
X228994907Y-82076798D01*
X228994907Y-82076798D02*
X228923478Y-82112512D01*
X228602049Y-82541084D02*
X228530621Y-82576798D01*
X228530621Y-82576798D02*
X228387764Y-82576798D01*
X228387764Y-82576798D02*
X228316335Y-82541084D01*
X228316335Y-82541084D02*
X228280621Y-82469655D01*
X228280621Y-82469655D02*
X228280621Y-82433941D01*
X228280621Y-82433941D02*
X228316335Y-82362512D01*
X228316335Y-82362512D02*
X228387764Y-82326798D01*
X228387764Y-82326798D02*
X228494907Y-82326798D01*
X228494907Y-82326798D02*
X228566335Y-82291084D01*
X228566335Y-82291084D02*
X228602049Y-82219655D01*
X228602049Y-82219655D02*
X228602049Y-82183941D01*
X228602049Y-82183941D02*
X228566335Y-82112512D01*
X228566335Y-82112512D02*
X228494907Y-82076798D01*
X228494907Y-82076798D02*
X228387764Y-82076798D01*
X228387764Y-82076798D02*
X228316335Y-82112512D01*
X227137763Y-82183941D02*
X227387763Y-82183941D01*
X227387763Y-82576798D02*
X227387763Y-81826798D01*
X227387763Y-81826798D02*
X227030620Y-81826798D01*
X226459192Y-82541084D02*
X226530620Y-82576798D01*
X226530620Y-82576798D02*
X226673478Y-82576798D01*
X226673478Y-82576798D02*
X226744906Y-82541084D01*
X226744906Y-82541084D02*
X226780620Y-82469655D01*
X226780620Y-82469655D02*
X226780620Y-82183941D01*
X226780620Y-82183941D02*
X226744906Y-82112512D01*
X226744906Y-82112512D02*
X226673478Y-82076798D01*
X226673478Y-82076798D02*
X226530620Y-82076798D01*
X226530620Y-82076798D02*
X226459192Y-82112512D01*
X226459192Y-82112512D02*
X226423478Y-82183941D01*
X226423478Y-82183941D02*
X226423478Y-82255369D01*
X226423478Y-82255369D02*
X226780620Y-82326798D01*
X225780621Y-82576798D02*
X225780621Y-82183941D01*
X225780621Y-82183941D02*
X225816335Y-82112512D01*
X225816335Y-82112512D02*
X225887763Y-82076798D01*
X225887763Y-82076798D02*
X226030621Y-82076798D01*
X226030621Y-82076798D02*
X226102049Y-82112512D01*
X225780621Y-82541084D02*
X225852049Y-82576798D01*
X225852049Y-82576798D02*
X226030621Y-82576798D01*
X226030621Y-82576798D02*
X226102049Y-82541084D01*
X226102049Y-82541084D02*
X226137763Y-82469655D01*
X226137763Y-82469655D02*
X226137763Y-82398226D01*
X226137763Y-82398226D02*
X226102049Y-82326798D01*
X226102049Y-82326798D02*
X226030621Y-82291084D01*
X226030621Y-82291084D02*
X225852049Y-82291084D01*
X225852049Y-82291084D02*
X225780621Y-82255369D01*
X225530621Y-82076798D02*
X225244907Y-82076798D01*
X225423478Y-81826798D02*
X225423478Y-82469655D01*
X225423478Y-82469655D02*
X225387764Y-82541084D01*
X225387764Y-82541084D02*
X225316335Y-82576798D01*
X225316335Y-82576798D02*
X225244907Y-82576798D01*
X224673479Y-82076798D02*
X224673479Y-82576798D01*
X224994907Y-82076798D02*
X224994907Y-82469655D01*
X224994907Y-82469655D02*
X224959193Y-82541084D01*
X224959193Y-82541084D02*
X224887764Y-82576798D01*
X224887764Y-82576798D02*
X224780621Y-82576798D01*
X224780621Y-82576798D02*
X224709193Y-82541084D01*
X224709193Y-82541084D02*
X224673479Y-82505369D01*
X224316336Y-82576798D02*
X224316336Y-82076798D01*
X224316336Y-82219655D02*
X224280622Y-82148226D01*
X224280622Y-82148226D02*
X224244908Y-82112512D01*
X224244908Y-82112512D02*
X224173479Y-82076798D01*
X224173479Y-82076798D02*
X224102050Y-82076798D01*
X223566336Y-82541084D02*
X223637764Y-82576798D01*
X223637764Y-82576798D02*
X223780622Y-82576798D01*
X223780622Y-82576798D02*
X223852050Y-82541084D01*
X223852050Y-82541084D02*
X223887764Y-82469655D01*
X223887764Y-82469655D02*
X223887764Y-82183941D01*
X223887764Y-82183941D02*
X223852050Y-82112512D01*
X223852050Y-82112512D02*
X223780622Y-82076798D01*
X223780622Y-82076798D02*
X223637764Y-82076798D01*
X223637764Y-82076798D02*
X223566336Y-82112512D01*
X223566336Y-82112512D02*
X223530622Y-82183941D01*
X223530622Y-82183941D02*
X223530622Y-82255369D01*
X223530622Y-82255369D02*
X223887764Y-82326798D01*
X222744907Y-81826798D02*
X222316336Y-81826798D01*
X222530621Y-82576798D02*
X222530621Y-81826798D01*
X222066335Y-82576798D02*
X222066335Y-82076798D01*
X222066335Y-82219655D02*
X222030621Y-82148226D01*
X222030621Y-82148226D02*
X221994907Y-82112512D01*
X221994907Y-82112512D02*
X221923478Y-82076798D01*
X221923478Y-82076798D02*
X221852049Y-82076798D01*
X221280621Y-82076798D02*
X221280621Y-82576798D01*
X221602049Y-82076798D02*
X221602049Y-82469655D01*
X221602049Y-82469655D02*
X221566335Y-82541084D01*
X221566335Y-82541084D02*
X221494906Y-82576798D01*
X221494906Y-82576798D02*
X221387763Y-82576798D01*
X221387763Y-82576798D02*
X221316335Y-82541084D01*
X221316335Y-82541084D02*
X221280621Y-82505369D01*
X220959192Y-82541084D02*
X220887764Y-82576798D01*
X220887764Y-82576798D02*
X220744907Y-82576798D01*
X220744907Y-82576798D02*
X220673478Y-82541084D01*
X220673478Y-82541084D02*
X220637764Y-82469655D01*
X220637764Y-82469655D02*
X220637764Y-82433941D01*
X220637764Y-82433941D02*
X220673478Y-82362512D01*
X220673478Y-82362512D02*
X220744907Y-82326798D01*
X220744907Y-82326798D02*
X220852050Y-82326798D01*
X220852050Y-82326798D02*
X220923478Y-82291084D01*
X220923478Y-82291084D02*
X220959192Y-82219655D01*
X220959192Y-82219655D02*
X220959192Y-82183941D01*
X220959192Y-82183941D02*
X220923478Y-82112512D01*
X220923478Y-82112512D02*
X220852050Y-82076798D01*
X220852050Y-82076798D02*
X220744907Y-82076798D01*
X220744907Y-82076798D02*
X220673478Y-82112512D01*
X220423478Y-82076798D02*
X220137764Y-82076798D01*
X220316335Y-81826798D02*
X220316335Y-82469655D01*
X220316335Y-82469655D02*
X220280621Y-82541084D01*
X220280621Y-82541084D02*
X220209192Y-82576798D01*
X220209192Y-82576798D02*
X220137764Y-82576798D01*
X235994906Y-83569970D02*
X235637764Y-83569970D01*
X236066335Y-83784256D02*
X235816335Y-83034256D01*
X235816335Y-83034256D02*
X235566335Y-83784256D01*
X235352049Y-83748542D02*
X235280621Y-83784256D01*
X235280621Y-83784256D02*
X235137764Y-83784256D01*
X235137764Y-83784256D02*
X235066335Y-83748542D01*
X235066335Y-83748542D02*
X235030621Y-83677113D01*
X235030621Y-83677113D02*
X235030621Y-83641399D01*
X235030621Y-83641399D02*
X235066335Y-83569970D01*
X235066335Y-83569970D02*
X235137764Y-83534256D01*
X235137764Y-83534256D02*
X235244907Y-83534256D01*
X235244907Y-83534256D02*
X235316335Y-83498542D01*
X235316335Y-83498542D02*
X235352049Y-83427113D01*
X235352049Y-83427113D02*
X235352049Y-83391399D01*
X235352049Y-83391399D02*
X235316335Y-83319970D01*
X235316335Y-83319970D02*
X235244907Y-83284256D01*
X235244907Y-83284256D02*
X235137764Y-83284256D01*
X235137764Y-83284256D02*
X235066335Y-83319970D01*
X234709192Y-83784256D02*
X234709192Y-83034256D01*
X234387764Y-83784256D02*
X234387764Y-83391399D01*
X234387764Y-83391399D02*
X234423478Y-83319970D01*
X234423478Y-83319970D02*
X234494906Y-83284256D01*
X234494906Y-83284256D02*
X234602049Y-83284256D01*
X234602049Y-83284256D02*
X234673478Y-83319970D01*
X234673478Y-83319970D02*
X234709192Y-83355684D01*
X233102049Y-83784256D02*
X233459192Y-83784256D01*
X233459192Y-83784256D02*
X233459192Y-83034256D01*
X232530621Y-83784256D02*
X232530621Y-83391399D01*
X232530621Y-83391399D02*
X232566335Y-83319970D01*
X232566335Y-83319970D02*
X232637763Y-83284256D01*
X232637763Y-83284256D02*
X232780621Y-83284256D01*
X232780621Y-83284256D02*
X232852049Y-83319970D01*
X232530621Y-83748542D02*
X232602049Y-83784256D01*
X232602049Y-83784256D02*
X232780621Y-83784256D01*
X232780621Y-83784256D02*
X232852049Y-83748542D01*
X232852049Y-83748542D02*
X232887763Y-83677113D01*
X232887763Y-83677113D02*
X232887763Y-83605684D01*
X232887763Y-83605684D02*
X232852049Y-83534256D01*
X232852049Y-83534256D02*
X232780621Y-83498542D01*
X232780621Y-83498542D02*
X232602049Y-83498542D01*
X232602049Y-83498542D02*
X232530621Y-83462827D01*
X232173478Y-83284256D02*
X232173478Y-83784256D01*
X232173478Y-83355684D02*
X232137764Y-83319970D01*
X232137764Y-83319970D02*
X232066335Y-83284256D01*
X232066335Y-83284256D02*
X231959192Y-83284256D01*
X231959192Y-83284256D02*
X231887764Y-83319970D01*
X231887764Y-83319970D02*
X231852050Y-83391399D01*
X231852050Y-83391399D02*
X231852050Y-83784256D01*
X231173479Y-83284256D02*
X231173479Y-83891399D01*
X231173479Y-83891399D02*
X231209193Y-83962827D01*
X231209193Y-83962827D02*
X231244907Y-83998542D01*
X231244907Y-83998542D02*
X231316336Y-84034256D01*
X231316336Y-84034256D02*
X231423479Y-84034256D01*
X231423479Y-84034256D02*
X231494907Y-83998542D01*
X231173479Y-83748542D02*
X231244907Y-83784256D01*
X231244907Y-83784256D02*
X231387764Y-83784256D01*
X231387764Y-83784256D02*
X231459193Y-83748542D01*
X231459193Y-83748542D02*
X231494907Y-83712827D01*
X231494907Y-83712827D02*
X231530621Y-83641399D01*
X231530621Y-83641399D02*
X231530621Y-83427113D01*
X231530621Y-83427113D02*
X231494907Y-83355684D01*
X231494907Y-83355684D02*
X231459193Y-83319970D01*
X231459193Y-83319970D02*
X231387764Y-83284256D01*
X231387764Y-83284256D02*
X231244907Y-83284256D01*
X231244907Y-83284256D02*
X231173479Y-83319970D01*
X230780622Y-83748542D02*
X230780622Y-83784256D01*
X230780622Y-83784256D02*
X230816336Y-83855684D01*
X230816336Y-83855684D02*
X230852050Y-83891399D01*
X229887764Y-83784256D02*
X229887764Y-83034256D01*
X229887764Y-83034256D02*
X229602050Y-83034256D01*
X229602050Y-83034256D02*
X229530621Y-83069970D01*
X229530621Y-83069970D02*
X229494907Y-83105684D01*
X229494907Y-83105684D02*
X229459193Y-83177113D01*
X229459193Y-83177113D02*
X229459193Y-83284256D01*
X229459193Y-83284256D02*
X229494907Y-83355684D01*
X229494907Y-83355684D02*
X229530621Y-83391399D01*
X229530621Y-83391399D02*
X229602050Y-83427113D01*
X229602050Y-83427113D02*
X229887764Y-83427113D01*
X229137764Y-83784256D02*
X229137764Y-83284256D01*
X229137764Y-83427113D02*
X229102050Y-83355684D01*
X229102050Y-83355684D02*
X229066336Y-83319970D01*
X229066336Y-83319970D02*
X228994907Y-83284256D01*
X228994907Y-83284256D02*
X228923478Y-83284256D01*
X228352050Y-83784256D02*
X228352050Y-83391399D01*
X228352050Y-83391399D02*
X228387764Y-83319970D01*
X228387764Y-83319970D02*
X228459192Y-83284256D01*
X228459192Y-83284256D02*
X228602050Y-83284256D01*
X228602050Y-83284256D02*
X228673478Y-83319970D01*
X228352050Y-83748542D02*
X228423478Y-83784256D01*
X228423478Y-83784256D02*
X228602050Y-83784256D01*
X228602050Y-83784256D02*
X228673478Y-83748542D01*
X228673478Y-83748542D02*
X228709192Y-83677113D01*
X228709192Y-83677113D02*
X228709192Y-83605684D01*
X228709192Y-83605684D02*
X228673478Y-83534256D01*
X228673478Y-83534256D02*
X228602050Y-83498542D01*
X228602050Y-83498542D02*
X228423478Y-83498542D01*
X228423478Y-83498542D02*
X228352050Y-83462827D01*
X227994907Y-83284256D02*
X227994907Y-83784256D01*
X227994907Y-83355684D02*
X227959193Y-83319970D01*
X227959193Y-83319970D02*
X227887764Y-83284256D01*
X227887764Y-83284256D02*
X227780621Y-83284256D01*
X227780621Y-83284256D02*
X227709193Y-83319970D01*
X227709193Y-83319970D02*
X227673479Y-83391399D01*
X227673479Y-83391399D02*
X227673479Y-83784256D01*
X226994908Y-83784256D02*
X226994908Y-83391399D01*
X226994908Y-83391399D02*
X227030622Y-83319970D01*
X227030622Y-83319970D02*
X227102050Y-83284256D01*
X227102050Y-83284256D02*
X227244908Y-83284256D01*
X227244908Y-83284256D02*
X227316336Y-83319970D01*
X226994908Y-83748542D02*
X227066336Y-83784256D01*
X227066336Y-83784256D02*
X227244908Y-83784256D01*
X227244908Y-83784256D02*
X227316336Y-83748542D01*
X227316336Y-83748542D02*
X227352050Y-83677113D01*
X227352050Y-83677113D02*
X227352050Y-83605684D01*
X227352050Y-83605684D02*
X227316336Y-83534256D01*
X227316336Y-83534256D02*
X227244908Y-83498542D01*
X227244908Y-83498542D02*
X227066336Y-83498542D01*
X227066336Y-83498542D02*
X226994908Y-83462827D01*
X226709194Y-83284256D02*
X226530622Y-83784256D01*
X226530622Y-83784256D02*
X226352051Y-83284256D01*
X225494907Y-83784256D02*
X225494907Y-83034256D01*
X225494907Y-83034256D02*
X225244907Y-83569970D01*
X225244907Y-83569970D02*
X224994907Y-83034256D01*
X224994907Y-83034256D02*
X224994907Y-83784256D01*
X224316336Y-83784256D02*
X224316336Y-83391399D01*
X224316336Y-83391399D02*
X224352050Y-83319970D01*
X224352050Y-83319970D02*
X224423478Y-83284256D01*
X224423478Y-83284256D02*
X224566336Y-83284256D01*
X224566336Y-83284256D02*
X224637764Y-83319970D01*
X224316336Y-83748542D02*
X224387764Y-83784256D01*
X224387764Y-83784256D02*
X224566336Y-83784256D01*
X224566336Y-83784256D02*
X224637764Y-83748542D01*
X224637764Y-83748542D02*
X224673478Y-83677113D01*
X224673478Y-83677113D02*
X224673478Y-83605684D01*
X224673478Y-83605684D02*
X224637764Y-83534256D01*
X224637764Y-83534256D02*
X224566336Y-83498542D01*
X224566336Y-83498542D02*
X224387764Y-83498542D01*
X224387764Y-83498542D02*
X224316336Y-83462827D01*
X223959193Y-83784256D02*
X223959193Y-83034256D01*
X223637765Y-83784256D02*
X223637765Y-83391399D01*
X223637765Y-83391399D02*
X223673479Y-83319970D01*
X223673479Y-83319970D02*
X223744907Y-83284256D01*
X223744907Y-83284256D02*
X223852050Y-83284256D01*
X223852050Y-83284256D02*
X223923479Y-83319970D01*
X223923479Y-83319970D02*
X223959193Y-83355684D01*
X222959194Y-83784256D02*
X222959194Y-83391399D01*
X222959194Y-83391399D02*
X222994908Y-83319970D01*
X222994908Y-83319970D02*
X223066336Y-83284256D01*
X223066336Y-83284256D02*
X223209194Y-83284256D01*
X223209194Y-83284256D02*
X223280622Y-83319970D01*
X222959194Y-83748542D02*
X223030622Y-83784256D01*
X223030622Y-83784256D02*
X223209194Y-83784256D01*
X223209194Y-83784256D02*
X223280622Y-83748542D01*
X223280622Y-83748542D02*
X223316336Y-83677113D01*
X223316336Y-83677113D02*
X223316336Y-83605684D01*
X223316336Y-83605684D02*
X223280622Y-83534256D01*
X223280622Y-83534256D02*
X223209194Y-83498542D01*
X223209194Y-83498542D02*
X223030622Y-83498542D01*
X223030622Y-83498542D02*
X222959194Y-83462827D01*
X222602051Y-83784256D02*
X222602051Y-83034256D01*
X222602051Y-83319970D02*
X222530623Y-83284256D01*
X222530623Y-83284256D02*
X222387765Y-83284256D01*
X222387765Y-83284256D02*
X222316337Y-83319970D01*
X222316337Y-83319970D02*
X222280623Y-83355684D01*
X222280623Y-83355684D02*
X222244908Y-83427113D01*
X222244908Y-83427113D02*
X222244908Y-83641399D01*
X222244908Y-83641399D02*
X222280623Y-83712827D01*
X222280623Y-83712827D02*
X222316337Y-83748542D01*
X222316337Y-83748542D02*
X222387765Y-83784256D01*
X222387765Y-83784256D02*
X222530623Y-83784256D01*
X222530623Y-83784256D02*
X222602051Y-83748542D01*
X221602052Y-83784256D02*
X221602052Y-83391399D01*
X221602052Y-83391399D02*
X221637766Y-83319970D01*
X221637766Y-83319970D02*
X221709194Y-83284256D01*
X221709194Y-83284256D02*
X221852052Y-83284256D01*
X221852052Y-83284256D02*
X221923480Y-83319970D01*
X221602052Y-83748542D02*
X221673480Y-83784256D01*
X221673480Y-83784256D02*
X221852052Y-83784256D01*
X221852052Y-83784256D02*
X221923480Y-83748542D01*
X221923480Y-83748542D02*
X221959194Y-83677113D01*
X221959194Y-83677113D02*
X221959194Y-83605684D01*
X221959194Y-83605684D02*
X221923480Y-83534256D01*
X221923480Y-83534256D02*
X221852052Y-83498542D01*
X221852052Y-83498542D02*
X221673480Y-83498542D01*
X221673480Y-83498542D02*
X221602052Y-83462827D01*
X221137766Y-83784256D02*
X221209195Y-83748542D01*
X221209195Y-83748542D02*
X221244909Y-83677113D01*
X221244909Y-83677113D02*
X221244909Y-83034256D01*
X235959192Y-84991714D02*
X235959192Y-84241714D01*
X235959192Y-84241714D02*
X235709192Y-84777428D01*
X235709192Y-84777428D02*
X235459192Y-84241714D01*
X235459192Y-84241714D02*
X235459192Y-84991714D01*
X234780621Y-84991714D02*
X234780621Y-84598857D01*
X234780621Y-84598857D02*
X234816335Y-84527428D01*
X234816335Y-84527428D02*
X234887763Y-84491714D01*
X234887763Y-84491714D02*
X235030621Y-84491714D01*
X235030621Y-84491714D02*
X235102049Y-84527428D01*
X234780621Y-84956000D02*
X234852049Y-84991714D01*
X234852049Y-84991714D02*
X235030621Y-84991714D01*
X235030621Y-84991714D02*
X235102049Y-84956000D01*
X235102049Y-84956000D02*
X235137763Y-84884571D01*
X235137763Y-84884571D02*
X235137763Y-84813142D01*
X235137763Y-84813142D02*
X235102049Y-84741714D01*
X235102049Y-84741714D02*
X235030621Y-84706000D01*
X235030621Y-84706000D02*
X234852049Y-84706000D01*
X234852049Y-84706000D02*
X234780621Y-84670285D01*
X234494907Y-84491714D02*
X234316335Y-84991714D01*
X234137764Y-84491714D02*
X234316335Y-84991714D01*
X234316335Y-84991714D02*
X234387764Y-85170285D01*
X234387764Y-85170285D02*
X234423478Y-85206000D01*
X234423478Y-85206000D02*
X234494907Y-85241714D01*
X233316334Y-84313142D02*
X233280620Y-84277428D01*
X233280620Y-84277428D02*
X233209192Y-84241714D01*
X233209192Y-84241714D02*
X233030620Y-84241714D01*
X233030620Y-84241714D02*
X232959192Y-84277428D01*
X232959192Y-84277428D02*
X232923477Y-84313142D01*
X232923477Y-84313142D02*
X232887763Y-84384571D01*
X232887763Y-84384571D02*
X232887763Y-84456000D01*
X232887763Y-84456000D02*
X232923477Y-84563142D01*
X232923477Y-84563142D02*
X233352049Y-84991714D01*
X233352049Y-84991714D02*
X232887763Y-84991714D01*
X232423477Y-84241714D02*
X232352048Y-84241714D01*
X232352048Y-84241714D02*
X232280620Y-84277428D01*
X232280620Y-84277428D02*
X232244906Y-84313142D01*
X232244906Y-84313142D02*
X232209191Y-84384571D01*
X232209191Y-84384571D02*
X232173477Y-84527428D01*
X232173477Y-84527428D02*
X232173477Y-84706000D01*
X232173477Y-84706000D02*
X232209191Y-84848857D01*
X232209191Y-84848857D02*
X232244906Y-84920285D01*
X232244906Y-84920285D02*
X232280620Y-84956000D01*
X232280620Y-84956000D02*
X232352048Y-84991714D01*
X232352048Y-84991714D02*
X232423477Y-84991714D01*
X232423477Y-84991714D02*
X232494906Y-84956000D01*
X232494906Y-84956000D02*
X232530620Y-84920285D01*
X232530620Y-84920285D02*
X232566334Y-84848857D01*
X232566334Y-84848857D02*
X232602048Y-84706000D01*
X232602048Y-84706000D02*
X232602048Y-84527428D01*
X232602048Y-84527428D02*
X232566334Y-84384571D01*
X232566334Y-84384571D02*
X232530620Y-84313142D01*
X232530620Y-84313142D02*
X232494906Y-84277428D01*
X232494906Y-84277428D02*
X232423477Y-84241714D01*
X231887762Y-84313142D02*
X231852048Y-84277428D01*
X231852048Y-84277428D02*
X231780620Y-84241714D01*
X231780620Y-84241714D02*
X231602048Y-84241714D01*
X231602048Y-84241714D02*
X231530620Y-84277428D01*
X231530620Y-84277428D02*
X231494905Y-84313142D01*
X231494905Y-84313142D02*
X231459191Y-84384571D01*
X231459191Y-84384571D02*
X231459191Y-84456000D01*
X231459191Y-84456000D02*
X231494905Y-84563142D01*
X231494905Y-84563142D02*
X231923477Y-84991714D01*
X231923477Y-84991714D02*
X231459191Y-84991714D01*
X230780619Y-84241714D02*
X231137762Y-84241714D01*
X231137762Y-84241714D02*
X231173476Y-84598857D01*
X231173476Y-84598857D02*
X231137762Y-84563142D01*
X231137762Y-84563142D02*
X231066334Y-84527428D01*
X231066334Y-84527428D02*
X230887762Y-84527428D01*
X230887762Y-84527428D02*
X230816334Y-84563142D01*
X230816334Y-84563142D02*
X230780619Y-84598857D01*
X230780619Y-84598857D02*
X230744905Y-84670285D01*
X230744905Y-84670285D02*
X230744905Y-84848857D01*
X230744905Y-84848857D02*
X230780619Y-84920285D01*
X230780619Y-84920285D02*
X230816334Y-84956000D01*
X230816334Y-84956000D02*
X230887762Y-84991714D01*
X230887762Y-84991714D02*
X231066334Y-84991714D01*
X231066334Y-84991714D02*
X231137762Y-84956000D01*
X231137762Y-84956000D02*
X231173476Y-84920285D01*
D11*
X232296357Y-96593819D02*
X232629690Y-96117628D01*
X232867785Y-96593819D02*
X232867785Y-95593819D01*
X232867785Y-95593819D02*
X232486833Y-95593819D01*
X232486833Y-95593819D02*
X232391595Y-95641438D01*
X232391595Y-95641438D02*
X232343976Y-95689057D01*
X232343976Y-95689057D02*
X232296357Y-95784295D01*
X232296357Y-95784295D02*
X232296357Y-95927152D01*
X232296357Y-95927152D02*
X232343976Y-96022390D01*
X232343976Y-96022390D02*
X232391595Y-96070009D01*
X232391595Y-96070009D02*
X232486833Y-96117628D01*
X232486833Y-96117628D02*
X232867785Y-96117628D01*
X231963023Y-95593819D02*
X231343976Y-95593819D01*
X231343976Y-95593819D02*
X231677309Y-95974771D01*
X231677309Y-95974771D02*
X231534452Y-95974771D01*
X231534452Y-95974771D02*
X231439214Y-96022390D01*
X231439214Y-96022390D02*
X231391595Y-96070009D01*
X231391595Y-96070009D02*
X231343976Y-96165247D01*
X231343976Y-96165247D02*
X231343976Y-96403342D01*
X231343976Y-96403342D02*
X231391595Y-96498580D01*
X231391595Y-96498580D02*
X231439214Y-96546200D01*
X231439214Y-96546200D02*
X231534452Y-96593819D01*
X231534452Y-96593819D02*
X231820166Y-96593819D01*
X231820166Y-96593819D02*
X231915404Y-96546200D01*
X231915404Y-96546200D02*
X231963023Y-96498580D01*
X230963023Y-95689057D02*
X230915404Y-95641438D01*
X230915404Y-95641438D02*
X230820166Y-95593819D01*
X230820166Y-95593819D02*
X230582071Y-95593819D01*
X230582071Y-95593819D02*
X230486833Y-95641438D01*
X230486833Y-95641438D02*
X230439214Y-95689057D01*
X230439214Y-95689057D02*
X230391595Y-95784295D01*
X230391595Y-95784295D02*
X230391595Y-95879533D01*
X230391595Y-95879533D02*
X230439214Y-96022390D01*
X230439214Y-96022390D02*
X231010642Y-96593819D01*
X231010642Y-96593819D02*
X230391595Y-96593819D01*
X235317357Y-112501819D02*
X235650690Y-112025628D01*
X235888785Y-112501819D02*
X235888785Y-111501819D01*
X235888785Y-111501819D02*
X235507833Y-111501819D01*
X235507833Y-111501819D02*
X235412595Y-111549438D01*
X235412595Y-111549438D02*
X235364976Y-111597057D01*
X235364976Y-111597057D02*
X235317357Y-111692295D01*
X235317357Y-111692295D02*
X235317357Y-111835152D01*
X235317357Y-111835152D02*
X235364976Y-111930390D01*
X235364976Y-111930390D02*
X235412595Y-111978009D01*
X235412595Y-111978009D02*
X235507833Y-112025628D01*
X235507833Y-112025628D02*
X235888785Y-112025628D01*
X234364976Y-112501819D02*
X234936404Y-112501819D01*
X234650690Y-112501819D02*
X234650690Y-111501819D01*
X234650690Y-111501819D02*
X234745928Y-111644676D01*
X234745928Y-111644676D02*
X234841166Y-111739914D01*
X234841166Y-111739914D02*
X234936404Y-111787533D01*
X233888785Y-112501819D02*
X233698309Y-112501819D01*
X233698309Y-112501819D02*
X233603071Y-112454200D01*
X233603071Y-112454200D02*
X233555452Y-112406580D01*
X233555452Y-112406580D02*
X233460214Y-112263723D01*
X233460214Y-112263723D02*
X233412595Y-112073247D01*
X233412595Y-112073247D02*
X233412595Y-111692295D01*
X233412595Y-111692295D02*
X233460214Y-111597057D01*
X233460214Y-111597057D02*
X233507833Y-111549438D01*
X233507833Y-111549438D02*
X233603071Y-111501819D01*
X233603071Y-111501819D02*
X233793547Y-111501819D01*
X233793547Y-111501819D02*
X233888785Y-111549438D01*
X233888785Y-111549438D02*
X233936404Y-111597057D01*
X233936404Y-111597057D02*
X233984023Y-111692295D01*
X233984023Y-111692295D02*
X233984023Y-111930390D01*
X233984023Y-111930390D02*
X233936404Y-112025628D01*
X233936404Y-112025628D02*
X233888785Y-112073247D01*
X233888785Y-112073247D02*
X233793547Y-112120866D01*
X233793547Y-112120866D02*
X233603071Y-112120866D01*
X233603071Y-112120866D02*
X233507833Y-112073247D01*
X233507833Y-112073247D02*
X233460214Y-112025628D01*
X233460214Y-112025628D02*
X233412595Y-111930390D01*
X240799857Y-114151580D02*
X240847476Y-114199200D01*
X240847476Y-114199200D02*
X240990333Y-114246819D01*
X240990333Y-114246819D02*
X241085571Y-114246819D01*
X241085571Y-114246819D02*
X241228428Y-114199200D01*
X241228428Y-114199200D02*
X241323666Y-114103961D01*
X241323666Y-114103961D02*
X241371285Y-114008723D01*
X241371285Y-114008723D02*
X241418904Y-113818247D01*
X241418904Y-113818247D02*
X241418904Y-113675390D01*
X241418904Y-113675390D02*
X241371285Y-113484914D01*
X241371285Y-113484914D02*
X241323666Y-113389676D01*
X241323666Y-113389676D02*
X241228428Y-113294438D01*
X241228428Y-113294438D02*
X241085571Y-113246819D01*
X241085571Y-113246819D02*
X240990333Y-113246819D01*
X240990333Y-113246819D02*
X240847476Y-113294438D01*
X240847476Y-113294438D02*
X240799857Y-113342057D01*
X239847476Y-114246819D02*
X240418904Y-114246819D01*
X240133190Y-114246819D02*
X240133190Y-113246819D01*
X240133190Y-113246819D02*
X240228428Y-113389676D01*
X240228428Y-113389676D02*
X240323666Y-113484914D01*
X240323666Y-113484914D02*
X240418904Y-113532533D01*
X238942714Y-113246819D02*
X239418904Y-113246819D01*
X239418904Y-113246819D02*
X239466523Y-113723009D01*
X239466523Y-113723009D02*
X239418904Y-113675390D01*
X239418904Y-113675390D02*
X239323666Y-113627771D01*
X239323666Y-113627771D02*
X239085571Y-113627771D01*
X239085571Y-113627771D02*
X238990333Y-113675390D01*
X238990333Y-113675390D02*
X238942714Y-113723009D01*
X238942714Y-113723009D02*
X238895095Y-113818247D01*
X238895095Y-113818247D02*
X238895095Y-114056342D01*
X238895095Y-114056342D02*
X238942714Y-114151580D01*
X238942714Y-114151580D02*
X238990333Y-114199200D01*
X238990333Y-114199200D02*
X239085571Y-114246819D01*
X239085571Y-114246819D02*
X239323666Y-114246819D01*
X239323666Y-114246819D02*
X239418904Y-114199200D01*
X239418904Y-114199200D02*
X239466523Y-114151580D01*
X204223857Y-114278580D02*
X204271476Y-114326200D01*
X204271476Y-114326200D02*
X204414333Y-114373819D01*
X204414333Y-114373819D02*
X204509571Y-114373819D01*
X204509571Y-114373819D02*
X204652428Y-114326200D01*
X204652428Y-114326200D02*
X204747666Y-114230961D01*
X204747666Y-114230961D02*
X204795285Y-114135723D01*
X204795285Y-114135723D02*
X204842904Y-113945247D01*
X204842904Y-113945247D02*
X204842904Y-113802390D01*
X204842904Y-113802390D02*
X204795285Y-113611914D01*
X204795285Y-113611914D02*
X204747666Y-113516676D01*
X204747666Y-113516676D02*
X204652428Y-113421438D01*
X204652428Y-113421438D02*
X204509571Y-113373819D01*
X204509571Y-113373819D02*
X204414333Y-113373819D01*
X204414333Y-113373819D02*
X204271476Y-113421438D01*
X204271476Y-113421438D02*
X204223857Y-113469057D01*
X203271476Y-114373819D02*
X203842904Y-114373819D01*
X203557190Y-114373819D02*
X203557190Y-113373819D01*
X203557190Y-113373819D02*
X203652428Y-113516676D01*
X203652428Y-113516676D02*
X203747666Y-113611914D01*
X203747666Y-113611914D02*
X203842904Y-113659533D01*
X202414333Y-113373819D02*
X202604809Y-113373819D01*
X202604809Y-113373819D02*
X202700047Y-113421438D01*
X202700047Y-113421438D02*
X202747666Y-113469057D01*
X202747666Y-113469057D02*
X202842904Y-113611914D01*
X202842904Y-113611914D02*
X202890523Y-113802390D01*
X202890523Y-113802390D02*
X202890523Y-114183342D01*
X202890523Y-114183342D02*
X202842904Y-114278580D01*
X202842904Y-114278580D02*
X202795285Y-114326200D01*
X202795285Y-114326200D02*
X202700047Y-114373819D01*
X202700047Y-114373819D02*
X202509571Y-114373819D01*
X202509571Y-114373819D02*
X202414333Y-114326200D01*
X202414333Y-114326200D02*
X202366714Y-114278580D01*
X202366714Y-114278580D02*
X202319095Y-114183342D01*
X202319095Y-114183342D02*
X202319095Y-113945247D01*
X202319095Y-113945247D02*
X202366714Y-113850009D01*
X202366714Y-113850009D02*
X202414333Y-113802390D01*
X202414333Y-113802390D02*
X202509571Y-113754771D01*
X202509571Y-113754771D02*
X202700047Y-113754771D01*
X202700047Y-113754771D02*
X202795285Y-113802390D01*
X202795285Y-113802390D02*
X202842904Y-113850009D01*
X202842904Y-113850009D02*
X202890523Y-113945247D01*
X226734666Y-109960580D02*
X226782285Y-110008200D01*
X226782285Y-110008200D02*
X226925142Y-110055819D01*
X226925142Y-110055819D02*
X227020380Y-110055819D01*
X227020380Y-110055819D02*
X227163237Y-110008200D01*
X227163237Y-110008200D02*
X227258475Y-109912961D01*
X227258475Y-109912961D02*
X227306094Y-109817723D01*
X227306094Y-109817723D02*
X227353713Y-109627247D01*
X227353713Y-109627247D02*
X227353713Y-109484390D01*
X227353713Y-109484390D02*
X227306094Y-109293914D01*
X227306094Y-109293914D02*
X227258475Y-109198676D01*
X227258475Y-109198676D02*
X227163237Y-109103438D01*
X227163237Y-109103438D02*
X227020380Y-109055819D01*
X227020380Y-109055819D02*
X226925142Y-109055819D01*
X226925142Y-109055819D02*
X226782285Y-109103438D01*
X226782285Y-109103438D02*
X226734666Y-109151057D01*
X226401332Y-109055819D02*
X225782285Y-109055819D01*
X225782285Y-109055819D02*
X226115618Y-109436771D01*
X226115618Y-109436771D02*
X225972761Y-109436771D01*
X225972761Y-109436771D02*
X225877523Y-109484390D01*
X225877523Y-109484390D02*
X225829904Y-109532009D01*
X225829904Y-109532009D02*
X225782285Y-109627247D01*
X225782285Y-109627247D02*
X225782285Y-109865342D01*
X225782285Y-109865342D02*
X225829904Y-109960580D01*
X225829904Y-109960580D02*
X225877523Y-110008200D01*
X225877523Y-110008200D02*
X225972761Y-110055819D01*
X225972761Y-110055819D02*
X226258475Y-110055819D01*
X226258475Y-110055819D02*
X226353713Y-110008200D01*
X226353713Y-110008200D02*
X226401332Y-109960580D01*
X200794857Y-109196819D02*
X201128190Y-108720628D01*
X201366285Y-109196819D02*
X201366285Y-108196819D01*
X201366285Y-108196819D02*
X200985333Y-108196819D01*
X200985333Y-108196819D02*
X200890095Y-108244438D01*
X200890095Y-108244438D02*
X200842476Y-108292057D01*
X200842476Y-108292057D02*
X200794857Y-108387295D01*
X200794857Y-108387295D02*
X200794857Y-108530152D01*
X200794857Y-108530152D02*
X200842476Y-108625390D01*
X200842476Y-108625390D02*
X200890095Y-108673009D01*
X200890095Y-108673009D02*
X200985333Y-108720628D01*
X200985333Y-108720628D02*
X201366285Y-108720628D01*
X200413904Y-108292057D02*
X200366285Y-108244438D01*
X200366285Y-108244438D02*
X200271047Y-108196819D01*
X200271047Y-108196819D02*
X200032952Y-108196819D01*
X200032952Y-108196819D02*
X199937714Y-108244438D01*
X199937714Y-108244438D02*
X199890095Y-108292057D01*
X199890095Y-108292057D02*
X199842476Y-108387295D01*
X199842476Y-108387295D02*
X199842476Y-108482533D01*
X199842476Y-108482533D02*
X199890095Y-108625390D01*
X199890095Y-108625390D02*
X200461523Y-109196819D01*
X200461523Y-109196819D02*
X199842476Y-109196819D01*
X199509142Y-108196819D02*
X198890095Y-108196819D01*
X198890095Y-108196819D02*
X199223428Y-108577771D01*
X199223428Y-108577771D02*
X199080571Y-108577771D01*
X199080571Y-108577771D02*
X198985333Y-108625390D01*
X198985333Y-108625390D02*
X198937714Y-108673009D01*
X198937714Y-108673009D02*
X198890095Y-108768247D01*
X198890095Y-108768247D02*
X198890095Y-109006342D01*
X198890095Y-109006342D02*
X198937714Y-109101580D01*
X198937714Y-109101580D02*
X198985333Y-109149200D01*
X198985333Y-109149200D02*
X199080571Y-109196819D01*
X199080571Y-109196819D02*
X199366285Y-109196819D01*
X199366285Y-109196819D02*
X199461523Y-109149200D01*
X199461523Y-109149200D02*
X199509142Y-109101580D01*
X239783857Y-92278580D02*
X239831476Y-92326200D01*
X239831476Y-92326200D02*
X239974333Y-92373819D01*
X239974333Y-92373819D02*
X240069571Y-92373819D01*
X240069571Y-92373819D02*
X240212428Y-92326200D01*
X240212428Y-92326200D02*
X240307666Y-92230961D01*
X240307666Y-92230961D02*
X240355285Y-92135723D01*
X240355285Y-92135723D02*
X240402904Y-91945247D01*
X240402904Y-91945247D02*
X240402904Y-91802390D01*
X240402904Y-91802390D02*
X240355285Y-91611914D01*
X240355285Y-91611914D02*
X240307666Y-91516676D01*
X240307666Y-91516676D02*
X240212428Y-91421438D01*
X240212428Y-91421438D02*
X240069571Y-91373819D01*
X240069571Y-91373819D02*
X239974333Y-91373819D01*
X239974333Y-91373819D02*
X239831476Y-91421438D01*
X239831476Y-91421438D02*
X239783857Y-91469057D01*
X239402904Y-91469057D02*
X239355285Y-91421438D01*
X239355285Y-91421438D02*
X239260047Y-91373819D01*
X239260047Y-91373819D02*
X239021952Y-91373819D01*
X239021952Y-91373819D02*
X238926714Y-91421438D01*
X238926714Y-91421438D02*
X238879095Y-91469057D01*
X238879095Y-91469057D02*
X238831476Y-91564295D01*
X238831476Y-91564295D02*
X238831476Y-91659533D01*
X238831476Y-91659533D02*
X238879095Y-91802390D01*
X238879095Y-91802390D02*
X239450523Y-92373819D01*
X239450523Y-92373819D02*
X238831476Y-92373819D01*
X237974333Y-91707152D02*
X237974333Y-92373819D01*
X238212428Y-91326200D02*
X238450523Y-92040485D01*
X238450523Y-92040485D02*
X237831476Y-92040485D01*
X232542404Y-92357819D02*
X232542404Y-93167342D01*
X232542404Y-93167342D02*
X232494785Y-93262580D01*
X232494785Y-93262580D02*
X232447166Y-93310200D01*
X232447166Y-93310200D02*
X232351928Y-93357819D01*
X232351928Y-93357819D02*
X232161452Y-93357819D01*
X232161452Y-93357819D02*
X232066214Y-93310200D01*
X232066214Y-93310200D02*
X232018595Y-93262580D01*
X232018595Y-93262580D02*
X231970976Y-93167342D01*
X231970976Y-93167342D02*
X231970976Y-92357819D01*
X231351928Y-92786390D02*
X231447166Y-92738771D01*
X231447166Y-92738771D02*
X231494785Y-92691152D01*
X231494785Y-92691152D02*
X231542404Y-92595914D01*
X231542404Y-92595914D02*
X231542404Y-92548295D01*
X231542404Y-92548295D02*
X231494785Y-92453057D01*
X231494785Y-92453057D02*
X231447166Y-92405438D01*
X231447166Y-92405438D02*
X231351928Y-92357819D01*
X231351928Y-92357819D02*
X231161452Y-92357819D01*
X231161452Y-92357819D02*
X231066214Y-92405438D01*
X231066214Y-92405438D02*
X231018595Y-92453057D01*
X231018595Y-92453057D02*
X230970976Y-92548295D01*
X230970976Y-92548295D02*
X230970976Y-92595914D01*
X230970976Y-92595914D02*
X231018595Y-92691152D01*
X231018595Y-92691152D02*
X231066214Y-92738771D01*
X231066214Y-92738771D02*
X231161452Y-92786390D01*
X231161452Y-92786390D02*
X231351928Y-92786390D01*
X231351928Y-92786390D02*
X231447166Y-92834009D01*
X231447166Y-92834009D02*
X231494785Y-92881628D01*
X231494785Y-92881628D02*
X231542404Y-92976866D01*
X231542404Y-92976866D02*
X231542404Y-93167342D01*
X231542404Y-93167342D02*
X231494785Y-93262580D01*
X231494785Y-93262580D02*
X231447166Y-93310200D01*
X231447166Y-93310200D02*
X231351928Y-93357819D01*
X231351928Y-93357819D02*
X231161452Y-93357819D01*
X231161452Y-93357819D02*
X231066214Y-93310200D01*
X231066214Y-93310200D02*
X231018595Y-93262580D01*
X231018595Y-93262580D02*
X230970976Y-93167342D01*
X230970976Y-93167342D02*
X230970976Y-92976866D01*
X230970976Y-92976866D02*
X231018595Y-92881628D01*
X231018595Y-92881628D02*
X231066214Y-92834009D01*
X231066214Y-92834009D02*
X231161452Y-92786390D01*
X199897904Y-111595819D02*
X199897904Y-112405342D01*
X199897904Y-112405342D02*
X199850285Y-112500580D01*
X199850285Y-112500580D02*
X199802666Y-112548200D01*
X199802666Y-112548200D02*
X199707428Y-112595819D01*
X199707428Y-112595819D02*
X199516952Y-112595819D01*
X199516952Y-112595819D02*
X199421714Y-112548200D01*
X199421714Y-112548200D02*
X199374095Y-112500580D01*
X199374095Y-112500580D02*
X199326476Y-112405342D01*
X199326476Y-112405342D02*
X199326476Y-111595819D01*
X198374095Y-111595819D02*
X198850285Y-111595819D01*
X198850285Y-111595819D02*
X198897904Y-112072009D01*
X198897904Y-112072009D02*
X198850285Y-112024390D01*
X198850285Y-112024390D02*
X198755047Y-111976771D01*
X198755047Y-111976771D02*
X198516952Y-111976771D01*
X198516952Y-111976771D02*
X198421714Y-112024390D01*
X198421714Y-112024390D02*
X198374095Y-112072009D01*
X198374095Y-112072009D02*
X198326476Y-112167247D01*
X198326476Y-112167247D02*
X198326476Y-112405342D01*
X198326476Y-112405342D02*
X198374095Y-112500580D01*
X198374095Y-112500580D02*
X198421714Y-112548200D01*
X198421714Y-112548200D02*
X198516952Y-112595819D01*
X198516952Y-112595819D02*
X198755047Y-112595819D01*
X198755047Y-112595819D02*
X198850285Y-112548200D01*
X198850285Y-112548200D02*
X198897904Y-112500580D01*
X220765666Y-117929819D02*
X221098999Y-117453628D01*
X221337094Y-117929819D02*
X221337094Y-116929819D01*
X221337094Y-116929819D02*
X220956142Y-116929819D01*
X220956142Y-116929819D02*
X220860904Y-116977438D01*
X220860904Y-116977438D02*
X220813285Y-117025057D01*
X220813285Y-117025057D02*
X220765666Y-117120295D01*
X220765666Y-117120295D02*
X220765666Y-117263152D01*
X220765666Y-117263152D02*
X220813285Y-117358390D01*
X220813285Y-117358390D02*
X220860904Y-117406009D01*
X220860904Y-117406009D02*
X220956142Y-117453628D01*
X220956142Y-117453628D02*
X221337094Y-117453628D01*
X220289475Y-117929819D02*
X220098999Y-117929819D01*
X220098999Y-117929819D02*
X220003761Y-117882200D01*
X220003761Y-117882200D02*
X219956142Y-117834580D01*
X219956142Y-117834580D02*
X219860904Y-117691723D01*
X219860904Y-117691723D02*
X219813285Y-117501247D01*
X219813285Y-117501247D02*
X219813285Y-117120295D01*
X219813285Y-117120295D02*
X219860904Y-117025057D01*
X219860904Y-117025057D02*
X219908523Y-116977438D01*
X219908523Y-116977438D02*
X220003761Y-116929819D01*
X220003761Y-116929819D02*
X220194237Y-116929819D01*
X220194237Y-116929819D02*
X220289475Y-116977438D01*
X220289475Y-116977438D02*
X220337094Y-117025057D01*
X220337094Y-117025057D02*
X220384713Y-117120295D01*
X220384713Y-117120295D02*
X220384713Y-117358390D01*
X220384713Y-117358390D02*
X220337094Y-117453628D01*
X220337094Y-117453628D02*
X220289475Y-117501247D01*
X220289475Y-117501247D02*
X220194237Y-117548866D01*
X220194237Y-117548866D02*
X220003761Y-117548866D01*
X220003761Y-117548866D02*
X219908523Y-117501247D01*
X219908523Y-117501247D02*
X219860904Y-117453628D01*
X219860904Y-117453628D02*
X219813285Y-117358390D01*
X218733666Y-94688819D02*
X219066999Y-94212628D01*
X219305094Y-94688819D02*
X219305094Y-93688819D01*
X219305094Y-93688819D02*
X218924142Y-93688819D01*
X218924142Y-93688819D02*
X218828904Y-93736438D01*
X218828904Y-93736438D02*
X218781285Y-93784057D01*
X218781285Y-93784057D02*
X218733666Y-93879295D01*
X218733666Y-93879295D02*
X218733666Y-94022152D01*
X218733666Y-94022152D02*
X218781285Y-94117390D01*
X218781285Y-94117390D02*
X218828904Y-94165009D01*
X218828904Y-94165009D02*
X218924142Y-94212628D01*
X218924142Y-94212628D02*
X219305094Y-94212628D01*
X217876523Y-93688819D02*
X218066999Y-93688819D01*
X218066999Y-93688819D02*
X218162237Y-93736438D01*
X218162237Y-93736438D02*
X218209856Y-93784057D01*
X218209856Y-93784057D02*
X218305094Y-93926914D01*
X218305094Y-93926914D02*
X218352713Y-94117390D01*
X218352713Y-94117390D02*
X218352713Y-94498342D01*
X218352713Y-94498342D02*
X218305094Y-94593580D01*
X218305094Y-94593580D02*
X218257475Y-94641200D01*
X218257475Y-94641200D02*
X218162237Y-94688819D01*
X218162237Y-94688819D02*
X217971761Y-94688819D01*
X217971761Y-94688819D02*
X217876523Y-94641200D01*
X217876523Y-94641200D02*
X217828904Y-94593580D01*
X217828904Y-94593580D02*
X217781285Y-94498342D01*
X217781285Y-94498342D02*
X217781285Y-94260247D01*
X217781285Y-94260247D02*
X217828904Y-94165009D01*
X217828904Y-94165009D02*
X217876523Y-94117390D01*
X217876523Y-94117390D02*
X217971761Y-94069771D01*
X217971761Y-94069771D02*
X218162237Y-94069771D01*
X218162237Y-94069771D02*
X218257475Y-94117390D01*
X218257475Y-94117390D02*
X218305094Y-94165009D01*
X218305094Y-94165009D02*
X218352713Y-94260247D01*
X196349857Y-109071580D02*
X196397476Y-109119200D01*
X196397476Y-109119200D02*
X196540333Y-109166819D01*
X196540333Y-109166819D02*
X196635571Y-109166819D01*
X196635571Y-109166819D02*
X196778428Y-109119200D01*
X196778428Y-109119200D02*
X196873666Y-109023961D01*
X196873666Y-109023961D02*
X196921285Y-108928723D01*
X196921285Y-108928723D02*
X196968904Y-108738247D01*
X196968904Y-108738247D02*
X196968904Y-108595390D01*
X196968904Y-108595390D02*
X196921285Y-108404914D01*
X196921285Y-108404914D02*
X196873666Y-108309676D01*
X196873666Y-108309676D02*
X196778428Y-108214438D01*
X196778428Y-108214438D02*
X196635571Y-108166819D01*
X196635571Y-108166819D02*
X196540333Y-108166819D01*
X196540333Y-108166819D02*
X196397476Y-108214438D01*
X196397476Y-108214438D02*
X196349857Y-108262057D01*
X195397476Y-109166819D02*
X195968904Y-109166819D01*
X195683190Y-109166819D02*
X195683190Y-108166819D01*
X195683190Y-108166819D02*
X195778428Y-108309676D01*
X195778428Y-108309676D02*
X195873666Y-108404914D01*
X195873666Y-108404914D02*
X195968904Y-108452533D01*
X194540333Y-108500152D02*
X194540333Y-109166819D01*
X194778428Y-108119200D02*
X195016523Y-108833485D01*
X195016523Y-108833485D02*
X194397476Y-108833485D01*
X225210666Y-94688819D02*
X225543999Y-94212628D01*
X225782094Y-94688819D02*
X225782094Y-93688819D01*
X225782094Y-93688819D02*
X225401142Y-93688819D01*
X225401142Y-93688819D02*
X225305904Y-93736438D01*
X225305904Y-93736438D02*
X225258285Y-93784057D01*
X225258285Y-93784057D02*
X225210666Y-93879295D01*
X225210666Y-93879295D02*
X225210666Y-94022152D01*
X225210666Y-94022152D02*
X225258285Y-94117390D01*
X225258285Y-94117390D02*
X225305904Y-94165009D01*
X225305904Y-94165009D02*
X225401142Y-94212628D01*
X225401142Y-94212628D02*
X225782094Y-94212628D01*
X224877332Y-93688819D02*
X224258285Y-93688819D01*
X224258285Y-93688819D02*
X224591618Y-94069771D01*
X224591618Y-94069771D02*
X224448761Y-94069771D01*
X224448761Y-94069771D02*
X224353523Y-94117390D01*
X224353523Y-94117390D02*
X224305904Y-94165009D01*
X224305904Y-94165009D02*
X224258285Y-94260247D01*
X224258285Y-94260247D02*
X224258285Y-94498342D01*
X224258285Y-94498342D02*
X224305904Y-94593580D01*
X224305904Y-94593580D02*
X224353523Y-94641200D01*
X224353523Y-94641200D02*
X224448761Y-94688819D01*
X224448761Y-94688819D02*
X224734475Y-94688819D01*
X224734475Y-94688819D02*
X224829713Y-94641200D01*
X224829713Y-94641200D02*
X224877332Y-94593580D01*
X218733666Y-103959819D02*
X219066999Y-103483628D01*
X219305094Y-103959819D02*
X219305094Y-102959819D01*
X219305094Y-102959819D02*
X218924142Y-102959819D01*
X218924142Y-102959819D02*
X218828904Y-103007438D01*
X218828904Y-103007438D02*
X218781285Y-103055057D01*
X218781285Y-103055057D02*
X218733666Y-103150295D01*
X218733666Y-103150295D02*
X218733666Y-103293152D01*
X218733666Y-103293152D02*
X218781285Y-103388390D01*
X218781285Y-103388390D02*
X218828904Y-103436009D01*
X218828904Y-103436009D02*
X218924142Y-103483628D01*
X218924142Y-103483628D02*
X219305094Y-103483628D01*
X218400332Y-102959819D02*
X217733666Y-102959819D01*
X217733666Y-102959819D02*
X218162237Y-103959819D01*
X198620142Y-126767419D02*
X198572523Y-126719800D01*
X198572523Y-126719800D02*
X198429666Y-126672180D01*
X198429666Y-126672180D02*
X198334428Y-126672180D01*
X198334428Y-126672180D02*
X198191571Y-126719800D01*
X198191571Y-126719800D02*
X198096333Y-126815038D01*
X198096333Y-126815038D02*
X198048714Y-126910276D01*
X198048714Y-126910276D02*
X198001095Y-127100752D01*
X198001095Y-127100752D02*
X198001095Y-127243609D01*
X198001095Y-127243609D02*
X198048714Y-127434085D01*
X198048714Y-127434085D02*
X198096333Y-127529323D01*
X198096333Y-127529323D02*
X198191571Y-127624561D01*
X198191571Y-127624561D02*
X198334428Y-127672180D01*
X198334428Y-127672180D02*
X198429666Y-127672180D01*
X198429666Y-127672180D02*
X198572523Y-127624561D01*
X198572523Y-127624561D02*
X198620142Y-127576942D01*
X199001095Y-127576942D02*
X199048714Y-127624561D01*
X199048714Y-127624561D02*
X199143952Y-127672180D01*
X199143952Y-127672180D02*
X199382047Y-127672180D01*
X199382047Y-127672180D02*
X199477285Y-127624561D01*
X199477285Y-127624561D02*
X199524904Y-127576942D01*
X199524904Y-127576942D02*
X199572523Y-127481704D01*
X199572523Y-127481704D02*
X199572523Y-127386466D01*
X199572523Y-127386466D02*
X199524904Y-127243609D01*
X199524904Y-127243609D02*
X198953476Y-126672180D01*
X198953476Y-126672180D02*
X199572523Y-126672180D01*
X200477285Y-127672180D02*
X200001095Y-127672180D01*
X200001095Y-127672180D02*
X199953476Y-127195990D01*
X199953476Y-127195990D02*
X200001095Y-127243609D01*
X200001095Y-127243609D02*
X200096333Y-127291228D01*
X200096333Y-127291228D02*
X200334428Y-127291228D01*
X200334428Y-127291228D02*
X200429666Y-127243609D01*
X200429666Y-127243609D02*
X200477285Y-127195990D01*
X200477285Y-127195990D02*
X200524904Y-127100752D01*
X200524904Y-127100752D02*
X200524904Y-126862657D01*
X200524904Y-126862657D02*
X200477285Y-126767419D01*
X200477285Y-126767419D02*
X200429666Y-126719800D01*
X200429666Y-126719800D02*
X200334428Y-126672180D01*
X200334428Y-126672180D02*
X200096333Y-126672180D01*
X200096333Y-126672180D02*
X200001095Y-126719800D01*
X200001095Y-126719800D02*
X199953476Y-126767419D01*
X226702857Y-117929819D02*
X227036190Y-117453628D01*
X227274285Y-117929819D02*
X227274285Y-116929819D01*
X227274285Y-116929819D02*
X226893333Y-116929819D01*
X226893333Y-116929819D02*
X226798095Y-116977438D01*
X226798095Y-116977438D02*
X226750476Y-117025057D01*
X226750476Y-117025057D02*
X226702857Y-117120295D01*
X226702857Y-117120295D02*
X226702857Y-117263152D01*
X226702857Y-117263152D02*
X226750476Y-117358390D01*
X226750476Y-117358390D02*
X226798095Y-117406009D01*
X226798095Y-117406009D02*
X226893333Y-117453628D01*
X226893333Y-117453628D02*
X227274285Y-117453628D01*
X225750476Y-117929819D02*
X226321904Y-117929819D01*
X226036190Y-117929819D02*
X226036190Y-116929819D01*
X226036190Y-116929819D02*
X226131428Y-117072676D01*
X226131428Y-117072676D02*
X226226666Y-117167914D01*
X226226666Y-117167914D02*
X226321904Y-117215533D01*
X225131428Y-116929819D02*
X225036190Y-116929819D01*
X225036190Y-116929819D02*
X224940952Y-116977438D01*
X224940952Y-116977438D02*
X224893333Y-117025057D01*
X224893333Y-117025057D02*
X224845714Y-117120295D01*
X224845714Y-117120295D02*
X224798095Y-117310771D01*
X224798095Y-117310771D02*
X224798095Y-117548866D01*
X224798095Y-117548866D02*
X224845714Y-117739342D01*
X224845714Y-117739342D02*
X224893333Y-117834580D01*
X224893333Y-117834580D02*
X224940952Y-117882200D01*
X224940952Y-117882200D02*
X225036190Y-117929819D01*
X225036190Y-117929819D02*
X225131428Y-117929819D01*
X225131428Y-117929819D02*
X225226666Y-117882200D01*
X225226666Y-117882200D02*
X225274285Y-117834580D01*
X225274285Y-117834580D02*
X225321904Y-117739342D01*
X225321904Y-117739342D02*
X225369523Y-117548866D01*
X225369523Y-117548866D02*
X225369523Y-117310771D01*
X225369523Y-117310771D02*
X225321904Y-117120295D01*
X225321904Y-117120295D02*
X225274285Y-117025057D01*
X225274285Y-117025057D02*
X225226666Y-116977438D01*
X225226666Y-116977438D02*
X225131428Y-116929819D01*
X199778857Y-117167819D02*
X200112190Y-116691628D01*
X200350285Y-117167819D02*
X200350285Y-116167819D01*
X200350285Y-116167819D02*
X199969333Y-116167819D01*
X199969333Y-116167819D02*
X199874095Y-116215438D01*
X199874095Y-116215438D02*
X199826476Y-116263057D01*
X199826476Y-116263057D02*
X199778857Y-116358295D01*
X199778857Y-116358295D02*
X199778857Y-116501152D01*
X199778857Y-116501152D02*
X199826476Y-116596390D01*
X199826476Y-116596390D02*
X199874095Y-116644009D01*
X199874095Y-116644009D02*
X199969333Y-116691628D01*
X199969333Y-116691628D02*
X200350285Y-116691628D01*
X198826476Y-117167819D02*
X199397904Y-117167819D01*
X199112190Y-117167819D02*
X199112190Y-116167819D01*
X199112190Y-116167819D02*
X199207428Y-116310676D01*
X199207428Y-116310676D02*
X199302666Y-116405914D01*
X199302666Y-116405914D02*
X199397904Y-116453533D01*
X197874095Y-117167819D02*
X198445523Y-117167819D01*
X198159809Y-117167819D02*
X198159809Y-116167819D01*
X198159809Y-116167819D02*
X198255047Y-116310676D01*
X198255047Y-116310676D02*
X198350285Y-116405914D01*
X198350285Y-116405914D02*
X198445523Y-116453533D01*
X237751857Y-128343819D02*
X238085190Y-127867628D01*
X238323285Y-128343819D02*
X238323285Y-127343819D01*
X238323285Y-127343819D02*
X237942333Y-127343819D01*
X237942333Y-127343819D02*
X237847095Y-127391438D01*
X237847095Y-127391438D02*
X237799476Y-127439057D01*
X237799476Y-127439057D02*
X237751857Y-127534295D01*
X237751857Y-127534295D02*
X237751857Y-127677152D01*
X237751857Y-127677152D02*
X237799476Y-127772390D01*
X237799476Y-127772390D02*
X237847095Y-127820009D01*
X237847095Y-127820009D02*
X237942333Y-127867628D01*
X237942333Y-127867628D02*
X238323285Y-127867628D01*
X237370904Y-127439057D02*
X237323285Y-127391438D01*
X237323285Y-127391438D02*
X237228047Y-127343819D01*
X237228047Y-127343819D02*
X236989952Y-127343819D01*
X236989952Y-127343819D02*
X236894714Y-127391438D01*
X236894714Y-127391438D02*
X236847095Y-127439057D01*
X236847095Y-127439057D02*
X236799476Y-127534295D01*
X236799476Y-127534295D02*
X236799476Y-127629533D01*
X236799476Y-127629533D02*
X236847095Y-127772390D01*
X236847095Y-127772390D02*
X237418523Y-128343819D01*
X237418523Y-128343819D02*
X236799476Y-128343819D01*
X235942333Y-127677152D02*
X235942333Y-128343819D01*
X236180428Y-127296200D02*
X236418523Y-128010485D01*
X236418523Y-128010485D02*
X235799476Y-128010485D01*
X225210666Y-103959819D02*
X225543999Y-103483628D01*
X225782094Y-103959819D02*
X225782094Y-102959819D01*
X225782094Y-102959819D02*
X225401142Y-102959819D01*
X225401142Y-102959819D02*
X225305904Y-103007438D01*
X225305904Y-103007438D02*
X225258285Y-103055057D01*
X225258285Y-103055057D02*
X225210666Y-103150295D01*
X225210666Y-103150295D02*
X225210666Y-103293152D01*
X225210666Y-103293152D02*
X225258285Y-103388390D01*
X225258285Y-103388390D02*
X225305904Y-103436009D01*
X225305904Y-103436009D02*
X225401142Y-103483628D01*
X225401142Y-103483628D02*
X225782094Y-103483628D01*
X224353523Y-103293152D02*
X224353523Y-103959819D01*
X224591618Y-102912200D02*
X224829713Y-103626485D01*
X224829713Y-103626485D02*
X224210666Y-103626485D01*
X232296357Y-99006819D02*
X232629690Y-98530628D01*
X232867785Y-99006819D02*
X232867785Y-98006819D01*
X232867785Y-98006819D02*
X232486833Y-98006819D01*
X232486833Y-98006819D02*
X232391595Y-98054438D01*
X232391595Y-98054438D02*
X232343976Y-98102057D01*
X232343976Y-98102057D02*
X232296357Y-98197295D01*
X232296357Y-98197295D02*
X232296357Y-98340152D01*
X232296357Y-98340152D02*
X232343976Y-98435390D01*
X232343976Y-98435390D02*
X232391595Y-98483009D01*
X232391595Y-98483009D02*
X232486833Y-98530628D01*
X232486833Y-98530628D02*
X232867785Y-98530628D01*
X231963023Y-98006819D02*
X231343976Y-98006819D01*
X231343976Y-98006819D02*
X231677309Y-98387771D01*
X231677309Y-98387771D02*
X231534452Y-98387771D01*
X231534452Y-98387771D02*
X231439214Y-98435390D01*
X231439214Y-98435390D02*
X231391595Y-98483009D01*
X231391595Y-98483009D02*
X231343976Y-98578247D01*
X231343976Y-98578247D02*
X231343976Y-98816342D01*
X231343976Y-98816342D02*
X231391595Y-98911580D01*
X231391595Y-98911580D02*
X231439214Y-98959200D01*
X231439214Y-98959200D02*
X231534452Y-99006819D01*
X231534452Y-99006819D02*
X231820166Y-99006819D01*
X231820166Y-99006819D02*
X231915404Y-98959200D01*
X231915404Y-98959200D02*
X231963023Y-98911580D01*
X230391595Y-99006819D02*
X230963023Y-99006819D01*
X230677309Y-99006819D02*
X230677309Y-98006819D01*
X230677309Y-98006819D02*
X230772547Y-98149676D01*
X230772547Y-98149676D02*
X230867785Y-98244914D01*
X230867785Y-98244914D02*
X230963023Y-98292533D01*
X235317357Y-115643819D02*
X235650690Y-115167628D01*
X235888785Y-115643819D02*
X235888785Y-114643819D01*
X235888785Y-114643819D02*
X235507833Y-114643819D01*
X235507833Y-114643819D02*
X235412595Y-114691438D01*
X235412595Y-114691438D02*
X235364976Y-114739057D01*
X235364976Y-114739057D02*
X235317357Y-114834295D01*
X235317357Y-114834295D02*
X235317357Y-114977152D01*
X235317357Y-114977152D02*
X235364976Y-115072390D01*
X235364976Y-115072390D02*
X235412595Y-115120009D01*
X235412595Y-115120009D02*
X235507833Y-115167628D01*
X235507833Y-115167628D02*
X235888785Y-115167628D01*
X234936404Y-114739057D02*
X234888785Y-114691438D01*
X234888785Y-114691438D02*
X234793547Y-114643819D01*
X234793547Y-114643819D02*
X234555452Y-114643819D01*
X234555452Y-114643819D02*
X234460214Y-114691438D01*
X234460214Y-114691438D02*
X234412595Y-114739057D01*
X234412595Y-114739057D02*
X234364976Y-114834295D01*
X234364976Y-114834295D02*
X234364976Y-114929533D01*
X234364976Y-114929533D02*
X234412595Y-115072390D01*
X234412595Y-115072390D02*
X234984023Y-115643819D01*
X234984023Y-115643819D02*
X234364976Y-115643819D01*
X233745928Y-114643819D02*
X233650690Y-114643819D01*
X233650690Y-114643819D02*
X233555452Y-114691438D01*
X233555452Y-114691438D02*
X233507833Y-114739057D01*
X233507833Y-114739057D02*
X233460214Y-114834295D01*
X233460214Y-114834295D02*
X233412595Y-115024771D01*
X233412595Y-115024771D02*
X233412595Y-115262866D01*
X233412595Y-115262866D02*
X233460214Y-115453342D01*
X233460214Y-115453342D02*
X233507833Y-115548580D01*
X233507833Y-115548580D02*
X233555452Y-115596200D01*
X233555452Y-115596200D02*
X233650690Y-115643819D01*
X233650690Y-115643819D02*
X233745928Y-115643819D01*
X233745928Y-115643819D02*
X233841166Y-115596200D01*
X233841166Y-115596200D02*
X233888785Y-115548580D01*
X233888785Y-115548580D02*
X233936404Y-115453342D01*
X233936404Y-115453342D02*
X233984023Y-115262866D01*
X233984023Y-115262866D02*
X233984023Y-115024771D01*
X233984023Y-115024771D02*
X233936404Y-114834295D01*
X233936404Y-114834295D02*
X233888785Y-114739057D01*
X233888785Y-114739057D02*
X233841166Y-114691438D01*
X233841166Y-114691438D02*
X233745928Y-114643819D01*
X204446094Y-104721819D02*
X204446094Y-103721819D01*
X204446094Y-103721819D02*
X204207999Y-103721819D01*
X204207999Y-103721819D02*
X204065142Y-103769438D01*
X204065142Y-103769438D02*
X203969904Y-103864676D01*
X203969904Y-103864676D02*
X203922285Y-103959914D01*
X203922285Y-103959914D02*
X203874666Y-104150390D01*
X203874666Y-104150390D02*
X203874666Y-104293247D01*
X203874666Y-104293247D02*
X203922285Y-104483723D01*
X203922285Y-104483723D02*
X203969904Y-104578961D01*
X203969904Y-104578961D02*
X204065142Y-104674200D01*
X204065142Y-104674200D02*
X204207999Y-104721819D01*
X204207999Y-104721819D02*
X204446094Y-104721819D01*
X202969904Y-103721819D02*
X203446094Y-103721819D01*
X203446094Y-103721819D02*
X203493713Y-104198009D01*
X203493713Y-104198009D02*
X203446094Y-104150390D01*
X203446094Y-104150390D02*
X203350856Y-104102771D01*
X203350856Y-104102771D02*
X203112761Y-104102771D01*
X203112761Y-104102771D02*
X203017523Y-104150390D01*
X203017523Y-104150390D02*
X202969904Y-104198009D01*
X202969904Y-104198009D02*
X202922285Y-104293247D01*
X202922285Y-104293247D02*
X202922285Y-104531342D01*
X202922285Y-104531342D02*
X202969904Y-104626580D01*
X202969904Y-104626580D02*
X203017523Y-104674200D01*
X203017523Y-104674200D02*
X203112761Y-104721819D01*
X203112761Y-104721819D02*
X203350856Y-104721819D01*
X203350856Y-104721819D02*
X203446094Y-104674200D01*
X203446094Y-104674200D02*
X203493713Y-104626580D01*
X235471357Y-88370580D02*
X235518976Y-88418200D01*
X235518976Y-88418200D02*
X235661833Y-88465819D01*
X235661833Y-88465819D02*
X235757071Y-88465819D01*
X235757071Y-88465819D02*
X235899928Y-88418200D01*
X235899928Y-88418200D02*
X235995166Y-88322961D01*
X235995166Y-88322961D02*
X236042785Y-88227723D01*
X236042785Y-88227723D02*
X236090404Y-88037247D01*
X236090404Y-88037247D02*
X236090404Y-87894390D01*
X236090404Y-87894390D02*
X236042785Y-87703914D01*
X236042785Y-87703914D02*
X235995166Y-87608676D01*
X235995166Y-87608676D02*
X235899928Y-87513438D01*
X235899928Y-87513438D02*
X235757071Y-87465819D01*
X235757071Y-87465819D02*
X235661833Y-87465819D01*
X235661833Y-87465819D02*
X235518976Y-87513438D01*
X235518976Y-87513438D02*
X235471357Y-87561057D01*
X235090404Y-87561057D02*
X235042785Y-87513438D01*
X235042785Y-87513438D02*
X234947547Y-87465819D01*
X234947547Y-87465819D02*
X234709452Y-87465819D01*
X234709452Y-87465819D02*
X234614214Y-87513438D01*
X234614214Y-87513438D02*
X234566595Y-87561057D01*
X234566595Y-87561057D02*
X234518976Y-87656295D01*
X234518976Y-87656295D02*
X234518976Y-87751533D01*
X234518976Y-87751533D02*
X234566595Y-87894390D01*
X234566595Y-87894390D02*
X235138023Y-88465819D01*
X235138023Y-88465819D02*
X234518976Y-88465819D01*
X234138023Y-87561057D02*
X234090404Y-87513438D01*
X234090404Y-87513438D02*
X233995166Y-87465819D01*
X233995166Y-87465819D02*
X233757071Y-87465819D01*
X233757071Y-87465819D02*
X233661833Y-87513438D01*
X233661833Y-87513438D02*
X233614214Y-87561057D01*
X233614214Y-87561057D02*
X233566595Y-87656295D01*
X233566595Y-87656295D02*
X233566595Y-87751533D01*
X233566595Y-87751533D02*
X233614214Y-87894390D01*
X233614214Y-87894390D02*
X234185642Y-88465819D01*
X234185642Y-88465819D02*
X233566595Y-88465819D01*
X243085857Y-96593819D02*
X243419190Y-96117628D01*
X243657285Y-96593819D02*
X243657285Y-95593819D01*
X243657285Y-95593819D02*
X243276333Y-95593819D01*
X243276333Y-95593819D02*
X243181095Y-95641438D01*
X243181095Y-95641438D02*
X243133476Y-95689057D01*
X243133476Y-95689057D02*
X243085857Y-95784295D01*
X243085857Y-95784295D02*
X243085857Y-95927152D01*
X243085857Y-95927152D02*
X243133476Y-96022390D01*
X243133476Y-96022390D02*
X243181095Y-96070009D01*
X243181095Y-96070009D02*
X243276333Y-96117628D01*
X243276333Y-96117628D02*
X243657285Y-96117628D01*
X242752523Y-95593819D02*
X242133476Y-95593819D01*
X242133476Y-95593819D02*
X242466809Y-95974771D01*
X242466809Y-95974771D02*
X242323952Y-95974771D01*
X242323952Y-95974771D02*
X242228714Y-96022390D01*
X242228714Y-96022390D02*
X242181095Y-96070009D01*
X242181095Y-96070009D02*
X242133476Y-96165247D01*
X242133476Y-96165247D02*
X242133476Y-96403342D01*
X242133476Y-96403342D02*
X242181095Y-96498580D01*
X242181095Y-96498580D02*
X242228714Y-96546200D01*
X242228714Y-96546200D02*
X242323952Y-96593819D01*
X242323952Y-96593819D02*
X242609666Y-96593819D01*
X242609666Y-96593819D02*
X242704904Y-96546200D01*
X242704904Y-96546200D02*
X242752523Y-96498580D01*
X241228714Y-95593819D02*
X241704904Y-95593819D01*
X241704904Y-95593819D02*
X241752523Y-96070009D01*
X241752523Y-96070009D02*
X241704904Y-96022390D01*
X241704904Y-96022390D02*
X241609666Y-95974771D01*
X241609666Y-95974771D02*
X241371571Y-95974771D01*
X241371571Y-95974771D02*
X241276333Y-96022390D01*
X241276333Y-96022390D02*
X241228714Y-96070009D01*
X241228714Y-96070009D02*
X241181095Y-96165247D01*
X241181095Y-96165247D02*
X241181095Y-96403342D01*
X241181095Y-96403342D02*
X241228714Y-96498580D01*
X241228714Y-96498580D02*
X241276333Y-96546200D01*
X241276333Y-96546200D02*
X241371571Y-96593819D01*
X241371571Y-96593819D02*
X241609666Y-96593819D01*
X241609666Y-96593819D02*
X241704904Y-96546200D01*
X241704904Y-96546200D02*
X241752523Y-96498580D01*
X237751857Y-126089580D02*
X237799476Y-126137200D01*
X237799476Y-126137200D02*
X237942333Y-126184819D01*
X237942333Y-126184819D02*
X238037571Y-126184819D01*
X238037571Y-126184819D02*
X238180428Y-126137200D01*
X238180428Y-126137200D02*
X238275666Y-126041961D01*
X238275666Y-126041961D02*
X238323285Y-125946723D01*
X238323285Y-125946723D02*
X238370904Y-125756247D01*
X238370904Y-125756247D02*
X238370904Y-125613390D01*
X238370904Y-125613390D02*
X238323285Y-125422914D01*
X238323285Y-125422914D02*
X238275666Y-125327676D01*
X238275666Y-125327676D02*
X238180428Y-125232438D01*
X238180428Y-125232438D02*
X238037571Y-125184819D01*
X238037571Y-125184819D02*
X237942333Y-125184819D01*
X237942333Y-125184819D02*
X237799476Y-125232438D01*
X237799476Y-125232438D02*
X237751857Y-125280057D01*
X236799476Y-126184819D02*
X237370904Y-126184819D01*
X237085190Y-126184819D02*
X237085190Y-125184819D01*
X237085190Y-125184819D02*
X237180428Y-125327676D01*
X237180428Y-125327676D02*
X237275666Y-125422914D01*
X237275666Y-125422914D02*
X237370904Y-125470533D01*
X236466142Y-125184819D02*
X235799476Y-125184819D01*
X235799476Y-125184819D02*
X236228047Y-126184819D01*
X237870904Y-118199819D02*
X237870904Y-119009342D01*
X237870904Y-119009342D02*
X237823285Y-119104580D01*
X237823285Y-119104580D02*
X237775666Y-119152200D01*
X237775666Y-119152200D02*
X237680428Y-119199819D01*
X237680428Y-119199819D02*
X237489952Y-119199819D01*
X237489952Y-119199819D02*
X237394714Y-119152200D01*
X237394714Y-119152200D02*
X237347095Y-119104580D01*
X237347095Y-119104580D02*
X237299476Y-119009342D01*
X237299476Y-119009342D02*
X237299476Y-118199819D01*
X236394714Y-118199819D02*
X236585190Y-118199819D01*
X236585190Y-118199819D02*
X236680428Y-118247438D01*
X236680428Y-118247438D02*
X236728047Y-118295057D01*
X236728047Y-118295057D02*
X236823285Y-118437914D01*
X236823285Y-118437914D02*
X236870904Y-118628390D01*
X236870904Y-118628390D02*
X236870904Y-119009342D01*
X236870904Y-119009342D02*
X236823285Y-119104580D01*
X236823285Y-119104580D02*
X236775666Y-119152200D01*
X236775666Y-119152200D02*
X236680428Y-119199819D01*
X236680428Y-119199819D02*
X236489952Y-119199819D01*
X236489952Y-119199819D02*
X236394714Y-119152200D01*
X236394714Y-119152200D02*
X236347095Y-119104580D01*
X236347095Y-119104580D02*
X236299476Y-119009342D01*
X236299476Y-119009342D02*
X236299476Y-118771247D01*
X236299476Y-118771247D02*
X236347095Y-118676009D01*
X236347095Y-118676009D02*
X236394714Y-118628390D01*
X236394714Y-118628390D02*
X236489952Y-118580771D01*
X236489952Y-118580771D02*
X236680428Y-118580771D01*
X236680428Y-118580771D02*
X236775666Y-118628390D01*
X236775666Y-118628390D02*
X236823285Y-118676009D01*
X236823285Y-118676009D02*
X236870904Y-118771247D01*
X215304666Y-117929819D02*
X215637999Y-117453628D01*
X215876094Y-117929819D02*
X215876094Y-116929819D01*
X215876094Y-116929819D02*
X215495142Y-116929819D01*
X215495142Y-116929819D02*
X215399904Y-116977438D01*
X215399904Y-116977438D02*
X215352285Y-117025057D01*
X215352285Y-117025057D02*
X215304666Y-117120295D01*
X215304666Y-117120295D02*
X215304666Y-117263152D01*
X215304666Y-117263152D02*
X215352285Y-117358390D01*
X215352285Y-117358390D02*
X215399904Y-117406009D01*
X215399904Y-117406009D02*
X215495142Y-117453628D01*
X215495142Y-117453628D02*
X215876094Y-117453628D01*
X214733237Y-117358390D02*
X214828475Y-117310771D01*
X214828475Y-117310771D02*
X214876094Y-117263152D01*
X214876094Y-117263152D02*
X214923713Y-117167914D01*
X214923713Y-117167914D02*
X214923713Y-117120295D01*
X214923713Y-117120295D02*
X214876094Y-117025057D01*
X214876094Y-117025057D02*
X214828475Y-116977438D01*
X214828475Y-116977438D02*
X214733237Y-116929819D01*
X214733237Y-116929819D02*
X214542761Y-116929819D01*
X214542761Y-116929819D02*
X214447523Y-116977438D01*
X214447523Y-116977438D02*
X214399904Y-117025057D01*
X214399904Y-117025057D02*
X214352285Y-117120295D01*
X214352285Y-117120295D02*
X214352285Y-117167914D01*
X214352285Y-117167914D02*
X214399904Y-117263152D01*
X214399904Y-117263152D02*
X214447523Y-117310771D01*
X214447523Y-117310771D02*
X214542761Y-117358390D01*
X214542761Y-117358390D02*
X214733237Y-117358390D01*
X214733237Y-117358390D02*
X214828475Y-117406009D01*
X214828475Y-117406009D02*
X214876094Y-117453628D01*
X214876094Y-117453628D02*
X214923713Y-117548866D01*
X214923713Y-117548866D02*
X214923713Y-117739342D01*
X214923713Y-117739342D02*
X214876094Y-117834580D01*
X214876094Y-117834580D02*
X214828475Y-117882200D01*
X214828475Y-117882200D02*
X214733237Y-117929819D01*
X214733237Y-117929819D02*
X214542761Y-117929819D01*
X214542761Y-117929819D02*
X214447523Y-117882200D01*
X214447523Y-117882200D02*
X214399904Y-117834580D01*
X214399904Y-117834580D02*
X214352285Y-117739342D01*
X214352285Y-117739342D02*
X214352285Y-117548866D01*
X214352285Y-117548866D02*
X214399904Y-117453628D01*
X214399904Y-117453628D02*
X214447523Y-117406009D01*
X214447523Y-117406009D02*
X214542761Y-117358390D01*
D12*
%TO.C,R32*%
X235182564Y-95404000D02*
X234728436Y-95404000D01*
X235182564Y-96874000D02*
X234728436Y-96874000D01*
%TO.C,R19*%
X234447436Y-112962000D02*
X234901564Y-112962000D01*
X234447436Y-114432000D02*
X234901564Y-114432000D01*
%TO.C,C15*%
X240418252Y-114708000D02*
X239895748Y-114708000D01*
X240418252Y-116178000D02*
X239895748Y-116178000D01*
%TO.C,C16*%
X199890748Y-113184000D02*
X200413252Y-113184000D01*
X199890748Y-114654000D02*
X200413252Y-114654000D01*
%TO.C,C3*%
X225833000Y-107195252D02*
X225833000Y-106672748D01*
X227303000Y-107195252D02*
X227303000Y-106672748D01*
%TO.C,R23*%
X199924936Y-109628000D02*
X200379064Y-109628000D01*
X199924936Y-111098000D02*
X200379064Y-111098000D01*
%TO.C,C24*%
X238879748Y-92864000D02*
X239402252Y-92864000D01*
X238879748Y-94334000D02*
X239402252Y-94334000D01*
%TO.C,U8*%
X234023000Y-91404000D02*
X234823000Y-91404000D01*
X234023000Y-94524000D02*
X234823000Y-94524000D01*
X235623000Y-91404000D02*
X234823000Y-91404000D01*
X235623000Y-94524000D02*
X234823000Y-94524000D01*
X236123000Y-91454000D02*
X235883000Y-91124000D01*
X236363000Y-91124000D01*
X236123000Y-91454000D01*
G36*
X236123000Y-91454000D02*
G01*
X235883000Y-91124000D01*
X236363000Y-91124000D01*
X236123000Y-91454000D01*
G37*
%TO.C,U5*%
X195029500Y-111978000D02*
X195829500Y-111978000D01*
X195029500Y-115098000D02*
X195829500Y-115098000D01*
X196629500Y-111978000D02*
X195829500Y-111978000D01*
X196629500Y-115098000D02*
X195829500Y-115098000D01*
X197129500Y-112028000D02*
X196889500Y-111698000D01*
X197369500Y-111698000D01*
X197129500Y-112028000D01*
G36*
X197129500Y-112028000D02*
G01*
X196889500Y-111698000D01*
X197369500Y-111698000D01*
X197129500Y-112028000D01*
G37*
%TO.C,R9*%
X220826064Y-114962000D02*
X220371936Y-114962000D01*
X220826064Y-116432000D02*
X220371936Y-116432000D01*
%TO.C,R6*%
X217832000Y-96958564D02*
X217832000Y-96504436D01*
X219302000Y-96958564D02*
X219302000Y-96504436D01*
%TO.C,C14*%
X195968252Y-109628000D02*
X195445748Y-109628000D01*
X195968252Y-111098000D02*
X195445748Y-111098000D01*
%TO.C,R3*%
X224309000Y-96890064D02*
X224309000Y-96435936D01*
X225779000Y-96890064D02*
X225779000Y-96435936D01*
%TO.C,R7*%
X217832000Y-100737936D02*
X217832000Y-101192064D01*
X219302000Y-100737936D02*
X219302000Y-101192064D01*
D13*
%TO.C,C25*%
X196888100Y-118389400D02*
X196888100Y-126136400D01*
X196888100Y-126136400D02*
X197685660Y-126136400D01*
X197685660Y-118389400D02*
X196888100Y-118389400D01*
X200840340Y-126136400D02*
X201637900Y-126136400D01*
X201637900Y-118389400D02*
X200840340Y-118389400D01*
X201637900Y-126136400D02*
X201637900Y-118389400D01*
X199339200Y-117812900D02*
G75*
G02*
X199186800Y-117812900I-76200J0D01*
G01*
X199186800Y-117812900D02*
G75*
G02*
X199339200Y-117812900I76200J0D01*
G01*
D12*
%TO.C,R10*%
X226287064Y-114962000D02*
X225832936Y-114962000D01*
X226287064Y-116432000D02*
X225832936Y-116432000D01*
%TO.C,R11*%
X196061064Y-115978000D02*
X195606936Y-115978000D01*
X196061064Y-117448000D02*
X195606936Y-117448000D01*
%TO.C,R24*%
X240056936Y-127154000D02*
X240511064Y-127154000D01*
X240056936Y-128624000D02*
X240511064Y-128624000D01*
%TO.C,R4*%
X224309000Y-100700436D02*
X224309000Y-101154564D01*
X225779000Y-100700436D02*
X225779000Y-101154564D01*
%TO.C,R31*%
X235182564Y-97817000D02*
X234728436Y-97817000D01*
X235182564Y-99287000D02*
X234728436Y-99287000D01*
D14*
%TO.C,G\u002A\u002A\u002A*%
X240046331Y-82394073D02*
X240037973Y-82482272D01*
X240030162Y-82565350D01*
X240022989Y-82642336D01*
X240016541Y-82712261D01*
X240010907Y-82774155D01*
X240006175Y-82827047D01*
X240002433Y-82869966D01*
X239999770Y-82901944D01*
X239998275Y-82922009D01*
X239998036Y-82929192D01*
X240002055Y-82926444D01*
X240015634Y-82915309D01*
X240037898Y-82896390D01*
X240067922Y-82870492D01*
X240104782Y-82838418D01*
X240147554Y-82800973D01*
X240195313Y-82758962D01*
X240247136Y-82713191D01*
X240302099Y-82664462D01*
X240348029Y-82623726D01*
X240400622Y-82577228D01*
X240449380Y-82534283D01*
X240493366Y-82495706D01*
X240531645Y-82462313D01*
X240563280Y-82434921D01*
X240587336Y-82414345D01*
X240602878Y-82401401D01*
X240608968Y-82396905D01*
X240610933Y-82398291D01*
X240614114Y-82403510D01*
X240618870Y-82413722D01*
X240625653Y-82430082D01*
X240634915Y-82453748D01*
X240647108Y-82485874D01*
X240662684Y-82527618D01*
X240682096Y-82580136D01*
X240705794Y-82644583D01*
X240726467Y-82700892D01*
X240667167Y-82769302D01*
X240660731Y-82776745D01*
X240591053Y-82859442D01*
X240517696Y-82950070D01*
X240441647Y-83047213D01*
X240363894Y-83149454D01*
X240285426Y-83255379D01*
X240207231Y-83363572D01*
X240130296Y-83472616D01*
X240055609Y-83581097D01*
X239984159Y-83687597D01*
X239916934Y-83790702D01*
X239854921Y-83888995D01*
X239799109Y-83981061D01*
X239750485Y-84065484D01*
X239710037Y-84140849D01*
X239702763Y-84154659D01*
X239690334Y-84176340D01*
X239680719Y-84190639D01*
X239675554Y-84194989D01*
X239671643Y-84190356D01*
X239661568Y-84175856D01*
X239647356Y-84154104D01*
X239630731Y-84127689D01*
X239569670Y-84023714D01*
X239507391Y-83904822D01*
X239449478Y-83779539D01*
X239395557Y-83646803D01*
X239345253Y-83505556D01*
X239298190Y-83354738D01*
X239253993Y-83193290D01*
X239212287Y-83020152D01*
X239172696Y-82834266D01*
X239136871Y-82655764D01*
X239117154Y-82761197D01*
X239095381Y-82871766D01*
X239067395Y-83000948D01*
X239036955Y-83129606D01*
X239004889Y-83254397D01*
X238972025Y-83371980D01*
X238939192Y-83479014D01*
X238920984Y-83533383D01*
X238884075Y-83634387D01*
X238843298Y-83735821D01*
X238799743Y-83835337D01*
X238754500Y-83930587D01*
X238708661Y-84019222D01*
X238663316Y-84098895D01*
X238619555Y-84167258D01*
X238596599Y-84200623D01*
X238558808Y-84129437D01*
X238525144Y-84067807D01*
X238469413Y-83971410D01*
X238406164Y-83867499D01*
X238336524Y-83757683D01*
X238261618Y-83643573D01*
X238182571Y-83526779D01*
X238100510Y-83408911D01*
X238016560Y-83291578D01*
X237931847Y-83176391D01*
X237847496Y-83064960D01*
X237764633Y-82958895D01*
X237684384Y-82859806D01*
X237607874Y-82769302D01*
X237548573Y-82700892D01*
X237569247Y-82644583D01*
X237591889Y-82583004D01*
X237611497Y-82529939D01*
X237627249Y-82487702D01*
X237639599Y-82455138D01*
X237648999Y-82431089D01*
X237655901Y-82414398D01*
X237660758Y-82403908D01*
X237664022Y-82398463D01*
X237666147Y-82396905D01*
X237670518Y-82400018D01*
X237684525Y-82411587D01*
X237707203Y-82430931D01*
X237737615Y-82457233D01*
X237774826Y-82489676D01*
X237817900Y-82527445D01*
X237865900Y-82569723D01*
X237917892Y-82615694D01*
X237972939Y-82664540D01*
X238019255Y-82705646D01*
X238071624Y-82751959D01*
X238120082Y-82794636D01*
X238163704Y-82832873D01*
X238201566Y-82865863D01*
X238232743Y-82892803D01*
X238256312Y-82912887D01*
X238271348Y-82925311D01*
X238276927Y-82929269D01*
X238276980Y-82929010D01*
X238276538Y-82919619D01*
X238274854Y-82897507D01*
X238272017Y-82863643D01*
X238268115Y-82818998D01*
X238263236Y-82764541D01*
X238257468Y-82701244D01*
X238250901Y-82630077D01*
X238243621Y-82552010D01*
X238235718Y-82468014D01*
X238227760Y-82384124D01*
X238884708Y-82384124D01*
X238890096Y-82382124D01*
X238902738Y-82372419D01*
X238920548Y-82356553D01*
X238970519Y-82317563D01*
X239028128Y-82288343D01*
X239088927Y-82272010D01*
X239151539Y-82268774D01*
X239214588Y-82278844D01*
X239276698Y-82302429D01*
X239304582Y-82318308D01*
X239335172Y-82339313D01*
X239359790Y-82359806D01*
X239361832Y-82361764D01*
X239377612Y-82375970D01*
X239387837Y-82383501D01*
X239390380Y-82382759D01*
X239387817Y-82374879D01*
X239381456Y-82354811D01*
X239371689Y-82323795D01*
X239358888Y-82283021D01*
X239343427Y-82233677D01*
X239325676Y-82176951D01*
X239306009Y-82114032D01*
X239284799Y-82046109D01*
X239262417Y-81974370D01*
X239240193Y-81903196D01*
X239219159Y-81836005D01*
X239199726Y-81774100D01*
X239182255Y-81718624D01*
X239167109Y-81670722D01*
X239154648Y-81631536D01*
X239145235Y-81602210D01*
X239139230Y-81583888D01*
X239136996Y-81577712D01*
X239134869Y-81584103D01*
X239128954Y-81602658D01*
X239119620Y-81632219D01*
X239107229Y-81671628D01*
X239092143Y-81719728D01*
X239074727Y-81775361D01*
X239055342Y-81837371D01*
X239034353Y-81904600D01*
X239012120Y-81975891D01*
X238990860Y-82044085D01*
X238969643Y-82112097D01*
X238949956Y-82175164D01*
X238932170Y-82232096D01*
X238916659Y-82281698D01*
X238903796Y-82322781D01*
X238893953Y-82354151D01*
X238887503Y-82374617D01*
X238884819Y-82382987D01*
X238884708Y-82384124D01*
X238227760Y-82384124D01*
X238227279Y-82379058D01*
X238218394Y-82286113D01*
X238216920Y-82270747D01*
X238208120Y-82178345D01*
X238199810Y-82090064D01*
X238192076Y-82006876D01*
X238185005Y-81929755D01*
X238178682Y-81859673D01*
X238173195Y-81797605D01*
X238168629Y-81744522D01*
X238165070Y-81701399D01*
X238162605Y-81669208D01*
X238161320Y-81648923D01*
X238161300Y-81641517D01*
X238161349Y-81641482D01*
X238168957Y-81643382D01*
X238187801Y-81650293D01*
X238216443Y-81661625D01*
X238253445Y-81676790D01*
X238297367Y-81695198D01*
X238346771Y-81716260D01*
X238400217Y-81739385D01*
X238457120Y-81764076D01*
X238510449Y-81786916D01*
X238553038Y-81804728D01*
X238585910Y-81817909D01*
X238610087Y-81826851D01*
X238626590Y-81831950D01*
X238636443Y-81833601D01*
X238640666Y-81832197D01*
X238643661Y-81826958D01*
X238653020Y-81810270D01*
X238668127Y-81783205D01*
X238688431Y-81746755D01*
X238713381Y-81701908D01*
X238742426Y-81649656D01*
X238775017Y-81590988D01*
X238810602Y-81526895D01*
X238848631Y-81458367D01*
X238888553Y-81386394D01*
X238921824Y-81326517D01*
X238960187Y-81257778D01*
X238996235Y-81193515D01*
X239029417Y-81134690D01*
X239059183Y-81082269D01*
X239084983Y-81037215D01*
X239106267Y-81000494D01*
X239122484Y-80973069D01*
X239133086Y-80955905D01*
X239137520Y-80949967D01*
X239141415Y-80955091D01*
X239151582Y-80971489D01*
X239167413Y-80998238D01*
X239188362Y-81034382D01*
X239213887Y-81078967D01*
X239243442Y-81131036D01*
X239276484Y-81189636D01*
X239312468Y-81253811D01*
X239350851Y-81322606D01*
X239391089Y-81395066D01*
X239428622Y-81462763D01*
X239466960Y-81531804D01*
X239502833Y-81596293D01*
X239535707Y-81655279D01*
X239565048Y-81707806D01*
X239590323Y-81752922D01*
X239610998Y-81789672D01*
X239626540Y-81817103D01*
X239636415Y-81834261D01*
X239640091Y-81840192D01*
X239640105Y-81840191D01*
X239647051Y-81837405D01*
X239665295Y-81829683D01*
X239693404Y-81817642D01*
X239729947Y-81801899D01*
X239773494Y-81783069D01*
X239822614Y-81761770D01*
X239875875Y-81738618D01*
X239876976Y-81738139D01*
X239930225Y-81715139D01*
X239979401Y-81694218D01*
X240023062Y-81675966D01*
X240059764Y-81660974D01*
X240088062Y-81649832D01*
X240106514Y-81643128D01*
X240113677Y-81641454D01*
X240113765Y-81641742D01*
X240113543Y-81651320D01*
X240112069Y-81673617D01*
X240109428Y-81707661D01*
X240105707Y-81752479D01*
X240100992Y-81807098D01*
X240095369Y-81870543D01*
X240088924Y-81941843D01*
X240081743Y-82020023D01*
X240073912Y-82104110D01*
X240065518Y-82193131D01*
X240056647Y-82286113D01*
X240055150Y-82301724D01*
X240047411Y-82382759D01*
X240046331Y-82394073D01*
G36*
X240046331Y-82394073D02*
G01*
X240037973Y-82482272D01*
X240030162Y-82565350D01*
X240022989Y-82642336D01*
X240016541Y-82712261D01*
X240010907Y-82774155D01*
X240006175Y-82827047D01*
X240002433Y-82869966D01*
X239999770Y-82901944D01*
X239998275Y-82922009D01*
X239998036Y-82929192D01*
X240002055Y-82926444D01*
X240015634Y-82915309D01*
X240037898Y-82896390D01*
X240067922Y-82870492D01*
X240104782Y-82838418D01*
X240147554Y-82800973D01*
X240195313Y-82758962D01*
X240247136Y-82713191D01*
X240302099Y-82664462D01*
X240348029Y-82623726D01*
X240400622Y-82577228D01*
X240449380Y-82534283D01*
X240493366Y-82495706D01*
X240531645Y-82462313D01*
X240563280Y-82434921D01*
X240587336Y-82414345D01*
X240602878Y-82401401D01*
X240608968Y-82396905D01*
X240610933Y-82398291D01*
X240614114Y-82403510D01*
X240618870Y-82413722D01*
X240625653Y-82430082D01*
X240634915Y-82453748D01*
X240647108Y-82485874D01*
X240662684Y-82527618D01*
X240682096Y-82580136D01*
X240705794Y-82644583D01*
X240726467Y-82700892D01*
X240667167Y-82769302D01*
X240660731Y-82776745D01*
X240591053Y-82859442D01*
X240517696Y-82950070D01*
X240441647Y-83047213D01*
X240363894Y-83149454D01*
X240285426Y-83255379D01*
X240207231Y-83363572D01*
X240130296Y-83472616D01*
X240055609Y-83581097D01*
X239984159Y-83687597D01*
X239916934Y-83790702D01*
X239854921Y-83888995D01*
X239799109Y-83981061D01*
X239750485Y-84065484D01*
X239710037Y-84140849D01*
X239702763Y-84154659D01*
X239690334Y-84176340D01*
X239680719Y-84190639D01*
X239675554Y-84194989D01*
X239671643Y-84190356D01*
X239661568Y-84175856D01*
X239647356Y-84154104D01*
X239630731Y-84127689D01*
X239569670Y-84023714D01*
X239507391Y-83904822D01*
X239449478Y-83779539D01*
X239395557Y-83646803D01*
X239345253Y-83505556D01*
X239298190Y-83354738D01*
X239253993Y-83193290D01*
X239212287Y-83020152D01*
X239172696Y-82834266D01*
X239136871Y-82655764D01*
X239117154Y-82761197D01*
X239095381Y-82871766D01*
X239067395Y-83000948D01*
X239036955Y-83129606D01*
X239004889Y-83254397D01*
X238972025Y-83371980D01*
X238939192Y-83479014D01*
X238920984Y-83533383D01*
X238884075Y-83634387D01*
X238843298Y-83735821D01*
X238799743Y-83835337D01*
X238754500Y-83930587D01*
X238708661Y-84019222D01*
X238663316Y-84098895D01*
X238619555Y-84167258D01*
X238596599Y-84200623D01*
X238558808Y-84129437D01*
X238525144Y-84067807D01*
X238469413Y-83971410D01*
X238406164Y-83867499D01*
X238336524Y-83757683D01*
X238261618Y-83643573D01*
X238182571Y-83526779D01*
X238100510Y-83408911D01*
X238016560Y-83291578D01*
X237931847Y-83176391D01*
X237847496Y-83064960D01*
X237764633Y-82958895D01*
X237684384Y-82859806D01*
X237607874Y-82769302D01*
X237548573Y-82700892D01*
X237569247Y-82644583D01*
X237591889Y-82583004D01*
X237611497Y-82529939D01*
X237627249Y-82487702D01*
X237639599Y-82455138D01*
X237648999Y-82431089D01*
X237655901Y-82414398D01*
X237660758Y-82403908D01*
X237664022Y-82398463D01*
X237666147Y-82396905D01*
X237670518Y-82400018D01*
X237684525Y-82411587D01*
X237707203Y-82430931D01*
X237737615Y-82457233D01*
X237774826Y-82489676D01*
X237817900Y-82527445D01*
X237865900Y-82569723D01*
X237917892Y-82615694D01*
X237972939Y-82664540D01*
X238019255Y-82705646D01*
X238071624Y-82751959D01*
X238120082Y-82794636D01*
X238163704Y-82832873D01*
X238201566Y-82865863D01*
X238232743Y-82892803D01*
X238256312Y-82912887D01*
X238271348Y-82925311D01*
X238276927Y-82929269D01*
X238276980Y-82929010D01*
X238276538Y-82919619D01*
X238274854Y-82897507D01*
X238272017Y-82863643D01*
X238268115Y-82818998D01*
X238263236Y-82764541D01*
X238257468Y-82701244D01*
X238250901Y-82630077D01*
X238243621Y-82552010D01*
X238235718Y-82468014D01*
X238227760Y-82384124D01*
X238884708Y-82384124D01*
X238890096Y-82382124D01*
X238902738Y-82372419D01*
X238920548Y-82356553D01*
X238970519Y-82317563D01*
X239028128Y-82288343D01*
X239088927Y-82272010D01*
X239151539Y-82268774D01*
X239214588Y-82278844D01*
X239276698Y-82302429D01*
X239304582Y-82318308D01*
X239335172Y-82339313D01*
X239359790Y-82359806D01*
X239361832Y-82361764D01*
X239377612Y-82375970D01*
X239387837Y-82383501D01*
X239390380Y-82382759D01*
X239387817Y-82374879D01*
X239381456Y-82354811D01*
X239371689Y-82323795D01*
X239358888Y-82283021D01*
X239343427Y-82233677D01*
X239325676Y-82176951D01*
X239306009Y-82114032D01*
X239284799Y-82046109D01*
X239262417Y-81974370D01*
X239240193Y-81903196D01*
X239219159Y-81836005D01*
X239199726Y-81774100D01*
X239182255Y-81718624D01*
X239167109Y-81670722D01*
X239154648Y-81631536D01*
X239145235Y-81602210D01*
X239139230Y-81583888D01*
X239136996Y-81577712D01*
X239134869Y-81584103D01*
X239128954Y-81602658D01*
X239119620Y-81632219D01*
X239107229Y-81671628D01*
X239092143Y-81719728D01*
X239074727Y-81775361D01*
X239055342Y-81837371D01*
X239034353Y-81904600D01*
X239012120Y-81975891D01*
X238990860Y-82044085D01*
X238969643Y-82112097D01*
X238949956Y-82175164D01*
X238932170Y-82232096D01*
X238916659Y-82281698D01*
X238903796Y-82322781D01*
X238893953Y-82354151D01*
X238887503Y-82374617D01*
X238884819Y-82382987D01*
X238884708Y-82384124D01*
X238227760Y-82384124D01*
X238227279Y-82379058D01*
X238218394Y-82286113D01*
X238216920Y-82270747D01*
X238208120Y-82178345D01*
X238199810Y-82090064D01*
X238192076Y-82006876D01*
X238185005Y-81929755D01*
X238178682Y-81859673D01*
X238173195Y-81797605D01*
X238168629Y-81744522D01*
X238165070Y-81701399D01*
X238162605Y-81669208D01*
X238161320Y-81648923D01*
X238161300Y-81641517D01*
X238161349Y-81641482D01*
X238168957Y-81643382D01*
X238187801Y-81650293D01*
X238216443Y-81661625D01*
X238253445Y-81676790D01*
X238297367Y-81695198D01*
X238346771Y-81716260D01*
X238400217Y-81739385D01*
X238457120Y-81764076D01*
X238510449Y-81786916D01*
X238553038Y-81804728D01*
X238585910Y-81817909D01*
X238610087Y-81826851D01*
X238626590Y-81831950D01*
X238636443Y-81833601D01*
X238640666Y-81832197D01*
X238643661Y-81826958D01*
X238653020Y-81810270D01*
X238668127Y-81783205D01*
X238688431Y-81746755D01*
X238713381Y-81701908D01*
X238742426Y-81649656D01*
X238775017Y-81590988D01*
X238810602Y-81526895D01*
X238848631Y-81458367D01*
X238888553Y-81386394D01*
X238921824Y-81326517D01*
X238960187Y-81257778D01*
X238996235Y-81193515D01*
X239029417Y-81134690D01*
X239059183Y-81082269D01*
X239084983Y-81037215D01*
X239106267Y-81000494D01*
X239122484Y-80973069D01*
X239133086Y-80955905D01*
X239137520Y-80949967D01*
X239141415Y-80955091D01*
X239151582Y-80971489D01*
X239167413Y-80998238D01*
X239188362Y-81034382D01*
X239213887Y-81078967D01*
X239243442Y-81131036D01*
X239276484Y-81189636D01*
X239312468Y-81253811D01*
X239350851Y-81322606D01*
X239391089Y-81395066D01*
X239428622Y-81462763D01*
X239466960Y-81531804D01*
X239502833Y-81596293D01*
X239535707Y-81655279D01*
X239565048Y-81707806D01*
X239590323Y-81752922D01*
X239610998Y-81789672D01*
X239626540Y-81817103D01*
X239636415Y-81834261D01*
X239640091Y-81840192D01*
X239640105Y-81840191D01*
X239647051Y-81837405D01*
X239665295Y-81829683D01*
X239693404Y-81817642D01*
X239729947Y-81801899D01*
X239773494Y-81783069D01*
X239822614Y-81761770D01*
X239875875Y-81738618D01*
X239876976Y-81738139D01*
X239930225Y-81715139D01*
X239979401Y-81694218D01*
X240023062Y-81675966D01*
X240059764Y-81660974D01*
X240088062Y-81649832D01*
X240106514Y-81643128D01*
X240113677Y-81641454D01*
X240113765Y-81641742D01*
X240113543Y-81651320D01*
X240112069Y-81673617D01*
X240109428Y-81707661D01*
X240105707Y-81752479D01*
X240100992Y-81807098D01*
X240095369Y-81870543D01*
X240088924Y-81941843D01*
X240081743Y-82020023D01*
X240073912Y-82104110D01*
X240065518Y-82193131D01*
X240056647Y-82286113D01*
X240055150Y-82301724D01*
X240047411Y-82382759D01*
X240046331Y-82394073D01*
G37*
X241547332Y-82651044D02*
X241545685Y-82658682D01*
X241540960Y-82678324D01*
X241533509Y-82708588D01*
X241523681Y-82748094D01*
X241511827Y-82795463D01*
X241498295Y-82849314D01*
X241483438Y-82908267D01*
X241467604Y-82970941D01*
X241451143Y-83035957D01*
X241434407Y-83101934D01*
X241417744Y-83167492D01*
X241401505Y-83231250D01*
X241386041Y-83291829D01*
X241371701Y-83347849D01*
X241358835Y-83397928D01*
X241347793Y-83440687D01*
X241338926Y-83474746D01*
X241332584Y-83498724D01*
X241329116Y-83511241D01*
X241328990Y-83512548D01*
X241332503Y-83518582D01*
X241342943Y-83527578D01*
X241361387Y-83540243D01*
X241388911Y-83557284D01*
X241426592Y-83579406D01*
X241475506Y-83607317D01*
X241507532Y-83625549D01*
X241545568Y-83647550D01*
X241578005Y-83666707D01*
X241603203Y-83682037D01*
X241619524Y-83692556D01*
X241625328Y-83697280D01*
X241622050Y-83699926D01*
X241607997Y-83709751D01*
X241583529Y-83726346D01*
X241549359Y-83749244D01*
X241506197Y-83777972D01*
X241454754Y-83812064D01*
X241395741Y-83851047D01*
X241329870Y-83894454D01*
X241257852Y-83941814D01*
X241180398Y-83992658D01*
X241098219Y-84046516D01*
X241012025Y-84102918D01*
X240922529Y-84161395D01*
X240854808Y-84205648D01*
X240767719Y-84262660D01*
X240684470Y-84317276D01*
X240605771Y-84369025D01*
X240532335Y-84417433D01*
X240464873Y-84462028D01*
X240404097Y-84502340D01*
X240350717Y-84537894D01*
X240305447Y-84568220D01*
X240268996Y-84592844D01*
X240242077Y-84611295D01*
X240225401Y-84623101D01*
X240219680Y-84627790D01*
X240219865Y-84628887D01*
X240223074Y-84640658D01*
X240229930Y-84663788D01*
X240239982Y-84696814D01*
X240252779Y-84738273D01*
X240267871Y-84786704D01*
X240284807Y-84840644D01*
X240303137Y-84898631D01*
X240308833Y-84916605D01*
X240326777Y-84973412D01*
X240343194Y-85025658D01*
X240357636Y-85071894D01*
X240369652Y-85110669D01*
X240378792Y-85140534D01*
X240384606Y-85160038D01*
X240386644Y-85167732D01*
X240382843Y-85171419D01*
X240370244Y-85173507D01*
X240362976Y-85172888D01*
X240342573Y-85170712D01*
X240310262Y-85167085D01*
X240267065Y-85162126D01*
X240214003Y-85155956D01*
X240152098Y-85148694D01*
X240082372Y-85140460D01*
X240005846Y-85131374D01*
X239923541Y-85121557D01*
X239836479Y-85111127D01*
X239745682Y-85100206D01*
X239137520Y-85026904D01*
X238516635Y-85101562D01*
X238516017Y-85101637D01*
X238424614Y-85112571D01*
X238337177Y-85122924D01*
X238254691Y-85132584D01*
X238178139Y-85141441D01*
X238108509Y-85149385D01*
X238046783Y-85156305D01*
X237993948Y-85162090D01*
X237950988Y-85166631D01*
X237918889Y-85169817D01*
X237898634Y-85171537D01*
X237891210Y-85171681D01*
X237891115Y-85170494D01*
X237893572Y-85158726D01*
X237899721Y-85135649D01*
X237909142Y-85102691D01*
X237921412Y-85061284D01*
X237936109Y-85012858D01*
X237952813Y-84958842D01*
X237971101Y-84900667D01*
X237977579Y-84880200D01*
X237995570Y-84823123D01*
X238012013Y-84770609D01*
X238026463Y-84724109D01*
X238038473Y-84685073D01*
X238047595Y-84654948D01*
X238053383Y-84635185D01*
X238055391Y-84627233D01*
X238052119Y-84624436D01*
X238038070Y-84614414D01*
X238013602Y-84597629D01*
X237979428Y-84574551D01*
X237936259Y-84545654D01*
X237884806Y-84511407D01*
X237825782Y-84472282D01*
X237759897Y-84428752D01*
X237687864Y-84381288D01*
X237610395Y-84330360D01*
X237528200Y-84276441D01*
X237441991Y-84220002D01*
X237352481Y-84161515D01*
X237284648Y-84117210D01*
X237197577Y-84060264D01*
X237114347Y-84005746D01*
X237035668Y-83954125D01*
X236962251Y-83905870D01*
X236894808Y-83861452D01*
X236834050Y-83821340D01*
X236780688Y-83786004D01*
X236735433Y-83755913D01*
X236698997Y-83731538D01*
X236672091Y-83713347D01*
X236655425Y-83701811D01*
X236649712Y-83697400D01*
X236653179Y-83694294D01*
X236667214Y-83684997D01*
X236690506Y-83670666D01*
X236721416Y-83652285D01*
X236758305Y-83630840D01*
X236799535Y-83607317D01*
X236815071Y-83598511D01*
X236860587Y-83572366D01*
X236895185Y-83551804D01*
X236919941Y-83536116D01*
X236935932Y-83524598D01*
X236944235Y-83516541D01*
X236945924Y-83511241D01*
X236945765Y-83510708D01*
X236942080Y-83497312D01*
X236935546Y-83472557D01*
X236926512Y-83437823D01*
X236915328Y-83394491D01*
X236902345Y-83343940D01*
X236887913Y-83287551D01*
X236872381Y-83226704D01*
X236856101Y-83162779D01*
X236839421Y-83097155D01*
X236822693Y-83031214D01*
X236806267Y-82966334D01*
X236790491Y-82903897D01*
X236775718Y-82845282D01*
X236762296Y-82791869D01*
X236750576Y-82745039D01*
X236740908Y-82706171D01*
X236733643Y-82676646D01*
X236729129Y-82657843D01*
X236727718Y-82651143D01*
X236727729Y-82651137D01*
X236735015Y-82652198D01*
X236754591Y-82655708D01*
X236785122Y-82661412D01*
X236825276Y-82669055D01*
X236873719Y-82678382D01*
X236929116Y-82689137D01*
X236990134Y-82701064D01*
X237055439Y-82713908D01*
X237078205Y-82718407D01*
X237156102Y-82733955D01*
X237221376Y-82747271D01*
X237274876Y-82758547D01*
X237317448Y-82767977D01*
X237349943Y-82775752D01*
X237373209Y-82782066D01*
X237388094Y-82787111D01*
X237395447Y-82791079D01*
X237403198Y-82799114D01*
X237420300Y-82819504D01*
X237443322Y-82848854D01*
X237471155Y-82885639D01*
X237502688Y-82928339D01*
X237536812Y-82975430D01*
X237572415Y-83025389D01*
X237608389Y-83076694D01*
X237643622Y-83127822D01*
X237677005Y-83177251D01*
X237689325Y-83195772D01*
X237790278Y-83352296D01*
X237889328Y-83514171D01*
X237985317Y-83679251D01*
X238077088Y-83845390D01*
X238163482Y-84010442D01*
X238243341Y-84172261D01*
X238315508Y-84328701D01*
X238378822Y-84477617D01*
X238390903Y-84508206D01*
X238408127Y-84553849D01*
X238426124Y-84603443D01*
X238444076Y-84654567D01*
X238461162Y-84704799D01*
X238476560Y-84751717D01*
X238489451Y-84792900D01*
X238499014Y-84825926D01*
X238504429Y-84848372D01*
X238505390Y-84853069D01*
X238509871Y-84868181D01*
X238514117Y-84874274D01*
X238518972Y-84870872D01*
X238532008Y-84858309D01*
X238551555Y-84837948D01*
X238576234Y-84811329D01*
X238604661Y-84779989D01*
X238635455Y-84745468D01*
X238667233Y-84709306D01*
X238698616Y-84673040D01*
X238728219Y-84638211D01*
X238754663Y-84606357D01*
X238765463Y-84593070D01*
X238852290Y-84480225D01*
X238933753Y-84362810D01*
X239011911Y-84237716D01*
X239088822Y-84101836D01*
X239104295Y-84073556D01*
X239118157Y-84048848D01*
X239128474Y-84031146D01*
X239133741Y-84023088D01*
X239138272Y-84026579D01*
X239148380Y-84040505D01*
X239162834Y-84063166D01*
X239180487Y-84092757D01*
X239200188Y-84127471D01*
X239226646Y-84174615D01*
X239283732Y-84272035D01*
X239339583Y-84360812D01*
X239396320Y-84444123D01*
X239456069Y-84525140D01*
X239520951Y-84607040D01*
X239542136Y-84632628D01*
X239571149Y-84666889D01*
X239602218Y-84702897D01*
X239633958Y-84739108D01*
X239664984Y-84773981D01*
X239693912Y-84805973D01*
X239719354Y-84833541D01*
X239739928Y-84855142D01*
X239754246Y-84869234D01*
X239760923Y-84874274D01*
X239761880Y-84873845D01*
X239766353Y-84865015D01*
X239770611Y-84848372D01*
X239774324Y-84832346D01*
X239782970Y-84801629D01*
X239795140Y-84762176D01*
X239810013Y-84716409D01*
X239826770Y-84666749D01*
X239844589Y-84615618D01*
X239862650Y-84565438D01*
X239880134Y-84518630D01*
X239896218Y-84477617D01*
X239960016Y-84327546D01*
X240033487Y-84168352D01*
X240114798Y-84003847D01*
X240202801Y-83836163D01*
X240296346Y-83667429D01*
X240394281Y-83499776D01*
X240495458Y-83335334D01*
X240598727Y-83176234D01*
X240620585Y-83143745D01*
X240655356Y-83092969D01*
X240691233Y-83041524D01*
X240727104Y-82990937D01*
X240761856Y-82942732D01*
X240794376Y-82898433D01*
X240823553Y-82859566D01*
X240848274Y-82827656D01*
X240867426Y-82804227D01*
X240879898Y-82790804D01*
X240882367Y-82789085D01*
X240892526Y-82784729D01*
X240910022Y-82779330D01*
X240935761Y-82772683D01*
X240970652Y-82764580D01*
X241015604Y-82754815D01*
X241071525Y-82743182D01*
X241139323Y-82729474D01*
X241219906Y-82713484D01*
X241221024Y-82713263D01*
X241286238Y-82700455D01*
X241347141Y-82688572D01*
X241402401Y-82677871D01*
X241450681Y-82668605D01*
X241490648Y-82661030D01*
X241520967Y-82655400D01*
X241540303Y-82651970D01*
X241547323Y-82650994D01*
X241547332Y-82651044D01*
G36*
X241547332Y-82651044D02*
G01*
X241545685Y-82658682D01*
X241540960Y-82678324D01*
X241533509Y-82708588D01*
X241523681Y-82748094D01*
X241511827Y-82795463D01*
X241498295Y-82849314D01*
X241483438Y-82908267D01*
X241467604Y-82970941D01*
X241451143Y-83035957D01*
X241434407Y-83101934D01*
X241417744Y-83167492D01*
X241401505Y-83231250D01*
X241386041Y-83291829D01*
X241371701Y-83347849D01*
X241358835Y-83397928D01*
X241347793Y-83440687D01*
X241338926Y-83474746D01*
X241332584Y-83498724D01*
X241329116Y-83511241D01*
X241328990Y-83512548D01*
X241332503Y-83518582D01*
X241342943Y-83527578D01*
X241361387Y-83540243D01*
X241388911Y-83557284D01*
X241426592Y-83579406D01*
X241475506Y-83607317D01*
X241507532Y-83625549D01*
X241545568Y-83647550D01*
X241578005Y-83666707D01*
X241603203Y-83682037D01*
X241619524Y-83692556D01*
X241625328Y-83697280D01*
X241622050Y-83699926D01*
X241607997Y-83709751D01*
X241583529Y-83726346D01*
X241549359Y-83749244D01*
X241506197Y-83777972D01*
X241454754Y-83812064D01*
X241395741Y-83851047D01*
X241329870Y-83894454D01*
X241257852Y-83941814D01*
X241180398Y-83992658D01*
X241098219Y-84046516D01*
X241012025Y-84102918D01*
X240922529Y-84161395D01*
X240854808Y-84205648D01*
X240767719Y-84262660D01*
X240684470Y-84317276D01*
X240605771Y-84369025D01*
X240532335Y-84417433D01*
X240464873Y-84462028D01*
X240404097Y-84502340D01*
X240350717Y-84537894D01*
X240305447Y-84568220D01*
X240268996Y-84592844D01*
X240242077Y-84611295D01*
X240225401Y-84623101D01*
X240219680Y-84627790D01*
X240219865Y-84628887D01*
X240223074Y-84640658D01*
X240229930Y-84663788D01*
X240239982Y-84696814D01*
X240252779Y-84738273D01*
X240267871Y-84786704D01*
X240284807Y-84840644D01*
X240303137Y-84898631D01*
X240308833Y-84916605D01*
X240326777Y-84973412D01*
X240343194Y-85025658D01*
X240357636Y-85071894D01*
X240369652Y-85110669D01*
X240378792Y-85140534D01*
X240384606Y-85160038D01*
X240386644Y-85167732D01*
X240382843Y-85171419D01*
X240370244Y-85173507D01*
X240362976Y-85172888D01*
X240342573Y-85170712D01*
X240310262Y-85167085D01*
X240267065Y-85162126D01*
X240214003Y-85155956D01*
X240152098Y-85148694D01*
X240082372Y-85140460D01*
X240005846Y-85131374D01*
X239923541Y-85121557D01*
X239836479Y-85111127D01*
X239745682Y-85100206D01*
X239137520Y-85026904D01*
X238516635Y-85101562D01*
X238516017Y-85101637D01*
X238424614Y-85112571D01*
X238337177Y-85122924D01*
X238254691Y-85132584D01*
X238178139Y-85141441D01*
X238108509Y-85149385D01*
X238046783Y-85156305D01*
X237993948Y-85162090D01*
X237950988Y-85166631D01*
X237918889Y-85169817D01*
X237898634Y-85171537D01*
X237891210Y-85171681D01*
X237891115Y-85170494D01*
X237893572Y-85158726D01*
X237899721Y-85135649D01*
X237909142Y-85102691D01*
X237921412Y-85061284D01*
X237936109Y-85012858D01*
X237952813Y-84958842D01*
X237971101Y-84900667D01*
X237977579Y-84880200D01*
X237995570Y-84823123D01*
X238012013Y-84770609D01*
X238026463Y-84724109D01*
X238038473Y-84685073D01*
X238047595Y-84654948D01*
X238053383Y-84635185D01*
X238055391Y-84627233D01*
X238052119Y-84624436D01*
X238038070Y-84614414D01*
X238013602Y-84597629D01*
X237979428Y-84574551D01*
X237936259Y-84545654D01*
X237884806Y-84511407D01*
X237825782Y-84472282D01*
X237759897Y-84428752D01*
X237687864Y-84381288D01*
X237610395Y-84330360D01*
X237528200Y-84276441D01*
X237441991Y-84220002D01*
X237352481Y-84161515D01*
X237284648Y-84117210D01*
X237197577Y-84060264D01*
X237114347Y-84005746D01*
X237035668Y-83954125D01*
X236962251Y-83905870D01*
X236894808Y-83861452D01*
X236834050Y-83821340D01*
X236780688Y-83786004D01*
X236735433Y-83755913D01*
X236698997Y-83731538D01*
X236672091Y-83713347D01*
X236655425Y-83701811D01*
X236649712Y-83697400D01*
X236653179Y-83694294D01*
X236667214Y-83684997D01*
X236690506Y-83670666D01*
X236721416Y-83652285D01*
X236758305Y-83630840D01*
X236799535Y-83607317D01*
X236815071Y-83598511D01*
X236860587Y-83572366D01*
X236895185Y-83551804D01*
X236919941Y-83536116D01*
X236935932Y-83524598D01*
X236944235Y-83516541D01*
X236945924Y-83511241D01*
X236945765Y-83510708D01*
X236942080Y-83497312D01*
X236935546Y-83472557D01*
X236926512Y-83437823D01*
X236915328Y-83394491D01*
X236902345Y-83343940D01*
X236887913Y-83287551D01*
X236872381Y-83226704D01*
X236856101Y-83162779D01*
X236839421Y-83097155D01*
X236822693Y-83031214D01*
X236806267Y-82966334D01*
X236790491Y-82903897D01*
X236775718Y-82845282D01*
X236762296Y-82791869D01*
X236750576Y-82745039D01*
X236740908Y-82706171D01*
X236733643Y-82676646D01*
X236729129Y-82657843D01*
X236727718Y-82651143D01*
X236727729Y-82651137D01*
X236735015Y-82652198D01*
X236754591Y-82655708D01*
X236785122Y-82661412D01*
X236825276Y-82669055D01*
X236873719Y-82678382D01*
X236929116Y-82689137D01*
X236990134Y-82701064D01*
X237055439Y-82713908D01*
X237078205Y-82718407D01*
X237156102Y-82733955D01*
X237221376Y-82747271D01*
X237274876Y-82758547D01*
X237317448Y-82767977D01*
X237349943Y-82775752D01*
X237373209Y-82782066D01*
X237388094Y-82787111D01*
X237395447Y-82791079D01*
X237403198Y-82799114D01*
X237420300Y-82819504D01*
X237443322Y-82848854D01*
X237471155Y-82885639D01*
X237502688Y-82928339D01*
X237536812Y-82975430D01*
X237572415Y-83025389D01*
X237608389Y-83076694D01*
X237643622Y-83127822D01*
X237677005Y-83177251D01*
X237689325Y-83195772D01*
X237790278Y-83352296D01*
X237889328Y-83514171D01*
X237985317Y-83679251D01*
X238077088Y-83845390D01*
X238163482Y-84010442D01*
X238243341Y-84172261D01*
X238315508Y-84328701D01*
X238378822Y-84477617D01*
X238390903Y-84508206D01*
X238408127Y-84553849D01*
X238426124Y-84603443D01*
X238444076Y-84654567D01*
X238461162Y-84704799D01*
X238476560Y-84751717D01*
X238489451Y-84792900D01*
X238499014Y-84825926D01*
X238504429Y-84848372D01*
X238505390Y-84853069D01*
X238509871Y-84868181D01*
X238514117Y-84874274D01*
X238518972Y-84870872D01*
X238532008Y-84858309D01*
X238551555Y-84837948D01*
X238576234Y-84811329D01*
X238604661Y-84779989D01*
X238635455Y-84745468D01*
X238667233Y-84709306D01*
X238698616Y-84673040D01*
X238728219Y-84638211D01*
X238754663Y-84606357D01*
X238765463Y-84593070D01*
X238852290Y-84480225D01*
X238933753Y-84362810D01*
X239011911Y-84237716D01*
X239088822Y-84101836D01*
X239104295Y-84073556D01*
X239118157Y-84048848D01*
X239128474Y-84031146D01*
X239133741Y-84023088D01*
X239138272Y-84026579D01*
X239148380Y-84040505D01*
X239162834Y-84063166D01*
X239180487Y-84092757D01*
X239200188Y-84127471D01*
X239226646Y-84174615D01*
X239283732Y-84272035D01*
X239339583Y-84360812D01*
X239396320Y-84444123D01*
X239456069Y-84525140D01*
X239520951Y-84607040D01*
X239542136Y-84632628D01*
X239571149Y-84666889D01*
X239602218Y-84702897D01*
X239633958Y-84739108D01*
X239664984Y-84773981D01*
X239693912Y-84805973D01*
X239719354Y-84833541D01*
X239739928Y-84855142D01*
X239754246Y-84869234D01*
X239760923Y-84874274D01*
X239761880Y-84873845D01*
X239766353Y-84865015D01*
X239770611Y-84848372D01*
X239774324Y-84832346D01*
X239782970Y-84801629D01*
X239795140Y-84762176D01*
X239810013Y-84716409D01*
X239826770Y-84666749D01*
X239844589Y-84615618D01*
X239862650Y-84565438D01*
X239880134Y-84518630D01*
X239896218Y-84477617D01*
X239960016Y-84327546D01*
X240033487Y-84168352D01*
X240114798Y-84003847D01*
X240202801Y-83836163D01*
X240296346Y-83667429D01*
X240394281Y-83499776D01*
X240495458Y-83335334D01*
X240598727Y-83176234D01*
X240620585Y-83143745D01*
X240655356Y-83092969D01*
X240691233Y-83041524D01*
X240727104Y-82990937D01*
X240761856Y-82942732D01*
X240794376Y-82898433D01*
X240823553Y-82859566D01*
X240848274Y-82827656D01*
X240867426Y-82804227D01*
X240879898Y-82790804D01*
X240882367Y-82789085D01*
X240892526Y-82784729D01*
X240910022Y-82779330D01*
X240935761Y-82772683D01*
X240970652Y-82764580D01*
X241015604Y-82754815D01*
X241071525Y-82743182D01*
X241139323Y-82729474D01*
X241219906Y-82713484D01*
X241221024Y-82713263D01*
X241286238Y-82700455D01*
X241347141Y-82688572D01*
X241402401Y-82677871D01*
X241450681Y-82668605D01*
X241490648Y-82661030D01*
X241520967Y-82655400D01*
X241540303Y-82651970D01*
X241547323Y-82650994D01*
X241547332Y-82651044D01*
G37*
D12*
%TO.C,R20*%
X234447436Y-115912000D02*
X234901564Y-115912000D01*
X234447436Y-117382000D02*
X234901564Y-117382000D01*
%TO.C,D5*%
X202758000Y-99819000D02*
X202758000Y-103479000D01*
X202758000Y-103479000D02*
X204658000Y-103479000D01*
X204658000Y-99819000D02*
X204658000Y-103479000D01*
%TO.C,C22*%
X235089752Y-88927000D02*
X234567248Y-88927000D01*
X235089752Y-90397000D02*
X234567248Y-90397000D01*
%TO.C,R35*%
X238919436Y-95404000D02*
X239373564Y-95404000D01*
X238919436Y-96874000D02*
X239373564Y-96874000D01*
%TO.C,C17*%
X240149748Y-124995000D02*
X240672252Y-124995000D01*
X240149748Y-126465000D02*
X240672252Y-126465000D01*
%TO.C,U6*%
X239357000Y-117185000D02*
X240157000Y-117185000D01*
X239357000Y-120305000D02*
X240157000Y-120305000D01*
X240957000Y-117185000D02*
X240157000Y-117185000D01*
X240957000Y-120305000D02*
X240157000Y-120305000D01*
X241457000Y-117235000D02*
X241217000Y-116905000D01*
X241697000Y-116905000D01*
X241457000Y-117235000D01*
G36*
X241457000Y-117235000D02*
G01*
X241217000Y-116905000D01*
X241697000Y-116905000D01*
X241457000Y-117235000D01*
G37*
%TO.C,R8*%
X215365064Y-114962000D02*
X214910936Y-114962000D01*
X215365064Y-116432000D02*
X214910936Y-116432000D01*
%TD*%
%LPC*%
D15*
%TO.C,5V*%
X229870000Y-135382000D03*
%TD*%
D16*
%TO.C,H3*%
X196342000Y-134620000D03*
%TD*%
D15*
%TO.C,12V*%
X237363000Y-135382000D03*
%TD*%
D17*
%TO.C,J2*%
X199624000Y-91644000D03*
X199624000Y-101944000D03*
D18*
X199624000Y-98044000D03*
X199624000Y-96794000D03*
X199624000Y-95544000D03*
X198374000Y-98044000D03*
X198374000Y-96794000D03*
X198374000Y-95544000D03*
%TD*%
D15*
%TO.C,5V_O*%
X233553000Y-135382000D03*
%TD*%
D16*
%TO.C,H2*%
X247142000Y-83820000D03*
%TD*%
D19*
%TO.C,J3*%
X204078500Y-117729000D03*
D20*
X204078500Y-125984000D03*
%TD*%
D21*
%TO.C,Y1*%
X213106000Y-109384000D03*
X213106000Y-104504000D03*
%TD*%
D16*
%TO.C,H1*%
X196342000Y-83820000D03*
%TD*%
%TO.C,H4*%
X247142000Y-134620000D03*
%TD*%
D22*
%TO.C,R32*%
X233955500Y-96139000D03*
X235955500Y-96139000D03*
%TD*%
D23*
%TO.C,R19*%
X235674500Y-113697000D03*
X233674500Y-113697000D03*
%TD*%
D24*
%TO.C,C15*%
X239119500Y-115443000D03*
X241194500Y-115443000D03*
%TD*%
D25*
%TO.C,C16*%
X201189500Y-113919000D03*
X199114500Y-113919000D03*
%TD*%
D26*
%TO.C,C3*%
X226568000Y-105896500D03*
X226568000Y-107971500D03*
%TD*%
D23*
%TO.C,R23*%
X201152000Y-110363000D03*
X199152000Y-110363000D03*
%TD*%
D25*
%TO.C,C24*%
X240178500Y-93599000D03*
X238103500Y-93599000D03*
%TD*%
D27*
%TO.C,U8*%
X235960500Y-92014000D03*
X235960500Y-92964000D03*
X235960500Y-93914000D03*
X233685500Y-93914000D03*
X233685500Y-92014000D03*
%TD*%
%TO.C,U5*%
X196967000Y-112588000D03*
X196967000Y-113538000D03*
X196967000Y-114488000D03*
X194692000Y-114488000D03*
X194692000Y-112588000D03*
%TD*%
D22*
%TO.C,R9*%
X219599000Y-115697000D03*
X221599000Y-115697000D03*
%TD*%
D28*
%TO.C,R6*%
X218567000Y-95731500D03*
X218567000Y-97731500D03*
%TD*%
D24*
%TO.C,C14*%
X194669500Y-110363000D03*
X196744500Y-110363000D03*
%TD*%
D28*
%TO.C,R3*%
X225044000Y-95663000D03*
X225044000Y-97663000D03*
%TD*%
D29*
%TO.C,R7*%
X218567000Y-101965000D03*
X218567000Y-99965000D03*
%TD*%
D30*
%TO.C,C25*%
X199263000Y-119443500D03*
X199263000Y-125082300D03*
%TD*%
D22*
%TO.C,R10*%
X225060000Y-115697000D03*
X227060000Y-115697000D03*
%TD*%
%TO.C,R11*%
X194834000Y-116713000D03*
X196834000Y-116713000D03*
%TD*%
D23*
%TO.C,R24*%
X241284000Y-127889000D03*
X239284000Y-127889000D03*
%TD*%
D29*
%TO.C,R4*%
X225044000Y-101927500D03*
X225044000Y-99927500D03*
%TD*%
D22*
%TO.C,R31*%
X233955500Y-98552000D03*
X235955500Y-98552000D03*
%TD*%
D23*
%TO.C,R20*%
X235674500Y-116647000D03*
X233674500Y-116647000D03*
%TD*%
D31*
%TO.C,D5*%
X203708000Y-102619000D03*
X203708000Y-99819000D03*
%TD*%
D24*
%TO.C,C22*%
X233791000Y-89662000D03*
X235866000Y-89662000D03*
%TD*%
D23*
%TO.C,R35*%
X240146500Y-96139000D03*
X238146500Y-96139000D03*
%TD*%
D25*
%TO.C,C17*%
X241448500Y-125730000D03*
X239373500Y-125730000D03*
%TD*%
D27*
%TO.C,U6*%
X241294500Y-117795000D03*
X241294500Y-118745000D03*
X241294500Y-119695000D03*
X239019500Y-119695000D03*
X239019500Y-117795000D03*
%TD*%
D22*
%TO.C,R8*%
X214138000Y-115697000D03*
X216138000Y-115697000D03*
%TD*%
%LPD*%
M02*
