%TF.GenerationSoftware,KiCad,Pcbnew,8.0.9*%
%TF.CreationDate,2025-05-22T10:54:23-04:00*%
%TF.ProjectId,rocket_power_board,726f636b-6574-45f7-906f-7765725f626f,rev?*%
%TF.SameCoordinates,Original*%
%TF.FileFunction,Soldermask,Top*%
%TF.FilePolarity,Negative*%
%FSLAX46Y46*%
G04 Gerber Fmt 4.6, Leading zero omitted, Abs format (unit mm)*
G04 Created by KiCad (PCBNEW 8.0.9) date 2025-05-22 10:54:23*
%MOMM*%
%LPD*%
G01*
G04 APERTURE LIST*
G04 Aperture macros list*
%AMRoundRect*
0 Rectangle with rounded corners*
0 $1 Rounding radius*
0 $2 $3 $4 $5 $6 $7 $8 $9 X,Y pos of 4 corners*
0 Add a 4 corners polygon primitive as box body*
4,1,4,$2,$3,$4,$5,$6,$7,$8,$9,$2,$3,0*
0 Add four circle primitives for the rounded corners*
1,1,$1+$1,$2,$3*
1,1,$1+$1,$4,$5*
1,1,$1+$1,$6,$7*
1,1,$1+$1,$8,$9*
0 Add four rect primitives between the rounded corners*
20,1,$1+$1,$2,$3,$4,$5,0*
20,1,$1+$1,$4,$5,$6,$7,0*
20,1,$1+$1,$6,$7,$8,$9,0*
20,1,$1+$1,$8,$9,$2,$3,0*%
G04 Aperture macros list end*
%ADD10RoundRect,0.250000X0.450000X0.800000X-0.450000X0.800000X-0.450000X-0.800000X0.450000X-0.800000X0*%
%ADD11C,2.000000*%
%ADD12R,3.100000X2.000000*%
%ADD13RoundRect,0.250000X-0.350000X-0.450000X0.350000X-0.450000X0.350000X0.450000X-0.350000X0.450000X0*%
%ADD14RoundRect,0.250000X0.475000X-0.337500X0.475000X0.337500X-0.475000X0.337500X-0.475000X-0.337500X0*%
%ADD15RoundRect,0.250000X-0.337500X-0.475000X0.337500X-0.475000X0.337500X0.475000X-0.337500X0.475000X0*%
%ADD16RoundRect,0.250000X-2.000000X1.400000X-2.000000X-1.400000X2.000000X-1.400000X2.000000X1.400000X0*%
%ADD17RoundRect,0.250000X-0.475000X0.337500X-0.475000X-0.337500X0.475000X-0.337500X0.475000X0.337500X0*%
%ADD18RoundRect,0.250000X-1.500000X-0.900000X1.500000X-0.900000X1.500000X0.900000X-1.500000X0.900000X0*%
%ADD19RoundRect,0.250000X0.350000X0.450000X-0.350000X0.450000X-0.350000X-0.450000X0.350000X-0.450000X0*%
%ADD20RoundRect,0.150000X0.825000X0.150000X-0.825000X0.150000X-0.825000X-0.150000X0.825000X-0.150000X0*%
%ADD21C,6.400000*%
%ADD22RoundRect,0.150000X-0.750000X-0.150000X0.750000X-0.150000X0.750000X0.150000X-0.750000X0.150000X0*%
%ADD23RoundRect,0.050000X-0.250000X-0.100000X0.250000X-0.100000X0.250000X0.100000X-0.250000X0.100000X0*%
%ADD24RoundRect,0.050000X0.075000X0.275000X-0.075000X0.275000X-0.075000X-0.275000X0.075000X-0.275000X0*%
%ADD25RoundRect,0.050000X-0.250000X-0.075000X0.250000X-0.075000X0.250000X0.075000X-0.250000X0.075000X0*%
%ADD26RoundRect,0.075000X-0.075000X-1.125000X0.075000X-1.125000X0.075000X1.125000X-0.075000X1.125000X0*%
%ADD27RoundRect,0.050000X0.250000X0.100000X-0.250000X0.100000X-0.250000X-0.100000X0.250000X-0.100000X0*%
%ADD28RoundRect,0.050000X0.250000X0.075000X-0.250000X0.075000X-0.250000X-0.075000X0.250000X-0.075000X0*%
%ADD29RoundRect,0.250000X0.450000X-0.350000X0.450000X0.350000X-0.450000X0.350000X-0.450000X-0.350000X0*%
%ADD30C,3.800000*%
%ADD31C,1.000000*%
%ADD32R,1.000000X2.000000*%
%ADD33RoundRect,0.250001X-0.462499X-0.624999X0.462499X-0.624999X0.462499X0.624999X-0.462499X0.624999X0*%
%ADD34RoundRect,0.250000X0.337500X0.475000X-0.337500X0.475000X-0.337500X-0.475000X0.337500X-0.475000X0*%
%ADD35RoundRect,0.102000X-1.371600X1.371600X-1.371600X-1.371600X1.371600X-1.371600X1.371600X1.371600X0*%
%ADD36C,2.947200*%
%ADD37C,1.500000*%
%ADD38RoundRect,0.150000X-0.512500X-0.150000X0.512500X-0.150000X0.512500X0.150000X-0.512500X0.150000X0*%
%ADD39R,4.241800X3.810000*%
%ADD40R,1.000000X1.500000*%
%ADD41RoundRect,0.250000X-0.450000X0.350000X-0.450000X-0.350000X0.450000X-0.350000X0.450000X0.350000X0*%
G04 APERTURE END LIST*
D10*
%TO.C,D4*%
X205908000Y-135890000D03*
X201508000Y-135890000D03*
%TD*%
D11*
%TO.C,5V*%
X229870000Y-135382000D03*
%TD*%
D12*
%TO.C,L1*%
X220091000Y-125586000D03*
X220091000Y-120286000D03*
%TD*%
D13*
%TO.C,R17*%
X239024500Y-122422500D03*
X241024500Y-122422500D03*
%TD*%
D14*
%TO.C,C6*%
X213741000Y-136038500D03*
X213741000Y-133963500D03*
%TD*%
D15*
%TO.C,C20*%
X246739500Y-94996000D03*
X248814500Y-94996000D03*
%TD*%
D13*
%TO.C,R27*%
X234839000Y-98171000D03*
X236839000Y-98171000D03*
%TD*%
%TO.C,R2*%
X213122000Y-87376000D03*
X215122000Y-87376000D03*
%TD*%
D16*
%TO.C,D9*%
X241382000Y-106426000D03*
X232582000Y-106426000D03*
%TD*%
D13*
%TO.C,R21*%
X234839000Y-122428000D03*
X236839000Y-122428000D03*
%TD*%
D17*
%TO.C,C11*%
X210952500Y-128883500D03*
X210952500Y-130958500D03*
%TD*%
D18*
%TO.C,D8*%
X234663000Y-90043000D03*
X240063000Y-90043000D03*
%TD*%
D14*
%TO.C,C7*%
X210952500Y-136038500D03*
X210952500Y-133963500D03*
%TD*%
D15*
%TO.C,C21*%
X246739500Y-101473000D03*
X248814500Y-101473000D03*
%TD*%
%TO.C,C19*%
X246739500Y-91567000D03*
X248814500Y-91567000D03*
%TD*%
D19*
%TO.C,R22*%
X232648000Y-122428000D03*
X230648000Y-122428000D03*
%TD*%
D20*
%TO.C,U1*%
X211263000Y-97536000D03*
X211263000Y-96266000D03*
X211263000Y-94996000D03*
X211263000Y-93726000D03*
X206313000Y-93726000D03*
X206313000Y-94996000D03*
X206313000Y-96266000D03*
X206313000Y-97536000D03*
%TD*%
D21*
%TO.C,H3*%
X196342000Y-134620000D03*
%TD*%
D22*
%TO.C,U2*%
X218212000Y-96139000D03*
X218212000Y-97409000D03*
X218212000Y-98679000D03*
X218212000Y-99949000D03*
X218212000Y-101219000D03*
X218212000Y-102489000D03*
X218212000Y-103759000D03*
X218212000Y-105029000D03*
X218212000Y-106299000D03*
X218212000Y-107569000D03*
X218212000Y-108839000D03*
X218212000Y-110109000D03*
X218212000Y-111379000D03*
X218212000Y-112649000D03*
X227812000Y-112649000D03*
X227812000Y-111379000D03*
X227812000Y-110109000D03*
X227812000Y-108839000D03*
X227812000Y-107569000D03*
X227812000Y-106299000D03*
X227812000Y-105029000D03*
X227812000Y-103759000D03*
X227812000Y-102489000D03*
X227812000Y-101219000D03*
X227812000Y-99949000D03*
X227812000Y-98679000D03*
X227812000Y-97409000D03*
X227812000Y-96139000D03*
%TD*%
D23*
%TO.C,U4*%
X243067000Y-119061000D03*
D24*
X243242000Y-118886000D03*
D25*
X243067000Y-119536000D03*
X243067000Y-119986000D03*
D23*
X243067000Y-120461000D03*
D24*
X243242000Y-120636000D03*
D26*
X243717000Y-119761000D03*
X244217000Y-119761000D03*
D24*
X244692000Y-120636000D03*
D27*
X244867000Y-120461000D03*
D28*
X244867000Y-119986000D03*
X244867000Y-119536000D03*
D24*
X244692000Y-118886000D03*
D27*
X244867000Y-119061000D03*
%TD*%
D11*
%TO.C,12V*%
X237363000Y-135382000D03*
%TD*%
D13*
%TO.C,R33*%
X234839000Y-101600000D03*
X236839000Y-101600000D03*
%TD*%
%TO.C,R12*%
X230521000Y-119126000D03*
X232521000Y-119126000D03*
%TD*%
D29*
%TO.C,R16*%
X223271500Y-135747000D03*
X223271500Y-133747000D03*
%TD*%
D30*
%TO.C,J2*%
X199624000Y-91644000D03*
X199624000Y-101944000D03*
D31*
X199624000Y-98044000D03*
X199624000Y-96794000D03*
X199624000Y-95544000D03*
X198374000Y-98044000D03*
X198374000Y-96794000D03*
X198374000Y-95544000D03*
%TD*%
D32*
%TO.C,J1*%
X218948000Y-91347500D03*
X221488000Y-91347500D03*
X224028000Y-91347500D03*
X226568000Y-91347500D03*
X229108000Y-91347500D03*
%TD*%
D14*
%TO.C,C5*%
X208433000Y-110384500D03*
X208433000Y-108309500D03*
%TD*%
D13*
%TO.C,R29*%
X246777000Y-98171000D03*
X248777000Y-98171000D03*
%TD*%
D11*
%TO.C,5V_O*%
X233553000Y-135382000D03*
%TD*%
D21*
%TO.C,H2*%
X247142000Y-83820000D03*
%TD*%
D13*
%TO.C,R5*%
X213122000Y-90805000D03*
X215122000Y-90805000D03*
%TD*%
D18*
%TO.C,D6*%
X234673500Y-114167500D03*
X240073500Y-114167500D03*
%TD*%
D13*
%TO.C,R30*%
X239157000Y-101600000D03*
X241157000Y-101600000D03*
%TD*%
D33*
%TO.C,D3*%
X224572500Y-115697000D03*
X227547500Y-115697000D03*
%TD*%
D34*
%TO.C,C2*%
X210460500Y-83566000D03*
X208385500Y-83566000D03*
%TD*%
D13*
%TO.C,R13*%
X234839000Y-119126000D03*
X236839000Y-119126000D03*
%TD*%
D15*
%TO.C,C9*%
X246739500Y-112395000D03*
X248814500Y-112395000D03*
%TD*%
D29*
%TO.C,R1*%
X203073000Y-96758000D03*
X203073000Y-94758000D03*
%TD*%
D16*
%TO.C,D7*%
X239858000Y-127254000D03*
X231058000Y-127254000D03*
%TD*%
D17*
%TO.C,C4*%
X208433000Y-103483500D03*
X208433000Y-105558500D03*
%TD*%
D15*
%TO.C,C12*%
X246739500Y-122301000D03*
X248814500Y-122301000D03*
%TD*%
D13*
%TO.C,R26*%
X239284000Y-94742000D03*
X241284000Y-94742000D03*
%TD*%
D19*
%TO.C,R34*%
X232648000Y-101600000D03*
X230648000Y-101600000D03*
%TD*%
D33*
%TO.C,D2*%
X219111500Y-115697000D03*
X222086500Y-115697000D03*
%TD*%
D35*
%TO.C,J3*%
X204078500Y-117729000D03*
D36*
X204078500Y-125984000D03*
%TD*%
D17*
%TO.C,C13*%
X213746500Y-128883500D03*
X213746500Y-130958500D03*
%TD*%
%TO.C,C8*%
X220858500Y-128756500D03*
X220858500Y-130831500D03*
%TD*%
D15*
%TO.C,C10*%
X246739500Y-115824000D03*
X248814500Y-115824000D03*
%TD*%
D37*
%TO.C,Y1*%
X213106000Y-109384000D03*
X213106000Y-104504000D03*
%TD*%
D33*
%TO.C,D1*%
X213650500Y-115697000D03*
X216625500Y-115697000D03*
%TD*%
D17*
%TO.C,C1*%
X214376000Y-94720500D03*
X214376000Y-96795500D03*
%TD*%
D13*
%TO.C,R28*%
X239157000Y-98171000D03*
X241157000Y-98171000D03*
%TD*%
D21*
%TO.C,H1*%
X196342000Y-83820000D03*
%TD*%
D38*
%TO.C,U3*%
X218578000Y-134051000D03*
X218578000Y-135001000D03*
X218578000Y-135951000D03*
X220853000Y-135951000D03*
X220853000Y-135001000D03*
X220853000Y-134051000D03*
%TD*%
D39*
%TO.C,F1*%
X196202300Y-108585000D03*
X202577700Y-108585000D03*
%TD*%
D40*
%TO.C,JP1*%
X213472000Y-83566000D03*
X214772000Y-83566000D03*
%TD*%
D13*
%TO.C,R18*%
X246777000Y-118999000D03*
X248777000Y-118999000D03*
%TD*%
%TO.C,R14*%
X239030000Y-119126000D03*
X241030000Y-119126000D03*
%TD*%
D15*
%TO.C,C18*%
X246739500Y-125730000D03*
X248814500Y-125730000D03*
%TD*%
D23*
%TO.C,U7*%
X243067000Y-98233000D03*
D24*
X243242000Y-98058000D03*
D25*
X243067000Y-98708000D03*
X243067000Y-99158000D03*
D23*
X243067000Y-99633000D03*
D24*
X243242000Y-99808000D03*
D26*
X243717000Y-98933000D03*
X244217000Y-98933000D03*
D24*
X244692000Y-99808000D03*
D27*
X244867000Y-99633000D03*
D28*
X244867000Y-99158000D03*
X244867000Y-98708000D03*
D24*
X244692000Y-98058000D03*
D27*
X244867000Y-98233000D03*
%TD*%
D21*
%TO.C,H4*%
X247142000Y-134620000D03*
%TD*%
D13*
%TO.C,R25*%
X234839000Y-94742000D03*
X236839000Y-94742000D03*
%TD*%
D15*
%TO.C,C23*%
X246739500Y-104902000D03*
X248814500Y-104902000D03*
%TD*%
D41*
%TO.C,R15*%
X226065500Y-133747000D03*
X226065500Y-135747000D03*
%TD*%
M02*
