G04 #@! TF.GenerationSoftware,KiCad,Pcbnew,9.0.7*
G04 #@! TF.CreationDate,2026-01-26T16:17:32-05:00*
G04 #@! TF.ProjectId,rocket_power_board,726f636b-6574-45f7-906f-7765725f626f,rev?*
G04 #@! TF.SameCoordinates,Original*
G04 #@! TF.FileFunction,Legend,Bot*
G04 #@! TF.FilePolarity,Positive*
%FSLAX46Y46*%
G04 Gerber Fmt 4.6, Leading zero omitted, Abs format (unit mm)*
G04 Created by KiCad (PCBNEW 9.0.7) date 2026-01-26 16:17:32*
%MOMM*%
%LPD*%
G01*
G04 APERTURE LIST*
G04 Aperture macros list*
%AMRoundRect*
0 Rectangle with rounded corners*
0 $1 Rounding radius*
0 $2 $3 $4 $5 $6 $7 $8 $9 X,Y pos of 4 corners*
0 Add a 4 corners polygon primitive as box body*
4,1,4,$2,$3,$4,$5,$6,$7,$8,$9,$2,$3,0*
0 Add four circle primitives for the rounded corners*
1,1,$1+$1,$2,$3*
1,1,$1+$1,$4,$5*
1,1,$1+$1,$6,$7*
1,1,$1+$1,$8,$9*
0 Add four rect primitives between the rounded corners*
20,1,$1+$1,$2,$3,$4,$5,0*
20,1,$1+$1,$4,$5,$6,$7,0*
20,1,$1+$1,$6,$7,$8,$9,0*
20,1,$1+$1,$8,$9,$2,$3,0*%
G04 Aperture macros list end*
%ADD10C,0.100000*%
%ADD11C,0.152400*%
%ADD12C,0.150000*%
%ADD13C,0.120000*%
%ADD14C,0.127000*%
%ADD15C,2.379000*%
%ADD16C,1.204000*%
%ADD17RoundRect,0.102000X0.500000X-0.500000X0.500000X0.500000X-0.500000X0.500000X-0.500000X-0.500000X0*%
%ADD18C,2.550000*%
%ADD19RoundRect,0.050000X-0.250000X-0.100000X0.250000X-0.100000X0.250000X0.100000X-0.250000X0.100000X0*%
%ADD20RoundRect,0.050000X-0.075000X-0.275000X0.075000X-0.275000X0.075000X0.275000X-0.075000X0.275000X0*%
%ADD21RoundRect,0.050000X-0.250000X-0.075000X0.250000X-0.075000X0.250000X0.075000X-0.250000X0.075000X0*%
%ADD22RoundRect,0.075000X0.075000X1.125000X-0.075000X1.125000X-0.075000X-1.125000X0.075000X-1.125000X0*%
%ADD23RoundRect,0.050000X0.250000X0.100000X-0.250000X0.100000X-0.250000X-0.100000X0.250000X-0.100000X0*%
%ADD24RoundRect,0.050000X0.250000X0.075000X-0.250000X0.075000X-0.250000X-0.075000X0.250000X-0.075000X0*%
%ADD25RoundRect,0.050000X0.100000X-0.250000X0.100000X0.250000X-0.100000X0.250000X-0.100000X-0.250000X0*%
%ADD26RoundRect,0.050000X0.275000X-0.075000X0.275000X0.075000X-0.275000X0.075000X-0.275000X-0.075000X0*%
%ADD27RoundRect,0.050000X0.075000X-0.250000X0.075000X0.250000X-0.075000X0.250000X-0.075000X-0.250000X0*%
%ADD28RoundRect,0.075000X-1.125000X0.075000X-1.125000X-0.075000X1.125000X-0.075000X1.125000X0.075000X0*%
%ADD29RoundRect,0.050000X-0.100000X0.250000X-0.100000X-0.250000X0.100000X-0.250000X0.100000X0.250000X0*%
%ADD30RoundRect,0.050000X-0.075000X0.250000X-0.075000X-0.250000X0.075000X-0.250000X0.075000X0.250000X0*%
%ADD31RoundRect,0.237500X-0.300000X-0.237500X0.300000X-0.237500X0.300000X0.237500X-0.300000X0.237500X0*%
%ADD32RoundRect,0.237500X0.300000X0.237500X-0.300000X0.237500X-0.300000X-0.237500X0.300000X-0.237500X0*%
%ADD33RoundRect,0.237500X-0.250000X-0.237500X0.250000X-0.237500X0.250000X0.237500X-0.250000X0.237500X0*%
%ADD34RoundRect,0.237500X0.250000X0.237500X-0.250000X0.237500X-0.250000X-0.237500X0.250000X-0.237500X0*%
%ADD35RoundRect,0.102000X1.371600X1.371600X-1.371600X1.371600X-1.371600X-1.371600X1.371600X-1.371600X0*%
%ADD36C,2.947200*%
%ADD37C,0.800000*%
%ADD38C,6.400000*%
%ADD39RoundRect,0.237500X0.237500X-0.250000X0.237500X0.250000X-0.237500X0.250000X-0.237500X-0.250000X0*%
%ADD40RoundRect,0.150000X-0.512500X-0.150000X0.512500X-0.150000X0.512500X0.150000X-0.512500X0.150000X0*%
%ADD41RoundRect,0.237500X-0.237500X0.250000X-0.237500X-0.250000X0.237500X-0.250000X0.237500X0.250000X0*%
%ADD42RoundRect,0.150000X0.512500X0.150000X-0.512500X0.150000X-0.512500X-0.150000X0.512500X-0.150000X0*%
%ADD43RoundRect,0.150000X0.150000X-0.512500X0.150000X0.512500X-0.150000X0.512500X-0.150000X-0.512500X0*%
%ADD44RoundRect,0.250000X-0.325000X-0.450000X0.325000X-0.450000X0.325000X0.450000X-0.325000X0.450000X0*%
%ADD45RoundRect,0.150000X-0.825000X-0.150000X0.825000X-0.150000X0.825000X0.150000X-0.825000X0.150000X0*%
%ADD46RoundRect,0.237500X-0.237500X0.300000X-0.237500X-0.300000X0.237500X-0.300000X0.237500X0.300000X0*%
%ADD47R,1.000000X2.000000*%
%ADD48RoundRect,0.250000X0.800000X-0.450000X0.800000X0.450000X-0.800000X0.450000X-0.800000X-0.450000X0*%
%ADD49R,4.241800X3.810000*%
%ADD50RoundRect,0.102000X0.950000X2.550000X-0.950000X2.550000X-0.950000X-2.550000X0.950000X-2.550000X0*%
%ADD51RoundRect,0.150000X-0.150000X0.512500X-0.150000X-0.512500X0.150000X-0.512500X0.150000X0.512500X0*%
G04 APERTURE END LIST*
D10*
X225856800Y-81127600D02*
X225552000Y-81127600D01*
X225704400Y-80695800D02*
X225704400Y-81280000D01*
X225704400Y-81280000D02*
X225552000Y-81127600D01*
X225704400Y-81280000D02*
X225856800Y-81127600D01*
D11*
X229222291Y-67856276D02*
X229294863Y-67819990D01*
X229294863Y-67819990D02*
X229403720Y-67819990D01*
X229403720Y-67819990D02*
X229512577Y-67856276D01*
X229512577Y-67856276D02*
X229585148Y-67928847D01*
X229585148Y-67928847D02*
X229621434Y-68001419D01*
X229621434Y-68001419D02*
X229657720Y-68146562D01*
X229657720Y-68146562D02*
X229657720Y-68255419D01*
X229657720Y-68255419D02*
X229621434Y-68400562D01*
X229621434Y-68400562D02*
X229585148Y-68473133D01*
X229585148Y-68473133D02*
X229512577Y-68545705D01*
X229512577Y-68545705D02*
X229403720Y-68581990D01*
X229403720Y-68581990D02*
X229331148Y-68581990D01*
X229331148Y-68581990D02*
X229222291Y-68545705D01*
X229222291Y-68545705D02*
X229186005Y-68509419D01*
X229186005Y-68509419D02*
X229186005Y-68255419D01*
X229186005Y-68255419D02*
X229331148Y-68255419D01*
X229911719Y-75973390D02*
X230347148Y-75973390D01*
X230129433Y-75973390D02*
X230129433Y-75211390D01*
X230129433Y-75211390D02*
X230202005Y-75320247D01*
X230202005Y-75320247D02*
X230274576Y-75392819D01*
X230274576Y-75392819D02*
X230347148Y-75429105D01*
X229621434Y-75283962D02*
X229585148Y-75247676D01*
X229585148Y-75247676D02*
X229512577Y-75211390D01*
X229512577Y-75211390D02*
X229331148Y-75211390D01*
X229331148Y-75211390D02*
X229258577Y-75247676D01*
X229258577Y-75247676D02*
X229222291Y-75283962D01*
X229222291Y-75283962D02*
X229186005Y-75356533D01*
X229186005Y-75356533D02*
X229186005Y-75429105D01*
X229186005Y-75429105D02*
X229222291Y-75537962D01*
X229222291Y-75537962D02*
X229657719Y-75973390D01*
X229657719Y-75973390D02*
X229186005Y-75973390D01*
D10*
X224596439Y-49255214D02*
X224596439Y-48505214D01*
X224596439Y-48505214D02*
X224346439Y-49040928D01*
X224346439Y-49040928D02*
X224096439Y-48505214D01*
X224096439Y-48505214D02*
X224096439Y-49255214D01*
X223310725Y-49183785D02*
X223346439Y-49219500D01*
X223346439Y-49219500D02*
X223453582Y-49255214D01*
X223453582Y-49255214D02*
X223525010Y-49255214D01*
X223525010Y-49255214D02*
X223632153Y-49219500D01*
X223632153Y-49219500D02*
X223703582Y-49148071D01*
X223703582Y-49148071D02*
X223739296Y-49076642D01*
X223739296Y-49076642D02*
X223775010Y-48933785D01*
X223775010Y-48933785D02*
X223775010Y-48826642D01*
X223775010Y-48826642D02*
X223739296Y-48683785D01*
X223739296Y-48683785D02*
X223703582Y-48612357D01*
X223703582Y-48612357D02*
X223632153Y-48540928D01*
X223632153Y-48540928D02*
X223525010Y-48505214D01*
X223525010Y-48505214D02*
X223453582Y-48505214D01*
X223453582Y-48505214D02*
X223346439Y-48540928D01*
X223346439Y-48540928D02*
X223310725Y-48576642D01*
X222632153Y-49255214D02*
X222989296Y-49255214D01*
X222989296Y-49255214D02*
X222989296Y-48505214D01*
X221953582Y-49255214D02*
X222203582Y-48898071D01*
X222382153Y-49255214D02*
X222382153Y-48505214D01*
X222382153Y-48505214D02*
X222096439Y-48505214D01*
X222096439Y-48505214D02*
X222025010Y-48540928D01*
X222025010Y-48540928D02*
X221989296Y-48576642D01*
X221989296Y-48576642D02*
X221953582Y-48648071D01*
X221953582Y-48648071D02*
X221953582Y-48755214D01*
X221953582Y-48755214D02*
X221989296Y-48826642D01*
X221989296Y-48826642D02*
X222025010Y-48862357D01*
X222025010Y-48862357D02*
X222096439Y-48898071D01*
X222096439Y-48898071D02*
X222382153Y-48898071D01*
X224700011Y-48297000D02*
X221885725Y-48297000D01*
D11*
X230585679Y-82323231D02*
X230621965Y-82359517D01*
X230621965Y-82359517D02*
X230730822Y-82395802D01*
X230730822Y-82395802D02*
X230803394Y-82395802D01*
X230803394Y-82395802D02*
X230912251Y-82359517D01*
X230912251Y-82359517D02*
X230984822Y-82286945D01*
X230984822Y-82286945D02*
X231021108Y-82214374D01*
X231021108Y-82214374D02*
X231057394Y-82069231D01*
X231057394Y-82069231D02*
X231057394Y-81960374D01*
X231057394Y-81960374D02*
X231021108Y-81815231D01*
X231021108Y-81815231D02*
X230984822Y-81742659D01*
X230984822Y-81742659D02*
X230912251Y-81670088D01*
X230912251Y-81670088D02*
X230803394Y-81633802D01*
X230803394Y-81633802D02*
X230730822Y-81633802D01*
X230730822Y-81633802D02*
X230621965Y-81670088D01*
X230621965Y-81670088D02*
X230585679Y-81706374D01*
X230295394Y-82178088D02*
X229932537Y-82178088D01*
X230367965Y-82395802D02*
X230113965Y-81633802D01*
X230113965Y-81633802D02*
X229859965Y-82395802D01*
X229605965Y-82395802D02*
X229605965Y-81633802D01*
X229605965Y-81633802D02*
X229170536Y-82395802D01*
X229170536Y-82395802D02*
X229170536Y-81633802D01*
X228444822Y-82395802D02*
X228807679Y-82395802D01*
X228807679Y-82395802D02*
X228807679Y-81633802D01*
X230585679Y-83550008D02*
X230621965Y-83586294D01*
X230621965Y-83586294D02*
X230730822Y-83622579D01*
X230730822Y-83622579D02*
X230803394Y-83622579D01*
X230803394Y-83622579D02*
X230912251Y-83586294D01*
X230912251Y-83586294D02*
X230984822Y-83513722D01*
X230984822Y-83513722D02*
X231021108Y-83441151D01*
X231021108Y-83441151D02*
X231057394Y-83296008D01*
X231057394Y-83296008D02*
X231057394Y-83187151D01*
X231057394Y-83187151D02*
X231021108Y-83042008D01*
X231021108Y-83042008D02*
X230984822Y-82969436D01*
X230984822Y-82969436D02*
X230912251Y-82896865D01*
X230912251Y-82896865D02*
X230803394Y-82860579D01*
X230803394Y-82860579D02*
X230730822Y-82860579D01*
X230730822Y-82860579D02*
X230621965Y-82896865D01*
X230621965Y-82896865D02*
X230585679Y-82933151D01*
X230295394Y-83404865D02*
X229932537Y-83404865D01*
X230367965Y-83622579D02*
X230113965Y-82860579D01*
X230113965Y-82860579D02*
X229859965Y-83622579D01*
X229605965Y-83622579D02*
X229605965Y-82860579D01*
X229605965Y-82860579D02*
X229170536Y-83622579D01*
X229170536Y-83622579D02*
X229170536Y-82860579D01*
X228807679Y-83622579D02*
X228807679Y-82860579D01*
X228807679Y-83223436D02*
X228372250Y-83223436D01*
X228372250Y-83622579D02*
X228372250Y-82860579D01*
X229222291Y-71502990D02*
X229585148Y-71502990D01*
X229585148Y-71502990D02*
X229621434Y-71865847D01*
X229621434Y-71865847D02*
X229585148Y-71829562D01*
X229585148Y-71829562D02*
X229512577Y-71793276D01*
X229512577Y-71793276D02*
X229331148Y-71793276D01*
X229331148Y-71793276D02*
X229258577Y-71829562D01*
X229258577Y-71829562D02*
X229222291Y-71865847D01*
X229222291Y-71865847D02*
X229186005Y-71938419D01*
X229186005Y-71938419D02*
X229186005Y-72119847D01*
X229186005Y-72119847D02*
X229222291Y-72192419D01*
X229222291Y-72192419D02*
X229258577Y-72228705D01*
X229258577Y-72228705D02*
X229331148Y-72264990D01*
X229331148Y-72264990D02*
X229512577Y-72264990D01*
X229512577Y-72264990D02*
X229585148Y-72228705D01*
X229585148Y-72228705D02*
X229621434Y-72192419D01*
X230060491Y-79685419D02*
X230096777Y-79721705D01*
X230096777Y-79721705D02*
X230205634Y-79757990D01*
X230205634Y-79757990D02*
X230278206Y-79757990D01*
X230278206Y-79757990D02*
X230387063Y-79721705D01*
X230387063Y-79721705D02*
X230459634Y-79649133D01*
X230459634Y-79649133D02*
X230495920Y-79576562D01*
X230495920Y-79576562D02*
X230532206Y-79431419D01*
X230532206Y-79431419D02*
X230532206Y-79322562D01*
X230532206Y-79322562D02*
X230495920Y-79177419D01*
X230495920Y-79177419D02*
X230459634Y-79104847D01*
X230459634Y-79104847D02*
X230387063Y-79032276D01*
X230387063Y-79032276D02*
X230278206Y-78995990D01*
X230278206Y-78995990D02*
X230205634Y-78995990D01*
X230205634Y-78995990D02*
X230096777Y-79032276D01*
X230096777Y-79032276D02*
X230060491Y-79068562D01*
X229733920Y-79757990D02*
X229733920Y-78995990D01*
X229733920Y-79358847D02*
X229298491Y-79358847D01*
X229298491Y-79757990D02*
X229298491Y-78995990D01*
D12*
X217194504Y-72372719D02*
X217194504Y-73182242D01*
X217194504Y-73182242D02*
X217146885Y-73277480D01*
X217146885Y-73277480D02*
X217099266Y-73325100D01*
X217099266Y-73325100D02*
X217004028Y-73372719D01*
X217004028Y-73372719D02*
X216813552Y-73372719D01*
X216813552Y-73372719D02*
X216718314Y-73325100D01*
X216718314Y-73325100D02*
X216670695Y-73277480D01*
X216670695Y-73277480D02*
X216623076Y-73182242D01*
X216623076Y-73182242D02*
X216623076Y-72372719D01*
X216242123Y-72372719D02*
X215623076Y-72372719D01*
X215623076Y-72372719D02*
X215956409Y-72753671D01*
X215956409Y-72753671D02*
X215813552Y-72753671D01*
X215813552Y-72753671D02*
X215718314Y-72801290D01*
X215718314Y-72801290D02*
X215670695Y-72848909D01*
X215670695Y-72848909D02*
X215623076Y-72944147D01*
X215623076Y-72944147D02*
X215623076Y-73182242D01*
X215623076Y-73182242D02*
X215670695Y-73277480D01*
X215670695Y-73277480D02*
X215718314Y-73325100D01*
X215718314Y-73325100D02*
X215813552Y-73372719D01*
X215813552Y-73372719D02*
X216099266Y-73372719D01*
X216099266Y-73372719D02*
X216194504Y-73325100D01*
X216194504Y-73325100D02*
X216242123Y-73277480D01*
X208229104Y-80379219D02*
X208229104Y-81188742D01*
X208229104Y-81188742D02*
X208181485Y-81283980D01*
X208181485Y-81283980D02*
X208133866Y-81331600D01*
X208133866Y-81331600D02*
X208038628Y-81379219D01*
X208038628Y-81379219D02*
X207848152Y-81379219D01*
X207848152Y-81379219D02*
X207752914Y-81331600D01*
X207752914Y-81331600D02*
X207705295Y-81283980D01*
X207705295Y-81283980D02*
X207657676Y-81188742D01*
X207657676Y-81188742D02*
X207657676Y-80379219D01*
X207276723Y-80379219D02*
X206610057Y-80379219D01*
X206610057Y-80379219D02*
X207038628Y-81379219D01*
X206535257Y-63580180D02*
X206582876Y-63627800D01*
X206582876Y-63627800D02*
X206725733Y-63675419D01*
X206725733Y-63675419D02*
X206820971Y-63675419D01*
X206820971Y-63675419D02*
X206963828Y-63627800D01*
X206963828Y-63627800D02*
X207059066Y-63532561D01*
X207059066Y-63532561D02*
X207106685Y-63437323D01*
X207106685Y-63437323D02*
X207154304Y-63246847D01*
X207154304Y-63246847D02*
X207154304Y-63103990D01*
X207154304Y-63103990D02*
X207106685Y-62913514D01*
X207106685Y-62913514D02*
X207059066Y-62818276D01*
X207059066Y-62818276D02*
X206963828Y-62723038D01*
X206963828Y-62723038D02*
X206820971Y-62675419D01*
X206820971Y-62675419D02*
X206725733Y-62675419D01*
X206725733Y-62675419D02*
X206582876Y-62723038D01*
X206582876Y-62723038D02*
X206535257Y-62770657D01*
X205582876Y-63675419D02*
X206154304Y-63675419D01*
X205868590Y-63675419D02*
X205868590Y-62675419D01*
X205868590Y-62675419D02*
X205963828Y-62818276D01*
X205963828Y-62818276D02*
X206059066Y-62913514D01*
X206059066Y-62913514D02*
X206154304Y-62961133D01*
X204963828Y-62675419D02*
X204868590Y-62675419D01*
X204868590Y-62675419D02*
X204773352Y-62723038D01*
X204773352Y-62723038D02*
X204725733Y-62770657D01*
X204725733Y-62770657D02*
X204678114Y-62865895D01*
X204678114Y-62865895D02*
X204630495Y-63056371D01*
X204630495Y-63056371D02*
X204630495Y-63294466D01*
X204630495Y-63294466D02*
X204678114Y-63484942D01*
X204678114Y-63484942D02*
X204725733Y-63580180D01*
X204725733Y-63580180D02*
X204773352Y-63627800D01*
X204773352Y-63627800D02*
X204868590Y-63675419D01*
X204868590Y-63675419D02*
X204963828Y-63675419D01*
X204963828Y-63675419D02*
X205059066Y-63627800D01*
X205059066Y-63627800D02*
X205106685Y-63580180D01*
X205106685Y-63580180D02*
X205154304Y-63484942D01*
X205154304Y-63484942D02*
X205201923Y-63294466D01*
X205201923Y-63294466D02*
X205201923Y-63056371D01*
X205201923Y-63056371D02*
X205154304Y-62865895D01*
X205154304Y-62865895D02*
X205106685Y-62770657D01*
X205106685Y-62770657D02*
X205059066Y-62723038D01*
X205059066Y-62723038D02*
X204963828Y-62675419D01*
X223071057Y-69738480D02*
X223118676Y-69786100D01*
X223118676Y-69786100D02*
X223261533Y-69833719D01*
X223261533Y-69833719D02*
X223356771Y-69833719D01*
X223356771Y-69833719D02*
X223499628Y-69786100D01*
X223499628Y-69786100D02*
X223594866Y-69690861D01*
X223594866Y-69690861D02*
X223642485Y-69595623D01*
X223642485Y-69595623D02*
X223690104Y-69405147D01*
X223690104Y-69405147D02*
X223690104Y-69262290D01*
X223690104Y-69262290D02*
X223642485Y-69071814D01*
X223642485Y-69071814D02*
X223594866Y-68976576D01*
X223594866Y-68976576D02*
X223499628Y-68881338D01*
X223499628Y-68881338D02*
X223356771Y-68833719D01*
X223356771Y-68833719D02*
X223261533Y-68833719D01*
X223261533Y-68833719D02*
X223118676Y-68881338D01*
X223118676Y-68881338D02*
X223071057Y-68928957D01*
X222118676Y-69833719D02*
X222690104Y-69833719D01*
X222404390Y-69833719D02*
X222404390Y-68833719D01*
X222404390Y-68833719D02*
X222499628Y-68976576D01*
X222499628Y-68976576D02*
X222594866Y-69071814D01*
X222594866Y-69071814D02*
X222690104Y-69119433D01*
X221166295Y-69833719D02*
X221737723Y-69833719D01*
X221452009Y-69833719D02*
X221452009Y-68833719D01*
X221452009Y-68833719D02*
X221547247Y-68976576D01*
X221547247Y-68976576D02*
X221642485Y-69071814D01*
X221642485Y-69071814D02*
X221737723Y-69119433D01*
X221394257Y-65268080D02*
X221441876Y-65315700D01*
X221441876Y-65315700D02*
X221584733Y-65363319D01*
X221584733Y-65363319D02*
X221679971Y-65363319D01*
X221679971Y-65363319D02*
X221822828Y-65315700D01*
X221822828Y-65315700D02*
X221918066Y-65220461D01*
X221918066Y-65220461D02*
X221965685Y-65125223D01*
X221965685Y-65125223D02*
X222013304Y-64934747D01*
X222013304Y-64934747D02*
X222013304Y-64791890D01*
X222013304Y-64791890D02*
X221965685Y-64601414D01*
X221965685Y-64601414D02*
X221918066Y-64506176D01*
X221918066Y-64506176D02*
X221822828Y-64410938D01*
X221822828Y-64410938D02*
X221679971Y-64363319D01*
X221679971Y-64363319D02*
X221584733Y-64363319D01*
X221584733Y-64363319D02*
X221441876Y-64410938D01*
X221441876Y-64410938D02*
X221394257Y-64458557D01*
X221013304Y-64458557D02*
X220965685Y-64410938D01*
X220965685Y-64410938D02*
X220870447Y-64363319D01*
X220870447Y-64363319D02*
X220632352Y-64363319D01*
X220632352Y-64363319D02*
X220537114Y-64410938D01*
X220537114Y-64410938D02*
X220489495Y-64458557D01*
X220489495Y-64458557D02*
X220441876Y-64553795D01*
X220441876Y-64553795D02*
X220441876Y-64649033D01*
X220441876Y-64649033D02*
X220489495Y-64791890D01*
X220489495Y-64791890D02*
X221060923Y-65363319D01*
X221060923Y-65363319D02*
X220441876Y-65363319D01*
X220108542Y-64363319D02*
X219489495Y-64363319D01*
X219489495Y-64363319D02*
X219822828Y-64744271D01*
X219822828Y-64744271D02*
X219679971Y-64744271D01*
X219679971Y-64744271D02*
X219584733Y-64791890D01*
X219584733Y-64791890D02*
X219537114Y-64839509D01*
X219537114Y-64839509D02*
X219489495Y-64934747D01*
X219489495Y-64934747D02*
X219489495Y-65172842D01*
X219489495Y-65172842D02*
X219537114Y-65268080D01*
X219537114Y-65268080D02*
X219584733Y-65315700D01*
X219584733Y-65315700D02*
X219679971Y-65363319D01*
X219679971Y-65363319D02*
X219965685Y-65363319D01*
X219965685Y-65363319D02*
X220060923Y-65315700D01*
X220060923Y-65315700D02*
X220108542Y-65268080D01*
X206560657Y-65402619D02*
X206893990Y-64926428D01*
X207132085Y-65402619D02*
X207132085Y-64402619D01*
X207132085Y-64402619D02*
X206751133Y-64402619D01*
X206751133Y-64402619D02*
X206655895Y-64450238D01*
X206655895Y-64450238D02*
X206608276Y-64497857D01*
X206608276Y-64497857D02*
X206560657Y-64593095D01*
X206560657Y-64593095D02*
X206560657Y-64735952D01*
X206560657Y-64735952D02*
X206608276Y-64831190D01*
X206608276Y-64831190D02*
X206655895Y-64878809D01*
X206655895Y-64878809D02*
X206751133Y-64926428D01*
X206751133Y-64926428D02*
X207132085Y-64926428D01*
X206179704Y-64497857D02*
X206132085Y-64450238D01*
X206132085Y-64450238D02*
X206036847Y-64402619D01*
X206036847Y-64402619D02*
X205798752Y-64402619D01*
X205798752Y-64402619D02*
X205703514Y-64450238D01*
X205703514Y-64450238D02*
X205655895Y-64497857D01*
X205655895Y-64497857D02*
X205608276Y-64593095D01*
X205608276Y-64593095D02*
X205608276Y-64688333D01*
X205608276Y-64688333D02*
X205655895Y-64831190D01*
X205655895Y-64831190D02*
X206227323Y-65402619D01*
X206227323Y-65402619D02*
X205608276Y-65402619D01*
X204989228Y-64402619D02*
X204893990Y-64402619D01*
X204893990Y-64402619D02*
X204798752Y-64450238D01*
X204798752Y-64450238D02*
X204751133Y-64497857D01*
X204751133Y-64497857D02*
X204703514Y-64593095D01*
X204703514Y-64593095D02*
X204655895Y-64783571D01*
X204655895Y-64783571D02*
X204655895Y-65021666D01*
X204655895Y-65021666D02*
X204703514Y-65212142D01*
X204703514Y-65212142D02*
X204751133Y-65307380D01*
X204751133Y-65307380D02*
X204798752Y-65355000D01*
X204798752Y-65355000D02*
X204893990Y-65402619D01*
X204893990Y-65402619D02*
X204989228Y-65402619D01*
X204989228Y-65402619D02*
X205084466Y-65355000D01*
X205084466Y-65355000D02*
X205132085Y-65307380D01*
X205132085Y-65307380D02*
X205179704Y-65212142D01*
X205179704Y-65212142D02*
X205227323Y-65021666D01*
X205227323Y-65021666D02*
X205227323Y-64783571D01*
X205227323Y-64783571D02*
X205179704Y-64593095D01*
X205179704Y-64593095D02*
X205132085Y-64497857D01*
X205132085Y-64497857D02*
X205084466Y-64450238D01*
X205084466Y-64450238D02*
X204989228Y-64402619D01*
X223071057Y-68171219D02*
X223404390Y-67695028D01*
X223642485Y-68171219D02*
X223642485Y-67171219D01*
X223642485Y-67171219D02*
X223261533Y-67171219D01*
X223261533Y-67171219D02*
X223166295Y-67218838D01*
X223166295Y-67218838D02*
X223118676Y-67266457D01*
X223118676Y-67266457D02*
X223071057Y-67361695D01*
X223071057Y-67361695D02*
X223071057Y-67504552D01*
X223071057Y-67504552D02*
X223118676Y-67599790D01*
X223118676Y-67599790D02*
X223166295Y-67647409D01*
X223166295Y-67647409D02*
X223261533Y-67695028D01*
X223261533Y-67695028D02*
X223642485Y-67695028D01*
X222690104Y-67266457D02*
X222642485Y-67218838D01*
X222642485Y-67218838D02*
X222547247Y-67171219D01*
X222547247Y-67171219D02*
X222309152Y-67171219D01*
X222309152Y-67171219D02*
X222213914Y-67218838D01*
X222213914Y-67218838D02*
X222166295Y-67266457D01*
X222166295Y-67266457D02*
X222118676Y-67361695D01*
X222118676Y-67361695D02*
X222118676Y-67456933D01*
X222118676Y-67456933D02*
X222166295Y-67599790D01*
X222166295Y-67599790D02*
X222737723Y-68171219D01*
X222737723Y-68171219D02*
X222118676Y-68171219D01*
X221166295Y-68171219D02*
X221737723Y-68171219D01*
X221452009Y-68171219D02*
X221452009Y-67171219D01*
X221452009Y-67171219D02*
X221547247Y-67314076D01*
X221547247Y-67314076D02*
X221642485Y-67409314D01*
X221642485Y-67409314D02*
X221737723Y-67456933D01*
X221394257Y-63700819D02*
X221727590Y-63224628D01*
X221965685Y-63700819D02*
X221965685Y-62700819D01*
X221965685Y-62700819D02*
X221584733Y-62700819D01*
X221584733Y-62700819D02*
X221489495Y-62748438D01*
X221489495Y-62748438D02*
X221441876Y-62796057D01*
X221441876Y-62796057D02*
X221394257Y-62891295D01*
X221394257Y-62891295D02*
X221394257Y-63034152D01*
X221394257Y-63034152D02*
X221441876Y-63129390D01*
X221441876Y-63129390D02*
X221489495Y-63177009D01*
X221489495Y-63177009D02*
X221584733Y-63224628D01*
X221584733Y-63224628D02*
X221965685Y-63224628D01*
X221060923Y-62700819D02*
X220441876Y-62700819D01*
X220441876Y-62700819D02*
X220775209Y-63081771D01*
X220775209Y-63081771D02*
X220632352Y-63081771D01*
X220632352Y-63081771D02*
X220537114Y-63129390D01*
X220537114Y-63129390D02*
X220489495Y-63177009D01*
X220489495Y-63177009D02*
X220441876Y-63272247D01*
X220441876Y-63272247D02*
X220441876Y-63510342D01*
X220441876Y-63510342D02*
X220489495Y-63605580D01*
X220489495Y-63605580D02*
X220537114Y-63653200D01*
X220537114Y-63653200D02*
X220632352Y-63700819D01*
X220632352Y-63700819D02*
X220918066Y-63700819D01*
X220918066Y-63700819D02*
X221013304Y-63653200D01*
X221013304Y-63653200D02*
X221060923Y-63605580D01*
X219584733Y-63034152D02*
X219584733Y-63700819D01*
X219822828Y-62653200D02*
X220060923Y-63367485D01*
X220060923Y-63367485D02*
X219441876Y-63367485D01*
X224296266Y-80896619D02*
X224629599Y-80420428D01*
X224867694Y-80896619D02*
X224867694Y-79896619D01*
X224867694Y-79896619D02*
X224486742Y-79896619D01*
X224486742Y-79896619D02*
X224391504Y-79944238D01*
X224391504Y-79944238D02*
X224343885Y-79991857D01*
X224343885Y-79991857D02*
X224296266Y-80087095D01*
X224296266Y-80087095D02*
X224296266Y-80229952D01*
X224296266Y-80229952D02*
X224343885Y-80325190D01*
X224343885Y-80325190D02*
X224391504Y-80372809D01*
X224391504Y-80372809D02*
X224486742Y-80420428D01*
X224486742Y-80420428D02*
X224867694Y-80420428D01*
X223343885Y-80896619D02*
X223915313Y-80896619D01*
X223629599Y-80896619D02*
X223629599Y-79896619D01*
X223629599Y-79896619D02*
X223724837Y-80039476D01*
X223724837Y-80039476D02*
X223820075Y-80134714D01*
X223820075Y-80134714D02*
X223915313Y-80182333D01*
X202471257Y-79245619D02*
X202804590Y-78769428D01*
X203042685Y-79245619D02*
X203042685Y-78245619D01*
X203042685Y-78245619D02*
X202661733Y-78245619D01*
X202661733Y-78245619D02*
X202566495Y-78293238D01*
X202566495Y-78293238D02*
X202518876Y-78340857D01*
X202518876Y-78340857D02*
X202471257Y-78436095D01*
X202471257Y-78436095D02*
X202471257Y-78578952D01*
X202471257Y-78578952D02*
X202518876Y-78674190D01*
X202518876Y-78674190D02*
X202566495Y-78721809D01*
X202566495Y-78721809D02*
X202661733Y-78769428D01*
X202661733Y-78769428D02*
X203042685Y-78769428D01*
X202090304Y-78340857D02*
X202042685Y-78293238D01*
X202042685Y-78293238D02*
X201947447Y-78245619D01*
X201947447Y-78245619D02*
X201709352Y-78245619D01*
X201709352Y-78245619D02*
X201614114Y-78293238D01*
X201614114Y-78293238D02*
X201566495Y-78340857D01*
X201566495Y-78340857D02*
X201518876Y-78436095D01*
X201518876Y-78436095D02*
X201518876Y-78531333D01*
X201518876Y-78531333D02*
X201566495Y-78674190D01*
X201566495Y-78674190D02*
X202137923Y-79245619D01*
X202137923Y-79245619D02*
X201518876Y-79245619D01*
X201185542Y-78245619D02*
X200566495Y-78245619D01*
X200566495Y-78245619D02*
X200899828Y-78626571D01*
X200899828Y-78626571D02*
X200756971Y-78626571D01*
X200756971Y-78626571D02*
X200661733Y-78674190D01*
X200661733Y-78674190D02*
X200614114Y-78721809D01*
X200614114Y-78721809D02*
X200566495Y-78817047D01*
X200566495Y-78817047D02*
X200566495Y-79055142D01*
X200566495Y-79055142D02*
X200614114Y-79150380D01*
X200614114Y-79150380D02*
X200661733Y-79198000D01*
X200661733Y-79198000D02*
X200756971Y-79245619D01*
X200756971Y-79245619D02*
X201042685Y-79245619D01*
X201042685Y-79245619D02*
X201137923Y-79198000D01*
X201137923Y-79198000D02*
X201185542Y-79150380D01*
X208279904Y-89066019D02*
X208279904Y-89875542D01*
X208279904Y-89875542D02*
X208232285Y-89970780D01*
X208232285Y-89970780D02*
X208184666Y-90018400D01*
X208184666Y-90018400D02*
X208089428Y-90066019D01*
X208089428Y-90066019D02*
X207898952Y-90066019D01*
X207898952Y-90066019D02*
X207803714Y-90018400D01*
X207803714Y-90018400D02*
X207756095Y-89970780D01*
X207756095Y-89970780D02*
X207708476Y-89875542D01*
X207708476Y-89875542D02*
X207708476Y-89066019D01*
X207089428Y-89494590D02*
X207184666Y-89446971D01*
X207184666Y-89446971D02*
X207232285Y-89399352D01*
X207232285Y-89399352D02*
X207279904Y-89304114D01*
X207279904Y-89304114D02*
X207279904Y-89256495D01*
X207279904Y-89256495D02*
X207232285Y-89161257D01*
X207232285Y-89161257D02*
X207184666Y-89113638D01*
X207184666Y-89113638D02*
X207089428Y-89066019D01*
X207089428Y-89066019D02*
X206898952Y-89066019D01*
X206898952Y-89066019D02*
X206803714Y-89113638D01*
X206803714Y-89113638D02*
X206756095Y-89161257D01*
X206756095Y-89161257D02*
X206708476Y-89256495D01*
X206708476Y-89256495D02*
X206708476Y-89304114D01*
X206708476Y-89304114D02*
X206756095Y-89399352D01*
X206756095Y-89399352D02*
X206803714Y-89446971D01*
X206803714Y-89446971D02*
X206898952Y-89494590D01*
X206898952Y-89494590D02*
X207089428Y-89494590D01*
X207089428Y-89494590D02*
X207184666Y-89542209D01*
X207184666Y-89542209D02*
X207232285Y-89589828D01*
X207232285Y-89589828D02*
X207279904Y-89685066D01*
X207279904Y-89685066D02*
X207279904Y-89875542D01*
X207279904Y-89875542D02*
X207232285Y-89970780D01*
X207232285Y-89970780D02*
X207184666Y-90018400D01*
X207184666Y-90018400D02*
X207089428Y-90066019D01*
X207089428Y-90066019D02*
X206898952Y-90066019D01*
X206898952Y-90066019D02*
X206803714Y-90018400D01*
X206803714Y-90018400D02*
X206756095Y-89970780D01*
X206756095Y-89970780D02*
X206708476Y-89875542D01*
X206708476Y-89875542D02*
X206708476Y-89685066D01*
X206708476Y-89685066D02*
X206756095Y-89589828D01*
X206756095Y-89589828D02*
X206803714Y-89542209D01*
X206803714Y-89542209D02*
X206898952Y-89494590D01*
X206560657Y-74597419D02*
X206893990Y-74121228D01*
X207132085Y-74597419D02*
X207132085Y-73597419D01*
X207132085Y-73597419D02*
X206751133Y-73597419D01*
X206751133Y-73597419D02*
X206655895Y-73645038D01*
X206655895Y-73645038D02*
X206608276Y-73692657D01*
X206608276Y-73692657D02*
X206560657Y-73787895D01*
X206560657Y-73787895D02*
X206560657Y-73930752D01*
X206560657Y-73930752D02*
X206608276Y-74025990D01*
X206608276Y-74025990D02*
X206655895Y-74073609D01*
X206655895Y-74073609D02*
X206751133Y-74121228D01*
X206751133Y-74121228D02*
X207132085Y-74121228D01*
X206179704Y-73692657D02*
X206132085Y-73645038D01*
X206132085Y-73645038D02*
X206036847Y-73597419D01*
X206036847Y-73597419D02*
X205798752Y-73597419D01*
X205798752Y-73597419D02*
X205703514Y-73645038D01*
X205703514Y-73645038D02*
X205655895Y-73692657D01*
X205655895Y-73692657D02*
X205608276Y-73787895D01*
X205608276Y-73787895D02*
X205608276Y-73883133D01*
X205608276Y-73883133D02*
X205655895Y-74025990D01*
X205655895Y-74025990D02*
X206227323Y-74597419D01*
X206227323Y-74597419D02*
X205608276Y-74597419D01*
X205132085Y-74597419D02*
X204941609Y-74597419D01*
X204941609Y-74597419D02*
X204846371Y-74549800D01*
X204846371Y-74549800D02*
X204798752Y-74502180D01*
X204798752Y-74502180D02*
X204703514Y-74359323D01*
X204703514Y-74359323D02*
X204655895Y-74168847D01*
X204655895Y-74168847D02*
X204655895Y-73787895D01*
X204655895Y-73787895D02*
X204703514Y-73692657D01*
X204703514Y-73692657D02*
X204751133Y-73645038D01*
X204751133Y-73645038D02*
X204846371Y-73597419D01*
X204846371Y-73597419D02*
X205036847Y-73597419D01*
X205036847Y-73597419D02*
X205132085Y-73645038D01*
X205132085Y-73645038D02*
X205179704Y-73692657D01*
X205179704Y-73692657D02*
X205227323Y-73787895D01*
X205227323Y-73787895D02*
X205227323Y-74025990D01*
X205227323Y-74025990D02*
X205179704Y-74121228D01*
X205179704Y-74121228D02*
X205132085Y-74168847D01*
X205132085Y-74168847D02*
X205036847Y-74216466D01*
X205036847Y-74216466D02*
X204846371Y-74216466D01*
X204846371Y-74216466D02*
X204751133Y-74168847D01*
X204751133Y-74168847D02*
X204703514Y-74121228D01*
X204703514Y-74121228D02*
X204655895Y-74025990D01*
X223985057Y-72870219D02*
X224318390Y-72394028D01*
X224556485Y-72870219D02*
X224556485Y-71870219D01*
X224556485Y-71870219D02*
X224175533Y-71870219D01*
X224175533Y-71870219D02*
X224080295Y-71917838D01*
X224080295Y-71917838D02*
X224032676Y-71965457D01*
X224032676Y-71965457D02*
X223985057Y-72060695D01*
X223985057Y-72060695D02*
X223985057Y-72203552D01*
X223985057Y-72203552D02*
X224032676Y-72298790D01*
X224032676Y-72298790D02*
X224080295Y-72346409D01*
X224080295Y-72346409D02*
X224175533Y-72394028D01*
X224175533Y-72394028D02*
X224556485Y-72394028D01*
X223032676Y-72870219D02*
X223604104Y-72870219D01*
X223318390Y-72870219D02*
X223318390Y-71870219D01*
X223318390Y-71870219D02*
X223413628Y-72013076D01*
X223413628Y-72013076D02*
X223508866Y-72108314D01*
X223508866Y-72108314D02*
X223604104Y-72155933D01*
X222651723Y-71965457D02*
X222604104Y-71917838D01*
X222604104Y-71917838D02*
X222508866Y-71870219D01*
X222508866Y-71870219D02*
X222270771Y-71870219D01*
X222270771Y-71870219D02*
X222175533Y-71917838D01*
X222175533Y-71917838D02*
X222127914Y-71965457D01*
X222127914Y-71965457D02*
X222080295Y-72060695D01*
X222080295Y-72060695D02*
X222080295Y-72155933D01*
X222080295Y-72155933D02*
X222127914Y-72298790D01*
X222127914Y-72298790D02*
X222699342Y-72870219D01*
X222699342Y-72870219D02*
X222080295Y-72870219D01*
X216052304Y-65926619D02*
X216052304Y-66736142D01*
X216052304Y-66736142D02*
X216004685Y-66831380D01*
X216004685Y-66831380D02*
X215957066Y-66879000D01*
X215957066Y-66879000D02*
X215861828Y-66926619D01*
X215861828Y-66926619D02*
X215671352Y-66926619D01*
X215671352Y-66926619D02*
X215576114Y-66879000D01*
X215576114Y-66879000D02*
X215528495Y-66831380D01*
X215528495Y-66831380D02*
X215480876Y-66736142D01*
X215480876Y-66736142D02*
X215480876Y-65926619D01*
X214528495Y-65926619D02*
X215004685Y-65926619D01*
X215004685Y-65926619D02*
X215052304Y-66402809D01*
X215052304Y-66402809D02*
X215004685Y-66355190D01*
X215004685Y-66355190D02*
X214909447Y-66307571D01*
X214909447Y-66307571D02*
X214671352Y-66307571D01*
X214671352Y-66307571D02*
X214576114Y-66355190D01*
X214576114Y-66355190D02*
X214528495Y-66402809D01*
X214528495Y-66402809D02*
X214480876Y-66498047D01*
X214480876Y-66498047D02*
X214480876Y-66736142D01*
X214480876Y-66736142D02*
X214528495Y-66831380D01*
X214528495Y-66831380D02*
X214576114Y-66879000D01*
X214576114Y-66879000D02*
X214671352Y-66926619D01*
X214671352Y-66926619D02*
X214909447Y-66926619D01*
X214909447Y-66926619D02*
X215004685Y-66879000D01*
X215004685Y-66879000D02*
X215052304Y-66831380D01*
X206560657Y-72209819D02*
X206893990Y-71733628D01*
X207132085Y-72209819D02*
X207132085Y-71209819D01*
X207132085Y-71209819D02*
X206751133Y-71209819D01*
X206751133Y-71209819D02*
X206655895Y-71257438D01*
X206655895Y-71257438D02*
X206608276Y-71305057D01*
X206608276Y-71305057D02*
X206560657Y-71400295D01*
X206560657Y-71400295D02*
X206560657Y-71543152D01*
X206560657Y-71543152D02*
X206608276Y-71638390D01*
X206608276Y-71638390D02*
X206655895Y-71686009D01*
X206655895Y-71686009D02*
X206751133Y-71733628D01*
X206751133Y-71733628D02*
X207132085Y-71733628D01*
X205608276Y-72209819D02*
X206179704Y-72209819D01*
X205893990Y-72209819D02*
X205893990Y-71209819D01*
X205893990Y-71209819D02*
X205989228Y-71352676D01*
X205989228Y-71352676D02*
X206084466Y-71447914D01*
X206084466Y-71447914D02*
X206179704Y-71495533D01*
X204751133Y-71209819D02*
X204941609Y-71209819D01*
X204941609Y-71209819D02*
X205036847Y-71257438D01*
X205036847Y-71257438D02*
X205084466Y-71305057D01*
X205084466Y-71305057D02*
X205179704Y-71447914D01*
X205179704Y-71447914D02*
X205227323Y-71638390D01*
X205227323Y-71638390D02*
X205227323Y-72019342D01*
X205227323Y-72019342D02*
X205179704Y-72114580D01*
X205179704Y-72114580D02*
X205132085Y-72162200D01*
X205132085Y-72162200D02*
X205036847Y-72209819D01*
X205036847Y-72209819D02*
X204846371Y-72209819D01*
X204846371Y-72209819D02*
X204751133Y-72162200D01*
X204751133Y-72162200D02*
X204703514Y-72114580D01*
X204703514Y-72114580D02*
X204655895Y-72019342D01*
X204655895Y-72019342D02*
X204655895Y-71781247D01*
X204655895Y-71781247D02*
X204703514Y-71686009D01*
X204703514Y-71686009D02*
X204751133Y-71638390D01*
X204751133Y-71638390D02*
X204846371Y-71590771D01*
X204846371Y-71590771D02*
X205036847Y-71590771D01*
X205036847Y-71590771D02*
X205132085Y-71638390D01*
X205132085Y-71638390D02*
X205179704Y-71686009D01*
X205179704Y-71686009D02*
X205227323Y-71781247D01*
X212859857Y-71498619D02*
X213193190Y-71022428D01*
X213431285Y-71498619D02*
X213431285Y-70498619D01*
X213431285Y-70498619D02*
X213050333Y-70498619D01*
X213050333Y-70498619D02*
X212955095Y-70546238D01*
X212955095Y-70546238D02*
X212907476Y-70593857D01*
X212907476Y-70593857D02*
X212859857Y-70689095D01*
X212859857Y-70689095D02*
X212859857Y-70831952D01*
X212859857Y-70831952D02*
X212907476Y-70927190D01*
X212907476Y-70927190D02*
X212955095Y-70974809D01*
X212955095Y-70974809D02*
X213050333Y-71022428D01*
X213050333Y-71022428D02*
X213431285Y-71022428D01*
X211907476Y-71498619D02*
X212478904Y-71498619D01*
X212193190Y-71498619D02*
X212193190Y-70498619D01*
X212193190Y-70498619D02*
X212288428Y-70641476D01*
X212288428Y-70641476D02*
X212383666Y-70736714D01*
X212383666Y-70736714D02*
X212478904Y-70784333D01*
X211574142Y-70498619D02*
X210907476Y-70498619D01*
X210907476Y-70498619D02*
X211336047Y-71498619D01*
X223610466Y-50543619D02*
X223943799Y-50067428D01*
X224181894Y-50543619D02*
X224181894Y-49543619D01*
X224181894Y-49543619D02*
X223800942Y-49543619D01*
X223800942Y-49543619D02*
X223705704Y-49591238D01*
X223705704Y-49591238D02*
X223658085Y-49638857D01*
X223658085Y-49638857D02*
X223610466Y-49734095D01*
X223610466Y-49734095D02*
X223610466Y-49876952D01*
X223610466Y-49876952D02*
X223658085Y-49972190D01*
X223658085Y-49972190D02*
X223705704Y-50019809D01*
X223705704Y-50019809D02*
X223800942Y-50067428D01*
X223800942Y-50067428D02*
X224181894Y-50067428D01*
X222705704Y-49543619D02*
X223181894Y-49543619D01*
X223181894Y-49543619D02*
X223229513Y-50019809D01*
X223229513Y-50019809D02*
X223181894Y-49972190D01*
X223181894Y-49972190D02*
X223086656Y-49924571D01*
X223086656Y-49924571D02*
X222848561Y-49924571D01*
X222848561Y-49924571D02*
X222753323Y-49972190D01*
X222753323Y-49972190D02*
X222705704Y-50019809D01*
X222705704Y-50019809D02*
X222658085Y-50115047D01*
X222658085Y-50115047D02*
X222658085Y-50353142D01*
X222658085Y-50353142D02*
X222705704Y-50448380D01*
X222705704Y-50448380D02*
X222753323Y-50496000D01*
X222753323Y-50496000D02*
X222848561Y-50543619D01*
X222848561Y-50543619D02*
X223086656Y-50543619D01*
X223086656Y-50543619D02*
X223181894Y-50496000D01*
X223181894Y-50496000D02*
X223229513Y-50448380D01*
X226174404Y-97292319D02*
X226174404Y-98101842D01*
X226174404Y-98101842D02*
X226126785Y-98197080D01*
X226126785Y-98197080D02*
X226079166Y-98244700D01*
X226079166Y-98244700D02*
X225983928Y-98292319D01*
X225983928Y-98292319D02*
X225793452Y-98292319D01*
X225793452Y-98292319D02*
X225698214Y-98244700D01*
X225698214Y-98244700D02*
X225650595Y-98197080D01*
X225650595Y-98197080D02*
X225602976Y-98101842D01*
X225602976Y-98101842D02*
X225602976Y-97292319D01*
X224698214Y-97625652D02*
X224698214Y-98292319D01*
X224936309Y-97244700D02*
X225174404Y-97958985D01*
X225174404Y-97958985D02*
X224555357Y-97958985D01*
X206541666Y-67136180D02*
X206589285Y-67183800D01*
X206589285Y-67183800D02*
X206732142Y-67231419D01*
X206732142Y-67231419D02*
X206827380Y-67231419D01*
X206827380Y-67231419D02*
X206970237Y-67183800D01*
X206970237Y-67183800D02*
X207065475Y-67088561D01*
X207065475Y-67088561D02*
X207113094Y-66993323D01*
X207113094Y-66993323D02*
X207160713Y-66802847D01*
X207160713Y-66802847D02*
X207160713Y-66659990D01*
X207160713Y-66659990D02*
X207113094Y-66469514D01*
X207113094Y-66469514D02*
X207065475Y-66374276D01*
X207065475Y-66374276D02*
X206970237Y-66279038D01*
X206970237Y-66279038D02*
X206827380Y-66231419D01*
X206827380Y-66231419D02*
X206732142Y-66231419D01*
X206732142Y-66231419D02*
X206589285Y-66279038D01*
X206589285Y-66279038D02*
X206541666Y-66326657D01*
X206160713Y-66326657D02*
X206113094Y-66279038D01*
X206113094Y-66279038D02*
X206017856Y-66231419D01*
X206017856Y-66231419D02*
X205779761Y-66231419D01*
X205779761Y-66231419D02*
X205684523Y-66279038D01*
X205684523Y-66279038D02*
X205636904Y-66326657D01*
X205636904Y-66326657D02*
X205589285Y-66421895D01*
X205589285Y-66421895D02*
X205589285Y-66517133D01*
X205589285Y-66517133D02*
X205636904Y-66659990D01*
X205636904Y-66659990D02*
X206208332Y-67231419D01*
X206208332Y-67231419D02*
X205589285Y-67231419D01*
X215412857Y-92454819D02*
X215746190Y-91978628D01*
X215984285Y-92454819D02*
X215984285Y-91454819D01*
X215984285Y-91454819D02*
X215603333Y-91454819D01*
X215603333Y-91454819D02*
X215508095Y-91502438D01*
X215508095Y-91502438D02*
X215460476Y-91550057D01*
X215460476Y-91550057D02*
X215412857Y-91645295D01*
X215412857Y-91645295D02*
X215412857Y-91788152D01*
X215412857Y-91788152D02*
X215460476Y-91883390D01*
X215460476Y-91883390D02*
X215508095Y-91931009D01*
X215508095Y-91931009D02*
X215603333Y-91978628D01*
X215603333Y-91978628D02*
X215984285Y-91978628D01*
X215031904Y-91550057D02*
X214984285Y-91502438D01*
X214984285Y-91502438D02*
X214889047Y-91454819D01*
X214889047Y-91454819D02*
X214650952Y-91454819D01*
X214650952Y-91454819D02*
X214555714Y-91502438D01*
X214555714Y-91502438D02*
X214508095Y-91550057D01*
X214508095Y-91550057D02*
X214460476Y-91645295D01*
X214460476Y-91645295D02*
X214460476Y-91740533D01*
X214460476Y-91740533D02*
X214508095Y-91883390D01*
X214508095Y-91883390D02*
X215079523Y-92454819D01*
X215079523Y-92454819D02*
X214460476Y-92454819D01*
X214127142Y-91454819D02*
X213460476Y-91454819D01*
X213460476Y-91454819D02*
X213889047Y-92454819D01*
X213653666Y-63877380D02*
X213701285Y-63925000D01*
X213701285Y-63925000D02*
X213844142Y-63972619D01*
X213844142Y-63972619D02*
X213939380Y-63972619D01*
X213939380Y-63972619D02*
X214082237Y-63925000D01*
X214082237Y-63925000D02*
X214177475Y-63829761D01*
X214177475Y-63829761D02*
X214225094Y-63734523D01*
X214225094Y-63734523D02*
X214272713Y-63544047D01*
X214272713Y-63544047D02*
X214272713Y-63401190D01*
X214272713Y-63401190D02*
X214225094Y-63210714D01*
X214225094Y-63210714D02*
X214177475Y-63115476D01*
X214177475Y-63115476D02*
X214082237Y-63020238D01*
X214082237Y-63020238D02*
X213939380Y-62972619D01*
X213939380Y-62972619D02*
X213844142Y-62972619D01*
X213844142Y-62972619D02*
X213701285Y-63020238D01*
X213701285Y-63020238D02*
X213653666Y-63067857D01*
X213177475Y-63972619D02*
X212986999Y-63972619D01*
X212986999Y-63972619D02*
X212891761Y-63925000D01*
X212891761Y-63925000D02*
X212844142Y-63877380D01*
X212844142Y-63877380D02*
X212748904Y-63734523D01*
X212748904Y-63734523D02*
X212701285Y-63544047D01*
X212701285Y-63544047D02*
X212701285Y-63163095D01*
X212701285Y-63163095D02*
X212748904Y-63067857D01*
X212748904Y-63067857D02*
X212796523Y-63020238D01*
X212796523Y-63020238D02*
X212891761Y-62972619D01*
X212891761Y-62972619D02*
X213082237Y-62972619D01*
X213082237Y-62972619D02*
X213177475Y-63020238D01*
X213177475Y-63020238D02*
X213225094Y-63067857D01*
X213225094Y-63067857D02*
X213272713Y-63163095D01*
X213272713Y-63163095D02*
X213272713Y-63401190D01*
X213272713Y-63401190D02*
X213225094Y-63496428D01*
X213225094Y-63496428D02*
X213177475Y-63544047D01*
X213177475Y-63544047D02*
X213082237Y-63591666D01*
X213082237Y-63591666D02*
X212891761Y-63591666D01*
X212891761Y-63591666D02*
X212796523Y-63544047D01*
X212796523Y-63544047D02*
X212748904Y-63496428D01*
X212748904Y-63496428D02*
X212701285Y-63401190D01*
X211106057Y-87430780D02*
X211153676Y-87478400D01*
X211153676Y-87478400D02*
X211296533Y-87526019D01*
X211296533Y-87526019D02*
X211391771Y-87526019D01*
X211391771Y-87526019D02*
X211534628Y-87478400D01*
X211534628Y-87478400D02*
X211629866Y-87383161D01*
X211629866Y-87383161D02*
X211677485Y-87287923D01*
X211677485Y-87287923D02*
X211725104Y-87097447D01*
X211725104Y-87097447D02*
X211725104Y-86954590D01*
X211725104Y-86954590D02*
X211677485Y-86764114D01*
X211677485Y-86764114D02*
X211629866Y-86668876D01*
X211629866Y-86668876D02*
X211534628Y-86573638D01*
X211534628Y-86573638D02*
X211391771Y-86526019D01*
X211391771Y-86526019D02*
X211296533Y-86526019D01*
X211296533Y-86526019D02*
X211153676Y-86573638D01*
X211153676Y-86573638D02*
X211106057Y-86621257D01*
X210725104Y-86621257D02*
X210677485Y-86573638D01*
X210677485Y-86573638D02*
X210582247Y-86526019D01*
X210582247Y-86526019D02*
X210344152Y-86526019D01*
X210344152Y-86526019D02*
X210248914Y-86573638D01*
X210248914Y-86573638D02*
X210201295Y-86621257D01*
X210201295Y-86621257D02*
X210153676Y-86716495D01*
X210153676Y-86716495D02*
X210153676Y-86811733D01*
X210153676Y-86811733D02*
X210201295Y-86954590D01*
X210201295Y-86954590D02*
X210772723Y-87526019D01*
X210772723Y-87526019D02*
X210153676Y-87526019D01*
X209534628Y-86526019D02*
X209439390Y-86526019D01*
X209439390Y-86526019D02*
X209344152Y-86573638D01*
X209344152Y-86573638D02*
X209296533Y-86621257D01*
X209296533Y-86621257D02*
X209248914Y-86716495D01*
X209248914Y-86716495D02*
X209201295Y-86906971D01*
X209201295Y-86906971D02*
X209201295Y-87145066D01*
X209201295Y-87145066D02*
X209248914Y-87335542D01*
X209248914Y-87335542D02*
X209296533Y-87430780D01*
X209296533Y-87430780D02*
X209344152Y-87478400D01*
X209344152Y-87478400D02*
X209439390Y-87526019D01*
X209439390Y-87526019D02*
X209534628Y-87526019D01*
X209534628Y-87526019D02*
X209629866Y-87478400D01*
X209629866Y-87478400D02*
X209677485Y-87430780D01*
X209677485Y-87430780D02*
X209725104Y-87335542D01*
X209725104Y-87335542D02*
X209772723Y-87145066D01*
X209772723Y-87145066D02*
X209772723Y-86906971D01*
X209772723Y-86906971D02*
X209725104Y-86716495D01*
X209725104Y-86716495D02*
X209677485Y-86621257D01*
X209677485Y-86621257D02*
X209629866Y-86573638D01*
X209629866Y-86573638D02*
X209534628Y-86526019D01*
X223985057Y-77874019D02*
X224318390Y-77397828D01*
X224556485Y-77874019D02*
X224556485Y-76874019D01*
X224556485Y-76874019D02*
X224175533Y-76874019D01*
X224175533Y-76874019D02*
X224080295Y-76921638D01*
X224080295Y-76921638D02*
X224032676Y-76969257D01*
X224032676Y-76969257D02*
X223985057Y-77064495D01*
X223985057Y-77064495D02*
X223985057Y-77207352D01*
X223985057Y-77207352D02*
X224032676Y-77302590D01*
X224032676Y-77302590D02*
X224080295Y-77350209D01*
X224080295Y-77350209D02*
X224175533Y-77397828D01*
X224175533Y-77397828D02*
X224556485Y-77397828D01*
X223032676Y-77874019D02*
X223604104Y-77874019D01*
X223318390Y-77874019D02*
X223318390Y-76874019D01*
X223318390Y-76874019D02*
X223413628Y-77016876D01*
X223413628Y-77016876D02*
X223508866Y-77112114D01*
X223508866Y-77112114D02*
X223604104Y-77159733D01*
X222556485Y-77874019D02*
X222366009Y-77874019D01*
X222366009Y-77874019D02*
X222270771Y-77826400D01*
X222270771Y-77826400D02*
X222223152Y-77778780D01*
X222223152Y-77778780D02*
X222127914Y-77635923D01*
X222127914Y-77635923D02*
X222080295Y-77445447D01*
X222080295Y-77445447D02*
X222080295Y-77064495D01*
X222080295Y-77064495D02*
X222127914Y-76969257D01*
X222127914Y-76969257D02*
X222175533Y-76921638D01*
X222175533Y-76921638D02*
X222270771Y-76874019D01*
X222270771Y-76874019D02*
X222461247Y-76874019D01*
X222461247Y-76874019D02*
X222556485Y-76921638D01*
X222556485Y-76921638D02*
X222604104Y-76969257D01*
X222604104Y-76969257D02*
X222651723Y-77064495D01*
X222651723Y-77064495D02*
X222651723Y-77302590D01*
X222651723Y-77302590D02*
X222604104Y-77397828D01*
X222604104Y-77397828D02*
X222556485Y-77445447D01*
X222556485Y-77445447D02*
X222461247Y-77493066D01*
X222461247Y-77493066D02*
X222270771Y-77493066D01*
X222270771Y-77493066D02*
X222175533Y-77445447D01*
X222175533Y-77445447D02*
X222127914Y-77397828D01*
X222127914Y-77397828D02*
X222080295Y-77302590D01*
X208602857Y-91959580D02*
X208650476Y-92007200D01*
X208650476Y-92007200D02*
X208793333Y-92054819D01*
X208793333Y-92054819D02*
X208888571Y-92054819D01*
X208888571Y-92054819D02*
X209031428Y-92007200D01*
X209031428Y-92007200D02*
X209126666Y-91911961D01*
X209126666Y-91911961D02*
X209174285Y-91816723D01*
X209174285Y-91816723D02*
X209221904Y-91626247D01*
X209221904Y-91626247D02*
X209221904Y-91483390D01*
X209221904Y-91483390D02*
X209174285Y-91292914D01*
X209174285Y-91292914D02*
X209126666Y-91197676D01*
X209126666Y-91197676D02*
X209031428Y-91102438D01*
X209031428Y-91102438D02*
X208888571Y-91054819D01*
X208888571Y-91054819D02*
X208793333Y-91054819D01*
X208793333Y-91054819D02*
X208650476Y-91102438D01*
X208650476Y-91102438D02*
X208602857Y-91150057D01*
X207650476Y-92054819D02*
X208221904Y-92054819D01*
X207936190Y-92054819D02*
X207936190Y-91054819D01*
X207936190Y-91054819D02*
X208031428Y-91197676D01*
X208031428Y-91197676D02*
X208126666Y-91292914D01*
X208126666Y-91292914D02*
X208221904Y-91340533D01*
X206793333Y-91054819D02*
X206983809Y-91054819D01*
X206983809Y-91054819D02*
X207079047Y-91102438D01*
X207079047Y-91102438D02*
X207126666Y-91150057D01*
X207126666Y-91150057D02*
X207221904Y-91292914D01*
X207221904Y-91292914D02*
X207269523Y-91483390D01*
X207269523Y-91483390D02*
X207269523Y-91864342D01*
X207269523Y-91864342D02*
X207221904Y-91959580D01*
X207221904Y-91959580D02*
X207174285Y-92007200D01*
X207174285Y-92007200D02*
X207079047Y-92054819D01*
X207079047Y-92054819D02*
X206888571Y-92054819D01*
X206888571Y-92054819D02*
X206793333Y-92007200D01*
X206793333Y-92007200D02*
X206745714Y-91959580D01*
X206745714Y-91959580D02*
X206698095Y-91864342D01*
X206698095Y-91864342D02*
X206698095Y-91626247D01*
X206698095Y-91626247D02*
X206745714Y-91531009D01*
X206745714Y-91531009D02*
X206793333Y-91483390D01*
X206793333Y-91483390D02*
X206888571Y-91435771D01*
X206888571Y-91435771D02*
X207079047Y-91435771D01*
X207079047Y-91435771D02*
X207174285Y-91483390D01*
X207174285Y-91483390D02*
X207221904Y-91531009D01*
X207221904Y-91531009D02*
X207269523Y-91626247D01*
X210394466Y-77778780D02*
X210442085Y-77826400D01*
X210442085Y-77826400D02*
X210584942Y-77874019D01*
X210584942Y-77874019D02*
X210680180Y-77874019D01*
X210680180Y-77874019D02*
X210823037Y-77826400D01*
X210823037Y-77826400D02*
X210918275Y-77731161D01*
X210918275Y-77731161D02*
X210965894Y-77635923D01*
X210965894Y-77635923D02*
X211013513Y-77445447D01*
X211013513Y-77445447D02*
X211013513Y-77302590D01*
X211013513Y-77302590D02*
X210965894Y-77112114D01*
X210965894Y-77112114D02*
X210918275Y-77016876D01*
X210918275Y-77016876D02*
X210823037Y-76921638D01*
X210823037Y-76921638D02*
X210680180Y-76874019D01*
X210680180Y-76874019D02*
X210584942Y-76874019D01*
X210584942Y-76874019D02*
X210442085Y-76921638D01*
X210442085Y-76921638D02*
X210394466Y-76969257D01*
X210061132Y-76874019D02*
X209394466Y-76874019D01*
X209394466Y-76874019D02*
X209823037Y-77874019D01*
X224010457Y-76172219D02*
X224343790Y-75696028D01*
X224581885Y-76172219D02*
X224581885Y-75172219D01*
X224581885Y-75172219D02*
X224200933Y-75172219D01*
X224200933Y-75172219D02*
X224105695Y-75219838D01*
X224105695Y-75219838D02*
X224058076Y-75267457D01*
X224058076Y-75267457D02*
X224010457Y-75362695D01*
X224010457Y-75362695D02*
X224010457Y-75505552D01*
X224010457Y-75505552D02*
X224058076Y-75600790D01*
X224058076Y-75600790D02*
X224105695Y-75648409D01*
X224105695Y-75648409D02*
X224200933Y-75696028D01*
X224200933Y-75696028D02*
X224581885Y-75696028D01*
X223058076Y-76172219D02*
X223629504Y-76172219D01*
X223343790Y-76172219D02*
X223343790Y-75172219D01*
X223343790Y-75172219D02*
X223439028Y-75315076D01*
X223439028Y-75315076D02*
X223534266Y-75410314D01*
X223534266Y-75410314D02*
X223629504Y-75457933D01*
X222200933Y-75505552D02*
X222200933Y-76172219D01*
X222439028Y-75124600D02*
X222677123Y-75838885D01*
X222677123Y-75838885D02*
X222058076Y-75838885D01*
X202166457Y-93044180D02*
X202214076Y-93091800D01*
X202214076Y-93091800D02*
X202356933Y-93139419D01*
X202356933Y-93139419D02*
X202452171Y-93139419D01*
X202452171Y-93139419D02*
X202595028Y-93091800D01*
X202595028Y-93091800D02*
X202690266Y-92996561D01*
X202690266Y-92996561D02*
X202737885Y-92901323D01*
X202737885Y-92901323D02*
X202785504Y-92710847D01*
X202785504Y-92710847D02*
X202785504Y-92567990D01*
X202785504Y-92567990D02*
X202737885Y-92377514D01*
X202737885Y-92377514D02*
X202690266Y-92282276D01*
X202690266Y-92282276D02*
X202595028Y-92187038D01*
X202595028Y-92187038D02*
X202452171Y-92139419D01*
X202452171Y-92139419D02*
X202356933Y-92139419D01*
X202356933Y-92139419D02*
X202214076Y-92187038D01*
X202214076Y-92187038D02*
X202166457Y-92234657D01*
X201785504Y-92234657D02*
X201737885Y-92187038D01*
X201737885Y-92187038D02*
X201642647Y-92139419D01*
X201642647Y-92139419D02*
X201404552Y-92139419D01*
X201404552Y-92139419D02*
X201309314Y-92187038D01*
X201309314Y-92187038D02*
X201261695Y-92234657D01*
X201261695Y-92234657D02*
X201214076Y-92329895D01*
X201214076Y-92329895D02*
X201214076Y-92425133D01*
X201214076Y-92425133D02*
X201261695Y-92567990D01*
X201261695Y-92567990D02*
X201833123Y-93139419D01*
X201833123Y-93139419D02*
X201214076Y-93139419D01*
X200261695Y-93139419D02*
X200833123Y-93139419D01*
X200547409Y-93139419D02*
X200547409Y-92139419D01*
X200547409Y-92139419D02*
X200642647Y-92282276D01*
X200642647Y-92282276D02*
X200737885Y-92377514D01*
X200737885Y-92377514D02*
X200833123Y-92425133D01*
X203792057Y-86129019D02*
X204125390Y-85652828D01*
X204363485Y-86129019D02*
X204363485Y-85129019D01*
X204363485Y-85129019D02*
X203982533Y-85129019D01*
X203982533Y-85129019D02*
X203887295Y-85176638D01*
X203887295Y-85176638D02*
X203839676Y-85224257D01*
X203839676Y-85224257D02*
X203792057Y-85319495D01*
X203792057Y-85319495D02*
X203792057Y-85462352D01*
X203792057Y-85462352D02*
X203839676Y-85557590D01*
X203839676Y-85557590D02*
X203887295Y-85605209D01*
X203887295Y-85605209D02*
X203982533Y-85652828D01*
X203982533Y-85652828D02*
X204363485Y-85652828D01*
X203411104Y-85224257D02*
X203363485Y-85176638D01*
X203363485Y-85176638D02*
X203268247Y-85129019D01*
X203268247Y-85129019D02*
X203030152Y-85129019D01*
X203030152Y-85129019D02*
X202934914Y-85176638D01*
X202934914Y-85176638D02*
X202887295Y-85224257D01*
X202887295Y-85224257D02*
X202839676Y-85319495D01*
X202839676Y-85319495D02*
X202839676Y-85414733D01*
X202839676Y-85414733D02*
X202887295Y-85557590D01*
X202887295Y-85557590D02*
X203458723Y-86129019D01*
X203458723Y-86129019D02*
X202839676Y-86129019D01*
X202268247Y-85557590D02*
X202363485Y-85509971D01*
X202363485Y-85509971D02*
X202411104Y-85462352D01*
X202411104Y-85462352D02*
X202458723Y-85367114D01*
X202458723Y-85367114D02*
X202458723Y-85319495D01*
X202458723Y-85319495D02*
X202411104Y-85224257D01*
X202411104Y-85224257D02*
X202363485Y-85176638D01*
X202363485Y-85176638D02*
X202268247Y-85129019D01*
X202268247Y-85129019D02*
X202077771Y-85129019D01*
X202077771Y-85129019D02*
X201982533Y-85176638D01*
X201982533Y-85176638D02*
X201934914Y-85224257D01*
X201934914Y-85224257D02*
X201887295Y-85319495D01*
X201887295Y-85319495D02*
X201887295Y-85367114D01*
X201887295Y-85367114D02*
X201934914Y-85462352D01*
X201934914Y-85462352D02*
X201982533Y-85509971D01*
X201982533Y-85509971D02*
X202077771Y-85557590D01*
X202077771Y-85557590D02*
X202268247Y-85557590D01*
X202268247Y-85557590D02*
X202363485Y-85605209D01*
X202363485Y-85605209D02*
X202411104Y-85652828D01*
X202411104Y-85652828D02*
X202458723Y-85748066D01*
X202458723Y-85748066D02*
X202458723Y-85938542D01*
X202458723Y-85938542D02*
X202411104Y-86033780D01*
X202411104Y-86033780D02*
X202363485Y-86081400D01*
X202363485Y-86081400D02*
X202268247Y-86129019D01*
X202268247Y-86129019D02*
X202077771Y-86129019D01*
X202077771Y-86129019D02*
X201982533Y-86081400D01*
X201982533Y-86081400D02*
X201934914Y-86033780D01*
X201934914Y-86033780D02*
X201887295Y-85938542D01*
X201887295Y-85938542D02*
X201887295Y-85748066D01*
X201887295Y-85748066D02*
X201934914Y-85652828D01*
X201934914Y-85652828D02*
X201982533Y-85605209D01*
X201982533Y-85605209D02*
X202077771Y-85557590D01*
X223316704Y-58052619D02*
X223316704Y-58862142D01*
X223316704Y-58862142D02*
X223269085Y-58957380D01*
X223269085Y-58957380D02*
X223221466Y-59005000D01*
X223221466Y-59005000D02*
X223126228Y-59052619D01*
X223126228Y-59052619D02*
X222935752Y-59052619D01*
X222935752Y-59052619D02*
X222840514Y-59005000D01*
X222840514Y-59005000D02*
X222792895Y-58957380D01*
X222792895Y-58957380D02*
X222745276Y-58862142D01*
X222745276Y-58862142D02*
X222745276Y-58052619D01*
X221745276Y-59052619D02*
X222316704Y-59052619D01*
X222030990Y-59052619D02*
X222030990Y-58052619D01*
X222030990Y-58052619D02*
X222126228Y-58195476D01*
X222126228Y-58195476D02*
X222221466Y-58290714D01*
X222221466Y-58290714D02*
X222316704Y-58338333D01*
X202369657Y-81410980D02*
X202417276Y-81458600D01*
X202417276Y-81458600D02*
X202560133Y-81506219D01*
X202560133Y-81506219D02*
X202655371Y-81506219D01*
X202655371Y-81506219D02*
X202798228Y-81458600D01*
X202798228Y-81458600D02*
X202893466Y-81363361D01*
X202893466Y-81363361D02*
X202941085Y-81268123D01*
X202941085Y-81268123D02*
X202988704Y-81077647D01*
X202988704Y-81077647D02*
X202988704Y-80934790D01*
X202988704Y-80934790D02*
X202941085Y-80744314D01*
X202941085Y-80744314D02*
X202893466Y-80649076D01*
X202893466Y-80649076D02*
X202798228Y-80553838D01*
X202798228Y-80553838D02*
X202655371Y-80506219D01*
X202655371Y-80506219D02*
X202560133Y-80506219D01*
X202560133Y-80506219D02*
X202417276Y-80553838D01*
X202417276Y-80553838D02*
X202369657Y-80601457D01*
X201417276Y-81506219D02*
X201988704Y-81506219D01*
X201702990Y-81506219D02*
X201702990Y-80506219D01*
X201702990Y-80506219D02*
X201798228Y-80649076D01*
X201798228Y-80649076D02*
X201893466Y-80744314D01*
X201893466Y-80744314D02*
X201988704Y-80791933D01*
X201083942Y-80506219D02*
X200417276Y-80506219D01*
X200417276Y-80506219D02*
X200845847Y-81506219D01*
X222892857Y-93088619D02*
X223226190Y-92612428D01*
X223464285Y-93088619D02*
X223464285Y-92088619D01*
X223464285Y-92088619D02*
X223083333Y-92088619D01*
X223083333Y-92088619D02*
X222988095Y-92136238D01*
X222988095Y-92136238D02*
X222940476Y-92183857D01*
X222940476Y-92183857D02*
X222892857Y-92279095D01*
X222892857Y-92279095D02*
X222892857Y-92421952D01*
X222892857Y-92421952D02*
X222940476Y-92517190D01*
X222940476Y-92517190D02*
X222988095Y-92564809D01*
X222988095Y-92564809D02*
X223083333Y-92612428D01*
X223083333Y-92612428D02*
X223464285Y-92612428D01*
X221940476Y-93088619D02*
X222511904Y-93088619D01*
X222226190Y-93088619D02*
X222226190Y-92088619D01*
X222226190Y-92088619D02*
X222321428Y-92231476D01*
X222321428Y-92231476D02*
X222416666Y-92326714D01*
X222416666Y-92326714D02*
X222511904Y-92374333D01*
X221321428Y-92088619D02*
X221226190Y-92088619D01*
X221226190Y-92088619D02*
X221130952Y-92136238D01*
X221130952Y-92136238D02*
X221083333Y-92183857D01*
X221083333Y-92183857D02*
X221035714Y-92279095D01*
X221035714Y-92279095D02*
X220988095Y-92469571D01*
X220988095Y-92469571D02*
X220988095Y-92707666D01*
X220988095Y-92707666D02*
X221035714Y-92898142D01*
X221035714Y-92898142D02*
X221083333Y-92993380D01*
X221083333Y-92993380D02*
X221130952Y-93041000D01*
X221130952Y-93041000D02*
X221226190Y-93088619D01*
X221226190Y-93088619D02*
X221321428Y-93088619D01*
X221321428Y-93088619D02*
X221416666Y-93041000D01*
X221416666Y-93041000D02*
X221464285Y-92993380D01*
X221464285Y-92993380D02*
X221511904Y-92898142D01*
X221511904Y-92898142D02*
X221559523Y-92707666D01*
X221559523Y-92707666D02*
X221559523Y-92469571D01*
X221559523Y-92469571D02*
X221511904Y-92279095D01*
X221511904Y-92279095D02*
X221464285Y-92183857D01*
X221464285Y-92183857D02*
X221416666Y-92136238D01*
X221416666Y-92136238D02*
X221321428Y-92088619D01*
X206567066Y-68910619D02*
X206900399Y-68434428D01*
X207138494Y-68910619D02*
X207138494Y-67910619D01*
X207138494Y-67910619D02*
X206757542Y-67910619D01*
X206757542Y-67910619D02*
X206662304Y-67958238D01*
X206662304Y-67958238D02*
X206614685Y-68005857D01*
X206614685Y-68005857D02*
X206567066Y-68101095D01*
X206567066Y-68101095D02*
X206567066Y-68243952D01*
X206567066Y-68243952D02*
X206614685Y-68339190D01*
X206614685Y-68339190D02*
X206662304Y-68386809D01*
X206662304Y-68386809D02*
X206757542Y-68434428D01*
X206757542Y-68434428D02*
X207138494Y-68434428D01*
X206233732Y-67910619D02*
X205614685Y-67910619D01*
X205614685Y-67910619D02*
X205948018Y-68291571D01*
X205948018Y-68291571D02*
X205805161Y-68291571D01*
X205805161Y-68291571D02*
X205709923Y-68339190D01*
X205709923Y-68339190D02*
X205662304Y-68386809D01*
X205662304Y-68386809D02*
X205614685Y-68482047D01*
X205614685Y-68482047D02*
X205614685Y-68720142D01*
X205614685Y-68720142D02*
X205662304Y-68815380D01*
X205662304Y-68815380D02*
X205709923Y-68863000D01*
X205709923Y-68863000D02*
X205805161Y-68910619D01*
X205805161Y-68910619D02*
X206090875Y-68910619D01*
X206090875Y-68910619D02*
X206186113Y-68863000D01*
X206186113Y-68863000D02*
X206233732Y-68815380D01*
X230189066Y-55223580D02*
X230236685Y-55271200D01*
X230236685Y-55271200D02*
X230379542Y-55318819D01*
X230379542Y-55318819D02*
X230474780Y-55318819D01*
X230474780Y-55318819D02*
X230617637Y-55271200D01*
X230617637Y-55271200D02*
X230712875Y-55175961D01*
X230712875Y-55175961D02*
X230760494Y-55080723D01*
X230760494Y-55080723D02*
X230808113Y-54890247D01*
X230808113Y-54890247D02*
X230808113Y-54747390D01*
X230808113Y-54747390D02*
X230760494Y-54556914D01*
X230760494Y-54556914D02*
X230712875Y-54461676D01*
X230712875Y-54461676D02*
X230617637Y-54366438D01*
X230617637Y-54366438D02*
X230474780Y-54318819D01*
X230474780Y-54318819D02*
X230379542Y-54318819D01*
X230379542Y-54318819D02*
X230236685Y-54366438D01*
X230236685Y-54366438D02*
X230189066Y-54414057D01*
X229236685Y-55318819D02*
X229808113Y-55318819D01*
X229522399Y-55318819D02*
X229522399Y-54318819D01*
X229522399Y-54318819D02*
X229617637Y-54461676D01*
X229617637Y-54461676D02*
X229712875Y-54556914D01*
X229712875Y-54556914D02*
X229808113Y-54604533D01*
X223985057Y-74521219D02*
X224318390Y-74045028D01*
X224556485Y-74521219D02*
X224556485Y-73521219D01*
X224556485Y-73521219D02*
X224175533Y-73521219D01*
X224175533Y-73521219D02*
X224080295Y-73568838D01*
X224080295Y-73568838D02*
X224032676Y-73616457D01*
X224032676Y-73616457D02*
X223985057Y-73711695D01*
X223985057Y-73711695D02*
X223985057Y-73854552D01*
X223985057Y-73854552D02*
X224032676Y-73949790D01*
X224032676Y-73949790D02*
X224080295Y-73997409D01*
X224080295Y-73997409D02*
X224175533Y-74045028D01*
X224175533Y-74045028D02*
X224556485Y-74045028D01*
X223032676Y-74521219D02*
X223604104Y-74521219D01*
X223318390Y-74521219D02*
X223318390Y-73521219D01*
X223318390Y-73521219D02*
X223413628Y-73664076D01*
X223413628Y-73664076D02*
X223508866Y-73759314D01*
X223508866Y-73759314D02*
X223604104Y-73806933D01*
X222699342Y-73521219D02*
X222080295Y-73521219D01*
X222080295Y-73521219D02*
X222413628Y-73902171D01*
X222413628Y-73902171D02*
X222270771Y-73902171D01*
X222270771Y-73902171D02*
X222175533Y-73949790D01*
X222175533Y-73949790D02*
X222127914Y-73997409D01*
X222127914Y-73997409D02*
X222080295Y-74092647D01*
X222080295Y-74092647D02*
X222080295Y-74330742D01*
X222080295Y-74330742D02*
X222127914Y-74425980D01*
X222127914Y-74425980D02*
X222175533Y-74473600D01*
X222175533Y-74473600D02*
X222270771Y-74521219D01*
X222270771Y-74521219D02*
X222556485Y-74521219D01*
X222556485Y-74521219D02*
X222651723Y-74473600D01*
X222651723Y-74473600D02*
X222699342Y-74425980D01*
X223610466Y-53286819D02*
X223943799Y-52810628D01*
X224181894Y-53286819D02*
X224181894Y-52286819D01*
X224181894Y-52286819D02*
X223800942Y-52286819D01*
X223800942Y-52286819D02*
X223705704Y-52334438D01*
X223705704Y-52334438D02*
X223658085Y-52382057D01*
X223658085Y-52382057D02*
X223610466Y-52477295D01*
X223610466Y-52477295D02*
X223610466Y-52620152D01*
X223610466Y-52620152D02*
X223658085Y-52715390D01*
X223658085Y-52715390D02*
X223705704Y-52763009D01*
X223705704Y-52763009D02*
X223800942Y-52810628D01*
X223800942Y-52810628D02*
X224181894Y-52810628D01*
X222753323Y-52286819D02*
X222943799Y-52286819D01*
X222943799Y-52286819D02*
X223039037Y-52334438D01*
X223039037Y-52334438D02*
X223086656Y-52382057D01*
X223086656Y-52382057D02*
X223181894Y-52524914D01*
X223181894Y-52524914D02*
X223229513Y-52715390D01*
X223229513Y-52715390D02*
X223229513Y-53096342D01*
X223229513Y-53096342D02*
X223181894Y-53191580D01*
X223181894Y-53191580D02*
X223134275Y-53239200D01*
X223134275Y-53239200D02*
X223039037Y-53286819D01*
X223039037Y-53286819D02*
X222848561Y-53286819D01*
X222848561Y-53286819D02*
X222753323Y-53239200D01*
X222753323Y-53239200D02*
X222705704Y-53191580D01*
X222705704Y-53191580D02*
X222658085Y-53096342D01*
X222658085Y-53096342D02*
X222658085Y-52858247D01*
X222658085Y-52858247D02*
X222705704Y-52763009D01*
X222705704Y-52763009D02*
X222753323Y-52715390D01*
X222753323Y-52715390D02*
X222848561Y-52667771D01*
X222848561Y-52667771D02*
X223039037Y-52667771D01*
X223039037Y-52667771D02*
X223134275Y-52715390D01*
X223134275Y-52715390D02*
X223181894Y-52763009D01*
X223181894Y-52763009D02*
X223229513Y-52858247D01*
X203690457Y-74597419D02*
X204023790Y-74121228D01*
X204261885Y-74597419D02*
X204261885Y-73597419D01*
X204261885Y-73597419D02*
X203880933Y-73597419D01*
X203880933Y-73597419D02*
X203785695Y-73645038D01*
X203785695Y-73645038D02*
X203738076Y-73692657D01*
X203738076Y-73692657D02*
X203690457Y-73787895D01*
X203690457Y-73787895D02*
X203690457Y-73930752D01*
X203690457Y-73930752D02*
X203738076Y-74025990D01*
X203738076Y-74025990D02*
X203785695Y-74073609D01*
X203785695Y-74073609D02*
X203880933Y-74121228D01*
X203880933Y-74121228D02*
X204261885Y-74121228D01*
X203309504Y-73692657D02*
X203261885Y-73645038D01*
X203261885Y-73645038D02*
X203166647Y-73597419D01*
X203166647Y-73597419D02*
X202928552Y-73597419D01*
X202928552Y-73597419D02*
X202833314Y-73645038D01*
X202833314Y-73645038D02*
X202785695Y-73692657D01*
X202785695Y-73692657D02*
X202738076Y-73787895D01*
X202738076Y-73787895D02*
X202738076Y-73883133D01*
X202738076Y-73883133D02*
X202785695Y-74025990D01*
X202785695Y-74025990D02*
X203357123Y-74597419D01*
X203357123Y-74597419D02*
X202738076Y-74597419D01*
X201833314Y-73597419D02*
X202309504Y-73597419D01*
X202309504Y-73597419D02*
X202357123Y-74073609D01*
X202357123Y-74073609D02*
X202309504Y-74025990D01*
X202309504Y-74025990D02*
X202214266Y-73978371D01*
X202214266Y-73978371D02*
X201976171Y-73978371D01*
X201976171Y-73978371D02*
X201880933Y-74025990D01*
X201880933Y-74025990D02*
X201833314Y-74073609D01*
X201833314Y-74073609D02*
X201785695Y-74168847D01*
X201785695Y-74168847D02*
X201785695Y-74406942D01*
X201785695Y-74406942D02*
X201833314Y-74502180D01*
X201833314Y-74502180D02*
X201880933Y-74549800D01*
X201880933Y-74549800D02*
X201976171Y-74597419D01*
X201976171Y-74597419D02*
X202214266Y-74597419D01*
X202214266Y-74597419D02*
X202309504Y-74549800D01*
X202309504Y-74549800D02*
X202357123Y-74502180D01*
X225566666Y-91159580D02*
X225614285Y-91207200D01*
X225614285Y-91207200D02*
X225757142Y-91254819D01*
X225757142Y-91254819D02*
X225852380Y-91254819D01*
X225852380Y-91254819D02*
X225995237Y-91207200D01*
X225995237Y-91207200D02*
X226090475Y-91111961D01*
X226090475Y-91111961D02*
X226138094Y-91016723D01*
X226138094Y-91016723D02*
X226185713Y-90826247D01*
X226185713Y-90826247D02*
X226185713Y-90683390D01*
X226185713Y-90683390D02*
X226138094Y-90492914D01*
X226138094Y-90492914D02*
X226090475Y-90397676D01*
X226090475Y-90397676D02*
X225995237Y-90302438D01*
X225995237Y-90302438D02*
X225852380Y-90254819D01*
X225852380Y-90254819D02*
X225757142Y-90254819D01*
X225757142Y-90254819D02*
X225614285Y-90302438D01*
X225614285Y-90302438D02*
X225566666Y-90350057D01*
X224995237Y-90683390D02*
X225090475Y-90635771D01*
X225090475Y-90635771D02*
X225138094Y-90588152D01*
X225138094Y-90588152D02*
X225185713Y-90492914D01*
X225185713Y-90492914D02*
X225185713Y-90445295D01*
X225185713Y-90445295D02*
X225138094Y-90350057D01*
X225138094Y-90350057D02*
X225090475Y-90302438D01*
X225090475Y-90302438D02*
X224995237Y-90254819D01*
X224995237Y-90254819D02*
X224804761Y-90254819D01*
X224804761Y-90254819D02*
X224709523Y-90302438D01*
X224709523Y-90302438D02*
X224661904Y-90350057D01*
X224661904Y-90350057D02*
X224614285Y-90445295D01*
X224614285Y-90445295D02*
X224614285Y-90492914D01*
X224614285Y-90492914D02*
X224661904Y-90588152D01*
X224661904Y-90588152D02*
X224709523Y-90635771D01*
X224709523Y-90635771D02*
X224804761Y-90683390D01*
X224804761Y-90683390D02*
X224995237Y-90683390D01*
X224995237Y-90683390D02*
X225090475Y-90731009D01*
X225090475Y-90731009D02*
X225138094Y-90778628D01*
X225138094Y-90778628D02*
X225185713Y-90873866D01*
X225185713Y-90873866D02*
X225185713Y-91064342D01*
X225185713Y-91064342D02*
X225138094Y-91159580D01*
X225138094Y-91159580D02*
X225090475Y-91207200D01*
X225090475Y-91207200D02*
X224995237Y-91254819D01*
X224995237Y-91254819D02*
X224804761Y-91254819D01*
X224804761Y-91254819D02*
X224709523Y-91207200D01*
X224709523Y-91207200D02*
X224661904Y-91159580D01*
X224661904Y-91159580D02*
X224614285Y-91064342D01*
X224614285Y-91064342D02*
X224614285Y-90873866D01*
X224614285Y-90873866D02*
X224661904Y-90778628D01*
X224661904Y-90778628D02*
X224709523Y-90731009D01*
X224709523Y-90731009D02*
X224804761Y-90683390D01*
X208232333Y-48451419D02*
X208232333Y-49165704D01*
X208232333Y-49165704D02*
X208279952Y-49308561D01*
X208279952Y-49308561D02*
X208375190Y-49403800D01*
X208375190Y-49403800D02*
X208518047Y-49451419D01*
X208518047Y-49451419D02*
X208613285Y-49451419D01*
X207232333Y-49451419D02*
X207803761Y-49451419D01*
X207518047Y-49451419D02*
X207518047Y-48451419D01*
X207518047Y-48451419D02*
X207613285Y-48594276D01*
X207613285Y-48594276D02*
X207708523Y-48689514D01*
X207708523Y-48689514D02*
X207803761Y-48737133D01*
X219990894Y-82039619D02*
X219990894Y-81039619D01*
X219990894Y-81039619D02*
X219752799Y-81039619D01*
X219752799Y-81039619D02*
X219609942Y-81087238D01*
X219609942Y-81087238D02*
X219514704Y-81182476D01*
X219514704Y-81182476D02*
X219467085Y-81277714D01*
X219467085Y-81277714D02*
X219419466Y-81468190D01*
X219419466Y-81468190D02*
X219419466Y-81611047D01*
X219419466Y-81611047D02*
X219467085Y-81801523D01*
X219467085Y-81801523D02*
X219514704Y-81896761D01*
X219514704Y-81896761D02*
X219609942Y-81992000D01*
X219609942Y-81992000D02*
X219752799Y-82039619D01*
X219752799Y-82039619D02*
X219990894Y-82039619D01*
X218562323Y-81372952D02*
X218562323Y-82039619D01*
X218800418Y-80992000D02*
X219038513Y-81706285D01*
X219038513Y-81706285D02*
X218419466Y-81706285D01*
X210289733Y-97136809D02*
X210623066Y-97136809D01*
X210623066Y-97660619D02*
X210623066Y-96660619D01*
X210623066Y-96660619D02*
X210146876Y-96660619D01*
X209242114Y-97660619D02*
X209813542Y-97660619D01*
X209527828Y-97660619D02*
X209527828Y-96660619D01*
X209527828Y-96660619D02*
X209623066Y-96803476D01*
X209623066Y-96803476D02*
X209718304Y-96898714D01*
X209718304Y-96898714D02*
X209813542Y-96946333D01*
X208642857Y-93824819D02*
X208976190Y-93348628D01*
X209214285Y-93824819D02*
X209214285Y-92824819D01*
X209214285Y-92824819D02*
X208833333Y-92824819D01*
X208833333Y-92824819D02*
X208738095Y-92872438D01*
X208738095Y-92872438D02*
X208690476Y-92920057D01*
X208690476Y-92920057D02*
X208642857Y-93015295D01*
X208642857Y-93015295D02*
X208642857Y-93158152D01*
X208642857Y-93158152D02*
X208690476Y-93253390D01*
X208690476Y-93253390D02*
X208738095Y-93301009D01*
X208738095Y-93301009D02*
X208833333Y-93348628D01*
X208833333Y-93348628D02*
X209214285Y-93348628D01*
X208261904Y-92920057D02*
X208214285Y-92872438D01*
X208214285Y-92872438D02*
X208119047Y-92824819D01*
X208119047Y-92824819D02*
X207880952Y-92824819D01*
X207880952Y-92824819D02*
X207785714Y-92872438D01*
X207785714Y-92872438D02*
X207738095Y-92920057D01*
X207738095Y-92920057D02*
X207690476Y-93015295D01*
X207690476Y-93015295D02*
X207690476Y-93110533D01*
X207690476Y-93110533D02*
X207738095Y-93253390D01*
X207738095Y-93253390D02*
X208309523Y-93824819D01*
X208309523Y-93824819D02*
X207690476Y-93824819D01*
X206833333Y-92824819D02*
X207023809Y-92824819D01*
X207023809Y-92824819D02*
X207119047Y-92872438D01*
X207119047Y-92872438D02*
X207166666Y-92920057D01*
X207166666Y-92920057D02*
X207261904Y-93062914D01*
X207261904Y-93062914D02*
X207309523Y-93253390D01*
X207309523Y-93253390D02*
X207309523Y-93634342D01*
X207309523Y-93634342D02*
X207261904Y-93729580D01*
X207261904Y-93729580D02*
X207214285Y-93777200D01*
X207214285Y-93777200D02*
X207119047Y-93824819D01*
X207119047Y-93824819D02*
X206928571Y-93824819D01*
X206928571Y-93824819D02*
X206833333Y-93777200D01*
X206833333Y-93777200D02*
X206785714Y-93729580D01*
X206785714Y-93729580D02*
X206738095Y-93634342D01*
X206738095Y-93634342D02*
X206738095Y-93396247D01*
X206738095Y-93396247D02*
X206785714Y-93301009D01*
X206785714Y-93301009D02*
X206833333Y-93253390D01*
X206833333Y-93253390D02*
X206928571Y-93205771D01*
X206928571Y-93205771D02*
X207119047Y-93205771D01*
X207119047Y-93205771D02*
X207214285Y-93253390D01*
X207214285Y-93253390D02*
X207261904Y-93301009D01*
X207261904Y-93301009D02*
X207309523Y-93396247D01*
X206763857Y-86059180D02*
X206811476Y-86106800D01*
X206811476Y-86106800D02*
X206954333Y-86154419D01*
X206954333Y-86154419D02*
X207049571Y-86154419D01*
X207049571Y-86154419D02*
X207192428Y-86106800D01*
X207192428Y-86106800D02*
X207287666Y-86011561D01*
X207287666Y-86011561D02*
X207335285Y-85916323D01*
X207335285Y-85916323D02*
X207382904Y-85725847D01*
X207382904Y-85725847D02*
X207382904Y-85582990D01*
X207382904Y-85582990D02*
X207335285Y-85392514D01*
X207335285Y-85392514D02*
X207287666Y-85297276D01*
X207287666Y-85297276D02*
X207192428Y-85202038D01*
X207192428Y-85202038D02*
X207049571Y-85154419D01*
X207049571Y-85154419D02*
X206954333Y-85154419D01*
X206954333Y-85154419D02*
X206811476Y-85202038D01*
X206811476Y-85202038D02*
X206763857Y-85249657D01*
X205811476Y-86154419D02*
X206382904Y-86154419D01*
X206097190Y-86154419D02*
X206097190Y-85154419D01*
X206097190Y-85154419D02*
X206192428Y-85297276D01*
X206192428Y-85297276D02*
X206287666Y-85392514D01*
X206287666Y-85392514D02*
X206382904Y-85440133D01*
X205240047Y-85582990D02*
X205335285Y-85535371D01*
X205335285Y-85535371D02*
X205382904Y-85487752D01*
X205382904Y-85487752D02*
X205430523Y-85392514D01*
X205430523Y-85392514D02*
X205430523Y-85344895D01*
X205430523Y-85344895D02*
X205382904Y-85249657D01*
X205382904Y-85249657D02*
X205335285Y-85202038D01*
X205335285Y-85202038D02*
X205240047Y-85154419D01*
X205240047Y-85154419D02*
X205049571Y-85154419D01*
X205049571Y-85154419D02*
X204954333Y-85202038D01*
X204954333Y-85202038D02*
X204906714Y-85249657D01*
X204906714Y-85249657D02*
X204859095Y-85344895D01*
X204859095Y-85344895D02*
X204859095Y-85392514D01*
X204859095Y-85392514D02*
X204906714Y-85487752D01*
X204906714Y-85487752D02*
X204954333Y-85535371D01*
X204954333Y-85535371D02*
X205049571Y-85582990D01*
X205049571Y-85582990D02*
X205240047Y-85582990D01*
X205240047Y-85582990D02*
X205335285Y-85630609D01*
X205335285Y-85630609D02*
X205382904Y-85678228D01*
X205382904Y-85678228D02*
X205430523Y-85773466D01*
X205430523Y-85773466D02*
X205430523Y-85963942D01*
X205430523Y-85963942D02*
X205382904Y-86059180D01*
X205382904Y-86059180D02*
X205335285Y-86106800D01*
X205335285Y-86106800D02*
X205240047Y-86154419D01*
X205240047Y-86154419D02*
X205049571Y-86154419D01*
X205049571Y-86154419D02*
X204954333Y-86106800D01*
X204954333Y-86106800D02*
X204906714Y-86059180D01*
X204906714Y-86059180D02*
X204859095Y-85963942D01*
X204859095Y-85963942D02*
X204859095Y-85773466D01*
X204859095Y-85773466D02*
X204906714Y-85678228D01*
X204906714Y-85678228D02*
X204954333Y-85630609D01*
X204954333Y-85630609D02*
X205049571Y-85582990D01*
X210445657Y-76248419D02*
X210778990Y-75772228D01*
X211017085Y-76248419D02*
X211017085Y-75248419D01*
X211017085Y-75248419D02*
X210636133Y-75248419D01*
X210636133Y-75248419D02*
X210540895Y-75296038D01*
X210540895Y-75296038D02*
X210493276Y-75343657D01*
X210493276Y-75343657D02*
X210445657Y-75438895D01*
X210445657Y-75438895D02*
X210445657Y-75581752D01*
X210445657Y-75581752D02*
X210493276Y-75676990D01*
X210493276Y-75676990D02*
X210540895Y-75724609D01*
X210540895Y-75724609D02*
X210636133Y-75772228D01*
X210636133Y-75772228D02*
X211017085Y-75772228D01*
X209493276Y-76248419D02*
X210064704Y-76248419D01*
X209778990Y-76248419D02*
X209778990Y-75248419D01*
X209778990Y-75248419D02*
X209874228Y-75391276D01*
X209874228Y-75391276D02*
X209969466Y-75486514D01*
X209969466Y-75486514D02*
X210064704Y-75534133D01*
X208588514Y-75248419D02*
X209064704Y-75248419D01*
X209064704Y-75248419D02*
X209112323Y-75724609D01*
X209112323Y-75724609D02*
X209064704Y-75676990D01*
X209064704Y-75676990D02*
X208969466Y-75629371D01*
X208969466Y-75629371D02*
X208731371Y-75629371D01*
X208731371Y-75629371D02*
X208636133Y-75676990D01*
X208636133Y-75676990D02*
X208588514Y-75724609D01*
X208588514Y-75724609D02*
X208540895Y-75819847D01*
X208540895Y-75819847D02*
X208540895Y-76057942D01*
X208540895Y-76057942D02*
X208588514Y-76153180D01*
X208588514Y-76153180D02*
X208636133Y-76200800D01*
X208636133Y-76200800D02*
X208731371Y-76248419D01*
X208731371Y-76248419D02*
X208969466Y-76248419D01*
X208969466Y-76248419D02*
X209064704Y-76200800D01*
X209064704Y-76200800D02*
X209112323Y-76153180D01*
X210427866Y-74451380D02*
X210475485Y-74499000D01*
X210475485Y-74499000D02*
X210618342Y-74546619D01*
X210618342Y-74546619D02*
X210713580Y-74546619D01*
X210713580Y-74546619D02*
X210856437Y-74499000D01*
X210856437Y-74499000D02*
X210951675Y-74403761D01*
X210951675Y-74403761D02*
X210999294Y-74308523D01*
X210999294Y-74308523D02*
X211046913Y-74118047D01*
X211046913Y-74118047D02*
X211046913Y-73975190D01*
X211046913Y-73975190D02*
X210999294Y-73784714D01*
X210999294Y-73784714D02*
X210951675Y-73689476D01*
X210951675Y-73689476D02*
X210856437Y-73594238D01*
X210856437Y-73594238D02*
X210713580Y-73546619D01*
X210713580Y-73546619D02*
X210618342Y-73546619D01*
X210618342Y-73546619D02*
X210475485Y-73594238D01*
X210475485Y-73594238D02*
X210427866Y-73641857D01*
X209570723Y-73546619D02*
X209761199Y-73546619D01*
X209761199Y-73546619D02*
X209856437Y-73594238D01*
X209856437Y-73594238D02*
X209904056Y-73641857D01*
X209904056Y-73641857D02*
X209999294Y-73784714D01*
X209999294Y-73784714D02*
X210046913Y-73975190D01*
X210046913Y-73975190D02*
X210046913Y-74356142D01*
X210046913Y-74356142D02*
X209999294Y-74451380D01*
X209999294Y-74451380D02*
X209951675Y-74499000D01*
X209951675Y-74499000D02*
X209856437Y-74546619D01*
X209856437Y-74546619D02*
X209665961Y-74546619D01*
X209665961Y-74546619D02*
X209570723Y-74499000D01*
X209570723Y-74499000D02*
X209523104Y-74451380D01*
X209523104Y-74451380D02*
X209475485Y-74356142D01*
X209475485Y-74356142D02*
X209475485Y-74118047D01*
X209475485Y-74118047D02*
X209523104Y-74022809D01*
X209523104Y-74022809D02*
X209570723Y-73975190D01*
X209570723Y-73975190D02*
X209665961Y-73927571D01*
X209665961Y-73927571D02*
X209856437Y-73927571D01*
X209856437Y-73927571D02*
X209951675Y-73975190D01*
X209951675Y-73975190D02*
X209999294Y-74022809D01*
X209999294Y-74022809D02*
X210046913Y-74118047D01*
X208211657Y-87551419D02*
X208544990Y-87075228D01*
X208783085Y-87551419D02*
X208783085Y-86551419D01*
X208783085Y-86551419D02*
X208402133Y-86551419D01*
X208402133Y-86551419D02*
X208306895Y-86599038D01*
X208306895Y-86599038D02*
X208259276Y-86646657D01*
X208259276Y-86646657D02*
X208211657Y-86741895D01*
X208211657Y-86741895D02*
X208211657Y-86884752D01*
X208211657Y-86884752D02*
X208259276Y-86979990D01*
X208259276Y-86979990D02*
X208306895Y-87027609D01*
X208306895Y-87027609D02*
X208402133Y-87075228D01*
X208402133Y-87075228D02*
X208783085Y-87075228D01*
X207878323Y-86551419D02*
X207259276Y-86551419D01*
X207259276Y-86551419D02*
X207592609Y-86932371D01*
X207592609Y-86932371D02*
X207449752Y-86932371D01*
X207449752Y-86932371D02*
X207354514Y-86979990D01*
X207354514Y-86979990D02*
X207306895Y-87027609D01*
X207306895Y-87027609D02*
X207259276Y-87122847D01*
X207259276Y-87122847D02*
X207259276Y-87360942D01*
X207259276Y-87360942D02*
X207306895Y-87456180D01*
X207306895Y-87456180D02*
X207354514Y-87503800D01*
X207354514Y-87503800D02*
X207449752Y-87551419D01*
X207449752Y-87551419D02*
X207735466Y-87551419D01*
X207735466Y-87551419D02*
X207830704Y-87503800D01*
X207830704Y-87503800D02*
X207878323Y-87456180D01*
X206306895Y-87551419D02*
X206878323Y-87551419D01*
X206592609Y-87551419D02*
X206592609Y-86551419D01*
X206592609Y-86551419D02*
X206687847Y-86694276D01*
X206687847Y-86694276D02*
X206783085Y-86789514D01*
X206783085Y-86789514D02*
X206878323Y-86837133D01*
X216955666Y-82750819D02*
X217431856Y-82750819D01*
X217431856Y-82750819D02*
X217431856Y-81750819D01*
X216098523Y-82750819D02*
X216669951Y-82750819D01*
X216384237Y-82750819D02*
X216384237Y-81750819D01*
X216384237Y-81750819D02*
X216479475Y-81893676D01*
X216479475Y-81893676D02*
X216574713Y-81988914D01*
X216574713Y-81988914D02*
X216669951Y-82036533D01*
X206567066Y-70558819D02*
X206900399Y-70082628D01*
X207138494Y-70558819D02*
X207138494Y-69558819D01*
X207138494Y-69558819D02*
X206757542Y-69558819D01*
X206757542Y-69558819D02*
X206662304Y-69606438D01*
X206662304Y-69606438D02*
X206614685Y-69654057D01*
X206614685Y-69654057D02*
X206567066Y-69749295D01*
X206567066Y-69749295D02*
X206567066Y-69892152D01*
X206567066Y-69892152D02*
X206614685Y-69987390D01*
X206614685Y-69987390D02*
X206662304Y-70035009D01*
X206662304Y-70035009D02*
X206757542Y-70082628D01*
X206757542Y-70082628D02*
X207138494Y-70082628D01*
X206186113Y-69654057D02*
X206138494Y-69606438D01*
X206138494Y-69606438D02*
X206043256Y-69558819D01*
X206043256Y-69558819D02*
X205805161Y-69558819D01*
X205805161Y-69558819D02*
X205709923Y-69606438D01*
X205709923Y-69606438D02*
X205662304Y-69654057D01*
X205662304Y-69654057D02*
X205614685Y-69749295D01*
X205614685Y-69749295D02*
X205614685Y-69844533D01*
X205614685Y-69844533D02*
X205662304Y-69987390D01*
X205662304Y-69987390D02*
X206233732Y-70558819D01*
X206233732Y-70558819D02*
X205614685Y-70558819D01*
X221716504Y-90564619D02*
X221716504Y-91374142D01*
X221716504Y-91374142D02*
X221668885Y-91469380D01*
X221668885Y-91469380D02*
X221621266Y-91517000D01*
X221621266Y-91517000D02*
X221526028Y-91564619D01*
X221526028Y-91564619D02*
X221335552Y-91564619D01*
X221335552Y-91564619D02*
X221240314Y-91517000D01*
X221240314Y-91517000D02*
X221192695Y-91469380D01*
X221192695Y-91469380D02*
X221145076Y-91374142D01*
X221145076Y-91374142D02*
X221145076Y-90564619D01*
X220240314Y-90564619D02*
X220430790Y-90564619D01*
X220430790Y-90564619D02*
X220526028Y-90612238D01*
X220526028Y-90612238D02*
X220573647Y-90659857D01*
X220573647Y-90659857D02*
X220668885Y-90802714D01*
X220668885Y-90802714D02*
X220716504Y-90993190D01*
X220716504Y-90993190D02*
X220716504Y-91374142D01*
X220716504Y-91374142D02*
X220668885Y-91469380D01*
X220668885Y-91469380D02*
X220621266Y-91517000D01*
X220621266Y-91517000D02*
X220526028Y-91564619D01*
X220526028Y-91564619D02*
X220335552Y-91564619D01*
X220335552Y-91564619D02*
X220240314Y-91517000D01*
X220240314Y-91517000D02*
X220192695Y-91469380D01*
X220192695Y-91469380D02*
X220145076Y-91374142D01*
X220145076Y-91374142D02*
X220145076Y-91136047D01*
X220145076Y-91136047D02*
X220192695Y-91040809D01*
X220192695Y-91040809D02*
X220240314Y-90993190D01*
X220240314Y-90993190D02*
X220335552Y-90945571D01*
X220335552Y-90945571D02*
X220526028Y-90945571D01*
X220526028Y-90945571D02*
X220621266Y-90993190D01*
X220621266Y-90993190D02*
X220668885Y-91040809D01*
X220668885Y-91040809D02*
X220716504Y-91136047D01*
X222168757Y-86922780D02*
X222216376Y-86970400D01*
X222216376Y-86970400D02*
X222359233Y-87018019D01*
X222359233Y-87018019D02*
X222454471Y-87018019D01*
X222454471Y-87018019D02*
X222597328Y-86970400D01*
X222597328Y-86970400D02*
X222692566Y-86875161D01*
X222692566Y-86875161D02*
X222740185Y-86779923D01*
X222740185Y-86779923D02*
X222787804Y-86589447D01*
X222787804Y-86589447D02*
X222787804Y-86446590D01*
X222787804Y-86446590D02*
X222740185Y-86256114D01*
X222740185Y-86256114D02*
X222692566Y-86160876D01*
X222692566Y-86160876D02*
X222597328Y-86065638D01*
X222597328Y-86065638D02*
X222454471Y-86018019D01*
X222454471Y-86018019D02*
X222359233Y-86018019D01*
X222359233Y-86018019D02*
X222216376Y-86065638D01*
X222216376Y-86065638D02*
X222168757Y-86113257D01*
X221216376Y-87018019D02*
X221787804Y-87018019D01*
X221502090Y-87018019D02*
X221502090Y-86018019D01*
X221502090Y-86018019D02*
X221597328Y-86160876D01*
X221597328Y-86160876D02*
X221692566Y-86256114D01*
X221692566Y-86256114D02*
X221787804Y-86303733D01*
X220359233Y-86351352D02*
X220359233Y-87018019D01*
X220597328Y-85970400D02*
X220835423Y-86684685D01*
X220835423Y-86684685D02*
X220216376Y-86684685D01*
X222268757Y-88547780D02*
X222316376Y-88595400D01*
X222316376Y-88595400D02*
X222459233Y-88643019D01*
X222459233Y-88643019D02*
X222554471Y-88643019D01*
X222554471Y-88643019D02*
X222697328Y-88595400D01*
X222697328Y-88595400D02*
X222792566Y-88500161D01*
X222792566Y-88500161D02*
X222840185Y-88404923D01*
X222840185Y-88404923D02*
X222887804Y-88214447D01*
X222887804Y-88214447D02*
X222887804Y-88071590D01*
X222887804Y-88071590D02*
X222840185Y-87881114D01*
X222840185Y-87881114D02*
X222792566Y-87785876D01*
X222792566Y-87785876D02*
X222697328Y-87690638D01*
X222697328Y-87690638D02*
X222554471Y-87643019D01*
X222554471Y-87643019D02*
X222459233Y-87643019D01*
X222459233Y-87643019D02*
X222316376Y-87690638D01*
X222316376Y-87690638D02*
X222268757Y-87738257D01*
X221316376Y-88643019D02*
X221887804Y-88643019D01*
X221602090Y-88643019D02*
X221602090Y-87643019D01*
X221602090Y-87643019D02*
X221697328Y-87785876D01*
X221697328Y-87785876D02*
X221792566Y-87881114D01*
X221792566Y-87881114D02*
X221887804Y-87928733D01*
X220983042Y-87643019D02*
X220363995Y-87643019D01*
X220363995Y-87643019D02*
X220697328Y-88023971D01*
X220697328Y-88023971D02*
X220554471Y-88023971D01*
X220554471Y-88023971D02*
X220459233Y-88071590D01*
X220459233Y-88071590D02*
X220411614Y-88119209D01*
X220411614Y-88119209D02*
X220363995Y-88214447D01*
X220363995Y-88214447D02*
X220363995Y-88452542D01*
X220363995Y-88452542D02*
X220411614Y-88547780D01*
X220411614Y-88547780D02*
X220459233Y-88595400D01*
X220459233Y-88595400D02*
X220554471Y-88643019D01*
X220554471Y-88643019D02*
X220840185Y-88643019D01*
X220840185Y-88643019D02*
X220935423Y-88595400D01*
X220935423Y-88595400D02*
X220983042Y-88547780D01*
X208516457Y-79321819D02*
X208849790Y-78845628D01*
X209087885Y-79321819D02*
X209087885Y-78321819D01*
X209087885Y-78321819D02*
X208706933Y-78321819D01*
X208706933Y-78321819D02*
X208611695Y-78369438D01*
X208611695Y-78369438D02*
X208564076Y-78417057D01*
X208564076Y-78417057D02*
X208516457Y-78512295D01*
X208516457Y-78512295D02*
X208516457Y-78655152D01*
X208516457Y-78655152D02*
X208564076Y-78750390D01*
X208564076Y-78750390D02*
X208611695Y-78798009D01*
X208611695Y-78798009D02*
X208706933Y-78845628D01*
X208706933Y-78845628D02*
X209087885Y-78845628D01*
X208183123Y-78321819D02*
X207564076Y-78321819D01*
X207564076Y-78321819D02*
X207897409Y-78702771D01*
X207897409Y-78702771D02*
X207754552Y-78702771D01*
X207754552Y-78702771D02*
X207659314Y-78750390D01*
X207659314Y-78750390D02*
X207611695Y-78798009D01*
X207611695Y-78798009D02*
X207564076Y-78893247D01*
X207564076Y-78893247D02*
X207564076Y-79131342D01*
X207564076Y-79131342D02*
X207611695Y-79226580D01*
X207611695Y-79226580D02*
X207659314Y-79274200D01*
X207659314Y-79274200D02*
X207754552Y-79321819D01*
X207754552Y-79321819D02*
X208040266Y-79321819D01*
X208040266Y-79321819D02*
X208135504Y-79274200D01*
X208135504Y-79274200D02*
X208183123Y-79226580D01*
X207183123Y-78417057D02*
X207135504Y-78369438D01*
X207135504Y-78369438D02*
X207040266Y-78321819D01*
X207040266Y-78321819D02*
X206802171Y-78321819D01*
X206802171Y-78321819D02*
X206706933Y-78369438D01*
X206706933Y-78369438D02*
X206659314Y-78417057D01*
X206659314Y-78417057D02*
X206611695Y-78512295D01*
X206611695Y-78512295D02*
X206611695Y-78607533D01*
X206611695Y-78607533D02*
X206659314Y-78750390D01*
X206659314Y-78750390D02*
X207230742Y-79321819D01*
X207230742Y-79321819D02*
X206611695Y-79321819D01*
X211107257Y-89970780D02*
X211154876Y-90018400D01*
X211154876Y-90018400D02*
X211297733Y-90066019D01*
X211297733Y-90066019D02*
X211392971Y-90066019D01*
X211392971Y-90066019D02*
X211535828Y-90018400D01*
X211535828Y-90018400D02*
X211631066Y-89923161D01*
X211631066Y-89923161D02*
X211678685Y-89827923D01*
X211678685Y-89827923D02*
X211726304Y-89637447D01*
X211726304Y-89637447D02*
X211726304Y-89494590D01*
X211726304Y-89494590D02*
X211678685Y-89304114D01*
X211678685Y-89304114D02*
X211631066Y-89208876D01*
X211631066Y-89208876D02*
X211535828Y-89113638D01*
X211535828Y-89113638D02*
X211392971Y-89066019D01*
X211392971Y-89066019D02*
X211297733Y-89066019D01*
X211297733Y-89066019D02*
X211154876Y-89113638D01*
X211154876Y-89113638D02*
X211107257Y-89161257D01*
X210154876Y-90066019D02*
X210726304Y-90066019D01*
X210440590Y-90066019D02*
X210440590Y-89066019D01*
X210440590Y-89066019D02*
X210535828Y-89208876D01*
X210535828Y-89208876D02*
X210631066Y-89304114D01*
X210631066Y-89304114D02*
X210726304Y-89351733D01*
X209678685Y-90066019D02*
X209488209Y-90066019D01*
X209488209Y-90066019D02*
X209392971Y-90018400D01*
X209392971Y-90018400D02*
X209345352Y-89970780D01*
X209345352Y-89970780D02*
X209250114Y-89827923D01*
X209250114Y-89827923D02*
X209202495Y-89637447D01*
X209202495Y-89637447D02*
X209202495Y-89256495D01*
X209202495Y-89256495D02*
X209250114Y-89161257D01*
X209250114Y-89161257D02*
X209297733Y-89113638D01*
X209297733Y-89113638D02*
X209392971Y-89066019D01*
X209392971Y-89066019D02*
X209583447Y-89066019D01*
X209583447Y-89066019D02*
X209678685Y-89113638D01*
X209678685Y-89113638D02*
X209726304Y-89161257D01*
X209726304Y-89161257D02*
X209773923Y-89256495D01*
X209773923Y-89256495D02*
X209773923Y-89494590D01*
X209773923Y-89494590D02*
X209726304Y-89589828D01*
X209726304Y-89589828D02*
X209678685Y-89637447D01*
X209678685Y-89637447D02*
X209583447Y-89685066D01*
X209583447Y-89685066D02*
X209392971Y-89685066D01*
X209392971Y-89685066D02*
X209297733Y-89637447D01*
X209297733Y-89637447D02*
X209250114Y-89589828D01*
X209250114Y-89589828D02*
X209202495Y-89494590D01*
X202191857Y-95095219D02*
X202525190Y-94619028D01*
X202763285Y-95095219D02*
X202763285Y-94095219D01*
X202763285Y-94095219D02*
X202382333Y-94095219D01*
X202382333Y-94095219D02*
X202287095Y-94142838D01*
X202287095Y-94142838D02*
X202239476Y-94190457D01*
X202239476Y-94190457D02*
X202191857Y-94285695D01*
X202191857Y-94285695D02*
X202191857Y-94428552D01*
X202191857Y-94428552D02*
X202239476Y-94523790D01*
X202239476Y-94523790D02*
X202287095Y-94571409D01*
X202287095Y-94571409D02*
X202382333Y-94619028D01*
X202382333Y-94619028D02*
X202763285Y-94619028D01*
X201858523Y-94095219D02*
X201239476Y-94095219D01*
X201239476Y-94095219D02*
X201572809Y-94476171D01*
X201572809Y-94476171D02*
X201429952Y-94476171D01*
X201429952Y-94476171D02*
X201334714Y-94523790D01*
X201334714Y-94523790D02*
X201287095Y-94571409D01*
X201287095Y-94571409D02*
X201239476Y-94666647D01*
X201239476Y-94666647D02*
X201239476Y-94904742D01*
X201239476Y-94904742D02*
X201287095Y-94999980D01*
X201287095Y-94999980D02*
X201334714Y-95047600D01*
X201334714Y-95047600D02*
X201429952Y-95095219D01*
X201429952Y-95095219D02*
X201715666Y-95095219D01*
X201715666Y-95095219D02*
X201810904Y-95047600D01*
X201810904Y-95047600D02*
X201858523Y-94999980D01*
X200620428Y-94095219D02*
X200525190Y-94095219D01*
X200525190Y-94095219D02*
X200429952Y-94142838D01*
X200429952Y-94142838D02*
X200382333Y-94190457D01*
X200382333Y-94190457D02*
X200334714Y-94285695D01*
X200334714Y-94285695D02*
X200287095Y-94476171D01*
X200287095Y-94476171D02*
X200287095Y-94714266D01*
X200287095Y-94714266D02*
X200334714Y-94904742D01*
X200334714Y-94904742D02*
X200382333Y-94999980D01*
X200382333Y-94999980D02*
X200429952Y-95047600D01*
X200429952Y-95047600D02*
X200525190Y-95095219D01*
X200525190Y-95095219D02*
X200620428Y-95095219D01*
X200620428Y-95095219D02*
X200715666Y-95047600D01*
X200715666Y-95047600D02*
X200763285Y-94999980D01*
X200763285Y-94999980D02*
X200810904Y-94904742D01*
X200810904Y-94904742D02*
X200858523Y-94714266D01*
X200858523Y-94714266D02*
X200858523Y-94476171D01*
X200858523Y-94476171D02*
X200810904Y-94285695D01*
X200810904Y-94285695D02*
X200763285Y-94190457D01*
X200763285Y-94190457D02*
X200715666Y-94142838D01*
X200715666Y-94142838D02*
X200620428Y-94095219D01*
D13*
G04 #@! TO.C,U3*
X218062600Y-73755400D02*
X217582600Y-73755400D01*
X217582600Y-73275400D01*
X218062600Y-73755400D01*
G36*
X218062600Y-73755400D02*
G01*
X217582600Y-73755400D01*
X217582600Y-73275400D01*
X218062600Y-73755400D01*
G37*
G04 #@! TO.C,U7*
X203752600Y-78784600D02*
X203272600Y-78784600D01*
X203752600Y-78304600D01*
X203752600Y-78784600D01*
G36*
X203752600Y-78784600D02*
G01*
X203272600Y-78784600D01*
X203752600Y-78304600D01*
X203752600Y-78784600D01*
G37*
G04 #@! TO.C,C10*
X208794133Y-63730600D02*
X209086667Y-63730600D01*
X208794133Y-62710600D02*
X209086667Y-62710600D01*
G04 #@! TO.C,C11*
X219424467Y-68906400D02*
X219131933Y-68906400D01*
X219424467Y-69926400D02*
X219131933Y-69926400D01*
G04 #@! TO.C,C23*
X217557133Y-65418500D02*
X217849667Y-65418500D01*
X217557133Y-64398500D02*
X217849667Y-64398500D01*
G04 #@! TO.C,R20*
X208711076Y-65470300D02*
X209220524Y-65470300D01*
X208711076Y-64425300D02*
X209220524Y-64425300D01*
G04 #@! TO.C,R21*
X219532924Y-67193900D02*
X219023476Y-67193900D01*
X219532924Y-68238900D02*
X219023476Y-68238900D01*
G04 #@! TO.C,R34*
X217448676Y-63768500D02*
X217958124Y-63768500D01*
X217448676Y-62723500D02*
X217958124Y-62723500D01*
G04 #@! TO.C,R1*
X223607100Y-82957124D02*
X223607100Y-82447676D01*
X224652100Y-82957124D02*
X224652100Y-82447676D01*
G04 #@! TO.C,R23*
X201305900Y-76708724D02*
X201305900Y-76199276D01*
X202350900Y-76708724D02*
X202350900Y-76199276D01*
G04 #@! TO.C,U8*
X203560000Y-88051200D02*
X203560000Y-88101200D01*
X203560000Y-91121200D02*
X203560000Y-91171200D01*
X203560000Y-91171200D02*
X205380000Y-91171200D01*
X205380000Y-88051200D02*
X203560000Y-88051200D01*
X205380000Y-88101200D02*
X205380000Y-88051200D01*
X205380000Y-90001200D02*
X205380000Y-89221200D01*
X205380000Y-91171200D02*
X205380000Y-91121200D01*
X203260000Y-91451200D02*
X202780000Y-91451200D01*
X203020000Y-91121200D01*
X203260000Y-91451200D01*
G36*
X203260000Y-91451200D02*
G01*
X202780000Y-91451200D01*
X203020000Y-91121200D01*
X203260000Y-91451200D01*
G37*
G04 #@! TO.C,R29*
X204785700Y-76199276D02*
X204785700Y-76708724D01*
X205830700Y-76199276D02*
X205830700Y-76708724D01*
G04 #@! TO.C,R12*
X220039476Y-71892900D02*
X220548924Y-71892900D01*
X220039476Y-72937900D02*
X220548924Y-72937900D01*
G04 #@! TO.C,U5*
X214380400Y-67248600D02*
X214380400Y-67298600D01*
X214380400Y-68418600D02*
X214380400Y-69198600D01*
X214380400Y-70318600D02*
X214380400Y-70368600D01*
X214380400Y-70368600D02*
X216200400Y-70368600D01*
X216200400Y-67248600D02*
X214380400Y-67248600D01*
X216200400Y-67298600D02*
X216200400Y-67248600D01*
X216200400Y-70368600D02*
X216200400Y-70318600D01*
X216740400Y-67298600D02*
X216500400Y-66968600D01*
X216980400Y-66968600D01*
X216740400Y-67298600D01*
G36*
X216740400Y-67298600D02*
G01*
X216500400Y-66968600D01*
X216980400Y-66968600D01*
X216740400Y-67298600D01*
G37*
G04 #@! TO.C,R16*
X209220524Y-71232500D02*
X208711076Y-71232500D01*
X209220524Y-72277500D02*
X208711076Y-72277500D01*
G04 #@! TO.C,R17*
X211694500Y-68885524D02*
X211694500Y-68376076D01*
X212739500Y-68885524D02*
X212739500Y-68376076D01*
G04 #@! TO.C,R5*
X223673124Y-50887100D02*
X223163676Y-50887100D01*
X223673124Y-51932100D02*
X223163676Y-51932100D01*
G04 #@! TO.C,U4*
X223852500Y-94127500D02*
X223852500Y-95947500D01*
X223852500Y-95947500D02*
X223902500Y-95947500D01*
X223902500Y-94127500D02*
X223852500Y-94127500D01*
X225802500Y-94127500D02*
X225022500Y-94127500D01*
X226922500Y-95947500D02*
X226972500Y-95947500D01*
X226972500Y-94127500D02*
X226922500Y-94127500D01*
X226972500Y-95947500D02*
X226972500Y-94127500D01*
X227252500Y-96727500D02*
X226922500Y-96487500D01*
X227252500Y-96247500D01*
X227252500Y-96727500D01*
G36*
X227252500Y-96727500D02*
G01*
X226922500Y-96487500D01*
X227252500Y-96247500D01*
X227252500Y-96727500D01*
G37*
G04 #@! TO.C,C2*
X209112067Y-66266600D02*
X208819533Y-66266600D01*
X209112067Y-67286600D02*
X208819533Y-67286600D01*
G04 #@! TO.C,R27*
X214515276Y-93842500D02*
X215024724Y-93842500D01*
X214515276Y-92797500D02*
X215024724Y-92797500D01*
G04 #@! TO.C,C9*
X213633267Y-64437800D02*
X213340733Y-64437800D01*
X213633267Y-65457800D02*
X213340733Y-65457800D01*
G04 #@! TO.C,C20*
X211906400Y-86111200D02*
X214766400Y-86111200D01*
X211906400Y-88031200D02*
X211906400Y-86111200D01*
X214766400Y-88031200D02*
X211906400Y-88031200D01*
G04 #@! TO.C,R19*
X220039476Y-76896700D02*
X220548924Y-76896700D01*
X220039476Y-77941700D02*
X220548924Y-77941700D01*
G04 #@! TO.C,C16*
X210853733Y-92110000D02*
X211146267Y-92110000D01*
X210853733Y-91090000D02*
X211146267Y-91090000D01*
G04 #@! TO.C,C7*
X213049067Y-76909200D02*
X212756533Y-76909200D01*
X213049067Y-77929200D02*
X212756533Y-77929200D01*
G04 #@! TO.C,R14*
X220548924Y-75194900D02*
X220039476Y-75194900D01*
X220548924Y-76239900D02*
X220039476Y-76239900D01*
G04 #@! TO.C,C21*
X204743267Y-92200000D02*
X204450733Y-92200000D01*
X204743267Y-93220000D02*
X204450733Y-93220000D01*
G04 #@! TO.C,R28*
X203210900Y-83082676D02*
X203210900Y-83592124D01*
X204255900Y-83082676D02*
X204255900Y-83592124D01*
G04 #@! TO.C,U1*
X225143000Y-56037800D02*
X225143000Y-56132800D01*
X225143000Y-61062800D02*
X225143000Y-61157800D01*
X225143000Y-61157800D02*
X229263000Y-61157800D01*
X229263000Y-56037800D02*
X225143000Y-56037800D01*
X229263000Y-56132800D02*
X229263000Y-56037800D01*
X229263000Y-61157800D02*
X229263000Y-61062800D01*
X224843000Y-61397800D02*
X224363000Y-61397800D01*
X224603000Y-61067800D01*
X224843000Y-61397800D01*
G36*
X224843000Y-61397800D02*
G01*
X224363000Y-61397800D01*
X224603000Y-61067800D01*
X224843000Y-61397800D01*
G37*
G04 #@! TO.C,C17*
X201216800Y-83216533D02*
X201216800Y-83509067D01*
X202236800Y-83216533D02*
X202236800Y-83509067D01*
G04 #@! TO.C,R10*
X222362500Y-94741276D02*
X222362500Y-95250724D01*
X223407500Y-94741276D02*
X223407500Y-95250724D01*
G04 #@! TO.C,R3*
X208711076Y-67930500D02*
X209220524Y-67930500D01*
X208711076Y-68975500D02*
X209220524Y-68975500D01*
G04 #@! TO.C,C1*
X227259933Y-54354000D02*
X227552467Y-54354000D01*
X227259933Y-55374000D02*
X227552467Y-55374000D01*
G04 #@! TO.C,R13*
X220039476Y-73543900D02*
X220548924Y-73543900D01*
X220039476Y-74588900D02*
X220548924Y-74588900D01*
G04 #@! TO.C,R6*
X223673124Y-53630300D02*
X223163676Y-53630300D01*
X223673124Y-54675300D02*
X223163676Y-54675300D01*
G04 #@! TO.C,R25*
X203083900Y-76708724D02*
X203083900Y-76199276D01*
X204128900Y-76708724D02*
X204128900Y-76199276D01*
G04 #@! TO.C,C8*
X225540017Y-91627500D02*
X225247483Y-91627500D01*
X225540017Y-92647500D02*
X225247483Y-92647500D01*
D12*
G04 #@! TO.C,J1*
X208889600Y-56740300D02*
X208889600Y-48240300D01*
X211429600Y-56740300D02*
X211429600Y-48240300D01*
X213969600Y-56740300D02*
X213969600Y-48240300D01*
X216509600Y-56740300D02*
X216509600Y-48240300D01*
X219049600Y-56740300D02*
X219049600Y-48240300D01*
X221589600Y-48240300D02*
X208889600Y-48240300D01*
X221589600Y-56740300D02*
X208889600Y-56740300D01*
X221589600Y-56740300D02*
X221589600Y-48240300D01*
X221538800Y-56676500D02*
X219100400Y-56676500D01*
X219100400Y-48294500D01*
X221538800Y-48294500D01*
X221538800Y-56676500D01*
G36*
X221538800Y-56676500D02*
G01*
X219100400Y-56676500D01*
X219100400Y-48294500D01*
X221538800Y-48294500D01*
X221538800Y-56676500D01*
G37*
D13*
G04 #@! TO.C,D4*
X220280400Y-84744800D02*
X220280400Y-79684800D01*
X223000400Y-84744800D02*
X220280400Y-84744800D01*
X223000400Y-84744800D02*
X223000400Y-79684800D01*
D11*
G04 #@! TO.C,F1*
X211408900Y-94558400D02*
X221391100Y-94558400D01*
X211408900Y-94962260D02*
X211408900Y-94558400D01*
X211408900Y-99841600D02*
X211408900Y-99437740D01*
X221391100Y-94558400D02*
X221391100Y-94962260D01*
X221391100Y-99437740D02*
X221391100Y-99841600D01*
X221391100Y-99841600D02*
X211408900Y-99841600D01*
D13*
G04 #@! TO.C,R26*
X210745276Y-93892500D02*
X211254724Y-93892500D01*
X210745276Y-92847500D02*
X211254724Y-92847500D01*
G04 #@! TO.C,C18*
X205382400Y-83191133D02*
X205382400Y-83483667D01*
X206402400Y-83191133D02*
X206402400Y-83483667D01*
G04 #@! TO.C,R15*
X213157524Y-75271100D02*
X212648076Y-75271100D01*
X213157524Y-76316100D02*
X212648076Y-76316100D01*
G04 #@! TO.C,C6*
X213049067Y-73581800D02*
X212756533Y-73581800D01*
X213049067Y-74601800D02*
X212756533Y-74601800D01*
G04 #@! TO.C,R31*
X204800924Y-86548700D02*
X204291476Y-86548700D01*
X204800924Y-87593700D02*
X204291476Y-87593700D01*
D14*
G04 #@! TO.C,L1*
X209674200Y-79296000D02*
X209674200Y-79426000D01*
X209674200Y-85296000D02*
X209674200Y-85166000D01*
X215674200Y-79296000D02*
X209674200Y-79296000D01*
X215674200Y-79296000D02*
X215674200Y-79426000D01*
X215674200Y-85296000D02*
X209674200Y-85296000D01*
X215674200Y-85296000D02*
X215674200Y-85166000D01*
D13*
G04 #@! TO.C,R2*
X208711076Y-69581500D02*
X209220524Y-69581500D01*
X208711076Y-70626500D02*
X209220524Y-70626500D01*
G04 #@! TO.C,U6*
X216651400Y-91134100D02*
X216651400Y-92954100D01*
X216651400Y-92954100D02*
X216701400Y-92954100D01*
X216701400Y-91134100D02*
X216651400Y-91134100D01*
X219721400Y-92954100D02*
X219771400Y-92954100D01*
X219771400Y-91134100D02*
X219721400Y-91134100D01*
X219771400Y-92954100D02*
X219771400Y-91134100D01*
X216701400Y-90594100D02*
X216371400Y-90834100D01*
X216371400Y-90354100D01*
X216701400Y-90594100D01*
G36*
X216701400Y-90594100D02*
G01*
X216371400Y-90834100D01*
X216371400Y-90354100D01*
X216701400Y-90594100D01*
G37*
G04 #@! TO.C,C14*
X218572167Y-86053200D02*
X218279633Y-86053200D01*
X218572167Y-87073200D02*
X218279633Y-87073200D01*
G04 #@! TO.C,C13*
X218572167Y-87653200D02*
X218279633Y-87653200D01*
X218572167Y-88673200D02*
X218279633Y-88673200D01*
G04 #@! TO.C,R32*
X206817700Y-76199276D02*
X206817700Y-76708724D01*
X207862700Y-76199276D02*
X207862700Y-76708724D01*
G04 #@! TO.C,C19*
X211907600Y-88651200D02*
X214767600Y-88651200D01*
X211907600Y-90571200D02*
X211907600Y-88651200D01*
X214767600Y-90571200D02*
X211907600Y-90571200D01*
G04 #@! TO.C,R30*
X204342276Y-94117900D02*
X204851724Y-94117900D01*
X204342276Y-95162900D02*
X204851724Y-95162900D01*
G04 #@! TD*
%LPC*%
D15*
G04 #@! TO.C,J2*
X226612200Y-68137600D03*
X226612201Y-71887600D03*
X226612200Y-75637600D03*
X226612201Y-79387600D03*
D16*
X227442200Y-82087600D03*
X227442200Y-83337600D03*
X226192200Y-82087600D03*
D17*
X226192200Y-83337600D03*
D18*
X225992200Y-63587600D03*
X225992200Y-87237600D03*
G04 #@! TD*
D19*
G04 #@! TO.C,U3*
X215482600Y-74255400D03*
D20*
X215657600Y-74080400D03*
D21*
X215482600Y-74730400D03*
X215482600Y-75180400D03*
D19*
X215482600Y-75655400D03*
D20*
X215657600Y-75830400D03*
D22*
X216132600Y-74955400D03*
X216632600Y-74955400D03*
D20*
X217107600Y-75830400D03*
D23*
X217282600Y-75655400D03*
D24*
X217282600Y-75180400D03*
X217282600Y-74730400D03*
D20*
X217107600Y-74080400D03*
D23*
X217282600Y-74255400D03*
G04 #@! TD*
D25*
G04 #@! TO.C,U7*
X204252600Y-80884600D03*
D26*
X204077600Y-80709600D03*
D27*
X204727600Y-80884600D03*
X205177600Y-80884600D03*
D25*
X205652600Y-80884600D03*
D26*
X205827600Y-80709600D03*
D28*
X204952600Y-80234600D03*
X204952600Y-79734600D03*
D26*
X205827600Y-79259600D03*
D29*
X205652600Y-79084600D03*
D30*
X205177600Y-79084600D03*
X204727600Y-79084600D03*
D26*
X204077600Y-79259600D03*
D29*
X204252600Y-79084600D03*
G04 #@! TD*
D31*
G04 #@! TO.C,C10*
X209802900Y-63220600D03*
X208077900Y-63220600D03*
G04 #@! TD*
D32*
G04 #@! TO.C,C11*
X220140700Y-69416400D03*
X218415700Y-69416400D03*
G04 #@! TD*
D31*
G04 #@! TO.C,C23*
X218565900Y-64908500D03*
X216840900Y-64908500D03*
G04 #@! TD*
D33*
G04 #@! TO.C,R20*
X209878300Y-64947800D03*
X208053300Y-64947800D03*
G04 #@! TD*
D34*
G04 #@! TO.C,R21*
X220190700Y-67716400D03*
X218365700Y-67716400D03*
G04 #@! TD*
D33*
G04 #@! TO.C,R34*
X218615900Y-63246000D03*
X216790900Y-63246000D03*
G04 #@! TD*
D35*
G04 #@! TO.C,J3*
X219900500Y-102187899D03*
D36*
X211645501Y-102187899D03*
G04 #@! TD*
D37*
G04 #@! TO.C,H1*
X200800000Y-50800000D03*
X201502944Y-49102944D03*
X201502944Y-52497056D03*
X203200000Y-48400000D03*
D38*
X203200000Y-50800000D03*
D37*
X203200000Y-53200000D03*
X204897056Y-49102944D03*
X204897056Y-52497056D03*
X205600000Y-50800000D03*
G04 #@! TD*
G04 #@! TO.C,H2*
X226149200Y-50800000D03*
X226852144Y-49102944D03*
X226852144Y-52497056D03*
X228549200Y-48400000D03*
D38*
X228549200Y-50800000D03*
D37*
X228549200Y-53200000D03*
X230246256Y-49102944D03*
X230246256Y-52497056D03*
X230949200Y-50800000D03*
G04 #@! TD*
G04 #@! TO.C,H4*
X200800000Y-101600000D03*
X201502944Y-99902944D03*
X201502944Y-103297056D03*
X203200000Y-99200000D03*
D38*
X203200000Y-101600000D03*
D37*
X203200000Y-104000000D03*
X204897056Y-99902944D03*
X204897056Y-103297056D03*
X205600000Y-101600000D03*
G04 #@! TD*
G04 #@! TO.C,H3*
X226200000Y-101600000D03*
X226902944Y-99902944D03*
X226902944Y-103297056D03*
X228600000Y-99200000D03*
D38*
X228600000Y-101600000D03*
D37*
X228600000Y-104000000D03*
X230297056Y-99902944D03*
X230297056Y-103297056D03*
X231000000Y-101600000D03*
G04 #@! TD*
D39*
G04 #@! TO.C,R1*
X224129600Y-83614900D03*
X224129600Y-81789900D03*
G04 #@! TD*
G04 #@! TO.C,R23*
X201828400Y-77366500D03*
X201828400Y-75541500D03*
G04 #@! TD*
D40*
G04 #@! TO.C,U8*
X203332500Y-90561200D03*
X203332500Y-89611200D03*
X203332500Y-88661200D03*
X205607500Y-88661200D03*
X205607500Y-90561200D03*
G04 #@! TD*
D41*
G04 #@! TO.C,R29*
X205308200Y-75541500D03*
X205308200Y-77366500D03*
G04 #@! TD*
D33*
G04 #@! TO.C,R12*
X219381700Y-72415400D03*
X221206700Y-72415400D03*
G04 #@! TD*
D42*
G04 #@! TO.C,U5*
X216427900Y-67858600D03*
X216427900Y-68808600D03*
X216427900Y-69758600D03*
X214152900Y-69758600D03*
X214152900Y-67858600D03*
G04 #@! TD*
D34*
G04 #@! TO.C,R16*
X209878300Y-71755000D03*
X208053300Y-71755000D03*
G04 #@! TD*
D39*
G04 #@! TO.C,R17*
X212217000Y-69543300D03*
X212217000Y-67718300D03*
G04 #@! TD*
D34*
G04 #@! TO.C,R5*
X224330900Y-51409600D03*
X222505900Y-51409600D03*
G04 #@! TD*
D43*
G04 #@! TO.C,U4*
X226362500Y-96175000D03*
X225412500Y-96175000D03*
X224462500Y-96175000D03*
X224462500Y-93900000D03*
X226362500Y-93900000D03*
G04 #@! TD*
D32*
G04 #@! TO.C,C2*
X209828300Y-66776600D03*
X208103300Y-66776600D03*
G04 #@! TD*
D33*
G04 #@! TO.C,R27*
X213857500Y-93320000D03*
X215682500Y-93320000D03*
G04 #@! TD*
D32*
G04 #@! TO.C,C9*
X214349500Y-64947800D03*
X212624500Y-64947800D03*
G04 #@! TD*
D44*
G04 #@! TO.C,C20*
X212741400Y-87071200D03*
X214791400Y-87071200D03*
G04 #@! TD*
D33*
G04 #@! TO.C,R19*
X219381700Y-77419200D03*
X221206700Y-77419200D03*
G04 #@! TD*
D31*
G04 #@! TO.C,C16*
X210137500Y-91600000D03*
X211862500Y-91600000D03*
G04 #@! TD*
D32*
G04 #@! TO.C,C7*
X213765300Y-77419200D03*
X212040300Y-77419200D03*
G04 #@! TD*
D34*
G04 #@! TO.C,R14*
X221206700Y-75717400D03*
X219381700Y-75717400D03*
G04 #@! TD*
D32*
G04 #@! TO.C,C21*
X205459500Y-92710000D03*
X203734500Y-92710000D03*
G04 #@! TD*
D41*
G04 #@! TO.C,R28*
X203733400Y-82424900D03*
X203733400Y-84249900D03*
G04 #@! TD*
D45*
G04 #@! TO.C,U1*
X224728000Y-60502800D03*
X224728000Y-59232800D03*
X224728000Y-57962800D03*
X224728000Y-56692800D03*
X229678000Y-56692800D03*
X229678000Y-57962800D03*
X229678000Y-59232800D03*
X229678000Y-60502800D03*
G04 #@! TD*
D46*
G04 #@! TO.C,C17*
X201726800Y-82500300D03*
X201726800Y-84225300D03*
G04 #@! TD*
D41*
G04 #@! TO.C,R10*
X222885000Y-94083500D03*
X222885000Y-95908500D03*
G04 #@! TD*
D33*
G04 #@! TO.C,R3*
X208053300Y-68453000D03*
X209878300Y-68453000D03*
G04 #@! TD*
D31*
G04 #@! TO.C,C1*
X226543700Y-54864000D03*
X228268700Y-54864000D03*
G04 #@! TD*
D33*
G04 #@! TO.C,R13*
X219381700Y-74066400D03*
X221206700Y-74066400D03*
G04 #@! TD*
D34*
G04 #@! TO.C,R6*
X224330900Y-54152800D03*
X222505900Y-54152800D03*
G04 #@! TD*
D39*
G04 #@! TO.C,R25*
X203606400Y-77366500D03*
X203606400Y-75541500D03*
G04 #@! TD*
D32*
G04 #@! TO.C,C8*
X226256250Y-92137500D03*
X224531250Y-92137500D03*
G04 #@! TD*
D47*
G04 #@! TO.C,J1*
X220319600Y-59140300D03*
X217779600Y-59140300D03*
X215239600Y-59140300D03*
X212699600Y-59140300D03*
X210159600Y-59140300D03*
G04 #@! TD*
D48*
G04 #@! TO.C,D4*
X221640400Y-83784800D03*
X221640400Y-79384800D03*
G04 #@! TD*
D49*
G04 #@! TO.C,F1*
X219587700Y-97200000D03*
X213212300Y-97200000D03*
G04 #@! TD*
D33*
G04 #@! TO.C,R26*
X210087500Y-93370000D03*
X211912500Y-93370000D03*
G04 #@! TD*
D46*
G04 #@! TO.C,C18*
X205892400Y-82474900D03*
X205892400Y-84199900D03*
G04 #@! TD*
D34*
G04 #@! TO.C,R15*
X213815300Y-75793600D03*
X211990300Y-75793600D03*
G04 #@! TD*
D32*
G04 #@! TO.C,C6*
X213765300Y-74091800D03*
X212040300Y-74091800D03*
G04 #@! TD*
D34*
G04 #@! TO.C,R31*
X205458700Y-87071200D03*
X203633700Y-87071200D03*
G04 #@! TD*
D50*
G04 #@! TO.C,L1*
X214774200Y-82296000D03*
X210574200Y-82296000D03*
G04 #@! TD*
D33*
G04 #@! TO.C,R2*
X208053300Y-70104000D03*
X209878300Y-70104000D03*
G04 #@! TD*
D51*
G04 #@! TO.C,U6*
X217261400Y-90906600D03*
X218211400Y-90906600D03*
X219161400Y-90906600D03*
X219161400Y-93181600D03*
X218211400Y-93181600D03*
X217261400Y-93181600D03*
G04 #@! TD*
D32*
G04 #@! TO.C,C14*
X219288400Y-86563200D03*
X217563400Y-86563200D03*
G04 #@! TD*
G04 #@! TO.C,C13*
X219288400Y-88163200D03*
X217563400Y-88163200D03*
G04 #@! TD*
D41*
G04 #@! TO.C,R32*
X207340200Y-75541500D03*
X207340200Y-77366500D03*
G04 #@! TD*
D44*
G04 #@! TO.C,C19*
X212742600Y-89611200D03*
X214792600Y-89611200D03*
G04 #@! TD*
D33*
G04 #@! TO.C,R30*
X203684500Y-94640400D03*
X205509500Y-94640400D03*
G04 #@! TD*
%LPD*%
M02*
