G04 #@! TF.GenerationSoftware,KiCad,Pcbnew,9.0.7*
G04 #@! TF.CreationDate,2026-01-22T23:22:05-05:00*
G04 #@! TF.ProjectId,rocket_power_board,726f636b-6574-45f7-906f-7765725f626f,rev?*
G04 #@! TF.SameCoordinates,Original*
G04 #@! TF.FileFunction,Copper,L1,Top*
G04 #@! TF.FilePolarity,Positive*
%FSLAX46Y46*%
G04 Gerber Fmt 4.6, Leading zero omitted, Abs format (unit mm)*
G04 Created by KiCad (PCBNEW 9.0.7) date 2026-01-22 23:22:05*
%MOMM*%
%LPD*%
G01*
G04 APERTURE LIST*
G04 Aperture macros list*
%AMRoundRect*
0 Rectangle with rounded corners*
0 $1 Rounding radius*
0 $2 $3 $4 $5 $6 $7 $8 $9 X,Y pos of 4 corners*
0 Add a 4 corners polygon primitive as box body*
4,1,4,$2,$3,$4,$5,$6,$7,$8,$9,$2,$3,0*
0 Add four circle primitives for the rounded corners*
1,1,$1+$1,$2,$3*
1,1,$1+$1,$4,$5*
1,1,$1+$1,$6,$7*
1,1,$1+$1,$8,$9*
0 Add four rect primitives between the rounded corners*
20,1,$1+$1,$2,$3,$4,$5,0*
20,1,$1+$1,$4,$5,$6,$7,0*
20,1,$1+$1,$6,$7,$8,$9,0*
20,1,$1+$1,$8,$9,$2,$3,0*%
G04 Aperture macros list end*
G04 #@! TA.AperFunction,SMDPad,CuDef*
%ADD10R,1.000000X1.000000*%
G04 #@! TD*
G04 #@! TA.AperFunction,ComponentPad*
%ADD11C,0.800000*%
G04 #@! TD*
G04 #@! TA.AperFunction,ComponentPad*
%ADD12C,6.400000*%
G04 #@! TD*
G04 #@! TA.AperFunction,ComponentPad*
%ADD13R,1.000000X1.000000*%
G04 #@! TD*
G04 #@! TA.AperFunction,ComponentPad*
%ADD14C,1.000000*%
G04 #@! TD*
G04 #@! TA.AperFunction,ComponentPad*
%ADD15C,2.175000*%
G04 #@! TD*
G04 #@! TA.AperFunction,SMDPad,CuDef*
%ADD16RoundRect,0.250001X-0.462499X-0.624999X0.462499X-0.624999X0.462499X0.624999X-0.462499X0.624999X0*%
G04 #@! TD*
G04 #@! TA.AperFunction,SMDPad,CuDef*
%ADD17RoundRect,0.237500X0.250000X0.237500X-0.250000X0.237500X-0.250000X-0.237500X0.250000X-0.237500X0*%
G04 #@! TD*
G04 #@! TA.AperFunction,ComponentPad*
%ADD18R,2.743200X2.743200*%
G04 #@! TD*
G04 #@! TA.AperFunction,ComponentPad*
%ADD19C,2.743200*%
G04 #@! TD*
G04 #@! TA.AperFunction,SMDPad,CuDef*
%ADD20RoundRect,0.237500X-0.237500X0.250000X-0.237500X-0.250000X0.237500X-0.250000X0.237500X0.250000X0*%
G04 #@! TD*
G04 #@! TA.AperFunction,SMDPad,CuDef*
%ADD21RoundRect,0.237500X-0.237500X0.300000X-0.237500X-0.300000X0.237500X-0.300000X0.237500X0.300000X0*%
G04 #@! TD*
G04 #@! TA.AperFunction,SMDPad,CuDef*
%ADD22RoundRect,0.250000X-0.450000X-0.350000X0.450000X-0.350000X0.450000X0.350000X-0.450000X0.350000X0*%
G04 #@! TD*
G04 #@! TA.AperFunction,SMDPad,CuDef*
%ADD23RoundRect,0.237500X0.237500X-0.300000X0.237500X0.300000X-0.237500X0.300000X-0.237500X-0.300000X0*%
G04 #@! TD*
G04 #@! TA.AperFunction,SMDPad,CuDef*
%ADD24RoundRect,0.250000X0.300000X0.300000X-0.300000X0.300000X-0.300000X-0.300000X0.300000X-0.300000X0*%
G04 #@! TD*
G04 #@! TA.AperFunction,SMDPad,CuDef*
%ADD25RoundRect,0.250000X-0.337500X-0.475000X0.337500X-0.475000X0.337500X0.475000X-0.337500X0.475000X0*%
G04 #@! TD*
G04 #@! TA.AperFunction,SMDPad,CuDef*
%ADD26RoundRect,0.237500X0.300000X0.237500X-0.300000X0.237500X-0.300000X-0.237500X0.300000X-0.237500X0*%
G04 #@! TD*
G04 #@! TA.AperFunction,SMDPad,CuDef*
%ADD27RoundRect,0.250000X0.300000X-0.300000X0.300000X0.300000X-0.300000X0.300000X-0.300000X-0.300000X0*%
G04 #@! TD*
G04 #@! TA.AperFunction,SMDPad,CuDef*
%ADD28RoundRect,0.150000X-0.150000X0.750000X-0.150000X-0.750000X0.150000X-0.750000X0.150000X0.750000X0*%
G04 #@! TD*
G04 #@! TA.AperFunction,SMDPad,CuDef*
%ADD29RoundRect,0.250000X-0.300000X-0.300000X0.300000X-0.300000X0.300000X0.300000X-0.300000X0.300000X0*%
G04 #@! TD*
G04 #@! TA.AperFunction,SMDPad,CuDef*
%ADD30RoundRect,0.237500X0.237500X-0.250000X0.237500X0.250000X-0.237500X0.250000X-0.237500X-0.250000X0*%
G04 #@! TD*
G04 #@! TA.AperFunction,ViaPad*
%ADD31C,0.600000*%
G04 #@! TD*
G04 #@! TA.AperFunction,Conductor*
%ADD32C,0.203200*%
G04 #@! TD*
G04 #@! TA.AperFunction,Conductor*
%ADD33C,1.016000*%
G04 #@! TD*
G04 #@! TA.AperFunction,Conductor*
%ADD34C,0.950000*%
G04 #@! TD*
G04 APERTURE END LIST*
D10*
G04 #@! TO.P,5IL,1,1*
G04 #@! TO.N,/5V_Enable/5V_I_Sense_Op_Amp_In*
X201396600Y-89458800D03*
G04 #@! TD*
G04 #@! TO.P,12IL,1,1*
G04 #@! TO.N,/Charge Circuitry+12V-5V Buck/12V_I_Sense_Op_Amp_In*
X211226400Y-71196200D03*
G04 #@! TD*
D11*
G04 #@! TO.P,H4,1,1*
G04 #@! TO.N,GND*
X200800000Y-101600000D03*
X201502944Y-99902944D03*
X201502944Y-103297056D03*
X203200000Y-99200000D03*
D12*
X203200000Y-101600000D03*
D11*
X203200000Y-104000000D03*
X204897056Y-99902944D03*
X204897056Y-103297056D03*
X205600000Y-101600000D03*
G04 #@! TD*
G04 #@! TO.P,H3,1,1*
G04 #@! TO.N,GND*
X226200000Y-101600000D03*
X226902944Y-99902944D03*
X226902944Y-103297056D03*
X228600000Y-99200000D03*
D12*
X228600000Y-101600000D03*
D11*
X228600000Y-104000000D03*
X230297056Y-99902944D03*
X230297056Y-103297056D03*
X231000000Y-101600000D03*
G04 #@! TD*
G04 #@! TO.P,H2,1,1*
G04 #@! TO.N,GND*
X226149200Y-50800000D03*
X226852144Y-49102944D03*
X226852144Y-52497056D03*
X228549200Y-48400000D03*
D12*
X228549200Y-50800000D03*
D11*
X228549200Y-53200000D03*
X230246256Y-49102944D03*
X230246256Y-52497056D03*
X230949200Y-50800000D03*
G04 #@! TD*
G04 #@! TO.P,H1,1,1*
G04 #@! TO.N,GND*
X200800000Y-50800000D03*
X201502944Y-49102944D03*
X201502944Y-52497056D03*
X203200000Y-48400000D03*
D12*
X203200000Y-50800000D03*
D11*
X203200000Y-53200000D03*
X204897056Y-49102944D03*
X204897056Y-52497056D03*
X205600000Y-50800000D03*
G04 #@! TD*
D13*
G04 #@! TO.P,J2,1,CANH*
G04 #@! TO.N,/CANH*
X225750000Y-83350000D03*
D14*
G04 #@! TO.P,J2,2,CANL*
G04 #@! TO.N,/CANL*
X225750000Y-82100000D03*
G04 #@! TO.P,J2,3,NC*
G04 #@! TO.N,unconnected-(J2-NC-Pad3)*
X227000000Y-83350000D03*
G04 #@! TO.P,J2,4,NC*
G04 #@! TO.N,unconnected-(J2-NC-Pad4)*
X227000000Y-82100000D03*
D15*
G04 #@! TO.P,J2,A,+CHG*
G04 #@! TO.N,/Charge_Line*
X226170001Y-79400000D03*
G04 #@! TO.P,J2,B,+12V*
G04 #@! TO.N,+12V*
X226170000Y-75650000D03*
G04 #@! TO.P,J2,C,+5V*
G04 #@! TO.N,+5V_SW*
X226170001Y-71900000D03*
G04 #@! TO.P,J2,D,GND*
G04 #@! TO.N,GND*
X226170000Y-68150000D03*
G04 #@! TD*
D16*
G04 #@! TO.P,D1,1,K*
G04 #@! TO.N,Net-(D1-K)*
X221041900Y-55524400D03*
G04 #@! TO.P,D1,2,A*
G04 #@! TO.N,+5V*
X224016900Y-55524400D03*
G04 #@! TD*
D17*
G04 #@! TO.P,R18,1*
G04 #@! TO.N,+12V*
X221206700Y-75717400D03*
G04 #@! TO.P,R18,2*
G04 #@! TO.N,Net-(U3-PGTH)*
X219381700Y-75717400D03*
G04 #@! TD*
D18*
G04 #@! TO.P,J3,1,Pin_1*
G04 #@! TO.N,Net-(J3-Pin_1)*
X219900500Y-102187899D03*
D19*
G04 #@! TO.P,J3,2,Pin_2*
G04 #@! TO.N,GND*
X211645501Y-102187899D03*
G04 #@! TD*
D20*
G04 #@! TO.P,R24,1*
G04 #@! TO.N,+5V*
X203606400Y-75541500D03*
G04 #@! TO.P,R24,2*
G04 #@! TO.N,Net-(U7-OVLO)*
X203606400Y-77366500D03*
G04 #@! TD*
D21*
G04 #@! TO.P,C4,1*
G04 #@! TO.N,GND*
X207645000Y-52452099D03*
G04 #@! TO.P,C4,2*
G04 #@! TO.N,/OSC2*
X207645000Y-54177101D03*
G04 #@! TD*
D22*
G04 #@! TO.P,Y1,1,1*
G04 #@! TO.N,/OSC2*
X209593000Y-54164600D03*
G04 #@! TO.P,Y1,2,2*
G04 #@! TO.N,GND*
X211793000Y-54164600D03*
G04 #@! TO.P,Y1,3,3*
G04 #@! TO.N,/OSC1*
X211793000Y-52464600D03*
G04 #@! TO.P,Y1,4,4*
G04 #@! TO.N,GND*
X209593000Y-52464600D03*
G04 #@! TD*
D23*
G04 #@! TO.P,C3,1*
G04 #@! TO.N,GND*
X213741000Y-54177101D03*
G04 #@! TO.P,C3,2*
G04 #@! TO.N,/OSC1*
X213741000Y-52452099D03*
G04 #@! TD*
D24*
G04 #@! TO.P,D6,2,A*
G04 #@! TO.N,GND*
X211502800Y-73660000D03*
G04 #@! TO.P,D6,1,K*
G04 #@! TO.N,+12V*
X214302800Y-73660000D03*
G04 #@! TD*
D25*
G04 #@! TO.P,C12,1*
G04 #@! TO.N,+12V*
X219256700Y-72009000D03*
G04 #@! TO.P,C12,2*
G04 #@! TO.N,GND*
X221331700Y-72009000D03*
G04 #@! TD*
D16*
G04 #@! TO.P,D2,1,K*
G04 #@! TO.N,Net-(D2-K)*
X221041900Y-50088800D03*
G04 #@! TO.P,D2,2,A*
G04 #@! TO.N,+5V*
X224016900Y-50088800D03*
G04 #@! TD*
D26*
G04 #@! TO.P,C5,2*
G04 #@! TO.N,GND*
X212040300Y-75793600D03*
G04 #@! TO.P,C5,1*
G04 #@! TO.N,+BATT*
X213765300Y-75793600D03*
G04 #@! TD*
D24*
G04 #@! TO.P,D5,2,A2*
G04 #@! TO.N,+BATT*
X218894200Y-77851000D03*
G04 #@! TO.P,D5,1,A1*
G04 #@! TO.N,GND*
X221694200Y-77851000D03*
G04 #@! TD*
D17*
G04 #@! TO.P,R11,2*
G04 #@! TO.N,/12V_RST{slash}EN*
X219381700Y-74066400D03*
G04 #@! TO.P,R11,1*
G04 #@! TO.N,+BATT*
X221206700Y-74066400D03*
G04 #@! TD*
D27*
G04 #@! TO.P,D8,1,K*
G04 #@! TO.N,+5V_SW*
X201803000Y-67567000D03*
G04 #@! TO.P,D8,2,A*
G04 #@! TO.N,GND*
X201803000Y-64767000D03*
G04 #@! TD*
D28*
G04 #@! TO.P,U2,1,~{MCLR}*
G04 #@! TO.N,/~{MCLR}*
X221361000Y-58090400D03*
G04 #@! TO.P,U2,2,RA0*
G04 #@! TO.N,/5V_Voltage_Sense*
X220091000Y-58090400D03*
G04 #@! TO.P,U2,3,RA1*
G04 #@! TO.N,/Red_LED*
X218821000Y-58090400D03*
G04 #@! TO.P,U2,4,RA2*
G04 #@! TO.N,/White_LED*
X217551000Y-58090400D03*
G04 #@! TO.P,U2,5,RA3*
G04 #@! TO.N,/Blue_LED*
X216281000Y-58090400D03*
G04 #@! TO.P,U2,6,RA4*
G04 #@! TO.N,unconnected-(U2-RA4-Pad6)*
X215011000Y-58090400D03*
G04 #@! TO.P,U2,7,RA5*
G04 #@! TO.N,unconnected-(U2-RA5-Pad7)*
X213741000Y-58090400D03*
G04 #@! TO.P,U2,8,VSS*
G04 #@! TO.N,GND*
X212471000Y-58090400D03*
G04 #@! TO.P,U2,9,RA7/OSC1*
G04 #@! TO.N,/OSC1*
X211201000Y-58090400D03*
G04 #@! TO.P,U2,10,RA6/OSC2*
G04 #@! TO.N,/OSC2*
X209931000Y-58090400D03*
G04 #@! TO.P,U2,11,RC0*
G04 #@! TO.N,unconnected-(U2-RC0-Pad11)*
X208661000Y-58090400D03*
G04 #@! TO.P,U2,12,RC1*
G04 #@! TO.N,/CAN_TX*
X207391000Y-58090400D03*
G04 #@! TO.P,U2,13,RC2*
G04 #@! TO.N,/CAN_RX*
X206121000Y-58090400D03*
G04 #@! TO.P,U2,14,RC3*
G04 #@! TO.N,unconnected-(U2-RC3-Pad14)*
X204851000Y-58090400D03*
G04 #@! TO.P,U2,15,RC4*
G04 #@! TO.N,/5V_Fuse_FLT*
X204851000Y-67690400D03*
G04 #@! TO.P,U2,16,RC5*
G04 #@! TO.N,/12V_Fuse_FLT*
X206121000Y-67690400D03*
G04 #@! TO.P,U2,17,RC6*
G04 #@! TO.N,/BATT_Current_Sense*
X207391000Y-67690400D03*
G04 #@! TO.P,U2,18,RC7*
G04 #@! TO.N,/5V_Fuse_RST{slash}EN*
X208661000Y-67690400D03*
G04 #@! TO.P,U2,19,VSS*
G04 #@! TO.N,GND*
X209931000Y-67690400D03*
G04 #@! TO.P,U2,20,VDD*
G04 #@! TO.N,+5V*
X211201000Y-67690400D03*
G04 #@! TO.P,U2,21,RB0*
G04 #@! TO.N,/12V_RST{slash}EN*
X212471000Y-67690400D03*
G04 #@! TO.P,U2,22,RB1*
G04 #@! TO.N,/BATT_Voltage_Sense*
X213741000Y-67690400D03*
G04 #@! TO.P,U2,23,RB2*
G04 #@! TO.N,unconnected-(U2-RB2-Pad23)*
X215011000Y-67690400D03*
G04 #@! TO.P,U2,24,RB3*
G04 #@! TO.N,/5V_Current_Sense*
X216281000Y-67690400D03*
G04 #@! TO.P,U2,25,RB4*
G04 #@! TO.N,/12V_Current_Sense*
X217551000Y-67690400D03*
G04 #@! TO.P,U2,26,RB5*
G04 #@! TO.N,unconnected-(U2-RB5-Pad26)*
X218821000Y-67690400D03*
G04 #@! TO.P,U2,27,RB6/ICSPCLK*
G04 #@! TO.N,/ICSPCLK*
X220091000Y-67690400D03*
G04 #@! TO.P,U2,28,RB7/ICSPDAT*
G04 #@! TO.N,/ICSPDAT*
X221361000Y-67690400D03*
G04 #@! TD*
D16*
G04 #@! TO.P,D3,1,K*
G04 #@! TO.N,Net-(D3-K)*
X221041900Y-52781200D03*
G04 #@! TO.P,D3,2,A*
G04 #@! TO.N,+5V*
X224016900Y-52781200D03*
G04 #@! TD*
D29*
G04 #@! TO.P,D7,1,A1*
G04 #@! TO.N,GND*
X205127400Y-82575400D03*
G04 #@! TO.P,D7,2,A2*
G04 #@! TO.N,+5V*
X207927400Y-82575400D03*
G04 #@! TD*
D25*
G04 #@! TO.P,C22,1*
G04 #@! TO.N,+5V_SW*
X201756100Y-70916800D03*
G04 #@! TO.P,C22,2*
G04 #@! TO.N,GND*
X203831100Y-70916800D03*
G04 #@! TD*
D17*
G04 #@! TO.P,R4,1*
G04 #@! TO.N,+5V*
X225499300Y-57962800D03*
G04 #@! TO.P,R4,2*
G04 #@! TO.N,/~{MCLR}*
X223674300Y-57962800D03*
G04 #@! TD*
D26*
G04 #@! TO.P,C15,2*
G04 #@! TO.N,GND*
X205715700Y-80264000D03*
G04 #@! TO.P,C15,1*
G04 #@! TO.N,+5V*
X207440700Y-80264000D03*
G04 #@! TD*
D20*
G04 #@! TO.P,R22,1*
G04 #@! TO.N,+BATT*
X201828400Y-75541500D03*
G04 #@! TO.P,R22,2*
G04 #@! TO.N,/5V_Fuse_RST{slash}EN*
X201828400Y-77366500D03*
G04 #@! TD*
D17*
G04 #@! TO.P,R8,1*
G04 #@! TO.N,Net-(D2-K)*
X219149300Y-50063400D03*
G04 #@! TO.P,R8,2*
G04 #@! TO.N,/Blue_LED*
X217324300Y-50063400D03*
G04 #@! TD*
D30*
G04 #@! TO.P,R33,1*
G04 #@! TO.N,Net-(U7-PGTH)*
X207340200Y-77366500D03*
G04 #@! TO.P,R33,2*
G04 #@! TO.N,GND*
X207340200Y-75541500D03*
G04 #@! TD*
D17*
G04 #@! TO.P,R7,2*
G04 #@! TO.N,/Red_LED*
X217298900Y-55499000D03*
G04 #@! TO.P,R7,1*
G04 #@! TO.N,Net-(D1-K)*
X219123900Y-55499000D03*
G04 #@! TD*
G04 #@! TO.P,R9,1*
G04 #@! TO.N,Net-(D3-K)*
X219149300Y-52755800D03*
G04 #@! TO.P,R9,2*
G04 #@! TO.N,/White_LED*
X217324300Y-52755800D03*
G04 #@! TD*
D31*
G04 #@! TO.N,GND*
X211404200Y-59715400D03*
X213944200Y-59740800D03*
X200761600Y-83362800D03*
X223012000Y-73253600D03*
X201320400Y-74091800D03*
X224307400Y-67106800D03*
X230835200Y-61671200D03*
X229285800Y-61849000D03*
G04 #@! TO.N,/5V_Enable/5V_I_Sense_Op_Amp_In*
X201777600Y-86918800D03*
G04 #@! TO.N,GND*
X203073000Y-72237600D03*
G04 #@! TO.N,Net-(U7-OVLO)*
X203833646Y-78382409D03*
G04 #@! TO.N,+5V*
X213995000Y-66116200D03*
G04 #@! TO.N,GND*
X226288600Y-59842400D03*
X219430600Y-64058800D03*
X211226400Y-65074800D03*
X211429600Y-63220600D03*
G04 #@! TO.N,/12V_Current_Sense*
X218922600Y-66167000D03*
G04 #@! TO.N,Net-(R31-Pad2)*
X208411800Y-77749400D03*
X207238600Y-84048600D03*
G04 #@! TO.N,+5V_SW*
X203657200Y-67970400D03*
X202946000Y-67564000D03*
G04 #@! TO.N,/5V_Voltage_Sense*
X220722676Y-56902599D03*
G04 #@! TO.N,+5V*
X226542600Y-56870600D03*
G04 #@! TO.N,GND*
X205105000Y-70764400D03*
G04 #@! TO.N,/5V_Current_Sense*
X216636600Y-66141600D03*
G04 #@! TO.N,/Charge Circuitry+12V-5V Buck/12V_I_Sense_Op_Amp_In*
X215292065Y-69871300D03*
G04 #@! TO.N,GND*
X208940400Y-70942200D03*
G04 #@! TO.N,/BATT_Voltage_Sense*
X213156800Y-66141600D03*
G04 #@! TO.N,GND*
X222834200Y-76555600D03*
G04 #@! TO.N,+5V*
X223774000Y-78257400D03*
G04 #@! TO.N,GND*
X209254221Y-65846018D03*
G04 #@! TO.N,+5V*
X211201000Y-66141600D03*
G04 #@! TO.N,+BATT*
X206781400Y-72720200D03*
G04 #@! TO.N,+5V_SW*
X205155800Y-72948800D03*
G04 #@! TO.N,GND*
X206273400Y-75006200D03*
G04 #@! TO.N,+5V*
X206171800Y-76504800D03*
X225704400Y-55753000D03*
X216509600Y-59537600D03*
X225120200Y-48514000D03*
X225475800Y-53594000D03*
G04 #@! TO.N,/CAN_RX*
X222631000Y-60147200D03*
G04 #@! TO.N,/CAN_TX*
X221335600Y-60985400D03*
G04 #@! TO.N,GND*
X208584800Y-56464200D03*
G04 #@! TO.N,/ICSPDAT*
X221361000Y-65963800D03*
G04 #@! TO.N,/ICSPCLK*
X220091000Y-65963800D03*
G04 #@! TO.N,/~{MCLR}*
X221361000Y-59690000D03*
G04 #@! TO.N,Net-(R20-Pad2)*
X210591400Y-64198797D03*
X227914200Y-90500200D03*
G04 #@! TO.N,/BATT_Current_Sense*
X207035400Y-65760600D03*
G04 #@! TO.N,GND*
X227050600Y-97434400D03*
X224053400Y-97510600D03*
X226923600Y-95021400D03*
X224866200Y-95021400D03*
G04 #@! TO.N,/12V_Fuse_FLT*
X219024200Y-79552800D03*
G04 #@! TO.N,GND*
X209702400Y-78308200D03*
X209702400Y-74904600D03*
G04 #@! TO.N,/12V_RST{slash}EN*
X218567000Y-70510400D03*
G04 #@! TO.N,Net-(R31-Pad2)*
X204444600Y-87985600D03*
X202158600Y-91465400D03*
G04 #@! TO.N,+5V*
X208762600Y-81762600D03*
X208762600Y-81102200D03*
G04 #@! TO.N,GND*
X214934800Y-50698400D03*
X214223600Y-51308000D03*
X208356200Y-55372000D03*
X207746600Y-55956200D03*
X207187800Y-55321200D03*
X206502000Y-55956200D03*
X205836433Y-55279565D03*
X206527400Y-54635400D03*
X205816200Y-54152800D03*
X206527400Y-53543200D03*
X206578200Y-52070000D03*
X207441800Y-51206400D03*
X208026000Y-50698400D03*
X208737200Y-51181000D03*
X209372200Y-50520600D03*
X209956400Y-51231800D03*
X210566000Y-50647600D03*
X211277200Y-51231800D03*
X212090000Y-50622200D03*
X212877400Y-51231800D03*
X213766400Y-50698400D03*
X215290400Y-51409600D03*
X214833200Y-52044600D03*
X215366600Y-52578000D03*
X214807800Y-53263800D03*
X215214200Y-53949600D03*
X214960200Y-54711600D03*
X215315800Y-55422800D03*
X214833200Y-56083200D03*
X214198200Y-55448200D03*
X213639400Y-56057800D03*
X212928200Y-55499000D03*
X212344000Y-56083200D03*
X211836000Y-55473600D03*
G04 #@! TO.N,Net-(U7-PGTH)*
X206324200Y-77800200D03*
G04 #@! TO.N,GND*
X204825600Y-84683600D03*
G04 #@! TO.N,+5V_SW*
X200710800Y-80467200D03*
X200710800Y-79654400D03*
X201523600Y-79654400D03*
X201523600Y-80467200D03*
X202336400Y-80467200D03*
X202336400Y-79654400D03*
X203149200Y-80467200D03*
X203149200Y-79654400D03*
G04 #@! TO.N,/5V_Fuse_RST{slash}EN*
X200698000Y-77368400D03*
G04 #@! TO.N,/Charge Circuitry+12V-5V Buck/12V_I_Sense_Op_Amp_In*
X212919327Y-75049049D03*
G04 #@! TO.N,/5V_Fuse_FLT*
X204851000Y-69545200D03*
G04 #@! TO.N,/12V_RST{slash}EN*
X217576400Y-73685400D03*
G04 #@! TO.N,+BATT*
X216509600Y-76911200D03*
X217322400Y-78384400D03*
X217322400Y-79044800D03*
G04 #@! TO.N,Net-(U3-PGTH)*
X218135200Y-76352400D03*
G04 #@! TO.N,GND*
X214807800Y-76814400D03*
G04 #@! TO.N,+12V*
X214960200Y-72390000D03*
X214960200Y-71399400D03*
X215950800Y-71399400D03*
X216941400Y-71399400D03*
X217932000Y-72390000D03*
X217932000Y-71399400D03*
G04 #@! TO.N,+5V*
X225475800Y-93192600D03*
G04 #@! TO.N,GND*
X216179400Y-89966800D03*
X216179400Y-88722200D03*
X216179400Y-87452200D03*
X216179400Y-86309200D03*
X212013800Y-92379800D03*
G04 #@! TO.N,+5V*
X210159600Y-90576400D03*
X211505800Y-90576400D03*
X210159600Y-88341200D03*
X211505800Y-88341200D03*
X210134200Y-85801200D03*
X211455000Y-85801200D03*
G04 #@! TO.N,/5V_Enable/SW_PIN*
X216662000Y-92100400D03*
X217144600Y-84328000D03*
X217144600Y-85028003D03*
X218211400Y-89814400D03*
X218211400Y-89128600D03*
G04 #@! TO.N,GND*
X229412800Y-55803800D03*
G04 #@! TD*
D32*
G04 #@! TO.N,/12V_RST{slash}EN*
X212471000Y-68681600D02*
X212471000Y-67690400D01*
X218008200Y-69088000D02*
X212877400Y-69088000D01*
X218567000Y-69646800D02*
X218008200Y-69088000D01*
X212877400Y-69088000D02*
X212471000Y-68681600D01*
X218567000Y-70510400D02*
X218567000Y-69646800D01*
G04 #@! TO.N,/5V_Enable/5V_I_Sense_Op_Amp_In*
X201396600Y-87299800D02*
X201396600Y-89458800D01*
X201777600Y-86918800D02*
X201396600Y-87299800D01*
G04 #@! TO.N,/Charge Circuitry+12V-5V Buck/12V_I_Sense_Op_Amp_In*
X212471000Y-71196200D02*
X211226400Y-71196200D01*
X212919327Y-70747873D02*
X212471000Y-71196200D01*
D33*
G04 #@! TO.N,+5V_SW*
X201756100Y-70176300D02*
X201756100Y-70916800D01*
X203657200Y-68275200D02*
X201756100Y-70176300D01*
X203657200Y-67970400D02*
X203657200Y-68275200D01*
X203250800Y-67564000D02*
X203657200Y-67970400D01*
X202946000Y-67564000D02*
X203250800Y-67564000D01*
D32*
G04 #@! TO.N,+12V*
X219887800Y-73101200D02*
X219379800Y-73101200D01*
X220268800Y-75463400D02*
X220268800Y-73482200D01*
X220268800Y-73482200D02*
X219887800Y-73101200D01*
X220522800Y-75717400D02*
X220268800Y-75463400D01*
X221206700Y-75717400D02*
X220522800Y-75717400D01*
G04 #@! TO.N,/5V_Current_Sense*
X216281000Y-66497200D02*
X216281000Y-67690400D01*
X216636600Y-66141600D02*
X216281000Y-66497200D01*
G04 #@! TO.N,/BATT_Voltage_Sense*
X213156800Y-66141600D02*
X213741000Y-66725800D01*
X213741000Y-66725800D02*
X213741000Y-67690400D01*
G04 #@! TO.N,Net-(U7-OVLO)*
X203606400Y-78155163D02*
X203833646Y-78382409D01*
X203606400Y-77366500D02*
X203606400Y-78155163D01*
G04 #@! TO.N,+5V*
X225983800Y-56870600D02*
X226542600Y-56870600D01*
X225499300Y-57355100D02*
X225983800Y-56870600D01*
X225499300Y-57962800D02*
X225499300Y-57355100D01*
X224347100Y-48906100D02*
X224347100Y-50088800D01*
X225120200Y-48514000D02*
X224739200Y-48514000D01*
X224739200Y-48514000D02*
X224347100Y-48906100D01*
X224663000Y-52781200D02*
X224347100Y-52781200D01*
X225475800Y-53594000D02*
X224663000Y-52781200D01*
G04 #@! TO.N,/5V_Voltage_Sense*
X220091000Y-57124600D02*
X220091000Y-58090400D01*
X220319600Y-56896000D02*
X220091000Y-57124600D01*
X220722676Y-56902599D02*
X220716077Y-56896000D01*
X220716077Y-56896000D02*
X220319600Y-56896000D01*
G04 #@! TO.N,/White_LED*
X217551000Y-57073800D02*
X217551000Y-58090400D01*
X216409000Y-55931800D02*
X217551000Y-57073800D01*
X216409000Y-54380400D02*
X216409000Y-55931800D01*
X217400500Y-52781200D02*
X217400500Y-53388900D01*
X217400500Y-53388900D02*
X216409000Y-54380400D01*
G04 #@! TO.N,/Blue_LED*
X216001600Y-56235600D02*
X216281000Y-56515000D01*
X216001600Y-50673000D02*
X216001600Y-56235600D01*
X216281000Y-56515000D02*
X216281000Y-58090400D01*
X216585800Y-50088800D02*
X216001600Y-50673000D01*
X217400500Y-50088800D02*
X216585800Y-50088800D01*
G04 #@! TO.N,/Red_LED*
X218262200Y-55829200D02*
X218262200Y-56489600D01*
X218821000Y-57048400D02*
X218821000Y-58090400D01*
X217957400Y-55524400D02*
X218262200Y-55829200D01*
X217375100Y-55524400D02*
X217957400Y-55524400D01*
X218262200Y-56489600D02*
X218821000Y-57048400D01*
G04 #@! TO.N,/12V_Current_Sense*
X217551000Y-66598800D02*
X217551000Y-67690400D01*
X217982800Y-66167000D02*
X217551000Y-66598800D01*
X218922600Y-66167000D02*
X217982800Y-66167000D01*
G04 #@! TO.N,Net-(R31-Pad2)*
X206603600Y-83413600D02*
X207238600Y-84048600D01*
X206603600Y-80739322D02*
X206603600Y-83413600D01*
X206597400Y-80733122D02*
X206603600Y-80739322D01*
X206597400Y-79690800D02*
X206597400Y-80733122D01*
X208411800Y-77749400D02*
X208411800Y-77876400D01*
X208411800Y-77876400D02*
X206597400Y-79690800D01*
G04 #@! TO.N,+5V*
X208762600Y-79273400D02*
X208762600Y-81102200D01*
X209016600Y-79019400D02*
X208762600Y-79273400D01*
X209016600Y-77343000D02*
X209016600Y-79019400D01*
X208178400Y-76504800D02*
X209016600Y-77343000D01*
X206171800Y-76504800D02*
X208178400Y-76504800D01*
D33*
G04 #@! TO.N,+5V_SW*
X203253800Y-67567000D02*
X203657200Y-67970400D01*
X201803000Y-67567000D02*
X203253800Y-67567000D01*
X202943000Y-67567000D02*
X202946000Y-67564000D01*
X201803000Y-67567000D02*
X202943000Y-67567000D01*
D32*
G04 #@! TO.N,+5V*
X224347100Y-55524400D02*
X225475800Y-55524400D01*
X225475800Y-55524400D02*
X225704400Y-55753000D01*
G04 #@! TO.N,/~{MCLR}*
X222732600Y-57962800D02*
X223674300Y-57962800D01*
X222453200Y-58242200D02*
X222732600Y-57962800D01*
X222021400Y-59690000D02*
X222453200Y-59258200D01*
X222453200Y-59258200D02*
X222453200Y-58242200D01*
X221361000Y-59690000D02*
X222021400Y-59690000D01*
G04 #@! TO.N,Net-(R20-Pad2)*
X227253800Y-66217800D02*
X227914200Y-66878200D01*
X223647000Y-66217800D02*
X227253800Y-66217800D01*
X220878400Y-63449200D02*
X223647000Y-66217800D01*
X212775800Y-63449200D02*
X220878400Y-63449200D01*
X212026203Y-64198797D02*
X212775800Y-63449200D01*
X210591400Y-64198797D02*
X212026203Y-64198797D01*
X227914200Y-66878200D02*
X227914200Y-90500200D01*
G04 #@! TO.N,/Charge Circuitry+12V-5V Buck/12V_I_Sense_Op_Amp_In*
X213795900Y-69871300D02*
X215292065Y-69871300D01*
X212919327Y-70747873D02*
X213795900Y-69871300D01*
X212919327Y-75049049D02*
X212919327Y-70747873D01*
G04 #@! TO.N,+BATT*
X201828400Y-74567531D02*
X201828400Y-75541500D01*
X205994000Y-71932800D02*
X204463131Y-71932800D01*
X206781400Y-72720200D02*
X205994000Y-71932800D01*
X204463131Y-71932800D02*
X201828400Y-74567531D01*
G04 #@! TO.N,GND*
X209931000Y-66522797D02*
X209931000Y-67690400D01*
X209254221Y-65846018D02*
X209931000Y-66522797D01*
G04 #@! TO.N,/BATT_Current_Sense*
X207391000Y-66141600D02*
X207391000Y-67690400D01*
X207162400Y-65887600D02*
X207162400Y-65913000D01*
X207035400Y-65760600D02*
X207162400Y-65887600D01*
X207162400Y-65913000D02*
X207391000Y-66141600D01*
G04 #@! TO.N,+5V*
X211201000Y-67690400D02*
X211201000Y-66141600D01*
G04 #@! TO.N,/12V_Fuse_FLT*
X207619600Y-74015600D02*
X207619600Y-71196200D01*
X206121000Y-69697600D02*
X206121000Y-67690400D01*
X213429600Y-79825600D02*
X207619600Y-74015600D01*
X218751400Y-79825600D02*
X213429600Y-79825600D01*
X219024200Y-79552800D02*
X218751400Y-79825600D01*
X207619600Y-71196200D02*
X206121000Y-69697600D01*
G04 #@! TO.N,+5V_SW*
X204774800Y-72948800D02*
X202717400Y-75006200D01*
X202717400Y-79273400D02*
X202336400Y-79654400D01*
X205155800Y-72948800D02*
X204774800Y-72948800D01*
X202717400Y-75006200D02*
X202717400Y-79273400D01*
G04 #@! TO.N,GND*
X206808700Y-75541500D02*
X206273400Y-75006200D01*
X207340200Y-75541500D02*
X206808700Y-75541500D01*
G04 #@! TO.N,+5V*
X205208500Y-75541500D02*
X206171800Y-76504800D01*
X203606400Y-75541500D02*
X205208500Y-75541500D01*
G04 #@! TO.N,Net-(D2-K)*
X221372100Y-50088800D02*
X219225500Y-50088800D01*
G04 #@! TO.N,Net-(D3-K)*
X221372100Y-52781200D02*
X219225500Y-52781200D01*
G04 #@! TO.N,Net-(D1-K)*
X221372100Y-55524400D02*
X219200100Y-55524400D01*
G04 #@! TO.N,/CAN_RX*
X206121000Y-59148551D02*
X206121000Y-58090400D01*
X208563649Y-61591200D02*
X206121000Y-59148551D01*
X222203000Y-61591200D02*
X208563649Y-61591200D01*
X222631000Y-61163200D02*
X222203000Y-61591200D01*
X222631000Y-60147200D02*
X222631000Y-61163200D01*
G04 #@! TO.N,/CAN_TX*
X207391000Y-59842400D02*
X207391000Y-58090400D01*
X208534000Y-60985400D02*
X207391000Y-59842400D01*
X221335600Y-60985400D02*
X208534000Y-60985400D01*
G04 #@! TO.N,/~{MCLR}*
X221361000Y-59690000D02*
X221361000Y-58090400D01*
G04 #@! TO.N,/OSC1*
X213728499Y-52464600D02*
X213741000Y-52452099D01*
X211793000Y-52464600D02*
X213728499Y-52464600D01*
G04 #@! TO.N,/OSC2*
X207657501Y-54164600D02*
X207645000Y-54177101D01*
X209593000Y-54164600D02*
X207657501Y-54164600D01*
X210334926Y-56423560D02*
X210093560Y-56423560D01*
X209768440Y-55610760D02*
X209327083Y-55610760D01*
X209164523Y-55773320D02*
X209164523Y-55854600D01*
X209931000Y-56586120D02*
X209931000Y-58090400D01*
X210497486Y-56179720D02*
X210497486Y-56261000D01*
X209593000Y-54881600D02*
X209931000Y-55219600D01*
X209593000Y-54164600D02*
X209593000Y-54881600D01*
X209327083Y-56017160D02*
X210334926Y-56017160D01*
X209931000Y-55219600D02*
X209931000Y-55448200D01*
X209164523Y-55854600D02*
G75*
G03*
X209327083Y-56017177I162577J0D01*
G01*
X210497486Y-56261000D02*
G75*
G02*
X210334926Y-56423586I-162586J0D01*
G01*
X210093560Y-56423560D02*
G75*
G03*
X209931060Y-56586120I40J-162540D01*
G01*
X209931000Y-55448200D02*
G75*
G02*
X209768440Y-55610800I-162600J0D01*
G01*
X210334926Y-56017160D02*
G75*
G02*
X210497440Y-56179720I-26J-162540D01*
G01*
X209327083Y-55610760D02*
G75*
G03*
X209164560Y-55773320I17J-162540D01*
G01*
G04 #@! TO.N,/OSC1*
X211201000Y-55524400D02*
X211201000Y-58090400D01*
X210667600Y-54991000D02*
X211201000Y-55524400D01*
X210667600Y-53590000D02*
X210667600Y-54991000D01*
X211793000Y-52464600D02*
X210667600Y-53590000D01*
G04 #@! TO.N,/5V_Fuse_FLT*
X204851000Y-69545200D02*
X204851000Y-67690400D01*
G04 #@! TO.N,/ICSPDAT*
X221361000Y-65963800D02*
X221361000Y-67690400D01*
G04 #@! TO.N,/ICSPCLK*
X220091000Y-65963800D02*
X220091000Y-67690400D01*
G04 #@! TO.N,/5V_Fuse_RST{slash}EN*
X203250800Y-64617600D02*
X207314800Y-64617600D01*
X200698000Y-67170400D02*
X203250800Y-64617600D01*
X200698000Y-77368400D02*
X200698000Y-67170400D01*
X207314800Y-64617600D02*
X208661000Y-65963800D01*
X208661000Y-65963800D02*
X208661000Y-67690400D01*
G04 #@! TO.N,Net-(R31-Pad2)*
X202158600Y-91465400D02*
X204444600Y-89179400D01*
X204444600Y-89179400D02*
X204444600Y-87985600D01*
D34*
G04 #@! TO.N,+5V*
X208762600Y-81102200D02*
X208762600Y-81762600D01*
X207949800Y-82575400D02*
X208762600Y-81762600D01*
X207927400Y-82575400D02*
X207949800Y-82575400D01*
X207924400Y-80264000D02*
X208762600Y-81102200D01*
X207440700Y-80264000D02*
X207924400Y-80264000D01*
D32*
G04 #@! TO.N,Net-(U7-PGTH)*
X206757900Y-77366500D02*
X206324200Y-77800200D01*
X207340200Y-77366500D02*
X206757900Y-77366500D01*
G04 #@! TO.N,/5V_Fuse_RST{slash}EN*
X200699900Y-77366500D02*
X201828400Y-77366500D01*
X200698000Y-77368400D02*
X200699900Y-77366500D01*
G04 #@! TO.N,+BATT*
X222224600Y-74574400D02*
X222224600Y-76225400D01*
X221716600Y-74066400D02*
X222224600Y-74574400D01*
X221206700Y-74066400D02*
X221716600Y-74066400D01*
X222224600Y-76225400D02*
X221491800Y-76958200D01*
X221491800Y-76958200D02*
X216556600Y-76958200D01*
X216556600Y-76958200D02*
X216509600Y-76911200D01*
G04 #@! TO.N,/12V_RST{slash}EN*
X217957400Y-74066400D02*
X217576400Y-73685400D01*
X219381700Y-74066400D02*
X217957400Y-74066400D01*
D34*
G04 #@! TO.N,+BATT*
X216509600Y-76911200D02*
X217322400Y-77724000D01*
X217322400Y-77724000D02*
X217322400Y-78359000D01*
X215392000Y-75793600D02*
X216509600Y-76911200D01*
X213765300Y-75793600D02*
X215392000Y-75793600D01*
X217322400Y-78384400D02*
X217322400Y-79044800D01*
X217830400Y-77851000D02*
X217322400Y-78359000D01*
X218894200Y-77851000D02*
X217830400Y-77851000D01*
X217322400Y-78359000D02*
X217322400Y-78384400D01*
D32*
G04 #@! TO.N,Net-(U3-PGTH)*
X218135200Y-76352400D02*
X218135200Y-76098400D01*
X218135200Y-76098400D02*
X218516200Y-75717400D01*
X218516200Y-75717400D02*
X219381700Y-75717400D01*
G04 #@! TO.N,/5V_Enable/SW_PIN*
X218211400Y-91770200D02*
X218211400Y-89814400D01*
X217881200Y-92100400D02*
X218211400Y-91770200D01*
X216662000Y-92100400D02*
X217881200Y-92100400D01*
G04 #@! TD*
G04 #@! TA.AperFunction,Conductor*
G04 #@! TO.N,+12V*
G36*
X218437709Y-70997225D02*
G01*
X218452700Y-71001241D01*
X218476251Y-71007552D01*
X218535911Y-71043916D01*
X218566441Y-71106763D01*
X218558147Y-71176139D01*
X218543425Y-71201638D01*
X218475847Y-71291910D01*
X218475845Y-71291913D01*
X218425603Y-71426620D01*
X218425601Y-71426627D01*
X218419200Y-71486155D01*
X218419200Y-71759000D01*
X219132700Y-71759000D01*
X219199739Y-71778685D01*
X219245494Y-71831489D01*
X219256700Y-71883000D01*
X219256700Y-72009000D01*
X219382700Y-72009000D01*
X219449739Y-72028685D01*
X219481400Y-72065223D01*
X219481400Y-73270610D01*
X219480633Y-73277473D01*
X219469689Y-73303582D01*
X219461715Y-73330739D01*
X219456362Y-73335377D01*
X219453623Y-73341912D01*
X219430299Y-73357960D01*
X219408911Y-73376494D01*
X219400801Y-73378258D01*
X219396064Y-73381518D01*
X219384081Y-73381895D01*
X219357400Y-73387700D01*
X219078560Y-73387700D01*
X219048746Y-73390495D01*
X218923212Y-73434421D01*
X218816200Y-73513400D01*
X218737221Y-73620412D01*
X218737220Y-73620414D01*
X218717053Y-73678053D01*
X218676332Y-73734830D01*
X218611380Y-73760578D01*
X218600011Y-73761100D01*
X218204100Y-73761100D01*
X218137061Y-73741415D01*
X218091306Y-73688611D01*
X218080100Y-73637100D01*
X218080100Y-73619089D01*
X218080100Y-73619087D01*
X218045773Y-73490979D01*
X217980694Y-73378258D01*
X217979462Y-73376124D01*
X217979458Y-73376119D01*
X217885680Y-73282341D01*
X217885675Y-73282337D01*
X217770823Y-73216028D01*
X217770822Y-73216027D01*
X217738794Y-73207445D01*
X217642713Y-73181700D01*
X217510087Y-73181700D01*
X217433222Y-73202296D01*
X217381977Y-73216027D01*
X217381976Y-73216028D01*
X217267124Y-73282337D01*
X217267119Y-73282341D01*
X217173341Y-73376119D01*
X217173337Y-73376124D01*
X217107028Y-73490976D01*
X217107027Y-73490977D01*
X217101019Y-73513400D01*
X217072700Y-73619087D01*
X217072700Y-73619089D01*
X217072700Y-73751710D01*
X217072699Y-73751710D01*
X217107027Y-73879822D01*
X217107028Y-73879823D01*
X217173337Y-73994675D01*
X217173339Y-73994678D01*
X217173340Y-73994679D01*
X217267121Y-74088460D01*
X217381979Y-74154773D01*
X217510087Y-74189100D01*
X217510090Y-74189100D01*
X217596979Y-74189100D01*
X217664018Y-74208785D01*
X217684660Y-74225419D01*
X217769941Y-74310700D01*
X217839558Y-74350894D01*
X217860364Y-74356468D01*
X217917207Y-74371700D01*
X218600010Y-74371700D01*
X218667049Y-74391385D01*
X218712804Y-74444189D01*
X218717051Y-74454745D01*
X218737219Y-74512383D01*
X218737221Y-74512387D01*
X218737222Y-74512388D01*
X218816200Y-74619400D01*
X218902846Y-74683347D01*
X218945096Y-74738994D01*
X218950555Y-74808650D01*
X218917488Y-74870200D01*
X218856394Y-74904101D01*
X218829691Y-74907116D01*
X213502294Y-74927684D01*
X213435179Y-74908258D01*
X213393911Y-74861004D01*
X213392764Y-74861667D01*
X213389396Y-74855833D01*
X213389220Y-74855632D01*
X213389033Y-74855205D01*
X213322389Y-74739773D01*
X213322385Y-74739768D01*
X213260946Y-74678329D01*
X213227461Y-74617006D01*
X213224627Y-74590648D01*
X213224627Y-74007844D01*
X213502800Y-74007844D01*
X213509201Y-74067372D01*
X213509203Y-74067379D01*
X213559445Y-74202086D01*
X213559449Y-74202093D01*
X213645609Y-74317187D01*
X213645612Y-74317190D01*
X213760706Y-74403350D01*
X213760713Y-74403354D01*
X213895420Y-74453596D01*
X213895427Y-74453598D01*
X213954955Y-74459999D01*
X213954972Y-74460000D01*
X214052800Y-74460000D01*
X214552800Y-74460000D01*
X214650628Y-74460000D01*
X214650644Y-74459999D01*
X214710172Y-74453598D01*
X214710179Y-74453596D01*
X214844886Y-74403354D01*
X214844893Y-74403350D01*
X214959987Y-74317190D01*
X214959990Y-74317187D01*
X215046150Y-74202093D01*
X215046154Y-74202086D01*
X215096396Y-74067379D01*
X215096398Y-74067372D01*
X215102799Y-74007844D01*
X215102800Y-74007827D01*
X215102800Y-73910000D01*
X214552800Y-73910000D01*
X214552800Y-74460000D01*
X214052800Y-74460000D01*
X214052800Y-73910000D01*
X213502800Y-73910000D01*
X213502800Y-74007844D01*
X213224627Y-74007844D01*
X213224627Y-73312155D01*
X213502800Y-73312155D01*
X213502800Y-73410000D01*
X214052800Y-73410000D01*
X214552800Y-73410000D01*
X215102800Y-73410000D01*
X215102800Y-73312172D01*
X215102799Y-73312155D01*
X215096398Y-73252627D01*
X215096396Y-73252620D01*
X215046154Y-73117913D01*
X215046150Y-73117906D01*
X214959990Y-73002812D01*
X214959987Y-73002809D01*
X214844893Y-72916649D01*
X214844886Y-72916645D01*
X214710179Y-72866403D01*
X214710172Y-72866401D01*
X214650644Y-72860000D01*
X214552800Y-72860000D01*
X214552800Y-73410000D01*
X214052800Y-73410000D01*
X214052800Y-72860000D01*
X213954955Y-72860000D01*
X213895427Y-72866401D01*
X213895420Y-72866403D01*
X213760713Y-72916645D01*
X213760706Y-72916649D01*
X213645612Y-73002809D01*
X213645609Y-73002812D01*
X213559449Y-73117906D01*
X213559445Y-73117913D01*
X213509203Y-73252620D01*
X213509201Y-73252627D01*
X213502800Y-73312155D01*
X213224627Y-73312155D01*
X213224627Y-72531844D01*
X218419200Y-72531844D01*
X218425601Y-72591372D01*
X218425603Y-72591379D01*
X218475845Y-72726086D01*
X218475849Y-72726093D01*
X218562009Y-72841187D01*
X218562012Y-72841190D01*
X218677106Y-72927350D01*
X218677113Y-72927354D01*
X218811820Y-72977596D01*
X218811827Y-72977598D01*
X218871355Y-72983999D01*
X218871372Y-72984000D01*
X219006700Y-72984000D01*
X219006700Y-72259000D01*
X218419200Y-72259000D01*
X218419200Y-72531844D01*
X213224627Y-72531844D01*
X213224627Y-71117000D01*
X213244312Y-71049961D01*
X213297116Y-71004206D01*
X213348627Y-70993000D01*
X218405616Y-70993000D01*
X218437709Y-70997225D01*
G37*
G04 #@! TD.AperFunction*
G04 #@! TD*
G04 #@! TA.AperFunction,Conductor*
G04 #@! TO.N,/5V_Enable/SW_PIN*
G36*
X217236731Y-83865402D02*
G01*
X217257705Y-83882305D01*
X218784095Y-85408695D01*
X218818121Y-85471007D01*
X218821000Y-85497790D01*
X218821000Y-90191659D01*
X218800998Y-90259780D01*
X218747342Y-90306273D01*
X218695000Y-90317659D01*
X217753200Y-90317659D01*
X217685079Y-90297657D01*
X217638586Y-90244001D01*
X217627200Y-90191659D01*
X217627200Y-86202859D01*
X217627199Y-86202857D01*
X216622705Y-85198363D01*
X216588679Y-85136051D01*
X216585800Y-85109268D01*
X216585800Y-83971400D01*
X216605802Y-83903279D01*
X216659458Y-83856786D01*
X216711800Y-83845400D01*
X217168610Y-83845400D01*
X217236731Y-83865402D01*
G37*
G04 #@! TD.AperFunction*
G04 #@! TD*
G04 #@! TA.AperFunction,Conductor*
G04 #@! TO.N,GND*
G36*
X228603244Y-47516070D02*
G01*
X228936795Y-47533551D01*
X228949702Y-47534908D01*
X229093953Y-47557754D01*
X229276381Y-47586647D01*
X229289068Y-47589343D01*
X229608573Y-47674954D01*
X229620911Y-47678964D01*
X229929700Y-47797497D01*
X229941542Y-47802769D01*
X230236276Y-47952944D01*
X230247492Y-47959420D01*
X230480813Y-48110940D01*
X230524892Y-48139565D01*
X230535393Y-48147194D01*
X230792445Y-48355351D01*
X230802090Y-48364036D01*
X231035963Y-48597909D01*
X231044648Y-48607554D01*
X231252805Y-48864606D01*
X231260434Y-48875107D01*
X231440576Y-49152502D01*
X231447058Y-49163729D01*
X231586184Y-49436777D01*
X231597225Y-49458446D01*
X231602504Y-49470304D01*
X231721035Y-49779089D01*
X231725046Y-49791432D01*
X231810654Y-50110925D01*
X231813352Y-50123622D01*
X231865091Y-50450297D01*
X231866448Y-50463204D01*
X231883930Y-50796756D01*
X231884100Y-50803246D01*
X231884100Y-101596753D01*
X231883930Y-101603243D01*
X231866448Y-101936795D01*
X231865091Y-101949702D01*
X231813352Y-102276377D01*
X231810654Y-102289074D01*
X231725046Y-102608567D01*
X231721035Y-102620910D01*
X231602504Y-102929695D01*
X231597225Y-102941553D01*
X231447062Y-103236264D01*
X231440572Y-103247504D01*
X231260434Y-103524892D01*
X231252805Y-103535393D01*
X231044648Y-103792445D01*
X231035963Y-103802090D01*
X230802090Y-104035963D01*
X230792445Y-104044648D01*
X230535393Y-104252805D01*
X230524892Y-104260434D01*
X230247504Y-104440572D01*
X230236264Y-104447062D01*
X229941553Y-104597225D01*
X229929695Y-104602504D01*
X229620910Y-104721035D01*
X229608567Y-104725046D01*
X229289074Y-104810654D01*
X229276377Y-104813352D01*
X228949702Y-104865091D01*
X228936795Y-104866448D01*
X228603244Y-104883930D01*
X228596754Y-104884100D01*
X203203246Y-104884100D01*
X203196756Y-104883930D01*
X202863204Y-104866448D01*
X202850297Y-104865091D01*
X202523622Y-104813352D01*
X202510925Y-104810654D01*
X202191432Y-104725046D01*
X202179089Y-104721035D01*
X201870304Y-104602504D01*
X201858446Y-104597225D01*
X201563729Y-104447058D01*
X201552502Y-104440576D01*
X201275107Y-104260434D01*
X201264606Y-104252805D01*
X201007554Y-104044648D01*
X200997909Y-104035963D01*
X200764036Y-103802090D01*
X200755351Y-103792445D01*
X200547194Y-103535393D01*
X200539565Y-103524892D01*
X200359420Y-103247492D01*
X200352944Y-103236276D01*
X200202769Y-102941542D01*
X200197495Y-102929695D01*
X200078964Y-102620910D01*
X200074953Y-102608567D01*
X200063981Y-102567620D01*
X199989343Y-102289068D01*
X199986647Y-102276378D01*
X199973385Y-102192646D01*
X199952420Y-102060270D01*
X210023901Y-102060270D01*
X210023901Y-102315527D01*
X210063829Y-102567620D01*
X210142707Y-102810379D01*
X210258585Y-103037802D01*
X210335786Y-103144059D01*
X210335786Y-103144060D01*
X210844642Y-102635204D01*
X210935240Y-102770795D01*
X211062605Y-102898160D01*
X211198194Y-102988757D01*
X210689338Y-103497612D01*
X210795597Y-103574814D01*
X211023020Y-103690692D01*
X211265779Y-103769570D01*
X211517873Y-103809499D01*
X211773129Y-103809499D01*
X212025222Y-103769570D01*
X212267981Y-103690692D01*
X212486080Y-103579565D01*
X218325199Y-103579565D01*
X218337017Y-103638975D01*
X218337018Y-103638978D01*
X218337019Y-103638979D01*
X218382040Y-103706359D01*
X218449420Y-103751380D01*
X218449423Y-103751381D01*
X218508833Y-103763199D01*
X218508836Y-103763199D01*
X221292166Y-103763199D01*
X221351576Y-103751381D01*
X221351577Y-103751380D01*
X221351580Y-103751380D01*
X221418960Y-103706359D01*
X221463981Y-103638979D01*
X221475800Y-103579563D01*
X221475800Y-100796235D01*
X221475800Y-100796232D01*
X221463982Y-100736822D01*
X221463981Y-100736819D01*
X221429427Y-100685105D01*
X221418960Y-100669439D01*
X221351580Y-100624418D01*
X221351579Y-100624417D01*
X221351576Y-100624416D01*
X221292166Y-100612599D01*
X221292164Y-100612599D01*
X218508836Y-100612599D01*
X218508834Y-100612599D01*
X218449423Y-100624416D01*
X218449420Y-100624417D01*
X218382040Y-100669439D01*
X218337018Y-100736819D01*
X218337017Y-100736822D01*
X218325200Y-100796232D01*
X218325200Y-100796235D01*
X218325200Y-103579563D01*
X218325200Y-103579565D01*
X218325199Y-103579565D01*
X212486080Y-103579565D01*
X212495396Y-103574818D01*
X212495402Y-103574814D01*
X212601661Y-103497612D01*
X212601662Y-103497612D01*
X212092807Y-102988757D01*
X212228397Y-102898160D01*
X212355762Y-102770795D01*
X212446359Y-102635205D01*
X212955214Y-103144060D01*
X212955214Y-103144059D01*
X213032416Y-103037800D01*
X213032420Y-103037794D01*
X213148294Y-102810379D01*
X213227172Y-102567620D01*
X213267101Y-102315527D01*
X213267101Y-102060270D01*
X213227172Y-101808177D01*
X213148294Y-101565418D01*
X213032416Y-101337995D01*
X212955214Y-101231737D01*
X212955214Y-101231736D01*
X212446359Y-101740592D01*
X212355762Y-101605003D01*
X212228397Y-101477638D01*
X212092805Y-101387039D01*
X212601662Y-100878184D01*
X212495404Y-100800983D01*
X212267981Y-100685105D01*
X212025222Y-100606227D01*
X211773129Y-100566299D01*
X211517873Y-100566299D01*
X211265779Y-100606227D01*
X211023020Y-100685105D01*
X210795594Y-100800985D01*
X210689339Y-100878183D01*
X210689338Y-100878184D01*
X211198194Y-101387040D01*
X211062605Y-101477638D01*
X210935240Y-101605003D01*
X210844642Y-101740592D01*
X210335786Y-101231736D01*
X210335785Y-101231737D01*
X210258587Y-101337992D01*
X210142707Y-101565418D01*
X210063829Y-101808177D01*
X210023901Y-102060270D01*
X199952420Y-102060270D01*
X199934908Y-101949702D01*
X199933551Y-101936795D01*
X199916070Y-101603243D01*
X199915900Y-101596753D01*
X199915900Y-93258910D01*
X224972099Y-93258910D01*
X225006427Y-93387022D01*
X225006428Y-93387023D01*
X225072737Y-93501875D01*
X225072739Y-93501878D01*
X225072740Y-93501879D01*
X225166521Y-93595660D01*
X225281379Y-93661973D01*
X225409487Y-93696300D01*
X225409490Y-93696300D01*
X225542110Y-93696300D01*
X225542113Y-93696300D01*
X225670221Y-93661973D01*
X225785079Y-93595660D01*
X225878860Y-93501879D01*
X225945173Y-93387021D01*
X225979500Y-93258913D01*
X225979500Y-93126287D01*
X225945173Y-92998179D01*
X225878860Y-92883321D01*
X225785079Y-92789540D01*
X225785078Y-92789539D01*
X225785075Y-92789537D01*
X225670223Y-92723228D01*
X225670222Y-92723227D01*
X225638194Y-92714645D01*
X225542113Y-92688900D01*
X225409487Y-92688900D01*
X225332622Y-92709496D01*
X225281377Y-92723227D01*
X225281376Y-92723228D01*
X225166524Y-92789537D01*
X225166519Y-92789541D01*
X225072741Y-92883319D01*
X225072737Y-92883324D01*
X225006428Y-92998176D01*
X225006427Y-92998177D01*
X224989263Y-93062233D01*
X224972100Y-93126287D01*
X224972100Y-93126289D01*
X224972100Y-93258910D01*
X224972099Y-93258910D01*
X199915900Y-93258910D01*
X199915900Y-92166710D01*
X216158299Y-92166710D01*
X216192627Y-92294822D01*
X216192628Y-92294823D01*
X216258937Y-92409675D01*
X216258939Y-92409678D01*
X216258940Y-92409679D01*
X216352721Y-92503460D01*
X216467579Y-92569773D01*
X216595687Y-92604100D01*
X216595690Y-92604100D01*
X216728310Y-92604100D01*
X216728313Y-92604100D01*
X216856421Y-92569773D01*
X216971279Y-92503460D01*
X217032720Y-92442019D01*
X217094043Y-92408534D01*
X217120401Y-92405700D01*
X217921390Y-92405700D01*
X217921393Y-92405700D01*
X217999041Y-92384894D01*
X218068659Y-92344700D01*
X218455700Y-91957659D01*
X218495894Y-91888042D01*
X218509140Y-91838607D01*
X218516700Y-91810393D01*
X218516700Y-90650359D01*
X218536385Y-90583320D01*
X218589189Y-90537565D01*
X218640700Y-90526359D01*
X218695000Y-90526359D01*
X218739361Y-90521590D01*
X218791703Y-90510204D01*
X218796229Y-90509097D01*
X218802035Y-90507679D01*
X218802036Y-90507678D01*
X218802042Y-90507677D01*
X218884011Y-90463998D01*
X218937667Y-90417505D01*
X218955903Y-90399638D01*
X219001244Y-90318577D01*
X219021246Y-90250456D01*
X219029700Y-90191659D01*
X219029700Y-85497790D01*
X219028505Y-85475485D01*
X219025626Y-85448702D01*
X219025625Y-85448700D01*
X219025625Y-85448697D01*
X219006152Y-85386509D01*
X219001291Y-85370985D01*
X218967265Y-85308673D01*
X218931668Y-85261122D01*
X218931662Y-85261116D01*
X218931657Y-85261110D01*
X217405286Y-83734739D01*
X217388653Y-83719798D01*
X217388651Y-83719797D01*
X217367690Y-83702904D01*
X217295528Y-83665155D01*
X217227412Y-83645155D01*
X217227402Y-83645153D01*
X217188505Y-83639560D01*
X217168610Y-83636700D01*
X216711800Y-83636700D01*
X216667445Y-83641468D01*
X216667441Y-83641468D01*
X216667439Y-83641469D01*
X216615097Y-83652855D01*
X216615056Y-83652864D01*
X216604764Y-83655379D01*
X216604759Y-83655381D01*
X216522787Y-83699061D01*
X216522787Y-83699062D01*
X216469143Y-83745544D01*
X216450895Y-83763423D01*
X216450894Y-83763424D01*
X216405557Y-83844480D01*
X216405556Y-83844482D01*
X216398044Y-83870066D01*
X216385554Y-83912601D01*
X216385553Y-83912607D01*
X216377596Y-83967951D01*
X216377100Y-83971400D01*
X216377100Y-85109268D01*
X216377843Y-85123145D01*
X216378294Y-85131561D01*
X216378295Y-85131577D01*
X216381173Y-85158354D01*
X216381174Y-85158360D01*
X216405508Y-85236071D01*
X216439532Y-85298380D01*
X216439532Y-85298381D01*
X216439535Y-85298385D01*
X216475132Y-85345936D01*
X216475136Y-85345940D01*
X216475142Y-85345947D01*
X217382181Y-86252985D01*
X217415666Y-86314308D01*
X217418500Y-86340666D01*
X217418500Y-90191659D01*
X217423269Y-90236020D01*
X217430035Y-90267124D01*
X217434664Y-90288402D01*
X217437179Y-90298694D01*
X217437181Y-90298699D01*
X217480861Y-90380671D01*
X217526975Y-90433889D01*
X217527354Y-90434326D01*
X217545221Y-90452562D01*
X217545223Y-90452563D01*
X217545224Y-90452564D01*
X217565663Y-90463996D01*
X217626282Y-90497903D01*
X217694403Y-90517905D01*
X217753200Y-90526359D01*
X217782100Y-90526359D01*
X217849139Y-90546044D01*
X217894894Y-90598848D01*
X217906100Y-90650359D01*
X217906100Y-91592379D01*
X217897455Y-91621819D01*
X217890932Y-91651806D01*
X217887177Y-91656821D01*
X217886415Y-91659418D01*
X217869781Y-91680060D01*
X217791060Y-91758781D01*
X217729737Y-91792266D01*
X217703379Y-91795100D01*
X217120401Y-91795100D01*
X217053362Y-91775415D01*
X217032720Y-91758781D01*
X216971280Y-91697341D01*
X216971275Y-91697337D01*
X216856423Y-91631028D01*
X216856422Y-91631027D01*
X216822057Y-91621819D01*
X216728313Y-91596700D01*
X216595687Y-91596700D01*
X216518822Y-91617296D01*
X216467577Y-91631027D01*
X216467576Y-91631028D01*
X216352724Y-91697337D01*
X216352719Y-91697341D01*
X216258941Y-91791119D01*
X216258937Y-91791124D01*
X216192628Y-91905976D01*
X216192627Y-91905977D01*
X216175463Y-91970033D01*
X216158300Y-92034087D01*
X216158300Y-92034089D01*
X216158300Y-92166710D01*
X216158299Y-92166710D01*
X199915900Y-92166710D01*
X199915900Y-91531710D01*
X201654899Y-91531710D01*
X201689227Y-91659822D01*
X201689228Y-91659823D01*
X201755537Y-91774675D01*
X201755539Y-91774678D01*
X201755540Y-91774679D01*
X201849321Y-91868460D01*
X201849322Y-91868461D01*
X201849324Y-91868462D01*
X201883238Y-91888042D01*
X201964179Y-91934773D01*
X202092287Y-91969100D01*
X202092290Y-91969100D01*
X202224910Y-91969100D01*
X202224913Y-91969100D01*
X202353021Y-91934773D01*
X202467879Y-91868460D01*
X202561660Y-91774679D01*
X202627973Y-91659821D01*
X202662300Y-91531713D01*
X202662300Y-91444820D01*
X202681985Y-91377781D01*
X202698619Y-91357139D01*
X203413048Y-90642710D01*
X209655899Y-90642710D01*
X209690227Y-90770822D01*
X209690228Y-90770823D01*
X209756537Y-90885675D01*
X209756539Y-90885678D01*
X209756540Y-90885679D01*
X209850321Y-90979460D01*
X209850322Y-90979461D01*
X209850324Y-90979462D01*
X209907750Y-91012616D01*
X209965179Y-91045773D01*
X210093287Y-91080100D01*
X210093290Y-91080100D01*
X210225910Y-91080100D01*
X210225913Y-91080100D01*
X210354021Y-91045773D01*
X210468879Y-90979460D01*
X210562660Y-90885679D01*
X210628973Y-90770821D01*
X210663300Y-90642713D01*
X210663300Y-90642710D01*
X211002099Y-90642710D01*
X211036427Y-90770822D01*
X211036428Y-90770823D01*
X211102737Y-90885675D01*
X211102739Y-90885678D01*
X211102740Y-90885679D01*
X211196521Y-90979460D01*
X211196522Y-90979461D01*
X211196524Y-90979462D01*
X211253950Y-91012616D01*
X211311379Y-91045773D01*
X211439487Y-91080100D01*
X211439490Y-91080100D01*
X211572110Y-91080100D01*
X211572113Y-91080100D01*
X211700221Y-91045773D01*
X211815079Y-90979460D01*
X211908860Y-90885679D01*
X211975173Y-90770821D01*
X212009500Y-90642713D01*
X212009500Y-90510087D01*
X211975173Y-90381979D01*
X211927093Y-90298701D01*
X211908862Y-90267124D01*
X211908858Y-90267119D01*
X211815080Y-90173341D01*
X211815075Y-90173337D01*
X211700223Y-90107028D01*
X211700222Y-90107027D01*
X211663323Y-90097140D01*
X211572113Y-90072700D01*
X211439487Y-90072700D01*
X211362622Y-90093296D01*
X211311377Y-90107027D01*
X211311376Y-90107028D01*
X211196524Y-90173337D01*
X211196519Y-90173341D01*
X211102741Y-90267119D01*
X211102737Y-90267124D01*
X211036428Y-90381976D01*
X211036427Y-90381977D01*
X211022403Y-90434315D01*
X211002100Y-90510087D01*
X211002100Y-90510089D01*
X211002100Y-90642710D01*
X211002099Y-90642710D01*
X210663300Y-90642710D01*
X210663300Y-90510087D01*
X210628973Y-90381979D01*
X210580893Y-90298701D01*
X210562662Y-90267124D01*
X210562658Y-90267119D01*
X210468880Y-90173341D01*
X210468875Y-90173337D01*
X210354023Y-90107028D01*
X210354022Y-90107027D01*
X210317123Y-90097140D01*
X210225913Y-90072700D01*
X210093287Y-90072700D01*
X210016422Y-90093296D01*
X209965177Y-90107027D01*
X209965176Y-90107028D01*
X209850324Y-90173337D01*
X209850319Y-90173341D01*
X209756541Y-90267119D01*
X209756537Y-90267124D01*
X209690228Y-90381976D01*
X209690227Y-90381977D01*
X209676203Y-90434315D01*
X209655900Y-90510087D01*
X209655900Y-90510089D01*
X209655900Y-90642710D01*
X209655899Y-90642710D01*
X203413048Y-90642710D01*
X203673782Y-90381976D01*
X204688900Y-89366859D01*
X204729094Y-89297242D01*
X204734667Y-89276438D01*
X204734668Y-89276438D01*
X204734668Y-89276435D01*
X204749900Y-89219593D01*
X204749900Y-88444001D01*
X204756168Y-88422651D01*
X204757279Y-88407510D01*
X209655899Y-88407510D01*
X209690227Y-88535622D01*
X209690228Y-88535623D01*
X209756537Y-88650475D01*
X209756539Y-88650478D01*
X209756540Y-88650479D01*
X209850321Y-88744260D01*
X209850322Y-88744261D01*
X209850324Y-88744262D01*
X209889564Y-88766917D01*
X209965179Y-88810573D01*
X210093287Y-88844900D01*
X210093290Y-88844900D01*
X210225910Y-88844900D01*
X210225913Y-88844900D01*
X210354021Y-88810573D01*
X210468879Y-88744260D01*
X210562660Y-88650479D01*
X210628973Y-88535621D01*
X210663300Y-88407513D01*
X210663300Y-88407510D01*
X211002099Y-88407510D01*
X211036427Y-88535622D01*
X211036428Y-88535623D01*
X211102737Y-88650475D01*
X211102739Y-88650478D01*
X211102740Y-88650479D01*
X211196521Y-88744260D01*
X211196522Y-88744261D01*
X211196524Y-88744262D01*
X211235764Y-88766917D01*
X211311379Y-88810573D01*
X211439487Y-88844900D01*
X211439490Y-88844900D01*
X211572110Y-88844900D01*
X211572113Y-88844900D01*
X211700221Y-88810573D01*
X211815079Y-88744260D01*
X211908860Y-88650479D01*
X211975173Y-88535621D01*
X212009500Y-88407513D01*
X212009500Y-88274887D01*
X211975173Y-88146779D01*
X211942016Y-88089350D01*
X211908862Y-88031924D01*
X211908858Y-88031919D01*
X211815080Y-87938141D01*
X211815075Y-87938137D01*
X211700223Y-87871828D01*
X211700222Y-87871827D01*
X211668194Y-87863245D01*
X211572113Y-87837500D01*
X211439487Y-87837500D01*
X211362622Y-87858096D01*
X211311377Y-87871827D01*
X211311376Y-87871828D01*
X211196524Y-87938137D01*
X211196519Y-87938141D01*
X211102741Y-88031919D01*
X211102737Y-88031924D01*
X211036428Y-88146776D01*
X211036427Y-88146777D01*
X211019263Y-88210833D01*
X211002100Y-88274887D01*
X211002100Y-88274889D01*
X211002100Y-88407510D01*
X211002099Y-88407510D01*
X210663300Y-88407510D01*
X210663300Y-88274887D01*
X210628973Y-88146779D01*
X210595816Y-88089350D01*
X210562662Y-88031924D01*
X210562658Y-88031919D01*
X210468880Y-87938141D01*
X210468875Y-87938137D01*
X210354023Y-87871828D01*
X210354022Y-87871827D01*
X210321994Y-87863245D01*
X210225913Y-87837500D01*
X210093287Y-87837500D01*
X210016422Y-87858096D01*
X209965177Y-87871827D01*
X209965176Y-87871828D01*
X209850324Y-87938137D01*
X209850319Y-87938141D01*
X209756541Y-88031919D01*
X209756537Y-88031924D01*
X209690228Y-88146776D01*
X209690227Y-88146777D01*
X209673063Y-88210833D01*
X209655900Y-88274887D01*
X209655900Y-88274889D01*
X209655900Y-88407510D01*
X209655899Y-88407510D01*
X204757279Y-88407510D01*
X204757796Y-88400459D01*
X204766783Y-88386501D01*
X204769585Y-88376962D01*
X204774766Y-88369513D01*
X204780024Y-88362514D01*
X204847660Y-88294879D01*
X204913973Y-88180021D01*
X204948300Y-88051913D01*
X204948300Y-87919287D01*
X204913973Y-87791179D01*
X204847660Y-87676321D01*
X204753879Y-87582540D01*
X204753878Y-87582539D01*
X204753875Y-87582537D01*
X204639023Y-87516228D01*
X204639022Y-87516227D01*
X204606994Y-87507645D01*
X204510913Y-87481900D01*
X204378287Y-87481900D01*
X204301422Y-87502496D01*
X204250177Y-87516227D01*
X204250176Y-87516228D01*
X204135324Y-87582537D01*
X204135319Y-87582541D01*
X204041541Y-87676319D01*
X204041537Y-87676324D01*
X203975228Y-87791176D01*
X203975227Y-87791177D01*
X203962815Y-87837500D01*
X203940900Y-87919287D01*
X203940900Y-87919289D01*
X203940900Y-88051910D01*
X203940899Y-88051910D01*
X203975227Y-88180022D01*
X203975228Y-88180023D01*
X204041537Y-88294875D01*
X204041541Y-88294880D01*
X204102981Y-88356320D01*
X204136466Y-88417643D01*
X204139300Y-88444001D01*
X204139300Y-89001578D01*
X204119615Y-89068617D01*
X204102981Y-89089259D01*
X202266859Y-90925381D01*
X202205536Y-90958866D01*
X202179178Y-90961700D01*
X202092287Y-90961700D01*
X202015422Y-90982296D01*
X201964177Y-90996027D01*
X201964176Y-90996028D01*
X201849324Y-91062337D01*
X201849319Y-91062341D01*
X201755541Y-91156119D01*
X201755537Y-91156124D01*
X201689228Y-91270976D01*
X201689227Y-91270977D01*
X201672063Y-91335033D01*
X201654900Y-91399087D01*
X201654900Y-91399089D01*
X201654900Y-91531710D01*
X201654899Y-91531710D01*
X199915900Y-91531710D01*
X199915900Y-89978866D01*
X200692899Y-89978866D01*
X200704717Y-90038276D01*
X200704718Y-90038279D01*
X200704719Y-90038280D01*
X200749740Y-90105660D01*
X200817120Y-90150681D01*
X200817123Y-90150682D01*
X200876533Y-90162500D01*
X200876536Y-90162500D01*
X201916666Y-90162500D01*
X201976076Y-90150682D01*
X201976077Y-90150681D01*
X201976080Y-90150681D01*
X202043460Y-90105660D01*
X202088481Y-90038280D01*
X202100300Y-89978864D01*
X202100300Y-88938736D01*
X202100300Y-88938733D01*
X202088482Y-88879323D01*
X202088481Y-88879320D01*
X202043460Y-88811940D01*
X201976080Y-88766919D01*
X201976079Y-88766918D01*
X201976076Y-88766917D01*
X201916666Y-88755100D01*
X201916664Y-88755100D01*
X201825900Y-88755100D01*
X201758861Y-88735415D01*
X201713106Y-88682611D01*
X201701900Y-88631100D01*
X201701900Y-87546500D01*
X201721585Y-87479461D01*
X201774389Y-87433706D01*
X201825900Y-87422500D01*
X201843910Y-87422500D01*
X201843913Y-87422500D01*
X201972021Y-87388173D01*
X202086879Y-87321860D01*
X202180660Y-87228079D01*
X202246973Y-87113221D01*
X202281300Y-86985113D01*
X202281300Y-86852487D01*
X202246973Y-86724379D01*
X202180660Y-86609521D01*
X202086879Y-86515740D01*
X202086878Y-86515739D01*
X202086875Y-86515737D01*
X201972023Y-86449428D01*
X201972022Y-86449427D01*
X201939994Y-86440845D01*
X201843913Y-86415100D01*
X201711287Y-86415100D01*
X201634422Y-86435696D01*
X201583177Y-86449427D01*
X201583176Y-86449428D01*
X201468324Y-86515737D01*
X201468319Y-86515741D01*
X201374541Y-86609519D01*
X201374537Y-86609524D01*
X201308228Y-86724376D01*
X201308227Y-86724377D01*
X201301284Y-86750290D01*
X201273900Y-86852487D01*
X201273900Y-86852489D01*
X201273900Y-86939377D01*
X201254215Y-87006416D01*
X201237582Y-87027058D01*
X201152300Y-87112340D01*
X201152298Y-87112343D01*
X201142138Y-87129940D01*
X201142139Y-87129941D01*
X201112106Y-87181959D01*
X201091300Y-87259607D01*
X201091300Y-87259609D01*
X201091300Y-88631100D01*
X201071615Y-88698139D01*
X201018811Y-88743894D01*
X200967300Y-88755100D01*
X200876534Y-88755100D01*
X200817123Y-88766917D01*
X200817120Y-88766918D01*
X200749740Y-88811940D01*
X200704718Y-88879320D01*
X200704717Y-88879323D01*
X200692900Y-88938733D01*
X200692900Y-88938736D01*
X200692900Y-89978864D01*
X200692900Y-89978866D01*
X200692899Y-89978866D01*
X199915900Y-89978866D01*
X199915900Y-85867510D01*
X209630499Y-85867510D01*
X209664827Y-85995622D01*
X209664828Y-85995623D01*
X209731137Y-86110475D01*
X209731139Y-86110478D01*
X209731140Y-86110479D01*
X209824921Y-86204260D01*
X209939779Y-86270573D01*
X210067887Y-86304900D01*
X210067890Y-86304900D01*
X210200510Y-86304900D01*
X210200513Y-86304900D01*
X210328621Y-86270573D01*
X210443479Y-86204260D01*
X210537260Y-86110479D01*
X210603573Y-85995621D01*
X210637900Y-85867513D01*
X210637900Y-85867510D01*
X210951299Y-85867510D01*
X210985627Y-85995622D01*
X210985628Y-85995623D01*
X211051937Y-86110475D01*
X211051939Y-86110478D01*
X211051940Y-86110479D01*
X211145721Y-86204260D01*
X211260579Y-86270573D01*
X211388687Y-86304900D01*
X211388690Y-86304900D01*
X211521310Y-86304900D01*
X211521313Y-86304900D01*
X211649421Y-86270573D01*
X211764279Y-86204260D01*
X211858060Y-86110479D01*
X211924373Y-85995621D01*
X211958700Y-85867513D01*
X211958700Y-85734887D01*
X211924373Y-85606779D01*
X211861454Y-85497800D01*
X211858062Y-85491924D01*
X211858058Y-85491919D01*
X211764280Y-85398141D01*
X211764275Y-85398137D01*
X211649423Y-85331828D01*
X211649422Y-85331827D01*
X211617394Y-85323245D01*
X211521313Y-85297500D01*
X211388687Y-85297500D01*
X211311822Y-85318096D01*
X211260577Y-85331827D01*
X211260576Y-85331828D01*
X211145724Y-85398137D01*
X211145719Y-85398141D01*
X211051941Y-85491919D01*
X211051937Y-85491924D01*
X210985628Y-85606776D01*
X210985627Y-85606777D01*
X210968632Y-85670206D01*
X210951300Y-85734887D01*
X210951300Y-85734889D01*
X210951300Y-85867510D01*
X210951299Y-85867510D01*
X210637900Y-85867510D01*
X210637900Y-85734887D01*
X210603573Y-85606779D01*
X210540654Y-85497800D01*
X210537262Y-85491924D01*
X210537258Y-85491919D01*
X210443480Y-85398141D01*
X210443475Y-85398137D01*
X210328623Y-85331828D01*
X210328622Y-85331827D01*
X210296594Y-85323245D01*
X210200513Y-85297500D01*
X210067887Y-85297500D01*
X209991022Y-85318096D01*
X209939777Y-85331827D01*
X209939776Y-85331828D01*
X209824924Y-85398137D01*
X209824919Y-85398141D01*
X209731141Y-85491919D01*
X209731137Y-85491924D01*
X209664828Y-85606776D01*
X209664827Y-85606777D01*
X209647832Y-85670206D01*
X209630500Y-85734887D01*
X209630500Y-85734889D01*
X209630500Y-85867510D01*
X209630499Y-85867510D01*
X199915900Y-85867510D01*
X199915900Y-82923244D01*
X204327400Y-82923244D01*
X204333801Y-82982772D01*
X204333803Y-82982779D01*
X204384045Y-83117486D01*
X204384049Y-83117493D01*
X204470209Y-83232587D01*
X204470212Y-83232590D01*
X204585306Y-83318750D01*
X204585313Y-83318754D01*
X204720020Y-83368996D01*
X204720027Y-83368998D01*
X204779555Y-83375399D01*
X204779572Y-83375400D01*
X204877400Y-83375400D01*
X205377400Y-83375400D01*
X205475228Y-83375400D01*
X205475244Y-83375399D01*
X205534772Y-83368998D01*
X205534779Y-83368996D01*
X205669486Y-83318754D01*
X205669493Y-83318750D01*
X205784587Y-83232590D01*
X205784590Y-83232587D01*
X205870750Y-83117493D01*
X205870754Y-83117486D01*
X205920996Y-82982779D01*
X205920998Y-82982772D01*
X205927399Y-82923244D01*
X205927400Y-82923227D01*
X205927400Y-82825400D01*
X205377400Y-82825400D01*
X205377400Y-83375400D01*
X204877400Y-83375400D01*
X204877400Y-82825400D01*
X204327400Y-82825400D01*
X204327400Y-82923244D01*
X199915900Y-82923244D01*
X199915900Y-82227555D01*
X204327400Y-82227555D01*
X204327400Y-82325400D01*
X204877400Y-82325400D01*
X205377400Y-82325400D01*
X205927400Y-82325400D01*
X205927400Y-82227572D01*
X205927399Y-82227555D01*
X205920998Y-82168027D01*
X205920996Y-82168020D01*
X205870754Y-82033313D01*
X205870750Y-82033306D01*
X205784590Y-81918212D01*
X205784587Y-81918209D01*
X205669493Y-81832049D01*
X205669486Y-81832045D01*
X205534779Y-81781803D01*
X205534772Y-81781801D01*
X205475244Y-81775400D01*
X205377400Y-81775400D01*
X205377400Y-82325400D01*
X204877400Y-82325400D01*
X204877400Y-81775400D01*
X204779555Y-81775400D01*
X204720027Y-81781801D01*
X204720020Y-81781803D01*
X204585313Y-81832045D01*
X204585306Y-81832049D01*
X204470212Y-81918209D01*
X204470209Y-81918212D01*
X204384049Y-82033306D01*
X204384045Y-82033313D01*
X204333803Y-82168020D01*
X204333801Y-82168027D01*
X204327400Y-82227555D01*
X199915900Y-82227555D01*
X199915900Y-77434710D01*
X200194299Y-77434710D01*
X200228627Y-77562822D01*
X200228628Y-77562823D01*
X200294937Y-77677675D01*
X200294939Y-77677678D01*
X200294940Y-77677679D01*
X200388721Y-77771460D01*
X200503579Y-77837773D01*
X200631687Y-77872100D01*
X200631690Y-77872100D01*
X200764310Y-77872100D01*
X200764313Y-77872100D01*
X200892421Y-77837773D01*
X201007276Y-77771462D01*
X201014317Y-77767397D01*
X201015238Y-77768993D01*
X201070834Y-77747491D01*
X201139281Y-77761519D01*
X201189278Y-77810325D01*
X201192839Y-77818209D01*
X201196421Y-77824987D01*
X201196422Y-77824988D01*
X201275400Y-77932000D01*
X201382412Y-78010978D01*
X201507949Y-78054905D01*
X201537753Y-78057700D01*
X202119046Y-78057699D01*
X202148851Y-78054905D01*
X202247147Y-78020509D01*
X202316924Y-78016949D01*
X202377552Y-78051678D01*
X202409779Y-78113671D01*
X202412100Y-78137552D01*
X202412100Y-79026700D01*
X202392415Y-79093739D01*
X202339611Y-79139494D01*
X202288100Y-79150700D01*
X202270087Y-79150700D01*
X202193222Y-79171296D01*
X202141977Y-79185027D01*
X202141976Y-79185028D01*
X202027124Y-79251337D01*
X202027119Y-79251341D01*
X202017681Y-79260780D01*
X201956358Y-79294265D01*
X201886666Y-79289281D01*
X201842319Y-79260780D01*
X201832880Y-79251341D01*
X201832875Y-79251337D01*
X201718023Y-79185028D01*
X201718022Y-79185027D01*
X201685994Y-79176445D01*
X201589913Y-79150700D01*
X201457287Y-79150700D01*
X201380422Y-79171296D01*
X201329177Y-79185027D01*
X201329176Y-79185028D01*
X201214324Y-79251337D01*
X201214319Y-79251341D01*
X201204881Y-79260780D01*
X201143558Y-79294265D01*
X201073866Y-79289281D01*
X201029519Y-79260780D01*
X201020080Y-79251341D01*
X201020075Y-79251337D01*
X200905223Y-79185028D01*
X200905222Y-79185027D01*
X200873194Y-79176445D01*
X200777113Y-79150700D01*
X200644487Y-79150700D01*
X200567622Y-79171296D01*
X200516377Y-79185027D01*
X200516376Y-79185028D01*
X200401524Y-79251337D01*
X200401519Y-79251341D01*
X200307741Y-79345119D01*
X200307737Y-79345124D01*
X200241428Y-79459976D01*
X200241427Y-79459977D01*
X200229808Y-79503341D01*
X200207100Y-79588087D01*
X200207100Y-79588089D01*
X200207100Y-79720710D01*
X200207099Y-79720710D01*
X200241427Y-79848822D01*
X200241428Y-79848823D01*
X200307737Y-79963675D01*
X200307741Y-79963680D01*
X200317180Y-79973119D01*
X200350665Y-80034442D01*
X200345681Y-80104134D01*
X200317180Y-80148481D01*
X200307741Y-80157919D01*
X200307737Y-80157924D01*
X200241428Y-80272776D01*
X200241427Y-80272777D01*
X200224263Y-80336833D01*
X200207100Y-80400887D01*
X200207100Y-80400889D01*
X200207100Y-80533510D01*
X200207099Y-80533510D01*
X200241427Y-80661622D01*
X200241428Y-80661623D01*
X200307737Y-80776475D01*
X200307739Y-80776478D01*
X200307740Y-80776479D01*
X200401521Y-80870260D01*
X200516379Y-80936573D01*
X200644487Y-80970900D01*
X200644490Y-80970900D01*
X200777110Y-80970900D01*
X200777113Y-80970900D01*
X200905221Y-80936573D01*
X201020079Y-80870260D01*
X201029519Y-80860820D01*
X201090842Y-80827335D01*
X201160534Y-80832319D01*
X201204881Y-80860820D01*
X201214321Y-80870260D01*
X201329179Y-80936573D01*
X201457287Y-80970900D01*
X201457290Y-80970900D01*
X201589910Y-80970900D01*
X201589913Y-80970900D01*
X201718021Y-80936573D01*
X201832879Y-80870260D01*
X201842319Y-80860820D01*
X201903642Y-80827335D01*
X201973334Y-80832319D01*
X202017681Y-80860820D01*
X202027121Y-80870260D01*
X202141979Y-80936573D01*
X202270087Y-80970900D01*
X202270090Y-80970900D01*
X202402710Y-80970900D01*
X202402713Y-80970900D01*
X202530821Y-80936573D01*
X202645679Y-80870260D01*
X202655119Y-80860820D01*
X202716442Y-80827335D01*
X202786134Y-80832319D01*
X202830481Y-80860820D01*
X202839921Y-80870260D01*
X202954779Y-80936573D01*
X203082887Y-80970900D01*
X203082890Y-80970900D01*
X203215510Y-80970900D01*
X203215513Y-80970900D01*
X203343621Y-80936573D01*
X203458479Y-80870260D01*
X203552260Y-80776479D01*
X203618573Y-80661621D01*
X203648979Y-80548146D01*
X204928200Y-80548146D01*
X204934441Y-80606187D01*
X204983432Y-80737537D01*
X205067441Y-80849758D01*
X205179662Y-80933767D01*
X205311012Y-80982758D01*
X205369053Y-80988999D01*
X205369070Y-80989000D01*
X205465700Y-80989000D01*
X205465700Y-80514000D01*
X204928200Y-80514000D01*
X204928200Y-80548146D01*
X203648979Y-80548146D01*
X203652900Y-80533513D01*
X203652900Y-80400887D01*
X203618573Y-80272779D01*
X203552260Y-80157921D01*
X203542820Y-80148481D01*
X203509335Y-80087158D01*
X203514319Y-80017466D01*
X203528087Y-79990891D01*
X203534622Y-79981316D01*
X203536085Y-79979853D01*
X204928200Y-79979853D01*
X204928200Y-80014000D01*
X205465700Y-80014000D01*
X205465700Y-79539000D01*
X205369053Y-79539000D01*
X205311012Y-79545241D01*
X205179662Y-79594232D01*
X205067441Y-79678241D01*
X204983432Y-79790462D01*
X204934441Y-79921812D01*
X204928200Y-79979853D01*
X203536085Y-79979853D01*
X203552260Y-79963679D01*
X203618573Y-79848821D01*
X203652900Y-79720713D01*
X203652900Y-79588087D01*
X203618573Y-79459979D01*
X203562894Y-79363540D01*
X203552262Y-79345124D01*
X203552258Y-79345119D01*
X203458480Y-79251341D01*
X203458475Y-79251337D01*
X203343623Y-79185028D01*
X203343622Y-79185027D01*
X203311594Y-79176445D01*
X203215513Y-79150700D01*
X203146700Y-79150700D01*
X203079661Y-79131015D01*
X203033906Y-79078211D01*
X203022700Y-79026700D01*
X203022700Y-78137552D01*
X203031002Y-78109276D01*
X203036678Y-78080359D01*
X203040734Y-78076133D01*
X203042385Y-78070513D01*
X203064650Y-78051219D01*
X203085064Y-78029955D01*
X203090763Y-78028592D01*
X203095189Y-78024758D01*
X203124353Y-78020564D01*
X203153020Y-78013713D01*
X203161047Y-78015288D01*
X203164347Y-78014814D01*
X203187653Y-78020510D01*
X203218053Y-78031147D01*
X203274830Y-78071868D01*
X203300578Y-78136820D01*
X203301100Y-78148189D01*
X203301100Y-78195356D01*
X203316291Y-78252050D01*
X203316300Y-78252083D01*
X203316573Y-78253100D01*
X203321906Y-78273004D01*
X203322695Y-78274370D01*
X203325137Y-78282882D01*
X203325076Y-78292599D01*
X203329946Y-78317079D01*
X203329946Y-78448719D01*
X203329945Y-78448719D01*
X203364273Y-78576831D01*
X203364274Y-78576832D01*
X203430583Y-78691684D01*
X203430585Y-78691687D01*
X203430586Y-78691688D01*
X203524367Y-78785469D01*
X203639225Y-78851782D01*
X203767333Y-78886109D01*
X203767336Y-78886109D01*
X203899956Y-78886109D01*
X203899959Y-78886109D01*
X204028067Y-78851782D01*
X204142925Y-78785469D01*
X204236706Y-78691688D01*
X204303019Y-78576830D01*
X204337346Y-78448722D01*
X204337346Y-78316096D01*
X204303019Y-78187988D01*
X204257692Y-78109479D01*
X204236708Y-78073133D01*
X204236704Y-78073128D01*
X204207753Y-78044177D01*
X204174268Y-77982854D01*
X204179252Y-77913162D01*
X204195660Y-77882868D01*
X204238378Y-77824988D01*
X204282305Y-77699451D01*
X204285100Y-77669647D01*
X204285099Y-77063354D01*
X204282305Y-77033549D01*
X204238378Y-76908012D01*
X204159400Y-76801000D01*
X204052388Y-76722022D01*
X204052387Y-76722021D01*
X203926849Y-76678094D01*
X203897050Y-76675300D01*
X203315759Y-76675300D01*
X203285946Y-76678095D01*
X203187654Y-76712489D01*
X203117875Y-76716050D01*
X203057248Y-76681321D01*
X203025021Y-76619327D01*
X203022700Y-76595447D01*
X203022700Y-76312552D01*
X203042385Y-76245513D01*
X203095189Y-76199758D01*
X203164347Y-76189814D01*
X203187655Y-76195511D01*
X203285946Y-76229904D01*
X203285948Y-76229905D01*
X203289836Y-76230269D01*
X203315753Y-76232700D01*
X203897046Y-76232699D01*
X203926851Y-76229905D01*
X204052388Y-76185978D01*
X204159400Y-76107000D01*
X204238378Y-75999988D01*
X204246290Y-75977378D01*
X204262923Y-75929845D01*
X204303644Y-75873069D01*
X204368597Y-75847322D01*
X204379964Y-75846800D01*
X205030679Y-75846800D01*
X205097718Y-75866485D01*
X205118360Y-75883119D01*
X205631781Y-76396540D01*
X205665266Y-76457863D01*
X205668100Y-76484221D01*
X205668100Y-76571110D01*
X205668099Y-76571110D01*
X205702427Y-76699222D01*
X205702428Y-76699223D01*
X205768737Y-76814075D01*
X205768739Y-76814078D01*
X205768740Y-76814079D01*
X205862521Y-76907860D01*
X205862522Y-76907861D01*
X205862524Y-76907862D01*
X205919950Y-76941016D01*
X205977379Y-76974173D01*
X206105487Y-77008500D01*
X206105490Y-77008500D01*
X206238110Y-77008500D01*
X206238113Y-77008500D01*
X206366221Y-76974173D01*
X206383959Y-76963931D01*
X206451859Y-76947458D01*
X206517886Y-76970310D01*
X206561077Y-77025230D01*
X206567719Y-77094784D01*
X206535704Y-77156887D01*
X206533641Y-77158999D01*
X206432459Y-77260181D01*
X206371136Y-77293666D01*
X206344778Y-77296500D01*
X206257887Y-77296500D01*
X206181022Y-77317096D01*
X206129777Y-77330827D01*
X206129776Y-77330828D01*
X206014924Y-77397137D01*
X206014919Y-77397141D01*
X205921141Y-77490919D01*
X205921137Y-77490924D01*
X205854828Y-77605776D01*
X205854827Y-77605777D01*
X205837713Y-77669647D01*
X205820500Y-77733887D01*
X205820500Y-77733889D01*
X205820500Y-77866510D01*
X205820499Y-77866510D01*
X205854827Y-77994622D01*
X205854828Y-77994623D01*
X205921137Y-78109475D01*
X205921139Y-78109478D01*
X205921140Y-78109479D01*
X206014921Y-78203260D01*
X206014922Y-78203261D01*
X206014924Y-78203262D01*
X206041790Y-78218773D01*
X206129779Y-78269573D01*
X206257887Y-78303900D01*
X206257890Y-78303900D01*
X206390510Y-78303900D01*
X206390513Y-78303900D01*
X206518621Y-78269573D01*
X206633479Y-78203260D01*
X206727260Y-78109479D01*
X206751262Y-78067905D01*
X206801828Y-78019691D01*
X206870435Y-78006467D01*
X206899604Y-78012865D01*
X207019746Y-78054904D01*
X207019748Y-78054905D01*
X207023636Y-78055269D01*
X207049553Y-78057700D01*
X207499378Y-78057699D01*
X207566417Y-78077383D01*
X207612172Y-78130187D01*
X207622116Y-78199346D01*
X207593091Y-78262902D01*
X207587059Y-78269380D01*
X206353101Y-79503339D01*
X206353097Y-79503344D01*
X206344405Y-79518400D01*
X206293837Y-79566614D01*
X206225230Y-79579836D01*
X206193686Y-79572580D01*
X206120388Y-79545241D01*
X206120389Y-79545241D01*
X206062346Y-79539000D01*
X205965700Y-79539000D01*
X205965700Y-80989000D01*
X206062330Y-80989000D01*
X206062346Y-80988999D01*
X206120386Y-80982758D01*
X206130961Y-80978814D01*
X206200653Y-80973827D01*
X206261977Y-81007309D01*
X206295465Y-81068631D01*
X206298300Y-81094994D01*
X206298300Y-83453793D01*
X206319106Y-83531441D01*
X206359300Y-83601059D01*
X206359302Y-83601061D01*
X206698581Y-83940340D01*
X206732066Y-84001663D01*
X206734900Y-84028021D01*
X206734900Y-84114910D01*
X206734899Y-84114910D01*
X206769227Y-84243022D01*
X206769228Y-84243023D01*
X206835537Y-84357875D01*
X206835539Y-84357878D01*
X206835540Y-84357879D01*
X206929321Y-84451660D01*
X207044179Y-84517973D01*
X207172287Y-84552300D01*
X207172290Y-84552300D01*
X207304910Y-84552300D01*
X207304913Y-84552300D01*
X207433021Y-84517973D01*
X207547879Y-84451660D01*
X207641660Y-84357879D01*
X207707973Y-84243021D01*
X207742300Y-84114913D01*
X207742300Y-83982287D01*
X207707973Y-83854179D01*
X207641660Y-83739321D01*
X207547879Y-83645540D01*
X207547878Y-83645539D01*
X207547875Y-83645537D01*
X207433023Y-83579228D01*
X207433022Y-83579227D01*
X207400994Y-83570645D01*
X207304913Y-83544900D01*
X207218021Y-83544900D01*
X207150982Y-83525215D01*
X207130340Y-83508581D01*
X206945219Y-83323459D01*
X206911734Y-83262136D01*
X206908900Y-83235778D01*
X206908900Y-81061401D01*
X206928585Y-80994362D01*
X206981389Y-80948607D01*
X207050547Y-80938663D01*
X207057055Y-80939840D01*
X207061170Y-80940225D01*
X207087553Y-80942700D01*
X207368285Y-80942699D01*
X207373851Y-80942699D01*
X207373854Y-80942700D01*
X207591912Y-80942700D01*
X207658951Y-80962385D01*
X207658953Y-80962387D01*
X207679592Y-80979019D01*
X208045291Y-81344718D01*
X208078776Y-81406041D01*
X208073792Y-81475733D01*
X208045291Y-81520080D01*
X207779990Y-81785381D01*
X207718667Y-81818866D01*
X207692310Y-81821700D01*
X207572754Y-81821700D01*
X207557423Y-81823137D01*
X207542099Y-81824574D01*
X207542097Y-81824574D01*
X207542093Y-81824575D01*
X207413006Y-81869745D01*
X207302961Y-81950961D01*
X207221745Y-82061006D01*
X207176573Y-82190096D01*
X207176573Y-82190098D01*
X207173700Y-82220742D01*
X207173700Y-82930046D01*
X207174998Y-82943892D01*
X207176574Y-82960701D01*
X207176574Y-82960703D01*
X207176575Y-82960706D01*
X207221745Y-83089793D01*
X207302961Y-83199838D01*
X207347335Y-83232587D01*
X207413005Y-83281054D01*
X207430398Y-83287140D01*
X207542097Y-83326226D01*
X207550094Y-83326975D01*
X207572747Y-83329100D01*
X208282052Y-83329099D01*
X208312701Y-83326226D01*
X208441795Y-83281054D01*
X208551838Y-83199838D01*
X208633054Y-83089795D01*
X208670503Y-82982772D01*
X208678226Y-82960703D01*
X208678226Y-82960701D01*
X208681098Y-82930071D01*
X208681100Y-82930053D01*
X208681099Y-82855288D01*
X208700783Y-82788250D01*
X208717413Y-82767612D01*
X209289781Y-82195246D01*
X209364057Y-82084085D01*
X209415218Y-81960569D01*
X209417130Y-81950961D01*
X209441299Y-81829450D01*
X209441300Y-81829448D01*
X209441300Y-81035353D01*
X209441299Y-81035349D01*
X209415218Y-80904230D01*
X209393154Y-80850963D01*
X209364057Y-80780715D01*
X209289781Y-80669554D01*
X209289778Y-80669550D01*
X209104219Y-80483991D01*
X209070734Y-80422668D01*
X209067900Y-80396310D01*
X209067900Y-79451221D01*
X209087585Y-79384182D01*
X209104219Y-79363540D01*
X209178478Y-79289281D01*
X209260900Y-79206859D01*
X209301094Y-79137242D01*
X209311735Y-79097527D01*
X209321900Y-79059593D01*
X209321900Y-77302807D01*
X209301094Y-77225159D01*
X209298392Y-77220479D01*
X209298391Y-77220477D01*
X209260903Y-77155544D01*
X209260899Y-77155539D01*
X208365861Y-76260502D01*
X208365859Y-76260500D01*
X208296241Y-76220306D01*
X208296240Y-76220305D01*
X208296236Y-76220304D01*
X208290141Y-76218671D01*
X208290137Y-76218670D01*
X208281070Y-76216241D01*
X208218593Y-76199500D01*
X208117557Y-76199500D01*
X208110733Y-76198742D01*
X208084579Y-76187800D01*
X208057384Y-76179815D01*
X208052773Y-76174494D01*
X208046276Y-76171776D01*
X208030187Y-76148428D01*
X208011629Y-76127011D01*
X208010627Y-76120043D01*
X208006631Y-76114244D01*
X208005719Y-76085910D01*
X208001685Y-76057853D01*
X208004465Y-76046956D01*
X208004384Y-76044410D01*
X208005660Y-76042275D01*
X208008241Y-76032166D01*
X208058958Y-75896187D01*
X208065199Y-75838146D01*
X208065200Y-75838129D01*
X208065200Y-75791500D01*
X206615200Y-75791500D01*
X206615200Y-75838146D01*
X206621441Y-75896187D01*
X206637126Y-75938239D01*
X206642110Y-76007931D01*
X206608625Y-76069254D01*
X206547302Y-76102739D01*
X206477611Y-76097755D01*
X206458944Y-76088960D01*
X206366223Y-76035428D01*
X206366222Y-76035427D01*
X206334194Y-76026845D01*
X206238113Y-76001100D01*
X206151221Y-76001100D01*
X206084182Y-75981415D01*
X206063540Y-75964781D01*
X205395961Y-75297202D01*
X205395959Y-75297200D01*
X205326341Y-75257006D01*
X205280986Y-75244853D01*
X206615200Y-75244853D01*
X206615200Y-75291500D01*
X207090200Y-75291500D01*
X207090200Y-74804000D01*
X207056053Y-74804000D01*
X206998012Y-74810241D01*
X206866662Y-74859232D01*
X206754441Y-74943241D01*
X206670432Y-75055462D01*
X206621441Y-75186812D01*
X206615200Y-75244853D01*
X205280986Y-75244853D01*
X205248693Y-75236200D01*
X205248690Y-75236200D01*
X204379963Y-75236200D01*
X204312924Y-75216515D01*
X204267169Y-75163711D01*
X204262921Y-75153153D01*
X204258363Y-75140128D01*
X204242360Y-75094391D01*
X204238379Y-75083014D01*
X204238378Y-75083012D01*
X204233606Y-75076546D01*
X204159400Y-74976000D01*
X204052388Y-74897022D01*
X204052387Y-74897021D01*
X203926849Y-74853094D01*
X203897051Y-74850300D01*
X203604419Y-74850300D01*
X203537380Y-74830615D01*
X203491625Y-74777811D01*
X203481681Y-74708653D01*
X203510706Y-74645097D01*
X203516722Y-74638635D01*
X204751967Y-73403391D01*
X204813288Y-73369908D01*
X204882980Y-73374892D01*
X204901645Y-73383686D01*
X204913437Y-73390494D01*
X204961379Y-73418173D01*
X205089487Y-73452500D01*
X205089490Y-73452500D01*
X205222110Y-73452500D01*
X205222113Y-73452500D01*
X205350221Y-73418173D01*
X205465079Y-73351860D01*
X205558860Y-73258079D01*
X205625173Y-73143221D01*
X205659500Y-73015113D01*
X205659500Y-72882487D01*
X205625173Y-72754379D01*
X205567154Y-72653887D01*
X205558862Y-72639524D01*
X205558858Y-72639519D01*
X205465080Y-72545741D01*
X205465075Y-72545737D01*
X205350222Y-72479427D01*
X205343543Y-72476661D01*
X205289140Y-72432820D01*
X205267075Y-72366526D01*
X205284354Y-72298827D01*
X205335491Y-72251216D01*
X205390996Y-72238100D01*
X205816179Y-72238100D01*
X205883218Y-72257785D01*
X205903860Y-72274419D01*
X206241381Y-72611940D01*
X206274866Y-72673263D01*
X206277700Y-72699621D01*
X206277700Y-72786510D01*
X206277699Y-72786510D01*
X206312027Y-72914622D01*
X206312028Y-72914623D01*
X206378337Y-73029475D01*
X206378339Y-73029478D01*
X206378340Y-73029479D01*
X206472121Y-73123260D01*
X206472122Y-73123261D01*
X206472124Y-73123262D01*
X206506696Y-73143222D01*
X206586979Y-73189573D01*
X206715087Y-73223900D01*
X206715090Y-73223900D01*
X206847710Y-73223900D01*
X206847713Y-73223900D01*
X206975821Y-73189573D01*
X207090679Y-73123260D01*
X207102619Y-73111320D01*
X207163942Y-73077835D01*
X207233634Y-73082819D01*
X207289567Y-73124691D01*
X207313984Y-73190155D01*
X207314300Y-73199001D01*
X207314300Y-74055792D01*
X207327911Y-74106591D01*
X207335105Y-74133440D01*
X207335106Y-74133441D01*
X207375300Y-74203059D01*
X207375302Y-74203061D01*
X207770089Y-74597848D01*
X207803574Y-74659171D01*
X207798590Y-74728863D01*
X207756718Y-74784796D01*
X207691254Y-74809213D01*
X207669153Y-74808819D01*
X207624330Y-74804000D01*
X207590200Y-74804000D01*
X207590200Y-75291500D01*
X208065200Y-75291500D01*
X208065200Y-75244870D01*
X208065199Y-75244856D01*
X208060381Y-75200048D01*
X208072785Y-75131289D01*
X208120395Y-75080150D01*
X208188094Y-75062870D01*
X208254388Y-75084933D01*
X208271350Y-75099109D01*
X213242141Y-80069901D01*
X213311759Y-80110094D01*
X213389407Y-80130900D01*
X213389410Y-80130900D01*
X218791590Y-80130900D01*
X218791593Y-80130900D01*
X218869241Y-80110094D01*
X218933294Y-80073112D01*
X218995294Y-80056500D01*
X219090510Y-80056500D01*
X219090513Y-80056500D01*
X219218621Y-80022173D01*
X219333479Y-79955860D01*
X219427260Y-79862079D01*
X219493573Y-79747221D01*
X219527900Y-79619113D01*
X219527900Y-79486487D01*
X219493573Y-79358379D01*
X219453679Y-79289281D01*
X219427262Y-79243524D01*
X219427258Y-79243519D01*
X219333480Y-79149741D01*
X219333475Y-79149737D01*
X219218623Y-79083428D01*
X219218622Y-79083427D01*
X219186594Y-79074845D01*
X219090513Y-79049100D01*
X218957887Y-79049100D01*
X218881022Y-79069696D01*
X218829777Y-79083427D01*
X218829776Y-79083428D01*
X218714924Y-79149737D01*
X218714919Y-79149741D01*
X218621141Y-79243519D01*
X218621137Y-79243524D01*
X218554828Y-79358376D01*
X218554827Y-79358377D01*
X218547913Y-79384182D01*
X218536065Y-79428396D01*
X218499702Y-79488054D01*
X218436855Y-79518583D01*
X218416292Y-79520300D01*
X218045640Y-79520300D01*
X217978601Y-79500615D01*
X217932846Y-79447811D01*
X217922902Y-79378653D01*
X217931079Y-79348847D01*
X217951983Y-79298380D01*
X217975018Y-79242770D01*
X218001100Y-79111646D01*
X218001100Y-78691488D01*
X218009744Y-78662047D01*
X218016268Y-78632061D01*
X218020022Y-78627045D01*
X218020785Y-78624449D01*
X218037419Y-78603807D01*
X218075207Y-78566019D01*
X218136530Y-78532534D01*
X218162888Y-78529700D01*
X218302480Y-78529700D01*
X218369519Y-78549385D01*
X218376103Y-78553922D01*
X218379805Y-78556654D01*
X218408455Y-78566679D01*
X218508897Y-78601826D01*
X218516894Y-78602575D01*
X218539547Y-78604700D01*
X219248852Y-78604699D01*
X219279501Y-78601826D01*
X219408595Y-78556654D01*
X219518638Y-78475438D01*
X219599854Y-78365395D01*
X219624253Y-78295666D01*
X219645026Y-78236303D01*
X219645026Y-78236301D01*
X219647900Y-78205657D01*
X219647900Y-78198844D01*
X220894200Y-78198844D01*
X220900601Y-78258372D01*
X220900603Y-78258379D01*
X220950845Y-78393086D01*
X220950849Y-78393093D01*
X221037009Y-78508187D01*
X221037012Y-78508190D01*
X221152106Y-78594350D01*
X221152113Y-78594354D01*
X221286820Y-78644596D01*
X221286827Y-78644598D01*
X221346355Y-78650999D01*
X221346372Y-78651000D01*
X221444200Y-78651000D01*
X221944200Y-78651000D01*
X222042028Y-78651000D01*
X222042044Y-78650999D01*
X222101572Y-78644598D01*
X222101579Y-78644596D01*
X222236286Y-78594354D01*
X222236293Y-78594350D01*
X222351387Y-78508190D01*
X222351390Y-78508187D01*
X222437550Y-78393093D01*
X222437554Y-78393086D01*
X222463429Y-78323710D01*
X223270299Y-78323710D01*
X223304627Y-78451822D01*
X223304628Y-78451823D01*
X223370937Y-78566675D01*
X223370939Y-78566678D01*
X223370940Y-78566679D01*
X223464721Y-78660460D01*
X223464722Y-78660461D01*
X223464724Y-78660462D01*
X223518463Y-78691488D01*
X223579579Y-78726773D01*
X223707687Y-78761100D01*
X223707690Y-78761100D01*
X223840310Y-78761100D01*
X223840313Y-78761100D01*
X223968421Y-78726773D01*
X224083279Y-78660460D01*
X224177060Y-78566679D01*
X224243373Y-78451821D01*
X224277700Y-78323713D01*
X224277700Y-78191087D01*
X224243373Y-78062979D01*
X224197113Y-77982854D01*
X224177062Y-77948124D01*
X224177058Y-77948119D01*
X224083280Y-77854341D01*
X224083275Y-77854337D01*
X223968423Y-77788028D01*
X223968422Y-77788027D01*
X223936394Y-77779445D01*
X223840313Y-77753700D01*
X223707687Y-77753700D01*
X223630822Y-77774296D01*
X223579577Y-77788027D01*
X223579576Y-77788028D01*
X223464724Y-77854337D01*
X223464719Y-77854341D01*
X223370941Y-77948119D01*
X223370937Y-77948124D01*
X223304628Y-78062976D01*
X223304627Y-78062977D01*
X223292168Y-78109475D01*
X223270300Y-78191087D01*
X223270300Y-78191089D01*
X223270300Y-78323710D01*
X223270299Y-78323710D01*
X222463429Y-78323710D01*
X222487796Y-78258379D01*
X222487798Y-78258372D01*
X222494199Y-78198844D01*
X222494200Y-78198827D01*
X222494200Y-78101000D01*
X221944200Y-78101000D01*
X221944200Y-78651000D01*
X221444200Y-78651000D01*
X221444200Y-78101000D01*
X220894200Y-78101000D01*
X220894200Y-78198844D01*
X219647900Y-78198844D01*
X219647900Y-78049638D01*
X219647899Y-77496353D01*
X219647899Y-77496348D01*
X219645026Y-77465699D01*
X219634184Y-77434713D01*
X219631994Y-77428455D01*
X219628431Y-77358677D01*
X219663160Y-77298049D01*
X219725153Y-77265821D01*
X219749035Y-77263500D01*
X220789191Y-77263500D01*
X220856230Y-77283185D01*
X220901985Y-77335989D01*
X220911929Y-77405147D01*
X220905372Y-77430835D01*
X220900603Y-77443619D01*
X220900601Y-77443627D01*
X220894200Y-77503155D01*
X220894200Y-77601000D01*
X222494200Y-77601000D01*
X222494200Y-77503172D01*
X222494199Y-77503155D01*
X222487798Y-77443627D01*
X222487796Y-77443620D01*
X222437554Y-77308913D01*
X222437550Y-77308906D01*
X222351390Y-77193812D01*
X222351387Y-77193809D01*
X222236293Y-77107649D01*
X222236286Y-77107645D01*
X222101579Y-77057403D01*
X222094032Y-77055620D01*
X222094799Y-77052370D01*
X222044226Y-77031310D01*
X222004486Y-76973843D01*
X222002124Y-76904013D01*
X222034531Y-76847228D01*
X222468901Y-76412859D01*
X222509094Y-76343241D01*
X222509239Y-76342700D01*
X222510224Y-76339026D01*
X222517317Y-76312552D01*
X222529900Y-76265593D01*
X222529900Y-74534207D01*
X222509094Y-74456559D01*
X222492105Y-74427135D01*
X222468900Y-74386941D01*
X222468899Y-74386940D01*
X222468896Y-74386936D01*
X221933661Y-73851701D01*
X221900176Y-73790378D01*
X221897885Y-73775605D01*
X221895105Y-73745949D01*
X221851178Y-73620412D01*
X221772200Y-73513400D01*
X221689683Y-73452500D01*
X221665187Y-73434421D01*
X221539649Y-73390494D01*
X221509850Y-73387700D01*
X220903559Y-73387700D01*
X220873746Y-73390495D01*
X220748213Y-73434421D01*
X220748212Y-73434422D01*
X220747483Y-73434959D01*
X220746550Y-73435300D01*
X220739999Y-73438763D01*
X220739525Y-73437866D01*
X220681856Y-73458929D01*
X220613686Y-73443613D01*
X220564618Y-73393873D01*
X220554077Y-73367281D01*
X220553294Y-73364359D01*
X220553294Y-73364358D01*
X220513100Y-73294741D01*
X220075259Y-72856900D01*
X220075257Y-72856899D01*
X220075255Y-72856897D01*
X220055357Y-72845409D01*
X220007142Y-72794841D01*
X219993921Y-72726233D01*
X220000316Y-72697072D01*
X220045026Y-72569301D01*
X220045600Y-72563171D01*
X220047900Y-72538657D01*
X220047900Y-72531844D01*
X220494200Y-72531844D01*
X220500601Y-72591372D01*
X220500603Y-72591379D01*
X220550845Y-72726086D01*
X220550849Y-72726093D01*
X220637009Y-72841187D01*
X220637012Y-72841190D01*
X220752106Y-72927350D01*
X220752113Y-72927354D01*
X220886820Y-72977596D01*
X220886827Y-72977598D01*
X220946355Y-72983999D01*
X220946372Y-72984000D01*
X221081700Y-72984000D01*
X221581700Y-72984000D01*
X221717028Y-72984000D01*
X221717044Y-72983999D01*
X221776572Y-72977598D01*
X221776579Y-72977596D01*
X221911286Y-72927354D01*
X221911293Y-72927350D01*
X222026387Y-72841190D01*
X222026390Y-72841187D01*
X222112550Y-72726093D01*
X222112554Y-72726086D01*
X222162796Y-72591379D01*
X222162798Y-72591372D01*
X222169199Y-72531844D01*
X222169200Y-72531827D01*
X222169200Y-72259000D01*
X221581700Y-72259000D01*
X221581700Y-72984000D01*
X221081700Y-72984000D01*
X221081700Y-72259000D01*
X220494200Y-72259000D01*
X220494200Y-72531844D01*
X220047900Y-72531844D01*
X220047900Y-72207638D01*
X220047899Y-71486155D01*
X220494200Y-71486155D01*
X220494200Y-71759000D01*
X221081700Y-71759000D01*
X221581700Y-71759000D01*
X222169200Y-71759000D01*
X222169200Y-71486172D01*
X222169199Y-71486155D01*
X222162798Y-71426627D01*
X222162796Y-71426620D01*
X222112554Y-71291913D01*
X222112550Y-71291906D01*
X222026390Y-71176812D01*
X222026387Y-71176809D01*
X221911293Y-71090649D01*
X221911286Y-71090645D01*
X221776579Y-71040403D01*
X221776572Y-71040401D01*
X221717044Y-71034000D01*
X221581700Y-71034000D01*
X221581700Y-71759000D01*
X221081700Y-71759000D01*
X221081700Y-71034000D01*
X220946355Y-71034000D01*
X220886827Y-71040401D01*
X220886820Y-71040403D01*
X220752113Y-71090645D01*
X220752106Y-71090649D01*
X220637012Y-71176809D01*
X220637009Y-71176812D01*
X220550849Y-71291906D01*
X220550845Y-71291913D01*
X220500603Y-71426620D01*
X220500601Y-71426627D01*
X220494200Y-71486155D01*
X220047899Y-71486155D01*
X220047899Y-71482851D01*
X220047899Y-71479353D01*
X220047899Y-71479348D01*
X220045026Y-71448699D01*
X220044241Y-71446457D01*
X220009672Y-71347663D01*
X219999854Y-71319605D01*
X219928750Y-71223263D01*
X219918638Y-71209561D01*
X219844085Y-71154539D01*
X219808595Y-71128346D01*
X219808593Y-71128345D01*
X219679502Y-71083173D01*
X219648857Y-71080300D01*
X219008800Y-71080300D01*
X218941761Y-71060615D01*
X218896006Y-71007811D01*
X218886062Y-70938653D01*
X218915087Y-70875097D01*
X218921106Y-70868632D01*
X218970060Y-70819679D01*
X219036373Y-70704821D01*
X219070700Y-70576713D01*
X219070700Y-70444087D01*
X219036373Y-70315979D01*
X218976872Y-70212919D01*
X218970062Y-70201124D01*
X218970058Y-70201119D01*
X218908619Y-70139680D01*
X218875134Y-70078357D01*
X218872300Y-70051999D01*
X218872300Y-69606609D01*
X218872300Y-69606607D01*
X218851494Y-69528959D01*
X218811301Y-69459341D01*
X218494099Y-69142140D01*
X218195661Y-68843702D01*
X218195659Y-68843700D01*
X218126041Y-68803506D01*
X218126040Y-68803505D01*
X218126036Y-68803504D01*
X218110868Y-68799440D01*
X218110866Y-68799440D01*
X218086812Y-68792994D01*
X218055282Y-68773774D01*
X218027153Y-68756628D01*
X217996625Y-68693781D01*
X217997407Y-68687246D01*
X218004922Y-68624404D01*
X218004923Y-68624402D01*
X218007509Y-68618760D01*
X218012194Y-68609178D01*
X218044683Y-68542719D01*
X218054700Y-68473969D01*
X218054699Y-66906832D01*
X218044683Y-66838081D01*
X217992839Y-66732031D01*
X217992838Y-66732030D01*
X217988326Y-66722800D01*
X217990023Y-66721970D01*
X217983131Y-66702138D01*
X217971399Y-66670680D01*
X217971707Y-66669263D01*
X217971231Y-66667894D01*
X217979111Y-66635228D01*
X217986252Y-66602407D01*
X217987399Y-66600873D01*
X217987617Y-66599973D01*
X218007394Y-66574163D01*
X218072942Y-66508616D01*
X218134265Y-66475133D01*
X218160621Y-66472300D01*
X218339529Y-66472300D01*
X218406568Y-66491985D01*
X218452323Y-66544789D01*
X218462267Y-66613947D01*
X218433242Y-66677503D01*
X218427210Y-66683981D01*
X218379162Y-66732028D01*
X218327317Y-66838081D01*
X218327315Y-66838086D01*
X218317300Y-66906830D01*
X218317300Y-68473962D01*
X218324114Y-68520731D01*
X218327317Y-68542719D01*
X218376000Y-68642304D01*
X218379162Y-68648771D01*
X218462628Y-68732237D01*
X218462629Y-68732237D01*
X218462631Y-68732239D01*
X218568681Y-68784083D01*
X218568684Y-68784083D01*
X218568686Y-68784084D01*
X218585264Y-68786499D01*
X218637431Y-68794100D01*
X219004568Y-68794099D01*
X219073319Y-68784083D01*
X219179369Y-68732239D01*
X219262839Y-68648769D01*
X219314683Y-68542719D01*
X219324700Y-68473969D01*
X219324699Y-66906832D01*
X219314683Y-66838081D01*
X219262839Y-66732031D01*
X219262837Y-66732029D01*
X219262837Y-66732028D01*
X219254055Y-66723246D01*
X219220570Y-66661923D01*
X219225554Y-66592231D01*
X219254055Y-66547884D01*
X219287372Y-66514567D01*
X219325660Y-66476279D01*
X219391973Y-66361421D01*
X219424479Y-66240108D01*
X219431554Y-66228500D01*
X219434156Y-66215153D01*
X219449383Y-66199250D01*
X219460842Y-66180451D01*
X219473073Y-66174509D01*
X219482478Y-66164688D01*
X219503884Y-66159542D01*
X219523689Y-66149922D01*
X219537190Y-66151536D01*
X219550413Y-66148358D01*
X219571205Y-66155603D01*
X219593064Y-66158217D01*
X219604961Y-66167365D01*
X219616392Y-66171349D01*
X219630809Y-66187243D01*
X219641884Y-66195759D01*
X219647273Y-66202641D01*
X219687940Y-66273079D01*
X219754698Y-66339837D01*
X219759332Y-66345755D01*
X219769581Y-66371514D01*
X219782866Y-66395843D01*
X219784200Y-66408255D01*
X219785163Y-66410674D01*
X219784710Y-66412996D01*
X219785700Y-66422201D01*
X219785700Y-66546842D01*
X219766015Y-66613881D01*
X219733752Y-66647760D01*
X219732629Y-66648561D01*
X219649162Y-66732028D01*
X219597317Y-66838081D01*
X219597315Y-66838086D01*
X219587300Y-66906830D01*
X219587300Y-68473962D01*
X219594114Y-68520731D01*
X219597317Y-68542719D01*
X219646000Y-68642304D01*
X219649162Y-68648771D01*
X219732628Y-68732237D01*
X219732629Y-68732237D01*
X219732631Y-68732239D01*
X219838681Y-68784083D01*
X219838684Y-68784083D01*
X219838686Y-68784084D01*
X219855264Y-68786499D01*
X219907431Y-68794100D01*
X220274568Y-68794099D01*
X220343319Y-68784083D01*
X220449369Y-68732239D01*
X220532839Y-68648769D01*
X220584683Y-68542719D01*
X220594700Y-68473969D01*
X220594699Y-66906832D01*
X220584683Y-66838081D01*
X220532839Y-66732031D01*
X220532837Y-66732029D01*
X220532837Y-66732028D01*
X220449370Y-66648561D01*
X220448248Y-66647760D01*
X220447080Y-66646271D01*
X220443269Y-66642460D01*
X220439097Y-66640555D01*
X220423232Y-66615869D01*
X220405125Y-66592785D01*
X220403729Y-66585522D01*
X220401323Y-66581777D01*
X220396300Y-66546842D01*
X220396300Y-66422201D01*
X220415985Y-66355162D01*
X220432619Y-66334520D01*
X220460097Y-66307042D01*
X220494060Y-66273079D01*
X220560373Y-66158221D01*
X220594700Y-66030113D01*
X220594700Y-66030110D01*
X220857299Y-66030110D01*
X220891627Y-66158222D01*
X220891628Y-66158223D01*
X220957937Y-66273075D01*
X220957941Y-66273080D01*
X221019381Y-66334520D01*
X221034084Y-66361447D01*
X221050677Y-66387266D01*
X221051568Y-66393466D01*
X221052866Y-66395843D01*
X221055700Y-66422201D01*
X221055700Y-66546842D01*
X221036015Y-66613881D01*
X221003752Y-66647760D01*
X221002629Y-66648561D01*
X220919162Y-66732028D01*
X220867317Y-66838081D01*
X220867315Y-66838086D01*
X220857300Y-66906830D01*
X220857300Y-68473962D01*
X220864114Y-68520731D01*
X220867317Y-68542719D01*
X220916000Y-68642304D01*
X220919162Y-68648771D01*
X221002628Y-68732237D01*
X221002629Y-68732237D01*
X221002631Y-68732239D01*
X221108681Y-68784083D01*
X221108684Y-68784083D01*
X221108686Y-68784084D01*
X221125264Y-68786499D01*
X221177431Y-68794100D01*
X221544568Y-68794099D01*
X221613319Y-68784083D01*
X221719369Y-68732239D01*
X221802839Y-68648769D01*
X221854683Y-68542719D01*
X221855897Y-68534391D01*
X221864700Y-68473969D01*
X221864700Y-68039864D01*
X221864699Y-67090936D01*
X221864699Y-66906837D01*
X221864699Y-66906832D01*
X221854683Y-66838081D01*
X221802839Y-66732031D01*
X221802837Y-66732029D01*
X221802837Y-66732028D01*
X221719370Y-66648561D01*
X221718248Y-66647760D01*
X221717080Y-66646271D01*
X221713269Y-66642460D01*
X221709097Y-66640555D01*
X221693232Y-66615869D01*
X221675125Y-66592785D01*
X221673729Y-66585522D01*
X221671323Y-66581777D01*
X221666300Y-66546842D01*
X221666300Y-66422201D01*
X221685985Y-66355162D01*
X221702619Y-66334520D01*
X221730097Y-66307042D01*
X221764060Y-66273079D01*
X221830373Y-66158221D01*
X221864700Y-66030113D01*
X221864700Y-65897487D01*
X221830373Y-65769379D01*
X221764060Y-65654521D01*
X221670279Y-65560740D01*
X221670278Y-65560739D01*
X221670275Y-65560737D01*
X221555423Y-65494428D01*
X221555422Y-65494427D01*
X221523394Y-65485845D01*
X221427313Y-65460100D01*
X221294687Y-65460100D01*
X221217822Y-65480696D01*
X221166577Y-65494427D01*
X221166576Y-65494428D01*
X221051724Y-65560737D01*
X221051719Y-65560741D01*
X220957941Y-65654519D01*
X220957937Y-65654524D01*
X220891628Y-65769376D01*
X220891627Y-65769377D01*
X220876621Y-65825381D01*
X220857300Y-65897487D01*
X220857300Y-65897489D01*
X220857300Y-66030110D01*
X220857299Y-66030110D01*
X220594700Y-66030110D01*
X220594700Y-65897487D01*
X220560373Y-65769379D01*
X220494060Y-65654521D01*
X220400279Y-65560740D01*
X220400278Y-65560739D01*
X220400275Y-65560737D01*
X220285423Y-65494428D01*
X220285422Y-65494427D01*
X220253394Y-65485845D01*
X220157313Y-65460100D01*
X220024687Y-65460100D01*
X219947822Y-65480696D01*
X219896577Y-65494427D01*
X219896576Y-65494428D01*
X219781724Y-65560737D01*
X219781719Y-65560741D01*
X219687941Y-65654519D01*
X219687937Y-65654524D01*
X219621628Y-65769376D01*
X219621627Y-65769377D01*
X219589122Y-65890688D01*
X219552756Y-65950349D01*
X219489909Y-65980877D01*
X219420534Y-65972582D01*
X219366656Y-65928096D01*
X219361960Y-65920594D01*
X219325662Y-65857724D01*
X219325658Y-65857719D01*
X219231880Y-65763941D01*
X219231875Y-65763937D01*
X219117023Y-65697628D01*
X219117022Y-65697627D01*
X219084994Y-65689045D01*
X218988913Y-65663300D01*
X218856287Y-65663300D01*
X218779422Y-65683896D01*
X218728177Y-65697627D01*
X218728176Y-65697628D01*
X218613324Y-65763937D01*
X218613319Y-65763941D01*
X218551880Y-65825381D01*
X218490557Y-65858866D01*
X218464199Y-65861700D01*
X217942606Y-65861700D01*
X217901156Y-65872806D01*
X217901156Y-65872807D01*
X217864958Y-65882506D01*
X217864956Y-65882506D01*
X217864952Y-65882508D01*
X217795347Y-65922696D01*
X217795338Y-65922702D01*
X217332163Y-66385877D01*
X217270840Y-66419362D01*
X217201148Y-66414378D01*
X217145215Y-66372506D01*
X217120798Y-66307042D01*
X217124706Y-66266108D01*
X217140300Y-66207913D01*
X217140300Y-66075287D01*
X217105973Y-65947179D01*
X217068634Y-65882506D01*
X217039662Y-65832324D01*
X217039658Y-65832319D01*
X216945880Y-65738541D01*
X216945875Y-65738537D01*
X216831023Y-65672228D01*
X216831022Y-65672227D01*
X216798994Y-65663645D01*
X216702913Y-65637900D01*
X216570287Y-65637900D01*
X216493422Y-65658496D01*
X216442177Y-65672227D01*
X216442176Y-65672228D01*
X216327324Y-65738537D01*
X216327319Y-65738541D01*
X216233541Y-65832319D01*
X216233537Y-65832324D01*
X216167228Y-65947176D01*
X216167227Y-65947177D01*
X216158197Y-65980877D01*
X216132900Y-66075287D01*
X216132900Y-66075289D01*
X216132900Y-66162177D01*
X216126146Y-66185177D01*
X216123707Y-66209033D01*
X216115525Y-66221346D01*
X216113215Y-66229216D01*
X216105855Y-66239479D01*
X216101503Y-66244937D01*
X216036700Y-66309741D01*
X216006863Y-66361421D01*
X216002224Y-66369455D01*
X216002222Y-66369458D01*
X215996506Y-66379359D01*
X215975700Y-66457007D01*
X215975700Y-66546842D01*
X215956015Y-66613881D01*
X215923752Y-66647760D01*
X215922629Y-66648561D01*
X215839162Y-66732028D01*
X215787317Y-66838081D01*
X215787315Y-66838086D01*
X215777300Y-66906830D01*
X215777300Y-68473962D01*
X215784114Y-68520731D01*
X215787317Y-68542719D01*
X215817393Y-68604241D01*
X215817678Y-68605910D01*
X215818786Y-68607189D01*
X215823534Y-68640216D01*
X215829151Y-68673113D01*
X215828488Y-68674669D01*
X215828730Y-68676347D01*
X215814860Y-68706716D01*
X215801808Y-68737410D01*
X215800408Y-68738362D01*
X215799705Y-68739903D01*
X215771616Y-68757954D01*
X215744043Y-68776717D01*
X215741895Y-68777054D01*
X215740927Y-68777677D01*
X215705992Y-68782700D01*
X215586008Y-68782700D01*
X215518969Y-68763015D01*
X215473214Y-68710211D01*
X215463270Y-68641053D01*
X215474605Y-68604243D01*
X215504683Y-68542719D01*
X215514700Y-68473969D01*
X215514699Y-66906832D01*
X215504683Y-66838081D01*
X215452839Y-66732031D01*
X215452837Y-66732029D01*
X215452837Y-66732028D01*
X215369371Y-66648562D01*
X215368954Y-66648358D01*
X215263319Y-66596717D01*
X215263317Y-66596716D01*
X215263313Y-66596715D01*
X215194569Y-66586700D01*
X214827436Y-66586700D01*
X214758680Y-66596717D01*
X214652628Y-66648562D01*
X214569162Y-66732028D01*
X214517317Y-66838081D01*
X214517315Y-66838086D01*
X214507300Y-66906830D01*
X214507300Y-68473962D01*
X214514114Y-68520731D01*
X214517317Y-68542719D01*
X214547393Y-68604241D01*
X214547678Y-68605910D01*
X214548786Y-68607189D01*
X214553534Y-68640216D01*
X214559151Y-68673113D01*
X214558488Y-68674669D01*
X214558730Y-68676347D01*
X214544860Y-68706716D01*
X214531808Y-68737410D01*
X214530408Y-68738362D01*
X214529705Y-68739903D01*
X214501616Y-68757954D01*
X214474043Y-68776717D01*
X214471895Y-68777054D01*
X214470927Y-68777677D01*
X214435992Y-68782700D01*
X214316008Y-68782700D01*
X214248969Y-68763015D01*
X214203214Y-68710211D01*
X214193270Y-68641053D01*
X214204605Y-68604243D01*
X214234683Y-68542719D01*
X214244700Y-68473969D01*
X214244699Y-66906832D01*
X214234683Y-66838081D01*
X214182839Y-66732031D01*
X214182836Y-66732028D01*
X214179280Y-66724753D01*
X214167521Y-66655880D01*
X214194865Y-66591583D01*
X214228679Y-66562907D01*
X214304279Y-66519260D01*
X214398060Y-66425479D01*
X214464373Y-66310621D01*
X214498700Y-66182513D01*
X214498700Y-66049887D01*
X214464373Y-65921779D01*
X214423730Y-65851383D01*
X214398062Y-65806924D01*
X214398058Y-65806919D01*
X214304280Y-65713141D01*
X214304275Y-65713137D01*
X214189423Y-65646828D01*
X214189422Y-65646827D01*
X214157394Y-65638245D01*
X214061313Y-65612500D01*
X213928687Y-65612500D01*
X213851822Y-65633096D01*
X213800577Y-65646827D01*
X213800576Y-65646828D01*
X213685724Y-65713137D01*
X213685718Y-65713142D01*
X213650878Y-65747981D01*
X213589554Y-65781465D01*
X213519863Y-65776479D01*
X213475518Y-65747979D01*
X213466080Y-65738541D01*
X213466075Y-65738537D01*
X213351223Y-65672228D01*
X213351222Y-65672227D01*
X213319194Y-65663645D01*
X213223113Y-65637900D01*
X213090487Y-65637900D01*
X213013622Y-65658496D01*
X212962377Y-65672227D01*
X212962376Y-65672228D01*
X212847524Y-65738537D01*
X212847519Y-65738541D01*
X212753741Y-65832319D01*
X212753737Y-65832324D01*
X212687428Y-65947176D01*
X212687427Y-65947177D01*
X212678397Y-65980877D01*
X212653100Y-66075287D01*
X212653100Y-66075289D01*
X212653100Y-66207910D01*
X212653099Y-66207910D01*
X212687427Y-66336022D01*
X212687428Y-66336023D01*
X212724769Y-66400700D01*
X212741242Y-66468601D01*
X212718389Y-66534627D01*
X212663468Y-66577818D01*
X212617382Y-66586700D01*
X212287436Y-66586700D01*
X212218680Y-66596717D01*
X212112628Y-66648562D01*
X212029162Y-66732028D01*
X211977317Y-66838081D01*
X211977315Y-66838086D01*
X211967300Y-66906830D01*
X211967300Y-68473962D01*
X211974114Y-68520731D01*
X211977317Y-68542719D01*
X212029161Y-68648769D01*
X212112631Y-68732239D01*
X212123209Y-68737410D01*
X212128212Y-68739856D01*
X212179794Y-68786984D01*
X212183232Y-68793770D01*
X212186505Y-68799440D01*
X212186506Y-68799441D01*
X212226700Y-68869059D01*
X212689941Y-69332300D01*
X212759558Y-69372494D01*
X212780364Y-69378068D01*
X212837207Y-69393300D01*
X213550447Y-69393300D01*
X213617486Y-69412985D01*
X213663241Y-69465789D01*
X213673185Y-69534947D01*
X213644160Y-69598503D01*
X213612448Y-69624686D01*
X213608447Y-69626996D01*
X213608438Y-69627002D01*
X212380860Y-70854581D01*
X212353932Y-70869284D01*
X212328114Y-70885877D01*
X212321913Y-70886768D01*
X212319537Y-70888066D01*
X212293179Y-70890900D01*
X212054100Y-70890900D01*
X211987061Y-70871215D01*
X211941306Y-70818411D01*
X211930100Y-70766900D01*
X211930100Y-70676133D01*
X211918282Y-70616723D01*
X211918281Y-70616720D01*
X211912989Y-70608800D01*
X211873260Y-70549340D01*
X211805880Y-70504319D01*
X211805879Y-70504318D01*
X211805876Y-70504317D01*
X211746466Y-70492500D01*
X211746464Y-70492500D01*
X210706336Y-70492500D01*
X210706334Y-70492500D01*
X210646923Y-70504317D01*
X210646920Y-70504318D01*
X210579540Y-70549340D01*
X210534518Y-70616720D01*
X210534517Y-70616723D01*
X210522700Y-70676133D01*
X210522700Y-70676136D01*
X210522700Y-71716264D01*
X210522700Y-71716266D01*
X210522699Y-71716266D01*
X210534517Y-71775676D01*
X210534518Y-71775679D01*
X210534519Y-71775680D01*
X210579540Y-71843060D01*
X210642902Y-71885396D01*
X210646920Y-71888081D01*
X210646923Y-71888082D01*
X210706333Y-71899900D01*
X210706336Y-71899900D01*
X211746466Y-71899900D01*
X211805876Y-71888082D01*
X211805877Y-71888081D01*
X211805880Y-71888081D01*
X211873260Y-71843060D01*
X211918281Y-71775680D01*
X211930100Y-71716264D01*
X211930100Y-71625500D01*
X211949785Y-71558461D01*
X212002589Y-71512706D01*
X212054100Y-71501500D01*
X212490027Y-71501500D01*
X212557066Y-71521185D01*
X212602821Y-71573989D01*
X212614027Y-71625500D01*
X212614027Y-74590648D01*
X212594342Y-74657687D01*
X212577708Y-74678329D01*
X212516268Y-74739768D01*
X212516264Y-74739773D01*
X212449955Y-74854625D01*
X212449954Y-74854626D01*
X212438719Y-74896553D01*
X212417245Y-74976696D01*
X212380882Y-75036354D01*
X212318035Y-75066883D01*
X212297472Y-75068600D01*
X212290300Y-75068600D01*
X212290300Y-76518600D01*
X212386930Y-76518600D01*
X212386946Y-76518599D01*
X212444987Y-76512358D01*
X212576337Y-76463367D01*
X212688558Y-76379358D01*
X212772567Y-76267136D01*
X212811523Y-76162692D01*
X212853394Y-76106758D01*
X212918859Y-76082341D01*
X212987132Y-76097193D01*
X213036537Y-76146598D01*
X213044746Y-76165070D01*
X213070819Y-76239583D01*
X213070821Y-76239587D01*
X213070822Y-76239588D01*
X213149800Y-76346600D01*
X213256812Y-76425578D01*
X213382349Y-76469505D01*
X213412153Y-76472300D01*
X213688452Y-76472299D01*
X213688464Y-76472300D01*
X213698454Y-76472300D01*
X215059511Y-76472300D01*
X215126550Y-76491985D01*
X215147192Y-76508619D01*
X216607381Y-77968808D01*
X216640866Y-78030131D01*
X216643700Y-78056489D01*
X216643700Y-79111650D01*
X216669780Y-79242762D01*
X216669782Y-79242770D01*
X216713721Y-79348847D01*
X216721190Y-79418316D01*
X216689915Y-79480796D01*
X216629826Y-79516448D01*
X216599160Y-79520300D01*
X213607422Y-79520300D01*
X213540383Y-79500615D01*
X213519741Y-79483981D01*
X210113506Y-76077746D01*
X211252800Y-76077746D01*
X211259041Y-76135787D01*
X211308032Y-76267137D01*
X211392041Y-76379358D01*
X211504262Y-76463367D01*
X211635612Y-76512358D01*
X211693653Y-76518599D01*
X211693670Y-76518600D01*
X211790300Y-76518600D01*
X211790300Y-76043600D01*
X211252800Y-76043600D01*
X211252800Y-76077746D01*
X210113506Y-76077746D01*
X209545213Y-75509453D01*
X211252800Y-75509453D01*
X211252800Y-75543600D01*
X211790300Y-75543600D01*
X211790300Y-75068600D01*
X211693653Y-75068600D01*
X211635612Y-75074841D01*
X211504262Y-75123832D01*
X211392041Y-75207841D01*
X211308032Y-75320062D01*
X211259041Y-75451412D01*
X211252800Y-75509453D01*
X209545213Y-75509453D01*
X208043604Y-74007844D01*
X210702800Y-74007844D01*
X210709201Y-74067372D01*
X210709203Y-74067379D01*
X210759445Y-74202086D01*
X210759449Y-74202093D01*
X210845609Y-74317187D01*
X210845612Y-74317190D01*
X210960706Y-74403350D01*
X210960713Y-74403354D01*
X211095420Y-74453596D01*
X211095427Y-74453598D01*
X211154955Y-74459999D01*
X211154972Y-74460000D01*
X211252800Y-74460000D01*
X211752800Y-74460000D01*
X211850628Y-74460000D01*
X211850644Y-74459999D01*
X211910172Y-74453598D01*
X211910179Y-74453596D01*
X212044886Y-74403354D01*
X212044893Y-74403350D01*
X212159987Y-74317190D01*
X212159990Y-74317187D01*
X212246150Y-74202093D01*
X212246154Y-74202086D01*
X212296396Y-74067379D01*
X212296398Y-74067372D01*
X212302799Y-74007844D01*
X212302800Y-74007827D01*
X212302800Y-73910000D01*
X211752800Y-73910000D01*
X211752800Y-74460000D01*
X211252800Y-74460000D01*
X211252800Y-73910000D01*
X210702800Y-73910000D01*
X210702800Y-74007844D01*
X208043604Y-74007844D01*
X207961219Y-73925459D01*
X207927734Y-73864136D01*
X207924900Y-73837778D01*
X207924900Y-73312155D01*
X210702800Y-73312155D01*
X210702800Y-73410000D01*
X211252800Y-73410000D01*
X211752800Y-73410000D01*
X212302800Y-73410000D01*
X212302800Y-73312172D01*
X212302799Y-73312155D01*
X212296398Y-73252627D01*
X212296396Y-73252620D01*
X212246154Y-73117913D01*
X212246150Y-73117906D01*
X212159990Y-73002812D01*
X212159987Y-73002809D01*
X212044893Y-72916649D01*
X212044886Y-72916645D01*
X211910179Y-72866403D01*
X211910172Y-72866401D01*
X211850644Y-72860000D01*
X211752800Y-72860000D01*
X211752800Y-73410000D01*
X211252800Y-73410000D01*
X211252800Y-72860000D01*
X211154955Y-72860000D01*
X211095427Y-72866401D01*
X211095420Y-72866403D01*
X210960713Y-72916645D01*
X210960706Y-72916649D01*
X210845612Y-73002809D01*
X210845609Y-73002812D01*
X210759449Y-73117906D01*
X210759445Y-73117913D01*
X210709203Y-73252620D01*
X210709201Y-73252627D01*
X210702800Y-73312155D01*
X207924900Y-73312155D01*
X207924900Y-71156009D01*
X207924900Y-71156007D01*
X207904094Y-71078359D01*
X207877540Y-71032367D01*
X207863900Y-71008741D01*
X207863899Y-71008740D01*
X207863896Y-71008736D01*
X206462619Y-69607459D01*
X206429134Y-69546136D01*
X206426300Y-69519778D01*
X206426300Y-68833957D01*
X206445985Y-68766918D01*
X206478250Y-68733038D01*
X206479365Y-68732241D01*
X206479365Y-68732240D01*
X206479369Y-68732239D01*
X206562839Y-68648769D01*
X206614683Y-68542719D01*
X206624700Y-68473969D01*
X206624699Y-66906832D01*
X206614683Y-66838081D01*
X206562839Y-66732031D01*
X206562837Y-66732029D01*
X206562837Y-66732028D01*
X206479371Y-66648562D01*
X206478954Y-66648358D01*
X206373319Y-66596717D01*
X206373317Y-66596716D01*
X206373313Y-66596715D01*
X206304569Y-66586700D01*
X205937436Y-66586700D01*
X205868680Y-66596717D01*
X205762628Y-66648562D01*
X205679162Y-66732028D01*
X205627317Y-66838081D01*
X205627315Y-66838086D01*
X205617300Y-66906830D01*
X205617300Y-68473962D01*
X205624114Y-68520731D01*
X205627317Y-68542719D01*
X205679161Y-68648769D01*
X205762631Y-68732239D01*
X205762632Y-68732239D01*
X205762634Y-68732241D01*
X205763750Y-68733038D01*
X205764911Y-68734518D01*
X205769897Y-68739504D01*
X205769294Y-68740106D01*
X205806874Y-68788012D01*
X205815700Y-68833957D01*
X205815700Y-69737793D01*
X205817472Y-69744406D01*
X205833701Y-69804974D01*
X205833704Y-69804985D01*
X205833705Y-69804987D01*
X205836506Y-69815441D01*
X205876700Y-69885059D01*
X205876702Y-69885061D01*
X207277981Y-71286340D01*
X207311466Y-71347663D01*
X207314300Y-71374021D01*
X207314300Y-72241399D01*
X207294615Y-72308438D01*
X207241811Y-72354193D01*
X207172653Y-72364137D01*
X207109097Y-72335112D01*
X207102619Y-72329080D01*
X207090680Y-72317141D01*
X207090675Y-72317137D01*
X206975823Y-72250828D01*
X206975822Y-72250827D01*
X206938900Y-72240934D01*
X206847713Y-72216500D01*
X206760821Y-72216500D01*
X206693782Y-72196815D01*
X206673140Y-72180181D01*
X206181461Y-71688502D01*
X206181459Y-71688500D01*
X206111841Y-71648306D01*
X206100668Y-71645312D01*
X206100668Y-71645311D01*
X206046358Y-71630759D01*
X206034193Y-71627500D01*
X204786447Y-71627500D01*
X204719408Y-71607815D01*
X204673653Y-71555011D01*
X204663158Y-71490243D01*
X204668599Y-71439641D01*
X204668600Y-71439627D01*
X204668600Y-71166800D01*
X204081100Y-71166800D01*
X204081100Y-71831710D01*
X204061415Y-71898749D01*
X204044781Y-71919391D01*
X201584102Y-74380069D01*
X201584100Y-74380072D01*
X201543906Y-74449690D01*
X201523100Y-74527338D01*
X201523100Y-74527340D01*
X201523100Y-74759810D01*
X201503415Y-74826849D01*
X201450611Y-74872604D01*
X201440055Y-74876851D01*
X201382416Y-74897019D01*
X201382412Y-74897021D01*
X201275400Y-74976000D01*
X201227070Y-75041485D01*
X201171422Y-75083736D01*
X201101766Y-75089194D01*
X201040217Y-75056126D01*
X201006316Y-74995032D01*
X201003300Y-74967851D01*
X201003300Y-71894809D01*
X201022985Y-71827770D01*
X201075789Y-71782015D01*
X201144947Y-71772071D01*
X201200937Y-71795042D01*
X201204205Y-71797454D01*
X201333297Y-71842626D01*
X201341294Y-71843375D01*
X201363947Y-71845500D01*
X202148252Y-71845499D01*
X202178901Y-71842626D01*
X202307995Y-71797454D01*
X202418038Y-71716238D01*
X202499254Y-71606195D01*
X202521840Y-71541648D01*
X202544426Y-71477103D01*
X202544426Y-71477101D01*
X202547300Y-71446457D01*
X202547300Y-71439644D01*
X202993600Y-71439644D01*
X203000001Y-71499172D01*
X203000003Y-71499179D01*
X203050245Y-71633886D01*
X203050249Y-71633893D01*
X203136409Y-71748987D01*
X203136412Y-71748990D01*
X203251506Y-71835150D01*
X203251513Y-71835154D01*
X203386220Y-71885396D01*
X203386227Y-71885398D01*
X203445755Y-71891799D01*
X203445772Y-71891800D01*
X203581100Y-71891800D01*
X203581100Y-71166800D01*
X202993600Y-71166800D01*
X202993600Y-71439644D01*
X202547300Y-71439644D01*
X202547300Y-71115438D01*
X202547299Y-70442957D01*
X202566983Y-70375918D01*
X202583613Y-70355281D01*
X202832219Y-70106675D01*
X202893540Y-70073192D01*
X202963232Y-70078176D01*
X203019165Y-70120048D01*
X203043582Y-70185512D01*
X203036080Y-70237690D01*
X203000003Y-70334416D01*
X203000001Y-70334427D01*
X202993600Y-70393955D01*
X202993600Y-70666800D01*
X203581100Y-70666800D01*
X203581100Y-69941800D01*
X203445755Y-69941800D01*
X203386227Y-69948201D01*
X203386216Y-69948203D01*
X203289490Y-69984280D01*
X203219799Y-69989264D01*
X203158476Y-69955778D01*
X203124991Y-69894455D01*
X203129977Y-69824763D01*
X203158475Y-69780419D01*
X204110879Y-68828016D01*
X204110883Y-68828014D01*
X204210014Y-68728883D01*
X204242828Y-68679773D01*
X204248708Y-68673216D01*
X204271221Y-68659282D01*
X204291536Y-68642304D01*
X204300466Y-68641182D01*
X204308119Y-68636446D01*
X204334588Y-68636895D01*
X204360860Y-68633595D01*
X204368978Y-68637479D01*
X204377978Y-68637632D01*
X204400006Y-68652323D01*
X204423888Y-68663749D01*
X204428709Y-68668317D01*
X204492631Y-68732239D01*
X204492632Y-68732239D01*
X204492634Y-68732241D01*
X204493750Y-68733038D01*
X204494911Y-68734518D01*
X204499897Y-68739504D01*
X204499294Y-68740106D01*
X204536874Y-68788012D01*
X204545700Y-68833957D01*
X204545700Y-69086799D01*
X204526015Y-69153838D01*
X204509381Y-69174480D01*
X204447941Y-69235919D01*
X204447937Y-69235924D01*
X204381628Y-69350776D01*
X204381627Y-69350777D01*
X204370233Y-69393300D01*
X204347300Y-69478887D01*
X204347300Y-69478889D01*
X204347300Y-69611510D01*
X204347299Y-69611510D01*
X204381627Y-69739622D01*
X204381628Y-69739623D01*
X204394972Y-69762735D01*
X204411445Y-69830635D01*
X204388593Y-69896662D01*
X204333672Y-69939852D01*
X204274330Y-69948025D01*
X204216428Y-69941800D01*
X204081100Y-69941800D01*
X204081100Y-70666800D01*
X204668600Y-70666800D01*
X204668600Y-70393972D01*
X204668599Y-70393955D01*
X204662198Y-70334427D01*
X204662196Y-70334420D01*
X204614333Y-70206091D01*
X204609349Y-70136399D01*
X204642834Y-70075076D01*
X204704157Y-70041592D01*
X204762608Y-70042983D01*
X204784687Y-70048900D01*
X204784689Y-70048900D01*
X204917310Y-70048900D01*
X204917313Y-70048900D01*
X205045421Y-70014573D01*
X205160279Y-69948260D01*
X205254060Y-69854479D01*
X205320373Y-69739621D01*
X205354700Y-69611513D01*
X205354700Y-69478887D01*
X205320373Y-69350779D01*
X205254060Y-69235921D01*
X205192619Y-69174480D01*
X205159134Y-69113157D01*
X205156300Y-69086799D01*
X205156300Y-68833957D01*
X205175985Y-68766918D01*
X205208250Y-68733038D01*
X205209365Y-68732241D01*
X205209365Y-68732240D01*
X205209369Y-68732239D01*
X205292839Y-68648769D01*
X205344683Y-68542719D01*
X205354700Y-68473969D01*
X205354699Y-66906832D01*
X205344683Y-66838081D01*
X205292839Y-66732031D01*
X205292837Y-66732029D01*
X205292837Y-66732028D01*
X205209371Y-66648562D01*
X205208954Y-66648358D01*
X205103319Y-66596717D01*
X205103317Y-66596716D01*
X205103313Y-66596715D01*
X205034569Y-66586700D01*
X204667436Y-66586700D01*
X204598680Y-66596717D01*
X204492628Y-66648562D01*
X204409162Y-66732028D01*
X204357317Y-66838081D01*
X204357315Y-66838086D01*
X204347300Y-66906830D01*
X204347300Y-67354640D01*
X204341061Y-67375885D01*
X204339483Y-67397969D01*
X204331410Y-67408753D01*
X204327615Y-67421679D01*
X204310882Y-67436177D01*
X204297614Y-67453904D01*
X204284991Y-67458612D01*
X204274811Y-67467434D01*
X204252896Y-67470585D01*
X204232150Y-67478324D01*
X204218986Y-67475460D01*
X204205653Y-67477378D01*
X204185511Y-67468179D01*
X204163877Y-67463474D01*
X204146149Y-67450203D01*
X204142097Y-67448353D01*
X204135622Y-67442324D01*
X204114976Y-67421679D01*
X204110883Y-67417586D01*
X204110879Y-67417583D01*
X203810954Y-67117658D01*
X203810945Y-67117648D01*
X203784233Y-67090936D01*
X203707483Y-67014186D01*
X203704483Y-67011186D01*
X203704482Y-67011185D01*
X203587920Y-66933300D01*
X203517421Y-66904099D01*
X203517419Y-66904098D01*
X203458395Y-66879649D01*
X203458387Y-66879647D01*
X203320900Y-66852299D01*
X203320896Y-66852299D01*
X203180704Y-66852299D01*
X203174590Y-66852299D01*
X203174570Y-66852300D01*
X203022230Y-66852300D01*
X203022210Y-66852299D01*
X203016096Y-66852299D01*
X202875904Y-66852299D01*
X202872795Y-66852917D01*
X202848604Y-66855300D01*
X202321187Y-66855300D01*
X202280233Y-66848342D01*
X202188300Y-66816173D01*
X202157657Y-66813300D01*
X202157653Y-66813300D01*
X201786220Y-66813300D01*
X201719181Y-66793615D01*
X201673426Y-66740811D01*
X201663482Y-66671653D01*
X201692507Y-66608097D01*
X201698539Y-66601619D01*
X202438459Y-65861700D01*
X203340940Y-64959219D01*
X203402263Y-64925734D01*
X203428621Y-64922900D01*
X207136979Y-64922900D01*
X207204018Y-64942585D01*
X207224660Y-64959219D01*
X207349072Y-65083631D01*
X207382557Y-65144954D01*
X207377573Y-65214646D01*
X207335701Y-65270579D01*
X207270237Y-65294996D01*
X207229299Y-65291087D01*
X207101713Y-65256900D01*
X206969087Y-65256900D01*
X206899120Y-65275648D01*
X206840977Y-65291227D01*
X206840976Y-65291228D01*
X206726124Y-65357537D01*
X206726119Y-65357541D01*
X206632341Y-65451319D01*
X206632337Y-65451324D01*
X206566028Y-65566176D01*
X206566027Y-65566177D01*
X206560532Y-65586685D01*
X206531700Y-65694287D01*
X206531700Y-65694289D01*
X206531700Y-65826910D01*
X206531699Y-65826910D01*
X206566027Y-65955022D01*
X206566028Y-65955023D01*
X206632337Y-66069875D01*
X206632339Y-66069878D01*
X206632340Y-66069879D01*
X206726121Y-66163660D01*
X206726122Y-66163661D01*
X206726124Y-66163662D01*
X206763390Y-66185177D01*
X206840979Y-66229973D01*
X206969087Y-66264300D01*
X206969089Y-66264300D01*
X206977147Y-66265361D01*
X206977077Y-66265888D01*
X206979347Y-66265562D01*
X207003387Y-66276540D01*
X207028739Y-66283985D01*
X207034666Y-66290825D01*
X207042903Y-66294587D01*
X207057192Y-66316821D01*
X207074494Y-66336789D01*
X207076781Y-66347303D01*
X207080677Y-66353365D01*
X207085700Y-66388300D01*
X207085700Y-66546842D01*
X207066015Y-66613881D01*
X207033752Y-66647760D01*
X207032629Y-66648561D01*
X206949162Y-66732028D01*
X206897317Y-66838081D01*
X206897315Y-66838086D01*
X206887300Y-66906830D01*
X206887300Y-68473962D01*
X206894114Y-68520731D01*
X206897317Y-68542719D01*
X206946000Y-68642304D01*
X206949162Y-68648771D01*
X207032628Y-68732237D01*
X207032629Y-68732237D01*
X207032631Y-68732239D01*
X207138681Y-68784083D01*
X207138684Y-68784083D01*
X207138686Y-68784084D01*
X207155264Y-68786499D01*
X207207431Y-68794100D01*
X207574568Y-68794099D01*
X207643319Y-68784083D01*
X207749369Y-68732239D01*
X207832839Y-68648769D01*
X207884683Y-68542719D01*
X207894700Y-68473969D01*
X207894699Y-66906832D01*
X207884683Y-66838081D01*
X207832839Y-66732031D01*
X207832837Y-66732029D01*
X207832837Y-66732028D01*
X207749370Y-66648561D01*
X207748248Y-66647760D01*
X207747080Y-66646271D01*
X207742104Y-66641295D01*
X207742705Y-66640693D01*
X207705125Y-66592785D01*
X207696300Y-66546842D01*
X207696300Y-66101409D01*
X207696300Y-66101407D01*
X207675494Y-66023759D01*
X207675494Y-66023758D01*
X207635300Y-65954141D01*
X207575419Y-65894260D01*
X207541934Y-65832937D01*
X207539100Y-65806579D01*
X207539100Y-65694289D01*
X207539100Y-65694287D01*
X207504912Y-65566698D01*
X207506575Y-65496853D01*
X207545737Y-65438990D01*
X207609965Y-65411485D01*
X207678867Y-65423071D01*
X207712368Y-65446927D01*
X208319381Y-66053940D01*
X208352866Y-66115263D01*
X208355700Y-66141621D01*
X208355700Y-66546842D01*
X208336015Y-66613881D01*
X208303752Y-66647760D01*
X208302629Y-66648561D01*
X208219162Y-66732028D01*
X208167317Y-66838081D01*
X208167315Y-66838086D01*
X208157300Y-66906830D01*
X208157300Y-68473962D01*
X208164114Y-68520731D01*
X208167317Y-68542719D01*
X208216000Y-68642304D01*
X208219162Y-68648771D01*
X208302628Y-68732237D01*
X208302629Y-68732237D01*
X208302631Y-68732239D01*
X208408681Y-68784083D01*
X208408684Y-68784083D01*
X208408686Y-68784084D01*
X208425264Y-68786499D01*
X208477431Y-68794100D01*
X208844568Y-68794099D01*
X208913319Y-68784083D01*
X209019369Y-68732239D01*
X209102839Y-68648769D01*
X209154683Y-68542719D01*
X209154683Y-68542717D01*
X209158912Y-68534067D01*
X209160440Y-68534814D01*
X209192821Y-68485949D01*
X209256777Y-68457817D01*
X209325789Y-68468728D01*
X209377947Y-68515218D01*
X209395176Y-68561389D01*
X209395834Y-68565545D01*
X209395837Y-68565555D01*
X209453356Y-68678441D01*
X209453363Y-68678450D01*
X209542949Y-68768036D01*
X209542954Y-68768039D01*
X209655854Y-68825565D01*
X209680998Y-68829547D01*
X209681000Y-68829546D01*
X209681000Y-66551251D01*
X210181000Y-66551251D01*
X210181000Y-68829546D01*
X210181001Y-68829547D01*
X210206145Y-68825565D01*
X210319045Y-68768039D01*
X210319050Y-68768036D01*
X210408636Y-68678450D01*
X210408639Y-68678446D01*
X210466165Y-68565545D01*
X210466822Y-68561399D01*
X210469019Y-68556762D01*
X210469182Y-68556263D01*
X210469246Y-68556283D01*
X210496748Y-68498262D01*
X210556057Y-68461328D01*
X210625920Y-68462322D01*
X210684155Y-68500929D01*
X210702424Y-68534391D01*
X210703088Y-68534067D01*
X210707316Y-68542717D01*
X210707317Y-68542719D01*
X210759161Y-68648769D01*
X210759162Y-68648771D01*
X210842628Y-68732237D01*
X210842629Y-68732237D01*
X210842631Y-68732239D01*
X210948681Y-68784083D01*
X210948684Y-68784083D01*
X210948686Y-68784084D01*
X210965264Y-68786499D01*
X211017431Y-68794100D01*
X211384568Y-68794099D01*
X211453319Y-68784083D01*
X211559369Y-68732239D01*
X211642839Y-68648769D01*
X211694683Y-68542719D01*
X211704700Y-68473969D01*
X211704699Y-66906832D01*
X211694683Y-66838081D01*
X211642839Y-66732031D01*
X211642837Y-66732029D01*
X211642837Y-66732028D01*
X211570555Y-66659746D01*
X211537070Y-66598423D01*
X211542054Y-66528731D01*
X211570555Y-66484384D01*
X211586338Y-66468601D01*
X211604060Y-66450879D01*
X211670373Y-66336021D01*
X211704700Y-66207913D01*
X211704700Y-66075287D01*
X211670373Y-65947179D01*
X211633034Y-65882506D01*
X211604062Y-65832324D01*
X211604058Y-65832319D01*
X211510280Y-65738541D01*
X211510275Y-65738537D01*
X211395423Y-65672228D01*
X211395422Y-65672227D01*
X211363394Y-65663645D01*
X211267313Y-65637900D01*
X211134687Y-65637900D01*
X211057822Y-65658496D01*
X211006577Y-65672227D01*
X211006576Y-65672228D01*
X210891724Y-65738537D01*
X210891719Y-65738541D01*
X210797941Y-65832319D01*
X210797937Y-65832324D01*
X210731628Y-65947176D01*
X210731627Y-65947177D01*
X210722597Y-65980877D01*
X210697300Y-66075287D01*
X210697300Y-66075289D01*
X210697300Y-66207910D01*
X210697299Y-66207910D01*
X210731627Y-66336022D01*
X210731628Y-66336023D01*
X210797937Y-66450875D01*
X210797941Y-66450880D01*
X210831445Y-66484384D01*
X210864930Y-66545707D01*
X210859946Y-66615399D01*
X210831445Y-66659746D01*
X210759162Y-66732028D01*
X210753378Y-66743860D01*
X210707317Y-66838081D01*
X210707316Y-66838082D01*
X210703088Y-66846733D01*
X210701560Y-66845986D01*
X210669163Y-66894862D01*
X210605203Y-66922984D01*
X210536192Y-66912063D01*
X210484042Y-66865565D01*
X210466822Y-66819403D01*
X210466164Y-66815251D01*
X210466162Y-66815244D01*
X210408643Y-66702358D01*
X210408636Y-66702349D01*
X210319050Y-66612763D01*
X210319046Y-66612760D01*
X210206143Y-66555233D01*
X210181000Y-66551251D01*
X209681000Y-66551251D01*
X209655856Y-66555233D01*
X209542953Y-66612760D01*
X209542949Y-66612763D01*
X209453363Y-66702349D01*
X209453360Y-66702353D01*
X209395834Y-66815255D01*
X209395176Y-66819410D01*
X209392976Y-66824049D01*
X209392818Y-66824537D01*
X209392755Y-66824516D01*
X209365245Y-66882544D01*
X209305932Y-66919474D01*
X209236069Y-66918474D01*
X209177838Y-66879863D01*
X209159576Y-66846408D01*
X209158912Y-66846733D01*
X209154683Y-66838082D01*
X209154683Y-66838081D01*
X209102839Y-66732031D01*
X209102837Y-66732029D01*
X209102837Y-66732028D01*
X209019370Y-66648561D01*
X209018248Y-66647760D01*
X209017080Y-66646271D01*
X209012104Y-66641295D01*
X209012705Y-66640693D01*
X208975125Y-66592785D01*
X208966300Y-66546842D01*
X208966300Y-65923609D01*
X208966300Y-65923607D01*
X208949712Y-65861700D01*
X208945882Y-65847406D01*
X208945876Y-65847384D01*
X208945494Y-65845959D01*
X208945494Y-65845958D01*
X208905300Y-65776341D01*
X207502259Y-64373300D01*
X207432641Y-64333106D01*
X207354993Y-64312300D01*
X203210607Y-64312300D01*
X203155376Y-64327099D01*
X203155375Y-64327098D01*
X203132959Y-64333105D01*
X203132952Y-64333108D01*
X203063347Y-64373296D01*
X203063338Y-64373302D01*
X202814681Y-64621960D01*
X202753358Y-64655445D01*
X202683666Y-64650461D01*
X202627733Y-64608589D01*
X202603316Y-64543125D01*
X202603000Y-64534279D01*
X202603000Y-64419172D01*
X202602999Y-64419155D01*
X202596598Y-64359627D01*
X202596596Y-64359620D01*
X202561345Y-64265107D01*
X210087699Y-64265107D01*
X210122027Y-64393219D01*
X210122028Y-64393220D01*
X210188337Y-64508072D01*
X210188339Y-64508075D01*
X210188340Y-64508076D01*
X210282121Y-64601857D01*
X210282122Y-64601858D01*
X210282124Y-64601859D01*
X210339550Y-64635013D01*
X210396979Y-64668170D01*
X210525087Y-64702497D01*
X210525090Y-64702497D01*
X210657710Y-64702497D01*
X210657713Y-64702497D01*
X210785821Y-64668170D01*
X210900679Y-64601857D01*
X210962120Y-64540416D01*
X211023443Y-64506931D01*
X211049801Y-64504097D01*
X212066393Y-64504097D01*
X212066396Y-64504097D01*
X212144044Y-64483291D01*
X212213662Y-64443097D01*
X212865940Y-63790819D01*
X212927263Y-63757334D01*
X212953621Y-63754500D01*
X220700579Y-63754500D01*
X220767618Y-63774185D01*
X220788259Y-63790818D01*
X223459541Y-66462101D01*
X223506838Y-66489407D01*
X223529159Y-66502294D01*
X223606807Y-66523100D01*
X227075979Y-66523100D01*
X227143018Y-66542785D01*
X227163660Y-66559419D01*
X227572581Y-66968340D01*
X227606066Y-67029663D01*
X227608900Y-67056021D01*
X227608900Y-67511404D01*
X227589215Y-67578443D01*
X227536411Y-67624198D01*
X227467253Y-67634142D01*
X227403697Y-67605117D01*
X227374415Y-67567699D01*
X227313932Y-67448996D01*
X227276321Y-67397230D01*
X227276321Y-67397229D01*
X226828443Y-67845107D01*
X226812487Y-67806584D01*
X226733144Y-67687839D01*
X226632161Y-67586856D01*
X226513416Y-67507513D01*
X226474890Y-67491555D01*
X226922769Y-67043677D01*
X226922768Y-67043676D01*
X226871007Y-67006069D01*
X226683422Y-66910490D01*
X226683419Y-66910488D01*
X226483200Y-66845434D01*
X226275263Y-66812500D01*
X226064737Y-66812500D01*
X225856799Y-66845434D01*
X225656580Y-66910488D01*
X225656577Y-66910489D01*
X225468994Y-67006068D01*
X225417230Y-67043676D01*
X225417230Y-67043677D01*
X225865108Y-67491555D01*
X225826584Y-67507513D01*
X225707839Y-67586856D01*
X225606856Y-67687839D01*
X225527513Y-67806584D01*
X225511555Y-67845108D01*
X225063677Y-67397230D01*
X225063676Y-67397230D01*
X225026068Y-67448994D01*
X224930489Y-67636577D01*
X224930488Y-67636580D01*
X224865434Y-67836799D01*
X224832500Y-68044736D01*
X224832500Y-68255263D01*
X224865434Y-68463200D01*
X224930488Y-68663419D01*
X224930490Y-68663422D01*
X225026069Y-68851007D01*
X225063676Y-68902768D01*
X225063677Y-68902769D01*
X225511555Y-68454891D01*
X225527513Y-68493416D01*
X225606856Y-68612161D01*
X225707839Y-68713144D01*
X225826584Y-68792487D01*
X225865107Y-68808444D01*
X225417229Y-69256321D01*
X225468996Y-69293932D01*
X225656577Y-69389509D01*
X225656580Y-69389511D01*
X225856799Y-69454565D01*
X226064737Y-69487500D01*
X226275263Y-69487500D01*
X226483200Y-69454565D01*
X226683419Y-69389511D01*
X226683422Y-69389509D01*
X226871002Y-69293933D01*
X226922768Y-69256321D01*
X226922769Y-69256321D01*
X226474891Y-68808444D01*
X226513416Y-68792487D01*
X226632161Y-68713144D01*
X226733144Y-68612161D01*
X226812487Y-68493416D01*
X226828444Y-68454891D01*
X227276321Y-68902769D01*
X227276321Y-68902768D01*
X227313933Y-68851002D01*
X227374415Y-68732300D01*
X227422390Y-68681504D01*
X227490210Y-68664709D01*
X227556345Y-68687246D01*
X227599797Y-68741961D01*
X227608900Y-68788595D01*
X227608900Y-71367160D01*
X227589215Y-71434199D01*
X227536411Y-71479954D01*
X227467253Y-71489898D01*
X227403697Y-71460873D01*
X227369041Y-71408604D01*
X227368464Y-71408844D01*
X227367239Y-71405887D01*
X227366970Y-71405481D01*
X227366602Y-71404349D01*
X227309313Y-71291913D01*
X227274335Y-71223264D01*
X227154873Y-71058839D01*
X227011162Y-70915128D01*
X226846737Y-70795666D01*
X226665650Y-70703398D01*
X226472358Y-70640593D01*
X226472356Y-70640592D01*
X226472354Y-70640592D01*
X226271626Y-70608800D01*
X226271621Y-70608800D01*
X226068381Y-70608800D01*
X226068376Y-70608800D01*
X225867647Y-70640592D01*
X225674349Y-70703399D01*
X225493264Y-70795666D01*
X225399454Y-70863823D01*
X225328840Y-70915128D01*
X225328838Y-70915130D01*
X225328837Y-70915130D01*
X225185131Y-71058836D01*
X225185131Y-71058837D01*
X225185129Y-71058839D01*
X225144007Y-71115438D01*
X225065667Y-71223263D01*
X224973400Y-71404348D01*
X224973400Y-71404349D01*
X224973399Y-71404351D01*
X224959719Y-71446453D01*
X224910593Y-71597646D01*
X224878801Y-71798374D01*
X224878801Y-72001625D01*
X224909716Y-72196815D01*
X224910594Y-72202357D01*
X224973399Y-72395649D01*
X225065667Y-72576736D01*
X225185129Y-72741161D01*
X225328840Y-72884872D01*
X225493265Y-73004334D01*
X225674352Y-73096602D01*
X225867644Y-73159407D01*
X225942920Y-73171329D01*
X226068376Y-73191200D01*
X226068381Y-73191200D01*
X226271626Y-73191200D01*
X226383141Y-73173537D01*
X226472358Y-73159407D01*
X226665650Y-73096602D01*
X226846737Y-73004334D01*
X227011162Y-72884872D01*
X227154873Y-72741161D01*
X227274335Y-72576736D01*
X227366603Y-72395649D01*
X227366969Y-72394522D01*
X227367224Y-72394148D01*
X227368464Y-72391156D01*
X227369092Y-72391416D01*
X227406404Y-72336848D01*
X227470761Y-72309648D01*
X227539608Y-72321560D01*
X227591085Y-72368803D01*
X227608900Y-72432839D01*
X227608900Y-75117163D01*
X227589215Y-75184202D01*
X227536411Y-75229957D01*
X227467253Y-75239901D01*
X227403697Y-75210876D01*
X227369039Y-75158605D01*
X227368463Y-75158844D01*
X227367240Y-75155891D01*
X227366970Y-75155484D01*
X227366601Y-75154349D01*
X227352727Y-75127119D01*
X227274334Y-74973264D01*
X227154872Y-74808839D01*
X227011161Y-74665128D01*
X226846736Y-74545666D01*
X226665649Y-74453398D01*
X226472357Y-74390593D01*
X226472355Y-74390592D01*
X226472353Y-74390592D01*
X226271625Y-74358800D01*
X226271620Y-74358800D01*
X226068380Y-74358800D01*
X226068375Y-74358800D01*
X225867646Y-74390592D01*
X225674348Y-74453399D01*
X225493263Y-74545666D01*
X225422177Y-74597314D01*
X225328839Y-74665128D01*
X225328837Y-74665130D01*
X225328836Y-74665130D01*
X225185130Y-74808836D01*
X225185130Y-74808837D01*
X225185128Y-74808839D01*
X225151862Y-74854626D01*
X225065666Y-74973263D01*
X224973399Y-75154348D01*
X224973399Y-75154349D01*
X224973398Y-75154351D01*
X224948832Y-75229957D01*
X224910592Y-75347646D01*
X224878800Y-75548374D01*
X224878800Y-75751625D01*
X224910115Y-75949340D01*
X224910593Y-75952357D01*
X224973398Y-76145649D01*
X225065666Y-76326736D01*
X225185128Y-76491161D01*
X225328839Y-76634872D01*
X225493264Y-76754334D01*
X225674351Y-76846602D01*
X225867643Y-76909407D01*
X225942919Y-76921329D01*
X226068375Y-76941200D01*
X226068380Y-76941200D01*
X226271625Y-76941200D01*
X226383140Y-76923537D01*
X226472357Y-76909407D01*
X226665649Y-76846602D01*
X226846736Y-76754334D01*
X227011161Y-76634872D01*
X227154872Y-76491161D01*
X227274334Y-76326736D01*
X227366602Y-76145649D01*
X227366968Y-76144519D01*
X227367225Y-76144144D01*
X227368463Y-76141156D01*
X227369090Y-76141416D01*
X227406404Y-76086844D01*
X227470762Y-76059645D01*
X227539609Y-76071557D01*
X227591086Y-76118800D01*
X227608900Y-76182836D01*
X227608900Y-78867160D01*
X227589215Y-78934199D01*
X227536411Y-78979954D01*
X227467253Y-78989898D01*
X227403697Y-78960873D01*
X227369041Y-78908604D01*
X227368464Y-78908844D01*
X227367239Y-78905887D01*
X227366970Y-78905481D01*
X227366602Y-78904349D01*
X227293613Y-78761100D01*
X227274335Y-78723264D01*
X227154873Y-78558839D01*
X227011162Y-78415128D01*
X226846737Y-78295666D01*
X226665650Y-78203398D01*
X226472358Y-78140593D01*
X226472356Y-78140592D01*
X226472354Y-78140592D01*
X226271626Y-78108800D01*
X226271621Y-78108800D01*
X226068381Y-78108800D01*
X226068376Y-78108800D01*
X225867647Y-78140592D01*
X225867644Y-78140593D01*
X225699103Y-78195356D01*
X225674349Y-78203399D01*
X225493264Y-78295666D01*
X225435691Y-78337496D01*
X225328840Y-78415128D01*
X225328838Y-78415130D01*
X225328837Y-78415130D01*
X225185131Y-78558836D01*
X225185131Y-78558837D01*
X225185129Y-78558839D01*
X225159329Y-78594350D01*
X225065667Y-78723263D01*
X224973400Y-78904348D01*
X224973400Y-78904349D01*
X224973399Y-78904351D01*
X224963701Y-78934199D01*
X224910593Y-79097646D01*
X224878801Y-79298374D01*
X224878801Y-79501625D01*
X224904288Y-79662543D01*
X224910594Y-79702357D01*
X224973399Y-79895649D01*
X225065667Y-80076736D01*
X225185129Y-80241161D01*
X225328840Y-80384872D01*
X225493265Y-80504334D01*
X225674352Y-80596602D01*
X225867644Y-80659407D01*
X225931686Y-80669550D01*
X226068376Y-80691200D01*
X226068381Y-80691200D01*
X226271626Y-80691200D01*
X226383141Y-80673537D01*
X226472358Y-80659407D01*
X226665650Y-80596602D01*
X226846737Y-80504334D01*
X227011162Y-80384872D01*
X227154873Y-80241161D01*
X227274335Y-80076736D01*
X227366603Y-79895649D01*
X227366969Y-79894522D01*
X227367224Y-79894148D01*
X227368464Y-79891156D01*
X227369092Y-79891416D01*
X227406404Y-79836848D01*
X227470761Y-79809648D01*
X227539608Y-79821560D01*
X227591085Y-79868803D01*
X227608900Y-79932839D01*
X227608900Y-81428532D01*
X227589215Y-81495571D01*
X227536411Y-81541326D01*
X227467253Y-81551270D01*
X227416010Y-81531635D01*
X227362035Y-81495571D01*
X227333327Y-81476389D01*
X227333324Y-81476387D01*
X227333323Y-81476387D01*
X227205266Y-81423344D01*
X227205254Y-81423341D01*
X227069311Y-81396300D01*
X227069308Y-81396300D01*
X226930692Y-81396300D01*
X226930689Y-81396300D01*
X226794745Y-81423341D01*
X226794733Y-81423344D01*
X226666676Y-81476386D01*
X226551414Y-81553401D01*
X226551413Y-81553402D01*
X226462681Y-81642135D01*
X226401358Y-81675620D01*
X226331666Y-81670636D01*
X226287319Y-81642135D01*
X226198585Y-81553401D01*
X226083323Y-81476386D01*
X225955266Y-81423344D01*
X225955254Y-81423341D01*
X225819311Y-81396300D01*
X225819308Y-81396300D01*
X225680692Y-81396300D01*
X225680689Y-81396300D01*
X225544745Y-81423341D01*
X225544733Y-81423344D01*
X225416676Y-81476386D01*
X225301414Y-81553401D01*
X225203401Y-81651414D01*
X225126386Y-81766676D01*
X225073344Y-81894733D01*
X225073341Y-81894745D01*
X225046300Y-82030687D01*
X225046300Y-82169312D01*
X225073341Y-82305254D01*
X225073344Y-82305266D01*
X225126386Y-82433323D01*
X225174960Y-82506019D01*
X225195837Y-82572696D01*
X225177352Y-82640076D01*
X225140748Y-82678011D01*
X225103141Y-82703139D01*
X225058118Y-82770520D01*
X225058117Y-82770523D01*
X225046300Y-82829933D01*
X225046300Y-82829936D01*
X225046300Y-83870064D01*
X225046300Y-83870066D01*
X225046299Y-83870066D01*
X225058117Y-83929476D01*
X225058118Y-83929479D01*
X225058119Y-83929480D01*
X225103140Y-83996860D01*
X225147737Y-84026658D01*
X225170520Y-84041881D01*
X225170523Y-84041882D01*
X225229933Y-84053700D01*
X225229936Y-84053700D01*
X226270066Y-84053700D01*
X226329476Y-84041882D01*
X226329477Y-84041881D01*
X226329480Y-84041881D01*
X226396860Y-83996860D01*
X226421988Y-83959251D01*
X226475598Y-83914447D01*
X226544923Y-83905738D01*
X226593980Y-83925040D01*
X226666671Y-83973610D01*
X226666674Y-83973612D01*
X226782208Y-84021467D01*
X226794738Y-84026657D01*
X226930687Y-84053699D01*
X226930690Y-84053700D01*
X226930692Y-84053700D01*
X227069310Y-84053700D01*
X227069311Y-84053699D01*
X227205262Y-84026657D01*
X227290638Y-83991293D01*
X227333325Y-83973612D01*
X227333328Y-83973610D01*
X227341798Y-83967951D01*
X227383121Y-83940340D01*
X227416010Y-83918365D01*
X227482687Y-83897487D01*
X227550067Y-83915972D01*
X227596757Y-83967951D01*
X227608900Y-84021467D01*
X227608900Y-86656577D01*
X227589215Y-86723616D01*
X227536411Y-86769371D01*
X227467253Y-86779315D01*
X227403697Y-86750290D01*
X227368149Y-86698351D01*
X227305379Y-86522921D01*
X227305372Y-86522905D01*
X227305371Y-86522901D01*
X227225650Y-86354346D01*
X227196014Y-86304900D01*
X227129790Y-86194413D01*
X227018726Y-86044660D01*
X227018723Y-86044656D01*
X226893503Y-85906497D01*
X226755352Y-85781284D01*
X226692795Y-85734889D01*
X226605583Y-85670208D01*
X226445654Y-85574350D01*
X226283806Y-85497800D01*
X226277106Y-85494631D01*
X226277103Y-85494630D01*
X226277099Y-85494628D01*
X226148729Y-85448697D01*
X226101539Y-85431812D01*
X225920678Y-85386508D01*
X225920673Y-85386507D01*
X225920672Y-85386507D01*
X225886468Y-85381433D01*
X225736243Y-85359151D01*
X225736238Y-85359150D01*
X225736233Y-85359150D01*
X225550000Y-85350000D01*
X225363767Y-85359149D01*
X225363762Y-85359149D01*
X225363756Y-85359150D01*
X225179321Y-85386509D01*
X225042787Y-85420709D01*
X224998459Y-85431813D01*
X224998456Y-85431813D01*
X224998448Y-85431816D01*
X224822921Y-85494620D01*
X224822905Y-85494627D01*
X224654342Y-85574351D01*
X224494419Y-85670206D01*
X224344657Y-85781277D01*
X224344642Y-85781289D01*
X224206496Y-85906496D01*
X224081289Y-86044642D01*
X224081277Y-86044657D01*
X223970206Y-86194419D01*
X223874351Y-86354342D01*
X223794627Y-86522905D01*
X223794620Y-86522921D01*
X223731816Y-86698448D01*
X223731813Y-86698456D01*
X223731813Y-86698459D01*
X223720709Y-86742787D01*
X223686509Y-86879321D01*
X223659150Y-87063756D01*
X223659149Y-87063762D01*
X223659149Y-87063767D01*
X223650000Y-87250000D01*
X223659149Y-87436233D01*
X223659149Y-87436238D01*
X223659150Y-87436243D01*
X223686509Y-87620677D01*
X223731814Y-87801546D01*
X223794623Y-87977084D01*
X223794627Y-87977094D01*
X223794627Y-87977095D01*
X223794629Y-87977099D01*
X223830012Y-88051910D01*
X223874351Y-88145657D01*
X223963790Y-88294875D01*
X223970208Y-88305583D01*
X224081280Y-88455347D01*
X224081288Y-88455356D01*
X224081289Y-88455357D01*
X224206496Y-88593503D01*
X224269361Y-88650480D01*
X224344652Y-88718720D01*
X224344661Y-88718726D01*
X224344665Y-88718730D01*
X224379086Y-88744258D01*
X224494417Y-88829792D01*
X224574070Y-88877534D01*
X224654342Y-88925648D01*
X224654345Y-88925649D01*
X224654346Y-88925650D01*
X224822901Y-89005371D01*
X224822915Y-89005376D01*
X224998449Y-89068185D01*
X224998454Y-89068186D01*
X224998459Y-89068188D01*
X225179328Y-89113492D01*
X225363767Y-89140851D01*
X225549999Y-89150000D01*
X225736233Y-89140851D01*
X225920672Y-89113492D01*
X226101541Y-89068187D01*
X226183117Y-89038998D01*
X226277078Y-89005379D01*
X226277084Y-89005376D01*
X226277099Y-89005371D01*
X226445654Y-88925650D01*
X226605583Y-88829792D01*
X226755347Y-88718721D01*
X226893503Y-88593503D01*
X227018720Y-88455347D01*
X227129792Y-88305583D01*
X227225650Y-88145654D01*
X227305371Y-87977099D01*
X227368149Y-87801646D01*
X227409267Y-87745159D01*
X227474399Y-87719867D01*
X227542864Y-87733804D01*
X227592927Y-87782543D01*
X227608900Y-87843422D01*
X227608900Y-90041799D01*
X227589215Y-90108838D01*
X227572581Y-90129480D01*
X227511141Y-90190919D01*
X227511137Y-90190924D01*
X227444828Y-90305776D01*
X227444827Y-90305777D01*
X227441397Y-90318578D01*
X227410500Y-90433887D01*
X227410500Y-90433889D01*
X227410500Y-90566510D01*
X227410499Y-90566510D01*
X227444827Y-90694622D01*
X227444828Y-90694623D01*
X227511137Y-90809475D01*
X227511139Y-90809478D01*
X227511140Y-90809479D01*
X227604921Y-90903260D01*
X227719779Y-90969573D01*
X227847887Y-91003900D01*
X227847890Y-91003900D01*
X227980510Y-91003900D01*
X227980513Y-91003900D01*
X228108621Y-90969573D01*
X228223479Y-90903260D01*
X228317260Y-90809479D01*
X228383573Y-90694621D01*
X228417900Y-90566513D01*
X228417900Y-90433887D01*
X228383573Y-90305779D01*
X228317260Y-90190921D01*
X228255819Y-90129480D01*
X228222334Y-90068157D01*
X228219500Y-90041799D01*
X228219500Y-66838009D01*
X228219500Y-66838007D01*
X228198694Y-66760359D01*
X228182339Y-66732031D01*
X228158501Y-66690741D01*
X227441259Y-65973500D01*
X227371641Y-65933306D01*
X227293993Y-65912500D01*
X227293990Y-65912500D01*
X223824822Y-65912500D01*
X223757783Y-65892815D01*
X223737141Y-65876181D01*
X222666299Y-64805339D01*
X221460959Y-63600000D01*
X223650000Y-63600000D01*
X223659149Y-63786233D01*
X223659149Y-63786238D01*
X223659150Y-63786243D01*
X223686509Y-63970678D01*
X223731816Y-64151551D01*
X223794620Y-64327078D01*
X223794627Y-64327094D01*
X223794629Y-64327099D01*
X223810014Y-64359627D01*
X223874351Y-64495657D01*
X223950055Y-64621960D01*
X223970208Y-64655583D01*
X224081280Y-64805347D01*
X224081288Y-64805356D01*
X224081289Y-64805357D01*
X224206496Y-64943503D01*
X224340186Y-65064671D01*
X224344653Y-65068720D01*
X224494417Y-65179792D01*
X224494419Y-65179793D01*
X224654342Y-65275648D01*
X224654345Y-65275649D01*
X224654346Y-65275650D01*
X224822901Y-65355371D01*
X224822910Y-65355374D01*
X224822921Y-65355379D01*
X224979728Y-65411485D01*
X224998459Y-65418187D01*
X225179328Y-65463492D01*
X225363767Y-65490851D01*
X225550000Y-65500000D01*
X225736233Y-65490850D01*
X225920672Y-65463493D01*
X226101541Y-65418187D01*
X226277099Y-65355372D01*
X226445654Y-65275650D01*
X226605583Y-65179792D01*
X226755347Y-65068720D01*
X226893503Y-64943502D01*
X227018720Y-64805347D01*
X227089405Y-64710039D01*
X227129790Y-64655586D01*
X227198821Y-64540416D01*
X227225650Y-64495654D01*
X227305371Y-64327099D01*
X227310667Y-64312300D01*
X227341936Y-64224906D01*
X227368187Y-64151541D01*
X227413492Y-63970672D01*
X227440851Y-63786232D01*
X227450000Y-63600000D01*
X227440851Y-63413767D01*
X227413492Y-63229328D01*
X227368187Y-63048459D01*
X227363748Y-63036053D01*
X227305379Y-62872921D01*
X227305372Y-62872905D01*
X227305371Y-62872901D01*
X227225650Y-62704346D01*
X227129792Y-62544417D01*
X227018720Y-62394653D01*
X226893503Y-62256497D01*
X226755347Y-62131279D01*
X226605583Y-62020208D01*
X226605573Y-62020202D01*
X226445657Y-61924351D01*
X226342776Y-61875692D01*
X226277099Y-61844629D01*
X226277095Y-61844627D01*
X226277094Y-61844627D01*
X226277078Y-61844620D01*
X226101551Y-61781816D01*
X226101545Y-61781814D01*
X226101541Y-61781813D01*
X226011817Y-61759338D01*
X225920678Y-61736509D01*
X225920673Y-61736508D01*
X225920672Y-61736508D01*
X225886491Y-61731437D01*
X225736243Y-61709150D01*
X225736238Y-61709149D01*
X225736233Y-61709149D01*
X225549999Y-61700000D01*
X225363767Y-61709149D01*
X225363762Y-61709149D01*
X225363756Y-61709150D01*
X225179320Y-61736509D01*
X224998453Y-61781813D01*
X224998449Y-61781814D01*
X224822915Y-61844623D01*
X224822905Y-61844627D01*
X224654342Y-61924351D01*
X224494426Y-62020202D01*
X224494411Y-62020212D01*
X224344665Y-62131269D01*
X224344641Y-62131289D01*
X224206496Y-62256496D01*
X224081289Y-62394642D01*
X224081277Y-62394657D01*
X223970206Y-62544419D01*
X223874351Y-62704342D01*
X223794627Y-62872905D01*
X223794623Y-62872915D01*
X223731814Y-63048453D01*
X223686509Y-63229322D01*
X223659150Y-63413756D01*
X223659149Y-63413762D01*
X223659149Y-63413767D01*
X223650000Y-63600000D01*
X221460959Y-63600000D01*
X221065859Y-63204900D01*
X220996241Y-63164706D01*
X220918593Y-63143900D01*
X212735607Y-63143900D01*
X212735605Y-63143900D01*
X212678765Y-63159129D01*
X212678766Y-63159130D01*
X212657957Y-63164706D01*
X212657952Y-63164708D01*
X212588347Y-63204896D01*
X212588338Y-63204902D01*
X211936063Y-63857178D01*
X211874740Y-63890663D01*
X211848382Y-63893497D01*
X211049801Y-63893497D01*
X210982762Y-63873812D01*
X210962120Y-63857178D01*
X210900680Y-63795738D01*
X210900675Y-63795734D01*
X210785823Y-63729425D01*
X210785822Y-63729424D01*
X210753794Y-63720842D01*
X210657713Y-63695097D01*
X210525087Y-63695097D01*
X210448222Y-63715693D01*
X210396977Y-63729424D01*
X210396976Y-63729425D01*
X210282124Y-63795734D01*
X210282119Y-63795738D01*
X210188341Y-63889516D01*
X210188337Y-63889521D01*
X210122028Y-64004373D01*
X210122027Y-64004374D01*
X210104863Y-64068430D01*
X210087700Y-64132484D01*
X210087700Y-64132486D01*
X210087700Y-64265107D01*
X210087699Y-64265107D01*
X202561345Y-64265107D01*
X202546354Y-64224913D01*
X202546352Y-64224910D01*
X202526707Y-64198668D01*
X202526706Y-64198667D01*
X202460186Y-64109809D01*
X202345093Y-64023649D01*
X202345086Y-64023645D01*
X202210379Y-63973403D01*
X202210372Y-63973401D01*
X202150844Y-63967000D01*
X202053000Y-63967000D01*
X202053000Y-64643000D01*
X202033315Y-64710039D01*
X201980511Y-64755794D01*
X201929000Y-64767000D01*
X201803000Y-64767000D01*
X201803000Y-64893000D01*
X201783315Y-64960039D01*
X201730511Y-65005794D01*
X201679000Y-65017000D01*
X201003000Y-65017000D01*
X201003000Y-65114844D01*
X201009401Y-65174372D01*
X201009403Y-65174379D01*
X201059645Y-65309086D01*
X201059649Y-65309093D01*
X201145809Y-65424187D01*
X201145812Y-65424190D01*
X201260906Y-65510350D01*
X201260913Y-65510354D01*
X201395620Y-65560596D01*
X201395627Y-65560598D01*
X201455155Y-65566999D01*
X201455172Y-65567000D01*
X201570279Y-65567000D01*
X201637318Y-65586685D01*
X201683073Y-65639489D01*
X201693017Y-65708647D01*
X201663992Y-65772203D01*
X201657960Y-65778681D01*
X200453701Y-66982939D01*
X200453697Y-66982944D01*
X200437908Y-67010293D01*
X200437908Y-67010294D01*
X200413506Y-67052559D01*
X200392700Y-67130207D01*
X200392700Y-67130209D01*
X200392700Y-76909999D01*
X200373015Y-76977038D01*
X200356381Y-76997680D01*
X200294941Y-77059119D01*
X200294937Y-77059124D01*
X200228628Y-77173976D01*
X200228627Y-77173977D01*
X200217953Y-77213813D01*
X200194300Y-77302087D01*
X200194300Y-77302089D01*
X200194300Y-77434710D01*
X200194299Y-77434710D01*
X199915900Y-77434710D01*
X199915900Y-64419155D01*
X201003000Y-64419155D01*
X201003000Y-64517000D01*
X201553000Y-64517000D01*
X201553000Y-63967000D01*
X201455155Y-63967000D01*
X201395627Y-63973401D01*
X201395620Y-63973403D01*
X201260913Y-64023645D01*
X201260906Y-64023649D01*
X201145812Y-64109809D01*
X201145809Y-64109812D01*
X201059649Y-64224906D01*
X201059645Y-64224913D01*
X201009403Y-64359620D01*
X201009401Y-64359627D01*
X201003000Y-64419155D01*
X199915900Y-64419155D01*
X199915900Y-57306830D01*
X204347300Y-57306830D01*
X204347300Y-58873962D01*
X204357317Y-58942719D01*
X204409162Y-59048771D01*
X204492628Y-59132237D01*
X204492629Y-59132237D01*
X204492631Y-59132239D01*
X204598681Y-59184083D01*
X204598684Y-59184083D01*
X204598686Y-59184084D01*
X204615264Y-59186499D01*
X204667431Y-59194100D01*
X205034568Y-59194099D01*
X205103319Y-59184083D01*
X205209369Y-59132239D01*
X205292839Y-59048769D01*
X205344683Y-58942719D01*
X205354700Y-58873969D01*
X205354699Y-57306832D01*
X205354699Y-57306830D01*
X205617300Y-57306830D01*
X205617300Y-58873962D01*
X205626057Y-58934067D01*
X205627317Y-58942719D01*
X205679161Y-59048769D01*
X205762631Y-59132239D01*
X205762632Y-59132239D01*
X205762633Y-59132240D01*
X205770993Y-59138209D01*
X205768975Y-59141034D01*
X205781197Y-59152201D01*
X205806988Y-59175644D01*
X205807074Y-59175846D01*
X205807155Y-59175920D01*
X205820841Y-59207993D01*
X205820883Y-59208090D01*
X205826303Y-59228316D01*
X205826304Y-59228320D01*
X205836504Y-59266387D01*
X205836505Y-59266391D01*
X205836506Y-59266392D01*
X205876700Y-59336010D01*
X208376190Y-61835500D01*
X208445807Y-61875694D01*
X208466613Y-61881268D01*
X208523456Y-61896500D01*
X222243190Y-61896500D01*
X222243193Y-61896500D01*
X222320841Y-61875694D01*
X222390459Y-61835500D01*
X222875300Y-61350659D01*
X222915494Y-61281042D01*
X222921067Y-61260238D01*
X222921068Y-61260238D01*
X222921068Y-61260235D01*
X222936300Y-61203393D01*
X222936300Y-60605601D01*
X222955985Y-60538562D01*
X222972619Y-60517920D01*
X222974512Y-60516027D01*
X223034060Y-60456479D01*
X223100373Y-60341621D01*
X223134700Y-60213513D01*
X223134700Y-60080887D01*
X223100373Y-59952779D01*
X223060907Y-59884421D01*
X223034062Y-59837924D01*
X223034058Y-59837919D01*
X222940280Y-59744141D01*
X222940275Y-59744137D01*
X222825423Y-59677828D01*
X222825422Y-59677827D01*
X222802652Y-59671726D01*
X222748881Y-59657317D01*
X222689223Y-59620954D01*
X222658694Y-59558107D01*
X222666989Y-59488731D01*
X222670725Y-59480794D01*
X222679592Y-59463566D01*
X222697500Y-59445659D01*
X222737694Y-59376042D01*
X222748420Y-59336010D01*
X222758500Y-59298393D01*
X222758500Y-58420021D01*
X222767143Y-58390583D01*
X222773666Y-58360598D01*
X222777422Y-58355580D01*
X222778185Y-58352982D01*
X222794816Y-58332343D01*
X222796180Y-58330979D01*
X222809545Y-58317613D01*
X222870865Y-58284128D01*
X222940557Y-58289110D01*
X222996492Y-58330979D01*
X223014268Y-58364337D01*
X223018867Y-58377481D01*
X223029821Y-58408787D01*
X223029822Y-58408788D01*
X223108800Y-58515800D01*
X223215812Y-58594778D01*
X223341349Y-58638705D01*
X223371153Y-58641500D01*
X223977446Y-58641499D01*
X224007251Y-58638705D01*
X224132788Y-58594778D01*
X224239800Y-58515800D01*
X224318778Y-58408788D01*
X224362705Y-58283251D01*
X224365500Y-58253447D01*
X224365499Y-57672154D01*
X224365499Y-57672149D01*
X224808100Y-57672149D01*
X224808100Y-58253440D01*
X224810895Y-58283253D01*
X224854821Y-58408787D01*
X224854822Y-58408788D01*
X224933800Y-58515800D01*
X225040812Y-58594778D01*
X225166349Y-58638705D01*
X225196153Y-58641500D01*
X225802446Y-58641499D01*
X225832251Y-58638705D01*
X225957788Y-58594778D01*
X226064800Y-58515800D01*
X226143778Y-58408788D01*
X226187705Y-58283251D01*
X226190500Y-58253447D01*
X226190499Y-57672154D01*
X226187705Y-57642349D01*
X226143778Y-57516812D01*
X226117502Y-57481209D01*
X226093532Y-57415582D01*
X226108847Y-57347411D01*
X226158588Y-57298343D01*
X226226960Y-57283956D01*
X226279271Y-57300189D01*
X226348179Y-57339973D01*
X226476287Y-57374300D01*
X226476290Y-57374300D01*
X226608910Y-57374300D01*
X226608913Y-57374300D01*
X226737021Y-57339973D01*
X226851879Y-57273660D01*
X226945660Y-57179879D01*
X227011973Y-57065021D01*
X227046300Y-56936913D01*
X227046300Y-56804287D01*
X227011973Y-56676179D01*
X226972286Y-56607438D01*
X226945662Y-56561324D01*
X226945658Y-56561319D01*
X226851880Y-56467541D01*
X226851875Y-56467537D01*
X226737023Y-56401228D01*
X226737022Y-56401227D01*
X226692808Y-56389380D01*
X226608913Y-56366900D01*
X226476287Y-56366900D01*
X226399422Y-56387496D01*
X226348177Y-56401227D01*
X226348176Y-56401228D01*
X226233324Y-56467537D01*
X226233319Y-56467541D01*
X226171880Y-56528981D01*
X226110557Y-56562466D01*
X226084199Y-56565300D01*
X225943607Y-56565300D01*
X225865961Y-56586105D01*
X225865957Y-56586107D01*
X225841501Y-56600225D01*
X225841502Y-56600226D01*
X225796344Y-56626297D01*
X225796339Y-56626301D01*
X225255002Y-57167638D01*
X225254998Y-57167644D01*
X225241143Y-57191642D01*
X225241142Y-57191644D01*
X225214164Y-57238369D01*
X225163596Y-57286584D01*
X225147733Y-57293408D01*
X225133632Y-57298343D01*
X225040812Y-57330822D01*
X224933800Y-57409800D01*
X224854821Y-57516812D01*
X224854821Y-57516813D01*
X224810894Y-57642350D01*
X224808100Y-57672149D01*
X224365499Y-57672149D01*
X224362705Y-57642349D01*
X224318778Y-57516812D01*
X224239800Y-57409800D01*
X224132788Y-57330822D01*
X224132787Y-57330821D01*
X224007249Y-57286894D01*
X223977450Y-57284100D01*
X223371159Y-57284100D01*
X223341346Y-57286895D01*
X223215812Y-57330821D01*
X223108800Y-57409800D01*
X223029821Y-57516812D01*
X223029820Y-57516814D01*
X223009653Y-57574453D01*
X222968932Y-57631230D01*
X222903980Y-57656978D01*
X222892611Y-57657500D01*
X222692407Y-57657500D01*
X222637721Y-57672153D01*
X222637720Y-57672152D01*
X222614759Y-57678305D01*
X222614752Y-57678308D01*
X222545147Y-57718496D01*
X222545138Y-57718502D01*
X222208901Y-58054739D01*
X222208897Y-58054744D01*
X222193947Y-58080640D01*
X222193947Y-58080641D01*
X222168706Y-58124358D01*
X222147900Y-58202007D01*
X222147900Y-59080379D01*
X222128215Y-59147418D01*
X222111581Y-59168060D01*
X221931260Y-59348381D01*
X221904332Y-59363084D01*
X221878514Y-59379677D01*
X221872313Y-59380568D01*
X221869937Y-59381866D01*
X221843579Y-59384700D01*
X221819401Y-59384700D01*
X221752362Y-59365015D01*
X221731720Y-59348381D01*
X221703994Y-59320655D01*
X221670509Y-59259332D01*
X221675493Y-59189640D01*
X221712630Y-59140031D01*
X221712103Y-59139504D01*
X221715771Y-59135835D01*
X221717365Y-59133707D01*
X221719353Y-59132253D01*
X221719365Y-59132240D01*
X221719369Y-59132239D01*
X221802839Y-59048769D01*
X221854683Y-58942719D01*
X221864700Y-58873969D01*
X221864699Y-57306832D01*
X221854683Y-57238081D01*
X221802839Y-57132031D01*
X221802837Y-57132029D01*
X221802837Y-57132028D01*
X221719371Y-57048562D01*
X221719367Y-57048560D01*
X221613319Y-56996717D01*
X221613317Y-56996716D01*
X221613313Y-56996715D01*
X221544570Y-56986700D01*
X221544569Y-56986700D01*
X221350376Y-56986700D01*
X221283337Y-56967015D01*
X221237582Y-56914211D01*
X221228412Y-56885081D01*
X221226376Y-56873985D01*
X221226376Y-56836286D01*
X221204425Y-56754368D01*
X221203529Y-56749481D01*
X221206663Y-56719487D01*
X221207381Y-56689344D01*
X221210257Y-56685093D01*
X221210791Y-56679989D01*
X221229644Y-56656449D01*
X221246543Y-56631482D01*
X221251259Y-56629462D01*
X221254469Y-56625455D01*
X221283055Y-56615845D01*
X221310771Y-56603977D01*
X221320000Y-56603427D01*
X221320697Y-56603193D01*
X221321315Y-56603348D01*
X221325493Y-56603100D01*
X221559056Y-56603100D01*
X221589700Y-56600226D01*
X221589702Y-56600226D01*
X221673254Y-56570989D01*
X221718794Y-56555054D01*
X221828838Y-56473838D01*
X221910054Y-56363794D01*
X221940847Y-56275793D01*
X221955226Y-56234702D01*
X221955226Y-56234700D01*
X221958100Y-56204056D01*
X221958100Y-54844743D01*
X223100700Y-54844743D01*
X223100700Y-56204056D01*
X223103573Y-56234700D01*
X223103573Y-56234702D01*
X223142769Y-56346713D01*
X223148746Y-56363794D01*
X223229962Y-56473838D01*
X223340006Y-56555054D01*
X223383037Y-56570111D01*
X223469098Y-56600226D01*
X223499744Y-56603100D01*
X223499748Y-56603100D01*
X224534056Y-56603100D01*
X224564700Y-56600226D01*
X224564702Y-56600226D01*
X224648254Y-56570989D01*
X224693794Y-56555054D01*
X224803838Y-56473838D01*
X224885054Y-56363794D01*
X224915847Y-56275793D01*
X224930226Y-56234702D01*
X224930226Y-56234700D01*
X224933100Y-56204056D01*
X224933100Y-55953700D01*
X224935650Y-55945014D01*
X224934362Y-55936053D01*
X224945340Y-55912012D01*
X224952785Y-55886661D01*
X224959625Y-55880733D01*
X224963387Y-55872497D01*
X224985621Y-55858207D01*
X225005589Y-55840906D01*
X225016103Y-55838618D01*
X225022165Y-55834723D01*
X225057100Y-55829700D01*
X225108335Y-55829700D01*
X225175374Y-55849385D01*
X225221129Y-55902189D01*
X225228109Y-55921605D01*
X225235025Y-55947416D01*
X225235028Y-55947423D01*
X225301337Y-56062275D01*
X225301339Y-56062278D01*
X225301340Y-56062279D01*
X225395121Y-56156060D01*
X225395122Y-56156061D01*
X225395124Y-56156062D01*
X225432601Y-56177699D01*
X225509979Y-56222373D01*
X225638087Y-56256700D01*
X225638090Y-56256700D01*
X225770710Y-56256700D01*
X225770713Y-56256700D01*
X225898821Y-56222373D01*
X226013679Y-56156060D01*
X226107460Y-56062279D01*
X226173773Y-55947421D01*
X226208100Y-55819313D01*
X226208100Y-55686687D01*
X226173773Y-55558579D01*
X226130836Y-55484209D01*
X226107462Y-55443724D01*
X226107458Y-55443719D01*
X226013680Y-55349941D01*
X226013675Y-55349937D01*
X225898823Y-55283628D01*
X225898822Y-55283627D01*
X225866794Y-55275045D01*
X225770713Y-55249300D01*
X225640984Y-55249300D01*
X225640398Y-55249213D01*
X225640107Y-55249297D01*
X225637819Y-55248833D01*
X225605209Y-55244027D01*
X225595942Y-55241234D01*
X225593641Y-55239906D01*
X225576451Y-55235300D01*
X225515993Y-55219100D01*
X225057100Y-55219100D01*
X224990061Y-55199415D01*
X224944306Y-55146611D01*
X224933100Y-55095100D01*
X224933100Y-54844743D01*
X224930226Y-54814099D01*
X224930226Y-54814097D01*
X224885258Y-54685589D01*
X224885054Y-54685006D01*
X224803838Y-54574962D01*
X224693794Y-54493746D01*
X224693792Y-54493745D01*
X224564701Y-54448573D01*
X224534056Y-54445700D01*
X224534052Y-54445700D01*
X223499748Y-54445700D01*
X223499744Y-54445700D01*
X223469099Y-54448573D01*
X223469097Y-54448573D01*
X223340007Y-54493745D01*
X223229962Y-54574962D01*
X223148745Y-54685007D01*
X223103573Y-54814097D01*
X223103573Y-54814099D01*
X223100700Y-54844743D01*
X221958100Y-54844743D01*
X221955226Y-54814099D01*
X221955226Y-54814097D01*
X221910258Y-54685589D01*
X221910054Y-54685006D01*
X221828838Y-54574962D01*
X221718794Y-54493746D01*
X221718792Y-54493745D01*
X221589701Y-54448573D01*
X221559056Y-54445700D01*
X221559052Y-54445700D01*
X220524748Y-54445700D01*
X220524744Y-54445700D01*
X220494099Y-54448573D01*
X220494097Y-54448573D01*
X220365007Y-54493745D01*
X220254962Y-54574962D01*
X220173745Y-54685007D01*
X220128573Y-54814097D01*
X220128573Y-54814099D01*
X220125700Y-54844743D01*
X220125700Y-55095100D01*
X220123149Y-55103785D01*
X220124438Y-55112747D01*
X220113459Y-55136787D01*
X220106015Y-55162139D01*
X220099174Y-55168066D01*
X220095413Y-55176303D01*
X220073178Y-55190592D01*
X220053211Y-55207894D01*
X220042696Y-55210181D01*
X220036635Y-55214077D01*
X220001700Y-55219100D01*
X219914477Y-55219100D01*
X219847438Y-55199415D01*
X219801683Y-55146611D01*
X219797435Y-55136054D01*
X219795967Y-55131860D01*
X219768378Y-55053012D01*
X219689400Y-54946000D01*
X219610421Y-54887711D01*
X219582387Y-54867021D01*
X219456849Y-54823094D01*
X219427050Y-54820300D01*
X218820759Y-54820300D01*
X218790946Y-54823095D01*
X218665412Y-54867021D01*
X218558400Y-54946000D01*
X218479421Y-55053012D01*
X218479421Y-55053013D01*
X218435494Y-55178550D01*
X218432700Y-55208349D01*
X218432700Y-55268579D01*
X218413015Y-55335618D01*
X218360211Y-55381373D01*
X218291053Y-55391317D01*
X218227497Y-55362292D01*
X218221019Y-55356260D01*
X218144861Y-55280102D01*
X218144859Y-55280100D01*
X218075243Y-55239907D01*
X218075242Y-55239906D01*
X218071497Y-55238902D01*
X218065198Y-55237215D01*
X218005540Y-55200850D01*
X217980253Y-55158396D01*
X217943378Y-55053013D01*
X217943378Y-55053012D01*
X217933282Y-55039333D01*
X217864400Y-54946000D01*
X217785421Y-54887711D01*
X217757387Y-54867021D01*
X217631849Y-54823094D01*
X217602050Y-54820300D01*
X216995759Y-54820300D01*
X216965946Y-54823095D01*
X216879254Y-54853430D01*
X216849820Y-54854932D01*
X216820653Y-54859126D01*
X216815324Y-54856692D01*
X216809475Y-54856991D01*
X216783905Y-54842344D01*
X216757097Y-54830101D01*
X216753930Y-54825173D01*
X216748848Y-54822262D01*
X216735255Y-54796115D01*
X216719323Y-54771323D01*
X216718158Y-54763226D01*
X216716621Y-54760268D01*
X216714300Y-54736388D01*
X216714300Y-54558221D01*
X216733985Y-54491182D01*
X216750619Y-54470540D01*
X217170419Y-54050740D01*
X217644801Y-53576359D01*
X217684994Y-53506741D01*
X217691456Y-53482624D01*
X217691457Y-53482624D01*
X217691458Y-53482614D01*
X217693093Y-53476512D01*
X217729466Y-53416860D01*
X217771908Y-53391585D01*
X217782788Y-53387778D01*
X217889800Y-53308800D01*
X217968778Y-53201788D01*
X218012705Y-53076251D01*
X218015500Y-53046447D01*
X218015499Y-52465154D01*
X218015499Y-52465149D01*
X218458100Y-52465149D01*
X218458100Y-53046440D01*
X218460895Y-53076253D01*
X218504821Y-53201787D01*
X218504822Y-53201788D01*
X218583800Y-53308800D01*
X218690812Y-53387778D01*
X218816349Y-53431705D01*
X218846153Y-53434500D01*
X219452446Y-53434499D01*
X219482251Y-53431705D01*
X219607788Y-53387778D01*
X219714800Y-53308800D01*
X219793778Y-53201788D01*
X219805061Y-53169544D01*
X219818681Y-53150554D01*
X219828389Y-53129297D01*
X219838663Y-53122693D01*
X219845783Y-53112768D01*
X219867509Y-53104156D01*
X219887167Y-53091523D01*
X219906332Y-53088767D01*
X219910736Y-53087022D01*
X219922102Y-53086500D01*
X220001700Y-53086500D01*
X220068739Y-53106185D01*
X220114494Y-53158989D01*
X220125700Y-53210500D01*
X220125700Y-53460856D01*
X220128573Y-53491500D01*
X220128573Y-53491502D01*
X220173745Y-53620592D01*
X220173746Y-53620594D01*
X220254962Y-53730638D01*
X220365006Y-53811854D01*
X220399586Y-53823954D01*
X220494098Y-53857026D01*
X220524744Y-53859900D01*
X220524748Y-53859900D01*
X221559056Y-53859900D01*
X221589700Y-53857026D01*
X221589702Y-53857026D01*
X221656050Y-53833809D01*
X221718794Y-53811854D01*
X221828838Y-53730638D01*
X221910054Y-53620594D01*
X221940408Y-53533848D01*
X221955226Y-53491502D01*
X221955226Y-53491500D01*
X221958100Y-53460856D01*
X221958100Y-52101543D01*
X223100700Y-52101543D01*
X223100700Y-53460856D01*
X223103573Y-53491500D01*
X223103573Y-53491502D01*
X223148745Y-53620592D01*
X223148746Y-53620594D01*
X223229962Y-53730638D01*
X223340006Y-53811854D01*
X223374586Y-53823954D01*
X223469098Y-53857026D01*
X223499744Y-53859900D01*
X223499748Y-53859900D01*
X224534056Y-53859900D01*
X224564700Y-53857026D01*
X224564702Y-53857026D01*
X224631050Y-53833809D01*
X224693794Y-53811854D01*
X224803838Y-53730638D01*
X224803838Y-53730636D01*
X224811314Y-53725120D01*
X224813098Y-53727538D01*
X224860831Y-53701461D01*
X224930524Y-53706430D01*
X224986467Y-53748289D01*
X225002489Y-53781257D01*
X225003318Y-53780914D01*
X225006428Y-53788423D01*
X225072737Y-53903275D01*
X225072739Y-53903278D01*
X225072740Y-53903279D01*
X225166521Y-53997060D01*
X225281379Y-54063373D01*
X225409487Y-54097700D01*
X225409490Y-54097700D01*
X225542110Y-54097700D01*
X225542113Y-54097700D01*
X225670221Y-54063373D01*
X225785079Y-53997060D01*
X225878860Y-53903279D01*
X225945173Y-53788421D01*
X225979500Y-53660313D01*
X225979500Y-53527687D01*
X225945173Y-53399579D01*
X225892762Y-53308800D01*
X225878862Y-53284724D01*
X225878858Y-53284719D01*
X225785080Y-53190941D01*
X225785075Y-53190937D01*
X225670223Y-53124628D01*
X225670222Y-53124627D01*
X225625963Y-53112768D01*
X225542113Y-53090300D01*
X225455221Y-53090300D01*
X225388182Y-53070615D01*
X225367540Y-53053981D01*
X224969419Y-52655859D01*
X224935934Y-52594536D01*
X224933100Y-52568178D01*
X224933100Y-52101543D01*
X224930226Y-52070899D01*
X224930226Y-52070897D01*
X224896347Y-51974079D01*
X224885054Y-51941806D01*
X224803838Y-51831762D01*
X224693794Y-51750546D01*
X224693792Y-51750545D01*
X224564701Y-51705373D01*
X224534056Y-51702500D01*
X224534052Y-51702500D01*
X223499748Y-51702500D01*
X223499744Y-51702500D01*
X223469099Y-51705373D01*
X223469097Y-51705373D01*
X223340007Y-51750545D01*
X223229962Y-51831762D01*
X223148745Y-51941807D01*
X223103573Y-52070897D01*
X223103573Y-52070899D01*
X223100700Y-52101543D01*
X221958100Y-52101543D01*
X221955226Y-52070899D01*
X221955226Y-52070897D01*
X221921347Y-51974079D01*
X221910054Y-51941806D01*
X221828838Y-51831762D01*
X221718794Y-51750546D01*
X221718792Y-51750545D01*
X221589701Y-51705373D01*
X221559056Y-51702500D01*
X221559052Y-51702500D01*
X220524748Y-51702500D01*
X220524744Y-51702500D01*
X220494099Y-51705373D01*
X220494097Y-51705373D01*
X220365007Y-51750545D01*
X220254962Y-51831762D01*
X220173745Y-51941807D01*
X220128573Y-52070897D01*
X220128573Y-52070899D01*
X220125700Y-52101543D01*
X220125700Y-52351900D01*
X220123149Y-52360585D01*
X220124438Y-52369547D01*
X220113459Y-52393587D01*
X220106015Y-52418939D01*
X220099174Y-52424866D01*
X220095413Y-52433103D01*
X220073178Y-52447392D01*
X220053211Y-52464694D01*
X220042696Y-52466981D01*
X220036635Y-52470877D01*
X220001700Y-52475900D01*
X219939877Y-52475900D01*
X219872838Y-52456215D01*
X219827083Y-52403411D01*
X219822835Y-52392854D01*
X219793778Y-52309812D01*
X219714800Y-52202800D01*
X219607788Y-52123822D01*
X219607787Y-52123821D01*
X219482249Y-52079894D01*
X219452450Y-52077100D01*
X218846159Y-52077100D01*
X218816346Y-52079895D01*
X218690812Y-52123821D01*
X218583800Y-52202800D01*
X218504821Y-52309812D01*
X218504821Y-52309813D01*
X218460894Y-52435350D01*
X218458100Y-52465149D01*
X218015499Y-52465149D01*
X218012705Y-52435349D01*
X218001529Y-52403411D01*
X217968778Y-52309812D01*
X217889800Y-52202800D01*
X217782788Y-52123822D01*
X217782787Y-52123821D01*
X217657249Y-52079894D01*
X217627450Y-52077100D01*
X217021159Y-52077100D01*
X216991346Y-52079895D01*
X216865812Y-52123821D01*
X216758800Y-52202800D01*
X216679821Y-52309812D01*
X216679821Y-52309813D01*
X216635894Y-52435350D01*
X216633100Y-52465149D01*
X216633100Y-53046440D01*
X216635895Y-53076253D01*
X216679821Y-53201787D01*
X216679822Y-53201788D01*
X216758800Y-53308800D01*
X216809745Y-53346399D01*
X216851994Y-53402043D01*
X216857453Y-53471699D01*
X216824386Y-53533249D01*
X216823791Y-53533848D01*
X216518581Y-53839059D01*
X216457258Y-53872544D01*
X216387567Y-53867560D01*
X216331633Y-53825689D01*
X216307216Y-53760224D01*
X216306900Y-53751378D01*
X216306900Y-50850821D01*
X216326585Y-50783782D01*
X216343219Y-50763140D01*
X216410981Y-50695378D01*
X216542754Y-50563604D01*
X216604075Y-50530121D01*
X216673766Y-50535105D01*
X216729700Y-50576976D01*
X216730202Y-50577652D01*
X216758799Y-50616399D01*
X216758800Y-50616400D01*
X216865812Y-50695378D01*
X216991349Y-50739305D01*
X217021153Y-50742100D01*
X217627446Y-50742099D01*
X217657251Y-50739305D01*
X217782788Y-50695378D01*
X217889800Y-50616400D01*
X217968778Y-50509388D01*
X218012705Y-50383851D01*
X218015500Y-50354047D01*
X218015499Y-49772754D01*
X218015499Y-49772749D01*
X218458100Y-49772749D01*
X218458100Y-50354040D01*
X218460895Y-50383853D01*
X218504821Y-50509387D01*
X218523802Y-50535105D01*
X218583800Y-50616400D01*
X218690812Y-50695378D01*
X218816349Y-50739305D01*
X218846153Y-50742100D01*
X219452446Y-50742099D01*
X219482251Y-50739305D01*
X219607788Y-50695378D01*
X219714800Y-50616400D01*
X219793778Y-50509388D01*
X219799622Y-50492686D01*
X219805061Y-50477144D01*
X219818681Y-50458154D01*
X219828389Y-50436897D01*
X219838663Y-50430293D01*
X219845783Y-50420368D01*
X219867509Y-50411756D01*
X219887167Y-50399123D01*
X219906332Y-50396367D01*
X219910736Y-50394622D01*
X219922102Y-50394100D01*
X220001700Y-50394100D01*
X220068739Y-50413785D01*
X220114494Y-50466589D01*
X220125700Y-50518100D01*
X220125700Y-50768456D01*
X220128573Y-50799100D01*
X220128573Y-50799102D01*
X220173745Y-50928192D01*
X220173746Y-50928194D01*
X220254962Y-51038238D01*
X220365006Y-51119454D01*
X220408037Y-51134511D01*
X220494098Y-51164626D01*
X220524744Y-51167500D01*
X220524748Y-51167500D01*
X221559056Y-51167500D01*
X221589700Y-51164626D01*
X221589702Y-51164626D01*
X221654247Y-51142040D01*
X221718794Y-51119454D01*
X221828838Y-51038238D01*
X221910054Y-50928194D01*
X221937128Y-50850821D01*
X221955226Y-50799102D01*
X221955226Y-50799100D01*
X221958100Y-50768456D01*
X221958100Y-49409143D01*
X223100700Y-49409143D01*
X223100700Y-50768456D01*
X223103573Y-50799100D01*
X223103573Y-50799102D01*
X223148745Y-50928192D01*
X223148746Y-50928194D01*
X223229962Y-51038238D01*
X223340006Y-51119454D01*
X223383037Y-51134511D01*
X223469098Y-51164626D01*
X223499744Y-51167500D01*
X223499748Y-51167500D01*
X224534056Y-51167500D01*
X224564700Y-51164626D01*
X224564702Y-51164626D01*
X224629247Y-51142040D01*
X224693794Y-51119454D01*
X224803838Y-51038238D01*
X224885054Y-50928194D01*
X224912128Y-50850821D01*
X224930226Y-50799102D01*
X224930226Y-50799100D01*
X224933100Y-50768456D01*
X224933100Y-49409143D01*
X224930226Y-49378499D01*
X224930226Y-49378497D01*
X224885054Y-49249407D01*
X224885054Y-49249406D01*
X224885053Y-49249404D01*
X224840708Y-49189318D01*
X224816737Y-49123689D01*
X224832053Y-49055519D01*
X224881793Y-49006451D01*
X224950165Y-48992064D01*
X224972566Y-48995909D01*
X225053887Y-49017700D01*
X225053889Y-49017700D01*
X225186510Y-49017700D01*
X225186513Y-49017700D01*
X225314621Y-48983373D01*
X225429479Y-48917060D01*
X225523260Y-48823279D01*
X225589573Y-48708421D01*
X225623900Y-48580313D01*
X225623900Y-48447687D01*
X225589573Y-48319579D01*
X225537570Y-48229506D01*
X225523262Y-48204724D01*
X225523258Y-48204719D01*
X225429480Y-48110941D01*
X225429475Y-48110937D01*
X225314623Y-48044628D01*
X225314622Y-48044627D01*
X225282594Y-48036045D01*
X225186513Y-48010300D01*
X225053887Y-48010300D01*
X224977022Y-48030896D01*
X224925777Y-48044627D01*
X224925776Y-48044628D01*
X224810924Y-48110937D01*
X224741836Y-48180025D01*
X224686249Y-48212118D01*
X224637767Y-48225109D01*
X224637766Y-48225108D01*
X224621362Y-48229504D01*
X224621358Y-48229506D01*
X224551744Y-48269698D01*
X224551738Y-48269702D01*
X224102801Y-48718639D01*
X224102800Y-48718641D01*
X224079903Y-48758300D01*
X224062606Y-48788259D01*
X224041800Y-48865907D01*
X224041800Y-48903617D01*
X224036948Y-48920448D01*
X224027221Y-48935747D01*
X224022115Y-48953139D01*
X224008868Y-48964617D01*
X223999463Y-48979412D01*
X223983009Y-48987024D01*
X223969311Y-48998894D01*
X223946739Y-49003804D01*
X223936052Y-49008749D01*
X223928699Y-49007728D01*
X223917800Y-49010100D01*
X223499744Y-49010100D01*
X223469099Y-49012973D01*
X223469097Y-49012973D01*
X223340007Y-49058145D01*
X223229962Y-49139362D01*
X223148745Y-49249407D01*
X223103573Y-49378497D01*
X223103573Y-49378499D01*
X223100700Y-49409143D01*
X221958100Y-49409143D01*
X221955226Y-49378499D01*
X221955226Y-49378497D01*
X221910054Y-49249407D01*
X221910054Y-49249406D01*
X221828838Y-49139362D01*
X221718794Y-49058146D01*
X221718792Y-49058145D01*
X221589701Y-49012973D01*
X221559056Y-49010100D01*
X221559052Y-49010100D01*
X220524748Y-49010100D01*
X220524744Y-49010100D01*
X220494099Y-49012973D01*
X220494097Y-49012973D01*
X220365007Y-49058145D01*
X220254962Y-49139362D01*
X220173745Y-49249407D01*
X220128573Y-49378497D01*
X220128573Y-49378499D01*
X220125700Y-49409143D01*
X220125700Y-49659500D01*
X220123149Y-49668185D01*
X220124438Y-49677147D01*
X220113459Y-49701187D01*
X220106015Y-49726539D01*
X220099174Y-49732466D01*
X220095413Y-49740703D01*
X220073178Y-49754992D01*
X220053211Y-49772294D01*
X220042696Y-49774581D01*
X220036635Y-49778477D01*
X220001700Y-49783500D01*
X219939877Y-49783500D01*
X219872838Y-49763815D01*
X219827083Y-49711011D01*
X219822835Y-49700454D01*
X219793778Y-49617412D01*
X219714800Y-49510400D01*
X219607788Y-49431422D01*
X219607787Y-49431421D01*
X219482249Y-49387494D01*
X219452450Y-49384700D01*
X218846159Y-49384700D01*
X218816346Y-49387495D01*
X218690812Y-49431421D01*
X218583800Y-49510400D01*
X218504821Y-49617412D01*
X218504821Y-49617413D01*
X218460894Y-49742950D01*
X218458100Y-49772749D01*
X218015499Y-49772749D01*
X218012705Y-49742949D01*
X218001529Y-49711011D01*
X217968778Y-49617412D01*
X217889800Y-49510400D01*
X217782788Y-49431422D01*
X217782787Y-49431421D01*
X217657249Y-49387494D01*
X217627450Y-49384700D01*
X217021159Y-49384700D01*
X216991346Y-49387495D01*
X216865812Y-49431421D01*
X216758800Y-49510400D01*
X216679821Y-49617412D01*
X216679820Y-49617415D01*
X216650581Y-49700974D01*
X216609859Y-49757749D01*
X216553457Y-49781395D01*
X216553458Y-49781397D01*
X216553445Y-49781400D01*
X216549735Y-49782956D01*
X216545613Y-49783498D01*
X216467958Y-49804306D01*
X216398341Y-49844498D01*
X215757303Y-50485536D01*
X215757300Y-50485540D01*
X215753175Y-50492686D01*
X215717106Y-50555159D01*
X215696300Y-50632807D01*
X215696300Y-50632809D01*
X215696300Y-56275792D01*
X215713991Y-56341818D01*
X215717105Y-56353438D01*
X215717105Y-56353440D01*
X215734093Y-56382864D01*
X215757300Y-56423059D01*
X215757302Y-56423061D01*
X215939381Y-56605140D01*
X215972866Y-56666463D01*
X215975700Y-56692821D01*
X215975700Y-56946842D01*
X215956015Y-57013881D01*
X215923752Y-57047760D01*
X215922629Y-57048561D01*
X215839162Y-57132028D01*
X215787317Y-57238081D01*
X215787315Y-57238086D01*
X215777300Y-57306830D01*
X215777300Y-58873962D01*
X215787317Y-58942719D01*
X215839162Y-59048771D01*
X215922628Y-59132237D01*
X215922629Y-59132237D01*
X215922631Y-59132239D01*
X215989967Y-59165157D01*
X216041549Y-59212285D01*
X216059464Y-59279819D01*
X216042898Y-59338552D01*
X216040228Y-59343176D01*
X216040227Y-59343177D01*
X216029790Y-59382130D01*
X216005900Y-59471287D01*
X216005900Y-59471289D01*
X216005900Y-59603910D01*
X216005899Y-59603910D01*
X216040227Y-59732022D01*
X216040228Y-59732023D01*
X216106537Y-59846875D01*
X216106539Y-59846878D01*
X216106540Y-59846879D01*
X216200321Y-59940660D01*
X216200322Y-59940661D01*
X216200324Y-59940662D01*
X216221308Y-59952777D01*
X216315179Y-60006973D01*
X216443287Y-60041300D01*
X216443290Y-60041300D01*
X216575910Y-60041300D01*
X216575913Y-60041300D01*
X216704021Y-60006973D01*
X216818879Y-59940660D01*
X216912660Y-59846879D01*
X216978973Y-59732021D01*
X217013300Y-59603913D01*
X217013300Y-59471287D01*
X216978973Y-59343179D01*
X216913368Y-59229547D01*
X216912662Y-59228324D01*
X216912658Y-59228319D01*
X216818878Y-59134539D01*
X216811509Y-59130285D01*
X216763294Y-59079717D01*
X216750072Y-59011110D01*
X216762110Y-58968438D01*
X216774681Y-58942723D01*
X216774680Y-58942723D01*
X216774683Y-58942719D01*
X216784700Y-58873969D01*
X216784699Y-57306832D01*
X216774683Y-57238081D01*
X216722839Y-57132031D01*
X216722837Y-57132029D01*
X216722837Y-57132028D01*
X216639370Y-57048561D01*
X216638248Y-57047760D01*
X216637080Y-57046271D01*
X216633269Y-57042460D01*
X216629097Y-57040555D01*
X216613232Y-57015869D01*
X216595125Y-56992785D01*
X216593729Y-56985522D01*
X216591323Y-56981777D01*
X216586300Y-56946842D01*
X216586300Y-56840221D01*
X216605985Y-56773182D01*
X216658789Y-56727427D01*
X216727947Y-56717483D01*
X216791503Y-56746508D01*
X216797981Y-56752540D01*
X217068988Y-57023547D01*
X217102473Y-57084870D01*
X217097489Y-57154562D01*
X217092712Y-57165676D01*
X217057317Y-57238081D01*
X217057317Y-57238082D01*
X217057315Y-57238086D01*
X217047300Y-57306830D01*
X217047300Y-58873962D01*
X217057317Y-58942719D01*
X217109162Y-59048771D01*
X217192628Y-59132237D01*
X217192629Y-59132237D01*
X217192631Y-59132239D01*
X217298681Y-59184083D01*
X217298684Y-59184083D01*
X217298686Y-59184084D01*
X217315264Y-59186499D01*
X217367431Y-59194100D01*
X217734568Y-59194099D01*
X217803319Y-59184083D01*
X217909369Y-59132239D01*
X217992839Y-59048769D01*
X218044683Y-58942719D01*
X218054700Y-58873969D01*
X218054699Y-57306832D01*
X218044683Y-57238081D01*
X217992839Y-57132031D01*
X217992837Y-57132029D01*
X217992837Y-57132028D01*
X217909369Y-57048560D01*
X217903618Y-57045749D01*
X217852035Y-56998622D01*
X217844585Y-56984303D01*
X217840760Y-56975614D01*
X217835494Y-56955959D01*
X217824630Y-56937142D01*
X217795301Y-56886341D01*
X217298340Y-56389380D01*
X217264855Y-56328057D01*
X217269839Y-56258365D01*
X217311711Y-56202432D01*
X217377175Y-56178015D01*
X217386021Y-56177699D01*
X217602040Y-56177699D01*
X217602046Y-56177699D01*
X217631851Y-56174905D01*
X217757388Y-56130978D01*
X217759265Y-56129592D01*
X217761674Y-56128712D01*
X217765601Y-56126637D01*
X217765884Y-56127174D01*
X217824889Y-56105620D01*
X217893060Y-56120933D01*
X217942131Y-56170670D01*
X217956900Y-56229361D01*
X217956900Y-56529793D01*
X217973922Y-56593320D01*
X217973923Y-56593323D01*
X217977705Y-56607438D01*
X217977705Y-56607440D01*
X217988594Y-56626300D01*
X218017900Y-56677059D01*
X218017902Y-56677061D01*
X218347327Y-57006486D01*
X218380812Y-57067809D01*
X218375828Y-57137501D01*
X218371047Y-57148625D01*
X218327319Y-57238075D01*
X218327315Y-57238086D01*
X218317300Y-57306830D01*
X218317300Y-58873962D01*
X218327317Y-58942719D01*
X218379162Y-59048771D01*
X218462628Y-59132237D01*
X218462629Y-59132237D01*
X218462631Y-59132239D01*
X218568681Y-59184083D01*
X218568684Y-59184083D01*
X218568686Y-59184084D01*
X218585264Y-59186499D01*
X218637431Y-59194100D01*
X219004568Y-59194099D01*
X219073319Y-59184083D01*
X219179369Y-59132239D01*
X219262839Y-59048769D01*
X219314683Y-58942719D01*
X219324700Y-58873969D01*
X219324699Y-57306832D01*
X219314683Y-57238081D01*
X219262839Y-57132031D01*
X219262837Y-57132029D01*
X219262837Y-57132028D01*
X219179370Y-57048561D01*
X219171008Y-57042591D01*
X219172111Y-57041046D01*
X219129866Y-57002448D01*
X219116134Y-56970268D01*
X219105495Y-56930562D01*
X219105494Y-56930561D01*
X219105494Y-56930559D01*
X219101319Y-56923327D01*
X219065301Y-56860941D01*
X218603819Y-56399459D01*
X218589115Y-56372531D01*
X218572523Y-56346713D01*
X218571631Y-56340512D01*
X218570334Y-56338136D01*
X218567500Y-56311778D01*
X218567500Y-56271479D01*
X218587185Y-56204440D01*
X218639989Y-56158685D01*
X218709147Y-56148741D01*
X218732453Y-56154436D01*
X218790949Y-56174905D01*
X218820753Y-56177700D01*
X219427046Y-56177699D01*
X219456851Y-56174905D01*
X219582388Y-56130978D01*
X219689400Y-56052000D01*
X219768378Y-55944988D01*
X219779661Y-55912744D01*
X219793281Y-55893754D01*
X219802989Y-55872497D01*
X219813263Y-55865893D01*
X219820383Y-55855968D01*
X219842109Y-55847356D01*
X219861767Y-55834723D01*
X219880932Y-55831967D01*
X219885336Y-55830222D01*
X219896702Y-55829700D01*
X220001700Y-55829700D01*
X220068739Y-55849385D01*
X220114494Y-55902189D01*
X220125700Y-55953700D01*
X220125700Y-56204056D01*
X220128573Y-56234700D01*
X220128573Y-56234702D01*
X220167769Y-56346713D01*
X220173746Y-56363794D01*
X220217487Y-56423061D01*
X220227914Y-56437189D01*
X220251885Y-56502818D01*
X220236569Y-56570989D01*
X220190146Y-56618209D01*
X220132144Y-56651697D01*
X220132138Y-56651702D01*
X219846702Y-56937138D01*
X219846698Y-56937144D01*
X219828357Y-56968912D01*
X219828353Y-56968919D01*
X219820851Y-56981911D01*
X219770281Y-57030123D01*
X219767930Y-57031304D01*
X219732628Y-57048562D01*
X219649162Y-57132028D01*
X219597317Y-57238081D01*
X219597315Y-57238086D01*
X219587300Y-57306830D01*
X219587300Y-58873962D01*
X219597317Y-58942719D01*
X219649162Y-59048771D01*
X219732628Y-59132237D01*
X219732629Y-59132237D01*
X219732631Y-59132239D01*
X219838681Y-59184083D01*
X219838684Y-59184083D01*
X219838686Y-59184084D01*
X219855264Y-59186499D01*
X219907431Y-59194100D01*
X220274568Y-59194099D01*
X220343319Y-59184083D01*
X220449369Y-59132239D01*
X220532839Y-59048769D01*
X220584683Y-58942719D01*
X220594700Y-58873969D01*
X220594699Y-57530298D01*
X220597249Y-57521613D01*
X220595961Y-57512652D01*
X220606939Y-57488611D01*
X220614384Y-57463260D01*
X220621224Y-57457332D01*
X220624986Y-57449096D01*
X220647218Y-57434808D01*
X220667187Y-57417505D01*
X220677702Y-57415217D01*
X220683764Y-57411322D01*
X220718699Y-57406299D01*
X220733300Y-57406299D01*
X220800339Y-57425984D01*
X220846094Y-57478788D01*
X220857300Y-57530299D01*
X220857300Y-58873962D01*
X220866057Y-58934067D01*
X220867317Y-58942719D01*
X220919161Y-59048769D01*
X221002631Y-59132239D01*
X221002632Y-59132239D01*
X221009897Y-59139504D01*
X221008955Y-59140445D01*
X221045496Y-59187023D01*
X221052056Y-59256584D01*
X221019967Y-59318649D01*
X221018006Y-59320655D01*
X220957937Y-59380724D01*
X220891628Y-59495576D01*
X220891627Y-59495577D01*
X220889138Y-59504868D01*
X220857300Y-59623687D01*
X220857300Y-59623689D01*
X220857300Y-59756310D01*
X220857299Y-59756310D01*
X220891627Y-59884422D01*
X220891628Y-59884423D01*
X220957937Y-59999275D01*
X220957939Y-59999278D01*
X220957940Y-59999279D01*
X221051721Y-60093060D01*
X221166579Y-60159373D01*
X221294687Y-60193700D01*
X221294690Y-60193700D01*
X221427310Y-60193700D01*
X221427313Y-60193700D01*
X221555421Y-60159373D01*
X221670279Y-60093060D01*
X221731720Y-60031619D01*
X221758647Y-60016915D01*
X221784466Y-60000323D01*
X221790666Y-59999431D01*
X221793043Y-59998134D01*
X221819401Y-59995300D01*
X222003300Y-59995300D01*
X222070339Y-60014985D01*
X222116094Y-60067789D01*
X222127300Y-60119300D01*
X222127300Y-60213510D01*
X222127299Y-60213510D01*
X222161627Y-60341622D01*
X222161628Y-60341623D01*
X222227937Y-60456475D01*
X222227941Y-60456480D01*
X222289381Y-60517920D01*
X222322866Y-60579243D01*
X222325700Y-60605601D01*
X222325700Y-60985379D01*
X222317055Y-61014819D01*
X222310532Y-61044806D01*
X222306777Y-61049821D01*
X222306015Y-61052418D01*
X222289381Y-61073060D01*
X222112860Y-61249581D01*
X222051537Y-61283066D01*
X222025179Y-61285900D01*
X221938149Y-61285900D01*
X221871110Y-61266215D01*
X221825355Y-61213411D01*
X221815411Y-61144253D01*
X221818371Y-61129817D01*
X221839300Y-61051713D01*
X221839300Y-60919087D01*
X221804973Y-60790979D01*
X221771816Y-60733550D01*
X221738662Y-60676124D01*
X221738658Y-60676119D01*
X221644880Y-60582341D01*
X221644875Y-60582337D01*
X221530023Y-60516028D01*
X221530022Y-60516027D01*
X221497994Y-60507445D01*
X221401913Y-60481700D01*
X221269287Y-60481700D01*
X221192422Y-60502296D01*
X221141177Y-60516027D01*
X221141176Y-60516028D01*
X221026324Y-60582337D01*
X221026319Y-60582341D01*
X220964880Y-60643781D01*
X220903557Y-60677266D01*
X220877199Y-60680100D01*
X208711821Y-60680100D01*
X208644782Y-60660415D01*
X208624140Y-60643781D01*
X207732619Y-59752260D01*
X207699134Y-59690937D01*
X207696300Y-59664579D01*
X207696300Y-59233957D01*
X207715985Y-59166918D01*
X207748250Y-59133038D01*
X207749365Y-59132241D01*
X207749365Y-59132240D01*
X207749369Y-59132239D01*
X207832839Y-59048769D01*
X207884683Y-58942719D01*
X207894700Y-58873969D01*
X207894699Y-57306832D01*
X207894699Y-57306830D01*
X208157300Y-57306830D01*
X208157300Y-58873962D01*
X208167317Y-58942719D01*
X208219162Y-59048771D01*
X208302628Y-59132237D01*
X208302629Y-59132237D01*
X208302631Y-59132239D01*
X208408681Y-59184083D01*
X208408684Y-59184083D01*
X208408686Y-59184084D01*
X208425264Y-59186499D01*
X208477431Y-59194100D01*
X208844568Y-59194099D01*
X208913319Y-59184083D01*
X209019369Y-59132239D01*
X209102839Y-59048769D01*
X209154683Y-58942719D01*
X209164700Y-58873969D01*
X209164699Y-57306832D01*
X209154683Y-57238081D01*
X209102839Y-57132031D01*
X209102837Y-57132029D01*
X209102837Y-57132028D01*
X209019371Y-57048562D01*
X209019367Y-57048560D01*
X208913319Y-56996717D01*
X208913317Y-56996716D01*
X208913313Y-56996715D01*
X208844569Y-56986700D01*
X208477436Y-56986700D01*
X208408680Y-56996717D01*
X208302628Y-57048562D01*
X208219162Y-57132028D01*
X208167317Y-57238081D01*
X208167315Y-57238086D01*
X208157300Y-57306830D01*
X207894699Y-57306830D01*
X207884683Y-57238081D01*
X207832839Y-57132031D01*
X207832837Y-57132029D01*
X207832837Y-57132028D01*
X207749371Y-57048562D01*
X207749367Y-57048560D01*
X207643319Y-56996717D01*
X207643317Y-56996716D01*
X207643313Y-56996715D01*
X207574569Y-56986700D01*
X207207436Y-56986700D01*
X207138680Y-56996717D01*
X207032628Y-57048562D01*
X206949162Y-57132028D01*
X206897317Y-57238081D01*
X206897315Y-57238086D01*
X206887300Y-57306830D01*
X206887300Y-58873962D01*
X206896057Y-58934067D01*
X206897317Y-58942719D01*
X206949161Y-59048769D01*
X207032631Y-59132239D01*
X207032632Y-59132239D01*
X207032634Y-59132241D01*
X207033750Y-59133038D01*
X207034911Y-59134518D01*
X207038732Y-59138339D01*
X207042903Y-59140244D01*
X207058768Y-59164930D01*
X207076874Y-59188012D01*
X207078269Y-59195275D01*
X207080677Y-59199022D01*
X207085700Y-59233957D01*
X207085700Y-59382130D01*
X207066015Y-59449169D01*
X207013211Y-59494924D01*
X206944053Y-59504868D01*
X206880497Y-59475843D01*
X206874019Y-59469811D01*
X206589369Y-59185161D01*
X206555884Y-59123838D01*
X206560868Y-59054146D01*
X206565649Y-59043020D01*
X206614683Y-58942719D01*
X206624700Y-58873969D01*
X206624699Y-57306832D01*
X206614683Y-57238081D01*
X206562839Y-57132031D01*
X206562837Y-57132029D01*
X206562837Y-57132028D01*
X206479371Y-57048562D01*
X206479367Y-57048560D01*
X206373319Y-56996717D01*
X206373317Y-56996716D01*
X206373313Y-56996715D01*
X206304569Y-56986700D01*
X205937436Y-56986700D01*
X205868680Y-56996717D01*
X205762628Y-57048562D01*
X205679162Y-57132028D01*
X205627317Y-57238081D01*
X205627315Y-57238086D01*
X205617300Y-57306830D01*
X205354699Y-57306830D01*
X205344683Y-57238081D01*
X205292839Y-57132031D01*
X205292837Y-57132029D01*
X205292837Y-57132028D01*
X205209371Y-57048562D01*
X205209367Y-57048560D01*
X205103319Y-56996717D01*
X205103317Y-56996716D01*
X205103313Y-56996715D01*
X205034569Y-56986700D01*
X204667436Y-56986700D01*
X204598680Y-56996717D01*
X204492628Y-57048562D01*
X204409162Y-57132028D01*
X204357317Y-57238081D01*
X204357315Y-57238086D01*
X204347300Y-57306830D01*
X199915900Y-57306830D01*
X199915900Y-52702099D01*
X206920000Y-52702099D01*
X206920000Y-52798745D01*
X206926241Y-52856786D01*
X206975232Y-52988136D01*
X207059241Y-53100357D01*
X207171463Y-53184366D01*
X207275910Y-53223323D01*
X207331844Y-53265194D01*
X207356261Y-53330659D01*
X207341409Y-53398932D01*
X207292004Y-53448337D01*
X207273532Y-53456546D01*
X207199017Y-53482620D01*
X207199012Y-53482622D01*
X207092000Y-53561601D01*
X207013021Y-53668613D01*
X207013021Y-53668614D01*
X206969094Y-53794151D01*
X206966300Y-53823950D01*
X206966300Y-54530241D01*
X206969095Y-54560054D01*
X207013021Y-54685588D01*
X207013022Y-54685589D01*
X207092000Y-54792601D01*
X207199012Y-54871579D01*
X207324549Y-54915506D01*
X207354353Y-54918301D01*
X207935646Y-54918300D01*
X207965451Y-54915506D01*
X208090988Y-54871579D01*
X208198000Y-54792601D01*
X208276978Y-54685589D01*
X208320905Y-54560052D01*
X208320904Y-54560052D01*
X208323392Y-54552945D01*
X208337013Y-54533953D01*
X208346721Y-54512697D01*
X208356995Y-54506094D01*
X208364114Y-54496169D01*
X208385840Y-54487556D01*
X208405499Y-54474923D01*
X208424663Y-54472167D01*
X208429067Y-54470422D01*
X208440434Y-54469900D01*
X208567068Y-54469900D01*
X208634107Y-54489585D01*
X208679862Y-54542389D01*
X208690526Y-54582321D01*
X208692174Y-54599901D01*
X208692174Y-54599903D01*
X208692175Y-54599906D01*
X208731797Y-54713138D01*
X208737346Y-54728995D01*
X208757783Y-54756686D01*
X208818561Y-54839038D01*
X208862653Y-54871579D01*
X208928605Y-54920254D01*
X208971636Y-54935311D01*
X209057697Y-54965426D01*
X209065694Y-54966175D01*
X209088347Y-54968300D01*
X209218934Y-54968299D01*
X209223294Y-54969579D01*
X209227734Y-54968612D01*
X209256508Y-54979331D01*
X209285973Y-54987983D01*
X209290139Y-54991860D01*
X209293208Y-54993004D01*
X209301963Y-55002865D01*
X209318174Y-55017952D01*
X209322618Y-55023884D01*
X209348700Y-55069059D01*
X209379644Y-55100003D01*
X209384946Y-55107080D01*
X209394198Y-55131860D01*
X209406872Y-55155069D01*
X209406227Y-55164074D01*
X209409387Y-55172535D01*
X209403774Y-55198379D01*
X209401888Y-55224761D01*
X209396475Y-55231990D01*
X209394560Y-55240813D01*
X209375867Y-55259519D01*
X209360016Y-55280694D01*
X209351555Y-55283849D01*
X209345173Y-55290237D01*
X209319332Y-55295868D01*
X209294552Y-55305111D01*
X209285723Y-55305427D01*
X209265455Y-55305429D01*
X209265446Y-55305431D01*
X209146459Y-55337327D01*
X209039776Y-55398936D01*
X209039772Y-55398939D01*
X208952673Y-55486058D01*
X208952672Y-55486059D01*
X208891087Y-55592758D01*
X208891086Y-55592760D01*
X208859215Y-55711761D01*
X208859222Y-55772844D01*
X208859223Y-55772860D01*
X208859223Y-55894793D01*
X208859238Y-55894852D01*
X208859240Y-55903087D01*
X208859239Y-55903089D01*
X208859240Y-55903103D01*
X208859240Y-55916189D01*
X208859241Y-55916198D01*
X208891118Y-56035176D01*
X208906766Y-56062280D01*
X208952706Y-56141856D01*
X209039804Y-56228964D01*
X209039805Y-56228964D01*
X209039805Y-56228965D01*
X209087837Y-56256700D01*
X209146479Y-56290562D01*
X209265460Y-56322454D01*
X209286875Y-56322456D01*
X209286890Y-56322460D01*
X209327051Y-56322460D01*
X209375406Y-56322465D01*
X209375408Y-56322464D01*
X209385354Y-56322465D01*
X209385429Y-56322460D01*
X209518238Y-56322460D01*
X209585277Y-56342145D01*
X209631032Y-56394949D01*
X209640976Y-56464107D01*
X209638017Y-56478537D01*
X209625692Y-56524557D01*
X209625692Y-56524562D01*
X209625700Y-56586082D01*
X209625700Y-56946842D01*
X209606015Y-57013881D01*
X209573752Y-57047760D01*
X209572629Y-57048561D01*
X209489162Y-57132028D01*
X209437317Y-57238081D01*
X209437315Y-57238086D01*
X209427300Y-57306830D01*
X209427300Y-58873962D01*
X209437317Y-58942719D01*
X209489162Y-59048771D01*
X209572628Y-59132237D01*
X209572629Y-59132237D01*
X209572631Y-59132239D01*
X209678681Y-59184083D01*
X209678684Y-59184083D01*
X209678686Y-59184084D01*
X209695264Y-59186499D01*
X209747431Y-59194100D01*
X210114568Y-59194099D01*
X210183319Y-59184083D01*
X210289369Y-59132239D01*
X210372839Y-59048769D01*
X210424683Y-58942719D01*
X210434700Y-58873969D01*
X210434699Y-57306832D01*
X210424683Y-57238081D01*
X210372839Y-57132031D01*
X210372837Y-57132029D01*
X210372837Y-57132028D01*
X210289370Y-57048561D01*
X210288248Y-57047760D01*
X210287080Y-57046271D01*
X210283269Y-57042460D01*
X210279097Y-57040555D01*
X210263232Y-57015869D01*
X210245125Y-56992785D01*
X210243729Y-56985522D01*
X210241323Y-56981777D01*
X210236300Y-56946842D01*
X210236300Y-56852882D01*
X210255985Y-56785843D01*
X210308789Y-56740088D01*
X210360281Y-56728882D01*
X210396567Y-56728877D01*
X210515549Y-56696978D01*
X210622223Y-56635375D01*
X210684013Y-56573575D01*
X210745333Y-56540087D01*
X210815025Y-56545066D01*
X210870962Y-56586933D01*
X210895383Y-56652396D01*
X210895700Y-56661251D01*
X210895700Y-56946842D01*
X210876015Y-57013881D01*
X210843752Y-57047760D01*
X210842629Y-57048561D01*
X210759162Y-57132028D01*
X210707317Y-57238081D01*
X210707315Y-57238086D01*
X210697300Y-57306830D01*
X210697300Y-58873962D01*
X210707317Y-58942719D01*
X210759162Y-59048771D01*
X210842628Y-59132237D01*
X210842629Y-59132237D01*
X210842631Y-59132239D01*
X210948681Y-59184083D01*
X210948684Y-59184083D01*
X210948686Y-59184084D01*
X210965264Y-59186499D01*
X211017431Y-59194100D01*
X211384568Y-59194099D01*
X211453319Y-59184083D01*
X211559369Y-59132239D01*
X211642839Y-59048769D01*
X211694683Y-58942719D01*
X211694683Y-58942717D01*
X211698912Y-58934067D01*
X211700440Y-58934814D01*
X211732821Y-58885949D01*
X211796777Y-58857817D01*
X211865789Y-58868728D01*
X211917947Y-58915218D01*
X211935176Y-58961389D01*
X211935834Y-58965545D01*
X211935837Y-58965555D01*
X211993356Y-59078441D01*
X211993363Y-59078450D01*
X212082949Y-59168036D01*
X212082954Y-59168039D01*
X212195854Y-59225565D01*
X212220998Y-59229547D01*
X212221000Y-59229546D01*
X212721000Y-59229546D01*
X212721001Y-59229547D01*
X212746145Y-59225565D01*
X212859045Y-59168039D01*
X212859050Y-59168036D01*
X212948636Y-59078450D01*
X212948639Y-59078446D01*
X213006165Y-58965545D01*
X213006822Y-58961399D01*
X213009019Y-58956762D01*
X213009182Y-58956263D01*
X213009246Y-58956283D01*
X213036748Y-58898262D01*
X213096057Y-58861328D01*
X213165920Y-58862322D01*
X213224155Y-58900929D01*
X213242424Y-58934391D01*
X213243088Y-58934067D01*
X213247316Y-58942717D01*
X213247317Y-58942719D01*
X213280751Y-59011110D01*
X213299162Y-59048771D01*
X213382628Y-59132237D01*
X213382629Y-59132237D01*
X213382631Y-59132239D01*
X213488681Y-59184083D01*
X213488684Y-59184083D01*
X213488686Y-59184084D01*
X213505264Y-59186499D01*
X213557431Y-59194100D01*
X213924568Y-59194099D01*
X213993319Y-59184083D01*
X214099369Y-59132239D01*
X214182839Y-59048769D01*
X214234683Y-58942719D01*
X214244700Y-58873969D01*
X214244699Y-57306832D01*
X214244699Y-57306830D01*
X214507300Y-57306830D01*
X214507300Y-58873962D01*
X214517317Y-58942719D01*
X214569162Y-59048771D01*
X214652628Y-59132237D01*
X214652629Y-59132237D01*
X214652631Y-59132239D01*
X214758681Y-59184083D01*
X214758684Y-59184083D01*
X214758686Y-59184084D01*
X214775264Y-59186499D01*
X214827431Y-59194100D01*
X215194568Y-59194099D01*
X215263319Y-59184083D01*
X215369369Y-59132239D01*
X215452839Y-59048769D01*
X215504683Y-58942719D01*
X215514700Y-58873969D01*
X215514699Y-57306832D01*
X215504683Y-57238081D01*
X215452839Y-57132031D01*
X215452837Y-57132029D01*
X215452837Y-57132028D01*
X215369371Y-57048562D01*
X215369367Y-57048560D01*
X215263319Y-56996717D01*
X215263317Y-56996716D01*
X215263313Y-56996715D01*
X215194569Y-56986700D01*
X214827436Y-56986700D01*
X214758680Y-56996717D01*
X214652628Y-57048562D01*
X214569162Y-57132028D01*
X214517317Y-57238081D01*
X214517315Y-57238086D01*
X214507300Y-57306830D01*
X214244699Y-57306830D01*
X214234683Y-57238081D01*
X214182839Y-57132031D01*
X214182837Y-57132029D01*
X214182837Y-57132028D01*
X214099371Y-57048562D01*
X214099367Y-57048560D01*
X213993319Y-56996717D01*
X213993317Y-56996716D01*
X213993313Y-56996715D01*
X213924569Y-56986700D01*
X213557436Y-56986700D01*
X213488680Y-56996717D01*
X213382628Y-57048562D01*
X213299162Y-57132028D01*
X213281751Y-57167644D01*
X213247317Y-57238081D01*
X213247316Y-57238082D01*
X213243088Y-57246733D01*
X213241560Y-57245986D01*
X213209163Y-57294862D01*
X213145203Y-57322984D01*
X213076192Y-57312063D01*
X213024042Y-57265565D01*
X213006822Y-57219403D01*
X213006164Y-57215251D01*
X213006162Y-57215244D01*
X212948643Y-57102358D01*
X212948636Y-57102349D01*
X212859050Y-57012763D01*
X212859046Y-57012760D01*
X212746143Y-56955233D01*
X212721000Y-56951251D01*
X212721000Y-59229546D01*
X212221000Y-59229546D01*
X212221000Y-56951251D01*
X212195856Y-56955233D01*
X212082953Y-57012760D01*
X212082949Y-57012763D01*
X211993363Y-57102349D01*
X211993360Y-57102353D01*
X211935834Y-57215255D01*
X211935176Y-57219410D01*
X211932976Y-57224049D01*
X211932818Y-57224537D01*
X211932755Y-57224516D01*
X211905245Y-57282544D01*
X211845932Y-57319474D01*
X211776069Y-57318474D01*
X211717838Y-57279863D01*
X211699576Y-57246408D01*
X211698912Y-57246733D01*
X211694683Y-57238082D01*
X211694683Y-57238081D01*
X211642839Y-57132031D01*
X211642837Y-57132029D01*
X211642837Y-57132028D01*
X211559370Y-57048561D01*
X211558248Y-57047760D01*
X211557080Y-57046271D01*
X211552104Y-57041295D01*
X211552705Y-57040693D01*
X211515125Y-56992785D01*
X211506300Y-56946842D01*
X211506300Y-55484209D01*
X211506300Y-55484207D01*
X211485494Y-55406559D01*
X211477184Y-55392166D01*
X211445301Y-55336941D01*
X211445300Y-55336940D01*
X211445297Y-55336936D01*
X211334642Y-55226281D01*
X211301157Y-55164958D01*
X211306141Y-55095266D01*
X211348013Y-55039333D01*
X211413477Y-55014916D01*
X211422323Y-55014600D01*
X211543000Y-55014600D01*
X212043000Y-55014600D01*
X212290828Y-55014600D01*
X212290844Y-55014599D01*
X212350372Y-55008198D01*
X212350379Y-55008196D01*
X212485086Y-54957954D01*
X212485093Y-54957950D01*
X212600187Y-54871790D01*
X212600190Y-54871787D01*
X212686350Y-54756693D01*
X212686354Y-54756686D01*
X212736596Y-54621979D01*
X212736598Y-54621972D01*
X212742999Y-54562444D01*
X212743000Y-54562427D01*
X212743000Y-54523747D01*
X213016000Y-54523747D01*
X213022241Y-54581788D01*
X213071232Y-54713138D01*
X213155241Y-54825359D01*
X213267462Y-54909368D01*
X213398812Y-54958359D01*
X213456853Y-54964600D01*
X213456870Y-54964601D01*
X213491000Y-54964601D01*
X213991000Y-54964601D01*
X214025130Y-54964601D01*
X214025146Y-54964600D01*
X214083187Y-54958359D01*
X214214537Y-54909368D01*
X214326758Y-54825359D01*
X214410767Y-54713138D01*
X214459758Y-54581788D01*
X214465999Y-54523747D01*
X214466000Y-54523730D01*
X214466000Y-54427101D01*
X213991000Y-54427101D01*
X213991000Y-54964601D01*
X213491000Y-54964601D01*
X213491000Y-54427101D01*
X213016000Y-54427101D01*
X213016000Y-54523747D01*
X212743000Y-54523747D01*
X212743000Y-54414600D01*
X212043000Y-54414600D01*
X212043000Y-55014600D01*
X211543000Y-55014600D01*
X211543000Y-54288600D01*
X211562685Y-54221561D01*
X211615489Y-54175806D01*
X211667000Y-54164600D01*
X211793000Y-54164600D01*
X211793000Y-54038600D01*
X211812685Y-53971561D01*
X211865489Y-53925806D01*
X211917000Y-53914600D01*
X212743000Y-53914600D01*
X212743000Y-53766772D01*
X212742999Y-53766755D01*
X212736598Y-53707227D01*
X212736596Y-53707220D01*
X212686354Y-53572513D01*
X212686350Y-53572506D01*
X212600190Y-53457412D01*
X212503320Y-53384894D01*
X212461450Y-53328960D01*
X212456466Y-53259268D01*
X212489952Y-53197946D01*
X212503987Y-53185867D01*
X212567438Y-53139038D01*
X212648654Y-53028995D01*
X212672592Y-52960585D01*
X212693826Y-52899903D01*
X212693826Y-52899901D01*
X212695475Y-52882322D01*
X212696645Y-52879384D01*
X212696195Y-52876253D01*
X212709493Y-52847134D01*
X212721333Y-52817414D01*
X212723905Y-52815575D01*
X212725220Y-52812697D01*
X212752149Y-52795390D01*
X212778178Y-52776789D01*
X212782135Y-52776120D01*
X212783998Y-52774923D01*
X212818933Y-52769900D01*
X212954315Y-52769900D01*
X213021354Y-52789585D01*
X213067109Y-52842389D01*
X213071357Y-52852946D01*
X213109021Y-52960586D01*
X213109022Y-52960587D01*
X213188000Y-53067599D01*
X213295012Y-53146577D01*
X213360648Y-53169544D01*
X213369531Y-53172652D01*
X213426307Y-53213374D01*
X213452055Y-53278326D01*
X213438599Y-53346888D01*
X213390212Y-53397291D01*
X213371911Y-53405875D01*
X213267468Y-53444830D01*
X213267463Y-53444833D01*
X213155241Y-53528842D01*
X213071232Y-53641063D01*
X213022241Y-53772413D01*
X213016000Y-53830454D01*
X213016000Y-53927101D01*
X214466000Y-53927101D01*
X214466000Y-53830471D01*
X214465999Y-53830454D01*
X214459758Y-53772413D01*
X214410767Y-53641063D01*
X214326758Y-53528842D01*
X214214537Y-53444833D01*
X214110088Y-53405876D01*
X214054155Y-53364004D01*
X214029738Y-53298540D01*
X214044590Y-53230267D01*
X214093995Y-53180862D01*
X214112462Y-53172654D01*
X214186988Y-53146577D01*
X214294000Y-53067599D01*
X214372978Y-52960587D01*
X214416905Y-52835050D01*
X214419700Y-52805246D01*
X214419699Y-52098953D01*
X214416905Y-52069148D01*
X214372978Y-51943611D01*
X214294000Y-51836599D01*
X214186988Y-51757621D01*
X214186987Y-51757620D01*
X214061449Y-51713693D01*
X214031650Y-51710899D01*
X213450359Y-51710899D01*
X213420546Y-51713694D01*
X213295012Y-51757620D01*
X213188000Y-51836599D01*
X213109022Y-51943611D01*
X213062608Y-52076255D01*
X213048986Y-52095246D01*
X213039279Y-52116503D01*
X213029004Y-52123105D01*
X213021886Y-52133031D01*
X213000159Y-52141643D01*
X212980501Y-52154277D01*
X212961336Y-52157032D01*
X212956933Y-52158778D01*
X212945566Y-52159300D01*
X212818932Y-52159300D01*
X212751893Y-52139615D01*
X212706138Y-52086811D01*
X212695473Y-52046878D01*
X212693826Y-52029299D01*
X212648654Y-51900205D01*
X212601710Y-51836599D01*
X212567438Y-51790161D01*
X212492885Y-51735139D01*
X212457395Y-51708946D01*
X212457393Y-51708945D01*
X212328302Y-51663773D01*
X212297657Y-51660900D01*
X211288353Y-51660900D01*
X211271539Y-51662476D01*
X211257699Y-51663774D01*
X211257697Y-51663774D01*
X211257693Y-51663775D01*
X211128606Y-51708945D01*
X211018561Y-51790161D01*
X210937345Y-51900206D01*
X210892173Y-52029296D01*
X210892173Y-52029298D01*
X210889300Y-52059942D01*
X210889300Y-52869250D01*
X210889629Y-52872756D01*
X210889359Y-52874141D01*
X210889852Y-52875463D01*
X210882707Y-52908306D01*
X210876276Y-52941338D01*
X210875202Y-52942805D01*
X210875000Y-52943736D01*
X210853849Y-52971990D01*
X210721194Y-53104645D01*
X210659871Y-53138130D01*
X210590179Y-53133146D01*
X210534246Y-53091274D01*
X210509829Y-53025810D01*
X210517332Y-52973629D01*
X210536596Y-52921980D01*
X210536598Y-52921972D01*
X210542999Y-52862444D01*
X210543000Y-52862427D01*
X210543000Y-52714600D01*
X208643000Y-52714600D01*
X208643000Y-52862444D01*
X208649401Y-52921972D01*
X208649403Y-52921979D01*
X208699645Y-53056686D01*
X208699649Y-53056693D01*
X208785809Y-53171787D01*
X208882679Y-53244305D01*
X208924549Y-53300239D01*
X208929533Y-53369931D01*
X208896047Y-53431253D01*
X208882001Y-53443341D01*
X208818561Y-53490161D01*
X208737345Y-53600206D01*
X208692173Y-53729296D01*
X208692173Y-53729298D01*
X208690525Y-53746878D01*
X208689354Y-53749815D01*
X208689805Y-53752947D01*
X208676506Y-53782065D01*
X208664667Y-53811786D01*
X208662094Y-53813624D01*
X208660780Y-53816503D01*
X208633850Y-53833809D01*
X208607822Y-53852411D01*
X208603864Y-53853079D01*
X208602002Y-53854277D01*
X208567067Y-53859300D01*
X208431685Y-53859300D01*
X208364646Y-53839615D01*
X208318891Y-53786811D01*
X208314643Y-53776254D01*
X208276978Y-53668613D01*
X208256645Y-53641063D01*
X208198000Y-53561601D01*
X208101202Y-53490161D01*
X208090987Y-53482622D01*
X208090983Y-53482620D01*
X208016467Y-53456546D01*
X207959691Y-53415825D01*
X207933944Y-53350872D01*
X207947400Y-53282310D01*
X207995788Y-53231908D01*
X208014089Y-53223323D01*
X208118536Y-53184366D01*
X208230758Y-53100357D01*
X208314767Y-52988136D01*
X208363758Y-52856786D01*
X208369999Y-52798745D01*
X208370000Y-52798728D01*
X208370000Y-52702099D01*
X206920000Y-52702099D01*
X199915900Y-52702099D01*
X199915900Y-52105452D01*
X206920000Y-52105452D01*
X206920000Y-52202099D01*
X207395000Y-52202099D01*
X207895000Y-52202099D01*
X208370000Y-52202099D01*
X208370000Y-52105469D01*
X208369999Y-52105455D01*
X208366908Y-52076708D01*
X208366907Y-52076706D01*
X208365837Y-52066755D01*
X208643000Y-52066755D01*
X208643000Y-52214600D01*
X209343000Y-52214600D01*
X209843000Y-52214600D01*
X210543000Y-52214600D01*
X210543000Y-52066772D01*
X210542999Y-52066755D01*
X210536598Y-52007227D01*
X210536596Y-52007220D01*
X210486354Y-51872513D01*
X210486350Y-51872506D01*
X210400190Y-51757412D01*
X210400187Y-51757409D01*
X210285093Y-51671249D01*
X210285086Y-51671245D01*
X210150379Y-51621003D01*
X210150372Y-51621001D01*
X210090844Y-51614600D01*
X209843000Y-51614600D01*
X209843000Y-52214600D01*
X209343000Y-52214600D01*
X209343000Y-51614600D01*
X209095155Y-51614600D01*
X209035627Y-51621001D01*
X209035620Y-51621003D01*
X208900913Y-51671245D01*
X208900906Y-51671249D01*
X208785812Y-51757409D01*
X208785809Y-51757412D01*
X208699649Y-51872506D01*
X208699645Y-51872513D01*
X208649403Y-52007220D01*
X208649401Y-52007227D01*
X208643000Y-52066755D01*
X208365837Y-52066755D01*
X208363757Y-52047407D01*
X208314767Y-51916061D01*
X208230758Y-51803840D01*
X208118537Y-51719831D01*
X207987187Y-51670840D01*
X207929146Y-51664599D01*
X207895000Y-51664599D01*
X207895000Y-52202099D01*
X207395000Y-52202099D01*
X207395000Y-51664599D01*
X207360853Y-51664599D01*
X207302812Y-51670840D01*
X207171462Y-51719831D01*
X207059241Y-51803840D01*
X206975232Y-51916061D01*
X206926241Y-52047411D01*
X206920000Y-52105452D01*
X199915900Y-52105452D01*
X199915900Y-50803246D01*
X199916070Y-50796756D01*
X199918934Y-50742100D01*
X199933551Y-50463202D01*
X199934908Y-50450297D01*
X199943013Y-50399123D01*
X199986648Y-50123614D01*
X199989342Y-50110935D01*
X200074956Y-49791421D01*
X200078964Y-49779089D01*
X200079199Y-49778477D01*
X200197500Y-49470292D01*
X200202765Y-49458464D01*
X200352948Y-49163714D01*
X200359414Y-49152515D01*
X200539572Y-48875096D01*
X200547187Y-48864615D01*
X200755359Y-48607544D01*
X200764026Y-48597919D01*
X200997919Y-48364026D01*
X201007544Y-48355359D01*
X201264615Y-48147187D01*
X201275096Y-48139572D01*
X201552515Y-47959414D01*
X201563714Y-47952948D01*
X201858464Y-47802765D01*
X201870292Y-47797500D01*
X202179093Y-47678962D01*
X202191421Y-47674956D01*
X202510935Y-47589342D01*
X202523614Y-47586648D01*
X202850297Y-47534908D01*
X202863202Y-47533551D01*
X203196756Y-47516069D01*
X203203246Y-47515900D01*
X203265892Y-47515900D01*
X228534108Y-47515900D01*
X228596754Y-47515900D01*
X228603244Y-47516070D01*
G37*
G04 #@! TD.AperFunction*
G04 #@! TD*
M02*
