%TF.GenerationSoftware,KiCad,Pcbnew,9.0.7*%
%TF.CreationDate,2026-01-28T01:05:42-05:00*%
%TF.ProjectId,rocket_power_board,726f636b-6574-45f7-906f-7765725f626f,rev?*%
%TF.SameCoordinates,Original*%
%TF.FileFunction,Drillmap*%
%TF.FilePolarity,Positive*%
%FSLAX45Y45*%
G04 Gerber Fmt 4.5, Leading zero omitted, Abs format (unit mm)*
G04 Created by KiCad (PCBNEW 9.0.7) date 2026-01-28 01:05:42*
%MOMM*%
%LPD*%
G01*
G04 APERTURE LIST*
%ADD10C,0.050000*%
%ADD11C,0.200000*%
%ADD12C,0.100000*%
%ADD13C,0.145000*%
%ADD14C,0.182880*%
%ADD15C,0.320000*%
G04 APERTURE END LIST*
D10*
X19941540Y-5080000D02*
G75*
G02*
X20320000Y-4701540I378460J0D01*
G01*
X23238460Y-10160000D02*
G75*
G02*
X22860000Y-10538460I-378460J0D01*
G01*
X23238460Y-5080000D02*
X23238460Y-10160000D01*
X20320000Y-10538460D02*
G75*
G02*
X19941540Y-10160000I0J378460D01*
G01*
X22860000Y-10538460D02*
X20320000Y-10538460D01*
X22860000Y-4701540D02*
G75*
G02*
X23238460Y-5080000I0J-378460D01*
G01*
X19941540Y-10160000D02*
X19941540Y-5080000D01*
X20320000Y-4701540D02*
X22860000Y-4701540D01*
D11*
D12*
X20054800Y-7721840D02*
X20084800Y-7751840D01*
X20084800Y-7721840D02*
X20054800Y-7751840D01*
X20056080Y-7950440D02*
X20086080Y-7980440D01*
X20086080Y-7950440D02*
X20056080Y-7980440D01*
X20056080Y-8031720D02*
X20086080Y-8061720D01*
X20086080Y-8031720D02*
X20056080Y-8061720D01*
X20117040Y-7394180D02*
X20147040Y-7424180D01*
X20147040Y-7394180D02*
X20117040Y-7424180D01*
X20137360Y-7950440D02*
X20167360Y-7980440D01*
X20167360Y-7950440D02*
X20137360Y-7980440D01*
X20137360Y-8031720D02*
X20167360Y-8061720D01*
X20167360Y-8031720D02*
X20137360Y-8061720D01*
X20200860Y-9131540D02*
X20230860Y-9161540D01*
X20230860Y-9131540D02*
X20200860Y-9161540D01*
X20218640Y-7950440D02*
X20248640Y-7980440D01*
X20248640Y-7950440D02*
X20218640Y-7980440D01*
X20218640Y-8031720D02*
X20248640Y-8061720D01*
X20248640Y-8031720D02*
X20218640Y-8061720D01*
X20228800Y-8745460D02*
X20258800Y-8775460D01*
X20258800Y-8745460D02*
X20228800Y-8775460D01*
X20292300Y-7208760D02*
X20322300Y-7238760D01*
X20322300Y-7208760D02*
X20292300Y-7238760D01*
X20299920Y-7950440D02*
X20329920Y-7980440D01*
X20329920Y-7950440D02*
X20299920Y-7980440D01*
X20299920Y-8031720D02*
X20329920Y-8061720D01*
X20329920Y-8031720D02*
X20299920Y-8061720D01*
X20368365Y-7823241D02*
X20398365Y-7853241D01*
X20398365Y-7823241D02*
X20368365Y-7853241D01*
X20429460Y-8783560D02*
X20459460Y-8813560D01*
X20459460Y-8783560D02*
X20429460Y-8813560D01*
X20462480Y-8206980D02*
X20492480Y-8236980D01*
X20492480Y-8206980D02*
X20462480Y-8236980D01*
X20467560Y-8478760D02*
X20497560Y-8508760D01*
X20497560Y-8478760D02*
X20467560Y-8508760D01*
X20470100Y-6939520D02*
X20500100Y-6969520D01*
X20500100Y-6939520D02*
X20470100Y-6969520D01*
X20495500Y-7061440D02*
X20525500Y-7091440D01*
X20525500Y-7061440D02*
X20495500Y-7091440D01*
X20500580Y-7279880D02*
X20530580Y-7309880D01*
X20530580Y-7279880D02*
X20500580Y-7309880D01*
X20566620Y-5400280D02*
X20596620Y-5430280D01*
X20596620Y-5400280D02*
X20566620Y-5430280D01*
X20568643Y-5512957D02*
X20598643Y-5542957D01*
X20598643Y-5512957D02*
X20568643Y-5542957D01*
X20602180Y-7635480D02*
X20632180Y-7665480D01*
X20632180Y-7635480D02*
X20602180Y-7665480D01*
X20612340Y-7485620D02*
X20642340Y-7515620D01*
X20642340Y-7485620D02*
X20612340Y-7515620D01*
X20617420Y-7765020D02*
X20647420Y-7795020D01*
X20647420Y-7765020D02*
X20617420Y-7795020D01*
X20635200Y-5580620D02*
X20665200Y-5610620D01*
X20665200Y-5580620D02*
X20635200Y-5610620D01*
X20637740Y-5339320D02*
X20667740Y-5369320D01*
X20667740Y-5339320D02*
X20637740Y-5369320D01*
X20637740Y-5448540D02*
X20667740Y-5478540D01*
X20667740Y-5448540D02*
X20637740Y-5478540D01*
X20642820Y-5192000D02*
X20672820Y-5222000D01*
X20672820Y-5192000D02*
X20642820Y-5222000D01*
X20663140Y-7257020D02*
X20693140Y-7287020D01*
X20693140Y-7257020D02*
X20663140Y-7287020D01*
X20688540Y-6561060D02*
X20718540Y-6591060D01*
X20718540Y-6561060D02*
X20688540Y-6591060D01*
X20703780Y-5517120D02*
X20733780Y-5547120D01*
X20733780Y-5517120D02*
X20703780Y-5547120D01*
X20708860Y-8478760D02*
X20738860Y-8508760D01*
X20738860Y-8478760D02*
X20708860Y-8508760D01*
X20729180Y-5105640D02*
X20759180Y-5135640D01*
X20759180Y-5105640D02*
X20729180Y-5135640D01*
X20759660Y-5580620D02*
X20789660Y-5610620D01*
X20789660Y-5580620D02*
X20759660Y-5610620D01*
X20787600Y-5054840D02*
X20817600Y-5084840D01*
X20817600Y-5054840D02*
X20787600Y-5084840D01*
X20820620Y-5522200D02*
X20850620Y-5552200D01*
X20850620Y-5522200D02*
X20820620Y-5552200D01*
X20826180Y-7759940D02*
X20856180Y-7789940D01*
X20856180Y-7759940D02*
X20826180Y-7789940D01*
X20843480Y-5631420D02*
X20873480Y-5661420D01*
X20873480Y-5631420D02*
X20843480Y-5661420D01*
X20858720Y-5103100D02*
X20888720Y-5133100D01*
X20888720Y-5103100D02*
X20858720Y-5133100D01*
X20879040Y-7079220D02*
X20909040Y-7109220D01*
X20909040Y-7079220D02*
X20879040Y-7109220D01*
X20901900Y-8194280D02*
X20931900Y-8224280D01*
X20931900Y-8194280D02*
X20901900Y-8224280D01*
X20910422Y-6569602D02*
X20940422Y-6599602D01*
X20940422Y-6569602D02*
X20910422Y-6599602D01*
X20922220Y-5037060D02*
X20952220Y-5067060D01*
X20952220Y-5037060D02*
X20922220Y-5067060D01*
X20955240Y-7475460D02*
X20985240Y-7505460D01*
X20985240Y-7475460D02*
X20955240Y-7505460D01*
X20955240Y-7815820D02*
X20985240Y-7845820D01*
X20985240Y-7815820D02*
X20955240Y-7845820D01*
X20980640Y-5108180D02*
X21010640Y-5138180D01*
X21010640Y-5108180D02*
X20980640Y-5138180D01*
X20998420Y-8565120D02*
X21028420Y-8595120D01*
X21028420Y-8565120D02*
X20998420Y-8595120D01*
X21000960Y-8819120D02*
X21030960Y-8849120D01*
X21030960Y-8819120D02*
X21000960Y-8849120D01*
X21041600Y-5049760D02*
X21071600Y-5079760D01*
X21071600Y-5049760D02*
X21041600Y-5079760D01*
X21044140Y-6404880D02*
X21074140Y-6434880D01*
X21074140Y-6404880D02*
X21044140Y-6434880D01*
X21105100Y-6599160D02*
X21135100Y-6629160D01*
X21135100Y-6599160D02*
X21105100Y-6629160D01*
X21107640Y-6492480D02*
X21137640Y-6522480D01*
X21137640Y-6492480D02*
X21107640Y-6522480D01*
X21112720Y-5108180D02*
X21142720Y-5138180D01*
X21142720Y-5108180D02*
X21112720Y-5138180D01*
X21125420Y-5956540D02*
X21155420Y-5986540D01*
X21155420Y-5956540D02*
X21125420Y-5986540D01*
X21127960Y-6307060D02*
X21157960Y-6337060D01*
X21157960Y-6307060D02*
X21127960Y-6337060D01*
X21130500Y-8565120D02*
X21160500Y-8595120D01*
X21160500Y-8565120D02*
X21130500Y-8595120D01*
X21135580Y-8819120D02*
X21165580Y-8849120D01*
X21165580Y-8819120D02*
X21135580Y-8849120D01*
X21168600Y-5532360D02*
X21198600Y-5562360D01*
X21198600Y-5532360D02*
X21168600Y-5562360D01*
X21194000Y-5047220D02*
X21224000Y-5077220D01*
X21224000Y-5047220D02*
X21194000Y-5077220D01*
X21219400Y-5593320D02*
X21249400Y-5623320D01*
X21249400Y-5593320D02*
X21219400Y-5623320D01*
X21272740Y-5108180D02*
X21302740Y-5138180D01*
X21302740Y-5108180D02*
X21272740Y-5138180D01*
X21276933Y-7489905D02*
X21306933Y-7519905D01*
X21306933Y-7489905D02*
X21276933Y-7519905D01*
X21277820Y-5534900D02*
X21307820Y-5564900D01*
X21307820Y-5534900D02*
X21277820Y-5564900D01*
X21300680Y-6599160D02*
X21330680Y-6629160D01*
X21330680Y-6599160D02*
X21300680Y-6629160D01*
X21348940Y-5590780D02*
X21378940Y-5620780D01*
X21378940Y-5590780D02*
X21348940Y-5620780D01*
X21361640Y-5054840D02*
X21391640Y-5084840D01*
X21391640Y-5054840D02*
X21361640Y-5084840D01*
X21362500Y-9055000D02*
X21392500Y-9085000D01*
X21392500Y-9055000D02*
X21362500Y-9085000D01*
X21379420Y-5959080D02*
X21409420Y-5989080D01*
X21409420Y-5959080D02*
X21379420Y-5989080D01*
X21384500Y-6596620D02*
X21414500Y-6626620D01*
X21414500Y-6596620D02*
X21384500Y-6626620D01*
X21404820Y-5529820D02*
X21434820Y-5559820D01*
X21434820Y-5529820D02*
X21404820Y-5559820D01*
X21407360Y-5115800D02*
X21437360Y-5145800D01*
X21437360Y-5115800D02*
X21407360Y-5145800D01*
X21465780Y-5311380D02*
X21495780Y-5341380D01*
X21495780Y-5311380D02*
X21465780Y-5341380D01*
X21465780Y-7666440D02*
X21495780Y-7696440D01*
X21495780Y-7666440D02*
X21465780Y-7696440D01*
X21468320Y-5189460D02*
X21498320Y-5219460D01*
X21498320Y-5189460D02*
X21468320Y-5219460D01*
X21468320Y-5593320D02*
X21498320Y-5623320D01*
X21498320Y-5593320D02*
X21468320Y-5623320D01*
X21478480Y-5054840D02*
X21508480Y-5084840D01*
X21508480Y-5054840D02*
X21478480Y-5084840D01*
X21481020Y-5456160D02*
X21511020Y-5486160D01*
X21511020Y-5456160D02*
X21481020Y-5486160D01*
X21481020Y-7124940D02*
X21511020Y-7154940D01*
X21511020Y-7124940D02*
X21481020Y-7154940D01*
X21481020Y-7224000D02*
X21511020Y-7254000D01*
X21511020Y-7224000D02*
X21481020Y-7254000D01*
X21496260Y-7028420D02*
X21526260Y-7058420D01*
X21526260Y-7028420D02*
X21496260Y-7058420D01*
X21501627Y-6894360D02*
X21531627Y-6924360D01*
X21531627Y-6894360D02*
X21501627Y-6924360D01*
X21506420Y-5379960D02*
X21536420Y-5409960D01*
X21536420Y-5379960D02*
X21506420Y-5409960D01*
X21514040Y-5125960D02*
X21544040Y-5155960D01*
X21544040Y-5125960D02*
X21514040Y-5155960D01*
X21516580Y-5527280D02*
X21546580Y-5557280D01*
X21546580Y-5527280D02*
X21516580Y-5557280D01*
X21521660Y-5242800D02*
X21551660Y-5272800D01*
X21551660Y-5242800D02*
X21521660Y-5272800D01*
X21580080Y-7124940D02*
X21610080Y-7154940D01*
X21610080Y-7124940D02*
X21580080Y-7154940D01*
X21602940Y-8615920D02*
X21632940Y-8645920D01*
X21632940Y-8615920D02*
X21602940Y-8645920D01*
X21602940Y-8730220D02*
X21632940Y-8760220D01*
X21632940Y-8730220D02*
X21602940Y-8760220D01*
X21602940Y-8857220D02*
X21632940Y-8887220D01*
X21632940Y-8857220D02*
X21602940Y-8887220D01*
X21602940Y-8981680D02*
X21632940Y-9011680D01*
X21632940Y-8981680D02*
X21602940Y-9011680D01*
X21628734Y-9238266D02*
X21658734Y-9268266D01*
X21658734Y-9238266D02*
X21628734Y-9268266D01*
X21635960Y-5938760D02*
X21665960Y-5968760D01*
X21665960Y-5938760D02*
X21635960Y-5968760D01*
X21635960Y-7676120D02*
X21665960Y-7706120D01*
X21665960Y-7676120D02*
X21635960Y-7706120D01*
X21648660Y-6599160D02*
X21678660Y-6629160D01*
X21678660Y-6599160D02*
X21648660Y-6629160D01*
X21679140Y-7124940D02*
X21709140Y-7154940D01*
X21709140Y-7124940D02*
X21679140Y-7154940D01*
X21699460Y-8417800D02*
X21729460Y-8447800D01*
X21729460Y-8417800D02*
X21699460Y-8447800D01*
X21699460Y-8487800D02*
X21729460Y-8517800D01*
X21729460Y-8487800D02*
X21699460Y-8517800D01*
X21717240Y-7823440D02*
X21747240Y-7853440D01*
X21747240Y-7823440D02*
X21717240Y-7853440D01*
X21717240Y-7889480D02*
X21747240Y-7919480D01*
X21747240Y-7889480D02*
X21717240Y-7919480D01*
X21731167Y-6894360D02*
X21761167Y-6924360D01*
X21761167Y-6894360D02*
X21731167Y-6924360D01*
X21742640Y-7353540D02*
X21772640Y-7383540D01*
X21772640Y-7353540D02*
X21742640Y-7383540D01*
X21778200Y-7124940D02*
X21808200Y-7154940D01*
X21808200Y-7124940D02*
X21778200Y-7154940D01*
X21778200Y-7224000D02*
X21808200Y-7254000D01*
X21808200Y-7224000D02*
X21778200Y-7254000D01*
X21798520Y-7620240D02*
X21828520Y-7650240D01*
X21828520Y-7620240D02*
X21798520Y-7650240D01*
X21806140Y-8897860D02*
X21836140Y-8927860D01*
X21836140Y-8897860D02*
X21806140Y-8927860D01*
X21806140Y-8966440D02*
X21836140Y-8996440D01*
X21836140Y-8966440D02*
X21806140Y-8996440D01*
X21841700Y-7036040D02*
X21871700Y-7066040D01*
X21871700Y-7036040D02*
X21841700Y-7066040D01*
X21877260Y-6601700D02*
X21907260Y-6631700D01*
X21907260Y-6601700D02*
X21877260Y-6631700D01*
X21887420Y-7940280D02*
X21917420Y-7970280D01*
X21917420Y-7940280D02*
X21887420Y-7970280D01*
X21928060Y-6390880D02*
X21958060Y-6420880D01*
X21958060Y-6390880D02*
X21928060Y-6420880D01*
X21968700Y-5626340D02*
X21998700Y-5656340D01*
X21998700Y-5626340D02*
X21968700Y-5656340D01*
X21994100Y-6581380D02*
X22024100Y-6611380D01*
X22024100Y-6581380D02*
X21994100Y-6611380D01*
X22118560Y-6083540D02*
X22148560Y-6113540D01*
X22148560Y-6083540D02*
X22118560Y-6113540D01*
X22121100Y-5954000D02*
X22151100Y-5984000D01*
X22151100Y-5954000D02*
X22121100Y-5984000D01*
X22121100Y-6581380D02*
X22151100Y-6611380D01*
X22151100Y-6581380D02*
X22121100Y-6611380D01*
X22248100Y-5999720D02*
X22278100Y-6029720D01*
X22278100Y-5999720D02*
X22248100Y-6029720D01*
X22268420Y-7472920D02*
X22298420Y-7502920D01*
X22298420Y-7472920D02*
X22268420Y-7502920D01*
X22268420Y-7640560D02*
X22298420Y-7670560D01*
X22298420Y-7640560D02*
X22268420Y-7670560D01*
X22286200Y-7310360D02*
X22316200Y-7340360D01*
X22316200Y-7310360D02*
X22286200Y-7340360D01*
X22362400Y-7810740D02*
X22392400Y-7840740D01*
X22392400Y-7810740D02*
X22362400Y-7840740D01*
X22390340Y-9736060D02*
X22420340Y-9766060D01*
X22420340Y-9736060D02*
X22390340Y-9766060D01*
X22415740Y-6695680D02*
X22445740Y-6725680D01*
X22445740Y-6695680D02*
X22415740Y-6725680D01*
X22471620Y-9487140D02*
X22501620Y-9517140D01*
X22501620Y-9487140D02*
X22471620Y-9517140D01*
X22497020Y-4836400D02*
X22527020Y-4866400D01*
X22527020Y-4836400D02*
X22497020Y-4866400D01*
X22532580Y-5344400D02*
X22562580Y-5374400D01*
X22562580Y-5344400D02*
X22532580Y-5374400D01*
X22532580Y-9304260D02*
X22562580Y-9334260D01*
X22562580Y-9304260D02*
X22532580Y-9334260D01*
X22555440Y-5560300D02*
X22585440Y-5590300D01*
X22585440Y-5560300D02*
X22555440Y-5590300D01*
X22613860Y-5969240D02*
X22643860Y-5999240D01*
X22643860Y-5969240D02*
X22613860Y-5999240D01*
X22639260Y-5672060D02*
X22669260Y-5702060D01*
X22669260Y-5672060D02*
X22639260Y-5702060D01*
X22677360Y-9487140D02*
X22707360Y-9517140D01*
X22707360Y-9487140D02*
X22677360Y-9517140D01*
X22690060Y-9728440D02*
X22720060Y-9758440D01*
X22720060Y-9728440D02*
X22690060Y-9758440D01*
X22776420Y-9035020D02*
X22806420Y-9065020D01*
X22806420Y-9035020D02*
X22776420Y-9065020D01*
X22913580Y-6169900D02*
X22943580Y-6199900D01*
X22943580Y-6169900D02*
X22913580Y-6199900D01*
X22926280Y-5565380D02*
X22956280Y-5595380D01*
X22956280Y-5565380D02*
X22926280Y-5595380D01*
X23068520Y-6152120D02*
X23098520Y-6182120D01*
X23098520Y-6152120D02*
X23068520Y-6182120D01*
X20105000Y-5080000D02*
G75*
G02*
X20055000Y-5080000I-25000J0D01*
G01*
X20055000Y-5080000D02*
G75*
G02*
X20105000Y-5080000I25000J0D01*
G01*
X20105000Y-10160000D02*
G75*
G02*
X20055000Y-10160000I-25000J0D01*
G01*
X20055000Y-10160000D02*
G75*
G02*
X20105000Y-10160000I25000J0D01*
G01*
X20175294Y-4910294D02*
G75*
G02*
X20125294Y-4910294I-25000J0D01*
G01*
X20125294Y-4910294D02*
G75*
G02*
X20175294Y-4910294I25000J0D01*
G01*
X20175294Y-5249706D02*
G75*
G02*
X20125294Y-5249706I-25000J0D01*
G01*
X20125294Y-5249706D02*
G75*
G02*
X20175294Y-5249706I25000J0D01*
G01*
X20175294Y-9990294D02*
G75*
G02*
X20125294Y-9990294I-25000J0D01*
G01*
X20125294Y-9990294D02*
G75*
G02*
X20175294Y-9990294I25000J0D01*
G01*
X20175294Y-10329706D02*
G75*
G02*
X20125294Y-10329706I-25000J0D01*
G01*
X20125294Y-10329706D02*
G75*
G02*
X20175294Y-10329706I25000J0D01*
G01*
X20345000Y-4840000D02*
G75*
G02*
X20295000Y-4840000I-25000J0D01*
G01*
X20295000Y-4840000D02*
G75*
G02*
X20345000Y-4840000I25000J0D01*
G01*
X20345000Y-5320000D02*
G75*
G02*
X20295000Y-5320000I-25000J0D01*
G01*
X20295000Y-5320000D02*
G75*
G02*
X20345000Y-5320000I25000J0D01*
G01*
X20345000Y-9920000D02*
G75*
G02*
X20295000Y-9920000I-25000J0D01*
G01*
X20295000Y-9920000D02*
G75*
G02*
X20345000Y-9920000I25000J0D01*
G01*
X20345000Y-10400000D02*
G75*
G02*
X20295000Y-10400000I-25000J0D01*
G01*
X20295000Y-10400000D02*
G75*
G02*
X20345000Y-10400000I25000J0D01*
G01*
X20514706Y-4910294D02*
G75*
G02*
X20464706Y-4910294I-25000J0D01*
G01*
X20464706Y-4910294D02*
G75*
G02*
X20514706Y-4910294I25000J0D01*
G01*
X20514706Y-5249706D02*
G75*
G02*
X20464706Y-5249706I-25000J0D01*
G01*
X20464706Y-5249706D02*
G75*
G02*
X20514706Y-5249706I25000J0D01*
G01*
X20514706Y-9990294D02*
G75*
G02*
X20464706Y-9990294I-25000J0D01*
G01*
X20464706Y-9990294D02*
G75*
G02*
X20514706Y-9990294I25000J0D01*
G01*
X20514706Y-10329706D02*
G75*
G02*
X20464706Y-10329706I-25000J0D01*
G01*
X20464706Y-10329706D02*
G75*
G02*
X20514706Y-10329706I25000J0D01*
G01*
X20585000Y-5080000D02*
G75*
G02*
X20535000Y-5080000I-25000J0D01*
G01*
X20535000Y-5080000D02*
G75*
G02*
X20585000Y-5080000I25000J0D01*
G01*
X20585000Y-10160000D02*
G75*
G02*
X20535000Y-10160000I-25000J0D01*
G01*
X20535000Y-10160000D02*
G75*
G02*
X20585000Y-10160000I25000J0D01*
G01*
X22639920Y-5080000D02*
G75*
G02*
X22589920Y-5080000I-25000J0D01*
G01*
X22589920Y-5080000D02*
G75*
G02*
X22639920Y-5080000I25000J0D01*
G01*
X22645000Y-10160000D02*
G75*
G02*
X22595000Y-10160000I-25000J0D01*
G01*
X22595000Y-10160000D02*
G75*
G02*
X22645000Y-10160000I25000J0D01*
G01*
X22710214Y-4910294D02*
G75*
G02*
X22660214Y-4910294I-25000J0D01*
G01*
X22660214Y-4910294D02*
G75*
G02*
X22710214Y-4910294I25000J0D01*
G01*
X22710214Y-5249706D02*
G75*
G02*
X22660214Y-5249706I-25000J0D01*
G01*
X22660214Y-5249706D02*
G75*
G02*
X22710214Y-5249706I25000J0D01*
G01*
X22715294Y-9990294D02*
G75*
G02*
X22665294Y-9990294I-25000J0D01*
G01*
X22665294Y-9990294D02*
G75*
G02*
X22715294Y-9990294I25000J0D01*
G01*
X22715294Y-10329706D02*
G75*
G02*
X22665294Y-10329706I-25000J0D01*
G01*
X22665294Y-10329706D02*
G75*
G02*
X22715294Y-10329706I25000J0D01*
G01*
X22879920Y-4840000D02*
G75*
G02*
X22829920Y-4840000I-25000J0D01*
G01*
X22829920Y-4840000D02*
G75*
G02*
X22879920Y-4840000I25000J0D01*
G01*
X22879920Y-5320000D02*
G75*
G02*
X22829920Y-5320000I-25000J0D01*
G01*
X22829920Y-5320000D02*
G75*
G02*
X22879920Y-5320000I25000J0D01*
G01*
X22885000Y-9920000D02*
G75*
G02*
X22835000Y-9920000I-25000J0D01*
G01*
X22835000Y-9920000D02*
G75*
G02*
X22885000Y-9920000I25000J0D01*
G01*
X22885000Y-10400000D02*
G75*
G02*
X22835000Y-10400000I-25000J0D01*
G01*
X22835000Y-10400000D02*
G75*
G02*
X22885000Y-10400000I25000J0D01*
G01*
X23049626Y-4910294D02*
G75*
G02*
X22999626Y-4910294I-25000J0D01*
G01*
X22999626Y-4910294D02*
G75*
G02*
X23049626Y-4910294I25000J0D01*
G01*
X23049626Y-5249706D02*
G75*
G02*
X22999626Y-5249706I-25000J0D01*
G01*
X22999626Y-5249706D02*
G75*
G02*
X23049626Y-5249706I25000J0D01*
G01*
X23054706Y-9990294D02*
G75*
G02*
X23004706Y-9990294I-25000J0D01*
G01*
X23004706Y-9990294D02*
G75*
G02*
X23054706Y-9990294I25000J0D01*
G01*
X23054706Y-10329706D02*
G75*
G02*
X23004706Y-10329706I-25000J0D01*
G01*
X23004706Y-10329706D02*
G75*
G02*
X23054706Y-10329706I25000J0D01*
G01*
X23119920Y-5080000D02*
G75*
G02*
X23069920Y-5080000I-25000J0D01*
G01*
X23069920Y-5080000D02*
G75*
G02*
X23119920Y-5080000I25000J0D01*
G01*
X23125000Y-10160000D02*
G75*
G02*
X23075000Y-10160000I-25000J0D01*
G01*
X23075000Y-10160000D02*
G75*
G02*
X23125000Y-10160000I25000J0D01*
G01*
X22619220Y-8178760D02*
X22619220Y-8238760D01*
X22589220Y-8208760D02*
X22649220Y-8208760D01*
X22619220Y-8303760D02*
X22619220Y-8363760D01*
X22589220Y-8333760D02*
X22649220Y-8333760D01*
X22744220Y-8178760D02*
X22744220Y-8238760D01*
X22714220Y-8208760D02*
X22774220Y-8208760D01*
X22744220Y-8303760D02*
X22744220Y-8363760D01*
X22714220Y-8333760D02*
X22774220Y-8333760D01*
D13*
X22712486Y-6865026D02*
X22712486Y-6762494D01*
X22609954Y-6762494D01*
X22609954Y-6865026D01*
X22712486Y-6865026D01*
X22712486Y-7615026D02*
X22712486Y-7512494D01*
X22609954Y-7512494D01*
X22609954Y-7615026D01*
X22712486Y-7615026D01*
X22712486Y-7240026D02*
X22712486Y-7137494D01*
X22609954Y-7137494D01*
X22609954Y-7240026D01*
X22712486Y-7240026D01*
X22712486Y-7990026D02*
X22712486Y-7887494D01*
X22609954Y-7887494D01*
X22609954Y-7990026D01*
X22712486Y-7990026D01*
D14*
X21164550Y-10310230D02*
X21255990Y-10218790D01*
X21164550Y-10127350D01*
X21073110Y-10218790D01*
X21164550Y-10310230D01*
X21990050Y-10310230D02*
X22081490Y-10218790D01*
X21990050Y-10127350D01*
X21898610Y-10218790D01*
X21990050Y-10310230D01*
D15*
X20160000Y-4920000D02*
X20480000Y-5240000D01*
X20480000Y-4920000D02*
X20160000Y-5240000D01*
X20480000Y-5080000D02*
G75*
G02*
X20160000Y-5080000I-160000J0D01*
G01*
X20160000Y-5080000D02*
G75*
G02*
X20480000Y-5080000I160000J0D01*
G01*
X20160000Y-10000000D02*
X20480000Y-10320000D01*
X20480000Y-10000000D02*
X20160000Y-10320000D01*
X20480000Y-10160000D02*
G75*
G02*
X20160000Y-10160000I-160000J0D01*
G01*
X20160000Y-10160000D02*
G75*
G02*
X20480000Y-10160000I160000J0D01*
G01*
X22694920Y-4920000D02*
X23014920Y-5240000D01*
X23014920Y-4920000D02*
X22694920Y-5240000D01*
X23014920Y-5080000D02*
G75*
G02*
X22694920Y-5080000I-160000J0D01*
G01*
X22694920Y-5080000D02*
G75*
G02*
X23014920Y-5080000I160000J0D01*
G01*
X22700000Y-10000000D02*
X23020000Y-10320000D01*
X23020000Y-10000000D02*
X22700000Y-10320000D01*
X23020000Y-10160000D02*
G75*
G02*
X22700000Y-10160000I-160000J0D01*
G01*
X22700000Y-10160000D02*
G75*
G02*
X23020000Y-10160000I160000J0D01*
G01*
D11*
X20199817Y-10852444D02*
X20199817Y-10652444D01*
X20199817Y-10652444D02*
X20247436Y-10652444D01*
X20247436Y-10652444D02*
X20276007Y-10661968D01*
X20276007Y-10661968D02*
X20295055Y-10681015D01*
X20295055Y-10681015D02*
X20304579Y-10700063D01*
X20304579Y-10700063D02*
X20314103Y-10738158D01*
X20314103Y-10738158D02*
X20314103Y-10766730D01*
X20314103Y-10766730D02*
X20304579Y-10804825D01*
X20304579Y-10804825D02*
X20295055Y-10823872D01*
X20295055Y-10823872D02*
X20276007Y-10842920D01*
X20276007Y-10842920D02*
X20247436Y-10852444D01*
X20247436Y-10852444D02*
X20199817Y-10852444D01*
X20399817Y-10852444D02*
X20399817Y-10719110D01*
X20399817Y-10757206D02*
X20409341Y-10738158D01*
X20409341Y-10738158D02*
X20418864Y-10728634D01*
X20418864Y-10728634D02*
X20437912Y-10719110D01*
X20437912Y-10719110D02*
X20456960Y-10719110D01*
X20523626Y-10852444D02*
X20523626Y-10719110D01*
X20523626Y-10652444D02*
X20514103Y-10661968D01*
X20514103Y-10661968D02*
X20523626Y-10671491D01*
X20523626Y-10671491D02*
X20533150Y-10661968D01*
X20533150Y-10661968D02*
X20523626Y-10652444D01*
X20523626Y-10652444D02*
X20523626Y-10671491D01*
X20647436Y-10852444D02*
X20628388Y-10842920D01*
X20628388Y-10842920D02*
X20618864Y-10823872D01*
X20618864Y-10823872D02*
X20618864Y-10652444D01*
X20752198Y-10852444D02*
X20733150Y-10842920D01*
X20733150Y-10842920D02*
X20723626Y-10823872D01*
X20723626Y-10823872D02*
X20723626Y-10652444D01*
X20980769Y-10852444D02*
X20980769Y-10652444D01*
X20980769Y-10652444D02*
X21047436Y-10795301D01*
X21047436Y-10795301D02*
X21114103Y-10652444D01*
X21114103Y-10652444D02*
X21114103Y-10852444D01*
X21295055Y-10852444D02*
X21295055Y-10747682D01*
X21295055Y-10747682D02*
X21285531Y-10728634D01*
X21285531Y-10728634D02*
X21266484Y-10719110D01*
X21266484Y-10719110D02*
X21228388Y-10719110D01*
X21228388Y-10719110D02*
X21209341Y-10728634D01*
X21295055Y-10842920D02*
X21276007Y-10852444D01*
X21276007Y-10852444D02*
X21228388Y-10852444D01*
X21228388Y-10852444D02*
X21209341Y-10842920D01*
X21209341Y-10842920D02*
X21199817Y-10823872D01*
X21199817Y-10823872D02*
X21199817Y-10804825D01*
X21199817Y-10804825D02*
X21209341Y-10785777D01*
X21209341Y-10785777D02*
X21228388Y-10776253D01*
X21228388Y-10776253D02*
X21276007Y-10776253D01*
X21276007Y-10776253D02*
X21295055Y-10766730D01*
X21390293Y-10719110D02*
X21390293Y-10919110D01*
X21390293Y-10728634D02*
X21409341Y-10719110D01*
X21409341Y-10719110D02*
X21447436Y-10719110D01*
X21447436Y-10719110D02*
X21466484Y-10728634D01*
X21466484Y-10728634D02*
X21476007Y-10738158D01*
X21476007Y-10738158D02*
X21485531Y-10757206D01*
X21485531Y-10757206D02*
X21485531Y-10814349D01*
X21485531Y-10814349D02*
X21476007Y-10833396D01*
X21476007Y-10833396D02*
X21466484Y-10842920D01*
X21466484Y-10842920D02*
X21447436Y-10852444D01*
X21447436Y-10852444D02*
X21409341Y-10852444D01*
X21409341Y-10852444D02*
X21390293Y-10842920D01*
X21571245Y-10833396D02*
X21580769Y-10842920D01*
X21580769Y-10842920D02*
X21571245Y-10852444D01*
X21571245Y-10852444D02*
X21561722Y-10842920D01*
X21561722Y-10842920D02*
X21571245Y-10833396D01*
X21571245Y-10833396D02*
X21571245Y-10852444D01*
X21571245Y-10728634D02*
X21580769Y-10738158D01*
X21580769Y-10738158D02*
X21571245Y-10747682D01*
X21571245Y-10747682D02*
X21561722Y-10738158D01*
X21561722Y-10738158D02*
X21571245Y-10728634D01*
X21571245Y-10728634D02*
X21571245Y-10747682D01*
D12*
X19909040Y-11165960D02*
X19939040Y-11195960D01*
X19939040Y-11165960D02*
X19909040Y-11195960D01*
D11*
X20237912Y-11072444D02*
X20256960Y-11072444D01*
X20256960Y-11072444D02*
X20276007Y-11081968D01*
X20276007Y-11081968D02*
X20285531Y-11091491D01*
X20285531Y-11091491D02*
X20295055Y-11110539D01*
X20295055Y-11110539D02*
X20304579Y-11148634D01*
X20304579Y-11148634D02*
X20304579Y-11196253D01*
X20304579Y-11196253D02*
X20295055Y-11234348D01*
X20295055Y-11234348D02*
X20285531Y-11253396D01*
X20285531Y-11253396D02*
X20276007Y-11262920D01*
X20276007Y-11262920D02*
X20256960Y-11272444D01*
X20256960Y-11272444D02*
X20237912Y-11272444D01*
X20237912Y-11272444D02*
X20218864Y-11262920D01*
X20218864Y-11262920D02*
X20209341Y-11253396D01*
X20209341Y-11253396D02*
X20199817Y-11234348D01*
X20199817Y-11234348D02*
X20190293Y-11196253D01*
X20190293Y-11196253D02*
X20190293Y-11148634D01*
X20190293Y-11148634D02*
X20199817Y-11110539D01*
X20199817Y-11110539D02*
X20209341Y-11091491D01*
X20209341Y-11091491D02*
X20218864Y-11081968D01*
X20218864Y-11081968D02*
X20237912Y-11072444D01*
X20390293Y-11253396D02*
X20399817Y-11262920D01*
X20399817Y-11262920D02*
X20390293Y-11272444D01*
X20390293Y-11272444D02*
X20380769Y-11262920D01*
X20380769Y-11262920D02*
X20390293Y-11253396D01*
X20390293Y-11253396D02*
X20390293Y-11272444D01*
X20466484Y-11072444D02*
X20590293Y-11072444D01*
X20590293Y-11072444D02*
X20523626Y-11148634D01*
X20523626Y-11148634D02*
X20552198Y-11148634D01*
X20552198Y-11148634D02*
X20571245Y-11158158D01*
X20571245Y-11158158D02*
X20580769Y-11167682D01*
X20580769Y-11167682D02*
X20590293Y-11186729D01*
X20590293Y-11186729D02*
X20590293Y-11234348D01*
X20590293Y-11234348D02*
X20580769Y-11253396D01*
X20580769Y-11253396D02*
X20571245Y-11262920D01*
X20571245Y-11262920D02*
X20552198Y-11272444D01*
X20552198Y-11272444D02*
X20495055Y-11272444D01*
X20495055Y-11272444D02*
X20476007Y-11262920D01*
X20476007Y-11262920D02*
X20466484Y-11253396D01*
X20714103Y-11072444D02*
X20733150Y-11072444D01*
X20733150Y-11072444D02*
X20752198Y-11081968D01*
X20752198Y-11081968D02*
X20761722Y-11091491D01*
X20761722Y-11091491D02*
X20771245Y-11110539D01*
X20771245Y-11110539D02*
X20780769Y-11148634D01*
X20780769Y-11148634D02*
X20780769Y-11196253D01*
X20780769Y-11196253D02*
X20771245Y-11234348D01*
X20771245Y-11234348D02*
X20761722Y-11253396D01*
X20761722Y-11253396D02*
X20752198Y-11262920D01*
X20752198Y-11262920D02*
X20733150Y-11272444D01*
X20733150Y-11272444D02*
X20714103Y-11272444D01*
X20714103Y-11272444D02*
X20695055Y-11262920D01*
X20695055Y-11262920D02*
X20685531Y-11253396D01*
X20685531Y-11253396D02*
X20676007Y-11234348D01*
X20676007Y-11234348D02*
X20666484Y-11196253D01*
X20666484Y-11196253D02*
X20666484Y-11148634D01*
X20666484Y-11148634D02*
X20676007Y-11110539D01*
X20676007Y-11110539D02*
X20685531Y-11091491D01*
X20685531Y-11091491D02*
X20695055Y-11081968D01*
X20695055Y-11081968D02*
X20714103Y-11072444D01*
X20904579Y-11072444D02*
X20923626Y-11072444D01*
X20923626Y-11072444D02*
X20942674Y-11081968D01*
X20942674Y-11081968D02*
X20952198Y-11091491D01*
X20952198Y-11091491D02*
X20961722Y-11110539D01*
X20961722Y-11110539D02*
X20971245Y-11148634D01*
X20971245Y-11148634D02*
X20971245Y-11196253D01*
X20971245Y-11196253D02*
X20961722Y-11234348D01*
X20961722Y-11234348D02*
X20952198Y-11253396D01*
X20952198Y-11253396D02*
X20942674Y-11262920D01*
X20942674Y-11262920D02*
X20923626Y-11272444D01*
X20923626Y-11272444D02*
X20904579Y-11272444D01*
X20904579Y-11272444D02*
X20885531Y-11262920D01*
X20885531Y-11262920D02*
X20876007Y-11253396D01*
X20876007Y-11253396D02*
X20866484Y-11234348D01*
X20866484Y-11234348D02*
X20856960Y-11196253D01*
X20856960Y-11196253D02*
X20856960Y-11148634D01*
X20856960Y-11148634D02*
X20866484Y-11110539D01*
X20866484Y-11110539D02*
X20876007Y-11091491D01*
X20876007Y-11091491D02*
X20885531Y-11081968D01*
X20885531Y-11081968D02*
X20904579Y-11072444D01*
X21056960Y-11272444D02*
X21056960Y-11139110D01*
X21056960Y-11158158D02*
X21066484Y-11148634D01*
X21066484Y-11148634D02*
X21085531Y-11139110D01*
X21085531Y-11139110D02*
X21114103Y-11139110D01*
X21114103Y-11139110D02*
X21133150Y-11148634D01*
X21133150Y-11148634D02*
X21142674Y-11167682D01*
X21142674Y-11167682D02*
X21142674Y-11272444D01*
X21142674Y-11167682D02*
X21152198Y-11148634D01*
X21152198Y-11148634D02*
X21171245Y-11139110D01*
X21171245Y-11139110D02*
X21199817Y-11139110D01*
X21199817Y-11139110D02*
X21218865Y-11148634D01*
X21218865Y-11148634D02*
X21228388Y-11167682D01*
X21228388Y-11167682D02*
X21228388Y-11272444D01*
X21323626Y-11272444D02*
X21323626Y-11139110D01*
X21323626Y-11158158D02*
X21333150Y-11148634D01*
X21333150Y-11148634D02*
X21352198Y-11139110D01*
X21352198Y-11139110D02*
X21380769Y-11139110D01*
X21380769Y-11139110D02*
X21399817Y-11148634D01*
X21399817Y-11148634D02*
X21409341Y-11167682D01*
X21409341Y-11167682D02*
X21409341Y-11272444D01*
X21409341Y-11167682D02*
X21418865Y-11148634D01*
X21418865Y-11148634D02*
X21437912Y-11139110D01*
X21437912Y-11139110D02*
X21466484Y-11139110D01*
X21466484Y-11139110D02*
X21485531Y-11148634D01*
X21485531Y-11148634D02*
X21495055Y-11167682D01*
X21495055Y-11167682D02*
X21495055Y-11272444D01*
X21885531Y-11062920D02*
X21714103Y-11320063D01*
X22142674Y-11072444D02*
X22161722Y-11072444D01*
X22161722Y-11072444D02*
X22180769Y-11081968D01*
X22180769Y-11081968D02*
X22190293Y-11091491D01*
X22190293Y-11091491D02*
X22199817Y-11110539D01*
X22199817Y-11110539D02*
X22209341Y-11148634D01*
X22209341Y-11148634D02*
X22209341Y-11196253D01*
X22209341Y-11196253D02*
X22199817Y-11234348D01*
X22199817Y-11234348D02*
X22190293Y-11253396D01*
X22190293Y-11253396D02*
X22180769Y-11262920D01*
X22180769Y-11262920D02*
X22161722Y-11272444D01*
X22161722Y-11272444D02*
X22142674Y-11272444D01*
X22142674Y-11272444D02*
X22123627Y-11262920D01*
X22123627Y-11262920D02*
X22114103Y-11253396D01*
X22114103Y-11253396D02*
X22104579Y-11234348D01*
X22104579Y-11234348D02*
X22095055Y-11196253D01*
X22095055Y-11196253D02*
X22095055Y-11148634D01*
X22095055Y-11148634D02*
X22104579Y-11110539D01*
X22104579Y-11110539D02*
X22114103Y-11091491D01*
X22114103Y-11091491D02*
X22123627Y-11081968D01*
X22123627Y-11081968D02*
X22142674Y-11072444D01*
X22295055Y-11253396D02*
X22304579Y-11262920D01*
X22304579Y-11262920D02*
X22295055Y-11272444D01*
X22295055Y-11272444D02*
X22285531Y-11262920D01*
X22285531Y-11262920D02*
X22295055Y-11253396D01*
X22295055Y-11253396D02*
X22295055Y-11272444D01*
X22428388Y-11072444D02*
X22447436Y-11072444D01*
X22447436Y-11072444D02*
X22466484Y-11081968D01*
X22466484Y-11081968D02*
X22476007Y-11091491D01*
X22476007Y-11091491D02*
X22485531Y-11110539D01*
X22485531Y-11110539D02*
X22495055Y-11148634D01*
X22495055Y-11148634D02*
X22495055Y-11196253D01*
X22495055Y-11196253D02*
X22485531Y-11234348D01*
X22485531Y-11234348D02*
X22476007Y-11253396D01*
X22476007Y-11253396D02*
X22466484Y-11262920D01*
X22466484Y-11262920D02*
X22447436Y-11272444D01*
X22447436Y-11272444D02*
X22428388Y-11272444D01*
X22428388Y-11272444D02*
X22409341Y-11262920D01*
X22409341Y-11262920D02*
X22399817Y-11253396D01*
X22399817Y-11253396D02*
X22390293Y-11234348D01*
X22390293Y-11234348D02*
X22380769Y-11196253D01*
X22380769Y-11196253D02*
X22380769Y-11148634D01*
X22380769Y-11148634D02*
X22390293Y-11110539D01*
X22390293Y-11110539D02*
X22399817Y-11091491D01*
X22399817Y-11091491D02*
X22409341Y-11081968D01*
X22409341Y-11081968D02*
X22428388Y-11072444D01*
X22685531Y-11272444D02*
X22571246Y-11272444D01*
X22628388Y-11272444D02*
X22628388Y-11072444D01*
X22628388Y-11072444D02*
X22609341Y-11101015D01*
X22609341Y-11101015D02*
X22590293Y-11120063D01*
X22590293Y-11120063D02*
X22571246Y-11129587D01*
X22876007Y-11272444D02*
X22761722Y-11272444D01*
X22818865Y-11272444D02*
X22818865Y-11072444D01*
X22818865Y-11072444D02*
X22799817Y-11101015D01*
X22799817Y-11101015D02*
X22780769Y-11120063D01*
X22780769Y-11120063D02*
X22761722Y-11129587D01*
X22990293Y-11158158D02*
X22971246Y-11148634D01*
X22971246Y-11148634D02*
X22961722Y-11139110D01*
X22961722Y-11139110D02*
X22952198Y-11120063D01*
X22952198Y-11120063D02*
X22952198Y-11110539D01*
X22952198Y-11110539D02*
X22961722Y-11091491D01*
X22961722Y-11091491D02*
X22971246Y-11081968D01*
X22971246Y-11081968D02*
X22990293Y-11072444D01*
X22990293Y-11072444D02*
X23028388Y-11072444D01*
X23028388Y-11072444D02*
X23047436Y-11081968D01*
X23047436Y-11081968D02*
X23056960Y-11091491D01*
X23056960Y-11091491D02*
X23066484Y-11110539D01*
X23066484Y-11110539D02*
X23066484Y-11120063D01*
X23066484Y-11120063D02*
X23056960Y-11139110D01*
X23056960Y-11139110D02*
X23047436Y-11148634D01*
X23047436Y-11148634D02*
X23028388Y-11158158D01*
X23028388Y-11158158D02*
X22990293Y-11158158D01*
X22990293Y-11158158D02*
X22971246Y-11167682D01*
X22971246Y-11167682D02*
X22961722Y-11177206D01*
X22961722Y-11177206D02*
X22952198Y-11196253D01*
X22952198Y-11196253D02*
X22952198Y-11234348D01*
X22952198Y-11234348D02*
X22961722Y-11253396D01*
X22961722Y-11253396D02*
X22971246Y-11262920D01*
X22971246Y-11262920D02*
X22990293Y-11272444D01*
X22990293Y-11272444D02*
X23028388Y-11272444D01*
X23028388Y-11272444D02*
X23047436Y-11262920D01*
X23047436Y-11262920D02*
X23056960Y-11253396D01*
X23056960Y-11253396D02*
X23066484Y-11234348D01*
X23066484Y-11234348D02*
X23066484Y-11196253D01*
X23066484Y-11196253D02*
X23056960Y-11177206D01*
X23056960Y-11177206D02*
X23047436Y-11167682D01*
X23047436Y-11167682D02*
X23028388Y-11158158D01*
X23142674Y-11072444D02*
X23142674Y-11110539D01*
X23218865Y-11072444D02*
X23218865Y-11110539D01*
X23514103Y-11348634D02*
X23504579Y-11339110D01*
X23504579Y-11339110D02*
X23485531Y-11310539D01*
X23485531Y-11310539D02*
X23476008Y-11291491D01*
X23476008Y-11291491D02*
X23466484Y-11262920D01*
X23466484Y-11262920D02*
X23456960Y-11215301D01*
X23456960Y-11215301D02*
X23456960Y-11177206D01*
X23456960Y-11177206D02*
X23466484Y-11129587D01*
X23466484Y-11129587D02*
X23476008Y-11101015D01*
X23476008Y-11101015D02*
X23485531Y-11081968D01*
X23485531Y-11081968D02*
X23504579Y-11053396D01*
X23504579Y-11053396D02*
X23514103Y-11043872D01*
X23695055Y-11272444D02*
X23580769Y-11272444D01*
X23637912Y-11272444D02*
X23637912Y-11072444D01*
X23637912Y-11072444D02*
X23618865Y-11101015D01*
X23618865Y-11101015D02*
X23599817Y-11120063D01*
X23599817Y-11120063D02*
X23580769Y-11129587D01*
X23761722Y-11072444D02*
X23885531Y-11072444D01*
X23885531Y-11072444D02*
X23818865Y-11148634D01*
X23818865Y-11148634D02*
X23847436Y-11148634D01*
X23847436Y-11148634D02*
X23866484Y-11158158D01*
X23866484Y-11158158D02*
X23876008Y-11167682D01*
X23876008Y-11167682D02*
X23885531Y-11186729D01*
X23885531Y-11186729D02*
X23885531Y-11234348D01*
X23885531Y-11234348D02*
X23876008Y-11253396D01*
X23876008Y-11253396D02*
X23866484Y-11262920D01*
X23866484Y-11262920D02*
X23847436Y-11272444D01*
X23847436Y-11272444D02*
X23790293Y-11272444D01*
X23790293Y-11272444D02*
X23771246Y-11262920D01*
X23771246Y-11262920D02*
X23761722Y-11253396D01*
X24056960Y-11072444D02*
X24018865Y-11072444D01*
X24018865Y-11072444D02*
X23999817Y-11081968D01*
X23999817Y-11081968D02*
X23990293Y-11091491D01*
X23990293Y-11091491D02*
X23971246Y-11120063D01*
X23971246Y-11120063D02*
X23961722Y-11158158D01*
X23961722Y-11158158D02*
X23961722Y-11234348D01*
X23961722Y-11234348D02*
X23971246Y-11253396D01*
X23971246Y-11253396D02*
X23980769Y-11262920D01*
X23980769Y-11262920D02*
X23999817Y-11272444D01*
X23999817Y-11272444D02*
X24037912Y-11272444D01*
X24037912Y-11272444D02*
X24056960Y-11262920D01*
X24056960Y-11262920D02*
X24066484Y-11253396D01*
X24066484Y-11253396D02*
X24076008Y-11234348D01*
X24076008Y-11234348D02*
X24076008Y-11186729D01*
X24076008Y-11186729D02*
X24066484Y-11167682D01*
X24066484Y-11167682D02*
X24056960Y-11158158D01*
X24056960Y-11158158D02*
X24037912Y-11148634D01*
X24037912Y-11148634D02*
X23999817Y-11148634D01*
X23999817Y-11148634D02*
X23980769Y-11158158D01*
X23980769Y-11158158D02*
X23971246Y-11167682D01*
X23971246Y-11167682D02*
X23961722Y-11186729D01*
X24314103Y-11272444D02*
X24314103Y-11072444D01*
X24399817Y-11272444D02*
X24399817Y-11167682D01*
X24399817Y-11167682D02*
X24390293Y-11148634D01*
X24390293Y-11148634D02*
X24371246Y-11139110D01*
X24371246Y-11139110D02*
X24342674Y-11139110D01*
X24342674Y-11139110D02*
X24323627Y-11148634D01*
X24323627Y-11148634D02*
X24314103Y-11158158D01*
X24523627Y-11272444D02*
X24504579Y-11262920D01*
X24504579Y-11262920D02*
X24495055Y-11253396D01*
X24495055Y-11253396D02*
X24485531Y-11234348D01*
X24485531Y-11234348D02*
X24485531Y-11177206D01*
X24485531Y-11177206D02*
X24495055Y-11158158D01*
X24495055Y-11158158D02*
X24504579Y-11148634D01*
X24504579Y-11148634D02*
X24523627Y-11139110D01*
X24523627Y-11139110D02*
X24552198Y-11139110D01*
X24552198Y-11139110D02*
X24571246Y-11148634D01*
X24571246Y-11148634D02*
X24580770Y-11158158D01*
X24580770Y-11158158D02*
X24590293Y-11177206D01*
X24590293Y-11177206D02*
X24590293Y-11234348D01*
X24590293Y-11234348D02*
X24580770Y-11253396D01*
X24580770Y-11253396D02*
X24571246Y-11262920D01*
X24571246Y-11262920D02*
X24552198Y-11272444D01*
X24552198Y-11272444D02*
X24523627Y-11272444D01*
X24704579Y-11272444D02*
X24685531Y-11262920D01*
X24685531Y-11262920D02*
X24676008Y-11243872D01*
X24676008Y-11243872D02*
X24676008Y-11072444D01*
X24856960Y-11262920D02*
X24837912Y-11272444D01*
X24837912Y-11272444D02*
X24799817Y-11272444D01*
X24799817Y-11272444D02*
X24780770Y-11262920D01*
X24780770Y-11262920D02*
X24771246Y-11243872D01*
X24771246Y-11243872D02*
X24771246Y-11167682D01*
X24771246Y-11167682D02*
X24780770Y-11148634D01*
X24780770Y-11148634D02*
X24799817Y-11139110D01*
X24799817Y-11139110D02*
X24837912Y-11139110D01*
X24837912Y-11139110D02*
X24856960Y-11148634D01*
X24856960Y-11148634D02*
X24866484Y-11167682D01*
X24866484Y-11167682D02*
X24866484Y-11186729D01*
X24866484Y-11186729D02*
X24771246Y-11205777D01*
X24942674Y-11262920D02*
X24961722Y-11272444D01*
X24961722Y-11272444D02*
X24999817Y-11272444D01*
X24999817Y-11272444D02*
X25018865Y-11262920D01*
X25018865Y-11262920D02*
X25028389Y-11243872D01*
X25028389Y-11243872D02*
X25028389Y-11234348D01*
X25028389Y-11234348D02*
X25018865Y-11215301D01*
X25018865Y-11215301D02*
X24999817Y-11205777D01*
X24999817Y-11205777D02*
X24971246Y-11205777D01*
X24971246Y-11205777D02*
X24952198Y-11196253D01*
X24952198Y-11196253D02*
X24942674Y-11177206D01*
X24942674Y-11177206D02*
X24942674Y-11167682D01*
X24942674Y-11167682D02*
X24952198Y-11148634D01*
X24952198Y-11148634D02*
X24971246Y-11139110D01*
X24971246Y-11139110D02*
X24999817Y-11139110D01*
X24999817Y-11139110D02*
X25018865Y-11148634D01*
X25095055Y-11348634D02*
X25104579Y-11339110D01*
X25104579Y-11339110D02*
X25123627Y-11310539D01*
X25123627Y-11310539D02*
X25133151Y-11291491D01*
X25133151Y-11291491D02*
X25142674Y-11262920D01*
X25142674Y-11262920D02*
X25152198Y-11215301D01*
X25152198Y-11215301D02*
X25152198Y-11177206D01*
X25152198Y-11177206D02*
X25142674Y-11129587D01*
X25142674Y-11129587D02*
X25133151Y-11101015D01*
X25133151Y-11101015D02*
X25123627Y-11081968D01*
X25123627Y-11081968D02*
X25104579Y-11053396D01*
X25104579Y-11053396D02*
X25095055Y-11043872D01*
D12*
X19939040Y-11444960D02*
G75*
G02*
X19889040Y-11444960I-25000J0D01*
G01*
X19889040Y-11444960D02*
G75*
G02*
X19939040Y-11444960I25000J0D01*
G01*
D11*
X20237912Y-11336444D02*
X20256960Y-11336444D01*
X20256960Y-11336444D02*
X20276007Y-11345968D01*
X20276007Y-11345968D02*
X20285531Y-11355491D01*
X20285531Y-11355491D02*
X20295055Y-11374539D01*
X20295055Y-11374539D02*
X20304579Y-11412634D01*
X20304579Y-11412634D02*
X20304579Y-11460253D01*
X20304579Y-11460253D02*
X20295055Y-11498348D01*
X20295055Y-11498348D02*
X20285531Y-11517396D01*
X20285531Y-11517396D02*
X20276007Y-11526920D01*
X20276007Y-11526920D02*
X20256960Y-11536444D01*
X20256960Y-11536444D02*
X20237912Y-11536444D01*
X20237912Y-11536444D02*
X20218864Y-11526920D01*
X20218864Y-11526920D02*
X20209341Y-11517396D01*
X20209341Y-11517396D02*
X20199817Y-11498348D01*
X20199817Y-11498348D02*
X20190293Y-11460253D01*
X20190293Y-11460253D02*
X20190293Y-11412634D01*
X20190293Y-11412634D02*
X20199817Y-11374539D01*
X20199817Y-11374539D02*
X20209341Y-11355491D01*
X20209341Y-11355491D02*
X20218864Y-11345968D01*
X20218864Y-11345968D02*
X20237912Y-11336444D01*
X20390293Y-11517396D02*
X20399817Y-11526920D01*
X20399817Y-11526920D02*
X20390293Y-11536444D01*
X20390293Y-11536444D02*
X20380769Y-11526920D01*
X20380769Y-11526920D02*
X20390293Y-11517396D01*
X20390293Y-11517396D02*
X20390293Y-11536444D01*
X20580769Y-11336444D02*
X20485531Y-11336444D01*
X20485531Y-11336444D02*
X20476007Y-11431682D01*
X20476007Y-11431682D02*
X20485531Y-11422158D01*
X20485531Y-11422158D02*
X20504579Y-11412634D01*
X20504579Y-11412634D02*
X20552198Y-11412634D01*
X20552198Y-11412634D02*
X20571245Y-11422158D01*
X20571245Y-11422158D02*
X20580769Y-11431682D01*
X20580769Y-11431682D02*
X20590293Y-11450729D01*
X20590293Y-11450729D02*
X20590293Y-11498348D01*
X20590293Y-11498348D02*
X20580769Y-11517396D01*
X20580769Y-11517396D02*
X20571245Y-11526920D01*
X20571245Y-11526920D02*
X20552198Y-11536444D01*
X20552198Y-11536444D02*
X20504579Y-11536444D01*
X20504579Y-11536444D02*
X20485531Y-11526920D01*
X20485531Y-11526920D02*
X20476007Y-11517396D01*
X20714103Y-11336444D02*
X20733150Y-11336444D01*
X20733150Y-11336444D02*
X20752198Y-11345968D01*
X20752198Y-11345968D02*
X20761722Y-11355491D01*
X20761722Y-11355491D02*
X20771245Y-11374539D01*
X20771245Y-11374539D02*
X20780769Y-11412634D01*
X20780769Y-11412634D02*
X20780769Y-11460253D01*
X20780769Y-11460253D02*
X20771245Y-11498348D01*
X20771245Y-11498348D02*
X20761722Y-11517396D01*
X20761722Y-11517396D02*
X20752198Y-11526920D01*
X20752198Y-11526920D02*
X20733150Y-11536444D01*
X20733150Y-11536444D02*
X20714103Y-11536444D01*
X20714103Y-11536444D02*
X20695055Y-11526920D01*
X20695055Y-11526920D02*
X20685531Y-11517396D01*
X20685531Y-11517396D02*
X20676007Y-11498348D01*
X20676007Y-11498348D02*
X20666484Y-11460253D01*
X20666484Y-11460253D02*
X20666484Y-11412634D01*
X20666484Y-11412634D02*
X20676007Y-11374539D01*
X20676007Y-11374539D02*
X20685531Y-11355491D01*
X20685531Y-11355491D02*
X20695055Y-11345968D01*
X20695055Y-11345968D02*
X20714103Y-11336444D01*
X20904579Y-11336444D02*
X20923626Y-11336444D01*
X20923626Y-11336444D02*
X20942674Y-11345968D01*
X20942674Y-11345968D02*
X20952198Y-11355491D01*
X20952198Y-11355491D02*
X20961722Y-11374539D01*
X20961722Y-11374539D02*
X20971245Y-11412634D01*
X20971245Y-11412634D02*
X20971245Y-11460253D01*
X20971245Y-11460253D02*
X20961722Y-11498348D01*
X20961722Y-11498348D02*
X20952198Y-11517396D01*
X20952198Y-11517396D02*
X20942674Y-11526920D01*
X20942674Y-11526920D02*
X20923626Y-11536444D01*
X20923626Y-11536444D02*
X20904579Y-11536444D01*
X20904579Y-11536444D02*
X20885531Y-11526920D01*
X20885531Y-11526920D02*
X20876007Y-11517396D01*
X20876007Y-11517396D02*
X20866484Y-11498348D01*
X20866484Y-11498348D02*
X20856960Y-11460253D01*
X20856960Y-11460253D02*
X20856960Y-11412634D01*
X20856960Y-11412634D02*
X20866484Y-11374539D01*
X20866484Y-11374539D02*
X20876007Y-11355491D01*
X20876007Y-11355491D02*
X20885531Y-11345968D01*
X20885531Y-11345968D02*
X20904579Y-11336444D01*
X21056960Y-11536444D02*
X21056960Y-11403110D01*
X21056960Y-11422158D02*
X21066484Y-11412634D01*
X21066484Y-11412634D02*
X21085531Y-11403110D01*
X21085531Y-11403110D02*
X21114103Y-11403110D01*
X21114103Y-11403110D02*
X21133150Y-11412634D01*
X21133150Y-11412634D02*
X21142674Y-11431682D01*
X21142674Y-11431682D02*
X21142674Y-11536444D01*
X21142674Y-11431682D02*
X21152198Y-11412634D01*
X21152198Y-11412634D02*
X21171245Y-11403110D01*
X21171245Y-11403110D02*
X21199817Y-11403110D01*
X21199817Y-11403110D02*
X21218865Y-11412634D01*
X21218865Y-11412634D02*
X21228388Y-11431682D01*
X21228388Y-11431682D02*
X21228388Y-11536444D01*
X21323626Y-11536444D02*
X21323626Y-11403110D01*
X21323626Y-11422158D02*
X21333150Y-11412634D01*
X21333150Y-11412634D02*
X21352198Y-11403110D01*
X21352198Y-11403110D02*
X21380769Y-11403110D01*
X21380769Y-11403110D02*
X21399817Y-11412634D01*
X21399817Y-11412634D02*
X21409341Y-11431682D01*
X21409341Y-11431682D02*
X21409341Y-11536444D01*
X21409341Y-11431682D02*
X21418865Y-11412634D01*
X21418865Y-11412634D02*
X21437912Y-11403110D01*
X21437912Y-11403110D02*
X21466484Y-11403110D01*
X21466484Y-11403110D02*
X21485531Y-11412634D01*
X21485531Y-11412634D02*
X21495055Y-11431682D01*
X21495055Y-11431682D02*
X21495055Y-11536444D01*
X21885531Y-11326920D02*
X21714103Y-11584063D01*
X22142674Y-11336444D02*
X22161722Y-11336444D01*
X22161722Y-11336444D02*
X22180769Y-11345968D01*
X22180769Y-11345968D02*
X22190293Y-11355491D01*
X22190293Y-11355491D02*
X22199817Y-11374539D01*
X22199817Y-11374539D02*
X22209341Y-11412634D01*
X22209341Y-11412634D02*
X22209341Y-11460253D01*
X22209341Y-11460253D02*
X22199817Y-11498348D01*
X22199817Y-11498348D02*
X22190293Y-11517396D01*
X22190293Y-11517396D02*
X22180769Y-11526920D01*
X22180769Y-11526920D02*
X22161722Y-11536444D01*
X22161722Y-11536444D02*
X22142674Y-11536444D01*
X22142674Y-11536444D02*
X22123627Y-11526920D01*
X22123627Y-11526920D02*
X22114103Y-11517396D01*
X22114103Y-11517396D02*
X22104579Y-11498348D01*
X22104579Y-11498348D02*
X22095055Y-11460253D01*
X22095055Y-11460253D02*
X22095055Y-11412634D01*
X22095055Y-11412634D02*
X22104579Y-11374539D01*
X22104579Y-11374539D02*
X22114103Y-11355491D01*
X22114103Y-11355491D02*
X22123627Y-11345968D01*
X22123627Y-11345968D02*
X22142674Y-11336444D01*
X22295055Y-11517396D02*
X22304579Y-11526920D01*
X22304579Y-11526920D02*
X22295055Y-11536444D01*
X22295055Y-11536444D02*
X22285531Y-11526920D01*
X22285531Y-11526920D02*
X22295055Y-11517396D01*
X22295055Y-11517396D02*
X22295055Y-11536444D01*
X22428388Y-11336444D02*
X22447436Y-11336444D01*
X22447436Y-11336444D02*
X22466484Y-11345968D01*
X22466484Y-11345968D02*
X22476007Y-11355491D01*
X22476007Y-11355491D02*
X22485531Y-11374539D01*
X22485531Y-11374539D02*
X22495055Y-11412634D01*
X22495055Y-11412634D02*
X22495055Y-11460253D01*
X22495055Y-11460253D02*
X22485531Y-11498348D01*
X22485531Y-11498348D02*
X22476007Y-11517396D01*
X22476007Y-11517396D02*
X22466484Y-11526920D01*
X22466484Y-11526920D02*
X22447436Y-11536444D01*
X22447436Y-11536444D02*
X22428388Y-11536444D01*
X22428388Y-11536444D02*
X22409341Y-11526920D01*
X22409341Y-11526920D02*
X22399817Y-11517396D01*
X22399817Y-11517396D02*
X22390293Y-11498348D01*
X22390293Y-11498348D02*
X22380769Y-11460253D01*
X22380769Y-11460253D02*
X22380769Y-11412634D01*
X22380769Y-11412634D02*
X22390293Y-11374539D01*
X22390293Y-11374539D02*
X22399817Y-11355491D01*
X22399817Y-11355491D02*
X22409341Y-11345968D01*
X22409341Y-11345968D02*
X22428388Y-11336444D01*
X22685531Y-11536444D02*
X22571246Y-11536444D01*
X22628388Y-11536444D02*
X22628388Y-11336444D01*
X22628388Y-11336444D02*
X22609341Y-11365015D01*
X22609341Y-11365015D02*
X22590293Y-11384063D01*
X22590293Y-11384063D02*
X22571246Y-11393587D01*
X22780769Y-11536444D02*
X22818865Y-11536444D01*
X22818865Y-11536444D02*
X22837912Y-11526920D01*
X22837912Y-11526920D02*
X22847436Y-11517396D01*
X22847436Y-11517396D02*
X22866484Y-11488825D01*
X22866484Y-11488825D02*
X22876007Y-11450729D01*
X22876007Y-11450729D02*
X22876007Y-11374539D01*
X22876007Y-11374539D02*
X22866484Y-11355491D01*
X22866484Y-11355491D02*
X22856960Y-11345968D01*
X22856960Y-11345968D02*
X22837912Y-11336444D01*
X22837912Y-11336444D02*
X22799817Y-11336444D01*
X22799817Y-11336444D02*
X22780769Y-11345968D01*
X22780769Y-11345968D02*
X22771246Y-11355491D01*
X22771246Y-11355491D02*
X22761722Y-11374539D01*
X22761722Y-11374539D02*
X22761722Y-11422158D01*
X22761722Y-11422158D02*
X22771246Y-11441206D01*
X22771246Y-11441206D02*
X22780769Y-11450729D01*
X22780769Y-11450729D02*
X22799817Y-11460253D01*
X22799817Y-11460253D02*
X22837912Y-11460253D01*
X22837912Y-11460253D02*
X22856960Y-11450729D01*
X22856960Y-11450729D02*
X22866484Y-11441206D01*
X22866484Y-11441206D02*
X22876007Y-11422158D01*
X22942674Y-11336444D02*
X23076007Y-11336444D01*
X23076007Y-11336444D02*
X22990293Y-11536444D01*
X23142674Y-11336444D02*
X23142674Y-11374539D01*
X23218865Y-11336444D02*
X23218865Y-11374539D01*
X23514103Y-11612634D02*
X23504579Y-11603110D01*
X23504579Y-11603110D02*
X23485531Y-11574539D01*
X23485531Y-11574539D02*
X23476008Y-11555491D01*
X23476008Y-11555491D02*
X23466484Y-11526920D01*
X23466484Y-11526920D02*
X23456960Y-11479301D01*
X23456960Y-11479301D02*
X23456960Y-11441206D01*
X23456960Y-11441206D02*
X23466484Y-11393587D01*
X23466484Y-11393587D02*
X23476008Y-11365015D01*
X23476008Y-11365015D02*
X23485531Y-11345968D01*
X23485531Y-11345968D02*
X23504579Y-11317396D01*
X23504579Y-11317396D02*
X23514103Y-11307872D01*
X23571246Y-11336444D02*
X23695055Y-11336444D01*
X23695055Y-11336444D02*
X23628388Y-11412634D01*
X23628388Y-11412634D02*
X23656960Y-11412634D01*
X23656960Y-11412634D02*
X23676008Y-11422158D01*
X23676008Y-11422158D02*
X23685531Y-11431682D01*
X23685531Y-11431682D02*
X23695055Y-11450729D01*
X23695055Y-11450729D02*
X23695055Y-11498348D01*
X23695055Y-11498348D02*
X23685531Y-11517396D01*
X23685531Y-11517396D02*
X23676008Y-11526920D01*
X23676008Y-11526920D02*
X23656960Y-11536444D01*
X23656960Y-11536444D02*
X23599817Y-11536444D01*
X23599817Y-11536444D02*
X23580769Y-11526920D01*
X23580769Y-11526920D02*
X23571246Y-11517396D01*
X23771246Y-11355491D02*
X23780769Y-11345968D01*
X23780769Y-11345968D02*
X23799817Y-11336444D01*
X23799817Y-11336444D02*
X23847436Y-11336444D01*
X23847436Y-11336444D02*
X23866484Y-11345968D01*
X23866484Y-11345968D02*
X23876008Y-11355491D01*
X23876008Y-11355491D02*
X23885531Y-11374539D01*
X23885531Y-11374539D02*
X23885531Y-11393587D01*
X23885531Y-11393587D02*
X23876008Y-11422158D01*
X23876008Y-11422158D02*
X23761722Y-11536444D01*
X23761722Y-11536444D02*
X23885531Y-11536444D01*
X24123627Y-11536444D02*
X24123627Y-11336444D01*
X24209341Y-11536444D02*
X24209341Y-11431682D01*
X24209341Y-11431682D02*
X24199817Y-11412634D01*
X24199817Y-11412634D02*
X24180770Y-11403110D01*
X24180770Y-11403110D02*
X24152198Y-11403110D01*
X24152198Y-11403110D02*
X24133150Y-11412634D01*
X24133150Y-11412634D02*
X24123627Y-11422158D01*
X24333150Y-11536444D02*
X24314103Y-11526920D01*
X24314103Y-11526920D02*
X24304579Y-11517396D01*
X24304579Y-11517396D02*
X24295055Y-11498348D01*
X24295055Y-11498348D02*
X24295055Y-11441206D01*
X24295055Y-11441206D02*
X24304579Y-11422158D01*
X24304579Y-11422158D02*
X24314103Y-11412634D01*
X24314103Y-11412634D02*
X24333150Y-11403110D01*
X24333150Y-11403110D02*
X24361722Y-11403110D01*
X24361722Y-11403110D02*
X24380770Y-11412634D01*
X24380770Y-11412634D02*
X24390293Y-11422158D01*
X24390293Y-11422158D02*
X24399817Y-11441206D01*
X24399817Y-11441206D02*
X24399817Y-11498348D01*
X24399817Y-11498348D02*
X24390293Y-11517396D01*
X24390293Y-11517396D02*
X24380770Y-11526920D01*
X24380770Y-11526920D02*
X24361722Y-11536444D01*
X24361722Y-11536444D02*
X24333150Y-11536444D01*
X24514103Y-11536444D02*
X24495055Y-11526920D01*
X24495055Y-11526920D02*
X24485531Y-11507872D01*
X24485531Y-11507872D02*
X24485531Y-11336444D01*
X24666484Y-11526920D02*
X24647436Y-11536444D01*
X24647436Y-11536444D02*
X24609341Y-11536444D01*
X24609341Y-11536444D02*
X24590293Y-11526920D01*
X24590293Y-11526920D02*
X24580770Y-11507872D01*
X24580770Y-11507872D02*
X24580770Y-11431682D01*
X24580770Y-11431682D02*
X24590293Y-11412634D01*
X24590293Y-11412634D02*
X24609341Y-11403110D01*
X24609341Y-11403110D02*
X24647436Y-11403110D01*
X24647436Y-11403110D02*
X24666484Y-11412634D01*
X24666484Y-11412634D02*
X24676008Y-11431682D01*
X24676008Y-11431682D02*
X24676008Y-11450729D01*
X24676008Y-11450729D02*
X24580770Y-11469777D01*
X24752198Y-11526920D02*
X24771246Y-11536444D01*
X24771246Y-11536444D02*
X24809341Y-11536444D01*
X24809341Y-11536444D02*
X24828389Y-11526920D01*
X24828389Y-11526920D02*
X24837912Y-11507872D01*
X24837912Y-11507872D02*
X24837912Y-11498348D01*
X24837912Y-11498348D02*
X24828389Y-11479301D01*
X24828389Y-11479301D02*
X24809341Y-11469777D01*
X24809341Y-11469777D02*
X24780770Y-11469777D01*
X24780770Y-11469777D02*
X24761722Y-11460253D01*
X24761722Y-11460253D02*
X24752198Y-11441206D01*
X24752198Y-11441206D02*
X24752198Y-11431682D01*
X24752198Y-11431682D02*
X24761722Y-11412634D01*
X24761722Y-11412634D02*
X24780770Y-11403110D01*
X24780770Y-11403110D02*
X24809341Y-11403110D01*
X24809341Y-11403110D02*
X24828389Y-11412634D01*
X24904579Y-11612634D02*
X24914103Y-11603110D01*
X24914103Y-11603110D02*
X24933151Y-11574539D01*
X24933151Y-11574539D02*
X24942674Y-11555491D01*
X24942674Y-11555491D02*
X24952198Y-11526920D01*
X24952198Y-11526920D02*
X24961722Y-11479301D01*
X24961722Y-11479301D02*
X24961722Y-11441206D01*
X24961722Y-11441206D02*
X24952198Y-11393587D01*
X24952198Y-11393587D02*
X24942674Y-11365015D01*
X24942674Y-11365015D02*
X24933151Y-11345968D01*
X24933151Y-11345968D02*
X24914103Y-11317396D01*
X24914103Y-11317396D02*
X24904579Y-11307872D01*
D12*
X19909040Y-11678960D02*
X19909040Y-11738960D01*
X19879040Y-11708960D02*
X19939040Y-11708960D01*
D11*
X20237912Y-11600444D02*
X20256960Y-11600444D01*
X20256960Y-11600444D02*
X20276007Y-11609968D01*
X20276007Y-11609968D02*
X20285531Y-11619491D01*
X20285531Y-11619491D02*
X20295055Y-11638539D01*
X20295055Y-11638539D02*
X20304579Y-11676634D01*
X20304579Y-11676634D02*
X20304579Y-11724253D01*
X20304579Y-11724253D02*
X20295055Y-11762348D01*
X20295055Y-11762348D02*
X20285531Y-11781396D01*
X20285531Y-11781396D02*
X20276007Y-11790920D01*
X20276007Y-11790920D02*
X20256960Y-11800444D01*
X20256960Y-11800444D02*
X20237912Y-11800444D01*
X20237912Y-11800444D02*
X20218864Y-11790920D01*
X20218864Y-11790920D02*
X20209341Y-11781396D01*
X20209341Y-11781396D02*
X20199817Y-11762348D01*
X20199817Y-11762348D02*
X20190293Y-11724253D01*
X20190293Y-11724253D02*
X20190293Y-11676634D01*
X20190293Y-11676634D02*
X20199817Y-11638539D01*
X20199817Y-11638539D02*
X20209341Y-11619491D01*
X20209341Y-11619491D02*
X20218864Y-11609968D01*
X20218864Y-11609968D02*
X20237912Y-11600444D01*
X20390293Y-11781396D02*
X20399817Y-11790920D01*
X20399817Y-11790920D02*
X20390293Y-11800444D01*
X20390293Y-11800444D02*
X20380769Y-11790920D01*
X20380769Y-11790920D02*
X20390293Y-11781396D01*
X20390293Y-11781396D02*
X20390293Y-11800444D01*
X20571245Y-11600444D02*
X20533150Y-11600444D01*
X20533150Y-11600444D02*
X20514103Y-11609968D01*
X20514103Y-11609968D02*
X20504579Y-11619491D01*
X20504579Y-11619491D02*
X20485531Y-11648063D01*
X20485531Y-11648063D02*
X20476007Y-11686158D01*
X20476007Y-11686158D02*
X20476007Y-11762348D01*
X20476007Y-11762348D02*
X20485531Y-11781396D01*
X20485531Y-11781396D02*
X20495055Y-11790920D01*
X20495055Y-11790920D02*
X20514103Y-11800444D01*
X20514103Y-11800444D02*
X20552198Y-11800444D01*
X20552198Y-11800444D02*
X20571245Y-11790920D01*
X20571245Y-11790920D02*
X20580769Y-11781396D01*
X20580769Y-11781396D02*
X20590293Y-11762348D01*
X20590293Y-11762348D02*
X20590293Y-11714729D01*
X20590293Y-11714729D02*
X20580769Y-11695682D01*
X20580769Y-11695682D02*
X20571245Y-11686158D01*
X20571245Y-11686158D02*
X20552198Y-11676634D01*
X20552198Y-11676634D02*
X20514103Y-11676634D01*
X20514103Y-11676634D02*
X20495055Y-11686158D01*
X20495055Y-11686158D02*
X20485531Y-11695682D01*
X20485531Y-11695682D02*
X20476007Y-11714729D01*
X20714103Y-11600444D02*
X20733150Y-11600444D01*
X20733150Y-11600444D02*
X20752198Y-11609968D01*
X20752198Y-11609968D02*
X20761722Y-11619491D01*
X20761722Y-11619491D02*
X20771245Y-11638539D01*
X20771245Y-11638539D02*
X20780769Y-11676634D01*
X20780769Y-11676634D02*
X20780769Y-11724253D01*
X20780769Y-11724253D02*
X20771245Y-11762348D01*
X20771245Y-11762348D02*
X20761722Y-11781396D01*
X20761722Y-11781396D02*
X20752198Y-11790920D01*
X20752198Y-11790920D02*
X20733150Y-11800444D01*
X20733150Y-11800444D02*
X20714103Y-11800444D01*
X20714103Y-11800444D02*
X20695055Y-11790920D01*
X20695055Y-11790920D02*
X20685531Y-11781396D01*
X20685531Y-11781396D02*
X20676007Y-11762348D01*
X20676007Y-11762348D02*
X20666484Y-11724253D01*
X20666484Y-11724253D02*
X20666484Y-11676634D01*
X20666484Y-11676634D02*
X20676007Y-11638539D01*
X20676007Y-11638539D02*
X20685531Y-11619491D01*
X20685531Y-11619491D02*
X20695055Y-11609968D01*
X20695055Y-11609968D02*
X20714103Y-11600444D01*
X20904579Y-11600444D02*
X20923626Y-11600444D01*
X20923626Y-11600444D02*
X20942674Y-11609968D01*
X20942674Y-11609968D02*
X20952198Y-11619491D01*
X20952198Y-11619491D02*
X20961722Y-11638539D01*
X20961722Y-11638539D02*
X20971245Y-11676634D01*
X20971245Y-11676634D02*
X20971245Y-11724253D01*
X20971245Y-11724253D02*
X20961722Y-11762348D01*
X20961722Y-11762348D02*
X20952198Y-11781396D01*
X20952198Y-11781396D02*
X20942674Y-11790920D01*
X20942674Y-11790920D02*
X20923626Y-11800444D01*
X20923626Y-11800444D02*
X20904579Y-11800444D01*
X20904579Y-11800444D02*
X20885531Y-11790920D01*
X20885531Y-11790920D02*
X20876007Y-11781396D01*
X20876007Y-11781396D02*
X20866484Y-11762348D01*
X20866484Y-11762348D02*
X20856960Y-11724253D01*
X20856960Y-11724253D02*
X20856960Y-11676634D01*
X20856960Y-11676634D02*
X20866484Y-11638539D01*
X20866484Y-11638539D02*
X20876007Y-11619491D01*
X20876007Y-11619491D02*
X20885531Y-11609968D01*
X20885531Y-11609968D02*
X20904579Y-11600444D01*
X21056960Y-11800444D02*
X21056960Y-11667110D01*
X21056960Y-11686158D02*
X21066484Y-11676634D01*
X21066484Y-11676634D02*
X21085531Y-11667110D01*
X21085531Y-11667110D02*
X21114103Y-11667110D01*
X21114103Y-11667110D02*
X21133150Y-11676634D01*
X21133150Y-11676634D02*
X21142674Y-11695682D01*
X21142674Y-11695682D02*
X21142674Y-11800444D01*
X21142674Y-11695682D02*
X21152198Y-11676634D01*
X21152198Y-11676634D02*
X21171245Y-11667110D01*
X21171245Y-11667110D02*
X21199817Y-11667110D01*
X21199817Y-11667110D02*
X21218865Y-11676634D01*
X21218865Y-11676634D02*
X21228388Y-11695682D01*
X21228388Y-11695682D02*
X21228388Y-11800444D01*
X21323626Y-11800444D02*
X21323626Y-11667110D01*
X21323626Y-11686158D02*
X21333150Y-11676634D01*
X21333150Y-11676634D02*
X21352198Y-11667110D01*
X21352198Y-11667110D02*
X21380769Y-11667110D01*
X21380769Y-11667110D02*
X21399817Y-11676634D01*
X21399817Y-11676634D02*
X21409341Y-11695682D01*
X21409341Y-11695682D02*
X21409341Y-11800444D01*
X21409341Y-11695682D02*
X21418865Y-11676634D01*
X21418865Y-11676634D02*
X21437912Y-11667110D01*
X21437912Y-11667110D02*
X21466484Y-11667110D01*
X21466484Y-11667110D02*
X21485531Y-11676634D01*
X21485531Y-11676634D02*
X21495055Y-11695682D01*
X21495055Y-11695682D02*
X21495055Y-11800444D01*
X21885531Y-11590920D02*
X21714103Y-11848063D01*
X22142674Y-11600444D02*
X22161722Y-11600444D01*
X22161722Y-11600444D02*
X22180769Y-11609968D01*
X22180769Y-11609968D02*
X22190293Y-11619491D01*
X22190293Y-11619491D02*
X22199817Y-11638539D01*
X22199817Y-11638539D02*
X22209341Y-11676634D01*
X22209341Y-11676634D02*
X22209341Y-11724253D01*
X22209341Y-11724253D02*
X22199817Y-11762348D01*
X22199817Y-11762348D02*
X22190293Y-11781396D01*
X22190293Y-11781396D02*
X22180769Y-11790920D01*
X22180769Y-11790920D02*
X22161722Y-11800444D01*
X22161722Y-11800444D02*
X22142674Y-11800444D01*
X22142674Y-11800444D02*
X22123627Y-11790920D01*
X22123627Y-11790920D02*
X22114103Y-11781396D01*
X22114103Y-11781396D02*
X22104579Y-11762348D01*
X22104579Y-11762348D02*
X22095055Y-11724253D01*
X22095055Y-11724253D02*
X22095055Y-11676634D01*
X22095055Y-11676634D02*
X22104579Y-11638539D01*
X22104579Y-11638539D02*
X22114103Y-11619491D01*
X22114103Y-11619491D02*
X22123627Y-11609968D01*
X22123627Y-11609968D02*
X22142674Y-11600444D01*
X22295055Y-11781396D02*
X22304579Y-11790920D01*
X22304579Y-11790920D02*
X22295055Y-11800444D01*
X22295055Y-11800444D02*
X22285531Y-11790920D01*
X22285531Y-11790920D02*
X22295055Y-11781396D01*
X22295055Y-11781396D02*
X22295055Y-11800444D01*
X22428388Y-11600444D02*
X22447436Y-11600444D01*
X22447436Y-11600444D02*
X22466484Y-11609968D01*
X22466484Y-11609968D02*
X22476007Y-11619491D01*
X22476007Y-11619491D02*
X22485531Y-11638539D01*
X22485531Y-11638539D02*
X22495055Y-11676634D01*
X22495055Y-11676634D02*
X22495055Y-11724253D01*
X22495055Y-11724253D02*
X22485531Y-11762348D01*
X22485531Y-11762348D02*
X22476007Y-11781396D01*
X22476007Y-11781396D02*
X22466484Y-11790920D01*
X22466484Y-11790920D02*
X22447436Y-11800444D01*
X22447436Y-11800444D02*
X22428388Y-11800444D01*
X22428388Y-11800444D02*
X22409341Y-11790920D01*
X22409341Y-11790920D02*
X22399817Y-11781396D01*
X22399817Y-11781396D02*
X22390293Y-11762348D01*
X22390293Y-11762348D02*
X22380769Y-11724253D01*
X22380769Y-11724253D02*
X22380769Y-11676634D01*
X22380769Y-11676634D02*
X22390293Y-11638539D01*
X22390293Y-11638539D02*
X22399817Y-11619491D01*
X22399817Y-11619491D02*
X22409341Y-11609968D01*
X22409341Y-11609968D02*
X22428388Y-11600444D01*
X22571246Y-11619491D02*
X22580769Y-11609968D01*
X22580769Y-11609968D02*
X22599817Y-11600444D01*
X22599817Y-11600444D02*
X22647436Y-11600444D01*
X22647436Y-11600444D02*
X22666484Y-11609968D01*
X22666484Y-11609968D02*
X22676007Y-11619491D01*
X22676007Y-11619491D02*
X22685531Y-11638539D01*
X22685531Y-11638539D02*
X22685531Y-11657587D01*
X22685531Y-11657587D02*
X22676007Y-11686158D01*
X22676007Y-11686158D02*
X22561722Y-11800444D01*
X22561722Y-11800444D02*
X22685531Y-11800444D01*
X22752198Y-11600444D02*
X22876007Y-11600444D01*
X22876007Y-11600444D02*
X22809341Y-11676634D01*
X22809341Y-11676634D02*
X22837912Y-11676634D01*
X22837912Y-11676634D02*
X22856960Y-11686158D01*
X22856960Y-11686158D02*
X22866484Y-11695682D01*
X22866484Y-11695682D02*
X22876007Y-11714729D01*
X22876007Y-11714729D02*
X22876007Y-11762348D01*
X22876007Y-11762348D02*
X22866484Y-11781396D01*
X22866484Y-11781396D02*
X22856960Y-11790920D01*
X22856960Y-11790920D02*
X22837912Y-11800444D01*
X22837912Y-11800444D02*
X22780769Y-11800444D01*
X22780769Y-11800444D02*
X22761722Y-11790920D01*
X22761722Y-11790920D02*
X22752198Y-11781396D01*
X23047436Y-11600444D02*
X23009341Y-11600444D01*
X23009341Y-11600444D02*
X22990293Y-11609968D01*
X22990293Y-11609968D02*
X22980769Y-11619491D01*
X22980769Y-11619491D02*
X22961722Y-11648063D01*
X22961722Y-11648063D02*
X22952198Y-11686158D01*
X22952198Y-11686158D02*
X22952198Y-11762348D01*
X22952198Y-11762348D02*
X22961722Y-11781396D01*
X22961722Y-11781396D02*
X22971246Y-11790920D01*
X22971246Y-11790920D02*
X22990293Y-11800444D01*
X22990293Y-11800444D02*
X23028388Y-11800444D01*
X23028388Y-11800444D02*
X23047436Y-11790920D01*
X23047436Y-11790920D02*
X23056960Y-11781396D01*
X23056960Y-11781396D02*
X23066484Y-11762348D01*
X23066484Y-11762348D02*
X23066484Y-11714729D01*
X23066484Y-11714729D02*
X23056960Y-11695682D01*
X23056960Y-11695682D02*
X23047436Y-11686158D01*
X23047436Y-11686158D02*
X23028388Y-11676634D01*
X23028388Y-11676634D02*
X22990293Y-11676634D01*
X22990293Y-11676634D02*
X22971246Y-11686158D01*
X22971246Y-11686158D02*
X22961722Y-11695682D01*
X22961722Y-11695682D02*
X22952198Y-11714729D01*
X23142674Y-11600444D02*
X23142674Y-11638539D01*
X23218865Y-11600444D02*
X23218865Y-11638539D01*
X23514103Y-11876634D02*
X23504579Y-11867110D01*
X23504579Y-11867110D02*
X23485531Y-11838539D01*
X23485531Y-11838539D02*
X23476008Y-11819491D01*
X23476008Y-11819491D02*
X23466484Y-11790920D01*
X23466484Y-11790920D02*
X23456960Y-11743301D01*
X23456960Y-11743301D02*
X23456960Y-11705206D01*
X23456960Y-11705206D02*
X23466484Y-11657587D01*
X23466484Y-11657587D02*
X23476008Y-11629015D01*
X23476008Y-11629015D02*
X23485531Y-11609968D01*
X23485531Y-11609968D02*
X23504579Y-11581396D01*
X23504579Y-11581396D02*
X23514103Y-11571872D01*
X23676008Y-11667110D02*
X23676008Y-11800444D01*
X23628388Y-11590920D02*
X23580769Y-11733777D01*
X23580769Y-11733777D02*
X23704579Y-11733777D01*
X23933150Y-11800444D02*
X23933150Y-11600444D01*
X24018865Y-11800444D02*
X24018865Y-11695682D01*
X24018865Y-11695682D02*
X24009341Y-11676634D01*
X24009341Y-11676634D02*
X23990293Y-11667110D01*
X23990293Y-11667110D02*
X23961722Y-11667110D01*
X23961722Y-11667110D02*
X23942674Y-11676634D01*
X23942674Y-11676634D02*
X23933150Y-11686158D01*
X24142674Y-11800444D02*
X24123627Y-11790920D01*
X24123627Y-11790920D02*
X24114103Y-11781396D01*
X24114103Y-11781396D02*
X24104579Y-11762348D01*
X24104579Y-11762348D02*
X24104579Y-11705206D01*
X24104579Y-11705206D02*
X24114103Y-11686158D01*
X24114103Y-11686158D02*
X24123627Y-11676634D01*
X24123627Y-11676634D02*
X24142674Y-11667110D01*
X24142674Y-11667110D02*
X24171246Y-11667110D01*
X24171246Y-11667110D02*
X24190293Y-11676634D01*
X24190293Y-11676634D02*
X24199817Y-11686158D01*
X24199817Y-11686158D02*
X24209341Y-11705206D01*
X24209341Y-11705206D02*
X24209341Y-11762348D01*
X24209341Y-11762348D02*
X24199817Y-11781396D01*
X24199817Y-11781396D02*
X24190293Y-11790920D01*
X24190293Y-11790920D02*
X24171246Y-11800444D01*
X24171246Y-11800444D02*
X24142674Y-11800444D01*
X24323627Y-11800444D02*
X24304579Y-11790920D01*
X24304579Y-11790920D02*
X24295055Y-11771872D01*
X24295055Y-11771872D02*
X24295055Y-11600444D01*
X24476008Y-11790920D02*
X24456960Y-11800444D01*
X24456960Y-11800444D02*
X24418865Y-11800444D01*
X24418865Y-11800444D02*
X24399817Y-11790920D01*
X24399817Y-11790920D02*
X24390293Y-11771872D01*
X24390293Y-11771872D02*
X24390293Y-11695682D01*
X24390293Y-11695682D02*
X24399817Y-11676634D01*
X24399817Y-11676634D02*
X24418865Y-11667110D01*
X24418865Y-11667110D02*
X24456960Y-11667110D01*
X24456960Y-11667110D02*
X24476008Y-11676634D01*
X24476008Y-11676634D02*
X24485531Y-11695682D01*
X24485531Y-11695682D02*
X24485531Y-11714729D01*
X24485531Y-11714729D02*
X24390293Y-11733777D01*
X24561722Y-11790920D02*
X24580770Y-11800444D01*
X24580770Y-11800444D02*
X24618865Y-11800444D01*
X24618865Y-11800444D02*
X24637912Y-11790920D01*
X24637912Y-11790920D02*
X24647436Y-11771872D01*
X24647436Y-11771872D02*
X24647436Y-11762348D01*
X24647436Y-11762348D02*
X24637912Y-11743301D01*
X24637912Y-11743301D02*
X24618865Y-11733777D01*
X24618865Y-11733777D02*
X24590293Y-11733777D01*
X24590293Y-11733777D02*
X24571246Y-11724253D01*
X24571246Y-11724253D02*
X24561722Y-11705206D01*
X24561722Y-11705206D02*
X24561722Y-11695682D01*
X24561722Y-11695682D02*
X24571246Y-11676634D01*
X24571246Y-11676634D02*
X24590293Y-11667110D01*
X24590293Y-11667110D02*
X24618865Y-11667110D01*
X24618865Y-11667110D02*
X24637912Y-11676634D01*
X24714103Y-11876634D02*
X24723627Y-11867110D01*
X24723627Y-11867110D02*
X24742674Y-11838539D01*
X24742674Y-11838539D02*
X24752198Y-11819491D01*
X24752198Y-11819491D02*
X24761722Y-11790920D01*
X24761722Y-11790920D02*
X24771246Y-11743301D01*
X24771246Y-11743301D02*
X24771246Y-11705206D01*
X24771246Y-11705206D02*
X24761722Y-11657587D01*
X24761722Y-11657587D02*
X24752198Y-11629015D01*
X24752198Y-11629015D02*
X24742674Y-11609968D01*
X24742674Y-11609968D02*
X24723627Y-11581396D01*
X24723627Y-11581396D02*
X24714103Y-11571872D01*
D13*
X19917806Y-12024226D02*
X19917806Y-11921694D01*
X19815274Y-11921694D01*
X19815274Y-12024226D01*
X19917806Y-12024226D01*
D11*
X20304579Y-12064444D02*
X20190293Y-12064444D01*
X20247436Y-12064444D02*
X20247436Y-11864444D01*
X20247436Y-11864444D02*
X20228388Y-11893015D01*
X20228388Y-11893015D02*
X20209341Y-11912063D01*
X20209341Y-11912063D02*
X20190293Y-11921587D01*
X20390293Y-12045396D02*
X20399817Y-12054920D01*
X20399817Y-12054920D02*
X20390293Y-12064444D01*
X20390293Y-12064444D02*
X20380769Y-12054920D01*
X20380769Y-12054920D02*
X20390293Y-12045396D01*
X20390293Y-12045396D02*
X20390293Y-12064444D01*
X20571245Y-11931110D02*
X20571245Y-12064444D01*
X20523626Y-11854920D02*
X20476007Y-11997777D01*
X20476007Y-11997777D02*
X20599817Y-11997777D01*
X20771245Y-11864444D02*
X20676007Y-11864444D01*
X20676007Y-11864444D02*
X20666484Y-11959682D01*
X20666484Y-11959682D02*
X20676007Y-11950158D01*
X20676007Y-11950158D02*
X20695055Y-11940634D01*
X20695055Y-11940634D02*
X20742674Y-11940634D01*
X20742674Y-11940634D02*
X20761722Y-11950158D01*
X20761722Y-11950158D02*
X20771245Y-11959682D01*
X20771245Y-11959682D02*
X20780769Y-11978729D01*
X20780769Y-11978729D02*
X20780769Y-12026348D01*
X20780769Y-12026348D02*
X20771245Y-12045396D01*
X20771245Y-12045396D02*
X20761722Y-12054920D01*
X20761722Y-12054920D02*
X20742674Y-12064444D01*
X20742674Y-12064444D02*
X20695055Y-12064444D01*
X20695055Y-12064444D02*
X20676007Y-12054920D01*
X20676007Y-12054920D02*
X20666484Y-12045396D01*
X20904579Y-11864444D02*
X20923626Y-11864444D01*
X20923626Y-11864444D02*
X20942674Y-11873968D01*
X20942674Y-11873968D02*
X20952198Y-11883491D01*
X20952198Y-11883491D02*
X20961722Y-11902539D01*
X20961722Y-11902539D02*
X20971245Y-11940634D01*
X20971245Y-11940634D02*
X20971245Y-11988253D01*
X20971245Y-11988253D02*
X20961722Y-12026348D01*
X20961722Y-12026348D02*
X20952198Y-12045396D01*
X20952198Y-12045396D02*
X20942674Y-12054920D01*
X20942674Y-12054920D02*
X20923626Y-12064444D01*
X20923626Y-12064444D02*
X20904579Y-12064444D01*
X20904579Y-12064444D02*
X20885531Y-12054920D01*
X20885531Y-12054920D02*
X20876007Y-12045396D01*
X20876007Y-12045396D02*
X20866484Y-12026348D01*
X20866484Y-12026348D02*
X20856960Y-11988253D01*
X20856960Y-11988253D02*
X20856960Y-11940634D01*
X20856960Y-11940634D02*
X20866484Y-11902539D01*
X20866484Y-11902539D02*
X20876007Y-11883491D01*
X20876007Y-11883491D02*
X20885531Y-11873968D01*
X20885531Y-11873968D02*
X20904579Y-11864444D01*
X21056960Y-12064444D02*
X21056960Y-11931110D01*
X21056960Y-11950158D02*
X21066484Y-11940634D01*
X21066484Y-11940634D02*
X21085531Y-11931110D01*
X21085531Y-11931110D02*
X21114103Y-11931110D01*
X21114103Y-11931110D02*
X21133150Y-11940634D01*
X21133150Y-11940634D02*
X21142674Y-11959682D01*
X21142674Y-11959682D02*
X21142674Y-12064444D01*
X21142674Y-11959682D02*
X21152198Y-11940634D01*
X21152198Y-11940634D02*
X21171245Y-11931110D01*
X21171245Y-11931110D02*
X21199817Y-11931110D01*
X21199817Y-11931110D02*
X21218865Y-11940634D01*
X21218865Y-11940634D02*
X21228388Y-11959682D01*
X21228388Y-11959682D02*
X21228388Y-12064444D01*
X21323626Y-12064444D02*
X21323626Y-11931110D01*
X21323626Y-11950158D02*
X21333150Y-11940634D01*
X21333150Y-11940634D02*
X21352198Y-11931110D01*
X21352198Y-11931110D02*
X21380769Y-11931110D01*
X21380769Y-11931110D02*
X21399817Y-11940634D01*
X21399817Y-11940634D02*
X21409341Y-11959682D01*
X21409341Y-11959682D02*
X21409341Y-12064444D01*
X21409341Y-11959682D02*
X21418865Y-11940634D01*
X21418865Y-11940634D02*
X21437912Y-11931110D01*
X21437912Y-11931110D02*
X21466484Y-11931110D01*
X21466484Y-11931110D02*
X21485531Y-11940634D01*
X21485531Y-11940634D02*
X21495055Y-11959682D01*
X21495055Y-11959682D02*
X21495055Y-12064444D01*
X21885531Y-11854920D02*
X21714103Y-12112063D01*
X22142674Y-11864444D02*
X22161722Y-11864444D01*
X22161722Y-11864444D02*
X22180769Y-11873968D01*
X22180769Y-11873968D02*
X22190293Y-11883491D01*
X22190293Y-11883491D02*
X22199817Y-11902539D01*
X22199817Y-11902539D02*
X22209341Y-11940634D01*
X22209341Y-11940634D02*
X22209341Y-11988253D01*
X22209341Y-11988253D02*
X22199817Y-12026348D01*
X22199817Y-12026348D02*
X22190293Y-12045396D01*
X22190293Y-12045396D02*
X22180769Y-12054920D01*
X22180769Y-12054920D02*
X22161722Y-12064444D01*
X22161722Y-12064444D02*
X22142674Y-12064444D01*
X22142674Y-12064444D02*
X22123627Y-12054920D01*
X22123627Y-12054920D02*
X22114103Y-12045396D01*
X22114103Y-12045396D02*
X22104579Y-12026348D01*
X22104579Y-12026348D02*
X22095055Y-11988253D01*
X22095055Y-11988253D02*
X22095055Y-11940634D01*
X22095055Y-11940634D02*
X22104579Y-11902539D01*
X22104579Y-11902539D02*
X22114103Y-11883491D01*
X22114103Y-11883491D02*
X22123627Y-11873968D01*
X22123627Y-11873968D02*
X22142674Y-11864444D01*
X22295055Y-12045396D02*
X22304579Y-12054920D01*
X22304579Y-12054920D02*
X22295055Y-12064444D01*
X22295055Y-12064444D02*
X22285531Y-12054920D01*
X22285531Y-12054920D02*
X22295055Y-12045396D01*
X22295055Y-12045396D02*
X22295055Y-12064444D01*
X22428388Y-11864444D02*
X22447436Y-11864444D01*
X22447436Y-11864444D02*
X22466484Y-11873968D01*
X22466484Y-11873968D02*
X22476007Y-11883491D01*
X22476007Y-11883491D02*
X22485531Y-11902539D01*
X22485531Y-11902539D02*
X22495055Y-11940634D01*
X22495055Y-11940634D02*
X22495055Y-11988253D01*
X22495055Y-11988253D02*
X22485531Y-12026348D01*
X22485531Y-12026348D02*
X22476007Y-12045396D01*
X22476007Y-12045396D02*
X22466484Y-12054920D01*
X22466484Y-12054920D02*
X22447436Y-12064444D01*
X22447436Y-12064444D02*
X22428388Y-12064444D01*
X22428388Y-12064444D02*
X22409341Y-12054920D01*
X22409341Y-12054920D02*
X22399817Y-12045396D01*
X22399817Y-12045396D02*
X22390293Y-12026348D01*
X22390293Y-12026348D02*
X22380769Y-11988253D01*
X22380769Y-11988253D02*
X22380769Y-11940634D01*
X22380769Y-11940634D02*
X22390293Y-11902539D01*
X22390293Y-11902539D02*
X22399817Y-11883491D01*
X22399817Y-11883491D02*
X22409341Y-11873968D01*
X22409341Y-11873968D02*
X22428388Y-11864444D01*
X22676007Y-11864444D02*
X22580769Y-11864444D01*
X22580769Y-11864444D02*
X22571246Y-11959682D01*
X22571246Y-11959682D02*
X22580769Y-11950158D01*
X22580769Y-11950158D02*
X22599817Y-11940634D01*
X22599817Y-11940634D02*
X22647436Y-11940634D01*
X22647436Y-11940634D02*
X22666484Y-11950158D01*
X22666484Y-11950158D02*
X22676007Y-11959682D01*
X22676007Y-11959682D02*
X22685531Y-11978729D01*
X22685531Y-11978729D02*
X22685531Y-12026348D01*
X22685531Y-12026348D02*
X22676007Y-12045396D01*
X22676007Y-12045396D02*
X22666484Y-12054920D01*
X22666484Y-12054920D02*
X22647436Y-12064444D01*
X22647436Y-12064444D02*
X22599817Y-12064444D01*
X22599817Y-12064444D02*
X22580769Y-12054920D01*
X22580769Y-12054920D02*
X22571246Y-12045396D01*
X22752198Y-11864444D02*
X22885531Y-11864444D01*
X22885531Y-11864444D02*
X22799817Y-12064444D01*
X23066484Y-12064444D02*
X22952198Y-12064444D01*
X23009341Y-12064444D02*
X23009341Y-11864444D01*
X23009341Y-11864444D02*
X22990293Y-11893015D01*
X22990293Y-11893015D02*
X22971246Y-11912063D01*
X22971246Y-11912063D02*
X22952198Y-11921587D01*
X23142674Y-11864444D02*
X23142674Y-11902539D01*
X23218865Y-11864444D02*
X23218865Y-11902539D01*
X23514103Y-12140634D02*
X23504579Y-12131110D01*
X23504579Y-12131110D02*
X23485531Y-12102539D01*
X23485531Y-12102539D02*
X23476008Y-12083491D01*
X23476008Y-12083491D02*
X23466484Y-12054920D01*
X23466484Y-12054920D02*
X23456960Y-12007301D01*
X23456960Y-12007301D02*
X23456960Y-11969206D01*
X23456960Y-11969206D02*
X23466484Y-11921587D01*
X23466484Y-11921587D02*
X23476008Y-11893015D01*
X23476008Y-11893015D02*
X23485531Y-11873968D01*
X23485531Y-11873968D02*
X23504579Y-11845396D01*
X23504579Y-11845396D02*
X23514103Y-11835872D01*
X23676008Y-11931110D02*
X23676008Y-12064444D01*
X23628388Y-11854920D02*
X23580769Y-11997777D01*
X23580769Y-11997777D02*
X23704579Y-11997777D01*
X23933150Y-12064444D02*
X23933150Y-11864444D01*
X24018865Y-12064444D02*
X24018865Y-11959682D01*
X24018865Y-11959682D02*
X24009341Y-11940634D01*
X24009341Y-11940634D02*
X23990293Y-11931110D01*
X23990293Y-11931110D02*
X23961722Y-11931110D01*
X23961722Y-11931110D02*
X23942674Y-11940634D01*
X23942674Y-11940634D02*
X23933150Y-11950158D01*
X24142674Y-12064444D02*
X24123627Y-12054920D01*
X24123627Y-12054920D02*
X24114103Y-12045396D01*
X24114103Y-12045396D02*
X24104579Y-12026348D01*
X24104579Y-12026348D02*
X24104579Y-11969206D01*
X24104579Y-11969206D02*
X24114103Y-11950158D01*
X24114103Y-11950158D02*
X24123627Y-11940634D01*
X24123627Y-11940634D02*
X24142674Y-11931110D01*
X24142674Y-11931110D02*
X24171246Y-11931110D01*
X24171246Y-11931110D02*
X24190293Y-11940634D01*
X24190293Y-11940634D02*
X24199817Y-11950158D01*
X24199817Y-11950158D02*
X24209341Y-11969206D01*
X24209341Y-11969206D02*
X24209341Y-12026348D01*
X24209341Y-12026348D02*
X24199817Y-12045396D01*
X24199817Y-12045396D02*
X24190293Y-12054920D01*
X24190293Y-12054920D02*
X24171246Y-12064444D01*
X24171246Y-12064444D02*
X24142674Y-12064444D01*
X24323627Y-12064444D02*
X24304579Y-12054920D01*
X24304579Y-12054920D02*
X24295055Y-12035872D01*
X24295055Y-12035872D02*
X24295055Y-11864444D01*
X24476008Y-12054920D02*
X24456960Y-12064444D01*
X24456960Y-12064444D02*
X24418865Y-12064444D01*
X24418865Y-12064444D02*
X24399817Y-12054920D01*
X24399817Y-12054920D02*
X24390293Y-12035872D01*
X24390293Y-12035872D02*
X24390293Y-11959682D01*
X24390293Y-11959682D02*
X24399817Y-11940634D01*
X24399817Y-11940634D02*
X24418865Y-11931110D01*
X24418865Y-11931110D02*
X24456960Y-11931110D01*
X24456960Y-11931110D02*
X24476008Y-11940634D01*
X24476008Y-11940634D02*
X24485531Y-11959682D01*
X24485531Y-11959682D02*
X24485531Y-11978729D01*
X24485531Y-11978729D02*
X24390293Y-11997777D01*
X24561722Y-12054920D02*
X24580770Y-12064444D01*
X24580770Y-12064444D02*
X24618865Y-12064444D01*
X24618865Y-12064444D02*
X24637912Y-12054920D01*
X24637912Y-12054920D02*
X24647436Y-12035872D01*
X24647436Y-12035872D02*
X24647436Y-12026348D01*
X24647436Y-12026348D02*
X24637912Y-12007301D01*
X24637912Y-12007301D02*
X24618865Y-11997777D01*
X24618865Y-11997777D02*
X24590293Y-11997777D01*
X24590293Y-11997777D02*
X24571246Y-11988253D01*
X24571246Y-11988253D02*
X24561722Y-11969206D01*
X24561722Y-11969206D02*
X24561722Y-11959682D01*
X24561722Y-11959682D02*
X24571246Y-11940634D01*
X24571246Y-11940634D02*
X24590293Y-11931110D01*
X24590293Y-11931110D02*
X24618865Y-11931110D01*
X24618865Y-11931110D02*
X24637912Y-11940634D01*
X24714103Y-12140634D02*
X24723627Y-12131110D01*
X24723627Y-12131110D02*
X24742674Y-12102539D01*
X24742674Y-12102539D02*
X24752198Y-12083491D01*
X24752198Y-12083491D02*
X24761722Y-12054920D01*
X24761722Y-12054920D02*
X24771246Y-12007301D01*
X24771246Y-12007301D02*
X24771246Y-11969206D01*
X24771246Y-11969206D02*
X24761722Y-11921587D01*
X24761722Y-11921587D02*
X24752198Y-11893015D01*
X24752198Y-11893015D02*
X24742674Y-11873968D01*
X24742674Y-11873968D02*
X24723627Y-11845396D01*
X24723627Y-11845396D02*
X24714103Y-11835872D01*
D14*
X19847600Y-12329400D02*
X19939040Y-12237960D01*
X19847600Y-12146520D01*
X19756160Y-12237960D01*
X19847600Y-12329400D01*
D11*
X20304579Y-12329444D02*
X20190293Y-12329444D01*
X20247436Y-12329444D02*
X20247436Y-12129444D01*
X20247436Y-12129444D02*
X20228388Y-12158015D01*
X20228388Y-12158015D02*
X20209341Y-12177063D01*
X20209341Y-12177063D02*
X20190293Y-12186587D01*
X20390293Y-12310396D02*
X20399817Y-12319920D01*
X20399817Y-12319920D02*
X20390293Y-12329444D01*
X20390293Y-12329444D02*
X20380769Y-12319920D01*
X20380769Y-12319920D02*
X20390293Y-12310396D01*
X20390293Y-12310396D02*
X20390293Y-12329444D01*
X20514103Y-12215158D02*
X20495055Y-12205634D01*
X20495055Y-12205634D02*
X20485531Y-12196110D01*
X20485531Y-12196110D02*
X20476007Y-12177063D01*
X20476007Y-12177063D02*
X20476007Y-12167539D01*
X20476007Y-12167539D02*
X20485531Y-12148491D01*
X20485531Y-12148491D02*
X20495055Y-12138968D01*
X20495055Y-12138968D02*
X20514103Y-12129444D01*
X20514103Y-12129444D02*
X20552198Y-12129444D01*
X20552198Y-12129444D02*
X20571245Y-12138968D01*
X20571245Y-12138968D02*
X20580769Y-12148491D01*
X20580769Y-12148491D02*
X20590293Y-12167539D01*
X20590293Y-12167539D02*
X20590293Y-12177063D01*
X20590293Y-12177063D02*
X20580769Y-12196110D01*
X20580769Y-12196110D02*
X20571245Y-12205634D01*
X20571245Y-12205634D02*
X20552198Y-12215158D01*
X20552198Y-12215158D02*
X20514103Y-12215158D01*
X20514103Y-12215158D02*
X20495055Y-12224682D01*
X20495055Y-12224682D02*
X20485531Y-12234206D01*
X20485531Y-12234206D02*
X20476007Y-12253253D01*
X20476007Y-12253253D02*
X20476007Y-12291348D01*
X20476007Y-12291348D02*
X20485531Y-12310396D01*
X20485531Y-12310396D02*
X20495055Y-12319920D01*
X20495055Y-12319920D02*
X20514103Y-12329444D01*
X20514103Y-12329444D02*
X20552198Y-12329444D01*
X20552198Y-12329444D02*
X20571245Y-12319920D01*
X20571245Y-12319920D02*
X20580769Y-12310396D01*
X20580769Y-12310396D02*
X20590293Y-12291348D01*
X20590293Y-12291348D02*
X20590293Y-12253253D01*
X20590293Y-12253253D02*
X20580769Y-12234206D01*
X20580769Y-12234206D02*
X20571245Y-12224682D01*
X20571245Y-12224682D02*
X20552198Y-12215158D01*
X20666484Y-12148491D02*
X20676007Y-12138968D01*
X20676007Y-12138968D02*
X20695055Y-12129444D01*
X20695055Y-12129444D02*
X20742674Y-12129444D01*
X20742674Y-12129444D02*
X20761722Y-12138968D01*
X20761722Y-12138968D02*
X20771245Y-12148491D01*
X20771245Y-12148491D02*
X20780769Y-12167539D01*
X20780769Y-12167539D02*
X20780769Y-12186587D01*
X20780769Y-12186587D02*
X20771245Y-12215158D01*
X20771245Y-12215158D02*
X20656960Y-12329444D01*
X20656960Y-12329444D02*
X20780769Y-12329444D01*
X20876007Y-12329444D02*
X20914103Y-12329444D01*
X20914103Y-12329444D02*
X20933150Y-12319920D01*
X20933150Y-12319920D02*
X20942674Y-12310396D01*
X20942674Y-12310396D02*
X20961722Y-12281825D01*
X20961722Y-12281825D02*
X20971245Y-12243729D01*
X20971245Y-12243729D02*
X20971245Y-12167539D01*
X20971245Y-12167539D02*
X20961722Y-12148491D01*
X20961722Y-12148491D02*
X20952198Y-12138968D01*
X20952198Y-12138968D02*
X20933150Y-12129444D01*
X20933150Y-12129444D02*
X20895055Y-12129444D01*
X20895055Y-12129444D02*
X20876007Y-12138968D01*
X20876007Y-12138968D02*
X20866484Y-12148491D01*
X20866484Y-12148491D02*
X20856960Y-12167539D01*
X20856960Y-12167539D02*
X20856960Y-12215158D01*
X20856960Y-12215158D02*
X20866484Y-12234206D01*
X20866484Y-12234206D02*
X20876007Y-12243729D01*
X20876007Y-12243729D02*
X20895055Y-12253253D01*
X20895055Y-12253253D02*
X20933150Y-12253253D01*
X20933150Y-12253253D02*
X20952198Y-12243729D01*
X20952198Y-12243729D02*
X20961722Y-12234206D01*
X20961722Y-12234206D02*
X20971245Y-12215158D01*
X21056960Y-12329444D02*
X21056960Y-12196110D01*
X21056960Y-12215158D02*
X21066484Y-12205634D01*
X21066484Y-12205634D02*
X21085531Y-12196110D01*
X21085531Y-12196110D02*
X21114103Y-12196110D01*
X21114103Y-12196110D02*
X21133150Y-12205634D01*
X21133150Y-12205634D02*
X21142674Y-12224682D01*
X21142674Y-12224682D02*
X21142674Y-12329444D01*
X21142674Y-12224682D02*
X21152198Y-12205634D01*
X21152198Y-12205634D02*
X21171245Y-12196110D01*
X21171245Y-12196110D02*
X21199817Y-12196110D01*
X21199817Y-12196110D02*
X21218865Y-12205634D01*
X21218865Y-12205634D02*
X21228388Y-12224682D01*
X21228388Y-12224682D02*
X21228388Y-12329444D01*
X21323626Y-12329444D02*
X21323626Y-12196110D01*
X21323626Y-12215158D02*
X21333150Y-12205634D01*
X21333150Y-12205634D02*
X21352198Y-12196110D01*
X21352198Y-12196110D02*
X21380769Y-12196110D01*
X21380769Y-12196110D02*
X21399817Y-12205634D01*
X21399817Y-12205634D02*
X21409341Y-12224682D01*
X21409341Y-12224682D02*
X21409341Y-12329444D01*
X21409341Y-12224682D02*
X21418865Y-12205634D01*
X21418865Y-12205634D02*
X21437912Y-12196110D01*
X21437912Y-12196110D02*
X21466484Y-12196110D01*
X21466484Y-12196110D02*
X21485531Y-12205634D01*
X21485531Y-12205634D02*
X21495055Y-12224682D01*
X21495055Y-12224682D02*
X21495055Y-12329444D01*
X21885531Y-12119920D02*
X21714103Y-12377063D01*
X22142674Y-12129444D02*
X22161722Y-12129444D01*
X22161722Y-12129444D02*
X22180769Y-12138968D01*
X22180769Y-12138968D02*
X22190293Y-12148491D01*
X22190293Y-12148491D02*
X22199817Y-12167539D01*
X22199817Y-12167539D02*
X22209341Y-12205634D01*
X22209341Y-12205634D02*
X22209341Y-12253253D01*
X22209341Y-12253253D02*
X22199817Y-12291348D01*
X22199817Y-12291348D02*
X22190293Y-12310396D01*
X22190293Y-12310396D02*
X22180769Y-12319920D01*
X22180769Y-12319920D02*
X22161722Y-12329444D01*
X22161722Y-12329444D02*
X22142674Y-12329444D01*
X22142674Y-12329444D02*
X22123627Y-12319920D01*
X22123627Y-12319920D02*
X22114103Y-12310396D01*
X22114103Y-12310396D02*
X22104579Y-12291348D01*
X22104579Y-12291348D02*
X22095055Y-12253253D01*
X22095055Y-12253253D02*
X22095055Y-12205634D01*
X22095055Y-12205634D02*
X22104579Y-12167539D01*
X22104579Y-12167539D02*
X22114103Y-12148491D01*
X22114103Y-12148491D02*
X22123627Y-12138968D01*
X22123627Y-12138968D02*
X22142674Y-12129444D01*
X22295055Y-12310396D02*
X22304579Y-12319920D01*
X22304579Y-12319920D02*
X22295055Y-12329444D01*
X22295055Y-12329444D02*
X22285531Y-12319920D01*
X22285531Y-12319920D02*
X22295055Y-12310396D01*
X22295055Y-12310396D02*
X22295055Y-12329444D01*
X22428388Y-12129444D02*
X22447436Y-12129444D01*
X22447436Y-12129444D02*
X22466484Y-12138968D01*
X22466484Y-12138968D02*
X22476007Y-12148491D01*
X22476007Y-12148491D02*
X22485531Y-12167539D01*
X22485531Y-12167539D02*
X22495055Y-12205634D01*
X22495055Y-12205634D02*
X22495055Y-12253253D01*
X22495055Y-12253253D02*
X22485531Y-12291348D01*
X22485531Y-12291348D02*
X22476007Y-12310396D01*
X22476007Y-12310396D02*
X22466484Y-12319920D01*
X22466484Y-12319920D02*
X22447436Y-12329444D01*
X22447436Y-12329444D02*
X22428388Y-12329444D01*
X22428388Y-12329444D02*
X22409341Y-12319920D01*
X22409341Y-12319920D02*
X22399817Y-12310396D01*
X22399817Y-12310396D02*
X22390293Y-12291348D01*
X22390293Y-12291348D02*
X22380769Y-12253253D01*
X22380769Y-12253253D02*
X22380769Y-12205634D01*
X22380769Y-12205634D02*
X22390293Y-12167539D01*
X22390293Y-12167539D02*
X22399817Y-12148491D01*
X22399817Y-12148491D02*
X22409341Y-12138968D01*
X22409341Y-12138968D02*
X22428388Y-12129444D01*
X22561722Y-12129444D02*
X22695055Y-12129444D01*
X22695055Y-12129444D02*
X22609341Y-12329444D01*
X22761722Y-12148491D02*
X22771246Y-12138968D01*
X22771246Y-12138968D02*
X22790293Y-12129444D01*
X22790293Y-12129444D02*
X22837912Y-12129444D01*
X22837912Y-12129444D02*
X22856960Y-12138968D01*
X22856960Y-12138968D02*
X22866484Y-12148491D01*
X22866484Y-12148491D02*
X22876007Y-12167539D01*
X22876007Y-12167539D02*
X22876007Y-12186587D01*
X22876007Y-12186587D02*
X22866484Y-12215158D01*
X22866484Y-12215158D02*
X22752198Y-12329444D01*
X22752198Y-12329444D02*
X22876007Y-12329444D01*
X22999817Y-12129444D02*
X23018865Y-12129444D01*
X23018865Y-12129444D02*
X23037912Y-12138968D01*
X23037912Y-12138968D02*
X23047436Y-12148491D01*
X23047436Y-12148491D02*
X23056960Y-12167539D01*
X23056960Y-12167539D02*
X23066484Y-12205634D01*
X23066484Y-12205634D02*
X23066484Y-12253253D01*
X23066484Y-12253253D02*
X23056960Y-12291348D01*
X23056960Y-12291348D02*
X23047436Y-12310396D01*
X23047436Y-12310396D02*
X23037912Y-12319920D01*
X23037912Y-12319920D02*
X23018865Y-12329444D01*
X23018865Y-12329444D02*
X22999817Y-12329444D01*
X22999817Y-12329444D02*
X22980769Y-12319920D01*
X22980769Y-12319920D02*
X22971246Y-12310396D01*
X22971246Y-12310396D02*
X22961722Y-12291348D01*
X22961722Y-12291348D02*
X22952198Y-12253253D01*
X22952198Y-12253253D02*
X22952198Y-12205634D01*
X22952198Y-12205634D02*
X22961722Y-12167539D01*
X22961722Y-12167539D02*
X22971246Y-12148491D01*
X22971246Y-12148491D02*
X22980769Y-12138968D01*
X22980769Y-12138968D02*
X22999817Y-12129444D01*
X23142674Y-12129444D02*
X23142674Y-12167539D01*
X23218865Y-12129444D02*
X23218865Y-12167539D01*
X23514103Y-12405634D02*
X23504579Y-12396110D01*
X23504579Y-12396110D02*
X23485531Y-12367539D01*
X23485531Y-12367539D02*
X23476008Y-12348491D01*
X23476008Y-12348491D02*
X23466484Y-12319920D01*
X23466484Y-12319920D02*
X23456960Y-12272301D01*
X23456960Y-12272301D02*
X23456960Y-12234206D01*
X23456960Y-12234206D02*
X23466484Y-12186587D01*
X23466484Y-12186587D02*
X23476008Y-12158015D01*
X23476008Y-12158015D02*
X23485531Y-12138968D01*
X23485531Y-12138968D02*
X23504579Y-12110396D01*
X23504579Y-12110396D02*
X23514103Y-12100872D01*
X23580769Y-12148491D02*
X23590293Y-12138968D01*
X23590293Y-12138968D02*
X23609341Y-12129444D01*
X23609341Y-12129444D02*
X23656960Y-12129444D01*
X23656960Y-12129444D02*
X23676008Y-12138968D01*
X23676008Y-12138968D02*
X23685531Y-12148491D01*
X23685531Y-12148491D02*
X23695055Y-12167539D01*
X23695055Y-12167539D02*
X23695055Y-12186587D01*
X23695055Y-12186587D02*
X23685531Y-12215158D01*
X23685531Y-12215158D02*
X23571246Y-12329444D01*
X23571246Y-12329444D02*
X23695055Y-12329444D01*
X23933150Y-12329444D02*
X23933150Y-12129444D01*
X24018865Y-12329444D02*
X24018865Y-12224682D01*
X24018865Y-12224682D02*
X24009341Y-12205634D01*
X24009341Y-12205634D02*
X23990293Y-12196110D01*
X23990293Y-12196110D02*
X23961722Y-12196110D01*
X23961722Y-12196110D02*
X23942674Y-12205634D01*
X23942674Y-12205634D02*
X23933150Y-12215158D01*
X24142674Y-12329444D02*
X24123627Y-12319920D01*
X24123627Y-12319920D02*
X24114103Y-12310396D01*
X24114103Y-12310396D02*
X24104579Y-12291348D01*
X24104579Y-12291348D02*
X24104579Y-12234206D01*
X24104579Y-12234206D02*
X24114103Y-12215158D01*
X24114103Y-12215158D02*
X24123627Y-12205634D01*
X24123627Y-12205634D02*
X24142674Y-12196110D01*
X24142674Y-12196110D02*
X24171246Y-12196110D01*
X24171246Y-12196110D02*
X24190293Y-12205634D01*
X24190293Y-12205634D02*
X24199817Y-12215158D01*
X24199817Y-12215158D02*
X24209341Y-12234206D01*
X24209341Y-12234206D02*
X24209341Y-12291348D01*
X24209341Y-12291348D02*
X24199817Y-12310396D01*
X24199817Y-12310396D02*
X24190293Y-12319920D01*
X24190293Y-12319920D02*
X24171246Y-12329444D01*
X24171246Y-12329444D02*
X24142674Y-12329444D01*
X24323627Y-12329444D02*
X24304579Y-12319920D01*
X24304579Y-12319920D02*
X24295055Y-12300872D01*
X24295055Y-12300872D02*
X24295055Y-12129444D01*
X24476008Y-12319920D02*
X24456960Y-12329444D01*
X24456960Y-12329444D02*
X24418865Y-12329444D01*
X24418865Y-12329444D02*
X24399817Y-12319920D01*
X24399817Y-12319920D02*
X24390293Y-12300872D01*
X24390293Y-12300872D02*
X24390293Y-12224682D01*
X24390293Y-12224682D02*
X24399817Y-12205634D01*
X24399817Y-12205634D02*
X24418865Y-12196110D01*
X24418865Y-12196110D02*
X24456960Y-12196110D01*
X24456960Y-12196110D02*
X24476008Y-12205634D01*
X24476008Y-12205634D02*
X24485531Y-12224682D01*
X24485531Y-12224682D02*
X24485531Y-12243729D01*
X24485531Y-12243729D02*
X24390293Y-12262777D01*
X24561722Y-12319920D02*
X24580770Y-12329444D01*
X24580770Y-12329444D02*
X24618865Y-12329444D01*
X24618865Y-12329444D02*
X24637912Y-12319920D01*
X24637912Y-12319920D02*
X24647436Y-12300872D01*
X24647436Y-12300872D02*
X24647436Y-12291348D01*
X24647436Y-12291348D02*
X24637912Y-12272301D01*
X24637912Y-12272301D02*
X24618865Y-12262777D01*
X24618865Y-12262777D02*
X24590293Y-12262777D01*
X24590293Y-12262777D02*
X24571246Y-12253253D01*
X24571246Y-12253253D02*
X24561722Y-12234206D01*
X24561722Y-12234206D02*
X24561722Y-12224682D01*
X24561722Y-12224682D02*
X24571246Y-12205634D01*
X24571246Y-12205634D02*
X24590293Y-12196110D01*
X24590293Y-12196110D02*
X24618865Y-12196110D01*
X24618865Y-12196110D02*
X24637912Y-12205634D01*
X24714103Y-12405634D02*
X24723627Y-12396110D01*
X24723627Y-12396110D02*
X24742674Y-12367539D01*
X24742674Y-12367539D02*
X24752198Y-12348491D01*
X24752198Y-12348491D02*
X24761722Y-12319920D01*
X24761722Y-12319920D02*
X24771246Y-12272301D01*
X24771246Y-12272301D02*
X24771246Y-12234206D01*
X24771246Y-12234206D02*
X24761722Y-12186587D01*
X24761722Y-12186587D02*
X24752198Y-12158015D01*
X24752198Y-12158015D02*
X24742674Y-12138968D01*
X24742674Y-12138968D02*
X24723627Y-12110396D01*
X24723627Y-12110396D02*
X24714103Y-12100872D01*
X19739040Y-12440840D02*
X19939040Y-12640840D01*
X19939040Y-12440840D02*
X19739040Y-12640840D01*
X19939040Y-12540840D02*
G75*
G02*
X19739040Y-12540840I-100000J0D01*
G01*
X19739040Y-12540840D02*
G75*
G02*
X19939040Y-12540840I100000J0D01*
G01*
X20180769Y-12432324D02*
X20304579Y-12432324D01*
X20304579Y-12432324D02*
X20237912Y-12508514D01*
X20237912Y-12508514D02*
X20266484Y-12508514D01*
X20266484Y-12508514D02*
X20285531Y-12518038D01*
X20285531Y-12518038D02*
X20295055Y-12527562D01*
X20295055Y-12527562D02*
X20304579Y-12546609D01*
X20304579Y-12546609D02*
X20304579Y-12594228D01*
X20304579Y-12594228D02*
X20295055Y-12613276D01*
X20295055Y-12613276D02*
X20285531Y-12622800D01*
X20285531Y-12622800D02*
X20266484Y-12632324D01*
X20266484Y-12632324D02*
X20209341Y-12632324D01*
X20209341Y-12632324D02*
X20190293Y-12622800D01*
X20190293Y-12622800D02*
X20180769Y-12613276D01*
X20390293Y-12613276D02*
X20399817Y-12622800D01*
X20399817Y-12622800D02*
X20390293Y-12632324D01*
X20390293Y-12632324D02*
X20380769Y-12622800D01*
X20380769Y-12622800D02*
X20390293Y-12613276D01*
X20390293Y-12613276D02*
X20390293Y-12632324D01*
X20476007Y-12451371D02*
X20485531Y-12441848D01*
X20485531Y-12441848D02*
X20504579Y-12432324D01*
X20504579Y-12432324D02*
X20552198Y-12432324D01*
X20552198Y-12432324D02*
X20571245Y-12441848D01*
X20571245Y-12441848D02*
X20580769Y-12451371D01*
X20580769Y-12451371D02*
X20590293Y-12470419D01*
X20590293Y-12470419D02*
X20590293Y-12489467D01*
X20590293Y-12489467D02*
X20580769Y-12518038D01*
X20580769Y-12518038D02*
X20466484Y-12632324D01*
X20466484Y-12632324D02*
X20590293Y-12632324D01*
X20714103Y-12432324D02*
X20733150Y-12432324D01*
X20733150Y-12432324D02*
X20752198Y-12441848D01*
X20752198Y-12441848D02*
X20761722Y-12451371D01*
X20761722Y-12451371D02*
X20771245Y-12470419D01*
X20771245Y-12470419D02*
X20780769Y-12508514D01*
X20780769Y-12508514D02*
X20780769Y-12556133D01*
X20780769Y-12556133D02*
X20771245Y-12594228D01*
X20771245Y-12594228D02*
X20761722Y-12613276D01*
X20761722Y-12613276D02*
X20752198Y-12622800D01*
X20752198Y-12622800D02*
X20733150Y-12632324D01*
X20733150Y-12632324D02*
X20714103Y-12632324D01*
X20714103Y-12632324D02*
X20695055Y-12622800D01*
X20695055Y-12622800D02*
X20685531Y-12613276D01*
X20685531Y-12613276D02*
X20676007Y-12594228D01*
X20676007Y-12594228D02*
X20666484Y-12556133D01*
X20666484Y-12556133D02*
X20666484Y-12508514D01*
X20666484Y-12508514D02*
X20676007Y-12470419D01*
X20676007Y-12470419D02*
X20685531Y-12451371D01*
X20685531Y-12451371D02*
X20695055Y-12441848D01*
X20695055Y-12441848D02*
X20714103Y-12432324D01*
X20904579Y-12432324D02*
X20923626Y-12432324D01*
X20923626Y-12432324D02*
X20942674Y-12441848D01*
X20942674Y-12441848D02*
X20952198Y-12451371D01*
X20952198Y-12451371D02*
X20961722Y-12470419D01*
X20961722Y-12470419D02*
X20971245Y-12508514D01*
X20971245Y-12508514D02*
X20971245Y-12556133D01*
X20971245Y-12556133D02*
X20961722Y-12594228D01*
X20961722Y-12594228D02*
X20952198Y-12613276D01*
X20952198Y-12613276D02*
X20942674Y-12622800D01*
X20942674Y-12622800D02*
X20923626Y-12632324D01*
X20923626Y-12632324D02*
X20904579Y-12632324D01*
X20904579Y-12632324D02*
X20885531Y-12622800D01*
X20885531Y-12622800D02*
X20876007Y-12613276D01*
X20876007Y-12613276D02*
X20866484Y-12594228D01*
X20866484Y-12594228D02*
X20856960Y-12556133D01*
X20856960Y-12556133D02*
X20856960Y-12508514D01*
X20856960Y-12508514D02*
X20866484Y-12470419D01*
X20866484Y-12470419D02*
X20876007Y-12451371D01*
X20876007Y-12451371D02*
X20885531Y-12441848D01*
X20885531Y-12441848D02*
X20904579Y-12432324D01*
X21056960Y-12632324D02*
X21056960Y-12498990D01*
X21056960Y-12518038D02*
X21066484Y-12508514D01*
X21066484Y-12508514D02*
X21085531Y-12498990D01*
X21085531Y-12498990D02*
X21114103Y-12498990D01*
X21114103Y-12498990D02*
X21133150Y-12508514D01*
X21133150Y-12508514D02*
X21142674Y-12527562D01*
X21142674Y-12527562D02*
X21142674Y-12632324D01*
X21142674Y-12527562D02*
X21152198Y-12508514D01*
X21152198Y-12508514D02*
X21171245Y-12498990D01*
X21171245Y-12498990D02*
X21199817Y-12498990D01*
X21199817Y-12498990D02*
X21218865Y-12508514D01*
X21218865Y-12508514D02*
X21228388Y-12527562D01*
X21228388Y-12527562D02*
X21228388Y-12632324D01*
X21323626Y-12632324D02*
X21323626Y-12498990D01*
X21323626Y-12518038D02*
X21333150Y-12508514D01*
X21333150Y-12508514D02*
X21352198Y-12498990D01*
X21352198Y-12498990D02*
X21380769Y-12498990D01*
X21380769Y-12498990D02*
X21399817Y-12508514D01*
X21399817Y-12508514D02*
X21409341Y-12527562D01*
X21409341Y-12527562D02*
X21409341Y-12632324D01*
X21409341Y-12527562D02*
X21418865Y-12508514D01*
X21418865Y-12508514D02*
X21437912Y-12498990D01*
X21437912Y-12498990D02*
X21466484Y-12498990D01*
X21466484Y-12498990D02*
X21485531Y-12508514D01*
X21485531Y-12508514D02*
X21495055Y-12527562D01*
X21495055Y-12527562D02*
X21495055Y-12632324D01*
X21885531Y-12422800D02*
X21714103Y-12679943D01*
X22142674Y-12432324D02*
X22161722Y-12432324D01*
X22161722Y-12432324D02*
X22180769Y-12441848D01*
X22180769Y-12441848D02*
X22190293Y-12451371D01*
X22190293Y-12451371D02*
X22199817Y-12470419D01*
X22199817Y-12470419D02*
X22209341Y-12508514D01*
X22209341Y-12508514D02*
X22209341Y-12556133D01*
X22209341Y-12556133D02*
X22199817Y-12594228D01*
X22199817Y-12594228D02*
X22190293Y-12613276D01*
X22190293Y-12613276D02*
X22180769Y-12622800D01*
X22180769Y-12622800D02*
X22161722Y-12632324D01*
X22161722Y-12632324D02*
X22142674Y-12632324D01*
X22142674Y-12632324D02*
X22123627Y-12622800D01*
X22123627Y-12622800D02*
X22114103Y-12613276D01*
X22114103Y-12613276D02*
X22104579Y-12594228D01*
X22104579Y-12594228D02*
X22095055Y-12556133D01*
X22095055Y-12556133D02*
X22095055Y-12508514D01*
X22095055Y-12508514D02*
X22104579Y-12470419D01*
X22104579Y-12470419D02*
X22114103Y-12451371D01*
X22114103Y-12451371D02*
X22123627Y-12441848D01*
X22123627Y-12441848D02*
X22142674Y-12432324D01*
X22295055Y-12613276D02*
X22304579Y-12622800D01*
X22304579Y-12622800D02*
X22295055Y-12632324D01*
X22295055Y-12632324D02*
X22285531Y-12622800D01*
X22285531Y-12622800D02*
X22295055Y-12613276D01*
X22295055Y-12613276D02*
X22295055Y-12632324D01*
X22495055Y-12632324D02*
X22380769Y-12632324D01*
X22437912Y-12632324D02*
X22437912Y-12432324D01*
X22437912Y-12432324D02*
X22418865Y-12460895D01*
X22418865Y-12460895D02*
X22399817Y-12479943D01*
X22399817Y-12479943D02*
X22380769Y-12489467D01*
X22571246Y-12451371D02*
X22580769Y-12441848D01*
X22580769Y-12441848D02*
X22599817Y-12432324D01*
X22599817Y-12432324D02*
X22647436Y-12432324D01*
X22647436Y-12432324D02*
X22666484Y-12441848D01*
X22666484Y-12441848D02*
X22676007Y-12451371D01*
X22676007Y-12451371D02*
X22685531Y-12470419D01*
X22685531Y-12470419D02*
X22685531Y-12489467D01*
X22685531Y-12489467D02*
X22676007Y-12518038D01*
X22676007Y-12518038D02*
X22561722Y-12632324D01*
X22561722Y-12632324D02*
X22685531Y-12632324D01*
X22856960Y-12432324D02*
X22818865Y-12432324D01*
X22818865Y-12432324D02*
X22799817Y-12441848D01*
X22799817Y-12441848D02*
X22790293Y-12451371D01*
X22790293Y-12451371D02*
X22771246Y-12479943D01*
X22771246Y-12479943D02*
X22761722Y-12518038D01*
X22761722Y-12518038D02*
X22761722Y-12594228D01*
X22761722Y-12594228D02*
X22771246Y-12613276D01*
X22771246Y-12613276D02*
X22780769Y-12622800D01*
X22780769Y-12622800D02*
X22799817Y-12632324D01*
X22799817Y-12632324D02*
X22837912Y-12632324D01*
X22837912Y-12632324D02*
X22856960Y-12622800D01*
X22856960Y-12622800D02*
X22866484Y-12613276D01*
X22866484Y-12613276D02*
X22876007Y-12594228D01*
X22876007Y-12594228D02*
X22876007Y-12546609D01*
X22876007Y-12546609D02*
X22866484Y-12527562D01*
X22866484Y-12527562D02*
X22856960Y-12518038D01*
X22856960Y-12518038D02*
X22837912Y-12508514D01*
X22837912Y-12508514D02*
X22799817Y-12508514D01*
X22799817Y-12508514D02*
X22780769Y-12518038D01*
X22780769Y-12518038D02*
X22771246Y-12527562D01*
X22771246Y-12527562D02*
X22761722Y-12546609D01*
X22999817Y-12432324D02*
X23018865Y-12432324D01*
X23018865Y-12432324D02*
X23037912Y-12441848D01*
X23037912Y-12441848D02*
X23047436Y-12451371D01*
X23047436Y-12451371D02*
X23056960Y-12470419D01*
X23056960Y-12470419D02*
X23066484Y-12508514D01*
X23066484Y-12508514D02*
X23066484Y-12556133D01*
X23066484Y-12556133D02*
X23056960Y-12594228D01*
X23056960Y-12594228D02*
X23047436Y-12613276D01*
X23047436Y-12613276D02*
X23037912Y-12622800D01*
X23037912Y-12622800D02*
X23018865Y-12632324D01*
X23018865Y-12632324D02*
X22999817Y-12632324D01*
X22999817Y-12632324D02*
X22980769Y-12622800D01*
X22980769Y-12622800D02*
X22971246Y-12613276D01*
X22971246Y-12613276D02*
X22961722Y-12594228D01*
X22961722Y-12594228D02*
X22952198Y-12556133D01*
X22952198Y-12556133D02*
X22952198Y-12508514D01*
X22952198Y-12508514D02*
X22961722Y-12470419D01*
X22961722Y-12470419D02*
X22971246Y-12451371D01*
X22971246Y-12451371D02*
X22980769Y-12441848D01*
X22980769Y-12441848D02*
X22999817Y-12432324D01*
X23142674Y-12432324D02*
X23142674Y-12470419D01*
X23218865Y-12432324D02*
X23218865Y-12470419D01*
X23514103Y-12708514D02*
X23504579Y-12698990D01*
X23504579Y-12698990D02*
X23485531Y-12670419D01*
X23485531Y-12670419D02*
X23476008Y-12651371D01*
X23476008Y-12651371D02*
X23466484Y-12622800D01*
X23466484Y-12622800D02*
X23456960Y-12575181D01*
X23456960Y-12575181D02*
X23456960Y-12537086D01*
X23456960Y-12537086D02*
X23466484Y-12489467D01*
X23466484Y-12489467D02*
X23476008Y-12460895D01*
X23476008Y-12460895D02*
X23485531Y-12441848D01*
X23485531Y-12441848D02*
X23504579Y-12413276D01*
X23504579Y-12413276D02*
X23514103Y-12403752D01*
X23676008Y-12498990D02*
X23676008Y-12632324D01*
X23628388Y-12422800D02*
X23580769Y-12565657D01*
X23580769Y-12565657D02*
X23704579Y-12565657D01*
X23933150Y-12632324D02*
X23933150Y-12432324D01*
X24018865Y-12632324D02*
X24018865Y-12527562D01*
X24018865Y-12527562D02*
X24009341Y-12508514D01*
X24009341Y-12508514D02*
X23990293Y-12498990D01*
X23990293Y-12498990D02*
X23961722Y-12498990D01*
X23961722Y-12498990D02*
X23942674Y-12508514D01*
X23942674Y-12508514D02*
X23933150Y-12518038D01*
X24142674Y-12632324D02*
X24123627Y-12622800D01*
X24123627Y-12622800D02*
X24114103Y-12613276D01*
X24114103Y-12613276D02*
X24104579Y-12594228D01*
X24104579Y-12594228D02*
X24104579Y-12537086D01*
X24104579Y-12537086D02*
X24114103Y-12518038D01*
X24114103Y-12518038D02*
X24123627Y-12508514D01*
X24123627Y-12508514D02*
X24142674Y-12498990D01*
X24142674Y-12498990D02*
X24171246Y-12498990D01*
X24171246Y-12498990D02*
X24190293Y-12508514D01*
X24190293Y-12508514D02*
X24199817Y-12518038D01*
X24199817Y-12518038D02*
X24209341Y-12537086D01*
X24209341Y-12537086D02*
X24209341Y-12594228D01*
X24209341Y-12594228D02*
X24199817Y-12613276D01*
X24199817Y-12613276D02*
X24190293Y-12622800D01*
X24190293Y-12622800D02*
X24171246Y-12632324D01*
X24171246Y-12632324D02*
X24142674Y-12632324D01*
X24323627Y-12632324D02*
X24304579Y-12622800D01*
X24304579Y-12622800D02*
X24295055Y-12603752D01*
X24295055Y-12603752D02*
X24295055Y-12432324D01*
X24476008Y-12622800D02*
X24456960Y-12632324D01*
X24456960Y-12632324D02*
X24418865Y-12632324D01*
X24418865Y-12632324D02*
X24399817Y-12622800D01*
X24399817Y-12622800D02*
X24390293Y-12603752D01*
X24390293Y-12603752D02*
X24390293Y-12527562D01*
X24390293Y-12527562D02*
X24399817Y-12508514D01*
X24399817Y-12508514D02*
X24418865Y-12498990D01*
X24418865Y-12498990D02*
X24456960Y-12498990D01*
X24456960Y-12498990D02*
X24476008Y-12508514D01*
X24476008Y-12508514D02*
X24485531Y-12527562D01*
X24485531Y-12527562D02*
X24485531Y-12546609D01*
X24485531Y-12546609D02*
X24390293Y-12565657D01*
X24561722Y-12622800D02*
X24580770Y-12632324D01*
X24580770Y-12632324D02*
X24618865Y-12632324D01*
X24618865Y-12632324D02*
X24637912Y-12622800D01*
X24637912Y-12622800D02*
X24647436Y-12603752D01*
X24647436Y-12603752D02*
X24647436Y-12594228D01*
X24647436Y-12594228D02*
X24637912Y-12575181D01*
X24637912Y-12575181D02*
X24618865Y-12565657D01*
X24618865Y-12565657D02*
X24590293Y-12565657D01*
X24590293Y-12565657D02*
X24571246Y-12556133D01*
X24571246Y-12556133D02*
X24561722Y-12537086D01*
X24561722Y-12537086D02*
X24561722Y-12527562D01*
X24561722Y-12527562D02*
X24571246Y-12508514D01*
X24571246Y-12508514D02*
X24590293Y-12498990D01*
X24590293Y-12498990D02*
X24618865Y-12498990D01*
X24618865Y-12498990D02*
X24637912Y-12508514D01*
X24714103Y-12708514D02*
X24723627Y-12698990D01*
X24723627Y-12698990D02*
X24742674Y-12670419D01*
X24742674Y-12670419D02*
X24752198Y-12651371D01*
X24752198Y-12651371D02*
X24761722Y-12622800D01*
X24761722Y-12622800D02*
X24771246Y-12575181D01*
X24771246Y-12575181D02*
X24771246Y-12537086D01*
X24771246Y-12537086D02*
X24761722Y-12489467D01*
X24761722Y-12489467D02*
X24752198Y-12460895D01*
X24752198Y-12460895D02*
X24742674Y-12441848D01*
X24742674Y-12441848D02*
X24723627Y-12413276D01*
X24723627Y-12413276D02*
X24714103Y-12403752D01*
M02*
