G04 #@! TF.GenerationSoftware,KiCad,Pcbnew,(5.1.2)-1*
G04 #@! TF.CreationDate,2020-02-23T20:11:06-05:00*
G04 #@! TF.ProjectId,telemetry_transmitter,74656c65-6d65-4747-9279-5f7472616e73,rev?*
G04 #@! TF.SameCoordinates,Original*
G04 #@! TF.FileFunction,Legend,Top*
G04 #@! TF.FilePolarity,Positive*
%FSLAX46Y46*%
G04 Gerber Fmt 4.6, Leading zero omitted, Abs format (unit mm)*
G04 Created by KiCad (PCBNEW (5.1.2)-1) date 2020-02-23 20:11:06*
%MOMM*%
%LPD*%
G04 APERTURE LIST*
%ADD10C,0.150000*%
%ADD11C,0.010000*%
%ADD12C,0.120000*%
%ADD13C,0.200000*%
%ADD14C,0.127000*%
G04 APERTURE END LIST*
D10*
X158399409Y-75500980D02*
X158970838Y-75500980D01*
X158685123Y-76500980D02*
X158685123Y-75500980D01*
X159447028Y-76500980D02*
X159351790Y-76453361D01*
X159304171Y-76405742D01*
X159256552Y-76310504D01*
X159256552Y-76024790D01*
X159304171Y-75929552D01*
X159351790Y-75881933D01*
X159447028Y-75834314D01*
X159589885Y-75834314D01*
X159685123Y-75881933D01*
X159732742Y-75929552D01*
X159780361Y-76024790D01*
X159780361Y-76310504D01*
X159732742Y-76405742D01*
X159685123Y-76453361D01*
X159589885Y-76500980D01*
X159447028Y-76500980D01*
X160208933Y-76500980D02*
X160208933Y-75500980D01*
X160304171Y-76120028D02*
X160589885Y-76500980D01*
X160589885Y-75834314D02*
X160208933Y-76215266D01*
X160923219Y-75834314D02*
X161161314Y-76500980D01*
X161399409Y-75834314D02*
X161161314Y-76500980D01*
X161066076Y-76739076D01*
X161018457Y-76786695D01*
X160923219Y-76834314D01*
X161923219Y-76500980D02*
X161827980Y-76453361D01*
X161780361Y-76405742D01*
X161732742Y-76310504D01*
X161732742Y-76024790D01*
X161780361Y-75929552D01*
X161827980Y-75881933D01*
X161923219Y-75834314D01*
X162066076Y-75834314D01*
X162161314Y-75881933D01*
X162208933Y-75929552D01*
X162256552Y-76024790D01*
X162256552Y-76310504D01*
X162208933Y-76405742D01*
X162161314Y-76453361D01*
X162066076Y-76500980D01*
X161923219Y-76500980D01*
X157185123Y-78150980D02*
X157185123Y-77150980D01*
X157423219Y-77150980D01*
X157566076Y-77198600D01*
X157661314Y-77293838D01*
X157708933Y-77389076D01*
X157756552Y-77579552D01*
X157756552Y-77722409D01*
X157708933Y-77912885D01*
X157661314Y-78008123D01*
X157566076Y-78103361D01*
X157423219Y-78150980D01*
X157185123Y-78150980D01*
X158185123Y-78055742D02*
X158232742Y-78103361D01*
X158185123Y-78150980D01*
X158137504Y-78103361D01*
X158185123Y-78055742D01*
X158185123Y-78150980D01*
X159423219Y-78150980D02*
X159423219Y-77150980D01*
X159994647Y-78150980D02*
X159566076Y-77579552D01*
X159994647Y-77150980D02*
X159423219Y-77722409D01*
X160566076Y-78150980D02*
X160470838Y-78103361D01*
X160423219Y-78008123D01*
X160423219Y-77150980D01*
X161327980Y-78103361D02*
X161232742Y-78150980D01*
X161042266Y-78150980D01*
X160947028Y-78103361D01*
X160899409Y-78008123D01*
X160899409Y-77627171D01*
X160947028Y-77531933D01*
X161042266Y-77484314D01*
X161232742Y-77484314D01*
X161327980Y-77531933D01*
X161375600Y-77627171D01*
X161375600Y-77722409D01*
X160899409Y-77817647D01*
X161661314Y-77484314D02*
X162042266Y-77484314D01*
X161804171Y-77150980D02*
X161804171Y-78008123D01*
X161851790Y-78103361D01*
X161947028Y-78150980D01*
X162042266Y-78150980D01*
X162375600Y-78150980D02*
X162375600Y-77150980D01*
X162470838Y-77770028D02*
X162756552Y-78150980D01*
X162756552Y-77484314D02*
X162375600Y-77865266D01*
X163566076Y-78103361D02*
X163470838Y-78150980D01*
X163280361Y-78150980D01*
X163185123Y-78103361D01*
X163137504Y-78008123D01*
X163137504Y-77627171D01*
X163185123Y-77531933D01*
X163280361Y-77484314D01*
X163470838Y-77484314D01*
X163566076Y-77531933D01*
X163613695Y-77627171D01*
X163613695Y-77722409D01*
X163137504Y-77817647D01*
X155518457Y-78896219D02*
X155566076Y-78848600D01*
X155661314Y-78800980D01*
X155899409Y-78800980D01*
X155994647Y-78848600D01*
X156042266Y-78896219D01*
X156089885Y-78991457D01*
X156089885Y-79086695D01*
X156042266Y-79229552D01*
X155470838Y-79800980D01*
X156089885Y-79800980D01*
X156708933Y-78800980D02*
X156804171Y-78800980D01*
X156899409Y-78848600D01*
X156947028Y-78896219D01*
X156994647Y-78991457D01*
X157042266Y-79181933D01*
X157042266Y-79420028D01*
X156994647Y-79610504D01*
X156947028Y-79705742D01*
X156899409Y-79753361D01*
X156804171Y-79800980D01*
X156708933Y-79800980D01*
X156613695Y-79753361D01*
X156566076Y-79705742D01*
X156518457Y-79610504D01*
X156470838Y-79420028D01*
X156470838Y-79181933D01*
X156518457Y-78991457D01*
X156566076Y-78896219D01*
X156613695Y-78848600D01*
X156708933Y-78800980D01*
X157423219Y-78896219D02*
X157470838Y-78848600D01*
X157566076Y-78800980D01*
X157804171Y-78800980D01*
X157899409Y-78848600D01*
X157947028Y-78896219D01*
X157994647Y-78991457D01*
X157994647Y-79086695D01*
X157947028Y-79229552D01*
X157375600Y-79800980D01*
X157994647Y-79800980D01*
X158613695Y-78800980D02*
X158708933Y-78800980D01*
X158804171Y-78848600D01*
X158851790Y-78896219D01*
X158899409Y-78991457D01*
X158947028Y-79181933D01*
X158947028Y-79420028D01*
X158899409Y-79610504D01*
X158851790Y-79705742D01*
X158804171Y-79753361D01*
X158708933Y-79800980D01*
X158613695Y-79800980D01*
X158518457Y-79753361D01*
X158470838Y-79705742D01*
X158423219Y-79610504D01*
X158375600Y-79420028D01*
X158375600Y-79181933D01*
X158423219Y-78991457D01*
X158470838Y-78896219D01*
X158518457Y-78848600D01*
X158613695Y-78800980D01*
X159375600Y-79420028D02*
X160137504Y-79420028D01*
X160804171Y-78800980D02*
X160899409Y-78800980D01*
X160994647Y-78848600D01*
X161042266Y-78896219D01*
X161089885Y-78991457D01*
X161137504Y-79181933D01*
X161137504Y-79420028D01*
X161089885Y-79610504D01*
X161042266Y-79705742D01*
X160994647Y-79753361D01*
X160899409Y-79800980D01*
X160804171Y-79800980D01*
X160708933Y-79753361D01*
X160661314Y-79705742D01*
X160613695Y-79610504D01*
X160566076Y-79420028D01*
X160566076Y-79181933D01*
X160613695Y-78991457D01*
X160661314Y-78896219D01*
X160708933Y-78848600D01*
X160804171Y-78800980D01*
X161518457Y-78896219D02*
X161566076Y-78848600D01*
X161661314Y-78800980D01*
X161899409Y-78800980D01*
X161994647Y-78848600D01*
X162042266Y-78896219D01*
X162089885Y-78991457D01*
X162089885Y-79086695D01*
X162042266Y-79229552D01*
X161470838Y-79800980D01*
X162089885Y-79800980D01*
X162518457Y-79420028D02*
X163280361Y-79420028D01*
X163708933Y-78896219D02*
X163756552Y-78848600D01*
X163851790Y-78800980D01*
X164089885Y-78800980D01*
X164185123Y-78848600D01*
X164232742Y-78896219D01*
X164280361Y-78991457D01*
X164280361Y-79086695D01*
X164232742Y-79229552D01*
X163661314Y-79800980D01*
X164280361Y-79800980D01*
X164613695Y-78800980D02*
X165232742Y-78800980D01*
X164899409Y-79181933D01*
X165042266Y-79181933D01*
X165137504Y-79229552D01*
X165185123Y-79277171D01*
X165232742Y-79372409D01*
X165232742Y-79610504D01*
X165185123Y-79705742D01*
X165137504Y-79753361D01*
X165042266Y-79800980D01*
X164756552Y-79800980D01*
X164661314Y-79753361D01*
X164613695Y-79705742D01*
X130490980Y-74974295D02*
X130490980Y-74355247D01*
X130871933Y-74688580D01*
X130871933Y-74545723D01*
X130919552Y-74450485D01*
X130967171Y-74402866D01*
X131062409Y-74355247D01*
X131300504Y-74355247D01*
X131395742Y-74402866D01*
X131443361Y-74450485D01*
X131490980Y-74545723D01*
X131490980Y-74831438D01*
X131443361Y-74926676D01*
X131395742Y-74974295D01*
X130490980Y-74069533D02*
X131490980Y-73736200D01*
X130490980Y-73402866D01*
X130490980Y-73164771D02*
X130490980Y-72545723D01*
X130871933Y-72879057D01*
X130871933Y-72736200D01*
X130919552Y-72640961D01*
X130967171Y-72593342D01*
X131062409Y-72545723D01*
X131300504Y-72545723D01*
X131395742Y-72593342D01*
X131443361Y-72640961D01*
X131490980Y-72736200D01*
X131490980Y-73021914D01*
X131443361Y-73117152D01*
X131395742Y-73164771D01*
X127583600Y-76347390D02*
X127583600Y-75204533D01*
X128950980Y-76109295D02*
X127950980Y-76109295D01*
X128665266Y-75775961D01*
X127950980Y-75442628D01*
X128950980Y-75442628D01*
X127583600Y-75204533D02*
X127583600Y-74204533D01*
X128855742Y-74395009D02*
X128903361Y-74442628D01*
X128950980Y-74585485D01*
X128950980Y-74680723D01*
X128903361Y-74823580D01*
X128808123Y-74918819D01*
X128712885Y-74966438D01*
X128522409Y-75014057D01*
X128379552Y-75014057D01*
X128189076Y-74966438D01*
X128093838Y-74918819D01*
X127998600Y-74823580D01*
X127950980Y-74680723D01*
X127950980Y-74585485D01*
X127998600Y-74442628D01*
X128046219Y-74395009D01*
X127583600Y-74204533D02*
X127583600Y-73395009D01*
X128950980Y-73490247D02*
X128950980Y-73966438D01*
X127950980Y-73966438D01*
X127583600Y-73395009D02*
X127583600Y-72395009D01*
X128950980Y-72585485D02*
X128474790Y-72918819D01*
X128950980Y-73156914D02*
X127950980Y-73156914D01*
X127950980Y-72775961D01*
X127998600Y-72680723D01*
X128046219Y-72633104D01*
X128141457Y-72585485D01*
X128284314Y-72585485D01*
X128379552Y-72633104D01*
X128427171Y-72680723D01*
X128474790Y-72775961D01*
X128474790Y-73156914D01*
X137139371Y-85916923D02*
X137186990Y-85774066D01*
X137234609Y-85726447D01*
X137329847Y-85678828D01*
X137472704Y-85678828D01*
X137567942Y-85726447D01*
X137615561Y-85774066D01*
X137663180Y-85869304D01*
X137663180Y-86250257D01*
X136663180Y-86250257D01*
X136663180Y-85916923D01*
X136710800Y-85821685D01*
X136758419Y-85774066D01*
X136853657Y-85726447D01*
X136948895Y-85726447D01*
X137044133Y-85774066D01*
X137091752Y-85821685D01*
X137139371Y-85916923D01*
X137139371Y-86250257D01*
X137663180Y-84774066D02*
X137663180Y-85250257D01*
X136663180Y-85250257D01*
X136663180Y-84440733D02*
X137472704Y-84440733D01*
X137567942Y-84393114D01*
X137615561Y-84345495D01*
X137663180Y-84250257D01*
X137663180Y-84059780D01*
X137615561Y-83964542D01*
X137567942Y-83916923D01*
X137472704Y-83869304D01*
X136663180Y-83869304D01*
X137139371Y-83393114D02*
X137139371Y-83059780D01*
X137663180Y-82916923D02*
X137663180Y-83393114D01*
X136663180Y-83393114D01*
X136663180Y-82916923D01*
X132887980Y-85301057D02*
X132411790Y-85634390D01*
X132887980Y-85872485D02*
X131887980Y-85872485D01*
X131887980Y-85491533D01*
X131935600Y-85396295D01*
X131983219Y-85348676D01*
X132078457Y-85301057D01*
X132221314Y-85301057D01*
X132316552Y-85348676D01*
X132364171Y-85396295D01*
X132411790Y-85491533D01*
X132411790Y-85872485D01*
X132364171Y-84872485D02*
X132364171Y-84539152D01*
X132887980Y-84396295D02*
X132887980Y-84872485D01*
X131887980Y-84872485D01*
X131887980Y-84396295D01*
X132887980Y-83967723D02*
X131887980Y-83967723D01*
X131887980Y-83729628D01*
X131935600Y-83586771D01*
X132030838Y-83491533D01*
X132126076Y-83443914D01*
X132316552Y-83396295D01*
X132459409Y-83396295D01*
X132649885Y-83443914D01*
X132745123Y-83491533D01*
X132840361Y-83586771D01*
X132887980Y-83729628D01*
X132887980Y-83967723D01*
X127163580Y-86707409D02*
X128163580Y-86469314D01*
X127449295Y-86278838D01*
X128163580Y-86088361D01*
X127163580Y-85850266D01*
X128163580Y-85469314D02*
X127163580Y-85469314D01*
X127639771Y-85469314D02*
X127639771Y-84897885D01*
X128163580Y-84897885D02*
X127163580Y-84897885D01*
X128163580Y-84421695D02*
X127163580Y-84421695D01*
X127163580Y-84088361D02*
X127163580Y-83516933D01*
X128163580Y-83802647D02*
X127163580Y-83802647D01*
X127639771Y-83183600D02*
X127639771Y-82850266D01*
X128163580Y-82707409D02*
X128163580Y-83183600D01*
X127163580Y-83183600D01*
X127163580Y-82707409D01*
D11*
G36*
X160510514Y-70948305D02*
G01*
X160521116Y-70965469D01*
X160537333Y-70992894D01*
X160558617Y-71029615D01*
X160584417Y-71074669D01*
X160614183Y-71127090D01*
X160647365Y-71185915D01*
X160683413Y-71250178D01*
X160721776Y-71318917D01*
X160755047Y-71378794D01*
X160794969Y-71450767D01*
X160832998Y-71519295D01*
X160868583Y-71583388D01*
X160901174Y-71642056D01*
X160930219Y-71694308D01*
X160955169Y-71739155D01*
X160975473Y-71775605D01*
X160990580Y-71802670D01*
X160999939Y-71819358D01*
X161002934Y-71824597D01*
X161007157Y-71826001D01*
X161017010Y-71824350D01*
X161033513Y-71819251D01*
X161057690Y-71810309D01*
X161090562Y-71797128D01*
X161133151Y-71779316D01*
X161186480Y-71756476D01*
X161243383Y-71731785D01*
X161296829Y-71708660D01*
X161346233Y-71687598D01*
X161390155Y-71669190D01*
X161427157Y-71654025D01*
X161455799Y-71642693D01*
X161474643Y-71635782D01*
X161482251Y-71633882D01*
X161482300Y-71633917D01*
X161482280Y-71641323D01*
X161480995Y-71661608D01*
X161478530Y-71693799D01*
X161474971Y-71736922D01*
X161470405Y-71790005D01*
X161464918Y-71852073D01*
X161458595Y-71922155D01*
X161451524Y-71999276D01*
X161443790Y-72082464D01*
X161435480Y-72170745D01*
X161426680Y-72263147D01*
X161425206Y-72278513D01*
X161416321Y-72371458D01*
X161407882Y-72460414D01*
X161399979Y-72544410D01*
X161392699Y-72622477D01*
X161386132Y-72693644D01*
X161380364Y-72756941D01*
X161375485Y-72811398D01*
X161371583Y-72856043D01*
X161368746Y-72889907D01*
X161367062Y-72912019D01*
X161366620Y-72921410D01*
X161366673Y-72921669D01*
X161372252Y-72917711D01*
X161387288Y-72905287D01*
X161410857Y-72885203D01*
X161442034Y-72858263D01*
X161479896Y-72825273D01*
X161523518Y-72787036D01*
X161571976Y-72744359D01*
X161624345Y-72698046D01*
X161670661Y-72656940D01*
X161725708Y-72608094D01*
X161777700Y-72562123D01*
X161825700Y-72519845D01*
X161868774Y-72482076D01*
X161905985Y-72449633D01*
X161936397Y-72423331D01*
X161959075Y-72403987D01*
X161973082Y-72392418D01*
X161977453Y-72389305D01*
X161979578Y-72390863D01*
X161982842Y-72396308D01*
X161987699Y-72406798D01*
X161994601Y-72423489D01*
X162004001Y-72447538D01*
X162016351Y-72480102D01*
X162032103Y-72522339D01*
X162051711Y-72575404D01*
X162074353Y-72636983D01*
X162095027Y-72693292D01*
X162035726Y-72761702D01*
X161959216Y-72852206D01*
X161878967Y-72951295D01*
X161796104Y-73057360D01*
X161711753Y-73168791D01*
X161627040Y-73283978D01*
X161543090Y-73401311D01*
X161461029Y-73519179D01*
X161381982Y-73635973D01*
X161307076Y-73750083D01*
X161237436Y-73859899D01*
X161174187Y-73963810D01*
X161118456Y-74060207D01*
X161084792Y-74121837D01*
X161047001Y-74193023D01*
X161024045Y-74159658D01*
X160980284Y-74091295D01*
X160934939Y-74011622D01*
X160889100Y-73922987D01*
X160843857Y-73827737D01*
X160800302Y-73728221D01*
X160759525Y-73626787D01*
X160722616Y-73525783D01*
X160704408Y-73471414D01*
X160671575Y-73364380D01*
X160638711Y-73246797D01*
X160606645Y-73122006D01*
X160576205Y-72993348D01*
X160548219Y-72864166D01*
X160526446Y-72753597D01*
X160506729Y-72648164D01*
X160470904Y-72826666D01*
X160431313Y-73012552D01*
X160389607Y-73185690D01*
X160345410Y-73347138D01*
X160298347Y-73497956D01*
X160248043Y-73639203D01*
X160194122Y-73771939D01*
X160136209Y-73897222D01*
X160073930Y-74016114D01*
X160012869Y-74120089D01*
X159996244Y-74146504D01*
X159982032Y-74168256D01*
X159971957Y-74182756D01*
X159968046Y-74187389D01*
X159962881Y-74183039D01*
X159953266Y-74168740D01*
X159940837Y-74147059D01*
X159933563Y-74133249D01*
X159893115Y-74057884D01*
X159844491Y-73973461D01*
X159788679Y-73881395D01*
X159726666Y-73783102D01*
X159659441Y-73679997D01*
X159587991Y-73573497D01*
X159513304Y-73465016D01*
X159436369Y-73355972D01*
X159358174Y-73247779D01*
X159279706Y-73141854D01*
X159201953Y-73039613D01*
X159125904Y-72942470D01*
X159052547Y-72851842D01*
X158982869Y-72769145D01*
X158976433Y-72761702D01*
X158917133Y-72693292D01*
X158937806Y-72636983D01*
X158961504Y-72572536D01*
X158980916Y-72520018D01*
X158996492Y-72478274D01*
X159008685Y-72446148D01*
X159017947Y-72422482D01*
X159024730Y-72406122D01*
X159029486Y-72395910D01*
X159032667Y-72390691D01*
X159034632Y-72389305D01*
X159040722Y-72393801D01*
X159056264Y-72406745D01*
X159080320Y-72427321D01*
X159111955Y-72454713D01*
X159150234Y-72488106D01*
X159194220Y-72526683D01*
X159242978Y-72569628D01*
X159295571Y-72616126D01*
X159341501Y-72656862D01*
X159396464Y-72705591D01*
X159448287Y-72751362D01*
X159496046Y-72793373D01*
X159538818Y-72830818D01*
X159575678Y-72862892D01*
X159605702Y-72888790D01*
X159627966Y-72907709D01*
X159641545Y-72918844D01*
X159645564Y-72921592D01*
X159645325Y-72914409D01*
X159643830Y-72894344D01*
X159641167Y-72862366D01*
X159637425Y-72819447D01*
X159632693Y-72766555D01*
X159627059Y-72704661D01*
X159620611Y-72634736D01*
X159613438Y-72557750D01*
X159605627Y-72474672D01*
X159597269Y-72386473D01*
X159596189Y-72375159D01*
X160253220Y-72375159D01*
X160255763Y-72375901D01*
X160265988Y-72368370D01*
X160281768Y-72354164D01*
X160283810Y-72352206D01*
X160308428Y-72331713D01*
X160339018Y-72310708D01*
X160366902Y-72294829D01*
X160429012Y-72271244D01*
X160492061Y-72261174D01*
X160554673Y-72264410D01*
X160615472Y-72280743D01*
X160673081Y-72309963D01*
X160723052Y-72348953D01*
X160740862Y-72364819D01*
X160753504Y-72374524D01*
X160758892Y-72376524D01*
X160758781Y-72375387D01*
X160756097Y-72367017D01*
X160749647Y-72346551D01*
X160739804Y-72315181D01*
X160726941Y-72274098D01*
X160711430Y-72224496D01*
X160693644Y-72167564D01*
X160673957Y-72104497D01*
X160652740Y-72036485D01*
X160631480Y-71968291D01*
X160609247Y-71897000D01*
X160588258Y-71829771D01*
X160568873Y-71767761D01*
X160551457Y-71712128D01*
X160536371Y-71664028D01*
X160523980Y-71624619D01*
X160514646Y-71595058D01*
X160508731Y-71576503D01*
X160506604Y-71570112D01*
X160504370Y-71576288D01*
X160498365Y-71594610D01*
X160488952Y-71623936D01*
X160476491Y-71663122D01*
X160461345Y-71711024D01*
X160443874Y-71766500D01*
X160424441Y-71828405D01*
X160403407Y-71895596D01*
X160381183Y-71966770D01*
X160358801Y-72038509D01*
X160337591Y-72106432D01*
X160317924Y-72169351D01*
X160300173Y-72226077D01*
X160284712Y-72275421D01*
X160271911Y-72316195D01*
X160262144Y-72347211D01*
X160255783Y-72367279D01*
X160253220Y-72375159D01*
X159596189Y-72375159D01*
X159588450Y-72294124D01*
X159586953Y-72278513D01*
X159578082Y-72185531D01*
X159569688Y-72096510D01*
X159561857Y-72012423D01*
X159554676Y-71934243D01*
X159548231Y-71862943D01*
X159542608Y-71799498D01*
X159537893Y-71744879D01*
X159534172Y-71700061D01*
X159531531Y-71666017D01*
X159530057Y-71643720D01*
X159529835Y-71634142D01*
X159529923Y-71633854D01*
X159537086Y-71635528D01*
X159555538Y-71642232D01*
X159583836Y-71653374D01*
X159620538Y-71668366D01*
X159664199Y-71686618D01*
X159713375Y-71707539D01*
X159766624Y-71730539D01*
X159767725Y-71731018D01*
X159820986Y-71754170D01*
X159870106Y-71775469D01*
X159913653Y-71794299D01*
X159950196Y-71810042D01*
X159978305Y-71822083D01*
X159996549Y-71829805D01*
X160003495Y-71832591D01*
X160003509Y-71832592D01*
X160007185Y-71826661D01*
X160017060Y-71809503D01*
X160032602Y-71782072D01*
X160053277Y-71745322D01*
X160078552Y-71700206D01*
X160107893Y-71647679D01*
X160140767Y-71588693D01*
X160176640Y-71524204D01*
X160214978Y-71455163D01*
X160252511Y-71387466D01*
X160292749Y-71315006D01*
X160331132Y-71246211D01*
X160367116Y-71182036D01*
X160400158Y-71123436D01*
X160429713Y-71071367D01*
X160455238Y-71026782D01*
X160476187Y-70990638D01*
X160492018Y-70963889D01*
X160502185Y-70947491D01*
X160506080Y-70942367D01*
X160510514Y-70948305D01*
X160510514Y-70948305D01*
G37*
X160510514Y-70948305D02*
X160521116Y-70965469D01*
X160537333Y-70992894D01*
X160558617Y-71029615D01*
X160584417Y-71074669D01*
X160614183Y-71127090D01*
X160647365Y-71185915D01*
X160683413Y-71250178D01*
X160721776Y-71318917D01*
X160755047Y-71378794D01*
X160794969Y-71450767D01*
X160832998Y-71519295D01*
X160868583Y-71583388D01*
X160901174Y-71642056D01*
X160930219Y-71694308D01*
X160955169Y-71739155D01*
X160975473Y-71775605D01*
X160990580Y-71802670D01*
X160999939Y-71819358D01*
X161002934Y-71824597D01*
X161007157Y-71826001D01*
X161017010Y-71824350D01*
X161033513Y-71819251D01*
X161057690Y-71810309D01*
X161090562Y-71797128D01*
X161133151Y-71779316D01*
X161186480Y-71756476D01*
X161243383Y-71731785D01*
X161296829Y-71708660D01*
X161346233Y-71687598D01*
X161390155Y-71669190D01*
X161427157Y-71654025D01*
X161455799Y-71642693D01*
X161474643Y-71635782D01*
X161482251Y-71633882D01*
X161482300Y-71633917D01*
X161482280Y-71641323D01*
X161480995Y-71661608D01*
X161478530Y-71693799D01*
X161474971Y-71736922D01*
X161470405Y-71790005D01*
X161464918Y-71852073D01*
X161458595Y-71922155D01*
X161451524Y-71999276D01*
X161443790Y-72082464D01*
X161435480Y-72170745D01*
X161426680Y-72263147D01*
X161425206Y-72278513D01*
X161416321Y-72371458D01*
X161407882Y-72460414D01*
X161399979Y-72544410D01*
X161392699Y-72622477D01*
X161386132Y-72693644D01*
X161380364Y-72756941D01*
X161375485Y-72811398D01*
X161371583Y-72856043D01*
X161368746Y-72889907D01*
X161367062Y-72912019D01*
X161366620Y-72921410D01*
X161366673Y-72921669D01*
X161372252Y-72917711D01*
X161387288Y-72905287D01*
X161410857Y-72885203D01*
X161442034Y-72858263D01*
X161479896Y-72825273D01*
X161523518Y-72787036D01*
X161571976Y-72744359D01*
X161624345Y-72698046D01*
X161670661Y-72656940D01*
X161725708Y-72608094D01*
X161777700Y-72562123D01*
X161825700Y-72519845D01*
X161868774Y-72482076D01*
X161905985Y-72449633D01*
X161936397Y-72423331D01*
X161959075Y-72403987D01*
X161973082Y-72392418D01*
X161977453Y-72389305D01*
X161979578Y-72390863D01*
X161982842Y-72396308D01*
X161987699Y-72406798D01*
X161994601Y-72423489D01*
X162004001Y-72447538D01*
X162016351Y-72480102D01*
X162032103Y-72522339D01*
X162051711Y-72575404D01*
X162074353Y-72636983D01*
X162095027Y-72693292D01*
X162035726Y-72761702D01*
X161959216Y-72852206D01*
X161878967Y-72951295D01*
X161796104Y-73057360D01*
X161711753Y-73168791D01*
X161627040Y-73283978D01*
X161543090Y-73401311D01*
X161461029Y-73519179D01*
X161381982Y-73635973D01*
X161307076Y-73750083D01*
X161237436Y-73859899D01*
X161174187Y-73963810D01*
X161118456Y-74060207D01*
X161084792Y-74121837D01*
X161047001Y-74193023D01*
X161024045Y-74159658D01*
X160980284Y-74091295D01*
X160934939Y-74011622D01*
X160889100Y-73922987D01*
X160843857Y-73827737D01*
X160800302Y-73728221D01*
X160759525Y-73626787D01*
X160722616Y-73525783D01*
X160704408Y-73471414D01*
X160671575Y-73364380D01*
X160638711Y-73246797D01*
X160606645Y-73122006D01*
X160576205Y-72993348D01*
X160548219Y-72864166D01*
X160526446Y-72753597D01*
X160506729Y-72648164D01*
X160470904Y-72826666D01*
X160431313Y-73012552D01*
X160389607Y-73185690D01*
X160345410Y-73347138D01*
X160298347Y-73497956D01*
X160248043Y-73639203D01*
X160194122Y-73771939D01*
X160136209Y-73897222D01*
X160073930Y-74016114D01*
X160012869Y-74120089D01*
X159996244Y-74146504D01*
X159982032Y-74168256D01*
X159971957Y-74182756D01*
X159968046Y-74187389D01*
X159962881Y-74183039D01*
X159953266Y-74168740D01*
X159940837Y-74147059D01*
X159933563Y-74133249D01*
X159893115Y-74057884D01*
X159844491Y-73973461D01*
X159788679Y-73881395D01*
X159726666Y-73783102D01*
X159659441Y-73679997D01*
X159587991Y-73573497D01*
X159513304Y-73465016D01*
X159436369Y-73355972D01*
X159358174Y-73247779D01*
X159279706Y-73141854D01*
X159201953Y-73039613D01*
X159125904Y-72942470D01*
X159052547Y-72851842D01*
X158982869Y-72769145D01*
X158976433Y-72761702D01*
X158917133Y-72693292D01*
X158937806Y-72636983D01*
X158961504Y-72572536D01*
X158980916Y-72520018D01*
X158996492Y-72478274D01*
X159008685Y-72446148D01*
X159017947Y-72422482D01*
X159024730Y-72406122D01*
X159029486Y-72395910D01*
X159032667Y-72390691D01*
X159034632Y-72389305D01*
X159040722Y-72393801D01*
X159056264Y-72406745D01*
X159080320Y-72427321D01*
X159111955Y-72454713D01*
X159150234Y-72488106D01*
X159194220Y-72526683D01*
X159242978Y-72569628D01*
X159295571Y-72616126D01*
X159341501Y-72656862D01*
X159396464Y-72705591D01*
X159448287Y-72751362D01*
X159496046Y-72793373D01*
X159538818Y-72830818D01*
X159575678Y-72862892D01*
X159605702Y-72888790D01*
X159627966Y-72907709D01*
X159641545Y-72918844D01*
X159645564Y-72921592D01*
X159645325Y-72914409D01*
X159643830Y-72894344D01*
X159641167Y-72862366D01*
X159637425Y-72819447D01*
X159632693Y-72766555D01*
X159627059Y-72704661D01*
X159620611Y-72634736D01*
X159613438Y-72557750D01*
X159605627Y-72474672D01*
X159597269Y-72386473D01*
X159596189Y-72375159D01*
X160253220Y-72375159D01*
X160255763Y-72375901D01*
X160265988Y-72368370D01*
X160281768Y-72354164D01*
X160283810Y-72352206D01*
X160308428Y-72331713D01*
X160339018Y-72310708D01*
X160366902Y-72294829D01*
X160429012Y-72271244D01*
X160492061Y-72261174D01*
X160554673Y-72264410D01*
X160615472Y-72280743D01*
X160673081Y-72309963D01*
X160723052Y-72348953D01*
X160740862Y-72364819D01*
X160753504Y-72374524D01*
X160758892Y-72376524D01*
X160758781Y-72375387D01*
X160756097Y-72367017D01*
X160749647Y-72346551D01*
X160739804Y-72315181D01*
X160726941Y-72274098D01*
X160711430Y-72224496D01*
X160693644Y-72167564D01*
X160673957Y-72104497D01*
X160652740Y-72036485D01*
X160631480Y-71968291D01*
X160609247Y-71897000D01*
X160588258Y-71829771D01*
X160568873Y-71767761D01*
X160551457Y-71712128D01*
X160536371Y-71664028D01*
X160523980Y-71624619D01*
X160514646Y-71595058D01*
X160508731Y-71576503D01*
X160506604Y-71570112D01*
X160504370Y-71576288D01*
X160498365Y-71594610D01*
X160488952Y-71623936D01*
X160476491Y-71663122D01*
X160461345Y-71711024D01*
X160443874Y-71766500D01*
X160424441Y-71828405D01*
X160403407Y-71895596D01*
X160381183Y-71966770D01*
X160358801Y-72038509D01*
X160337591Y-72106432D01*
X160317924Y-72169351D01*
X160300173Y-72226077D01*
X160284712Y-72275421D01*
X160271911Y-72316195D01*
X160262144Y-72347211D01*
X160255783Y-72367279D01*
X160253220Y-72375159D01*
X159596189Y-72375159D01*
X159588450Y-72294124D01*
X159586953Y-72278513D01*
X159578082Y-72185531D01*
X159569688Y-72096510D01*
X159561857Y-72012423D01*
X159554676Y-71934243D01*
X159548231Y-71862943D01*
X159542608Y-71799498D01*
X159537893Y-71744879D01*
X159534172Y-71700061D01*
X159531531Y-71666017D01*
X159530057Y-71643720D01*
X159529835Y-71634142D01*
X159529923Y-71633854D01*
X159537086Y-71635528D01*
X159555538Y-71642232D01*
X159583836Y-71653374D01*
X159620538Y-71668366D01*
X159664199Y-71686618D01*
X159713375Y-71707539D01*
X159766624Y-71730539D01*
X159767725Y-71731018D01*
X159820986Y-71754170D01*
X159870106Y-71775469D01*
X159913653Y-71794299D01*
X159950196Y-71810042D01*
X159978305Y-71822083D01*
X159996549Y-71829805D01*
X160003495Y-71832591D01*
X160003509Y-71832592D01*
X160007185Y-71826661D01*
X160017060Y-71809503D01*
X160032602Y-71782072D01*
X160053277Y-71745322D01*
X160078552Y-71700206D01*
X160107893Y-71647679D01*
X160140767Y-71588693D01*
X160176640Y-71524204D01*
X160214978Y-71455163D01*
X160252511Y-71387466D01*
X160292749Y-71315006D01*
X160331132Y-71246211D01*
X160367116Y-71182036D01*
X160400158Y-71123436D01*
X160429713Y-71071367D01*
X160455238Y-71026782D01*
X160476187Y-70990638D01*
X160492018Y-70963889D01*
X160502185Y-70947491D01*
X160506080Y-70942367D01*
X160510514Y-70948305D01*
G36*
X158103297Y-72644370D02*
G01*
X158122633Y-72647800D01*
X158152952Y-72653430D01*
X158192919Y-72661005D01*
X158241199Y-72670271D01*
X158296459Y-72680972D01*
X158357362Y-72692855D01*
X158422576Y-72705663D01*
X158423694Y-72705884D01*
X158504277Y-72721874D01*
X158572075Y-72735582D01*
X158627996Y-72747215D01*
X158672948Y-72756980D01*
X158707839Y-72765083D01*
X158733578Y-72771730D01*
X158751074Y-72777129D01*
X158761233Y-72781485D01*
X158763702Y-72783204D01*
X158776174Y-72796627D01*
X158795326Y-72820056D01*
X158820047Y-72851966D01*
X158849224Y-72890833D01*
X158881744Y-72935132D01*
X158916496Y-72983337D01*
X158952367Y-73033924D01*
X158988244Y-73085369D01*
X159023015Y-73136145D01*
X159044873Y-73168634D01*
X159148142Y-73327734D01*
X159249319Y-73492176D01*
X159347254Y-73659829D01*
X159440799Y-73828563D01*
X159528802Y-73996247D01*
X159610113Y-74160752D01*
X159683584Y-74319946D01*
X159747382Y-74470017D01*
X159763466Y-74511030D01*
X159780950Y-74557838D01*
X159799011Y-74608018D01*
X159816830Y-74659149D01*
X159833587Y-74708809D01*
X159848460Y-74754576D01*
X159860630Y-74794029D01*
X159869276Y-74824746D01*
X159872989Y-74840772D01*
X159877247Y-74857415D01*
X159881720Y-74866245D01*
X159882677Y-74866674D01*
X159889354Y-74861634D01*
X159903672Y-74847542D01*
X159924246Y-74825941D01*
X159949688Y-74798373D01*
X159978616Y-74766381D01*
X160009642Y-74731508D01*
X160041382Y-74695297D01*
X160072451Y-74659289D01*
X160101464Y-74625028D01*
X160122649Y-74599440D01*
X160187531Y-74517540D01*
X160247280Y-74436523D01*
X160304017Y-74353212D01*
X160359868Y-74264435D01*
X160416954Y-74167015D01*
X160443412Y-74119871D01*
X160463113Y-74085157D01*
X160480766Y-74055566D01*
X160495220Y-74032905D01*
X160505328Y-74018979D01*
X160509859Y-74015488D01*
X160515126Y-74023546D01*
X160525443Y-74041248D01*
X160539305Y-74065956D01*
X160554778Y-74094236D01*
X160631689Y-74230116D01*
X160709847Y-74355210D01*
X160791310Y-74472625D01*
X160878137Y-74585470D01*
X160888937Y-74598757D01*
X160915381Y-74630611D01*
X160944984Y-74665440D01*
X160976367Y-74701706D01*
X161008145Y-74737868D01*
X161038939Y-74772389D01*
X161067366Y-74803729D01*
X161092045Y-74830348D01*
X161111592Y-74850709D01*
X161124628Y-74863272D01*
X161129483Y-74866674D01*
X161133729Y-74860581D01*
X161138210Y-74845469D01*
X161139171Y-74840772D01*
X161144586Y-74818326D01*
X161154149Y-74785300D01*
X161167040Y-74744117D01*
X161182438Y-74697199D01*
X161199524Y-74646967D01*
X161217476Y-74595843D01*
X161235473Y-74546249D01*
X161252697Y-74500606D01*
X161264778Y-74470017D01*
X161328092Y-74321101D01*
X161400259Y-74164661D01*
X161480118Y-74002842D01*
X161566512Y-73837790D01*
X161658283Y-73671651D01*
X161754272Y-73506571D01*
X161853322Y-73344696D01*
X161954275Y-73188172D01*
X161966595Y-73169651D01*
X161999978Y-73120222D01*
X162035211Y-73069094D01*
X162071185Y-73017789D01*
X162106788Y-72967830D01*
X162140912Y-72920739D01*
X162172445Y-72878039D01*
X162200278Y-72841254D01*
X162223300Y-72811904D01*
X162240402Y-72791514D01*
X162248153Y-72783479D01*
X162255506Y-72779511D01*
X162270391Y-72774466D01*
X162293657Y-72768152D01*
X162326152Y-72760377D01*
X162368724Y-72750947D01*
X162422224Y-72739671D01*
X162487498Y-72726355D01*
X162565395Y-72710807D01*
X162588161Y-72706308D01*
X162653466Y-72693464D01*
X162714484Y-72681537D01*
X162769881Y-72670782D01*
X162818324Y-72661455D01*
X162858478Y-72653812D01*
X162889009Y-72648108D01*
X162908585Y-72644598D01*
X162915871Y-72643537D01*
X162915882Y-72643543D01*
X162914471Y-72650243D01*
X162909957Y-72669046D01*
X162902692Y-72698571D01*
X162893024Y-72737439D01*
X162881304Y-72784269D01*
X162867882Y-72837682D01*
X162853109Y-72896297D01*
X162837333Y-72958734D01*
X162820907Y-73023614D01*
X162804179Y-73089555D01*
X162787499Y-73155179D01*
X162771219Y-73219104D01*
X162755687Y-73279951D01*
X162741255Y-73336340D01*
X162728272Y-73386891D01*
X162717088Y-73430223D01*
X162708054Y-73464957D01*
X162701520Y-73489712D01*
X162697835Y-73503108D01*
X162697676Y-73503641D01*
X162699365Y-73508941D01*
X162707668Y-73516998D01*
X162723659Y-73528516D01*
X162748415Y-73544204D01*
X162783013Y-73564766D01*
X162828529Y-73590911D01*
X162844065Y-73599717D01*
X162885295Y-73623240D01*
X162922184Y-73644685D01*
X162953094Y-73663066D01*
X162976386Y-73677397D01*
X162990421Y-73686694D01*
X162993888Y-73689800D01*
X162988175Y-73694211D01*
X162971509Y-73705747D01*
X162944603Y-73723938D01*
X162908167Y-73748313D01*
X162862912Y-73778404D01*
X162809550Y-73813740D01*
X162748792Y-73853852D01*
X162681349Y-73898270D01*
X162607932Y-73946525D01*
X162529253Y-73998146D01*
X162446023Y-74052664D01*
X162358952Y-74109610D01*
X162291119Y-74153915D01*
X162201609Y-74212402D01*
X162115400Y-74268841D01*
X162033205Y-74322760D01*
X161955736Y-74373688D01*
X161883703Y-74421152D01*
X161817818Y-74464682D01*
X161758794Y-74503807D01*
X161707341Y-74538054D01*
X161664172Y-74566951D01*
X161629998Y-74590029D01*
X161605530Y-74606814D01*
X161591481Y-74616836D01*
X161588209Y-74619633D01*
X161590217Y-74627585D01*
X161596005Y-74647348D01*
X161605127Y-74677473D01*
X161617137Y-74716509D01*
X161631587Y-74763009D01*
X161648030Y-74815523D01*
X161666021Y-74872600D01*
X161672499Y-74893067D01*
X161690787Y-74951242D01*
X161707491Y-75005258D01*
X161722188Y-75053684D01*
X161734458Y-75095091D01*
X161743879Y-75128049D01*
X161750028Y-75151126D01*
X161752485Y-75162894D01*
X161752390Y-75164081D01*
X161744966Y-75163937D01*
X161724711Y-75162217D01*
X161692612Y-75159031D01*
X161649652Y-75154490D01*
X161596817Y-75148705D01*
X161535091Y-75141785D01*
X161465461Y-75133841D01*
X161388909Y-75124984D01*
X161306423Y-75115324D01*
X161218986Y-75104971D01*
X161127583Y-75094037D01*
X161126965Y-75093962D01*
X160506080Y-75019304D01*
X159897918Y-75092606D01*
X159807121Y-75103527D01*
X159720059Y-75113957D01*
X159637754Y-75123774D01*
X159561228Y-75132860D01*
X159491502Y-75141094D01*
X159429597Y-75148356D01*
X159376535Y-75154526D01*
X159333338Y-75159485D01*
X159301027Y-75163112D01*
X159280624Y-75165288D01*
X159273356Y-75165907D01*
X159260757Y-75163819D01*
X159256956Y-75160132D01*
X159258994Y-75152438D01*
X159264808Y-75132934D01*
X159273948Y-75103069D01*
X159285964Y-75064294D01*
X159300406Y-75018058D01*
X159316823Y-74965812D01*
X159334767Y-74909005D01*
X159340463Y-74891031D01*
X159358793Y-74833044D01*
X159375729Y-74779104D01*
X159390821Y-74730673D01*
X159403618Y-74689214D01*
X159413670Y-74656188D01*
X159420526Y-74633058D01*
X159423735Y-74621287D01*
X159423920Y-74620190D01*
X159418199Y-74615501D01*
X159401523Y-74603695D01*
X159374604Y-74585244D01*
X159338153Y-74560620D01*
X159292883Y-74530294D01*
X159239503Y-74494740D01*
X159178727Y-74454428D01*
X159111265Y-74409833D01*
X159037829Y-74361425D01*
X158959130Y-74309676D01*
X158875881Y-74255060D01*
X158788792Y-74198048D01*
X158721071Y-74153795D01*
X158631575Y-74095318D01*
X158545381Y-74038916D01*
X158463202Y-73985058D01*
X158385748Y-73934214D01*
X158313730Y-73886854D01*
X158247859Y-73843447D01*
X158188846Y-73804464D01*
X158137403Y-73770372D01*
X158094241Y-73741644D01*
X158060071Y-73718746D01*
X158035603Y-73702151D01*
X158021550Y-73692326D01*
X158018272Y-73689680D01*
X158024076Y-73684956D01*
X158040397Y-73674437D01*
X158065595Y-73659107D01*
X158098032Y-73639950D01*
X158136068Y-73617949D01*
X158168094Y-73599717D01*
X158217008Y-73571806D01*
X158254689Y-73549684D01*
X158282213Y-73532643D01*
X158300657Y-73519978D01*
X158311097Y-73510982D01*
X158314610Y-73504948D01*
X158314484Y-73503641D01*
X158311016Y-73491124D01*
X158304674Y-73467146D01*
X158295807Y-73433087D01*
X158284765Y-73390328D01*
X158271899Y-73340249D01*
X158257559Y-73284229D01*
X158242095Y-73223650D01*
X158225856Y-73159892D01*
X158209193Y-73094334D01*
X158192457Y-73028357D01*
X158175996Y-72963341D01*
X158160162Y-72900667D01*
X158145305Y-72841714D01*
X158131773Y-72787863D01*
X158119919Y-72740494D01*
X158110091Y-72700988D01*
X158102640Y-72670724D01*
X158097915Y-72651082D01*
X158096268Y-72643444D01*
X158096277Y-72643394D01*
X158103297Y-72644370D01*
X158103297Y-72644370D01*
G37*
X158103297Y-72644370D02*
X158122633Y-72647800D01*
X158152952Y-72653430D01*
X158192919Y-72661005D01*
X158241199Y-72670271D01*
X158296459Y-72680972D01*
X158357362Y-72692855D01*
X158422576Y-72705663D01*
X158423694Y-72705884D01*
X158504277Y-72721874D01*
X158572075Y-72735582D01*
X158627996Y-72747215D01*
X158672948Y-72756980D01*
X158707839Y-72765083D01*
X158733578Y-72771730D01*
X158751074Y-72777129D01*
X158761233Y-72781485D01*
X158763702Y-72783204D01*
X158776174Y-72796627D01*
X158795326Y-72820056D01*
X158820047Y-72851966D01*
X158849224Y-72890833D01*
X158881744Y-72935132D01*
X158916496Y-72983337D01*
X158952367Y-73033924D01*
X158988244Y-73085369D01*
X159023015Y-73136145D01*
X159044873Y-73168634D01*
X159148142Y-73327734D01*
X159249319Y-73492176D01*
X159347254Y-73659829D01*
X159440799Y-73828563D01*
X159528802Y-73996247D01*
X159610113Y-74160752D01*
X159683584Y-74319946D01*
X159747382Y-74470017D01*
X159763466Y-74511030D01*
X159780950Y-74557838D01*
X159799011Y-74608018D01*
X159816830Y-74659149D01*
X159833587Y-74708809D01*
X159848460Y-74754576D01*
X159860630Y-74794029D01*
X159869276Y-74824746D01*
X159872989Y-74840772D01*
X159877247Y-74857415D01*
X159881720Y-74866245D01*
X159882677Y-74866674D01*
X159889354Y-74861634D01*
X159903672Y-74847542D01*
X159924246Y-74825941D01*
X159949688Y-74798373D01*
X159978616Y-74766381D01*
X160009642Y-74731508D01*
X160041382Y-74695297D01*
X160072451Y-74659289D01*
X160101464Y-74625028D01*
X160122649Y-74599440D01*
X160187531Y-74517540D01*
X160247280Y-74436523D01*
X160304017Y-74353212D01*
X160359868Y-74264435D01*
X160416954Y-74167015D01*
X160443412Y-74119871D01*
X160463113Y-74085157D01*
X160480766Y-74055566D01*
X160495220Y-74032905D01*
X160505328Y-74018979D01*
X160509859Y-74015488D01*
X160515126Y-74023546D01*
X160525443Y-74041248D01*
X160539305Y-74065956D01*
X160554778Y-74094236D01*
X160631689Y-74230116D01*
X160709847Y-74355210D01*
X160791310Y-74472625D01*
X160878137Y-74585470D01*
X160888937Y-74598757D01*
X160915381Y-74630611D01*
X160944984Y-74665440D01*
X160976367Y-74701706D01*
X161008145Y-74737868D01*
X161038939Y-74772389D01*
X161067366Y-74803729D01*
X161092045Y-74830348D01*
X161111592Y-74850709D01*
X161124628Y-74863272D01*
X161129483Y-74866674D01*
X161133729Y-74860581D01*
X161138210Y-74845469D01*
X161139171Y-74840772D01*
X161144586Y-74818326D01*
X161154149Y-74785300D01*
X161167040Y-74744117D01*
X161182438Y-74697199D01*
X161199524Y-74646967D01*
X161217476Y-74595843D01*
X161235473Y-74546249D01*
X161252697Y-74500606D01*
X161264778Y-74470017D01*
X161328092Y-74321101D01*
X161400259Y-74164661D01*
X161480118Y-74002842D01*
X161566512Y-73837790D01*
X161658283Y-73671651D01*
X161754272Y-73506571D01*
X161853322Y-73344696D01*
X161954275Y-73188172D01*
X161966595Y-73169651D01*
X161999978Y-73120222D01*
X162035211Y-73069094D01*
X162071185Y-73017789D01*
X162106788Y-72967830D01*
X162140912Y-72920739D01*
X162172445Y-72878039D01*
X162200278Y-72841254D01*
X162223300Y-72811904D01*
X162240402Y-72791514D01*
X162248153Y-72783479D01*
X162255506Y-72779511D01*
X162270391Y-72774466D01*
X162293657Y-72768152D01*
X162326152Y-72760377D01*
X162368724Y-72750947D01*
X162422224Y-72739671D01*
X162487498Y-72726355D01*
X162565395Y-72710807D01*
X162588161Y-72706308D01*
X162653466Y-72693464D01*
X162714484Y-72681537D01*
X162769881Y-72670782D01*
X162818324Y-72661455D01*
X162858478Y-72653812D01*
X162889009Y-72648108D01*
X162908585Y-72644598D01*
X162915871Y-72643537D01*
X162915882Y-72643543D01*
X162914471Y-72650243D01*
X162909957Y-72669046D01*
X162902692Y-72698571D01*
X162893024Y-72737439D01*
X162881304Y-72784269D01*
X162867882Y-72837682D01*
X162853109Y-72896297D01*
X162837333Y-72958734D01*
X162820907Y-73023614D01*
X162804179Y-73089555D01*
X162787499Y-73155179D01*
X162771219Y-73219104D01*
X162755687Y-73279951D01*
X162741255Y-73336340D01*
X162728272Y-73386891D01*
X162717088Y-73430223D01*
X162708054Y-73464957D01*
X162701520Y-73489712D01*
X162697835Y-73503108D01*
X162697676Y-73503641D01*
X162699365Y-73508941D01*
X162707668Y-73516998D01*
X162723659Y-73528516D01*
X162748415Y-73544204D01*
X162783013Y-73564766D01*
X162828529Y-73590911D01*
X162844065Y-73599717D01*
X162885295Y-73623240D01*
X162922184Y-73644685D01*
X162953094Y-73663066D01*
X162976386Y-73677397D01*
X162990421Y-73686694D01*
X162993888Y-73689800D01*
X162988175Y-73694211D01*
X162971509Y-73705747D01*
X162944603Y-73723938D01*
X162908167Y-73748313D01*
X162862912Y-73778404D01*
X162809550Y-73813740D01*
X162748792Y-73853852D01*
X162681349Y-73898270D01*
X162607932Y-73946525D01*
X162529253Y-73998146D01*
X162446023Y-74052664D01*
X162358952Y-74109610D01*
X162291119Y-74153915D01*
X162201609Y-74212402D01*
X162115400Y-74268841D01*
X162033205Y-74322760D01*
X161955736Y-74373688D01*
X161883703Y-74421152D01*
X161817818Y-74464682D01*
X161758794Y-74503807D01*
X161707341Y-74538054D01*
X161664172Y-74566951D01*
X161629998Y-74590029D01*
X161605530Y-74606814D01*
X161591481Y-74616836D01*
X161588209Y-74619633D01*
X161590217Y-74627585D01*
X161596005Y-74647348D01*
X161605127Y-74677473D01*
X161617137Y-74716509D01*
X161631587Y-74763009D01*
X161648030Y-74815523D01*
X161666021Y-74872600D01*
X161672499Y-74893067D01*
X161690787Y-74951242D01*
X161707491Y-75005258D01*
X161722188Y-75053684D01*
X161734458Y-75095091D01*
X161743879Y-75128049D01*
X161750028Y-75151126D01*
X161752485Y-75162894D01*
X161752390Y-75164081D01*
X161744966Y-75163937D01*
X161724711Y-75162217D01*
X161692612Y-75159031D01*
X161649652Y-75154490D01*
X161596817Y-75148705D01*
X161535091Y-75141785D01*
X161465461Y-75133841D01*
X161388909Y-75124984D01*
X161306423Y-75115324D01*
X161218986Y-75104971D01*
X161127583Y-75094037D01*
X161126965Y-75093962D01*
X160506080Y-75019304D01*
X159897918Y-75092606D01*
X159807121Y-75103527D01*
X159720059Y-75113957D01*
X159637754Y-75123774D01*
X159561228Y-75132860D01*
X159491502Y-75141094D01*
X159429597Y-75148356D01*
X159376535Y-75154526D01*
X159333338Y-75159485D01*
X159301027Y-75163112D01*
X159280624Y-75165288D01*
X159273356Y-75165907D01*
X159260757Y-75163819D01*
X159256956Y-75160132D01*
X159258994Y-75152438D01*
X159264808Y-75132934D01*
X159273948Y-75103069D01*
X159285964Y-75064294D01*
X159300406Y-75018058D01*
X159316823Y-74965812D01*
X159334767Y-74909005D01*
X159340463Y-74891031D01*
X159358793Y-74833044D01*
X159375729Y-74779104D01*
X159390821Y-74730673D01*
X159403618Y-74689214D01*
X159413670Y-74656188D01*
X159420526Y-74633058D01*
X159423735Y-74621287D01*
X159423920Y-74620190D01*
X159418199Y-74615501D01*
X159401523Y-74603695D01*
X159374604Y-74585244D01*
X159338153Y-74560620D01*
X159292883Y-74530294D01*
X159239503Y-74494740D01*
X159178727Y-74454428D01*
X159111265Y-74409833D01*
X159037829Y-74361425D01*
X158959130Y-74309676D01*
X158875881Y-74255060D01*
X158788792Y-74198048D01*
X158721071Y-74153795D01*
X158631575Y-74095318D01*
X158545381Y-74038916D01*
X158463202Y-73985058D01*
X158385748Y-73934214D01*
X158313730Y-73886854D01*
X158247859Y-73843447D01*
X158188846Y-73804464D01*
X158137403Y-73770372D01*
X158094241Y-73741644D01*
X158060071Y-73718746D01*
X158035603Y-73702151D01*
X158021550Y-73692326D01*
X158018272Y-73689680D01*
X158024076Y-73684956D01*
X158040397Y-73674437D01*
X158065595Y-73659107D01*
X158098032Y-73639950D01*
X158136068Y-73617949D01*
X158168094Y-73599717D01*
X158217008Y-73571806D01*
X158254689Y-73549684D01*
X158282213Y-73532643D01*
X158300657Y-73519978D01*
X158311097Y-73510982D01*
X158314610Y-73504948D01*
X158314484Y-73503641D01*
X158311016Y-73491124D01*
X158304674Y-73467146D01*
X158295807Y-73433087D01*
X158284765Y-73390328D01*
X158271899Y-73340249D01*
X158257559Y-73284229D01*
X158242095Y-73223650D01*
X158225856Y-73159892D01*
X158209193Y-73094334D01*
X158192457Y-73028357D01*
X158175996Y-72963341D01*
X158160162Y-72900667D01*
X158145305Y-72841714D01*
X158131773Y-72787863D01*
X158119919Y-72740494D01*
X158110091Y-72700988D01*
X158102640Y-72670724D01*
X158097915Y-72651082D01*
X158096268Y-72643444D01*
X158096277Y-72643394D01*
X158103297Y-72644370D01*
D12*
X139988600Y-70459600D02*
X139988600Y-71569600D01*
X139988600Y-71569600D02*
X138658600Y-71569600D01*
X139988600Y-60369600D02*
X127168600Y-60369600D01*
X127168600Y-60369600D02*
X127168600Y-68999600D01*
X139988600Y-68999600D02*
X127168600Y-68999600D01*
X139988600Y-60369600D02*
X139988600Y-68999600D01*
X129768600Y-60369600D02*
X129768600Y-68999600D01*
X132308600Y-60369600D02*
X132308600Y-68999600D01*
X134848600Y-60369600D02*
X134848600Y-68999600D01*
X137388600Y-60369600D02*
X137388600Y-68999600D01*
X128138600Y-68999600D02*
X128138600Y-69409600D01*
X128858600Y-68999600D02*
X128858600Y-69409600D01*
X130678600Y-68999600D02*
X130678600Y-69409600D01*
X131398600Y-68999600D02*
X131398600Y-69409600D01*
X133218600Y-68999600D02*
X133218600Y-69409600D01*
X133938600Y-68999600D02*
X133938600Y-69409600D01*
X135758600Y-68999600D02*
X135758600Y-69409600D01*
X136478600Y-68999600D02*
X136478600Y-69409600D01*
X138298600Y-68999600D02*
X138298600Y-69349600D01*
X139018600Y-68999600D02*
X139018600Y-69349600D01*
X137506700Y-60369600D02*
X137506700Y-68999600D01*
X137624795Y-60369600D02*
X137624795Y-68999600D01*
X137742890Y-60369600D02*
X137742890Y-68999600D01*
X137860985Y-60369600D02*
X137860985Y-68999600D01*
X137979080Y-60369600D02*
X137979080Y-68999600D01*
X138097175Y-60369600D02*
X138097175Y-68999600D01*
X138215270Y-60369600D02*
X138215270Y-68999600D01*
X138333365Y-60369600D02*
X138333365Y-68999600D01*
X138451460Y-60369600D02*
X138451460Y-68999600D01*
X138569555Y-60369600D02*
X138569555Y-68999600D01*
X138687650Y-60369600D02*
X138687650Y-68999600D01*
X138805745Y-60369600D02*
X138805745Y-68999600D01*
X138923840Y-60369600D02*
X138923840Y-68999600D01*
X139041935Y-60369600D02*
X139041935Y-68999600D01*
X139160030Y-60369600D02*
X139160030Y-68999600D01*
X139278125Y-60369600D02*
X139278125Y-68999600D01*
X139396220Y-60369600D02*
X139396220Y-68999600D01*
X139514315Y-60369600D02*
X139514315Y-68999600D01*
X139632410Y-60369600D02*
X139632410Y-68999600D01*
X139750505Y-60369600D02*
X139750505Y-68999600D01*
X139868600Y-60369600D02*
X139868600Y-68999600D01*
X125237400Y-121668611D02*
X125987400Y-121668611D01*
X125612400Y-122043611D02*
X125612400Y-121293611D01*
X127346400Y-114060400D02*
X128228400Y-114060400D01*
X127094400Y-114100400D02*
X128480400Y-114100400D01*
X126910400Y-114140400D02*
X128664400Y-114140400D01*
X126759400Y-114180400D02*
X128815400Y-114180400D01*
X126629400Y-114220400D02*
X128945400Y-114220400D01*
X126512400Y-114260400D02*
X129062400Y-114260400D01*
X126406400Y-114300400D02*
X129168400Y-114300400D01*
X126309400Y-114340400D02*
X129265400Y-114340400D01*
X126218400Y-114380400D02*
X129356400Y-114380400D01*
X126133400Y-114420400D02*
X129441400Y-114420400D01*
X126054400Y-114460400D02*
X129520400Y-114460400D01*
X125978400Y-114500400D02*
X129596400Y-114500400D01*
X125906400Y-114540400D02*
X129668400Y-114540400D01*
X125838400Y-114580400D02*
X129736400Y-114580400D01*
X125773400Y-114620400D02*
X129801400Y-114620400D01*
X125710400Y-114660400D02*
X129864400Y-114660400D01*
X125650400Y-114700400D02*
X129924400Y-114700400D01*
X125592400Y-114740400D02*
X129982400Y-114740400D01*
X125537400Y-114780400D02*
X130037400Y-114780400D01*
X125483400Y-114820400D02*
X130091400Y-114820400D01*
X125432400Y-114860400D02*
X130142400Y-114860400D01*
X125382400Y-114900400D02*
X130192400Y-114900400D01*
X125333400Y-114940400D02*
X130241400Y-114940400D01*
X125287400Y-114980400D02*
X130287400Y-114980400D01*
X125241400Y-115020400D02*
X130333400Y-115020400D01*
X125198400Y-115060400D02*
X130376400Y-115060400D01*
X125155400Y-115100400D02*
X130419400Y-115100400D01*
X125114400Y-115140400D02*
X130460400Y-115140400D01*
X125074400Y-115180400D02*
X130500400Y-115180400D01*
X125035400Y-115220400D02*
X130539400Y-115220400D01*
X124997400Y-115260400D02*
X130577400Y-115260400D01*
X124960400Y-115300400D02*
X130614400Y-115300400D01*
X124924400Y-115340400D02*
X130650400Y-115340400D01*
X124889400Y-115380400D02*
X130685400Y-115380400D01*
X124856400Y-115420400D02*
X130718400Y-115420400D01*
X124823400Y-115460400D02*
X130751400Y-115460400D01*
X124791400Y-115500400D02*
X130783400Y-115500400D01*
X124759400Y-115540400D02*
X130815400Y-115540400D01*
X124729400Y-115580400D02*
X130845400Y-115580400D01*
X128827400Y-115620400D02*
X130875400Y-115620400D01*
X124699400Y-115620400D02*
X126747400Y-115620400D01*
X128827400Y-115660400D02*
X130903400Y-115660400D01*
X124671400Y-115660400D02*
X126747400Y-115660400D01*
X128827400Y-115700400D02*
X130931400Y-115700400D01*
X124643400Y-115700400D02*
X126747400Y-115700400D01*
X128827400Y-115740400D02*
X130959400Y-115740400D01*
X124615400Y-115740400D02*
X126747400Y-115740400D01*
X128827400Y-115780400D02*
X130985400Y-115780400D01*
X124589400Y-115780400D02*
X126747400Y-115780400D01*
X128827400Y-115820400D02*
X131011400Y-115820400D01*
X124563400Y-115820400D02*
X126747400Y-115820400D01*
X128827400Y-115860400D02*
X131036400Y-115860400D01*
X124538400Y-115860400D02*
X126747400Y-115860400D01*
X128827400Y-115900400D02*
X131061400Y-115900400D01*
X124513400Y-115900400D02*
X126747400Y-115900400D01*
X128827400Y-115940400D02*
X131084400Y-115940400D01*
X124490400Y-115940400D02*
X126747400Y-115940400D01*
X128827400Y-115980400D02*
X131108400Y-115980400D01*
X124466400Y-115980400D02*
X126747400Y-115980400D01*
X128827400Y-116020400D02*
X131130400Y-116020400D01*
X124444400Y-116020400D02*
X126747400Y-116020400D01*
X128827400Y-116060400D02*
X131152400Y-116060400D01*
X124422400Y-116060400D02*
X126747400Y-116060400D01*
X128827400Y-116100400D02*
X131173400Y-116100400D01*
X124401400Y-116100400D02*
X126747400Y-116100400D01*
X128827400Y-116140400D02*
X131194400Y-116140400D01*
X124380400Y-116140400D02*
X126747400Y-116140400D01*
X128827400Y-116180400D02*
X131214400Y-116180400D01*
X124360400Y-116180400D02*
X126747400Y-116180400D01*
X128827400Y-116220400D02*
X131234400Y-116220400D01*
X124340400Y-116220400D02*
X126747400Y-116220400D01*
X128827400Y-116260400D02*
X131253400Y-116260400D01*
X124321400Y-116260400D02*
X126747400Y-116260400D01*
X128827400Y-116300400D02*
X131271400Y-116300400D01*
X124303400Y-116300400D02*
X126747400Y-116300400D01*
X128827400Y-116340400D02*
X131289400Y-116340400D01*
X124285400Y-116340400D02*
X126747400Y-116340400D01*
X128827400Y-116380400D02*
X131307400Y-116380400D01*
X124267400Y-116380400D02*
X126747400Y-116380400D01*
X128827400Y-116420400D02*
X131323400Y-116420400D01*
X124251400Y-116420400D02*
X126747400Y-116420400D01*
X128827400Y-116460400D02*
X131340400Y-116460400D01*
X124234400Y-116460400D02*
X126747400Y-116460400D01*
X128827400Y-116500400D02*
X131355400Y-116500400D01*
X124219400Y-116500400D02*
X126747400Y-116500400D01*
X128827400Y-116540400D02*
X131371400Y-116540400D01*
X124203400Y-116540400D02*
X126747400Y-116540400D01*
X128827400Y-116580400D02*
X131385400Y-116580400D01*
X124189400Y-116580400D02*
X126747400Y-116580400D01*
X128827400Y-116620400D02*
X131400400Y-116620400D01*
X124174400Y-116620400D02*
X126747400Y-116620400D01*
X128827400Y-116660400D02*
X131413400Y-116660400D01*
X124161400Y-116660400D02*
X126747400Y-116660400D01*
X128827400Y-116700400D02*
X131427400Y-116700400D01*
X124147400Y-116700400D02*
X126747400Y-116700400D01*
X128827400Y-116740400D02*
X131440400Y-116740400D01*
X124134400Y-116740400D02*
X126747400Y-116740400D01*
X128827400Y-116780400D02*
X131452400Y-116780400D01*
X124122400Y-116780400D02*
X126747400Y-116780400D01*
X128827400Y-116820400D02*
X131464400Y-116820400D01*
X124110400Y-116820400D02*
X126747400Y-116820400D01*
X128827400Y-116860400D02*
X131475400Y-116860400D01*
X124099400Y-116860400D02*
X126747400Y-116860400D01*
X128827400Y-116900400D02*
X131486400Y-116900400D01*
X124088400Y-116900400D02*
X126747400Y-116900400D01*
X128827400Y-116940400D02*
X131497400Y-116940400D01*
X124077400Y-116940400D02*
X126747400Y-116940400D01*
X128827400Y-116980400D02*
X131507400Y-116980400D01*
X124067400Y-116980400D02*
X126747400Y-116980400D01*
X128827400Y-117020400D02*
X131516400Y-117020400D01*
X124058400Y-117020400D02*
X126747400Y-117020400D01*
X128827400Y-117060400D02*
X131525400Y-117060400D01*
X124049400Y-117060400D02*
X126747400Y-117060400D01*
X128827400Y-117100400D02*
X131534400Y-117100400D01*
X124040400Y-117100400D02*
X126747400Y-117100400D01*
X128827400Y-117140400D02*
X131542400Y-117140400D01*
X124032400Y-117140400D02*
X126747400Y-117140400D01*
X128827400Y-117180400D02*
X131550400Y-117180400D01*
X124024400Y-117180400D02*
X126747400Y-117180400D01*
X128827400Y-117221400D02*
X131557400Y-117221400D01*
X124017400Y-117221400D02*
X126747400Y-117221400D01*
X128827400Y-117261400D02*
X131564400Y-117261400D01*
X124010400Y-117261400D02*
X126747400Y-117261400D01*
X128827400Y-117301400D02*
X131571400Y-117301400D01*
X124003400Y-117301400D02*
X126747400Y-117301400D01*
X128827400Y-117341400D02*
X131577400Y-117341400D01*
X123997400Y-117341400D02*
X126747400Y-117341400D01*
X128827400Y-117381400D02*
X131582400Y-117381400D01*
X123992400Y-117381400D02*
X126747400Y-117381400D01*
X128827400Y-117421400D02*
X131588400Y-117421400D01*
X123986400Y-117421400D02*
X126747400Y-117421400D01*
X128827400Y-117461400D02*
X131592400Y-117461400D01*
X123982400Y-117461400D02*
X126747400Y-117461400D01*
X128827400Y-117501400D02*
X131597400Y-117501400D01*
X123977400Y-117501400D02*
X126747400Y-117501400D01*
X128827400Y-117541400D02*
X131601400Y-117541400D01*
X123973400Y-117541400D02*
X126747400Y-117541400D01*
X128827400Y-117581400D02*
X131604400Y-117581400D01*
X123970400Y-117581400D02*
X126747400Y-117581400D01*
X128827400Y-117621400D02*
X131607400Y-117621400D01*
X123967400Y-117621400D02*
X126747400Y-117621400D01*
X128827400Y-117661400D02*
X131610400Y-117661400D01*
X123964400Y-117661400D02*
X126747400Y-117661400D01*
X123962400Y-117701400D02*
X131612400Y-117701400D01*
X123960400Y-117741400D02*
X131614400Y-117741400D01*
X123958400Y-117781400D02*
X131616400Y-117781400D01*
X123957400Y-117821400D02*
X131617400Y-117821400D01*
X123957400Y-117861400D02*
X131617400Y-117861400D01*
X123957400Y-117901400D02*
X131617400Y-117901400D01*
X131657400Y-117901400D02*
G75*
G03X131657400Y-117901400I-3870000J0D01*
G01*
D13*
X142503600Y-99989800D02*
G75*
G03X142503600Y-99989800I-100000J0D01*
G01*
D14*
X141453600Y-97839800D02*
X141453600Y-81839800D01*
X157453600Y-97839800D02*
X157453600Y-81839800D01*
D12*
X143117800Y-103428800D02*
G75*
G03X143117800Y-103428800I-4470000J0D01*
G01*
X160239400Y-70831400D02*
X152739400Y-70831400D01*
X160239400Y-63331400D02*
X160239400Y-70831400D01*
X152739400Y-63331400D02*
X152739400Y-70831400D01*
X152739400Y-63331400D02*
X160239400Y-63331400D01*
X125176600Y-108432600D02*
X125176600Y-111882600D01*
X125176600Y-108432600D02*
X125176600Y-106482600D01*
X130296600Y-108432600D02*
X130296600Y-110382600D01*
X130296600Y-108432600D02*
X130296600Y-106482600D01*
X126836600Y-102422600D02*
X129286600Y-102422600D01*
X128636600Y-99202600D02*
X126836600Y-99202600D01*
X126466600Y-88092600D02*
X123016600Y-88092600D01*
X126466600Y-88092600D02*
X128416600Y-88092600D01*
X126466600Y-93212600D02*
X124516600Y-93212600D01*
X126466600Y-93212600D02*
X128416600Y-93212600D01*
X127134536Y-97912600D02*
X128338664Y-97912600D01*
X127134536Y-96092600D02*
X128338664Y-96092600D01*
X130707200Y-78603852D02*
X130707200Y-78081348D01*
X129287200Y-78603852D02*
X129287200Y-78081348D01*
X135406200Y-78594852D02*
X135406200Y-78072348D01*
X133986200Y-78594852D02*
X133986200Y-78072348D01*
X140156000Y-78594852D02*
X140156000Y-78072348D01*
X138736000Y-78594852D02*
X138736000Y-78072348D01*
D10*
X120303800Y-87148400D02*
X116303800Y-87148400D01*
X120303800Y-103148400D02*
X120303800Y-87148400D01*
X116303800Y-103148400D02*
X120303800Y-103148400D01*
X116303800Y-96148400D02*
X116303800Y-103148400D01*
X116603800Y-96148400D02*
X116303800Y-96148400D01*
X116603800Y-94148400D02*
X116603800Y-96148400D01*
X116303800Y-94148400D02*
X116603800Y-94148400D01*
X116303800Y-87148400D02*
X116303800Y-94148400D01*
X159967000Y-122947400D02*
X159967000Y-109947400D01*
X141917000Y-109947400D02*
X159967000Y-109947400D01*
X141917000Y-122947400D02*
X141917000Y-109947400D01*
X159967000Y-122947400D02*
X141917000Y-122947400D01*
X143541400Y-108287400D02*
X143541400Y-101567400D01*
X163341400Y-108287400D02*
X143541400Y-108287400D01*
X163341400Y-101567400D02*
X163341400Y-108287400D01*
X143541400Y-101567400D02*
X163341400Y-101567400D01*
D12*
X122043200Y-109964600D02*
X117983200Y-109964600D01*
X122043200Y-112234600D02*
X122043200Y-109964600D01*
X117983200Y-112234600D02*
X122043200Y-112234600D01*
X128862200Y-82198200D02*
X128862200Y-86258200D01*
X131132200Y-82198200D02*
X128862200Y-82198200D01*
X131132200Y-86258200D02*
X131132200Y-82198200D01*
X133561200Y-82187100D02*
X133561200Y-86247100D01*
X135831200Y-82187100D02*
X133561200Y-82187100D01*
X135831200Y-86247100D02*
X135831200Y-82187100D01*
X138311000Y-82198200D02*
X138311000Y-86258200D01*
X140581000Y-82198200D02*
X138311000Y-82198200D01*
X140581000Y-86258200D02*
X140581000Y-82198200D01*
X149208748Y-73963600D02*
X149731252Y-73963600D01*
X149208748Y-72543600D02*
X149731252Y-72543600D01*
X149217748Y-77570400D02*
X149740252Y-77570400D01*
X149217748Y-76150400D02*
X149740252Y-76150400D01*
X132919400Y-110212348D02*
X132919400Y-110734852D01*
X134339400Y-110212348D02*
X134339400Y-110734852D01*
X133949600Y-121592411D02*
X134699600Y-121592411D01*
X134324600Y-121967411D02*
X134324600Y-121217411D01*
X136058600Y-113984200D02*
X136940600Y-113984200D01*
X135806600Y-114024200D02*
X137192600Y-114024200D01*
X135622600Y-114064200D02*
X137376600Y-114064200D01*
X135471600Y-114104200D02*
X137527600Y-114104200D01*
X135341600Y-114144200D02*
X137657600Y-114144200D01*
X135224600Y-114184200D02*
X137774600Y-114184200D01*
X135118600Y-114224200D02*
X137880600Y-114224200D01*
X135021600Y-114264200D02*
X137977600Y-114264200D01*
X134930600Y-114304200D02*
X138068600Y-114304200D01*
X134845600Y-114344200D02*
X138153600Y-114344200D01*
X134766600Y-114384200D02*
X138232600Y-114384200D01*
X134690600Y-114424200D02*
X138308600Y-114424200D01*
X134618600Y-114464200D02*
X138380600Y-114464200D01*
X134550600Y-114504200D02*
X138448600Y-114504200D01*
X134485600Y-114544200D02*
X138513600Y-114544200D01*
X134422600Y-114584200D02*
X138576600Y-114584200D01*
X134362600Y-114624200D02*
X138636600Y-114624200D01*
X134304600Y-114664200D02*
X138694600Y-114664200D01*
X134249600Y-114704200D02*
X138749600Y-114704200D01*
X134195600Y-114744200D02*
X138803600Y-114744200D01*
X134144600Y-114784200D02*
X138854600Y-114784200D01*
X134094600Y-114824200D02*
X138904600Y-114824200D01*
X134045600Y-114864200D02*
X138953600Y-114864200D01*
X133999600Y-114904200D02*
X138999600Y-114904200D01*
X133953600Y-114944200D02*
X139045600Y-114944200D01*
X133910600Y-114984200D02*
X139088600Y-114984200D01*
X133867600Y-115024200D02*
X139131600Y-115024200D01*
X133826600Y-115064200D02*
X139172600Y-115064200D01*
X133786600Y-115104200D02*
X139212600Y-115104200D01*
X133747600Y-115144200D02*
X139251600Y-115144200D01*
X133709600Y-115184200D02*
X139289600Y-115184200D01*
X133672600Y-115224200D02*
X139326600Y-115224200D01*
X133636600Y-115264200D02*
X139362600Y-115264200D01*
X133601600Y-115304200D02*
X139397600Y-115304200D01*
X133568600Y-115344200D02*
X139430600Y-115344200D01*
X133535600Y-115384200D02*
X139463600Y-115384200D01*
X133503600Y-115424200D02*
X139495600Y-115424200D01*
X133471600Y-115464200D02*
X139527600Y-115464200D01*
X133441600Y-115504200D02*
X139557600Y-115504200D01*
X137539600Y-115544200D02*
X139587600Y-115544200D01*
X133411600Y-115544200D02*
X135459600Y-115544200D01*
X137539600Y-115584200D02*
X139615600Y-115584200D01*
X133383600Y-115584200D02*
X135459600Y-115584200D01*
X137539600Y-115624200D02*
X139643600Y-115624200D01*
X133355600Y-115624200D02*
X135459600Y-115624200D01*
X137539600Y-115664200D02*
X139671600Y-115664200D01*
X133327600Y-115664200D02*
X135459600Y-115664200D01*
X137539600Y-115704200D02*
X139697600Y-115704200D01*
X133301600Y-115704200D02*
X135459600Y-115704200D01*
X137539600Y-115744200D02*
X139723600Y-115744200D01*
X133275600Y-115744200D02*
X135459600Y-115744200D01*
X137539600Y-115784200D02*
X139748600Y-115784200D01*
X133250600Y-115784200D02*
X135459600Y-115784200D01*
X137539600Y-115824200D02*
X139773600Y-115824200D01*
X133225600Y-115824200D02*
X135459600Y-115824200D01*
X137539600Y-115864200D02*
X139796600Y-115864200D01*
X133202600Y-115864200D02*
X135459600Y-115864200D01*
X137539600Y-115904200D02*
X139820600Y-115904200D01*
X133178600Y-115904200D02*
X135459600Y-115904200D01*
X137539600Y-115944200D02*
X139842600Y-115944200D01*
X133156600Y-115944200D02*
X135459600Y-115944200D01*
X137539600Y-115984200D02*
X139864600Y-115984200D01*
X133134600Y-115984200D02*
X135459600Y-115984200D01*
X137539600Y-116024200D02*
X139885600Y-116024200D01*
X133113600Y-116024200D02*
X135459600Y-116024200D01*
X137539600Y-116064200D02*
X139906600Y-116064200D01*
X133092600Y-116064200D02*
X135459600Y-116064200D01*
X137539600Y-116104200D02*
X139926600Y-116104200D01*
X133072600Y-116104200D02*
X135459600Y-116104200D01*
X137539600Y-116144200D02*
X139946600Y-116144200D01*
X133052600Y-116144200D02*
X135459600Y-116144200D01*
X137539600Y-116184200D02*
X139965600Y-116184200D01*
X133033600Y-116184200D02*
X135459600Y-116184200D01*
X137539600Y-116224200D02*
X139983600Y-116224200D01*
X133015600Y-116224200D02*
X135459600Y-116224200D01*
X137539600Y-116264200D02*
X140001600Y-116264200D01*
X132997600Y-116264200D02*
X135459600Y-116264200D01*
X137539600Y-116304200D02*
X140019600Y-116304200D01*
X132979600Y-116304200D02*
X135459600Y-116304200D01*
X137539600Y-116344200D02*
X140035600Y-116344200D01*
X132963600Y-116344200D02*
X135459600Y-116344200D01*
X137539600Y-116384200D02*
X140052600Y-116384200D01*
X132946600Y-116384200D02*
X135459600Y-116384200D01*
X137539600Y-116424200D02*
X140067600Y-116424200D01*
X132931600Y-116424200D02*
X135459600Y-116424200D01*
X137539600Y-116464200D02*
X140083600Y-116464200D01*
X132915600Y-116464200D02*
X135459600Y-116464200D01*
X137539600Y-116504200D02*
X140097600Y-116504200D01*
X132901600Y-116504200D02*
X135459600Y-116504200D01*
X137539600Y-116544200D02*
X140112600Y-116544200D01*
X132886600Y-116544200D02*
X135459600Y-116544200D01*
X137539600Y-116584200D02*
X140125600Y-116584200D01*
X132873600Y-116584200D02*
X135459600Y-116584200D01*
X137539600Y-116624200D02*
X140139600Y-116624200D01*
X132859600Y-116624200D02*
X135459600Y-116624200D01*
X137539600Y-116664200D02*
X140152600Y-116664200D01*
X132846600Y-116664200D02*
X135459600Y-116664200D01*
X137539600Y-116704200D02*
X140164600Y-116704200D01*
X132834600Y-116704200D02*
X135459600Y-116704200D01*
X137539600Y-116744200D02*
X140176600Y-116744200D01*
X132822600Y-116744200D02*
X135459600Y-116744200D01*
X137539600Y-116784200D02*
X140187600Y-116784200D01*
X132811600Y-116784200D02*
X135459600Y-116784200D01*
X137539600Y-116824200D02*
X140198600Y-116824200D01*
X132800600Y-116824200D02*
X135459600Y-116824200D01*
X137539600Y-116864200D02*
X140209600Y-116864200D01*
X132789600Y-116864200D02*
X135459600Y-116864200D01*
X137539600Y-116904200D02*
X140219600Y-116904200D01*
X132779600Y-116904200D02*
X135459600Y-116904200D01*
X137539600Y-116944200D02*
X140228600Y-116944200D01*
X132770600Y-116944200D02*
X135459600Y-116944200D01*
X137539600Y-116984200D02*
X140237600Y-116984200D01*
X132761600Y-116984200D02*
X135459600Y-116984200D01*
X137539600Y-117024200D02*
X140246600Y-117024200D01*
X132752600Y-117024200D02*
X135459600Y-117024200D01*
X137539600Y-117064200D02*
X140254600Y-117064200D01*
X132744600Y-117064200D02*
X135459600Y-117064200D01*
X137539600Y-117104200D02*
X140262600Y-117104200D01*
X132736600Y-117104200D02*
X135459600Y-117104200D01*
X137539600Y-117145200D02*
X140269600Y-117145200D01*
X132729600Y-117145200D02*
X135459600Y-117145200D01*
X137539600Y-117185200D02*
X140276600Y-117185200D01*
X132722600Y-117185200D02*
X135459600Y-117185200D01*
X137539600Y-117225200D02*
X140283600Y-117225200D01*
X132715600Y-117225200D02*
X135459600Y-117225200D01*
X137539600Y-117265200D02*
X140289600Y-117265200D01*
X132709600Y-117265200D02*
X135459600Y-117265200D01*
X137539600Y-117305200D02*
X140294600Y-117305200D01*
X132704600Y-117305200D02*
X135459600Y-117305200D01*
X137539600Y-117345200D02*
X140300600Y-117345200D01*
X132698600Y-117345200D02*
X135459600Y-117345200D01*
X137539600Y-117385200D02*
X140304600Y-117385200D01*
X132694600Y-117385200D02*
X135459600Y-117385200D01*
X137539600Y-117425200D02*
X140309600Y-117425200D01*
X132689600Y-117425200D02*
X135459600Y-117425200D01*
X137539600Y-117465200D02*
X140313600Y-117465200D01*
X132685600Y-117465200D02*
X135459600Y-117465200D01*
X137539600Y-117505200D02*
X140316600Y-117505200D01*
X132682600Y-117505200D02*
X135459600Y-117505200D01*
X137539600Y-117545200D02*
X140319600Y-117545200D01*
X132679600Y-117545200D02*
X135459600Y-117545200D01*
X137539600Y-117585200D02*
X140322600Y-117585200D01*
X132676600Y-117585200D02*
X135459600Y-117585200D01*
X132674600Y-117625200D02*
X140324600Y-117625200D01*
X132672600Y-117665200D02*
X140326600Y-117665200D01*
X132670600Y-117705200D02*
X140328600Y-117705200D01*
X132669600Y-117745200D02*
X140329600Y-117745200D01*
X132669600Y-117785200D02*
X140329600Y-117785200D01*
X132669600Y-117825200D02*
X140329600Y-117825200D01*
X140369600Y-117825200D02*
G75*
G03X140369600Y-117825200I-3870000J0D01*
G01*
X123366600Y-101073852D02*
X123366600Y-100551348D01*
X121946600Y-101073852D02*
X121946600Y-100551348D01*
X121946600Y-106656348D02*
X121946600Y-107178852D01*
X123366600Y-106656348D02*
X123366600Y-107178852D01*
X132741600Y-92804348D02*
X132741600Y-93326852D01*
X134161600Y-92804348D02*
X134161600Y-93326852D01*
D10*
X141043066Y-69988180D02*
X141043066Y-70702466D01*
X140995447Y-70845323D01*
X140900209Y-70940561D01*
X140757352Y-70988180D01*
X140662114Y-70988180D01*
X142043066Y-70988180D02*
X141471638Y-70988180D01*
X141757352Y-70988180D02*
X141757352Y-69988180D01*
X141662114Y-70131038D01*
X141566876Y-70226276D01*
X141471638Y-70273895D01*
X131430733Y-121819942D02*
X131383114Y-121867561D01*
X131240257Y-121915180D01*
X131145019Y-121915180D01*
X131002161Y-121867561D01*
X130906923Y-121772323D01*
X130859304Y-121677085D01*
X130811685Y-121486609D01*
X130811685Y-121343752D01*
X130859304Y-121153276D01*
X130906923Y-121058038D01*
X131002161Y-120962800D01*
X131145019Y-120915180D01*
X131240257Y-120915180D01*
X131383114Y-120962800D01*
X131430733Y-121010419D01*
X132335495Y-120915180D02*
X131859304Y-120915180D01*
X131811685Y-121391371D01*
X131859304Y-121343752D01*
X131954542Y-121296133D01*
X132192638Y-121296133D01*
X132287876Y-121343752D01*
X132335495Y-121391371D01*
X132383114Y-121486609D01*
X132383114Y-121724704D01*
X132335495Y-121819942D01*
X132287876Y-121867561D01*
X132192638Y-121915180D01*
X131954542Y-121915180D01*
X131859304Y-121867561D01*
X131811685Y-121819942D01*
X158165895Y-96708980D02*
X158165895Y-97518504D01*
X158213514Y-97613742D01*
X158261133Y-97661361D01*
X158356371Y-97708980D01*
X158546847Y-97708980D01*
X158642085Y-97661361D01*
X158689704Y-97613742D01*
X158737323Y-97518504D01*
X158737323Y-96708980D01*
X159642085Y-97042314D02*
X159642085Y-97708980D01*
X159403990Y-96661361D02*
X159165895Y-97375647D01*
X159784942Y-97375647D01*
X134732733Y-107919780D02*
X134256542Y-107919780D01*
X134256542Y-106919780D01*
X135589876Y-107919780D02*
X135018447Y-107919780D01*
X135304161Y-107919780D02*
X135304161Y-106919780D01*
X135208923Y-107062638D01*
X135113685Y-107157876D01*
X135018447Y-107205495D01*
X151431666Y-69708780D02*
X151431666Y-70423066D01*
X151384047Y-70565923D01*
X151288809Y-70661161D01*
X151145952Y-70708780D01*
X151050714Y-70708780D01*
X152336428Y-70042114D02*
X152336428Y-70708780D01*
X152098333Y-69661161D02*
X151860238Y-70375447D01*
X152479285Y-70375447D01*
X130784695Y-110424980D02*
X130784695Y-111234504D01*
X130832314Y-111329742D01*
X130879933Y-111377361D01*
X130975171Y-111424980D01*
X131165647Y-111424980D01*
X131260885Y-111377361D01*
X131308504Y-111329742D01*
X131356123Y-111234504D01*
X131356123Y-110424980D01*
X132260885Y-110424980D02*
X132070409Y-110424980D01*
X131975171Y-110472600D01*
X131927552Y-110520219D01*
X131832314Y-110663076D01*
X131784695Y-110853552D01*
X131784695Y-111234504D01*
X131832314Y-111329742D01*
X131879933Y-111377361D01*
X131975171Y-111424980D01*
X132165647Y-111424980D01*
X132260885Y-111377361D01*
X132308504Y-111329742D01*
X132356123Y-111234504D01*
X132356123Y-110996409D01*
X132308504Y-110901171D01*
X132260885Y-110853552D01*
X132165647Y-110805933D01*
X131975171Y-110805933D01*
X131879933Y-110853552D01*
X131832314Y-110901171D01*
X131784695Y-110996409D01*
X126974695Y-103164980D02*
X126974695Y-103974504D01*
X127022314Y-104069742D01*
X127069933Y-104117361D01*
X127165171Y-104164980D01*
X127355647Y-104164980D01*
X127450885Y-104117361D01*
X127498504Y-104069742D01*
X127546123Y-103974504D01*
X127546123Y-103164980D01*
X128498504Y-103164980D02*
X128022314Y-103164980D01*
X127974695Y-103641171D01*
X128022314Y-103593552D01*
X128117552Y-103545933D01*
X128355647Y-103545933D01*
X128450885Y-103593552D01*
X128498504Y-103641171D01*
X128546123Y-103736409D01*
X128546123Y-103974504D01*
X128498504Y-104069742D01*
X128450885Y-104117361D01*
X128355647Y-104164980D01*
X128117552Y-104164980D01*
X128022314Y-104117361D01*
X127974695Y-104069742D01*
X130657695Y-92162380D02*
X130657695Y-92971904D01*
X130705314Y-93067142D01*
X130752933Y-93114761D01*
X130848171Y-93162380D01*
X131038647Y-93162380D01*
X131133885Y-93114761D01*
X131181504Y-93067142D01*
X131229123Y-92971904D01*
X131229123Y-92162380D01*
X131657695Y-92257619D02*
X131705314Y-92210000D01*
X131800552Y-92162380D01*
X132038647Y-92162380D01*
X132133885Y-92210000D01*
X132181504Y-92257619D01*
X132229123Y-92352857D01*
X132229123Y-92448095D01*
X132181504Y-92590952D01*
X131610076Y-93162380D01*
X132229123Y-93162380D01*
X127569933Y-95634980D02*
X127236600Y-95158790D01*
X126998504Y-95634980D02*
X126998504Y-94634980D01*
X127379457Y-94634980D01*
X127474695Y-94682600D01*
X127522314Y-94730219D01*
X127569933Y-94825457D01*
X127569933Y-94968314D01*
X127522314Y-95063552D01*
X127474695Y-95111171D01*
X127379457Y-95158790D01*
X126998504Y-95158790D01*
X128474695Y-94634980D02*
X127998504Y-94634980D01*
X127950885Y-95111171D01*
X127998504Y-95063552D01*
X128093742Y-95015933D01*
X128331838Y-95015933D01*
X128427076Y-95063552D01*
X128474695Y-95111171D01*
X128522314Y-95206409D01*
X128522314Y-95444504D01*
X128474695Y-95539742D01*
X128427076Y-95587361D01*
X128331838Y-95634980D01*
X128093742Y-95634980D01*
X127998504Y-95587361D01*
X127950885Y-95539742D01*
X131684733Y-79878180D02*
X131351400Y-79401990D01*
X131113304Y-79878180D02*
X131113304Y-78878180D01*
X131494257Y-78878180D01*
X131589495Y-78925800D01*
X131637114Y-78973419D01*
X131684733Y-79068657D01*
X131684733Y-79211514D01*
X131637114Y-79306752D01*
X131589495Y-79354371D01*
X131494257Y-79401990D01*
X131113304Y-79401990D01*
X132018066Y-78878180D02*
X132637114Y-78878180D01*
X132303780Y-79259133D01*
X132446638Y-79259133D01*
X132541876Y-79306752D01*
X132589495Y-79354371D01*
X132637114Y-79449609D01*
X132637114Y-79687704D01*
X132589495Y-79782942D01*
X132541876Y-79830561D01*
X132446638Y-79878180D01*
X132160923Y-79878180D01*
X132065685Y-79830561D01*
X132018066Y-79782942D01*
X136409133Y-79878180D02*
X136075800Y-79401990D01*
X135837704Y-79878180D02*
X135837704Y-78878180D01*
X136218657Y-78878180D01*
X136313895Y-78925800D01*
X136361514Y-78973419D01*
X136409133Y-79068657D01*
X136409133Y-79211514D01*
X136361514Y-79306752D01*
X136313895Y-79354371D01*
X136218657Y-79401990D01*
X135837704Y-79401990D01*
X136790085Y-78973419D02*
X136837704Y-78925800D01*
X136932942Y-78878180D01*
X137171038Y-78878180D01*
X137266276Y-78925800D01*
X137313895Y-78973419D01*
X137361514Y-79068657D01*
X137361514Y-79163895D01*
X137313895Y-79306752D01*
X136742466Y-79878180D01*
X137361514Y-79878180D01*
X141133533Y-79903580D02*
X140800200Y-79427390D01*
X140562104Y-79903580D02*
X140562104Y-78903580D01*
X140943057Y-78903580D01*
X141038295Y-78951200D01*
X141085914Y-78998819D01*
X141133533Y-79094057D01*
X141133533Y-79236914D01*
X141085914Y-79332152D01*
X141038295Y-79379771D01*
X140943057Y-79427390D01*
X140562104Y-79427390D01*
X142085914Y-79903580D02*
X141514485Y-79903580D01*
X141800200Y-79903580D02*
X141800200Y-78903580D01*
X141704961Y-79046438D01*
X141609723Y-79141676D01*
X141514485Y-79189295D01*
X117970466Y-85710780D02*
X117970466Y-86425066D01*
X117922847Y-86567923D01*
X117827609Y-86663161D01*
X117684752Y-86710780D01*
X117589514Y-86710780D01*
X118351419Y-85710780D02*
X118970466Y-85710780D01*
X118637133Y-86091733D01*
X118779990Y-86091733D01*
X118875228Y-86139352D01*
X118922847Y-86186971D01*
X118970466Y-86282209D01*
X118970466Y-86520304D01*
X118922847Y-86615542D01*
X118875228Y-86663161D01*
X118779990Y-86710780D01*
X118494276Y-86710780D01*
X118399038Y-86663161D01*
X118351419Y-86615542D01*
X161083666Y-110729780D02*
X161083666Y-111444066D01*
X161036047Y-111586923D01*
X160940809Y-111682161D01*
X160797952Y-111729780D01*
X160702714Y-111729780D01*
X161512238Y-110825019D02*
X161559857Y-110777400D01*
X161655095Y-110729780D01*
X161893190Y-110729780D01*
X161988428Y-110777400D01*
X162036047Y-110825019D01*
X162083666Y-110920257D01*
X162083666Y-111015495D01*
X162036047Y-111158352D01*
X161464619Y-111729780D01*
X162083666Y-111729780D01*
X164284066Y-107649971D02*
X163950733Y-107649971D01*
X163950733Y-108173780D02*
X163950733Y-107173780D01*
X164426923Y-107173780D01*
X165331685Y-108173780D02*
X164760257Y-108173780D01*
X165045971Y-108173780D02*
X165045971Y-107173780D01*
X164950733Y-107316638D01*
X164855495Y-107411876D01*
X164760257Y-107459495D01*
X118845104Y-113371980D02*
X118845104Y-112371980D01*
X119083200Y-112371980D01*
X119226057Y-112419600D01*
X119321295Y-112514838D01*
X119368914Y-112610076D01*
X119416533Y-112800552D01*
X119416533Y-112943409D01*
X119368914Y-113133885D01*
X119321295Y-113229123D01*
X119226057Y-113324361D01*
X119083200Y-113371980D01*
X118845104Y-113371980D01*
X120273676Y-112705314D02*
X120273676Y-113371980D01*
X120035580Y-112324361D02*
X119797485Y-113038647D01*
X120416533Y-113038647D01*
X129309904Y-81975280D02*
X129309904Y-80975280D01*
X129548000Y-80975280D01*
X129690857Y-81022900D01*
X129786095Y-81118138D01*
X129833714Y-81213376D01*
X129881333Y-81403852D01*
X129881333Y-81546709D01*
X129833714Y-81737185D01*
X129786095Y-81832423D01*
X129690857Y-81927661D01*
X129548000Y-81975280D01*
X129309904Y-81975280D01*
X130214666Y-80975280D02*
X130833714Y-80975280D01*
X130500380Y-81356233D01*
X130643238Y-81356233D01*
X130738476Y-81403852D01*
X130786095Y-81451471D01*
X130833714Y-81546709D01*
X130833714Y-81784804D01*
X130786095Y-81880042D01*
X130738476Y-81927661D01*
X130643238Y-81975280D01*
X130357523Y-81975280D01*
X130262285Y-81927661D01*
X130214666Y-81880042D01*
X133958104Y-81986380D02*
X133958104Y-80986380D01*
X134196200Y-80986380D01*
X134339057Y-81034000D01*
X134434295Y-81129238D01*
X134481914Y-81224476D01*
X134529533Y-81414952D01*
X134529533Y-81557809D01*
X134481914Y-81748285D01*
X134434295Y-81843523D01*
X134339057Y-81938761D01*
X134196200Y-81986380D01*
X133958104Y-81986380D01*
X134910485Y-81081619D02*
X134958104Y-81034000D01*
X135053342Y-80986380D01*
X135291438Y-80986380D01*
X135386676Y-81034000D01*
X135434295Y-81081619D01*
X135481914Y-81176857D01*
X135481914Y-81272095D01*
X135434295Y-81414952D01*
X134862866Y-81986380D01*
X135481914Y-81986380D01*
X138707904Y-82011780D02*
X138707904Y-81011780D01*
X138946000Y-81011780D01*
X139088857Y-81059400D01*
X139184095Y-81154638D01*
X139231714Y-81249876D01*
X139279333Y-81440352D01*
X139279333Y-81583209D01*
X139231714Y-81773685D01*
X139184095Y-81868923D01*
X139088857Y-81964161D01*
X138946000Y-82011780D01*
X138707904Y-82011780D01*
X140231714Y-82011780D02*
X139660285Y-82011780D01*
X139946000Y-82011780D02*
X139946000Y-81011780D01*
X139850761Y-81154638D01*
X139755523Y-81249876D01*
X139660285Y-81297495D01*
X145178542Y-73559942D02*
X145130923Y-73607561D01*
X144988066Y-73655180D01*
X144892828Y-73655180D01*
X144749971Y-73607561D01*
X144654733Y-73512323D01*
X144607114Y-73417085D01*
X144559495Y-73226609D01*
X144559495Y-73083752D01*
X144607114Y-72893276D01*
X144654733Y-72798038D01*
X144749971Y-72702800D01*
X144892828Y-72655180D01*
X144988066Y-72655180D01*
X145130923Y-72702800D01*
X145178542Y-72750419D01*
X146130923Y-73655180D02*
X145559495Y-73655180D01*
X145845209Y-73655180D02*
X145845209Y-72655180D01*
X145749971Y-72798038D01*
X145654733Y-72893276D01*
X145559495Y-72940895D01*
X146988066Y-72988514D02*
X146988066Y-73655180D01*
X146749971Y-72607561D02*
X146511876Y-73321847D01*
X147130923Y-73321847D01*
X145203942Y-77217542D02*
X145156323Y-77265161D01*
X145013466Y-77312780D01*
X144918228Y-77312780D01*
X144775371Y-77265161D01*
X144680133Y-77169923D01*
X144632514Y-77074685D01*
X144584895Y-76884209D01*
X144584895Y-76741352D01*
X144632514Y-76550876D01*
X144680133Y-76455638D01*
X144775371Y-76360400D01*
X144918228Y-76312780D01*
X145013466Y-76312780D01*
X145156323Y-76360400D01*
X145203942Y-76408019D01*
X146156323Y-77312780D02*
X145584895Y-77312780D01*
X145870609Y-77312780D02*
X145870609Y-76312780D01*
X145775371Y-76455638D01*
X145680133Y-76550876D01*
X145584895Y-76598495D01*
X146489657Y-76312780D02*
X147108704Y-76312780D01*
X146775371Y-76693733D01*
X146918228Y-76693733D01*
X147013466Y-76741352D01*
X147061085Y-76788971D01*
X147108704Y-76884209D01*
X147108704Y-77122304D01*
X147061085Y-77217542D01*
X147013466Y-77265161D01*
X146918228Y-77312780D01*
X146632514Y-77312780D01*
X146537276Y-77265161D01*
X146489657Y-77217542D01*
X135636542Y-111116457D02*
X135684161Y-111164076D01*
X135731780Y-111306933D01*
X135731780Y-111402171D01*
X135684161Y-111545028D01*
X135588923Y-111640266D01*
X135493685Y-111687885D01*
X135303209Y-111735504D01*
X135160352Y-111735504D01*
X134969876Y-111687885D01*
X134874638Y-111640266D01*
X134779400Y-111545028D01*
X134731780Y-111402171D01*
X134731780Y-111306933D01*
X134779400Y-111164076D01*
X134827019Y-111116457D01*
X135731780Y-110164076D02*
X135731780Y-110735504D01*
X135731780Y-110449790D02*
X134731780Y-110449790D01*
X134874638Y-110545028D01*
X134969876Y-110640266D01*
X135017495Y-110735504D01*
X134731780Y-109545028D02*
X134731780Y-109449790D01*
X134779400Y-109354552D01*
X134827019Y-109306933D01*
X134922257Y-109259314D01*
X135112733Y-109211695D01*
X135350828Y-109211695D01*
X135541304Y-109259314D01*
X135636542Y-109306933D01*
X135684161Y-109354552D01*
X135731780Y-109449790D01*
X135731780Y-109545028D01*
X135684161Y-109640266D01*
X135636542Y-109687885D01*
X135541304Y-109735504D01*
X135350828Y-109783123D01*
X135112733Y-109783123D01*
X134922257Y-109735504D01*
X134827019Y-109687885D01*
X134779400Y-109640266D01*
X134731780Y-109545028D01*
X140295333Y-121718342D02*
X140247714Y-121765961D01*
X140104857Y-121813580D01*
X140009619Y-121813580D01*
X139866761Y-121765961D01*
X139771523Y-121670723D01*
X139723904Y-121575485D01*
X139676285Y-121385009D01*
X139676285Y-121242152D01*
X139723904Y-121051676D01*
X139771523Y-120956438D01*
X139866761Y-120861200D01*
X140009619Y-120813580D01*
X140104857Y-120813580D01*
X140247714Y-120861200D01*
X140295333Y-120908819D01*
X140771523Y-121813580D02*
X140962000Y-121813580D01*
X141057238Y-121765961D01*
X141104857Y-121718342D01*
X141200095Y-121575485D01*
X141247714Y-121385009D01*
X141247714Y-121004057D01*
X141200095Y-120908819D01*
X141152476Y-120861200D01*
X141057238Y-120813580D01*
X140866761Y-120813580D01*
X140771523Y-120861200D01*
X140723904Y-120908819D01*
X140676285Y-121004057D01*
X140676285Y-121242152D01*
X140723904Y-121337390D01*
X140771523Y-121385009D01*
X140866761Y-121432628D01*
X141057238Y-121432628D01*
X141152476Y-121385009D01*
X141200095Y-121337390D01*
X141247714Y-121242152D01*
X122489933Y-98629742D02*
X122442314Y-98677361D01*
X122299457Y-98724980D01*
X122204219Y-98724980D01*
X122061361Y-98677361D01*
X121966123Y-98582123D01*
X121918504Y-98486885D01*
X121870885Y-98296409D01*
X121870885Y-98153552D01*
X121918504Y-97963076D01*
X121966123Y-97867838D01*
X122061361Y-97772600D01*
X122204219Y-97724980D01*
X122299457Y-97724980D01*
X122442314Y-97772600D01*
X122489933Y-97820219D01*
X122823266Y-97724980D02*
X123489933Y-97724980D01*
X123061361Y-98724980D01*
X122489933Y-104734742D02*
X122442314Y-104782361D01*
X122299457Y-104829980D01*
X122204219Y-104829980D01*
X122061361Y-104782361D01*
X121966123Y-104687123D01*
X121918504Y-104591885D01*
X121870885Y-104401409D01*
X121870885Y-104258552D01*
X121918504Y-104068076D01*
X121966123Y-103972838D01*
X122061361Y-103877600D01*
X122204219Y-103829980D01*
X122299457Y-103829980D01*
X122442314Y-103877600D01*
X122489933Y-103925219D01*
X123347076Y-103829980D02*
X123156600Y-103829980D01*
X123061361Y-103877600D01*
X123013742Y-103925219D01*
X122918504Y-104068076D01*
X122870885Y-104258552D01*
X122870885Y-104639504D01*
X122918504Y-104734742D01*
X122966123Y-104782361D01*
X123061361Y-104829980D01*
X123251838Y-104829980D01*
X123347076Y-104782361D01*
X123394695Y-104734742D01*
X123442314Y-104639504D01*
X123442314Y-104401409D01*
X123394695Y-104306171D01*
X123347076Y-104258552D01*
X123251838Y-104210933D01*
X123061361Y-104210933D01*
X122966123Y-104258552D01*
X122918504Y-104306171D01*
X122870885Y-104401409D01*
X133284933Y-95962742D02*
X133237314Y-96010361D01*
X133094457Y-96057980D01*
X132999219Y-96057980D01*
X132856361Y-96010361D01*
X132761123Y-95915123D01*
X132713504Y-95819885D01*
X132665885Y-95629409D01*
X132665885Y-95486552D01*
X132713504Y-95296076D01*
X132761123Y-95200838D01*
X132856361Y-95105600D01*
X132999219Y-95057980D01*
X133094457Y-95057980D01*
X133237314Y-95105600D01*
X133284933Y-95153219D01*
X134142076Y-95391314D02*
X134142076Y-96057980D01*
X133903980Y-95010361D02*
X133665885Y-95724647D01*
X134284933Y-95724647D01*
M02*
