G04 #@! TF.GenerationSoftware,KiCad,Pcbnew,(5.1.2)-1*
G04 #@! TF.CreationDate,2022-03-06T16:37:34-05:00*
G04 #@! TF.ProjectId,telemetry_transmitter,74656c65-6d65-4747-9279-5f7472616e73,rev?*
G04 #@! TF.SameCoordinates,Original*
G04 #@! TF.FileFunction,Paste,Top*
G04 #@! TF.FilePolarity,Positive*
%FSLAX46Y46*%
G04 Gerber Fmt 4.6, Leading zero omitted, Abs format (unit mm)*
G04 Created by KiCad (PCBNEW (5.1.2)-1) date 2022-03-06 16:37:34*
%MOMM*%
%LPD*%
G04 APERTURE LIST*
%ADD10R,1.560000X0.650000*%
%ADD11C,0.100000*%
%ADD12C,0.600000*%
%ADD13C,1.150000*%
%ADD14C,1.425000*%
G04 APERTURE END LIST*
D10*
X125352800Y-74254320D03*
X125352800Y-76154320D03*
X122652800Y-76154320D03*
X122652800Y-75204320D03*
X122652800Y-74254320D03*
X132803880Y-90576320D03*
X132803880Y-92476320D03*
X130103880Y-92476320D03*
X130103880Y-91526320D03*
X130103880Y-90576320D03*
D11*
G36*
X149533423Y-93248922D02*
G01*
X149547984Y-93251082D01*
X149562263Y-93254659D01*
X149576123Y-93259618D01*
X149589430Y-93265912D01*
X149602056Y-93273480D01*
X149613879Y-93282248D01*
X149624786Y-93292134D01*
X149634672Y-93303041D01*
X149643440Y-93314864D01*
X149651008Y-93327490D01*
X149657302Y-93340797D01*
X149662261Y-93354657D01*
X149665838Y-93368936D01*
X149667998Y-93383497D01*
X149668720Y-93398200D01*
X149668720Y-93698200D01*
X149667998Y-93712903D01*
X149665838Y-93727464D01*
X149662261Y-93741743D01*
X149657302Y-93755603D01*
X149651008Y-93768910D01*
X149643440Y-93781536D01*
X149634672Y-93793359D01*
X149624786Y-93804266D01*
X149613879Y-93814152D01*
X149602056Y-93822920D01*
X149589430Y-93830488D01*
X149576123Y-93836782D01*
X149562263Y-93841741D01*
X149547984Y-93845318D01*
X149533423Y-93847478D01*
X149518720Y-93848200D01*
X148018720Y-93848200D01*
X148004017Y-93847478D01*
X147989456Y-93845318D01*
X147975177Y-93841741D01*
X147961317Y-93836782D01*
X147948010Y-93830488D01*
X147935384Y-93822920D01*
X147923561Y-93814152D01*
X147912654Y-93804266D01*
X147902768Y-93793359D01*
X147894000Y-93781536D01*
X147886432Y-93768910D01*
X147880138Y-93755603D01*
X147875179Y-93741743D01*
X147871602Y-93727464D01*
X147869442Y-93712903D01*
X147868720Y-93698200D01*
X147868720Y-93398200D01*
X147869442Y-93383497D01*
X147871602Y-93368936D01*
X147875179Y-93354657D01*
X147880138Y-93340797D01*
X147886432Y-93327490D01*
X147894000Y-93314864D01*
X147902768Y-93303041D01*
X147912654Y-93292134D01*
X147923561Y-93282248D01*
X147935384Y-93273480D01*
X147948010Y-93265912D01*
X147961317Y-93259618D01*
X147975177Y-93254659D01*
X147989456Y-93251082D01*
X148004017Y-93248922D01*
X148018720Y-93248200D01*
X149518720Y-93248200D01*
X149533423Y-93248922D01*
X149533423Y-93248922D01*
G37*
D12*
X148768720Y-93548200D03*
D11*
G36*
X149533423Y-94518922D02*
G01*
X149547984Y-94521082D01*
X149562263Y-94524659D01*
X149576123Y-94529618D01*
X149589430Y-94535912D01*
X149602056Y-94543480D01*
X149613879Y-94552248D01*
X149624786Y-94562134D01*
X149634672Y-94573041D01*
X149643440Y-94584864D01*
X149651008Y-94597490D01*
X149657302Y-94610797D01*
X149662261Y-94624657D01*
X149665838Y-94638936D01*
X149667998Y-94653497D01*
X149668720Y-94668200D01*
X149668720Y-94968200D01*
X149667998Y-94982903D01*
X149665838Y-94997464D01*
X149662261Y-95011743D01*
X149657302Y-95025603D01*
X149651008Y-95038910D01*
X149643440Y-95051536D01*
X149634672Y-95063359D01*
X149624786Y-95074266D01*
X149613879Y-95084152D01*
X149602056Y-95092920D01*
X149589430Y-95100488D01*
X149576123Y-95106782D01*
X149562263Y-95111741D01*
X149547984Y-95115318D01*
X149533423Y-95117478D01*
X149518720Y-95118200D01*
X148018720Y-95118200D01*
X148004017Y-95117478D01*
X147989456Y-95115318D01*
X147975177Y-95111741D01*
X147961317Y-95106782D01*
X147948010Y-95100488D01*
X147935384Y-95092920D01*
X147923561Y-95084152D01*
X147912654Y-95074266D01*
X147902768Y-95063359D01*
X147894000Y-95051536D01*
X147886432Y-95038910D01*
X147880138Y-95025603D01*
X147875179Y-95011743D01*
X147871602Y-94997464D01*
X147869442Y-94982903D01*
X147868720Y-94968200D01*
X147868720Y-94668200D01*
X147869442Y-94653497D01*
X147871602Y-94638936D01*
X147875179Y-94624657D01*
X147880138Y-94610797D01*
X147886432Y-94597490D01*
X147894000Y-94584864D01*
X147902768Y-94573041D01*
X147912654Y-94562134D01*
X147923561Y-94552248D01*
X147935384Y-94543480D01*
X147948010Y-94535912D01*
X147961317Y-94529618D01*
X147975177Y-94524659D01*
X147989456Y-94521082D01*
X148004017Y-94518922D01*
X148018720Y-94518200D01*
X149518720Y-94518200D01*
X149533423Y-94518922D01*
X149533423Y-94518922D01*
G37*
D12*
X148768720Y-94818200D03*
D11*
G36*
X149533423Y-95788922D02*
G01*
X149547984Y-95791082D01*
X149562263Y-95794659D01*
X149576123Y-95799618D01*
X149589430Y-95805912D01*
X149602056Y-95813480D01*
X149613879Y-95822248D01*
X149624786Y-95832134D01*
X149634672Y-95843041D01*
X149643440Y-95854864D01*
X149651008Y-95867490D01*
X149657302Y-95880797D01*
X149662261Y-95894657D01*
X149665838Y-95908936D01*
X149667998Y-95923497D01*
X149668720Y-95938200D01*
X149668720Y-96238200D01*
X149667998Y-96252903D01*
X149665838Y-96267464D01*
X149662261Y-96281743D01*
X149657302Y-96295603D01*
X149651008Y-96308910D01*
X149643440Y-96321536D01*
X149634672Y-96333359D01*
X149624786Y-96344266D01*
X149613879Y-96354152D01*
X149602056Y-96362920D01*
X149589430Y-96370488D01*
X149576123Y-96376782D01*
X149562263Y-96381741D01*
X149547984Y-96385318D01*
X149533423Y-96387478D01*
X149518720Y-96388200D01*
X148018720Y-96388200D01*
X148004017Y-96387478D01*
X147989456Y-96385318D01*
X147975177Y-96381741D01*
X147961317Y-96376782D01*
X147948010Y-96370488D01*
X147935384Y-96362920D01*
X147923561Y-96354152D01*
X147912654Y-96344266D01*
X147902768Y-96333359D01*
X147894000Y-96321536D01*
X147886432Y-96308910D01*
X147880138Y-96295603D01*
X147875179Y-96281743D01*
X147871602Y-96267464D01*
X147869442Y-96252903D01*
X147868720Y-96238200D01*
X147868720Y-95938200D01*
X147869442Y-95923497D01*
X147871602Y-95908936D01*
X147875179Y-95894657D01*
X147880138Y-95880797D01*
X147886432Y-95867490D01*
X147894000Y-95854864D01*
X147902768Y-95843041D01*
X147912654Y-95832134D01*
X147923561Y-95822248D01*
X147935384Y-95813480D01*
X147948010Y-95805912D01*
X147961317Y-95799618D01*
X147975177Y-95794659D01*
X147989456Y-95791082D01*
X148004017Y-95788922D01*
X148018720Y-95788200D01*
X149518720Y-95788200D01*
X149533423Y-95788922D01*
X149533423Y-95788922D01*
G37*
D12*
X148768720Y-96088200D03*
D11*
G36*
X149533423Y-97058922D02*
G01*
X149547984Y-97061082D01*
X149562263Y-97064659D01*
X149576123Y-97069618D01*
X149589430Y-97075912D01*
X149602056Y-97083480D01*
X149613879Y-97092248D01*
X149624786Y-97102134D01*
X149634672Y-97113041D01*
X149643440Y-97124864D01*
X149651008Y-97137490D01*
X149657302Y-97150797D01*
X149662261Y-97164657D01*
X149665838Y-97178936D01*
X149667998Y-97193497D01*
X149668720Y-97208200D01*
X149668720Y-97508200D01*
X149667998Y-97522903D01*
X149665838Y-97537464D01*
X149662261Y-97551743D01*
X149657302Y-97565603D01*
X149651008Y-97578910D01*
X149643440Y-97591536D01*
X149634672Y-97603359D01*
X149624786Y-97614266D01*
X149613879Y-97624152D01*
X149602056Y-97632920D01*
X149589430Y-97640488D01*
X149576123Y-97646782D01*
X149562263Y-97651741D01*
X149547984Y-97655318D01*
X149533423Y-97657478D01*
X149518720Y-97658200D01*
X148018720Y-97658200D01*
X148004017Y-97657478D01*
X147989456Y-97655318D01*
X147975177Y-97651741D01*
X147961317Y-97646782D01*
X147948010Y-97640488D01*
X147935384Y-97632920D01*
X147923561Y-97624152D01*
X147912654Y-97614266D01*
X147902768Y-97603359D01*
X147894000Y-97591536D01*
X147886432Y-97578910D01*
X147880138Y-97565603D01*
X147875179Y-97551743D01*
X147871602Y-97537464D01*
X147869442Y-97522903D01*
X147868720Y-97508200D01*
X147868720Y-97208200D01*
X147869442Y-97193497D01*
X147871602Y-97178936D01*
X147875179Y-97164657D01*
X147880138Y-97150797D01*
X147886432Y-97137490D01*
X147894000Y-97124864D01*
X147902768Y-97113041D01*
X147912654Y-97102134D01*
X147923561Y-97092248D01*
X147935384Y-97083480D01*
X147948010Y-97075912D01*
X147961317Y-97069618D01*
X147975177Y-97064659D01*
X147989456Y-97061082D01*
X148004017Y-97058922D01*
X148018720Y-97058200D01*
X149518720Y-97058200D01*
X149533423Y-97058922D01*
X149533423Y-97058922D01*
G37*
D12*
X148768720Y-97358200D03*
D11*
G36*
X149533423Y-98328922D02*
G01*
X149547984Y-98331082D01*
X149562263Y-98334659D01*
X149576123Y-98339618D01*
X149589430Y-98345912D01*
X149602056Y-98353480D01*
X149613879Y-98362248D01*
X149624786Y-98372134D01*
X149634672Y-98383041D01*
X149643440Y-98394864D01*
X149651008Y-98407490D01*
X149657302Y-98420797D01*
X149662261Y-98434657D01*
X149665838Y-98448936D01*
X149667998Y-98463497D01*
X149668720Y-98478200D01*
X149668720Y-98778200D01*
X149667998Y-98792903D01*
X149665838Y-98807464D01*
X149662261Y-98821743D01*
X149657302Y-98835603D01*
X149651008Y-98848910D01*
X149643440Y-98861536D01*
X149634672Y-98873359D01*
X149624786Y-98884266D01*
X149613879Y-98894152D01*
X149602056Y-98902920D01*
X149589430Y-98910488D01*
X149576123Y-98916782D01*
X149562263Y-98921741D01*
X149547984Y-98925318D01*
X149533423Y-98927478D01*
X149518720Y-98928200D01*
X148018720Y-98928200D01*
X148004017Y-98927478D01*
X147989456Y-98925318D01*
X147975177Y-98921741D01*
X147961317Y-98916782D01*
X147948010Y-98910488D01*
X147935384Y-98902920D01*
X147923561Y-98894152D01*
X147912654Y-98884266D01*
X147902768Y-98873359D01*
X147894000Y-98861536D01*
X147886432Y-98848910D01*
X147880138Y-98835603D01*
X147875179Y-98821743D01*
X147871602Y-98807464D01*
X147869442Y-98792903D01*
X147868720Y-98778200D01*
X147868720Y-98478200D01*
X147869442Y-98463497D01*
X147871602Y-98448936D01*
X147875179Y-98434657D01*
X147880138Y-98420797D01*
X147886432Y-98407490D01*
X147894000Y-98394864D01*
X147902768Y-98383041D01*
X147912654Y-98372134D01*
X147923561Y-98362248D01*
X147935384Y-98353480D01*
X147948010Y-98345912D01*
X147961317Y-98339618D01*
X147975177Y-98334659D01*
X147989456Y-98331082D01*
X148004017Y-98328922D01*
X148018720Y-98328200D01*
X149518720Y-98328200D01*
X149533423Y-98328922D01*
X149533423Y-98328922D01*
G37*
D12*
X148768720Y-98628200D03*
D11*
G36*
X149533423Y-99598922D02*
G01*
X149547984Y-99601082D01*
X149562263Y-99604659D01*
X149576123Y-99609618D01*
X149589430Y-99615912D01*
X149602056Y-99623480D01*
X149613879Y-99632248D01*
X149624786Y-99642134D01*
X149634672Y-99653041D01*
X149643440Y-99664864D01*
X149651008Y-99677490D01*
X149657302Y-99690797D01*
X149662261Y-99704657D01*
X149665838Y-99718936D01*
X149667998Y-99733497D01*
X149668720Y-99748200D01*
X149668720Y-100048200D01*
X149667998Y-100062903D01*
X149665838Y-100077464D01*
X149662261Y-100091743D01*
X149657302Y-100105603D01*
X149651008Y-100118910D01*
X149643440Y-100131536D01*
X149634672Y-100143359D01*
X149624786Y-100154266D01*
X149613879Y-100164152D01*
X149602056Y-100172920D01*
X149589430Y-100180488D01*
X149576123Y-100186782D01*
X149562263Y-100191741D01*
X149547984Y-100195318D01*
X149533423Y-100197478D01*
X149518720Y-100198200D01*
X148018720Y-100198200D01*
X148004017Y-100197478D01*
X147989456Y-100195318D01*
X147975177Y-100191741D01*
X147961317Y-100186782D01*
X147948010Y-100180488D01*
X147935384Y-100172920D01*
X147923561Y-100164152D01*
X147912654Y-100154266D01*
X147902768Y-100143359D01*
X147894000Y-100131536D01*
X147886432Y-100118910D01*
X147880138Y-100105603D01*
X147875179Y-100091743D01*
X147871602Y-100077464D01*
X147869442Y-100062903D01*
X147868720Y-100048200D01*
X147868720Y-99748200D01*
X147869442Y-99733497D01*
X147871602Y-99718936D01*
X147875179Y-99704657D01*
X147880138Y-99690797D01*
X147886432Y-99677490D01*
X147894000Y-99664864D01*
X147902768Y-99653041D01*
X147912654Y-99642134D01*
X147923561Y-99632248D01*
X147935384Y-99623480D01*
X147948010Y-99615912D01*
X147961317Y-99609618D01*
X147975177Y-99604659D01*
X147989456Y-99601082D01*
X148004017Y-99598922D01*
X148018720Y-99598200D01*
X149518720Y-99598200D01*
X149533423Y-99598922D01*
X149533423Y-99598922D01*
G37*
D12*
X148768720Y-99898200D03*
D11*
G36*
X149533423Y-100868922D02*
G01*
X149547984Y-100871082D01*
X149562263Y-100874659D01*
X149576123Y-100879618D01*
X149589430Y-100885912D01*
X149602056Y-100893480D01*
X149613879Y-100902248D01*
X149624786Y-100912134D01*
X149634672Y-100923041D01*
X149643440Y-100934864D01*
X149651008Y-100947490D01*
X149657302Y-100960797D01*
X149662261Y-100974657D01*
X149665838Y-100988936D01*
X149667998Y-101003497D01*
X149668720Y-101018200D01*
X149668720Y-101318200D01*
X149667998Y-101332903D01*
X149665838Y-101347464D01*
X149662261Y-101361743D01*
X149657302Y-101375603D01*
X149651008Y-101388910D01*
X149643440Y-101401536D01*
X149634672Y-101413359D01*
X149624786Y-101424266D01*
X149613879Y-101434152D01*
X149602056Y-101442920D01*
X149589430Y-101450488D01*
X149576123Y-101456782D01*
X149562263Y-101461741D01*
X149547984Y-101465318D01*
X149533423Y-101467478D01*
X149518720Y-101468200D01*
X148018720Y-101468200D01*
X148004017Y-101467478D01*
X147989456Y-101465318D01*
X147975177Y-101461741D01*
X147961317Y-101456782D01*
X147948010Y-101450488D01*
X147935384Y-101442920D01*
X147923561Y-101434152D01*
X147912654Y-101424266D01*
X147902768Y-101413359D01*
X147894000Y-101401536D01*
X147886432Y-101388910D01*
X147880138Y-101375603D01*
X147875179Y-101361743D01*
X147871602Y-101347464D01*
X147869442Y-101332903D01*
X147868720Y-101318200D01*
X147868720Y-101018200D01*
X147869442Y-101003497D01*
X147871602Y-100988936D01*
X147875179Y-100974657D01*
X147880138Y-100960797D01*
X147886432Y-100947490D01*
X147894000Y-100934864D01*
X147902768Y-100923041D01*
X147912654Y-100912134D01*
X147923561Y-100902248D01*
X147935384Y-100893480D01*
X147948010Y-100885912D01*
X147961317Y-100879618D01*
X147975177Y-100874659D01*
X147989456Y-100871082D01*
X148004017Y-100868922D01*
X148018720Y-100868200D01*
X149518720Y-100868200D01*
X149533423Y-100868922D01*
X149533423Y-100868922D01*
G37*
D12*
X148768720Y-101168200D03*
D11*
G36*
X149533423Y-102138922D02*
G01*
X149547984Y-102141082D01*
X149562263Y-102144659D01*
X149576123Y-102149618D01*
X149589430Y-102155912D01*
X149602056Y-102163480D01*
X149613879Y-102172248D01*
X149624786Y-102182134D01*
X149634672Y-102193041D01*
X149643440Y-102204864D01*
X149651008Y-102217490D01*
X149657302Y-102230797D01*
X149662261Y-102244657D01*
X149665838Y-102258936D01*
X149667998Y-102273497D01*
X149668720Y-102288200D01*
X149668720Y-102588200D01*
X149667998Y-102602903D01*
X149665838Y-102617464D01*
X149662261Y-102631743D01*
X149657302Y-102645603D01*
X149651008Y-102658910D01*
X149643440Y-102671536D01*
X149634672Y-102683359D01*
X149624786Y-102694266D01*
X149613879Y-102704152D01*
X149602056Y-102712920D01*
X149589430Y-102720488D01*
X149576123Y-102726782D01*
X149562263Y-102731741D01*
X149547984Y-102735318D01*
X149533423Y-102737478D01*
X149518720Y-102738200D01*
X148018720Y-102738200D01*
X148004017Y-102737478D01*
X147989456Y-102735318D01*
X147975177Y-102731741D01*
X147961317Y-102726782D01*
X147948010Y-102720488D01*
X147935384Y-102712920D01*
X147923561Y-102704152D01*
X147912654Y-102694266D01*
X147902768Y-102683359D01*
X147894000Y-102671536D01*
X147886432Y-102658910D01*
X147880138Y-102645603D01*
X147875179Y-102631743D01*
X147871602Y-102617464D01*
X147869442Y-102602903D01*
X147868720Y-102588200D01*
X147868720Y-102288200D01*
X147869442Y-102273497D01*
X147871602Y-102258936D01*
X147875179Y-102244657D01*
X147880138Y-102230797D01*
X147886432Y-102217490D01*
X147894000Y-102204864D01*
X147902768Y-102193041D01*
X147912654Y-102182134D01*
X147923561Y-102172248D01*
X147935384Y-102163480D01*
X147948010Y-102155912D01*
X147961317Y-102149618D01*
X147975177Y-102144659D01*
X147989456Y-102141082D01*
X148004017Y-102138922D01*
X148018720Y-102138200D01*
X149518720Y-102138200D01*
X149533423Y-102138922D01*
X149533423Y-102138922D01*
G37*
D12*
X148768720Y-102438200D03*
D11*
G36*
X149533423Y-103408922D02*
G01*
X149547984Y-103411082D01*
X149562263Y-103414659D01*
X149576123Y-103419618D01*
X149589430Y-103425912D01*
X149602056Y-103433480D01*
X149613879Y-103442248D01*
X149624786Y-103452134D01*
X149634672Y-103463041D01*
X149643440Y-103474864D01*
X149651008Y-103487490D01*
X149657302Y-103500797D01*
X149662261Y-103514657D01*
X149665838Y-103528936D01*
X149667998Y-103543497D01*
X149668720Y-103558200D01*
X149668720Y-103858200D01*
X149667998Y-103872903D01*
X149665838Y-103887464D01*
X149662261Y-103901743D01*
X149657302Y-103915603D01*
X149651008Y-103928910D01*
X149643440Y-103941536D01*
X149634672Y-103953359D01*
X149624786Y-103964266D01*
X149613879Y-103974152D01*
X149602056Y-103982920D01*
X149589430Y-103990488D01*
X149576123Y-103996782D01*
X149562263Y-104001741D01*
X149547984Y-104005318D01*
X149533423Y-104007478D01*
X149518720Y-104008200D01*
X148018720Y-104008200D01*
X148004017Y-104007478D01*
X147989456Y-104005318D01*
X147975177Y-104001741D01*
X147961317Y-103996782D01*
X147948010Y-103990488D01*
X147935384Y-103982920D01*
X147923561Y-103974152D01*
X147912654Y-103964266D01*
X147902768Y-103953359D01*
X147894000Y-103941536D01*
X147886432Y-103928910D01*
X147880138Y-103915603D01*
X147875179Y-103901743D01*
X147871602Y-103887464D01*
X147869442Y-103872903D01*
X147868720Y-103858200D01*
X147868720Y-103558200D01*
X147869442Y-103543497D01*
X147871602Y-103528936D01*
X147875179Y-103514657D01*
X147880138Y-103500797D01*
X147886432Y-103487490D01*
X147894000Y-103474864D01*
X147902768Y-103463041D01*
X147912654Y-103452134D01*
X147923561Y-103442248D01*
X147935384Y-103433480D01*
X147948010Y-103425912D01*
X147961317Y-103419618D01*
X147975177Y-103414659D01*
X147989456Y-103411082D01*
X148004017Y-103408922D01*
X148018720Y-103408200D01*
X149518720Y-103408200D01*
X149533423Y-103408922D01*
X149533423Y-103408922D01*
G37*
D12*
X148768720Y-103708200D03*
D11*
G36*
X149533423Y-104678922D02*
G01*
X149547984Y-104681082D01*
X149562263Y-104684659D01*
X149576123Y-104689618D01*
X149589430Y-104695912D01*
X149602056Y-104703480D01*
X149613879Y-104712248D01*
X149624786Y-104722134D01*
X149634672Y-104733041D01*
X149643440Y-104744864D01*
X149651008Y-104757490D01*
X149657302Y-104770797D01*
X149662261Y-104784657D01*
X149665838Y-104798936D01*
X149667998Y-104813497D01*
X149668720Y-104828200D01*
X149668720Y-105128200D01*
X149667998Y-105142903D01*
X149665838Y-105157464D01*
X149662261Y-105171743D01*
X149657302Y-105185603D01*
X149651008Y-105198910D01*
X149643440Y-105211536D01*
X149634672Y-105223359D01*
X149624786Y-105234266D01*
X149613879Y-105244152D01*
X149602056Y-105252920D01*
X149589430Y-105260488D01*
X149576123Y-105266782D01*
X149562263Y-105271741D01*
X149547984Y-105275318D01*
X149533423Y-105277478D01*
X149518720Y-105278200D01*
X148018720Y-105278200D01*
X148004017Y-105277478D01*
X147989456Y-105275318D01*
X147975177Y-105271741D01*
X147961317Y-105266782D01*
X147948010Y-105260488D01*
X147935384Y-105252920D01*
X147923561Y-105244152D01*
X147912654Y-105234266D01*
X147902768Y-105223359D01*
X147894000Y-105211536D01*
X147886432Y-105198910D01*
X147880138Y-105185603D01*
X147875179Y-105171743D01*
X147871602Y-105157464D01*
X147869442Y-105142903D01*
X147868720Y-105128200D01*
X147868720Y-104828200D01*
X147869442Y-104813497D01*
X147871602Y-104798936D01*
X147875179Y-104784657D01*
X147880138Y-104770797D01*
X147886432Y-104757490D01*
X147894000Y-104744864D01*
X147902768Y-104733041D01*
X147912654Y-104722134D01*
X147923561Y-104712248D01*
X147935384Y-104703480D01*
X147948010Y-104695912D01*
X147961317Y-104689618D01*
X147975177Y-104684659D01*
X147989456Y-104681082D01*
X148004017Y-104678922D01*
X148018720Y-104678200D01*
X149518720Y-104678200D01*
X149533423Y-104678922D01*
X149533423Y-104678922D01*
G37*
D12*
X148768720Y-104978200D03*
D11*
G36*
X149533423Y-105948922D02*
G01*
X149547984Y-105951082D01*
X149562263Y-105954659D01*
X149576123Y-105959618D01*
X149589430Y-105965912D01*
X149602056Y-105973480D01*
X149613879Y-105982248D01*
X149624786Y-105992134D01*
X149634672Y-106003041D01*
X149643440Y-106014864D01*
X149651008Y-106027490D01*
X149657302Y-106040797D01*
X149662261Y-106054657D01*
X149665838Y-106068936D01*
X149667998Y-106083497D01*
X149668720Y-106098200D01*
X149668720Y-106398200D01*
X149667998Y-106412903D01*
X149665838Y-106427464D01*
X149662261Y-106441743D01*
X149657302Y-106455603D01*
X149651008Y-106468910D01*
X149643440Y-106481536D01*
X149634672Y-106493359D01*
X149624786Y-106504266D01*
X149613879Y-106514152D01*
X149602056Y-106522920D01*
X149589430Y-106530488D01*
X149576123Y-106536782D01*
X149562263Y-106541741D01*
X149547984Y-106545318D01*
X149533423Y-106547478D01*
X149518720Y-106548200D01*
X148018720Y-106548200D01*
X148004017Y-106547478D01*
X147989456Y-106545318D01*
X147975177Y-106541741D01*
X147961317Y-106536782D01*
X147948010Y-106530488D01*
X147935384Y-106522920D01*
X147923561Y-106514152D01*
X147912654Y-106504266D01*
X147902768Y-106493359D01*
X147894000Y-106481536D01*
X147886432Y-106468910D01*
X147880138Y-106455603D01*
X147875179Y-106441743D01*
X147871602Y-106427464D01*
X147869442Y-106412903D01*
X147868720Y-106398200D01*
X147868720Y-106098200D01*
X147869442Y-106083497D01*
X147871602Y-106068936D01*
X147875179Y-106054657D01*
X147880138Y-106040797D01*
X147886432Y-106027490D01*
X147894000Y-106014864D01*
X147902768Y-106003041D01*
X147912654Y-105992134D01*
X147923561Y-105982248D01*
X147935384Y-105973480D01*
X147948010Y-105965912D01*
X147961317Y-105959618D01*
X147975177Y-105954659D01*
X147989456Y-105951082D01*
X148004017Y-105948922D01*
X148018720Y-105948200D01*
X149518720Y-105948200D01*
X149533423Y-105948922D01*
X149533423Y-105948922D01*
G37*
D12*
X148768720Y-106248200D03*
D11*
G36*
X149533423Y-107218922D02*
G01*
X149547984Y-107221082D01*
X149562263Y-107224659D01*
X149576123Y-107229618D01*
X149589430Y-107235912D01*
X149602056Y-107243480D01*
X149613879Y-107252248D01*
X149624786Y-107262134D01*
X149634672Y-107273041D01*
X149643440Y-107284864D01*
X149651008Y-107297490D01*
X149657302Y-107310797D01*
X149662261Y-107324657D01*
X149665838Y-107338936D01*
X149667998Y-107353497D01*
X149668720Y-107368200D01*
X149668720Y-107668200D01*
X149667998Y-107682903D01*
X149665838Y-107697464D01*
X149662261Y-107711743D01*
X149657302Y-107725603D01*
X149651008Y-107738910D01*
X149643440Y-107751536D01*
X149634672Y-107763359D01*
X149624786Y-107774266D01*
X149613879Y-107784152D01*
X149602056Y-107792920D01*
X149589430Y-107800488D01*
X149576123Y-107806782D01*
X149562263Y-107811741D01*
X149547984Y-107815318D01*
X149533423Y-107817478D01*
X149518720Y-107818200D01*
X148018720Y-107818200D01*
X148004017Y-107817478D01*
X147989456Y-107815318D01*
X147975177Y-107811741D01*
X147961317Y-107806782D01*
X147948010Y-107800488D01*
X147935384Y-107792920D01*
X147923561Y-107784152D01*
X147912654Y-107774266D01*
X147902768Y-107763359D01*
X147894000Y-107751536D01*
X147886432Y-107738910D01*
X147880138Y-107725603D01*
X147875179Y-107711743D01*
X147871602Y-107697464D01*
X147869442Y-107682903D01*
X147868720Y-107668200D01*
X147868720Y-107368200D01*
X147869442Y-107353497D01*
X147871602Y-107338936D01*
X147875179Y-107324657D01*
X147880138Y-107310797D01*
X147886432Y-107297490D01*
X147894000Y-107284864D01*
X147902768Y-107273041D01*
X147912654Y-107262134D01*
X147923561Y-107252248D01*
X147935384Y-107243480D01*
X147948010Y-107235912D01*
X147961317Y-107229618D01*
X147975177Y-107224659D01*
X147989456Y-107221082D01*
X148004017Y-107218922D01*
X148018720Y-107218200D01*
X149518720Y-107218200D01*
X149533423Y-107218922D01*
X149533423Y-107218922D01*
G37*
D12*
X148768720Y-107518200D03*
D11*
G36*
X149533423Y-108488922D02*
G01*
X149547984Y-108491082D01*
X149562263Y-108494659D01*
X149576123Y-108499618D01*
X149589430Y-108505912D01*
X149602056Y-108513480D01*
X149613879Y-108522248D01*
X149624786Y-108532134D01*
X149634672Y-108543041D01*
X149643440Y-108554864D01*
X149651008Y-108567490D01*
X149657302Y-108580797D01*
X149662261Y-108594657D01*
X149665838Y-108608936D01*
X149667998Y-108623497D01*
X149668720Y-108638200D01*
X149668720Y-108938200D01*
X149667998Y-108952903D01*
X149665838Y-108967464D01*
X149662261Y-108981743D01*
X149657302Y-108995603D01*
X149651008Y-109008910D01*
X149643440Y-109021536D01*
X149634672Y-109033359D01*
X149624786Y-109044266D01*
X149613879Y-109054152D01*
X149602056Y-109062920D01*
X149589430Y-109070488D01*
X149576123Y-109076782D01*
X149562263Y-109081741D01*
X149547984Y-109085318D01*
X149533423Y-109087478D01*
X149518720Y-109088200D01*
X148018720Y-109088200D01*
X148004017Y-109087478D01*
X147989456Y-109085318D01*
X147975177Y-109081741D01*
X147961317Y-109076782D01*
X147948010Y-109070488D01*
X147935384Y-109062920D01*
X147923561Y-109054152D01*
X147912654Y-109044266D01*
X147902768Y-109033359D01*
X147894000Y-109021536D01*
X147886432Y-109008910D01*
X147880138Y-108995603D01*
X147875179Y-108981743D01*
X147871602Y-108967464D01*
X147869442Y-108952903D01*
X147868720Y-108938200D01*
X147868720Y-108638200D01*
X147869442Y-108623497D01*
X147871602Y-108608936D01*
X147875179Y-108594657D01*
X147880138Y-108580797D01*
X147886432Y-108567490D01*
X147894000Y-108554864D01*
X147902768Y-108543041D01*
X147912654Y-108532134D01*
X147923561Y-108522248D01*
X147935384Y-108513480D01*
X147948010Y-108505912D01*
X147961317Y-108499618D01*
X147975177Y-108494659D01*
X147989456Y-108491082D01*
X148004017Y-108488922D01*
X148018720Y-108488200D01*
X149518720Y-108488200D01*
X149533423Y-108488922D01*
X149533423Y-108488922D01*
G37*
D12*
X148768720Y-108788200D03*
D11*
G36*
X149533423Y-109758922D02*
G01*
X149547984Y-109761082D01*
X149562263Y-109764659D01*
X149576123Y-109769618D01*
X149589430Y-109775912D01*
X149602056Y-109783480D01*
X149613879Y-109792248D01*
X149624786Y-109802134D01*
X149634672Y-109813041D01*
X149643440Y-109824864D01*
X149651008Y-109837490D01*
X149657302Y-109850797D01*
X149662261Y-109864657D01*
X149665838Y-109878936D01*
X149667998Y-109893497D01*
X149668720Y-109908200D01*
X149668720Y-110208200D01*
X149667998Y-110222903D01*
X149665838Y-110237464D01*
X149662261Y-110251743D01*
X149657302Y-110265603D01*
X149651008Y-110278910D01*
X149643440Y-110291536D01*
X149634672Y-110303359D01*
X149624786Y-110314266D01*
X149613879Y-110324152D01*
X149602056Y-110332920D01*
X149589430Y-110340488D01*
X149576123Y-110346782D01*
X149562263Y-110351741D01*
X149547984Y-110355318D01*
X149533423Y-110357478D01*
X149518720Y-110358200D01*
X148018720Y-110358200D01*
X148004017Y-110357478D01*
X147989456Y-110355318D01*
X147975177Y-110351741D01*
X147961317Y-110346782D01*
X147948010Y-110340488D01*
X147935384Y-110332920D01*
X147923561Y-110324152D01*
X147912654Y-110314266D01*
X147902768Y-110303359D01*
X147894000Y-110291536D01*
X147886432Y-110278910D01*
X147880138Y-110265603D01*
X147875179Y-110251743D01*
X147871602Y-110237464D01*
X147869442Y-110222903D01*
X147868720Y-110208200D01*
X147868720Y-109908200D01*
X147869442Y-109893497D01*
X147871602Y-109878936D01*
X147875179Y-109864657D01*
X147880138Y-109850797D01*
X147886432Y-109837490D01*
X147894000Y-109824864D01*
X147902768Y-109813041D01*
X147912654Y-109802134D01*
X147923561Y-109792248D01*
X147935384Y-109783480D01*
X147948010Y-109775912D01*
X147961317Y-109769618D01*
X147975177Y-109764659D01*
X147989456Y-109761082D01*
X148004017Y-109758922D01*
X148018720Y-109758200D01*
X149518720Y-109758200D01*
X149533423Y-109758922D01*
X149533423Y-109758922D01*
G37*
D12*
X148768720Y-110058200D03*
D11*
G36*
X139933423Y-109758922D02*
G01*
X139947984Y-109761082D01*
X139962263Y-109764659D01*
X139976123Y-109769618D01*
X139989430Y-109775912D01*
X140002056Y-109783480D01*
X140013879Y-109792248D01*
X140024786Y-109802134D01*
X140034672Y-109813041D01*
X140043440Y-109824864D01*
X140051008Y-109837490D01*
X140057302Y-109850797D01*
X140062261Y-109864657D01*
X140065838Y-109878936D01*
X140067998Y-109893497D01*
X140068720Y-109908200D01*
X140068720Y-110208200D01*
X140067998Y-110222903D01*
X140065838Y-110237464D01*
X140062261Y-110251743D01*
X140057302Y-110265603D01*
X140051008Y-110278910D01*
X140043440Y-110291536D01*
X140034672Y-110303359D01*
X140024786Y-110314266D01*
X140013879Y-110324152D01*
X140002056Y-110332920D01*
X139989430Y-110340488D01*
X139976123Y-110346782D01*
X139962263Y-110351741D01*
X139947984Y-110355318D01*
X139933423Y-110357478D01*
X139918720Y-110358200D01*
X138418720Y-110358200D01*
X138404017Y-110357478D01*
X138389456Y-110355318D01*
X138375177Y-110351741D01*
X138361317Y-110346782D01*
X138348010Y-110340488D01*
X138335384Y-110332920D01*
X138323561Y-110324152D01*
X138312654Y-110314266D01*
X138302768Y-110303359D01*
X138294000Y-110291536D01*
X138286432Y-110278910D01*
X138280138Y-110265603D01*
X138275179Y-110251743D01*
X138271602Y-110237464D01*
X138269442Y-110222903D01*
X138268720Y-110208200D01*
X138268720Y-109908200D01*
X138269442Y-109893497D01*
X138271602Y-109878936D01*
X138275179Y-109864657D01*
X138280138Y-109850797D01*
X138286432Y-109837490D01*
X138294000Y-109824864D01*
X138302768Y-109813041D01*
X138312654Y-109802134D01*
X138323561Y-109792248D01*
X138335384Y-109783480D01*
X138348010Y-109775912D01*
X138361317Y-109769618D01*
X138375177Y-109764659D01*
X138389456Y-109761082D01*
X138404017Y-109758922D01*
X138418720Y-109758200D01*
X139918720Y-109758200D01*
X139933423Y-109758922D01*
X139933423Y-109758922D01*
G37*
D12*
X139168720Y-110058200D03*
D11*
G36*
X139933423Y-108488922D02*
G01*
X139947984Y-108491082D01*
X139962263Y-108494659D01*
X139976123Y-108499618D01*
X139989430Y-108505912D01*
X140002056Y-108513480D01*
X140013879Y-108522248D01*
X140024786Y-108532134D01*
X140034672Y-108543041D01*
X140043440Y-108554864D01*
X140051008Y-108567490D01*
X140057302Y-108580797D01*
X140062261Y-108594657D01*
X140065838Y-108608936D01*
X140067998Y-108623497D01*
X140068720Y-108638200D01*
X140068720Y-108938200D01*
X140067998Y-108952903D01*
X140065838Y-108967464D01*
X140062261Y-108981743D01*
X140057302Y-108995603D01*
X140051008Y-109008910D01*
X140043440Y-109021536D01*
X140034672Y-109033359D01*
X140024786Y-109044266D01*
X140013879Y-109054152D01*
X140002056Y-109062920D01*
X139989430Y-109070488D01*
X139976123Y-109076782D01*
X139962263Y-109081741D01*
X139947984Y-109085318D01*
X139933423Y-109087478D01*
X139918720Y-109088200D01*
X138418720Y-109088200D01*
X138404017Y-109087478D01*
X138389456Y-109085318D01*
X138375177Y-109081741D01*
X138361317Y-109076782D01*
X138348010Y-109070488D01*
X138335384Y-109062920D01*
X138323561Y-109054152D01*
X138312654Y-109044266D01*
X138302768Y-109033359D01*
X138294000Y-109021536D01*
X138286432Y-109008910D01*
X138280138Y-108995603D01*
X138275179Y-108981743D01*
X138271602Y-108967464D01*
X138269442Y-108952903D01*
X138268720Y-108938200D01*
X138268720Y-108638200D01*
X138269442Y-108623497D01*
X138271602Y-108608936D01*
X138275179Y-108594657D01*
X138280138Y-108580797D01*
X138286432Y-108567490D01*
X138294000Y-108554864D01*
X138302768Y-108543041D01*
X138312654Y-108532134D01*
X138323561Y-108522248D01*
X138335384Y-108513480D01*
X138348010Y-108505912D01*
X138361317Y-108499618D01*
X138375177Y-108494659D01*
X138389456Y-108491082D01*
X138404017Y-108488922D01*
X138418720Y-108488200D01*
X139918720Y-108488200D01*
X139933423Y-108488922D01*
X139933423Y-108488922D01*
G37*
D12*
X139168720Y-108788200D03*
D11*
G36*
X139933423Y-107218922D02*
G01*
X139947984Y-107221082D01*
X139962263Y-107224659D01*
X139976123Y-107229618D01*
X139989430Y-107235912D01*
X140002056Y-107243480D01*
X140013879Y-107252248D01*
X140024786Y-107262134D01*
X140034672Y-107273041D01*
X140043440Y-107284864D01*
X140051008Y-107297490D01*
X140057302Y-107310797D01*
X140062261Y-107324657D01*
X140065838Y-107338936D01*
X140067998Y-107353497D01*
X140068720Y-107368200D01*
X140068720Y-107668200D01*
X140067998Y-107682903D01*
X140065838Y-107697464D01*
X140062261Y-107711743D01*
X140057302Y-107725603D01*
X140051008Y-107738910D01*
X140043440Y-107751536D01*
X140034672Y-107763359D01*
X140024786Y-107774266D01*
X140013879Y-107784152D01*
X140002056Y-107792920D01*
X139989430Y-107800488D01*
X139976123Y-107806782D01*
X139962263Y-107811741D01*
X139947984Y-107815318D01*
X139933423Y-107817478D01*
X139918720Y-107818200D01*
X138418720Y-107818200D01*
X138404017Y-107817478D01*
X138389456Y-107815318D01*
X138375177Y-107811741D01*
X138361317Y-107806782D01*
X138348010Y-107800488D01*
X138335384Y-107792920D01*
X138323561Y-107784152D01*
X138312654Y-107774266D01*
X138302768Y-107763359D01*
X138294000Y-107751536D01*
X138286432Y-107738910D01*
X138280138Y-107725603D01*
X138275179Y-107711743D01*
X138271602Y-107697464D01*
X138269442Y-107682903D01*
X138268720Y-107668200D01*
X138268720Y-107368200D01*
X138269442Y-107353497D01*
X138271602Y-107338936D01*
X138275179Y-107324657D01*
X138280138Y-107310797D01*
X138286432Y-107297490D01*
X138294000Y-107284864D01*
X138302768Y-107273041D01*
X138312654Y-107262134D01*
X138323561Y-107252248D01*
X138335384Y-107243480D01*
X138348010Y-107235912D01*
X138361317Y-107229618D01*
X138375177Y-107224659D01*
X138389456Y-107221082D01*
X138404017Y-107218922D01*
X138418720Y-107218200D01*
X139918720Y-107218200D01*
X139933423Y-107218922D01*
X139933423Y-107218922D01*
G37*
D12*
X139168720Y-107518200D03*
D11*
G36*
X139933423Y-105948922D02*
G01*
X139947984Y-105951082D01*
X139962263Y-105954659D01*
X139976123Y-105959618D01*
X139989430Y-105965912D01*
X140002056Y-105973480D01*
X140013879Y-105982248D01*
X140024786Y-105992134D01*
X140034672Y-106003041D01*
X140043440Y-106014864D01*
X140051008Y-106027490D01*
X140057302Y-106040797D01*
X140062261Y-106054657D01*
X140065838Y-106068936D01*
X140067998Y-106083497D01*
X140068720Y-106098200D01*
X140068720Y-106398200D01*
X140067998Y-106412903D01*
X140065838Y-106427464D01*
X140062261Y-106441743D01*
X140057302Y-106455603D01*
X140051008Y-106468910D01*
X140043440Y-106481536D01*
X140034672Y-106493359D01*
X140024786Y-106504266D01*
X140013879Y-106514152D01*
X140002056Y-106522920D01*
X139989430Y-106530488D01*
X139976123Y-106536782D01*
X139962263Y-106541741D01*
X139947984Y-106545318D01*
X139933423Y-106547478D01*
X139918720Y-106548200D01*
X138418720Y-106548200D01*
X138404017Y-106547478D01*
X138389456Y-106545318D01*
X138375177Y-106541741D01*
X138361317Y-106536782D01*
X138348010Y-106530488D01*
X138335384Y-106522920D01*
X138323561Y-106514152D01*
X138312654Y-106504266D01*
X138302768Y-106493359D01*
X138294000Y-106481536D01*
X138286432Y-106468910D01*
X138280138Y-106455603D01*
X138275179Y-106441743D01*
X138271602Y-106427464D01*
X138269442Y-106412903D01*
X138268720Y-106398200D01*
X138268720Y-106098200D01*
X138269442Y-106083497D01*
X138271602Y-106068936D01*
X138275179Y-106054657D01*
X138280138Y-106040797D01*
X138286432Y-106027490D01*
X138294000Y-106014864D01*
X138302768Y-106003041D01*
X138312654Y-105992134D01*
X138323561Y-105982248D01*
X138335384Y-105973480D01*
X138348010Y-105965912D01*
X138361317Y-105959618D01*
X138375177Y-105954659D01*
X138389456Y-105951082D01*
X138404017Y-105948922D01*
X138418720Y-105948200D01*
X139918720Y-105948200D01*
X139933423Y-105948922D01*
X139933423Y-105948922D01*
G37*
D12*
X139168720Y-106248200D03*
D11*
G36*
X139933423Y-104678922D02*
G01*
X139947984Y-104681082D01*
X139962263Y-104684659D01*
X139976123Y-104689618D01*
X139989430Y-104695912D01*
X140002056Y-104703480D01*
X140013879Y-104712248D01*
X140024786Y-104722134D01*
X140034672Y-104733041D01*
X140043440Y-104744864D01*
X140051008Y-104757490D01*
X140057302Y-104770797D01*
X140062261Y-104784657D01*
X140065838Y-104798936D01*
X140067998Y-104813497D01*
X140068720Y-104828200D01*
X140068720Y-105128200D01*
X140067998Y-105142903D01*
X140065838Y-105157464D01*
X140062261Y-105171743D01*
X140057302Y-105185603D01*
X140051008Y-105198910D01*
X140043440Y-105211536D01*
X140034672Y-105223359D01*
X140024786Y-105234266D01*
X140013879Y-105244152D01*
X140002056Y-105252920D01*
X139989430Y-105260488D01*
X139976123Y-105266782D01*
X139962263Y-105271741D01*
X139947984Y-105275318D01*
X139933423Y-105277478D01*
X139918720Y-105278200D01*
X138418720Y-105278200D01*
X138404017Y-105277478D01*
X138389456Y-105275318D01*
X138375177Y-105271741D01*
X138361317Y-105266782D01*
X138348010Y-105260488D01*
X138335384Y-105252920D01*
X138323561Y-105244152D01*
X138312654Y-105234266D01*
X138302768Y-105223359D01*
X138294000Y-105211536D01*
X138286432Y-105198910D01*
X138280138Y-105185603D01*
X138275179Y-105171743D01*
X138271602Y-105157464D01*
X138269442Y-105142903D01*
X138268720Y-105128200D01*
X138268720Y-104828200D01*
X138269442Y-104813497D01*
X138271602Y-104798936D01*
X138275179Y-104784657D01*
X138280138Y-104770797D01*
X138286432Y-104757490D01*
X138294000Y-104744864D01*
X138302768Y-104733041D01*
X138312654Y-104722134D01*
X138323561Y-104712248D01*
X138335384Y-104703480D01*
X138348010Y-104695912D01*
X138361317Y-104689618D01*
X138375177Y-104684659D01*
X138389456Y-104681082D01*
X138404017Y-104678922D01*
X138418720Y-104678200D01*
X139918720Y-104678200D01*
X139933423Y-104678922D01*
X139933423Y-104678922D01*
G37*
D12*
X139168720Y-104978200D03*
D11*
G36*
X139933423Y-103408922D02*
G01*
X139947984Y-103411082D01*
X139962263Y-103414659D01*
X139976123Y-103419618D01*
X139989430Y-103425912D01*
X140002056Y-103433480D01*
X140013879Y-103442248D01*
X140024786Y-103452134D01*
X140034672Y-103463041D01*
X140043440Y-103474864D01*
X140051008Y-103487490D01*
X140057302Y-103500797D01*
X140062261Y-103514657D01*
X140065838Y-103528936D01*
X140067998Y-103543497D01*
X140068720Y-103558200D01*
X140068720Y-103858200D01*
X140067998Y-103872903D01*
X140065838Y-103887464D01*
X140062261Y-103901743D01*
X140057302Y-103915603D01*
X140051008Y-103928910D01*
X140043440Y-103941536D01*
X140034672Y-103953359D01*
X140024786Y-103964266D01*
X140013879Y-103974152D01*
X140002056Y-103982920D01*
X139989430Y-103990488D01*
X139976123Y-103996782D01*
X139962263Y-104001741D01*
X139947984Y-104005318D01*
X139933423Y-104007478D01*
X139918720Y-104008200D01*
X138418720Y-104008200D01*
X138404017Y-104007478D01*
X138389456Y-104005318D01*
X138375177Y-104001741D01*
X138361317Y-103996782D01*
X138348010Y-103990488D01*
X138335384Y-103982920D01*
X138323561Y-103974152D01*
X138312654Y-103964266D01*
X138302768Y-103953359D01*
X138294000Y-103941536D01*
X138286432Y-103928910D01*
X138280138Y-103915603D01*
X138275179Y-103901743D01*
X138271602Y-103887464D01*
X138269442Y-103872903D01*
X138268720Y-103858200D01*
X138268720Y-103558200D01*
X138269442Y-103543497D01*
X138271602Y-103528936D01*
X138275179Y-103514657D01*
X138280138Y-103500797D01*
X138286432Y-103487490D01*
X138294000Y-103474864D01*
X138302768Y-103463041D01*
X138312654Y-103452134D01*
X138323561Y-103442248D01*
X138335384Y-103433480D01*
X138348010Y-103425912D01*
X138361317Y-103419618D01*
X138375177Y-103414659D01*
X138389456Y-103411082D01*
X138404017Y-103408922D01*
X138418720Y-103408200D01*
X139918720Y-103408200D01*
X139933423Y-103408922D01*
X139933423Y-103408922D01*
G37*
D12*
X139168720Y-103708200D03*
D11*
G36*
X139933423Y-102138922D02*
G01*
X139947984Y-102141082D01*
X139962263Y-102144659D01*
X139976123Y-102149618D01*
X139989430Y-102155912D01*
X140002056Y-102163480D01*
X140013879Y-102172248D01*
X140024786Y-102182134D01*
X140034672Y-102193041D01*
X140043440Y-102204864D01*
X140051008Y-102217490D01*
X140057302Y-102230797D01*
X140062261Y-102244657D01*
X140065838Y-102258936D01*
X140067998Y-102273497D01*
X140068720Y-102288200D01*
X140068720Y-102588200D01*
X140067998Y-102602903D01*
X140065838Y-102617464D01*
X140062261Y-102631743D01*
X140057302Y-102645603D01*
X140051008Y-102658910D01*
X140043440Y-102671536D01*
X140034672Y-102683359D01*
X140024786Y-102694266D01*
X140013879Y-102704152D01*
X140002056Y-102712920D01*
X139989430Y-102720488D01*
X139976123Y-102726782D01*
X139962263Y-102731741D01*
X139947984Y-102735318D01*
X139933423Y-102737478D01*
X139918720Y-102738200D01*
X138418720Y-102738200D01*
X138404017Y-102737478D01*
X138389456Y-102735318D01*
X138375177Y-102731741D01*
X138361317Y-102726782D01*
X138348010Y-102720488D01*
X138335384Y-102712920D01*
X138323561Y-102704152D01*
X138312654Y-102694266D01*
X138302768Y-102683359D01*
X138294000Y-102671536D01*
X138286432Y-102658910D01*
X138280138Y-102645603D01*
X138275179Y-102631743D01*
X138271602Y-102617464D01*
X138269442Y-102602903D01*
X138268720Y-102588200D01*
X138268720Y-102288200D01*
X138269442Y-102273497D01*
X138271602Y-102258936D01*
X138275179Y-102244657D01*
X138280138Y-102230797D01*
X138286432Y-102217490D01*
X138294000Y-102204864D01*
X138302768Y-102193041D01*
X138312654Y-102182134D01*
X138323561Y-102172248D01*
X138335384Y-102163480D01*
X138348010Y-102155912D01*
X138361317Y-102149618D01*
X138375177Y-102144659D01*
X138389456Y-102141082D01*
X138404017Y-102138922D01*
X138418720Y-102138200D01*
X139918720Y-102138200D01*
X139933423Y-102138922D01*
X139933423Y-102138922D01*
G37*
D12*
X139168720Y-102438200D03*
D11*
G36*
X139933423Y-100868922D02*
G01*
X139947984Y-100871082D01*
X139962263Y-100874659D01*
X139976123Y-100879618D01*
X139989430Y-100885912D01*
X140002056Y-100893480D01*
X140013879Y-100902248D01*
X140024786Y-100912134D01*
X140034672Y-100923041D01*
X140043440Y-100934864D01*
X140051008Y-100947490D01*
X140057302Y-100960797D01*
X140062261Y-100974657D01*
X140065838Y-100988936D01*
X140067998Y-101003497D01*
X140068720Y-101018200D01*
X140068720Y-101318200D01*
X140067998Y-101332903D01*
X140065838Y-101347464D01*
X140062261Y-101361743D01*
X140057302Y-101375603D01*
X140051008Y-101388910D01*
X140043440Y-101401536D01*
X140034672Y-101413359D01*
X140024786Y-101424266D01*
X140013879Y-101434152D01*
X140002056Y-101442920D01*
X139989430Y-101450488D01*
X139976123Y-101456782D01*
X139962263Y-101461741D01*
X139947984Y-101465318D01*
X139933423Y-101467478D01*
X139918720Y-101468200D01*
X138418720Y-101468200D01*
X138404017Y-101467478D01*
X138389456Y-101465318D01*
X138375177Y-101461741D01*
X138361317Y-101456782D01*
X138348010Y-101450488D01*
X138335384Y-101442920D01*
X138323561Y-101434152D01*
X138312654Y-101424266D01*
X138302768Y-101413359D01*
X138294000Y-101401536D01*
X138286432Y-101388910D01*
X138280138Y-101375603D01*
X138275179Y-101361743D01*
X138271602Y-101347464D01*
X138269442Y-101332903D01*
X138268720Y-101318200D01*
X138268720Y-101018200D01*
X138269442Y-101003497D01*
X138271602Y-100988936D01*
X138275179Y-100974657D01*
X138280138Y-100960797D01*
X138286432Y-100947490D01*
X138294000Y-100934864D01*
X138302768Y-100923041D01*
X138312654Y-100912134D01*
X138323561Y-100902248D01*
X138335384Y-100893480D01*
X138348010Y-100885912D01*
X138361317Y-100879618D01*
X138375177Y-100874659D01*
X138389456Y-100871082D01*
X138404017Y-100868922D01*
X138418720Y-100868200D01*
X139918720Y-100868200D01*
X139933423Y-100868922D01*
X139933423Y-100868922D01*
G37*
D12*
X139168720Y-101168200D03*
D11*
G36*
X139933423Y-99598922D02*
G01*
X139947984Y-99601082D01*
X139962263Y-99604659D01*
X139976123Y-99609618D01*
X139989430Y-99615912D01*
X140002056Y-99623480D01*
X140013879Y-99632248D01*
X140024786Y-99642134D01*
X140034672Y-99653041D01*
X140043440Y-99664864D01*
X140051008Y-99677490D01*
X140057302Y-99690797D01*
X140062261Y-99704657D01*
X140065838Y-99718936D01*
X140067998Y-99733497D01*
X140068720Y-99748200D01*
X140068720Y-100048200D01*
X140067998Y-100062903D01*
X140065838Y-100077464D01*
X140062261Y-100091743D01*
X140057302Y-100105603D01*
X140051008Y-100118910D01*
X140043440Y-100131536D01*
X140034672Y-100143359D01*
X140024786Y-100154266D01*
X140013879Y-100164152D01*
X140002056Y-100172920D01*
X139989430Y-100180488D01*
X139976123Y-100186782D01*
X139962263Y-100191741D01*
X139947984Y-100195318D01*
X139933423Y-100197478D01*
X139918720Y-100198200D01*
X138418720Y-100198200D01*
X138404017Y-100197478D01*
X138389456Y-100195318D01*
X138375177Y-100191741D01*
X138361317Y-100186782D01*
X138348010Y-100180488D01*
X138335384Y-100172920D01*
X138323561Y-100164152D01*
X138312654Y-100154266D01*
X138302768Y-100143359D01*
X138294000Y-100131536D01*
X138286432Y-100118910D01*
X138280138Y-100105603D01*
X138275179Y-100091743D01*
X138271602Y-100077464D01*
X138269442Y-100062903D01*
X138268720Y-100048200D01*
X138268720Y-99748200D01*
X138269442Y-99733497D01*
X138271602Y-99718936D01*
X138275179Y-99704657D01*
X138280138Y-99690797D01*
X138286432Y-99677490D01*
X138294000Y-99664864D01*
X138302768Y-99653041D01*
X138312654Y-99642134D01*
X138323561Y-99632248D01*
X138335384Y-99623480D01*
X138348010Y-99615912D01*
X138361317Y-99609618D01*
X138375177Y-99604659D01*
X138389456Y-99601082D01*
X138404017Y-99598922D01*
X138418720Y-99598200D01*
X139918720Y-99598200D01*
X139933423Y-99598922D01*
X139933423Y-99598922D01*
G37*
D12*
X139168720Y-99898200D03*
D11*
G36*
X139933423Y-98328922D02*
G01*
X139947984Y-98331082D01*
X139962263Y-98334659D01*
X139976123Y-98339618D01*
X139989430Y-98345912D01*
X140002056Y-98353480D01*
X140013879Y-98362248D01*
X140024786Y-98372134D01*
X140034672Y-98383041D01*
X140043440Y-98394864D01*
X140051008Y-98407490D01*
X140057302Y-98420797D01*
X140062261Y-98434657D01*
X140065838Y-98448936D01*
X140067998Y-98463497D01*
X140068720Y-98478200D01*
X140068720Y-98778200D01*
X140067998Y-98792903D01*
X140065838Y-98807464D01*
X140062261Y-98821743D01*
X140057302Y-98835603D01*
X140051008Y-98848910D01*
X140043440Y-98861536D01*
X140034672Y-98873359D01*
X140024786Y-98884266D01*
X140013879Y-98894152D01*
X140002056Y-98902920D01*
X139989430Y-98910488D01*
X139976123Y-98916782D01*
X139962263Y-98921741D01*
X139947984Y-98925318D01*
X139933423Y-98927478D01*
X139918720Y-98928200D01*
X138418720Y-98928200D01*
X138404017Y-98927478D01*
X138389456Y-98925318D01*
X138375177Y-98921741D01*
X138361317Y-98916782D01*
X138348010Y-98910488D01*
X138335384Y-98902920D01*
X138323561Y-98894152D01*
X138312654Y-98884266D01*
X138302768Y-98873359D01*
X138294000Y-98861536D01*
X138286432Y-98848910D01*
X138280138Y-98835603D01*
X138275179Y-98821743D01*
X138271602Y-98807464D01*
X138269442Y-98792903D01*
X138268720Y-98778200D01*
X138268720Y-98478200D01*
X138269442Y-98463497D01*
X138271602Y-98448936D01*
X138275179Y-98434657D01*
X138280138Y-98420797D01*
X138286432Y-98407490D01*
X138294000Y-98394864D01*
X138302768Y-98383041D01*
X138312654Y-98372134D01*
X138323561Y-98362248D01*
X138335384Y-98353480D01*
X138348010Y-98345912D01*
X138361317Y-98339618D01*
X138375177Y-98334659D01*
X138389456Y-98331082D01*
X138404017Y-98328922D01*
X138418720Y-98328200D01*
X139918720Y-98328200D01*
X139933423Y-98328922D01*
X139933423Y-98328922D01*
G37*
D12*
X139168720Y-98628200D03*
D11*
G36*
X139933423Y-97058922D02*
G01*
X139947984Y-97061082D01*
X139962263Y-97064659D01*
X139976123Y-97069618D01*
X139989430Y-97075912D01*
X140002056Y-97083480D01*
X140013879Y-97092248D01*
X140024786Y-97102134D01*
X140034672Y-97113041D01*
X140043440Y-97124864D01*
X140051008Y-97137490D01*
X140057302Y-97150797D01*
X140062261Y-97164657D01*
X140065838Y-97178936D01*
X140067998Y-97193497D01*
X140068720Y-97208200D01*
X140068720Y-97508200D01*
X140067998Y-97522903D01*
X140065838Y-97537464D01*
X140062261Y-97551743D01*
X140057302Y-97565603D01*
X140051008Y-97578910D01*
X140043440Y-97591536D01*
X140034672Y-97603359D01*
X140024786Y-97614266D01*
X140013879Y-97624152D01*
X140002056Y-97632920D01*
X139989430Y-97640488D01*
X139976123Y-97646782D01*
X139962263Y-97651741D01*
X139947984Y-97655318D01*
X139933423Y-97657478D01*
X139918720Y-97658200D01*
X138418720Y-97658200D01*
X138404017Y-97657478D01*
X138389456Y-97655318D01*
X138375177Y-97651741D01*
X138361317Y-97646782D01*
X138348010Y-97640488D01*
X138335384Y-97632920D01*
X138323561Y-97624152D01*
X138312654Y-97614266D01*
X138302768Y-97603359D01*
X138294000Y-97591536D01*
X138286432Y-97578910D01*
X138280138Y-97565603D01*
X138275179Y-97551743D01*
X138271602Y-97537464D01*
X138269442Y-97522903D01*
X138268720Y-97508200D01*
X138268720Y-97208200D01*
X138269442Y-97193497D01*
X138271602Y-97178936D01*
X138275179Y-97164657D01*
X138280138Y-97150797D01*
X138286432Y-97137490D01*
X138294000Y-97124864D01*
X138302768Y-97113041D01*
X138312654Y-97102134D01*
X138323561Y-97092248D01*
X138335384Y-97083480D01*
X138348010Y-97075912D01*
X138361317Y-97069618D01*
X138375177Y-97064659D01*
X138389456Y-97061082D01*
X138404017Y-97058922D01*
X138418720Y-97058200D01*
X139918720Y-97058200D01*
X139933423Y-97058922D01*
X139933423Y-97058922D01*
G37*
D12*
X139168720Y-97358200D03*
D11*
G36*
X139933423Y-95788922D02*
G01*
X139947984Y-95791082D01*
X139962263Y-95794659D01*
X139976123Y-95799618D01*
X139989430Y-95805912D01*
X140002056Y-95813480D01*
X140013879Y-95822248D01*
X140024786Y-95832134D01*
X140034672Y-95843041D01*
X140043440Y-95854864D01*
X140051008Y-95867490D01*
X140057302Y-95880797D01*
X140062261Y-95894657D01*
X140065838Y-95908936D01*
X140067998Y-95923497D01*
X140068720Y-95938200D01*
X140068720Y-96238200D01*
X140067998Y-96252903D01*
X140065838Y-96267464D01*
X140062261Y-96281743D01*
X140057302Y-96295603D01*
X140051008Y-96308910D01*
X140043440Y-96321536D01*
X140034672Y-96333359D01*
X140024786Y-96344266D01*
X140013879Y-96354152D01*
X140002056Y-96362920D01*
X139989430Y-96370488D01*
X139976123Y-96376782D01*
X139962263Y-96381741D01*
X139947984Y-96385318D01*
X139933423Y-96387478D01*
X139918720Y-96388200D01*
X138418720Y-96388200D01*
X138404017Y-96387478D01*
X138389456Y-96385318D01*
X138375177Y-96381741D01*
X138361317Y-96376782D01*
X138348010Y-96370488D01*
X138335384Y-96362920D01*
X138323561Y-96354152D01*
X138312654Y-96344266D01*
X138302768Y-96333359D01*
X138294000Y-96321536D01*
X138286432Y-96308910D01*
X138280138Y-96295603D01*
X138275179Y-96281743D01*
X138271602Y-96267464D01*
X138269442Y-96252903D01*
X138268720Y-96238200D01*
X138268720Y-95938200D01*
X138269442Y-95923497D01*
X138271602Y-95908936D01*
X138275179Y-95894657D01*
X138280138Y-95880797D01*
X138286432Y-95867490D01*
X138294000Y-95854864D01*
X138302768Y-95843041D01*
X138312654Y-95832134D01*
X138323561Y-95822248D01*
X138335384Y-95813480D01*
X138348010Y-95805912D01*
X138361317Y-95799618D01*
X138375177Y-95794659D01*
X138389456Y-95791082D01*
X138404017Y-95788922D01*
X138418720Y-95788200D01*
X139918720Y-95788200D01*
X139933423Y-95788922D01*
X139933423Y-95788922D01*
G37*
D12*
X139168720Y-96088200D03*
D11*
G36*
X139933423Y-94518922D02*
G01*
X139947984Y-94521082D01*
X139962263Y-94524659D01*
X139976123Y-94529618D01*
X139989430Y-94535912D01*
X140002056Y-94543480D01*
X140013879Y-94552248D01*
X140024786Y-94562134D01*
X140034672Y-94573041D01*
X140043440Y-94584864D01*
X140051008Y-94597490D01*
X140057302Y-94610797D01*
X140062261Y-94624657D01*
X140065838Y-94638936D01*
X140067998Y-94653497D01*
X140068720Y-94668200D01*
X140068720Y-94968200D01*
X140067998Y-94982903D01*
X140065838Y-94997464D01*
X140062261Y-95011743D01*
X140057302Y-95025603D01*
X140051008Y-95038910D01*
X140043440Y-95051536D01*
X140034672Y-95063359D01*
X140024786Y-95074266D01*
X140013879Y-95084152D01*
X140002056Y-95092920D01*
X139989430Y-95100488D01*
X139976123Y-95106782D01*
X139962263Y-95111741D01*
X139947984Y-95115318D01*
X139933423Y-95117478D01*
X139918720Y-95118200D01*
X138418720Y-95118200D01*
X138404017Y-95117478D01*
X138389456Y-95115318D01*
X138375177Y-95111741D01*
X138361317Y-95106782D01*
X138348010Y-95100488D01*
X138335384Y-95092920D01*
X138323561Y-95084152D01*
X138312654Y-95074266D01*
X138302768Y-95063359D01*
X138294000Y-95051536D01*
X138286432Y-95038910D01*
X138280138Y-95025603D01*
X138275179Y-95011743D01*
X138271602Y-94997464D01*
X138269442Y-94982903D01*
X138268720Y-94968200D01*
X138268720Y-94668200D01*
X138269442Y-94653497D01*
X138271602Y-94638936D01*
X138275179Y-94624657D01*
X138280138Y-94610797D01*
X138286432Y-94597490D01*
X138294000Y-94584864D01*
X138302768Y-94573041D01*
X138312654Y-94562134D01*
X138323561Y-94552248D01*
X138335384Y-94543480D01*
X138348010Y-94535912D01*
X138361317Y-94529618D01*
X138375177Y-94524659D01*
X138389456Y-94521082D01*
X138404017Y-94518922D01*
X138418720Y-94518200D01*
X139918720Y-94518200D01*
X139933423Y-94518922D01*
X139933423Y-94518922D01*
G37*
D12*
X139168720Y-94818200D03*
D11*
G36*
X139933423Y-93248922D02*
G01*
X139947984Y-93251082D01*
X139962263Y-93254659D01*
X139976123Y-93259618D01*
X139989430Y-93265912D01*
X140002056Y-93273480D01*
X140013879Y-93282248D01*
X140024786Y-93292134D01*
X140034672Y-93303041D01*
X140043440Y-93314864D01*
X140051008Y-93327490D01*
X140057302Y-93340797D01*
X140062261Y-93354657D01*
X140065838Y-93368936D01*
X140067998Y-93383497D01*
X140068720Y-93398200D01*
X140068720Y-93698200D01*
X140067998Y-93712903D01*
X140065838Y-93727464D01*
X140062261Y-93741743D01*
X140057302Y-93755603D01*
X140051008Y-93768910D01*
X140043440Y-93781536D01*
X140034672Y-93793359D01*
X140024786Y-93804266D01*
X140013879Y-93814152D01*
X140002056Y-93822920D01*
X139989430Y-93830488D01*
X139976123Y-93836782D01*
X139962263Y-93841741D01*
X139947984Y-93845318D01*
X139933423Y-93847478D01*
X139918720Y-93848200D01*
X138418720Y-93848200D01*
X138404017Y-93847478D01*
X138389456Y-93845318D01*
X138375177Y-93841741D01*
X138361317Y-93836782D01*
X138348010Y-93830488D01*
X138335384Y-93822920D01*
X138323561Y-93814152D01*
X138312654Y-93804266D01*
X138302768Y-93793359D01*
X138294000Y-93781536D01*
X138286432Y-93768910D01*
X138280138Y-93755603D01*
X138275179Y-93741743D01*
X138271602Y-93727464D01*
X138269442Y-93712903D01*
X138268720Y-93698200D01*
X138268720Y-93398200D01*
X138269442Y-93383497D01*
X138271602Y-93368936D01*
X138275179Y-93354657D01*
X138280138Y-93340797D01*
X138286432Y-93327490D01*
X138294000Y-93314864D01*
X138302768Y-93303041D01*
X138312654Y-93292134D01*
X138323561Y-93282248D01*
X138335384Y-93273480D01*
X138348010Y-93265912D01*
X138361317Y-93259618D01*
X138375177Y-93254659D01*
X138389456Y-93251082D01*
X138404017Y-93248922D01*
X138418720Y-93248200D01*
X139918720Y-93248200D01*
X139933423Y-93248922D01*
X139933423Y-93248922D01*
G37*
D12*
X139168720Y-93548200D03*
D11*
G36*
X132323985Y-77365564D02*
G01*
X132348253Y-77369164D01*
X132372052Y-77375125D01*
X132395151Y-77383390D01*
X132417330Y-77393880D01*
X132438373Y-77406492D01*
X132458079Y-77421107D01*
X132476257Y-77437583D01*
X132492733Y-77455761D01*
X132507348Y-77475467D01*
X132519960Y-77496510D01*
X132530450Y-77518689D01*
X132538715Y-77541788D01*
X132544676Y-77565587D01*
X132548276Y-77589855D01*
X132549480Y-77614359D01*
X132549480Y-78514361D01*
X132548276Y-78538865D01*
X132544676Y-78563133D01*
X132538715Y-78586932D01*
X132530450Y-78610031D01*
X132519960Y-78632210D01*
X132507348Y-78653253D01*
X132492733Y-78672959D01*
X132476257Y-78691137D01*
X132458079Y-78707613D01*
X132438373Y-78722228D01*
X132417330Y-78734840D01*
X132395151Y-78745330D01*
X132372052Y-78753595D01*
X132348253Y-78759556D01*
X132323985Y-78763156D01*
X132299481Y-78764360D01*
X131649479Y-78764360D01*
X131624975Y-78763156D01*
X131600707Y-78759556D01*
X131576908Y-78753595D01*
X131553809Y-78745330D01*
X131531630Y-78734840D01*
X131510587Y-78722228D01*
X131490881Y-78707613D01*
X131472703Y-78691137D01*
X131456227Y-78672959D01*
X131441612Y-78653253D01*
X131429000Y-78632210D01*
X131418510Y-78610031D01*
X131410245Y-78586932D01*
X131404284Y-78563133D01*
X131400684Y-78538865D01*
X131399480Y-78514361D01*
X131399480Y-77614359D01*
X131400684Y-77589855D01*
X131404284Y-77565587D01*
X131410245Y-77541788D01*
X131418510Y-77518689D01*
X131429000Y-77496510D01*
X131441612Y-77475467D01*
X131456227Y-77455761D01*
X131472703Y-77437583D01*
X131490881Y-77421107D01*
X131510587Y-77406492D01*
X131531630Y-77393880D01*
X131553809Y-77383390D01*
X131576908Y-77375125D01*
X131600707Y-77369164D01*
X131624975Y-77365564D01*
X131649479Y-77364360D01*
X132299481Y-77364360D01*
X132323985Y-77365564D01*
X132323985Y-77365564D01*
G37*
D13*
X131974480Y-78064360D03*
D11*
G36*
X134373985Y-77365564D02*
G01*
X134398253Y-77369164D01*
X134422052Y-77375125D01*
X134445151Y-77383390D01*
X134467330Y-77393880D01*
X134488373Y-77406492D01*
X134508079Y-77421107D01*
X134526257Y-77437583D01*
X134542733Y-77455761D01*
X134557348Y-77475467D01*
X134569960Y-77496510D01*
X134580450Y-77518689D01*
X134588715Y-77541788D01*
X134594676Y-77565587D01*
X134598276Y-77589855D01*
X134599480Y-77614359D01*
X134599480Y-78514361D01*
X134598276Y-78538865D01*
X134594676Y-78563133D01*
X134588715Y-78586932D01*
X134580450Y-78610031D01*
X134569960Y-78632210D01*
X134557348Y-78653253D01*
X134542733Y-78672959D01*
X134526257Y-78691137D01*
X134508079Y-78707613D01*
X134488373Y-78722228D01*
X134467330Y-78734840D01*
X134445151Y-78745330D01*
X134422052Y-78753595D01*
X134398253Y-78759556D01*
X134373985Y-78763156D01*
X134349481Y-78764360D01*
X133699479Y-78764360D01*
X133674975Y-78763156D01*
X133650707Y-78759556D01*
X133626908Y-78753595D01*
X133603809Y-78745330D01*
X133581630Y-78734840D01*
X133560587Y-78722228D01*
X133540881Y-78707613D01*
X133522703Y-78691137D01*
X133506227Y-78672959D01*
X133491612Y-78653253D01*
X133479000Y-78632210D01*
X133468510Y-78610031D01*
X133460245Y-78586932D01*
X133454284Y-78563133D01*
X133450684Y-78538865D01*
X133449480Y-78514361D01*
X133449480Y-77614359D01*
X133450684Y-77589855D01*
X133454284Y-77565587D01*
X133460245Y-77541788D01*
X133468510Y-77518689D01*
X133479000Y-77496510D01*
X133491612Y-77475467D01*
X133506227Y-77455761D01*
X133522703Y-77437583D01*
X133540881Y-77421107D01*
X133560587Y-77406492D01*
X133581630Y-77393880D01*
X133603809Y-77383390D01*
X133626908Y-77375125D01*
X133650707Y-77369164D01*
X133674975Y-77365564D01*
X133699479Y-77364360D01*
X134349481Y-77364360D01*
X134373985Y-77365564D01*
X134373985Y-77365564D01*
G37*
D13*
X134024480Y-78064360D03*
D11*
G36*
X134384145Y-74840804D02*
G01*
X134408413Y-74844404D01*
X134432212Y-74850365D01*
X134455311Y-74858630D01*
X134477490Y-74869120D01*
X134498533Y-74881732D01*
X134518239Y-74896347D01*
X134536417Y-74912823D01*
X134552893Y-74931001D01*
X134567508Y-74950707D01*
X134580120Y-74971750D01*
X134590610Y-74993929D01*
X134598875Y-75017028D01*
X134604836Y-75040827D01*
X134608436Y-75065095D01*
X134609640Y-75089599D01*
X134609640Y-75989601D01*
X134608436Y-76014105D01*
X134604836Y-76038373D01*
X134598875Y-76062172D01*
X134590610Y-76085271D01*
X134580120Y-76107450D01*
X134567508Y-76128493D01*
X134552893Y-76148199D01*
X134536417Y-76166377D01*
X134518239Y-76182853D01*
X134498533Y-76197468D01*
X134477490Y-76210080D01*
X134455311Y-76220570D01*
X134432212Y-76228835D01*
X134408413Y-76234796D01*
X134384145Y-76238396D01*
X134359641Y-76239600D01*
X133709639Y-76239600D01*
X133685135Y-76238396D01*
X133660867Y-76234796D01*
X133637068Y-76228835D01*
X133613969Y-76220570D01*
X133591790Y-76210080D01*
X133570747Y-76197468D01*
X133551041Y-76182853D01*
X133532863Y-76166377D01*
X133516387Y-76148199D01*
X133501772Y-76128493D01*
X133489160Y-76107450D01*
X133478670Y-76085271D01*
X133470405Y-76062172D01*
X133464444Y-76038373D01*
X133460844Y-76014105D01*
X133459640Y-75989601D01*
X133459640Y-75089599D01*
X133460844Y-75065095D01*
X133464444Y-75040827D01*
X133470405Y-75017028D01*
X133478670Y-74993929D01*
X133489160Y-74971750D01*
X133501772Y-74950707D01*
X133516387Y-74931001D01*
X133532863Y-74912823D01*
X133551041Y-74896347D01*
X133570747Y-74881732D01*
X133591790Y-74869120D01*
X133613969Y-74858630D01*
X133637068Y-74850365D01*
X133660867Y-74844404D01*
X133685135Y-74840804D01*
X133709639Y-74839600D01*
X134359641Y-74839600D01*
X134384145Y-74840804D01*
X134384145Y-74840804D01*
G37*
D13*
X134034640Y-75539600D03*
D11*
G36*
X132334145Y-74840804D02*
G01*
X132358413Y-74844404D01*
X132382212Y-74850365D01*
X132405311Y-74858630D01*
X132427490Y-74869120D01*
X132448533Y-74881732D01*
X132468239Y-74896347D01*
X132486417Y-74912823D01*
X132502893Y-74931001D01*
X132517508Y-74950707D01*
X132530120Y-74971750D01*
X132540610Y-74993929D01*
X132548875Y-75017028D01*
X132554836Y-75040827D01*
X132558436Y-75065095D01*
X132559640Y-75089599D01*
X132559640Y-75989601D01*
X132558436Y-76014105D01*
X132554836Y-76038373D01*
X132548875Y-76062172D01*
X132540610Y-76085271D01*
X132530120Y-76107450D01*
X132517508Y-76128493D01*
X132502893Y-76148199D01*
X132486417Y-76166377D01*
X132468239Y-76182853D01*
X132448533Y-76197468D01*
X132427490Y-76210080D01*
X132405311Y-76220570D01*
X132382212Y-76228835D01*
X132358413Y-76234796D01*
X132334145Y-76238396D01*
X132309641Y-76239600D01*
X131659639Y-76239600D01*
X131635135Y-76238396D01*
X131610867Y-76234796D01*
X131587068Y-76228835D01*
X131563969Y-76220570D01*
X131541790Y-76210080D01*
X131520747Y-76197468D01*
X131501041Y-76182853D01*
X131482863Y-76166377D01*
X131466387Y-76148199D01*
X131451772Y-76128493D01*
X131439160Y-76107450D01*
X131428670Y-76085271D01*
X131420405Y-76062172D01*
X131414444Y-76038373D01*
X131410844Y-76014105D01*
X131409640Y-75989601D01*
X131409640Y-75089599D01*
X131410844Y-75065095D01*
X131414444Y-75040827D01*
X131420405Y-75017028D01*
X131428670Y-74993929D01*
X131439160Y-74971750D01*
X131451772Y-74950707D01*
X131466387Y-74931001D01*
X131482863Y-74912823D01*
X131501041Y-74896347D01*
X131520747Y-74881732D01*
X131541790Y-74869120D01*
X131563969Y-74858630D01*
X131587068Y-74850365D01*
X131610867Y-74844404D01*
X131635135Y-74840804D01*
X131659639Y-74839600D01*
X132309641Y-74839600D01*
X132334145Y-74840804D01*
X132334145Y-74840804D01*
G37*
D13*
X131984640Y-75539600D03*
D11*
G36*
X120070144Y-75569044D02*
G01*
X120094413Y-75572644D01*
X120118211Y-75578605D01*
X120141311Y-75586870D01*
X120163489Y-75597360D01*
X120184533Y-75609973D01*
X120204238Y-75624587D01*
X120222417Y-75641063D01*
X120238893Y-75659242D01*
X120253507Y-75678947D01*
X120266120Y-75699991D01*
X120276610Y-75722169D01*
X120284875Y-75745269D01*
X120290836Y-75769067D01*
X120294436Y-75793336D01*
X120295640Y-75817840D01*
X120295640Y-76742840D01*
X120294436Y-76767344D01*
X120290836Y-76791613D01*
X120284875Y-76815411D01*
X120276610Y-76838511D01*
X120266120Y-76860689D01*
X120253507Y-76881733D01*
X120238893Y-76901438D01*
X120222417Y-76919617D01*
X120204238Y-76936093D01*
X120184533Y-76950707D01*
X120163489Y-76963320D01*
X120141311Y-76973810D01*
X120118211Y-76982075D01*
X120094413Y-76988036D01*
X120070144Y-76991636D01*
X120045640Y-76992840D01*
X118795640Y-76992840D01*
X118771136Y-76991636D01*
X118746867Y-76988036D01*
X118723069Y-76982075D01*
X118699969Y-76973810D01*
X118677791Y-76963320D01*
X118656747Y-76950707D01*
X118637042Y-76936093D01*
X118618863Y-76919617D01*
X118602387Y-76901438D01*
X118587773Y-76881733D01*
X118575160Y-76860689D01*
X118564670Y-76838511D01*
X118556405Y-76815411D01*
X118550444Y-76791613D01*
X118546844Y-76767344D01*
X118545640Y-76742840D01*
X118545640Y-75817840D01*
X118546844Y-75793336D01*
X118550444Y-75769067D01*
X118556405Y-75745269D01*
X118564670Y-75722169D01*
X118575160Y-75699991D01*
X118587773Y-75678947D01*
X118602387Y-75659242D01*
X118618863Y-75641063D01*
X118637042Y-75624587D01*
X118656747Y-75609973D01*
X118677791Y-75597360D01*
X118699969Y-75586870D01*
X118723069Y-75578605D01*
X118746867Y-75572644D01*
X118771136Y-75569044D01*
X118795640Y-75567840D01*
X120045640Y-75567840D01*
X120070144Y-75569044D01*
X120070144Y-75569044D01*
G37*
D14*
X119420640Y-76280340D03*
D11*
G36*
X120070144Y-72594044D02*
G01*
X120094413Y-72597644D01*
X120118211Y-72603605D01*
X120141311Y-72611870D01*
X120163489Y-72622360D01*
X120184533Y-72634973D01*
X120204238Y-72649587D01*
X120222417Y-72666063D01*
X120238893Y-72684242D01*
X120253507Y-72703947D01*
X120266120Y-72724991D01*
X120276610Y-72747169D01*
X120284875Y-72770269D01*
X120290836Y-72794067D01*
X120294436Y-72818336D01*
X120295640Y-72842840D01*
X120295640Y-73767840D01*
X120294436Y-73792344D01*
X120290836Y-73816613D01*
X120284875Y-73840411D01*
X120276610Y-73863511D01*
X120266120Y-73885689D01*
X120253507Y-73906733D01*
X120238893Y-73926438D01*
X120222417Y-73944617D01*
X120204238Y-73961093D01*
X120184533Y-73975707D01*
X120163489Y-73988320D01*
X120141311Y-73998810D01*
X120118211Y-74007075D01*
X120094413Y-74013036D01*
X120070144Y-74016636D01*
X120045640Y-74017840D01*
X118795640Y-74017840D01*
X118771136Y-74016636D01*
X118746867Y-74013036D01*
X118723069Y-74007075D01*
X118699969Y-73998810D01*
X118677791Y-73988320D01*
X118656747Y-73975707D01*
X118637042Y-73961093D01*
X118618863Y-73944617D01*
X118602387Y-73926438D01*
X118587773Y-73906733D01*
X118575160Y-73885689D01*
X118564670Y-73863511D01*
X118556405Y-73840411D01*
X118550444Y-73816613D01*
X118546844Y-73792344D01*
X118545640Y-73767840D01*
X118545640Y-72842840D01*
X118546844Y-72818336D01*
X118550444Y-72794067D01*
X118556405Y-72770269D01*
X118564670Y-72747169D01*
X118575160Y-72724991D01*
X118587773Y-72703947D01*
X118602387Y-72684242D01*
X118618863Y-72666063D01*
X118637042Y-72649587D01*
X118656747Y-72634973D01*
X118677791Y-72622360D01*
X118699969Y-72611870D01*
X118723069Y-72603605D01*
X118746867Y-72597644D01*
X118771136Y-72594044D01*
X118795640Y-72592840D01*
X120045640Y-72592840D01*
X120070144Y-72594044D01*
X120070144Y-72594044D01*
G37*
D14*
X119420640Y-73305340D03*
D11*
G36*
X136808744Y-89881284D02*
G01*
X136833013Y-89884884D01*
X136856811Y-89890845D01*
X136879911Y-89899110D01*
X136902089Y-89909600D01*
X136923133Y-89922213D01*
X136942838Y-89936827D01*
X136961017Y-89953303D01*
X136977493Y-89971482D01*
X136992107Y-89991187D01*
X137004720Y-90012231D01*
X137015210Y-90034409D01*
X137023475Y-90057509D01*
X137029436Y-90081307D01*
X137033036Y-90105576D01*
X137034240Y-90130080D01*
X137034240Y-91055080D01*
X137033036Y-91079584D01*
X137029436Y-91103853D01*
X137023475Y-91127651D01*
X137015210Y-91150751D01*
X137004720Y-91172929D01*
X136992107Y-91193973D01*
X136977493Y-91213678D01*
X136961017Y-91231857D01*
X136942838Y-91248333D01*
X136923133Y-91262947D01*
X136902089Y-91275560D01*
X136879911Y-91286050D01*
X136856811Y-91294315D01*
X136833013Y-91300276D01*
X136808744Y-91303876D01*
X136784240Y-91305080D01*
X135534240Y-91305080D01*
X135509736Y-91303876D01*
X135485467Y-91300276D01*
X135461669Y-91294315D01*
X135438569Y-91286050D01*
X135416391Y-91275560D01*
X135395347Y-91262947D01*
X135375642Y-91248333D01*
X135357463Y-91231857D01*
X135340987Y-91213678D01*
X135326373Y-91193973D01*
X135313760Y-91172929D01*
X135303270Y-91150751D01*
X135295005Y-91127651D01*
X135289044Y-91103853D01*
X135285444Y-91079584D01*
X135284240Y-91055080D01*
X135284240Y-90130080D01*
X135285444Y-90105576D01*
X135289044Y-90081307D01*
X135295005Y-90057509D01*
X135303270Y-90034409D01*
X135313760Y-90012231D01*
X135326373Y-89991187D01*
X135340987Y-89971482D01*
X135357463Y-89953303D01*
X135375642Y-89936827D01*
X135395347Y-89922213D01*
X135416391Y-89909600D01*
X135438569Y-89899110D01*
X135461669Y-89890845D01*
X135485467Y-89884884D01*
X135509736Y-89881284D01*
X135534240Y-89880080D01*
X136784240Y-89880080D01*
X136808744Y-89881284D01*
X136808744Y-89881284D01*
G37*
D14*
X136159240Y-90592580D03*
D11*
G36*
X136808744Y-92856284D02*
G01*
X136833013Y-92859884D01*
X136856811Y-92865845D01*
X136879911Y-92874110D01*
X136902089Y-92884600D01*
X136923133Y-92897213D01*
X136942838Y-92911827D01*
X136961017Y-92928303D01*
X136977493Y-92946482D01*
X136992107Y-92966187D01*
X137004720Y-92987231D01*
X137015210Y-93009409D01*
X137023475Y-93032509D01*
X137029436Y-93056307D01*
X137033036Y-93080576D01*
X137034240Y-93105080D01*
X137034240Y-94030080D01*
X137033036Y-94054584D01*
X137029436Y-94078853D01*
X137023475Y-94102651D01*
X137015210Y-94125751D01*
X137004720Y-94147929D01*
X136992107Y-94168973D01*
X136977493Y-94188678D01*
X136961017Y-94206857D01*
X136942838Y-94223333D01*
X136923133Y-94237947D01*
X136902089Y-94250560D01*
X136879911Y-94261050D01*
X136856811Y-94269315D01*
X136833013Y-94275276D01*
X136808744Y-94278876D01*
X136784240Y-94280080D01*
X135534240Y-94280080D01*
X135509736Y-94278876D01*
X135485467Y-94275276D01*
X135461669Y-94269315D01*
X135438569Y-94261050D01*
X135416391Y-94250560D01*
X135395347Y-94237947D01*
X135375642Y-94223333D01*
X135357463Y-94206857D01*
X135340987Y-94188678D01*
X135326373Y-94168973D01*
X135313760Y-94147929D01*
X135303270Y-94125751D01*
X135295005Y-94102651D01*
X135289044Y-94078853D01*
X135285444Y-94054584D01*
X135284240Y-94030080D01*
X135284240Y-93105080D01*
X135285444Y-93080576D01*
X135289044Y-93056307D01*
X135295005Y-93032509D01*
X135303270Y-93009409D01*
X135313760Y-92987231D01*
X135326373Y-92966187D01*
X135340987Y-92946482D01*
X135357463Y-92928303D01*
X135375642Y-92911827D01*
X135395347Y-92897213D01*
X135416391Y-92884600D01*
X135438569Y-92874110D01*
X135461669Y-92865845D01*
X135485467Y-92859884D01*
X135509736Y-92856284D01*
X135534240Y-92855080D01*
X136784240Y-92855080D01*
X136808744Y-92856284D01*
X136808744Y-92856284D01*
G37*
D14*
X136159240Y-93567580D03*
D11*
G36*
X144474505Y-85401204D02*
G01*
X144498773Y-85404804D01*
X144522572Y-85410765D01*
X144545671Y-85419030D01*
X144567850Y-85429520D01*
X144588893Y-85442132D01*
X144608599Y-85456747D01*
X144626777Y-85473223D01*
X144643253Y-85491401D01*
X144657868Y-85511107D01*
X144670480Y-85532150D01*
X144680970Y-85554329D01*
X144689235Y-85577428D01*
X144695196Y-85601227D01*
X144698796Y-85625495D01*
X144700000Y-85649999D01*
X144700000Y-86300001D01*
X144698796Y-86324505D01*
X144695196Y-86348773D01*
X144689235Y-86372572D01*
X144680970Y-86395671D01*
X144670480Y-86417850D01*
X144657868Y-86438893D01*
X144643253Y-86458599D01*
X144626777Y-86476777D01*
X144608599Y-86493253D01*
X144588893Y-86507868D01*
X144567850Y-86520480D01*
X144545671Y-86530970D01*
X144522572Y-86539235D01*
X144498773Y-86545196D01*
X144474505Y-86548796D01*
X144450001Y-86550000D01*
X143549999Y-86550000D01*
X143525495Y-86548796D01*
X143501227Y-86545196D01*
X143477428Y-86539235D01*
X143454329Y-86530970D01*
X143432150Y-86520480D01*
X143411107Y-86507868D01*
X143391401Y-86493253D01*
X143373223Y-86476777D01*
X143356747Y-86458599D01*
X143342132Y-86438893D01*
X143329520Y-86417850D01*
X143319030Y-86395671D01*
X143310765Y-86372572D01*
X143304804Y-86348773D01*
X143301204Y-86324505D01*
X143300000Y-86300001D01*
X143300000Y-85649999D01*
X143301204Y-85625495D01*
X143304804Y-85601227D01*
X143310765Y-85577428D01*
X143319030Y-85554329D01*
X143329520Y-85532150D01*
X143342132Y-85511107D01*
X143356747Y-85491401D01*
X143373223Y-85473223D01*
X143391401Y-85456747D01*
X143411107Y-85442132D01*
X143432150Y-85429520D01*
X143454329Y-85419030D01*
X143477428Y-85410765D01*
X143501227Y-85404804D01*
X143525495Y-85401204D01*
X143549999Y-85400000D01*
X144450001Y-85400000D01*
X144474505Y-85401204D01*
X144474505Y-85401204D01*
G37*
D13*
X144000000Y-85975000D03*
D11*
G36*
X144474505Y-87451204D02*
G01*
X144498773Y-87454804D01*
X144522572Y-87460765D01*
X144545671Y-87469030D01*
X144567850Y-87479520D01*
X144588893Y-87492132D01*
X144608599Y-87506747D01*
X144626777Y-87523223D01*
X144643253Y-87541401D01*
X144657868Y-87561107D01*
X144670480Y-87582150D01*
X144680970Y-87604329D01*
X144689235Y-87627428D01*
X144695196Y-87651227D01*
X144698796Y-87675495D01*
X144700000Y-87699999D01*
X144700000Y-88350001D01*
X144698796Y-88374505D01*
X144695196Y-88398773D01*
X144689235Y-88422572D01*
X144680970Y-88445671D01*
X144670480Y-88467850D01*
X144657868Y-88488893D01*
X144643253Y-88508599D01*
X144626777Y-88526777D01*
X144608599Y-88543253D01*
X144588893Y-88557868D01*
X144567850Y-88570480D01*
X144545671Y-88580970D01*
X144522572Y-88589235D01*
X144498773Y-88595196D01*
X144474505Y-88598796D01*
X144450001Y-88600000D01*
X143549999Y-88600000D01*
X143525495Y-88598796D01*
X143501227Y-88595196D01*
X143477428Y-88589235D01*
X143454329Y-88580970D01*
X143432150Y-88570480D01*
X143411107Y-88557868D01*
X143391401Y-88543253D01*
X143373223Y-88526777D01*
X143356747Y-88508599D01*
X143342132Y-88488893D01*
X143329520Y-88467850D01*
X143319030Y-88445671D01*
X143310765Y-88422572D01*
X143304804Y-88398773D01*
X143301204Y-88374505D01*
X143300000Y-88350001D01*
X143300000Y-87699999D01*
X143301204Y-87675495D01*
X143304804Y-87651227D01*
X143310765Y-87627428D01*
X143319030Y-87604329D01*
X143329520Y-87582150D01*
X143342132Y-87561107D01*
X143356747Y-87541401D01*
X143373223Y-87523223D01*
X143391401Y-87506747D01*
X143411107Y-87492132D01*
X143432150Y-87479520D01*
X143454329Y-87469030D01*
X143477428Y-87460765D01*
X143501227Y-87454804D01*
X143525495Y-87451204D01*
X143549999Y-87450000D01*
X144450001Y-87450000D01*
X144474505Y-87451204D01*
X144474505Y-87451204D01*
G37*
D13*
X144000000Y-88025000D03*
D11*
G36*
X186825585Y-78870604D02*
G01*
X186849853Y-78874204D01*
X186873652Y-78880165D01*
X186896751Y-78888430D01*
X186918930Y-78898920D01*
X186939973Y-78911532D01*
X186959679Y-78926147D01*
X186977857Y-78942623D01*
X186994333Y-78960801D01*
X187008948Y-78980507D01*
X187021560Y-79001550D01*
X187032050Y-79023729D01*
X187040315Y-79046828D01*
X187046276Y-79070627D01*
X187049876Y-79094895D01*
X187051080Y-79119399D01*
X187051080Y-80019401D01*
X187049876Y-80043905D01*
X187046276Y-80068173D01*
X187040315Y-80091972D01*
X187032050Y-80115071D01*
X187021560Y-80137250D01*
X187008948Y-80158293D01*
X186994333Y-80177999D01*
X186977857Y-80196177D01*
X186959679Y-80212653D01*
X186939973Y-80227268D01*
X186918930Y-80239880D01*
X186896751Y-80250370D01*
X186873652Y-80258635D01*
X186849853Y-80264596D01*
X186825585Y-80268196D01*
X186801081Y-80269400D01*
X186151079Y-80269400D01*
X186126575Y-80268196D01*
X186102307Y-80264596D01*
X186078508Y-80258635D01*
X186055409Y-80250370D01*
X186033230Y-80239880D01*
X186012187Y-80227268D01*
X185992481Y-80212653D01*
X185974303Y-80196177D01*
X185957827Y-80177999D01*
X185943212Y-80158293D01*
X185930600Y-80137250D01*
X185920110Y-80115071D01*
X185911845Y-80091972D01*
X185905884Y-80068173D01*
X185902284Y-80043905D01*
X185901080Y-80019401D01*
X185901080Y-79119399D01*
X185902284Y-79094895D01*
X185905884Y-79070627D01*
X185911845Y-79046828D01*
X185920110Y-79023729D01*
X185930600Y-79001550D01*
X185943212Y-78980507D01*
X185957827Y-78960801D01*
X185974303Y-78942623D01*
X185992481Y-78926147D01*
X186012187Y-78911532D01*
X186033230Y-78898920D01*
X186055409Y-78888430D01*
X186078508Y-78880165D01*
X186102307Y-78874204D01*
X186126575Y-78870604D01*
X186151079Y-78869400D01*
X186801081Y-78869400D01*
X186825585Y-78870604D01*
X186825585Y-78870604D01*
G37*
D13*
X186476080Y-79569400D03*
D11*
G36*
X188875585Y-78870604D02*
G01*
X188899853Y-78874204D01*
X188923652Y-78880165D01*
X188946751Y-78888430D01*
X188968930Y-78898920D01*
X188989973Y-78911532D01*
X189009679Y-78926147D01*
X189027857Y-78942623D01*
X189044333Y-78960801D01*
X189058948Y-78980507D01*
X189071560Y-79001550D01*
X189082050Y-79023729D01*
X189090315Y-79046828D01*
X189096276Y-79070627D01*
X189099876Y-79094895D01*
X189101080Y-79119399D01*
X189101080Y-80019401D01*
X189099876Y-80043905D01*
X189096276Y-80068173D01*
X189090315Y-80091972D01*
X189082050Y-80115071D01*
X189071560Y-80137250D01*
X189058948Y-80158293D01*
X189044333Y-80177999D01*
X189027857Y-80196177D01*
X189009679Y-80212653D01*
X188989973Y-80227268D01*
X188968930Y-80239880D01*
X188946751Y-80250370D01*
X188923652Y-80258635D01*
X188899853Y-80264596D01*
X188875585Y-80268196D01*
X188851081Y-80269400D01*
X188201079Y-80269400D01*
X188176575Y-80268196D01*
X188152307Y-80264596D01*
X188128508Y-80258635D01*
X188105409Y-80250370D01*
X188083230Y-80239880D01*
X188062187Y-80227268D01*
X188042481Y-80212653D01*
X188024303Y-80196177D01*
X188007827Y-80177999D01*
X187993212Y-80158293D01*
X187980600Y-80137250D01*
X187970110Y-80115071D01*
X187961845Y-80091972D01*
X187955884Y-80068173D01*
X187952284Y-80043905D01*
X187951080Y-80019401D01*
X187951080Y-79119399D01*
X187952284Y-79094895D01*
X187955884Y-79070627D01*
X187961845Y-79046828D01*
X187970110Y-79023729D01*
X187980600Y-79001550D01*
X187993212Y-78980507D01*
X188007827Y-78960801D01*
X188024303Y-78942623D01*
X188042481Y-78926147D01*
X188062187Y-78911532D01*
X188083230Y-78898920D01*
X188105409Y-78888430D01*
X188128508Y-78880165D01*
X188152307Y-78874204D01*
X188176575Y-78870604D01*
X188201079Y-78869400D01*
X188851081Y-78869400D01*
X188875585Y-78870604D01*
X188875585Y-78870604D01*
G37*
D13*
X188526080Y-79569400D03*
D11*
G36*
X193927425Y-78870604D02*
G01*
X193951693Y-78874204D01*
X193975492Y-78880165D01*
X193998591Y-78888430D01*
X194020770Y-78898920D01*
X194041813Y-78911532D01*
X194061519Y-78926147D01*
X194079697Y-78942623D01*
X194096173Y-78960801D01*
X194110788Y-78980507D01*
X194123400Y-79001550D01*
X194133890Y-79023729D01*
X194142155Y-79046828D01*
X194148116Y-79070627D01*
X194151716Y-79094895D01*
X194152920Y-79119399D01*
X194152920Y-80019401D01*
X194151716Y-80043905D01*
X194148116Y-80068173D01*
X194142155Y-80091972D01*
X194133890Y-80115071D01*
X194123400Y-80137250D01*
X194110788Y-80158293D01*
X194096173Y-80177999D01*
X194079697Y-80196177D01*
X194061519Y-80212653D01*
X194041813Y-80227268D01*
X194020770Y-80239880D01*
X193998591Y-80250370D01*
X193975492Y-80258635D01*
X193951693Y-80264596D01*
X193927425Y-80268196D01*
X193902921Y-80269400D01*
X193252919Y-80269400D01*
X193228415Y-80268196D01*
X193204147Y-80264596D01*
X193180348Y-80258635D01*
X193157249Y-80250370D01*
X193135070Y-80239880D01*
X193114027Y-80227268D01*
X193094321Y-80212653D01*
X193076143Y-80196177D01*
X193059667Y-80177999D01*
X193045052Y-80158293D01*
X193032440Y-80137250D01*
X193021950Y-80115071D01*
X193013685Y-80091972D01*
X193007724Y-80068173D01*
X193004124Y-80043905D01*
X193002920Y-80019401D01*
X193002920Y-79119399D01*
X193004124Y-79094895D01*
X193007724Y-79070627D01*
X193013685Y-79046828D01*
X193021950Y-79023729D01*
X193032440Y-79001550D01*
X193045052Y-78980507D01*
X193059667Y-78960801D01*
X193076143Y-78942623D01*
X193094321Y-78926147D01*
X193114027Y-78911532D01*
X193135070Y-78898920D01*
X193157249Y-78888430D01*
X193180348Y-78880165D01*
X193204147Y-78874204D01*
X193228415Y-78870604D01*
X193252919Y-78869400D01*
X193902921Y-78869400D01*
X193927425Y-78870604D01*
X193927425Y-78870604D01*
G37*
D13*
X193577920Y-79569400D03*
D11*
G36*
X195977425Y-78870604D02*
G01*
X196001693Y-78874204D01*
X196025492Y-78880165D01*
X196048591Y-78888430D01*
X196070770Y-78898920D01*
X196091813Y-78911532D01*
X196111519Y-78926147D01*
X196129697Y-78942623D01*
X196146173Y-78960801D01*
X196160788Y-78980507D01*
X196173400Y-79001550D01*
X196183890Y-79023729D01*
X196192155Y-79046828D01*
X196198116Y-79070627D01*
X196201716Y-79094895D01*
X196202920Y-79119399D01*
X196202920Y-80019401D01*
X196201716Y-80043905D01*
X196198116Y-80068173D01*
X196192155Y-80091972D01*
X196183890Y-80115071D01*
X196173400Y-80137250D01*
X196160788Y-80158293D01*
X196146173Y-80177999D01*
X196129697Y-80196177D01*
X196111519Y-80212653D01*
X196091813Y-80227268D01*
X196070770Y-80239880D01*
X196048591Y-80250370D01*
X196025492Y-80258635D01*
X196001693Y-80264596D01*
X195977425Y-80268196D01*
X195952921Y-80269400D01*
X195302919Y-80269400D01*
X195278415Y-80268196D01*
X195254147Y-80264596D01*
X195230348Y-80258635D01*
X195207249Y-80250370D01*
X195185070Y-80239880D01*
X195164027Y-80227268D01*
X195144321Y-80212653D01*
X195126143Y-80196177D01*
X195109667Y-80177999D01*
X195095052Y-80158293D01*
X195082440Y-80137250D01*
X195071950Y-80115071D01*
X195063685Y-80091972D01*
X195057724Y-80068173D01*
X195054124Y-80043905D01*
X195052920Y-80019401D01*
X195052920Y-79119399D01*
X195054124Y-79094895D01*
X195057724Y-79070627D01*
X195063685Y-79046828D01*
X195071950Y-79023729D01*
X195082440Y-79001550D01*
X195095052Y-78980507D01*
X195109667Y-78960801D01*
X195126143Y-78942623D01*
X195144321Y-78926147D01*
X195164027Y-78911532D01*
X195185070Y-78898920D01*
X195207249Y-78888430D01*
X195230348Y-78880165D01*
X195254147Y-78874204D01*
X195278415Y-78870604D01*
X195302919Y-78869400D01*
X195952921Y-78869400D01*
X195977425Y-78870604D01*
X195977425Y-78870604D01*
G37*
D13*
X195627920Y-79569400D03*
D11*
G36*
X201078905Y-78870604D02*
G01*
X201103173Y-78874204D01*
X201126972Y-78880165D01*
X201150071Y-78888430D01*
X201172250Y-78898920D01*
X201193293Y-78911532D01*
X201212999Y-78926147D01*
X201231177Y-78942623D01*
X201247653Y-78960801D01*
X201262268Y-78980507D01*
X201274880Y-79001550D01*
X201285370Y-79023729D01*
X201293635Y-79046828D01*
X201299596Y-79070627D01*
X201303196Y-79094895D01*
X201304400Y-79119399D01*
X201304400Y-80019401D01*
X201303196Y-80043905D01*
X201299596Y-80068173D01*
X201293635Y-80091972D01*
X201285370Y-80115071D01*
X201274880Y-80137250D01*
X201262268Y-80158293D01*
X201247653Y-80177999D01*
X201231177Y-80196177D01*
X201212999Y-80212653D01*
X201193293Y-80227268D01*
X201172250Y-80239880D01*
X201150071Y-80250370D01*
X201126972Y-80258635D01*
X201103173Y-80264596D01*
X201078905Y-80268196D01*
X201054401Y-80269400D01*
X200404399Y-80269400D01*
X200379895Y-80268196D01*
X200355627Y-80264596D01*
X200331828Y-80258635D01*
X200308729Y-80250370D01*
X200286550Y-80239880D01*
X200265507Y-80227268D01*
X200245801Y-80212653D01*
X200227623Y-80196177D01*
X200211147Y-80177999D01*
X200196532Y-80158293D01*
X200183920Y-80137250D01*
X200173430Y-80115071D01*
X200165165Y-80091972D01*
X200159204Y-80068173D01*
X200155604Y-80043905D01*
X200154400Y-80019401D01*
X200154400Y-79119399D01*
X200155604Y-79094895D01*
X200159204Y-79070627D01*
X200165165Y-79046828D01*
X200173430Y-79023729D01*
X200183920Y-79001550D01*
X200196532Y-78980507D01*
X200211147Y-78960801D01*
X200227623Y-78942623D01*
X200245801Y-78926147D01*
X200265507Y-78911532D01*
X200286550Y-78898920D01*
X200308729Y-78888430D01*
X200331828Y-78880165D01*
X200355627Y-78874204D01*
X200379895Y-78870604D01*
X200404399Y-78869400D01*
X201054401Y-78869400D01*
X201078905Y-78870604D01*
X201078905Y-78870604D01*
G37*
D13*
X200729400Y-79569400D03*
D11*
G36*
X203128905Y-78870604D02*
G01*
X203153173Y-78874204D01*
X203176972Y-78880165D01*
X203200071Y-78888430D01*
X203222250Y-78898920D01*
X203243293Y-78911532D01*
X203262999Y-78926147D01*
X203281177Y-78942623D01*
X203297653Y-78960801D01*
X203312268Y-78980507D01*
X203324880Y-79001550D01*
X203335370Y-79023729D01*
X203343635Y-79046828D01*
X203349596Y-79070627D01*
X203353196Y-79094895D01*
X203354400Y-79119399D01*
X203354400Y-80019401D01*
X203353196Y-80043905D01*
X203349596Y-80068173D01*
X203343635Y-80091972D01*
X203335370Y-80115071D01*
X203324880Y-80137250D01*
X203312268Y-80158293D01*
X203297653Y-80177999D01*
X203281177Y-80196177D01*
X203262999Y-80212653D01*
X203243293Y-80227268D01*
X203222250Y-80239880D01*
X203200071Y-80250370D01*
X203176972Y-80258635D01*
X203153173Y-80264596D01*
X203128905Y-80268196D01*
X203104401Y-80269400D01*
X202454399Y-80269400D01*
X202429895Y-80268196D01*
X202405627Y-80264596D01*
X202381828Y-80258635D01*
X202358729Y-80250370D01*
X202336550Y-80239880D01*
X202315507Y-80227268D01*
X202295801Y-80212653D01*
X202277623Y-80196177D01*
X202261147Y-80177999D01*
X202246532Y-80158293D01*
X202233920Y-80137250D01*
X202223430Y-80115071D01*
X202215165Y-80091972D01*
X202209204Y-80068173D01*
X202205604Y-80043905D01*
X202204400Y-80019401D01*
X202204400Y-79119399D01*
X202205604Y-79094895D01*
X202209204Y-79070627D01*
X202215165Y-79046828D01*
X202223430Y-79023729D01*
X202233920Y-79001550D01*
X202246532Y-78980507D01*
X202261147Y-78960801D01*
X202277623Y-78942623D01*
X202295801Y-78926147D01*
X202315507Y-78911532D01*
X202336550Y-78898920D01*
X202358729Y-78888430D01*
X202381828Y-78880165D01*
X202405627Y-78874204D01*
X202429895Y-78870604D01*
X202454399Y-78869400D01*
X203104401Y-78869400D01*
X203128905Y-78870604D01*
X203128905Y-78870604D01*
G37*
D13*
X202779400Y-79569400D03*
D11*
G36*
X186555524Y-75868444D02*
G01*
X186579793Y-75872044D01*
X186603591Y-75878005D01*
X186626691Y-75886270D01*
X186648869Y-75896760D01*
X186669913Y-75909373D01*
X186689618Y-75923987D01*
X186707797Y-75940463D01*
X186724273Y-75958642D01*
X186738887Y-75978347D01*
X186751500Y-75999391D01*
X186761990Y-76021569D01*
X186770255Y-76044669D01*
X186776216Y-76068467D01*
X186779816Y-76092736D01*
X186781020Y-76117240D01*
X186781020Y-77367240D01*
X186779816Y-77391744D01*
X186776216Y-77416013D01*
X186770255Y-77439811D01*
X186761990Y-77462911D01*
X186751500Y-77485089D01*
X186738887Y-77506133D01*
X186724273Y-77525838D01*
X186707797Y-77544017D01*
X186689618Y-77560493D01*
X186669913Y-77575107D01*
X186648869Y-77587720D01*
X186626691Y-77598210D01*
X186603591Y-77606475D01*
X186579793Y-77612436D01*
X186555524Y-77616036D01*
X186531020Y-77617240D01*
X185606020Y-77617240D01*
X185581516Y-77616036D01*
X185557247Y-77612436D01*
X185533449Y-77606475D01*
X185510349Y-77598210D01*
X185488171Y-77587720D01*
X185467127Y-77575107D01*
X185447422Y-77560493D01*
X185429243Y-77544017D01*
X185412767Y-77525838D01*
X185398153Y-77506133D01*
X185385540Y-77485089D01*
X185375050Y-77462911D01*
X185366785Y-77439811D01*
X185360824Y-77416013D01*
X185357224Y-77391744D01*
X185356020Y-77367240D01*
X185356020Y-76117240D01*
X185357224Y-76092736D01*
X185360824Y-76068467D01*
X185366785Y-76044669D01*
X185375050Y-76021569D01*
X185385540Y-75999391D01*
X185398153Y-75978347D01*
X185412767Y-75958642D01*
X185429243Y-75940463D01*
X185447422Y-75923987D01*
X185467127Y-75909373D01*
X185488171Y-75896760D01*
X185510349Y-75886270D01*
X185533449Y-75878005D01*
X185557247Y-75872044D01*
X185581516Y-75868444D01*
X185606020Y-75867240D01*
X186531020Y-75867240D01*
X186555524Y-75868444D01*
X186555524Y-75868444D01*
G37*
D14*
X186068520Y-76742240D03*
D11*
G36*
X189530524Y-75868444D02*
G01*
X189554793Y-75872044D01*
X189578591Y-75878005D01*
X189601691Y-75886270D01*
X189623869Y-75896760D01*
X189644913Y-75909373D01*
X189664618Y-75923987D01*
X189682797Y-75940463D01*
X189699273Y-75958642D01*
X189713887Y-75978347D01*
X189726500Y-75999391D01*
X189736990Y-76021569D01*
X189745255Y-76044669D01*
X189751216Y-76068467D01*
X189754816Y-76092736D01*
X189756020Y-76117240D01*
X189756020Y-77367240D01*
X189754816Y-77391744D01*
X189751216Y-77416013D01*
X189745255Y-77439811D01*
X189736990Y-77462911D01*
X189726500Y-77485089D01*
X189713887Y-77506133D01*
X189699273Y-77525838D01*
X189682797Y-77544017D01*
X189664618Y-77560493D01*
X189644913Y-77575107D01*
X189623869Y-77587720D01*
X189601691Y-77598210D01*
X189578591Y-77606475D01*
X189554793Y-77612436D01*
X189530524Y-77616036D01*
X189506020Y-77617240D01*
X188581020Y-77617240D01*
X188556516Y-77616036D01*
X188532247Y-77612436D01*
X188508449Y-77606475D01*
X188485349Y-77598210D01*
X188463171Y-77587720D01*
X188442127Y-77575107D01*
X188422422Y-77560493D01*
X188404243Y-77544017D01*
X188387767Y-77525838D01*
X188373153Y-77506133D01*
X188360540Y-77485089D01*
X188350050Y-77462911D01*
X188341785Y-77439811D01*
X188335824Y-77416013D01*
X188332224Y-77391744D01*
X188331020Y-77367240D01*
X188331020Y-76117240D01*
X188332224Y-76092736D01*
X188335824Y-76068467D01*
X188341785Y-76044669D01*
X188350050Y-76021569D01*
X188360540Y-75999391D01*
X188373153Y-75978347D01*
X188387767Y-75958642D01*
X188404243Y-75940463D01*
X188422422Y-75923987D01*
X188442127Y-75909373D01*
X188463171Y-75896760D01*
X188485349Y-75886270D01*
X188508449Y-75878005D01*
X188532247Y-75872044D01*
X188556516Y-75868444D01*
X188581020Y-75867240D01*
X189506020Y-75867240D01*
X189530524Y-75868444D01*
X189530524Y-75868444D01*
G37*
D14*
X189043520Y-76742240D03*
D11*
G36*
X193592264Y-75868444D02*
G01*
X193616533Y-75872044D01*
X193640331Y-75878005D01*
X193663431Y-75886270D01*
X193685609Y-75896760D01*
X193706653Y-75909373D01*
X193726358Y-75923987D01*
X193744537Y-75940463D01*
X193761013Y-75958642D01*
X193775627Y-75978347D01*
X193788240Y-75999391D01*
X193798730Y-76021569D01*
X193806995Y-76044669D01*
X193812956Y-76068467D01*
X193816556Y-76092736D01*
X193817760Y-76117240D01*
X193817760Y-77367240D01*
X193816556Y-77391744D01*
X193812956Y-77416013D01*
X193806995Y-77439811D01*
X193798730Y-77462911D01*
X193788240Y-77485089D01*
X193775627Y-77506133D01*
X193761013Y-77525838D01*
X193744537Y-77544017D01*
X193726358Y-77560493D01*
X193706653Y-77575107D01*
X193685609Y-77587720D01*
X193663431Y-77598210D01*
X193640331Y-77606475D01*
X193616533Y-77612436D01*
X193592264Y-77616036D01*
X193567760Y-77617240D01*
X192642760Y-77617240D01*
X192618256Y-77616036D01*
X192593987Y-77612436D01*
X192570189Y-77606475D01*
X192547089Y-77598210D01*
X192524911Y-77587720D01*
X192503867Y-77575107D01*
X192484162Y-77560493D01*
X192465983Y-77544017D01*
X192449507Y-77525838D01*
X192434893Y-77506133D01*
X192422280Y-77485089D01*
X192411790Y-77462911D01*
X192403525Y-77439811D01*
X192397564Y-77416013D01*
X192393964Y-77391744D01*
X192392760Y-77367240D01*
X192392760Y-76117240D01*
X192393964Y-76092736D01*
X192397564Y-76068467D01*
X192403525Y-76044669D01*
X192411790Y-76021569D01*
X192422280Y-75999391D01*
X192434893Y-75978347D01*
X192449507Y-75958642D01*
X192465983Y-75940463D01*
X192484162Y-75923987D01*
X192503867Y-75909373D01*
X192524911Y-75896760D01*
X192547089Y-75886270D01*
X192570189Y-75878005D01*
X192593987Y-75872044D01*
X192618256Y-75868444D01*
X192642760Y-75867240D01*
X193567760Y-75867240D01*
X193592264Y-75868444D01*
X193592264Y-75868444D01*
G37*
D14*
X193105260Y-76742240D03*
D11*
G36*
X196567264Y-75868444D02*
G01*
X196591533Y-75872044D01*
X196615331Y-75878005D01*
X196638431Y-75886270D01*
X196660609Y-75896760D01*
X196681653Y-75909373D01*
X196701358Y-75923987D01*
X196719537Y-75940463D01*
X196736013Y-75958642D01*
X196750627Y-75978347D01*
X196763240Y-75999391D01*
X196773730Y-76021569D01*
X196781995Y-76044669D01*
X196787956Y-76068467D01*
X196791556Y-76092736D01*
X196792760Y-76117240D01*
X196792760Y-77367240D01*
X196791556Y-77391744D01*
X196787956Y-77416013D01*
X196781995Y-77439811D01*
X196773730Y-77462911D01*
X196763240Y-77485089D01*
X196750627Y-77506133D01*
X196736013Y-77525838D01*
X196719537Y-77544017D01*
X196701358Y-77560493D01*
X196681653Y-77575107D01*
X196660609Y-77587720D01*
X196638431Y-77598210D01*
X196615331Y-77606475D01*
X196591533Y-77612436D01*
X196567264Y-77616036D01*
X196542760Y-77617240D01*
X195617760Y-77617240D01*
X195593256Y-77616036D01*
X195568987Y-77612436D01*
X195545189Y-77606475D01*
X195522089Y-77598210D01*
X195499911Y-77587720D01*
X195478867Y-77575107D01*
X195459162Y-77560493D01*
X195440983Y-77544017D01*
X195424507Y-77525838D01*
X195409893Y-77506133D01*
X195397280Y-77485089D01*
X195386790Y-77462911D01*
X195378525Y-77439811D01*
X195372564Y-77416013D01*
X195368964Y-77391744D01*
X195367760Y-77367240D01*
X195367760Y-76117240D01*
X195368964Y-76092736D01*
X195372564Y-76068467D01*
X195378525Y-76044669D01*
X195386790Y-76021569D01*
X195397280Y-75999391D01*
X195409893Y-75978347D01*
X195424507Y-75958642D01*
X195440983Y-75940463D01*
X195459162Y-75923987D01*
X195478867Y-75909373D01*
X195499911Y-75896760D01*
X195522089Y-75886270D01*
X195545189Y-75878005D01*
X195568987Y-75872044D01*
X195593256Y-75868444D01*
X195617760Y-75867240D01*
X196542760Y-75867240D01*
X196567264Y-75868444D01*
X196567264Y-75868444D01*
G37*
D14*
X196080260Y-76742240D03*
D11*
G36*
X200866824Y-75846204D02*
G01*
X200891093Y-75849804D01*
X200914891Y-75855765D01*
X200937991Y-75864030D01*
X200960169Y-75874520D01*
X200981213Y-75887133D01*
X201000918Y-75901747D01*
X201019097Y-75918223D01*
X201035573Y-75936402D01*
X201050187Y-75956107D01*
X201062800Y-75977151D01*
X201073290Y-75999329D01*
X201081555Y-76022429D01*
X201087516Y-76046227D01*
X201091116Y-76070496D01*
X201092320Y-76095000D01*
X201092320Y-77345000D01*
X201091116Y-77369504D01*
X201087516Y-77393773D01*
X201081555Y-77417571D01*
X201073290Y-77440671D01*
X201062800Y-77462849D01*
X201050187Y-77483893D01*
X201035573Y-77503598D01*
X201019097Y-77521777D01*
X201000918Y-77538253D01*
X200981213Y-77552867D01*
X200960169Y-77565480D01*
X200937991Y-77575970D01*
X200914891Y-77584235D01*
X200891093Y-77590196D01*
X200866824Y-77593796D01*
X200842320Y-77595000D01*
X199917320Y-77595000D01*
X199892816Y-77593796D01*
X199868547Y-77590196D01*
X199844749Y-77584235D01*
X199821649Y-77575970D01*
X199799471Y-77565480D01*
X199778427Y-77552867D01*
X199758722Y-77538253D01*
X199740543Y-77521777D01*
X199724067Y-77503598D01*
X199709453Y-77483893D01*
X199696840Y-77462849D01*
X199686350Y-77440671D01*
X199678085Y-77417571D01*
X199672124Y-77393773D01*
X199668524Y-77369504D01*
X199667320Y-77345000D01*
X199667320Y-76095000D01*
X199668524Y-76070496D01*
X199672124Y-76046227D01*
X199678085Y-76022429D01*
X199686350Y-75999329D01*
X199696840Y-75977151D01*
X199709453Y-75956107D01*
X199724067Y-75936402D01*
X199740543Y-75918223D01*
X199758722Y-75901747D01*
X199778427Y-75887133D01*
X199799471Y-75874520D01*
X199821649Y-75864030D01*
X199844749Y-75855765D01*
X199868547Y-75849804D01*
X199892816Y-75846204D01*
X199917320Y-75845000D01*
X200842320Y-75845000D01*
X200866824Y-75846204D01*
X200866824Y-75846204D01*
G37*
D14*
X200379820Y-76720000D03*
D11*
G36*
X203841824Y-75846204D02*
G01*
X203866093Y-75849804D01*
X203889891Y-75855765D01*
X203912991Y-75864030D01*
X203935169Y-75874520D01*
X203956213Y-75887133D01*
X203975918Y-75901747D01*
X203994097Y-75918223D01*
X204010573Y-75936402D01*
X204025187Y-75956107D01*
X204037800Y-75977151D01*
X204048290Y-75999329D01*
X204056555Y-76022429D01*
X204062516Y-76046227D01*
X204066116Y-76070496D01*
X204067320Y-76095000D01*
X204067320Y-77345000D01*
X204066116Y-77369504D01*
X204062516Y-77393773D01*
X204056555Y-77417571D01*
X204048290Y-77440671D01*
X204037800Y-77462849D01*
X204025187Y-77483893D01*
X204010573Y-77503598D01*
X203994097Y-77521777D01*
X203975918Y-77538253D01*
X203956213Y-77552867D01*
X203935169Y-77565480D01*
X203912991Y-77575970D01*
X203889891Y-77584235D01*
X203866093Y-77590196D01*
X203841824Y-77593796D01*
X203817320Y-77595000D01*
X202892320Y-77595000D01*
X202867816Y-77593796D01*
X202843547Y-77590196D01*
X202819749Y-77584235D01*
X202796649Y-77575970D01*
X202774471Y-77565480D01*
X202753427Y-77552867D01*
X202733722Y-77538253D01*
X202715543Y-77521777D01*
X202699067Y-77503598D01*
X202684453Y-77483893D01*
X202671840Y-77462849D01*
X202661350Y-77440671D01*
X202653085Y-77417571D01*
X202647124Y-77393773D01*
X202643524Y-77369504D01*
X202642320Y-77345000D01*
X202642320Y-76095000D01*
X202643524Y-76070496D01*
X202647124Y-76046227D01*
X202653085Y-76022429D01*
X202661350Y-75999329D01*
X202671840Y-75977151D01*
X202684453Y-75956107D01*
X202699067Y-75936402D01*
X202715543Y-75918223D01*
X202733722Y-75901747D01*
X202753427Y-75887133D01*
X202774471Y-75874520D01*
X202796649Y-75864030D01*
X202819749Y-75855765D01*
X202843547Y-75849804D01*
X202867816Y-75846204D01*
X202892320Y-75845000D01*
X203817320Y-75845000D01*
X203841824Y-75846204D01*
X203841824Y-75846204D01*
G37*
D14*
X203354820Y-76720000D03*
D11*
G36*
X129206785Y-73700884D02*
G01*
X129231053Y-73704484D01*
X129254852Y-73710445D01*
X129277951Y-73718710D01*
X129300130Y-73729200D01*
X129321173Y-73741812D01*
X129340879Y-73756427D01*
X129359057Y-73772903D01*
X129375533Y-73791081D01*
X129390148Y-73810787D01*
X129402760Y-73831830D01*
X129413250Y-73854009D01*
X129421515Y-73877108D01*
X129427476Y-73900907D01*
X129431076Y-73925175D01*
X129432280Y-73949679D01*
X129432280Y-74599681D01*
X129431076Y-74624185D01*
X129427476Y-74648453D01*
X129421515Y-74672252D01*
X129413250Y-74695351D01*
X129402760Y-74717530D01*
X129390148Y-74738573D01*
X129375533Y-74758279D01*
X129359057Y-74776457D01*
X129340879Y-74792933D01*
X129321173Y-74807548D01*
X129300130Y-74820160D01*
X129277951Y-74830650D01*
X129254852Y-74838915D01*
X129231053Y-74844876D01*
X129206785Y-74848476D01*
X129182281Y-74849680D01*
X128282279Y-74849680D01*
X128257775Y-74848476D01*
X128233507Y-74844876D01*
X128209708Y-74838915D01*
X128186609Y-74830650D01*
X128164430Y-74820160D01*
X128143387Y-74807548D01*
X128123681Y-74792933D01*
X128105503Y-74776457D01*
X128089027Y-74758279D01*
X128074412Y-74738573D01*
X128061800Y-74717530D01*
X128051310Y-74695351D01*
X128043045Y-74672252D01*
X128037084Y-74648453D01*
X128033484Y-74624185D01*
X128032280Y-74599681D01*
X128032280Y-73949679D01*
X128033484Y-73925175D01*
X128037084Y-73900907D01*
X128043045Y-73877108D01*
X128051310Y-73854009D01*
X128061800Y-73831830D01*
X128074412Y-73810787D01*
X128089027Y-73791081D01*
X128105503Y-73772903D01*
X128123681Y-73756427D01*
X128143387Y-73741812D01*
X128164430Y-73729200D01*
X128186609Y-73718710D01*
X128209708Y-73710445D01*
X128233507Y-73704484D01*
X128257775Y-73700884D01*
X128282279Y-73699680D01*
X129182281Y-73699680D01*
X129206785Y-73700884D01*
X129206785Y-73700884D01*
G37*
D13*
X128732280Y-74274680D03*
D11*
G36*
X129206785Y-75750884D02*
G01*
X129231053Y-75754484D01*
X129254852Y-75760445D01*
X129277951Y-75768710D01*
X129300130Y-75779200D01*
X129321173Y-75791812D01*
X129340879Y-75806427D01*
X129359057Y-75822903D01*
X129375533Y-75841081D01*
X129390148Y-75860787D01*
X129402760Y-75881830D01*
X129413250Y-75904009D01*
X129421515Y-75927108D01*
X129427476Y-75950907D01*
X129431076Y-75975175D01*
X129432280Y-75999679D01*
X129432280Y-76649681D01*
X129431076Y-76674185D01*
X129427476Y-76698453D01*
X129421515Y-76722252D01*
X129413250Y-76745351D01*
X129402760Y-76767530D01*
X129390148Y-76788573D01*
X129375533Y-76808279D01*
X129359057Y-76826457D01*
X129340879Y-76842933D01*
X129321173Y-76857548D01*
X129300130Y-76870160D01*
X129277951Y-76880650D01*
X129254852Y-76888915D01*
X129231053Y-76894876D01*
X129206785Y-76898476D01*
X129182281Y-76899680D01*
X128282279Y-76899680D01*
X128257775Y-76898476D01*
X128233507Y-76894876D01*
X128209708Y-76888915D01*
X128186609Y-76880650D01*
X128164430Y-76870160D01*
X128143387Y-76857548D01*
X128123681Y-76842933D01*
X128105503Y-76826457D01*
X128089027Y-76808279D01*
X128074412Y-76788573D01*
X128061800Y-76767530D01*
X128051310Y-76745351D01*
X128043045Y-76722252D01*
X128037084Y-76698453D01*
X128033484Y-76674185D01*
X128032280Y-76649681D01*
X128032280Y-75999679D01*
X128033484Y-75975175D01*
X128037084Y-75950907D01*
X128043045Y-75927108D01*
X128051310Y-75904009D01*
X128061800Y-75881830D01*
X128074412Y-75860787D01*
X128089027Y-75841081D01*
X128105503Y-75822903D01*
X128123681Y-75806427D01*
X128143387Y-75791812D01*
X128164430Y-75779200D01*
X128186609Y-75768710D01*
X128209708Y-75760445D01*
X128233507Y-75754484D01*
X128257775Y-75750884D01*
X128282279Y-75749680D01*
X129182281Y-75749680D01*
X129206785Y-75750884D01*
X129206785Y-75750884D01*
G37*
D13*
X128732280Y-76324680D03*
D11*
G36*
X127274505Y-90301204D02*
G01*
X127298773Y-90304804D01*
X127322572Y-90310765D01*
X127345671Y-90319030D01*
X127367850Y-90329520D01*
X127388893Y-90342132D01*
X127408599Y-90356747D01*
X127426777Y-90373223D01*
X127443253Y-90391401D01*
X127457868Y-90411107D01*
X127470480Y-90432150D01*
X127480970Y-90454329D01*
X127489235Y-90477428D01*
X127495196Y-90501227D01*
X127498796Y-90525495D01*
X127500000Y-90549999D01*
X127500000Y-91200001D01*
X127498796Y-91224505D01*
X127495196Y-91248773D01*
X127489235Y-91272572D01*
X127480970Y-91295671D01*
X127470480Y-91317850D01*
X127457868Y-91338893D01*
X127443253Y-91358599D01*
X127426777Y-91376777D01*
X127408599Y-91393253D01*
X127388893Y-91407868D01*
X127367850Y-91420480D01*
X127345671Y-91430970D01*
X127322572Y-91439235D01*
X127298773Y-91445196D01*
X127274505Y-91448796D01*
X127250001Y-91450000D01*
X126349999Y-91450000D01*
X126325495Y-91448796D01*
X126301227Y-91445196D01*
X126277428Y-91439235D01*
X126254329Y-91430970D01*
X126232150Y-91420480D01*
X126211107Y-91407868D01*
X126191401Y-91393253D01*
X126173223Y-91376777D01*
X126156747Y-91358599D01*
X126142132Y-91338893D01*
X126129520Y-91317850D01*
X126119030Y-91295671D01*
X126110765Y-91272572D01*
X126104804Y-91248773D01*
X126101204Y-91224505D01*
X126100000Y-91200001D01*
X126100000Y-90549999D01*
X126101204Y-90525495D01*
X126104804Y-90501227D01*
X126110765Y-90477428D01*
X126119030Y-90454329D01*
X126129520Y-90432150D01*
X126142132Y-90411107D01*
X126156747Y-90391401D01*
X126173223Y-90373223D01*
X126191401Y-90356747D01*
X126211107Y-90342132D01*
X126232150Y-90329520D01*
X126254329Y-90319030D01*
X126277428Y-90310765D01*
X126301227Y-90304804D01*
X126325495Y-90301204D01*
X126349999Y-90300000D01*
X127250001Y-90300000D01*
X127274505Y-90301204D01*
X127274505Y-90301204D01*
G37*
D13*
X126800000Y-90875000D03*
D11*
G36*
X127274505Y-92351204D02*
G01*
X127298773Y-92354804D01*
X127322572Y-92360765D01*
X127345671Y-92369030D01*
X127367850Y-92379520D01*
X127388893Y-92392132D01*
X127408599Y-92406747D01*
X127426777Y-92423223D01*
X127443253Y-92441401D01*
X127457868Y-92461107D01*
X127470480Y-92482150D01*
X127480970Y-92504329D01*
X127489235Y-92527428D01*
X127495196Y-92551227D01*
X127498796Y-92575495D01*
X127500000Y-92599999D01*
X127500000Y-93250001D01*
X127498796Y-93274505D01*
X127495196Y-93298773D01*
X127489235Y-93322572D01*
X127480970Y-93345671D01*
X127470480Y-93367850D01*
X127457868Y-93388893D01*
X127443253Y-93408599D01*
X127426777Y-93426777D01*
X127408599Y-93443253D01*
X127388893Y-93457868D01*
X127367850Y-93470480D01*
X127345671Y-93480970D01*
X127322572Y-93489235D01*
X127298773Y-93495196D01*
X127274505Y-93498796D01*
X127250001Y-93500000D01*
X126349999Y-93500000D01*
X126325495Y-93498796D01*
X126301227Y-93495196D01*
X126277428Y-93489235D01*
X126254329Y-93480970D01*
X126232150Y-93470480D01*
X126211107Y-93457868D01*
X126191401Y-93443253D01*
X126173223Y-93426777D01*
X126156747Y-93408599D01*
X126142132Y-93388893D01*
X126129520Y-93367850D01*
X126119030Y-93345671D01*
X126110765Y-93322572D01*
X126104804Y-93298773D01*
X126101204Y-93274505D01*
X126100000Y-93250001D01*
X126100000Y-92599999D01*
X126101204Y-92575495D01*
X126104804Y-92551227D01*
X126110765Y-92527428D01*
X126119030Y-92504329D01*
X126129520Y-92482150D01*
X126142132Y-92461107D01*
X126156747Y-92441401D01*
X126173223Y-92423223D01*
X126191401Y-92406747D01*
X126211107Y-92392132D01*
X126232150Y-92379520D01*
X126254329Y-92369030D01*
X126277428Y-92360765D01*
X126301227Y-92354804D01*
X126325495Y-92351204D01*
X126349999Y-92350000D01*
X127250001Y-92350000D01*
X127274505Y-92351204D01*
X127274505Y-92351204D01*
G37*
D13*
X126800000Y-92925000D03*
D11*
G36*
X152474505Y-107951204D02*
G01*
X152498773Y-107954804D01*
X152522572Y-107960765D01*
X152545671Y-107969030D01*
X152567850Y-107979520D01*
X152588893Y-107992132D01*
X152608599Y-108006747D01*
X152626777Y-108023223D01*
X152643253Y-108041401D01*
X152657868Y-108061107D01*
X152670480Y-108082150D01*
X152680970Y-108104329D01*
X152689235Y-108127428D01*
X152695196Y-108151227D01*
X152698796Y-108175495D01*
X152700000Y-108199999D01*
X152700000Y-108850001D01*
X152698796Y-108874505D01*
X152695196Y-108898773D01*
X152689235Y-108922572D01*
X152680970Y-108945671D01*
X152670480Y-108967850D01*
X152657868Y-108988893D01*
X152643253Y-109008599D01*
X152626777Y-109026777D01*
X152608599Y-109043253D01*
X152588893Y-109057868D01*
X152567850Y-109070480D01*
X152545671Y-109080970D01*
X152522572Y-109089235D01*
X152498773Y-109095196D01*
X152474505Y-109098796D01*
X152450001Y-109100000D01*
X151549999Y-109100000D01*
X151525495Y-109098796D01*
X151501227Y-109095196D01*
X151477428Y-109089235D01*
X151454329Y-109080970D01*
X151432150Y-109070480D01*
X151411107Y-109057868D01*
X151391401Y-109043253D01*
X151373223Y-109026777D01*
X151356747Y-109008599D01*
X151342132Y-108988893D01*
X151329520Y-108967850D01*
X151319030Y-108945671D01*
X151310765Y-108922572D01*
X151304804Y-108898773D01*
X151301204Y-108874505D01*
X151300000Y-108850001D01*
X151300000Y-108199999D01*
X151301204Y-108175495D01*
X151304804Y-108151227D01*
X151310765Y-108127428D01*
X151319030Y-108104329D01*
X151329520Y-108082150D01*
X151342132Y-108061107D01*
X151356747Y-108041401D01*
X151373223Y-108023223D01*
X151391401Y-108006747D01*
X151411107Y-107992132D01*
X151432150Y-107979520D01*
X151454329Y-107969030D01*
X151477428Y-107960765D01*
X151501227Y-107954804D01*
X151525495Y-107951204D01*
X151549999Y-107950000D01*
X152450001Y-107950000D01*
X152474505Y-107951204D01*
X152474505Y-107951204D01*
G37*
D13*
X152000000Y-108525000D03*
D11*
G36*
X152474505Y-105901204D02*
G01*
X152498773Y-105904804D01*
X152522572Y-105910765D01*
X152545671Y-105919030D01*
X152567850Y-105929520D01*
X152588893Y-105942132D01*
X152608599Y-105956747D01*
X152626777Y-105973223D01*
X152643253Y-105991401D01*
X152657868Y-106011107D01*
X152670480Y-106032150D01*
X152680970Y-106054329D01*
X152689235Y-106077428D01*
X152695196Y-106101227D01*
X152698796Y-106125495D01*
X152700000Y-106149999D01*
X152700000Y-106800001D01*
X152698796Y-106824505D01*
X152695196Y-106848773D01*
X152689235Y-106872572D01*
X152680970Y-106895671D01*
X152670480Y-106917850D01*
X152657868Y-106938893D01*
X152643253Y-106958599D01*
X152626777Y-106976777D01*
X152608599Y-106993253D01*
X152588893Y-107007868D01*
X152567850Y-107020480D01*
X152545671Y-107030970D01*
X152522572Y-107039235D01*
X152498773Y-107045196D01*
X152474505Y-107048796D01*
X152450001Y-107050000D01*
X151549999Y-107050000D01*
X151525495Y-107048796D01*
X151501227Y-107045196D01*
X151477428Y-107039235D01*
X151454329Y-107030970D01*
X151432150Y-107020480D01*
X151411107Y-107007868D01*
X151391401Y-106993253D01*
X151373223Y-106976777D01*
X151356747Y-106958599D01*
X151342132Y-106938893D01*
X151329520Y-106917850D01*
X151319030Y-106895671D01*
X151310765Y-106872572D01*
X151304804Y-106848773D01*
X151301204Y-106824505D01*
X151300000Y-106800001D01*
X151300000Y-106149999D01*
X151301204Y-106125495D01*
X151304804Y-106101227D01*
X151310765Y-106077428D01*
X151319030Y-106054329D01*
X151329520Y-106032150D01*
X151342132Y-106011107D01*
X151356747Y-105991401D01*
X151373223Y-105973223D01*
X151391401Y-105956747D01*
X151411107Y-105942132D01*
X151432150Y-105929520D01*
X151454329Y-105919030D01*
X151477428Y-105910765D01*
X151501227Y-105904804D01*
X151525495Y-105901204D01*
X151549999Y-105900000D01*
X152450001Y-105900000D01*
X152474505Y-105901204D01*
X152474505Y-105901204D01*
G37*
D13*
X152000000Y-106475000D03*
D11*
G36*
X125338985Y-103217684D02*
G01*
X125363253Y-103221284D01*
X125387052Y-103227245D01*
X125410151Y-103235510D01*
X125432330Y-103246000D01*
X125453373Y-103258612D01*
X125473079Y-103273227D01*
X125491257Y-103289703D01*
X125507733Y-103307881D01*
X125522348Y-103327587D01*
X125534960Y-103348630D01*
X125545450Y-103370809D01*
X125553715Y-103393908D01*
X125559676Y-103417707D01*
X125563276Y-103441975D01*
X125564480Y-103466479D01*
X125564480Y-104366481D01*
X125563276Y-104390985D01*
X125559676Y-104415253D01*
X125553715Y-104439052D01*
X125545450Y-104462151D01*
X125534960Y-104484330D01*
X125522348Y-104505373D01*
X125507733Y-104525079D01*
X125491257Y-104543257D01*
X125473079Y-104559733D01*
X125453373Y-104574348D01*
X125432330Y-104586960D01*
X125410151Y-104597450D01*
X125387052Y-104605715D01*
X125363253Y-104611676D01*
X125338985Y-104615276D01*
X125314481Y-104616480D01*
X124664479Y-104616480D01*
X124639975Y-104615276D01*
X124615707Y-104611676D01*
X124591908Y-104605715D01*
X124568809Y-104597450D01*
X124546630Y-104586960D01*
X124525587Y-104574348D01*
X124505881Y-104559733D01*
X124487703Y-104543257D01*
X124471227Y-104525079D01*
X124456612Y-104505373D01*
X124444000Y-104484330D01*
X124433510Y-104462151D01*
X124425245Y-104439052D01*
X124419284Y-104415253D01*
X124415684Y-104390985D01*
X124414480Y-104366481D01*
X124414480Y-103466479D01*
X124415684Y-103441975D01*
X124419284Y-103417707D01*
X124425245Y-103393908D01*
X124433510Y-103370809D01*
X124444000Y-103348630D01*
X124456612Y-103327587D01*
X124471227Y-103307881D01*
X124487703Y-103289703D01*
X124505881Y-103273227D01*
X124525587Y-103258612D01*
X124546630Y-103246000D01*
X124568809Y-103235510D01*
X124591908Y-103227245D01*
X124615707Y-103221284D01*
X124639975Y-103217684D01*
X124664479Y-103216480D01*
X125314481Y-103216480D01*
X125338985Y-103217684D01*
X125338985Y-103217684D01*
G37*
D13*
X124989480Y-103916480D03*
D11*
G36*
X127388985Y-103217684D02*
G01*
X127413253Y-103221284D01*
X127437052Y-103227245D01*
X127460151Y-103235510D01*
X127482330Y-103246000D01*
X127503373Y-103258612D01*
X127523079Y-103273227D01*
X127541257Y-103289703D01*
X127557733Y-103307881D01*
X127572348Y-103327587D01*
X127584960Y-103348630D01*
X127595450Y-103370809D01*
X127603715Y-103393908D01*
X127609676Y-103417707D01*
X127613276Y-103441975D01*
X127614480Y-103466479D01*
X127614480Y-104366481D01*
X127613276Y-104390985D01*
X127609676Y-104415253D01*
X127603715Y-104439052D01*
X127595450Y-104462151D01*
X127584960Y-104484330D01*
X127572348Y-104505373D01*
X127557733Y-104525079D01*
X127541257Y-104543257D01*
X127523079Y-104559733D01*
X127503373Y-104574348D01*
X127482330Y-104586960D01*
X127460151Y-104597450D01*
X127437052Y-104605715D01*
X127413253Y-104611676D01*
X127388985Y-104615276D01*
X127364481Y-104616480D01*
X126714479Y-104616480D01*
X126689975Y-104615276D01*
X126665707Y-104611676D01*
X126641908Y-104605715D01*
X126618809Y-104597450D01*
X126596630Y-104586960D01*
X126575587Y-104574348D01*
X126555881Y-104559733D01*
X126537703Y-104543257D01*
X126521227Y-104525079D01*
X126506612Y-104505373D01*
X126494000Y-104484330D01*
X126483510Y-104462151D01*
X126475245Y-104439052D01*
X126469284Y-104415253D01*
X126465684Y-104390985D01*
X126464480Y-104366481D01*
X126464480Y-103466479D01*
X126465684Y-103441975D01*
X126469284Y-103417707D01*
X126475245Y-103393908D01*
X126483510Y-103370809D01*
X126494000Y-103348630D01*
X126506612Y-103327587D01*
X126521227Y-103307881D01*
X126537703Y-103289703D01*
X126555881Y-103273227D01*
X126575587Y-103258612D01*
X126596630Y-103246000D01*
X126618809Y-103235510D01*
X126641908Y-103227245D01*
X126665707Y-103221284D01*
X126689975Y-103217684D01*
X126714479Y-103216480D01*
X127364481Y-103216480D01*
X127388985Y-103217684D01*
X127388985Y-103217684D01*
G37*
D13*
X127039480Y-103916480D03*
D11*
G36*
X125375705Y-98320564D02*
G01*
X125399973Y-98324164D01*
X125423772Y-98330125D01*
X125446871Y-98338390D01*
X125469050Y-98348880D01*
X125490093Y-98361492D01*
X125509799Y-98376107D01*
X125527977Y-98392583D01*
X125544453Y-98410761D01*
X125559068Y-98430467D01*
X125571680Y-98451510D01*
X125582170Y-98473689D01*
X125590435Y-98496788D01*
X125596396Y-98520587D01*
X125599996Y-98544855D01*
X125601200Y-98569359D01*
X125601200Y-99469361D01*
X125599996Y-99493865D01*
X125596396Y-99518133D01*
X125590435Y-99541932D01*
X125582170Y-99565031D01*
X125571680Y-99587210D01*
X125559068Y-99608253D01*
X125544453Y-99627959D01*
X125527977Y-99646137D01*
X125509799Y-99662613D01*
X125490093Y-99677228D01*
X125469050Y-99689840D01*
X125446871Y-99700330D01*
X125423772Y-99708595D01*
X125399973Y-99714556D01*
X125375705Y-99718156D01*
X125351201Y-99719360D01*
X124701199Y-99719360D01*
X124676695Y-99718156D01*
X124652427Y-99714556D01*
X124628628Y-99708595D01*
X124605529Y-99700330D01*
X124583350Y-99689840D01*
X124562307Y-99677228D01*
X124542601Y-99662613D01*
X124524423Y-99646137D01*
X124507947Y-99627959D01*
X124493332Y-99608253D01*
X124480720Y-99587210D01*
X124470230Y-99565031D01*
X124461965Y-99541932D01*
X124456004Y-99518133D01*
X124452404Y-99493865D01*
X124451200Y-99469361D01*
X124451200Y-98569359D01*
X124452404Y-98544855D01*
X124456004Y-98520587D01*
X124461965Y-98496788D01*
X124470230Y-98473689D01*
X124480720Y-98451510D01*
X124493332Y-98430467D01*
X124507947Y-98410761D01*
X124524423Y-98392583D01*
X124542601Y-98376107D01*
X124562307Y-98361492D01*
X124583350Y-98348880D01*
X124605529Y-98338390D01*
X124628628Y-98330125D01*
X124652427Y-98324164D01*
X124676695Y-98320564D01*
X124701199Y-98319360D01*
X125351201Y-98319360D01*
X125375705Y-98320564D01*
X125375705Y-98320564D01*
G37*
D13*
X125026200Y-99019360D03*
D11*
G36*
X127425705Y-98320564D02*
G01*
X127449973Y-98324164D01*
X127473772Y-98330125D01*
X127496871Y-98338390D01*
X127519050Y-98348880D01*
X127540093Y-98361492D01*
X127559799Y-98376107D01*
X127577977Y-98392583D01*
X127594453Y-98410761D01*
X127609068Y-98430467D01*
X127621680Y-98451510D01*
X127632170Y-98473689D01*
X127640435Y-98496788D01*
X127646396Y-98520587D01*
X127649996Y-98544855D01*
X127651200Y-98569359D01*
X127651200Y-99469361D01*
X127649996Y-99493865D01*
X127646396Y-99518133D01*
X127640435Y-99541932D01*
X127632170Y-99565031D01*
X127621680Y-99587210D01*
X127609068Y-99608253D01*
X127594453Y-99627959D01*
X127577977Y-99646137D01*
X127559799Y-99662613D01*
X127540093Y-99677228D01*
X127519050Y-99689840D01*
X127496871Y-99700330D01*
X127473772Y-99708595D01*
X127449973Y-99714556D01*
X127425705Y-99718156D01*
X127401201Y-99719360D01*
X126751199Y-99719360D01*
X126726695Y-99718156D01*
X126702427Y-99714556D01*
X126678628Y-99708595D01*
X126655529Y-99700330D01*
X126633350Y-99689840D01*
X126612307Y-99677228D01*
X126592601Y-99662613D01*
X126574423Y-99646137D01*
X126557947Y-99627959D01*
X126543332Y-99608253D01*
X126530720Y-99587210D01*
X126520230Y-99565031D01*
X126511965Y-99541932D01*
X126506004Y-99518133D01*
X126502404Y-99493865D01*
X126501200Y-99469361D01*
X126501200Y-98569359D01*
X126502404Y-98544855D01*
X126506004Y-98520587D01*
X126511965Y-98496788D01*
X126520230Y-98473689D01*
X126530720Y-98451510D01*
X126543332Y-98430467D01*
X126557947Y-98410761D01*
X126574423Y-98392583D01*
X126592601Y-98376107D01*
X126612307Y-98361492D01*
X126633350Y-98348880D01*
X126655529Y-98338390D01*
X126678628Y-98330125D01*
X126702427Y-98324164D01*
X126726695Y-98320564D01*
X126751199Y-98319360D01*
X127401201Y-98319360D01*
X127425705Y-98320564D01*
X127425705Y-98320564D01*
G37*
D13*
X127076200Y-99019360D03*
M02*
