G04 #@! TF.GenerationSoftware,KiCad,Pcbnew,(5.1.2)-1*
G04 #@! TF.CreationDate,2022-03-06T16:37:34-05:00*
G04 #@! TF.ProjectId,telemetry_transmitter,74656c65-6d65-4747-9279-5f7472616e73,rev?*
G04 #@! TF.SameCoordinates,Original*
G04 #@! TF.FileFunction,Legend,Bot*
G04 #@! TF.FilePolarity,Positive*
%FSLAX46Y46*%
G04 Gerber Fmt 4.6, Leading zero omitted, Abs format (unit mm)*
G04 Created by KiCad (PCBNEW (5.1.2)-1) date 2022-03-06 16:37:34*
%MOMM*%
%LPD*%
G04 APERTURE LIST*
%ADD10C,0.120000*%
%ADD11C,0.150000*%
%ADD12O,1.802000X1.802000*%
%ADD13R,1.802000X1.802000*%
%ADD14C,0.500000*%
%ADD15C,0.100000*%
%ADD16C,2.602000*%
%ADD17C,1.252000*%
%ADD18C,0.702000*%
%ADD19C,5.702000*%
%ADD20C,3.102000*%
%ADD21C,1.602000*%
%ADD22R,1.662000X0.752000*%
%ADD23R,0.902000X2.002000*%
%ADD24R,2.002000X0.902000*%
%ADD25C,2.702000*%
%ADD26C,2.302000*%
%ADD27C,1.302000*%
%ADD28R,1.302000X1.302000*%
%ADD29C,1.527000*%
%ADD30C,1.702000*%
%ADD31R,1.702000X1.702000*%
G04 APERTURE END LIST*
D10*
X172300000Y-72000000D02*
X173700000Y-72000000D01*
X174400000Y-71300000D02*
X174400000Y-70700000D01*
X173700000Y-70000000D02*
X172300000Y-70000000D01*
X171600000Y-70700000D02*
X171600000Y-71300000D01*
X171600000Y-71300000D02*
G75*
G03X172300000Y-72000000I700000J0D01*
G01*
X172300000Y-70000000D02*
G75*
G03X171600000Y-70700000I0J-700000D01*
G01*
X174400000Y-70700000D02*
G75*
G03X173700000Y-70000000I-700000J0D01*
G01*
X173700000Y-72000000D02*
G75*
G03X174400000Y-71300000I0J700000D01*
G01*
X132660320Y-87958452D02*
X132660320Y-87435948D01*
X134080320Y-87958452D02*
X134080320Y-87435948D01*
X121000000Y-80060000D02*
X117550000Y-80060000D01*
X121000000Y-80060000D02*
X122950000Y-80060000D01*
X121000000Y-74940000D02*
X119050000Y-74940000D01*
X121000000Y-74940000D02*
X122950000Y-74940000D01*
X118290000Y-95213748D02*
X118290000Y-95736252D01*
X119710000Y-95213748D02*
X119710000Y-95736252D01*
X126263748Y-97210000D02*
X126786252Y-97210000D01*
X126263748Y-95790000D02*
X126786252Y-95790000D01*
X196500000Y-75060000D02*
X193050000Y-75060000D01*
X196500000Y-75060000D02*
X198450000Y-75060000D01*
X196500000Y-69940000D02*
X194550000Y-69940000D01*
X196500000Y-69940000D02*
X198450000Y-69940000D01*
X124573440Y-111329240D02*
X122123440Y-111329240D01*
X122773440Y-108109240D02*
X124573440Y-108109240D01*
X140327748Y-86259600D02*
X140850252Y-86259600D01*
X140327748Y-87679600D02*
X140850252Y-87679600D01*
X161290000Y-78261252D02*
X161290000Y-77738748D01*
X162710000Y-78261252D02*
X162710000Y-77738748D01*
X143290000Y-73261252D02*
X143290000Y-72738748D01*
X144710000Y-73261252D02*
X144710000Y-72738748D01*
X129608212Y-89406800D02*
X129085708Y-89406800D01*
X129608212Y-87986800D02*
X129085708Y-87986800D01*
X140261252Y-74710000D02*
X139738748Y-74710000D01*
X140261252Y-73290000D02*
X139738748Y-73290000D01*
X117580000Y-93760000D02*
X116650000Y-93760000D01*
X114420000Y-93760000D02*
X115350000Y-93760000D01*
X114420000Y-93760000D02*
X114420000Y-90600000D01*
X117580000Y-93760000D02*
X117580000Y-92300000D01*
X143760000Y-79024360D02*
X142300000Y-79024360D01*
X143760000Y-82184360D02*
X140600000Y-82184360D01*
X143760000Y-82184360D02*
X143760000Y-81254360D01*
X143760000Y-79024360D02*
X143760000Y-79954360D01*
X155760000Y-70420000D02*
X154300000Y-70420000D01*
X155760000Y-73580000D02*
X152600000Y-73580000D01*
X155760000Y-73580000D02*
X155760000Y-72650000D01*
X155760000Y-70420000D02*
X155760000Y-71350000D01*
X137015760Y-79974320D02*
X135555760Y-79974320D01*
X137015760Y-83134320D02*
X133855760Y-83134320D01*
X137015760Y-83134320D02*
X137015760Y-82204320D01*
X137015760Y-79974320D02*
X137015760Y-80904320D01*
X149760000Y-71420000D02*
X148300000Y-71420000D01*
X149760000Y-74580000D02*
X146600000Y-74580000D01*
X149760000Y-74580000D02*
X149760000Y-73650000D01*
X149760000Y-71420000D02*
X149760000Y-72350000D01*
X115500000Y-97800000D02*
X115500000Y-99200000D01*
X116200000Y-99900000D02*
X116800000Y-99900000D01*
X117500000Y-99200000D02*
X117500000Y-97800000D01*
X116800000Y-97100000D02*
X116200000Y-97100000D01*
X116200000Y-97100000D02*
G75*
G03X115500000Y-97800000I0J-700000D01*
G01*
X117500000Y-97800000D02*
G75*
G03X116800000Y-97100000I-700000J0D01*
G01*
X116800000Y-99900000D02*
G75*
G03X117500000Y-99200000I0J700000D01*
G01*
X115500000Y-99200000D02*
G75*
G03X116200000Y-99900000I700000J0D01*
G01*
X146975320Y-86607880D02*
X146975320Y-85207880D01*
X146275320Y-84507880D02*
X145675320Y-84507880D01*
X144975320Y-85207880D02*
X144975320Y-86607880D01*
X145675320Y-87307880D02*
X146275320Y-87307880D01*
X146275320Y-87307880D02*
G75*
G03X146975320Y-86607880I0J700000D01*
G01*
X144975320Y-86607880D02*
G75*
G03X145675320Y-87307880I700000J0D01*
G01*
X145675320Y-84507880D02*
G75*
G03X144975320Y-85207880I0J-700000D01*
G01*
X146975320Y-85207880D02*
G75*
G03X146275320Y-84507880I-700000J0D01*
G01*
X188135000Y-73527500D02*
X188135000Y-77587500D01*
X185865000Y-73527500D02*
X188135000Y-73527500D01*
X185865000Y-77587500D02*
X185865000Y-73527500D01*
X128924960Y-109390788D02*
X128924960Y-109913292D01*
X127504960Y-109390788D02*
X127504960Y-109913292D01*
X119520000Y-109373748D02*
X119520000Y-109896252D01*
X118100000Y-109373748D02*
X118100000Y-109896252D01*
X186790000Y-71761252D02*
X186790000Y-71238748D01*
X188210000Y-71761252D02*
X188210000Y-71238748D01*
X189128840Y-75786252D02*
X189128840Y-75263748D01*
X190548840Y-75786252D02*
X190548840Y-75263748D01*
X120763748Y-82290000D02*
X121286252Y-82290000D01*
X120763748Y-83710000D02*
X121286252Y-83710000D01*
D11*
X173833333Y-72252380D02*
X173833333Y-72966666D01*
X173880952Y-73109523D01*
X173976190Y-73204761D01*
X174119047Y-73252380D01*
X174214285Y-73252380D01*
X173357142Y-73252380D02*
X173357142Y-72252380D01*
X172976190Y-72252380D01*
X172880952Y-72300000D01*
X172833333Y-72347619D01*
X172785714Y-72442857D01*
X172785714Y-72585714D01*
X172833333Y-72680952D01*
X172880952Y-72728571D01*
X172976190Y-72776190D01*
X173357142Y-72776190D01*
X172452380Y-72252380D02*
X171833333Y-72252380D01*
X172166666Y-72633333D01*
X172023809Y-72633333D01*
X171928571Y-72680952D01*
X171880952Y-72728571D01*
X171833333Y-72823809D01*
X171833333Y-73061904D01*
X171880952Y-73157142D01*
X171928571Y-73204761D01*
X172023809Y-73252380D01*
X172309523Y-73252380D01*
X172404761Y-73204761D01*
X172452380Y-73157142D01*
X133982697Y-85320020D02*
X134316030Y-84843830D01*
X134554125Y-85320020D02*
X134554125Y-84320020D01*
X134173173Y-84320020D01*
X134077935Y-84367640D01*
X134030316Y-84415259D01*
X133982697Y-84510497D01*
X133982697Y-84653354D01*
X134030316Y-84748592D01*
X134077935Y-84796211D01*
X134173173Y-84843830D01*
X134554125Y-84843830D01*
X133030316Y-85320020D02*
X133601744Y-85320020D01*
X133316030Y-85320020D02*
X133316030Y-84320020D01*
X133411268Y-84462878D01*
X133506506Y-84558116D01*
X133601744Y-84605735D01*
X132696982Y-84320020D02*
X132077935Y-84320020D01*
X132411268Y-84700973D01*
X132268411Y-84700973D01*
X132173173Y-84748592D01*
X132125554Y-84796211D01*
X132077935Y-84891449D01*
X132077935Y-85129544D01*
X132125554Y-85224782D01*
X132173173Y-85272401D01*
X132268411Y-85320020D01*
X132554125Y-85320020D01*
X132649363Y-85272401D01*
X132696982Y-85224782D01*
X121761904Y-80352380D02*
X121761904Y-81161904D01*
X121714285Y-81257142D01*
X121666666Y-81304761D01*
X121571428Y-81352380D01*
X121380952Y-81352380D01*
X121285714Y-81304761D01*
X121238095Y-81257142D01*
X121190476Y-81161904D01*
X121190476Y-80352380D01*
X120761904Y-80447619D02*
X120714285Y-80400000D01*
X120619047Y-80352380D01*
X120380952Y-80352380D01*
X120285714Y-80400000D01*
X120238095Y-80447619D01*
X120190476Y-80542857D01*
X120190476Y-80638095D01*
X120238095Y-80780952D01*
X120809523Y-81352380D01*
X120190476Y-81352380D01*
X122142857Y-95952380D02*
X122476190Y-95476190D01*
X122714285Y-95952380D02*
X122714285Y-94952380D01*
X122333333Y-94952380D01*
X122238095Y-95000000D01*
X122190476Y-95047619D01*
X122142857Y-95142857D01*
X122142857Y-95285714D01*
X122190476Y-95380952D01*
X122238095Y-95428571D01*
X122333333Y-95476190D01*
X122714285Y-95476190D01*
X121190476Y-95952380D02*
X121761904Y-95952380D01*
X121476190Y-95952380D02*
X121476190Y-94952380D01*
X121571428Y-95095238D01*
X121666666Y-95190476D01*
X121761904Y-95238095D01*
X120333333Y-95285714D02*
X120333333Y-95952380D01*
X120571428Y-94904761D02*
X120809523Y-95619047D01*
X120190476Y-95619047D01*
X126691666Y-98602380D02*
X127025000Y-98126190D01*
X127263095Y-98602380D02*
X127263095Y-97602380D01*
X126882142Y-97602380D01*
X126786904Y-97650000D01*
X126739285Y-97697619D01*
X126691666Y-97792857D01*
X126691666Y-97935714D01*
X126739285Y-98030952D01*
X126786904Y-98078571D01*
X126882142Y-98126190D01*
X127263095Y-98126190D01*
X126215476Y-98602380D02*
X126025000Y-98602380D01*
X125929761Y-98554761D01*
X125882142Y-98507142D01*
X125786904Y-98364285D01*
X125739285Y-98173809D01*
X125739285Y-97792857D01*
X125786904Y-97697619D01*
X125834523Y-97650000D01*
X125929761Y-97602380D01*
X126120238Y-97602380D01*
X126215476Y-97650000D01*
X126263095Y-97697619D01*
X126310714Y-97792857D01*
X126310714Y-98030952D01*
X126263095Y-98126190D01*
X126215476Y-98173809D01*
X126120238Y-98221428D01*
X125929761Y-98221428D01*
X125834523Y-98173809D01*
X125786904Y-98126190D01*
X125739285Y-98030952D01*
X197261904Y-75352380D02*
X197261904Y-76161904D01*
X197214285Y-76257142D01*
X197166666Y-76304761D01*
X197071428Y-76352380D01*
X196880952Y-76352380D01*
X196785714Y-76304761D01*
X196738095Y-76257142D01*
X196690476Y-76161904D01*
X196690476Y-75352380D01*
X195785714Y-75352380D02*
X195976190Y-75352380D01*
X196071428Y-75400000D01*
X196119047Y-75447619D01*
X196214285Y-75590476D01*
X196261904Y-75780952D01*
X196261904Y-76161904D01*
X196214285Y-76257142D01*
X196166666Y-76304761D01*
X196071428Y-76352380D01*
X195880952Y-76352380D01*
X195785714Y-76304761D01*
X195738095Y-76257142D01*
X195690476Y-76161904D01*
X195690476Y-75923809D01*
X195738095Y-75828571D01*
X195785714Y-75780952D01*
X195880952Y-75733333D01*
X196071428Y-75733333D01*
X196166666Y-75780952D01*
X196214285Y-75828571D01*
X196261904Y-75923809D01*
X124461904Y-105852380D02*
X124461904Y-106661904D01*
X124414285Y-106757142D01*
X124366666Y-106804761D01*
X124271428Y-106852380D01*
X124080952Y-106852380D01*
X123985714Y-106804761D01*
X123938095Y-106757142D01*
X123890476Y-106661904D01*
X123890476Y-105852380D01*
X123509523Y-105852380D02*
X122890476Y-105852380D01*
X123223809Y-106233333D01*
X123080952Y-106233333D01*
X122985714Y-106280952D01*
X122938095Y-106328571D01*
X122890476Y-106423809D01*
X122890476Y-106661904D01*
X122938095Y-106757142D01*
X122985714Y-106804761D01*
X123080952Y-106852380D01*
X123366666Y-106852380D01*
X123461904Y-106804761D01*
X123509523Y-106757142D01*
X142642857Y-89452380D02*
X142976190Y-88976190D01*
X143214285Y-89452380D02*
X143214285Y-88452380D01*
X142833333Y-88452380D01*
X142738095Y-88500000D01*
X142690476Y-88547619D01*
X142642857Y-88642857D01*
X142642857Y-88785714D01*
X142690476Y-88880952D01*
X142738095Y-88928571D01*
X142833333Y-88976190D01*
X143214285Y-88976190D01*
X141690476Y-89452380D02*
X142261904Y-89452380D01*
X141976190Y-89452380D02*
X141976190Y-88452380D01*
X142071428Y-88595238D01*
X142166666Y-88690476D01*
X142261904Y-88738095D01*
X140833333Y-88452380D02*
X141023809Y-88452380D01*
X141119047Y-88500000D01*
X141166666Y-88547619D01*
X141261904Y-88690476D01*
X141309523Y-88880952D01*
X141309523Y-89261904D01*
X141261904Y-89357142D01*
X141214285Y-89404761D01*
X141119047Y-89452380D01*
X140928571Y-89452380D01*
X140833333Y-89404761D01*
X140785714Y-89357142D01*
X140738095Y-89261904D01*
X140738095Y-89023809D01*
X140785714Y-88928571D01*
X140833333Y-88880952D01*
X140928571Y-88833333D01*
X141119047Y-88833333D01*
X141214285Y-88880952D01*
X141261904Y-88928571D01*
X141309523Y-89023809D01*
X162642857Y-81088900D02*
X162976190Y-80612710D01*
X163214285Y-81088900D02*
X163214285Y-80088900D01*
X162833333Y-80088900D01*
X162738095Y-80136520D01*
X162690476Y-80184139D01*
X162642857Y-80279377D01*
X162642857Y-80422234D01*
X162690476Y-80517472D01*
X162738095Y-80565091D01*
X162833333Y-80612710D01*
X163214285Y-80612710D01*
X161690476Y-81088900D02*
X162261904Y-81088900D01*
X161976190Y-81088900D02*
X161976190Y-80088900D01*
X162071428Y-80231758D01*
X162166666Y-80326996D01*
X162261904Y-80374615D01*
X160785714Y-80088900D02*
X161261904Y-80088900D01*
X161309523Y-80565091D01*
X161261904Y-80517472D01*
X161166666Y-80469853D01*
X160928571Y-80469853D01*
X160833333Y-80517472D01*
X160785714Y-80565091D01*
X160738095Y-80660329D01*
X160738095Y-80898424D01*
X160785714Y-80993662D01*
X160833333Y-81041281D01*
X160928571Y-81088900D01*
X161166666Y-81088900D01*
X161261904Y-81041281D01*
X161309523Y-80993662D01*
X145642857Y-69952380D02*
X145976190Y-69476190D01*
X146214285Y-69952380D02*
X146214285Y-68952380D01*
X145833333Y-68952380D01*
X145738095Y-69000000D01*
X145690476Y-69047619D01*
X145642857Y-69142857D01*
X145642857Y-69285714D01*
X145690476Y-69380952D01*
X145738095Y-69428571D01*
X145833333Y-69476190D01*
X146214285Y-69476190D01*
X144690476Y-69952380D02*
X145261904Y-69952380D01*
X144976190Y-69952380D02*
X144976190Y-68952380D01*
X145071428Y-69095238D01*
X145166666Y-69190476D01*
X145261904Y-69238095D01*
X144309523Y-69047619D02*
X144261904Y-69000000D01*
X144166666Y-68952380D01*
X143928571Y-68952380D01*
X143833333Y-69000000D01*
X143785714Y-69047619D01*
X143738095Y-69142857D01*
X143738095Y-69238095D01*
X143785714Y-69380952D01*
X144357142Y-69952380D01*
X143738095Y-69952380D01*
X129513626Y-87499180D02*
X129846960Y-87022990D01*
X130085055Y-87499180D02*
X130085055Y-86499180D01*
X129704102Y-86499180D01*
X129608864Y-86546800D01*
X129561245Y-86594419D01*
X129513626Y-86689657D01*
X129513626Y-86832514D01*
X129561245Y-86927752D01*
X129608864Y-86975371D01*
X129704102Y-87022990D01*
X130085055Y-87022990D01*
X128942198Y-86927752D02*
X129037436Y-86880133D01*
X129085055Y-86832514D01*
X129132674Y-86737276D01*
X129132674Y-86689657D01*
X129085055Y-86594419D01*
X129037436Y-86546800D01*
X128942198Y-86499180D01*
X128751721Y-86499180D01*
X128656483Y-86546800D01*
X128608864Y-86594419D01*
X128561245Y-86689657D01*
X128561245Y-86737276D01*
X128608864Y-86832514D01*
X128656483Y-86880133D01*
X128751721Y-86927752D01*
X128942198Y-86927752D01*
X129037436Y-86975371D01*
X129085055Y-87022990D01*
X129132674Y-87118228D01*
X129132674Y-87308704D01*
X129085055Y-87403942D01*
X129037436Y-87451561D01*
X128942198Y-87499180D01*
X128751721Y-87499180D01*
X128656483Y-87451561D01*
X128608864Y-87403942D01*
X128561245Y-87308704D01*
X128561245Y-87118228D01*
X128608864Y-87022990D01*
X128656483Y-86975371D01*
X128751721Y-86927752D01*
X140166666Y-72952380D02*
X140500000Y-72476190D01*
X140738095Y-72952380D02*
X140738095Y-71952380D01*
X140357142Y-71952380D01*
X140261904Y-72000000D01*
X140214285Y-72047619D01*
X140166666Y-72142857D01*
X140166666Y-72285714D01*
X140214285Y-72380952D01*
X140261904Y-72428571D01*
X140357142Y-72476190D01*
X140738095Y-72476190D01*
X139833333Y-71952380D02*
X139166666Y-71952380D01*
X139595238Y-72952380D01*
X113026918Y-94426459D02*
X113122156Y-94378840D01*
X113217394Y-94283601D01*
X113360251Y-94140744D01*
X113455489Y-94093125D01*
X113550727Y-94093125D01*
X113503108Y-94331220D02*
X113598346Y-94283601D01*
X113693584Y-94188363D01*
X113741203Y-93997887D01*
X113741203Y-93664554D01*
X113693584Y-93474078D01*
X113598346Y-93378840D01*
X113503108Y-93331220D01*
X113312632Y-93331220D01*
X113217394Y-93378840D01*
X113122156Y-93474078D01*
X113074537Y-93664554D01*
X113074537Y-93997887D01*
X113122156Y-94188363D01*
X113217394Y-94283601D01*
X113312632Y-94331220D01*
X113503108Y-94331220D01*
X112169775Y-93331220D02*
X112645965Y-93331220D01*
X112693584Y-93807411D01*
X112645965Y-93759792D01*
X112550727Y-93712173D01*
X112312632Y-93712173D01*
X112217394Y-93759792D01*
X112169775Y-93807411D01*
X112122156Y-93902649D01*
X112122156Y-94140744D01*
X112169775Y-94235982D01*
X112217394Y-94283601D01*
X112312632Y-94331220D01*
X112550727Y-94331220D01*
X112645965Y-94283601D01*
X112693584Y-94235982D01*
X143095238Y-83651979D02*
X143190476Y-83604360D01*
X143285714Y-83509121D01*
X143428571Y-83366264D01*
X143523809Y-83318645D01*
X143619047Y-83318645D01*
X143571428Y-83556740D02*
X143666666Y-83509121D01*
X143761904Y-83413883D01*
X143809523Y-83223407D01*
X143809523Y-82890074D01*
X143761904Y-82699598D01*
X143666666Y-82604360D01*
X143571428Y-82556740D01*
X143380952Y-82556740D01*
X143285714Y-82604360D01*
X143190476Y-82699598D01*
X143142857Y-82890074D01*
X143142857Y-83223407D01*
X143190476Y-83413883D01*
X143285714Y-83509121D01*
X143380952Y-83556740D01*
X143571428Y-83556740D01*
X142285714Y-82890074D02*
X142285714Y-83556740D01*
X142523809Y-82509121D02*
X142761904Y-83223407D01*
X142142857Y-83223407D01*
X155095238Y-75047619D02*
X155190476Y-75000000D01*
X155285714Y-74904761D01*
X155428571Y-74761904D01*
X155523809Y-74714285D01*
X155619047Y-74714285D01*
X155571428Y-74952380D02*
X155666666Y-74904761D01*
X155761904Y-74809523D01*
X155809523Y-74619047D01*
X155809523Y-74285714D01*
X155761904Y-74095238D01*
X155666666Y-74000000D01*
X155571428Y-73952380D01*
X155380952Y-73952380D01*
X155285714Y-74000000D01*
X155190476Y-74095238D01*
X155142857Y-74285714D01*
X155142857Y-74619047D01*
X155190476Y-74809523D01*
X155285714Y-74904761D01*
X155380952Y-74952380D01*
X155571428Y-74952380D01*
X154809523Y-73952380D02*
X154190476Y-73952380D01*
X154523809Y-74333333D01*
X154380952Y-74333333D01*
X154285714Y-74380952D01*
X154238095Y-74428571D01*
X154190476Y-74523809D01*
X154190476Y-74761904D01*
X154238095Y-74857142D01*
X154285714Y-74904761D01*
X154380952Y-74952380D01*
X154666666Y-74952380D01*
X154761904Y-74904761D01*
X154809523Y-74857142D01*
X138595238Y-80547619D02*
X138690476Y-80500000D01*
X138785714Y-80404761D01*
X138928571Y-80261904D01*
X139023809Y-80214285D01*
X139119047Y-80214285D01*
X139071428Y-80452380D02*
X139166666Y-80404761D01*
X139261904Y-80309523D01*
X139309523Y-80119047D01*
X139309523Y-79785714D01*
X139261904Y-79595238D01*
X139166666Y-79500000D01*
X139071428Y-79452380D01*
X138880952Y-79452380D01*
X138785714Y-79500000D01*
X138690476Y-79595238D01*
X138642857Y-79785714D01*
X138642857Y-80119047D01*
X138690476Y-80309523D01*
X138785714Y-80404761D01*
X138880952Y-80452380D01*
X139071428Y-80452380D01*
X138261904Y-79547619D02*
X138214285Y-79500000D01*
X138119047Y-79452380D01*
X137880952Y-79452380D01*
X137785714Y-79500000D01*
X137738095Y-79547619D01*
X137690476Y-79642857D01*
X137690476Y-79738095D01*
X137738095Y-79880952D01*
X138309523Y-80452380D01*
X137690476Y-80452380D01*
X149095238Y-76047619D02*
X149190476Y-76000000D01*
X149285714Y-75904761D01*
X149428571Y-75761904D01*
X149523809Y-75714285D01*
X149619047Y-75714285D01*
X149571428Y-75952380D02*
X149666666Y-75904761D01*
X149761904Y-75809523D01*
X149809523Y-75619047D01*
X149809523Y-75285714D01*
X149761904Y-75095238D01*
X149666666Y-75000000D01*
X149571428Y-74952380D01*
X149380952Y-74952380D01*
X149285714Y-75000000D01*
X149190476Y-75095238D01*
X149142857Y-75285714D01*
X149142857Y-75619047D01*
X149190476Y-75809523D01*
X149285714Y-75904761D01*
X149380952Y-75952380D01*
X149571428Y-75952380D01*
X148190476Y-75952380D02*
X148761904Y-75952380D01*
X148476190Y-75952380D02*
X148476190Y-74952380D01*
X148571428Y-75095238D01*
X148666666Y-75190476D01*
X148761904Y-75238095D01*
X114275173Y-97840620D02*
X114275173Y-98554906D01*
X114322792Y-98697763D01*
X114418030Y-98793001D01*
X114560887Y-98840620D01*
X114656125Y-98840620D01*
X113798982Y-98840620D02*
X113798982Y-97840620D01*
X113418030Y-97840620D01*
X113322792Y-97888240D01*
X113275173Y-97935859D01*
X113227554Y-98031097D01*
X113227554Y-98173954D01*
X113275173Y-98269192D01*
X113322792Y-98316811D01*
X113418030Y-98364430D01*
X113798982Y-98364430D01*
X112846601Y-97935859D02*
X112798982Y-97888240D01*
X112703744Y-97840620D01*
X112465649Y-97840620D01*
X112370411Y-97888240D01*
X112322792Y-97935859D01*
X112275173Y-98031097D01*
X112275173Y-98126335D01*
X112322792Y-98269192D01*
X112894220Y-98840620D01*
X112275173Y-98840620D01*
X146833333Y-87952380D02*
X146833333Y-88666666D01*
X146880952Y-88809523D01*
X146976190Y-88904761D01*
X147119047Y-88952380D01*
X147214285Y-88952380D01*
X146357142Y-88952380D02*
X146357142Y-87952380D01*
X145976190Y-87952380D01*
X145880952Y-88000000D01*
X145833333Y-88047619D01*
X145785714Y-88142857D01*
X145785714Y-88285714D01*
X145833333Y-88380952D01*
X145880952Y-88428571D01*
X145976190Y-88476190D01*
X146357142Y-88476190D01*
X144833333Y-88952380D02*
X145404761Y-88952380D01*
X145119047Y-88952380D02*
X145119047Y-87952380D01*
X145214285Y-88095238D01*
X145309523Y-88190476D01*
X145404761Y-88238095D01*
X185462255Y-77309500D02*
X185462255Y-76309500D01*
X185224160Y-76309500D01*
X185081302Y-76357120D01*
X184986064Y-76452358D01*
X184938445Y-76547596D01*
X184890826Y-76738072D01*
X184890826Y-76880929D01*
X184938445Y-77071405D01*
X184986064Y-77166643D01*
X185081302Y-77261881D01*
X185224160Y-77309500D01*
X185462255Y-77309500D01*
X184033683Y-76642834D02*
X184033683Y-77309500D01*
X184271779Y-76261881D02*
X184509874Y-76976167D01*
X183890826Y-76976167D01*
X128842577Y-106991662D02*
X128890196Y-107039281D01*
X129033053Y-107086900D01*
X129128291Y-107086900D01*
X129271148Y-107039281D01*
X129366386Y-106944043D01*
X129414005Y-106848805D01*
X129461624Y-106658329D01*
X129461624Y-106515472D01*
X129414005Y-106324996D01*
X129366386Y-106229758D01*
X129271148Y-106134520D01*
X129128291Y-106086900D01*
X129033053Y-106086900D01*
X128890196Y-106134520D01*
X128842577Y-106182139D01*
X127890196Y-107086900D02*
X128461624Y-107086900D01*
X128175910Y-107086900D02*
X128175910Y-106086900D01*
X128271148Y-106229758D01*
X128366386Y-106324996D01*
X128461624Y-106372615D01*
X127509243Y-106182139D02*
X127461624Y-106134520D01*
X127366386Y-106086900D01*
X127128291Y-106086900D01*
X127033053Y-106134520D01*
X126985434Y-106182139D01*
X126937815Y-106277377D01*
X126937815Y-106372615D01*
X126985434Y-106515472D01*
X127556862Y-107086900D01*
X126937815Y-107086900D01*
X119478257Y-107059822D02*
X119525876Y-107107441D01*
X119668733Y-107155060D01*
X119763971Y-107155060D01*
X119906828Y-107107441D01*
X120002066Y-107012203D01*
X120049685Y-106916965D01*
X120097304Y-106726489D01*
X120097304Y-106583632D01*
X120049685Y-106393156D01*
X120002066Y-106297918D01*
X119906828Y-106202680D01*
X119763971Y-106155060D01*
X119668733Y-106155060D01*
X119525876Y-106202680D01*
X119478257Y-106250299D01*
X118525876Y-107155060D02*
X119097304Y-107155060D01*
X118811590Y-107155060D02*
X118811590Y-106155060D01*
X118906828Y-106297918D01*
X119002066Y-106393156D01*
X119097304Y-106440775D01*
X117573495Y-107155060D02*
X118144923Y-107155060D01*
X117859209Y-107155060D02*
X117859209Y-106155060D01*
X117954447Y-106297918D01*
X118049685Y-106393156D01*
X118144923Y-106440775D01*
X190642857Y-71857142D02*
X190690476Y-71904761D01*
X190833333Y-71952380D01*
X190928571Y-71952380D01*
X191071428Y-71904761D01*
X191166666Y-71809523D01*
X191214285Y-71714285D01*
X191261904Y-71523809D01*
X191261904Y-71380952D01*
X191214285Y-71190476D01*
X191166666Y-71095238D01*
X191071428Y-71000000D01*
X190928571Y-70952380D01*
X190833333Y-70952380D01*
X190690476Y-71000000D01*
X190642857Y-71047619D01*
X189690476Y-71952380D02*
X190261904Y-71952380D01*
X189976190Y-71952380D02*
X189976190Y-70952380D01*
X190071428Y-71095238D01*
X190166666Y-71190476D01*
X190261904Y-71238095D01*
X189071428Y-70952380D02*
X188976190Y-70952380D01*
X188880952Y-71000000D01*
X188833333Y-71047619D01*
X188785714Y-71142857D01*
X188738095Y-71333333D01*
X188738095Y-71571428D01*
X188785714Y-71761904D01*
X188833333Y-71857142D01*
X188880952Y-71904761D01*
X188976190Y-71952380D01*
X189071428Y-71952380D01*
X189166666Y-71904761D01*
X189214285Y-71857142D01*
X189261904Y-71761904D01*
X189309523Y-71571428D01*
X189309523Y-71333333D01*
X189261904Y-71142857D01*
X189214285Y-71047619D01*
X189166666Y-71000000D01*
X189071428Y-70952380D01*
X192166666Y-74857142D02*
X192214285Y-74904761D01*
X192357142Y-74952380D01*
X192452380Y-74952380D01*
X192595238Y-74904761D01*
X192690476Y-74809523D01*
X192738095Y-74714285D01*
X192785714Y-74523809D01*
X192785714Y-74380952D01*
X192738095Y-74190476D01*
X192690476Y-74095238D01*
X192595238Y-74000000D01*
X192452380Y-73952380D01*
X192357142Y-73952380D01*
X192214285Y-74000000D01*
X192166666Y-74047619D01*
X191309523Y-73952380D02*
X191500000Y-73952380D01*
X191595238Y-74000000D01*
X191642857Y-74047619D01*
X191738095Y-74190476D01*
X191785714Y-74380952D01*
X191785714Y-74761904D01*
X191738095Y-74857142D01*
X191690476Y-74904761D01*
X191595238Y-74952380D01*
X191404761Y-74952380D01*
X191309523Y-74904761D01*
X191261904Y-74857142D01*
X191214285Y-74761904D01*
X191214285Y-74523809D01*
X191261904Y-74428571D01*
X191309523Y-74380952D01*
X191404761Y-74333333D01*
X191595238Y-74333333D01*
X191690476Y-74380952D01*
X191738095Y-74428571D01*
X191785714Y-74523809D01*
X121191666Y-85007142D02*
X121239285Y-85054761D01*
X121382142Y-85102380D01*
X121477380Y-85102380D01*
X121620238Y-85054761D01*
X121715476Y-84959523D01*
X121763095Y-84864285D01*
X121810714Y-84673809D01*
X121810714Y-84530952D01*
X121763095Y-84340476D01*
X121715476Y-84245238D01*
X121620238Y-84150000D01*
X121477380Y-84102380D01*
X121382142Y-84102380D01*
X121239285Y-84150000D01*
X121191666Y-84197619D01*
X120334523Y-84435714D02*
X120334523Y-85102380D01*
X120572619Y-84054761D02*
X120810714Y-84769047D01*
X120191666Y-84769047D01*
%LPC*%
D12*
X158540000Y-90601800D03*
X156000000Y-90601800D03*
X158540000Y-93141800D03*
X156000000Y-93141800D03*
X158540000Y-95681800D03*
X156000000Y-95681800D03*
X158540000Y-98221800D03*
X156000000Y-98221800D03*
X158540000Y-100761800D03*
X156000000Y-100761800D03*
X158540000Y-103301800D03*
X156000000Y-103301800D03*
X158540000Y-105841800D03*
X156000000Y-105841800D03*
X158540000Y-108381800D03*
D13*
X156000000Y-108381800D03*
D14*
X173650000Y-71000000D03*
D15*
G36*
X173656112Y-70199602D02*
G01*
X173674534Y-70199602D01*
X173679533Y-70199848D01*
X173728364Y-70204658D01*
X173733314Y-70205392D01*
X173781439Y-70214964D01*
X173786295Y-70216180D01*
X173833250Y-70230424D01*
X173837961Y-70232110D01*
X173883294Y-70250887D01*
X173887820Y-70253027D01*
X173931093Y-70276158D01*
X173935384Y-70278731D01*
X173976183Y-70305991D01*
X173980204Y-70308973D01*
X174018133Y-70340101D01*
X174021841Y-70343462D01*
X174056538Y-70378159D01*
X174059899Y-70381867D01*
X174091027Y-70419796D01*
X174094009Y-70423817D01*
X174121269Y-70464616D01*
X174123842Y-70468907D01*
X174146973Y-70512180D01*
X174149113Y-70516706D01*
X174167890Y-70562039D01*
X174169576Y-70566750D01*
X174183820Y-70613705D01*
X174185036Y-70618561D01*
X174194608Y-70666686D01*
X174195342Y-70671636D01*
X174200152Y-70720467D01*
X174200398Y-70725466D01*
X174200398Y-70743888D01*
X174201000Y-70750000D01*
X174201000Y-71250000D01*
X174200398Y-71256112D01*
X174200398Y-71274534D01*
X174200152Y-71279533D01*
X174195342Y-71328364D01*
X174194608Y-71333314D01*
X174185036Y-71381439D01*
X174183820Y-71386295D01*
X174169576Y-71433250D01*
X174167890Y-71437961D01*
X174149113Y-71483294D01*
X174146973Y-71487820D01*
X174123842Y-71531093D01*
X174121269Y-71535384D01*
X174094009Y-71576183D01*
X174091027Y-71580204D01*
X174059899Y-71618133D01*
X174056538Y-71621841D01*
X174021841Y-71656538D01*
X174018133Y-71659899D01*
X173980204Y-71691027D01*
X173976183Y-71694009D01*
X173935384Y-71721269D01*
X173931093Y-71723842D01*
X173887820Y-71746973D01*
X173883294Y-71749113D01*
X173837961Y-71767890D01*
X173833250Y-71769576D01*
X173786295Y-71783820D01*
X173781439Y-71785036D01*
X173733314Y-71794608D01*
X173728364Y-71795342D01*
X173679533Y-71800152D01*
X173674534Y-71800398D01*
X173656112Y-71800398D01*
X173650000Y-71801000D01*
X173150000Y-71801000D01*
X173140050Y-71800020D01*
X173130483Y-71797118D01*
X173121666Y-71792405D01*
X173113938Y-71786062D01*
X173107595Y-71778334D01*
X173102882Y-71769517D01*
X173099980Y-71759950D01*
X173099000Y-71750000D01*
X173099000Y-70250000D01*
X173099980Y-70240050D01*
X173102882Y-70230483D01*
X173107595Y-70221666D01*
X173113938Y-70213938D01*
X173121666Y-70207595D01*
X173130483Y-70202882D01*
X173140050Y-70199980D01*
X173150000Y-70199000D01*
X173650000Y-70199000D01*
X173656112Y-70199602D01*
X173656112Y-70199602D01*
G37*
D14*
X172350000Y-71000000D03*
D15*
G36*
X172859950Y-70199980D02*
G01*
X172869517Y-70202882D01*
X172878334Y-70207595D01*
X172886062Y-70213938D01*
X172892405Y-70221666D01*
X172897118Y-70230483D01*
X172900020Y-70240050D01*
X172901000Y-70250000D01*
X172901000Y-71750000D01*
X172900020Y-71759950D01*
X172897118Y-71769517D01*
X172892405Y-71778334D01*
X172886062Y-71786062D01*
X172878334Y-71792405D01*
X172869517Y-71797118D01*
X172859950Y-71800020D01*
X172850000Y-71801000D01*
X172350000Y-71801000D01*
X172343888Y-71800398D01*
X172325466Y-71800398D01*
X172320467Y-71800152D01*
X172271636Y-71795342D01*
X172266686Y-71794608D01*
X172218561Y-71785036D01*
X172213705Y-71783820D01*
X172166750Y-71769576D01*
X172162039Y-71767890D01*
X172116706Y-71749113D01*
X172112180Y-71746973D01*
X172068907Y-71723842D01*
X172064616Y-71721269D01*
X172023817Y-71694009D01*
X172019796Y-71691027D01*
X171981867Y-71659899D01*
X171978159Y-71656538D01*
X171943462Y-71621841D01*
X171940101Y-71618133D01*
X171908973Y-71580204D01*
X171905991Y-71576183D01*
X171878731Y-71535384D01*
X171876158Y-71531093D01*
X171853027Y-71487820D01*
X171850887Y-71483294D01*
X171832110Y-71437961D01*
X171830424Y-71433250D01*
X171816180Y-71386295D01*
X171814964Y-71381439D01*
X171805392Y-71333314D01*
X171804658Y-71328364D01*
X171799848Y-71279533D01*
X171799602Y-71274534D01*
X171799602Y-71256112D01*
X171799000Y-71250000D01*
X171799000Y-70750000D01*
X171799602Y-70743888D01*
X171799602Y-70725466D01*
X171799848Y-70720467D01*
X171804658Y-70671636D01*
X171805392Y-70666686D01*
X171814964Y-70618561D01*
X171816180Y-70613705D01*
X171830424Y-70566750D01*
X171832110Y-70562039D01*
X171850887Y-70516706D01*
X171853027Y-70512180D01*
X171876158Y-70468907D01*
X171878731Y-70464616D01*
X171905991Y-70423817D01*
X171908973Y-70419796D01*
X171940101Y-70381867D01*
X171943462Y-70378159D01*
X171978159Y-70343462D01*
X171981867Y-70340101D01*
X172019796Y-70308973D01*
X172023817Y-70305991D01*
X172064616Y-70278731D01*
X172068907Y-70276158D01*
X172112180Y-70253027D01*
X172116706Y-70250887D01*
X172162039Y-70232110D01*
X172166750Y-70230424D01*
X172213705Y-70216180D01*
X172218561Y-70214964D01*
X172266686Y-70205392D01*
X172271636Y-70204658D01*
X172320467Y-70199848D01*
X172325466Y-70199602D01*
X172343888Y-70199602D01*
X172350000Y-70199000D01*
X172850000Y-70199000D01*
X172859950Y-70199980D01*
X172859950Y-70199980D01*
G37*
D16*
X113528920Y-83294960D03*
X113528920Y-79894960D03*
X126998920Y-79894960D03*
X126998920Y-83294960D03*
D15*
G36*
X133875825Y-86047511D02*
G01*
X133902245Y-86051430D01*
X133928155Y-86057920D01*
X133953303Y-86066918D01*
X133977448Y-86078338D01*
X134000358Y-86092069D01*
X134021812Y-86107980D01*
X134041602Y-86125918D01*
X134059540Y-86145708D01*
X134075451Y-86167162D01*
X134089182Y-86190072D01*
X134100602Y-86214217D01*
X134109600Y-86239365D01*
X134116090Y-86265275D01*
X134120009Y-86291695D01*
X134121320Y-86318373D01*
X134121320Y-87026027D01*
X134120009Y-87052705D01*
X134116090Y-87079125D01*
X134109600Y-87105035D01*
X134100602Y-87130183D01*
X134089182Y-87154328D01*
X134075451Y-87177238D01*
X134059540Y-87198692D01*
X134041602Y-87218482D01*
X134021812Y-87236420D01*
X134000358Y-87252331D01*
X133977448Y-87266062D01*
X133953303Y-87277482D01*
X133928155Y-87286480D01*
X133902245Y-87292970D01*
X133875825Y-87296889D01*
X133849147Y-87298200D01*
X132891493Y-87298200D01*
X132864815Y-87296889D01*
X132838395Y-87292970D01*
X132812485Y-87286480D01*
X132787337Y-87277482D01*
X132763192Y-87266062D01*
X132740282Y-87252331D01*
X132718828Y-87236420D01*
X132699038Y-87218482D01*
X132681100Y-87198692D01*
X132665189Y-87177238D01*
X132651458Y-87154328D01*
X132640038Y-87130183D01*
X132631040Y-87105035D01*
X132624550Y-87079125D01*
X132620631Y-87052705D01*
X132619320Y-87026027D01*
X132619320Y-86318373D01*
X132620631Y-86291695D01*
X132624550Y-86265275D01*
X132631040Y-86239365D01*
X132640038Y-86214217D01*
X132651458Y-86190072D01*
X132665189Y-86167162D01*
X132681100Y-86145708D01*
X132699038Y-86125918D01*
X132718828Y-86107980D01*
X132740282Y-86092069D01*
X132763192Y-86078338D01*
X132787337Y-86066918D01*
X132812485Y-86057920D01*
X132838395Y-86051430D01*
X132864815Y-86047511D01*
X132891493Y-86046200D01*
X133849147Y-86046200D01*
X133875825Y-86047511D01*
X133875825Y-86047511D01*
G37*
D17*
X133370320Y-86672200D03*
D15*
G36*
X133875825Y-88097511D02*
G01*
X133902245Y-88101430D01*
X133928155Y-88107920D01*
X133953303Y-88116918D01*
X133977448Y-88128338D01*
X134000358Y-88142069D01*
X134021812Y-88157980D01*
X134041602Y-88175918D01*
X134059540Y-88195708D01*
X134075451Y-88217162D01*
X134089182Y-88240072D01*
X134100602Y-88264217D01*
X134109600Y-88289365D01*
X134116090Y-88315275D01*
X134120009Y-88341695D01*
X134121320Y-88368373D01*
X134121320Y-89076027D01*
X134120009Y-89102705D01*
X134116090Y-89129125D01*
X134109600Y-89155035D01*
X134100602Y-89180183D01*
X134089182Y-89204328D01*
X134075451Y-89227238D01*
X134059540Y-89248692D01*
X134041602Y-89268482D01*
X134021812Y-89286420D01*
X134000358Y-89302331D01*
X133977448Y-89316062D01*
X133953303Y-89327482D01*
X133928155Y-89336480D01*
X133902245Y-89342970D01*
X133875825Y-89346889D01*
X133849147Y-89348200D01*
X132891493Y-89348200D01*
X132864815Y-89346889D01*
X132838395Y-89342970D01*
X132812485Y-89336480D01*
X132787337Y-89327482D01*
X132763192Y-89316062D01*
X132740282Y-89302331D01*
X132718828Y-89286420D01*
X132699038Y-89268482D01*
X132681100Y-89248692D01*
X132665189Y-89227238D01*
X132651458Y-89204328D01*
X132640038Y-89180183D01*
X132631040Y-89155035D01*
X132624550Y-89129125D01*
X132620631Y-89102705D01*
X132619320Y-89076027D01*
X132619320Y-88368373D01*
X132620631Y-88341695D01*
X132624550Y-88315275D01*
X132631040Y-88289365D01*
X132640038Y-88264217D01*
X132651458Y-88240072D01*
X132665189Y-88217162D01*
X132681100Y-88195708D01*
X132699038Y-88175918D01*
X132718828Y-88157980D01*
X132740282Y-88142069D01*
X132763192Y-88128338D01*
X132787337Y-88116918D01*
X132812485Y-88107920D01*
X132838395Y-88101430D01*
X132864815Y-88097511D01*
X132891493Y-88096200D01*
X133849147Y-88096200D01*
X133875825Y-88097511D01*
X133875825Y-88097511D01*
G37*
D17*
X133370320Y-88722200D03*
D12*
X147868640Y-77708760D03*
X150408640Y-77708760D03*
X152948640Y-77708760D03*
X155488640Y-77708760D03*
D13*
X158028640Y-77708760D03*
D15*
G36*
X124342702Y-79054845D02*
G01*
X124359738Y-79057372D01*
X124376445Y-79061557D01*
X124392661Y-79067359D01*
X124408230Y-79074723D01*
X124423003Y-79083577D01*
X124436836Y-79093837D01*
X124449597Y-79105403D01*
X124461163Y-79118164D01*
X124471423Y-79131997D01*
X124480277Y-79146770D01*
X124487641Y-79162339D01*
X124493443Y-79178555D01*
X124497628Y-79195262D01*
X124500155Y-79212298D01*
X124501000Y-79229500D01*
X124501000Y-79580500D01*
X124500155Y-79597702D01*
X124497628Y-79614738D01*
X124493443Y-79631445D01*
X124487641Y-79647661D01*
X124480277Y-79663230D01*
X124471423Y-79678003D01*
X124461163Y-79691836D01*
X124449597Y-79704597D01*
X124436836Y-79716163D01*
X124423003Y-79726423D01*
X124408230Y-79735277D01*
X124392661Y-79742641D01*
X124376445Y-79748443D01*
X124359738Y-79752628D01*
X124342702Y-79755155D01*
X124325500Y-79756000D01*
X122624500Y-79756000D01*
X122607298Y-79755155D01*
X122590262Y-79752628D01*
X122573555Y-79748443D01*
X122557339Y-79742641D01*
X122541770Y-79735277D01*
X122526997Y-79726423D01*
X122513164Y-79716163D01*
X122500403Y-79704597D01*
X122488837Y-79691836D01*
X122478577Y-79678003D01*
X122469723Y-79663230D01*
X122462359Y-79647661D01*
X122456557Y-79631445D01*
X122452372Y-79614738D01*
X122449845Y-79597702D01*
X122449000Y-79580500D01*
X122449000Y-79229500D01*
X122449845Y-79212298D01*
X122452372Y-79195262D01*
X122456557Y-79178555D01*
X122462359Y-79162339D01*
X122469723Y-79146770D01*
X122478577Y-79131997D01*
X122488837Y-79118164D01*
X122500403Y-79105403D01*
X122513164Y-79093837D01*
X122526997Y-79083577D01*
X122541770Y-79074723D01*
X122557339Y-79067359D01*
X122573555Y-79061557D01*
X122590262Y-79057372D01*
X122607298Y-79054845D01*
X122624500Y-79054000D01*
X124325500Y-79054000D01*
X124342702Y-79054845D01*
X124342702Y-79054845D01*
G37*
D18*
X123475000Y-79405000D03*
D15*
G36*
X124342702Y-77784845D02*
G01*
X124359738Y-77787372D01*
X124376445Y-77791557D01*
X124392661Y-77797359D01*
X124408230Y-77804723D01*
X124423003Y-77813577D01*
X124436836Y-77823837D01*
X124449597Y-77835403D01*
X124461163Y-77848164D01*
X124471423Y-77861997D01*
X124480277Y-77876770D01*
X124487641Y-77892339D01*
X124493443Y-77908555D01*
X124497628Y-77925262D01*
X124500155Y-77942298D01*
X124501000Y-77959500D01*
X124501000Y-78310500D01*
X124500155Y-78327702D01*
X124497628Y-78344738D01*
X124493443Y-78361445D01*
X124487641Y-78377661D01*
X124480277Y-78393230D01*
X124471423Y-78408003D01*
X124461163Y-78421836D01*
X124449597Y-78434597D01*
X124436836Y-78446163D01*
X124423003Y-78456423D01*
X124408230Y-78465277D01*
X124392661Y-78472641D01*
X124376445Y-78478443D01*
X124359738Y-78482628D01*
X124342702Y-78485155D01*
X124325500Y-78486000D01*
X122624500Y-78486000D01*
X122607298Y-78485155D01*
X122590262Y-78482628D01*
X122573555Y-78478443D01*
X122557339Y-78472641D01*
X122541770Y-78465277D01*
X122526997Y-78456423D01*
X122513164Y-78446163D01*
X122500403Y-78434597D01*
X122488837Y-78421836D01*
X122478577Y-78408003D01*
X122469723Y-78393230D01*
X122462359Y-78377661D01*
X122456557Y-78361445D01*
X122452372Y-78344738D01*
X122449845Y-78327702D01*
X122449000Y-78310500D01*
X122449000Y-77959500D01*
X122449845Y-77942298D01*
X122452372Y-77925262D01*
X122456557Y-77908555D01*
X122462359Y-77892339D01*
X122469723Y-77876770D01*
X122478577Y-77861997D01*
X122488837Y-77848164D01*
X122500403Y-77835403D01*
X122513164Y-77823837D01*
X122526997Y-77813577D01*
X122541770Y-77804723D01*
X122557339Y-77797359D01*
X122573555Y-77791557D01*
X122590262Y-77787372D01*
X122607298Y-77784845D01*
X122624500Y-77784000D01*
X124325500Y-77784000D01*
X124342702Y-77784845D01*
X124342702Y-77784845D01*
G37*
D18*
X123475000Y-78135000D03*
D15*
G36*
X124342702Y-76514845D02*
G01*
X124359738Y-76517372D01*
X124376445Y-76521557D01*
X124392661Y-76527359D01*
X124408230Y-76534723D01*
X124423003Y-76543577D01*
X124436836Y-76553837D01*
X124449597Y-76565403D01*
X124461163Y-76578164D01*
X124471423Y-76591997D01*
X124480277Y-76606770D01*
X124487641Y-76622339D01*
X124493443Y-76638555D01*
X124497628Y-76655262D01*
X124500155Y-76672298D01*
X124501000Y-76689500D01*
X124501000Y-77040500D01*
X124500155Y-77057702D01*
X124497628Y-77074738D01*
X124493443Y-77091445D01*
X124487641Y-77107661D01*
X124480277Y-77123230D01*
X124471423Y-77138003D01*
X124461163Y-77151836D01*
X124449597Y-77164597D01*
X124436836Y-77176163D01*
X124423003Y-77186423D01*
X124408230Y-77195277D01*
X124392661Y-77202641D01*
X124376445Y-77208443D01*
X124359738Y-77212628D01*
X124342702Y-77215155D01*
X124325500Y-77216000D01*
X122624500Y-77216000D01*
X122607298Y-77215155D01*
X122590262Y-77212628D01*
X122573555Y-77208443D01*
X122557339Y-77202641D01*
X122541770Y-77195277D01*
X122526997Y-77186423D01*
X122513164Y-77176163D01*
X122500403Y-77164597D01*
X122488837Y-77151836D01*
X122478577Y-77138003D01*
X122469723Y-77123230D01*
X122462359Y-77107661D01*
X122456557Y-77091445D01*
X122452372Y-77074738D01*
X122449845Y-77057702D01*
X122449000Y-77040500D01*
X122449000Y-76689500D01*
X122449845Y-76672298D01*
X122452372Y-76655262D01*
X122456557Y-76638555D01*
X122462359Y-76622339D01*
X122469723Y-76606770D01*
X122478577Y-76591997D01*
X122488837Y-76578164D01*
X122500403Y-76565403D01*
X122513164Y-76553837D01*
X122526997Y-76543577D01*
X122541770Y-76534723D01*
X122557339Y-76527359D01*
X122573555Y-76521557D01*
X122590262Y-76517372D01*
X122607298Y-76514845D01*
X122624500Y-76514000D01*
X124325500Y-76514000D01*
X124342702Y-76514845D01*
X124342702Y-76514845D01*
G37*
D18*
X123475000Y-76865000D03*
D15*
G36*
X124342702Y-75244845D02*
G01*
X124359738Y-75247372D01*
X124376445Y-75251557D01*
X124392661Y-75257359D01*
X124408230Y-75264723D01*
X124423003Y-75273577D01*
X124436836Y-75283837D01*
X124449597Y-75295403D01*
X124461163Y-75308164D01*
X124471423Y-75321997D01*
X124480277Y-75336770D01*
X124487641Y-75352339D01*
X124493443Y-75368555D01*
X124497628Y-75385262D01*
X124500155Y-75402298D01*
X124501000Y-75419500D01*
X124501000Y-75770500D01*
X124500155Y-75787702D01*
X124497628Y-75804738D01*
X124493443Y-75821445D01*
X124487641Y-75837661D01*
X124480277Y-75853230D01*
X124471423Y-75868003D01*
X124461163Y-75881836D01*
X124449597Y-75894597D01*
X124436836Y-75906163D01*
X124423003Y-75916423D01*
X124408230Y-75925277D01*
X124392661Y-75932641D01*
X124376445Y-75938443D01*
X124359738Y-75942628D01*
X124342702Y-75945155D01*
X124325500Y-75946000D01*
X122624500Y-75946000D01*
X122607298Y-75945155D01*
X122590262Y-75942628D01*
X122573555Y-75938443D01*
X122557339Y-75932641D01*
X122541770Y-75925277D01*
X122526997Y-75916423D01*
X122513164Y-75906163D01*
X122500403Y-75894597D01*
X122488837Y-75881836D01*
X122478577Y-75868003D01*
X122469723Y-75853230D01*
X122462359Y-75837661D01*
X122456557Y-75821445D01*
X122452372Y-75804738D01*
X122449845Y-75787702D01*
X122449000Y-75770500D01*
X122449000Y-75419500D01*
X122449845Y-75402298D01*
X122452372Y-75385262D01*
X122456557Y-75368555D01*
X122462359Y-75352339D01*
X122469723Y-75336770D01*
X122478577Y-75321997D01*
X122488837Y-75308164D01*
X122500403Y-75295403D01*
X122513164Y-75283837D01*
X122526997Y-75273577D01*
X122541770Y-75264723D01*
X122557339Y-75257359D01*
X122573555Y-75251557D01*
X122590262Y-75247372D01*
X122607298Y-75244845D01*
X122624500Y-75244000D01*
X124325500Y-75244000D01*
X124342702Y-75244845D01*
X124342702Y-75244845D01*
G37*
D18*
X123475000Y-75595000D03*
D15*
G36*
X119392702Y-75244845D02*
G01*
X119409738Y-75247372D01*
X119426445Y-75251557D01*
X119442661Y-75257359D01*
X119458230Y-75264723D01*
X119473003Y-75273577D01*
X119486836Y-75283837D01*
X119499597Y-75295403D01*
X119511163Y-75308164D01*
X119521423Y-75321997D01*
X119530277Y-75336770D01*
X119537641Y-75352339D01*
X119543443Y-75368555D01*
X119547628Y-75385262D01*
X119550155Y-75402298D01*
X119551000Y-75419500D01*
X119551000Y-75770500D01*
X119550155Y-75787702D01*
X119547628Y-75804738D01*
X119543443Y-75821445D01*
X119537641Y-75837661D01*
X119530277Y-75853230D01*
X119521423Y-75868003D01*
X119511163Y-75881836D01*
X119499597Y-75894597D01*
X119486836Y-75906163D01*
X119473003Y-75916423D01*
X119458230Y-75925277D01*
X119442661Y-75932641D01*
X119426445Y-75938443D01*
X119409738Y-75942628D01*
X119392702Y-75945155D01*
X119375500Y-75946000D01*
X117674500Y-75946000D01*
X117657298Y-75945155D01*
X117640262Y-75942628D01*
X117623555Y-75938443D01*
X117607339Y-75932641D01*
X117591770Y-75925277D01*
X117576997Y-75916423D01*
X117563164Y-75906163D01*
X117550403Y-75894597D01*
X117538837Y-75881836D01*
X117528577Y-75868003D01*
X117519723Y-75853230D01*
X117512359Y-75837661D01*
X117506557Y-75821445D01*
X117502372Y-75804738D01*
X117499845Y-75787702D01*
X117499000Y-75770500D01*
X117499000Y-75419500D01*
X117499845Y-75402298D01*
X117502372Y-75385262D01*
X117506557Y-75368555D01*
X117512359Y-75352339D01*
X117519723Y-75336770D01*
X117528577Y-75321997D01*
X117538837Y-75308164D01*
X117550403Y-75295403D01*
X117563164Y-75283837D01*
X117576997Y-75273577D01*
X117591770Y-75264723D01*
X117607339Y-75257359D01*
X117623555Y-75251557D01*
X117640262Y-75247372D01*
X117657298Y-75244845D01*
X117674500Y-75244000D01*
X119375500Y-75244000D01*
X119392702Y-75244845D01*
X119392702Y-75244845D01*
G37*
D18*
X118525000Y-75595000D03*
D15*
G36*
X119392702Y-76514845D02*
G01*
X119409738Y-76517372D01*
X119426445Y-76521557D01*
X119442661Y-76527359D01*
X119458230Y-76534723D01*
X119473003Y-76543577D01*
X119486836Y-76553837D01*
X119499597Y-76565403D01*
X119511163Y-76578164D01*
X119521423Y-76591997D01*
X119530277Y-76606770D01*
X119537641Y-76622339D01*
X119543443Y-76638555D01*
X119547628Y-76655262D01*
X119550155Y-76672298D01*
X119551000Y-76689500D01*
X119551000Y-77040500D01*
X119550155Y-77057702D01*
X119547628Y-77074738D01*
X119543443Y-77091445D01*
X119537641Y-77107661D01*
X119530277Y-77123230D01*
X119521423Y-77138003D01*
X119511163Y-77151836D01*
X119499597Y-77164597D01*
X119486836Y-77176163D01*
X119473003Y-77186423D01*
X119458230Y-77195277D01*
X119442661Y-77202641D01*
X119426445Y-77208443D01*
X119409738Y-77212628D01*
X119392702Y-77215155D01*
X119375500Y-77216000D01*
X117674500Y-77216000D01*
X117657298Y-77215155D01*
X117640262Y-77212628D01*
X117623555Y-77208443D01*
X117607339Y-77202641D01*
X117591770Y-77195277D01*
X117576997Y-77186423D01*
X117563164Y-77176163D01*
X117550403Y-77164597D01*
X117538837Y-77151836D01*
X117528577Y-77138003D01*
X117519723Y-77123230D01*
X117512359Y-77107661D01*
X117506557Y-77091445D01*
X117502372Y-77074738D01*
X117499845Y-77057702D01*
X117499000Y-77040500D01*
X117499000Y-76689500D01*
X117499845Y-76672298D01*
X117502372Y-76655262D01*
X117506557Y-76638555D01*
X117512359Y-76622339D01*
X117519723Y-76606770D01*
X117528577Y-76591997D01*
X117538837Y-76578164D01*
X117550403Y-76565403D01*
X117563164Y-76553837D01*
X117576997Y-76543577D01*
X117591770Y-76534723D01*
X117607339Y-76527359D01*
X117623555Y-76521557D01*
X117640262Y-76517372D01*
X117657298Y-76514845D01*
X117674500Y-76514000D01*
X119375500Y-76514000D01*
X119392702Y-76514845D01*
X119392702Y-76514845D01*
G37*
D18*
X118525000Y-76865000D03*
D15*
G36*
X119392702Y-77784845D02*
G01*
X119409738Y-77787372D01*
X119426445Y-77791557D01*
X119442661Y-77797359D01*
X119458230Y-77804723D01*
X119473003Y-77813577D01*
X119486836Y-77823837D01*
X119499597Y-77835403D01*
X119511163Y-77848164D01*
X119521423Y-77861997D01*
X119530277Y-77876770D01*
X119537641Y-77892339D01*
X119543443Y-77908555D01*
X119547628Y-77925262D01*
X119550155Y-77942298D01*
X119551000Y-77959500D01*
X119551000Y-78310500D01*
X119550155Y-78327702D01*
X119547628Y-78344738D01*
X119543443Y-78361445D01*
X119537641Y-78377661D01*
X119530277Y-78393230D01*
X119521423Y-78408003D01*
X119511163Y-78421836D01*
X119499597Y-78434597D01*
X119486836Y-78446163D01*
X119473003Y-78456423D01*
X119458230Y-78465277D01*
X119442661Y-78472641D01*
X119426445Y-78478443D01*
X119409738Y-78482628D01*
X119392702Y-78485155D01*
X119375500Y-78486000D01*
X117674500Y-78486000D01*
X117657298Y-78485155D01*
X117640262Y-78482628D01*
X117623555Y-78478443D01*
X117607339Y-78472641D01*
X117591770Y-78465277D01*
X117576997Y-78456423D01*
X117563164Y-78446163D01*
X117550403Y-78434597D01*
X117538837Y-78421836D01*
X117528577Y-78408003D01*
X117519723Y-78393230D01*
X117512359Y-78377661D01*
X117506557Y-78361445D01*
X117502372Y-78344738D01*
X117499845Y-78327702D01*
X117499000Y-78310500D01*
X117499000Y-77959500D01*
X117499845Y-77942298D01*
X117502372Y-77925262D01*
X117506557Y-77908555D01*
X117512359Y-77892339D01*
X117519723Y-77876770D01*
X117528577Y-77861997D01*
X117538837Y-77848164D01*
X117550403Y-77835403D01*
X117563164Y-77823837D01*
X117576997Y-77813577D01*
X117591770Y-77804723D01*
X117607339Y-77797359D01*
X117623555Y-77791557D01*
X117640262Y-77787372D01*
X117657298Y-77784845D01*
X117674500Y-77784000D01*
X119375500Y-77784000D01*
X119392702Y-77784845D01*
X119392702Y-77784845D01*
G37*
D18*
X118525000Y-78135000D03*
D15*
G36*
X119392702Y-79054845D02*
G01*
X119409738Y-79057372D01*
X119426445Y-79061557D01*
X119442661Y-79067359D01*
X119458230Y-79074723D01*
X119473003Y-79083577D01*
X119486836Y-79093837D01*
X119499597Y-79105403D01*
X119511163Y-79118164D01*
X119521423Y-79131997D01*
X119530277Y-79146770D01*
X119537641Y-79162339D01*
X119543443Y-79178555D01*
X119547628Y-79195262D01*
X119550155Y-79212298D01*
X119551000Y-79229500D01*
X119551000Y-79580500D01*
X119550155Y-79597702D01*
X119547628Y-79614738D01*
X119543443Y-79631445D01*
X119537641Y-79647661D01*
X119530277Y-79663230D01*
X119521423Y-79678003D01*
X119511163Y-79691836D01*
X119499597Y-79704597D01*
X119486836Y-79716163D01*
X119473003Y-79726423D01*
X119458230Y-79735277D01*
X119442661Y-79742641D01*
X119426445Y-79748443D01*
X119409738Y-79752628D01*
X119392702Y-79755155D01*
X119375500Y-79756000D01*
X117674500Y-79756000D01*
X117657298Y-79755155D01*
X117640262Y-79752628D01*
X117623555Y-79748443D01*
X117607339Y-79742641D01*
X117591770Y-79735277D01*
X117576997Y-79726423D01*
X117563164Y-79716163D01*
X117550403Y-79704597D01*
X117538837Y-79691836D01*
X117528577Y-79678003D01*
X117519723Y-79663230D01*
X117512359Y-79647661D01*
X117506557Y-79631445D01*
X117502372Y-79614738D01*
X117499845Y-79597702D01*
X117499000Y-79580500D01*
X117499000Y-79229500D01*
X117499845Y-79212298D01*
X117502372Y-79195262D01*
X117506557Y-79178555D01*
X117512359Y-79162339D01*
X117519723Y-79146770D01*
X117528577Y-79131997D01*
X117538837Y-79118164D01*
X117550403Y-79105403D01*
X117563164Y-79093837D01*
X117576997Y-79083577D01*
X117591770Y-79074723D01*
X117607339Y-79067359D01*
X117623555Y-79061557D01*
X117640262Y-79057372D01*
X117657298Y-79054845D01*
X117674500Y-79054000D01*
X119375500Y-79054000D01*
X119392702Y-79054845D01*
X119392702Y-79054845D01*
G37*
D18*
X118525000Y-79405000D03*
D19*
X114000000Y-71000000D03*
X114000000Y-108000000D03*
X165000000Y-85000000D03*
X207500000Y-71000000D03*
D15*
G36*
X119505505Y-93825311D02*
G01*
X119531925Y-93829230D01*
X119557835Y-93835720D01*
X119582983Y-93844718D01*
X119607128Y-93856138D01*
X119630038Y-93869869D01*
X119651492Y-93885780D01*
X119671282Y-93903718D01*
X119689220Y-93923508D01*
X119705131Y-93944962D01*
X119718862Y-93967872D01*
X119730282Y-93992017D01*
X119739280Y-94017165D01*
X119745770Y-94043075D01*
X119749689Y-94069495D01*
X119751000Y-94096173D01*
X119751000Y-94803827D01*
X119749689Y-94830505D01*
X119745770Y-94856925D01*
X119739280Y-94882835D01*
X119730282Y-94907983D01*
X119718862Y-94932128D01*
X119705131Y-94955038D01*
X119689220Y-94976492D01*
X119671282Y-94996282D01*
X119651492Y-95014220D01*
X119630038Y-95030131D01*
X119607128Y-95043862D01*
X119582983Y-95055282D01*
X119557835Y-95064280D01*
X119531925Y-95070770D01*
X119505505Y-95074689D01*
X119478827Y-95076000D01*
X118521173Y-95076000D01*
X118494495Y-95074689D01*
X118468075Y-95070770D01*
X118442165Y-95064280D01*
X118417017Y-95055282D01*
X118392872Y-95043862D01*
X118369962Y-95030131D01*
X118348508Y-95014220D01*
X118328718Y-94996282D01*
X118310780Y-94976492D01*
X118294869Y-94955038D01*
X118281138Y-94932128D01*
X118269718Y-94907983D01*
X118260720Y-94882835D01*
X118254230Y-94856925D01*
X118250311Y-94830505D01*
X118249000Y-94803827D01*
X118249000Y-94096173D01*
X118250311Y-94069495D01*
X118254230Y-94043075D01*
X118260720Y-94017165D01*
X118269718Y-93992017D01*
X118281138Y-93967872D01*
X118294869Y-93944962D01*
X118310780Y-93923508D01*
X118328718Y-93903718D01*
X118348508Y-93885780D01*
X118369962Y-93869869D01*
X118392872Y-93856138D01*
X118417017Y-93844718D01*
X118442165Y-93835720D01*
X118468075Y-93829230D01*
X118494495Y-93825311D01*
X118521173Y-93824000D01*
X119478827Y-93824000D01*
X119505505Y-93825311D01*
X119505505Y-93825311D01*
G37*
D17*
X119000000Y-94450000D03*
D15*
G36*
X119505505Y-95875311D02*
G01*
X119531925Y-95879230D01*
X119557835Y-95885720D01*
X119582983Y-95894718D01*
X119607128Y-95906138D01*
X119630038Y-95919869D01*
X119651492Y-95935780D01*
X119671282Y-95953718D01*
X119689220Y-95973508D01*
X119705131Y-95994962D01*
X119718862Y-96017872D01*
X119730282Y-96042017D01*
X119739280Y-96067165D01*
X119745770Y-96093075D01*
X119749689Y-96119495D01*
X119751000Y-96146173D01*
X119751000Y-96853827D01*
X119749689Y-96880505D01*
X119745770Y-96906925D01*
X119739280Y-96932835D01*
X119730282Y-96957983D01*
X119718862Y-96982128D01*
X119705131Y-97005038D01*
X119689220Y-97026492D01*
X119671282Y-97046282D01*
X119651492Y-97064220D01*
X119630038Y-97080131D01*
X119607128Y-97093862D01*
X119582983Y-97105282D01*
X119557835Y-97114280D01*
X119531925Y-97120770D01*
X119505505Y-97124689D01*
X119478827Y-97126000D01*
X118521173Y-97126000D01*
X118494495Y-97124689D01*
X118468075Y-97120770D01*
X118442165Y-97114280D01*
X118417017Y-97105282D01*
X118392872Y-97093862D01*
X118369962Y-97080131D01*
X118348508Y-97064220D01*
X118328718Y-97046282D01*
X118310780Y-97026492D01*
X118294869Y-97005038D01*
X118281138Y-96982128D01*
X118269718Y-96957983D01*
X118260720Y-96932835D01*
X118254230Y-96906925D01*
X118250311Y-96880505D01*
X118249000Y-96853827D01*
X118249000Y-96146173D01*
X118250311Y-96119495D01*
X118254230Y-96093075D01*
X118260720Y-96067165D01*
X118269718Y-96042017D01*
X118281138Y-96017872D01*
X118294869Y-95994962D01*
X118310780Y-95973508D01*
X118328718Y-95953718D01*
X118348508Y-95935780D01*
X118369962Y-95919869D01*
X118392872Y-95906138D01*
X118417017Y-95894718D01*
X118442165Y-95885720D01*
X118468075Y-95879230D01*
X118494495Y-95875311D01*
X118521173Y-95874000D01*
X119478827Y-95874000D01*
X119505505Y-95875311D01*
X119505505Y-95875311D01*
G37*
D17*
X119000000Y-96500000D03*
D20*
X120685560Y-91328160D03*
X120685560Y-99578160D03*
D15*
G36*
X125880505Y-95750311D02*
G01*
X125906925Y-95754230D01*
X125932835Y-95760720D01*
X125957983Y-95769718D01*
X125982128Y-95781138D01*
X126005038Y-95794869D01*
X126026492Y-95810780D01*
X126046282Y-95828718D01*
X126064220Y-95848508D01*
X126080131Y-95869962D01*
X126093862Y-95892872D01*
X126105282Y-95917017D01*
X126114280Y-95942165D01*
X126120770Y-95968075D01*
X126124689Y-95994495D01*
X126126000Y-96021173D01*
X126126000Y-96978827D01*
X126124689Y-97005505D01*
X126120770Y-97031925D01*
X126114280Y-97057835D01*
X126105282Y-97082983D01*
X126093862Y-97107128D01*
X126080131Y-97130038D01*
X126064220Y-97151492D01*
X126046282Y-97171282D01*
X126026492Y-97189220D01*
X126005038Y-97205131D01*
X125982128Y-97218862D01*
X125957983Y-97230282D01*
X125932835Y-97239280D01*
X125906925Y-97245770D01*
X125880505Y-97249689D01*
X125853827Y-97251000D01*
X125146173Y-97251000D01*
X125119495Y-97249689D01*
X125093075Y-97245770D01*
X125067165Y-97239280D01*
X125042017Y-97230282D01*
X125017872Y-97218862D01*
X124994962Y-97205131D01*
X124973508Y-97189220D01*
X124953718Y-97171282D01*
X124935780Y-97151492D01*
X124919869Y-97130038D01*
X124906138Y-97107128D01*
X124894718Y-97082983D01*
X124885720Y-97057835D01*
X124879230Y-97031925D01*
X124875311Y-97005505D01*
X124874000Y-96978827D01*
X124874000Y-96021173D01*
X124875311Y-95994495D01*
X124879230Y-95968075D01*
X124885720Y-95942165D01*
X124894718Y-95917017D01*
X124906138Y-95892872D01*
X124919869Y-95869962D01*
X124935780Y-95848508D01*
X124953718Y-95828718D01*
X124973508Y-95810780D01*
X124994962Y-95794869D01*
X125017872Y-95781138D01*
X125042017Y-95769718D01*
X125067165Y-95760720D01*
X125093075Y-95754230D01*
X125119495Y-95750311D01*
X125146173Y-95749000D01*
X125853827Y-95749000D01*
X125880505Y-95750311D01*
X125880505Y-95750311D01*
G37*
D17*
X125500000Y-96500000D03*
D15*
G36*
X127930505Y-95750311D02*
G01*
X127956925Y-95754230D01*
X127982835Y-95760720D01*
X128007983Y-95769718D01*
X128032128Y-95781138D01*
X128055038Y-95794869D01*
X128076492Y-95810780D01*
X128096282Y-95828718D01*
X128114220Y-95848508D01*
X128130131Y-95869962D01*
X128143862Y-95892872D01*
X128155282Y-95917017D01*
X128164280Y-95942165D01*
X128170770Y-95968075D01*
X128174689Y-95994495D01*
X128176000Y-96021173D01*
X128176000Y-96978827D01*
X128174689Y-97005505D01*
X128170770Y-97031925D01*
X128164280Y-97057835D01*
X128155282Y-97082983D01*
X128143862Y-97107128D01*
X128130131Y-97130038D01*
X128114220Y-97151492D01*
X128096282Y-97171282D01*
X128076492Y-97189220D01*
X128055038Y-97205131D01*
X128032128Y-97218862D01*
X128007983Y-97230282D01*
X127982835Y-97239280D01*
X127956925Y-97245770D01*
X127930505Y-97249689D01*
X127903827Y-97251000D01*
X127196173Y-97251000D01*
X127169495Y-97249689D01*
X127143075Y-97245770D01*
X127117165Y-97239280D01*
X127092017Y-97230282D01*
X127067872Y-97218862D01*
X127044962Y-97205131D01*
X127023508Y-97189220D01*
X127003718Y-97171282D01*
X126985780Y-97151492D01*
X126969869Y-97130038D01*
X126956138Y-97107128D01*
X126944718Y-97082983D01*
X126935720Y-97057835D01*
X126929230Y-97031925D01*
X126925311Y-97005505D01*
X126924000Y-96978827D01*
X126924000Y-96021173D01*
X126925311Y-95994495D01*
X126929230Y-95968075D01*
X126935720Y-95942165D01*
X126944718Y-95917017D01*
X126956138Y-95892872D01*
X126969869Y-95869962D01*
X126985780Y-95848508D01*
X127003718Y-95828718D01*
X127023508Y-95810780D01*
X127044962Y-95794869D01*
X127067872Y-95781138D01*
X127092017Y-95769718D01*
X127117165Y-95760720D01*
X127143075Y-95754230D01*
X127169495Y-95750311D01*
X127196173Y-95749000D01*
X127903827Y-95749000D01*
X127930505Y-95750311D01*
X127930505Y-95750311D01*
G37*
D17*
X127550000Y-96500000D03*
D21*
X131480560Y-103914600D03*
X131480560Y-99034600D03*
D15*
G36*
X199842702Y-74054845D02*
G01*
X199859738Y-74057372D01*
X199876445Y-74061557D01*
X199892661Y-74067359D01*
X199908230Y-74074723D01*
X199923003Y-74083577D01*
X199936836Y-74093837D01*
X199949597Y-74105403D01*
X199961163Y-74118164D01*
X199971423Y-74131997D01*
X199980277Y-74146770D01*
X199987641Y-74162339D01*
X199993443Y-74178555D01*
X199997628Y-74195262D01*
X200000155Y-74212298D01*
X200001000Y-74229500D01*
X200001000Y-74580500D01*
X200000155Y-74597702D01*
X199997628Y-74614738D01*
X199993443Y-74631445D01*
X199987641Y-74647661D01*
X199980277Y-74663230D01*
X199971423Y-74678003D01*
X199961163Y-74691836D01*
X199949597Y-74704597D01*
X199936836Y-74716163D01*
X199923003Y-74726423D01*
X199908230Y-74735277D01*
X199892661Y-74742641D01*
X199876445Y-74748443D01*
X199859738Y-74752628D01*
X199842702Y-74755155D01*
X199825500Y-74756000D01*
X198124500Y-74756000D01*
X198107298Y-74755155D01*
X198090262Y-74752628D01*
X198073555Y-74748443D01*
X198057339Y-74742641D01*
X198041770Y-74735277D01*
X198026997Y-74726423D01*
X198013164Y-74716163D01*
X198000403Y-74704597D01*
X197988837Y-74691836D01*
X197978577Y-74678003D01*
X197969723Y-74663230D01*
X197962359Y-74647661D01*
X197956557Y-74631445D01*
X197952372Y-74614738D01*
X197949845Y-74597702D01*
X197949000Y-74580500D01*
X197949000Y-74229500D01*
X197949845Y-74212298D01*
X197952372Y-74195262D01*
X197956557Y-74178555D01*
X197962359Y-74162339D01*
X197969723Y-74146770D01*
X197978577Y-74131997D01*
X197988837Y-74118164D01*
X198000403Y-74105403D01*
X198013164Y-74093837D01*
X198026997Y-74083577D01*
X198041770Y-74074723D01*
X198057339Y-74067359D01*
X198073555Y-74061557D01*
X198090262Y-74057372D01*
X198107298Y-74054845D01*
X198124500Y-74054000D01*
X199825500Y-74054000D01*
X199842702Y-74054845D01*
X199842702Y-74054845D01*
G37*
D18*
X198975000Y-74405000D03*
D15*
G36*
X199842702Y-72784845D02*
G01*
X199859738Y-72787372D01*
X199876445Y-72791557D01*
X199892661Y-72797359D01*
X199908230Y-72804723D01*
X199923003Y-72813577D01*
X199936836Y-72823837D01*
X199949597Y-72835403D01*
X199961163Y-72848164D01*
X199971423Y-72861997D01*
X199980277Y-72876770D01*
X199987641Y-72892339D01*
X199993443Y-72908555D01*
X199997628Y-72925262D01*
X200000155Y-72942298D01*
X200001000Y-72959500D01*
X200001000Y-73310500D01*
X200000155Y-73327702D01*
X199997628Y-73344738D01*
X199993443Y-73361445D01*
X199987641Y-73377661D01*
X199980277Y-73393230D01*
X199971423Y-73408003D01*
X199961163Y-73421836D01*
X199949597Y-73434597D01*
X199936836Y-73446163D01*
X199923003Y-73456423D01*
X199908230Y-73465277D01*
X199892661Y-73472641D01*
X199876445Y-73478443D01*
X199859738Y-73482628D01*
X199842702Y-73485155D01*
X199825500Y-73486000D01*
X198124500Y-73486000D01*
X198107298Y-73485155D01*
X198090262Y-73482628D01*
X198073555Y-73478443D01*
X198057339Y-73472641D01*
X198041770Y-73465277D01*
X198026997Y-73456423D01*
X198013164Y-73446163D01*
X198000403Y-73434597D01*
X197988837Y-73421836D01*
X197978577Y-73408003D01*
X197969723Y-73393230D01*
X197962359Y-73377661D01*
X197956557Y-73361445D01*
X197952372Y-73344738D01*
X197949845Y-73327702D01*
X197949000Y-73310500D01*
X197949000Y-72959500D01*
X197949845Y-72942298D01*
X197952372Y-72925262D01*
X197956557Y-72908555D01*
X197962359Y-72892339D01*
X197969723Y-72876770D01*
X197978577Y-72861997D01*
X197988837Y-72848164D01*
X198000403Y-72835403D01*
X198013164Y-72823837D01*
X198026997Y-72813577D01*
X198041770Y-72804723D01*
X198057339Y-72797359D01*
X198073555Y-72791557D01*
X198090262Y-72787372D01*
X198107298Y-72784845D01*
X198124500Y-72784000D01*
X199825500Y-72784000D01*
X199842702Y-72784845D01*
X199842702Y-72784845D01*
G37*
D18*
X198975000Y-73135000D03*
D15*
G36*
X199842702Y-71514845D02*
G01*
X199859738Y-71517372D01*
X199876445Y-71521557D01*
X199892661Y-71527359D01*
X199908230Y-71534723D01*
X199923003Y-71543577D01*
X199936836Y-71553837D01*
X199949597Y-71565403D01*
X199961163Y-71578164D01*
X199971423Y-71591997D01*
X199980277Y-71606770D01*
X199987641Y-71622339D01*
X199993443Y-71638555D01*
X199997628Y-71655262D01*
X200000155Y-71672298D01*
X200001000Y-71689500D01*
X200001000Y-72040500D01*
X200000155Y-72057702D01*
X199997628Y-72074738D01*
X199993443Y-72091445D01*
X199987641Y-72107661D01*
X199980277Y-72123230D01*
X199971423Y-72138003D01*
X199961163Y-72151836D01*
X199949597Y-72164597D01*
X199936836Y-72176163D01*
X199923003Y-72186423D01*
X199908230Y-72195277D01*
X199892661Y-72202641D01*
X199876445Y-72208443D01*
X199859738Y-72212628D01*
X199842702Y-72215155D01*
X199825500Y-72216000D01*
X198124500Y-72216000D01*
X198107298Y-72215155D01*
X198090262Y-72212628D01*
X198073555Y-72208443D01*
X198057339Y-72202641D01*
X198041770Y-72195277D01*
X198026997Y-72186423D01*
X198013164Y-72176163D01*
X198000403Y-72164597D01*
X197988837Y-72151836D01*
X197978577Y-72138003D01*
X197969723Y-72123230D01*
X197962359Y-72107661D01*
X197956557Y-72091445D01*
X197952372Y-72074738D01*
X197949845Y-72057702D01*
X197949000Y-72040500D01*
X197949000Y-71689500D01*
X197949845Y-71672298D01*
X197952372Y-71655262D01*
X197956557Y-71638555D01*
X197962359Y-71622339D01*
X197969723Y-71606770D01*
X197978577Y-71591997D01*
X197988837Y-71578164D01*
X198000403Y-71565403D01*
X198013164Y-71553837D01*
X198026997Y-71543577D01*
X198041770Y-71534723D01*
X198057339Y-71527359D01*
X198073555Y-71521557D01*
X198090262Y-71517372D01*
X198107298Y-71514845D01*
X198124500Y-71514000D01*
X199825500Y-71514000D01*
X199842702Y-71514845D01*
X199842702Y-71514845D01*
G37*
D18*
X198975000Y-71865000D03*
D15*
G36*
X199842702Y-70244845D02*
G01*
X199859738Y-70247372D01*
X199876445Y-70251557D01*
X199892661Y-70257359D01*
X199908230Y-70264723D01*
X199923003Y-70273577D01*
X199936836Y-70283837D01*
X199949597Y-70295403D01*
X199961163Y-70308164D01*
X199971423Y-70321997D01*
X199980277Y-70336770D01*
X199987641Y-70352339D01*
X199993443Y-70368555D01*
X199997628Y-70385262D01*
X200000155Y-70402298D01*
X200001000Y-70419500D01*
X200001000Y-70770500D01*
X200000155Y-70787702D01*
X199997628Y-70804738D01*
X199993443Y-70821445D01*
X199987641Y-70837661D01*
X199980277Y-70853230D01*
X199971423Y-70868003D01*
X199961163Y-70881836D01*
X199949597Y-70894597D01*
X199936836Y-70906163D01*
X199923003Y-70916423D01*
X199908230Y-70925277D01*
X199892661Y-70932641D01*
X199876445Y-70938443D01*
X199859738Y-70942628D01*
X199842702Y-70945155D01*
X199825500Y-70946000D01*
X198124500Y-70946000D01*
X198107298Y-70945155D01*
X198090262Y-70942628D01*
X198073555Y-70938443D01*
X198057339Y-70932641D01*
X198041770Y-70925277D01*
X198026997Y-70916423D01*
X198013164Y-70906163D01*
X198000403Y-70894597D01*
X197988837Y-70881836D01*
X197978577Y-70868003D01*
X197969723Y-70853230D01*
X197962359Y-70837661D01*
X197956557Y-70821445D01*
X197952372Y-70804738D01*
X197949845Y-70787702D01*
X197949000Y-70770500D01*
X197949000Y-70419500D01*
X197949845Y-70402298D01*
X197952372Y-70385262D01*
X197956557Y-70368555D01*
X197962359Y-70352339D01*
X197969723Y-70336770D01*
X197978577Y-70321997D01*
X197988837Y-70308164D01*
X198000403Y-70295403D01*
X198013164Y-70283837D01*
X198026997Y-70273577D01*
X198041770Y-70264723D01*
X198057339Y-70257359D01*
X198073555Y-70251557D01*
X198090262Y-70247372D01*
X198107298Y-70244845D01*
X198124500Y-70244000D01*
X199825500Y-70244000D01*
X199842702Y-70244845D01*
X199842702Y-70244845D01*
G37*
D18*
X198975000Y-70595000D03*
D15*
G36*
X194892702Y-70244845D02*
G01*
X194909738Y-70247372D01*
X194926445Y-70251557D01*
X194942661Y-70257359D01*
X194958230Y-70264723D01*
X194973003Y-70273577D01*
X194986836Y-70283837D01*
X194999597Y-70295403D01*
X195011163Y-70308164D01*
X195021423Y-70321997D01*
X195030277Y-70336770D01*
X195037641Y-70352339D01*
X195043443Y-70368555D01*
X195047628Y-70385262D01*
X195050155Y-70402298D01*
X195051000Y-70419500D01*
X195051000Y-70770500D01*
X195050155Y-70787702D01*
X195047628Y-70804738D01*
X195043443Y-70821445D01*
X195037641Y-70837661D01*
X195030277Y-70853230D01*
X195021423Y-70868003D01*
X195011163Y-70881836D01*
X194999597Y-70894597D01*
X194986836Y-70906163D01*
X194973003Y-70916423D01*
X194958230Y-70925277D01*
X194942661Y-70932641D01*
X194926445Y-70938443D01*
X194909738Y-70942628D01*
X194892702Y-70945155D01*
X194875500Y-70946000D01*
X193174500Y-70946000D01*
X193157298Y-70945155D01*
X193140262Y-70942628D01*
X193123555Y-70938443D01*
X193107339Y-70932641D01*
X193091770Y-70925277D01*
X193076997Y-70916423D01*
X193063164Y-70906163D01*
X193050403Y-70894597D01*
X193038837Y-70881836D01*
X193028577Y-70868003D01*
X193019723Y-70853230D01*
X193012359Y-70837661D01*
X193006557Y-70821445D01*
X193002372Y-70804738D01*
X192999845Y-70787702D01*
X192999000Y-70770500D01*
X192999000Y-70419500D01*
X192999845Y-70402298D01*
X193002372Y-70385262D01*
X193006557Y-70368555D01*
X193012359Y-70352339D01*
X193019723Y-70336770D01*
X193028577Y-70321997D01*
X193038837Y-70308164D01*
X193050403Y-70295403D01*
X193063164Y-70283837D01*
X193076997Y-70273577D01*
X193091770Y-70264723D01*
X193107339Y-70257359D01*
X193123555Y-70251557D01*
X193140262Y-70247372D01*
X193157298Y-70244845D01*
X193174500Y-70244000D01*
X194875500Y-70244000D01*
X194892702Y-70244845D01*
X194892702Y-70244845D01*
G37*
D18*
X194025000Y-70595000D03*
D15*
G36*
X194892702Y-71514845D02*
G01*
X194909738Y-71517372D01*
X194926445Y-71521557D01*
X194942661Y-71527359D01*
X194958230Y-71534723D01*
X194973003Y-71543577D01*
X194986836Y-71553837D01*
X194999597Y-71565403D01*
X195011163Y-71578164D01*
X195021423Y-71591997D01*
X195030277Y-71606770D01*
X195037641Y-71622339D01*
X195043443Y-71638555D01*
X195047628Y-71655262D01*
X195050155Y-71672298D01*
X195051000Y-71689500D01*
X195051000Y-72040500D01*
X195050155Y-72057702D01*
X195047628Y-72074738D01*
X195043443Y-72091445D01*
X195037641Y-72107661D01*
X195030277Y-72123230D01*
X195021423Y-72138003D01*
X195011163Y-72151836D01*
X194999597Y-72164597D01*
X194986836Y-72176163D01*
X194973003Y-72186423D01*
X194958230Y-72195277D01*
X194942661Y-72202641D01*
X194926445Y-72208443D01*
X194909738Y-72212628D01*
X194892702Y-72215155D01*
X194875500Y-72216000D01*
X193174500Y-72216000D01*
X193157298Y-72215155D01*
X193140262Y-72212628D01*
X193123555Y-72208443D01*
X193107339Y-72202641D01*
X193091770Y-72195277D01*
X193076997Y-72186423D01*
X193063164Y-72176163D01*
X193050403Y-72164597D01*
X193038837Y-72151836D01*
X193028577Y-72138003D01*
X193019723Y-72123230D01*
X193012359Y-72107661D01*
X193006557Y-72091445D01*
X193002372Y-72074738D01*
X192999845Y-72057702D01*
X192999000Y-72040500D01*
X192999000Y-71689500D01*
X192999845Y-71672298D01*
X193002372Y-71655262D01*
X193006557Y-71638555D01*
X193012359Y-71622339D01*
X193019723Y-71606770D01*
X193028577Y-71591997D01*
X193038837Y-71578164D01*
X193050403Y-71565403D01*
X193063164Y-71553837D01*
X193076997Y-71543577D01*
X193091770Y-71534723D01*
X193107339Y-71527359D01*
X193123555Y-71521557D01*
X193140262Y-71517372D01*
X193157298Y-71514845D01*
X193174500Y-71514000D01*
X194875500Y-71514000D01*
X194892702Y-71514845D01*
X194892702Y-71514845D01*
G37*
D18*
X194025000Y-71865000D03*
D15*
G36*
X194892702Y-72784845D02*
G01*
X194909738Y-72787372D01*
X194926445Y-72791557D01*
X194942661Y-72797359D01*
X194958230Y-72804723D01*
X194973003Y-72813577D01*
X194986836Y-72823837D01*
X194999597Y-72835403D01*
X195011163Y-72848164D01*
X195021423Y-72861997D01*
X195030277Y-72876770D01*
X195037641Y-72892339D01*
X195043443Y-72908555D01*
X195047628Y-72925262D01*
X195050155Y-72942298D01*
X195051000Y-72959500D01*
X195051000Y-73310500D01*
X195050155Y-73327702D01*
X195047628Y-73344738D01*
X195043443Y-73361445D01*
X195037641Y-73377661D01*
X195030277Y-73393230D01*
X195021423Y-73408003D01*
X195011163Y-73421836D01*
X194999597Y-73434597D01*
X194986836Y-73446163D01*
X194973003Y-73456423D01*
X194958230Y-73465277D01*
X194942661Y-73472641D01*
X194926445Y-73478443D01*
X194909738Y-73482628D01*
X194892702Y-73485155D01*
X194875500Y-73486000D01*
X193174500Y-73486000D01*
X193157298Y-73485155D01*
X193140262Y-73482628D01*
X193123555Y-73478443D01*
X193107339Y-73472641D01*
X193091770Y-73465277D01*
X193076997Y-73456423D01*
X193063164Y-73446163D01*
X193050403Y-73434597D01*
X193038837Y-73421836D01*
X193028577Y-73408003D01*
X193019723Y-73393230D01*
X193012359Y-73377661D01*
X193006557Y-73361445D01*
X193002372Y-73344738D01*
X192999845Y-73327702D01*
X192999000Y-73310500D01*
X192999000Y-72959500D01*
X192999845Y-72942298D01*
X193002372Y-72925262D01*
X193006557Y-72908555D01*
X193012359Y-72892339D01*
X193019723Y-72876770D01*
X193028577Y-72861997D01*
X193038837Y-72848164D01*
X193050403Y-72835403D01*
X193063164Y-72823837D01*
X193076997Y-72813577D01*
X193091770Y-72804723D01*
X193107339Y-72797359D01*
X193123555Y-72791557D01*
X193140262Y-72787372D01*
X193157298Y-72784845D01*
X193174500Y-72784000D01*
X194875500Y-72784000D01*
X194892702Y-72784845D01*
X194892702Y-72784845D01*
G37*
D18*
X194025000Y-73135000D03*
D15*
G36*
X194892702Y-74054845D02*
G01*
X194909738Y-74057372D01*
X194926445Y-74061557D01*
X194942661Y-74067359D01*
X194958230Y-74074723D01*
X194973003Y-74083577D01*
X194986836Y-74093837D01*
X194999597Y-74105403D01*
X195011163Y-74118164D01*
X195021423Y-74131997D01*
X195030277Y-74146770D01*
X195037641Y-74162339D01*
X195043443Y-74178555D01*
X195047628Y-74195262D01*
X195050155Y-74212298D01*
X195051000Y-74229500D01*
X195051000Y-74580500D01*
X195050155Y-74597702D01*
X195047628Y-74614738D01*
X195043443Y-74631445D01*
X195037641Y-74647661D01*
X195030277Y-74663230D01*
X195021423Y-74678003D01*
X195011163Y-74691836D01*
X194999597Y-74704597D01*
X194986836Y-74716163D01*
X194973003Y-74726423D01*
X194958230Y-74735277D01*
X194942661Y-74742641D01*
X194926445Y-74748443D01*
X194909738Y-74752628D01*
X194892702Y-74755155D01*
X194875500Y-74756000D01*
X193174500Y-74756000D01*
X193157298Y-74755155D01*
X193140262Y-74752628D01*
X193123555Y-74748443D01*
X193107339Y-74742641D01*
X193091770Y-74735277D01*
X193076997Y-74726423D01*
X193063164Y-74716163D01*
X193050403Y-74704597D01*
X193038837Y-74691836D01*
X193028577Y-74678003D01*
X193019723Y-74663230D01*
X193012359Y-74647661D01*
X193006557Y-74631445D01*
X193002372Y-74614738D01*
X192999845Y-74597702D01*
X192999000Y-74580500D01*
X192999000Y-74229500D01*
X192999845Y-74212298D01*
X193002372Y-74195262D01*
X193006557Y-74178555D01*
X193012359Y-74162339D01*
X193019723Y-74146770D01*
X193028577Y-74131997D01*
X193038837Y-74118164D01*
X193050403Y-74105403D01*
X193063164Y-74093837D01*
X193076997Y-74083577D01*
X193091770Y-74074723D01*
X193107339Y-74067359D01*
X193123555Y-74061557D01*
X193140262Y-74057372D01*
X193157298Y-74054845D01*
X193174500Y-74054000D01*
X194875500Y-74054000D01*
X194892702Y-74054845D01*
X194892702Y-74054845D01*
G37*
D18*
X194025000Y-74405000D03*
D22*
X125023440Y-110669240D03*
X125023440Y-108769240D03*
X122323440Y-108769240D03*
X122323440Y-109719240D03*
X122323440Y-110669240D03*
D15*
G36*
X141994505Y-86219911D02*
G01*
X142020925Y-86223830D01*
X142046835Y-86230320D01*
X142071983Y-86239318D01*
X142096128Y-86250738D01*
X142119038Y-86264469D01*
X142140492Y-86280380D01*
X142160282Y-86298318D01*
X142178220Y-86318108D01*
X142194131Y-86339562D01*
X142207862Y-86362472D01*
X142219282Y-86386617D01*
X142228280Y-86411765D01*
X142234770Y-86437675D01*
X142238689Y-86464095D01*
X142240000Y-86490773D01*
X142240000Y-87448427D01*
X142238689Y-87475105D01*
X142234770Y-87501525D01*
X142228280Y-87527435D01*
X142219282Y-87552583D01*
X142207862Y-87576728D01*
X142194131Y-87599638D01*
X142178220Y-87621092D01*
X142160282Y-87640882D01*
X142140492Y-87658820D01*
X142119038Y-87674731D01*
X142096128Y-87688462D01*
X142071983Y-87699882D01*
X142046835Y-87708880D01*
X142020925Y-87715370D01*
X141994505Y-87719289D01*
X141967827Y-87720600D01*
X141260173Y-87720600D01*
X141233495Y-87719289D01*
X141207075Y-87715370D01*
X141181165Y-87708880D01*
X141156017Y-87699882D01*
X141131872Y-87688462D01*
X141108962Y-87674731D01*
X141087508Y-87658820D01*
X141067718Y-87640882D01*
X141049780Y-87621092D01*
X141033869Y-87599638D01*
X141020138Y-87576728D01*
X141008718Y-87552583D01*
X140999720Y-87527435D01*
X140993230Y-87501525D01*
X140989311Y-87475105D01*
X140988000Y-87448427D01*
X140988000Y-86490773D01*
X140989311Y-86464095D01*
X140993230Y-86437675D01*
X140999720Y-86411765D01*
X141008718Y-86386617D01*
X141020138Y-86362472D01*
X141033869Y-86339562D01*
X141049780Y-86318108D01*
X141067718Y-86298318D01*
X141087508Y-86280380D01*
X141108962Y-86264469D01*
X141131872Y-86250738D01*
X141156017Y-86239318D01*
X141181165Y-86230320D01*
X141207075Y-86223830D01*
X141233495Y-86219911D01*
X141260173Y-86218600D01*
X141967827Y-86218600D01*
X141994505Y-86219911D01*
X141994505Y-86219911D01*
G37*
D17*
X141614000Y-86969600D03*
D15*
G36*
X139944505Y-86219911D02*
G01*
X139970925Y-86223830D01*
X139996835Y-86230320D01*
X140021983Y-86239318D01*
X140046128Y-86250738D01*
X140069038Y-86264469D01*
X140090492Y-86280380D01*
X140110282Y-86298318D01*
X140128220Y-86318108D01*
X140144131Y-86339562D01*
X140157862Y-86362472D01*
X140169282Y-86386617D01*
X140178280Y-86411765D01*
X140184770Y-86437675D01*
X140188689Y-86464095D01*
X140190000Y-86490773D01*
X140190000Y-87448427D01*
X140188689Y-87475105D01*
X140184770Y-87501525D01*
X140178280Y-87527435D01*
X140169282Y-87552583D01*
X140157862Y-87576728D01*
X140144131Y-87599638D01*
X140128220Y-87621092D01*
X140110282Y-87640882D01*
X140090492Y-87658820D01*
X140069038Y-87674731D01*
X140046128Y-87688462D01*
X140021983Y-87699882D01*
X139996835Y-87708880D01*
X139970925Y-87715370D01*
X139944505Y-87719289D01*
X139917827Y-87720600D01*
X139210173Y-87720600D01*
X139183495Y-87719289D01*
X139157075Y-87715370D01*
X139131165Y-87708880D01*
X139106017Y-87699882D01*
X139081872Y-87688462D01*
X139058962Y-87674731D01*
X139037508Y-87658820D01*
X139017718Y-87640882D01*
X138999780Y-87621092D01*
X138983869Y-87599638D01*
X138970138Y-87576728D01*
X138958718Y-87552583D01*
X138949720Y-87527435D01*
X138943230Y-87501525D01*
X138939311Y-87475105D01*
X138938000Y-87448427D01*
X138938000Y-86490773D01*
X138939311Y-86464095D01*
X138943230Y-86437675D01*
X138949720Y-86411765D01*
X138958718Y-86386617D01*
X138970138Y-86362472D01*
X138983869Y-86339562D01*
X138999780Y-86318108D01*
X139017718Y-86298318D01*
X139037508Y-86280380D01*
X139058962Y-86264469D01*
X139081872Y-86250738D01*
X139106017Y-86239318D01*
X139131165Y-86230320D01*
X139157075Y-86223830D01*
X139183495Y-86219911D01*
X139210173Y-86218600D01*
X139917827Y-86218600D01*
X139944505Y-86219911D01*
X139944505Y-86219911D01*
G37*
D17*
X139564000Y-86969600D03*
D15*
G36*
X162505505Y-76350311D02*
G01*
X162531925Y-76354230D01*
X162557835Y-76360720D01*
X162582983Y-76369718D01*
X162607128Y-76381138D01*
X162630038Y-76394869D01*
X162651492Y-76410780D01*
X162671282Y-76428718D01*
X162689220Y-76448508D01*
X162705131Y-76469962D01*
X162718862Y-76492872D01*
X162730282Y-76517017D01*
X162739280Y-76542165D01*
X162745770Y-76568075D01*
X162749689Y-76594495D01*
X162751000Y-76621173D01*
X162751000Y-77328827D01*
X162749689Y-77355505D01*
X162745770Y-77381925D01*
X162739280Y-77407835D01*
X162730282Y-77432983D01*
X162718862Y-77457128D01*
X162705131Y-77480038D01*
X162689220Y-77501492D01*
X162671282Y-77521282D01*
X162651492Y-77539220D01*
X162630038Y-77555131D01*
X162607128Y-77568862D01*
X162582983Y-77580282D01*
X162557835Y-77589280D01*
X162531925Y-77595770D01*
X162505505Y-77599689D01*
X162478827Y-77601000D01*
X161521173Y-77601000D01*
X161494495Y-77599689D01*
X161468075Y-77595770D01*
X161442165Y-77589280D01*
X161417017Y-77580282D01*
X161392872Y-77568862D01*
X161369962Y-77555131D01*
X161348508Y-77539220D01*
X161328718Y-77521282D01*
X161310780Y-77501492D01*
X161294869Y-77480038D01*
X161281138Y-77457128D01*
X161269718Y-77432983D01*
X161260720Y-77407835D01*
X161254230Y-77381925D01*
X161250311Y-77355505D01*
X161249000Y-77328827D01*
X161249000Y-76621173D01*
X161250311Y-76594495D01*
X161254230Y-76568075D01*
X161260720Y-76542165D01*
X161269718Y-76517017D01*
X161281138Y-76492872D01*
X161294869Y-76469962D01*
X161310780Y-76448508D01*
X161328718Y-76428718D01*
X161348508Y-76410780D01*
X161369962Y-76394869D01*
X161392872Y-76381138D01*
X161417017Y-76369718D01*
X161442165Y-76360720D01*
X161468075Y-76354230D01*
X161494495Y-76350311D01*
X161521173Y-76349000D01*
X162478827Y-76349000D01*
X162505505Y-76350311D01*
X162505505Y-76350311D01*
G37*
D17*
X162000000Y-76975000D03*
D15*
G36*
X162505505Y-78400311D02*
G01*
X162531925Y-78404230D01*
X162557835Y-78410720D01*
X162582983Y-78419718D01*
X162607128Y-78431138D01*
X162630038Y-78444869D01*
X162651492Y-78460780D01*
X162671282Y-78478718D01*
X162689220Y-78498508D01*
X162705131Y-78519962D01*
X162718862Y-78542872D01*
X162730282Y-78567017D01*
X162739280Y-78592165D01*
X162745770Y-78618075D01*
X162749689Y-78644495D01*
X162751000Y-78671173D01*
X162751000Y-79378827D01*
X162749689Y-79405505D01*
X162745770Y-79431925D01*
X162739280Y-79457835D01*
X162730282Y-79482983D01*
X162718862Y-79507128D01*
X162705131Y-79530038D01*
X162689220Y-79551492D01*
X162671282Y-79571282D01*
X162651492Y-79589220D01*
X162630038Y-79605131D01*
X162607128Y-79618862D01*
X162582983Y-79630282D01*
X162557835Y-79639280D01*
X162531925Y-79645770D01*
X162505505Y-79649689D01*
X162478827Y-79651000D01*
X161521173Y-79651000D01*
X161494495Y-79649689D01*
X161468075Y-79645770D01*
X161442165Y-79639280D01*
X161417017Y-79630282D01*
X161392872Y-79618862D01*
X161369962Y-79605131D01*
X161348508Y-79589220D01*
X161328718Y-79571282D01*
X161310780Y-79551492D01*
X161294869Y-79530038D01*
X161281138Y-79507128D01*
X161269718Y-79482983D01*
X161260720Y-79457835D01*
X161254230Y-79431925D01*
X161250311Y-79405505D01*
X161249000Y-79378827D01*
X161249000Y-78671173D01*
X161250311Y-78644495D01*
X161254230Y-78618075D01*
X161260720Y-78592165D01*
X161269718Y-78567017D01*
X161281138Y-78542872D01*
X161294869Y-78519962D01*
X161310780Y-78498508D01*
X161328718Y-78478718D01*
X161348508Y-78460780D01*
X161369962Y-78444869D01*
X161392872Y-78431138D01*
X161417017Y-78419718D01*
X161442165Y-78410720D01*
X161468075Y-78404230D01*
X161494495Y-78400311D01*
X161521173Y-78399000D01*
X162478827Y-78399000D01*
X162505505Y-78400311D01*
X162505505Y-78400311D01*
G37*
D17*
X162000000Y-79025000D03*
D15*
G36*
X144505505Y-71350311D02*
G01*
X144531925Y-71354230D01*
X144557835Y-71360720D01*
X144582983Y-71369718D01*
X144607128Y-71381138D01*
X144630038Y-71394869D01*
X144651492Y-71410780D01*
X144671282Y-71428718D01*
X144689220Y-71448508D01*
X144705131Y-71469962D01*
X144718862Y-71492872D01*
X144730282Y-71517017D01*
X144739280Y-71542165D01*
X144745770Y-71568075D01*
X144749689Y-71594495D01*
X144751000Y-71621173D01*
X144751000Y-72328827D01*
X144749689Y-72355505D01*
X144745770Y-72381925D01*
X144739280Y-72407835D01*
X144730282Y-72432983D01*
X144718862Y-72457128D01*
X144705131Y-72480038D01*
X144689220Y-72501492D01*
X144671282Y-72521282D01*
X144651492Y-72539220D01*
X144630038Y-72555131D01*
X144607128Y-72568862D01*
X144582983Y-72580282D01*
X144557835Y-72589280D01*
X144531925Y-72595770D01*
X144505505Y-72599689D01*
X144478827Y-72601000D01*
X143521173Y-72601000D01*
X143494495Y-72599689D01*
X143468075Y-72595770D01*
X143442165Y-72589280D01*
X143417017Y-72580282D01*
X143392872Y-72568862D01*
X143369962Y-72555131D01*
X143348508Y-72539220D01*
X143328718Y-72521282D01*
X143310780Y-72501492D01*
X143294869Y-72480038D01*
X143281138Y-72457128D01*
X143269718Y-72432983D01*
X143260720Y-72407835D01*
X143254230Y-72381925D01*
X143250311Y-72355505D01*
X143249000Y-72328827D01*
X143249000Y-71621173D01*
X143250311Y-71594495D01*
X143254230Y-71568075D01*
X143260720Y-71542165D01*
X143269718Y-71517017D01*
X143281138Y-71492872D01*
X143294869Y-71469962D01*
X143310780Y-71448508D01*
X143328718Y-71428718D01*
X143348508Y-71410780D01*
X143369962Y-71394869D01*
X143392872Y-71381138D01*
X143417017Y-71369718D01*
X143442165Y-71360720D01*
X143468075Y-71354230D01*
X143494495Y-71350311D01*
X143521173Y-71349000D01*
X144478827Y-71349000D01*
X144505505Y-71350311D01*
X144505505Y-71350311D01*
G37*
D17*
X144000000Y-71975000D03*
D15*
G36*
X144505505Y-73400311D02*
G01*
X144531925Y-73404230D01*
X144557835Y-73410720D01*
X144582983Y-73419718D01*
X144607128Y-73431138D01*
X144630038Y-73444869D01*
X144651492Y-73460780D01*
X144671282Y-73478718D01*
X144689220Y-73498508D01*
X144705131Y-73519962D01*
X144718862Y-73542872D01*
X144730282Y-73567017D01*
X144739280Y-73592165D01*
X144745770Y-73618075D01*
X144749689Y-73644495D01*
X144751000Y-73671173D01*
X144751000Y-74378827D01*
X144749689Y-74405505D01*
X144745770Y-74431925D01*
X144739280Y-74457835D01*
X144730282Y-74482983D01*
X144718862Y-74507128D01*
X144705131Y-74530038D01*
X144689220Y-74551492D01*
X144671282Y-74571282D01*
X144651492Y-74589220D01*
X144630038Y-74605131D01*
X144607128Y-74618862D01*
X144582983Y-74630282D01*
X144557835Y-74639280D01*
X144531925Y-74645770D01*
X144505505Y-74649689D01*
X144478827Y-74651000D01*
X143521173Y-74651000D01*
X143494495Y-74649689D01*
X143468075Y-74645770D01*
X143442165Y-74639280D01*
X143417017Y-74630282D01*
X143392872Y-74618862D01*
X143369962Y-74605131D01*
X143348508Y-74589220D01*
X143328718Y-74571282D01*
X143310780Y-74551492D01*
X143294869Y-74530038D01*
X143281138Y-74507128D01*
X143269718Y-74482983D01*
X143260720Y-74457835D01*
X143254230Y-74431925D01*
X143250311Y-74405505D01*
X143249000Y-74378827D01*
X143249000Y-73671173D01*
X143250311Y-73644495D01*
X143254230Y-73618075D01*
X143260720Y-73592165D01*
X143269718Y-73567017D01*
X143281138Y-73542872D01*
X143294869Y-73519962D01*
X143310780Y-73498508D01*
X143328718Y-73478718D01*
X143348508Y-73460780D01*
X143369962Y-73444869D01*
X143392872Y-73431138D01*
X143417017Y-73419718D01*
X143442165Y-73410720D01*
X143468075Y-73404230D01*
X143494495Y-73400311D01*
X143521173Y-73399000D01*
X144478827Y-73399000D01*
X144505505Y-73400311D01*
X144505505Y-73400311D01*
G37*
D17*
X144000000Y-74025000D03*
D15*
G36*
X128702465Y-87947111D02*
G01*
X128728885Y-87951030D01*
X128754795Y-87957520D01*
X128779943Y-87966518D01*
X128804088Y-87977938D01*
X128826998Y-87991669D01*
X128848452Y-88007580D01*
X128868242Y-88025518D01*
X128886180Y-88045308D01*
X128902091Y-88066762D01*
X128915822Y-88089672D01*
X128927242Y-88113817D01*
X128936240Y-88138965D01*
X128942730Y-88164875D01*
X128946649Y-88191295D01*
X128947960Y-88217973D01*
X128947960Y-89175627D01*
X128946649Y-89202305D01*
X128942730Y-89228725D01*
X128936240Y-89254635D01*
X128927242Y-89279783D01*
X128915822Y-89303928D01*
X128902091Y-89326838D01*
X128886180Y-89348292D01*
X128868242Y-89368082D01*
X128848452Y-89386020D01*
X128826998Y-89401931D01*
X128804088Y-89415662D01*
X128779943Y-89427082D01*
X128754795Y-89436080D01*
X128728885Y-89442570D01*
X128702465Y-89446489D01*
X128675787Y-89447800D01*
X127968133Y-89447800D01*
X127941455Y-89446489D01*
X127915035Y-89442570D01*
X127889125Y-89436080D01*
X127863977Y-89427082D01*
X127839832Y-89415662D01*
X127816922Y-89401931D01*
X127795468Y-89386020D01*
X127775678Y-89368082D01*
X127757740Y-89348292D01*
X127741829Y-89326838D01*
X127728098Y-89303928D01*
X127716678Y-89279783D01*
X127707680Y-89254635D01*
X127701190Y-89228725D01*
X127697271Y-89202305D01*
X127695960Y-89175627D01*
X127695960Y-88217973D01*
X127697271Y-88191295D01*
X127701190Y-88164875D01*
X127707680Y-88138965D01*
X127716678Y-88113817D01*
X127728098Y-88089672D01*
X127741829Y-88066762D01*
X127757740Y-88045308D01*
X127775678Y-88025518D01*
X127795468Y-88007580D01*
X127816922Y-87991669D01*
X127839832Y-87977938D01*
X127863977Y-87966518D01*
X127889125Y-87957520D01*
X127915035Y-87951030D01*
X127941455Y-87947111D01*
X127968133Y-87945800D01*
X128675787Y-87945800D01*
X128702465Y-87947111D01*
X128702465Y-87947111D01*
G37*
D17*
X128321960Y-88696800D03*
D15*
G36*
X130752465Y-87947111D02*
G01*
X130778885Y-87951030D01*
X130804795Y-87957520D01*
X130829943Y-87966518D01*
X130854088Y-87977938D01*
X130876998Y-87991669D01*
X130898452Y-88007580D01*
X130918242Y-88025518D01*
X130936180Y-88045308D01*
X130952091Y-88066762D01*
X130965822Y-88089672D01*
X130977242Y-88113817D01*
X130986240Y-88138965D01*
X130992730Y-88164875D01*
X130996649Y-88191295D01*
X130997960Y-88217973D01*
X130997960Y-89175627D01*
X130996649Y-89202305D01*
X130992730Y-89228725D01*
X130986240Y-89254635D01*
X130977242Y-89279783D01*
X130965822Y-89303928D01*
X130952091Y-89326838D01*
X130936180Y-89348292D01*
X130918242Y-89368082D01*
X130898452Y-89386020D01*
X130876998Y-89401931D01*
X130854088Y-89415662D01*
X130829943Y-89427082D01*
X130804795Y-89436080D01*
X130778885Y-89442570D01*
X130752465Y-89446489D01*
X130725787Y-89447800D01*
X130018133Y-89447800D01*
X129991455Y-89446489D01*
X129965035Y-89442570D01*
X129939125Y-89436080D01*
X129913977Y-89427082D01*
X129889832Y-89415662D01*
X129866922Y-89401931D01*
X129845468Y-89386020D01*
X129825678Y-89368082D01*
X129807740Y-89348292D01*
X129791829Y-89326838D01*
X129778098Y-89303928D01*
X129766678Y-89279783D01*
X129757680Y-89254635D01*
X129751190Y-89228725D01*
X129747271Y-89202305D01*
X129745960Y-89175627D01*
X129745960Y-88217973D01*
X129747271Y-88191295D01*
X129751190Y-88164875D01*
X129757680Y-88138965D01*
X129766678Y-88113817D01*
X129778098Y-88089672D01*
X129791829Y-88066762D01*
X129807740Y-88045308D01*
X129825678Y-88025518D01*
X129845468Y-88007580D01*
X129866922Y-87991669D01*
X129889832Y-87977938D01*
X129913977Y-87966518D01*
X129939125Y-87957520D01*
X129965035Y-87951030D01*
X129991455Y-87947111D01*
X130018133Y-87945800D01*
X130725787Y-87945800D01*
X130752465Y-87947111D01*
X130752465Y-87947111D01*
G37*
D17*
X130371960Y-88696800D03*
D15*
G36*
X139355505Y-73250311D02*
G01*
X139381925Y-73254230D01*
X139407835Y-73260720D01*
X139432983Y-73269718D01*
X139457128Y-73281138D01*
X139480038Y-73294869D01*
X139501492Y-73310780D01*
X139521282Y-73328718D01*
X139539220Y-73348508D01*
X139555131Y-73369962D01*
X139568862Y-73392872D01*
X139580282Y-73417017D01*
X139589280Y-73442165D01*
X139595770Y-73468075D01*
X139599689Y-73494495D01*
X139601000Y-73521173D01*
X139601000Y-74478827D01*
X139599689Y-74505505D01*
X139595770Y-74531925D01*
X139589280Y-74557835D01*
X139580282Y-74582983D01*
X139568862Y-74607128D01*
X139555131Y-74630038D01*
X139539220Y-74651492D01*
X139521282Y-74671282D01*
X139501492Y-74689220D01*
X139480038Y-74705131D01*
X139457128Y-74718862D01*
X139432983Y-74730282D01*
X139407835Y-74739280D01*
X139381925Y-74745770D01*
X139355505Y-74749689D01*
X139328827Y-74751000D01*
X138621173Y-74751000D01*
X138594495Y-74749689D01*
X138568075Y-74745770D01*
X138542165Y-74739280D01*
X138517017Y-74730282D01*
X138492872Y-74718862D01*
X138469962Y-74705131D01*
X138448508Y-74689220D01*
X138428718Y-74671282D01*
X138410780Y-74651492D01*
X138394869Y-74630038D01*
X138381138Y-74607128D01*
X138369718Y-74582983D01*
X138360720Y-74557835D01*
X138354230Y-74531925D01*
X138350311Y-74505505D01*
X138349000Y-74478827D01*
X138349000Y-73521173D01*
X138350311Y-73494495D01*
X138354230Y-73468075D01*
X138360720Y-73442165D01*
X138369718Y-73417017D01*
X138381138Y-73392872D01*
X138394869Y-73369962D01*
X138410780Y-73348508D01*
X138428718Y-73328718D01*
X138448508Y-73310780D01*
X138469962Y-73294869D01*
X138492872Y-73281138D01*
X138517017Y-73269718D01*
X138542165Y-73260720D01*
X138568075Y-73254230D01*
X138594495Y-73250311D01*
X138621173Y-73249000D01*
X139328827Y-73249000D01*
X139355505Y-73250311D01*
X139355505Y-73250311D01*
G37*
D17*
X138975000Y-74000000D03*
D15*
G36*
X141405505Y-73250311D02*
G01*
X141431925Y-73254230D01*
X141457835Y-73260720D01*
X141482983Y-73269718D01*
X141507128Y-73281138D01*
X141530038Y-73294869D01*
X141551492Y-73310780D01*
X141571282Y-73328718D01*
X141589220Y-73348508D01*
X141605131Y-73369962D01*
X141618862Y-73392872D01*
X141630282Y-73417017D01*
X141639280Y-73442165D01*
X141645770Y-73468075D01*
X141649689Y-73494495D01*
X141651000Y-73521173D01*
X141651000Y-74478827D01*
X141649689Y-74505505D01*
X141645770Y-74531925D01*
X141639280Y-74557835D01*
X141630282Y-74582983D01*
X141618862Y-74607128D01*
X141605131Y-74630038D01*
X141589220Y-74651492D01*
X141571282Y-74671282D01*
X141551492Y-74689220D01*
X141530038Y-74705131D01*
X141507128Y-74718862D01*
X141482983Y-74730282D01*
X141457835Y-74739280D01*
X141431925Y-74745770D01*
X141405505Y-74749689D01*
X141378827Y-74751000D01*
X140671173Y-74751000D01*
X140644495Y-74749689D01*
X140618075Y-74745770D01*
X140592165Y-74739280D01*
X140567017Y-74730282D01*
X140542872Y-74718862D01*
X140519962Y-74705131D01*
X140498508Y-74689220D01*
X140478718Y-74671282D01*
X140460780Y-74651492D01*
X140444869Y-74630038D01*
X140431138Y-74607128D01*
X140419718Y-74582983D01*
X140410720Y-74557835D01*
X140404230Y-74531925D01*
X140400311Y-74505505D01*
X140399000Y-74478827D01*
X140399000Y-73521173D01*
X140400311Y-73494495D01*
X140404230Y-73468075D01*
X140410720Y-73442165D01*
X140419718Y-73417017D01*
X140431138Y-73392872D01*
X140444869Y-73369962D01*
X140460780Y-73348508D01*
X140478718Y-73328718D01*
X140498508Y-73310780D01*
X140519962Y-73294869D01*
X140542872Y-73281138D01*
X140567017Y-73269718D01*
X140592165Y-73260720D01*
X140618075Y-73254230D01*
X140644495Y-73250311D01*
X140671173Y-73249000D01*
X141378827Y-73249000D01*
X141405505Y-73250311D01*
X141405505Y-73250311D01*
G37*
D17*
X141025000Y-74000000D03*
D23*
X115050000Y-91500000D03*
X116950000Y-91500000D03*
X116000000Y-94500000D03*
D24*
X144500000Y-80604360D03*
X141500000Y-79654360D03*
X141500000Y-81554360D03*
X156500000Y-72000000D03*
X153500000Y-71050000D03*
X153500000Y-72950000D03*
X137755760Y-81554320D03*
X134755760Y-80604320D03*
X134755760Y-82504320D03*
X150500000Y-73000000D03*
X147500000Y-72050000D03*
X147500000Y-73950000D03*
D25*
X172038000Y-76708000D03*
X177038000Y-76708000D03*
D14*
X116500000Y-99150000D03*
D15*
G36*
X117300398Y-99156112D02*
G01*
X117300398Y-99174534D01*
X117300152Y-99179533D01*
X117295342Y-99228364D01*
X117294608Y-99233314D01*
X117285036Y-99281439D01*
X117283820Y-99286295D01*
X117269576Y-99333250D01*
X117267890Y-99337961D01*
X117249113Y-99383294D01*
X117246973Y-99387820D01*
X117223842Y-99431093D01*
X117221269Y-99435384D01*
X117194009Y-99476183D01*
X117191027Y-99480204D01*
X117159899Y-99518133D01*
X117156538Y-99521841D01*
X117121841Y-99556538D01*
X117118133Y-99559899D01*
X117080204Y-99591027D01*
X117076183Y-99594009D01*
X117035384Y-99621269D01*
X117031093Y-99623842D01*
X116987820Y-99646973D01*
X116983294Y-99649113D01*
X116937961Y-99667890D01*
X116933250Y-99669576D01*
X116886295Y-99683820D01*
X116881439Y-99685036D01*
X116833314Y-99694608D01*
X116828364Y-99695342D01*
X116779533Y-99700152D01*
X116774534Y-99700398D01*
X116756112Y-99700398D01*
X116750000Y-99701000D01*
X116250000Y-99701000D01*
X116243888Y-99700398D01*
X116225466Y-99700398D01*
X116220467Y-99700152D01*
X116171636Y-99695342D01*
X116166686Y-99694608D01*
X116118561Y-99685036D01*
X116113705Y-99683820D01*
X116066750Y-99669576D01*
X116062039Y-99667890D01*
X116016706Y-99649113D01*
X116012180Y-99646973D01*
X115968907Y-99623842D01*
X115964616Y-99621269D01*
X115923817Y-99594009D01*
X115919796Y-99591027D01*
X115881867Y-99559899D01*
X115878159Y-99556538D01*
X115843462Y-99521841D01*
X115840101Y-99518133D01*
X115808973Y-99480204D01*
X115805991Y-99476183D01*
X115778731Y-99435384D01*
X115776158Y-99431093D01*
X115753027Y-99387820D01*
X115750887Y-99383294D01*
X115732110Y-99337961D01*
X115730424Y-99333250D01*
X115716180Y-99286295D01*
X115714964Y-99281439D01*
X115705392Y-99233314D01*
X115704658Y-99228364D01*
X115699848Y-99179533D01*
X115699602Y-99174534D01*
X115699602Y-99156112D01*
X115699000Y-99150000D01*
X115699000Y-98650000D01*
X115699980Y-98640050D01*
X115702882Y-98630483D01*
X115707595Y-98621666D01*
X115713938Y-98613938D01*
X115721666Y-98607595D01*
X115730483Y-98602882D01*
X115740050Y-98599980D01*
X115750000Y-98599000D01*
X117250000Y-98599000D01*
X117259950Y-98599980D01*
X117269517Y-98602882D01*
X117278334Y-98607595D01*
X117286062Y-98613938D01*
X117292405Y-98621666D01*
X117297118Y-98630483D01*
X117300020Y-98640050D01*
X117301000Y-98650000D01*
X117301000Y-99150000D01*
X117300398Y-99156112D01*
X117300398Y-99156112D01*
G37*
D14*
X116500000Y-97850000D03*
D15*
G36*
X117300020Y-98359950D02*
G01*
X117297118Y-98369517D01*
X117292405Y-98378334D01*
X117286062Y-98386062D01*
X117278334Y-98392405D01*
X117269517Y-98397118D01*
X117259950Y-98400020D01*
X117250000Y-98401000D01*
X115750000Y-98401000D01*
X115740050Y-98400020D01*
X115730483Y-98397118D01*
X115721666Y-98392405D01*
X115713938Y-98386062D01*
X115707595Y-98378334D01*
X115702882Y-98369517D01*
X115699980Y-98359950D01*
X115699000Y-98350000D01*
X115699000Y-97850000D01*
X115699602Y-97843888D01*
X115699602Y-97825466D01*
X115699848Y-97820467D01*
X115704658Y-97771636D01*
X115705392Y-97766686D01*
X115714964Y-97718561D01*
X115716180Y-97713705D01*
X115730424Y-97666750D01*
X115732110Y-97662039D01*
X115750887Y-97616706D01*
X115753027Y-97612180D01*
X115776158Y-97568907D01*
X115778731Y-97564616D01*
X115805991Y-97523817D01*
X115808973Y-97519796D01*
X115840101Y-97481867D01*
X115843462Y-97478159D01*
X115878159Y-97443462D01*
X115881867Y-97440101D01*
X115919796Y-97408973D01*
X115923817Y-97405991D01*
X115964616Y-97378731D01*
X115968907Y-97376158D01*
X116012180Y-97353027D01*
X116016706Y-97350887D01*
X116062039Y-97332110D01*
X116066750Y-97330424D01*
X116113705Y-97316180D01*
X116118561Y-97314964D01*
X116166686Y-97305392D01*
X116171636Y-97304658D01*
X116220467Y-97299848D01*
X116225466Y-97299602D01*
X116243888Y-97299602D01*
X116250000Y-97299000D01*
X116750000Y-97299000D01*
X116756112Y-97299602D01*
X116774534Y-97299602D01*
X116779533Y-97299848D01*
X116828364Y-97304658D01*
X116833314Y-97305392D01*
X116881439Y-97314964D01*
X116886295Y-97316180D01*
X116933250Y-97330424D01*
X116937961Y-97332110D01*
X116983294Y-97350887D01*
X116987820Y-97353027D01*
X117031093Y-97376158D01*
X117035384Y-97378731D01*
X117076183Y-97405991D01*
X117080204Y-97408973D01*
X117118133Y-97440101D01*
X117121841Y-97443462D01*
X117156538Y-97478159D01*
X117159899Y-97481867D01*
X117191027Y-97519796D01*
X117194009Y-97523817D01*
X117221269Y-97564616D01*
X117223842Y-97568907D01*
X117246973Y-97612180D01*
X117249113Y-97616706D01*
X117267890Y-97662039D01*
X117269576Y-97666750D01*
X117283820Y-97713705D01*
X117285036Y-97718561D01*
X117294608Y-97766686D01*
X117295342Y-97771636D01*
X117300152Y-97820467D01*
X117300398Y-97825466D01*
X117300398Y-97843888D01*
X117301000Y-97850000D01*
X117301000Y-98350000D01*
X117300020Y-98359950D01*
X117300020Y-98359950D01*
G37*
D14*
X145975320Y-85257880D03*
D15*
G36*
X145174922Y-85251768D02*
G01*
X145174922Y-85233346D01*
X145175168Y-85228347D01*
X145179978Y-85179516D01*
X145180712Y-85174566D01*
X145190284Y-85126441D01*
X145191500Y-85121585D01*
X145205744Y-85074630D01*
X145207430Y-85069919D01*
X145226207Y-85024586D01*
X145228347Y-85020060D01*
X145251478Y-84976787D01*
X145254051Y-84972496D01*
X145281311Y-84931697D01*
X145284293Y-84927676D01*
X145315421Y-84889747D01*
X145318782Y-84886039D01*
X145353479Y-84851342D01*
X145357187Y-84847981D01*
X145395116Y-84816853D01*
X145399137Y-84813871D01*
X145439936Y-84786611D01*
X145444227Y-84784038D01*
X145487500Y-84760907D01*
X145492026Y-84758767D01*
X145537359Y-84739990D01*
X145542070Y-84738304D01*
X145589025Y-84724060D01*
X145593881Y-84722844D01*
X145642006Y-84713272D01*
X145646956Y-84712538D01*
X145695787Y-84707728D01*
X145700786Y-84707482D01*
X145719208Y-84707482D01*
X145725320Y-84706880D01*
X146225320Y-84706880D01*
X146231432Y-84707482D01*
X146249854Y-84707482D01*
X146254853Y-84707728D01*
X146303684Y-84712538D01*
X146308634Y-84713272D01*
X146356759Y-84722844D01*
X146361615Y-84724060D01*
X146408570Y-84738304D01*
X146413281Y-84739990D01*
X146458614Y-84758767D01*
X146463140Y-84760907D01*
X146506413Y-84784038D01*
X146510704Y-84786611D01*
X146551503Y-84813871D01*
X146555524Y-84816853D01*
X146593453Y-84847981D01*
X146597161Y-84851342D01*
X146631858Y-84886039D01*
X146635219Y-84889747D01*
X146666347Y-84927676D01*
X146669329Y-84931697D01*
X146696589Y-84972496D01*
X146699162Y-84976787D01*
X146722293Y-85020060D01*
X146724433Y-85024586D01*
X146743210Y-85069919D01*
X146744896Y-85074630D01*
X146759140Y-85121585D01*
X146760356Y-85126441D01*
X146769928Y-85174566D01*
X146770662Y-85179516D01*
X146775472Y-85228347D01*
X146775718Y-85233346D01*
X146775718Y-85251768D01*
X146776320Y-85257880D01*
X146776320Y-85757880D01*
X146775340Y-85767830D01*
X146772438Y-85777397D01*
X146767725Y-85786214D01*
X146761382Y-85793942D01*
X146753654Y-85800285D01*
X146744837Y-85804998D01*
X146735270Y-85807900D01*
X146725320Y-85808880D01*
X145225320Y-85808880D01*
X145215370Y-85807900D01*
X145205803Y-85804998D01*
X145196986Y-85800285D01*
X145189258Y-85793942D01*
X145182915Y-85786214D01*
X145178202Y-85777397D01*
X145175300Y-85767830D01*
X145174320Y-85757880D01*
X145174320Y-85257880D01*
X145174922Y-85251768D01*
X145174922Y-85251768D01*
G37*
D14*
X145975320Y-86557880D03*
D15*
G36*
X145175300Y-86047930D02*
G01*
X145178202Y-86038363D01*
X145182915Y-86029546D01*
X145189258Y-86021818D01*
X145196986Y-86015475D01*
X145205803Y-86010762D01*
X145215370Y-86007860D01*
X145225320Y-86006880D01*
X146725320Y-86006880D01*
X146735270Y-86007860D01*
X146744837Y-86010762D01*
X146753654Y-86015475D01*
X146761382Y-86021818D01*
X146767725Y-86029546D01*
X146772438Y-86038363D01*
X146775340Y-86047930D01*
X146776320Y-86057880D01*
X146776320Y-86557880D01*
X146775718Y-86563992D01*
X146775718Y-86582414D01*
X146775472Y-86587413D01*
X146770662Y-86636244D01*
X146769928Y-86641194D01*
X146760356Y-86689319D01*
X146759140Y-86694175D01*
X146744896Y-86741130D01*
X146743210Y-86745841D01*
X146724433Y-86791174D01*
X146722293Y-86795700D01*
X146699162Y-86838973D01*
X146696589Y-86843264D01*
X146669329Y-86884063D01*
X146666347Y-86888084D01*
X146635219Y-86926013D01*
X146631858Y-86929721D01*
X146597161Y-86964418D01*
X146593453Y-86967779D01*
X146555524Y-86998907D01*
X146551503Y-87001889D01*
X146510704Y-87029149D01*
X146506413Y-87031722D01*
X146463140Y-87054853D01*
X146458614Y-87056993D01*
X146413281Y-87075770D01*
X146408570Y-87077456D01*
X146361615Y-87091700D01*
X146356759Y-87092916D01*
X146308634Y-87102488D01*
X146303684Y-87103222D01*
X146254853Y-87108032D01*
X146249854Y-87108278D01*
X146231432Y-87108278D01*
X146225320Y-87108880D01*
X145725320Y-87108880D01*
X145719208Y-87108278D01*
X145700786Y-87108278D01*
X145695787Y-87108032D01*
X145646956Y-87103222D01*
X145642006Y-87102488D01*
X145593881Y-87092916D01*
X145589025Y-87091700D01*
X145542070Y-87077456D01*
X145537359Y-87075770D01*
X145492026Y-87056993D01*
X145487500Y-87054853D01*
X145444227Y-87031722D01*
X145439936Y-87029149D01*
X145399137Y-87001889D01*
X145395116Y-86998907D01*
X145357187Y-86967779D01*
X145353479Y-86964418D01*
X145318782Y-86929721D01*
X145315421Y-86926013D01*
X145284293Y-86888084D01*
X145281311Y-86884063D01*
X145254051Y-86843264D01*
X145251478Y-86838973D01*
X145228347Y-86795700D01*
X145226207Y-86791174D01*
X145207430Y-86745841D01*
X145205744Y-86741130D01*
X145191500Y-86694175D01*
X145190284Y-86689319D01*
X145180712Y-86641194D01*
X145179978Y-86636244D01*
X145175168Y-86587413D01*
X145174922Y-86582414D01*
X145174922Y-86563992D01*
X145174320Y-86557880D01*
X145174320Y-86057880D01*
X145175300Y-86047930D01*
X145175300Y-86047930D01*
G37*
D12*
X149000000Y-85460000D03*
D13*
X149000000Y-88000000D03*
D26*
X140633080Y-69230240D03*
X129633080Y-69230240D03*
D27*
X137133080Y-70230240D03*
X135133080Y-70230240D03*
X133133080Y-70230240D03*
X133133080Y-68230240D03*
D28*
X137133080Y-68230240D03*
D27*
X135133080Y-68230240D03*
D15*
G36*
X187684363Y-76712790D02*
G01*
X187710369Y-76716648D01*
X187735871Y-76723035D01*
X187760624Y-76731892D01*
X187784390Y-76743133D01*
X187806939Y-76756648D01*
X187828056Y-76772309D01*
X187847535Y-76789965D01*
X187865191Y-76809444D01*
X187880852Y-76830561D01*
X187894367Y-76853110D01*
X187905608Y-76876876D01*
X187914465Y-76901629D01*
X187920852Y-76927131D01*
X187924710Y-76953137D01*
X187926000Y-76979395D01*
X187926000Y-77970605D01*
X187924710Y-77996863D01*
X187920852Y-78022869D01*
X187914465Y-78048371D01*
X187905608Y-78073124D01*
X187894367Y-78096890D01*
X187880852Y-78119439D01*
X187865191Y-78140556D01*
X187847535Y-78160035D01*
X187828056Y-78177691D01*
X187806939Y-78193352D01*
X187784390Y-78206867D01*
X187760624Y-78218108D01*
X187735871Y-78226965D01*
X187710369Y-78233352D01*
X187684363Y-78237210D01*
X187658105Y-78238500D01*
X186341895Y-78238500D01*
X186315637Y-78237210D01*
X186289631Y-78233352D01*
X186264129Y-78226965D01*
X186239376Y-78218108D01*
X186215610Y-78206867D01*
X186193061Y-78193352D01*
X186171944Y-78177691D01*
X186152465Y-78160035D01*
X186134809Y-78140556D01*
X186119148Y-78119439D01*
X186105633Y-78096890D01*
X186094392Y-78073124D01*
X186085535Y-78048371D01*
X186079148Y-78022869D01*
X186075290Y-77996863D01*
X186074000Y-77970605D01*
X186074000Y-76979395D01*
X186075290Y-76953137D01*
X186079148Y-76927131D01*
X186085535Y-76901629D01*
X186094392Y-76876876D01*
X186105633Y-76853110D01*
X186119148Y-76830561D01*
X186134809Y-76809444D01*
X186152465Y-76789965D01*
X186171944Y-76772309D01*
X186193061Y-76756648D01*
X186215610Y-76743133D01*
X186239376Y-76731892D01*
X186264129Y-76723035D01*
X186289631Y-76716648D01*
X186315637Y-76712790D01*
X186341895Y-76711500D01*
X187658105Y-76711500D01*
X187684363Y-76712790D01*
X187684363Y-76712790D01*
G37*
D29*
X187000000Y-77475000D03*
D15*
G36*
X187684363Y-73737790D02*
G01*
X187710369Y-73741648D01*
X187735871Y-73748035D01*
X187760624Y-73756892D01*
X187784390Y-73768133D01*
X187806939Y-73781648D01*
X187828056Y-73797309D01*
X187847535Y-73814965D01*
X187865191Y-73834444D01*
X187880852Y-73855561D01*
X187894367Y-73878110D01*
X187905608Y-73901876D01*
X187914465Y-73926629D01*
X187920852Y-73952131D01*
X187924710Y-73978137D01*
X187926000Y-74004395D01*
X187926000Y-74995605D01*
X187924710Y-75021863D01*
X187920852Y-75047869D01*
X187914465Y-75073371D01*
X187905608Y-75098124D01*
X187894367Y-75121890D01*
X187880852Y-75144439D01*
X187865191Y-75165556D01*
X187847535Y-75185035D01*
X187828056Y-75202691D01*
X187806939Y-75218352D01*
X187784390Y-75231867D01*
X187760624Y-75243108D01*
X187735871Y-75251965D01*
X187710369Y-75258352D01*
X187684363Y-75262210D01*
X187658105Y-75263500D01*
X186341895Y-75263500D01*
X186315637Y-75262210D01*
X186289631Y-75258352D01*
X186264129Y-75251965D01*
X186239376Y-75243108D01*
X186215610Y-75231867D01*
X186193061Y-75218352D01*
X186171944Y-75202691D01*
X186152465Y-75185035D01*
X186134809Y-75165556D01*
X186119148Y-75144439D01*
X186105633Y-75121890D01*
X186094392Y-75098124D01*
X186085535Y-75073371D01*
X186079148Y-75047869D01*
X186075290Y-75021863D01*
X186074000Y-74995605D01*
X186074000Y-74004395D01*
X186075290Y-73978137D01*
X186079148Y-73952131D01*
X186085535Y-73926629D01*
X186094392Y-73901876D01*
X186105633Y-73878110D01*
X186119148Y-73855561D01*
X186134809Y-73834444D01*
X186152465Y-73814965D01*
X186171944Y-73797309D01*
X186193061Y-73781648D01*
X186215610Y-73768133D01*
X186239376Y-73756892D01*
X186264129Y-73748035D01*
X186289631Y-73741648D01*
X186315637Y-73737790D01*
X186341895Y-73736500D01*
X187658105Y-73736500D01*
X187684363Y-73737790D01*
X187684363Y-73737790D01*
G37*
D29*
X187000000Y-74500000D03*
D15*
G36*
X128720465Y-110052351D02*
G01*
X128746885Y-110056270D01*
X128772795Y-110062760D01*
X128797943Y-110071758D01*
X128822088Y-110083178D01*
X128844998Y-110096909D01*
X128866452Y-110112820D01*
X128886242Y-110130758D01*
X128904180Y-110150548D01*
X128920091Y-110172002D01*
X128933822Y-110194912D01*
X128945242Y-110219057D01*
X128954240Y-110244205D01*
X128960730Y-110270115D01*
X128964649Y-110296535D01*
X128965960Y-110323213D01*
X128965960Y-111030867D01*
X128964649Y-111057545D01*
X128960730Y-111083965D01*
X128954240Y-111109875D01*
X128945242Y-111135023D01*
X128933822Y-111159168D01*
X128920091Y-111182078D01*
X128904180Y-111203532D01*
X128886242Y-111223322D01*
X128866452Y-111241260D01*
X128844998Y-111257171D01*
X128822088Y-111270902D01*
X128797943Y-111282322D01*
X128772795Y-111291320D01*
X128746885Y-111297810D01*
X128720465Y-111301729D01*
X128693787Y-111303040D01*
X127736133Y-111303040D01*
X127709455Y-111301729D01*
X127683035Y-111297810D01*
X127657125Y-111291320D01*
X127631977Y-111282322D01*
X127607832Y-111270902D01*
X127584922Y-111257171D01*
X127563468Y-111241260D01*
X127543678Y-111223322D01*
X127525740Y-111203532D01*
X127509829Y-111182078D01*
X127496098Y-111159168D01*
X127484678Y-111135023D01*
X127475680Y-111109875D01*
X127469190Y-111083965D01*
X127465271Y-111057545D01*
X127463960Y-111030867D01*
X127463960Y-110323213D01*
X127465271Y-110296535D01*
X127469190Y-110270115D01*
X127475680Y-110244205D01*
X127484678Y-110219057D01*
X127496098Y-110194912D01*
X127509829Y-110172002D01*
X127525740Y-110150548D01*
X127543678Y-110130758D01*
X127563468Y-110112820D01*
X127584922Y-110096909D01*
X127607832Y-110083178D01*
X127631977Y-110071758D01*
X127657125Y-110062760D01*
X127683035Y-110056270D01*
X127709455Y-110052351D01*
X127736133Y-110051040D01*
X128693787Y-110051040D01*
X128720465Y-110052351D01*
X128720465Y-110052351D01*
G37*
D17*
X128214960Y-110677040D03*
D15*
G36*
X128720465Y-108002351D02*
G01*
X128746885Y-108006270D01*
X128772795Y-108012760D01*
X128797943Y-108021758D01*
X128822088Y-108033178D01*
X128844998Y-108046909D01*
X128866452Y-108062820D01*
X128886242Y-108080758D01*
X128904180Y-108100548D01*
X128920091Y-108122002D01*
X128933822Y-108144912D01*
X128945242Y-108169057D01*
X128954240Y-108194205D01*
X128960730Y-108220115D01*
X128964649Y-108246535D01*
X128965960Y-108273213D01*
X128965960Y-108980867D01*
X128964649Y-109007545D01*
X128960730Y-109033965D01*
X128954240Y-109059875D01*
X128945242Y-109085023D01*
X128933822Y-109109168D01*
X128920091Y-109132078D01*
X128904180Y-109153532D01*
X128886242Y-109173322D01*
X128866452Y-109191260D01*
X128844998Y-109207171D01*
X128822088Y-109220902D01*
X128797943Y-109232322D01*
X128772795Y-109241320D01*
X128746885Y-109247810D01*
X128720465Y-109251729D01*
X128693787Y-109253040D01*
X127736133Y-109253040D01*
X127709455Y-109251729D01*
X127683035Y-109247810D01*
X127657125Y-109241320D01*
X127631977Y-109232322D01*
X127607832Y-109220902D01*
X127584922Y-109207171D01*
X127563468Y-109191260D01*
X127543678Y-109173322D01*
X127525740Y-109153532D01*
X127509829Y-109132078D01*
X127496098Y-109109168D01*
X127484678Y-109085023D01*
X127475680Y-109059875D01*
X127469190Y-109033965D01*
X127465271Y-109007545D01*
X127463960Y-108980867D01*
X127463960Y-108273213D01*
X127465271Y-108246535D01*
X127469190Y-108220115D01*
X127475680Y-108194205D01*
X127484678Y-108169057D01*
X127496098Y-108144912D01*
X127509829Y-108122002D01*
X127525740Y-108100548D01*
X127543678Y-108080758D01*
X127563468Y-108062820D01*
X127584922Y-108046909D01*
X127607832Y-108033178D01*
X127631977Y-108021758D01*
X127657125Y-108012760D01*
X127683035Y-108006270D01*
X127709455Y-108002351D01*
X127736133Y-108001040D01*
X128693787Y-108001040D01*
X128720465Y-108002351D01*
X128720465Y-108002351D01*
G37*
D17*
X128214960Y-108627040D03*
D15*
G36*
X119315505Y-110035311D02*
G01*
X119341925Y-110039230D01*
X119367835Y-110045720D01*
X119392983Y-110054718D01*
X119417128Y-110066138D01*
X119440038Y-110079869D01*
X119461492Y-110095780D01*
X119481282Y-110113718D01*
X119499220Y-110133508D01*
X119515131Y-110154962D01*
X119528862Y-110177872D01*
X119540282Y-110202017D01*
X119549280Y-110227165D01*
X119555770Y-110253075D01*
X119559689Y-110279495D01*
X119561000Y-110306173D01*
X119561000Y-111013827D01*
X119559689Y-111040505D01*
X119555770Y-111066925D01*
X119549280Y-111092835D01*
X119540282Y-111117983D01*
X119528862Y-111142128D01*
X119515131Y-111165038D01*
X119499220Y-111186492D01*
X119481282Y-111206282D01*
X119461492Y-111224220D01*
X119440038Y-111240131D01*
X119417128Y-111253862D01*
X119392983Y-111265282D01*
X119367835Y-111274280D01*
X119341925Y-111280770D01*
X119315505Y-111284689D01*
X119288827Y-111286000D01*
X118331173Y-111286000D01*
X118304495Y-111284689D01*
X118278075Y-111280770D01*
X118252165Y-111274280D01*
X118227017Y-111265282D01*
X118202872Y-111253862D01*
X118179962Y-111240131D01*
X118158508Y-111224220D01*
X118138718Y-111206282D01*
X118120780Y-111186492D01*
X118104869Y-111165038D01*
X118091138Y-111142128D01*
X118079718Y-111117983D01*
X118070720Y-111092835D01*
X118064230Y-111066925D01*
X118060311Y-111040505D01*
X118059000Y-111013827D01*
X118059000Y-110306173D01*
X118060311Y-110279495D01*
X118064230Y-110253075D01*
X118070720Y-110227165D01*
X118079718Y-110202017D01*
X118091138Y-110177872D01*
X118104869Y-110154962D01*
X118120780Y-110133508D01*
X118138718Y-110113718D01*
X118158508Y-110095780D01*
X118179962Y-110079869D01*
X118202872Y-110066138D01*
X118227017Y-110054718D01*
X118252165Y-110045720D01*
X118278075Y-110039230D01*
X118304495Y-110035311D01*
X118331173Y-110034000D01*
X119288827Y-110034000D01*
X119315505Y-110035311D01*
X119315505Y-110035311D01*
G37*
D17*
X118810000Y-110660000D03*
D15*
G36*
X119315505Y-107985311D02*
G01*
X119341925Y-107989230D01*
X119367835Y-107995720D01*
X119392983Y-108004718D01*
X119417128Y-108016138D01*
X119440038Y-108029869D01*
X119461492Y-108045780D01*
X119481282Y-108063718D01*
X119499220Y-108083508D01*
X119515131Y-108104962D01*
X119528862Y-108127872D01*
X119540282Y-108152017D01*
X119549280Y-108177165D01*
X119555770Y-108203075D01*
X119559689Y-108229495D01*
X119561000Y-108256173D01*
X119561000Y-108963827D01*
X119559689Y-108990505D01*
X119555770Y-109016925D01*
X119549280Y-109042835D01*
X119540282Y-109067983D01*
X119528862Y-109092128D01*
X119515131Y-109115038D01*
X119499220Y-109136492D01*
X119481282Y-109156282D01*
X119461492Y-109174220D01*
X119440038Y-109190131D01*
X119417128Y-109203862D01*
X119392983Y-109215282D01*
X119367835Y-109224280D01*
X119341925Y-109230770D01*
X119315505Y-109234689D01*
X119288827Y-109236000D01*
X118331173Y-109236000D01*
X118304495Y-109234689D01*
X118278075Y-109230770D01*
X118252165Y-109224280D01*
X118227017Y-109215282D01*
X118202872Y-109203862D01*
X118179962Y-109190131D01*
X118158508Y-109174220D01*
X118138718Y-109156282D01*
X118120780Y-109136492D01*
X118104869Y-109115038D01*
X118091138Y-109092128D01*
X118079718Y-109067983D01*
X118070720Y-109042835D01*
X118064230Y-109016925D01*
X118060311Y-108990505D01*
X118059000Y-108963827D01*
X118059000Y-108256173D01*
X118060311Y-108229495D01*
X118064230Y-108203075D01*
X118070720Y-108177165D01*
X118079718Y-108152017D01*
X118091138Y-108127872D01*
X118104869Y-108104962D01*
X118120780Y-108083508D01*
X118138718Y-108063718D01*
X118158508Y-108045780D01*
X118179962Y-108029869D01*
X118202872Y-108016138D01*
X118227017Y-108004718D01*
X118252165Y-107995720D01*
X118278075Y-107989230D01*
X118304495Y-107985311D01*
X118331173Y-107984000D01*
X119288827Y-107984000D01*
X119315505Y-107985311D01*
X119315505Y-107985311D01*
G37*
D17*
X118810000Y-108610000D03*
D15*
G36*
X188005505Y-69850311D02*
G01*
X188031925Y-69854230D01*
X188057835Y-69860720D01*
X188082983Y-69869718D01*
X188107128Y-69881138D01*
X188130038Y-69894869D01*
X188151492Y-69910780D01*
X188171282Y-69928718D01*
X188189220Y-69948508D01*
X188205131Y-69969962D01*
X188218862Y-69992872D01*
X188230282Y-70017017D01*
X188239280Y-70042165D01*
X188245770Y-70068075D01*
X188249689Y-70094495D01*
X188251000Y-70121173D01*
X188251000Y-70828827D01*
X188249689Y-70855505D01*
X188245770Y-70881925D01*
X188239280Y-70907835D01*
X188230282Y-70932983D01*
X188218862Y-70957128D01*
X188205131Y-70980038D01*
X188189220Y-71001492D01*
X188171282Y-71021282D01*
X188151492Y-71039220D01*
X188130038Y-71055131D01*
X188107128Y-71068862D01*
X188082983Y-71080282D01*
X188057835Y-71089280D01*
X188031925Y-71095770D01*
X188005505Y-71099689D01*
X187978827Y-71101000D01*
X187021173Y-71101000D01*
X186994495Y-71099689D01*
X186968075Y-71095770D01*
X186942165Y-71089280D01*
X186917017Y-71080282D01*
X186892872Y-71068862D01*
X186869962Y-71055131D01*
X186848508Y-71039220D01*
X186828718Y-71021282D01*
X186810780Y-71001492D01*
X186794869Y-70980038D01*
X186781138Y-70957128D01*
X186769718Y-70932983D01*
X186760720Y-70907835D01*
X186754230Y-70881925D01*
X186750311Y-70855505D01*
X186749000Y-70828827D01*
X186749000Y-70121173D01*
X186750311Y-70094495D01*
X186754230Y-70068075D01*
X186760720Y-70042165D01*
X186769718Y-70017017D01*
X186781138Y-69992872D01*
X186794869Y-69969962D01*
X186810780Y-69948508D01*
X186828718Y-69928718D01*
X186848508Y-69910780D01*
X186869962Y-69894869D01*
X186892872Y-69881138D01*
X186917017Y-69869718D01*
X186942165Y-69860720D01*
X186968075Y-69854230D01*
X186994495Y-69850311D01*
X187021173Y-69849000D01*
X187978827Y-69849000D01*
X188005505Y-69850311D01*
X188005505Y-69850311D01*
G37*
D17*
X187500000Y-70475000D03*
D15*
G36*
X188005505Y-71900311D02*
G01*
X188031925Y-71904230D01*
X188057835Y-71910720D01*
X188082983Y-71919718D01*
X188107128Y-71931138D01*
X188130038Y-71944869D01*
X188151492Y-71960780D01*
X188171282Y-71978718D01*
X188189220Y-71998508D01*
X188205131Y-72019962D01*
X188218862Y-72042872D01*
X188230282Y-72067017D01*
X188239280Y-72092165D01*
X188245770Y-72118075D01*
X188249689Y-72144495D01*
X188251000Y-72171173D01*
X188251000Y-72878827D01*
X188249689Y-72905505D01*
X188245770Y-72931925D01*
X188239280Y-72957835D01*
X188230282Y-72982983D01*
X188218862Y-73007128D01*
X188205131Y-73030038D01*
X188189220Y-73051492D01*
X188171282Y-73071282D01*
X188151492Y-73089220D01*
X188130038Y-73105131D01*
X188107128Y-73118862D01*
X188082983Y-73130282D01*
X188057835Y-73139280D01*
X188031925Y-73145770D01*
X188005505Y-73149689D01*
X187978827Y-73151000D01*
X187021173Y-73151000D01*
X186994495Y-73149689D01*
X186968075Y-73145770D01*
X186942165Y-73139280D01*
X186917017Y-73130282D01*
X186892872Y-73118862D01*
X186869962Y-73105131D01*
X186848508Y-73089220D01*
X186828718Y-73071282D01*
X186810780Y-73051492D01*
X186794869Y-73030038D01*
X186781138Y-73007128D01*
X186769718Y-72982983D01*
X186760720Y-72957835D01*
X186754230Y-72931925D01*
X186750311Y-72905505D01*
X186749000Y-72878827D01*
X186749000Y-72171173D01*
X186750311Y-72144495D01*
X186754230Y-72118075D01*
X186760720Y-72092165D01*
X186769718Y-72067017D01*
X186781138Y-72042872D01*
X186794869Y-72019962D01*
X186810780Y-71998508D01*
X186828718Y-71978718D01*
X186848508Y-71960780D01*
X186869962Y-71944869D01*
X186892872Y-71931138D01*
X186917017Y-71919718D01*
X186942165Y-71910720D01*
X186968075Y-71904230D01*
X186994495Y-71900311D01*
X187021173Y-71899000D01*
X187978827Y-71899000D01*
X188005505Y-71900311D01*
X188005505Y-71900311D01*
G37*
D17*
X187500000Y-72525000D03*
D30*
X183134000Y-71272400D03*
D31*
X180634000Y-71272400D03*
D15*
G36*
X190344345Y-73875311D02*
G01*
X190370765Y-73879230D01*
X190396675Y-73885720D01*
X190421823Y-73894718D01*
X190445968Y-73906138D01*
X190468878Y-73919869D01*
X190490332Y-73935780D01*
X190510122Y-73953718D01*
X190528060Y-73973508D01*
X190543971Y-73994962D01*
X190557702Y-74017872D01*
X190569122Y-74042017D01*
X190578120Y-74067165D01*
X190584610Y-74093075D01*
X190588529Y-74119495D01*
X190589840Y-74146173D01*
X190589840Y-74853827D01*
X190588529Y-74880505D01*
X190584610Y-74906925D01*
X190578120Y-74932835D01*
X190569122Y-74957983D01*
X190557702Y-74982128D01*
X190543971Y-75005038D01*
X190528060Y-75026492D01*
X190510122Y-75046282D01*
X190490332Y-75064220D01*
X190468878Y-75080131D01*
X190445968Y-75093862D01*
X190421823Y-75105282D01*
X190396675Y-75114280D01*
X190370765Y-75120770D01*
X190344345Y-75124689D01*
X190317667Y-75126000D01*
X189360013Y-75126000D01*
X189333335Y-75124689D01*
X189306915Y-75120770D01*
X189281005Y-75114280D01*
X189255857Y-75105282D01*
X189231712Y-75093862D01*
X189208802Y-75080131D01*
X189187348Y-75064220D01*
X189167558Y-75046282D01*
X189149620Y-75026492D01*
X189133709Y-75005038D01*
X189119978Y-74982128D01*
X189108558Y-74957983D01*
X189099560Y-74932835D01*
X189093070Y-74906925D01*
X189089151Y-74880505D01*
X189087840Y-74853827D01*
X189087840Y-74146173D01*
X189089151Y-74119495D01*
X189093070Y-74093075D01*
X189099560Y-74067165D01*
X189108558Y-74042017D01*
X189119978Y-74017872D01*
X189133709Y-73994962D01*
X189149620Y-73973508D01*
X189167558Y-73953718D01*
X189187348Y-73935780D01*
X189208802Y-73919869D01*
X189231712Y-73906138D01*
X189255857Y-73894718D01*
X189281005Y-73885720D01*
X189306915Y-73879230D01*
X189333335Y-73875311D01*
X189360013Y-73874000D01*
X190317667Y-73874000D01*
X190344345Y-73875311D01*
X190344345Y-73875311D01*
G37*
D17*
X189838840Y-74500000D03*
D15*
G36*
X190344345Y-75925311D02*
G01*
X190370765Y-75929230D01*
X190396675Y-75935720D01*
X190421823Y-75944718D01*
X190445968Y-75956138D01*
X190468878Y-75969869D01*
X190490332Y-75985780D01*
X190510122Y-76003718D01*
X190528060Y-76023508D01*
X190543971Y-76044962D01*
X190557702Y-76067872D01*
X190569122Y-76092017D01*
X190578120Y-76117165D01*
X190584610Y-76143075D01*
X190588529Y-76169495D01*
X190589840Y-76196173D01*
X190589840Y-76903827D01*
X190588529Y-76930505D01*
X190584610Y-76956925D01*
X190578120Y-76982835D01*
X190569122Y-77007983D01*
X190557702Y-77032128D01*
X190543971Y-77055038D01*
X190528060Y-77076492D01*
X190510122Y-77096282D01*
X190490332Y-77114220D01*
X190468878Y-77130131D01*
X190445968Y-77143862D01*
X190421823Y-77155282D01*
X190396675Y-77164280D01*
X190370765Y-77170770D01*
X190344345Y-77174689D01*
X190317667Y-77176000D01*
X189360013Y-77176000D01*
X189333335Y-77174689D01*
X189306915Y-77170770D01*
X189281005Y-77164280D01*
X189255857Y-77155282D01*
X189231712Y-77143862D01*
X189208802Y-77130131D01*
X189187348Y-77114220D01*
X189167558Y-77096282D01*
X189149620Y-77076492D01*
X189133709Y-77055038D01*
X189119978Y-77032128D01*
X189108558Y-77007983D01*
X189099560Y-76982835D01*
X189093070Y-76956925D01*
X189089151Y-76930505D01*
X189087840Y-76903827D01*
X189087840Y-76196173D01*
X189089151Y-76169495D01*
X189093070Y-76143075D01*
X189099560Y-76117165D01*
X189108558Y-76092017D01*
X189119978Y-76067872D01*
X189133709Y-76044962D01*
X189149620Y-76023508D01*
X189167558Y-76003718D01*
X189187348Y-75985780D01*
X189208802Y-75969869D01*
X189231712Y-75956138D01*
X189255857Y-75944718D01*
X189281005Y-75935720D01*
X189306915Y-75929230D01*
X189333335Y-75925311D01*
X189360013Y-75924000D01*
X190317667Y-75924000D01*
X190344345Y-75925311D01*
X190344345Y-75925311D01*
G37*
D17*
X189838840Y-76550000D03*
D30*
X166500000Y-72000000D03*
D31*
X164000000Y-72000000D03*
D15*
G36*
X122430505Y-82250311D02*
G01*
X122456925Y-82254230D01*
X122482835Y-82260720D01*
X122507983Y-82269718D01*
X122532128Y-82281138D01*
X122555038Y-82294869D01*
X122576492Y-82310780D01*
X122596282Y-82328718D01*
X122614220Y-82348508D01*
X122630131Y-82369962D01*
X122643862Y-82392872D01*
X122655282Y-82417017D01*
X122664280Y-82442165D01*
X122670770Y-82468075D01*
X122674689Y-82494495D01*
X122676000Y-82521173D01*
X122676000Y-83478827D01*
X122674689Y-83505505D01*
X122670770Y-83531925D01*
X122664280Y-83557835D01*
X122655282Y-83582983D01*
X122643862Y-83607128D01*
X122630131Y-83630038D01*
X122614220Y-83651492D01*
X122596282Y-83671282D01*
X122576492Y-83689220D01*
X122555038Y-83705131D01*
X122532128Y-83718862D01*
X122507983Y-83730282D01*
X122482835Y-83739280D01*
X122456925Y-83745770D01*
X122430505Y-83749689D01*
X122403827Y-83751000D01*
X121696173Y-83751000D01*
X121669495Y-83749689D01*
X121643075Y-83745770D01*
X121617165Y-83739280D01*
X121592017Y-83730282D01*
X121567872Y-83718862D01*
X121544962Y-83705131D01*
X121523508Y-83689220D01*
X121503718Y-83671282D01*
X121485780Y-83651492D01*
X121469869Y-83630038D01*
X121456138Y-83607128D01*
X121444718Y-83582983D01*
X121435720Y-83557835D01*
X121429230Y-83531925D01*
X121425311Y-83505505D01*
X121424000Y-83478827D01*
X121424000Y-82521173D01*
X121425311Y-82494495D01*
X121429230Y-82468075D01*
X121435720Y-82442165D01*
X121444718Y-82417017D01*
X121456138Y-82392872D01*
X121469869Y-82369962D01*
X121485780Y-82348508D01*
X121503718Y-82328718D01*
X121523508Y-82310780D01*
X121544962Y-82294869D01*
X121567872Y-82281138D01*
X121592017Y-82269718D01*
X121617165Y-82260720D01*
X121643075Y-82254230D01*
X121669495Y-82250311D01*
X121696173Y-82249000D01*
X122403827Y-82249000D01*
X122430505Y-82250311D01*
X122430505Y-82250311D01*
G37*
D17*
X122050000Y-83000000D03*
D15*
G36*
X120380505Y-82250311D02*
G01*
X120406925Y-82254230D01*
X120432835Y-82260720D01*
X120457983Y-82269718D01*
X120482128Y-82281138D01*
X120505038Y-82294869D01*
X120526492Y-82310780D01*
X120546282Y-82328718D01*
X120564220Y-82348508D01*
X120580131Y-82369962D01*
X120593862Y-82392872D01*
X120605282Y-82417017D01*
X120614280Y-82442165D01*
X120620770Y-82468075D01*
X120624689Y-82494495D01*
X120626000Y-82521173D01*
X120626000Y-83478827D01*
X120624689Y-83505505D01*
X120620770Y-83531925D01*
X120614280Y-83557835D01*
X120605282Y-83582983D01*
X120593862Y-83607128D01*
X120580131Y-83630038D01*
X120564220Y-83651492D01*
X120546282Y-83671282D01*
X120526492Y-83689220D01*
X120505038Y-83705131D01*
X120482128Y-83718862D01*
X120457983Y-83730282D01*
X120432835Y-83739280D01*
X120406925Y-83745770D01*
X120380505Y-83749689D01*
X120353827Y-83751000D01*
X119646173Y-83751000D01*
X119619495Y-83749689D01*
X119593075Y-83745770D01*
X119567165Y-83739280D01*
X119542017Y-83730282D01*
X119517872Y-83718862D01*
X119494962Y-83705131D01*
X119473508Y-83689220D01*
X119453718Y-83671282D01*
X119435780Y-83651492D01*
X119419869Y-83630038D01*
X119406138Y-83607128D01*
X119394718Y-83582983D01*
X119385720Y-83557835D01*
X119379230Y-83531925D01*
X119375311Y-83505505D01*
X119374000Y-83478827D01*
X119374000Y-82521173D01*
X119375311Y-82494495D01*
X119379230Y-82468075D01*
X119385720Y-82442165D01*
X119394718Y-82417017D01*
X119406138Y-82392872D01*
X119419869Y-82369962D01*
X119435780Y-82348508D01*
X119453718Y-82328718D01*
X119473508Y-82310780D01*
X119494962Y-82294869D01*
X119517872Y-82281138D01*
X119542017Y-82269718D01*
X119567165Y-82260720D01*
X119593075Y-82254230D01*
X119619495Y-82250311D01*
X119646173Y-82249000D01*
X120353827Y-82249000D01*
X120380505Y-82250311D01*
X120380505Y-82250311D01*
G37*
D17*
X120000000Y-83000000D03*
M02*
