G04 #@! TF.GenerationSoftware,KiCad,Pcbnew,(5.1.2)-1*
G04 #@! TF.CreationDate,2022-03-06T16:37:34-05:00*
G04 #@! TF.ProjectId,telemetry_transmitter,74656c65-6d65-4747-9279-5f7472616e73,rev?*
G04 #@! TF.SameCoordinates,Original*
G04 #@! TF.FileFunction,Paste,Bot*
G04 #@! TF.FilePolarity,Positive*
%FSLAX46Y46*%
G04 Gerber Fmt 4.6, Leading zero omitted, Abs format (unit mm)*
G04 Created by KiCad (PCBNEW (5.1.2)-1) date 2022-03-06 16:37:34*
%MOMM*%
%LPD*%
G04 APERTURE LIST*
%ADD10C,0.100000*%
%ADD11C,1.150000*%
%ADD12C,0.600000*%
%ADD13R,1.560000X0.650000*%
%ADD14R,0.800000X1.900000*%
%ADD15R,1.900000X0.800000*%
%ADD16C,1.425000*%
G04 APERTURE END LIST*
D10*
G36*
X133844825Y-86098404D02*
G01*
X133869093Y-86102004D01*
X133892892Y-86107965D01*
X133915991Y-86116230D01*
X133938170Y-86126720D01*
X133959213Y-86139332D01*
X133978919Y-86153947D01*
X133997097Y-86170423D01*
X134013573Y-86188601D01*
X134028188Y-86208307D01*
X134040800Y-86229350D01*
X134051290Y-86251529D01*
X134059555Y-86274628D01*
X134065516Y-86298427D01*
X134069116Y-86322695D01*
X134070320Y-86347199D01*
X134070320Y-86997201D01*
X134069116Y-87021705D01*
X134065516Y-87045973D01*
X134059555Y-87069772D01*
X134051290Y-87092871D01*
X134040800Y-87115050D01*
X134028188Y-87136093D01*
X134013573Y-87155799D01*
X133997097Y-87173977D01*
X133978919Y-87190453D01*
X133959213Y-87205068D01*
X133938170Y-87217680D01*
X133915991Y-87228170D01*
X133892892Y-87236435D01*
X133869093Y-87242396D01*
X133844825Y-87245996D01*
X133820321Y-87247200D01*
X132920319Y-87247200D01*
X132895815Y-87245996D01*
X132871547Y-87242396D01*
X132847748Y-87236435D01*
X132824649Y-87228170D01*
X132802470Y-87217680D01*
X132781427Y-87205068D01*
X132761721Y-87190453D01*
X132743543Y-87173977D01*
X132727067Y-87155799D01*
X132712452Y-87136093D01*
X132699840Y-87115050D01*
X132689350Y-87092871D01*
X132681085Y-87069772D01*
X132675124Y-87045973D01*
X132671524Y-87021705D01*
X132670320Y-86997201D01*
X132670320Y-86347199D01*
X132671524Y-86322695D01*
X132675124Y-86298427D01*
X132681085Y-86274628D01*
X132689350Y-86251529D01*
X132699840Y-86229350D01*
X132712452Y-86208307D01*
X132727067Y-86188601D01*
X132743543Y-86170423D01*
X132761721Y-86153947D01*
X132781427Y-86139332D01*
X132802470Y-86126720D01*
X132824649Y-86116230D01*
X132847748Y-86107965D01*
X132871547Y-86102004D01*
X132895815Y-86098404D01*
X132920319Y-86097200D01*
X133820321Y-86097200D01*
X133844825Y-86098404D01*
X133844825Y-86098404D01*
G37*
D11*
X133370320Y-86672200D03*
D10*
G36*
X133844825Y-88148404D02*
G01*
X133869093Y-88152004D01*
X133892892Y-88157965D01*
X133915991Y-88166230D01*
X133938170Y-88176720D01*
X133959213Y-88189332D01*
X133978919Y-88203947D01*
X133997097Y-88220423D01*
X134013573Y-88238601D01*
X134028188Y-88258307D01*
X134040800Y-88279350D01*
X134051290Y-88301529D01*
X134059555Y-88324628D01*
X134065516Y-88348427D01*
X134069116Y-88372695D01*
X134070320Y-88397199D01*
X134070320Y-89047201D01*
X134069116Y-89071705D01*
X134065516Y-89095973D01*
X134059555Y-89119772D01*
X134051290Y-89142871D01*
X134040800Y-89165050D01*
X134028188Y-89186093D01*
X134013573Y-89205799D01*
X133997097Y-89223977D01*
X133978919Y-89240453D01*
X133959213Y-89255068D01*
X133938170Y-89267680D01*
X133915991Y-89278170D01*
X133892892Y-89286435D01*
X133869093Y-89292396D01*
X133844825Y-89295996D01*
X133820321Y-89297200D01*
X132920319Y-89297200D01*
X132895815Y-89295996D01*
X132871547Y-89292396D01*
X132847748Y-89286435D01*
X132824649Y-89278170D01*
X132802470Y-89267680D01*
X132781427Y-89255068D01*
X132761721Y-89240453D01*
X132743543Y-89223977D01*
X132727067Y-89205799D01*
X132712452Y-89186093D01*
X132699840Y-89165050D01*
X132689350Y-89142871D01*
X132681085Y-89119772D01*
X132675124Y-89095973D01*
X132671524Y-89071705D01*
X132670320Y-89047201D01*
X132670320Y-88397199D01*
X132671524Y-88372695D01*
X132675124Y-88348427D01*
X132681085Y-88324628D01*
X132689350Y-88301529D01*
X132699840Y-88279350D01*
X132712452Y-88258307D01*
X132727067Y-88238601D01*
X132743543Y-88220423D01*
X132761721Y-88203947D01*
X132781427Y-88189332D01*
X132802470Y-88176720D01*
X132824649Y-88166230D01*
X132847748Y-88157965D01*
X132871547Y-88152004D01*
X132895815Y-88148404D01*
X132920319Y-88147200D01*
X133820321Y-88147200D01*
X133844825Y-88148404D01*
X133844825Y-88148404D01*
G37*
D11*
X133370320Y-88722200D03*
D10*
G36*
X124314703Y-79105722D02*
G01*
X124329264Y-79107882D01*
X124343543Y-79111459D01*
X124357403Y-79116418D01*
X124370710Y-79122712D01*
X124383336Y-79130280D01*
X124395159Y-79139048D01*
X124406066Y-79148934D01*
X124415952Y-79159841D01*
X124424720Y-79171664D01*
X124432288Y-79184290D01*
X124438582Y-79197597D01*
X124443541Y-79211457D01*
X124447118Y-79225736D01*
X124449278Y-79240297D01*
X124450000Y-79255000D01*
X124450000Y-79555000D01*
X124449278Y-79569703D01*
X124447118Y-79584264D01*
X124443541Y-79598543D01*
X124438582Y-79612403D01*
X124432288Y-79625710D01*
X124424720Y-79638336D01*
X124415952Y-79650159D01*
X124406066Y-79661066D01*
X124395159Y-79670952D01*
X124383336Y-79679720D01*
X124370710Y-79687288D01*
X124357403Y-79693582D01*
X124343543Y-79698541D01*
X124329264Y-79702118D01*
X124314703Y-79704278D01*
X124300000Y-79705000D01*
X122650000Y-79705000D01*
X122635297Y-79704278D01*
X122620736Y-79702118D01*
X122606457Y-79698541D01*
X122592597Y-79693582D01*
X122579290Y-79687288D01*
X122566664Y-79679720D01*
X122554841Y-79670952D01*
X122543934Y-79661066D01*
X122534048Y-79650159D01*
X122525280Y-79638336D01*
X122517712Y-79625710D01*
X122511418Y-79612403D01*
X122506459Y-79598543D01*
X122502882Y-79584264D01*
X122500722Y-79569703D01*
X122500000Y-79555000D01*
X122500000Y-79255000D01*
X122500722Y-79240297D01*
X122502882Y-79225736D01*
X122506459Y-79211457D01*
X122511418Y-79197597D01*
X122517712Y-79184290D01*
X122525280Y-79171664D01*
X122534048Y-79159841D01*
X122543934Y-79148934D01*
X122554841Y-79139048D01*
X122566664Y-79130280D01*
X122579290Y-79122712D01*
X122592597Y-79116418D01*
X122606457Y-79111459D01*
X122620736Y-79107882D01*
X122635297Y-79105722D01*
X122650000Y-79105000D01*
X124300000Y-79105000D01*
X124314703Y-79105722D01*
X124314703Y-79105722D01*
G37*
D12*
X123475000Y-79405000D03*
D10*
G36*
X124314703Y-77835722D02*
G01*
X124329264Y-77837882D01*
X124343543Y-77841459D01*
X124357403Y-77846418D01*
X124370710Y-77852712D01*
X124383336Y-77860280D01*
X124395159Y-77869048D01*
X124406066Y-77878934D01*
X124415952Y-77889841D01*
X124424720Y-77901664D01*
X124432288Y-77914290D01*
X124438582Y-77927597D01*
X124443541Y-77941457D01*
X124447118Y-77955736D01*
X124449278Y-77970297D01*
X124450000Y-77985000D01*
X124450000Y-78285000D01*
X124449278Y-78299703D01*
X124447118Y-78314264D01*
X124443541Y-78328543D01*
X124438582Y-78342403D01*
X124432288Y-78355710D01*
X124424720Y-78368336D01*
X124415952Y-78380159D01*
X124406066Y-78391066D01*
X124395159Y-78400952D01*
X124383336Y-78409720D01*
X124370710Y-78417288D01*
X124357403Y-78423582D01*
X124343543Y-78428541D01*
X124329264Y-78432118D01*
X124314703Y-78434278D01*
X124300000Y-78435000D01*
X122650000Y-78435000D01*
X122635297Y-78434278D01*
X122620736Y-78432118D01*
X122606457Y-78428541D01*
X122592597Y-78423582D01*
X122579290Y-78417288D01*
X122566664Y-78409720D01*
X122554841Y-78400952D01*
X122543934Y-78391066D01*
X122534048Y-78380159D01*
X122525280Y-78368336D01*
X122517712Y-78355710D01*
X122511418Y-78342403D01*
X122506459Y-78328543D01*
X122502882Y-78314264D01*
X122500722Y-78299703D01*
X122500000Y-78285000D01*
X122500000Y-77985000D01*
X122500722Y-77970297D01*
X122502882Y-77955736D01*
X122506459Y-77941457D01*
X122511418Y-77927597D01*
X122517712Y-77914290D01*
X122525280Y-77901664D01*
X122534048Y-77889841D01*
X122543934Y-77878934D01*
X122554841Y-77869048D01*
X122566664Y-77860280D01*
X122579290Y-77852712D01*
X122592597Y-77846418D01*
X122606457Y-77841459D01*
X122620736Y-77837882D01*
X122635297Y-77835722D01*
X122650000Y-77835000D01*
X124300000Y-77835000D01*
X124314703Y-77835722D01*
X124314703Y-77835722D01*
G37*
D12*
X123475000Y-78135000D03*
D10*
G36*
X124314703Y-76565722D02*
G01*
X124329264Y-76567882D01*
X124343543Y-76571459D01*
X124357403Y-76576418D01*
X124370710Y-76582712D01*
X124383336Y-76590280D01*
X124395159Y-76599048D01*
X124406066Y-76608934D01*
X124415952Y-76619841D01*
X124424720Y-76631664D01*
X124432288Y-76644290D01*
X124438582Y-76657597D01*
X124443541Y-76671457D01*
X124447118Y-76685736D01*
X124449278Y-76700297D01*
X124450000Y-76715000D01*
X124450000Y-77015000D01*
X124449278Y-77029703D01*
X124447118Y-77044264D01*
X124443541Y-77058543D01*
X124438582Y-77072403D01*
X124432288Y-77085710D01*
X124424720Y-77098336D01*
X124415952Y-77110159D01*
X124406066Y-77121066D01*
X124395159Y-77130952D01*
X124383336Y-77139720D01*
X124370710Y-77147288D01*
X124357403Y-77153582D01*
X124343543Y-77158541D01*
X124329264Y-77162118D01*
X124314703Y-77164278D01*
X124300000Y-77165000D01*
X122650000Y-77165000D01*
X122635297Y-77164278D01*
X122620736Y-77162118D01*
X122606457Y-77158541D01*
X122592597Y-77153582D01*
X122579290Y-77147288D01*
X122566664Y-77139720D01*
X122554841Y-77130952D01*
X122543934Y-77121066D01*
X122534048Y-77110159D01*
X122525280Y-77098336D01*
X122517712Y-77085710D01*
X122511418Y-77072403D01*
X122506459Y-77058543D01*
X122502882Y-77044264D01*
X122500722Y-77029703D01*
X122500000Y-77015000D01*
X122500000Y-76715000D01*
X122500722Y-76700297D01*
X122502882Y-76685736D01*
X122506459Y-76671457D01*
X122511418Y-76657597D01*
X122517712Y-76644290D01*
X122525280Y-76631664D01*
X122534048Y-76619841D01*
X122543934Y-76608934D01*
X122554841Y-76599048D01*
X122566664Y-76590280D01*
X122579290Y-76582712D01*
X122592597Y-76576418D01*
X122606457Y-76571459D01*
X122620736Y-76567882D01*
X122635297Y-76565722D01*
X122650000Y-76565000D01*
X124300000Y-76565000D01*
X124314703Y-76565722D01*
X124314703Y-76565722D01*
G37*
D12*
X123475000Y-76865000D03*
D10*
G36*
X124314703Y-75295722D02*
G01*
X124329264Y-75297882D01*
X124343543Y-75301459D01*
X124357403Y-75306418D01*
X124370710Y-75312712D01*
X124383336Y-75320280D01*
X124395159Y-75329048D01*
X124406066Y-75338934D01*
X124415952Y-75349841D01*
X124424720Y-75361664D01*
X124432288Y-75374290D01*
X124438582Y-75387597D01*
X124443541Y-75401457D01*
X124447118Y-75415736D01*
X124449278Y-75430297D01*
X124450000Y-75445000D01*
X124450000Y-75745000D01*
X124449278Y-75759703D01*
X124447118Y-75774264D01*
X124443541Y-75788543D01*
X124438582Y-75802403D01*
X124432288Y-75815710D01*
X124424720Y-75828336D01*
X124415952Y-75840159D01*
X124406066Y-75851066D01*
X124395159Y-75860952D01*
X124383336Y-75869720D01*
X124370710Y-75877288D01*
X124357403Y-75883582D01*
X124343543Y-75888541D01*
X124329264Y-75892118D01*
X124314703Y-75894278D01*
X124300000Y-75895000D01*
X122650000Y-75895000D01*
X122635297Y-75894278D01*
X122620736Y-75892118D01*
X122606457Y-75888541D01*
X122592597Y-75883582D01*
X122579290Y-75877288D01*
X122566664Y-75869720D01*
X122554841Y-75860952D01*
X122543934Y-75851066D01*
X122534048Y-75840159D01*
X122525280Y-75828336D01*
X122517712Y-75815710D01*
X122511418Y-75802403D01*
X122506459Y-75788543D01*
X122502882Y-75774264D01*
X122500722Y-75759703D01*
X122500000Y-75745000D01*
X122500000Y-75445000D01*
X122500722Y-75430297D01*
X122502882Y-75415736D01*
X122506459Y-75401457D01*
X122511418Y-75387597D01*
X122517712Y-75374290D01*
X122525280Y-75361664D01*
X122534048Y-75349841D01*
X122543934Y-75338934D01*
X122554841Y-75329048D01*
X122566664Y-75320280D01*
X122579290Y-75312712D01*
X122592597Y-75306418D01*
X122606457Y-75301459D01*
X122620736Y-75297882D01*
X122635297Y-75295722D01*
X122650000Y-75295000D01*
X124300000Y-75295000D01*
X124314703Y-75295722D01*
X124314703Y-75295722D01*
G37*
D12*
X123475000Y-75595000D03*
D10*
G36*
X119364703Y-75295722D02*
G01*
X119379264Y-75297882D01*
X119393543Y-75301459D01*
X119407403Y-75306418D01*
X119420710Y-75312712D01*
X119433336Y-75320280D01*
X119445159Y-75329048D01*
X119456066Y-75338934D01*
X119465952Y-75349841D01*
X119474720Y-75361664D01*
X119482288Y-75374290D01*
X119488582Y-75387597D01*
X119493541Y-75401457D01*
X119497118Y-75415736D01*
X119499278Y-75430297D01*
X119500000Y-75445000D01*
X119500000Y-75745000D01*
X119499278Y-75759703D01*
X119497118Y-75774264D01*
X119493541Y-75788543D01*
X119488582Y-75802403D01*
X119482288Y-75815710D01*
X119474720Y-75828336D01*
X119465952Y-75840159D01*
X119456066Y-75851066D01*
X119445159Y-75860952D01*
X119433336Y-75869720D01*
X119420710Y-75877288D01*
X119407403Y-75883582D01*
X119393543Y-75888541D01*
X119379264Y-75892118D01*
X119364703Y-75894278D01*
X119350000Y-75895000D01*
X117700000Y-75895000D01*
X117685297Y-75894278D01*
X117670736Y-75892118D01*
X117656457Y-75888541D01*
X117642597Y-75883582D01*
X117629290Y-75877288D01*
X117616664Y-75869720D01*
X117604841Y-75860952D01*
X117593934Y-75851066D01*
X117584048Y-75840159D01*
X117575280Y-75828336D01*
X117567712Y-75815710D01*
X117561418Y-75802403D01*
X117556459Y-75788543D01*
X117552882Y-75774264D01*
X117550722Y-75759703D01*
X117550000Y-75745000D01*
X117550000Y-75445000D01*
X117550722Y-75430297D01*
X117552882Y-75415736D01*
X117556459Y-75401457D01*
X117561418Y-75387597D01*
X117567712Y-75374290D01*
X117575280Y-75361664D01*
X117584048Y-75349841D01*
X117593934Y-75338934D01*
X117604841Y-75329048D01*
X117616664Y-75320280D01*
X117629290Y-75312712D01*
X117642597Y-75306418D01*
X117656457Y-75301459D01*
X117670736Y-75297882D01*
X117685297Y-75295722D01*
X117700000Y-75295000D01*
X119350000Y-75295000D01*
X119364703Y-75295722D01*
X119364703Y-75295722D01*
G37*
D12*
X118525000Y-75595000D03*
D10*
G36*
X119364703Y-76565722D02*
G01*
X119379264Y-76567882D01*
X119393543Y-76571459D01*
X119407403Y-76576418D01*
X119420710Y-76582712D01*
X119433336Y-76590280D01*
X119445159Y-76599048D01*
X119456066Y-76608934D01*
X119465952Y-76619841D01*
X119474720Y-76631664D01*
X119482288Y-76644290D01*
X119488582Y-76657597D01*
X119493541Y-76671457D01*
X119497118Y-76685736D01*
X119499278Y-76700297D01*
X119500000Y-76715000D01*
X119500000Y-77015000D01*
X119499278Y-77029703D01*
X119497118Y-77044264D01*
X119493541Y-77058543D01*
X119488582Y-77072403D01*
X119482288Y-77085710D01*
X119474720Y-77098336D01*
X119465952Y-77110159D01*
X119456066Y-77121066D01*
X119445159Y-77130952D01*
X119433336Y-77139720D01*
X119420710Y-77147288D01*
X119407403Y-77153582D01*
X119393543Y-77158541D01*
X119379264Y-77162118D01*
X119364703Y-77164278D01*
X119350000Y-77165000D01*
X117700000Y-77165000D01*
X117685297Y-77164278D01*
X117670736Y-77162118D01*
X117656457Y-77158541D01*
X117642597Y-77153582D01*
X117629290Y-77147288D01*
X117616664Y-77139720D01*
X117604841Y-77130952D01*
X117593934Y-77121066D01*
X117584048Y-77110159D01*
X117575280Y-77098336D01*
X117567712Y-77085710D01*
X117561418Y-77072403D01*
X117556459Y-77058543D01*
X117552882Y-77044264D01*
X117550722Y-77029703D01*
X117550000Y-77015000D01*
X117550000Y-76715000D01*
X117550722Y-76700297D01*
X117552882Y-76685736D01*
X117556459Y-76671457D01*
X117561418Y-76657597D01*
X117567712Y-76644290D01*
X117575280Y-76631664D01*
X117584048Y-76619841D01*
X117593934Y-76608934D01*
X117604841Y-76599048D01*
X117616664Y-76590280D01*
X117629290Y-76582712D01*
X117642597Y-76576418D01*
X117656457Y-76571459D01*
X117670736Y-76567882D01*
X117685297Y-76565722D01*
X117700000Y-76565000D01*
X119350000Y-76565000D01*
X119364703Y-76565722D01*
X119364703Y-76565722D01*
G37*
D12*
X118525000Y-76865000D03*
D10*
G36*
X119364703Y-77835722D02*
G01*
X119379264Y-77837882D01*
X119393543Y-77841459D01*
X119407403Y-77846418D01*
X119420710Y-77852712D01*
X119433336Y-77860280D01*
X119445159Y-77869048D01*
X119456066Y-77878934D01*
X119465952Y-77889841D01*
X119474720Y-77901664D01*
X119482288Y-77914290D01*
X119488582Y-77927597D01*
X119493541Y-77941457D01*
X119497118Y-77955736D01*
X119499278Y-77970297D01*
X119500000Y-77985000D01*
X119500000Y-78285000D01*
X119499278Y-78299703D01*
X119497118Y-78314264D01*
X119493541Y-78328543D01*
X119488582Y-78342403D01*
X119482288Y-78355710D01*
X119474720Y-78368336D01*
X119465952Y-78380159D01*
X119456066Y-78391066D01*
X119445159Y-78400952D01*
X119433336Y-78409720D01*
X119420710Y-78417288D01*
X119407403Y-78423582D01*
X119393543Y-78428541D01*
X119379264Y-78432118D01*
X119364703Y-78434278D01*
X119350000Y-78435000D01*
X117700000Y-78435000D01*
X117685297Y-78434278D01*
X117670736Y-78432118D01*
X117656457Y-78428541D01*
X117642597Y-78423582D01*
X117629290Y-78417288D01*
X117616664Y-78409720D01*
X117604841Y-78400952D01*
X117593934Y-78391066D01*
X117584048Y-78380159D01*
X117575280Y-78368336D01*
X117567712Y-78355710D01*
X117561418Y-78342403D01*
X117556459Y-78328543D01*
X117552882Y-78314264D01*
X117550722Y-78299703D01*
X117550000Y-78285000D01*
X117550000Y-77985000D01*
X117550722Y-77970297D01*
X117552882Y-77955736D01*
X117556459Y-77941457D01*
X117561418Y-77927597D01*
X117567712Y-77914290D01*
X117575280Y-77901664D01*
X117584048Y-77889841D01*
X117593934Y-77878934D01*
X117604841Y-77869048D01*
X117616664Y-77860280D01*
X117629290Y-77852712D01*
X117642597Y-77846418D01*
X117656457Y-77841459D01*
X117670736Y-77837882D01*
X117685297Y-77835722D01*
X117700000Y-77835000D01*
X119350000Y-77835000D01*
X119364703Y-77835722D01*
X119364703Y-77835722D01*
G37*
D12*
X118525000Y-78135000D03*
D10*
G36*
X119364703Y-79105722D02*
G01*
X119379264Y-79107882D01*
X119393543Y-79111459D01*
X119407403Y-79116418D01*
X119420710Y-79122712D01*
X119433336Y-79130280D01*
X119445159Y-79139048D01*
X119456066Y-79148934D01*
X119465952Y-79159841D01*
X119474720Y-79171664D01*
X119482288Y-79184290D01*
X119488582Y-79197597D01*
X119493541Y-79211457D01*
X119497118Y-79225736D01*
X119499278Y-79240297D01*
X119500000Y-79255000D01*
X119500000Y-79555000D01*
X119499278Y-79569703D01*
X119497118Y-79584264D01*
X119493541Y-79598543D01*
X119488582Y-79612403D01*
X119482288Y-79625710D01*
X119474720Y-79638336D01*
X119465952Y-79650159D01*
X119456066Y-79661066D01*
X119445159Y-79670952D01*
X119433336Y-79679720D01*
X119420710Y-79687288D01*
X119407403Y-79693582D01*
X119393543Y-79698541D01*
X119379264Y-79702118D01*
X119364703Y-79704278D01*
X119350000Y-79705000D01*
X117700000Y-79705000D01*
X117685297Y-79704278D01*
X117670736Y-79702118D01*
X117656457Y-79698541D01*
X117642597Y-79693582D01*
X117629290Y-79687288D01*
X117616664Y-79679720D01*
X117604841Y-79670952D01*
X117593934Y-79661066D01*
X117584048Y-79650159D01*
X117575280Y-79638336D01*
X117567712Y-79625710D01*
X117561418Y-79612403D01*
X117556459Y-79598543D01*
X117552882Y-79584264D01*
X117550722Y-79569703D01*
X117550000Y-79555000D01*
X117550000Y-79255000D01*
X117550722Y-79240297D01*
X117552882Y-79225736D01*
X117556459Y-79211457D01*
X117561418Y-79197597D01*
X117567712Y-79184290D01*
X117575280Y-79171664D01*
X117584048Y-79159841D01*
X117593934Y-79148934D01*
X117604841Y-79139048D01*
X117616664Y-79130280D01*
X117629290Y-79122712D01*
X117642597Y-79116418D01*
X117656457Y-79111459D01*
X117670736Y-79107882D01*
X117685297Y-79105722D01*
X117700000Y-79105000D01*
X119350000Y-79105000D01*
X119364703Y-79105722D01*
X119364703Y-79105722D01*
G37*
D12*
X118525000Y-79405000D03*
D10*
G36*
X119474505Y-93876204D02*
G01*
X119498773Y-93879804D01*
X119522572Y-93885765D01*
X119545671Y-93894030D01*
X119567850Y-93904520D01*
X119588893Y-93917132D01*
X119608599Y-93931747D01*
X119626777Y-93948223D01*
X119643253Y-93966401D01*
X119657868Y-93986107D01*
X119670480Y-94007150D01*
X119680970Y-94029329D01*
X119689235Y-94052428D01*
X119695196Y-94076227D01*
X119698796Y-94100495D01*
X119700000Y-94124999D01*
X119700000Y-94775001D01*
X119698796Y-94799505D01*
X119695196Y-94823773D01*
X119689235Y-94847572D01*
X119680970Y-94870671D01*
X119670480Y-94892850D01*
X119657868Y-94913893D01*
X119643253Y-94933599D01*
X119626777Y-94951777D01*
X119608599Y-94968253D01*
X119588893Y-94982868D01*
X119567850Y-94995480D01*
X119545671Y-95005970D01*
X119522572Y-95014235D01*
X119498773Y-95020196D01*
X119474505Y-95023796D01*
X119450001Y-95025000D01*
X118549999Y-95025000D01*
X118525495Y-95023796D01*
X118501227Y-95020196D01*
X118477428Y-95014235D01*
X118454329Y-95005970D01*
X118432150Y-94995480D01*
X118411107Y-94982868D01*
X118391401Y-94968253D01*
X118373223Y-94951777D01*
X118356747Y-94933599D01*
X118342132Y-94913893D01*
X118329520Y-94892850D01*
X118319030Y-94870671D01*
X118310765Y-94847572D01*
X118304804Y-94823773D01*
X118301204Y-94799505D01*
X118300000Y-94775001D01*
X118300000Y-94124999D01*
X118301204Y-94100495D01*
X118304804Y-94076227D01*
X118310765Y-94052428D01*
X118319030Y-94029329D01*
X118329520Y-94007150D01*
X118342132Y-93986107D01*
X118356747Y-93966401D01*
X118373223Y-93948223D01*
X118391401Y-93931747D01*
X118411107Y-93917132D01*
X118432150Y-93904520D01*
X118454329Y-93894030D01*
X118477428Y-93885765D01*
X118501227Y-93879804D01*
X118525495Y-93876204D01*
X118549999Y-93875000D01*
X119450001Y-93875000D01*
X119474505Y-93876204D01*
X119474505Y-93876204D01*
G37*
D11*
X119000000Y-94450000D03*
D10*
G36*
X119474505Y-95926204D02*
G01*
X119498773Y-95929804D01*
X119522572Y-95935765D01*
X119545671Y-95944030D01*
X119567850Y-95954520D01*
X119588893Y-95967132D01*
X119608599Y-95981747D01*
X119626777Y-95998223D01*
X119643253Y-96016401D01*
X119657868Y-96036107D01*
X119670480Y-96057150D01*
X119680970Y-96079329D01*
X119689235Y-96102428D01*
X119695196Y-96126227D01*
X119698796Y-96150495D01*
X119700000Y-96174999D01*
X119700000Y-96825001D01*
X119698796Y-96849505D01*
X119695196Y-96873773D01*
X119689235Y-96897572D01*
X119680970Y-96920671D01*
X119670480Y-96942850D01*
X119657868Y-96963893D01*
X119643253Y-96983599D01*
X119626777Y-97001777D01*
X119608599Y-97018253D01*
X119588893Y-97032868D01*
X119567850Y-97045480D01*
X119545671Y-97055970D01*
X119522572Y-97064235D01*
X119498773Y-97070196D01*
X119474505Y-97073796D01*
X119450001Y-97075000D01*
X118549999Y-97075000D01*
X118525495Y-97073796D01*
X118501227Y-97070196D01*
X118477428Y-97064235D01*
X118454329Y-97055970D01*
X118432150Y-97045480D01*
X118411107Y-97032868D01*
X118391401Y-97018253D01*
X118373223Y-97001777D01*
X118356747Y-96983599D01*
X118342132Y-96963893D01*
X118329520Y-96942850D01*
X118319030Y-96920671D01*
X118310765Y-96897572D01*
X118304804Y-96873773D01*
X118301204Y-96849505D01*
X118300000Y-96825001D01*
X118300000Y-96174999D01*
X118301204Y-96150495D01*
X118304804Y-96126227D01*
X118310765Y-96102428D01*
X118319030Y-96079329D01*
X118329520Y-96057150D01*
X118342132Y-96036107D01*
X118356747Y-96016401D01*
X118373223Y-95998223D01*
X118391401Y-95981747D01*
X118411107Y-95967132D01*
X118432150Y-95954520D01*
X118454329Y-95944030D01*
X118477428Y-95935765D01*
X118501227Y-95929804D01*
X118525495Y-95926204D01*
X118549999Y-95925000D01*
X119450001Y-95925000D01*
X119474505Y-95926204D01*
X119474505Y-95926204D01*
G37*
D11*
X119000000Y-96500000D03*
D10*
G36*
X125849505Y-95801204D02*
G01*
X125873773Y-95804804D01*
X125897572Y-95810765D01*
X125920671Y-95819030D01*
X125942850Y-95829520D01*
X125963893Y-95842132D01*
X125983599Y-95856747D01*
X126001777Y-95873223D01*
X126018253Y-95891401D01*
X126032868Y-95911107D01*
X126045480Y-95932150D01*
X126055970Y-95954329D01*
X126064235Y-95977428D01*
X126070196Y-96001227D01*
X126073796Y-96025495D01*
X126075000Y-96049999D01*
X126075000Y-96950001D01*
X126073796Y-96974505D01*
X126070196Y-96998773D01*
X126064235Y-97022572D01*
X126055970Y-97045671D01*
X126045480Y-97067850D01*
X126032868Y-97088893D01*
X126018253Y-97108599D01*
X126001777Y-97126777D01*
X125983599Y-97143253D01*
X125963893Y-97157868D01*
X125942850Y-97170480D01*
X125920671Y-97180970D01*
X125897572Y-97189235D01*
X125873773Y-97195196D01*
X125849505Y-97198796D01*
X125825001Y-97200000D01*
X125174999Y-97200000D01*
X125150495Y-97198796D01*
X125126227Y-97195196D01*
X125102428Y-97189235D01*
X125079329Y-97180970D01*
X125057150Y-97170480D01*
X125036107Y-97157868D01*
X125016401Y-97143253D01*
X124998223Y-97126777D01*
X124981747Y-97108599D01*
X124967132Y-97088893D01*
X124954520Y-97067850D01*
X124944030Y-97045671D01*
X124935765Y-97022572D01*
X124929804Y-96998773D01*
X124926204Y-96974505D01*
X124925000Y-96950001D01*
X124925000Y-96049999D01*
X124926204Y-96025495D01*
X124929804Y-96001227D01*
X124935765Y-95977428D01*
X124944030Y-95954329D01*
X124954520Y-95932150D01*
X124967132Y-95911107D01*
X124981747Y-95891401D01*
X124998223Y-95873223D01*
X125016401Y-95856747D01*
X125036107Y-95842132D01*
X125057150Y-95829520D01*
X125079329Y-95819030D01*
X125102428Y-95810765D01*
X125126227Y-95804804D01*
X125150495Y-95801204D01*
X125174999Y-95800000D01*
X125825001Y-95800000D01*
X125849505Y-95801204D01*
X125849505Y-95801204D01*
G37*
D11*
X125500000Y-96500000D03*
D10*
G36*
X127899505Y-95801204D02*
G01*
X127923773Y-95804804D01*
X127947572Y-95810765D01*
X127970671Y-95819030D01*
X127992850Y-95829520D01*
X128013893Y-95842132D01*
X128033599Y-95856747D01*
X128051777Y-95873223D01*
X128068253Y-95891401D01*
X128082868Y-95911107D01*
X128095480Y-95932150D01*
X128105970Y-95954329D01*
X128114235Y-95977428D01*
X128120196Y-96001227D01*
X128123796Y-96025495D01*
X128125000Y-96049999D01*
X128125000Y-96950001D01*
X128123796Y-96974505D01*
X128120196Y-96998773D01*
X128114235Y-97022572D01*
X128105970Y-97045671D01*
X128095480Y-97067850D01*
X128082868Y-97088893D01*
X128068253Y-97108599D01*
X128051777Y-97126777D01*
X128033599Y-97143253D01*
X128013893Y-97157868D01*
X127992850Y-97170480D01*
X127970671Y-97180970D01*
X127947572Y-97189235D01*
X127923773Y-97195196D01*
X127899505Y-97198796D01*
X127875001Y-97200000D01*
X127224999Y-97200000D01*
X127200495Y-97198796D01*
X127176227Y-97195196D01*
X127152428Y-97189235D01*
X127129329Y-97180970D01*
X127107150Y-97170480D01*
X127086107Y-97157868D01*
X127066401Y-97143253D01*
X127048223Y-97126777D01*
X127031747Y-97108599D01*
X127017132Y-97088893D01*
X127004520Y-97067850D01*
X126994030Y-97045671D01*
X126985765Y-97022572D01*
X126979804Y-96998773D01*
X126976204Y-96974505D01*
X126975000Y-96950001D01*
X126975000Y-96049999D01*
X126976204Y-96025495D01*
X126979804Y-96001227D01*
X126985765Y-95977428D01*
X126994030Y-95954329D01*
X127004520Y-95932150D01*
X127017132Y-95911107D01*
X127031747Y-95891401D01*
X127048223Y-95873223D01*
X127066401Y-95856747D01*
X127086107Y-95842132D01*
X127107150Y-95829520D01*
X127129329Y-95819030D01*
X127152428Y-95810765D01*
X127176227Y-95804804D01*
X127200495Y-95801204D01*
X127224999Y-95800000D01*
X127875001Y-95800000D01*
X127899505Y-95801204D01*
X127899505Y-95801204D01*
G37*
D11*
X127550000Y-96500000D03*
D10*
G36*
X199814703Y-74105722D02*
G01*
X199829264Y-74107882D01*
X199843543Y-74111459D01*
X199857403Y-74116418D01*
X199870710Y-74122712D01*
X199883336Y-74130280D01*
X199895159Y-74139048D01*
X199906066Y-74148934D01*
X199915952Y-74159841D01*
X199924720Y-74171664D01*
X199932288Y-74184290D01*
X199938582Y-74197597D01*
X199943541Y-74211457D01*
X199947118Y-74225736D01*
X199949278Y-74240297D01*
X199950000Y-74255000D01*
X199950000Y-74555000D01*
X199949278Y-74569703D01*
X199947118Y-74584264D01*
X199943541Y-74598543D01*
X199938582Y-74612403D01*
X199932288Y-74625710D01*
X199924720Y-74638336D01*
X199915952Y-74650159D01*
X199906066Y-74661066D01*
X199895159Y-74670952D01*
X199883336Y-74679720D01*
X199870710Y-74687288D01*
X199857403Y-74693582D01*
X199843543Y-74698541D01*
X199829264Y-74702118D01*
X199814703Y-74704278D01*
X199800000Y-74705000D01*
X198150000Y-74705000D01*
X198135297Y-74704278D01*
X198120736Y-74702118D01*
X198106457Y-74698541D01*
X198092597Y-74693582D01*
X198079290Y-74687288D01*
X198066664Y-74679720D01*
X198054841Y-74670952D01*
X198043934Y-74661066D01*
X198034048Y-74650159D01*
X198025280Y-74638336D01*
X198017712Y-74625710D01*
X198011418Y-74612403D01*
X198006459Y-74598543D01*
X198002882Y-74584264D01*
X198000722Y-74569703D01*
X198000000Y-74555000D01*
X198000000Y-74255000D01*
X198000722Y-74240297D01*
X198002882Y-74225736D01*
X198006459Y-74211457D01*
X198011418Y-74197597D01*
X198017712Y-74184290D01*
X198025280Y-74171664D01*
X198034048Y-74159841D01*
X198043934Y-74148934D01*
X198054841Y-74139048D01*
X198066664Y-74130280D01*
X198079290Y-74122712D01*
X198092597Y-74116418D01*
X198106457Y-74111459D01*
X198120736Y-74107882D01*
X198135297Y-74105722D01*
X198150000Y-74105000D01*
X199800000Y-74105000D01*
X199814703Y-74105722D01*
X199814703Y-74105722D01*
G37*
D12*
X198975000Y-74405000D03*
D10*
G36*
X199814703Y-72835722D02*
G01*
X199829264Y-72837882D01*
X199843543Y-72841459D01*
X199857403Y-72846418D01*
X199870710Y-72852712D01*
X199883336Y-72860280D01*
X199895159Y-72869048D01*
X199906066Y-72878934D01*
X199915952Y-72889841D01*
X199924720Y-72901664D01*
X199932288Y-72914290D01*
X199938582Y-72927597D01*
X199943541Y-72941457D01*
X199947118Y-72955736D01*
X199949278Y-72970297D01*
X199950000Y-72985000D01*
X199950000Y-73285000D01*
X199949278Y-73299703D01*
X199947118Y-73314264D01*
X199943541Y-73328543D01*
X199938582Y-73342403D01*
X199932288Y-73355710D01*
X199924720Y-73368336D01*
X199915952Y-73380159D01*
X199906066Y-73391066D01*
X199895159Y-73400952D01*
X199883336Y-73409720D01*
X199870710Y-73417288D01*
X199857403Y-73423582D01*
X199843543Y-73428541D01*
X199829264Y-73432118D01*
X199814703Y-73434278D01*
X199800000Y-73435000D01*
X198150000Y-73435000D01*
X198135297Y-73434278D01*
X198120736Y-73432118D01*
X198106457Y-73428541D01*
X198092597Y-73423582D01*
X198079290Y-73417288D01*
X198066664Y-73409720D01*
X198054841Y-73400952D01*
X198043934Y-73391066D01*
X198034048Y-73380159D01*
X198025280Y-73368336D01*
X198017712Y-73355710D01*
X198011418Y-73342403D01*
X198006459Y-73328543D01*
X198002882Y-73314264D01*
X198000722Y-73299703D01*
X198000000Y-73285000D01*
X198000000Y-72985000D01*
X198000722Y-72970297D01*
X198002882Y-72955736D01*
X198006459Y-72941457D01*
X198011418Y-72927597D01*
X198017712Y-72914290D01*
X198025280Y-72901664D01*
X198034048Y-72889841D01*
X198043934Y-72878934D01*
X198054841Y-72869048D01*
X198066664Y-72860280D01*
X198079290Y-72852712D01*
X198092597Y-72846418D01*
X198106457Y-72841459D01*
X198120736Y-72837882D01*
X198135297Y-72835722D01*
X198150000Y-72835000D01*
X199800000Y-72835000D01*
X199814703Y-72835722D01*
X199814703Y-72835722D01*
G37*
D12*
X198975000Y-73135000D03*
D10*
G36*
X199814703Y-71565722D02*
G01*
X199829264Y-71567882D01*
X199843543Y-71571459D01*
X199857403Y-71576418D01*
X199870710Y-71582712D01*
X199883336Y-71590280D01*
X199895159Y-71599048D01*
X199906066Y-71608934D01*
X199915952Y-71619841D01*
X199924720Y-71631664D01*
X199932288Y-71644290D01*
X199938582Y-71657597D01*
X199943541Y-71671457D01*
X199947118Y-71685736D01*
X199949278Y-71700297D01*
X199950000Y-71715000D01*
X199950000Y-72015000D01*
X199949278Y-72029703D01*
X199947118Y-72044264D01*
X199943541Y-72058543D01*
X199938582Y-72072403D01*
X199932288Y-72085710D01*
X199924720Y-72098336D01*
X199915952Y-72110159D01*
X199906066Y-72121066D01*
X199895159Y-72130952D01*
X199883336Y-72139720D01*
X199870710Y-72147288D01*
X199857403Y-72153582D01*
X199843543Y-72158541D01*
X199829264Y-72162118D01*
X199814703Y-72164278D01*
X199800000Y-72165000D01*
X198150000Y-72165000D01*
X198135297Y-72164278D01*
X198120736Y-72162118D01*
X198106457Y-72158541D01*
X198092597Y-72153582D01*
X198079290Y-72147288D01*
X198066664Y-72139720D01*
X198054841Y-72130952D01*
X198043934Y-72121066D01*
X198034048Y-72110159D01*
X198025280Y-72098336D01*
X198017712Y-72085710D01*
X198011418Y-72072403D01*
X198006459Y-72058543D01*
X198002882Y-72044264D01*
X198000722Y-72029703D01*
X198000000Y-72015000D01*
X198000000Y-71715000D01*
X198000722Y-71700297D01*
X198002882Y-71685736D01*
X198006459Y-71671457D01*
X198011418Y-71657597D01*
X198017712Y-71644290D01*
X198025280Y-71631664D01*
X198034048Y-71619841D01*
X198043934Y-71608934D01*
X198054841Y-71599048D01*
X198066664Y-71590280D01*
X198079290Y-71582712D01*
X198092597Y-71576418D01*
X198106457Y-71571459D01*
X198120736Y-71567882D01*
X198135297Y-71565722D01*
X198150000Y-71565000D01*
X199800000Y-71565000D01*
X199814703Y-71565722D01*
X199814703Y-71565722D01*
G37*
D12*
X198975000Y-71865000D03*
D10*
G36*
X199814703Y-70295722D02*
G01*
X199829264Y-70297882D01*
X199843543Y-70301459D01*
X199857403Y-70306418D01*
X199870710Y-70312712D01*
X199883336Y-70320280D01*
X199895159Y-70329048D01*
X199906066Y-70338934D01*
X199915952Y-70349841D01*
X199924720Y-70361664D01*
X199932288Y-70374290D01*
X199938582Y-70387597D01*
X199943541Y-70401457D01*
X199947118Y-70415736D01*
X199949278Y-70430297D01*
X199950000Y-70445000D01*
X199950000Y-70745000D01*
X199949278Y-70759703D01*
X199947118Y-70774264D01*
X199943541Y-70788543D01*
X199938582Y-70802403D01*
X199932288Y-70815710D01*
X199924720Y-70828336D01*
X199915952Y-70840159D01*
X199906066Y-70851066D01*
X199895159Y-70860952D01*
X199883336Y-70869720D01*
X199870710Y-70877288D01*
X199857403Y-70883582D01*
X199843543Y-70888541D01*
X199829264Y-70892118D01*
X199814703Y-70894278D01*
X199800000Y-70895000D01*
X198150000Y-70895000D01*
X198135297Y-70894278D01*
X198120736Y-70892118D01*
X198106457Y-70888541D01*
X198092597Y-70883582D01*
X198079290Y-70877288D01*
X198066664Y-70869720D01*
X198054841Y-70860952D01*
X198043934Y-70851066D01*
X198034048Y-70840159D01*
X198025280Y-70828336D01*
X198017712Y-70815710D01*
X198011418Y-70802403D01*
X198006459Y-70788543D01*
X198002882Y-70774264D01*
X198000722Y-70759703D01*
X198000000Y-70745000D01*
X198000000Y-70445000D01*
X198000722Y-70430297D01*
X198002882Y-70415736D01*
X198006459Y-70401457D01*
X198011418Y-70387597D01*
X198017712Y-70374290D01*
X198025280Y-70361664D01*
X198034048Y-70349841D01*
X198043934Y-70338934D01*
X198054841Y-70329048D01*
X198066664Y-70320280D01*
X198079290Y-70312712D01*
X198092597Y-70306418D01*
X198106457Y-70301459D01*
X198120736Y-70297882D01*
X198135297Y-70295722D01*
X198150000Y-70295000D01*
X199800000Y-70295000D01*
X199814703Y-70295722D01*
X199814703Y-70295722D01*
G37*
D12*
X198975000Y-70595000D03*
D10*
G36*
X194864703Y-70295722D02*
G01*
X194879264Y-70297882D01*
X194893543Y-70301459D01*
X194907403Y-70306418D01*
X194920710Y-70312712D01*
X194933336Y-70320280D01*
X194945159Y-70329048D01*
X194956066Y-70338934D01*
X194965952Y-70349841D01*
X194974720Y-70361664D01*
X194982288Y-70374290D01*
X194988582Y-70387597D01*
X194993541Y-70401457D01*
X194997118Y-70415736D01*
X194999278Y-70430297D01*
X195000000Y-70445000D01*
X195000000Y-70745000D01*
X194999278Y-70759703D01*
X194997118Y-70774264D01*
X194993541Y-70788543D01*
X194988582Y-70802403D01*
X194982288Y-70815710D01*
X194974720Y-70828336D01*
X194965952Y-70840159D01*
X194956066Y-70851066D01*
X194945159Y-70860952D01*
X194933336Y-70869720D01*
X194920710Y-70877288D01*
X194907403Y-70883582D01*
X194893543Y-70888541D01*
X194879264Y-70892118D01*
X194864703Y-70894278D01*
X194850000Y-70895000D01*
X193200000Y-70895000D01*
X193185297Y-70894278D01*
X193170736Y-70892118D01*
X193156457Y-70888541D01*
X193142597Y-70883582D01*
X193129290Y-70877288D01*
X193116664Y-70869720D01*
X193104841Y-70860952D01*
X193093934Y-70851066D01*
X193084048Y-70840159D01*
X193075280Y-70828336D01*
X193067712Y-70815710D01*
X193061418Y-70802403D01*
X193056459Y-70788543D01*
X193052882Y-70774264D01*
X193050722Y-70759703D01*
X193050000Y-70745000D01*
X193050000Y-70445000D01*
X193050722Y-70430297D01*
X193052882Y-70415736D01*
X193056459Y-70401457D01*
X193061418Y-70387597D01*
X193067712Y-70374290D01*
X193075280Y-70361664D01*
X193084048Y-70349841D01*
X193093934Y-70338934D01*
X193104841Y-70329048D01*
X193116664Y-70320280D01*
X193129290Y-70312712D01*
X193142597Y-70306418D01*
X193156457Y-70301459D01*
X193170736Y-70297882D01*
X193185297Y-70295722D01*
X193200000Y-70295000D01*
X194850000Y-70295000D01*
X194864703Y-70295722D01*
X194864703Y-70295722D01*
G37*
D12*
X194025000Y-70595000D03*
D10*
G36*
X194864703Y-71565722D02*
G01*
X194879264Y-71567882D01*
X194893543Y-71571459D01*
X194907403Y-71576418D01*
X194920710Y-71582712D01*
X194933336Y-71590280D01*
X194945159Y-71599048D01*
X194956066Y-71608934D01*
X194965952Y-71619841D01*
X194974720Y-71631664D01*
X194982288Y-71644290D01*
X194988582Y-71657597D01*
X194993541Y-71671457D01*
X194997118Y-71685736D01*
X194999278Y-71700297D01*
X195000000Y-71715000D01*
X195000000Y-72015000D01*
X194999278Y-72029703D01*
X194997118Y-72044264D01*
X194993541Y-72058543D01*
X194988582Y-72072403D01*
X194982288Y-72085710D01*
X194974720Y-72098336D01*
X194965952Y-72110159D01*
X194956066Y-72121066D01*
X194945159Y-72130952D01*
X194933336Y-72139720D01*
X194920710Y-72147288D01*
X194907403Y-72153582D01*
X194893543Y-72158541D01*
X194879264Y-72162118D01*
X194864703Y-72164278D01*
X194850000Y-72165000D01*
X193200000Y-72165000D01*
X193185297Y-72164278D01*
X193170736Y-72162118D01*
X193156457Y-72158541D01*
X193142597Y-72153582D01*
X193129290Y-72147288D01*
X193116664Y-72139720D01*
X193104841Y-72130952D01*
X193093934Y-72121066D01*
X193084048Y-72110159D01*
X193075280Y-72098336D01*
X193067712Y-72085710D01*
X193061418Y-72072403D01*
X193056459Y-72058543D01*
X193052882Y-72044264D01*
X193050722Y-72029703D01*
X193050000Y-72015000D01*
X193050000Y-71715000D01*
X193050722Y-71700297D01*
X193052882Y-71685736D01*
X193056459Y-71671457D01*
X193061418Y-71657597D01*
X193067712Y-71644290D01*
X193075280Y-71631664D01*
X193084048Y-71619841D01*
X193093934Y-71608934D01*
X193104841Y-71599048D01*
X193116664Y-71590280D01*
X193129290Y-71582712D01*
X193142597Y-71576418D01*
X193156457Y-71571459D01*
X193170736Y-71567882D01*
X193185297Y-71565722D01*
X193200000Y-71565000D01*
X194850000Y-71565000D01*
X194864703Y-71565722D01*
X194864703Y-71565722D01*
G37*
D12*
X194025000Y-71865000D03*
D10*
G36*
X194864703Y-72835722D02*
G01*
X194879264Y-72837882D01*
X194893543Y-72841459D01*
X194907403Y-72846418D01*
X194920710Y-72852712D01*
X194933336Y-72860280D01*
X194945159Y-72869048D01*
X194956066Y-72878934D01*
X194965952Y-72889841D01*
X194974720Y-72901664D01*
X194982288Y-72914290D01*
X194988582Y-72927597D01*
X194993541Y-72941457D01*
X194997118Y-72955736D01*
X194999278Y-72970297D01*
X195000000Y-72985000D01*
X195000000Y-73285000D01*
X194999278Y-73299703D01*
X194997118Y-73314264D01*
X194993541Y-73328543D01*
X194988582Y-73342403D01*
X194982288Y-73355710D01*
X194974720Y-73368336D01*
X194965952Y-73380159D01*
X194956066Y-73391066D01*
X194945159Y-73400952D01*
X194933336Y-73409720D01*
X194920710Y-73417288D01*
X194907403Y-73423582D01*
X194893543Y-73428541D01*
X194879264Y-73432118D01*
X194864703Y-73434278D01*
X194850000Y-73435000D01*
X193200000Y-73435000D01*
X193185297Y-73434278D01*
X193170736Y-73432118D01*
X193156457Y-73428541D01*
X193142597Y-73423582D01*
X193129290Y-73417288D01*
X193116664Y-73409720D01*
X193104841Y-73400952D01*
X193093934Y-73391066D01*
X193084048Y-73380159D01*
X193075280Y-73368336D01*
X193067712Y-73355710D01*
X193061418Y-73342403D01*
X193056459Y-73328543D01*
X193052882Y-73314264D01*
X193050722Y-73299703D01*
X193050000Y-73285000D01*
X193050000Y-72985000D01*
X193050722Y-72970297D01*
X193052882Y-72955736D01*
X193056459Y-72941457D01*
X193061418Y-72927597D01*
X193067712Y-72914290D01*
X193075280Y-72901664D01*
X193084048Y-72889841D01*
X193093934Y-72878934D01*
X193104841Y-72869048D01*
X193116664Y-72860280D01*
X193129290Y-72852712D01*
X193142597Y-72846418D01*
X193156457Y-72841459D01*
X193170736Y-72837882D01*
X193185297Y-72835722D01*
X193200000Y-72835000D01*
X194850000Y-72835000D01*
X194864703Y-72835722D01*
X194864703Y-72835722D01*
G37*
D12*
X194025000Y-73135000D03*
D10*
G36*
X194864703Y-74105722D02*
G01*
X194879264Y-74107882D01*
X194893543Y-74111459D01*
X194907403Y-74116418D01*
X194920710Y-74122712D01*
X194933336Y-74130280D01*
X194945159Y-74139048D01*
X194956066Y-74148934D01*
X194965952Y-74159841D01*
X194974720Y-74171664D01*
X194982288Y-74184290D01*
X194988582Y-74197597D01*
X194993541Y-74211457D01*
X194997118Y-74225736D01*
X194999278Y-74240297D01*
X195000000Y-74255000D01*
X195000000Y-74555000D01*
X194999278Y-74569703D01*
X194997118Y-74584264D01*
X194993541Y-74598543D01*
X194988582Y-74612403D01*
X194982288Y-74625710D01*
X194974720Y-74638336D01*
X194965952Y-74650159D01*
X194956066Y-74661066D01*
X194945159Y-74670952D01*
X194933336Y-74679720D01*
X194920710Y-74687288D01*
X194907403Y-74693582D01*
X194893543Y-74698541D01*
X194879264Y-74702118D01*
X194864703Y-74704278D01*
X194850000Y-74705000D01*
X193200000Y-74705000D01*
X193185297Y-74704278D01*
X193170736Y-74702118D01*
X193156457Y-74698541D01*
X193142597Y-74693582D01*
X193129290Y-74687288D01*
X193116664Y-74679720D01*
X193104841Y-74670952D01*
X193093934Y-74661066D01*
X193084048Y-74650159D01*
X193075280Y-74638336D01*
X193067712Y-74625710D01*
X193061418Y-74612403D01*
X193056459Y-74598543D01*
X193052882Y-74584264D01*
X193050722Y-74569703D01*
X193050000Y-74555000D01*
X193050000Y-74255000D01*
X193050722Y-74240297D01*
X193052882Y-74225736D01*
X193056459Y-74211457D01*
X193061418Y-74197597D01*
X193067712Y-74184290D01*
X193075280Y-74171664D01*
X193084048Y-74159841D01*
X193093934Y-74148934D01*
X193104841Y-74139048D01*
X193116664Y-74130280D01*
X193129290Y-74122712D01*
X193142597Y-74116418D01*
X193156457Y-74111459D01*
X193170736Y-74107882D01*
X193185297Y-74105722D01*
X193200000Y-74105000D01*
X194850000Y-74105000D01*
X194864703Y-74105722D01*
X194864703Y-74105722D01*
G37*
D12*
X194025000Y-74405000D03*
D13*
X125023440Y-110669240D03*
X125023440Y-108769240D03*
X122323440Y-108769240D03*
X122323440Y-109719240D03*
X122323440Y-110669240D03*
D10*
G36*
X141963505Y-86270804D02*
G01*
X141987773Y-86274404D01*
X142011572Y-86280365D01*
X142034671Y-86288630D01*
X142056850Y-86299120D01*
X142077893Y-86311732D01*
X142097599Y-86326347D01*
X142115777Y-86342823D01*
X142132253Y-86361001D01*
X142146868Y-86380707D01*
X142159480Y-86401750D01*
X142169970Y-86423929D01*
X142178235Y-86447028D01*
X142184196Y-86470827D01*
X142187796Y-86495095D01*
X142189000Y-86519599D01*
X142189000Y-87419601D01*
X142187796Y-87444105D01*
X142184196Y-87468373D01*
X142178235Y-87492172D01*
X142169970Y-87515271D01*
X142159480Y-87537450D01*
X142146868Y-87558493D01*
X142132253Y-87578199D01*
X142115777Y-87596377D01*
X142097599Y-87612853D01*
X142077893Y-87627468D01*
X142056850Y-87640080D01*
X142034671Y-87650570D01*
X142011572Y-87658835D01*
X141987773Y-87664796D01*
X141963505Y-87668396D01*
X141939001Y-87669600D01*
X141288999Y-87669600D01*
X141264495Y-87668396D01*
X141240227Y-87664796D01*
X141216428Y-87658835D01*
X141193329Y-87650570D01*
X141171150Y-87640080D01*
X141150107Y-87627468D01*
X141130401Y-87612853D01*
X141112223Y-87596377D01*
X141095747Y-87578199D01*
X141081132Y-87558493D01*
X141068520Y-87537450D01*
X141058030Y-87515271D01*
X141049765Y-87492172D01*
X141043804Y-87468373D01*
X141040204Y-87444105D01*
X141039000Y-87419601D01*
X141039000Y-86519599D01*
X141040204Y-86495095D01*
X141043804Y-86470827D01*
X141049765Y-86447028D01*
X141058030Y-86423929D01*
X141068520Y-86401750D01*
X141081132Y-86380707D01*
X141095747Y-86361001D01*
X141112223Y-86342823D01*
X141130401Y-86326347D01*
X141150107Y-86311732D01*
X141171150Y-86299120D01*
X141193329Y-86288630D01*
X141216428Y-86280365D01*
X141240227Y-86274404D01*
X141264495Y-86270804D01*
X141288999Y-86269600D01*
X141939001Y-86269600D01*
X141963505Y-86270804D01*
X141963505Y-86270804D01*
G37*
D11*
X141614000Y-86969600D03*
D10*
G36*
X139913505Y-86270804D02*
G01*
X139937773Y-86274404D01*
X139961572Y-86280365D01*
X139984671Y-86288630D01*
X140006850Y-86299120D01*
X140027893Y-86311732D01*
X140047599Y-86326347D01*
X140065777Y-86342823D01*
X140082253Y-86361001D01*
X140096868Y-86380707D01*
X140109480Y-86401750D01*
X140119970Y-86423929D01*
X140128235Y-86447028D01*
X140134196Y-86470827D01*
X140137796Y-86495095D01*
X140139000Y-86519599D01*
X140139000Y-87419601D01*
X140137796Y-87444105D01*
X140134196Y-87468373D01*
X140128235Y-87492172D01*
X140119970Y-87515271D01*
X140109480Y-87537450D01*
X140096868Y-87558493D01*
X140082253Y-87578199D01*
X140065777Y-87596377D01*
X140047599Y-87612853D01*
X140027893Y-87627468D01*
X140006850Y-87640080D01*
X139984671Y-87650570D01*
X139961572Y-87658835D01*
X139937773Y-87664796D01*
X139913505Y-87668396D01*
X139889001Y-87669600D01*
X139238999Y-87669600D01*
X139214495Y-87668396D01*
X139190227Y-87664796D01*
X139166428Y-87658835D01*
X139143329Y-87650570D01*
X139121150Y-87640080D01*
X139100107Y-87627468D01*
X139080401Y-87612853D01*
X139062223Y-87596377D01*
X139045747Y-87578199D01*
X139031132Y-87558493D01*
X139018520Y-87537450D01*
X139008030Y-87515271D01*
X138999765Y-87492172D01*
X138993804Y-87468373D01*
X138990204Y-87444105D01*
X138989000Y-87419601D01*
X138989000Y-86519599D01*
X138990204Y-86495095D01*
X138993804Y-86470827D01*
X138999765Y-86447028D01*
X139008030Y-86423929D01*
X139018520Y-86401750D01*
X139031132Y-86380707D01*
X139045747Y-86361001D01*
X139062223Y-86342823D01*
X139080401Y-86326347D01*
X139100107Y-86311732D01*
X139121150Y-86299120D01*
X139143329Y-86288630D01*
X139166428Y-86280365D01*
X139190227Y-86274404D01*
X139214495Y-86270804D01*
X139238999Y-86269600D01*
X139889001Y-86269600D01*
X139913505Y-86270804D01*
X139913505Y-86270804D01*
G37*
D11*
X139564000Y-86969600D03*
D10*
G36*
X162474505Y-76401204D02*
G01*
X162498773Y-76404804D01*
X162522572Y-76410765D01*
X162545671Y-76419030D01*
X162567850Y-76429520D01*
X162588893Y-76442132D01*
X162608599Y-76456747D01*
X162626777Y-76473223D01*
X162643253Y-76491401D01*
X162657868Y-76511107D01*
X162670480Y-76532150D01*
X162680970Y-76554329D01*
X162689235Y-76577428D01*
X162695196Y-76601227D01*
X162698796Y-76625495D01*
X162700000Y-76649999D01*
X162700000Y-77300001D01*
X162698796Y-77324505D01*
X162695196Y-77348773D01*
X162689235Y-77372572D01*
X162680970Y-77395671D01*
X162670480Y-77417850D01*
X162657868Y-77438893D01*
X162643253Y-77458599D01*
X162626777Y-77476777D01*
X162608599Y-77493253D01*
X162588893Y-77507868D01*
X162567850Y-77520480D01*
X162545671Y-77530970D01*
X162522572Y-77539235D01*
X162498773Y-77545196D01*
X162474505Y-77548796D01*
X162450001Y-77550000D01*
X161549999Y-77550000D01*
X161525495Y-77548796D01*
X161501227Y-77545196D01*
X161477428Y-77539235D01*
X161454329Y-77530970D01*
X161432150Y-77520480D01*
X161411107Y-77507868D01*
X161391401Y-77493253D01*
X161373223Y-77476777D01*
X161356747Y-77458599D01*
X161342132Y-77438893D01*
X161329520Y-77417850D01*
X161319030Y-77395671D01*
X161310765Y-77372572D01*
X161304804Y-77348773D01*
X161301204Y-77324505D01*
X161300000Y-77300001D01*
X161300000Y-76649999D01*
X161301204Y-76625495D01*
X161304804Y-76601227D01*
X161310765Y-76577428D01*
X161319030Y-76554329D01*
X161329520Y-76532150D01*
X161342132Y-76511107D01*
X161356747Y-76491401D01*
X161373223Y-76473223D01*
X161391401Y-76456747D01*
X161411107Y-76442132D01*
X161432150Y-76429520D01*
X161454329Y-76419030D01*
X161477428Y-76410765D01*
X161501227Y-76404804D01*
X161525495Y-76401204D01*
X161549999Y-76400000D01*
X162450001Y-76400000D01*
X162474505Y-76401204D01*
X162474505Y-76401204D01*
G37*
D11*
X162000000Y-76975000D03*
D10*
G36*
X162474505Y-78451204D02*
G01*
X162498773Y-78454804D01*
X162522572Y-78460765D01*
X162545671Y-78469030D01*
X162567850Y-78479520D01*
X162588893Y-78492132D01*
X162608599Y-78506747D01*
X162626777Y-78523223D01*
X162643253Y-78541401D01*
X162657868Y-78561107D01*
X162670480Y-78582150D01*
X162680970Y-78604329D01*
X162689235Y-78627428D01*
X162695196Y-78651227D01*
X162698796Y-78675495D01*
X162700000Y-78699999D01*
X162700000Y-79350001D01*
X162698796Y-79374505D01*
X162695196Y-79398773D01*
X162689235Y-79422572D01*
X162680970Y-79445671D01*
X162670480Y-79467850D01*
X162657868Y-79488893D01*
X162643253Y-79508599D01*
X162626777Y-79526777D01*
X162608599Y-79543253D01*
X162588893Y-79557868D01*
X162567850Y-79570480D01*
X162545671Y-79580970D01*
X162522572Y-79589235D01*
X162498773Y-79595196D01*
X162474505Y-79598796D01*
X162450001Y-79600000D01*
X161549999Y-79600000D01*
X161525495Y-79598796D01*
X161501227Y-79595196D01*
X161477428Y-79589235D01*
X161454329Y-79580970D01*
X161432150Y-79570480D01*
X161411107Y-79557868D01*
X161391401Y-79543253D01*
X161373223Y-79526777D01*
X161356747Y-79508599D01*
X161342132Y-79488893D01*
X161329520Y-79467850D01*
X161319030Y-79445671D01*
X161310765Y-79422572D01*
X161304804Y-79398773D01*
X161301204Y-79374505D01*
X161300000Y-79350001D01*
X161300000Y-78699999D01*
X161301204Y-78675495D01*
X161304804Y-78651227D01*
X161310765Y-78627428D01*
X161319030Y-78604329D01*
X161329520Y-78582150D01*
X161342132Y-78561107D01*
X161356747Y-78541401D01*
X161373223Y-78523223D01*
X161391401Y-78506747D01*
X161411107Y-78492132D01*
X161432150Y-78479520D01*
X161454329Y-78469030D01*
X161477428Y-78460765D01*
X161501227Y-78454804D01*
X161525495Y-78451204D01*
X161549999Y-78450000D01*
X162450001Y-78450000D01*
X162474505Y-78451204D01*
X162474505Y-78451204D01*
G37*
D11*
X162000000Y-79025000D03*
D10*
G36*
X144474505Y-71401204D02*
G01*
X144498773Y-71404804D01*
X144522572Y-71410765D01*
X144545671Y-71419030D01*
X144567850Y-71429520D01*
X144588893Y-71442132D01*
X144608599Y-71456747D01*
X144626777Y-71473223D01*
X144643253Y-71491401D01*
X144657868Y-71511107D01*
X144670480Y-71532150D01*
X144680970Y-71554329D01*
X144689235Y-71577428D01*
X144695196Y-71601227D01*
X144698796Y-71625495D01*
X144700000Y-71649999D01*
X144700000Y-72300001D01*
X144698796Y-72324505D01*
X144695196Y-72348773D01*
X144689235Y-72372572D01*
X144680970Y-72395671D01*
X144670480Y-72417850D01*
X144657868Y-72438893D01*
X144643253Y-72458599D01*
X144626777Y-72476777D01*
X144608599Y-72493253D01*
X144588893Y-72507868D01*
X144567850Y-72520480D01*
X144545671Y-72530970D01*
X144522572Y-72539235D01*
X144498773Y-72545196D01*
X144474505Y-72548796D01*
X144450001Y-72550000D01*
X143549999Y-72550000D01*
X143525495Y-72548796D01*
X143501227Y-72545196D01*
X143477428Y-72539235D01*
X143454329Y-72530970D01*
X143432150Y-72520480D01*
X143411107Y-72507868D01*
X143391401Y-72493253D01*
X143373223Y-72476777D01*
X143356747Y-72458599D01*
X143342132Y-72438893D01*
X143329520Y-72417850D01*
X143319030Y-72395671D01*
X143310765Y-72372572D01*
X143304804Y-72348773D01*
X143301204Y-72324505D01*
X143300000Y-72300001D01*
X143300000Y-71649999D01*
X143301204Y-71625495D01*
X143304804Y-71601227D01*
X143310765Y-71577428D01*
X143319030Y-71554329D01*
X143329520Y-71532150D01*
X143342132Y-71511107D01*
X143356747Y-71491401D01*
X143373223Y-71473223D01*
X143391401Y-71456747D01*
X143411107Y-71442132D01*
X143432150Y-71429520D01*
X143454329Y-71419030D01*
X143477428Y-71410765D01*
X143501227Y-71404804D01*
X143525495Y-71401204D01*
X143549999Y-71400000D01*
X144450001Y-71400000D01*
X144474505Y-71401204D01*
X144474505Y-71401204D01*
G37*
D11*
X144000000Y-71975000D03*
D10*
G36*
X144474505Y-73451204D02*
G01*
X144498773Y-73454804D01*
X144522572Y-73460765D01*
X144545671Y-73469030D01*
X144567850Y-73479520D01*
X144588893Y-73492132D01*
X144608599Y-73506747D01*
X144626777Y-73523223D01*
X144643253Y-73541401D01*
X144657868Y-73561107D01*
X144670480Y-73582150D01*
X144680970Y-73604329D01*
X144689235Y-73627428D01*
X144695196Y-73651227D01*
X144698796Y-73675495D01*
X144700000Y-73699999D01*
X144700000Y-74350001D01*
X144698796Y-74374505D01*
X144695196Y-74398773D01*
X144689235Y-74422572D01*
X144680970Y-74445671D01*
X144670480Y-74467850D01*
X144657868Y-74488893D01*
X144643253Y-74508599D01*
X144626777Y-74526777D01*
X144608599Y-74543253D01*
X144588893Y-74557868D01*
X144567850Y-74570480D01*
X144545671Y-74580970D01*
X144522572Y-74589235D01*
X144498773Y-74595196D01*
X144474505Y-74598796D01*
X144450001Y-74600000D01*
X143549999Y-74600000D01*
X143525495Y-74598796D01*
X143501227Y-74595196D01*
X143477428Y-74589235D01*
X143454329Y-74580970D01*
X143432150Y-74570480D01*
X143411107Y-74557868D01*
X143391401Y-74543253D01*
X143373223Y-74526777D01*
X143356747Y-74508599D01*
X143342132Y-74488893D01*
X143329520Y-74467850D01*
X143319030Y-74445671D01*
X143310765Y-74422572D01*
X143304804Y-74398773D01*
X143301204Y-74374505D01*
X143300000Y-74350001D01*
X143300000Y-73699999D01*
X143301204Y-73675495D01*
X143304804Y-73651227D01*
X143310765Y-73627428D01*
X143319030Y-73604329D01*
X143329520Y-73582150D01*
X143342132Y-73561107D01*
X143356747Y-73541401D01*
X143373223Y-73523223D01*
X143391401Y-73506747D01*
X143411107Y-73492132D01*
X143432150Y-73479520D01*
X143454329Y-73469030D01*
X143477428Y-73460765D01*
X143501227Y-73454804D01*
X143525495Y-73451204D01*
X143549999Y-73450000D01*
X144450001Y-73450000D01*
X144474505Y-73451204D01*
X144474505Y-73451204D01*
G37*
D11*
X144000000Y-74025000D03*
D10*
G36*
X128671465Y-87998004D02*
G01*
X128695733Y-88001604D01*
X128719532Y-88007565D01*
X128742631Y-88015830D01*
X128764810Y-88026320D01*
X128785853Y-88038932D01*
X128805559Y-88053547D01*
X128823737Y-88070023D01*
X128840213Y-88088201D01*
X128854828Y-88107907D01*
X128867440Y-88128950D01*
X128877930Y-88151129D01*
X128886195Y-88174228D01*
X128892156Y-88198027D01*
X128895756Y-88222295D01*
X128896960Y-88246799D01*
X128896960Y-89146801D01*
X128895756Y-89171305D01*
X128892156Y-89195573D01*
X128886195Y-89219372D01*
X128877930Y-89242471D01*
X128867440Y-89264650D01*
X128854828Y-89285693D01*
X128840213Y-89305399D01*
X128823737Y-89323577D01*
X128805559Y-89340053D01*
X128785853Y-89354668D01*
X128764810Y-89367280D01*
X128742631Y-89377770D01*
X128719532Y-89386035D01*
X128695733Y-89391996D01*
X128671465Y-89395596D01*
X128646961Y-89396800D01*
X127996959Y-89396800D01*
X127972455Y-89395596D01*
X127948187Y-89391996D01*
X127924388Y-89386035D01*
X127901289Y-89377770D01*
X127879110Y-89367280D01*
X127858067Y-89354668D01*
X127838361Y-89340053D01*
X127820183Y-89323577D01*
X127803707Y-89305399D01*
X127789092Y-89285693D01*
X127776480Y-89264650D01*
X127765990Y-89242471D01*
X127757725Y-89219372D01*
X127751764Y-89195573D01*
X127748164Y-89171305D01*
X127746960Y-89146801D01*
X127746960Y-88246799D01*
X127748164Y-88222295D01*
X127751764Y-88198027D01*
X127757725Y-88174228D01*
X127765990Y-88151129D01*
X127776480Y-88128950D01*
X127789092Y-88107907D01*
X127803707Y-88088201D01*
X127820183Y-88070023D01*
X127838361Y-88053547D01*
X127858067Y-88038932D01*
X127879110Y-88026320D01*
X127901289Y-88015830D01*
X127924388Y-88007565D01*
X127948187Y-88001604D01*
X127972455Y-87998004D01*
X127996959Y-87996800D01*
X128646961Y-87996800D01*
X128671465Y-87998004D01*
X128671465Y-87998004D01*
G37*
D11*
X128321960Y-88696800D03*
D10*
G36*
X130721465Y-87998004D02*
G01*
X130745733Y-88001604D01*
X130769532Y-88007565D01*
X130792631Y-88015830D01*
X130814810Y-88026320D01*
X130835853Y-88038932D01*
X130855559Y-88053547D01*
X130873737Y-88070023D01*
X130890213Y-88088201D01*
X130904828Y-88107907D01*
X130917440Y-88128950D01*
X130927930Y-88151129D01*
X130936195Y-88174228D01*
X130942156Y-88198027D01*
X130945756Y-88222295D01*
X130946960Y-88246799D01*
X130946960Y-89146801D01*
X130945756Y-89171305D01*
X130942156Y-89195573D01*
X130936195Y-89219372D01*
X130927930Y-89242471D01*
X130917440Y-89264650D01*
X130904828Y-89285693D01*
X130890213Y-89305399D01*
X130873737Y-89323577D01*
X130855559Y-89340053D01*
X130835853Y-89354668D01*
X130814810Y-89367280D01*
X130792631Y-89377770D01*
X130769532Y-89386035D01*
X130745733Y-89391996D01*
X130721465Y-89395596D01*
X130696961Y-89396800D01*
X130046959Y-89396800D01*
X130022455Y-89395596D01*
X129998187Y-89391996D01*
X129974388Y-89386035D01*
X129951289Y-89377770D01*
X129929110Y-89367280D01*
X129908067Y-89354668D01*
X129888361Y-89340053D01*
X129870183Y-89323577D01*
X129853707Y-89305399D01*
X129839092Y-89285693D01*
X129826480Y-89264650D01*
X129815990Y-89242471D01*
X129807725Y-89219372D01*
X129801764Y-89195573D01*
X129798164Y-89171305D01*
X129796960Y-89146801D01*
X129796960Y-88246799D01*
X129798164Y-88222295D01*
X129801764Y-88198027D01*
X129807725Y-88174228D01*
X129815990Y-88151129D01*
X129826480Y-88128950D01*
X129839092Y-88107907D01*
X129853707Y-88088201D01*
X129870183Y-88070023D01*
X129888361Y-88053547D01*
X129908067Y-88038932D01*
X129929110Y-88026320D01*
X129951289Y-88015830D01*
X129974388Y-88007565D01*
X129998187Y-88001604D01*
X130022455Y-87998004D01*
X130046959Y-87996800D01*
X130696961Y-87996800D01*
X130721465Y-87998004D01*
X130721465Y-87998004D01*
G37*
D11*
X130371960Y-88696800D03*
D10*
G36*
X139324505Y-73301204D02*
G01*
X139348773Y-73304804D01*
X139372572Y-73310765D01*
X139395671Y-73319030D01*
X139417850Y-73329520D01*
X139438893Y-73342132D01*
X139458599Y-73356747D01*
X139476777Y-73373223D01*
X139493253Y-73391401D01*
X139507868Y-73411107D01*
X139520480Y-73432150D01*
X139530970Y-73454329D01*
X139539235Y-73477428D01*
X139545196Y-73501227D01*
X139548796Y-73525495D01*
X139550000Y-73549999D01*
X139550000Y-74450001D01*
X139548796Y-74474505D01*
X139545196Y-74498773D01*
X139539235Y-74522572D01*
X139530970Y-74545671D01*
X139520480Y-74567850D01*
X139507868Y-74588893D01*
X139493253Y-74608599D01*
X139476777Y-74626777D01*
X139458599Y-74643253D01*
X139438893Y-74657868D01*
X139417850Y-74670480D01*
X139395671Y-74680970D01*
X139372572Y-74689235D01*
X139348773Y-74695196D01*
X139324505Y-74698796D01*
X139300001Y-74700000D01*
X138649999Y-74700000D01*
X138625495Y-74698796D01*
X138601227Y-74695196D01*
X138577428Y-74689235D01*
X138554329Y-74680970D01*
X138532150Y-74670480D01*
X138511107Y-74657868D01*
X138491401Y-74643253D01*
X138473223Y-74626777D01*
X138456747Y-74608599D01*
X138442132Y-74588893D01*
X138429520Y-74567850D01*
X138419030Y-74545671D01*
X138410765Y-74522572D01*
X138404804Y-74498773D01*
X138401204Y-74474505D01*
X138400000Y-74450001D01*
X138400000Y-73549999D01*
X138401204Y-73525495D01*
X138404804Y-73501227D01*
X138410765Y-73477428D01*
X138419030Y-73454329D01*
X138429520Y-73432150D01*
X138442132Y-73411107D01*
X138456747Y-73391401D01*
X138473223Y-73373223D01*
X138491401Y-73356747D01*
X138511107Y-73342132D01*
X138532150Y-73329520D01*
X138554329Y-73319030D01*
X138577428Y-73310765D01*
X138601227Y-73304804D01*
X138625495Y-73301204D01*
X138649999Y-73300000D01*
X139300001Y-73300000D01*
X139324505Y-73301204D01*
X139324505Y-73301204D01*
G37*
D11*
X138975000Y-74000000D03*
D10*
G36*
X141374505Y-73301204D02*
G01*
X141398773Y-73304804D01*
X141422572Y-73310765D01*
X141445671Y-73319030D01*
X141467850Y-73329520D01*
X141488893Y-73342132D01*
X141508599Y-73356747D01*
X141526777Y-73373223D01*
X141543253Y-73391401D01*
X141557868Y-73411107D01*
X141570480Y-73432150D01*
X141580970Y-73454329D01*
X141589235Y-73477428D01*
X141595196Y-73501227D01*
X141598796Y-73525495D01*
X141600000Y-73549999D01*
X141600000Y-74450001D01*
X141598796Y-74474505D01*
X141595196Y-74498773D01*
X141589235Y-74522572D01*
X141580970Y-74545671D01*
X141570480Y-74567850D01*
X141557868Y-74588893D01*
X141543253Y-74608599D01*
X141526777Y-74626777D01*
X141508599Y-74643253D01*
X141488893Y-74657868D01*
X141467850Y-74670480D01*
X141445671Y-74680970D01*
X141422572Y-74689235D01*
X141398773Y-74695196D01*
X141374505Y-74698796D01*
X141350001Y-74700000D01*
X140699999Y-74700000D01*
X140675495Y-74698796D01*
X140651227Y-74695196D01*
X140627428Y-74689235D01*
X140604329Y-74680970D01*
X140582150Y-74670480D01*
X140561107Y-74657868D01*
X140541401Y-74643253D01*
X140523223Y-74626777D01*
X140506747Y-74608599D01*
X140492132Y-74588893D01*
X140479520Y-74567850D01*
X140469030Y-74545671D01*
X140460765Y-74522572D01*
X140454804Y-74498773D01*
X140451204Y-74474505D01*
X140450000Y-74450001D01*
X140450000Y-73549999D01*
X140451204Y-73525495D01*
X140454804Y-73501227D01*
X140460765Y-73477428D01*
X140469030Y-73454329D01*
X140479520Y-73432150D01*
X140492132Y-73411107D01*
X140506747Y-73391401D01*
X140523223Y-73373223D01*
X140541401Y-73356747D01*
X140561107Y-73342132D01*
X140582150Y-73329520D01*
X140604329Y-73319030D01*
X140627428Y-73310765D01*
X140651227Y-73304804D01*
X140675495Y-73301204D01*
X140699999Y-73300000D01*
X141350001Y-73300000D01*
X141374505Y-73301204D01*
X141374505Y-73301204D01*
G37*
D11*
X141025000Y-74000000D03*
D14*
X115050000Y-91500000D03*
X116950000Y-91500000D03*
X116000000Y-94500000D03*
D15*
X144500000Y-80604360D03*
X141500000Y-79654360D03*
X141500000Y-81554360D03*
X156500000Y-72000000D03*
X153500000Y-71050000D03*
X153500000Y-72950000D03*
X137755760Y-81554320D03*
X134755760Y-80604320D03*
X134755760Y-82504320D03*
X150500000Y-73000000D03*
X147500000Y-72050000D03*
X147500000Y-73950000D03*
D10*
G36*
X187649504Y-76763704D02*
G01*
X187673773Y-76767304D01*
X187697571Y-76773265D01*
X187720671Y-76781530D01*
X187742849Y-76792020D01*
X187763893Y-76804633D01*
X187783598Y-76819247D01*
X187801777Y-76835723D01*
X187818253Y-76853902D01*
X187832867Y-76873607D01*
X187845480Y-76894651D01*
X187855970Y-76916829D01*
X187864235Y-76939929D01*
X187870196Y-76963727D01*
X187873796Y-76987996D01*
X187875000Y-77012500D01*
X187875000Y-77937500D01*
X187873796Y-77962004D01*
X187870196Y-77986273D01*
X187864235Y-78010071D01*
X187855970Y-78033171D01*
X187845480Y-78055349D01*
X187832867Y-78076393D01*
X187818253Y-78096098D01*
X187801777Y-78114277D01*
X187783598Y-78130753D01*
X187763893Y-78145367D01*
X187742849Y-78157980D01*
X187720671Y-78168470D01*
X187697571Y-78176735D01*
X187673773Y-78182696D01*
X187649504Y-78186296D01*
X187625000Y-78187500D01*
X186375000Y-78187500D01*
X186350496Y-78186296D01*
X186326227Y-78182696D01*
X186302429Y-78176735D01*
X186279329Y-78168470D01*
X186257151Y-78157980D01*
X186236107Y-78145367D01*
X186216402Y-78130753D01*
X186198223Y-78114277D01*
X186181747Y-78096098D01*
X186167133Y-78076393D01*
X186154520Y-78055349D01*
X186144030Y-78033171D01*
X186135765Y-78010071D01*
X186129804Y-77986273D01*
X186126204Y-77962004D01*
X186125000Y-77937500D01*
X186125000Y-77012500D01*
X186126204Y-76987996D01*
X186129804Y-76963727D01*
X186135765Y-76939929D01*
X186144030Y-76916829D01*
X186154520Y-76894651D01*
X186167133Y-76873607D01*
X186181747Y-76853902D01*
X186198223Y-76835723D01*
X186216402Y-76819247D01*
X186236107Y-76804633D01*
X186257151Y-76792020D01*
X186279329Y-76781530D01*
X186302429Y-76773265D01*
X186326227Y-76767304D01*
X186350496Y-76763704D01*
X186375000Y-76762500D01*
X187625000Y-76762500D01*
X187649504Y-76763704D01*
X187649504Y-76763704D01*
G37*
D16*
X187000000Y-77475000D03*
D10*
G36*
X187649504Y-73788704D02*
G01*
X187673773Y-73792304D01*
X187697571Y-73798265D01*
X187720671Y-73806530D01*
X187742849Y-73817020D01*
X187763893Y-73829633D01*
X187783598Y-73844247D01*
X187801777Y-73860723D01*
X187818253Y-73878902D01*
X187832867Y-73898607D01*
X187845480Y-73919651D01*
X187855970Y-73941829D01*
X187864235Y-73964929D01*
X187870196Y-73988727D01*
X187873796Y-74012996D01*
X187875000Y-74037500D01*
X187875000Y-74962500D01*
X187873796Y-74987004D01*
X187870196Y-75011273D01*
X187864235Y-75035071D01*
X187855970Y-75058171D01*
X187845480Y-75080349D01*
X187832867Y-75101393D01*
X187818253Y-75121098D01*
X187801777Y-75139277D01*
X187783598Y-75155753D01*
X187763893Y-75170367D01*
X187742849Y-75182980D01*
X187720671Y-75193470D01*
X187697571Y-75201735D01*
X187673773Y-75207696D01*
X187649504Y-75211296D01*
X187625000Y-75212500D01*
X186375000Y-75212500D01*
X186350496Y-75211296D01*
X186326227Y-75207696D01*
X186302429Y-75201735D01*
X186279329Y-75193470D01*
X186257151Y-75182980D01*
X186236107Y-75170367D01*
X186216402Y-75155753D01*
X186198223Y-75139277D01*
X186181747Y-75121098D01*
X186167133Y-75101393D01*
X186154520Y-75080349D01*
X186144030Y-75058171D01*
X186135765Y-75035071D01*
X186129804Y-75011273D01*
X186126204Y-74987004D01*
X186125000Y-74962500D01*
X186125000Y-74037500D01*
X186126204Y-74012996D01*
X186129804Y-73988727D01*
X186135765Y-73964929D01*
X186144030Y-73941829D01*
X186154520Y-73919651D01*
X186167133Y-73898607D01*
X186181747Y-73878902D01*
X186198223Y-73860723D01*
X186216402Y-73844247D01*
X186236107Y-73829633D01*
X186257151Y-73817020D01*
X186279329Y-73806530D01*
X186302429Y-73798265D01*
X186326227Y-73792304D01*
X186350496Y-73788704D01*
X186375000Y-73787500D01*
X187625000Y-73787500D01*
X187649504Y-73788704D01*
X187649504Y-73788704D01*
G37*
D16*
X187000000Y-74500000D03*
D10*
G36*
X128689465Y-110103244D02*
G01*
X128713733Y-110106844D01*
X128737532Y-110112805D01*
X128760631Y-110121070D01*
X128782810Y-110131560D01*
X128803853Y-110144172D01*
X128823559Y-110158787D01*
X128841737Y-110175263D01*
X128858213Y-110193441D01*
X128872828Y-110213147D01*
X128885440Y-110234190D01*
X128895930Y-110256369D01*
X128904195Y-110279468D01*
X128910156Y-110303267D01*
X128913756Y-110327535D01*
X128914960Y-110352039D01*
X128914960Y-111002041D01*
X128913756Y-111026545D01*
X128910156Y-111050813D01*
X128904195Y-111074612D01*
X128895930Y-111097711D01*
X128885440Y-111119890D01*
X128872828Y-111140933D01*
X128858213Y-111160639D01*
X128841737Y-111178817D01*
X128823559Y-111195293D01*
X128803853Y-111209908D01*
X128782810Y-111222520D01*
X128760631Y-111233010D01*
X128737532Y-111241275D01*
X128713733Y-111247236D01*
X128689465Y-111250836D01*
X128664961Y-111252040D01*
X127764959Y-111252040D01*
X127740455Y-111250836D01*
X127716187Y-111247236D01*
X127692388Y-111241275D01*
X127669289Y-111233010D01*
X127647110Y-111222520D01*
X127626067Y-111209908D01*
X127606361Y-111195293D01*
X127588183Y-111178817D01*
X127571707Y-111160639D01*
X127557092Y-111140933D01*
X127544480Y-111119890D01*
X127533990Y-111097711D01*
X127525725Y-111074612D01*
X127519764Y-111050813D01*
X127516164Y-111026545D01*
X127514960Y-111002041D01*
X127514960Y-110352039D01*
X127516164Y-110327535D01*
X127519764Y-110303267D01*
X127525725Y-110279468D01*
X127533990Y-110256369D01*
X127544480Y-110234190D01*
X127557092Y-110213147D01*
X127571707Y-110193441D01*
X127588183Y-110175263D01*
X127606361Y-110158787D01*
X127626067Y-110144172D01*
X127647110Y-110131560D01*
X127669289Y-110121070D01*
X127692388Y-110112805D01*
X127716187Y-110106844D01*
X127740455Y-110103244D01*
X127764959Y-110102040D01*
X128664961Y-110102040D01*
X128689465Y-110103244D01*
X128689465Y-110103244D01*
G37*
D11*
X128214960Y-110677040D03*
D10*
G36*
X128689465Y-108053244D02*
G01*
X128713733Y-108056844D01*
X128737532Y-108062805D01*
X128760631Y-108071070D01*
X128782810Y-108081560D01*
X128803853Y-108094172D01*
X128823559Y-108108787D01*
X128841737Y-108125263D01*
X128858213Y-108143441D01*
X128872828Y-108163147D01*
X128885440Y-108184190D01*
X128895930Y-108206369D01*
X128904195Y-108229468D01*
X128910156Y-108253267D01*
X128913756Y-108277535D01*
X128914960Y-108302039D01*
X128914960Y-108952041D01*
X128913756Y-108976545D01*
X128910156Y-109000813D01*
X128904195Y-109024612D01*
X128895930Y-109047711D01*
X128885440Y-109069890D01*
X128872828Y-109090933D01*
X128858213Y-109110639D01*
X128841737Y-109128817D01*
X128823559Y-109145293D01*
X128803853Y-109159908D01*
X128782810Y-109172520D01*
X128760631Y-109183010D01*
X128737532Y-109191275D01*
X128713733Y-109197236D01*
X128689465Y-109200836D01*
X128664961Y-109202040D01*
X127764959Y-109202040D01*
X127740455Y-109200836D01*
X127716187Y-109197236D01*
X127692388Y-109191275D01*
X127669289Y-109183010D01*
X127647110Y-109172520D01*
X127626067Y-109159908D01*
X127606361Y-109145293D01*
X127588183Y-109128817D01*
X127571707Y-109110639D01*
X127557092Y-109090933D01*
X127544480Y-109069890D01*
X127533990Y-109047711D01*
X127525725Y-109024612D01*
X127519764Y-109000813D01*
X127516164Y-108976545D01*
X127514960Y-108952041D01*
X127514960Y-108302039D01*
X127516164Y-108277535D01*
X127519764Y-108253267D01*
X127525725Y-108229468D01*
X127533990Y-108206369D01*
X127544480Y-108184190D01*
X127557092Y-108163147D01*
X127571707Y-108143441D01*
X127588183Y-108125263D01*
X127606361Y-108108787D01*
X127626067Y-108094172D01*
X127647110Y-108081560D01*
X127669289Y-108071070D01*
X127692388Y-108062805D01*
X127716187Y-108056844D01*
X127740455Y-108053244D01*
X127764959Y-108052040D01*
X128664961Y-108052040D01*
X128689465Y-108053244D01*
X128689465Y-108053244D01*
G37*
D11*
X128214960Y-108627040D03*
D10*
G36*
X119284505Y-110086204D02*
G01*
X119308773Y-110089804D01*
X119332572Y-110095765D01*
X119355671Y-110104030D01*
X119377850Y-110114520D01*
X119398893Y-110127132D01*
X119418599Y-110141747D01*
X119436777Y-110158223D01*
X119453253Y-110176401D01*
X119467868Y-110196107D01*
X119480480Y-110217150D01*
X119490970Y-110239329D01*
X119499235Y-110262428D01*
X119505196Y-110286227D01*
X119508796Y-110310495D01*
X119510000Y-110334999D01*
X119510000Y-110985001D01*
X119508796Y-111009505D01*
X119505196Y-111033773D01*
X119499235Y-111057572D01*
X119490970Y-111080671D01*
X119480480Y-111102850D01*
X119467868Y-111123893D01*
X119453253Y-111143599D01*
X119436777Y-111161777D01*
X119418599Y-111178253D01*
X119398893Y-111192868D01*
X119377850Y-111205480D01*
X119355671Y-111215970D01*
X119332572Y-111224235D01*
X119308773Y-111230196D01*
X119284505Y-111233796D01*
X119260001Y-111235000D01*
X118359999Y-111235000D01*
X118335495Y-111233796D01*
X118311227Y-111230196D01*
X118287428Y-111224235D01*
X118264329Y-111215970D01*
X118242150Y-111205480D01*
X118221107Y-111192868D01*
X118201401Y-111178253D01*
X118183223Y-111161777D01*
X118166747Y-111143599D01*
X118152132Y-111123893D01*
X118139520Y-111102850D01*
X118129030Y-111080671D01*
X118120765Y-111057572D01*
X118114804Y-111033773D01*
X118111204Y-111009505D01*
X118110000Y-110985001D01*
X118110000Y-110334999D01*
X118111204Y-110310495D01*
X118114804Y-110286227D01*
X118120765Y-110262428D01*
X118129030Y-110239329D01*
X118139520Y-110217150D01*
X118152132Y-110196107D01*
X118166747Y-110176401D01*
X118183223Y-110158223D01*
X118201401Y-110141747D01*
X118221107Y-110127132D01*
X118242150Y-110114520D01*
X118264329Y-110104030D01*
X118287428Y-110095765D01*
X118311227Y-110089804D01*
X118335495Y-110086204D01*
X118359999Y-110085000D01*
X119260001Y-110085000D01*
X119284505Y-110086204D01*
X119284505Y-110086204D01*
G37*
D11*
X118810000Y-110660000D03*
D10*
G36*
X119284505Y-108036204D02*
G01*
X119308773Y-108039804D01*
X119332572Y-108045765D01*
X119355671Y-108054030D01*
X119377850Y-108064520D01*
X119398893Y-108077132D01*
X119418599Y-108091747D01*
X119436777Y-108108223D01*
X119453253Y-108126401D01*
X119467868Y-108146107D01*
X119480480Y-108167150D01*
X119490970Y-108189329D01*
X119499235Y-108212428D01*
X119505196Y-108236227D01*
X119508796Y-108260495D01*
X119510000Y-108284999D01*
X119510000Y-108935001D01*
X119508796Y-108959505D01*
X119505196Y-108983773D01*
X119499235Y-109007572D01*
X119490970Y-109030671D01*
X119480480Y-109052850D01*
X119467868Y-109073893D01*
X119453253Y-109093599D01*
X119436777Y-109111777D01*
X119418599Y-109128253D01*
X119398893Y-109142868D01*
X119377850Y-109155480D01*
X119355671Y-109165970D01*
X119332572Y-109174235D01*
X119308773Y-109180196D01*
X119284505Y-109183796D01*
X119260001Y-109185000D01*
X118359999Y-109185000D01*
X118335495Y-109183796D01*
X118311227Y-109180196D01*
X118287428Y-109174235D01*
X118264329Y-109165970D01*
X118242150Y-109155480D01*
X118221107Y-109142868D01*
X118201401Y-109128253D01*
X118183223Y-109111777D01*
X118166747Y-109093599D01*
X118152132Y-109073893D01*
X118139520Y-109052850D01*
X118129030Y-109030671D01*
X118120765Y-109007572D01*
X118114804Y-108983773D01*
X118111204Y-108959505D01*
X118110000Y-108935001D01*
X118110000Y-108284999D01*
X118111204Y-108260495D01*
X118114804Y-108236227D01*
X118120765Y-108212428D01*
X118129030Y-108189329D01*
X118139520Y-108167150D01*
X118152132Y-108146107D01*
X118166747Y-108126401D01*
X118183223Y-108108223D01*
X118201401Y-108091747D01*
X118221107Y-108077132D01*
X118242150Y-108064520D01*
X118264329Y-108054030D01*
X118287428Y-108045765D01*
X118311227Y-108039804D01*
X118335495Y-108036204D01*
X118359999Y-108035000D01*
X119260001Y-108035000D01*
X119284505Y-108036204D01*
X119284505Y-108036204D01*
G37*
D11*
X118810000Y-108610000D03*
D10*
G36*
X187974505Y-69901204D02*
G01*
X187998773Y-69904804D01*
X188022572Y-69910765D01*
X188045671Y-69919030D01*
X188067850Y-69929520D01*
X188088893Y-69942132D01*
X188108599Y-69956747D01*
X188126777Y-69973223D01*
X188143253Y-69991401D01*
X188157868Y-70011107D01*
X188170480Y-70032150D01*
X188180970Y-70054329D01*
X188189235Y-70077428D01*
X188195196Y-70101227D01*
X188198796Y-70125495D01*
X188200000Y-70149999D01*
X188200000Y-70800001D01*
X188198796Y-70824505D01*
X188195196Y-70848773D01*
X188189235Y-70872572D01*
X188180970Y-70895671D01*
X188170480Y-70917850D01*
X188157868Y-70938893D01*
X188143253Y-70958599D01*
X188126777Y-70976777D01*
X188108599Y-70993253D01*
X188088893Y-71007868D01*
X188067850Y-71020480D01*
X188045671Y-71030970D01*
X188022572Y-71039235D01*
X187998773Y-71045196D01*
X187974505Y-71048796D01*
X187950001Y-71050000D01*
X187049999Y-71050000D01*
X187025495Y-71048796D01*
X187001227Y-71045196D01*
X186977428Y-71039235D01*
X186954329Y-71030970D01*
X186932150Y-71020480D01*
X186911107Y-71007868D01*
X186891401Y-70993253D01*
X186873223Y-70976777D01*
X186856747Y-70958599D01*
X186842132Y-70938893D01*
X186829520Y-70917850D01*
X186819030Y-70895671D01*
X186810765Y-70872572D01*
X186804804Y-70848773D01*
X186801204Y-70824505D01*
X186800000Y-70800001D01*
X186800000Y-70149999D01*
X186801204Y-70125495D01*
X186804804Y-70101227D01*
X186810765Y-70077428D01*
X186819030Y-70054329D01*
X186829520Y-70032150D01*
X186842132Y-70011107D01*
X186856747Y-69991401D01*
X186873223Y-69973223D01*
X186891401Y-69956747D01*
X186911107Y-69942132D01*
X186932150Y-69929520D01*
X186954329Y-69919030D01*
X186977428Y-69910765D01*
X187001227Y-69904804D01*
X187025495Y-69901204D01*
X187049999Y-69900000D01*
X187950001Y-69900000D01*
X187974505Y-69901204D01*
X187974505Y-69901204D01*
G37*
D11*
X187500000Y-70475000D03*
D10*
G36*
X187974505Y-71951204D02*
G01*
X187998773Y-71954804D01*
X188022572Y-71960765D01*
X188045671Y-71969030D01*
X188067850Y-71979520D01*
X188088893Y-71992132D01*
X188108599Y-72006747D01*
X188126777Y-72023223D01*
X188143253Y-72041401D01*
X188157868Y-72061107D01*
X188170480Y-72082150D01*
X188180970Y-72104329D01*
X188189235Y-72127428D01*
X188195196Y-72151227D01*
X188198796Y-72175495D01*
X188200000Y-72199999D01*
X188200000Y-72850001D01*
X188198796Y-72874505D01*
X188195196Y-72898773D01*
X188189235Y-72922572D01*
X188180970Y-72945671D01*
X188170480Y-72967850D01*
X188157868Y-72988893D01*
X188143253Y-73008599D01*
X188126777Y-73026777D01*
X188108599Y-73043253D01*
X188088893Y-73057868D01*
X188067850Y-73070480D01*
X188045671Y-73080970D01*
X188022572Y-73089235D01*
X187998773Y-73095196D01*
X187974505Y-73098796D01*
X187950001Y-73100000D01*
X187049999Y-73100000D01*
X187025495Y-73098796D01*
X187001227Y-73095196D01*
X186977428Y-73089235D01*
X186954329Y-73080970D01*
X186932150Y-73070480D01*
X186911107Y-73057868D01*
X186891401Y-73043253D01*
X186873223Y-73026777D01*
X186856747Y-73008599D01*
X186842132Y-72988893D01*
X186829520Y-72967850D01*
X186819030Y-72945671D01*
X186810765Y-72922572D01*
X186804804Y-72898773D01*
X186801204Y-72874505D01*
X186800000Y-72850001D01*
X186800000Y-72199999D01*
X186801204Y-72175495D01*
X186804804Y-72151227D01*
X186810765Y-72127428D01*
X186819030Y-72104329D01*
X186829520Y-72082150D01*
X186842132Y-72061107D01*
X186856747Y-72041401D01*
X186873223Y-72023223D01*
X186891401Y-72006747D01*
X186911107Y-71992132D01*
X186932150Y-71979520D01*
X186954329Y-71969030D01*
X186977428Y-71960765D01*
X187001227Y-71954804D01*
X187025495Y-71951204D01*
X187049999Y-71950000D01*
X187950001Y-71950000D01*
X187974505Y-71951204D01*
X187974505Y-71951204D01*
G37*
D11*
X187500000Y-72525000D03*
D10*
G36*
X190313345Y-73926204D02*
G01*
X190337613Y-73929804D01*
X190361412Y-73935765D01*
X190384511Y-73944030D01*
X190406690Y-73954520D01*
X190427733Y-73967132D01*
X190447439Y-73981747D01*
X190465617Y-73998223D01*
X190482093Y-74016401D01*
X190496708Y-74036107D01*
X190509320Y-74057150D01*
X190519810Y-74079329D01*
X190528075Y-74102428D01*
X190534036Y-74126227D01*
X190537636Y-74150495D01*
X190538840Y-74174999D01*
X190538840Y-74825001D01*
X190537636Y-74849505D01*
X190534036Y-74873773D01*
X190528075Y-74897572D01*
X190519810Y-74920671D01*
X190509320Y-74942850D01*
X190496708Y-74963893D01*
X190482093Y-74983599D01*
X190465617Y-75001777D01*
X190447439Y-75018253D01*
X190427733Y-75032868D01*
X190406690Y-75045480D01*
X190384511Y-75055970D01*
X190361412Y-75064235D01*
X190337613Y-75070196D01*
X190313345Y-75073796D01*
X190288841Y-75075000D01*
X189388839Y-75075000D01*
X189364335Y-75073796D01*
X189340067Y-75070196D01*
X189316268Y-75064235D01*
X189293169Y-75055970D01*
X189270990Y-75045480D01*
X189249947Y-75032868D01*
X189230241Y-75018253D01*
X189212063Y-75001777D01*
X189195587Y-74983599D01*
X189180972Y-74963893D01*
X189168360Y-74942850D01*
X189157870Y-74920671D01*
X189149605Y-74897572D01*
X189143644Y-74873773D01*
X189140044Y-74849505D01*
X189138840Y-74825001D01*
X189138840Y-74174999D01*
X189140044Y-74150495D01*
X189143644Y-74126227D01*
X189149605Y-74102428D01*
X189157870Y-74079329D01*
X189168360Y-74057150D01*
X189180972Y-74036107D01*
X189195587Y-74016401D01*
X189212063Y-73998223D01*
X189230241Y-73981747D01*
X189249947Y-73967132D01*
X189270990Y-73954520D01*
X189293169Y-73944030D01*
X189316268Y-73935765D01*
X189340067Y-73929804D01*
X189364335Y-73926204D01*
X189388839Y-73925000D01*
X190288841Y-73925000D01*
X190313345Y-73926204D01*
X190313345Y-73926204D01*
G37*
D11*
X189838840Y-74500000D03*
D10*
G36*
X190313345Y-75976204D02*
G01*
X190337613Y-75979804D01*
X190361412Y-75985765D01*
X190384511Y-75994030D01*
X190406690Y-76004520D01*
X190427733Y-76017132D01*
X190447439Y-76031747D01*
X190465617Y-76048223D01*
X190482093Y-76066401D01*
X190496708Y-76086107D01*
X190509320Y-76107150D01*
X190519810Y-76129329D01*
X190528075Y-76152428D01*
X190534036Y-76176227D01*
X190537636Y-76200495D01*
X190538840Y-76224999D01*
X190538840Y-76875001D01*
X190537636Y-76899505D01*
X190534036Y-76923773D01*
X190528075Y-76947572D01*
X190519810Y-76970671D01*
X190509320Y-76992850D01*
X190496708Y-77013893D01*
X190482093Y-77033599D01*
X190465617Y-77051777D01*
X190447439Y-77068253D01*
X190427733Y-77082868D01*
X190406690Y-77095480D01*
X190384511Y-77105970D01*
X190361412Y-77114235D01*
X190337613Y-77120196D01*
X190313345Y-77123796D01*
X190288841Y-77125000D01*
X189388839Y-77125000D01*
X189364335Y-77123796D01*
X189340067Y-77120196D01*
X189316268Y-77114235D01*
X189293169Y-77105970D01*
X189270990Y-77095480D01*
X189249947Y-77082868D01*
X189230241Y-77068253D01*
X189212063Y-77051777D01*
X189195587Y-77033599D01*
X189180972Y-77013893D01*
X189168360Y-76992850D01*
X189157870Y-76970671D01*
X189149605Y-76947572D01*
X189143644Y-76923773D01*
X189140044Y-76899505D01*
X189138840Y-76875001D01*
X189138840Y-76224999D01*
X189140044Y-76200495D01*
X189143644Y-76176227D01*
X189149605Y-76152428D01*
X189157870Y-76129329D01*
X189168360Y-76107150D01*
X189180972Y-76086107D01*
X189195587Y-76066401D01*
X189212063Y-76048223D01*
X189230241Y-76031747D01*
X189249947Y-76017132D01*
X189270990Y-76004520D01*
X189293169Y-75994030D01*
X189316268Y-75985765D01*
X189340067Y-75979804D01*
X189364335Y-75976204D01*
X189388839Y-75975000D01*
X190288841Y-75975000D01*
X190313345Y-75976204D01*
X190313345Y-75976204D01*
G37*
D11*
X189838840Y-76550000D03*
D10*
G36*
X122399505Y-82301204D02*
G01*
X122423773Y-82304804D01*
X122447572Y-82310765D01*
X122470671Y-82319030D01*
X122492850Y-82329520D01*
X122513893Y-82342132D01*
X122533599Y-82356747D01*
X122551777Y-82373223D01*
X122568253Y-82391401D01*
X122582868Y-82411107D01*
X122595480Y-82432150D01*
X122605970Y-82454329D01*
X122614235Y-82477428D01*
X122620196Y-82501227D01*
X122623796Y-82525495D01*
X122625000Y-82549999D01*
X122625000Y-83450001D01*
X122623796Y-83474505D01*
X122620196Y-83498773D01*
X122614235Y-83522572D01*
X122605970Y-83545671D01*
X122595480Y-83567850D01*
X122582868Y-83588893D01*
X122568253Y-83608599D01*
X122551777Y-83626777D01*
X122533599Y-83643253D01*
X122513893Y-83657868D01*
X122492850Y-83670480D01*
X122470671Y-83680970D01*
X122447572Y-83689235D01*
X122423773Y-83695196D01*
X122399505Y-83698796D01*
X122375001Y-83700000D01*
X121724999Y-83700000D01*
X121700495Y-83698796D01*
X121676227Y-83695196D01*
X121652428Y-83689235D01*
X121629329Y-83680970D01*
X121607150Y-83670480D01*
X121586107Y-83657868D01*
X121566401Y-83643253D01*
X121548223Y-83626777D01*
X121531747Y-83608599D01*
X121517132Y-83588893D01*
X121504520Y-83567850D01*
X121494030Y-83545671D01*
X121485765Y-83522572D01*
X121479804Y-83498773D01*
X121476204Y-83474505D01*
X121475000Y-83450001D01*
X121475000Y-82549999D01*
X121476204Y-82525495D01*
X121479804Y-82501227D01*
X121485765Y-82477428D01*
X121494030Y-82454329D01*
X121504520Y-82432150D01*
X121517132Y-82411107D01*
X121531747Y-82391401D01*
X121548223Y-82373223D01*
X121566401Y-82356747D01*
X121586107Y-82342132D01*
X121607150Y-82329520D01*
X121629329Y-82319030D01*
X121652428Y-82310765D01*
X121676227Y-82304804D01*
X121700495Y-82301204D01*
X121724999Y-82300000D01*
X122375001Y-82300000D01*
X122399505Y-82301204D01*
X122399505Y-82301204D01*
G37*
D11*
X122050000Y-83000000D03*
D10*
G36*
X120349505Y-82301204D02*
G01*
X120373773Y-82304804D01*
X120397572Y-82310765D01*
X120420671Y-82319030D01*
X120442850Y-82329520D01*
X120463893Y-82342132D01*
X120483599Y-82356747D01*
X120501777Y-82373223D01*
X120518253Y-82391401D01*
X120532868Y-82411107D01*
X120545480Y-82432150D01*
X120555970Y-82454329D01*
X120564235Y-82477428D01*
X120570196Y-82501227D01*
X120573796Y-82525495D01*
X120575000Y-82549999D01*
X120575000Y-83450001D01*
X120573796Y-83474505D01*
X120570196Y-83498773D01*
X120564235Y-83522572D01*
X120555970Y-83545671D01*
X120545480Y-83567850D01*
X120532868Y-83588893D01*
X120518253Y-83608599D01*
X120501777Y-83626777D01*
X120483599Y-83643253D01*
X120463893Y-83657868D01*
X120442850Y-83670480D01*
X120420671Y-83680970D01*
X120397572Y-83689235D01*
X120373773Y-83695196D01*
X120349505Y-83698796D01*
X120325001Y-83700000D01*
X119674999Y-83700000D01*
X119650495Y-83698796D01*
X119626227Y-83695196D01*
X119602428Y-83689235D01*
X119579329Y-83680970D01*
X119557150Y-83670480D01*
X119536107Y-83657868D01*
X119516401Y-83643253D01*
X119498223Y-83626777D01*
X119481747Y-83608599D01*
X119467132Y-83588893D01*
X119454520Y-83567850D01*
X119444030Y-83545671D01*
X119435765Y-83522572D01*
X119429804Y-83498773D01*
X119426204Y-83474505D01*
X119425000Y-83450001D01*
X119425000Y-82549999D01*
X119426204Y-82525495D01*
X119429804Y-82501227D01*
X119435765Y-82477428D01*
X119444030Y-82454329D01*
X119454520Y-82432150D01*
X119467132Y-82411107D01*
X119481747Y-82391401D01*
X119498223Y-82373223D01*
X119516401Y-82356747D01*
X119536107Y-82342132D01*
X119557150Y-82329520D01*
X119579329Y-82319030D01*
X119602428Y-82310765D01*
X119626227Y-82304804D01*
X119650495Y-82301204D01*
X119674999Y-82300000D01*
X120325001Y-82300000D01*
X120349505Y-82301204D01*
X120349505Y-82301204D01*
G37*
D11*
X120000000Y-83000000D03*
M02*
