G04 #@! TF.GenerationSoftware,KiCad,Pcbnew,(6.0.10)*
G04 #@! TF.CreationDate,2023-01-26T22:30:24-05:00*
G04 #@! TF.ProjectId,telemetry_transmitter,74656c65-6d65-4747-9279-5f7472616e73,rev?*
G04 #@! TF.SameCoordinates,Original*
G04 #@! TF.FileFunction,Legend,Top*
G04 #@! TF.FilePolarity,Positive*
%FSLAX46Y46*%
G04 Gerber Fmt 4.6, Leading zero omitted, Abs format (unit mm)*
G04 Created by KiCad (PCBNEW (6.0.10)) date 2023-01-26 22:30:24*
%MOMM*%
%LPD*%
G01*
G04 APERTURE LIST*
G04 Aperture macros list*
%AMRoundRect*
0 Rectangle with rounded corners*
0 $1 Rounding radius*
0 $2 $3 $4 $5 $6 $7 $8 $9 X,Y pos of 4 corners*
0 Add a 4 corners polygon primitive as box body*
4,1,4,$2,$3,$4,$5,$6,$7,$8,$9,$2,$3,0*
0 Add four circle primitives for the rounded corners*
1,1,$1+$1,$2,$3*
1,1,$1+$1,$4,$5*
1,1,$1+$1,$6,$7*
1,1,$1+$1,$8,$9*
0 Add four rect primitives between the rounded corners*
20,1,$1+$1,$2,$3,$4,$5,0*
20,1,$1+$1,$4,$5,$6,$7,0*
20,1,$1+$1,$6,$7,$8,$9,0*
20,1,$1+$1,$8,$9,$2,$3,0*%
G04 Aperture macros list end*
%ADD10C,0.150000*%
%ADD11C,0.125000*%
%ADD12C,0.120000*%
%ADD13C,0.010000*%
%ADD14C,2.702000*%
%ADD15RoundRect,0.051000X0.850000X-0.850000X0.850000X0.850000X-0.850000X0.850000X-0.850000X-0.850000X0*%
%ADD16O,1.802000X1.802000*%
%ADD17RoundRect,0.301000X0.325000X0.450000X-0.325000X0.450000X-0.325000X-0.450000X0.325000X-0.450000X0*%
%ADD18RoundRect,0.051000X-0.800000X-0.800000X0.800000X-0.800000X0.800000X0.800000X-0.800000X0.800000X0*%
%ADD19C,1.702000*%
%ADD20RoundRect,0.301000X-0.450000X0.325000X-0.450000X-0.325000X0.450000X-0.325000X0.450000X0.325000X0*%
%ADD21RoundRect,0.051000X-0.800000X0.800000X-0.800000X-0.800000X0.800000X-0.800000X0.800000X0.800000X0*%
%ADD22RoundRect,0.201000X-0.750000X-0.150000X0.750000X-0.150000X0.750000X0.150000X-0.750000X0.150000X0*%
%ADD23C,1.602000*%
%ADD24C,5.702000*%
%ADD25C,3.702000*%
%ADD26RoundRect,0.301001X-0.462499X-0.624999X0.462499X-0.624999X0.462499X0.624999X-0.462499X0.624999X0*%
%ADD27C,2.302000*%
%ADD28RoundRect,0.051000X-0.600000X0.600000X-0.600000X-0.600000X0.600000X-0.600000X0.600000X0.600000X0*%
%ADD29C,1.302000*%
G04 APERTURE END LIST*
D10*
X226857142Y-104702380D02*
X226523809Y-104226190D01*
X226285714Y-104702380D02*
X226285714Y-103702380D01*
X226666666Y-103702380D01*
X226761904Y-103750000D01*
X226809523Y-103797619D01*
X226857142Y-103892857D01*
X226857142Y-104035714D01*
X226809523Y-104130952D01*
X226761904Y-104178571D01*
X226666666Y-104226190D01*
X226285714Y-104226190D01*
X227285714Y-104178571D02*
X227619047Y-104178571D01*
X227761904Y-104702380D02*
X227285714Y-104702380D01*
X227285714Y-103702380D01*
X227761904Y-103702380D01*
X228190476Y-104702380D02*
X228190476Y-103702380D01*
X228428571Y-103702380D01*
X228571428Y-103750000D01*
X228666666Y-103845238D01*
X228714285Y-103940476D01*
X228761904Y-104130952D01*
X228761904Y-104273809D01*
X228714285Y-104464285D01*
X228666666Y-104559523D01*
X228571428Y-104654761D01*
X228428571Y-104702380D01*
X228190476Y-104702380D01*
X226440476Y-99178571D02*
X226583333Y-99226190D01*
X226630952Y-99273809D01*
X226678571Y-99369047D01*
X226678571Y-99511904D01*
X226630952Y-99607142D01*
X226583333Y-99654761D01*
X226488095Y-99702380D01*
X226107142Y-99702380D01*
X226107142Y-98702380D01*
X226440476Y-98702380D01*
X226535714Y-98750000D01*
X226583333Y-98797619D01*
X226630952Y-98892857D01*
X226630952Y-98988095D01*
X226583333Y-99083333D01*
X226535714Y-99130952D01*
X226440476Y-99178571D01*
X226107142Y-99178571D01*
X227583333Y-99702380D02*
X227107142Y-99702380D01*
X227107142Y-98702380D01*
X227916666Y-98702380D02*
X227916666Y-99511904D01*
X227964285Y-99607142D01*
X228011904Y-99654761D01*
X228107142Y-99702380D01*
X228297619Y-99702380D01*
X228392857Y-99654761D01*
X228440476Y-99607142D01*
X228488095Y-99511904D01*
X228488095Y-98702380D01*
X228964285Y-99178571D02*
X229297619Y-99178571D01*
X229440476Y-99702380D02*
X228964285Y-99702380D01*
X228964285Y-98702380D01*
X229440476Y-98702380D01*
D11*
X215052678Y-89721190D02*
X215171726Y-90221190D01*
X215266964Y-89864047D01*
X215362202Y-90221190D01*
X215481250Y-89721190D01*
X215647916Y-90078333D02*
X215886011Y-90078333D01*
X215600297Y-90221190D02*
X215766964Y-89721190D01*
X215933630Y-90221190D01*
X216028869Y-89721190D02*
X216314583Y-89721190D01*
X216171726Y-90221190D02*
X216171726Y-89721190D01*
X216481250Y-89959285D02*
X216647916Y-89959285D01*
X216719345Y-90221190D02*
X216481250Y-90221190D01*
X216481250Y-89721190D01*
X216719345Y-89721190D01*
X217219345Y-90221190D02*
X217052678Y-89983095D01*
X216933630Y-90221190D02*
X216933630Y-89721190D01*
X217124107Y-89721190D01*
X217171726Y-89745000D01*
X217195535Y-89768809D01*
X217219345Y-89816428D01*
X217219345Y-89887857D01*
X217195535Y-89935476D01*
X217171726Y-89959285D01*
X217124107Y-89983095D01*
X216933630Y-89983095D01*
X217671726Y-90221190D02*
X217433630Y-90221190D01*
X217433630Y-89721190D01*
X217933630Y-89721190D02*
X218028869Y-89721190D01*
X218076488Y-89745000D01*
X218124107Y-89792619D01*
X218147916Y-89887857D01*
X218147916Y-90054523D01*
X218124107Y-90149761D01*
X218076488Y-90197380D01*
X218028869Y-90221190D01*
X217933630Y-90221190D01*
X217886011Y-90197380D01*
X217838392Y-90149761D01*
X217814583Y-90054523D01*
X217814583Y-89887857D01*
X217838392Y-89792619D01*
X217886011Y-89745000D01*
X217933630Y-89721190D01*
X218457440Y-89721190D02*
X218552678Y-89721190D01*
X218600297Y-89745000D01*
X218647916Y-89792619D01*
X218671726Y-89887857D01*
X218671726Y-90054523D01*
X218647916Y-90149761D01*
X218600297Y-90197380D01*
X218552678Y-90221190D01*
X218457440Y-90221190D01*
X218409821Y-90197380D01*
X218362202Y-90149761D01*
X218338392Y-90054523D01*
X218338392Y-89887857D01*
X218362202Y-89792619D01*
X218409821Y-89745000D01*
X218457440Y-89721190D01*
X219552678Y-90221190D02*
X219386011Y-89983095D01*
X219266964Y-90221190D02*
X219266964Y-89721190D01*
X219457440Y-89721190D01*
X219505059Y-89745000D01*
X219528869Y-89768809D01*
X219552678Y-89816428D01*
X219552678Y-89887857D01*
X219528869Y-89935476D01*
X219505059Y-89959285D01*
X219457440Y-89983095D01*
X219266964Y-89983095D01*
X219862202Y-89721190D02*
X219957440Y-89721190D01*
X220005059Y-89745000D01*
X220052678Y-89792619D01*
X220076488Y-89887857D01*
X220076488Y-90054523D01*
X220052678Y-90149761D01*
X220005059Y-90197380D01*
X219957440Y-90221190D01*
X219862202Y-90221190D01*
X219814583Y-90197380D01*
X219766964Y-90149761D01*
X219743154Y-90054523D01*
X219743154Y-89887857D01*
X219766964Y-89792619D01*
X219814583Y-89745000D01*
X219862202Y-89721190D01*
X220576488Y-90173571D02*
X220552678Y-90197380D01*
X220481250Y-90221190D01*
X220433630Y-90221190D01*
X220362202Y-90197380D01*
X220314583Y-90149761D01*
X220290773Y-90102142D01*
X220266964Y-90006904D01*
X220266964Y-89935476D01*
X220290773Y-89840238D01*
X220314583Y-89792619D01*
X220362202Y-89745000D01*
X220433630Y-89721190D01*
X220481250Y-89721190D01*
X220552678Y-89745000D01*
X220576488Y-89768809D01*
X220790773Y-90221190D02*
X220790773Y-89721190D01*
X221076488Y-90221190D02*
X220862202Y-89935476D01*
X221076488Y-89721190D02*
X220790773Y-90006904D01*
X221290773Y-89959285D02*
X221457440Y-89959285D01*
X221528869Y-90221190D02*
X221290773Y-90221190D01*
X221290773Y-89721190D01*
X221528869Y-89721190D01*
X221671726Y-89721190D02*
X221957440Y-89721190D01*
X221814583Y-90221190D02*
X221814583Y-89721190D01*
X222409821Y-90221190D02*
X222243154Y-89983095D01*
X222124107Y-90221190D02*
X222124107Y-89721190D01*
X222314583Y-89721190D01*
X222362202Y-89745000D01*
X222386011Y-89768809D01*
X222409821Y-89816428D01*
X222409821Y-89887857D01*
X222386011Y-89935476D01*
X222362202Y-89959285D01*
X222314583Y-89983095D01*
X222124107Y-89983095D01*
X222719345Y-89983095D02*
X222719345Y-90221190D01*
X222552678Y-89721190D02*
X222719345Y-89983095D01*
X222886011Y-89721190D01*
X215338392Y-91026190D02*
X215100297Y-91026190D01*
X215100297Y-90526190D01*
X215433630Y-90526190D02*
X215719345Y-90526190D01*
X215576488Y-91026190D02*
X215576488Y-90526190D01*
X215814583Y-90526190D02*
X216100297Y-90526190D01*
X215957440Y-91026190D02*
X215957440Y-90526190D01*
X216576488Y-90526190D02*
X216743154Y-91026190D01*
X216909821Y-90526190D01*
X217052678Y-90573809D02*
X217076488Y-90550000D01*
X217124107Y-90526190D01*
X217243154Y-90526190D01*
X217290773Y-90550000D01*
X217314583Y-90573809D01*
X217338392Y-90621428D01*
X217338392Y-90669047D01*
X217314583Y-90740476D01*
X217028869Y-91026190D01*
X217338392Y-91026190D01*
X217933630Y-90835714D02*
X218314583Y-90835714D01*
X218862202Y-90526190D02*
X219147916Y-90526190D01*
X219005059Y-91026190D02*
X219005059Y-90526190D01*
X219409821Y-90526190D02*
X219505059Y-90526190D01*
X219552678Y-90550000D01*
X219600297Y-90597619D01*
X219624107Y-90692857D01*
X219624107Y-90859523D01*
X219600297Y-90954761D01*
X219552678Y-91002380D01*
X219505059Y-91026190D01*
X219409821Y-91026190D01*
X219362202Y-91002380D01*
X219314583Y-90954761D01*
X219290773Y-90859523D01*
X219290773Y-90692857D01*
X219314583Y-90597619D01*
X219362202Y-90550000D01*
X219409821Y-90526190D01*
X219838392Y-91026190D02*
X219838392Y-90526190D01*
X220124107Y-91026190D02*
X219909821Y-90740476D01*
X220124107Y-90526190D02*
X219838392Y-90811904D01*
X220433630Y-90788095D02*
X220433630Y-91026190D01*
X220266964Y-90526190D02*
X220433630Y-90788095D01*
X220600297Y-90526190D01*
X220862202Y-90526190D02*
X220957440Y-90526190D01*
X221005059Y-90550000D01*
X221052678Y-90597619D01*
X221076488Y-90692857D01*
X221076488Y-90859523D01*
X221052678Y-90954761D01*
X221005059Y-91002380D01*
X220957440Y-91026190D01*
X220862202Y-91026190D01*
X220814583Y-91002380D01*
X220766964Y-90954761D01*
X220743154Y-90859523D01*
X220743154Y-90692857D01*
X220766964Y-90597619D01*
X220814583Y-90550000D01*
X220862202Y-90526190D01*
X215076488Y-91378809D02*
X215100297Y-91355000D01*
X215147916Y-91331190D01*
X215266964Y-91331190D01*
X215314583Y-91355000D01*
X215338392Y-91378809D01*
X215362202Y-91426428D01*
X215362202Y-91474047D01*
X215338392Y-91545476D01*
X215052678Y-91831190D01*
X215362202Y-91831190D01*
X215671726Y-91331190D02*
X215719345Y-91331190D01*
X215766964Y-91355000D01*
X215790773Y-91378809D01*
X215814583Y-91426428D01*
X215838392Y-91521666D01*
X215838392Y-91640714D01*
X215814583Y-91735952D01*
X215790773Y-91783571D01*
X215766964Y-91807380D01*
X215719345Y-91831190D01*
X215671726Y-91831190D01*
X215624107Y-91807380D01*
X215600297Y-91783571D01*
X215576488Y-91735952D01*
X215552678Y-91640714D01*
X215552678Y-91521666D01*
X215576488Y-91426428D01*
X215600297Y-91378809D01*
X215624107Y-91355000D01*
X215671726Y-91331190D01*
X216028869Y-91378809D02*
X216052678Y-91355000D01*
X216100297Y-91331190D01*
X216219345Y-91331190D01*
X216266964Y-91355000D01*
X216290773Y-91378809D01*
X216314583Y-91426428D01*
X216314583Y-91474047D01*
X216290773Y-91545476D01*
X216005059Y-91831190D01*
X216314583Y-91831190D01*
X216481250Y-91331190D02*
X216790773Y-91331190D01*
X216624107Y-91521666D01*
X216695535Y-91521666D01*
X216743154Y-91545476D01*
X216766964Y-91569285D01*
X216790773Y-91616904D01*
X216790773Y-91735952D01*
X216766964Y-91783571D01*
X216743154Y-91807380D01*
X216695535Y-91831190D01*
X216552678Y-91831190D01*
X216505059Y-91807380D01*
X216481250Y-91783571D01*
X217005059Y-91640714D02*
X217386011Y-91640714D01*
X217719345Y-91331190D02*
X217766964Y-91331190D01*
X217814583Y-91355000D01*
X217838392Y-91378809D01*
X217862202Y-91426428D01*
X217886011Y-91521666D01*
X217886011Y-91640714D01*
X217862202Y-91735952D01*
X217838392Y-91783571D01*
X217814583Y-91807380D01*
X217766964Y-91831190D01*
X217719345Y-91831190D01*
X217671726Y-91807380D01*
X217647916Y-91783571D01*
X217624107Y-91735952D01*
X217600297Y-91640714D01*
X217600297Y-91521666D01*
X217624107Y-91426428D01*
X217647916Y-91378809D01*
X217671726Y-91355000D01*
X217719345Y-91331190D01*
X218362202Y-91831190D02*
X218076488Y-91831190D01*
X218219345Y-91831190D02*
X218219345Y-91331190D01*
X218171726Y-91402619D01*
X218124107Y-91450238D01*
X218076488Y-91474047D01*
X218576488Y-91640714D02*
X218957440Y-91640714D01*
X219457440Y-91831190D02*
X219171726Y-91831190D01*
X219314583Y-91831190D02*
X219314583Y-91331190D01*
X219266964Y-91402619D01*
X219219345Y-91450238D01*
X219171726Y-91474047D01*
X219909821Y-91331190D02*
X219671726Y-91331190D01*
X219647916Y-91569285D01*
X219671726Y-91545476D01*
X219719345Y-91521666D01*
X219838392Y-91521666D01*
X219886011Y-91545476D01*
X219909821Y-91569285D01*
X219933630Y-91616904D01*
X219933630Y-91735952D01*
X219909821Y-91783571D01*
X219886011Y-91807380D01*
X219838392Y-91831190D01*
X219719345Y-91831190D01*
X219671726Y-91807380D01*
X219647916Y-91783571D01*
D10*
X225476190Y-108452380D02*
X225714285Y-109452380D01*
X225904761Y-108738095D01*
X226095238Y-109452380D01*
X226333333Y-108452380D01*
X226714285Y-109452380D02*
X226714285Y-108452380D01*
X226714285Y-108928571D02*
X227285714Y-108928571D01*
X227285714Y-109452380D02*
X227285714Y-108452380D01*
X227761904Y-109452380D02*
X227761904Y-108452380D01*
X228095238Y-108452380D02*
X228666666Y-108452380D01*
X228380952Y-109452380D02*
X228380952Y-108452380D01*
X229000000Y-108928571D02*
X229333333Y-108928571D01*
X229476190Y-109452380D02*
X229000000Y-109452380D01*
X229000000Y-108452380D01*
X229476190Y-108452380D01*
X191333333Y-92452380D02*
X190857142Y-92452380D01*
X190857142Y-91452380D01*
X192190476Y-92452380D02*
X191619047Y-92452380D01*
X191904761Y-92452380D02*
X191904761Y-91452380D01*
X191809523Y-91595238D01*
X191714285Y-91690476D01*
X191619047Y-91738095D01*
X196021666Y-113477380D02*
X196021666Y-114191666D01*
X195974047Y-114334523D01*
X195878809Y-114429761D01*
X195735952Y-114477380D01*
X195640714Y-114477380D01*
X196974047Y-113477380D02*
X196497857Y-113477380D01*
X196450238Y-113953571D01*
X196497857Y-113905952D01*
X196593095Y-113858333D01*
X196831190Y-113858333D01*
X196926428Y-113905952D01*
X196974047Y-113953571D01*
X197021666Y-114048809D01*
X197021666Y-114286904D01*
X196974047Y-114382142D01*
X196926428Y-114429761D01*
X196831190Y-114477380D01*
X196593095Y-114477380D01*
X196497857Y-114429761D01*
X196450238Y-114382142D01*
X189333333Y-97607142D02*
X189285714Y-97654761D01*
X189142857Y-97702380D01*
X189047619Y-97702380D01*
X188904761Y-97654761D01*
X188809523Y-97559523D01*
X188761904Y-97464285D01*
X188714285Y-97273809D01*
X188714285Y-97130952D01*
X188761904Y-96940476D01*
X188809523Y-96845238D01*
X188904761Y-96750000D01*
X189047619Y-96702380D01*
X189142857Y-96702380D01*
X189285714Y-96750000D01*
X189333333Y-96797619D01*
X190285714Y-97702380D02*
X189714285Y-97702380D01*
X190000000Y-97702380D02*
X190000000Y-96702380D01*
X189904761Y-96845238D01*
X189809523Y-96940476D01*
X189714285Y-96988095D01*
X227833333Y-95557142D02*
X227785714Y-95604761D01*
X227642857Y-95652380D01*
X227547619Y-95652380D01*
X227404761Y-95604761D01*
X227309523Y-95509523D01*
X227261904Y-95414285D01*
X227214285Y-95223809D01*
X227214285Y-95080952D01*
X227261904Y-94890476D01*
X227309523Y-94795238D01*
X227404761Y-94700000D01*
X227547619Y-94652380D01*
X227642857Y-94652380D01*
X227785714Y-94700000D01*
X227833333Y-94747619D01*
X228738095Y-94652380D02*
X228261904Y-94652380D01*
X228214285Y-95128571D01*
X228261904Y-95080952D01*
X228357142Y-95033333D01*
X228595238Y-95033333D01*
X228690476Y-95080952D01*
X228738095Y-95128571D01*
X228785714Y-95223809D01*
X228785714Y-95461904D01*
X228738095Y-95557142D01*
X228690476Y-95604761D01*
X228595238Y-95652380D01*
X228357142Y-95652380D01*
X228261904Y-95604761D01*
X228214285Y-95557142D01*
X216833333Y-102157142D02*
X216785714Y-102204761D01*
X216642857Y-102252380D01*
X216547619Y-102252380D01*
X216404761Y-102204761D01*
X216309523Y-102109523D01*
X216261904Y-102014285D01*
X216214285Y-101823809D01*
X216214285Y-101680952D01*
X216261904Y-101490476D01*
X216309523Y-101395238D01*
X216404761Y-101300000D01*
X216547619Y-101252380D01*
X216642857Y-101252380D01*
X216785714Y-101300000D01*
X216833333Y-101347619D01*
X217166666Y-101252380D02*
X217785714Y-101252380D01*
X217452380Y-101633333D01*
X217595238Y-101633333D01*
X217690476Y-101680952D01*
X217738095Y-101728571D01*
X217785714Y-101823809D01*
X217785714Y-102061904D01*
X217738095Y-102157142D01*
X217690476Y-102204761D01*
X217595238Y-102252380D01*
X217309523Y-102252380D01*
X217214285Y-102204761D01*
X217166666Y-102157142D01*
X190083333Y-105357142D02*
X190035714Y-105404761D01*
X189892857Y-105452380D01*
X189797619Y-105452380D01*
X189654761Y-105404761D01*
X189559523Y-105309523D01*
X189511904Y-105214285D01*
X189464285Y-105023809D01*
X189464285Y-104880952D01*
X189511904Y-104690476D01*
X189559523Y-104595238D01*
X189654761Y-104500000D01*
X189797619Y-104452380D01*
X189892857Y-104452380D01*
X190035714Y-104500000D01*
X190083333Y-104547619D01*
X190559523Y-105452380D02*
X190750000Y-105452380D01*
X190845238Y-105404761D01*
X190892857Y-105357142D01*
X190988095Y-105214285D01*
X191035714Y-105023809D01*
X191035714Y-104642857D01*
X190988095Y-104547619D01*
X190940476Y-104500000D01*
X190845238Y-104452380D01*
X190654761Y-104452380D01*
X190559523Y-104500000D01*
X190511904Y-104547619D01*
X190464285Y-104642857D01*
X190464285Y-104880952D01*
X190511904Y-104976190D01*
X190559523Y-105023809D01*
X190654761Y-105071428D01*
X190845238Y-105071428D01*
X190940476Y-105023809D01*
X190988095Y-104976190D01*
X191035714Y-104880952D01*
X189308333Y-102607142D02*
X189260714Y-102654761D01*
X189117857Y-102702380D01*
X189022619Y-102702380D01*
X188879761Y-102654761D01*
X188784523Y-102559523D01*
X188736904Y-102464285D01*
X188689285Y-102273809D01*
X188689285Y-102130952D01*
X188736904Y-101940476D01*
X188784523Y-101845238D01*
X188879761Y-101750000D01*
X189022619Y-101702380D01*
X189117857Y-101702380D01*
X189260714Y-101750000D01*
X189308333Y-101797619D01*
X189689285Y-101797619D02*
X189736904Y-101750000D01*
X189832142Y-101702380D01*
X190070238Y-101702380D01*
X190165476Y-101750000D01*
X190213095Y-101797619D01*
X190260714Y-101892857D01*
X190260714Y-101988095D01*
X190213095Y-102130952D01*
X189641666Y-102702380D01*
X190260714Y-102702380D01*
X207738095Y-85152380D02*
X207738095Y-85961904D01*
X207785714Y-86057142D01*
X207833333Y-86104761D01*
X207928571Y-86152380D01*
X208119047Y-86152380D01*
X208214285Y-86104761D01*
X208261904Y-86057142D01*
X208309523Y-85961904D01*
X208309523Y-85152380D01*
X209309523Y-86152380D02*
X208738095Y-86152380D01*
X209023809Y-86152380D02*
X209023809Y-85152380D01*
X208928571Y-85295238D01*
X208833333Y-85390476D01*
X208738095Y-85438095D01*
X193523809Y-93976190D02*
X193523809Y-94452380D01*
X193190476Y-93452380D02*
X193523809Y-93976190D01*
X193857142Y-93452380D01*
X194714285Y-94452380D02*
X194142857Y-94452380D01*
X194428571Y-94452380D02*
X194428571Y-93452380D01*
X194333333Y-93595238D01*
X194238095Y-93690476D01*
X194142857Y-93738095D01*
X225298095Y-85552380D02*
X225298095Y-84552380D01*
X225298095Y-85028571D02*
X225869523Y-85028571D01*
X225869523Y-85552380D02*
X225869523Y-84552380D01*
X226250476Y-84552380D02*
X226869523Y-84552380D01*
X226536190Y-84933333D01*
X226679047Y-84933333D01*
X226774285Y-84980952D01*
X226821904Y-85028571D01*
X226869523Y-85123809D01*
X226869523Y-85361904D01*
X226821904Y-85457142D01*
X226774285Y-85504761D01*
X226679047Y-85552380D01*
X226393333Y-85552380D01*
X226298095Y-85504761D01*
X226250476Y-85457142D01*
X187198095Y-113492380D02*
X187198095Y-112492380D01*
X187198095Y-112968571D02*
X187769523Y-112968571D01*
X187769523Y-113492380D02*
X187769523Y-112492380D01*
X188198095Y-112587619D02*
X188245714Y-112540000D01*
X188340952Y-112492380D01*
X188579047Y-112492380D01*
X188674285Y-112540000D01*
X188721904Y-112587619D01*
X188769523Y-112682857D01*
X188769523Y-112778095D01*
X188721904Y-112920952D01*
X188150476Y-113492380D01*
X188769523Y-113492380D01*
X187198095Y-85552380D02*
X187198095Y-84552380D01*
X187198095Y-85028571D02*
X187769523Y-85028571D01*
X187769523Y-85552380D02*
X187769523Y-84552380D01*
X188769523Y-85552380D02*
X188198095Y-85552380D01*
X188483809Y-85552380D02*
X188483809Y-84552380D01*
X188388571Y-84695238D01*
X188293333Y-84790476D01*
X188198095Y-84838095D01*
X223261904Y-106724620D02*
X223261904Y-105724620D01*
X223500000Y-105724620D01*
X223642857Y-105772240D01*
X223738095Y-105867478D01*
X223785714Y-105962716D01*
X223833333Y-106153192D01*
X223833333Y-106296049D01*
X223785714Y-106486525D01*
X223738095Y-106581763D01*
X223642857Y-106677001D01*
X223500000Y-106724620D01*
X223261904Y-106724620D01*
X224214285Y-105819859D02*
X224261904Y-105772240D01*
X224357142Y-105724620D01*
X224595238Y-105724620D01*
X224690476Y-105772240D01*
X224738095Y-105819859D01*
X224785714Y-105915097D01*
X224785714Y-106010335D01*
X224738095Y-106153192D01*
X224166666Y-106724620D01*
X224785714Y-106724620D01*
X223261904Y-101817380D02*
X223261904Y-100817380D01*
X223500000Y-100817380D01*
X223642857Y-100865000D01*
X223738095Y-100960238D01*
X223785714Y-101055476D01*
X223833333Y-101245952D01*
X223833333Y-101388809D01*
X223785714Y-101579285D01*
X223738095Y-101674523D01*
X223642857Y-101769761D01*
X223500000Y-101817380D01*
X223261904Y-101817380D01*
X224785714Y-101817380D02*
X224214285Y-101817380D01*
X224500000Y-101817380D02*
X224500000Y-100817380D01*
X224404761Y-100960238D01*
X224309523Y-101055476D01*
X224214285Y-101103095D01*
X223261904Y-111452380D02*
X223261904Y-110452380D01*
X223500000Y-110452380D01*
X223642857Y-110500000D01*
X223738095Y-110595238D01*
X223785714Y-110690476D01*
X223833333Y-110880952D01*
X223833333Y-111023809D01*
X223785714Y-111214285D01*
X223738095Y-111309523D01*
X223642857Y-111404761D01*
X223500000Y-111452380D01*
X223261904Y-111452380D01*
X224166666Y-110452380D02*
X224785714Y-110452380D01*
X224452380Y-110833333D01*
X224595238Y-110833333D01*
X224690476Y-110880952D01*
X224738095Y-110928571D01*
X224785714Y-111023809D01*
X224785714Y-111261904D01*
X224738095Y-111357142D01*
X224690476Y-111404761D01*
X224595238Y-111452380D01*
X224309523Y-111452380D01*
X224214285Y-111404761D01*
X224166666Y-111357142D01*
X184416666Y-91202380D02*
X184416666Y-91916666D01*
X184369047Y-92059523D01*
X184273809Y-92154761D01*
X184130952Y-92202380D01*
X184035714Y-92202380D01*
X184845238Y-91297619D02*
X184892857Y-91250000D01*
X184988095Y-91202380D01*
X185226190Y-91202380D01*
X185321428Y-91250000D01*
X185369047Y-91297619D01*
X185416666Y-91392857D01*
X185416666Y-91488095D01*
X185369047Y-91630952D01*
X184797619Y-92202380D01*
X185416666Y-92202380D01*
X221387085Y-108452380D02*
X221053752Y-107976190D01*
X220815656Y-108452380D02*
X220815656Y-107452380D01*
X221196609Y-107452380D01*
X221291847Y-107500000D01*
X221339466Y-107547619D01*
X221387085Y-107642857D01*
X221387085Y-107785714D01*
X221339466Y-107880952D01*
X221291847Y-107928571D01*
X221196609Y-107976190D01*
X220815656Y-107976190D01*
X221768037Y-107547619D02*
X221815656Y-107500000D01*
X221910894Y-107452380D01*
X222148990Y-107452380D01*
X222244228Y-107500000D01*
X222291847Y-107547619D01*
X222339466Y-107642857D01*
X222339466Y-107738095D01*
X222291847Y-107880952D01*
X221720418Y-108452380D01*
X222339466Y-108452380D01*
X221357085Y-103452380D02*
X221023752Y-102976190D01*
X220785656Y-103452380D02*
X220785656Y-102452380D01*
X221166609Y-102452380D01*
X221261847Y-102500000D01*
X221309466Y-102547619D01*
X221357085Y-102642857D01*
X221357085Y-102785714D01*
X221309466Y-102880952D01*
X221261847Y-102928571D01*
X221166609Y-102976190D01*
X220785656Y-102976190D01*
X222309466Y-103452380D02*
X221738037Y-103452380D01*
X222023752Y-103452380D02*
X222023752Y-102452380D01*
X221928513Y-102595238D01*
X221833275Y-102690476D01*
X221738037Y-102738095D01*
X221344585Y-113452380D02*
X221011252Y-112976190D01*
X220773156Y-113452380D02*
X220773156Y-112452380D01*
X221154109Y-112452380D01*
X221249347Y-112500000D01*
X221296966Y-112547619D01*
X221344585Y-112642857D01*
X221344585Y-112785714D01*
X221296966Y-112880952D01*
X221249347Y-112928571D01*
X221154109Y-112976190D01*
X220773156Y-112976190D01*
X221677918Y-112452380D02*
X222296966Y-112452380D01*
X221963632Y-112833333D01*
X222106490Y-112833333D01*
X222201728Y-112880952D01*
X222249347Y-112928571D01*
X222296966Y-113023809D01*
X222296966Y-113261904D01*
X222249347Y-113357142D01*
X222201728Y-113404761D01*
X222106490Y-113452380D01*
X221820775Y-113452380D01*
X221725537Y-113404761D01*
X221677918Y-113357142D01*
X225298095Y-113492380D02*
X225298095Y-112492380D01*
X225298095Y-112968571D02*
X225869523Y-112968571D01*
X225869523Y-113492380D02*
X225869523Y-112492380D01*
X226774285Y-112825714D02*
X226774285Y-113492380D01*
X226536190Y-112444761D02*
X226298095Y-113159047D01*
X226917142Y-113159047D01*
D12*
X200970000Y-88750000D02*
G75*
G03*
X200970000Y-88750000I-4470000J0D01*
G01*
X197795000Y-121005000D02*
X197795000Y-112375000D01*
X208015000Y-121005000D02*
X208015000Y-112375000D01*
X207105000Y-109865000D02*
X207105000Y-109425000D01*
X198623570Y-121005000D02*
X198623570Y-112375000D01*
X201305000Y-109865000D02*
X201305000Y-109425000D01*
X204565000Y-112375000D02*
X204565000Y-111965000D01*
X197915000Y-121005000D02*
X197915000Y-112375000D01*
X211465000Y-109865000D02*
X211465000Y-109425000D01*
X198765000Y-112375000D02*
X198765000Y-111965000D01*
X206385000Y-109865000D02*
X206385000Y-109425000D01*
X202025000Y-112375000D02*
X202025000Y-111965000D01*
X200158805Y-121005000D02*
X200158805Y-112375000D01*
X199804520Y-121005000D02*
X199804520Y-112375000D01*
X206385000Y-112375000D02*
X206385000Y-111965000D01*
X199485000Y-112375000D02*
X199485000Y-111965000D01*
X203845000Y-112375000D02*
X203845000Y-111965000D01*
X209645000Y-109865000D02*
X209645000Y-109425000D01*
X214005000Y-112375000D02*
X214005000Y-111965000D01*
X198977855Y-121005000D02*
X198977855Y-112375000D01*
X198765000Y-109865000D02*
X198765000Y-109485000D01*
X205475000Y-121005000D02*
X205475000Y-112375000D01*
X200040710Y-121005000D02*
X200040710Y-112375000D01*
X212185000Y-109865000D02*
X212185000Y-109425000D01*
X216545000Y-109865000D02*
X216545000Y-109425000D01*
X215635000Y-121005000D02*
X215635000Y-112375000D01*
X198151190Y-121005000D02*
X198151190Y-112375000D01*
X199922615Y-121005000D02*
X199922615Y-112375000D01*
X208925000Y-112375000D02*
X208925000Y-111965000D01*
X198741665Y-121005000D02*
X198741665Y-112375000D01*
X214005000Y-109865000D02*
X214005000Y-109425000D01*
X211465000Y-112375000D02*
X211465000Y-111965000D01*
X199568330Y-121005000D02*
X199568330Y-112375000D01*
X214725000Y-112375000D02*
X214725000Y-111965000D01*
X198269285Y-121005000D02*
X198269285Y-112375000D01*
X199095950Y-121005000D02*
X199095950Y-112375000D01*
X199485000Y-109865000D02*
X199485000Y-109485000D01*
X207105000Y-112375000D02*
X207105000Y-111965000D01*
X198859760Y-121005000D02*
X198859760Y-112375000D01*
X210555000Y-121005000D02*
X210555000Y-112375000D01*
X202935000Y-121005000D02*
X202935000Y-112375000D01*
X209645000Y-112375000D02*
X209645000Y-111965000D01*
X200276900Y-121005000D02*
X200276900Y-112375000D01*
X217265000Y-112375000D02*
X217265000Y-111965000D01*
X198033095Y-121005000D02*
X198033095Y-112375000D01*
X199686425Y-121005000D02*
X199686425Y-112375000D01*
X198505475Y-121005000D02*
X198505475Y-112375000D01*
X201305000Y-112375000D02*
X201305000Y-111965000D01*
X197795000Y-121005000D02*
X218235000Y-121005000D01*
X197795000Y-107265000D02*
X199125000Y-107265000D01*
X199450235Y-121005000D02*
X199450235Y-112375000D01*
X198387380Y-121005000D02*
X198387380Y-112375000D01*
X218235000Y-121005000D02*
X218235000Y-112375000D01*
X197795000Y-112375000D02*
X218235000Y-112375000D01*
X212185000Y-112375000D02*
X212185000Y-111965000D01*
X200395000Y-121005000D02*
X200395000Y-112375000D01*
X199332140Y-121005000D02*
X199332140Y-112375000D01*
X213095000Y-121005000D02*
X213095000Y-112375000D01*
X199214045Y-121005000D02*
X199214045Y-112375000D01*
X204565000Y-109865000D02*
X204565000Y-109425000D01*
X217265000Y-109865000D02*
X217265000Y-109425000D01*
X208925000Y-109865000D02*
X208925000Y-109425000D01*
X216545000Y-112375000D02*
X216545000Y-111965000D01*
X214725000Y-109865000D02*
X214725000Y-109425000D01*
X202025000Y-109865000D02*
X202025000Y-109425000D01*
X203845000Y-109865000D02*
X203845000Y-109425000D01*
X197795000Y-108375000D02*
X197795000Y-107265000D01*
X192736252Y-96540000D02*
X192213748Y-96540000D01*
X192736252Y-97960000D02*
X192213748Y-97960000D01*
X225229606Y-92710000D02*
X225229606Y-98290000D01*
X224269606Y-92053000D02*
X224269606Y-94460000D01*
X224669606Y-96540000D02*
X224669606Y-98724000D01*
X224869606Y-92412000D02*
X224869606Y-94460000D01*
X224629606Y-92251000D02*
X224629606Y-94460000D01*
X218821395Y-92950000D02*
X218821395Y-93700000D01*
X224069606Y-91964000D02*
X224069606Y-94460000D01*
X224709606Y-96540000D02*
X224709606Y-98698000D01*
X223148606Y-96540000D02*
X223148606Y-99290000D01*
X223789606Y-91860000D02*
X223789606Y-94460000D01*
X224389606Y-92114000D02*
X224389606Y-94460000D01*
X223549606Y-96540000D02*
X223549606Y-99210000D01*
X223268606Y-91730000D02*
X223268606Y-94460000D01*
X224429606Y-92135000D02*
X224429606Y-94460000D01*
X224669606Y-92276000D02*
X224669606Y-94460000D01*
X225109606Y-92602000D02*
X225109606Y-98398000D01*
X222868606Y-91680000D02*
X222868606Y-94460000D01*
X224469606Y-92157000D02*
X224469606Y-94460000D01*
X224589606Y-92226000D02*
X224589606Y-94460000D01*
X224269606Y-96540000D02*
X224269606Y-98947000D01*
X223869606Y-91887000D02*
X223869606Y-94460000D01*
X224189606Y-96540000D02*
X224189606Y-98984000D01*
X224829606Y-96540000D02*
X224829606Y-98616000D01*
X225389606Y-92868000D02*
X225389606Y-98132000D01*
X225549606Y-93046000D02*
X225549606Y-97954000D01*
X224549606Y-96540000D02*
X224549606Y-98797000D01*
X223429606Y-96540000D02*
X223429606Y-99238000D01*
X223749606Y-91847000D02*
X223749606Y-94460000D01*
X225829606Y-93423000D02*
X225829606Y-97577000D01*
X224109606Y-91980000D02*
X224109606Y-94460000D01*
X223349606Y-96540000D02*
X223349606Y-99255000D01*
X223989606Y-91932000D02*
X223989606Y-94460000D01*
X223429606Y-91762000D02*
X223429606Y-94460000D01*
X224309606Y-92073000D02*
X224309606Y-94460000D01*
X224989606Y-92504000D02*
X224989606Y-98496000D01*
X224109606Y-96540000D02*
X224109606Y-99020000D01*
X222908606Y-96540000D02*
X222908606Y-99317000D01*
X225949606Y-93619000D02*
X225949606Y-97381000D01*
X223589606Y-96540000D02*
X223589606Y-99199000D01*
X223148606Y-91710000D02*
X223148606Y-94460000D01*
X225869606Y-93486000D02*
X225869606Y-97514000D01*
X223028606Y-96540000D02*
X223028606Y-99305000D01*
X222788606Y-91675000D02*
X222788606Y-99325000D01*
X224749606Y-92328000D02*
X224749606Y-94460000D01*
X223629606Y-91812000D02*
X223629606Y-94460000D01*
X224069606Y-96540000D02*
X224069606Y-99036000D01*
X224149606Y-91998000D02*
X224149606Y-94460000D01*
X223309606Y-96540000D02*
X223309606Y-99263000D01*
X222868606Y-96540000D02*
X222868606Y-99320000D01*
X224029606Y-91947000D02*
X224029606Y-94460000D01*
X223829606Y-91874000D02*
X223829606Y-94460000D01*
X224309606Y-96540000D02*
X224309606Y-98927000D01*
X224909606Y-92442000D02*
X224909606Y-98558000D01*
X222748606Y-91673000D02*
X222748606Y-99327000D01*
X223949606Y-91916000D02*
X223949606Y-94460000D01*
X224349606Y-96540000D02*
X224349606Y-98907000D01*
X222828606Y-91677000D02*
X222828606Y-94460000D01*
X224869606Y-96540000D02*
X224869606Y-98588000D01*
X225709606Y-93250000D02*
X225709606Y-97750000D01*
X225069606Y-92569000D02*
X225069606Y-98431000D01*
X224789606Y-96540000D02*
X224789606Y-98644000D01*
X224509606Y-92179000D02*
X224509606Y-94460000D01*
X225349606Y-92827000D02*
X225349606Y-98173000D01*
X223949606Y-96540000D02*
X223949606Y-99084000D01*
X222828606Y-96540000D02*
X222828606Y-99323000D01*
X224749606Y-96540000D02*
X224749606Y-98672000D01*
X223989606Y-96540000D02*
X223989606Y-99068000D01*
X223829606Y-96540000D02*
X223829606Y-99126000D01*
X225789606Y-93363000D02*
X225789606Y-97637000D01*
X222948606Y-91686000D02*
X222948606Y-94460000D01*
X223509606Y-91780000D02*
X223509606Y-94460000D01*
X225589606Y-93095000D02*
X225589606Y-97905000D01*
X223709606Y-96540000D02*
X223709606Y-99165000D01*
X224349606Y-92093000D02*
X224349606Y-94460000D01*
X223389606Y-91753000D02*
X223389606Y-94460000D01*
X225029606Y-92536000D02*
X225029606Y-98464000D01*
X224189606Y-92016000D02*
X224189606Y-94460000D01*
X223709606Y-91835000D02*
X223709606Y-94460000D01*
X223268606Y-96540000D02*
X223268606Y-99270000D01*
X223589606Y-91801000D02*
X223589606Y-94460000D01*
X223228606Y-96540000D02*
X223228606Y-99277000D01*
X224389606Y-96540000D02*
X224389606Y-98886000D01*
X223309606Y-91737000D02*
X223309606Y-94460000D01*
X225749606Y-93305000D02*
X225749606Y-97695000D01*
X226429606Y-95059000D02*
X226429606Y-95941000D01*
X223188606Y-91716000D02*
X223188606Y-94460000D01*
X223869606Y-96540000D02*
X223869606Y-99113000D01*
X222948606Y-96540000D02*
X222948606Y-99314000D01*
X223549606Y-91790000D02*
X223549606Y-94460000D01*
X223669606Y-96540000D02*
X223669606Y-99177000D01*
X225469606Y-92954000D02*
X225469606Y-98046000D01*
X225189606Y-92673000D02*
X225189606Y-98327000D01*
X225269606Y-92748000D02*
X225269606Y-98252000D01*
X225909606Y-93551000D02*
X225909606Y-97449000D01*
X224509606Y-96540000D02*
X224509606Y-98821000D01*
X225989606Y-93691000D02*
X225989606Y-97309000D01*
X226389606Y-94807000D02*
X226389606Y-96193000D01*
X226189606Y-94119000D02*
X226189606Y-96881000D01*
X226149606Y-94022000D02*
X226149606Y-96978000D01*
X225149606Y-92637000D02*
X225149606Y-98363000D01*
X223469606Y-96540000D02*
X223469606Y-99229000D01*
X226309606Y-94472000D02*
X226309606Y-96528000D01*
X224429606Y-96540000D02*
X224429606Y-98865000D01*
X225429606Y-92911000D02*
X225429606Y-98089000D01*
X223749606Y-96540000D02*
X223749606Y-99153000D01*
X224829606Y-92384000D02*
X224829606Y-94460000D01*
X223068606Y-96540000D02*
X223068606Y-99301000D01*
X223669606Y-91823000D02*
X223669606Y-94460000D01*
X222908606Y-91683000D02*
X222908606Y-94460000D01*
X224709606Y-92302000D02*
X224709606Y-94460000D01*
X223629606Y-96540000D02*
X223629606Y-99188000D01*
X226069606Y-93846000D02*
X226069606Y-97154000D01*
X223509606Y-96540000D02*
X223509606Y-99220000D01*
X223108606Y-96540000D02*
X223108606Y-99295000D01*
X224229606Y-92034000D02*
X224229606Y-94460000D01*
X223909606Y-91902000D02*
X223909606Y-94460000D01*
X226029606Y-93767000D02*
X226029606Y-97233000D01*
X226349606Y-94623000D02*
X226349606Y-96377000D01*
X224549606Y-92203000D02*
X224549606Y-94460000D01*
X224469606Y-96540000D02*
X224469606Y-98843000D01*
X223028606Y-91695000D02*
X223028606Y-94460000D01*
X223108606Y-91705000D02*
X223108606Y-94460000D01*
X225669606Y-93196000D02*
X225669606Y-97804000D01*
X222588606Y-91670000D02*
X222588606Y-99330000D01*
X222988606Y-91690000D02*
X222988606Y-94460000D01*
X226269606Y-94342000D02*
X226269606Y-96658000D01*
X225629606Y-93145000D02*
X225629606Y-97855000D01*
X218446395Y-93325000D02*
X219196395Y-93325000D01*
X224949606Y-92472000D02*
X224949606Y-98528000D01*
X223909606Y-96540000D02*
X223909606Y-99098000D01*
X224629606Y-96540000D02*
X224629606Y-98749000D01*
X222628606Y-91670000D02*
X222628606Y-99330000D01*
X226109606Y-93931000D02*
X226109606Y-97069000D01*
X223068606Y-91699000D02*
X223068606Y-94460000D01*
X222668606Y-91670000D02*
X222668606Y-99330000D01*
X223188606Y-96540000D02*
X223188606Y-99284000D01*
X223349606Y-91745000D02*
X223349606Y-94460000D01*
X222708606Y-91671000D02*
X222708606Y-99329000D01*
X224149606Y-96540000D02*
X224149606Y-99002000D01*
X223789606Y-96540000D02*
X223789606Y-99140000D01*
X225509606Y-93000000D02*
X225509606Y-98000000D01*
X224029606Y-96540000D02*
X224029606Y-99053000D01*
X224229606Y-96540000D02*
X224229606Y-98966000D01*
X226229606Y-94225000D02*
X226229606Y-96775000D01*
X225309606Y-92787000D02*
X225309606Y-98213000D01*
X223228606Y-91723000D02*
X223228606Y-94460000D01*
X223469606Y-91771000D02*
X223469606Y-94460000D01*
X224789606Y-92356000D02*
X224789606Y-94460000D01*
X222988606Y-96540000D02*
X222988606Y-99310000D01*
X223389606Y-96540000D02*
X223389606Y-99247000D01*
X224589606Y-96540000D02*
X224589606Y-98774000D01*
X226458606Y-95500000D02*
G75*
G03*
X226458606Y-95500000I-3870000J0D01*
G01*
X216290000Y-98738748D02*
X216290000Y-99261252D01*
X217710000Y-98738748D02*
X217710000Y-99261252D01*
X195050000Y-105482789D02*
X194300000Y-105482789D01*
X195774000Y-111251000D02*
X193540000Y-111251000D01*
X191460000Y-110971000D02*
X189073000Y-110971000D01*
X195886000Y-111051000D02*
X193540000Y-111051000D01*
X191460000Y-111451000D02*
X189356000Y-111451000D01*
X193881000Y-112851000D02*
X191119000Y-112851000D01*
X194233000Y-112691000D02*
X190767000Y-112691000D01*
X191460000Y-110571000D02*
X188902000Y-110571000D01*
X191460000Y-110251000D02*
X188801000Y-110251000D01*
X196317000Y-109570000D02*
X193540000Y-109570000D01*
X195252000Y-111931000D02*
X189748000Y-111931000D01*
X191460000Y-110931000D02*
X189053000Y-110931000D01*
X194381000Y-112611000D02*
X190619000Y-112611000D01*
X194695000Y-112411000D02*
X190305000Y-112411000D01*
X195046000Y-112131000D02*
X189954000Y-112131000D01*
X195672000Y-111411000D02*
X193540000Y-111411000D01*
X196314000Y-109610000D02*
X193540000Y-109610000D01*
X195821000Y-111171000D02*
X193540000Y-111171000D01*
X191460000Y-110051000D02*
X188753000Y-110051000D01*
X194750000Y-112371000D02*
X190250000Y-112371000D01*
X196247000Y-110051000D02*
X193540000Y-110051000D01*
X191460000Y-109930000D02*
X188730000Y-109930000D01*
X193658000Y-112931000D02*
X191342000Y-112931000D01*
X195984000Y-110851000D02*
X193540000Y-110851000D01*
X195528000Y-111611000D02*
X189472000Y-111611000D01*
X194855000Y-112291000D02*
X190145000Y-112291000D01*
X191460000Y-109530000D02*
X188680000Y-109530000D01*
X196330000Y-109290000D02*
X188670000Y-109290000D01*
X193978000Y-112811000D02*
X191022000Y-112811000D01*
X191460000Y-109610000D02*
X188686000Y-109610000D01*
X192941000Y-113091000D02*
X192059000Y-113091000D01*
X191460000Y-110491000D02*
X188874000Y-110491000D01*
X191460000Y-110211000D02*
X188790000Y-110211000D01*
X191460000Y-110371000D02*
X188835000Y-110371000D01*
X191460000Y-109810000D02*
X188710000Y-109810000D01*
X195000000Y-112171000D02*
X190000000Y-112171000D01*
X195927000Y-110971000D02*
X193540000Y-110971000D01*
X195865000Y-111091000D02*
X193540000Y-111091000D01*
X196126000Y-110491000D02*
X193540000Y-110491000D01*
X191460000Y-109850000D02*
X188716000Y-109850000D01*
X191460000Y-111371000D02*
X189302000Y-111371000D01*
X195496000Y-111651000D02*
X189504000Y-111651000D01*
X195966000Y-110891000D02*
X193540000Y-110891000D01*
X195327000Y-111851000D02*
X189673000Y-111851000D01*
X196238000Y-110091000D02*
X193540000Y-110091000D01*
X195724000Y-111331000D02*
X193540000Y-111331000D01*
X191460000Y-111531000D02*
X189412000Y-111531000D01*
X195464000Y-111691000D02*
X189536000Y-111691000D01*
X195290000Y-111891000D02*
X189710000Y-111891000D01*
X196177000Y-110331000D02*
X193540000Y-110331000D01*
X196084000Y-110611000D02*
X193540000Y-110611000D01*
X196327000Y-109410000D02*
X188673000Y-109410000D01*
X191460000Y-109490000D02*
X188677000Y-109490000D01*
X196284000Y-109850000D02*
X193540000Y-109850000D01*
X191460000Y-110611000D02*
X188916000Y-110611000D01*
X194954000Y-112211000D02*
X190046000Y-112211000D01*
X195698000Y-111371000D02*
X193540000Y-111371000D01*
X196098000Y-110571000D02*
X193540000Y-110571000D01*
X191460000Y-109570000D02*
X188683000Y-109570000D01*
X196229000Y-110131000D02*
X193540000Y-110131000D01*
X191460000Y-110851000D02*
X189016000Y-110851000D01*
X196305000Y-109690000D02*
X193540000Y-109690000D01*
X191460000Y-109971000D02*
X188737000Y-109971000D01*
X196290000Y-109810000D02*
X193540000Y-109810000D01*
X196263000Y-109971000D02*
X193540000Y-109971000D01*
X195797000Y-111211000D02*
X193540000Y-111211000D01*
X196210000Y-110211000D02*
X193540000Y-110211000D01*
X193377000Y-113011000D02*
X191623000Y-113011000D01*
X191460000Y-111291000D02*
X189251000Y-111291000D01*
X194637000Y-112451000D02*
X190363000Y-112451000D01*
X196323000Y-109490000D02*
X193540000Y-109490000D01*
X194905000Y-112251000D02*
X190095000Y-112251000D01*
X196277000Y-109890000D02*
X193540000Y-109890000D01*
X191460000Y-109690000D02*
X188695000Y-109690000D01*
X196020000Y-110771000D02*
X193540000Y-110771000D01*
X191460000Y-109730000D02*
X188699000Y-109730000D01*
X196188000Y-110291000D02*
X193540000Y-110291000D01*
X191460000Y-110891000D02*
X189034000Y-110891000D01*
X194577000Y-112491000D02*
X190423000Y-112491000D01*
X196310000Y-109650000D02*
X193540000Y-109650000D01*
X196165000Y-110371000D02*
X193540000Y-110371000D01*
X196325000Y-109450000D02*
X188675000Y-109450000D01*
X196113000Y-110531000D02*
X193540000Y-110531000D01*
X191460000Y-110531000D02*
X188887000Y-110531000D01*
X196255000Y-110011000D02*
X193540000Y-110011000D01*
X191460000Y-111051000D02*
X189114000Y-111051000D01*
X195173000Y-112011000D02*
X189827000Y-112011000D01*
X191460000Y-110131000D02*
X188771000Y-110131000D01*
X195907000Y-111011000D02*
X193540000Y-111011000D01*
X195363000Y-111811000D02*
X189637000Y-111811000D01*
X191460000Y-111491000D02*
X189384000Y-111491000D01*
X195616000Y-111491000D02*
X193540000Y-111491000D01*
X191460000Y-110651000D02*
X188932000Y-110651000D01*
X195132000Y-112051000D02*
X189868000Y-112051000D01*
X194449000Y-112571000D02*
X190551000Y-112571000D01*
X196330000Y-109330000D02*
X188670000Y-109330000D01*
X195947000Y-110931000D02*
X193540000Y-110931000D01*
X194804000Y-112331000D02*
X190196000Y-112331000D01*
X191460000Y-109890000D02*
X188723000Y-109890000D01*
X194514000Y-112531000D02*
X190486000Y-112531000D01*
X191460000Y-111411000D02*
X189328000Y-111411000D01*
X191460000Y-110411000D02*
X188847000Y-110411000D01*
X195558000Y-111571000D02*
X189442000Y-111571000D01*
X191460000Y-110011000D02*
X188745000Y-110011000D01*
X191460000Y-110451000D02*
X188860000Y-110451000D01*
X196036000Y-110731000D02*
X193540000Y-110731000D01*
X194154000Y-112731000D02*
X190846000Y-112731000D01*
X191460000Y-111171000D02*
X189179000Y-111171000D01*
X196295000Y-109770000D02*
X193540000Y-109770000D01*
X191460000Y-111251000D02*
X189226000Y-111251000D01*
X196199000Y-110251000D02*
X193540000Y-110251000D01*
X196329000Y-109370000D02*
X188671000Y-109370000D01*
X195843000Y-111131000D02*
X193540000Y-111131000D01*
X196220000Y-110171000D02*
X193540000Y-110171000D01*
X196270000Y-109930000D02*
X193540000Y-109930000D01*
X191460000Y-110291000D02*
X188812000Y-110291000D01*
X194309000Y-112651000D02*
X190691000Y-112651000D01*
X196153000Y-110411000D02*
X193540000Y-110411000D01*
X195213000Y-111971000D02*
X189787000Y-111971000D01*
X191460000Y-111091000D02*
X189135000Y-111091000D01*
X191460000Y-111331000D02*
X189276000Y-111331000D01*
X191460000Y-110091000D02*
X188762000Y-110091000D01*
X191460000Y-109770000D02*
X188705000Y-109770000D01*
X195431000Y-111731000D02*
X189569000Y-111731000D01*
X193528000Y-112971000D02*
X191472000Y-112971000D01*
X196320000Y-109530000D02*
X193540000Y-109530000D01*
X191460000Y-110331000D02*
X188823000Y-110331000D01*
X191460000Y-111211000D02*
X189203000Y-111211000D01*
X196301000Y-109730000D02*
X193540000Y-109730000D01*
X195644000Y-111451000D02*
X193540000Y-111451000D01*
X191460000Y-111011000D02*
X189093000Y-111011000D01*
X191460000Y-109650000D02*
X188690000Y-109650000D01*
X194069000Y-112771000D02*
X190931000Y-112771000D01*
X195089000Y-112091000D02*
X189911000Y-112091000D01*
X194675000Y-105107789D02*
X194675000Y-105857789D01*
X196140000Y-110451000D02*
X193540000Y-110451000D01*
X191460000Y-110771000D02*
X188980000Y-110771000D01*
X196068000Y-110651000D02*
X193540000Y-110651000D01*
X195588000Y-111531000D02*
X193540000Y-111531000D01*
X193193000Y-113051000D02*
X191807000Y-113051000D01*
X191460000Y-110171000D02*
X188780000Y-110171000D01*
X196330000Y-109250000D02*
X188670000Y-109250000D01*
X195749000Y-111291000D02*
X193540000Y-111291000D01*
X191460000Y-110691000D02*
X188947000Y-110691000D01*
X191460000Y-110811000D02*
X188998000Y-110811000D01*
X195398000Y-111771000D02*
X189602000Y-111771000D01*
X196053000Y-110691000D02*
X193540000Y-110691000D01*
X196002000Y-110811000D02*
X193540000Y-110811000D01*
X191460000Y-111131000D02*
X189157000Y-111131000D01*
X191460000Y-110731000D02*
X188964000Y-110731000D01*
X193775000Y-112891000D02*
X191225000Y-112891000D01*
X196370000Y-109250000D02*
G75*
G03*
X196370000Y-109250000I-3870000J0D01*
G01*
X192736252Y-102960000D02*
X192213748Y-102960000D01*
X192736252Y-101540000D02*
X192213748Y-101540000D01*
X208500000Y-86540000D02*
X212360000Y-86540000D01*
X208500000Y-105460000D02*
X212360000Y-105460000D01*
X204640000Y-86540000D02*
X204640000Y-87185000D01*
X208500000Y-86540000D02*
X204640000Y-86540000D01*
X204640000Y-105460000D02*
X204640000Y-104815000D01*
X212360000Y-86540000D02*
X212360000Y-87185000D01*
X212360000Y-105460000D02*
X212360000Y-104815000D01*
X208500000Y-105460000D02*
X204640000Y-105460000D01*
X204640000Y-87185000D02*
X202800000Y-87185000D01*
X200525000Y-96615000D02*
X200525000Y-102865000D01*
X195475000Y-96615000D02*
X195475000Y-102865000D01*
X200525000Y-96615000D02*
G75*
G03*
X195475000Y-96615000I-2525000J0D01*
G01*
X195475000Y-102865000D02*
G75*
G03*
X200525000Y-102865000I2525000J0D01*
G01*
X225082500Y-105115000D02*
X225082500Y-107385000D01*
X225082500Y-107385000D02*
X229142500Y-107385000D01*
X229142500Y-105115000D02*
X225082500Y-105115000D01*
X225040000Y-100230000D02*
X225040000Y-102500000D01*
X229100000Y-100230000D02*
X225040000Y-100230000D01*
X225040000Y-102500000D02*
X229100000Y-102500000D01*
X229100000Y-109865000D02*
X225040000Y-109865000D01*
X225040000Y-109865000D02*
X225040000Y-112135000D01*
X225040000Y-112135000D02*
X229100000Y-112135000D01*
D10*
X183800000Y-102000000D02*
X183500000Y-102000000D01*
X187500000Y-93000000D02*
X183500000Y-93000000D01*
X183800000Y-100000000D02*
X183800000Y-102000000D01*
X183500000Y-109000000D02*
X187500000Y-109000000D01*
X183500000Y-102000000D02*
X183500000Y-109000000D01*
X187500000Y-109000000D02*
X187500000Y-93000000D01*
X183500000Y-100000000D02*
X183800000Y-100000000D01*
X183500000Y-93000000D02*
X183500000Y-100000000D01*
D12*
X221553752Y-106960000D02*
X221031248Y-106960000D01*
X221553752Y-105540000D02*
X221031248Y-105540000D01*
X221523752Y-102024360D02*
X221001248Y-102024360D01*
X221523752Y-100604360D02*
X221001248Y-100604360D01*
X221511252Y-111710000D02*
X220988748Y-111710000D01*
X221511252Y-110290000D02*
X220988748Y-110290000D01*
G36*
X216040697Y-85953970D02*
G01*
X216060033Y-85957400D01*
X216090352Y-85963030D01*
X216130319Y-85970605D01*
X216178599Y-85979871D01*
X216233859Y-85990572D01*
X216294762Y-86002455D01*
X216359976Y-86015263D01*
X216361094Y-86015484D01*
X216441677Y-86031474D01*
X216509475Y-86045182D01*
X216565396Y-86056815D01*
X216610348Y-86066580D01*
X216645239Y-86074683D01*
X216670978Y-86081330D01*
X216688474Y-86086729D01*
X216698633Y-86091085D01*
X216701102Y-86092804D01*
X216713574Y-86106227D01*
X216732726Y-86129656D01*
X216757447Y-86161566D01*
X216786624Y-86200433D01*
X216819144Y-86244732D01*
X216853896Y-86292937D01*
X216889767Y-86343524D01*
X216925644Y-86394969D01*
X216960415Y-86445745D01*
X216982273Y-86478234D01*
X217085542Y-86637334D01*
X217186719Y-86801776D01*
X217284654Y-86969429D01*
X217378199Y-87138163D01*
X217466202Y-87305847D01*
X217547513Y-87470352D01*
X217620984Y-87629546D01*
X217684782Y-87779617D01*
X217700866Y-87820630D01*
X217718350Y-87867438D01*
X217736411Y-87917618D01*
X217754230Y-87968749D01*
X217770987Y-88018409D01*
X217785860Y-88064176D01*
X217798030Y-88103629D01*
X217806676Y-88134346D01*
X217810389Y-88150372D01*
X217814647Y-88167015D01*
X217819120Y-88175845D01*
X217820077Y-88176274D01*
X217826754Y-88171234D01*
X217841072Y-88157142D01*
X217861646Y-88135541D01*
X217887088Y-88107973D01*
X217916016Y-88075981D01*
X217947042Y-88041108D01*
X217978782Y-88004897D01*
X218009851Y-87968889D01*
X218038864Y-87934628D01*
X218060049Y-87909040D01*
X218124931Y-87827140D01*
X218184680Y-87746123D01*
X218241417Y-87662812D01*
X218297268Y-87574035D01*
X218354354Y-87476615D01*
X218380812Y-87429471D01*
X218400513Y-87394757D01*
X218418166Y-87365166D01*
X218432620Y-87342505D01*
X218442728Y-87328579D01*
X218447259Y-87325088D01*
X218452526Y-87333146D01*
X218462843Y-87350848D01*
X218476705Y-87375556D01*
X218492178Y-87403836D01*
X218569089Y-87539716D01*
X218647247Y-87664810D01*
X218728710Y-87782225D01*
X218815537Y-87895070D01*
X218826337Y-87908357D01*
X218852781Y-87940211D01*
X218882384Y-87975040D01*
X218913767Y-88011306D01*
X218945545Y-88047468D01*
X218976339Y-88081989D01*
X219004766Y-88113329D01*
X219029445Y-88139948D01*
X219048992Y-88160309D01*
X219062028Y-88172872D01*
X219066883Y-88176274D01*
X219071129Y-88170181D01*
X219075610Y-88155069D01*
X219076571Y-88150372D01*
X219081986Y-88127926D01*
X219091549Y-88094900D01*
X219104440Y-88053717D01*
X219119838Y-88006799D01*
X219136924Y-87956567D01*
X219154876Y-87905443D01*
X219172873Y-87855849D01*
X219190097Y-87810206D01*
X219202178Y-87779617D01*
X219265492Y-87630701D01*
X219337659Y-87474261D01*
X219417518Y-87312442D01*
X219503912Y-87147390D01*
X219595683Y-86981251D01*
X219691672Y-86816171D01*
X219790722Y-86654296D01*
X219891675Y-86497772D01*
X219903995Y-86479251D01*
X219937378Y-86429822D01*
X219972611Y-86378694D01*
X220008585Y-86327389D01*
X220044188Y-86277430D01*
X220078312Y-86230339D01*
X220109845Y-86187639D01*
X220137678Y-86150854D01*
X220160700Y-86121504D01*
X220177802Y-86101114D01*
X220185553Y-86093079D01*
X220192906Y-86089111D01*
X220207791Y-86084066D01*
X220231057Y-86077752D01*
X220263552Y-86069977D01*
X220306124Y-86060547D01*
X220359624Y-86049271D01*
X220424898Y-86035955D01*
X220502795Y-86020407D01*
X220525561Y-86015908D01*
X220590866Y-86003064D01*
X220651884Y-85991137D01*
X220707281Y-85980382D01*
X220755724Y-85971055D01*
X220795878Y-85963412D01*
X220826409Y-85957708D01*
X220845985Y-85954198D01*
X220853271Y-85953137D01*
X220853282Y-85953143D01*
X220851871Y-85959843D01*
X220847357Y-85978646D01*
X220840092Y-86008171D01*
X220830424Y-86047039D01*
X220818704Y-86093869D01*
X220805282Y-86147282D01*
X220790509Y-86205897D01*
X220774733Y-86268334D01*
X220758307Y-86333214D01*
X220741579Y-86399155D01*
X220724899Y-86464779D01*
X220708619Y-86528704D01*
X220693087Y-86589551D01*
X220678655Y-86645940D01*
X220665672Y-86696491D01*
X220654488Y-86739823D01*
X220645454Y-86774557D01*
X220638920Y-86799312D01*
X220635235Y-86812708D01*
X220635076Y-86813241D01*
X220636765Y-86818541D01*
X220645068Y-86826598D01*
X220661059Y-86838116D01*
X220685815Y-86853804D01*
X220720413Y-86874366D01*
X220765929Y-86900511D01*
X220781465Y-86909317D01*
X220822695Y-86932840D01*
X220859584Y-86954285D01*
X220890494Y-86972666D01*
X220913786Y-86986997D01*
X220927821Y-86996294D01*
X220931288Y-86999400D01*
X220925575Y-87003811D01*
X220908909Y-87015347D01*
X220882003Y-87033538D01*
X220845567Y-87057913D01*
X220800312Y-87088004D01*
X220746950Y-87123340D01*
X220686192Y-87163452D01*
X220618749Y-87207870D01*
X220545332Y-87256125D01*
X220466653Y-87307746D01*
X220383423Y-87362264D01*
X220296352Y-87419210D01*
X220228519Y-87463515D01*
X220139009Y-87522002D01*
X220052800Y-87578441D01*
X219970605Y-87632360D01*
X219893136Y-87683288D01*
X219821103Y-87730752D01*
X219755218Y-87774282D01*
X219696194Y-87813407D01*
X219644741Y-87847654D01*
X219601572Y-87876551D01*
X219567398Y-87899629D01*
X219542930Y-87916414D01*
X219528881Y-87926436D01*
X219525609Y-87929233D01*
X219527617Y-87937185D01*
X219533405Y-87956948D01*
X219542527Y-87987073D01*
X219554537Y-88026109D01*
X219568987Y-88072609D01*
X219585430Y-88125123D01*
X219603421Y-88182200D01*
X219609899Y-88202667D01*
X219628187Y-88260842D01*
X219644891Y-88314858D01*
X219659588Y-88363284D01*
X219671858Y-88404691D01*
X219681279Y-88437649D01*
X219687428Y-88460726D01*
X219689885Y-88472494D01*
X219689790Y-88473681D01*
X219682366Y-88473537D01*
X219662111Y-88471817D01*
X219630012Y-88468631D01*
X219587052Y-88464090D01*
X219534217Y-88458305D01*
X219472491Y-88451385D01*
X219402861Y-88443441D01*
X219326309Y-88434584D01*
X219243823Y-88424924D01*
X219156386Y-88414571D01*
X219064983Y-88403637D01*
X219064365Y-88403562D01*
X218443480Y-88328904D01*
X217835318Y-88402206D01*
X217744521Y-88413127D01*
X217657459Y-88423557D01*
X217575154Y-88433374D01*
X217498628Y-88442460D01*
X217428902Y-88450694D01*
X217366997Y-88457956D01*
X217313935Y-88464126D01*
X217270738Y-88469085D01*
X217238427Y-88472712D01*
X217218024Y-88474888D01*
X217210756Y-88475507D01*
X217198157Y-88473419D01*
X217194356Y-88469732D01*
X217196394Y-88462038D01*
X217202208Y-88442534D01*
X217211348Y-88412669D01*
X217223364Y-88373894D01*
X217237806Y-88327658D01*
X217254223Y-88275412D01*
X217272167Y-88218605D01*
X217277863Y-88200631D01*
X217296193Y-88142644D01*
X217313129Y-88088704D01*
X217328221Y-88040273D01*
X217341018Y-87998814D01*
X217351070Y-87965788D01*
X217357926Y-87942658D01*
X217361135Y-87930887D01*
X217361320Y-87929790D01*
X217355599Y-87925101D01*
X217338923Y-87913295D01*
X217312004Y-87894844D01*
X217275553Y-87870220D01*
X217230283Y-87839894D01*
X217176903Y-87804340D01*
X217116127Y-87764028D01*
X217048665Y-87719433D01*
X216975229Y-87671025D01*
X216896530Y-87619276D01*
X216813281Y-87564660D01*
X216726192Y-87507648D01*
X216658471Y-87463395D01*
X216568975Y-87404918D01*
X216482781Y-87348516D01*
X216400602Y-87294658D01*
X216323148Y-87243814D01*
X216251130Y-87196454D01*
X216185259Y-87153047D01*
X216126246Y-87114064D01*
X216074803Y-87079972D01*
X216031641Y-87051244D01*
X215997471Y-87028346D01*
X215973003Y-87011751D01*
X215958950Y-87001926D01*
X215955672Y-86999280D01*
X215961476Y-86994556D01*
X215977797Y-86984037D01*
X216002995Y-86968707D01*
X216035432Y-86949550D01*
X216073468Y-86927549D01*
X216105494Y-86909317D01*
X216154408Y-86881406D01*
X216192089Y-86859284D01*
X216219613Y-86842243D01*
X216238057Y-86829578D01*
X216248497Y-86820582D01*
X216252010Y-86814548D01*
X216251884Y-86813241D01*
X216248416Y-86800724D01*
X216242074Y-86776746D01*
X216233207Y-86742687D01*
X216222165Y-86699928D01*
X216209299Y-86649849D01*
X216194959Y-86593829D01*
X216179495Y-86533250D01*
X216163256Y-86469492D01*
X216146593Y-86403934D01*
X216129857Y-86337957D01*
X216113396Y-86272941D01*
X216097562Y-86210267D01*
X216082705Y-86151314D01*
X216069173Y-86097463D01*
X216057319Y-86050094D01*
X216047491Y-86010588D01*
X216040040Y-85980324D01*
X216035315Y-85960682D01*
X216033668Y-85953044D01*
X216033677Y-85952994D01*
X216040697Y-85953970D01*
G37*
D13*
X216040697Y-85953970D02*
X216060033Y-85957400D01*
X216090352Y-85963030D01*
X216130319Y-85970605D01*
X216178599Y-85979871D01*
X216233859Y-85990572D01*
X216294762Y-86002455D01*
X216359976Y-86015263D01*
X216361094Y-86015484D01*
X216441677Y-86031474D01*
X216509475Y-86045182D01*
X216565396Y-86056815D01*
X216610348Y-86066580D01*
X216645239Y-86074683D01*
X216670978Y-86081330D01*
X216688474Y-86086729D01*
X216698633Y-86091085D01*
X216701102Y-86092804D01*
X216713574Y-86106227D01*
X216732726Y-86129656D01*
X216757447Y-86161566D01*
X216786624Y-86200433D01*
X216819144Y-86244732D01*
X216853896Y-86292937D01*
X216889767Y-86343524D01*
X216925644Y-86394969D01*
X216960415Y-86445745D01*
X216982273Y-86478234D01*
X217085542Y-86637334D01*
X217186719Y-86801776D01*
X217284654Y-86969429D01*
X217378199Y-87138163D01*
X217466202Y-87305847D01*
X217547513Y-87470352D01*
X217620984Y-87629546D01*
X217684782Y-87779617D01*
X217700866Y-87820630D01*
X217718350Y-87867438D01*
X217736411Y-87917618D01*
X217754230Y-87968749D01*
X217770987Y-88018409D01*
X217785860Y-88064176D01*
X217798030Y-88103629D01*
X217806676Y-88134346D01*
X217810389Y-88150372D01*
X217814647Y-88167015D01*
X217819120Y-88175845D01*
X217820077Y-88176274D01*
X217826754Y-88171234D01*
X217841072Y-88157142D01*
X217861646Y-88135541D01*
X217887088Y-88107973D01*
X217916016Y-88075981D01*
X217947042Y-88041108D01*
X217978782Y-88004897D01*
X218009851Y-87968889D01*
X218038864Y-87934628D01*
X218060049Y-87909040D01*
X218124931Y-87827140D01*
X218184680Y-87746123D01*
X218241417Y-87662812D01*
X218297268Y-87574035D01*
X218354354Y-87476615D01*
X218380812Y-87429471D01*
X218400513Y-87394757D01*
X218418166Y-87365166D01*
X218432620Y-87342505D01*
X218442728Y-87328579D01*
X218447259Y-87325088D01*
X218452526Y-87333146D01*
X218462843Y-87350848D01*
X218476705Y-87375556D01*
X218492178Y-87403836D01*
X218569089Y-87539716D01*
X218647247Y-87664810D01*
X218728710Y-87782225D01*
X218815537Y-87895070D01*
X218826337Y-87908357D01*
X218852781Y-87940211D01*
X218882384Y-87975040D01*
X218913767Y-88011306D01*
X218945545Y-88047468D01*
X218976339Y-88081989D01*
X219004766Y-88113329D01*
X219029445Y-88139948D01*
X219048992Y-88160309D01*
X219062028Y-88172872D01*
X219066883Y-88176274D01*
X219071129Y-88170181D01*
X219075610Y-88155069D01*
X219076571Y-88150372D01*
X219081986Y-88127926D01*
X219091549Y-88094900D01*
X219104440Y-88053717D01*
X219119838Y-88006799D01*
X219136924Y-87956567D01*
X219154876Y-87905443D01*
X219172873Y-87855849D01*
X219190097Y-87810206D01*
X219202178Y-87779617D01*
X219265492Y-87630701D01*
X219337659Y-87474261D01*
X219417518Y-87312442D01*
X219503912Y-87147390D01*
X219595683Y-86981251D01*
X219691672Y-86816171D01*
X219790722Y-86654296D01*
X219891675Y-86497772D01*
X219903995Y-86479251D01*
X219937378Y-86429822D01*
X219972611Y-86378694D01*
X220008585Y-86327389D01*
X220044188Y-86277430D01*
X220078312Y-86230339D01*
X220109845Y-86187639D01*
X220137678Y-86150854D01*
X220160700Y-86121504D01*
X220177802Y-86101114D01*
X220185553Y-86093079D01*
X220192906Y-86089111D01*
X220207791Y-86084066D01*
X220231057Y-86077752D01*
X220263552Y-86069977D01*
X220306124Y-86060547D01*
X220359624Y-86049271D01*
X220424898Y-86035955D01*
X220502795Y-86020407D01*
X220525561Y-86015908D01*
X220590866Y-86003064D01*
X220651884Y-85991137D01*
X220707281Y-85980382D01*
X220755724Y-85971055D01*
X220795878Y-85963412D01*
X220826409Y-85957708D01*
X220845985Y-85954198D01*
X220853271Y-85953137D01*
X220853282Y-85953143D01*
X220851871Y-85959843D01*
X220847357Y-85978646D01*
X220840092Y-86008171D01*
X220830424Y-86047039D01*
X220818704Y-86093869D01*
X220805282Y-86147282D01*
X220790509Y-86205897D01*
X220774733Y-86268334D01*
X220758307Y-86333214D01*
X220741579Y-86399155D01*
X220724899Y-86464779D01*
X220708619Y-86528704D01*
X220693087Y-86589551D01*
X220678655Y-86645940D01*
X220665672Y-86696491D01*
X220654488Y-86739823D01*
X220645454Y-86774557D01*
X220638920Y-86799312D01*
X220635235Y-86812708D01*
X220635076Y-86813241D01*
X220636765Y-86818541D01*
X220645068Y-86826598D01*
X220661059Y-86838116D01*
X220685815Y-86853804D01*
X220720413Y-86874366D01*
X220765929Y-86900511D01*
X220781465Y-86909317D01*
X220822695Y-86932840D01*
X220859584Y-86954285D01*
X220890494Y-86972666D01*
X220913786Y-86986997D01*
X220927821Y-86996294D01*
X220931288Y-86999400D01*
X220925575Y-87003811D01*
X220908909Y-87015347D01*
X220882003Y-87033538D01*
X220845567Y-87057913D01*
X220800312Y-87088004D01*
X220746950Y-87123340D01*
X220686192Y-87163452D01*
X220618749Y-87207870D01*
X220545332Y-87256125D01*
X220466653Y-87307746D01*
X220383423Y-87362264D01*
X220296352Y-87419210D01*
X220228519Y-87463515D01*
X220139009Y-87522002D01*
X220052800Y-87578441D01*
X219970605Y-87632360D01*
X219893136Y-87683288D01*
X219821103Y-87730752D01*
X219755218Y-87774282D01*
X219696194Y-87813407D01*
X219644741Y-87847654D01*
X219601572Y-87876551D01*
X219567398Y-87899629D01*
X219542930Y-87916414D01*
X219528881Y-87926436D01*
X219525609Y-87929233D01*
X219527617Y-87937185D01*
X219533405Y-87956948D01*
X219542527Y-87987073D01*
X219554537Y-88026109D01*
X219568987Y-88072609D01*
X219585430Y-88125123D01*
X219603421Y-88182200D01*
X219609899Y-88202667D01*
X219628187Y-88260842D01*
X219644891Y-88314858D01*
X219659588Y-88363284D01*
X219671858Y-88404691D01*
X219681279Y-88437649D01*
X219687428Y-88460726D01*
X219689885Y-88472494D01*
X219689790Y-88473681D01*
X219682366Y-88473537D01*
X219662111Y-88471817D01*
X219630012Y-88468631D01*
X219587052Y-88464090D01*
X219534217Y-88458305D01*
X219472491Y-88451385D01*
X219402861Y-88443441D01*
X219326309Y-88434584D01*
X219243823Y-88424924D01*
X219156386Y-88414571D01*
X219064983Y-88403637D01*
X219064365Y-88403562D01*
X218443480Y-88328904D01*
X217835318Y-88402206D01*
X217744521Y-88413127D01*
X217657459Y-88423557D01*
X217575154Y-88433374D01*
X217498628Y-88442460D01*
X217428902Y-88450694D01*
X217366997Y-88457956D01*
X217313935Y-88464126D01*
X217270738Y-88469085D01*
X217238427Y-88472712D01*
X217218024Y-88474888D01*
X217210756Y-88475507D01*
X217198157Y-88473419D01*
X217194356Y-88469732D01*
X217196394Y-88462038D01*
X217202208Y-88442534D01*
X217211348Y-88412669D01*
X217223364Y-88373894D01*
X217237806Y-88327658D01*
X217254223Y-88275412D01*
X217272167Y-88218605D01*
X217277863Y-88200631D01*
X217296193Y-88142644D01*
X217313129Y-88088704D01*
X217328221Y-88040273D01*
X217341018Y-87998814D01*
X217351070Y-87965788D01*
X217357926Y-87942658D01*
X217361135Y-87930887D01*
X217361320Y-87929790D01*
X217355599Y-87925101D01*
X217338923Y-87913295D01*
X217312004Y-87894844D01*
X217275553Y-87870220D01*
X217230283Y-87839894D01*
X217176903Y-87804340D01*
X217116127Y-87764028D01*
X217048665Y-87719433D01*
X216975229Y-87671025D01*
X216896530Y-87619276D01*
X216813281Y-87564660D01*
X216726192Y-87507648D01*
X216658471Y-87463395D01*
X216568975Y-87404918D01*
X216482781Y-87348516D01*
X216400602Y-87294658D01*
X216323148Y-87243814D01*
X216251130Y-87196454D01*
X216185259Y-87153047D01*
X216126246Y-87114064D01*
X216074803Y-87079972D01*
X216031641Y-87051244D01*
X215997471Y-87028346D01*
X215973003Y-87011751D01*
X215958950Y-87001926D01*
X215955672Y-86999280D01*
X215961476Y-86994556D01*
X215977797Y-86984037D01*
X216002995Y-86968707D01*
X216035432Y-86949550D01*
X216073468Y-86927549D01*
X216105494Y-86909317D01*
X216154408Y-86881406D01*
X216192089Y-86859284D01*
X216219613Y-86842243D01*
X216238057Y-86829578D01*
X216248497Y-86820582D01*
X216252010Y-86814548D01*
X216251884Y-86813241D01*
X216248416Y-86800724D01*
X216242074Y-86776746D01*
X216233207Y-86742687D01*
X216222165Y-86699928D01*
X216209299Y-86649849D01*
X216194959Y-86593829D01*
X216179495Y-86533250D01*
X216163256Y-86469492D01*
X216146593Y-86403934D01*
X216129857Y-86337957D01*
X216113396Y-86272941D01*
X216097562Y-86210267D01*
X216082705Y-86151314D01*
X216069173Y-86097463D01*
X216057319Y-86050094D01*
X216047491Y-86010588D01*
X216040040Y-85980324D01*
X216035315Y-85960682D01*
X216033668Y-85953044D01*
X216033677Y-85952994D01*
X216040697Y-85953970D01*
G36*
X217524353Y-85588113D02*
G01*
X217515482Y-85495131D01*
X217507088Y-85406110D01*
X217499257Y-85322023D01*
X217492076Y-85243843D01*
X217485631Y-85172543D01*
X217480008Y-85109098D01*
X217475293Y-85054479D01*
X217471572Y-85009661D01*
X217468931Y-84975617D01*
X217467457Y-84953320D01*
X217467235Y-84943742D01*
X217467323Y-84943454D01*
X217474486Y-84945128D01*
X217492938Y-84951832D01*
X217521236Y-84962974D01*
X217557938Y-84977966D01*
X217601599Y-84996218D01*
X217650775Y-85017139D01*
X217704024Y-85040139D01*
X217705125Y-85040618D01*
X217758386Y-85063770D01*
X217807506Y-85085069D01*
X217851053Y-85103899D01*
X217887596Y-85119642D01*
X217915705Y-85131683D01*
X217933949Y-85139405D01*
X217940895Y-85142191D01*
X217940909Y-85142192D01*
X217944585Y-85136261D01*
X217954460Y-85119103D01*
X217970002Y-85091672D01*
X217990677Y-85054922D01*
X218015952Y-85009806D01*
X218045293Y-84957279D01*
X218078167Y-84898293D01*
X218114040Y-84833804D01*
X218152378Y-84764763D01*
X218189911Y-84697066D01*
X218230149Y-84624606D01*
X218268532Y-84555811D01*
X218304516Y-84491636D01*
X218337558Y-84433036D01*
X218367113Y-84380967D01*
X218392638Y-84336382D01*
X218413587Y-84300238D01*
X218429418Y-84273489D01*
X218439585Y-84257091D01*
X218443480Y-84251967D01*
X218447914Y-84257905D01*
X218458516Y-84275069D01*
X218474733Y-84302494D01*
X218496017Y-84339215D01*
X218521817Y-84384269D01*
X218551583Y-84436690D01*
X218584765Y-84495515D01*
X218620813Y-84559778D01*
X218659176Y-84628517D01*
X218692447Y-84688394D01*
X218732369Y-84760367D01*
X218770398Y-84828895D01*
X218805983Y-84892988D01*
X218838574Y-84951656D01*
X218867619Y-85003908D01*
X218892569Y-85048755D01*
X218912873Y-85085205D01*
X218927980Y-85112270D01*
X218937339Y-85128958D01*
X218940334Y-85134197D01*
X218944557Y-85135601D01*
X218954410Y-85133950D01*
X218970913Y-85128851D01*
X218995090Y-85119909D01*
X219027962Y-85106728D01*
X219070551Y-85088916D01*
X219123880Y-85066076D01*
X219180783Y-85041385D01*
X219234229Y-85018260D01*
X219283633Y-84997198D01*
X219327555Y-84978790D01*
X219364557Y-84963625D01*
X219393199Y-84952293D01*
X219412043Y-84945382D01*
X219419651Y-84943482D01*
X219419700Y-84943517D01*
X219419680Y-84950923D01*
X219418395Y-84971208D01*
X219415930Y-85003399D01*
X219412371Y-85046522D01*
X219407805Y-85099605D01*
X219402318Y-85161673D01*
X219395995Y-85231755D01*
X219388924Y-85308876D01*
X219381190Y-85392064D01*
X219372880Y-85480345D01*
X219364080Y-85572747D01*
X219362606Y-85588113D01*
X219353721Y-85681058D01*
X219345282Y-85770014D01*
X219337379Y-85854010D01*
X219330099Y-85932077D01*
X219323532Y-86003244D01*
X219317764Y-86066541D01*
X219312885Y-86120998D01*
X219308983Y-86165643D01*
X219306146Y-86199507D01*
X219304462Y-86221619D01*
X219304020Y-86231010D01*
X219304073Y-86231269D01*
X219309652Y-86227311D01*
X219324688Y-86214887D01*
X219348257Y-86194803D01*
X219379434Y-86167863D01*
X219417296Y-86134873D01*
X219460918Y-86096636D01*
X219509376Y-86053959D01*
X219561745Y-86007646D01*
X219608061Y-85966540D01*
X219663108Y-85917694D01*
X219715100Y-85871723D01*
X219763100Y-85829445D01*
X219806174Y-85791676D01*
X219843385Y-85759233D01*
X219873797Y-85732931D01*
X219896475Y-85713587D01*
X219910482Y-85702018D01*
X219914853Y-85698905D01*
X219916978Y-85700463D01*
X219920242Y-85705908D01*
X219925099Y-85716398D01*
X219932001Y-85733089D01*
X219941401Y-85757138D01*
X219953751Y-85789702D01*
X219969503Y-85831939D01*
X219989111Y-85885004D01*
X220011753Y-85946583D01*
X220032427Y-86002892D01*
X219973126Y-86071302D01*
X219896616Y-86161806D01*
X219816367Y-86260895D01*
X219733504Y-86366960D01*
X219649153Y-86478391D01*
X219564440Y-86593578D01*
X219480490Y-86710911D01*
X219398429Y-86828779D01*
X219319382Y-86945573D01*
X219244476Y-87059683D01*
X219174836Y-87169499D01*
X219111587Y-87273410D01*
X219055856Y-87369807D01*
X219022192Y-87431437D01*
X218984401Y-87502623D01*
X218961445Y-87469258D01*
X218917684Y-87400895D01*
X218872339Y-87321222D01*
X218826500Y-87232587D01*
X218781257Y-87137337D01*
X218737702Y-87037821D01*
X218696925Y-86936387D01*
X218660016Y-86835383D01*
X218641808Y-86781014D01*
X218608975Y-86673980D01*
X218576111Y-86556397D01*
X218544045Y-86431606D01*
X218513605Y-86302948D01*
X218485619Y-86173766D01*
X218463846Y-86063197D01*
X218444129Y-85957764D01*
X218408304Y-86136266D01*
X218368713Y-86322152D01*
X218327007Y-86495290D01*
X218282810Y-86656738D01*
X218235747Y-86807556D01*
X218185443Y-86948803D01*
X218131522Y-87081539D01*
X218073609Y-87206822D01*
X218011330Y-87325714D01*
X217950269Y-87429689D01*
X217933644Y-87456104D01*
X217919432Y-87477856D01*
X217909357Y-87492356D01*
X217905446Y-87496989D01*
X217900281Y-87492639D01*
X217890666Y-87478340D01*
X217878237Y-87456659D01*
X217870963Y-87442849D01*
X217830515Y-87367484D01*
X217781891Y-87283061D01*
X217726079Y-87190995D01*
X217664066Y-87092702D01*
X217596841Y-86989597D01*
X217525391Y-86883097D01*
X217450704Y-86774616D01*
X217373769Y-86665572D01*
X217295574Y-86557379D01*
X217217106Y-86451454D01*
X217139353Y-86349213D01*
X217063304Y-86252070D01*
X216989947Y-86161442D01*
X216920269Y-86078745D01*
X216913833Y-86071302D01*
X216854533Y-86002892D01*
X216875206Y-85946583D01*
X216898904Y-85882136D01*
X216918316Y-85829618D01*
X216933892Y-85787874D01*
X216946085Y-85755748D01*
X216955347Y-85732082D01*
X216962130Y-85715722D01*
X216966886Y-85705510D01*
X216970067Y-85700291D01*
X216972032Y-85698905D01*
X216978122Y-85703401D01*
X216993664Y-85716345D01*
X217017720Y-85736921D01*
X217049355Y-85764313D01*
X217087634Y-85797706D01*
X217131620Y-85836283D01*
X217180378Y-85879228D01*
X217232971Y-85925726D01*
X217278901Y-85966462D01*
X217333864Y-86015191D01*
X217385687Y-86060962D01*
X217433446Y-86102973D01*
X217476218Y-86140418D01*
X217513078Y-86172492D01*
X217543102Y-86198390D01*
X217565366Y-86217309D01*
X217578945Y-86228444D01*
X217582964Y-86231192D01*
X217582725Y-86224009D01*
X217581230Y-86203944D01*
X217578567Y-86171966D01*
X217574825Y-86129047D01*
X217570093Y-86076155D01*
X217564459Y-86014261D01*
X217558011Y-85944336D01*
X217550838Y-85867350D01*
X217543027Y-85784272D01*
X217534669Y-85696073D01*
X217533589Y-85684759D01*
X218190620Y-85684759D01*
X218193163Y-85685501D01*
X218203388Y-85677970D01*
X218219168Y-85663764D01*
X218221210Y-85661806D01*
X218245828Y-85641313D01*
X218276418Y-85620308D01*
X218304302Y-85604429D01*
X218366412Y-85580844D01*
X218429461Y-85570774D01*
X218492073Y-85574010D01*
X218552872Y-85590343D01*
X218610481Y-85619563D01*
X218660452Y-85658553D01*
X218678262Y-85674419D01*
X218690904Y-85684124D01*
X218696292Y-85686124D01*
X218696181Y-85684987D01*
X218693497Y-85676617D01*
X218687047Y-85656151D01*
X218677204Y-85624781D01*
X218664341Y-85583698D01*
X218648830Y-85534096D01*
X218631044Y-85477164D01*
X218611357Y-85414097D01*
X218590140Y-85346085D01*
X218568880Y-85277891D01*
X218546647Y-85206600D01*
X218525658Y-85139371D01*
X218506273Y-85077361D01*
X218488857Y-85021728D01*
X218473771Y-84973628D01*
X218461380Y-84934219D01*
X218452046Y-84904658D01*
X218446131Y-84886103D01*
X218444004Y-84879712D01*
X218441770Y-84885888D01*
X218435765Y-84904210D01*
X218426352Y-84933536D01*
X218413891Y-84972722D01*
X218398745Y-85020624D01*
X218381274Y-85076100D01*
X218361841Y-85138005D01*
X218340807Y-85205196D01*
X218318583Y-85276370D01*
X218296201Y-85348109D01*
X218274991Y-85416032D01*
X218255324Y-85478951D01*
X218237573Y-85535677D01*
X218222112Y-85585021D01*
X218209311Y-85625795D01*
X218199544Y-85656811D01*
X218193183Y-85676879D01*
X218190620Y-85684759D01*
X217533589Y-85684759D01*
X217525850Y-85603724D01*
X217524353Y-85588113D01*
G37*
X217524353Y-85588113D02*
X217515482Y-85495131D01*
X217507088Y-85406110D01*
X217499257Y-85322023D01*
X217492076Y-85243843D01*
X217485631Y-85172543D01*
X217480008Y-85109098D01*
X217475293Y-85054479D01*
X217471572Y-85009661D01*
X217468931Y-84975617D01*
X217467457Y-84953320D01*
X217467235Y-84943742D01*
X217467323Y-84943454D01*
X217474486Y-84945128D01*
X217492938Y-84951832D01*
X217521236Y-84962974D01*
X217557938Y-84977966D01*
X217601599Y-84996218D01*
X217650775Y-85017139D01*
X217704024Y-85040139D01*
X217705125Y-85040618D01*
X217758386Y-85063770D01*
X217807506Y-85085069D01*
X217851053Y-85103899D01*
X217887596Y-85119642D01*
X217915705Y-85131683D01*
X217933949Y-85139405D01*
X217940895Y-85142191D01*
X217940909Y-85142192D01*
X217944585Y-85136261D01*
X217954460Y-85119103D01*
X217970002Y-85091672D01*
X217990677Y-85054922D01*
X218015952Y-85009806D01*
X218045293Y-84957279D01*
X218078167Y-84898293D01*
X218114040Y-84833804D01*
X218152378Y-84764763D01*
X218189911Y-84697066D01*
X218230149Y-84624606D01*
X218268532Y-84555811D01*
X218304516Y-84491636D01*
X218337558Y-84433036D01*
X218367113Y-84380967D01*
X218392638Y-84336382D01*
X218413587Y-84300238D01*
X218429418Y-84273489D01*
X218439585Y-84257091D01*
X218443480Y-84251967D01*
X218447914Y-84257905D01*
X218458516Y-84275069D01*
X218474733Y-84302494D01*
X218496017Y-84339215D01*
X218521817Y-84384269D01*
X218551583Y-84436690D01*
X218584765Y-84495515D01*
X218620813Y-84559778D01*
X218659176Y-84628517D01*
X218692447Y-84688394D01*
X218732369Y-84760367D01*
X218770398Y-84828895D01*
X218805983Y-84892988D01*
X218838574Y-84951656D01*
X218867619Y-85003908D01*
X218892569Y-85048755D01*
X218912873Y-85085205D01*
X218927980Y-85112270D01*
X218937339Y-85128958D01*
X218940334Y-85134197D01*
X218944557Y-85135601D01*
X218954410Y-85133950D01*
X218970913Y-85128851D01*
X218995090Y-85119909D01*
X219027962Y-85106728D01*
X219070551Y-85088916D01*
X219123880Y-85066076D01*
X219180783Y-85041385D01*
X219234229Y-85018260D01*
X219283633Y-84997198D01*
X219327555Y-84978790D01*
X219364557Y-84963625D01*
X219393199Y-84952293D01*
X219412043Y-84945382D01*
X219419651Y-84943482D01*
X219419700Y-84943517D01*
X219419680Y-84950923D01*
X219418395Y-84971208D01*
X219415930Y-85003399D01*
X219412371Y-85046522D01*
X219407805Y-85099605D01*
X219402318Y-85161673D01*
X219395995Y-85231755D01*
X219388924Y-85308876D01*
X219381190Y-85392064D01*
X219372880Y-85480345D01*
X219364080Y-85572747D01*
X219362606Y-85588113D01*
X219353721Y-85681058D01*
X219345282Y-85770014D01*
X219337379Y-85854010D01*
X219330099Y-85932077D01*
X219323532Y-86003244D01*
X219317764Y-86066541D01*
X219312885Y-86120998D01*
X219308983Y-86165643D01*
X219306146Y-86199507D01*
X219304462Y-86221619D01*
X219304020Y-86231010D01*
X219304073Y-86231269D01*
X219309652Y-86227311D01*
X219324688Y-86214887D01*
X219348257Y-86194803D01*
X219379434Y-86167863D01*
X219417296Y-86134873D01*
X219460918Y-86096636D01*
X219509376Y-86053959D01*
X219561745Y-86007646D01*
X219608061Y-85966540D01*
X219663108Y-85917694D01*
X219715100Y-85871723D01*
X219763100Y-85829445D01*
X219806174Y-85791676D01*
X219843385Y-85759233D01*
X219873797Y-85732931D01*
X219896475Y-85713587D01*
X219910482Y-85702018D01*
X219914853Y-85698905D01*
X219916978Y-85700463D01*
X219920242Y-85705908D01*
X219925099Y-85716398D01*
X219932001Y-85733089D01*
X219941401Y-85757138D01*
X219953751Y-85789702D01*
X219969503Y-85831939D01*
X219989111Y-85885004D01*
X220011753Y-85946583D01*
X220032427Y-86002892D01*
X219973126Y-86071302D01*
X219896616Y-86161806D01*
X219816367Y-86260895D01*
X219733504Y-86366960D01*
X219649153Y-86478391D01*
X219564440Y-86593578D01*
X219480490Y-86710911D01*
X219398429Y-86828779D01*
X219319382Y-86945573D01*
X219244476Y-87059683D01*
X219174836Y-87169499D01*
X219111587Y-87273410D01*
X219055856Y-87369807D01*
X219022192Y-87431437D01*
X218984401Y-87502623D01*
X218961445Y-87469258D01*
X218917684Y-87400895D01*
X218872339Y-87321222D01*
X218826500Y-87232587D01*
X218781257Y-87137337D01*
X218737702Y-87037821D01*
X218696925Y-86936387D01*
X218660016Y-86835383D01*
X218641808Y-86781014D01*
X218608975Y-86673980D01*
X218576111Y-86556397D01*
X218544045Y-86431606D01*
X218513605Y-86302948D01*
X218485619Y-86173766D01*
X218463846Y-86063197D01*
X218444129Y-85957764D01*
X218408304Y-86136266D01*
X218368713Y-86322152D01*
X218327007Y-86495290D01*
X218282810Y-86656738D01*
X218235747Y-86807556D01*
X218185443Y-86948803D01*
X218131522Y-87081539D01*
X218073609Y-87206822D01*
X218011330Y-87325714D01*
X217950269Y-87429689D01*
X217933644Y-87456104D01*
X217919432Y-87477856D01*
X217909357Y-87492356D01*
X217905446Y-87496989D01*
X217900281Y-87492639D01*
X217890666Y-87478340D01*
X217878237Y-87456659D01*
X217870963Y-87442849D01*
X217830515Y-87367484D01*
X217781891Y-87283061D01*
X217726079Y-87190995D01*
X217664066Y-87092702D01*
X217596841Y-86989597D01*
X217525391Y-86883097D01*
X217450704Y-86774616D01*
X217373769Y-86665572D01*
X217295574Y-86557379D01*
X217217106Y-86451454D01*
X217139353Y-86349213D01*
X217063304Y-86252070D01*
X216989947Y-86161442D01*
X216920269Y-86078745D01*
X216913833Y-86071302D01*
X216854533Y-86002892D01*
X216875206Y-85946583D01*
X216898904Y-85882136D01*
X216918316Y-85829618D01*
X216933892Y-85787874D01*
X216946085Y-85755748D01*
X216955347Y-85732082D01*
X216962130Y-85715722D01*
X216966886Y-85705510D01*
X216970067Y-85700291D01*
X216972032Y-85698905D01*
X216978122Y-85703401D01*
X216993664Y-85716345D01*
X217017720Y-85736921D01*
X217049355Y-85764313D01*
X217087634Y-85797706D01*
X217131620Y-85836283D01*
X217180378Y-85879228D01*
X217232971Y-85925726D01*
X217278901Y-85966462D01*
X217333864Y-86015191D01*
X217385687Y-86060962D01*
X217433446Y-86102973D01*
X217476218Y-86140418D01*
X217513078Y-86172492D01*
X217543102Y-86198390D01*
X217565366Y-86217309D01*
X217578945Y-86228444D01*
X217582964Y-86231192D01*
X217582725Y-86224009D01*
X217581230Y-86203944D01*
X217578567Y-86171966D01*
X217574825Y-86129047D01*
X217570093Y-86076155D01*
X217564459Y-86014261D01*
X217558011Y-85944336D01*
X217550838Y-85867350D01*
X217543027Y-85784272D01*
X217534669Y-85696073D01*
X217533589Y-85684759D01*
X218190620Y-85684759D01*
X218193163Y-85685501D01*
X218203388Y-85677970D01*
X218219168Y-85663764D01*
X218221210Y-85661806D01*
X218245828Y-85641313D01*
X218276418Y-85620308D01*
X218304302Y-85604429D01*
X218366412Y-85580844D01*
X218429461Y-85570774D01*
X218492073Y-85574010D01*
X218552872Y-85590343D01*
X218610481Y-85619563D01*
X218660452Y-85658553D01*
X218678262Y-85674419D01*
X218690904Y-85684124D01*
X218696292Y-85686124D01*
X218696181Y-85684987D01*
X218693497Y-85676617D01*
X218687047Y-85656151D01*
X218677204Y-85624781D01*
X218664341Y-85583698D01*
X218648830Y-85534096D01*
X218631044Y-85477164D01*
X218611357Y-85414097D01*
X218590140Y-85346085D01*
X218568880Y-85277891D01*
X218546647Y-85206600D01*
X218525658Y-85139371D01*
X218506273Y-85077361D01*
X218488857Y-85021728D01*
X218473771Y-84973628D01*
X218461380Y-84934219D01*
X218452046Y-84904658D01*
X218446131Y-84886103D01*
X218444004Y-84879712D01*
X218441770Y-84885888D01*
X218435765Y-84904210D01*
X218426352Y-84933536D01*
X218413891Y-84972722D01*
X218398745Y-85020624D01*
X218381274Y-85076100D01*
X218361841Y-85138005D01*
X218340807Y-85205196D01*
X218318583Y-85276370D01*
X218296201Y-85348109D01*
X218274991Y-85416032D01*
X218255324Y-85478951D01*
X218237573Y-85535677D01*
X218222112Y-85585021D01*
X218209311Y-85625795D01*
X218199544Y-85656811D01*
X218193183Y-85676879D01*
X218190620Y-85684759D01*
X217533589Y-85684759D01*
X217525850Y-85603724D01*
X217524353Y-85588113D01*
%LPC*%
D14*
X199000000Y-88750000D03*
X194000000Y-88750000D03*
D15*
X199125000Y-108375000D03*
D16*
X199125000Y-110915000D03*
X201665000Y-108375000D03*
X201665000Y-110915000D03*
X204205000Y-108375000D03*
X204205000Y-110915000D03*
X206745000Y-108375000D03*
X206745000Y-110915000D03*
X209285000Y-108375000D03*
X209285000Y-110915000D03*
X211825000Y-108375000D03*
X211825000Y-110915000D03*
X214365000Y-108375000D03*
X214365000Y-110915000D03*
X216905000Y-108375000D03*
X216905000Y-110915000D03*
D17*
X193500000Y-97250000D03*
X191450000Y-97250000D03*
D18*
X221338606Y-95500000D03*
D19*
X223838606Y-95500000D03*
D20*
X217000000Y-97975000D03*
X217000000Y-100025000D03*
D21*
X192500000Y-108000000D03*
D19*
X192500000Y-110500000D03*
D17*
X193500000Y-102250000D03*
X191450000Y-102250000D03*
D22*
X203700000Y-87745000D03*
X203700000Y-89015000D03*
X203700000Y-90285000D03*
X203700000Y-91555000D03*
X203700000Y-92825000D03*
X203700000Y-94095000D03*
X203700000Y-95365000D03*
X203700000Y-96635000D03*
X203700000Y-97905000D03*
X203700000Y-99175000D03*
X203700000Y-100445000D03*
X203700000Y-101715000D03*
X203700000Y-102985000D03*
X203700000Y-104255000D03*
X213300000Y-104255000D03*
X213300000Y-102985000D03*
X213300000Y-101715000D03*
X213300000Y-100445000D03*
X213300000Y-99175000D03*
X213300000Y-97905000D03*
X213300000Y-96635000D03*
X213300000Y-95365000D03*
X213300000Y-94095000D03*
X213300000Y-92825000D03*
X213300000Y-91555000D03*
X213300000Y-90285000D03*
X213300000Y-89015000D03*
X213300000Y-87745000D03*
D23*
X198000000Y-97300000D03*
X198000000Y-102180000D03*
D24*
X226060000Y-88900000D03*
D25*
X226060000Y-88900000D03*
D24*
X187960000Y-116840000D03*
D25*
X187960000Y-116840000D03*
D24*
X187960000Y-88900000D03*
D25*
X187960000Y-88900000D03*
D26*
X226055000Y-106250000D03*
X229030000Y-106250000D03*
X226012500Y-101365000D03*
X228987500Y-101365000D03*
X226012500Y-111000000D03*
X228987500Y-111000000D03*
D27*
X185500000Y-95500000D03*
X185500000Y-106500000D03*
D28*
X184500000Y-99000000D03*
D29*
X184500000Y-101000000D03*
X184500000Y-103000000D03*
X186500000Y-99000000D03*
X186500000Y-101000000D03*
X186500000Y-103000000D03*
D17*
X222317500Y-106250000D03*
X220267500Y-106250000D03*
X222287500Y-101314360D03*
X220237500Y-101314360D03*
X222275000Y-111000000D03*
X220225000Y-111000000D03*
D25*
X226060000Y-116840000D03*
D24*
X226060000Y-116840000D03*
M02*
