G04 #@! TF.GenerationSoftware,KiCad,Pcbnew,(6.0.10)*
G04 #@! TF.CreationDate,2023-01-26T22:30:24-05:00*
G04 #@! TF.ProjectId,telemetry_transmitter,74656c65-6d65-4747-9279-5f7472616e73,rev?*
G04 #@! TF.SameCoordinates,Original*
G04 #@! TF.FileFunction,Paste,Bot*
G04 #@! TF.FilePolarity,Positive*
%FSLAX46Y46*%
G04 Gerber Fmt 4.6, Leading zero omitted, Abs format (unit mm)*
G04 Created by KiCad (PCBNEW (6.0.10)) date 2023-01-26 22:30:24*
%MOMM*%
%LPD*%
G01*
G04 APERTURE LIST*
G04 Aperture macros list*
%AMRoundRect*
0 Rectangle with rounded corners*
0 $1 Rounding radius*
0 $2 $3 $4 $5 $6 $7 $8 $9 X,Y pos of 4 corners*
0 Add a 4 corners polygon primitive as box body*
4,1,4,$2,$3,$4,$5,$6,$7,$8,$9,$2,$3,0*
0 Add four circle primitives for the rounded corners*
1,1,$1+$1,$2,$3*
1,1,$1+$1,$4,$5*
1,1,$1+$1,$6,$7*
1,1,$1+$1,$8,$9*
0 Add four rect primitives between the rounded corners*
20,1,$1+$1,$2,$3,$4,$5,0*
20,1,$1+$1,$4,$5,$6,$7,0*
20,1,$1+$1,$6,$7,$8,$9,0*
20,1,$1+$1,$8,$9,$2,$3,0*%
G04 Aperture macros list end*
%ADD10R,1.900000X0.800000*%
%ADD11RoundRect,0.250000X0.450000X-0.325000X0.450000X0.325000X-0.450000X0.325000X-0.450000X-0.325000X0*%
%ADD12RoundRect,0.250000X0.325000X0.450000X-0.325000X0.450000X-0.325000X-0.450000X0.325000X-0.450000X0*%
%ADD13RoundRect,0.250000X-0.450000X0.325000X-0.450000X-0.325000X0.450000X-0.325000X0.450000X0.325000X0*%
%ADD14RoundRect,0.250000X-0.325000X-0.450000X0.325000X-0.450000X0.325000X0.450000X-0.325000X0.450000X0*%
%ADD15R,0.650000X1.560000*%
%ADD16RoundRect,0.250001X0.624999X-0.462499X0.624999X0.462499X-0.624999X0.462499X-0.624999X-0.462499X0*%
%ADD17RoundRect,0.250000X-0.350000X-0.450000X0.350000X-0.450000X0.350000X0.450000X-0.350000X0.450000X0*%
%ADD18RoundRect,0.150000X-0.825000X-0.150000X0.825000X-0.150000X0.825000X0.150000X-0.825000X0.150000X0*%
%ADD19R,2.000000X1.000000*%
%ADD20RoundRect,0.250001X-0.462499X-0.624999X0.462499X-0.624999X0.462499X0.624999X-0.462499X0.624999X0*%
%ADD21RoundRect,0.150000X-0.150000X0.825000X-0.150000X-0.825000X0.150000X-0.825000X0.150000X0.825000X0*%
%ADD22RoundRect,0.150000X-0.512500X-0.150000X0.512500X-0.150000X0.512500X0.150000X-0.512500X0.150000X0*%
G04 APERTURE END LIST*
D10*
X210800000Y-114350000D03*
X210800000Y-116250000D03*
X207800000Y-115300000D03*
X217800000Y-114350000D03*
X217800000Y-116250000D03*
X214800000Y-115300000D03*
D11*
X188700000Y-108325000D03*
X188700000Y-106275000D03*
D12*
X221775000Y-88500000D03*
X219725000Y-88500000D03*
D13*
X195400000Y-116175000D03*
X195400000Y-118225000D03*
D14*
X217575000Y-118800000D03*
X219625000Y-118800000D03*
D15*
X188650000Y-101050000D03*
X189600000Y-101050000D03*
X190550000Y-101050000D03*
X190550000Y-103750000D03*
X188650000Y-103750000D03*
D11*
X216500000Y-103750000D03*
X216500000Y-101700000D03*
D16*
X193800000Y-103887500D03*
X193800000Y-100912500D03*
D14*
X212750000Y-118800000D03*
X214800000Y-118800000D03*
D17*
X207800000Y-118800000D03*
X209800000Y-118800000D03*
D11*
X221400000Y-116425000D03*
X221400000Y-114375000D03*
D18*
X199050000Y-119470000D03*
X199050000Y-118200000D03*
X199050000Y-116930000D03*
X199050000Y-115660000D03*
X204000000Y-115660000D03*
X204000000Y-116930000D03*
X204000000Y-118200000D03*
X204000000Y-119470000D03*
D19*
X220012500Y-111580000D03*
X220012500Y-109040000D03*
X220012500Y-106500000D03*
X220012500Y-103960000D03*
X220012500Y-101420000D03*
D20*
X203512500Y-89000000D03*
X206487500Y-89000000D03*
D12*
X197825000Y-91600000D03*
X195775000Y-91600000D03*
D11*
X204200000Y-96275000D03*
X204200000Y-94225000D03*
D21*
X206895000Y-92525000D03*
X208165000Y-92525000D03*
X209435000Y-92525000D03*
X210705000Y-92525000D03*
X210705000Y-97475000D03*
X209435000Y-97475000D03*
X208165000Y-97475000D03*
X206895000Y-97475000D03*
D12*
X221775000Y-92500000D03*
X219725000Y-92500000D03*
X216525000Y-87250000D03*
X214475000Y-87250000D03*
D22*
X214362500Y-91950000D03*
X214362500Y-91000000D03*
X214362500Y-90050000D03*
X216637500Y-90050000D03*
X216637500Y-91950000D03*
M02*
