M48
;DRILL file {KiCad 5.0.1} date Sun 21 Oct 2018 10:04:37 AM EDT
;FORMAT={-:-/ absolute / metric / decimal}
FMAT,2
METRIC,TZ
T1C0.400
T2C0.680
T3C0.800
T4C1.000
T5C1.300
T6C1.600
T7C2.000
T8C2.700
%
G90
G05
M71
T1
X121.6Y-85.
X121.6Y-87.2
X121.6Y-89.8
X121.6Y-92.4
X122.4Y-83.2
X122.4Y-94.8
X123.Y-112.5
X124.2Y-95.6
X124.375Y-119.
X124.4Y-82.4
X125.8Y-104.952
X126.4Y-82.4
X127.879Y-102.191
X128.Y-114.2
X128.07Y-116.939
X128.59Y-99.03
X128.64Y-83.45
X129.1Y-122.5
X129.269Y-84.34
X129.838Y-106.972
X130.Y-121.9
X130.4Y-123.
X130.4Y-124.1
X130.4Y-125.2
X130.4Y-126.3
X130.4Y-127.4
X131.Y-122.
X131.6Y-109.5
X131.9Y-114.9
X131.9Y-122.5
X132.72Y-98.99
X133.9Y-87.1
X133.9Y-88.3
X133.9Y-89.6
X133.9Y-91.
X133.9Y-92.2
X133.9Y-93.4
X133.9Y-94.6
X134.25Y-117.5
X134.83Y-107.24
X136.131Y-101.8
X136.2Y-116.7
X137.Y-110.4
X137.2Y-80.
X141.11Y-89.99
X141.6Y-84.461
X142.65Y-100.45
X142.65Y-103.15
X142.67Y-101.65
X142.73Y-107.8
X142.8Y-97.28
X142.9Y-83.5
X143.6Y-82.471
X143.9Y-121.3
X144.Y-87.
X145.3Y-122.2
X153.2Y-118.3
X154.9Y-119.
X164.6Y-87.4
X166.8Y-116.2
X166.8Y-117.6
X166.8Y-119.
T2
X121.3Y-102.5
X121.3Y-104.5
X121.3Y-106.5
X123.3Y-102.5
X123.3Y-104.5
X123.3Y-106.5
T3
X126.25Y-87.12
X126.25Y-92.
T4
X130.84Y-83.
X133.38Y-83.
X135.92Y-83.
X138.46Y-83.
X141.Y-83.
T5
X128.Y-125.
X133.Y-125.
T6
X137.5Y-113.25
X137.5Y-126.72
X140.9Y-113.25
X140.9Y-126.72
T7
X149.75Y-121.
X158.Y-121.
T8
X167.Y-127.
X167.Y-78.
X123.Y-127.
X123.Y-78.
T0
M30
