G04 #@! TF.GenerationSoftware,KiCad,Pcbnew,5.0.1*
G04 #@! TF.CreationDate,2018-11-04T16:43:46-05:00*
G04 #@! TF.ProjectId,radio,726164696F2E6B696361645F70636200,rev?*
G04 #@! TF.SameCoordinates,Original*
G04 #@! TF.FileFunction,Copper,L1,Top,Signal*
G04 #@! TF.FilePolarity,Positive*
%FSLAX46Y46*%
G04 Gerber Fmt 4.6, Leading zero omitted, Abs format (unit mm)*
G04 Created by KiCad (PCBNEW 5.0.1) date Sun 04 Nov 2018 04:43:46 PM EST*
%MOMM*%
%LPD*%
G01*
G04 APERTURE LIST*
G04 #@! TA.AperFunction,ComponentPad*
%ADD10C,1.200000*%
G04 #@! TD*
G04 #@! TA.AperFunction,ComponentPad*
%ADD11R,1.200000X1.200000*%
G04 #@! TD*
G04 #@! TA.AperFunction,ComponentPad*
%ADD12C,2.600000*%
G04 #@! TD*
G04 #@! TA.AperFunction,SMDPad,CuDef*
%ADD13R,2.840000X1.520000*%
G04 #@! TD*
G04 #@! TA.AperFunction,SMDPad,CuDef*
%ADD14R,1.520000X2.840000*%
G04 #@! TD*
G04 #@! TA.AperFunction,ComponentPad*
%ADD15R,1.700000X1.700000*%
G04 #@! TD*
G04 #@! TA.AperFunction,ComponentPad*
%ADD16O,1.700000X1.700000*%
G04 #@! TD*
G04 #@! TA.AperFunction,SMDPad,CuDef*
%ADD17R,1.560000X0.650000*%
G04 #@! TD*
G04 #@! TA.AperFunction,SMDPad,CuDef*
%ADD18R,1.550000X0.600000*%
G04 #@! TD*
G04 #@! TA.AperFunction,Conductor*
%ADD19C,0.100000*%
G04 #@! TD*
G04 #@! TA.AperFunction,SMDPad,CuDef*
%ADD20C,1.150000*%
G04 #@! TD*
G04 #@! TA.AperFunction,ComponentPad*
%ADD21C,4.700000*%
G04 #@! TD*
G04 #@! TA.AperFunction,SMDPad,CuDef*
%ADD22C,1.425000*%
G04 #@! TD*
G04 #@! TA.AperFunction,ComponentPad*
%ADD23C,2.500000*%
G04 #@! TD*
G04 #@! TA.AperFunction,ComponentPad*
%ADD24C,3.000000*%
G04 #@! TD*
G04 #@! TA.AperFunction,SMDPad,CuDef*
%ADD25R,0.650000X1.700000*%
G04 #@! TD*
G04 #@! TA.AperFunction,SMDPad,CuDef*
%ADD26R,1.500000X0.600000*%
G04 #@! TD*
G04 #@! TA.AperFunction,ComponentPad*
%ADD27C,1.500000*%
G04 #@! TD*
G04 #@! TA.AperFunction,ViaPad*
%ADD28C,0.800000*%
G04 #@! TD*
G04 #@! TA.AperFunction,Conductor*
%ADD29C,0.457200*%
G04 #@! TD*
G04 #@! TA.AperFunction,Conductor*
%ADD30C,0.152400*%
G04 #@! TD*
G04 #@! TA.AperFunction,Conductor*
%ADD31C,0.254000*%
G04 #@! TD*
G04 APERTURE END LIST*
D10*
G04 #@! TO.P,J3,2*
G04 #@! TO.N,Net-(J3-Pad2)*
X125525000Y-102700000D03*
D11*
G04 #@! TO.P,J3,1*
G04 #@! TO.N,Net-(J3-Pad1)*
X125525000Y-100700000D03*
D10*
G04 #@! TO.P,J3,3*
G04 #@! TO.N,Net-(J3-Pad3)*
X125525000Y-104700000D03*
G04 #@! TO.P,J3,6*
G04 #@! TO.N,N/C*
X127525000Y-104700000D03*
G04 #@! TO.P,J3,5*
G04 #@! TO.N,CANL*
X127525000Y-102700000D03*
G04 #@! TO.P,J3,4*
G04 #@! TO.N,CANH*
X127525000Y-100700000D03*
G04 #@! TD*
D12*
G04 #@! TO.P,L1,1*
G04 #@! TO.N,Net-(D4-Pad1)*
X132225000Y-123200000D03*
G04 #@! TO.P,L1,2*
G04 #@! TO.N,+5V*
X137225000Y-123200000D03*
G04 #@! TD*
D13*
G04 #@! TO.P,U8,1*
G04 #@! TO.N,GND*
X149415000Y-87990000D03*
G04 #@! TO.P,U8,2*
G04 #@! TO.N,+3V3*
X149415000Y-89990000D03*
G04 #@! TO.P,U8,3*
G04 #@! TO.N,Net-(U7-Pad3)*
X149415000Y-91990000D03*
G04 #@! TO.P,U8,4*
G04 #@! TO.N,Net-(U7-Pad2)*
X149415000Y-93990000D03*
G04 #@! TO.P,U8,5*
G04 #@! TO.N,Net-(U8-Pad5)*
X149415000Y-95990000D03*
G04 #@! TO.P,U8,6*
G04 #@! TO.N,/XBEE stuff/XBEE_RESET*
X149415000Y-97990000D03*
G04 #@! TO.P,U8,7*
G04 #@! TO.N,Net-(U8-Pad7)*
X149415000Y-99990000D03*
G04 #@! TO.P,U8,8*
G04 #@! TO.N,Net-(U8-Pad8)*
X149415000Y-101990000D03*
G04 #@! TO.P,U8,9*
G04 #@! TO.N,Net-(U8-Pad9)*
X149415000Y-103990000D03*
G04 #@! TO.P,U8,10*
G04 #@! TO.N,/XBEE stuff/XBEE_SLEEP*
X149415000Y-105990000D03*
G04 #@! TO.P,U8,11*
G04 #@! TO.N,GND*
X149415000Y-107990000D03*
G04 #@! TO.P,U8,12*
G04 #@! TO.N,Net-(U8-Pad12)*
X149415000Y-109990000D03*
G04 #@! TO.P,U8,13*
G04 #@! TO.N,GND*
X149415000Y-111990000D03*
D14*
G04 #@! TO.P,U8,14*
G04 #@! TO.N,Net-(U8-Pad14)*
X153415000Y-113820000D03*
G04 #@! TO.P,U8,15*
G04 #@! TO.N,Net-(U8-Pad15)*
X155415000Y-113820000D03*
G04 #@! TO.P,U8,16*
G04 #@! TO.N,Net-(U8-Pad16)*
X157415000Y-113820000D03*
G04 #@! TO.P,U8,17*
G04 #@! TO.N,Net-(U8-Pad17)*
X159415000Y-113820000D03*
G04 #@! TO.P,U8,18*
G04 #@! TO.N,Net-(U8-Pad18)*
X161415000Y-113820000D03*
G04 #@! TO.P,U8,19*
G04 #@! TO.N,Net-(U8-Pad19)*
X163415000Y-113820000D03*
G04 #@! TO.P,U8,20*
G04 #@! TO.N,Net-(U8-Pad20)*
X165415000Y-113820000D03*
G04 #@! TO.P,U8,21*
G04 #@! TO.N,Net-(U8-Pad21)*
X167415000Y-113820000D03*
D13*
G04 #@! TO.P,U8,22*
G04 #@! TO.N,GND*
X171415000Y-111970000D03*
G04 #@! TO.P,U8,23*
G04 #@! TO.N,Net-(U8-Pad23)*
X171415000Y-109970000D03*
G04 #@! TO.P,U8,24*
G04 #@! TO.N,Net-(U8-Pad24)*
X171415000Y-107970000D03*
G04 #@! TO.P,U8,25*
G04 #@! TO.N,Net-(U7-Pad5)*
X171415000Y-105970000D03*
G04 #@! TO.P,U8,26*
G04 #@! TO.N,Net-(U8-Pad26)*
X171415000Y-103970000D03*
G04 #@! TO.P,U8,27*
G04 #@! TO.N,Net-(U8-Pad27)*
X171415000Y-101970000D03*
G04 #@! TO.P,U8,28*
G04 #@! TO.N,Net-(U8-Pad28)*
X171415000Y-99970000D03*
G04 #@! TO.P,U8,29*
G04 #@! TO.N,Net-(U7-Pad4)*
X171415000Y-97970000D03*
G04 #@! TO.P,U8,30*
G04 #@! TO.N,Net-(U8-Pad30)*
X171415000Y-95970000D03*
G04 #@! TO.P,U8,31*
G04 #@! TO.N,Net-(U8-Pad31)*
X171415000Y-93970000D03*
G04 #@! TO.P,U8,32*
G04 #@! TO.N,Net-(U8-Pad32)*
X171415000Y-91970000D03*
G04 #@! TO.P,U8,33*
G04 #@! TO.N,Net-(U8-Pad33)*
X171415000Y-89970000D03*
G04 #@! TO.P,U8,34*
G04 #@! TO.N,Net-(U8-Pad34)*
X171415000Y-87970000D03*
G04 #@! TO.P,U8,35*
G04 #@! TO.N,GND*
X171415000Y-85970000D03*
G04 #@! TO.P,U8,36*
G04 #@! TO.N,Net-(U8-Pad36)*
X171415000Y-83970000D03*
G04 #@! TO.P,U8,37*
G04 #@! TO.N,Net-(U8-Pad37)*
X171415000Y-81970000D03*
G04 #@! TD*
D15*
G04 #@! TO.P,J1,1*
G04 #@! TO.N,/~MCLR*
X145225000Y-81200000D03*
D16*
G04 #@! TO.P,J1,2*
G04 #@! TO.N,+5V*
X142685000Y-81200000D03*
G04 #@! TO.P,J1,3*
G04 #@! TO.N,GND*
X140145000Y-81200000D03*
G04 #@! TO.P,J1,4*
G04 #@! TO.N,/ICSPDAT*
X137605000Y-81200000D03*
G04 #@! TO.P,J1,5*
G04 #@! TO.N,/ICSPCLK*
X135065000Y-81200000D03*
G04 #@! TD*
D17*
G04 #@! TO.P,U6,1*
G04 #@! TO.N,/Power/CURR_BUS*
X135425000Y-106700000D03*
G04 #@! TO.P,U6,2*
G04 #@! TO.N,GND*
X135425000Y-105750000D03*
G04 #@! TO.P,U6,3*
G04 #@! TO.N,+5V*
X135425000Y-104800000D03*
G04 #@! TO.P,U6,4*
G04 #@! TO.N,/Power/Sensed_5V*
X132725000Y-104800000D03*
G04 #@! TO.P,U6,5*
G04 #@! TO.N,+5V*
X132725000Y-106700000D03*
G04 #@! TD*
D18*
G04 #@! TO.P,U2,1*
G04 #@! TO.N,/CAN_TX*
X135735000Y-98450000D03*
G04 #@! TO.P,U2,2*
G04 #@! TO.N,GND*
X135735000Y-97180000D03*
G04 #@! TO.P,U2,3*
G04 #@! TO.N,+5V*
X135735000Y-95910000D03*
G04 #@! TO.P,U2,4*
G04 #@! TO.N,/CAN_RX*
X135735000Y-94640000D03*
G04 #@! TO.P,U2,5*
G04 #@! TO.N,+5V*
X130335000Y-94640000D03*
G04 #@! TO.P,U2,6*
G04 #@! TO.N,CANL*
X130335000Y-95910000D03*
G04 #@! TO.P,U2,7*
G04 #@! TO.N,CANH*
X130335000Y-97180000D03*
G04 #@! TO.P,U2,8*
G04 #@! TO.N,GND*
X130335000Y-98450000D03*
G04 #@! TD*
D19*
G04 #@! TO.N,GND*
G04 #@! TO.C,C3*
G36*
X139509505Y-100426204D02*
X139533773Y-100429804D01*
X139557572Y-100435765D01*
X139580671Y-100444030D01*
X139602850Y-100454520D01*
X139623893Y-100467132D01*
X139643599Y-100481747D01*
X139661777Y-100498223D01*
X139678253Y-100516401D01*
X139692868Y-100536107D01*
X139705480Y-100557150D01*
X139715970Y-100579329D01*
X139724235Y-100602428D01*
X139730196Y-100626227D01*
X139733796Y-100650495D01*
X139735000Y-100674999D01*
X139735000Y-101325001D01*
X139733796Y-101349505D01*
X139730196Y-101373773D01*
X139724235Y-101397572D01*
X139715970Y-101420671D01*
X139705480Y-101442850D01*
X139692868Y-101463893D01*
X139678253Y-101483599D01*
X139661777Y-101501777D01*
X139643599Y-101518253D01*
X139623893Y-101532868D01*
X139602850Y-101545480D01*
X139580671Y-101555970D01*
X139557572Y-101564235D01*
X139533773Y-101570196D01*
X139509505Y-101573796D01*
X139485001Y-101575000D01*
X138584999Y-101575000D01*
X138560495Y-101573796D01*
X138536227Y-101570196D01*
X138512428Y-101564235D01*
X138489329Y-101555970D01*
X138467150Y-101545480D01*
X138446107Y-101532868D01*
X138426401Y-101518253D01*
X138408223Y-101501777D01*
X138391747Y-101483599D01*
X138377132Y-101463893D01*
X138364520Y-101442850D01*
X138354030Y-101420671D01*
X138345765Y-101397572D01*
X138339804Y-101373773D01*
X138336204Y-101349505D01*
X138335000Y-101325001D01*
X138335000Y-100674999D01*
X138336204Y-100650495D01*
X138339804Y-100626227D01*
X138345765Y-100602428D01*
X138354030Y-100579329D01*
X138364520Y-100557150D01*
X138377132Y-100536107D01*
X138391747Y-100516401D01*
X138408223Y-100498223D01*
X138426401Y-100481747D01*
X138446107Y-100467132D01*
X138467150Y-100454520D01*
X138489329Y-100444030D01*
X138512428Y-100435765D01*
X138536227Y-100429804D01*
X138560495Y-100426204D01*
X138584999Y-100425000D01*
X139485001Y-100425000D01*
X139509505Y-100426204D01*
X139509505Y-100426204D01*
G37*
D20*
G04 #@! TD*
G04 #@! TO.P,C3,2*
G04 #@! TO.N,GND*
X139035000Y-101000000D03*
D19*
G04 #@! TO.N,+5V*
G04 #@! TO.C,C3*
G36*
X139509505Y-98376204D02*
X139533773Y-98379804D01*
X139557572Y-98385765D01*
X139580671Y-98394030D01*
X139602850Y-98404520D01*
X139623893Y-98417132D01*
X139643599Y-98431747D01*
X139661777Y-98448223D01*
X139678253Y-98466401D01*
X139692868Y-98486107D01*
X139705480Y-98507150D01*
X139715970Y-98529329D01*
X139724235Y-98552428D01*
X139730196Y-98576227D01*
X139733796Y-98600495D01*
X139735000Y-98624999D01*
X139735000Y-99275001D01*
X139733796Y-99299505D01*
X139730196Y-99323773D01*
X139724235Y-99347572D01*
X139715970Y-99370671D01*
X139705480Y-99392850D01*
X139692868Y-99413893D01*
X139678253Y-99433599D01*
X139661777Y-99451777D01*
X139643599Y-99468253D01*
X139623893Y-99482868D01*
X139602850Y-99495480D01*
X139580671Y-99505970D01*
X139557572Y-99514235D01*
X139533773Y-99520196D01*
X139509505Y-99523796D01*
X139485001Y-99525000D01*
X138584999Y-99525000D01*
X138560495Y-99523796D01*
X138536227Y-99520196D01*
X138512428Y-99514235D01*
X138489329Y-99505970D01*
X138467150Y-99495480D01*
X138446107Y-99482868D01*
X138426401Y-99468253D01*
X138408223Y-99451777D01*
X138391747Y-99433599D01*
X138377132Y-99413893D01*
X138364520Y-99392850D01*
X138354030Y-99370671D01*
X138345765Y-99347572D01*
X138339804Y-99323773D01*
X138336204Y-99299505D01*
X138335000Y-99275001D01*
X138335000Y-98624999D01*
X138336204Y-98600495D01*
X138339804Y-98576227D01*
X138345765Y-98552428D01*
X138354030Y-98529329D01*
X138364520Y-98507150D01*
X138377132Y-98486107D01*
X138391747Y-98466401D01*
X138408223Y-98448223D01*
X138426401Y-98431747D01*
X138446107Y-98417132D01*
X138467150Y-98404520D01*
X138489329Y-98394030D01*
X138512428Y-98385765D01*
X138536227Y-98379804D01*
X138560495Y-98376204D01*
X138584999Y-98375000D01*
X139485001Y-98375000D01*
X139509505Y-98376204D01*
X139509505Y-98376204D01*
G37*
D20*
G04 #@! TD*
G04 #@! TO.P,C3,1*
G04 #@! TO.N,+5V*
X139035000Y-98950000D03*
D21*
G04 #@! TO.P,REF\002A\002A,1*
G04 #@! TO.N,N/C*
X171450000Y-76200000D03*
G04 #@! TD*
G04 #@! TO.P,REF\002A\002A,1*
G04 #@! TO.N,N/C*
X127000000Y-123825000D03*
G04 #@! TD*
G04 #@! TO.P,REF\002A\002A,1*
G04 #@! TO.N,N/C*
X127000000Y-76200000D03*
G04 #@! TD*
D19*
G04 #@! TO.N,GND*
G04 #@! TO.C,C10*
G36*
X127299505Y-112126204D02*
X127323773Y-112129804D01*
X127347572Y-112135765D01*
X127370671Y-112144030D01*
X127392850Y-112154520D01*
X127413893Y-112167132D01*
X127433599Y-112181747D01*
X127451777Y-112198223D01*
X127468253Y-112216401D01*
X127482868Y-112236107D01*
X127495480Y-112257150D01*
X127505970Y-112279329D01*
X127514235Y-112302428D01*
X127520196Y-112326227D01*
X127523796Y-112350495D01*
X127525000Y-112374999D01*
X127525000Y-113025001D01*
X127523796Y-113049505D01*
X127520196Y-113073773D01*
X127514235Y-113097572D01*
X127505970Y-113120671D01*
X127495480Y-113142850D01*
X127482868Y-113163893D01*
X127468253Y-113183599D01*
X127451777Y-113201777D01*
X127433599Y-113218253D01*
X127413893Y-113232868D01*
X127392850Y-113245480D01*
X127370671Y-113255970D01*
X127347572Y-113264235D01*
X127323773Y-113270196D01*
X127299505Y-113273796D01*
X127275001Y-113275000D01*
X126374999Y-113275000D01*
X126350495Y-113273796D01*
X126326227Y-113270196D01*
X126302428Y-113264235D01*
X126279329Y-113255970D01*
X126257150Y-113245480D01*
X126236107Y-113232868D01*
X126216401Y-113218253D01*
X126198223Y-113201777D01*
X126181747Y-113183599D01*
X126167132Y-113163893D01*
X126154520Y-113142850D01*
X126144030Y-113120671D01*
X126135765Y-113097572D01*
X126129804Y-113073773D01*
X126126204Y-113049505D01*
X126125000Y-113025001D01*
X126125000Y-112374999D01*
X126126204Y-112350495D01*
X126129804Y-112326227D01*
X126135765Y-112302428D01*
X126144030Y-112279329D01*
X126154520Y-112257150D01*
X126167132Y-112236107D01*
X126181747Y-112216401D01*
X126198223Y-112198223D01*
X126216401Y-112181747D01*
X126236107Y-112167132D01*
X126257150Y-112154520D01*
X126279329Y-112144030D01*
X126302428Y-112135765D01*
X126326227Y-112129804D01*
X126350495Y-112126204D01*
X126374999Y-112125000D01*
X127275001Y-112125000D01*
X127299505Y-112126204D01*
X127299505Y-112126204D01*
G37*
D20*
G04 #@! TD*
G04 #@! TO.P,C10,1*
G04 #@! TO.N,GND*
X126825000Y-112700000D03*
D19*
G04 #@! TO.N,+12V*
G04 #@! TO.C,C10*
G36*
X127299505Y-114176204D02*
X127323773Y-114179804D01*
X127347572Y-114185765D01*
X127370671Y-114194030D01*
X127392850Y-114204520D01*
X127413893Y-114217132D01*
X127433599Y-114231747D01*
X127451777Y-114248223D01*
X127468253Y-114266401D01*
X127482868Y-114286107D01*
X127495480Y-114307150D01*
X127505970Y-114329329D01*
X127514235Y-114352428D01*
X127520196Y-114376227D01*
X127523796Y-114400495D01*
X127525000Y-114424999D01*
X127525000Y-115075001D01*
X127523796Y-115099505D01*
X127520196Y-115123773D01*
X127514235Y-115147572D01*
X127505970Y-115170671D01*
X127495480Y-115192850D01*
X127482868Y-115213893D01*
X127468253Y-115233599D01*
X127451777Y-115251777D01*
X127433599Y-115268253D01*
X127413893Y-115282868D01*
X127392850Y-115295480D01*
X127370671Y-115305970D01*
X127347572Y-115314235D01*
X127323773Y-115320196D01*
X127299505Y-115323796D01*
X127275001Y-115325000D01*
X126374999Y-115325000D01*
X126350495Y-115323796D01*
X126326227Y-115320196D01*
X126302428Y-115314235D01*
X126279329Y-115305970D01*
X126257150Y-115295480D01*
X126236107Y-115282868D01*
X126216401Y-115268253D01*
X126198223Y-115251777D01*
X126181747Y-115233599D01*
X126167132Y-115213893D01*
X126154520Y-115192850D01*
X126144030Y-115170671D01*
X126135765Y-115147572D01*
X126129804Y-115123773D01*
X126126204Y-115099505D01*
X126125000Y-115075001D01*
X126125000Y-114424999D01*
X126126204Y-114400495D01*
X126129804Y-114376227D01*
X126135765Y-114352428D01*
X126144030Y-114329329D01*
X126154520Y-114307150D01*
X126167132Y-114286107D01*
X126181747Y-114266401D01*
X126198223Y-114248223D01*
X126216401Y-114231747D01*
X126236107Y-114217132D01*
X126257150Y-114204520D01*
X126279329Y-114194030D01*
X126302428Y-114185765D01*
X126326227Y-114179804D01*
X126350495Y-114176204D01*
X126374999Y-114175000D01*
X127275001Y-114175000D01*
X127299505Y-114176204D01*
X127299505Y-114176204D01*
G37*
D20*
G04 #@! TD*
G04 #@! TO.P,C10,2*
G04 #@! TO.N,+12V*
X126825000Y-114750000D03*
D19*
G04 #@! TO.N,GND*
G04 #@! TO.C,C11*
G36*
X130099505Y-112126204D02*
X130123773Y-112129804D01*
X130147572Y-112135765D01*
X130170671Y-112144030D01*
X130192850Y-112154520D01*
X130213893Y-112167132D01*
X130233599Y-112181747D01*
X130251777Y-112198223D01*
X130268253Y-112216401D01*
X130282868Y-112236107D01*
X130295480Y-112257150D01*
X130305970Y-112279329D01*
X130314235Y-112302428D01*
X130320196Y-112326227D01*
X130323796Y-112350495D01*
X130325000Y-112374999D01*
X130325000Y-113025001D01*
X130323796Y-113049505D01*
X130320196Y-113073773D01*
X130314235Y-113097572D01*
X130305970Y-113120671D01*
X130295480Y-113142850D01*
X130282868Y-113163893D01*
X130268253Y-113183599D01*
X130251777Y-113201777D01*
X130233599Y-113218253D01*
X130213893Y-113232868D01*
X130192850Y-113245480D01*
X130170671Y-113255970D01*
X130147572Y-113264235D01*
X130123773Y-113270196D01*
X130099505Y-113273796D01*
X130075001Y-113275000D01*
X129174999Y-113275000D01*
X129150495Y-113273796D01*
X129126227Y-113270196D01*
X129102428Y-113264235D01*
X129079329Y-113255970D01*
X129057150Y-113245480D01*
X129036107Y-113232868D01*
X129016401Y-113218253D01*
X128998223Y-113201777D01*
X128981747Y-113183599D01*
X128967132Y-113163893D01*
X128954520Y-113142850D01*
X128944030Y-113120671D01*
X128935765Y-113097572D01*
X128929804Y-113073773D01*
X128926204Y-113049505D01*
X128925000Y-113025001D01*
X128925000Y-112374999D01*
X128926204Y-112350495D01*
X128929804Y-112326227D01*
X128935765Y-112302428D01*
X128944030Y-112279329D01*
X128954520Y-112257150D01*
X128967132Y-112236107D01*
X128981747Y-112216401D01*
X128998223Y-112198223D01*
X129016401Y-112181747D01*
X129036107Y-112167132D01*
X129057150Y-112154520D01*
X129079329Y-112144030D01*
X129102428Y-112135765D01*
X129126227Y-112129804D01*
X129150495Y-112126204D01*
X129174999Y-112125000D01*
X130075001Y-112125000D01*
X130099505Y-112126204D01*
X130099505Y-112126204D01*
G37*
D20*
G04 #@! TD*
G04 #@! TO.P,C11,1*
G04 #@! TO.N,GND*
X129625000Y-112700000D03*
D19*
G04 #@! TO.N,+12V*
G04 #@! TO.C,C11*
G36*
X130099505Y-114176204D02*
X130123773Y-114179804D01*
X130147572Y-114185765D01*
X130170671Y-114194030D01*
X130192850Y-114204520D01*
X130213893Y-114217132D01*
X130233599Y-114231747D01*
X130251777Y-114248223D01*
X130268253Y-114266401D01*
X130282868Y-114286107D01*
X130295480Y-114307150D01*
X130305970Y-114329329D01*
X130314235Y-114352428D01*
X130320196Y-114376227D01*
X130323796Y-114400495D01*
X130325000Y-114424999D01*
X130325000Y-115075001D01*
X130323796Y-115099505D01*
X130320196Y-115123773D01*
X130314235Y-115147572D01*
X130305970Y-115170671D01*
X130295480Y-115192850D01*
X130282868Y-115213893D01*
X130268253Y-115233599D01*
X130251777Y-115251777D01*
X130233599Y-115268253D01*
X130213893Y-115282868D01*
X130192850Y-115295480D01*
X130170671Y-115305970D01*
X130147572Y-115314235D01*
X130123773Y-115320196D01*
X130099505Y-115323796D01*
X130075001Y-115325000D01*
X129174999Y-115325000D01*
X129150495Y-115323796D01*
X129126227Y-115320196D01*
X129102428Y-115314235D01*
X129079329Y-115305970D01*
X129057150Y-115295480D01*
X129036107Y-115282868D01*
X129016401Y-115268253D01*
X128998223Y-115251777D01*
X128981747Y-115233599D01*
X128967132Y-115213893D01*
X128954520Y-115192850D01*
X128944030Y-115170671D01*
X128935765Y-115147572D01*
X128929804Y-115123773D01*
X128926204Y-115099505D01*
X128925000Y-115075001D01*
X128925000Y-114424999D01*
X128926204Y-114400495D01*
X128929804Y-114376227D01*
X128935765Y-114352428D01*
X128944030Y-114329329D01*
X128954520Y-114307150D01*
X128967132Y-114286107D01*
X128981747Y-114266401D01*
X128998223Y-114248223D01*
X129016401Y-114231747D01*
X129036107Y-114217132D01*
X129057150Y-114204520D01*
X129079329Y-114194030D01*
X129102428Y-114185765D01*
X129126227Y-114179804D01*
X129150495Y-114176204D01*
X129174999Y-114175000D01*
X130075001Y-114175000D01*
X130099505Y-114176204D01*
X130099505Y-114176204D01*
G37*
D20*
G04 #@! TD*
G04 #@! TO.P,C11,2*
G04 #@! TO.N,+12V*
X129625000Y-114750000D03*
D19*
G04 #@! TO.N,+5V*
G04 #@! TO.C,C13*
G36*
X130949505Y-106576204D02*
X130973773Y-106579804D01*
X130997572Y-106585765D01*
X131020671Y-106594030D01*
X131042850Y-106604520D01*
X131063893Y-106617132D01*
X131083599Y-106631747D01*
X131101777Y-106648223D01*
X131118253Y-106666401D01*
X131132868Y-106686107D01*
X131145480Y-106707150D01*
X131155970Y-106729329D01*
X131164235Y-106752428D01*
X131170196Y-106776227D01*
X131173796Y-106800495D01*
X131175000Y-106824999D01*
X131175000Y-107475001D01*
X131173796Y-107499505D01*
X131170196Y-107523773D01*
X131164235Y-107547572D01*
X131155970Y-107570671D01*
X131145480Y-107592850D01*
X131132868Y-107613893D01*
X131118253Y-107633599D01*
X131101777Y-107651777D01*
X131083599Y-107668253D01*
X131063893Y-107682868D01*
X131042850Y-107695480D01*
X131020671Y-107705970D01*
X130997572Y-107714235D01*
X130973773Y-107720196D01*
X130949505Y-107723796D01*
X130925001Y-107725000D01*
X130024999Y-107725000D01*
X130000495Y-107723796D01*
X129976227Y-107720196D01*
X129952428Y-107714235D01*
X129929329Y-107705970D01*
X129907150Y-107695480D01*
X129886107Y-107682868D01*
X129866401Y-107668253D01*
X129848223Y-107651777D01*
X129831747Y-107633599D01*
X129817132Y-107613893D01*
X129804520Y-107592850D01*
X129794030Y-107570671D01*
X129785765Y-107547572D01*
X129779804Y-107523773D01*
X129776204Y-107499505D01*
X129775000Y-107475001D01*
X129775000Y-106824999D01*
X129776204Y-106800495D01*
X129779804Y-106776227D01*
X129785765Y-106752428D01*
X129794030Y-106729329D01*
X129804520Y-106707150D01*
X129817132Y-106686107D01*
X129831747Y-106666401D01*
X129848223Y-106648223D01*
X129866401Y-106631747D01*
X129886107Y-106617132D01*
X129907150Y-106604520D01*
X129929329Y-106594030D01*
X129952428Y-106585765D01*
X129976227Y-106579804D01*
X130000495Y-106576204D01*
X130024999Y-106575000D01*
X130925001Y-106575000D01*
X130949505Y-106576204D01*
X130949505Y-106576204D01*
G37*
D20*
G04 #@! TD*
G04 #@! TO.P,C13,2*
G04 #@! TO.N,+5V*
X130475000Y-107150000D03*
D19*
G04 #@! TO.N,GND*
G04 #@! TO.C,C13*
G36*
X130949505Y-108626204D02*
X130973773Y-108629804D01*
X130997572Y-108635765D01*
X131020671Y-108644030D01*
X131042850Y-108654520D01*
X131063893Y-108667132D01*
X131083599Y-108681747D01*
X131101777Y-108698223D01*
X131118253Y-108716401D01*
X131132868Y-108736107D01*
X131145480Y-108757150D01*
X131155970Y-108779329D01*
X131164235Y-108802428D01*
X131170196Y-108826227D01*
X131173796Y-108850495D01*
X131175000Y-108874999D01*
X131175000Y-109525001D01*
X131173796Y-109549505D01*
X131170196Y-109573773D01*
X131164235Y-109597572D01*
X131155970Y-109620671D01*
X131145480Y-109642850D01*
X131132868Y-109663893D01*
X131118253Y-109683599D01*
X131101777Y-109701777D01*
X131083599Y-109718253D01*
X131063893Y-109732868D01*
X131042850Y-109745480D01*
X131020671Y-109755970D01*
X130997572Y-109764235D01*
X130973773Y-109770196D01*
X130949505Y-109773796D01*
X130925001Y-109775000D01*
X130024999Y-109775000D01*
X130000495Y-109773796D01*
X129976227Y-109770196D01*
X129952428Y-109764235D01*
X129929329Y-109755970D01*
X129907150Y-109745480D01*
X129886107Y-109732868D01*
X129866401Y-109718253D01*
X129848223Y-109701777D01*
X129831747Y-109683599D01*
X129817132Y-109663893D01*
X129804520Y-109642850D01*
X129794030Y-109620671D01*
X129785765Y-109597572D01*
X129779804Y-109573773D01*
X129776204Y-109549505D01*
X129775000Y-109525001D01*
X129775000Y-108874999D01*
X129776204Y-108850495D01*
X129779804Y-108826227D01*
X129785765Y-108802428D01*
X129794030Y-108779329D01*
X129804520Y-108757150D01*
X129817132Y-108736107D01*
X129831747Y-108716401D01*
X129848223Y-108698223D01*
X129866401Y-108681747D01*
X129886107Y-108667132D01*
X129907150Y-108654520D01*
X129929329Y-108644030D01*
X129952428Y-108635765D01*
X129976227Y-108629804D01*
X130000495Y-108626204D01*
X130024999Y-108625000D01*
X130925001Y-108625000D01*
X130949505Y-108626204D01*
X130949505Y-108626204D01*
G37*
D20*
G04 #@! TD*
G04 #@! TO.P,C13,1*
G04 #@! TO.N,GND*
X130475000Y-109200000D03*
D19*
G04 #@! TO.N,+5V*
G04 #@! TO.C,C14*
G36*
X139509505Y-93846204D02*
X139533773Y-93849804D01*
X139557572Y-93855765D01*
X139580671Y-93864030D01*
X139602850Y-93874520D01*
X139623893Y-93887132D01*
X139643599Y-93901747D01*
X139661777Y-93918223D01*
X139678253Y-93936401D01*
X139692868Y-93956107D01*
X139705480Y-93977150D01*
X139715970Y-93999329D01*
X139724235Y-94022428D01*
X139730196Y-94046227D01*
X139733796Y-94070495D01*
X139735000Y-94094999D01*
X139735000Y-94745001D01*
X139733796Y-94769505D01*
X139730196Y-94793773D01*
X139724235Y-94817572D01*
X139715970Y-94840671D01*
X139705480Y-94862850D01*
X139692868Y-94883893D01*
X139678253Y-94903599D01*
X139661777Y-94921777D01*
X139643599Y-94938253D01*
X139623893Y-94952868D01*
X139602850Y-94965480D01*
X139580671Y-94975970D01*
X139557572Y-94984235D01*
X139533773Y-94990196D01*
X139509505Y-94993796D01*
X139485001Y-94995000D01*
X138584999Y-94995000D01*
X138560495Y-94993796D01*
X138536227Y-94990196D01*
X138512428Y-94984235D01*
X138489329Y-94975970D01*
X138467150Y-94965480D01*
X138446107Y-94952868D01*
X138426401Y-94938253D01*
X138408223Y-94921777D01*
X138391747Y-94903599D01*
X138377132Y-94883893D01*
X138364520Y-94862850D01*
X138354030Y-94840671D01*
X138345765Y-94817572D01*
X138339804Y-94793773D01*
X138336204Y-94769505D01*
X138335000Y-94745001D01*
X138335000Y-94094999D01*
X138336204Y-94070495D01*
X138339804Y-94046227D01*
X138345765Y-94022428D01*
X138354030Y-93999329D01*
X138364520Y-93977150D01*
X138377132Y-93956107D01*
X138391747Y-93936401D01*
X138408223Y-93918223D01*
X138426401Y-93901747D01*
X138446107Y-93887132D01*
X138467150Y-93874520D01*
X138489329Y-93864030D01*
X138512428Y-93855765D01*
X138536227Y-93849804D01*
X138560495Y-93846204D01*
X138584999Y-93845000D01*
X139485001Y-93845000D01*
X139509505Y-93846204D01*
X139509505Y-93846204D01*
G37*
D20*
G04 #@! TD*
G04 #@! TO.P,C14,1*
G04 #@! TO.N,+5V*
X139035000Y-94420000D03*
D19*
G04 #@! TO.N,GND*
G04 #@! TO.C,C14*
G36*
X139509505Y-95896204D02*
X139533773Y-95899804D01*
X139557572Y-95905765D01*
X139580671Y-95914030D01*
X139602850Y-95924520D01*
X139623893Y-95937132D01*
X139643599Y-95951747D01*
X139661777Y-95968223D01*
X139678253Y-95986401D01*
X139692868Y-96006107D01*
X139705480Y-96027150D01*
X139715970Y-96049329D01*
X139724235Y-96072428D01*
X139730196Y-96096227D01*
X139733796Y-96120495D01*
X139735000Y-96144999D01*
X139735000Y-96795001D01*
X139733796Y-96819505D01*
X139730196Y-96843773D01*
X139724235Y-96867572D01*
X139715970Y-96890671D01*
X139705480Y-96912850D01*
X139692868Y-96933893D01*
X139678253Y-96953599D01*
X139661777Y-96971777D01*
X139643599Y-96988253D01*
X139623893Y-97002868D01*
X139602850Y-97015480D01*
X139580671Y-97025970D01*
X139557572Y-97034235D01*
X139533773Y-97040196D01*
X139509505Y-97043796D01*
X139485001Y-97045000D01*
X138584999Y-97045000D01*
X138560495Y-97043796D01*
X138536227Y-97040196D01*
X138512428Y-97034235D01*
X138489329Y-97025970D01*
X138467150Y-97015480D01*
X138446107Y-97002868D01*
X138426401Y-96988253D01*
X138408223Y-96971777D01*
X138391747Y-96953599D01*
X138377132Y-96933893D01*
X138364520Y-96912850D01*
X138354030Y-96890671D01*
X138345765Y-96867572D01*
X138339804Y-96843773D01*
X138336204Y-96819505D01*
X138335000Y-96795001D01*
X138335000Y-96144999D01*
X138336204Y-96120495D01*
X138339804Y-96096227D01*
X138345765Y-96072428D01*
X138354030Y-96049329D01*
X138364520Y-96027150D01*
X138377132Y-96006107D01*
X138391747Y-95986401D01*
X138408223Y-95968223D01*
X138426401Y-95951747D01*
X138446107Y-95937132D01*
X138467150Y-95924520D01*
X138489329Y-95914030D01*
X138512428Y-95905765D01*
X138536227Y-95899804D01*
X138560495Y-95896204D01*
X138584999Y-95895000D01*
X139485001Y-95895000D01*
X139509505Y-95896204D01*
X139509505Y-95896204D01*
G37*
D20*
G04 #@! TD*
G04 #@! TO.P,C14,2*
G04 #@! TO.N,GND*
X139035000Y-96470000D03*
D19*
G04 #@! TO.N,+3V3*
G04 #@! TO.C,C15*
G36*
X145909505Y-91036204D02*
X145933773Y-91039804D01*
X145957572Y-91045765D01*
X145980671Y-91054030D01*
X146002850Y-91064520D01*
X146023893Y-91077132D01*
X146043599Y-91091747D01*
X146061777Y-91108223D01*
X146078253Y-91126401D01*
X146092868Y-91146107D01*
X146105480Y-91167150D01*
X146115970Y-91189329D01*
X146124235Y-91212428D01*
X146130196Y-91236227D01*
X146133796Y-91260495D01*
X146135000Y-91284999D01*
X146135000Y-91935001D01*
X146133796Y-91959505D01*
X146130196Y-91983773D01*
X146124235Y-92007572D01*
X146115970Y-92030671D01*
X146105480Y-92052850D01*
X146092868Y-92073893D01*
X146078253Y-92093599D01*
X146061777Y-92111777D01*
X146043599Y-92128253D01*
X146023893Y-92142868D01*
X146002850Y-92155480D01*
X145980671Y-92165970D01*
X145957572Y-92174235D01*
X145933773Y-92180196D01*
X145909505Y-92183796D01*
X145885001Y-92185000D01*
X144984999Y-92185000D01*
X144960495Y-92183796D01*
X144936227Y-92180196D01*
X144912428Y-92174235D01*
X144889329Y-92165970D01*
X144867150Y-92155480D01*
X144846107Y-92142868D01*
X144826401Y-92128253D01*
X144808223Y-92111777D01*
X144791747Y-92093599D01*
X144777132Y-92073893D01*
X144764520Y-92052850D01*
X144754030Y-92030671D01*
X144745765Y-92007572D01*
X144739804Y-91983773D01*
X144736204Y-91959505D01*
X144735000Y-91935001D01*
X144735000Y-91284999D01*
X144736204Y-91260495D01*
X144739804Y-91236227D01*
X144745765Y-91212428D01*
X144754030Y-91189329D01*
X144764520Y-91167150D01*
X144777132Y-91146107D01*
X144791747Y-91126401D01*
X144808223Y-91108223D01*
X144826401Y-91091747D01*
X144846107Y-91077132D01*
X144867150Y-91064520D01*
X144889329Y-91054030D01*
X144912428Y-91045765D01*
X144936227Y-91039804D01*
X144960495Y-91036204D01*
X144984999Y-91035000D01*
X145885001Y-91035000D01*
X145909505Y-91036204D01*
X145909505Y-91036204D01*
G37*
D20*
G04 #@! TD*
G04 #@! TO.P,C15,2*
G04 #@! TO.N,+3V3*
X145435000Y-91610000D03*
D19*
G04 #@! TO.N,GND*
G04 #@! TO.C,C15*
G36*
X145909505Y-88986204D02*
X145933773Y-88989804D01*
X145957572Y-88995765D01*
X145980671Y-89004030D01*
X146002850Y-89014520D01*
X146023893Y-89027132D01*
X146043599Y-89041747D01*
X146061777Y-89058223D01*
X146078253Y-89076401D01*
X146092868Y-89096107D01*
X146105480Y-89117150D01*
X146115970Y-89139329D01*
X146124235Y-89162428D01*
X146130196Y-89186227D01*
X146133796Y-89210495D01*
X146135000Y-89234999D01*
X146135000Y-89885001D01*
X146133796Y-89909505D01*
X146130196Y-89933773D01*
X146124235Y-89957572D01*
X146115970Y-89980671D01*
X146105480Y-90002850D01*
X146092868Y-90023893D01*
X146078253Y-90043599D01*
X146061777Y-90061777D01*
X146043599Y-90078253D01*
X146023893Y-90092868D01*
X146002850Y-90105480D01*
X145980671Y-90115970D01*
X145957572Y-90124235D01*
X145933773Y-90130196D01*
X145909505Y-90133796D01*
X145885001Y-90135000D01*
X144984999Y-90135000D01*
X144960495Y-90133796D01*
X144936227Y-90130196D01*
X144912428Y-90124235D01*
X144889329Y-90115970D01*
X144867150Y-90105480D01*
X144846107Y-90092868D01*
X144826401Y-90078253D01*
X144808223Y-90061777D01*
X144791747Y-90043599D01*
X144777132Y-90023893D01*
X144764520Y-90002850D01*
X144754030Y-89980671D01*
X144745765Y-89957572D01*
X144739804Y-89933773D01*
X144736204Y-89909505D01*
X144735000Y-89885001D01*
X144735000Y-89234999D01*
X144736204Y-89210495D01*
X144739804Y-89186227D01*
X144745765Y-89162428D01*
X144754030Y-89139329D01*
X144764520Y-89117150D01*
X144777132Y-89096107D01*
X144791747Y-89076401D01*
X144808223Y-89058223D01*
X144826401Y-89041747D01*
X144846107Y-89027132D01*
X144867150Y-89014520D01*
X144889329Y-89004030D01*
X144912428Y-88995765D01*
X144936227Y-88989804D01*
X144960495Y-88986204D01*
X144984999Y-88985000D01*
X145885001Y-88985000D01*
X145909505Y-88986204D01*
X145909505Y-88986204D01*
G37*
D20*
G04 #@! TD*
G04 #@! TO.P,C15,1*
G04 #@! TO.N,GND*
X145435000Y-89560000D03*
D19*
G04 #@! TO.N,GND*
G04 #@! TO.C,C16*
G36*
X145929505Y-83986204D02*
X145953773Y-83989804D01*
X145977572Y-83995765D01*
X146000671Y-84004030D01*
X146022850Y-84014520D01*
X146043893Y-84027132D01*
X146063599Y-84041747D01*
X146081777Y-84058223D01*
X146098253Y-84076401D01*
X146112868Y-84096107D01*
X146125480Y-84117150D01*
X146135970Y-84139329D01*
X146144235Y-84162428D01*
X146150196Y-84186227D01*
X146153796Y-84210495D01*
X146155000Y-84234999D01*
X146155000Y-84885001D01*
X146153796Y-84909505D01*
X146150196Y-84933773D01*
X146144235Y-84957572D01*
X146135970Y-84980671D01*
X146125480Y-85002850D01*
X146112868Y-85023893D01*
X146098253Y-85043599D01*
X146081777Y-85061777D01*
X146063599Y-85078253D01*
X146043893Y-85092868D01*
X146022850Y-85105480D01*
X146000671Y-85115970D01*
X145977572Y-85124235D01*
X145953773Y-85130196D01*
X145929505Y-85133796D01*
X145905001Y-85135000D01*
X145004999Y-85135000D01*
X144980495Y-85133796D01*
X144956227Y-85130196D01*
X144932428Y-85124235D01*
X144909329Y-85115970D01*
X144887150Y-85105480D01*
X144866107Y-85092868D01*
X144846401Y-85078253D01*
X144828223Y-85061777D01*
X144811747Y-85043599D01*
X144797132Y-85023893D01*
X144784520Y-85002850D01*
X144774030Y-84980671D01*
X144765765Y-84957572D01*
X144759804Y-84933773D01*
X144756204Y-84909505D01*
X144755000Y-84885001D01*
X144755000Y-84234999D01*
X144756204Y-84210495D01*
X144759804Y-84186227D01*
X144765765Y-84162428D01*
X144774030Y-84139329D01*
X144784520Y-84117150D01*
X144797132Y-84096107D01*
X144811747Y-84076401D01*
X144828223Y-84058223D01*
X144846401Y-84041747D01*
X144866107Y-84027132D01*
X144887150Y-84014520D01*
X144909329Y-84004030D01*
X144932428Y-83995765D01*
X144956227Y-83989804D01*
X144980495Y-83986204D01*
X145004999Y-83985000D01*
X145905001Y-83985000D01*
X145929505Y-83986204D01*
X145929505Y-83986204D01*
G37*
D20*
G04 #@! TD*
G04 #@! TO.P,C16,2*
G04 #@! TO.N,GND*
X145455000Y-84560000D03*
D19*
G04 #@! TO.N,+3V3*
G04 #@! TO.C,C16*
G36*
X145929505Y-86036204D02*
X145953773Y-86039804D01*
X145977572Y-86045765D01*
X146000671Y-86054030D01*
X146022850Y-86064520D01*
X146043893Y-86077132D01*
X146063599Y-86091747D01*
X146081777Y-86108223D01*
X146098253Y-86126401D01*
X146112868Y-86146107D01*
X146125480Y-86167150D01*
X146135970Y-86189329D01*
X146144235Y-86212428D01*
X146150196Y-86236227D01*
X146153796Y-86260495D01*
X146155000Y-86284999D01*
X146155000Y-86935001D01*
X146153796Y-86959505D01*
X146150196Y-86983773D01*
X146144235Y-87007572D01*
X146135970Y-87030671D01*
X146125480Y-87052850D01*
X146112868Y-87073893D01*
X146098253Y-87093599D01*
X146081777Y-87111777D01*
X146063599Y-87128253D01*
X146043893Y-87142868D01*
X146022850Y-87155480D01*
X146000671Y-87165970D01*
X145977572Y-87174235D01*
X145953773Y-87180196D01*
X145929505Y-87183796D01*
X145905001Y-87185000D01*
X145004999Y-87185000D01*
X144980495Y-87183796D01*
X144956227Y-87180196D01*
X144932428Y-87174235D01*
X144909329Y-87165970D01*
X144887150Y-87155480D01*
X144866107Y-87142868D01*
X144846401Y-87128253D01*
X144828223Y-87111777D01*
X144811747Y-87093599D01*
X144797132Y-87073893D01*
X144784520Y-87052850D01*
X144774030Y-87030671D01*
X144765765Y-87007572D01*
X144759804Y-86983773D01*
X144756204Y-86959505D01*
X144755000Y-86935001D01*
X144755000Y-86284999D01*
X144756204Y-86260495D01*
X144759804Y-86236227D01*
X144765765Y-86212428D01*
X144774030Y-86189329D01*
X144784520Y-86167150D01*
X144797132Y-86146107D01*
X144811747Y-86126401D01*
X144828223Y-86108223D01*
X144846401Y-86091747D01*
X144866107Y-86077132D01*
X144887150Y-86064520D01*
X144909329Y-86054030D01*
X144932428Y-86045765D01*
X144956227Y-86039804D01*
X144980495Y-86036204D01*
X145004999Y-86035000D01*
X145905001Y-86035000D01*
X145929505Y-86036204D01*
X145929505Y-86036204D01*
G37*
D20*
G04 #@! TD*
G04 #@! TO.P,C16,1*
G04 #@! TO.N,+3V3*
X145455000Y-86610000D03*
D19*
G04 #@! TO.N,+5V*
G04 #@! TO.C,D1*
G36*
X146074504Y-106323704D02*
X146098773Y-106327304D01*
X146122571Y-106333265D01*
X146145671Y-106341530D01*
X146167849Y-106352020D01*
X146188893Y-106364633D01*
X146208598Y-106379247D01*
X146226777Y-106395723D01*
X146243253Y-106413902D01*
X146257867Y-106433607D01*
X146270480Y-106454651D01*
X146280970Y-106476829D01*
X146289235Y-106499929D01*
X146295196Y-106523727D01*
X146298796Y-106547996D01*
X146300000Y-106572500D01*
X146300000Y-107497500D01*
X146298796Y-107522004D01*
X146295196Y-107546273D01*
X146289235Y-107570071D01*
X146280970Y-107593171D01*
X146270480Y-107615349D01*
X146257867Y-107636393D01*
X146243253Y-107656098D01*
X146226777Y-107674277D01*
X146208598Y-107690753D01*
X146188893Y-107705367D01*
X146167849Y-107717980D01*
X146145671Y-107728470D01*
X146122571Y-107736735D01*
X146098773Y-107742696D01*
X146074504Y-107746296D01*
X146050000Y-107747500D01*
X144800000Y-107747500D01*
X144775496Y-107746296D01*
X144751227Y-107742696D01*
X144727429Y-107736735D01*
X144704329Y-107728470D01*
X144682151Y-107717980D01*
X144661107Y-107705367D01*
X144641402Y-107690753D01*
X144623223Y-107674277D01*
X144606747Y-107656098D01*
X144592133Y-107636393D01*
X144579520Y-107615349D01*
X144569030Y-107593171D01*
X144560765Y-107570071D01*
X144554804Y-107546273D01*
X144551204Y-107522004D01*
X144550000Y-107497500D01*
X144550000Y-106572500D01*
X144551204Y-106547996D01*
X144554804Y-106523727D01*
X144560765Y-106499929D01*
X144569030Y-106476829D01*
X144579520Y-106454651D01*
X144592133Y-106433607D01*
X144606747Y-106413902D01*
X144623223Y-106395723D01*
X144641402Y-106379247D01*
X144661107Y-106364633D01*
X144682151Y-106352020D01*
X144704329Y-106341530D01*
X144727429Y-106333265D01*
X144751227Y-106327304D01*
X144775496Y-106323704D01*
X144800000Y-106322500D01*
X146050000Y-106322500D01*
X146074504Y-106323704D01*
X146074504Y-106323704D01*
G37*
D22*
G04 #@! TD*
G04 #@! TO.P,D1,2*
G04 #@! TO.N,+5V*
X145425000Y-107035000D03*
D19*
G04 #@! TO.N,Net-(D1-Pad1)*
G04 #@! TO.C,D1*
G36*
X146074504Y-103348704D02*
X146098773Y-103352304D01*
X146122571Y-103358265D01*
X146145671Y-103366530D01*
X146167849Y-103377020D01*
X146188893Y-103389633D01*
X146208598Y-103404247D01*
X146226777Y-103420723D01*
X146243253Y-103438902D01*
X146257867Y-103458607D01*
X146270480Y-103479651D01*
X146280970Y-103501829D01*
X146289235Y-103524929D01*
X146295196Y-103548727D01*
X146298796Y-103572996D01*
X146300000Y-103597500D01*
X146300000Y-104522500D01*
X146298796Y-104547004D01*
X146295196Y-104571273D01*
X146289235Y-104595071D01*
X146280970Y-104618171D01*
X146270480Y-104640349D01*
X146257867Y-104661393D01*
X146243253Y-104681098D01*
X146226777Y-104699277D01*
X146208598Y-104715753D01*
X146188893Y-104730367D01*
X146167849Y-104742980D01*
X146145671Y-104753470D01*
X146122571Y-104761735D01*
X146098773Y-104767696D01*
X146074504Y-104771296D01*
X146050000Y-104772500D01*
X144800000Y-104772500D01*
X144775496Y-104771296D01*
X144751227Y-104767696D01*
X144727429Y-104761735D01*
X144704329Y-104753470D01*
X144682151Y-104742980D01*
X144661107Y-104730367D01*
X144641402Y-104715753D01*
X144623223Y-104699277D01*
X144606747Y-104681098D01*
X144592133Y-104661393D01*
X144579520Y-104640349D01*
X144569030Y-104618171D01*
X144560765Y-104595071D01*
X144554804Y-104571273D01*
X144551204Y-104547004D01*
X144550000Y-104522500D01*
X144550000Y-103597500D01*
X144551204Y-103572996D01*
X144554804Y-103548727D01*
X144560765Y-103524929D01*
X144569030Y-103501829D01*
X144579520Y-103479651D01*
X144592133Y-103458607D01*
X144606747Y-103438902D01*
X144623223Y-103420723D01*
X144641402Y-103404247D01*
X144661107Y-103389633D01*
X144682151Y-103377020D01*
X144704329Y-103366530D01*
X144727429Y-103358265D01*
X144751227Y-103352304D01*
X144775496Y-103348704D01*
X144800000Y-103347500D01*
X146050000Y-103347500D01*
X146074504Y-103348704D01*
X146074504Y-103348704D01*
G37*
D22*
G04 #@! TD*
G04 #@! TO.P,D1,1*
G04 #@! TO.N,Net-(D1-Pad1)*
X145425000Y-104060000D03*
D19*
G04 #@! TO.N,Net-(D2-Pad1)*
G04 #@! TO.C,D2*
G36*
X142884504Y-103373704D02*
X142908773Y-103377304D01*
X142932571Y-103383265D01*
X142955671Y-103391530D01*
X142977849Y-103402020D01*
X142998893Y-103414633D01*
X143018598Y-103429247D01*
X143036777Y-103445723D01*
X143053253Y-103463902D01*
X143067867Y-103483607D01*
X143080480Y-103504651D01*
X143090970Y-103526829D01*
X143099235Y-103549929D01*
X143105196Y-103573727D01*
X143108796Y-103597996D01*
X143110000Y-103622500D01*
X143110000Y-104547500D01*
X143108796Y-104572004D01*
X143105196Y-104596273D01*
X143099235Y-104620071D01*
X143090970Y-104643171D01*
X143080480Y-104665349D01*
X143067867Y-104686393D01*
X143053253Y-104706098D01*
X143036777Y-104724277D01*
X143018598Y-104740753D01*
X142998893Y-104755367D01*
X142977849Y-104767980D01*
X142955671Y-104778470D01*
X142932571Y-104786735D01*
X142908773Y-104792696D01*
X142884504Y-104796296D01*
X142860000Y-104797500D01*
X141610000Y-104797500D01*
X141585496Y-104796296D01*
X141561227Y-104792696D01*
X141537429Y-104786735D01*
X141514329Y-104778470D01*
X141492151Y-104767980D01*
X141471107Y-104755367D01*
X141451402Y-104740753D01*
X141433223Y-104724277D01*
X141416747Y-104706098D01*
X141402133Y-104686393D01*
X141389520Y-104665349D01*
X141379030Y-104643171D01*
X141370765Y-104620071D01*
X141364804Y-104596273D01*
X141361204Y-104572004D01*
X141360000Y-104547500D01*
X141360000Y-103622500D01*
X141361204Y-103597996D01*
X141364804Y-103573727D01*
X141370765Y-103549929D01*
X141379030Y-103526829D01*
X141389520Y-103504651D01*
X141402133Y-103483607D01*
X141416747Y-103463902D01*
X141433223Y-103445723D01*
X141451402Y-103429247D01*
X141471107Y-103414633D01*
X141492151Y-103402020D01*
X141514329Y-103391530D01*
X141537429Y-103383265D01*
X141561227Y-103377304D01*
X141585496Y-103373704D01*
X141610000Y-103372500D01*
X142860000Y-103372500D01*
X142884504Y-103373704D01*
X142884504Y-103373704D01*
G37*
D22*
G04 #@! TD*
G04 #@! TO.P,D2,1*
G04 #@! TO.N,Net-(D2-Pad1)*
X142235000Y-104085000D03*
D19*
G04 #@! TO.N,+5V*
G04 #@! TO.C,D2*
G36*
X142884504Y-106348704D02*
X142908773Y-106352304D01*
X142932571Y-106358265D01*
X142955671Y-106366530D01*
X142977849Y-106377020D01*
X142998893Y-106389633D01*
X143018598Y-106404247D01*
X143036777Y-106420723D01*
X143053253Y-106438902D01*
X143067867Y-106458607D01*
X143080480Y-106479651D01*
X143090970Y-106501829D01*
X143099235Y-106524929D01*
X143105196Y-106548727D01*
X143108796Y-106572996D01*
X143110000Y-106597500D01*
X143110000Y-107522500D01*
X143108796Y-107547004D01*
X143105196Y-107571273D01*
X143099235Y-107595071D01*
X143090970Y-107618171D01*
X143080480Y-107640349D01*
X143067867Y-107661393D01*
X143053253Y-107681098D01*
X143036777Y-107699277D01*
X143018598Y-107715753D01*
X142998893Y-107730367D01*
X142977849Y-107742980D01*
X142955671Y-107753470D01*
X142932571Y-107761735D01*
X142908773Y-107767696D01*
X142884504Y-107771296D01*
X142860000Y-107772500D01*
X141610000Y-107772500D01*
X141585496Y-107771296D01*
X141561227Y-107767696D01*
X141537429Y-107761735D01*
X141514329Y-107753470D01*
X141492151Y-107742980D01*
X141471107Y-107730367D01*
X141451402Y-107715753D01*
X141433223Y-107699277D01*
X141416747Y-107681098D01*
X141402133Y-107661393D01*
X141389520Y-107640349D01*
X141379030Y-107618171D01*
X141370765Y-107595071D01*
X141364804Y-107571273D01*
X141361204Y-107547004D01*
X141360000Y-107522500D01*
X141360000Y-106597500D01*
X141361204Y-106572996D01*
X141364804Y-106548727D01*
X141370765Y-106524929D01*
X141379030Y-106501829D01*
X141389520Y-106479651D01*
X141402133Y-106458607D01*
X141416747Y-106438902D01*
X141433223Y-106420723D01*
X141451402Y-106404247D01*
X141471107Y-106389633D01*
X141492151Y-106377020D01*
X141514329Y-106366530D01*
X141537429Y-106358265D01*
X141561227Y-106352304D01*
X141585496Y-106348704D01*
X141610000Y-106347500D01*
X142860000Y-106347500D01*
X142884504Y-106348704D01*
X142884504Y-106348704D01*
G37*
D22*
G04 #@! TD*
G04 #@! TO.P,D2,2*
G04 #@! TO.N,+5V*
X142235000Y-107060000D03*
D19*
G04 #@! TO.N,Net-(D3-Pad1)*
G04 #@! TO.C,D3*
G36*
X139844504Y-103348704D02*
X139868773Y-103352304D01*
X139892571Y-103358265D01*
X139915671Y-103366530D01*
X139937849Y-103377020D01*
X139958893Y-103389633D01*
X139978598Y-103404247D01*
X139996777Y-103420723D01*
X140013253Y-103438902D01*
X140027867Y-103458607D01*
X140040480Y-103479651D01*
X140050970Y-103501829D01*
X140059235Y-103524929D01*
X140065196Y-103548727D01*
X140068796Y-103572996D01*
X140070000Y-103597500D01*
X140070000Y-104522500D01*
X140068796Y-104547004D01*
X140065196Y-104571273D01*
X140059235Y-104595071D01*
X140050970Y-104618171D01*
X140040480Y-104640349D01*
X140027867Y-104661393D01*
X140013253Y-104681098D01*
X139996777Y-104699277D01*
X139978598Y-104715753D01*
X139958893Y-104730367D01*
X139937849Y-104742980D01*
X139915671Y-104753470D01*
X139892571Y-104761735D01*
X139868773Y-104767696D01*
X139844504Y-104771296D01*
X139820000Y-104772500D01*
X138570000Y-104772500D01*
X138545496Y-104771296D01*
X138521227Y-104767696D01*
X138497429Y-104761735D01*
X138474329Y-104753470D01*
X138452151Y-104742980D01*
X138431107Y-104730367D01*
X138411402Y-104715753D01*
X138393223Y-104699277D01*
X138376747Y-104681098D01*
X138362133Y-104661393D01*
X138349520Y-104640349D01*
X138339030Y-104618171D01*
X138330765Y-104595071D01*
X138324804Y-104571273D01*
X138321204Y-104547004D01*
X138320000Y-104522500D01*
X138320000Y-103597500D01*
X138321204Y-103572996D01*
X138324804Y-103548727D01*
X138330765Y-103524929D01*
X138339030Y-103501829D01*
X138349520Y-103479651D01*
X138362133Y-103458607D01*
X138376747Y-103438902D01*
X138393223Y-103420723D01*
X138411402Y-103404247D01*
X138431107Y-103389633D01*
X138452151Y-103377020D01*
X138474329Y-103366530D01*
X138497429Y-103358265D01*
X138521227Y-103352304D01*
X138545496Y-103348704D01*
X138570000Y-103347500D01*
X139820000Y-103347500D01*
X139844504Y-103348704D01*
X139844504Y-103348704D01*
G37*
D22*
G04 #@! TD*
G04 #@! TO.P,D3,1*
G04 #@! TO.N,Net-(D3-Pad1)*
X139195000Y-104060000D03*
D19*
G04 #@! TO.N,+5V*
G04 #@! TO.C,D3*
G36*
X139844504Y-106323704D02*
X139868773Y-106327304D01*
X139892571Y-106333265D01*
X139915671Y-106341530D01*
X139937849Y-106352020D01*
X139958893Y-106364633D01*
X139978598Y-106379247D01*
X139996777Y-106395723D01*
X140013253Y-106413902D01*
X140027867Y-106433607D01*
X140040480Y-106454651D01*
X140050970Y-106476829D01*
X140059235Y-106499929D01*
X140065196Y-106523727D01*
X140068796Y-106547996D01*
X140070000Y-106572500D01*
X140070000Y-107497500D01*
X140068796Y-107522004D01*
X140065196Y-107546273D01*
X140059235Y-107570071D01*
X140050970Y-107593171D01*
X140040480Y-107615349D01*
X140027867Y-107636393D01*
X140013253Y-107656098D01*
X139996777Y-107674277D01*
X139978598Y-107690753D01*
X139958893Y-107705367D01*
X139937849Y-107717980D01*
X139915671Y-107728470D01*
X139892571Y-107736735D01*
X139868773Y-107742696D01*
X139844504Y-107746296D01*
X139820000Y-107747500D01*
X138570000Y-107747500D01*
X138545496Y-107746296D01*
X138521227Y-107742696D01*
X138497429Y-107736735D01*
X138474329Y-107728470D01*
X138452151Y-107717980D01*
X138431107Y-107705367D01*
X138411402Y-107690753D01*
X138393223Y-107674277D01*
X138376747Y-107656098D01*
X138362133Y-107636393D01*
X138349520Y-107615349D01*
X138339030Y-107593171D01*
X138330765Y-107570071D01*
X138324804Y-107546273D01*
X138321204Y-107522004D01*
X138320000Y-107497500D01*
X138320000Y-106572500D01*
X138321204Y-106547996D01*
X138324804Y-106523727D01*
X138330765Y-106499929D01*
X138339030Y-106476829D01*
X138349520Y-106454651D01*
X138362133Y-106433607D01*
X138376747Y-106413902D01*
X138393223Y-106395723D01*
X138411402Y-106379247D01*
X138431107Y-106364633D01*
X138452151Y-106352020D01*
X138474329Y-106341530D01*
X138497429Y-106333265D01*
X138521227Y-106327304D01*
X138545496Y-106323704D01*
X138570000Y-106322500D01*
X139820000Y-106322500D01*
X139844504Y-106323704D01*
X139844504Y-106323704D01*
G37*
D22*
G04 #@! TD*
G04 #@! TO.P,D3,2*
G04 #@! TO.N,+5V*
X139195000Y-107035000D03*
D19*
G04 #@! TO.N,Net-(D4-Pad1)*
G04 #@! TO.C,D4*
G36*
X129687004Y-119076204D02*
X129711273Y-119079804D01*
X129735071Y-119085765D01*
X129758171Y-119094030D01*
X129780349Y-119104520D01*
X129801393Y-119117133D01*
X129821098Y-119131747D01*
X129839277Y-119148223D01*
X129855753Y-119166402D01*
X129870367Y-119186107D01*
X129882980Y-119207151D01*
X129893470Y-119229329D01*
X129901735Y-119252429D01*
X129907696Y-119276227D01*
X129911296Y-119300496D01*
X129912500Y-119325000D01*
X129912500Y-120575000D01*
X129911296Y-120599504D01*
X129907696Y-120623773D01*
X129901735Y-120647571D01*
X129893470Y-120670671D01*
X129882980Y-120692849D01*
X129870367Y-120713893D01*
X129855753Y-120733598D01*
X129839277Y-120751777D01*
X129821098Y-120768253D01*
X129801393Y-120782867D01*
X129780349Y-120795480D01*
X129758171Y-120805970D01*
X129735071Y-120814235D01*
X129711273Y-120820196D01*
X129687004Y-120823796D01*
X129662500Y-120825000D01*
X128737500Y-120825000D01*
X128712996Y-120823796D01*
X128688727Y-120820196D01*
X128664929Y-120814235D01*
X128641829Y-120805970D01*
X128619651Y-120795480D01*
X128598607Y-120782867D01*
X128578902Y-120768253D01*
X128560723Y-120751777D01*
X128544247Y-120733598D01*
X128529633Y-120713893D01*
X128517020Y-120692849D01*
X128506530Y-120670671D01*
X128498265Y-120647571D01*
X128492304Y-120623773D01*
X128488704Y-120599504D01*
X128487500Y-120575000D01*
X128487500Y-119325000D01*
X128488704Y-119300496D01*
X128492304Y-119276227D01*
X128498265Y-119252429D01*
X128506530Y-119229329D01*
X128517020Y-119207151D01*
X128529633Y-119186107D01*
X128544247Y-119166402D01*
X128560723Y-119148223D01*
X128578902Y-119131747D01*
X128598607Y-119117133D01*
X128619651Y-119104520D01*
X128641829Y-119094030D01*
X128664929Y-119085765D01*
X128688727Y-119079804D01*
X128712996Y-119076204D01*
X128737500Y-119075000D01*
X129662500Y-119075000D01*
X129687004Y-119076204D01*
X129687004Y-119076204D01*
G37*
D22*
G04 #@! TD*
G04 #@! TO.P,D4,1*
G04 #@! TO.N,Net-(D4-Pad1)*
X129200000Y-119950000D03*
D19*
G04 #@! TO.N,GND*
G04 #@! TO.C,D4*
G36*
X126712004Y-119076204D02*
X126736273Y-119079804D01*
X126760071Y-119085765D01*
X126783171Y-119094030D01*
X126805349Y-119104520D01*
X126826393Y-119117133D01*
X126846098Y-119131747D01*
X126864277Y-119148223D01*
X126880753Y-119166402D01*
X126895367Y-119186107D01*
X126907980Y-119207151D01*
X126918470Y-119229329D01*
X126926735Y-119252429D01*
X126932696Y-119276227D01*
X126936296Y-119300496D01*
X126937500Y-119325000D01*
X126937500Y-120575000D01*
X126936296Y-120599504D01*
X126932696Y-120623773D01*
X126926735Y-120647571D01*
X126918470Y-120670671D01*
X126907980Y-120692849D01*
X126895367Y-120713893D01*
X126880753Y-120733598D01*
X126864277Y-120751777D01*
X126846098Y-120768253D01*
X126826393Y-120782867D01*
X126805349Y-120795480D01*
X126783171Y-120805970D01*
X126760071Y-120814235D01*
X126736273Y-120820196D01*
X126712004Y-120823796D01*
X126687500Y-120825000D01*
X125762500Y-120825000D01*
X125737996Y-120823796D01*
X125713727Y-120820196D01*
X125689929Y-120814235D01*
X125666829Y-120805970D01*
X125644651Y-120795480D01*
X125623607Y-120782867D01*
X125603902Y-120768253D01*
X125585723Y-120751777D01*
X125569247Y-120733598D01*
X125554633Y-120713893D01*
X125542020Y-120692849D01*
X125531530Y-120670671D01*
X125523265Y-120647571D01*
X125517304Y-120623773D01*
X125513704Y-120599504D01*
X125512500Y-120575000D01*
X125512500Y-119325000D01*
X125513704Y-119300496D01*
X125517304Y-119276227D01*
X125523265Y-119252429D01*
X125531530Y-119229329D01*
X125542020Y-119207151D01*
X125554633Y-119186107D01*
X125569247Y-119166402D01*
X125585723Y-119148223D01*
X125603902Y-119131747D01*
X125623607Y-119117133D01*
X125644651Y-119104520D01*
X125666829Y-119094030D01*
X125689929Y-119085765D01*
X125713727Y-119079804D01*
X125737996Y-119076204D01*
X125762500Y-119075000D01*
X126687500Y-119075000D01*
X126712004Y-119076204D01*
X126712004Y-119076204D01*
G37*
D22*
G04 #@! TD*
G04 #@! TO.P,D4,2*
G04 #@! TO.N,GND*
X126225000Y-119950000D03*
D23*
G04 #@! TO.P,F1,1*
G04 #@! TO.N,Net-(F1-Pad1)*
X141725000Y-124920000D03*
X145125000Y-124920000D03*
G04 #@! TO.P,F1,2*
G04 #@! TO.N,Net-(F1-Pad2)*
X145125000Y-111450000D03*
X141725000Y-111450000D03*
G04 #@! TD*
D24*
G04 #@! TO.P,J2,1*
G04 #@! TO.N,GND*
X162225000Y-119200000D03*
G04 #@! TO.P,J2,2*
G04 #@! TO.N,Net-(F1-Pad2)*
X153975000Y-119200000D03*
G04 #@! TD*
D19*
G04 #@! TO.N,Net-(D1-Pad1)*
G04 #@! TO.C,R2*
G36*
X145909505Y-100421204D02*
X145933773Y-100424804D01*
X145957572Y-100430765D01*
X145980671Y-100439030D01*
X146002850Y-100449520D01*
X146023893Y-100462132D01*
X146043599Y-100476747D01*
X146061777Y-100493223D01*
X146078253Y-100511401D01*
X146092868Y-100531107D01*
X146105480Y-100552150D01*
X146115970Y-100574329D01*
X146124235Y-100597428D01*
X146130196Y-100621227D01*
X146133796Y-100645495D01*
X146135000Y-100669999D01*
X146135000Y-101320001D01*
X146133796Y-101344505D01*
X146130196Y-101368773D01*
X146124235Y-101392572D01*
X146115970Y-101415671D01*
X146105480Y-101437850D01*
X146092868Y-101458893D01*
X146078253Y-101478599D01*
X146061777Y-101496777D01*
X146043599Y-101513253D01*
X146023893Y-101527868D01*
X146002850Y-101540480D01*
X145980671Y-101550970D01*
X145957572Y-101559235D01*
X145933773Y-101565196D01*
X145909505Y-101568796D01*
X145885001Y-101570000D01*
X144984999Y-101570000D01*
X144960495Y-101568796D01*
X144936227Y-101565196D01*
X144912428Y-101559235D01*
X144889329Y-101550970D01*
X144867150Y-101540480D01*
X144846107Y-101527868D01*
X144826401Y-101513253D01*
X144808223Y-101496777D01*
X144791747Y-101478599D01*
X144777132Y-101458893D01*
X144764520Y-101437850D01*
X144754030Y-101415671D01*
X144745765Y-101392572D01*
X144739804Y-101368773D01*
X144736204Y-101344505D01*
X144735000Y-101320001D01*
X144735000Y-100669999D01*
X144736204Y-100645495D01*
X144739804Y-100621227D01*
X144745765Y-100597428D01*
X144754030Y-100574329D01*
X144764520Y-100552150D01*
X144777132Y-100531107D01*
X144791747Y-100511401D01*
X144808223Y-100493223D01*
X144826401Y-100476747D01*
X144846107Y-100462132D01*
X144867150Y-100449520D01*
X144889329Y-100439030D01*
X144912428Y-100430765D01*
X144936227Y-100424804D01*
X144960495Y-100421204D01*
X144984999Y-100420000D01*
X145885001Y-100420000D01*
X145909505Y-100421204D01*
X145909505Y-100421204D01*
G37*
D20*
G04 #@! TD*
G04 #@! TO.P,R2,2*
G04 #@! TO.N,Net-(D1-Pad1)*
X145435000Y-100995000D03*
D19*
G04 #@! TO.N,/LED3*
G04 #@! TO.C,R2*
G36*
X145909505Y-98371204D02*
X145933773Y-98374804D01*
X145957572Y-98380765D01*
X145980671Y-98389030D01*
X146002850Y-98399520D01*
X146023893Y-98412132D01*
X146043599Y-98426747D01*
X146061777Y-98443223D01*
X146078253Y-98461401D01*
X146092868Y-98481107D01*
X146105480Y-98502150D01*
X146115970Y-98524329D01*
X146124235Y-98547428D01*
X146130196Y-98571227D01*
X146133796Y-98595495D01*
X146135000Y-98619999D01*
X146135000Y-99270001D01*
X146133796Y-99294505D01*
X146130196Y-99318773D01*
X146124235Y-99342572D01*
X146115970Y-99365671D01*
X146105480Y-99387850D01*
X146092868Y-99408893D01*
X146078253Y-99428599D01*
X146061777Y-99446777D01*
X146043599Y-99463253D01*
X146023893Y-99477868D01*
X146002850Y-99490480D01*
X145980671Y-99500970D01*
X145957572Y-99509235D01*
X145933773Y-99515196D01*
X145909505Y-99518796D01*
X145885001Y-99520000D01*
X144984999Y-99520000D01*
X144960495Y-99518796D01*
X144936227Y-99515196D01*
X144912428Y-99509235D01*
X144889329Y-99500970D01*
X144867150Y-99490480D01*
X144846107Y-99477868D01*
X144826401Y-99463253D01*
X144808223Y-99446777D01*
X144791747Y-99428599D01*
X144777132Y-99408893D01*
X144764520Y-99387850D01*
X144754030Y-99365671D01*
X144745765Y-99342572D01*
X144739804Y-99318773D01*
X144736204Y-99294505D01*
X144735000Y-99270001D01*
X144735000Y-98619999D01*
X144736204Y-98595495D01*
X144739804Y-98571227D01*
X144745765Y-98547428D01*
X144754030Y-98524329D01*
X144764520Y-98502150D01*
X144777132Y-98481107D01*
X144791747Y-98461401D01*
X144808223Y-98443223D01*
X144826401Y-98426747D01*
X144846107Y-98412132D01*
X144867150Y-98399520D01*
X144889329Y-98389030D01*
X144912428Y-98380765D01*
X144936227Y-98374804D01*
X144960495Y-98371204D01*
X144984999Y-98370000D01*
X145885001Y-98370000D01*
X145909505Y-98371204D01*
X145909505Y-98371204D01*
G37*
D20*
G04 #@! TD*
G04 #@! TO.P,R2,1*
G04 #@! TO.N,/LED3*
X145435000Y-98945000D03*
D19*
G04 #@! TO.N,Net-(D2-Pad1)*
G04 #@! TO.C,R3*
G36*
X142709505Y-100426204D02*
X142733773Y-100429804D01*
X142757572Y-100435765D01*
X142780671Y-100444030D01*
X142802850Y-100454520D01*
X142823893Y-100467132D01*
X142843599Y-100481747D01*
X142861777Y-100498223D01*
X142878253Y-100516401D01*
X142892868Y-100536107D01*
X142905480Y-100557150D01*
X142915970Y-100579329D01*
X142924235Y-100602428D01*
X142930196Y-100626227D01*
X142933796Y-100650495D01*
X142935000Y-100674999D01*
X142935000Y-101325001D01*
X142933796Y-101349505D01*
X142930196Y-101373773D01*
X142924235Y-101397572D01*
X142915970Y-101420671D01*
X142905480Y-101442850D01*
X142892868Y-101463893D01*
X142878253Y-101483599D01*
X142861777Y-101501777D01*
X142843599Y-101518253D01*
X142823893Y-101532868D01*
X142802850Y-101545480D01*
X142780671Y-101555970D01*
X142757572Y-101564235D01*
X142733773Y-101570196D01*
X142709505Y-101573796D01*
X142685001Y-101575000D01*
X141784999Y-101575000D01*
X141760495Y-101573796D01*
X141736227Y-101570196D01*
X141712428Y-101564235D01*
X141689329Y-101555970D01*
X141667150Y-101545480D01*
X141646107Y-101532868D01*
X141626401Y-101518253D01*
X141608223Y-101501777D01*
X141591747Y-101483599D01*
X141577132Y-101463893D01*
X141564520Y-101442850D01*
X141554030Y-101420671D01*
X141545765Y-101397572D01*
X141539804Y-101373773D01*
X141536204Y-101349505D01*
X141535000Y-101325001D01*
X141535000Y-100674999D01*
X141536204Y-100650495D01*
X141539804Y-100626227D01*
X141545765Y-100602428D01*
X141554030Y-100579329D01*
X141564520Y-100557150D01*
X141577132Y-100536107D01*
X141591747Y-100516401D01*
X141608223Y-100498223D01*
X141626401Y-100481747D01*
X141646107Y-100467132D01*
X141667150Y-100454520D01*
X141689329Y-100444030D01*
X141712428Y-100435765D01*
X141736227Y-100429804D01*
X141760495Y-100426204D01*
X141784999Y-100425000D01*
X142685001Y-100425000D01*
X142709505Y-100426204D01*
X142709505Y-100426204D01*
G37*
D20*
G04 #@! TD*
G04 #@! TO.P,R3,1*
G04 #@! TO.N,Net-(D2-Pad1)*
X142235000Y-101000000D03*
D19*
G04 #@! TO.N,/LED2*
G04 #@! TO.C,R3*
G36*
X142709505Y-98376204D02*
X142733773Y-98379804D01*
X142757572Y-98385765D01*
X142780671Y-98394030D01*
X142802850Y-98404520D01*
X142823893Y-98417132D01*
X142843599Y-98431747D01*
X142861777Y-98448223D01*
X142878253Y-98466401D01*
X142892868Y-98486107D01*
X142905480Y-98507150D01*
X142915970Y-98529329D01*
X142924235Y-98552428D01*
X142930196Y-98576227D01*
X142933796Y-98600495D01*
X142935000Y-98624999D01*
X142935000Y-99275001D01*
X142933796Y-99299505D01*
X142930196Y-99323773D01*
X142924235Y-99347572D01*
X142915970Y-99370671D01*
X142905480Y-99392850D01*
X142892868Y-99413893D01*
X142878253Y-99433599D01*
X142861777Y-99451777D01*
X142843599Y-99468253D01*
X142823893Y-99482868D01*
X142802850Y-99495480D01*
X142780671Y-99505970D01*
X142757572Y-99514235D01*
X142733773Y-99520196D01*
X142709505Y-99523796D01*
X142685001Y-99525000D01*
X141784999Y-99525000D01*
X141760495Y-99523796D01*
X141736227Y-99520196D01*
X141712428Y-99514235D01*
X141689329Y-99505970D01*
X141667150Y-99495480D01*
X141646107Y-99482868D01*
X141626401Y-99468253D01*
X141608223Y-99451777D01*
X141591747Y-99433599D01*
X141577132Y-99413893D01*
X141564520Y-99392850D01*
X141554030Y-99370671D01*
X141545765Y-99347572D01*
X141539804Y-99323773D01*
X141536204Y-99299505D01*
X141535000Y-99275001D01*
X141535000Y-98624999D01*
X141536204Y-98600495D01*
X141539804Y-98576227D01*
X141545765Y-98552428D01*
X141554030Y-98529329D01*
X141564520Y-98507150D01*
X141577132Y-98486107D01*
X141591747Y-98466401D01*
X141608223Y-98448223D01*
X141626401Y-98431747D01*
X141646107Y-98417132D01*
X141667150Y-98404520D01*
X141689329Y-98394030D01*
X141712428Y-98385765D01*
X141736227Y-98379804D01*
X141760495Y-98376204D01*
X141784999Y-98375000D01*
X142685001Y-98375000D01*
X142709505Y-98376204D01*
X142709505Y-98376204D01*
G37*
D20*
G04 #@! TD*
G04 #@! TO.P,R3,2*
G04 #@! TO.N,/LED2*
X142235000Y-98950000D03*
D19*
G04 #@! TO.N,/LED1*
G04 #@! TO.C,R4*
G36*
X142709505Y-93846204D02*
X142733773Y-93849804D01*
X142757572Y-93855765D01*
X142780671Y-93864030D01*
X142802850Y-93874520D01*
X142823893Y-93887132D01*
X142843599Y-93901747D01*
X142861777Y-93918223D01*
X142878253Y-93936401D01*
X142892868Y-93956107D01*
X142905480Y-93977150D01*
X142915970Y-93999329D01*
X142924235Y-94022428D01*
X142930196Y-94046227D01*
X142933796Y-94070495D01*
X142935000Y-94094999D01*
X142935000Y-94745001D01*
X142933796Y-94769505D01*
X142930196Y-94793773D01*
X142924235Y-94817572D01*
X142915970Y-94840671D01*
X142905480Y-94862850D01*
X142892868Y-94883893D01*
X142878253Y-94903599D01*
X142861777Y-94921777D01*
X142843599Y-94938253D01*
X142823893Y-94952868D01*
X142802850Y-94965480D01*
X142780671Y-94975970D01*
X142757572Y-94984235D01*
X142733773Y-94990196D01*
X142709505Y-94993796D01*
X142685001Y-94995000D01*
X141784999Y-94995000D01*
X141760495Y-94993796D01*
X141736227Y-94990196D01*
X141712428Y-94984235D01*
X141689329Y-94975970D01*
X141667150Y-94965480D01*
X141646107Y-94952868D01*
X141626401Y-94938253D01*
X141608223Y-94921777D01*
X141591747Y-94903599D01*
X141577132Y-94883893D01*
X141564520Y-94862850D01*
X141554030Y-94840671D01*
X141545765Y-94817572D01*
X141539804Y-94793773D01*
X141536204Y-94769505D01*
X141535000Y-94745001D01*
X141535000Y-94094999D01*
X141536204Y-94070495D01*
X141539804Y-94046227D01*
X141545765Y-94022428D01*
X141554030Y-93999329D01*
X141564520Y-93977150D01*
X141577132Y-93956107D01*
X141591747Y-93936401D01*
X141608223Y-93918223D01*
X141626401Y-93901747D01*
X141646107Y-93887132D01*
X141667150Y-93874520D01*
X141689329Y-93864030D01*
X141712428Y-93855765D01*
X141736227Y-93849804D01*
X141760495Y-93846204D01*
X141784999Y-93845000D01*
X142685001Y-93845000D01*
X142709505Y-93846204D01*
X142709505Y-93846204D01*
G37*
D20*
G04 #@! TD*
G04 #@! TO.P,R4,2*
G04 #@! TO.N,/LED1*
X142235000Y-94420000D03*
D19*
G04 #@! TO.N,Net-(D3-Pad1)*
G04 #@! TO.C,R4*
G36*
X142709505Y-95896204D02*
X142733773Y-95899804D01*
X142757572Y-95905765D01*
X142780671Y-95914030D01*
X142802850Y-95924520D01*
X142823893Y-95937132D01*
X142843599Y-95951747D01*
X142861777Y-95968223D01*
X142878253Y-95986401D01*
X142892868Y-96006107D01*
X142905480Y-96027150D01*
X142915970Y-96049329D01*
X142924235Y-96072428D01*
X142930196Y-96096227D01*
X142933796Y-96120495D01*
X142935000Y-96144999D01*
X142935000Y-96795001D01*
X142933796Y-96819505D01*
X142930196Y-96843773D01*
X142924235Y-96867572D01*
X142915970Y-96890671D01*
X142905480Y-96912850D01*
X142892868Y-96933893D01*
X142878253Y-96953599D01*
X142861777Y-96971777D01*
X142843599Y-96988253D01*
X142823893Y-97002868D01*
X142802850Y-97015480D01*
X142780671Y-97025970D01*
X142757572Y-97034235D01*
X142733773Y-97040196D01*
X142709505Y-97043796D01*
X142685001Y-97045000D01*
X141784999Y-97045000D01*
X141760495Y-97043796D01*
X141736227Y-97040196D01*
X141712428Y-97034235D01*
X141689329Y-97025970D01*
X141667150Y-97015480D01*
X141646107Y-97002868D01*
X141626401Y-96988253D01*
X141608223Y-96971777D01*
X141591747Y-96953599D01*
X141577132Y-96933893D01*
X141564520Y-96912850D01*
X141554030Y-96890671D01*
X141545765Y-96867572D01*
X141539804Y-96843773D01*
X141536204Y-96819505D01*
X141535000Y-96795001D01*
X141535000Y-96144999D01*
X141536204Y-96120495D01*
X141539804Y-96096227D01*
X141545765Y-96072428D01*
X141554030Y-96049329D01*
X141564520Y-96027150D01*
X141577132Y-96006107D01*
X141591747Y-95986401D01*
X141608223Y-95968223D01*
X141626401Y-95951747D01*
X141646107Y-95937132D01*
X141667150Y-95924520D01*
X141689329Y-95914030D01*
X141712428Y-95905765D01*
X141736227Y-95899804D01*
X141760495Y-95896204D01*
X141784999Y-95895000D01*
X142685001Y-95895000D01*
X142709505Y-95896204D01*
X142709505Y-95896204D01*
G37*
D20*
G04 #@! TD*
G04 #@! TO.P,R4,1*
G04 #@! TO.N,Net-(D3-Pad1)*
X142235000Y-96470000D03*
D19*
G04 #@! TO.N,/Power/Sensed_5V*
G04 #@! TO.C,R13*
G36*
X132987004Y-101576204D02*
X133011273Y-101579804D01*
X133035071Y-101585765D01*
X133058171Y-101594030D01*
X133080349Y-101604520D01*
X133101393Y-101617133D01*
X133121098Y-101631747D01*
X133139277Y-101648223D01*
X133155753Y-101666402D01*
X133170367Y-101686107D01*
X133182980Y-101707151D01*
X133193470Y-101729329D01*
X133201735Y-101752429D01*
X133207696Y-101776227D01*
X133211296Y-101800496D01*
X133212500Y-101825000D01*
X133212500Y-103075000D01*
X133211296Y-103099504D01*
X133207696Y-103123773D01*
X133201735Y-103147571D01*
X133193470Y-103170671D01*
X133182980Y-103192849D01*
X133170367Y-103213893D01*
X133155753Y-103233598D01*
X133139277Y-103251777D01*
X133121098Y-103268253D01*
X133101393Y-103282867D01*
X133080349Y-103295480D01*
X133058171Y-103305970D01*
X133035071Y-103314235D01*
X133011273Y-103320196D01*
X132987004Y-103323796D01*
X132962500Y-103325000D01*
X132037500Y-103325000D01*
X132012996Y-103323796D01*
X131988727Y-103320196D01*
X131964929Y-103314235D01*
X131941829Y-103305970D01*
X131919651Y-103295480D01*
X131898607Y-103282867D01*
X131878902Y-103268253D01*
X131860723Y-103251777D01*
X131844247Y-103233598D01*
X131829633Y-103213893D01*
X131817020Y-103192849D01*
X131806530Y-103170671D01*
X131798265Y-103147571D01*
X131792304Y-103123773D01*
X131788704Y-103099504D01*
X131787500Y-103075000D01*
X131787500Y-101825000D01*
X131788704Y-101800496D01*
X131792304Y-101776227D01*
X131798265Y-101752429D01*
X131806530Y-101729329D01*
X131817020Y-101707151D01*
X131829633Y-101686107D01*
X131844247Y-101666402D01*
X131860723Y-101648223D01*
X131878902Y-101631747D01*
X131898607Y-101617133D01*
X131919651Y-101604520D01*
X131941829Y-101594030D01*
X131964929Y-101585765D01*
X131988727Y-101579804D01*
X132012996Y-101576204D01*
X132037500Y-101575000D01*
X132962500Y-101575000D01*
X132987004Y-101576204D01*
X132987004Y-101576204D01*
G37*
D22*
G04 #@! TD*
G04 #@! TO.P,R13,1*
G04 #@! TO.N,/Power/Sensed_5V*
X132500000Y-102450000D03*
D19*
G04 #@! TO.N,+5V*
G04 #@! TO.C,R13*
G36*
X135962004Y-101576204D02*
X135986273Y-101579804D01*
X136010071Y-101585765D01*
X136033171Y-101594030D01*
X136055349Y-101604520D01*
X136076393Y-101617133D01*
X136096098Y-101631747D01*
X136114277Y-101648223D01*
X136130753Y-101666402D01*
X136145367Y-101686107D01*
X136157980Y-101707151D01*
X136168470Y-101729329D01*
X136176735Y-101752429D01*
X136182696Y-101776227D01*
X136186296Y-101800496D01*
X136187500Y-101825000D01*
X136187500Y-103075000D01*
X136186296Y-103099504D01*
X136182696Y-103123773D01*
X136176735Y-103147571D01*
X136168470Y-103170671D01*
X136157980Y-103192849D01*
X136145367Y-103213893D01*
X136130753Y-103233598D01*
X136114277Y-103251777D01*
X136096098Y-103268253D01*
X136076393Y-103282867D01*
X136055349Y-103295480D01*
X136033171Y-103305970D01*
X136010071Y-103314235D01*
X135986273Y-103320196D01*
X135962004Y-103323796D01*
X135937500Y-103325000D01*
X135012500Y-103325000D01*
X134987996Y-103323796D01*
X134963727Y-103320196D01*
X134939929Y-103314235D01*
X134916829Y-103305970D01*
X134894651Y-103295480D01*
X134873607Y-103282867D01*
X134853902Y-103268253D01*
X134835723Y-103251777D01*
X134819247Y-103233598D01*
X134804633Y-103213893D01*
X134792020Y-103192849D01*
X134781530Y-103170671D01*
X134773265Y-103147571D01*
X134767304Y-103123773D01*
X134763704Y-103099504D01*
X134762500Y-103075000D01*
X134762500Y-101825000D01*
X134763704Y-101800496D01*
X134767304Y-101776227D01*
X134773265Y-101752429D01*
X134781530Y-101729329D01*
X134792020Y-101707151D01*
X134804633Y-101686107D01*
X134819247Y-101666402D01*
X134835723Y-101648223D01*
X134853902Y-101631747D01*
X134873607Y-101617133D01*
X134894651Y-101604520D01*
X134916829Y-101594030D01*
X134939929Y-101585765D01*
X134963727Y-101579804D01*
X134987996Y-101576204D01*
X135012500Y-101575000D01*
X135937500Y-101575000D01*
X135962004Y-101576204D01*
X135962004Y-101576204D01*
G37*
D22*
G04 #@! TD*
G04 #@! TO.P,R13,2*
G04 #@! TO.N,+5V*
X135475000Y-102450000D03*
D19*
G04 #@! TO.N,+3V3*
G04 #@! TO.C,R16*
G36*
X145919505Y-93846204D02*
X145943773Y-93849804D01*
X145967572Y-93855765D01*
X145990671Y-93864030D01*
X146012850Y-93874520D01*
X146033893Y-93887132D01*
X146053599Y-93901747D01*
X146071777Y-93918223D01*
X146088253Y-93936401D01*
X146102868Y-93956107D01*
X146115480Y-93977150D01*
X146125970Y-93999329D01*
X146134235Y-94022428D01*
X146140196Y-94046227D01*
X146143796Y-94070495D01*
X146145000Y-94094999D01*
X146145000Y-94745001D01*
X146143796Y-94769505D01*
X146140196Y-94793773D01*
X146134235Y-94817572D01*
X146125970Y-94840671D01*
X146115480Y-94862850D01*
X146102868Y-94883893D01*
X146088253Y-94903599D01*
X146071777Y-94921777D01*
X146053599Y-94938253D01*
X146033893Y-94952868D01*
X146012850Y-94965480D01*
X145990671Y-94975970D01*
X145967572Y-94984235D01*
X145943773Y-94990196D01*
X145919505Y-94993796D01*
X145895001Y-94995000D01*
X144994999Y-94995000D01*
X144970495Y-94993796D01*
X144946227Y-94990196D01*
X144922428Y-94984235D01*
X144899329Y-94975970D01*
X144877150Y-94965480D01*
X144856107Y-94952868D01*
X144836401Y-94938253D01*
X144818223Y-94921777D01*
X144801747Y-94903599D01*
X144787132Y-94883893D01*
X144774520Y-94862850D01*
X144764030Y-94840671D01*
X144755765Y-94817572D01*
X144749804Y-94793773D01*
X144746204Y-94769505D01*
X144745000Y-94745001D01*
X144745000Y-94094999D01*
X144746204Y-94070495D01*
X144749804Y-94046227D01*
X144755765Y-94022428D01*
X144764030Y-93999329D01*
X144774520Y-93977150D01*
X144787132Y-93956107D01*
X144801747Y-93936401D01*
X144818223Y-93918223D01*
X144836401Y-93901747D01*
X144856107Y-93887132D01*
X144877150Y-93874520D01*
X144899329Y-93864030D01*
X144922428Y-93855765D01*
X144946227Y-93849804D01*
X144970495Y-93846204D01*
X144994999Y-93845000D01*
X145895001Y-93845000D01*
X145919505Y-93846204D01*
X145919505Y-93846204D01*
G37*
D20*
G04 #@! TD*
G04 #@! TO.P,R16,1*
G04 #@! TO.N,+3V3*
X145445000Y-94420000D03*
D19*
G04 #@! TO.N,/XBEE stuff/XBEE_RESET*
G04 #@! TO.C,R16*
G36*
X145919505Y-95896204D02*
X145943773Y-95899804D01*
X145967572Y-95905765D01*
X145990671Y-95914030D01*
X146012850Y-95924520D01*
X146033893Y-95937132D01*
X146053599Y-95951747D01*
X146071777Y-95968223D01*
X146088253Y-95986401D01*
X146102868Y-96006107D01*
X146115480Y-96027150D01*
X146125970Y-96049329D01*
X146134235Y-96072428D01*
X146140196Y-96096227D01*
X146143796Y-96120495D01*
X146145000Y-96144999D01*
X146145000Y-96795001D01*
X146143796Y-96819505D01*
X146140196Y-96843773D01*
X146134235Y-96867572D01*
X146125970Y-96890671D01*
X146115480Y-96912850D01*
X146102868Y-96933893D01*
X146088253Y-96953599D01*
X146071777Y-96971777D01*
X146053599Y-96988253D01*
X146033893Y-97002868D01*
X146012850Y-97015480D01*
X145990671Y-97025970D01*
X145967572Y-97034235D01*
X145943773Y-97040196D01*
X145919505Y-97043796D01*
X145895001Y-97045000D01*
X144994999Y-97045000D01*
X144970495Y-97043796D01*
X144946227Y-97040196D01*
X144922428Y-97034235D01*
X144899329Y-97025970D01*
X144877150Y-97015480D01*
X144856107Y-97002868D01*
X144836401Y-96988253D01*
X144818223Y-96971777D01*
X144801747Y-96953599D01*
X144787132Y-96933893D01*
X144774520Y-96912850D01*
X144764030Y-96890671D01*
X144755765Y-96867572D01*
X144749804Y-96843773D01*
X144746204Y-96819505D01*
X144745000Y-96795001D01*
X144745000Y-96144999D01*
X144746204Y-96120495D01*
X144749804Y-96096227D01*
X144755765Y-96072428D01*
X144764030Y-96049329D01*
X144774520Y-96027150D01*
X144787132Y-96006107D01*
X144801747Y-95986401D01*
X144818223Y-95968223D01*
X144836401Y-95951747D01*
X144856107Y-95937132D01*
X144877150Y-95924520D01*
X144899329Y-95914030D01*
X144922428Y-95905765D01*
X144946227Y-95899804D01*
X144970495Y-95896204D01*
X144994999Y-95895000D01*
X145895001Y-95895000D01*
X145919505Y-95896204D01*
X145919505Y-95896204D01*
G37*
D20*
G04 #@! TD*
G04 #@! TO.P,R16,2*
G04 #@! TO.N,/XBEE stuff/XBEE_RESET*
X145445000Y-96470000D03*
D25*
G04 #@! TO.P,U5,1*
G04 #@! TO.N,+12V*
X132025000Y-117200000D03*
G04 #@! TO.P,U5,2*
G04 #@! TO.N,Net-(D4-Pad1)*
X133295000Y-117200000D03*
G04 #@! TO.P,U5,3*
G04 #@! TO.N,+5V*
X134565000Y-117200000D03*
G04 #@! TO.P,U5,4*
G04 #@! TO.N,GND*
X135835000Y-117200000D03*
G04 #@! TO.P,U5,5*
X135835000Y-109900000D03*
G04 #@! TO.P,U5,6*
X134565000Y-109900000D03*
G04 #@! TO.P,U5,7*
X133295000Y-109900000D03*
G04 #@! TO.P,U5,8*
X132025000Y-109900000D03*
G04 #@! TD*
D26*
G04 #@! TO.P,U7,1*
G04 #@! TO.N,+3V3*
X141925000Y-91610000D03*
G04 #@! TO.P,U7,2*
G04 #@! TO.N,Net-(U7-Pad2)*
X141925000Y-90340000D03*
G04 #@! TO.P,U7,3*
G04 #@! TO.N,Net-(U7-Pad3)*
X141925000Y-89070000D03*
G04 #@! TO.P,U7,4*
G04 #@! TO.N,Net-(U7-Pad4)*
X141925000Y-87800000D03*
G04 #@! TO.P,U7,5*
G04 #@! TO.N,Net-(U7-Pad5)*
X141925000Y-86530000D03*
G04 #@! TO.P,U7,6*
G04 #@! TO.N,Net-(U7-Pad6)*
X141925000Y-85260000D03*
G04 #@! TO.P,U7,7*
G04 #@! TO.N,Net-(U7-Pad7)*
X141925000Y-83990000D03*
G04 #@! TO.P,U7,8*
G04 #@! TO.N,+3V3*
X136525000Y-83990000D03*
G04 #@! TO.P,U7,9*
G04 #@! TO.N,Net-(U7-Pad9)*
X136525000Y-85260000D03*
G04 #@! TO.P,U7,10*
G04 #@! TO.N,/XBEE stuff/UART_~CTS*
X136525000Y-86530000D03*
G04 #@! TO.P,U7,11*
G04 #@! TO.N,/XBEE stuff/UART_~RTS*
X136525000Y-87800000D03*
G04 #@! TO.P,U7,12*
G04 #@! TO.N,/XBEE stuff/UART_TX*
X136525000Y-89070000D03*
G04 #@! TO.P,U7,13*
G04 #@! TO.N,/XBEE stuff/UART_RX*
X136525000Y-90340000D03*
G04 #@! TO.P,U7,14*
G04 #@! TO.N,+5V*
X136525000Y-91610000D03*
G04 #@! TD*
D27*
G04 #@! TO.P,Y1,1*
G04 #@! TO.N,/OSC1*
X130475000Y-90200000D03*
G04 #@! TO.P,Y1,2*
G04 #@! TO.N,/OSC2*
X130475000Y-85320000D03*
G04 #@! TD*
D21*
G04 #@! TO.P,REF\002A\002A,1*
G04 #@! TO.N,N/C*
X171450000Y-123825000D03*
G04 #@! TD*
D28*
G04 #@! TO.N,GND*
X135225000Y-120200000D03*
X130625000Y-80600000D03*
X128625000Y-80600000D03*
X126625000Y-81400000D03*
X125825000Y-83200000D03*
X125825000Y-85400000D03*
X125825000Y-88000000D03*
X125825000Y-90600000D03*
X126625000Y-93000000D03*
X128425000Y-93800000D03*
X168825000Y-85600000D03*
X171025000Y-117200000D03*
X171025000Y-115800000D03*
X171025000Y-114400000D03*
X133325000Y-120700000D03*
X134225000Y-120100000D03*
X136125000Y-120700000D03*
X134625000Y-121200000D03*
X134625000Y-122300000D03*
X134625000Y-123400000D03*
X134625000Y-124500000D03*
X134625000Y-125600000D03*
X141225000Y-108600000D03*
X140356390Y-100000000D03*
X145335000Y-88190000D03*
X132104488Y-100390512D03*
X132295000Y-115138600D03*
X136945000Y-97190000D03*
X132225000Y-112400000D03*
X126111000Y-117602000D03*
X125730000Y-110871000D03*
X133985000Y-101727000D03*
G04 #@! TO.N,+5V*
X138475000Y-115700000D03*
X149525000Y-120400000D03*
X141425000Y-78200000D03*
X139055000Y-105440000D03*
G04 #@! TO.N,+3V3*
X148225000Y-85200000D03*
X145825000Y-82661390D03*
G04 #@! TO.N,+12V*
X136125000Y-113100000D03*
X140425000Y-114900000D03*
X128600000Y-117200000D03*
X148125000Y-119500000D03*
G04 #@! TO.N,/~MCLR*
X132815000Y-97230000D03*
G04 #@! TO.N,/ICSPDAT*
X146895000Y-99850000D03*
G04 #@! TO.N,/ICSPCLK*
X146875000Y-98650000D03*
G04 #@! TO.N,Net-(Q1-Pad1)*
X130025000Y-103152464D03*
X127225000Y-110699999D03*
G04 #@! TO.N,/Power/Sensed_5V*
X134063480Y-105172403D03*
G04 #@! TO.N,/XBEE stuff/XBEE_RESET*
X147025000Y-95480000D03*
G04 #@! TO.N,/XBEE stuff/XBEE_SLEEP*
X146955000Y-106000000D03*
X146875000Y-101350000D03*
G04 #@! TO.N,/Power/CURR_BUS*
X135825000Y-107700000D03*
G04 #@! TO.N,/XBEE stuff/UART_~RTS*
X138125000Y-87799996D03*
G04 #@! TO.N,/XBEE stuff/UART_~CTS*
X138125000Y-86500000D03*
G04 #@! TO.N,/XBEE stuff/UART_TX*
X138125000Y-89200000D03*
G04 #@! TO.N,/XBEE stuff/UART_RX*
X138125000Y-90400004D03*
G04 #@! TO.N,/CAN_TX*
X132865000Y-81650000D03*
G04 #@! TO.N,/CAN_RX*
X133493610Y-82540000D03*
G04 #@! TO.N,Net-(U7-Pad4)*
X147825000Y-80671401D03*
X159125000Y-117200000D03*
G04 #@! TO.N,Net-(U7-Pad5)*
X147125000Y-81700000D03*
X157425000Y-116500000D03*
G04 #@! TO.N,/LED1*
X138061700Y-84292440D03*
G04 #@! TO.N,/LED2*
X137838186Y-93408798D03*
G04 #@! TO.N,/LED3*
X136779000Y-92462425D03*
G04 #@! TD*
D29*
G04 #@! TO.N,GND*
X170975000Y-85970000D02*
X169195000Y-85970000D01*
X169195000Y-85970000D02*
X168825000Y-85600000D01*
X170975000Y-113187200D02*
X171025000Y-113237200D01*
X170975000Y-111970000D02*
X170975000Y-113187200D01*
X171025000Y-113237200D02*
X171025000Y-114400000D01*
X171025000Y-115800000D02*
X171025000Y-117200000D01*
X171025000Y-114400000D02*
X171025000Y-115800000D01*
X147097800Y-111990000D02*
X146825000Y-111717200D01*
X148975000Y-111990000D02*
X147097800Y-111990000D01*
X147097800Y-107990000D02*
X148975000Y-107990000D01*
X146825000Y-108262800D02*
X147097800Y-107990000D01*
X146825000Y-111717200D02*
X146825000Y-108262800D01*
X149415000Y-87990000D02*
X149415000Y-85020000D01*
X149415000Y-85020000D02*
X148452210Y-84057210D01*
X146585000Y-84560000D02*
X145455000Y-84560000D01*
X144635000Y-89560000D02*
X143955000Y-88880000D01*
X145435000Y-89560000D02*
X144635000Y-89560000D01*
X143955000Y-86060000D02*
X143975000Y-86040000D01*
X143955000Y-88880000D02*
X143955000Y-86060000D01*
X144375000Y-84560000D02*
X145455000Y-84560000D01*
X143975000Y-84960000D02*
X144375000Y-84560000D01*
X143975000Y-85570000D02*
X143975000Y-84960000D01*
X143975000Y-86040000D02*
X143975000Y-85570000D01*
X146935000Y-85120000D02*
X146935000Y-84210000D01*
X146485000Y-85570000D02*
X146935000Y-85120000D01*
X147087790Y-84057210D02*
X146935000Y-84210000D01*
X146935000Y-84210000D02*
X146585000Y-84560000D01*
X145455000Y-85510000D02*
X145455000Y-84560000D01*
X145515000Y-85570000D02*
X145455000Y-85510000D01*
X145515000Y-85570000D02*
X146485000Y-85570000D01*
X143975000Y-85570000D02*
X145515000Y-85570000D01*
X140356390Y-99434315D02*
X140355000Y-99432925D01*
X140356390Y-100000000D02*
X140356390Y-99434315D01*
X140355000Y-97790000D02*
X139035000Y-96470000D01*
X140355000Y-99432925D02*
X140355000Y-97790000D01*
X148606001Y-80296520D02*
X147849481Y-79540000D01*
X146935000Y-84210000D02*
X147111592Y-84210000D01*
X148606001Y-82715591D02*
X148606001Y-80296520D01*
X147111592Y-84210000D02*
X148606001Y-82715591D01*
X147849481Y-79540000D02*
X146765000Y-79540000D01*
X147915000Y-84057210D02*
X147915000Y-84040000D01*
X147915000Y-84057210D02*
X147087790Y-84057210D01*
X148452210Y-84057210D02*
X147915000Y-84057210D01*
X147915000Y-84040000D02*
X149035000Y-82920000D01*
X149035000Y-82920000D02*
X149035000Y-80120000D01*
X149035000Y-80120000D02*
X148025000Y-79110000D01*
X148025000Y-79110000D02*
X146905000Y-79110000D01*
X148452210Y-84057210D02*
X148487790Y-84057210D01*
X149465000Y-83080000D02*
X149465000Y-79950000D01*
X149465000Y-79950000D02*
X148195000Y-78680000D01*
X148195000Y-78680000D02*
X146345000Y-76830000D01*
X147725000Y-78680000D02*
X147685000Y-78680000D01*
X147725000Y-78680000D02*
X146995000Y-78680000D01*
X148195000Y-78680000D02*
X147725000Y-78680000D01*
X147725000Y-78680000D02*
X147015000Y-77970000D01*
X135745000Y-97190000D02*
X136379315Y-97190000D01*
X136379315Y-97190000D02*
X136945000Y-97190000D01*
X135735000Y-97180000D02*
X135745000Y-97190000D01*
X140135000Y-101000000D02*
X139035000Y-101000000D01*
X140356390Y-100000000D02*
X140356390Y-100778610D01*
X140356390Y-100778610D02*
X140135000Y-101000000D01*
X133649115Y-105960000D02*
X133511703Y-105822588D01*
X133511703Y-105822588D02*
X133165000Y-105822588D01*
X131497588Y-105822588D02*
X132599315Y-105822588D01*
X130835000Y-105160000D02*
X131497588Y-105822588D01*
X132599315Y-105822588D02*
X133165000Y-105822588D01*
X135395000Y-105780000D02*
X134554198Y-105780000D01*
X135425000Y-105750000D02*
X135395000Y-105780000D01*
X134554198Y-105780000D02*
X134374198Y-105960000D01*
X134374198Y-105960000D02*
X133649115Y-105960000D01*
X149415000Y-87610000D02*
X149725000Y-87300000D01*
X149415000Y-87990000D02*
X149415000Y-87610000D01*
X148487790Y-84057210D02*
X149465000Y-83080000D01*
X127037500Y-119950000D02*
X127038540Y-119948960D01*
X126225000Y-119950000D02*
X127037500Y-119950000D01*
X127038540Y-119948960D02*
X127492760Y-119948960D01*
X127492760Y-119948960D02*
X127695960Y-120152160D01*
X127695960Y-120152160D02*
X127695960Y-120647460D01*
X127864342Y-120647460D02*
X128887962Y-121671080D01*
X127695960Y-120647460D02*
X127864342Y-120647460D01*
X128887962Y-121671080D02*
X129951480Y-121671080D01*
G04 #@! TO.N,+5V*
X134565000Y-115892800D02*
X134757800Y-115700000D01*
X134565000Y-117200000D02*
X134565000Y-115892800D01*
X134757800Y-115700000D02*
X138475000Y-115700000D01*
X135425000Y-102500000D02*
X135475000Y-102450000D01*
X135425000Y-103700000D02*
X135425000Y-102500000D01*
X135425000Y-104800000D02*
X135425000Y-103700000D01*
X135475000Y-101475000D02*
X136150000Y-100800000D01*
X135475000Y-102450000D02*
X135475000Y-101475000D01*
X136150000Y-100800000D02*
X136755000Y-100800000D01*
X136755000Y-100800000D02*
X136755000Y-104230000D01*
X136755000Y-99970000D02*
X136755000Y-100800000D01*
X138475000Y-108932202D02*
X136755000Y-107212202D01*
X138475000Y-115700000D02*
X138475000Y-114400000D01*
X138475000Y-114400000D02*
X138475000Y-108932202D01*
X138874999Y-116099999D02*
X138924999Y-116099999D01*
X138475000Y-115700000D02*
X138874999Y-116099999D01*
X138924999Y-116099999D02*
X143225000Y-120400000D01*
X143225000Y-120400000D02*
X149525000Y-120400000D01*
X138042798Y-108500000D02*
X136755000Y-107212202D01*
X132725000Y-106700000D02*
X134525000Y-108500000D01*
X134525000Y-108500000D02*
X138042798Y-108500000D01*
X130925000Y-106700000D02*
X130475000Y-107150000D01*
X132725000Y-106700000D02*
X130925000Y-106700000D01*
X130825000Y-94640000D02*
X131635000Y-94640000D01*
X131635000Y-94640000D02*
X132535000Y-95540000D01*
X132011293Y-98766293D02*
X133215000Y-99970000D01*
X133215000Y-99970000D02*
X136755000Y-99970000D01*
X132535000Y-95540000D02*
X132011293Y-96063707D01*
X132011293Y-96063707D02*
X132011293Y-98766293D01*
X137715000Y-96270000D02*
X137715000Y-96580000D01*
X136225000Y-95910000D02*
X137355000Y-95910000D01*
X137355000Y-95910000D02*
X137715000Y-96270000D01*
X136765000Y-105440000D02*
X139055000Y-105440000D01*
X136755000Y-105430000D02*
X136765000Y-105440000D01*
X136755000Y-105430000D02*
X136755000Y-104230000D01*
X136755000Y-107212202D02*
X136755000Y-105430000D01*
X143830000Y-105440000D02*
X145425000Y-107035000D01*
X140615000Y-105440000D02*
X142235000Y-107060000D01*
X140565000Y-105440000D02*
X140615000Y-105440000D01*
X140565000Y-105440000D02*
X143830000Y-105440000D01*
X139055000Y-105440000D02*
X140565000Y-105440000D01*
X139055000Y-106895000D02*
X139195000Y-107035000D01*
X139055000Y-105440000D02*
X139055000Y-106895000D01*
X139035000Y-97980000D02*
X139035000Y-98950000D01*
X138815000Y-97760000D02*
X139035000Y-97980000D01*
X136755000Y-99970000D02*
X137255000Y-99970000D01*
X137255000Y-99970000D02*
X137735000Y-99490000D01*
X137726001Y-98681001D02*
X137735000Y-98690000D01*
X137715000Y-96580000D02*
X137726001Y-96591001D01*
X137735000Y-99490000D02*
X137735000Y-98690000D01*
X137735000Y-98690000D02*
X137735000Y-98000000D01*
X138815000Y-97760000D02*
X137826001Y-97760000D01*
X137726001Y-96591001D02*
X137726001Y-97660000D01*
X137826001Y-97760000D02*
X137726001Y-97660000D01*
X137726001Y-97660000D02*
X137726001Y-98681001D01*
X131765000Y-81213408D02*
X134778408Y-78200000D01*
X131765000Y-83140000D02*
X131765000Y-81213408D01*
X134778408Y-78200000D02*
X141425000Y-78200000D01*
X133725000Y-85100000D02*
X131765000Y-83140000D01*
X132535000Y-95540000D02*
X133725000Y-94350000D01*
X133725000Y-94350000D02*
X133725000Y-85100000D01*
X137219000Y-94420000D02*
X139035000Y-94420000D01*
X137355000Y-94556000D02*
X137219000Y-94420000D01*
X137355000Y-95910000D02*
X137355000Y-94556000D01*
X135939579Y-93567481D02*
X136331097Y-93958999D01*
X136525000Y-91610000D02*
X135939579Y-92195421D01*
X136331097Y-93958999D02*
X136757999Y-93958999D01*
X135939579Y-92195421D02*
X135939579Y-93567481D01*
X136757999Y-93958999D02*
X137219000Y-94420000D01*
G04 #@! TO.N,+3V3*
X140625000Y-79600000D02*
X141425000Y-80400000D01*
X136525000Y-83990000D02*
X136075000Y-83990000D01*
X141475000Y-91610000D02*
X141925000Y-91610000D01*
X133725000Y-81640000D02*
X133725000Y-80718118D01*
X133725000Y-80718118D02*
X134843118Y-79600000D01*
X134843118Y-79600000D02*
X140625000Y-79600000D01*
X141425000Y-82400000D02*
X140587022Y-83237978D01*
X141425000Y-80400000D02*
X141425000Y-82400000D01*
X136075000Y-83990000D02*
X133725000Y-81640000D01*
X140587022Y-83237978D02*
X140587022Y-90722022D01*
X140587022Y-90722022D02*
X141475000Y-91610000D01*
X145259315Y-82661390D02*
X145825000Y-82661390D01*
X141425000Y-82400000D02*
X141686390Y-82661390D01*
X141686390Y-82661390D02*
X145259315Y-82661390D01*
X146925000Y-89110000D02*
X147805000Y-89990000D01*
X147805000Y-89990000D02*
X148975000Y-89990000D01*
X148225000Y-85200000D02*
X146925000Y-86500000D01*
X146925000Y-86500000D02*
X146925000Y-89110000D01*
X146365000Y-86500000D02*
X146925000Y-86500000D01*
X146255000Y-86610000D02*
X146365000Y-86500000D01*
X145455000Y-86610000D02*
X146255000Y-86610000D01*
X145435000Y-94390000D02*
X145415000Y-94410000D01*
X143445000Y-92220000D02*
X145435000Y-94210000D01*
X141925000Y-91610000D02*
X142535000Y-92220000D01*
X145435000Y-94210000D02*
X145435000Y-94390000D01*
X142535000Y-92220000D02*
X143445000Y-92220000D01*
X144055000Y-91610000D02*
X145435000Y-91610000D01*
X143445000Y-92220000D02*
X144055000Y-91610000D01*
G04 #@! TO.N,+12V*
X128600000Y-117200000D02*
X131242800Y-117200000D01*
X126825000Y-115425000D02*
X128600000Y-117200000D01*
X126825000Y-114750000D02*
X126825000Y-115425000D01*
X129625000Y-115425000D02*
X131400000Y-117200000D01*
X129625000Y-114750000D02*
X129625000Y-115425000D01*
X131242800Y-117200000D02*
X131475000Y-117200000D01*
X131400000Y-117200000D02*
X131475000Y-117200000D01*
X131475000Y-117200000D02*
X132025000Y-117200000D01*
X135525000Y-113700000D02*
X136125000Y-113100000D01*
X131085000Y-116810000D02*
X131475000Y-117200000D01*
X131085000Y-114660000D02*
X132045000Y-113700000D01*
X131085000Y-116810000D02*
X131085000Y-114660000D01*
X132045000Y-113700000D02*
X135525000Y-113700000D01*
X145025000Y-119500000D02*
X147559315Y-119500000D01*
X140425000Y-114900000D02*
X145025000Y-119500000D01*
X147559315Y-119500000D02*
X148125000Y-119500000D01*
D30*
G04 #@! TO.N,Net-(D1-Pad1)*
X145435000Y-104050000D02*
X145425000Y-104060000D01*
X145435000Y-100995000D02*
X145435000Y-104050000D01*
G04 #@! TO.N,Net-(D2-Pad1)*
X142235000Y-103272500D02*
X142235000Y-101000000D01*
X142235000Y-104085000D02*
X142235000Y-103272500D01*
D29*
G04 #@! TO.N,Net-(D3-Pad1)*
X139125000Y-104600000D02*
X139125000Y-104600000D01*
D30*
X140985000Y-102270000D02*
X139195000Y-104060000D01*
X142725000Y-96450000D02*
X140985000Y-98190000D01*
X140985000Y-98190000D02*
X140985000Y-102270000D01*
D29*
G04 #@! TO.N,Net-(D4-Pad1)*
X133295000Y-119130000D02*
X133295000Y-117200000D01*
X132475000Y-119950000D02*
X133295000Y-119130000D01*
X132225000Y-123200000D02*
X132225000Y-119950000D01*
X129200000Y-119950000D02*
X132225000Y-119950000D01*
X132225000Y-119950000D02*
X132475000Y-119950000D01*
G04 #@! TO.N,Net-(F1-Pad2)*
X144225000Y-113950000D02*
X141725000Y-111450000D01*
X144225000Y-115200000D02*
X144225000Y-113950000D01*
X146325000Y-117300000D02*
X144225000Y-115200000D01*
X153975000Y-119200000D02*
X152075000Y-117300000D01*
X152075000Y-117300000D02*
X146325000Y-117300000D01*
X144225000Y-113800000D02*
X144225000Y-113950000D01*
X145125000Y-111450000D02*
X145125000Y-112900000D01*
X145125000Y-112900000D02*
X144225000Y-113800000D01*
D30*
G04 #@! TO.N,/~MCLR*
X134182211Y-95862789D02*
X133214999Y-96830001D01*
X134182211Y-84757211D02*
X134182211Y-95862789D01*
X145225000Y-81200000D02*
X144222600Y-81200000D01*
X132225000Y-81400000D02*
X132225000Y-82800000D01*
X133214999Y-96830001D02*
X132815000Y-97230000D01*
X142122600Y-79100000D02*
X134525000Y-79100000D01*
X134525000Y-79100000D02*
X132225000Y-81400000D01*
X144222600Y-81200000D02*
X142122600Y-79100000D01*
X132225000Y-82800000D02*
X134182211Y-84757211D01*
G04 #@! TO.N,/ICSPDAT*
X143340533Y-92784467D02*
X144239811Y-93683744D01*
X144239811Y-93683744D02*
X144239811Y-97122679D01*
X144907132Y-97790000D02*
X147015000Y-97790000D01*
X144239811Y-97122679D02*
X144907132Y-97790000D01*
X141594883Y-92784467D02*
X143340533Y-92784467D01*
X147294999Y-99450001D02*
X146895000Y-99850000D01*
X140129811Y-83724811D02*
X140129811Y-91319395D01*
X137605000Y-81200000D02*
X140129811Y-83724811D01*
X140129811Y-91319395D02*
X141594883Y-92784467D01*
X147535000Y-98310000D02*
X147535000Y-99210000D01*
X147535000Y-99210000D02*
X147294999Y-99450001D01*
X147015000Y-97790000D02*
X147535000Y-98310000D01*
G04 #@! TO.N,/ICSPCLK*
X146475001Y-98250001D02*
X146875000Y-98650000D01*
X146331390Y-98106390D02*
X146475001Y-98250001D01*
X144792456Y-98106390D02*
X146331390Y-98106390D01*
X143935000Y-97248934D02*
X144792456Y-98106390D01*
X135924300Y-81200000D02*
X139825000Y-85100700D01*
X135065000Y-81200000D02*
X135924300Y-81200000D01*
X143935000Y-93810000D02*
X143935000Y-97248934D01*
X141479349Y-93100000D02*
X143225000Y-93100000D01*
X139825000Y-85100700D02*
X139825000Y-91445651D01*
X139825000Y-91445651D02*
X141479349Y-93100000D01*
X143225000Y-93100000D02*
X143935000Y-93810000D01*
G04 #@! TO.N,CANL*
X130350000Y-95910000D02*
X130825000Y-95910000D01*
X127525000Y-102700000D02*
X126525000Y-101700000D01*
X129860000Y-95910000D02*
X130335000Y-95910000D01*
X126525000Y-99245000D02*
X129860000Y-95910000D01*
X126525000Y-101700000D02*
X126525000Y-99245000D01*
G04 #@! TO.N,CANH*
X129676066Y-97180000D02*
X129897600Y-97180000D01*
X129897600Y-97180000D02*
X130825000Y-97180000D01*
X129860000Y-97180000D02*
X130335000Y-97180000D01*
X128124999Y-100100001D02*
X128124999Y-98915001D01*
X128124999Y-98915001D02*
X129860000Y-97180000D01*
X127525000Y-100700000D02*
X128124999Y-100100001D01*
G04 #@! TO.N,Net-(Q1-Pad1)*
X127624999Y-110300000D02*
X127225000Y-110699999D01*
X128025000Y-105718149D02*
X128025000Y-109899999D01*
X128025000Y-109899999D02*
X127624999Y-110300000D01*
X130025000Y-103152464D02*
X130025000Y-103718149D01*
X130025000Y-103718149D02*
X128025000Y-105718149D01*
D29*
G04 #@! TO.N,/Power/Sensed_5V*
X132950000Y-102900000D02*
X132500000Y-102450000D01*
X134063480Y-104606718D02*
X134063480Y-105172403D01*
X134063480Y-103158480D02*
X134063480Y-104606718D01*
X132500000Y-102450000D02*
X133355000Y-102450000D01*
X133355000Y-102450000D02*
X134063480Y-103158480D01*
X132495000Y-104570000D02*
X132495000Y-102455000D01*
X132725000Y-104800000D02*
X132495000Y-104570000D01*
X132495000Y-102455000D02*
X132500000Y-102450000D01*
D30*
G04 #@! TO.N,/XBEE stuff/XBEE_RESET*
X147025000Y-95480000D02*
X147025000Y-96130000D01*
X145445000Y-96470000D02*
X146245000Y-96470000D01*
X146245000Y-96470000D02*
X147025000Y-96470000D01*
X147025000Y-96130000D02*
X147025000Y-96470000D01*
X147985000Y-97990000D02*
X149415000Y-97990000D01*
X147025000Y-96470000D02*
X147025000Y-97030000D01*
X147025000Y-97030000D02*
X147985000Y-97990000D01*
G04 #@! TO.N,/XBEE stuff/XBEE_SLEEP*
X147530685Y-105990000D02*
X147885000Y-105990000D01*
X147520685Y-106000000D02*
X147530685Y-105990000D01*
X146955000Y-106000000D02*
X147520685Y-106000000D01*
X147885000Y-105990000D02*
X148975000Y-105990000D01*
X146875000Y-104980000D02*
X146875000Y-101915685D01*
X147885000Y-105990000D02*
X146875000Y-104980000D01*
X146875000Y-101915685D02*
X146875000Y-101350000D01*
G04 #@! TO.N,/Power/CURR_BUS*
X135425000Y-106700000D02*
X135425000Y-107300000D01*
X135425000Y-107300000D02*
X135825000Y-107700000D01*
G04 #@! TO.N,/XBEE stuff/UART_~RTS*
X136525000Y-87800000D02*
X138124996Y-87800000D01*
X138124996Y-87800000D02*
X138125000Y-87799996D01*
G04 #@! TO.N,/XBEE stuff/UART_~CTS*
X136525000Y-86530000D02*
X138095000Y-86530000D01*
X138095000Y-86530000D02*
X138125000Y-86500000D01*
G04 #@! TO.N,/XBEE stuff/UART_TX*
X137995000Y-89070000D02*
X138125000Y-89200000D01*
X136525000Y-89070000D02*
X137995000Y-89070000D01*
G04 #@! TO.N,/XBEE stuff/UART_RX*
X136525000Y-90340000D02*
X138064996Y-90340000D01*
X138064996Y-90340000D02*
X138125000Y-90400004D01*
G04 #@! TO.N,/CAN_TX*
X132865000Y-82170000D02*
X132865000Y-81650000D01*
X132865000Y-82840000D02*
X132865000Y-82170000D01*
X134525000Y-84500000D02*
X132865000Y-82840000D01*
X135735000Y-98450000D02*
X135260000Y-98450000D01*
X134525000Y-97715000D02*
X134525000Y-84500000D01*
X135260000Y-98450000D02*
X134525000Y-97715000D01*
G04 #@! TO.N,/CAN_RX*
X133495000Y-82540000D02*
X133493610Y-82540000D01*
X135125000Y-84170000D02*
X133495000Y-82540000D01*
X135125000Y-93577600D02*
X135125000Y-84170000D01*
X135735000Y-94640000D02*
X135735000Y-94187600D01*
X135735000Y-94187600D02*
X135125000Y-93577600D01*
G04 #@! TO.N,Net-(U7-Pad2)*
X148315000Y-93990000D02*
X148975000Y-93990000D01*
X143025000Y-90340000D02*
X143425000Y-90740000D01*
X143425000Y-90740000D02*
X146633934Y-90740000D01*
X141925000Y-90340000D02*
X143025000Y-90340000D01*
X146633934Y-90740000D02*
X147225000Y-91331066D01*
X147225000Y-91331066D02*
X147225000Y-92900000D01*
X147225000Y-92900000D02*
X148315000Y-93990000D01*
G04 #@! TO.N,Net-(U7-Pad3)*
X144365000Y-90430000D02*
X146957925Y-90430000D01*
X141925000Y-89070000D02*
X143005000Y-89070000D01*
X148517925Y-91990000D02*
X148975000Y-91990000D01*
X146957925Y-90430000D02*
X148517925Y-91990000D01*
X143005000Y-89070000D02*
X144365000Y-90430000D01*
G04 #@! TO.N,Net-(U7-Pad4)*
X173545000Y-98720000D02*
X172795000Y-97970000D01*
X173545000Y-117011066D02*
X173545000Y-98720000D01*
X159690685Y-117200000D02*
X160085875Y-116804810D01*
X172795000Y-97970000D02*
X170975000Y-97970000D01*
X160085875Y-116804810D02*
X168529810Y-116804810D01*
X168529810Y-116804810D02*
X170229810Y-118504810D01*
X172051257Y-118504809D02*
X173545000Y-117011066D01*
X159125000Y-117200000D02*
X159690685Y-117200000D01*
X170229810Y-118504810D02*
X172051257Y-118504809D01*
X147825000Y-82850000D02*
X147825000Y-82731066D01*
X144025000Y-83600000D02*
X147075000Y-83600000D01*
X147825000Y-82731066D02*
X147825000Y-80671401D01*
X141925000Y-87800000D02*
X142375000Y-87800000D01*
X143425000Y-84200000D02*
X144025000Y-83600000D01*
X142375000Y-87800000D02*
X143425000Y-86750000D01*
X143425000Y-86750000D02*
X143425000Y-84200000D01*
X147075000Y-83600000D02*
X147825000Y-82850000D01*
G04 #@! TO.N,Net-(U7-Pad5)*
X171635000Y-105970000D02*
X170975000Y-105970000D01*
X172987400Y-105970000D02*
X171415000Y-105970000D01*
X157425000Y-116500000D02*
X168725000Y-116500000D01*
X173225000Y-106207600D02*
X172987400Y-105970000D01*
X168725000Y-116500000D02*
X170425000Y-118200000D01*
X170425000Y-118200000D02*
X171925000Y-118200000D01*
X171925000Y-118200000D02*
X173225000Y-116900000D01*
X173225000Y-116900000D02*
X173225000Y-106207600D01*
X147125000Y-83000000D02*
X147125000Y-81700000D01*
X142375000Y-86530000D02*
X143120189Y-85784811D01*
X146835000Y-83290000D02*
X147125000Y-83000000D01*
X141925000Y-86530000D02*
X142375000Y-86530000D01*
X143120189Y-85784811D02*
X143120189Y-83904811D01*
X143120189Y-83904811D02*
X143735000Y-83290000D01*
X143735000Y-83290000D02*
X146835000Y-83290000D01*
G04 #@! TO.N,/LED1*
X139520190Y-85750930D02*
X138461699Y-84692439D01*
X138461699Y-84692439D02*
X138061700Y-84292440D01*
X139520190Y-91571908D02*
X139520190Y-85750930D01*
X141611628Y-93663346D02*
X139520190Y-91571908D01*
X141611628Y-93796628D02*
X141611628Y-93663346D01*
X142235000Y-94420000D02*
X141611628Y-93796628D01*
G04 #@! TO.N,/LED2*
X142235000Y-98950000D02*
X143305000Y-97880000D01*
X140855308Y-95600000D02*
X140271085Y-95015777D01*
X139895376Y-93408798D02*
X138403871Y-93408798D01*
X140271085Y-95015777D02*
X140271085Y-93784507D01*
X140271085Y-93784507D02*
X139895376Y-93408798D01*
X138403871Y-93408798D02*
X137838186Y-93408798D01*
X143305000Y-97880000D02*
X143305000Y-95880000D01*
X143025000Y-95600000D02*
X140855308Y-95600000D01*
X143305000Y-95880000D02*
X143025000Y-95600000D01*
G04 #@! TO.N,/LED3*
X143625000Y-95768933D02*
X143151256Y-95295189D01*
X145725000Y-98900000D02*
X145155000Y-98900000D01*
X145155000Y-98900000D02*
X143625000Y-97370000D01*
X143625000Y-97370000D02*
X143625000Y-95768933D01*
X141175000Y-93657785D02*
X139979640Y-92462425D01*
X137344685Y-92462425D02*
X136779000Y-92462425D01*
X141450189Y-95295189D02*
X141175000Y-95020000D01*
X139979640Y-92462425D02*
X137344685Y-92462425D01*
X143151256Y-95295189D02*
X141450189Y-95295189D01*
X141175000Y-95020000D02*
X141175000Y-93657785D01*
G04 #@! TD*
D31*
G04 #@! TO.N,GND*
G36*
X143902560Y-106733874D02*
X143902560Y-107497500D01*
X143970874Y-107840935D01*
X144165414Y-108132086D01*
X144456565Y-108326626D01*
X144800000Y-108394940D01*
X146050000Y-108394940D01*
X146393435Y-108326626D01*
X146684586Y-108132086D01*
X146879126Y-107840935D01*
X146947440Y-107497500D01*
X146947440Y-107035000D01*
X147082017Y-107035000D01*
X147098000Y-116200221D01*
X147107752Y-116248805D01*
X147135354Y-116289959D01*
X147176604Y-116317417D01*
X147225000Y-116327000D01*
X156390000Y-116327000D01*
X156390000Y-116705874D01*
X156547569Y-117086280D01*
X156838720Y-117377431D01*
X157219126Y-117535000D01*
X157630874Y-117535000D01*
X158011280Y-117377431D01*
X158090000Y-117298711D01*
X158090000Y-117405874D01*
X158247569Y-117786280D01*
X158538720Y-118077431D01*
X158919126Y-118235000D01*
X159330874Y-118235000D01*
X159711280Y-118077431D01*
X159906507Y-117882204D01*
X159968181Y-117869936D01*
X160203431Y-117712746D01*
X160243109Y-117653364D01*
X160380463Y-117516010D01*
X160975858Y-117516010D01*
X160890635Y-117686030D01*
X162225000Y-119020395D01*
X163559365Y-117686030D01*
X163474142Y-117516010D01*
X168235222Y-117516010D01*
X169677391Y-118958180D01*
X169717065Y-119017556D01*
X169776441Y-119057230D01*
X169776445Y-119057234D01*
X169952312Y-119174745D01*
X169952314Y-119174745D01*
X169952315Y-119174746D01*
X170159765Y-119216010D01*
X170159767Y-119216010D01*
X170229809Y-119229942D01*
X170299851Y-119216010D01*
X171981211Y-119216008D01*
X172051257Y-119229941D01*
X172328753Y-119174744D01*
X172504621Y-119057233D01*
X172504624Y-119057230D01*
X172564003Y-119017554D01*
X172603679Y-118958175D01*
X173098000Y-118463855D01*
X173098000Y-121276683D01*
X172043753Y-120840000D01*
X170856247Y-120840000D01*
X169759133Y-121294439D01*
X168919439Y-122134133D01*
X168465000Y-123231247D01*
X168465000Y-124418753D01*
X168919439Y-125515867D01*
X169759133Y-126355561D01*
X170856247Y-126810000D01*
X172043753Y-126810000D01*
X173098000Y-126373317D01*
X173098000Y-127073339D01*
X124960000Y-127202366D01*
X124960000Y-126006428D01*
X125309133Y-126355561D01*
X126406247Y-126810000D01*
X127593753Y-126810000D01*
X128690867Y-126355561D01*
X129530561Y-125515867D01*
X129985000Y-124418753D01*
X129985000Y-123231247D01*
X129530561Y-122134133D01*
X128868868Y-121472440D01*
X129662500Y-121472440D01*
X130005935Y-121404126D01*
X130297086Y-121209586D01*
X130491626Y-120918435D01*
X130512479Y-120813600D01*
X131361401Y-120813600D01*
X131361401Y-121463285D01*
X131128910Y-121559586D01*
X130584586Y-122103910D01*
X130290000Y-122815105D01*
X130290000Y-123584895D01*
X130584586Y-124296090D01*
X131128910Y-124840414D01*
X131840105Y-125135000D01*
X132609895Y-125135000D01*
X133321090Y-124840414D01*
X133865414Y-124296090D01*
X134160000Y-123584895D01*
X134160000Y-122815105D01*
X135290000Y-122815105D01*
X135290000Y-123584895D01*
X135584586Y-124296090D01*
X136128910Y-124840414D01*
X136840105Y-125135000D01*
X137609895Y-125135000D01*
X138321090Y-124840414D01*
X138616454Y-124545050D01*
X139840000Y-124545050D01*
X139840000Y-125294950D01*
X140126974Y-125987767D01*
X140657233Y-126518026D01*
X141350050Y-126805000D01*
X142099950Y-126805000D01*
X142792767Y-126518026D01*
X143323026Y-125987767D01*
X143425000Y-125741580D01*
X143526974Y-125987767D01*
X144057233Y-126518026D01*
X144750050Y-126805000D01*
X145499950Y-126805000D01*
X146192767Y-126518026D01*
X146723026Y-125987767D01*
X147010000Y-125294950D01*
X147010000Y-124545050D01*
X146723026Y-123852233D01*
X146192767Y-123321974D01*
X145499950Y-123035000D01*
X144750050Y-123035000D01*
X144057233Y-123321974D01*
X143526974Y-123852233D01*
X143425000Y-124098420D01*
X143323026Y-123852233D01*
X142792767Y-123321974D01*
X142099950Y-123035000D01*
X141350050Y-123035000D01*
X140657233Y-123321974D01*
X140126974Y-123852233D01*
X139840000Y-124545050D01*
X138616454Y-124545050D01*
X138865414Y-124296090D01*
X139160000Y-123584895D01*
X139160000Y-122815105D01*
X138865414Y-122103910D01*
X138321090Y-121559586D01*
X137609895Y-121265000D01*
X136840105Y-121265000D01*
X136128910Y-121559586D01*
X135584586Y-122103910D01*
X135290000Y-122815105D01*
X134160000Y-122815105D01*
X133865414Y-122103910D01*
X133321090Y-121559586D01*
X133088600Y-121463286D01*
X133088600Y-120578647D01*
X133097620Y-120572620D01*
X133145802Y-120500511D01*
X133845514Y-119800800D01*
X133917620Y-119752620D01*
X134108493Y-119466960D01*
X134158600Y-119215053D01*
X134158600Y-119215050D01*
X134175517Y-119130001D01*
X134158600Y-119044952D01*
X134158600Y-118681249D01*
X134240000Y-118697440D01*
X134890000Y-118697440D01*
X135137765Y-118648157D01*
X135197838Y-118608017D01*
X135383690Y-118685000D01*
X135549250Y-118685000D01*
X135708000Y-118526250D01*
X135708000Y-117327000D01*
X135962000Y-117327000D01*
X135962000Y-118526250D01*
X136120750Y-118685000D01*
X136286310Y-118685000D01*
X136519699Y-118588327D01*
X136698327Y-118409698D01*
X136795000Y-118176309D01*
X136795000Y-117485750D01*
X136636250Y-117327000D01*
X135962000Y-117327000D01*
X135708000Y-117327000D01*
X135688000Y-117327000D01*
X135688000Y-117073000D01*
X135708000Y-117073000D01*
X135708000Y-117053000D01*
X135962000Y-117053000D01*
X135962000Y-117073000D01*
X136636250Y-117073000D01*
X136795000Y-116914250D01*
X136795000Y-116563600D01*
X137874889Y-116563600D01*
X137888720Y-116577431D01*
X138269126Y-116735000D01*
X138270908Y-116735000D01*
X138475173Y-116871486D01*
X142554202Y-120950517D01*
X142602380Y-121022620D01*
X142674483Y-121070798D01*
X142674484Y-121070799D01*
X142844947Y-121184699D01*
X142888040Y-121213493D01*
X143139947Y-121263600D01*
X143139951Y-121263600D01*
X143225000Y-121280517D01*
X143310049Y-121263600D01*
X148924889Y-121263600D01*
X148938720Y-121277431D01*
X149319126Y-121435000D01*
X149730874Y-121435000D01*
X150111280Y-121277431D01*
X150402431Y-120986280D01*
X150560000Y-120605874D01*
X150560000Y-120194126D01*
X150402431Y-119813720D01*
X150111280Y-119522569D01*
X149730874Y-119365000D01*
X149319126Y-119365000D01*
X149160000Y-119430912D01*
X149160000Y-119294126D01*
X149002431Y-118913720D01*
X148711280Y-118622569D01*
X148330874Y-118465000D01*
X147919126Y-118465000D01*
X147538720Y-118622569D01*
X147524889Y-118636400D01*
X145382715Y-118636400D01*
X141460000Y-114713687D01*
X141460000Y-114694126D01*
X141302431Y-114313720D01*
X141011280Y-114022569D01*
X140630874Y-113865000D01*
X140219126Y-113865000D01*
X139838720Y-114022569D01*
X139547569Y-114313720D01*
X139390000Y-114694126D01*
X139390000Y-115105874D01*
X139542452Y-115473927D01*
X139486012Y-115436214D01*
X139352431Y-115113720D01*
X139338600Y-115099889D01*
X139338600Y-111075050D01*
X139840000Y-111075050D01*
X139840000Y-111824950D01*
X140126974Y-112517767D01*
X140657233Y-113048026D01*
X141350050Y-113335000D01*
X142099950Y-113335000D01*
X142304117Y-113250431D01*
X143361401Y-114307715D01*
X143361400Y-115114950D01*
X143344483Y-115200000D01*
X143361400Y-115285049D01*
X143361400Y-115285052D01*
X143411507Y-115536959D01*
X143602380Y-115822620D01*
X143674489Y-115870802D01*
X145654202Y-117850517D01*
X145702380Y-117922620D01*
X145988040Y-118113493D01*
X146239947Y-118163600D01*
X146239951Y-118163600D01*
X146324999Y-118180517D01*
X146410047Y-118163600D01*
X151717287Y-118163600D01*
X151983227Y-118429541D01*
X151840000Y-118775322D01*
X151840000Y-119624678D01*
X152165034Y-120409380D01*
X152765620Y-121009966D01*
X153550322Y-121335000D01*
X154399678Y-121335000D01*
X155184380Y-121009966D01*
X155480376Y-120713970D01*
X160890635Y-120713970D01*
X161050418Y-121032739D01*
X161841187Y-121342723D01*
X162690387Y-121326497D01*
X163399582Y-121032739D01*
X163559365Y-120713970D01*
X162225000Y-119379605D01*
X160890635Y-120713970D01*
X155480376Y-120713970D01*
X155784966Y-120409380D01*
X156110000Y-119624678D01*
X156110000Y-118816187D01*
X160082277Y-118816187D01*
X160098503Y-119665387D01*
X160392261Y-120374582D01*
X160711030Y-120534365D01*
X162045395Y-119200000D01*
X162404605Y-119200000D01*
X163738970Y-120534365D01*
X164057739Y-120374582D01*
X164367723Y-119583813D01*
X164351497Y-118734613D01*
X164057739Y-118025418D01*
X163738970Y-117865635D01*
X162404605Y-119200000D01*
X162045395Y-119200000D01*
X160711030Y-117865635D01*
X160392261Y-118025418D01*
X160082277Y-118816187D01*
X156110000Y-118816187D01*
X156110000Y-118775322D01*
X155784966Y-117990620D01*
X155184380Y-117390034D01*
X154399678Y-117065000D01*
X153550322Y-117065000D01*
X153204541Y-117208227D01*
X152745802Y-116749489D01*
X152697620Y-116677380D01*
X152411960Y-116486507D01*
X152160053Y-116436400D01*
X152160049Y-116436400D01*
X152075000Y-116419483D01*
X151989951Y-116436400D01*
X146682715Y-116436400D01*
X145088600Y-114842287D01*
X145088600Y-114157714D01*
X145675516Y-113570798D01*
X145747620Y-113522620D01*
X145938493Y-113236960D01*
X145956617Y-113145842D01*
X146192767Y-113048026D01*
X146723026Y-112517767D01*
X147010000Y-111824950D01*
X147010000Y-111075050D01*
X146723026Y-110382233D01*
X146192767Y-109851974D01*
X145499950Y-109565000D01*
X144750050Y-109565000D01*
X144057233Y-109851974D01*
X143526974Y-110382233D01*
X143425000Y-110628420D01*
X143323026Y-110382233D01*
X142792767Y-109851974D01*
X142099950Y-109565000D01*
X141350050Y-109565000D01*
X140657233Y-109851974D01*
X140126974Y-110382233D01*
X139840000Y-111075050D01*
X139338600Y-111075050D01*
X139338600Y-109017249D01*
X139355517Y-108932201D01*
X139338600Y-108847153D01*
X139338600Y-108847149D01*
X139288493Y-108595242D01*
X139154655Y-108394940D01*
X139820000Y-108394940D01*
X140163435Y-108326626D01*
X140454586Y-108132086D01*
X140649126Y-107840935D01*
X140712560Y-107522033D01*
X140712560Y-107522500D01*
X140780874Y-107865935D01*
X140975414Y-108157086D01*
X141266565Y-108351626D01*
X141610000Y-108419940D01*
X142860000Y-108419940D01*
X143203435Y-108351626D01*
X143494586Y-108157086D01*
X143689126Y-107865935D01*
X143757440Y-107522500D01*
X143757440Y-106597500D01*
X143755268Y-106586582D01*
X143902560Y-106733874D01*
X143902560Y-106733874D01*
G37*
X143902560Y-106733874D02*
X143902560Y-107497500D01*
X143970874Y-107840935D01*
X144165414Y-108132086D01*
X144456565Y-108326626D01*
X144800000Y-108394940D01*
X146050000Y-108394940D01*
X146393435Y-108326626D01*
X146684586Y-108132086D01*
X146879126Y-107840935D01*
X146947440Y-107497500D01*
X146947440Y-107035000D01*
X147082017Y-107035000D01*
X147098000Y-116200221D01*
X147107752Y-116248805D01*
X147135354Y-116289959D01*
X147176604Y-116317417D01*
X147225000Y-116327000D01*
X156390000Y-116327000D01*
X156390000Y-116705874D01*
X156547569Y-117086280D01*
X156838720Y-117377431D01*
X157219126Y-117535000D01*
X157630874Y-117535000D01*
X158011280Y-117377431D01*
X158090000Y-117298711D01*
X158090000Y-117405874D01*
X158247569Y-117786280D01*
X158538720Y-118077431D01*
X158919126Y-118235000D01*
X159330874Y-118235000D01*
X159711280Y-118077431D01*
X159906507Y-117882204D01*
X159968181Y-117869936D01*
X160203431Y-117712746D01*
X160243109Y-117653364D01*
X160380463Y-117516010D01*
X160975858Y-117516010D01*
X160890635Y-117686030D01*
X162225000Y-119020395D01*
X163559365Y-117686030D01*
X163474142Y-117516010D01*
X168235222Y-117516010D01*
X169677391Y-118958180D01*
X169717065Y-119017556D01*
X169776441Y-119057230D01*
X169776445Y-119057234D01*
X169952312Y-119174745D01*
X169952314Y-119174745D01*
X169952315Y-119174746D01*
X170159765Y-119216010D01*
X170159767Y-119216010D01*
X170229809Y-119229942D01*
X170299851Y-119216010D01*
X171981211Y-119216008D01*
X172051257Y-119229941D01*
X172328753Y-119174744D01*
X172504621Y-119057233D01*
X172504624Y-119057230D01*
X172564003Y-119017554D01*
X172603679Y-118958175D01*
X173098000Y-118463855D01*
X173098000Y-121276683D01*
X172043753Y-120840000D01*
X170856247Y-120840000D01*
X169759133Y-121294439D01*
X168919439Y-122134133D01*
X168465000Y-123231247D01*
X168465000Y-124418753D01*
X168919439Y-125515867D01*
X169759133Y-126355561D01*
X170856247Y-126810000D01*
X172043753Y-126810000D01*
X173098000Y-126373317D01*
X173098000Y-127073339D01*
X124960000Y-127202366D01*
X124960000Y-126006428D01*
X125309133Y-126355561D01*
X126406247Y-126810000D01*
X127593753Y-126810000D01*
X128690867Y-126355561D01*
X129530561Y-125515867D01*
X129985000Y-124418753D01*
X129985000Y-123231247D01*
X129530561Y-122134133D01*
X128868868Y-121472440D01*
X129662500Y-121472440D01*
X130005935Y-121404126D01*
X130297086Y-121209586D01*
X130491626Y-120918435D01*
X130512479Y-120813600D01*
X131361401Y-120813600D01*
X131361401Y-121463285D01*
X131128910Y-121559586D01*
X130584586Y-122103910D01*
X130290000Y-122815105D01*
X130290000Y-123584895D01*
X130584586Y-124296090D01*
X131128910Y-124840414D01*
X131840105Y-125135000D01*
X132609895Y-125135000D01*
X133321090Y-124840414D01*
X133865414Y-124296090D01*
X134160000Y-123584895D01*
X134160000Y-122815105D01*
X135290000Y-122815105D01*
X135290000Y-123584895D01*
X135584586Y-124296090D01*
X136128910Y-124840414D01*
X136840105Y-125135000D01*
X137609895Y-125135000D01*
X138321090Y-124840414D01*
X138616454Y-124545050D01*
X139840000Y-124545050D01*
X139840000Y-125294950D01*
X140126974Y-125987767D01*
X140657233Y-126518026D01*
X141350050Y-126805000D01*
X142099950Y-126805000D01*
X142792767Y-126518026D01*
X143323026Y-125987767D01*
X143425000Y-125741580D01*
X143526974Y-125987767D01*
X144057233Y-126518026D01*
X144750050Y-126805000D01*
X145499950Y-126805000D01*
X146192767Y-126518026D01*
X146723026Y-125987767D01*
X147010000Y-125294950D01*
X147010000Y-124545050D01*
X146723026Y-123852233D01*
X146192767Y-123321974D01*
X145499950Y-123035000D01*
X144750050Y-123035000D01*
X144057233Y-123321974D01*
X143526974Y-123852233D01*
X143425000Y-124098420D01*
X143323026Y-123852233D01*
X142792767Y-123321974D01*
X142099950Y-123035000D01*
X141350050Y-123035000D01*
X140657233Y-123321974D01*
X140126974Y-123852233D01*
X139840000Y-124545050D01*
X138616454Y-124545050D01*
X138865414Y-124296090D01*
X139160000Y-123584895D01*
X139160000Y-122815105D01*
X138865414Y-122103910D01*
X138321090Y-121559586D01*
X137609895Y-121265000D01*
X136840105Y-121265000D01*
X136128910Y-121559586D01*
X135584586Y-122103910D01*
X135290000Y-122815105D01*
X134160000Y-122815105D01*
X133865414Y-122103910D01*
X133321090Y-121559586D01*
X133088600Y-121463286D01*
X133088600Y-120578647D01*
X133097620Y-120572620D01*
X133145802Y-120500511D01*
X133845514Y-119800800D01*
X133917620Y-119752620D01*
X134108493Y-119466960D01*
X134158600Y-119215053D01*
X134158600Y-119215050D01*
X134175517Y-119130001D01*
X134158600Y-119044952D01*
X134158600Y-118681249D01*
X134240000Y-118697440D01*
X134890000Y-118697440D01*
X135137765Y-118648157D01*
X135197838Y-118608017D01*
X135383690Y-118685000D01*
X135549250Y-118685000D01*
X135708000Y-118526250D01*
X135708000Y-117327000D01*
X135962000Y-117327000D01*
X135962000Y-118526250D01*
X136120750Y-118685000D01*
X136286310Y-118685000D01*
X136519699Y-118588327D01*
X136698327Y-118409698D01*
X136795000Y-118176309D01*
X136795000Y-117485750D01*
X136636250Y-117327000D01*
X135962000Y-117327000D01*
X135708000Y-117327000D01*
X135688000Y-117327000D01*
X135688000Y-117073000D01*
X135708000Y-117073000D01*
X135708000Y-117053000D01*
X135962000Y-117053000D01*
X135962000Y-117073000D01*
X136636250Y-117073000D01*
X136795000Y-116914250D01*
X136795000Y-116563600D01*
X137874889Y-116563600D01*
X137888720Y-116577431D01*
X138269126Y-116735000D01*
X138270908Y-116735000D01*
X138475173Y-116871486D01*
X142554202Y-120950517D01*
X142602380Y-121022620D01*
X142674483Y-121070798D01*
X142674484Y-121070799D01*
X142844947Y-121184699D01*
X142888040Y-121213493D01*
X143139947Y-121263600D01*
X143139951Y-121263600D01*
X143225000Y-121280517D01*
X143310049Y-121263600D01*
X148924889Y-121263600D01*
X148938720Y-121277431D01*
X149319126Y-121435000D01*
X149730874Y-121435000D01*
X150111280Y-121277431D01*
X150402431Y-120986280D01*
X150560000Y-120605874D01*
X150560000Y-120194126D01*
X150402431Y-119813720D01*
X150111280Y-119522569D01*
X149730874Y-119365000D01*
X149319126Y-119365000D01*
X149160000Y-119430912D01*
X149160000Y-119294126D01*
X149002431Y-118913720D01*
X148711280Y-118622569D01*
X148330874Y-118465000D01*
X147919126Y-118465000D01*
X147538720Y-118622569D01*
X147524889Y-118636400D01*
X145382715Y-118636400D01*
X141460000Y-114713687D01*
X141460000Y-114694126D01*
X141302431Y-114313720D01*
X141011280Y-114022569D01*
X140630874Y-113865000D01*
X140219126Y-113865000D01*
X139838720Y-114022569D01*
X139547569Y-114313720D01*
X139390000Y-114694126D01*
X139390000Y-115105874D01*
X139542452Y-115473927D01*
X139486012Y-115436214D01*
X139352431Y-115113720D01*
X139338600Y-115099889D01*
X139338600Y-111075050D01*
X139840000Y-111075050D01*
X139840000Y-111824950D01*
X140126974Y-112517767D01*
X140657233Y-113048026D01*
X141350050Y-113335000D01*
X142099950Y-113335000D01*
X142304117Y-113250431D01*
X143361401Y-114307715D01*
X143361400Y-115114950D01*
X143344483Y-115200000D01*
X143361400Y-115285049D01*
X143361400Y-115285052D01*
X143411507Y-115536959D01*
X143602380Y-115822620D01*
X143674489Y-115870802D01*
X145654202Y-117850517D01*
X145702380Y-117922620D01*
X145988040Y-118113493D01*
X146239947Y-118163600D01*
X146239951Y-118163600D01*
X146324999Y-118180517D01*
X146410047Y-118163600D01*
X151717287Y-118163600D01*
X151983227Y-118429541D01*
X151840000Y-118775322D01*
X151840000Y-119624678D01*
X152165034Y-120409380D01*
X152765620Y-121009966D01*
X153550322Y-121335000D01*
X154399678Y-121335000D01*
X155184380Y-121009966D01*
X155480376Y-120713970D01*
X160890635Y-120713970D01*
X161050418Y-121032739D01*
X161841187Y-121342723D01*
X162690387Y-121326497D01*
X163399582Y-121032739D01*
X163559365Y-120713970D01*
X162225000Y-119379605D01*
X160890635Y-120713970D01*
X155480376Y-120713970D01*
X155784966Y-120409380D01*
X156110000Y-119624678D01*
X156110000Y-118816187D01*
X160082277Y-118816187D01*
X160098503Y-119665387D01*
X160392261Y-120374582D01*
X160711030Y-120534365D01*
X162045395Y-119200000D01*
X162404605Y-119200000D01*
X163738970Y-120534365D01*
X164057739Y-120374582D01*
X164367723Y-119583813D01*
X164351497Y-118734613D01*
X164057739Y-118025418D01*
X163738970Y-117865635D01*
X162404605Y-119200000D01*
X162045395Y-119200000D01*
X160711030Y-117865635D01*
X160392261Y-118025418D01*
X160082277Y-118816187D01*
X156110000Y-118816187D01*
X156110000Y-118775322D01*
X155784966Y-117990620D01*
X155184380Y-117390034D01*
X154399678Y-117065000D01*
X153550322Y-117065000D01*
X153204541Y-117208227D01*
X152745802Y-116749489D01*
X152697620Y-116677380D01*
X152411960Y-116486507D01*
X152160053Y-116436400D01*
X152160049Y-116436400D01*
X152075000Y-116419483D01*
X151989951Y-116436400D01*
X146682715Y-116436400D01*
X145088600Y-114842287D01*
X145088600Y-114157714D01*
X145675516Y-113570798D01*
X145747620Y-113522620D01*
X145938493Y-113236960D01*
X145956617Y-113145842D01*
X146192767Y-113048026D01*
X146723026Y-112517767D01*
X147010000Y-111824950D01*
X147010000Y-111075050D01*
X146723026Y-110382233D01*
X146192767Y-109851974D01*
X145499950Y-109565000D01*
X144750050Y-109565000D01*
X144057233Y-109851974D01*
X143526974Y-110382233D01*
X143425000Y-110628420D01*
X143323026Y-110382233D01*
X142792767Y-109851974D01*
X142099950Y-109565000D01*
X141350050Y-109565000D01*
X140657233Y-109851974D01*
X140126974Y-110382233D01*
X139840000Y-111075050D01*
X139338600Y-111075050D01*
X139338600Y-109017249D01*
X139355517Y-108932201D01*
X139338600Y-108847153D01*
X139338600Y-108847149D01*
X139288493Y-108595242D01*
X139154655Y-108394940D01*
X139820000Y-108394940D01*
X140163435Y-108326626D01*
X140454586Y-108132086D01*
X140649126Y-107840935D01*
X140712560Y-107522033D01*
X140712560Y-107522500D01*
X140780874Y-107865935D01*
X140975414Y-108157086D01*
X141266565Y-108351626D01*
X141610000Y-108419940D01*
X142860000Y-108419940D01*
X143203435Y-108351626D01*
X143494586Y-108157086D01*
X143689126Y-107865935D01*
X143757440Y-107522500D01*
X143757440Y-106597500D01*
X143755268Y-106586582D01*
X143902560Y-106733874D01*
G36*
X130462000Y-98323000D02*
X130482000Y-98323000D01*
X130482000Y-98577000D01*
X130462000Y-98577000D01*
X130462000Y-99226250D01*
X130620750Y-99385000D01*
X131236309Y-99385000D01*
X131353597Y-99336417D01*
X131388674Y-99388913D01*
X131460779Y-99437093D01*
X132544202Y-100520517D01*
X132592380Y-100592620D01*
X132664483Y-100640798D01*
X132664484Y-100640799D01*
X132848448Y-100763720D01*
X132878040Y-100783493D01*
X133129947Y-100833600D01*
X133129951Y-100833600D01*
X133215000Y-100850517D01*
X133300049Y-100833600D01*
X134880487Y-100833600D01*
X134852381Y-100852380D01*
X134790055Y-100945657D01*
X134769903Y-100975816D01*
X134669065Y-100995874D01*
X134377914Y-101190414D01*
X134183374Y-101481565D01*
X134115060Y-101825000D01*
X134115060Y-101988747D01*
X134025802Y-101899488D01*
X133977620Y-101827380D01*
X133842448Y-101737060D01*
X133791626Y-101481565D01*
X133597086Y-101190414D01*
X133305935Y-100995874D01*
X132962500Y-100927560D01*
X132037500Y-100927560D01*
X131694065Y-100995874D01*
X131402914Y-101190414D01*
X131208374Y-101481565D01*
X131140060Y-101825000D01*
X131140060Y-103075000D01*
X131208374Y-103418435D01*
X131402914Y-103709586D01*
X131631400Y-103862255D01*
X131631400Y-103920833D01*
X131487191Y-104017191D01*
X131346843Y-104227235D01*
X131297560Y-104475000D01*
X131297560Y-105125000D01*
X131346843Y-105372765D01*
X131487191Y-105582809D01*
X131697235Y-105723157D01*
X131832185Y-105750000D01*
X131697235Y-105776843D01*
X131608102Y-105836400D01*
X131010048Y-105836400D01*
X130924999Y-105819483D01*
X130839950Y-105836400D01*
X130839947Y-105836400D01*
X130588040Y-105886507D01*
X130526600Y-105927560D01*
X130024999Y-105927560D01*
X129681564Y-105995873D01*
X129390414Y-106190414D01*
X129195873Y-106481564D01*
X129127560Y-106824999D01*
X129127560Y-107475001D01*
X129195873Y-107818436D01*
X129390414Y-108109586D01*
X129391597Y-108110377D01*
X129236673Y-108265302D01*
X129140000Y-108498691D01*
X129140000Y-108914250D01*
X129298750Y-109073000D01*
X130348000Y-109073000D01*
X130348000Y-109053000D01*
X130602000Y-109053000D01*
X130602000Y-109073000D01*
X130622000Y-109073000D01*
X130622000Y-109327000D01*
X130602000Y-109327000D01*
X130602000Y-110251250D01*
X130760750Y-110410000D01*
X131065000Y-110410000D01*
X131065000Y-110876309D01*
X131161673Y-111109698D01*
X131340301Y-111288327D01*
X131573690Y-111385000D01*
X131739250Y-111385000D01*
X131898000Y-111226250D01*
X131898000Y-110027000D01*
X132152000Y-110027000D01*
X132152000Y-111226250D01*
X132310750Y-111385000D01*
X132476310Y-111385000D01*
X132660000Y-111308913D01*
X132843690Y-111385000D01*
X133009250Y-111385000D01*
X133168000Y-111226250D01*
X133168000Y-110027000D01*
X133422000Y-110027000D01*
X133422000Y-111226250D01*
X133580750Y-111385000D01*
X133746310Y-111385000D01*
X133930000Y-111308913D01*
X134113690Y-111385000D01*
X134279250Y-111385000D01*
X134438000Y-111226250D01*
X134438000Y-110027000D01*
X134692000Y-110027000D01*
X134692000Y-111226250D01*
X134850750Y-111385000D01*
X135016310Y-111385000D01*
X135200000Y-111308913D01*
X135383690Y-111385000D01*
X135549250Y-111385000D01*
X135708000Y-111226250D01*
X135708000Y-110027000D01*
X135962000Y-110027000D01*
X135962000Y-111226250D01*
X136120750Y-111385000D01*
X136286310Y-111385000D01*
X136519699Y-111288327D01*
X136698327Y-111109698D01*
X136795000Y-110876309D01*
X136795000Y-110185750D01*
X136636250Y-110027000D01*
X135962000Y-110027000D01*
X135708000Y-110027000D01*
X134692000Y-110027000D01*
X134438000Y-110027000D01*
X133422000Y-110027000D01*
X133168000Y-110027000D01*
X132152000Y-110027000D01*
X131898000Y-110027000D01*
X131878000Y-110027000D01*
X131878000Y-109773000D01*
X131898000Y-109773000D01*
X131898000Y-108573750D01*
X131800849Y-108476599D01*
X131713327Y-108265302D01*
X131558403Y-108110377D01*
X131559586Y-108109586D01*
X131754127Y-107818436D01*
X131789327Y-107641475D01*
X131945000Y-107672440D01*
X132476127Y-107672440D01*
X133218686Y-108415000D01*
X133167998Y-108415000D01*
X133167998Y-108573748D01*
X133009250Y-108415000D01*
X132843690Y-108415000D01*
X132660000Y-108491087D01*
X132476310Y-108415000D01*
X132310750Y-108415000D01*
X132152000Y-108573750D01*
X132152000Y-109773000D01*
X133168000Y-109773000D01*
X133168000Y-109753000D01*
X133422000Y-109753000D01*
X133422000Y-109773000D01*
X134438000Y-109773000D01*
X134438000Y-109753000D01*
X134692000Y-109753000D01*
X134692000Y-109773000D01*
X135708000Y-109773000D01*
X135708000Y-109753000D01*
X135962000Y-109753000D01*
X135962000Y-109773000D01*
X136636250Y-109773000D01*
X136795000Y-109614250D01*
X136795000Y-109363600D01*
X137611401Y-109363600D01*
X137611400Y-114485052D01*
X137611401Y-114485056D01*
X137611401Y-114836400D01*
X134842847Y-114836400D01*
X134757799Y-114819483D01*
X134672751Y-114836400D01*
X134672747Y-114836400D01*
X134420840Y-114886507D01*
X134135180Y-115077380D01*
X134086999Y-115149487D01*
X134014486Y-115222001D01*
X133942381Y-115270180D01*
X133894202Y-115342285D01*
X133751507Y-115555841D01*
X133718429Y-115722139D01*
X133620000Y-115702560D01*
X132970000Y-115702560D01*
X132722235Y-115751843D01*
X132660000Y-115793427D01*
X132597765Y-115751843D01*
X132350000Y-115702560D01*
X131948600Y-115702560D01*
X131948600Y-115017713D01*
X132402714Y-114563600D01*
X135439951Y-114563600D01*
X135525000Y-114580517D01*
X135610049Y-114563600D01*
X135610053Y-114563600D01*
X135861960Y-114513493D01*
X136147620Y-114322620D01*
X136195802Y-114250512D01*
X136311313Y-114135000D01*
X136330874Y-114135000D01*
X136711280Y-113977431D01*
X137002431Y-113686280D01*
X137160000Y-113305874D01*
X137160000Y-112894126D01*
X137002431Y-112513720D01*
X136711280Y-112222569D01*
X136330874Y-112065000D01*
X135919126Y-112065000D01*
X135538720Y-112222569D01*
X135247569Y-112513720D01*
X135113911Y-112836400D01*
X132130048Y-112836400D01*
X132044999Y-112819483D01*
X131959950Y-112836400D01*
X131959947Y-112836400D01*
X131708040Y-112886507D01*
X131422380Y-113077380D01*
X131374201Y-113149485D01*
X130719074Y-113804613D01*
X130709586Y-113790414D01*
X130708403Y-113789623D01*
X130863327Y-113634698D01*
X130960000Y-113401309D01*
X130960000Y-112985750D01*
X130801250Y-112827000D01*
X129752000Y-112827000D01*
X129752000Y-112847000D01*
X129498000Y-112847000D01*
X129498000Y-112827000D01*
X128448750Y-112827000D01*
X128290000Y-112985750D01*
X128290000Y-113401309D01*
X128386673Y-113634698D01*
X128541597Y-113789623D01*
X128540414Y-113790414D01*
X128345873Y-114081564D01*
X128277560Y-114424999D01*
X128277560Y-115075001D01*
X128345873Y-115418436D01*
X128540414Y-115709586D01*
X128831564Y-115904127D01*
X128917988Y-115921318D01*
X129002381Y-116047620D01*
X129074487Y-116095800D01*
X129315087Y-116336400D01*
X129200111Y-116336400D01*
X129186280Y-116322569D01*
X128805874Y-116165000D01*
X128786314Y-116165000D01*
X128078341Y-115457028D01*
X128104127Y-115418436D01*
X128172440Y-115075001D01*
X128172440Y-114424999D01*
X128104127Y-114081564D01*
X127909586Y-113790414D01*
X127908403Y-113789623D01*
X128063327Y-113634698D01*
X128160000Y-113401309D01*
X128160000Y-112985750D01*
X128001250Y-112827000D01*
X126952000Y-112827000D01*
X126952000Y-112847000D01*
X126698000Y-112847000D01*
X126698000Y-112827000D01*
X125648750Y-112827000D01*
X125490000Y-112985750D01*
X125490000Y-113401309D01*
X125586673Y-113634698D01*
X125741597Y-113789623D01*
X125740414Y-113790414D01*
X125545873Y-114081564D01*
X125477560Y-114424999D01*
X125477560Y-115075001D01*
X125545873Y-115418436D01*
X125740414Y-115709586D01*
X126031564Y-115904127D01*
X126117988Y-115921318D01*
X126202381Y-116047620D01*
X126274487Y-116095800D01*
X127565000Y-117386314D01*
X127565000Y-117405874D01*
X127722569Y-117786280D01*
X128013720Y-118077431D01*
X128394126Y-118235000D01*
X128805874Y-118235000D01*
X129186280Y-118077431D01*
X129200111Y-118063600D01*
X131055265Y-118063600D01*
X131101843Y-118297765D01*
X131242191Y-118507809D01*
X131452235Y-118648157D01*
X131700000Y-118697440D01*
X132350000Y-118697440D01*
X132431400Y-118681249D01*
X132431400Y-118772286D01*
X132117287Y-119086400D01*
X130512479Y-119086400D01*
X130491626Y-118981565D01*
X130297086Y-118690414D01*
X130005935Y-118495874D01*
X129662500Y-118427560D01*
X128737500Y-118427560D01*
X128394065Y-118495874D01*
X128102914Y-118690414D01*
X127908374Y-118981565D01*
X127840060Y-119325000D01*
X127840060Y-120575000D01*
X127908374Y-120918435D01*
X127956309Y-120990176D01*
X127593753Y-120840000D01*
X127572500Y-120840000D01*
X127572500Y-120235750D01*
X127413750Y-120077000D01*
X126352000Y-120077000D01*
X126352000Y-120097000D01*
X126098000Y-120097000D01*
X126098000Y-120077000D01*
X126078000Y-120077000D01*
X126078000Y-119823000D01*
X126098000Y-119823000D01*
X126098000Y-118598750D01*
X126352000Y-118598750D01*
X126352000Y-119823000D01*
X127413750Y-119823000D01*
X127572500Y-119664250D01*
X127572500Y-118948690D01*
X127475827Y-118715301D01*
X127297198Y-118536673D01*
X127063809Y-118440000D01*
X126510750Y-118440000D01*
X126352000Y-118598750D01*
X126098000Y-118598750D01*
X125939250Y-118440000D01*
X125386191Y-118440000D01*
X125152802Y-118536673D01*
X124974173Y-118715301D01*
X124960000Y-118749518D01*
X124960000Y-108955530D01*
X125054138Y-109182799D01*
X125542201Y-109670862D01*
X126179887Y-109935000D01*
X126526288Y-109935000D01*
X126347569Y-110113719D01*
X126190000Y-110494125D01*
X126190000Y-110905873D01*
X126347569Y-111286279D01*
X126638720Y-111577430D01*
X126697998Y-111601984D01*
X126697998Y-111648748D01*
X126539250Y-111490000D01*
X125998690Y-111490000D01*
X125765301Y-111586673D01*
X125586673Y-111765302D01*
X125490000Y-111998691D01*
X125490000Y-112414250D01*
X125648750Y-112573000D01*
X126698000Y-112573000D01*
X126698000Y-112553000D01*
X126952000Y-112553000D01*
X126952000Y-112573000D01*
X128001250Y-112573000D01*
X128160000Y-112414250D01*
X128160000Y-111998691D01*
X128290000Y-111998691D01*
X128290000Y-112414250D01*
X128448750Y-112573000D01*
X129498000Y-112573000D01*
X129498000Y-111648750D01*
X129752000Y-111648750D01*
X129752000Y-112573000D01*
X130801250Y-112573000D01*
X130960000Y-112414250D01*
X130960000Y-111998691D01*
X130863327Y-111765302D01*
X130684699Y-111586673D01*
X130451310Y-111490000D01*
X129910750Y-111490000D01*
X129752000Y-111648750D01*
X129498000Y-111648750D01*
X129339250Y-111490000D01*
X128798690Y-111490000D01*
X128565301Y-111586673D01*
X128386673Y-111765302D01*
X128290000Y-111998691D01*
X128160000Y-111998691D01*
X128063327Y-111765302D01*
X127884699Y-111586673D01*
X127826248Y-111562462D01*
X128102431Y-111286279D01*
X128260000Y-110905873D01*
X128260000Y-110670787D01*
X128478364Y-110452423D01*
X128537746Y-110412745D01*
X128694936Y-110177495D01*
X128736200Y-109970045D01*
X128736200Y-109970041D01*
X128750132Y-109899999D01*
X128736200Y-109829957D01*
X128736200Y-109485750D01*
X129140000Y-109485750D01*
X129140000Y-109901309D01*
X129236673Y-110134698D01*
X129415301Y-110313327D01*
X129648690Y-110410000D01*
X130189250Y-110410000D01*
X130348000Y-110251250D01*
X130348000Y-109327000D01*
X129298750Y-109327000D01*
X129140000Y-109485750D01*
X128736200Y-109485750D01*
X128736200Y-106012737D01*
X130478367Y-104270571D01*
X130537746Y-104230895D01*
X130577422Y-104171516D01*
X130577424Y-104171514D01*
X130694935Y-103995647D01*
X130694935Y-103995646D01*
X130694936Y-103995645D01*
X130707204Y-103933971D01*
X130902431Y-103738744D01*
X131060000Y-103358338D01*
X131060000Y-102946590D01*
X130902431Y-102566184D01*
X130611280Y-102275033D01*
X130230874Y-102117464D01*
X129819126Y-102117464D01*
X129438720Y-102275033D01*
X129147569Y-102566184D01*
X128990000Y-102946590D01*
X128990000Y-103358338D01*
X129103942Y-103633418D01*
X128620295Y-104117066D01*
X128571982Y-104000429D01*
X128271553Y-103700000D01*
X128571982Y-103399571D01*
X128760000Y-102945657D01*
X128760000Y-102454343D01*
X128571982Y-102000429D01*
X128271553Y-101700000D01*
X128571982Y-101399571D01*
X128760000Y-100945657D01*
X128760000Y-100454343D01*
X128753719Y-100439180D01*
X128794934Y-100377498D01*
X128794935Y-100377497D01*
X128836199Y-100170047D01*
X128836199Y-100170043D01*
X128850131Y-100100001D01*
X128836199Y-100029959D01*
X128836199Y-99209589D01*
X128996606Y-99049182D01*
X129021673Y-99109699D01*
X129200302Y-99288327D01*
X129433691Y-99385000D01*
X130049250Y-99385000D01*
X130208000Y-99226250D01*
X130208000Y-98577000D01*
X130188000Y-98577000D01*
X130188000Y-98323000D01*
X130208000Y-98323000D01*
X130208000Y-98303000D01*
X130462000Y-98303000D01*
X130462000Y-98323000D01*
X130462000Y-98323000D01*
G37*
X130462000Y-98323000D02*
X130482000Y-98323000D01*
X130482000Y-98577000D01*
X130462000Y-98577000D01*
X130462000Y-99226250D01*
X130620750Y-99385000D01*
X131236309Y-99385000D01*
X131353597Y-99336417D01*
X131388674Y-99388913D01*
X131460779Y-99437093D01*
X132544202Y-100520517D01*
X132592380Y-100592620D01*
X132664483Y-100640798D01*
X132664484Y-100640799D01*
X132848448Y-100763720D01*
X132878040Y-100783493D01*
X133129947Y-100833600D01*
X133129951Y-100833600D01*
X133215000Y-100850517D01*
X133300049Y-100833600D01*
X134880487Y-100833600D01*
X134852381Y-100852380D01*
X134790055Y-100945657D01*
X134769903Y-100975816D01*
X134669065Y-100995874D01*
X134377914Y-101190414D01*
X134183374Y-101481565D01*
X134115060Y-101825000D01*
X134115060Y-101988747D01*
X134025802Y-101899488D01*
X133977620Y-101827380D01*
X133842448Y-101737060D01*
X133791626Y-101481565D01*
X133597086Y-101190414D01*
X133305935Y-100995874D01*
X132962500Y-100927560D01*
X132037500Y-100927560D01*
X131694065Y-100995874D01*
X131402914Y-101190414D01*
X131208374Y-101481565D01*
X131140060Y-101825000D01*
X131140060Y-103075000D01*
X131208374Y-103418435D01*
X131402914Y-103709586D01*
X131631400Y-103862255D01*
X131631400Y-103920833D01*
X131487191Y-104017191D01*
X131346843Y-104227235D01*
X131297560Y-104475000D01*
X131297560Y-105125000D01*
X131346843Y-105372765D01*
X131487191Y-105582809D01*
X131697235Y-105723157D01*
X131832185Y-105750000D01*
X131697235Y-105776843D01*
X131608102Y-105836400D01*
X131010048Y-105836400D01*
X130924999Y-105819483D01*
X130839950Y-105836400D01*
X130839947Y-105836400D01*
X130588040Y-105886507D01*
X130526600Y-105927560D01*
X130024999Y-105927560D01*
X129681564Y-105995873D01*
X129390414Y-106190414D01*
X129195873Y-106481564D01*
X129127560Y-106824999D01*
X129127560Y-107475001D01*
X129195873Y-107818436D01*
X129390414Y-108109586D01*
X129391597Y-108110377D01*
X129236673Y-108265302D01*
X129140000Y-108498691D01*
X129140000Y-108914250D01*
X129298750Y-109073000D01*
X130348000Y-109073000D01*
X130348000Y-109053000D01*
X130602000Y-109053000D01*
X130602000Y-109073000D01*
X130622000Y-109073000D01*
X130622000Y-109327000D01*
X130602000Y-109327000D01*
X130602000Y-110251250D01*
X130760750Y-110410000D01*
X131065000Y-110410000D01*
X131065000Y-110876309D01*
X131161673Y-111109698D01*
X131340301Y-111288327D01*
X131573690Y-111385000D01*
X131739250Y-111385000D01*
X131898000Y-111226250D01*
X131898000Y-110027000D01*
X132152000Y-110027000D01*
X132152000Y-111226250D01*
X132310750Y-111385000D01*
X132476310Y-111385000D01*
X132660000Y-111308913D01*
X132843690Y-111385000D01*
X133009250Y-111385000D01*
X133168000Y-111226250D01*
X133168000Y-110027000D01*
X133422000Y-110027000D01*
X133422000Y-111226250D01*
X133580750Y-111385000D01*
X133746310Y-111385000D01*
X133930000Y-111308913D01*
X134113690Y-111385000D01*
X134279250Y-111385000D01*
X134438000Y-111226250D01*
X134438000Y-110027000D01*
X134692000Y-110027000D01*
X134692000Y-111226250D01*
X134850750Y-111385000D01*
X135016310Y-111385000D01*
X135200000Y-111308913D01*
X135383690Y-111385000D01*
X135549250Y-111385000D01*
X135708000Y-111226250D01*
X135708000Y-110027000D01*
X135962000Y-110027000D01*
X135962000Y-111226250D01*
X136120750Y-111385000D01*
X136286310Y-111385000D01*
X136519699Y-111288327D01*
X136698327Y-111109698D01*
X136795000Y-110876309D01*
X136795000Y-110185750D01*
X136636250Y-110027000D01*
X135962000Y-110027000D01*
X135708000Y-110027000D01*
X134692000Y-110027000D01*
X134438000Y-110027000D01*
X133422000Y-110027000D01*
X133168000Y-110027000D01*
X132152000Y-110027000D01*
X131898000Y-110027000D01*
X131878000Y-110027000D01*
X131878000Y-109773000D01*
X131898000Y-109773000D01*
X131898000Y-108573750D01*
X131800849Y-108476599D01*
X131713327Y-108265302D01*
X131558403Y-108110377D01*
X131559586Y-108109586D01*
X131754127Y-107818436D01*
X131789327Y-107641475D01*
X131945000Y-107672440D01*
X132476127Y-107672440D01*
X133218686Y-108415000D01*
X133167998Y-108415000D01*
X133167998Y-108573748D01*
X133009250Y-108415000D01*
X132843690Y-108415000D01*
X132660000Y-108491087D01*
X132476310Y-108415000D01*
X132310750Y-108415000D01*
X132152000Y-108573750D01*
X132152000Y-109773000D01*
X133168000Y-109773000D01*
X133168000Y-109753000D01*
X133422000Y-109753000D01*
X133422000Y-109773000D01*
X134438000Y-109773000D01*
X134438000Y-109753000D01*
X134692000Y-109753000D01*
X134692000Y-109773000D01*
X135708000Y-109773000D01*
X135708000Y-109753000D01*
X135962000Y-109753000D01*
X135962000Y-109773000D01*
X136636250Y-109773000D01*
X136795000Y-109614250D01*
X136795000Y-109363600D01*
X137611401Y-109363600D01*
X137611400Y-114485052D01*
X137611401Y-114485056D01*
X137611401Y-114836400D01*
X134842847Y-114836400D01*
X134757799Y-114819483D01*
X134672751Y-114836400D01*
X134672747Y-114836400D01*
X134420840Y-114886507D01*
X134135180Y-115077380D01*
X134086999Y-115149487D01*
X134014486Y-115222001D01*
X133942381Y-115270180D01*
X133894202Y-115342285D01*
X133751507Y-115555841D01*
X133718429Y-115722139D01*
X133620000Y-115702560D01*
X132970000Y-115702560D01*
X132722235Y-115751843D01*
X132660000Y-115793427D01*
X132597765Y-115751843D01*
X132350000Y-115702560D01*
X131948600Y-115702560D01*
X131948600Y-115017713D01*
X132402714Y-114563600D01*
X135439951Y-114563600D01*
X135525000Y-114580517D01*
X135610049Y-114563600D01*
X135610053Y-114563600D01*
X135861960Y-114513493D01*
X136147620Y-114322620D01*
X136195802Y-114250512D01*
X136311313Y-114135000D01*
X136330874Y-114135000D01*
X136711280Y-113977431D01*
X137002431Y-113686280D01*
X137160000Y-113305874D01*
X137160000Y-112894126D01*
X137002431Y-112513720D01*
X136711280Y-112222569D01*
X136330874Y-112065000D01*
X135919126Y-112065000D01*
X135538720Y-112222569D01*
X135247569Y-112513720D01*
X135113911Y-112836400D01*
X132130048Y-112836400D01*
X132044999Y-112819483D01*
X131959950Y-112836400D01*
X131959947Y-112836400D01*
X131708040Y-112886507D01*
X131422380Y-113077380D01*
X131374201Y-113149485D01*
X130719074Y-113804613D01*
X130709586Y-113790414D01*
X130708403Y-113789623D01*
X130863327Y-113634698D01*
X130960000Y-113401309D01*
X130960000Y-112985750D01*
X130801250Y-112827000D01*
X129752000Y-112827000D01*
X129752000Y-112847000D01*
X129498000Y-112847000D01*
X129498000Y-112827000D01*
X128448750Y-112827000D01*
X128290000Y-112985750D01*
X128290000Y-113401309D01*
X128386673Y-113634698D01*
X128541597Y-113789623D01*
X128540414Y-113790414D01*
X128345873Y-114081564D01*
X128277560Y-114424999D01*
X128277560Y-115075001D01*
X128345873Y-115418436D01*
X128540414Y-115709586D01*
X128831564Y-115904127D01*
X128917988Y-115921318D01*
X129002381Y-116047620D01*
X129074487Y-116095800D01*
X129315087Y-116336400D01*
X129200111Y-116336400D01*
X129186280Y-116322569D01*
X128805874Y-116165000D01*
X128786314Y-116165000D01*
X128078341Y-115457028D01*
X128104127Y-115418436D01*
X128172440Y-115075001D01*
X128172440Y-114424999D01*
X128104127Y-114081564D01*
X127909586Y-113790414D01*
X127908403Y-113789623D01*
X128063327Y-113634698D01*
X128160000Y-113401309D01*
X128160000Y-112985750D01*
X128001250Y-112827000D01*
X126952000Y-112827000D01*
X126952000Y-112847000D01*
X126698000Y-112847000D01*
X126698000Y-112827000D01*
X125648750Y-112827000D01*
X125490000Y-112985750D01*
X125490000Y-113401309D01*
X125586673Y-113634698D01*
X125741597Y-113789623D01*
X125740414Y-113790414D01*
X125545873Y-114081564D01*
X125477560Y-114424999D01*
X125477560Y-115075001D01*
X125545873Y-115418436D01*
X125740414Y-115709586D01*
X126031564Y-115904127D01*
X126117988Y-115921318D01*
X126202381Y-116047620D01*
X126274487Y-116095800D01*
X127565000Y-117386314D01*
X127565000Y-117405874D01*
X127722569Y-117786280D01*
X128013720Y-118077431D01*
X128394126Y-118235000D01*
X128805874Y-118235000D01*
X129186280Y-118077431D01*
X129200111Y-118063600D01*
X131055265Y-118063600D01*
X131101843Y-118297765D01*
X131242191Y-118507809D01*
X131452235Y-118648157D01*
X131700000Y-118697440D01*
X132350000Y-118697440D01*
X132431400Y-118681249D01*
X132431400Y-118772286D01*
X132117287Y-119086400D01*
X130512479Y-119086400D01*
X130491626Y-118981565D01*
X130297086Y-118690414D01*
X130005935Y-118495874D01*
X129662500Y-118427560D01*
X128737500Y-118427560D01*
X128394065Y-118495874D01*
X128102914Y-118690414D01*
X127908374Y-118981565D01*
X127840060Y-119325000D01*
X127840060Y-120575000D01*
X127908374Y-120918435D01*
X127956309Y-120990176D01*
X127593753Y-120840000D01*
X127572500Y-120840000D01*
X127572500Y-120235750D01*
X127413750Y-120077000D01*
X126352000Y-120077000D01*
X126352000Y-120097000D01*
X126098000Y-120097000D01*
X126098000Y-120077000D01*
X126078000Y-120077000D01*
X126078000Y-119823000D01*
X126098000Y-119823000D01*
X126098000Y-118598750D01*
X126352000Y-118598750D01*
X126352000Y-119823000D01*
X127413750Y-119823000D01*
X127572500Y-119664250D01*
X127572500Y-118948690D01*
X127475827Y-118715301D01*
X127297198Y-118536673D01*
X127063809Y-118440000D01*
X126510750Y-118440000D01*
X126352000Y-118598750D01*
X126098000Y-118598750D01*
X125939250Y-118440000D01*
X125386191Y-118440000D01*
X125152802Y-118536673D01*
X124974173Y-118715301D01*
X124960000Y-118749518D01*
X124960000Y-108955530D01*
X125054138Y-109182799D01*
X125542201Y-109670862D01*
X126179887Y-109935000D01*
X126526288Y-109935000D01*
X126347569Y-110113719D01*
X126190000Y-110494125D01*
X126190000Y-110905873D01*
X126347569Y-111286279D01*
X126638720Y-111577430D01*
X126697998Y-111601984D01*
X126697998Y-111648748D01*
X126539250Y-111490000D01*
X125998690Y-111490000D01*
X125765301Y-111586673D01*
X125586673Y-111765302D01*
X125490000Y-111998691D01*
X125490000Y-112414250D01*
X125648750Y-112573000D01*
X126698000Y-112573000D01*
X126698000Y-112553000D01*
X126952000Y-112553000D01*
X126952000Y-112573000D01*
X128001250Y-112573000D01*
X128160000Y-112414250D01*
X128160000Y-111998691D01*
X128290000Y-111998691D01*
X128290000Y-112414250D01*
X128448750Y-112573000D01*
X129498000Y-112573000D01*
X129498000Y-111648750D01*
X129752000Y-111648750D01*
X129752000Y-112573000D01*
X130801250Y-112573000D01*
X130960000Y-112414250D01*
X130960000Y-111998691D01*
X130863327Y-111765302D01*
X130684699Y-111586673D01*
X130451310Y-111490000D01*
X129910750Y-111490000D01*
X129752000Y-111648750D01*
X129498000Y-111648750D01*
X129339250Y-111490000D01*
X128798690Y-111490000D01*
X128565301Y-111586673D01*
X128386673Y-111765302D01*
X128290000Y-111998691D01*
X128160000Y-111998691D01*
X128063327Y-111765302D01*
X127884699Y-111586673D01*
X127826248Y-111562462D01*
X128102431Y-111286279D01*
X128260000Y-110905873D01*
X128260000Y-110670787D01*
X128478364Y-110452423D01*
X128537746Y-110412745D01*
X128694936Y-110177495D01*
X128736200Y-109970045D01*
X128736200Y-109970041D01*
X128750132Y-109899999D01*
X128736200Y-109829957D01*
X128736200Y-109485750D01*
X129140000Y-109485750D01*
X129140000Y-109901309D01*
X129236673Y-110134698D01*
X129415301Y-110313327D01*
X129648690Y-110410000D01*
X130189250Y-110410000D01*
X130348000Y-110251250D01*
X130348000Y-109327000D01*
X129298750Y-109327000D01*
X129140000Y-109485750D01*
X128736200Y-109485750D01*
X128736200Y-106012737D01*
X130478367Y-104270571D01*
X130537746Y-104230895D01*
X130577422Y-104171516D01*
X130577424Y-104171514D01*
X130694935Y-103995647D01*
X130694935Y-103995646D01*
X130694936Y-103995645D01*
X130707204Y-103933971D01*
X130902431Y-103738744D01*
X131060000Y-103358338D01*
X131060000Y-102946590D01*
X130902431Y-102566184D01*
X130611280Y-102275033D01*
X130230874Y-102117464D01*
X129819126Y-102117464D01*
X129438720Y-102275033D01*
X129147569Y-102566184D01*
X128990000Y-102946590D01*
X128990000Y-103358338D01*
X129103942Y-103633418D01*
X128620295Y-104117066D01*
X128571982Y-104000429D01*
X128271553Y-103700000D01*
X128571982Y-103399571D01*
X128760000Y-102945657D01*
X128760000Y-102454343D01*
X128571982Y-102000429D01*
X128271553Y-101700000D01*
X128571982Y-101399571D01*
X128760000Y-100945657D01*
X128760000Y-100454343D01*
X128753719Y-100439180D01*
X128794934Y-100377498D01*
X128794935Y-100377497D01*
X128836199Y-100170047D01*
X128836199Y-100170043D01*
X128850131Y-100100001D01*
X128836199Y-100029959D01*
X128836199Y-99209589D01*
X128996606Y-99049182D01*
X129021673Y-99109699D01*
X129200302Y-99288327D01*
X129433691Y-99385000D01*
X130049250Y-99385000D01*
X130208000Y-99226250D01*
X130208000Y-98577000D01*
X130188000Y-98577000D01*
X130188000Y-98323000D01*
X130208000Y-98323000D01*
X130208000Y-98303000D01*
X130462000Y-98303000D01*
X130462000Y-98323000D01*
G36*
X172513800Y-116605411D02*
X171630412Y-117488800D01*
X170719589Y-117488800D01*
X169557788Y-116327000D01*
X172513800Y-116327000D01*
X172513800Y-116605411D01*
X172513800Y-116605411D01*
G37*
X172513800Y-116605411D02*
X171630412Y-117488800D01*
X170719589Y-117488800D01*
X169557788Y-116327000D01*
X172513800Y-116327000D01*
X172513800Y-116605411D01*
G36*
X137700000Y-100714250D02*
X137858750Y-100873000D01*
X138908000Y-100873000D01*
X138908000Y-100853000D01*
X139162000Y-100853000D01*
X139162000Y-100873000D01*
X139182000Y-100873000D01*
X139182000Y-101127000D01*
X139162000Y-101127000D01*
X139162000Y-102051250D01*
X139320750Y-102210000D01*
X139861310Y-102210000D01*
X140094699Y-102113327D01*
X140273327Y-101934698D01*
X140273801Y-101933554D01*
X140273801Y-101975410D01*
X139549152Y-102700060D01*
X138570000Y-102700060D01*
X138226565Y-102768374D01*
X137935414Y-102962914D01*
X137740874Y-103254065D01*
X137672560Y-103597500D01*
X137672560Y-104522500D01*
X137683281Y-104576400D01*
X137618600Y-104576400D01*
X137618600Y-101285750D01*
X137700000Y-101285750D01*
X137700000Y-101701309D01*
X137796673Y-101934698D01*
X137975301Y-102113327D01*
X138208690Y-102210000D01*
X138749250Y-102210000D01*
X138908000Y-102051250D01*
X138908000Y-101127000D01*
X137858750Y-101127000D01*
X137700000Y-101285750D01*
X137618600Y-101285750D01*
X137618600Y-100885053D01*
X137635518Y-100800000D01*
X137627510Y-100759739D01*
X137700000Y-100711303D01*
X137700000Y-100714250D01*
X137700000Y-100714250D01*
G37*
X137700000Y-100714250D02*
X137858750Y-100873000D01*
X138908000Y-100873000D01*
X138908000Y-100853000D01*
X139162000Y-100853000D01*
X139162000Y-100873000D01*
X139182000Y-100873000D01*
X139182000Y-101127000D01*
X139162000Y-101127000D01*
X139162000Y-102051250D01*
X139320750Y-102210000D01*
X139861310Y-102210000D01*
X140094699Y-102113327D01*
X140273327Y-101934698D01*
X140273801Y-101933554D01*
X140273801Y-101975410D01*
X139549152Y-102700060D01*
X138570000Y-102700060D01*
X138226565Y-102768374D01*
X137935414Y-102962914D01*
X137740874Y-103254065D01*
X137672560Y-103597500D01*
X137672560Y-104522500D01*
X137683281Y-104576400D01*
X137618600Y-104576400D01*
X137618600Y-101285750D01*
X137700000Y-101285750D01*
X137700000Y-101701309D01*
X137796673Y-101934698D01*
X137975301Y-102113327D01*
X138208690Y-102210000D01*
X138749250Y-102210000D01*
X138908000Y-102051250D01*
X138908000Y-101127000D01*
X137858750Y-101127000D01*
X137700000Y-101285750D01*
X137618600Y-101285750D01*
X137618600Y-100885053D01*
X137635518Y-100800000D01*
X137627510Y-100759739D01*
X137700000Y-100711303D01*
X137700000Y-100714250D01*
G36*
X140273801Y-101189551D02*
X140211252Y-101127002D01*
X140273801Y-101127002D01*
X140273801Y-101189551D01*
X140273801Y-101189551D01*
G37*
X140273801Y-101189551D02*
X140211252Y-101127002D01*
X140273801Y-101127002D01*
X140273801Y-101189551D01*
G36*
X140273801Y-100872998D02*
X140211252Y-100872998D01*
X140273801Y-100810449D01*
X140273801Y-100872998D01*
X140273801Y-100872998D01*
G37*
X140273801Y-100872998D02*
X140211252Y-100872998D01*
X140273801Y-100810449D01*
X140273801Y-100872998D01*
G36*
X140273800Y-100066445D02*
X140273327Y-100065302D01*
X140118403Y-99910377D01*
X140119586Y-99909586D01*
X140273800Y-99678789D01*
X140273800Y-100066445D01*
X140273800Y-100066445D01*
G37*
X140273800Y-100066445D02*
X140273327Y-100065302D01*
X140118403Y-99910377D01*
X140119586Y-99909586D01*
X140273800Y-99678789D01*
X140273800Y-100066445D01*
G36*
X140401941Y-96152422D02*
X140401943Y-96152424D01*
X140577810Y-96269935D01*
X140577811Y-96269935D01*
X140577812Y-96269936D01*
X140785262Y-96311200D01*
X140785265Y-96311200D01*
X140855307Y-96325132D01*
X140887560Y-96318717D01*
X140887560Y-96795001D01*
X140955873Y-97138436D01*
X140985875Y-97183337D01*
X140531634Y-97637578D01*
X140472254Y-97677255D01*
X140432578Y-97736634D01*
X140432576Y-97736636D01*
X140383902Y-97809482D01*
X140315064Y-97912505D01*
X140273800Y-98119955D01*
X140273800Y-98119959D01*
X140259868Y-98190000D01*
X140262802Y-98204751D01*
X140119586Y-97990414D01*
X139886627Y-97834755D01*
X139855845Y-97680000D01*
X139861310Y-97680000D01*
X140094699Y-97583327D01*
X140273327Y-97404698D01*
X140370000Y-97171309D01*
X140370000Y-96755750D01*
X140211250Y-96597000D01*
X139162000Y-96597000D01*
X139162000Y-96617000D01*
X138908000Y-96617000D01*
X138908000Y-96597000D01*
X138888000Y-96597000D01*
X138888000Y-96343000D01*
X138908000Y-96343000D01*
X138908000Y-96323000D01*
X139162000Y-96323000D01*
X139162000Y-96343000D01*
X140211250Y-96343000D01*
X140370000Y-96184250D01*
X140370000Y-96131080D01*
X140401941Y-96152422D01*
X140401941Y-96152422D01*
G37*
X140401941Y-96152422D02*
X140401943Y-96152424D01*
X140577810Y-96269935D01*
X140577811Y-96269935D01*
X140577812Y-96269936D01*
X140785262Y-96311200D01*
X140785265Y-96311200D01*
X140855307Y-96325132D01*
X140887560Y-96318717D01*
X140887560Y-96795001D01*
X140955873Y-97138436D01*
X140985875Y-97183337D01*
X140531634Y-97637578D01*
X140472254Y-97677255D01*
X140432578Y-97736634D01*
X140432576Y-97736636D01*
X140383902Y-97809482D01*
X140315064Y-97912505D01*
X140273800Y-98119955D01*
X140273800Y-98119959D01*
X140259868Y-98190000D01*
X140262802Y-98204751D01*
X140119586Y-97990414D01*
X139886627Y-97834755D01*
X139855845Y-97680000D01*
X139861310Y-97680000D01*
X140094699Y-97583327D01*
X140273327Y-97404698D01*
X140370000Y-97171309D01*
X140370000Y-96755750D01*
X140211250Y-96597000D01*
X139162000Y-96597000D01*
X139162000Y-96617000D01*
X138908000Y-96617000D01*
X138908000Y-96597000D01*
X138888000Y-96597000D01*
X138888000Y-96343000D01*
X138908000Y-96343000D01*
X138908000Y-96323000D01*
X139162000Y-96323000D01*
X139162000Y-96343000D01*
X140211250Y-96343000D01*
X140370000Y-96184250D01*
X140370000Y-96131080D01*
X140401941Y-96152422D01*
G36*
X135862000Y-97053000D02*
X135882000Y-97053000D01*
X135882000Y-97307000D01*
X135862000Y-97307000D01*
X135862000Y-97327000D01*
X135608000Y-97327000D01*
X135608000Y-97307000D01*
X135588000Y-97307000D01*
X135588000Y-97053000D01*
X135608000Y-97053000D01*
X135608000Y-97033000D01*
X135862000Y-97033000D01*
X135862000Y-97053000D01*
X135862000Y-97053000D01*
G37*
X135862000Y-97053000D02*
X135882000Y-97053000D01*
X135882000Y-97307000D01*
X135862000Y-97307000D01*
X135862000Y-97327000D01*
X135608000Y-97327000D01*
X135608000Y-97307000D01*
X135588000Y-97307000D01*
X135588000Y-97053000D01*
X135608000Y-97053000D01*
X135608000Y-97033000D01*
X135862000Y-97033000D01*
X135862000Y-97053000D01*
G36*
X147034869Y-79997821D02*
X146947569Y-80085121D01*
X146790000Y-80465527D01*
X146790000Y-80718486D01*
X146722440Y-80746470D01*
X146722440Y-80350000D01*
X146673157Y-80102235D01*
X146532809Y-79892191D01*
X146322765Y-79751843D01*
X146075000Y-79702560D01*
X144375000Y-79702560D01*
X144127235Y-79751843D01*
X143919222Y-79890834D01*
X142675024Y-78646636D01*
X142635346Y-78587254D01*
X142439167Y-78456170D01*
X142460000Y-78405874D01*
X142460000Y-77994126D01*
X142302431Y-77613720D01*
X142011280Y-77322569D01*
X141630874Y-77165000D01*
X141219126Y-77165000D01*
X140838720Y-77322569D01*
X140824889Y-77336400D01*
X134863455Y-77336400D01*
X134778407Y-77319483D01*
X134693359Y-77336400D01*
X134693355Y-77336400D01*
X134441448Y-77386507D01*
X134155788Y-77577380D01*
X134107610Y-77649483D01*
X131214487Y-80542608D01*
X131142381Y-80590788D01*
X131094202Y-80662893D01*
X130951507Y-80876449D01*
X130884483Y-81213408D01*
X130901401Y-81298462D01*
X130901400Y-83054950D01*
X130884483Y-83140000D01*
X130901400Y-83225049D01*
X130901400Y-83225052D01*
X130951507Y-83476959D01*
X131142380Y-83762620D01*
X131214489Y-83810802D01*
X132861401Y-85457716D01*
X132861400Y-93992286D01*
X132535000Y-94318686D01*
X132305801Y-94089488D01*
X132257620Y-94017380D01*
X131971960Y-93826507D01*
X131720053Y-93776400D01*
X131720049Y-93776400D01*
X131635000Y-93759483D01*
X131549951Y-93776400D01*
X131409483Y-93776400D01*
X131357765Y-93741843D01*
X131110000Y-93692560D01*
X129560000Y-93692560D01*
X129312235Y-93741843D01*
X129102191Y-93882191D01*
X128961843Y-94092235D01*
X128912560Y-94340000D01*
X128912560Y-94940000D01*
X128961843Y-95187765D01*
X129020132Y-95275000D01*
X128961843Y-95362235D01*
X128912560Y-95610000D01*
X128912560Y-95851651D01*
X128157290Y-96606922D01*
X127995862Y-96217201D01*
X127507799Y-95729138D01*
X126870113Y-95465000D01*
X126179887Y-95465000D01*
X125542201Y-95729138D01*
X125054138Y-96217201D01*
X124960000Y-96444470D01*
X124960000Y-89924506D01*
X129090000Y-89924506D01*
X129090000Y-90475494D01*
X129300853Y-90984540D01*
X129690460Y-91374147D01*
X130199506Y-91585000D01*
X130750494Y-91585000D01*
X131259540Y-91374147D01*
X131649147Y-90984540D01*
X131860000Y-90475494D01*
X131860000Y-89924506D01*
X131649147Y-89415460D01*
X131259540Y-89025853D01*
X130750494Y-88815000D01*
X130199506Y-88815000D01*
X129690460Y-89025853D01*
X129300853Y-89415460D01*
X129090000Y-89924506D01*
X124960000Y-89924506D01*
X124960000Y-85044506D01*
X129090000Y-85044506D01*
X129090000Y-85595494D01*
X129300853Y-86104540D01*
X129690460Y-86494147D01*
X130199506Y-86705000D01*
X130750494Y-86705000D01*
X131259540Y-86494147D01*
X131649147Y-86104540D01*
X131860000Y-85595494D01*
X131860000Y-85044506D01*
X131649147Y-84535460D01*
X131259540Y-84145853D01*
X130750494Y-83935000D01*
X130199506Y-83935000D01*
X129690460Y-84145853D01*
X129300853Y-84535460D01*
X129090000Y-85044506D01*
X124960000Y-85044506D01*
X124960000Y-78381428D01*
X125309133Y-78730561D01*
X126406247Y-79185000D01*
X127593753Y-79185000D01*
X128690867Y-78730561D01*
X129530561Y-77890867D01*
X129985000Y-76793753D01*
X129985000Y-75606247D01*
X129530561Y-74509133D01*
X128956428Y-73935000D01*
X147024297Y-73935000D01*
X147034869Y-79997821D01*
X147034869Y-79997821D01*
G37*
X147034869Y-79997821D02*
X146947569Y-80085121D01*
X146790000Y-80465527D01*
X146790000Y-80718486D01*
X146722440Y-80746470D01*
X146722440Y-80350000D01*
X146673157Y-80102235D01*
X146532809Y-79892191D01*
X146322765Y-79751843D01*
X146075000Y-79702560D01*
X144375000Y-79702560D01*
X144127235Y-79751843D01*
X143919222Y-79890834D01*
X142675024Y-78646636D01*
X142635346Y-78587254D01*
X142439167Y-78456170D01*
X142460000Y-78405874D01*
X142460000Y-77994126D01*
X142302431Y-77613720D01*
X142011280Y-77322569D01*
X141630874Y-77165000D01*
X141219126Y-77165000D01*
X140838720Y-77322569D01*
X140824889Y-77336400D01*
X134863455Y-77336400D01*
X134778407Y-77319483D01*
X134693359Y-77336400D01*
X134693355Y-77336400D01*
X134441448Y-77386507D01*
X134155788Y-77577380D01*
X134107610Y-77649483D01*
X131214487Y-80542608D01*
X131142381Y-80590788D01*
X131094202Y-80662893D01*
X130951507Y-80876449D01*
X130884483Y-81213408D01*
X130901401Y-81298462D01*
X130901400Y-83054950D01*
X130884483Y-83140000D01*
X130901400Y-83225049D01*
X130901400Y-83225052D01*
X130951507Y-83476959D01*
X131142380Y-83762620D01*
X131214489Y-83810802D01*
X132861401Y-85457716D01*
X132861400Y-93992286D01*
X132535000Y-94318686D01*
X132305801Y-94089488D01*
X132257620Y-94017380D01*
X131971960Y-93826507D01*
X131720053Y-93776400D01*
X131720049Y-93776400D01*
X131635000Y-93759483D01*
X131549951Y-93776400D01*
X131409483Y-93776400D01*
X131357765Y-93741843D01*
X131110000Y-93692560D01*
X129560000Y-93692560D01*
X129312235Y-93741843D01*
X129102191Y-93882191D01*
X128961843Y-94092235D01*
X128912560Y-94340000D01*
X128912560Y-94940000D01*
X128961843Y-95187765D01*
X129020132Y-95275000D01*
X128961843Y-95362235D01*
X128912560Y-95610000D01*
X128912560Y-95851651D01*
X128157290Y-96606922D01*
X127995862Y-96217201D01*
X127507799Y-95729138D01*
X126870113Y-95465000D01*
X126179887Y-95465000D01*
X125542201Y-95729138D01*
X125054138Y-96217201D01*
X124960000Y-96444470D01*
X124960000Y-89924506D01*
X129090000Y-89924506D01*
X129090000Y-90475494D01*
X129300853Y-90984540D01*
X129690460Y-91374147D01*
X130199506Y-91585000D01*
X130750494Y-91585000D01*
X131259540Y-91374147D01*
X131649147Y-90984540D01*
X131860000Y-90475494D01*
X131860000Y-89924506D01*
X131649147Y-89415460D01*
X131259540Y-89025853D01*
X130750494Y-88815000D01*
X130199506Y-88815000D01*
X129690460Y-89025853D01*
X129300853Y-89415460D01*
X129090000Y-89924506D01*
X124960000Y-89924506D01*
X124960000Y-85044506D01*
X129090000Y-85044506D01*
X129090000Y-85595494D01*
X129300853Y-86104540D01*
X129690460Y-86494147D01*
X130199506Y-86705000D01*
X130750494Y-86705000D01*
X131259540Y-86494147D01*
X131649147Y-86104540D01*
X131860000Y-85595494D01*
X131860000Y-85044506D01*
X131649147Y-84535460D01*
X131259540Y-84145853D01*
X130750494Y-83935000D01*
X130199506Y-83935000D01*
X129690460Y-84145853D01*
X129300853Y-84535460D01*
X129090000Y-85044506D01*
X124960000Y-85044506D01*
X124960000Y-78381428D01*
X125309133Y-78730561D01*
X126406247Y-79185000D01*
X127593753Y-79185000D01*
X128690867Y-78730561D01*
X129530561Y-77890867D01*
X129985000Y-76793753D01*
X129985000Y-75606247D01*
X129530561Y-74509133D01*
X128956428Y-73935000D01*
X147024297Y-73935000D01*
X147034869Y-79997821D01*
G36*
X144175873Y-87278436D02*
X144370414Y-87569586D01*
X144661564Y-87764127D01*
X145004999Y-87832440D01*
X145905001Y-87832440D01*
X146061400Y-87801330D01*
X146061401Y-88350000D01*
X145720750Y-88350000D01*
X145562000Y-88508750D01*
X145562000Y-89433000D01*
X145582000Y-89433000D01*
X145582000Y-89687000D01*
X145562000Y-89687000D01*
X145562000Y-89707000D01*
X145308000Y-89707000D01*
X145308000Y-89687000D01*
X145288000Y-89687000D01*
X145288000Y-89433000D01*
X145308000Y-89433000D01*
X145308000Y-88508750D01*
X145149250Y-88350000D01*
X144608690Y-88350000D01*
X144375301Y-88446673D01*
X144196673Y-88625302D01*
X144100000Y-88858691D01*
X144100000Y-89159212D01*
X143557424Y-88616636D01*
X143517746Y-88557254D01*
X143282496Y-88400064D01*
X143243407Y-88392289D01*
X143273157Y-88347765D01*
X143322440Y-88100000D01*
X143322440Y-87858348D01*
X143878369Y-87302420D01*
X143937745Y-87262746D01*
X143977420Y-87203369D01*
X143977424Y-87203365D01*
X144094935Y-87027498D01*
X144094935Y-87027497D01*
X144094936Y-87027496D01*
X144110447Y-86949516D01*
X144175873Y-87278436D01*
X144175873Y-87278436D01*
G37*
X144175873Y-87278436D02*
X144370414Y-87569586D01*
X144661564Y-87764127D01*
X145004999Y-87832440D01*
X145905001Y-87832440D01*
X146061400Y-87801330D01*
X146061401Y-88350000D01*
X145720750Y-88350000D01*
X145562000Y-88508750D01*
X145562000Y-89433000D01*
X145582000Y-89433000D01*
X145582000Y-89687000D01*
X145562000Y-89687000D01*
X145562000Y-89707000D01*
X145308000Y-89707000D01*
X145308000Y-89687000D01*
X145288000Y-89687000D01*
X145288000Y-89433000D01*
X145308000Y-89433000D01*
X145308000Y-88508750D01*
X145149250Y-88350000D01*
X144608690Y-88350000D01*
X144375301Y-88446673D01*
X144196673Y-88625302D01*
X144100000Y-88858691D01*
X144100000Y-89159212D01*
X143557424Y-88616636D01*
X143517746Y-88557254D01*
X143282496Y-88400064D01*
X143243407Y-88392289D01*
X143273157Y-88347765D01*
X143322440Y-88100000D01*
X143322440Y-87858348D01*
X143878369Y-87302420D01*
X143937745Y-87262746D01*
X143977420Y-87203369D01*
X143977424Y-87203365D01*
X144094935Y-87027498D01*
X144094935Y-87027497D01*
X144094936Y-87027496D01*
X144110447Y-86949516D01*
X144175873Y-87278436D01*
G36*
X144216673Y-85494698D02*
X144371597Y-85649623D01*
X144370414Y-85650414D01*
X144175873Y-85941564D01*
X144136200Y-86141015D01*
X144136200Y-85300419D01*
X144216673Y-85494698D01*
X144216673Y-85494698D01*
G37*
X144216673Y-85494698D02*
X144371597Y-85649623D01*
X144370414Y-85650414D01*
X144175873Y-85941564D01*
X144136200Y-86141015D01*
X144136200Y-85300419D01*
X144216673Y-85494698D01*
G36*
X147042404Y-84318648D02*
X147043871Y-85159816D01*
X146567287Y-85636400D01*
X146551626Y-85636400D01*
X146693327Y-85494698D01*
X146790000Y-85261309D01*
X146790000Y-84845750D01*
X146631250Y-84687000D01*
X145582000Y-84687000D01*
X145582000Y-84707000D01*
X145328000Y-84707000D01*
X145328000Y-84687000D01*
X145308000Y-84687000D01*
X145308000Y-84433000D01*
X145328000Y-84433000D01*
X145328000Y-84413000D01*
X145582000Y-84413000D01*
X145582000Y-84433000D01*
X146631250Y-84433000D01*
X146753050Y-84311200D01*
X147004959Y-84311200D01*
X147042404Y-84318648D01*
X147042404Y-84318648D01*
G37*
X147042404Y-84318648D02*
X147043871Y-85159816D01*
X146567287Y-85636400D01*
X146551626Y-85636400D01*
X146693327Y-85494698D01*
X146790000Y-85261309D01*
X146790000Y-84845750D01*
X146631250Y-84687000D01*
X145582000Y-84687000D01*
X145582000Y-84707000D01*
X145328000Y-84707000D01*
X145328000Y-84687000D01*
X145308000Y-84687000D01*
X145308000Y-84433000D01*
X145328000Y-84433000D01*
X145328000Y-84413000D01*
X145582000Y-84413000D01*
X145582000Y-84433000D01*
X146631250Y-84433000D01*
X146753050Y-84311200D01*
X147004959Y-84311200D01*
X147042404Y-84318648D01*
G36*
X144136200Y-84829550D02*
X144136200Y-84687002D01*
X144278748Y-84687002D01*
X144136200Y-84829550D01*
X144136200Y-84829550D01*
G37*
X144136200Y-84829550D02*
X144136200Y-84687002D01*
X144278748Y-84687002D01*
X144136200Y-84829550D01*
G36*
X144278748Y-84432998D02*
X144197790Y-84432998D01*
X144238269Y-84392519D01*
X144278748Y-84432998D01*
X144278748Y-84432998D01*
G37*
X144278748Y-84432998D02*
X144197790Y-84432998D01*
X144238269Y-84392519D01*
X144278748Y-84432998D01*
G36*
X140272000Y-81073000D02*
X140292000Y-81073000D01*
X140292000Y-81327000D01*
X140272000Y-81327000D01*
X140272000Y-81347000D01*
X140018000Y-81347000D01*
X140018000Y-81327000D01*
X139998000Y-81327000D01*
X139998000Y-81073000D01*
X140018000Y-81073000D01*
X140018000Y-81053000D01*
X140272000Y-81053000D01*
X140272000Y-81073000D01*
X140272000Y-81073000D01*
G37*
X140272000Y-81073000D02*
X140292000Y-81073000D01*
X140292000Y-81327000D01*
X140272000Y-81327000D01*
X140272000Y-81347000D01*
X140018000Y-81347000D01*
X140018000Y-81327000D01*
X139998000Y-81327000D01*
X139998000Y-81073000D01*
X140018000Y-81073000D01*
X140018000Y-81053000D01*
X140272000Y-81053000D01*
X140272000Y-81073000D01*
G04 #@! TD*
M02*
